<svg width="20" height="22" viewBox="0 0 20 22" fill="none" xmlns="http://www.w3.org/2000/svg">
<path fill-rule="evenodd" clip-rule="evenodd" d="M4 1.76001C2.74764 1.76001 1.75 2.76074 1.75 3.97998V14.89C1.75 16.1093 2.74764 17.11 4 17.11H4.75C5.73266 17.11 6.69436 17.4946 7.39871 18.198C7.39925 18.1986 7.39979 18.1991 7.40033 18.1996L9.1069 19.8863C9.10694 19.8863 9.10686 19.8863 9.1069 19.8863C9.59472 20.3677 10.3949 20.3679 10.8828 19.8866M10.8828 19.8866L12.5897 18.1996C12.5902 18.1991 12.5908 18.1985 12.5914 18.1979C13.2948 17.4954 14.2461 17.11 15.24 17.11H16C17.2507 17.11 18.25 16.1009 18.25 14.89V3.97998C18.25 2.76074 17.2524 1.76001 16 1.76001H4M0.25 3.97998C0.25 1.91923 1.93236 0.26001 4 0.26001H16C18.0676 0.26001 19.75 1.91923 19.75 3.97998V14.89C19.75 16.9391 18.0693 18.61 16 18.61H15.24C14.6347 18.61 14.0667 18.8439 13.6503 19.2603L13.6472 19.2634L11.9372 20.9535C10.8651 22.0118 9.12519 22.0121 8.0531 20.9538L6.34278 19.2634L6.33966 19.2603C5.92416 18.8448 5.34659 18.61 4.75 18.61H4C1.93236 18.61 0.25 16.9508 0.25 14.89V3.97998Z" fill="#101010"/>
<path fill-rule="evenodd" clip-rule="evenodd" d="M6.69 7.21997C6.17425 7.21997 5.75 7.64421 5.75 8.16003C5.75 8.57425 5.41421 8.91003 5 8.91003C4.58579 8.91003 4.25 8.57425 4.25 8.16003C4.25 6.81586 5.34575 5.71997 6.69 5.71997C8.03425 5.71997 9.13 6.81586 9.13 8.16003C9.13 9.53607 8.10678 10.2591 7.39566 10.7471C7.36158 10.7705 7.32799 10.7936 7.29488 10.8162C6.64348 11.2626 6.17974 11.5804 5.93869 12.02H8.38C8.79422 12.02 9.13 12.3558 9.13 12.77C9.13 13.1842 8.79422 13.52 8.38 13.52H5.7C4.88237 13.52 4.10508 12.7283 4.40658 11.7987L4.40768 11.7952L4.40769 11.7952C4.76508 10.711 5.70133 10.0805 6.36399 9.63429C6.42772 9.59138 6.48893 9.55016 6.54684 9.51041C7.31823 8.98098 7.63 8.664 7.63 8.16003C7.63 7.64421 7.20575 7.21997 6.69 7.21997Z" fill="#101010"/>
<path fill-rule="evenodd" clip-rule="evenodd" d="M12.327 6.33737C12.6482 5.83264 13.2604 5.61055 13.822 5.76781C14.4049 5.93102 14.7898 6.46321 14.7898 7.05009V10.57H14.9998C15.414 10.57 15.7498 10.9058 15.7498 11.32C15.7498 11.7342 15.414 12.07 14.9998 12.07H14.7898V12.76C14.7898 13.1743 14.454 13.51 14.0398 13.51C13.6255 13.51 13.2898 13.1743 13.2898 12.76V12.07H11.3298C10.8417 12.07 10.3795 11.8156 10.1307 11.3858C9.88612 10.9634 9.88612 10.4267 10.1307 10.0043L10.1327 10.0007L10.1327 10.0008C10.813 8.84024 11.5972 7.51319 12.3225 6.34451L12.327 6.33735L12.327 6.33737ZM13.2898 10.57V7.63417C12.7037 8.59177 12.0924 9.62499 11.5378 10.57H13.2898Z" fill="#101010"/>
</svg>
