<svg width="20" height="22" viewBox="0 0 20 22" fill="none" xmlns="http://www.w3.org/2000/svg">
<path fill-rule="evenodd" clip-rule="evenodd" d="M9.27682 6.93031C11.4598 6.41117 13.3784 8.32928 12.8603 10.5121C12.6143 11.5621 11.7667 12.4032 10.7178 12.6587L10.7138 12.6596L10.7138 12.6596C8.53039 13.1789 6.61145 11.2599 7.13069 9.07647L7.13215 9.0703L7.13218 9.07031C7.38893 8.02981 8.23013 7.18855 9.27066 6.9318L9.27681 6.93028L9.27682 6.93031ZM9.627 8.38886C10.7222 8.13066 11.6612 9.07099 11.4007 10.1665L11.4 10.1693C11.2858 10.658 10.8745 11.0758 10.3648 11.2008C9.27016 11.4597 8.33119 10.5212 8.58924 9.42665C8.71318 8.92948 9.12987 8.5128 9.627 8.38886Z" fill="#101010"/>
<path fill-rule="evenodd" clip-rule="evenodd" d="M0.459961 9.78998C0.459961 4.52576 4.73574 0.25 9.99995 0.25C15.2636 0.25 19.5399 4.51521 19.5399 9.78998C19.5399 12.5368 18.377 15.0023 16.5224 16.7377C16.2199 17.0207 15.7453 17.0049 15.4623 16.7024C15.1793 16.4 15.1951 15.9254 15.4975 15.6424C17.0629 14.1777 18.0399 12.1031 18.0399 9.78998C18.0399 5.34475 14.4363 1.75 9.99995 1.75C5.56417 1.75 1.95996 5.35419 1.95996 9.78998C1.95996 12.1129 2.94671 14.2058 4.5292 15.6694C4.83329 15.9506 4.85182 16.4251 4.57057 16.7292C4.28933 17.0333 3.81482 17.0518 3.51072 16.7706C1.63321 15.0342 0.459961 12.5471 0.459961 9.78998Z" fill="#101010"/>
<path fill-rule="evenodd" clip-rule="evenodd" d="M9.99977 5.04999C7.38398 5.04999 5.25977 7.17419 5.25977 9.78998C5.25977 11.0504 5.75091 12.1891 6.54658 13.0367C6.83008 13.3387 6.81509 13.8133 6.5131 14.0968C6.21111 14.3803 5.73647 14.3653 5.45297 14.0633C4.40863 12.9509 3.75977 11.4496 3.75977 9.78998C3.75977 6.34576 6.55556 3.54999 9.99977 3.54999C13.444 3.54999 16.2398 6.34576 16.2398 9.78998C16.2398 11.4516 15.5895 12.941 14.5492 14.0605C14.2672 14.364 13.7926 14.3814 13.4892 14.0994C13.1858 13.8174 13.1684 13.3429 13.4504 13.0394C14.25 12.179 14.7398 11.0483 14.7398 9.78998C14.7398 7.17419 12.6156 5.04999 9.99977 5.04999Z" fill="#101010"/>
<path fill-rule="evenodd" clip-rule="evenodd" d="M12.2763 15.1924L13.7126 16.978C13.7129 16.9783 13.7132 16.9787 13.7135 16.979C15.2636 18.8947 13.8835 21.74 11.4298 21.74H8.5598C6.09772 21.74 4.74407 18.9008 6.27336 16.9825L6.27542 16.9799L7.71459 15.1909C8.88257 13.7291 11.1139 13.723 12.2763 15.1924ZM11.101 16.1245C10.543 15.4173 9.45748 15.4118 8.88598 16.1278L8.88419 16.1301L7.44531 17.9187C6.6961 18.8604 7.36238 20.24 8.5598 20.24H11.4298C12.6357 20.24 13.2956 18.8464 12.547 17.922L12.5454 17.9201L11.101 16.1245Z" fill="#101010"/>
</svg>
