<svg width="22" height="22" viewBox="0 0 22 22" fill="none" xmlns="http://www.w3.org/2000/svg">
<path fill-rule="evenodd" clip-rule="evenodd" d="M10.337 3.338C10.7676 3.1236 11.2651 3.12399 11.6954 3.33917L11.7043 3.34361C12.1516 3.57472 12.5191 3.961 12.7731 4.37207C13.0269 4.78287 13.21 5.28796 13.21 5.79999V7.70732L16.9948 9.34036C17.3864 9.50659 17.6945 9.80916 17.9016 10.1259C18.1091 10.4434 18.26 10.8438 18.26 11.26V12.19C18.26 12.6811 18.0645 13.1736 17.6214 13.4629C17.1793 13.7516 16.6511 13.7335 16.2022 13.5383C16.2015 13.538 16.2008 13.5377 16.2001 13.5374L13.2 12.2478V13.6942C13.2 13.6943 13.2 13.6942 13.2 13.6942C13.2004 13.6956 13.201 13.6971 13.2015 13.6986C13.2025 13.7016 13.2037 13.7049 13.2051 13.7082C13.2068 13.7124 13.2085 13.7162 13.2101 13.7195L14.8303 15.3497C14.8308 15.3501 14.8312 15.3505 14.8317 15.351C15.0402 15.5602 15.1558 15.8264 15.2094 16.0584C15.2629 16.2894 15.2766 16.5796 15.1803 16.8608L14.8615 17.8172C14.5795 18.6633 13.6058 19.0817 12.7978 18.6674C12.7464 18.641 12.6982 18.6088 12.6542 18.5714L11.0097 17.173C11.0074 17.1727 11.0045 17.1725 11.0013 17.1725C11.0011 17.1725 11.0014 17.1725 11.0013 17.1725L9.34417 18.5728C9.29866 18.6113 9.24873 18.6442 9.19543 18.6708C8.3777 19.0797 7.41802 18.66 7.13782 17.8051L6.81969 16.8507C6.72343 16.5696 6.7371 16.2794 6.79059 16.0484C6.8444 15.8159 6.96029 15.5491 7.16969 15.3397L7.1745 15.3349L8.81887 13.7201C8.82071 13.7164 8.82263 13.7122 8.82452 13.7077C8.82672 13.7024 8.82857 13.6974 8.83002 13.6931V12.2478L5.8262 13.539C5.37784 13.7312 4.84733 13.7538 4.40296 13.4617C3.9587 13.1695 3.77002 12.6749 3.77002 12.19V11.26C3.77002 10.8393 3.92655 10.4379 4.13384 10.1234C4.34115 9.80896 4.64789 9.50761 5.03269 9.34144L8.82002 7.70732V5.79999C8.82002 5.29197 8.99805 4.78554 9.25143 4.3712C9.50412 3.958 9.87504 3.5658 10.337 3.338ZM11.0132 4.67776C11.0121 4.67804 11.0095 4.67878 11.0054 4.68081L11.001 4.68302C10.8539 4.75537 10.6755 4.9176 10.5311 5.15378C10.387 5.38944 10.32 5.62801 10.32 5.79999V7.86999C10.32 8.14186 10.2202 8.38047 10.1069 8.55294C9.99406 8.72479 9.81618 8.90968 9.57063 9.01711L9.56715 9.01863L5.62735 10.7185C5.57211 10.7425 5.47378 10.8162 5.3862 10.949C5.29849 11.0821 5.27002 11.2007 5.27002 11.26V12.1454L8.57966 10.7227C8.9453 10.5611 9.39771 10.538 9.78428 10.7919C10.1712 11.046 10.33 11.4713 10.33 11.87V13.72C10.33 13.935 10.2714 14.1361 10.208 14.2873C10.1451 14.4374 10.0453 14.6154 9.90035 14.7603L9.89554 14.7651L8.2547 16.3765C8.25379 16.3794 8.25284 16.3828 8.25195 16.3866C8.25098 16.3908 8.2503 16.3946 8.24984 16.3977L8.54526 17.284L10.0559 16.0072L10.0576 16.0057C10.5919 15.5569 11.4119 15.5689 11.9413 15.9965L11.9559 16.0086L13.4576 17.2856L13.7502 16.4077C13.7497 16.4046 13.7491 16.4008 13.7481 16.3966C13.7471 16.3924 13.746 16.3887 13.7451 16.3855L12.1297 14.7603C12.1293 14.7599 12.1289 14.7595 12.1285 14.7591C11.9772 14.6074 11.877 14.4248 11.815 14.2718C11.7528 14.1184 11.7 13.9233 11.7 13.72V11.87C11.7 11.4778 11.852 11.0505 12.2435 10.7947C12.6309 10.5415 13.079 10.5702 13.4347 10.7161L13.4462 10.7209L16.76 12.1454V11.26C16.76 11.1962 16.731 11.0766 16.646 10.9466C16.5611 10.8166 16.4652 10.745 16.4083 10.7209L16.4029 10.7186L12.4671 9.02044C12.2117 8.91313 12.0296 8.7248 11.9151 8.54633C11.7992 8.36577 11.71 8.12974 11.71 7.86999V5.79999C11.71 5.63202 11.6432 5.39711 11.497 5.16041C11.3529 4.92725 11.1735 4.75988 11.0221 4.67963C11.0195 4.67847 11.0177 4.67797 11.0168 4.67776L11.015 4.67749L11.0132 4.67776ZM13.4385 17.3428C13.4385 17.3428 13.4385 17.3428 13.4385 17.3428V17.3428Z" fill="#101010"/>
<path fill-rule="evenodd" clip-rule="evenodd" d="M2.09467 2.09467C3.42914 0.760201 5.42603 0.25 8 0.25H14C16.574 0.25 18.5709 0.760201 19.9053 2.09467C21.2398 3.42914 21.75 5.42603 21.75 8V14C21.75 16.574 21.2398 18.5709 19.9053 19.9053C18.5709 21.2398 16.574 21.75 14 21.75H8C5.42603 21.75 3.42914 21.2398 2.09467 19.9053C0.760201 18.5709 0.25 16.574 0.25 14V8C0.25 5.42603 0.760201 3.42914 2.09467 2.09467ZM3.15533 3.15533C2.2398 4.07086 1.75 5.57397 1.75 8V14C1.75 16.426 2.2398 17.9291 3.15533 18.8447C4.07086 19.7602 5.57397 20.25 8 20.25H14C16.426 20.25 17.9291 19.7602 18.8447 18.8447C19.7602 17.9291 20.25 16.426 20.25 14V8C20.25 5.57397 19.7602 4.07086 18.8447 3.15533C17.9291 2.2398 16.426 1.75 14 1.75H8C5.57397 1.75 4.07086 2.2398 3.15533 3.15533Z" fill="#101010"/>
</svg>
