<svg width="16" height="22" viewBox="0 0 16 22" fill="none" xmlns="http://www.w3.org/2000/svg">
<path fill-rule="evenodd" clip-rule="evenodd" d="M2.03376 13.7827C1.89334 13.9319 1.75 14.2503 1.75 14.98V16.02C1.75 16.7497 1.89334 17.0681 2.03376 17.2173C2.16336 17.3551 2.43486 17.5 3.1 17.5H14.9C15.3142 17.5 15.65 17.8358 15.65 18.25C15.65 18.6642 15.3142 19 14.9 19H3.1C2.26514 19 1.48664 18.8249 0.941238 18.2452C0.406656 17.6769 0.25 16.8803 0.25 16.02V14.98C0.25 14.1197 0.406656 13.3231 0.941238 12.7548C1.48664 12.1751 2.26514 12 3.1 12H14.9C15.3142 12 15.65 12.3358 15.65 12.75C15.65 13.1642 15.3142 13.5 14.9 13.5H3.1C2.43486 13.5 2.16336 13.6449 2.03376 13.7827Z" fill="#101010"/>
<path fill-rule="evenodd" clip-rule="evenodd" d="M5.94124 4.25485C6.48664 3.6751 7.26514 3.5 8.1 3.5H14.9C15.3142 3.5 15.65 3.83579 15.65 4.25C15.65 4.66421 15.3142 5 14.9 5H8.1C7.43486 5 7.16336 5.1449 7.03376 5.28265C6.89334 5.43191 6.75 5.75032 6.75 6.48V7.52C6.75 8.24969 6.89334 8.56809 7.03376 8.71735C7.16336 8.8551 7.43486 9 8.1 9H14.9C15.3142 9 15.65 9.33579 15.65 9.75C15.65 10.1642 15.3142 10.5 14.9 10.5H8.1C7.26514 10.5 6.48664 10.3249 5.94124 9.74516C5.40666 9.17691 5.25 8.38032 5.25 7.52V6.48C5.25 5.61968 5.40666 4.82309 5.94124 4.25485Z" fill="#101010"/>
<path fill-rule="evenodd" clip-rule="evenodd" d="M15 0.23999C15.4142 0.23999 15.75 0.575777 15.75 0.98999V20.99C15.75 21.4042 15.4142 21.74 15 21.74C14.5858 21.74 14.25 21.4042 14.25 20.99V0.98999C14.25 0.575777 14.5858 0.23999 15 0.23999Z" fill="#101010"/>
</svg>
