<svg width="22" height="16" viewBox="0 0 22 16" fill="none" xmlns="http://www.w3.org/2000/svg">
<path fill-rule="evenodd" clip-rule="evenodd" d="M12.7598 0.350006C13.174 0.350006 13.5098 0.685793 13.5098 1.10001V12.9C13.5098 13.5651 13.6547 13.8366 13.7924 13.9662C13.9417 14.1067 14.2601 14.25 14.9898 14.25H16.0298C16.7595 14.25 17.0779 14.1067 17.2271 13.9662C17.3649 13.8366 17.5098 13.5651 17.5098 12.9V1.10001C17.5098 0.685793 17.8456 0.350006 18.2598 0.350006C18.674 0.350006 19.0098 0.685793 19.0098 1.10001V12.9C19.0098 13.7349 18.8347 14.5134 18.2549 15.0588C17.6867 15.5933 16.8901 15.75 16.0298 15.75H14.9898C14.1294 15.75 13.3329 15.5933 12.7646 15.0588C12.1849 14.5134 12.0098 13.7349 12.0098 12.9V1.10001C12.0098 0.685793 12.3456 0.350006 12.7598 0.350006Z" fill="#101010"/>
<path fill-rule="evenodd" clip-rule="evenodd" d="M4.25977 0.350006C4.67398 0.350006 5.00977 0.685793 5.00977 1.10001V7.90001C5.00977 8.56515 5.15467 8.83665 5.29242 8.96624C5.44168 9.10666 5.76008 9.25001 6.48977 9.25001H7.52977C8.25945 9.25001 8.57785 9.10666 8.72711 8.96624C8.86486 8.83665 9.00977 8.56515 9.00977 7.90001V1.10001C9.00977 0.685793 9.34555 0.350006 9.75977 0.350006C10.174 0.350006 10.5098 0.685793 10.5098 1.10001V7.90001C10.5098 8.73487 10.3347 9.51336 9.75492 10.0588C9.18668 10.5934 8.39008 10.75 7.52977 10.75H6.48977C5.62945 10.75 4.83285 10.5934 4.26461 10.0588C3.68486 9.51336 3.50977 8.73487 3.50977 7.90001V1.10001C3.50977 0.685793 3.84555 0.350006 4.25977 0.350006Z" fill="#101010"/>
<path fill-rule="evenodd" clip-rule="evenodd" d="M0.25 1C0.25 0.585786 0.585786 0.25 1 0.25H21C21.4142 0.25 21.75 0.585786 21.75 1C21.75 1.41421 21.4142 1.75 21 1.75H1C0.585786 1.75 0.25 1.41421 0.25 1Z" fill="#101010"/>
</svg>
