<svg width="20" height="22" viewBox="0 0 20 22" fill="none" xmlns="http://www.w3.org/2000/svg">
<path fill-rule="evenodd" clip-rule="evenodd" d="M2.7371 2.88534C2.09637 3.57535 1.75 4.61497 1.75 6V16C1.75 17.385 2.09637 18.4246 2.7371 19.1147C3.36848 19.7946 4.39295 20.25 6 20.25H14C15.607 20.25 16.6315 19.7946 17.2629 19.1147C17.9036 18.4246 18.25 17.385 18.25 16V6C18.25 4.61497 17.9036 3.57535 17.2629 2.88534C16.6315 2.20538 15.607 1.75 14 1.75H6C4.39295 1.75 3.36848 2.20538 2.7371 2.88534ZM1.6379 1.86466C2.63152 0.794615 4.10705 0.25 6 0.25H14C15.893 0.25 17.3685 0.794615 18.3621 1.86466C19.3464 2.92465 19.75 4.38503 19.75 6V16C19.75 17.615 19.3464 19.0754 18.3621 20.1353C17.3685 21.2054 15.893 21.75 14 21.75H6C4.10705 21.75 2.63152 21.2054 1.6379 20.1353C0.653634 19.0754 0.25 17.615 0.25 16V6C0.25 4.38503 0.653634 2.92465 1.6379 1.86466Z" fill="#101010"/>
<path fill-rule="evenodd" clip-rule="evenodd" d="M5.75 1C5.75 0.585786 6.08579 0.25 6.5 0.25H13.5C13.9142 0.25 14.25 0.585786 14.25 1V8.85999C14.25 9.97017 12.9438 10.4994 12.1563 9.78572L12.1514 9.78129L10 7.79673L7.84369 9.78574C7.05623 10.4994 5.75 9.97017 5.75 8.85999V1ZM7.25 1.75V8.29268L9.14858 6.5414C9.62658 6.0929 10.3734 6.0929 10.8514 6.5414L12.75 8.29268V1.75H7.25Z" fill="#101010"/>
<path fill-rule="evenodd" clip-rule="evenodd" d="M10.5 13C10.5 12.5858 10.8358 12.25 11.25 12.25H15.5C15.9142 12.25 16.25 12.5858 16.25 13C16.25 13.4142 15.9142 13.75 15.5 13.75H11.25C10.8358 13.75 10.5 13.4142 10.5 13Z" fill="#101010"/>
<path fill-rule="evenodd" clip-rule="evenodd" d="M6.25 17C6.25 16.5858 6.58579 16.25 7 16.25H15.5C15.9142 16.25 16.25 16.5858 16.25 17C16.25 17.4142 15.9142 17.75 15.5 17.75H7C6.58579 17.75 6.25 17.4142 6.25 17Z" fill="#101010"/>
</svg>
