<svg width="22" height="22" viewBox="0 0 22 22" fill="none" xmlns="http://www.w3.org/2000/svg">
<path fill-rule="evenodd" clip-rule="evenodd" d="M12.29 5.31964C12.5829 5.02675 13.0578 5.02675 13.3506 5.31965L16.3906 8.35966C16.6835 8.65255 16.6835 9.12743 16.3906 9.42032C16.0977 9.71321 15.6228 9.71321 15.33 9.42031L12.29 6.3803C11.9971 6.08741 11.9971 5.61253 12.29 5.31964Z" fill="#101010"/>
<path fill-rule="evenodd" clip-rule="evenodd" d="M12.8203 5.09998C13.2345 5.09998 13.5703 5.43576 13.5703 5.84998V16.15C13.5703 16.5642 13.2345 16.9 12.8203 16.9C12.4061 16.9 12.0703 16.5642 12.0703 16.15V5.84998C12.0703 5.43576 12.4061 5.09998 12.8203 5.09998Z" fill="#101010"/>
<path fill-rule="evenodd" clip-rule="evenodd" d="M5.60932 12.5797C5.90222 12.2868 6.37709 12.2868 6.66998 12.5797L9.70996 15.6197C10.0029 15.9126 10.0028 16.3874 9.70995 16.6803C9.41706 16.9732 8.94219 16.9732 8.64929 16.6803L5.60932 13.6403C5.31642 13.3474 5.31643 12.8725 5.60932 12.5797Z" fill="#101010"/>
<path fill-rule="evenodd" clip-rule="evenodd" d="M9.17969 5.09998C9.5939 5.09998 9.92969 5.43576 9.92969 5.84998V16.15C9.92969 16.5642 9.5939 16.9 9.17969 16.9C8.76547 16.9 8.42969 16.5642 8.42969 16.15V5.84998C8.42969 5.43576 8.76547 5.09998 9.17969 5.09998Z" fill="#101010"/>
<path fill-rule="evenodd" clip-rule="evenodd" d="M11 1.75C5.89137 1.75 1.75 5.89137 1.75 11C1.75 16.1086 5.89137 20.25 11 20.25C16.1086 20.25 20.25 16.1086 20.25 11C20.25 5.89137 16.1086 1.75 11 1.75ZM0.25 11C0.25 5.06294 5.06294 0.25 11 0.25C16.9371 0.25 21.75 5.06294 21.75 11C21.75 16.9371 16.9371 21.75 11 21.75C5.06294 21.75 0.25 16.9371 0.25 11Z" fill="#101010"/>
</svg>
