<svg width="22" height="22" viewBox="0 0 22 22" fill="none" xmlns="http://www.w3.org/2000/svg">
<path fill-rule="evenodd" clip-rule="evenodd" d="M16.6797 12.2897C16.9726 12.5826 16.9726 13.0574 16.6797 13.3503L13.6397 16.3903C13.3468 16.6832 12.8719 16.6832 12.579 16.3903C12.2862 16.0974 12.2862 15.6225 12.579 15.3297L15.6191 12.2897C15.912 11.9968 16.3868 11.9968 16.6797 12.2897Z" fill="#101010"/>
<path fill-rule="evenodd" clip-rule="evenodd" d="M5.09961 12.82C5.09961 12.4058 5.4354 12.07 5.84961 12.07H16.1496C16.5638 12.07 16.8996 12.4058 16.8996 12.82C16.8996 13.2342 16.5638 13.57 16.1496 13.57H5.84961C5.4354 13.57 5.09961 13.2342 5.09961 12.82Z" fill="#101010"/>
<path fill-rule="evenodd" clip-rule="evenodd" d="M9.41995 5.60969C9.71284 5.90258 9.71284 6.37746 9.41995 6.67035L6.37994 9.71033C6.08704 10.0032 5.61217 10.0032 5.31928 9.71032C5.02638 9.41743 5.02639 8.94255 5.31928 8.64966L8.35929 5.60968C8.65219 5.31679 9.12706 5.31679 9.41995 5.60969Z" fill="#101010"/>
<path fill-rule="evenodd" clip-rule="evenodd" d="M5.09961 9.17999C5.09961 8.76578 5.4354 8.42999 5.84961 8.42999H16.1496C16.5638 8.42999 16.8996 8.76578 16.8996 9.17999C16.8996 9.59421 16.5638 9.92999 16.1496 9.92999H5.84961C5.4354 9.92999 5.09961 9.59421 5.09961 9.17999Z" fill="#101010"/>
<path fill-rule="evenodd" clip-rule="evenodd" d="M11 1.75C5.89137 1.75 1.75 5.89137 1.75 11C1.75 16.1086 5.89137 20.25 11 20.25C16.1086 20.25 20.25 16.1086 20.25 11C20.25 5.89137 16.1086 1.75 11 1.75ZM0.25 11C0.25 5.06294 5.06294 0.25 11 0.25C16.9371 0.25 21.75 5.06294 21.75 11C21.75 16.9371 16.9371 21.75 11 21.75C5.06294 21.75 0.25 16.9371 0.25 11Z" fill="#101010"/>
</svg>
