<?xml version="1.0" encoding="UTF-8"?>
<svg width="15px" height="14px" viewBox="0 0 15 14" version="1.1" xmlns="http://www.w3.org/2000/svg" xmlns:xlink="http://www.w3.org/1999/xlink">
    <title>arrow-up-2 (2)</title>
    <g id="Page-1" stroke="none" stroke-width="1" fill="none" fill-rule="evenodd">
        <g id="arrow-up-2-(2)" fill="#000000" fill-rule="nonzero">
            <g id="Group" transform="translate(7.155000, 6.745000) scale(-1, 1) rotate(-180.000000) translate(-7.155000, -6.745000) ">
                <path d="M6.8908679,13.4791823 C6.17758998,13.4181756 5.51032998,13.1381453 4.88608674,12.6400913 C4.42290627,12.2700512 3.96572813,11.7409939 3.6055878,11.1579307 C3.54356363,11.0569197 0.848513507,6.41441656 0.741471798,6.22439597 C0.713460884,6.17439055 0.649435937,6.05137722 0.599416447,5.95036627 C-0.0448345851,4.66422687 -0.173884869,3.40209008 0.23227339,2.36097725 C0.722464392,1.1048411 1.89692202,0.284752221 3.52955817,0.0587277245 C3.9487215,0.00172154613 3.72463418,0.00472187131 7.02592053,0.00072143774 C9.15274924,-0.00127877905 10.1141238,0.00072143774 10.2471757,0.00872230488 C11.3856193,0.0747294588 12.3409915,0.400764795 13.0482671,0.964825929 C13.1863209,1.07383774 13.4744332,1.36186896 13.5794741,1.49388327 C14.1837096,2.25496576 14.4198015,3.21106938 14.2627403,4.26918406 C14.1737057,4.86624877 13.9416152,5.53532128 13.6134874,6.13938675 C13.5394585,6.2754015 10.8834236,10.8588983 10.7443694,11.0899233 C10.1191258,12.130036 9.28580109,12.8961191 8.39645456,13.2481572 C7.91226589,13.440178 7.38105891,13.5211868 6.8908679,13.4791823 Z M7.33604137,11.9800198 C7.7351969,11.9340148 8.14735749,11.7479946 8.51850211,11.4439617 C8.65055356,11.33595 8.87864244,11.1099255 8.9906861,10.9749108 C9.1477473,10.7868905 9.31581278,10.5508649 9.4418619,10.3448425 C9.54490205,10.1758242 12.2429533,5.52031966 12.3079787,5.39930654 C12.7511514,4.57121679 12.9072122,3.76312921 12.7471498,3.12405995 C12.6961299,2.92003784 12.5820855,2.67101085 12.4660403,2.5099934 C12.1038992,2.00793898 11.4626493,1.675903 10.612318,1.54888923 C10.3061987,1.50388435 10.4552568,1.50588457 7.27101603,1.50188414 C4.15580219,1.4978837 4.09978036,1.4978837 3.77465367,1.53888815 C2.89030909,1.65090029 2.21104442,1.99493757 1.83689863,2.51999448 C1.32369866,3.24007252 1.40372985,4.33919165 2.055984,5.49931738 C2.13701557,5.6443331 4.79104971,10.2178288 4.85807583,10.3298409 C5.22822006,10.9429074 5.69140053,11.4299602 6.16158374,11.7029897 C6.54473303,11.9250138 6.95889441,12.0230244 7.33604137,11.9800198 Z" id="Shape"></path>
            </g>
        </g>
    </g>
</svg>