<svg width="22" height="22" viewBox="0 0 22 22" fill="none" xmlns="http://www.w3.org/2000/svg">
<path fill-rule="evenodd" clip-rule="evenodd" d="M11 1.75C5.89137 1.75 1.75 5.89137 1.75 11C1.75 16.1086 5.89137 20.25 11 20.25C16.1086 20.25 20.25 16.1086 20.25 11C20.25 5.89137 16.1086 1.75 11 1.75ZM0.25 11C0.25 5.06294 5.06294 0.25 11 0.25C16.9371 0.25 21.75 5.06294 21.75 11C21.75 16.9371 16.9371 21.75 11 21.75C5.06294 21.75 0.25 16.9371 0.25 11Z" fill="#101010"/>
<path fill-rule="evenodd" clip-rule="evenodd" d="M9.21066 6.93889C9.50397 6.64641 9.97884 6.64708 10.2713 6.94039L13.7913 10.4704C14.0832 10.7631 14.0832 11.2368 13.7913 11.5295L10.2713 15.0595C9.97884 15.3529 9.50397 15.3535 9.21066 15.0611C8.91735 14.7686 8.91668 14.2937 9.20915 14.0004L12.2011 11L9.20915 7.99955C8.91668 7.70624 8.91735 7.23137 9.21066 6.93889Z" fill="#101010"/>
</svg>
