<svg width="14" height="20" viewBox="0 0 14 20" fill="none" xmlns="http://www.w3.org/2000/svg">
<path fill-rule="evenodd" clip-rule="evenodd" d="M0.399357 11.8997C0.692251 11.6068 1.16712 11.6068 1.46002 11.8997L6.99969 17.4394L12.5394 11.8997C12.8322 11.6068 13.3071 11.6068 13.6 11.8997C13.8929 12.1926 13.8929 12.6675 13.6 12.9604L7.53002 19.0304C7.38937 19.171 7.1986 19.2501 6.99969 19.2501C6.80078 19.2501 6.61001 19.171 6.46936 19.0304L0.399357 12.9604C0.106464 12.6675 0.106464 12.1926 0.399357 11.8997Z" fill="#101010"/>
<path fill-rule="evenodd" clip-rule="evenodd" d="M7 0.75C7.41421 0.75 7.75 1.08579 7.75 1.5V18.33C7.75 18.7442 7.41421 19.08 7 19.08C6.58579 19.08 6.25 18.7442 6.25 18.33V1.5C6.25 1.08579 6.58579 0.75 7 0.75Z" fill="#101010"/>
</svg>
