<svg width="20" height="14" viewBox="0 0 20 14" fill="none" xmlns="http://www.w3.org/2000/svg">
<path fill-rule="evenodd" clip-rule="evenodd" d="M8.10033 0.399724C8.39322 0.692617 8.39322 1.16749 8.10033 1.46038L2.56066 7.00005L8.10033 12.5397C8.39322 12.8326 8.39322 13.3075 8.10033 13.6004C7.80744 13.8933 7.33256 13.8933 7.03967 13.6004L0.96967 7.53038C0.829018 7.38973 0.75 7.19897 0.75 7.00005C0.75 6.80114 0.829018 6.61038 0.96967 6.46972L7.03967 0.399724C7.33256 0.10683 7.80744 0.10683 8.10033 0.399724Z" fill="#101010"/>
<path fill-rule="evenodd" clip-rule="evenodd" d="M0.919922 7C0.919922 6.58579 1.25571 6.25 1.66992 6.25H18.4999C18.9141 6.25 19.2499 6.58579 19.2499 7C19.2499 7.41421 18.9141 7.75 18.4999 7.75H1.66992C1.25571 7.75 0.919922 7.41421 0.919922 7Z" fill="#101010"/>
</svg>
