<svg width="16" height="14" viewBox="0 0 16 14" fill="none" xmlns="http://www.w3.org/2000/svg">
<path fill-rule="evenodd" clip-rule="evenodd" d="M8.01503 1.75745C7.28268 1.75745 6.39899 2.23922 5.64925 3.53546L2.96925 8.15546C2.96919 8.15556 2.96931 8.15536 2.96925 8.15546C2.22014 9.45077 2.24469 10.457 2.61082 11.0912C2.9771 11.7257 3.83613 12.2499 5.33003 12.2499H10.7C12.1939 12.2499 13.053 11.7257 13.4192 11.0912C13.7853 10.4571 13.8101 9.45124 13.0612 8.15609C13.061 8.15588 13.0613 8.15629 13.0612 8.15609L10.3813 3.53628C9.63154 2.24005 8.74738 1.75745 8.01503 1.75745ZM11.6788 2.78362C10.7685 1.21034 9.46742 0.257446 8.01503 0.257446C6.56252 0.257446 5.26132 1.21048 4.35107 2.78397C4.35117 2.78381 4.35098 2.78412 4.35107 2.78397L1.67128 7.40362C0.760567 8.97816 0.585395 10.5829 1.31174 11.8412C2.03795 13.0992 3.51392 13.7499 5.33003 13.7499H10.7C12.5161 13.7499 13.9921 13.0992 14.7183 11.8412C15.4447 10.5829 15.27 8.97898 14.3593 7.40444L11.6788 2.78362C11.6786 2.78334 11.6789 2.78389 11.6788 2.78362Z" fill="#101010"/>
</svg>
