<svg width="22" height="22" viewBox="0 0 22 22" fill="none" xmlns="http://www.w3.org/2000/svg">
<path fill-rule="evenodd" clip-rule="evenodd" d="M11 1.75C5.89137 1.75 1.75 5.89137 1.75 11C1.75 16.1086 5.89137 20.25 11 20.25C16.1086 20.25 20.25 16.1086 20.25 11C20.25 5.89137 16.1086 1.75 11 1.75ZM0.25 11C0.25 5.06294 5.06294 0.25 11 0.25C16.9371 0.25 21.75 5.06294 21.75 11C21.75 16.9371 16.9371 21.75 11 21.75C5.06294 21.75 0.25 16.9371 0.25 11Z" fill="#101010"/>
<path fill-rule="evenodd" clip-rule="evenodd" d="M11 6.75C11.4142 6.75 11.75 7.08579 11.75 7.5V13.5C11.75 13.9142 11.4142 14.25 11 14.25C10.5858 14.25 10.25 13.9142 10.25 13.5V7.5C10.25 7.08579 10.5858 6.75 11 6.75Z" fill="#101010"/>
<path fill-rule="evenodd" clip-rule="evenodd" d="M7.46967 10.9697C7.76256 10.6768 8.23744 10.6768 8.53033 10.9697L11 13.4393L13.4697 10.9697C13.7626 10.6768 14.2374 10.6768 14.5303 10.9697C14.8232 11.2626 14.8232 11.7374 14.5303 12.0303L11.5303 15.0303C11.2374 15.3232 10.7626 15.3232 10.4697 15.0303L7.46967 12.0303C7.17678 11.7374 7.17678 11.2626 7.46967 10.9697Z" fill="#101010"/>
</svg>
