<svg width="22" height="22" viewBox="0 0 22 22" fill="none" xmlns="http://www.w3.org/2000/svg">
<path fill-rule="evenodd" clip-rule="evenodd" d="M11 18.25C11.4142 18.25 11.75 18.5858 11.75 19V21C11.75 21.4142 11.4142 21.75 11 21.75C10.5858 21.75 10.25 21.4142 10.25 21V19C10.25 18.5858 10.5858 18.25 11 18.25Z" fill="#101010"/>
<path fill-rule="evenodd" clip-rule="evenodd" d="M11 14.25C11.4142 14.25 11.75 14.5858 11.75 15V17C11.75 17.4142 11.4142 17.75 11 17.75C10.5858 17.75 10.25 17.4142 10.25 17V15C10.25 14.5858 10.5858 14.25 11 14.25Z" fill="#101010"/>
<path fill-rule="evenodd" clip-rule="evenodd" d="M18 3.75C14.5442 3.75 11.75 6.54421 11.75 10V13C11.75 13.4142 11.4142 13.75 11 13.75C10.5858 13.75 10.25 13.4142 10.25 13V10C10.25 5.71579 13.7158 2.25 18 2.25H21C21.4142 2.25 21.75 2.58579 21.75 3C21.75 3.41421 21.4142 3.75 21 3.75H18Z" fill="#101010"/>
<path fill-rule="evenodd" clip-rule="evenodd" d="M0.25 3C0.25 2.58579 0.585786 2.25 1 2.25H4C8.28421 2.25 11.75 5.71579 11.75 10V13C11.75 13.4142 11.4142 13.75 11 13.75C10.5858 13.75 10.25 13.4142 10.25 13V10C10.25 6.54421 7.45579 3.75 4 3.75H1C0.585786 3.75 0.25 3.41421 0.25 3Z" fill="#101010"/>
<path fill-rule="evenodd" clip-rule="evenodd" d="M3.53033 0.46967C3.82322 0.762563 3.82322 1.23744 3.53033 1.53033L2.06066 3L3.53033 4.46967C3.82322 4.76256 3.82322 5.23744 3.53033 5.53033C3.23744 5.82322 2.76256 5.82322 2.46967 5.53033L0.46967 3.53033C0.176777 3.23744 0.176777 2.76256 0.46967 2.46967L2.46967 0.46967C2.76256 0.176777 3.23744 0.176777 3.53033 0.46967Z" fill="#101010"/>
<path fill-rule="evenodd" clip-rule="evenodd" d="M18.4697 0.46967C18.7626 0.176777 19.2374 0.176777 19.5303 0.46967L21.5303 2.46967C21.8232 2.76256 21.8232 3.23744 21.5303 3.53033L19.5303 5.53033C19.2374 5.82322 18.7626 5.82322 18.4697 5.53033C18.1768 5.23744 18.1768 4.76256 18.4697 4.46967L19.9393 3L18.4697 1.53033C18.1768 1.23744 18.1768 0.762563 18.4697 0.46967Z" fill="#101010"/>
</svg>
