<svg width="22" height="22" viewBox="0 0 22 22" fill="none" xmlns="http://www.w3.org/2000/svg">
<path fill-rule="evenodd" clip-rule="evenodd" d="M11 1.75C5.89137 1.75 1.75 5.89137 1.75 11C1.75 16.1086 5.89137 20.25 11 20.25C16.1086 20.25 20.25 16.1086 20.25 11C20.25 5.89137 16.1086 1.75 11 1.75ZM0.25 11C0.25 5.06294 5.06294 0.25 11 0.25C16.9371 0.25 21.75 5.06294 21.75 11C21.75 16.9371 16.9371 21.75 11 21.75C5.06294 21.75 0.25 16.9371 0.25 11Z" fill="#101010"/>
<path fill-rule="evenodd" clip-rule="evenodd" d="M11 7.75C11.4142 7.75 11.75 8.08579 11.75 8.5V14.5C11.75 14.9142 11.4142 15.25 11 15.25C10.5858 15.25 10.25 14.9142 10.25 14.5V8.5C10.25 8.08579 10.5858 7.75 11 7.75Z" fill="#101010"/>
<path fill-rule="evenodd" clip-rule="evenodd" d="M10.4697 6.96967C10.7626 6.67678 11.2374 6.67678 11.5303 6.96967L14.5303 9.96967C14.8232 10.2626 14.8232 10.7374 14.5303 11.0303C14.2374 11.3232 13.7626 11.3232 13.4697 11.0303L11 8.56066L8.53033 11.0303C8.23744 11.3232 7.76256 11.3232 7.46967 11.0303C7.17678 10.7374 7.17678 10.2626 7.46967 9.96967L10.4697 6.96967Z" fill="#101010"/>
</svg>
