<svg width="20" height="18" viewBox="0 0 20 18" fill="none" xmlns="http://www.w3.org/2000/svg">
<path fill-rule="evenodd" clip-rule="evenodd" d="M19.03 11.4591C19.3232 11.7517 19.3237 12.2266 19.0311 12.5198L14.0211 17.5398C13.7285 17.833 13.2536 17.8335 12.9604 17.5408C12.6672 17.2482 12.6668 16.7734 12.9594 16.4802L17.9694 11.4602C18.262 11.167 18.7369 11.1665 19.03 11.4591Z" fill="#101010"/>
<path fill-rule="evenodd" clip-rule="evenodd" d="M0.75 11.99C0.75 11.5758 1.08579 11.24 1.5 11.24H18.5C18.9142 11.24 19.25 11.5758 19.25 11.99C19.25 12.4042 18.9142 12.74 18.5 12.74H1.5C1.08579 12.74 0.75 12.4042 0.75 11.99Z" fill="#101010"/>
<path fill-rule="evenodd" clip-rule="evenodd" d="M7.0398 0.459132C7.33299 0.751733 7.33346 1.22661 7.04086 1.51979L2.03086 6.53979C1.73826 6.83298 1.26338 6.83345 0.970199 6.54085C0.677014 6.24825 0.67654 5.77337 0.969141 5.48019L5.97914 0.460189C6.27174 0.167004 6.74662 0.166531 7.0398 0.459132Z" fill="#101010"/>
<path fill-rule="evenodd" clip-rule="evenodd" d="M0.75 6.01001C0.75 5.5958 1.08579 5.26001 1.5 5.26001H18.5C18.9142 5.26001 19.25 5.5958 19.25 6.01001C19.25 6.42422 18.9142 6.76001 18.5 6.76001H1.5C1.08579 6.76001 0.75 6.42422 0.75 6.01001Z" fill="#101010"/>
</svg>
