<svg width="16" height="13" viewBox="0 0 16 13" fill="none" xmlns="http://www.w3.org/2000/svg">
<path fill-rule="evenodd" clip-rule="evenodd" d="M2.94056 5.84671L5.6188 10.4637C6.36854 11.7599 7.2527 12.2425 7.98505 12.2425C8.7174 12.2425 9.60109 11.7607 10.3508 10.4645L13.0308 5.84449C13.7796 4.54943 13.7553 3.54286 13.3893 2.90872C13.023 2.27421 12.1639 1.75 10.6701 1.75H5.33005C3.83114 1.75 2.97124 2.27432 2.6026 2.91C2.23367 3.54617 2.2065 4.55265 2.94056 5.84671ZM1.305 2.1575C2.03386 0.900678 3.50896 0.25 5.33005 0.25H10.6701C12.4862 0.25 13.9621 0.900786 14.6883 2.15878C15.4147 3.417 15.24 5.02097 14.3293 6.59551L11.6493 11.2155C11.6491 11.2158 11.6494 11.2152 11.6493 11.2155M1.305 2.1575C0.576707 3.41336 0.743638 5.01584 1.63789 6.59039L1.305 2.1575ZM1.63789 6.59039L2.9813 8.90633L1.63789 6.59039ZM2.9813 8.90633L4.32083 11.2155L2.9813 8.90633ZM4.32083 11.2155C4.32072 11.2153 4.32093 11.2157 4.32083 11.2155V11.2155Z" fill="#101010"/>
</svg>
