<svg width="20" height="14" viewBox="0 0 20 14" fill="none" xmlns="http://www.w3.org/2000/svg">
<path fill-rule="evenodd" clip-rule="evenodd" d="M11.8994 0.399724C12.1923 0.10683 12.6671 0.10683 12.96 0.399724L19.03 6.46972C19.1707 6.61038 19.2497 6.80114 19.2497 7.00005C19.2497 7.19897 19.1707 7.38973 19.03 7.53038L12.96 13.6004C12.6671 13.8933 12.1923 13.8933 11.8994 13.6004C11.6065 13.3075 11.6065 12.8326 11.8994 12.5397L17.439 7.00005L11.8994 1.46038C11.6065 1.16749 11.6065 0.692617 11.8994 0.399724Z" fill="#101010"/>
<path fill-rule="evenodd" clip-rule="evenodd" d="M0.75 7C0.75 6.58579 1.08579 6.25 1.5 6.25H18.33C18.7442 6.25 19.08 6.58579 19.08 7C19.08 7.41421 18.7442 7.75 18.33 7.75H1.5C1.08579 7.75 0.75 7.41421 0.75 7Z" fill="#101010"/>
</svg>
