<svg width="22" height="22" viewBox="0 0 22 22" fill="none" xmlns="http://www.w3.org/2000/svg">
<path fill-rule="evenodd" clip-rule="evenodd" d="M15.7097 8.29004C13.5949 8.29004 11.8896 10.0032 11.8896 12.11V14.0701C11.8896 14.4843 11.5539 14.8201 11.1396 14.8201C10.7254 14.8201 10.3896 14.4843 10.3896 14.0701V12.11C10.3896 9.1769 12.7644 6.79004 15.7097 6.79004H17.6696C18.0838 6.79004 18.4196 7.12583 18.4196 7.54004C18.4196 7.95425 18.0838 8.29004 17.6696 8.29004H15.7097Z" fill="#101010"/>
<path fill-rule="evenodd" clip-rule="evenodd" d="M3.87012 7.55005C3.87012 7.13584 4.2059 6.80005 4.62012 6.80005H6.58014C9.51328 6.80005 11.9001 9.17476 11.9001 12.12V16.25C11.9001 16.6643 11.5644 17 11.1501 17C10.7359 17 10.4001 16.6643 10.4001 16.25V12.12C10.4001 10.0053 8.687 8.30005 6.58014 8.30005H4.62012C4.2059 8.30005 3.87012 7.96426 3.87012 7.55005Z" fill="#101010"/>
<path fill-rule="evenodd" clip-rule="evenodd" d="M6.67016 5.21967C6.96305 5.51256 6.96306 5.98743 6.67016 6.28033L5.4005 7.55L6.67016 8.81968C6.96306 9.11257 6.96305 9.58745 6.67016 9.88034C6.37726 10.1732 5.90239 10.1732 5.6095 9.88033L3.80951 8.08033C3.51662 7.78744 3.51662 7.31257 3.80951 7.01968L5.6095 5.21967C5.90239 4.92678 6.37726 4.92678 6.67016 5.21967Z" fill="#101010"/>
<path fill-rule="evenodd" clip-rule="evenodd" d="M15.329 5.21967C15.6219 4.92678 16.0968 4.92678 16.3897 5.21967L18.1897 7.01968C18.4826 7.31257 18.4826 7.78744 18.1897 8.08033L16.3897 9.88033C16.0968 10.1732 15.6219 10.1732 15.329 9.88034C15.0362 9.58745 15.0362 9.11257 15.329 8.81968L16.5987 7.55L15.329 6.28033C15.0362 5.98743 15.0362 5.51256 15.329 5.21967Z" fill="#101010"/>
<path fill-rule="evenodd" clip-rule="evenodd" d="M2.09467 2.09467C3.42914 0.760201 5.42603 0.25 8 0.25H14C16.574 0.25 18.5709 0.760201 19.9053 2.09467C21.2398 3.42914 21.75 5.42603 21.75 8V14C21.75 16.574 21.2398 18.5709 19.9053 19.9053C18.5709 21.2398 16.574 21.75 14 21.75H8C5.42603 21.75 3.42914 21.2398 2.09467 19.9053C0.760201 18.5709 0.25 16.574 0.25 14V8C0.25 5.42603 0.760201 3.42914 2.09467 2.09467ZM3.15533 3.15533C2.2398 4.07086 1.75 5.57397 1.75 8V14C1.75 16.426 2.2398 17.9291 3.15533 18.8447C4.07086 19.7602 5.57397 20.25 8 20.25H14C16.426 20.25 17.9291 19.7602 18.8447 18.8447C19.7602 17.9291 20.25 16.426 20.25 14V8C20.25 5.57397 19.7602 4.07086 18.8447 3.15533C17.9291 2.2398 16.426 1.75 14 1.75H8C5.57397 1.75 4.07086 2.2398 3.15533 3.15533Z" fill="#101010"/>
</svg>
