<svg width="22" height="22" viewBox="0 0 22 22" fill="none" xmlns="http://www.w3.org/2000/svg">
<path fill-rule="evenodd" clip-rule="evenodd" d="M8.65319 6.62797C10.5147 4.77826 13.5184 4.77583 15.3722 6.62966L15.3739 6.63135C17.2236 8.49292 17.226 11.4965 15.3722 13.3503L13.1521 15.5703C12.0793 16.6432 10.3344 16.6432 9.26147 15.5703C8.18858 14.4974 8.18858 12.7525 9.26147 11.6796L10.6715 10.2696C10.9644 9.97675 11.4393 9.97675 11.7322 10.2696C12.0251 10.5625 12.0251 11.0374 11.7322 11.3303L10.3221 12.7403C10.3221 12.7403 10.3221 12.7403 10.3221 12.7403C9.83503 13.2274 9.83503 14.0226 10.3221 14.5097C10.8092 14.9968 11.6044 14.9968 12.0915 14.5097L14.3115 12.2897C15.5774 11.0238 15.5801 8.96795 14.3107 7.68945C13.0447 6.42441 10.9895 6.42201 9.71125 7.69122C9.71099 7.69148 9.71072 7.69175 9.71045 7.69201L7.29217 10.1103C6.24506 11.1574 6.24506 12.8525 7.29217 13.8996C7.58506 14.1925 7.58506 14.6674 7.29217 14.9603C6.99927 15.2532 6.5244 15.2532 6.23151 14.9603C4.59861 13.3274 4.59861 10.6825 6.23151 9.04964L8.65319 6.62797Z" fill="#101010"/>
<path fill-rule="evenodd" clip-rule="evenodd" d="M2.09662 2.09467C3.43109 0.760201 5.42798 0.25 8.00195 0.25H14.002C16.5759 0.25 18.5728 0.760201 19.9073 2.09467C21.2418 3.42914 21.752 5.42603 21.752 8V14C21.752 16.574 21.2418 18.5709 19.9073 19.9053C18.5728 21.2398 16.5759 21.75 14.002 21.75H8.00195C5.42798 21.75 3.43109 21.2398 2.09662 19.9053C0.762154 18.5709 0.251953 16.574 0.251953 14V8C0.251953 5.42603 0.762154 3.42914 2.09662 2.09467ZM3.15728 3.15533C2.24175 4.07086 1.75195 5.57397 1.75195 8V14C1.75195 16.426 2.24175 17.9291 3.15728 18.8447C4.07281 19.7602 5.57593 20.25 8.00195 20.25H14.002C16.428 20.25 17.9311 19.7602 18.8466 18.8447C19.7622 17.9291 20.252 16.426 20.252 14V8C20.252 5.57397 19.7622 4.07086 18.8466 3.15533C17.9311 2.2398 16.428 1.75 14.002 1.75H8.00195C5.57593 1.75 4.07281 2.2398 3.15728 3.15533Z" fill="#101010"/>
</svg>
