<svg width="22" height="22" viewBox="0 0 22 22" fill="none" xmlns="http://www.w3.org/2000/svg">
<path fill-rule="evenodd" clip-rule="evenodd" d="M8.65319 6.62797C10.5147 4.77826 13.5184 4.77583 15.3722 6.62966L15.3739 6.63135C17.2236 8.49292 17.226 11.4965 15.3722 13.3503L13.1521 15.5703C12.0793 16.6432 10.3344 16.6432 9.26147 15.5703C8.18858 14.4974 8.18858 12.7525 9.26147 11.6796L10.6715 10.2696C10.9644 9.97675 11.4393 9.97675 11.7322 10.2696C12.0251 10.5625 12.0251 11.0374 11.7322 11.3303L10.3221 12.7403C10.3221 12.7403 10.3221 12.7403 10.3221 12.7403C9.83503 13.2274 9.83503 14.0226 10.3221 14.5097C10.8092 14.9968 11.6044 14.9968 12.0915 14.5097L14.3115 12.2897C15.5774 11.0238 15.5801 8.96795 14.3107 7.68945C13.0447 6.42441 10.9895 6.42201 9.71125 7.69122C9.71099 7.69148 9.71072 7.69175 9.71045 7.69201L7.29217 10.1103C6.24506 11.1574 6.24506 12.8525 7.29217 13.8996C7.58506 14.1925 7.58506 14.6674 7.29217 14.9603C6.99927 15.2532 6.5244 15.2532 6.23151 14.9603C4.59861 13.3274 4.59861 10.6825 6.23151 9.04964L8.65319 6.62797Z" fill="#101010"/>
<path fill-rule="evenodd" clip-rule="evenodd" d="M11.002 1.75C5.89332 1.75 1.75195 5.89137 1.75195 11C1.75195 16.1086 5.89332 20.25 11.002 20.25C16.1106 20.25 20.252 16.1086 20.252 11C20.252 5.89137 16.1106 1.75 11.002 1.75ZM0.251953 11C0.251953 5.06294 5.06489 0.25 11.002 0.25C16.939 0.25 21.752 5.06294 21.752 11C21.752 16.9371 16.939 21.75 11.002 21.75C5.06489 21.75 0.251953 16.9371 0.251953 11Z" fill="#101010"/>
</svg>
