<svg width="22" height="22" viewBox="0 0 22 22" fill="none" xmlns="http://www.w3.org/2000/svg">
<path fill-rule="evenodd" clip-rule="evenodd" d="M2.09467 2.09467C3.42914 0.760201 5.42603 0.25 8 0.25H14C16.574 0.25 18.5709 0.760201 19.9053 2.09467C21.2398 3.42914 21.75 5.42603 21.75 8V14C21.75 16.574 21.2398 18.5709 19.9053 19.9053C18.5709 21.2398 16.574 21.75 14 21.75H8C5.42603 21.75 3.42914 21.2398 2.09467 19.9053C0.760201 18.5709 0.25 16.574 0.25 14V8C0.25 5.42603 0.760201 3.42914 2.09467 2.09467ZM3.15533 3.15533C2.2398 4.07086 1.75 5.57397 1.75 8V14C1.75 16.426 2.2398 17.9291 3.15533 18.8447C4.07086 19.7602 5.57397 20.25 8 20.25H14C16.426 20.25 17.9291 19.7602 18.8447 18.8447C19.7602 17.9291 20.25 16.426 20.25 14V8C20.25 5.57397 19.7602 4.07086 18.8447 3.15533C17.9291 2.2398 16.426 1.75 14 1.75H8C5.57397 1.75 4.07086 2.2398 3.15533 3.15533Z" fill="#101010"/>
<path fill-rule="evenodd" clip-rule="evenodd" d="M8.62 12.8099C7.86336 12.8099 7.25 13.4233 7.25 14.1799C7.25 14.9366 7.86336 15.5499 8.62 15.5499C9.37663 15.5499 9.98999 14.9366 9.98999 14.1799C9.98999 13.4233 9.37663 12.8099 8.62 12.8099ZM5.75 14.1799C5.75 12.5949 7.03494 11.3099 8.62 11.3099C10.2051 11.3099 11.49 12.5949 11.49 14.1799C11.49 15.765 10.2051 17.0499 8.62 17.0499C7.03494 17.0499 5.75 15.765 5.75 14.1799Z" fill="#101010"/>
<path fill-rule="evenodd" clip-rule="evenodd" d="M10.7402 6.02002C11.1544 6.02002 11.4902 6.35581 11.4902 6.77002V14.18C11.4902 14.5942 11.1544 14.93 10.7402 14.93C10.326 14.93 9.99023 14.5942 9.99023 14.18V6.77002C9.99023 6.35581 10.326 6.02002 10.7402 6.02002Z" fill="#101010"/>
<path fill-rule="evenodd" clip-rule="evenodd" d="M11.5873 6.47929C11.5633 6.4967 11.4902 6.56613 11.4902 6.76998V7.38997C11.4902 7.50504 11.5382 7.66497 11.6502 7.82055C11.7622 7.97612 11.8984 8.07211 12.0074 8.10845L14.353 8.89029C14.5439 8.9556 14.6299 8.9084 14.6529 8.8919C14.6761 8.87523 14.7502 8.80705 14.7502 8.59993V7.97994C14.7502 7.86487 14.7023 7.70494 14.5903 7.54935C14.4783 7.39379 14.3421 7.2978 14.233 7.26146C14.233 7.26146 14.2331 7.26146 14.233 7.26146L11.8903 6.48057C11.6945 6.41445 11.6092 6.46338 11.5873 6.47929ZM12.3687 5.05888C11.7949 4.8656 11.1859 4.91688 10.7057 5.26566C10.2272 5.61326 9.99023 6.17382 9.99023 6.76998V7.38997C9.99023 7.8749 10.1723 8.33497 10.4328 8.69688C10.6933 9.05881 11.0721 9.37782 11.5331 9.53148L13.8705 10.3106C14.4387 10.5041 15.0464 10.4558 15.5276 10.1105C16.0094 9.76464 16.2502 9.20281 16.2502 8.59993V7.97994C16.2502 7.495 16.0682 7.03494 15.8077 6.67303C15.5471 6.31109 15.1684 5.99209 14.7074 5.83843L12.3687 5.05888Z" fill="#101010"/>
</svg>
