<svg width="18" height="22" viewBox="0 0 18 22" fill="none" xmlns="http://www.w3.org/2000/svg">
<path fill-rule="evenodd" clip-rule="evenodd" d="M10.6648 3.66045C10.6649 3.66048 10.6648 3.66043 10.6648 3.66045L15.3947 6.39037C15.4098 6.39911 15.4246 6.40837 15.4391 6.41814L15.4629 6.43417C15.8727 6.71052 16.2152 6.94154 16.4798 7.15106C16.7545 7.36862 16.9988 7.60346 17.1743 7.90752C17.3541 8.21892 17.4264 8.54131 17.4593 8.87643C17.4898 9.1874 17.4898 9.56007 17.4898 9.98659V15.0233C17.4898 15.4498 17.4898 15.8225 17.4593 16.1334C17.4264 16.4686 17.3541 16.791 17.1743 17.1024C16.9988 17.4064 16.7545 17.6413 16.4798 17.8588C16.2152 18.0683 15.8727 18.2994 15.4629 18.5757L15.4391 18.5917C15.4246 18.6015 15.4098 18.6108 15.3947 18.6195L10.6648 21.3494C10.6648 21.3495 10.6649 21.3494 10.6648 21.3494C10.1683 21.6361 9.56303 21.7574 8.99977 21.7574C8.43651 21.7574 7.83135 21.6362 7.33486 21.3495C7.33481 21.3495 7.3349 21.3495 7.33486 21.3495L2.60486 18.6195C2.58972 18.6108 2.5749 18.6015 2.56041 18.5917L2.53663 18.5757C2.12686 18.2994 1.7843 18.0683 1.51975 17.8588C1.24505 17.6413 1.0007 17.4064 0.825201 17.1024C0.64547 16.791 0.573086 16.4686 0.540223 16.1334C0.509728 15.8225 0.509746 15.4498 0.509767 15.0233V9.98661C0.509746 9.56009 0.509728 9.18741 0.540223 8.87643C0.573086 8.54131 0.64547 8.21892 0.825201 7.90752C1.0007 7.60346 1.24505 7.36862 1.51975 7.15106C1.78431 6.94154 2.12687 6.71051 2.53665 6.43416L2.56041 6.41814C2.5749 6.40837 2.58972 6.39911 2.60486 6.39037L7.33471 3.66045C7.33476 3.66043 7.33466 3.66048 7.33471 3.66045C7.8312 3.37379 8.43651 3.25244 8.99977 3.25244C9.56303 3.25244 10.1683 3.37379 10.6648 3.66045ZM8.99977 4.75244C8.62808 4.75244 8.29831 4.83615 8.08482 4.95943L3.37739 7.6764C2.9497 7.96487 2.66159 8.16019 2.45104 8.32695C2.24199 8.49251 2.16383 8.58892 2.12433 8.65736C2.08907 8.71846 2.05395 8.80983 2.03306 9.02282C2.0106 9.2519 2.00977 9.5504 2.00977 10.0199V14.9899C2.00977 15.4595 2.0106 15.758 2.03306 15.9871C2.05395 16.2001 2.08907 16.2914 2.12433 16.3525C2.16383 16.421 2.24199 16.5174 2.45104 16.6829C2.66159 16.8497 2.9497 17.045 3.3774 17.3335L8.08468 20.0504C8.29816 20.1737 8.62808 20.2574 8.99977 20.2574C9.37145 20.2574 9.70123 20.1737 9.91471 20.0505L14.6221 17.3335C15.0498 17.045 15.3379 16.8497 15.5485 16.6829C15.7575 16.5174 15.8357 16.421 15.8752 16.3525C15.9105 16.2914 15.9456 16.2001 15.9665 15.9871C15.9889 15.758 15.9898 15.4595 15.9898 14.9899V10.0199C15.9898 9.5504 15.9889 9.2519 15.9665 9.02282C15.9456 8.80983 15.9105 8.71846 15.8752 8.65736C15.8357 8.58892 15.7575 8.49251 15.5485 8.32695C15.3379 8.16019 15.0498 7.96487 14.6221 7.6764L9.91486 4.95951C9.70137 4.83623 9.37145 4.75244 8.99977 4.75244Z" fill="#101010"/>
<path fill-rule="evenodd" clip-rule="evenodd" d="M3.71967 1.21967C4.40993 0.52941 5.38439 0.25 6.5 0.25H11.5C12.6156 0.25 13.5901 0.52941 14.2803 1.21967C14.9706 1.90993 15.25 2.88439 15.25 4V6.63C15.25 7.04421 14.9142 7.38 14.5 7.38C14.0858 7.38 13.75 7.04421 13.75 6.63V4C13.75 3.11561 13.5294 2.59007 13.2197 2.28033C12.9099 1.97059 12.3844 1.75 11.5 1.75H6.5C5.61561 1.75 5.09007 1.97059 4.78033 2.28033C4.47059 2.59007 4.25 3.11561 4.25 4V6.56C4.25 6.97421 3.91421 7.31 3.5 7.31C3.08579 7.31 2.75 6.97421 2.75 6.56V4C2.75 2.88439 3.02941 1.90993 3.71967 1.21967Z" fill="#101010"/>
<path fill-rule="evenodd" clip-rule="evenodd" d="M8.98663 10.4014L8.42375 11.2803C8.31694 11.451 8.16955 11.5856 8.04345 11.6782C7.91498 11.7726 7.73725 11.8757 7.53355 11.927L6.52024 12.1853L7.18681 12.9912C7.31669 13.1475 7.39924 13.3317 7.44821 13.4806C7.4972 13.6295 7.54063 13.8283 7.52821 14.0342L7.46842 15.0806L8.44098 14.6936C8.44116 14.6935 8.44079 14.6937 8.44098 14.6936C8.63182 14.6174 8.83407 14.595 8.99452 14.595C9.15495 14.595 9.35661 14.6171 9.54744 14.6934C9.54764 14.6934 9.54723 14.6933 9.54744 14.6934L10.5206 15.0806L10.4608 14.0343C10.4483 13.8267 10.4925 13.6293 10.5418 13.4815C10.5924 13.3295 10.672 13.1596 10.7851 13.0127C10.7904 13.0057 10.796 12.9987 10.8016 12.9919L11.4688 12.1853L10.4463 11.9247C10.2582 11.8745 10.0884 11.7793 9.95929 11.6865C9.82999 11.5935 9.68013 11.459 9.56863 11.2855L8.99927 10.3965C8.99776 10.3942 8.99626 10.3919 8.99478 10.3898C8.99212 10.3935 8.98941 10.3973 8.98663 10.4014ZM8.99827 8.83496C9.54921 8.83496 9.98719 9.16285 10.2589 9.58204L10.2611 9.58546L10.8183 10.4555C10.8191 10.4562 10.82 10.457 10.821 10.4578C10.825 10.4611 10.8296 10.4648 10.8347 10.4684C10.8399 10.4721 10.8449 10.4755 10.8495 10.4783C10.8508 10.4791 10.852 10.4798 10.8531 10.4804L11.8441 10.733C11.8442 10.7331 11.844 10.733 11.8441 10.733C12.3339 10.8575 12.7882 11.1736 12.9585 11.7027C13.1278 12.229 12.9464 12.749 12.6295 13.1355L12.6274 13.138L11.9782 13.9229C11.9764 13.9266 11.9742 13.9313 11.9719 13.9369C11.9693 13.943 11.9669 13.9494 11.9648 13.9559C11.9627 13.9622 11.961 13.968 11.9598 13.9728L12.0181 14.9939C12.0181 14.9945 12.0182 14.9951 12.0182 14.9957C12.0487 15.498 11.8884 16.0265 11.4389 16.3515C10.9893 16.6766 10.4373 16.6627 9.97155 16.4766C9.97136 16.4765 9.97174 16.4766 9.97155 16.4766L9.01488 16.0958C9.01403 16.0958 9.01312 16.0957 9.01215 16.0956C9.00689 16.0952 9.0009 16.095 8.99452 16.095C8.98814 16.095 8.98215 16.0952 8.97689 16.0956C8.97592 16.0957 8.97501 16.0958 8.97415 16.0958L8.01806 16.4763C8.01789 16.4764 8.01823 16.4763 8.01806 16.4763C7.54665 16.6647 6.99404 16.6717 6.54742 16.3458C6.103 16.0215 5.94008 15.4968 5.97084 14.9954L6.02939 13.9708C6.02916 13.9698 6.02889 13.9687 6.02861 13.9675C6.02724 13.962 6.02547 13.9558 6.02332 13.9493C6.02118 13.9428 6.01892 13.9367 6.01674 13.9315C6.0163 13.9304 6.01589 13.9294 6.01549 13.9285L5.35956 13.1355C5.04265 12.7491 4.8612 12.229 5.03058 11.7027C5.20086 11.1736 5.65486 10.8576 6.14461 10.7331M7.14083 10.4792C7.13706 10.4815 7.13444 10.4829 7.13323 10.4835C7.13183 10.4842 7.13338 10.4833 7.13805 10.4815C7.14155 10.4802 7.14836 10.4776 7.15836 10.4748L7.15077 10.4869C7.15336 10.4827 7.15611 10.4782 7.15836 10.4748C7.15819 10.4751 7.15854 10.4746 7.15836 10.4748C7.16015 10.4743 7.16228 10.4737 7.16427 10.4732L7.15836 10.4748C7.16391 10.4666 7.16855 10.4609 7.17097 10.4579C7.17463 10.4533 7.17631 10.4517 7.17541 10.4527C7.17459 10.4535 7.17233 10.4557 7.16859 10.4589C7.16862 10.4589 7.16856 10.4589 7.16859 10.4589L7.15836 10.4748L7.14083 10.4792Z" fill="#101010"/>
</svg>
