<svg width="20" height="22" viewBox="0 0 20 22" fill="none" xmlns="http://www.w3.org/2000/svg">
<path fill-rule="evenodd" clip-rule="evenodd" d="M8.13901 9.59384C8.24081 9.2871 8.52765 9.08008 8.85084 9.08008H11.9108C12.325 9.08008 12.6608 9.41586 12.6608 9.83008C12.6608 10.2443 12.325 10.5801 11.9108 10.5801H9.39215L9.12997 11.3701H10.3808C11.6319 11.3701 12.6608 12.3827 12.6608 13.6501C12.6608 14.9011 11.6482 15.9301 10.3808 15.9301H8.09083C7.67661 15.9301 7.34083 15.5943 7.34083 15.1801C7.34083 14.7658 7.67661 14.4301 8.09083 14.4301H10.3808C10.8135 14.4301 11.1608 14.079 11.1608 13.6501C11.1608 13.2175 10.8098 12.8701 10.3808 12.8701H8.09083C7.84992 12.8701 7.62367 12.7543 7.48268 12.559C7.34169 12.3636 7.30312 12.1125 7.379 11.8838L8.13901 9.59384Z" fill="#101010"/>
<path fill-rule="evenodd" clip-rule="evenodd" d="M10.4696 0.414842C10.7928 0.673921 10.8448 1.14594 10.5857 1.46913L8.60572 3.9391C8.34664 4.26229 7.87462 4.31426 7.55143 4.05518C7.22824 3.7961 7.17627 3.32408 7.43535 3.00089L9.41536 0.530923C9.67444 0.207734 10.1465 0.155763 10.4696 0.414842Z" fill="#101010"/>
<path fill-rule="evenodd" clip-rule="evenodd" d="M7.84921 2.72981C8.53585 2.56888 9.25378 2.46997 10.0004 2.46997C15.3246 2.46997 19.6404 6.78577 19.6404 12.11C19.6404 17.4342 15.3246 21.75 10.0004 21.75C4.67615 21.75 0.360352 17.4342 0.360352 12.11C0.360352 9.93346 1.11192 7.94793 2.31037 6.34999C2.5589 6.01862 3.029 5.95146 3.36037 6.19999C3.69174 6.44852 3.7589 6.91862 3.51037 7.24999C2.48882 8.61205 1.86035 10.2865 1.86035 12.11C1.86035 16.6058 5.50458 20.25 10.0004 20.25C14.4962 20.25 18.1404 16.6058 18.1404 12.11C18.1404 7.6142 14.4962 3.96997 10.0004 3.96997C9.38695 3.96997 8.78486 4.05116 8.1915 4.19023C7.78821 4.28475 7.38466 4.03445 7.29014 3.63117C7.19562 3.22788 7.44593 2.82433 7.84921 2.72981Z" fill="#101010"/>
</svg>
