<svg width="22" height="22" viewBox="0 0 22 22" fill="none" xmlns="http://www.w3.org/2000/svg">
<path fill-rule="evenodd" clip-rule="evenodd" d="M13.2616 2.26158C12.9648 2.55836 12.75 3.09897 12.75 4.14999V6.85001C12.75 7.90103 12.9648 8.44164 13.2616 8.73842C13.5584 9.0352 14.099 9.25 15.15 9.25H17.85C18.901 9.25 19.4416 9.0352 19.7384 8.73842C20.0352 8.44164 20.25 7.90103 20.25 6.85001V4.14999C20.25 3.09897 20.0352 2.55836 19.7384 2.26158C19.4416 1.9648 18.901 1.75 17.85 1.75H15.15C14.099 1.75 13.5584 1.9648 13.2616 2.26158ZM12.2009 1.20092C12.9166 0.485199 13.951 0.25 15.15 0.25H17.85C19.049 0.25 20.0834 0.485199 20.7991 1.20092C21.5148 1.91663 21.75 2.95102 21.75 4.14999V6.85001C21.75 8.04898 21.5148 9.08337 20.7991 9.79908C20.0834 10.5148 19.049 10.75 17.85 10.75H15.15C13.951 10.75 12.9166 10.5148 12.2009 9.79908C11.4852 9.08337 11.25 8.04898 11.25 6.85001V4.14999C11.25 2.95102 11.4852 1.91663 12.2009 1.20092Z" fill="#101010"/>
<path fill-rule="evenodd" clip-rule="evenodd" d="M2.26158 13.2616C1.9648 13.5584 1.75 14.099 1.75 15.15V17.85C1.75 18.901 1.9648 19.4416 2.26158 19.7384C2.55836 20.0352 3.09897 20.25 4.15 20.25H6.85C7.90103 20.25 8.44164 20.0352 8.73842 19.7384C9.0352 19.4416 9.25 18.901 9.25 17.85V15.15C9.25 14.099 9.0352 13.5584 8.73842 13.2616C8.44164 12.9648 7.90103 12.75 6.85 12.75H4.15C3.09897 12.75 2.55836 12.9648 2.26158 13.2616ZM1.20092 12.2009C1.91664 11.4852 2.95103 11.25 4.15 11.25H6.85C8.04897 11.25 9.08336 11.4852 9.79908 12.2009C10.5148 12.9166 10.75 13.951 10.75 15.15V17.85C10.75 19.049 10.5148 20.0834 9.79908 20.7991C9.08336 21.5148 8.04897 21.75 6.85 21.75H4.15C2.95103 21.75 1.91664 21.5148 1.20092 20.7991C0.485202 20.0834 0.25 19.049 0.25 17.85V15.15C0.25 13.951 0.485202 12.9166 1.20092 12.2009Z" fill="#101010"/>
<path fill-rule="evenodd" clip-rule="evenodd" d="M7.0217 7.02158C6.62785 7.41543 6.37012 8.10796 6.37012 9.38V11.25H6.85011C8.04908 11.25 9.08347 11.4852 9.79919 12.2009C10.5149 12.9166 10.7501 13.951 10.7501 15.15V15.63H12.6201C13.8922 15.63 14.5847 15.3723 14.9785 14.9784C15.3724 14.5846 15.6301 13.892 15.6301 12.62V10.75H15.1501C13.9511 10.75 12.9168 10.5148 12.201 9.79908C11.4853 9.08337 11.2501 8.04898 11.2501 6.85001V6.37H9.38011C8.10807 6.37 7.41554 6.62773 7.0217 7.02158ZM5.96103 5.96092C6.77468 5.14727 7.96216 4.87 9.38011 4.87H12.0001C12.4143 4.87 12.7501 5.20578 12.7501 5.62V6.85001C12.7501 7.90103 12.9649 8.44164 13.2617 8.73842C13.5585 9.0352 14.0991 9.25 15.1501 9.25H16.3801C16.7943 9.25 17.1301 9.58579 17.1301 10V12.62C17.1301 14.0379 16.8528 15.2254 16.0392 16.0391C15.2255 16.8527 14.0381 17.13 12.6201 17.13H10.0001C9.5859 17.13 9.25011 16.7942 9.25011 16.38V15.15C9.25011 14.099 9.03532 13.5584 8.73853 13.2616C8.44175 12.9648 7.90114 12.75 6.85011 12.75H5.62012C5.2059 12.75 4.87012 12.4142 4.87012 12V9.38C4.87012 7.96205 5.14738 6.77458 5.96103 5.96092Z" fill="#101010"/>
</svg>
