<svg width="20" height="22" viewBox="0 0 20 22" fill="none" xmlns="http://www.w3.org/2000/svg">
<path fill-rule="evenodd" clip-rule="evenodd" d="M10.1888 9.59384C10.2906 9.2871 10.5775 9.08008 10.9006 9.08008H13.9606C14.3749 9.08008 14.7106 9.41586 14.7106 9.83008C14.7106 10.2443 14.3749 10.5801 13.9606 10.5801H11.442L11.1798 11.3701H12.4306C13.6816 11.3701 14.7106 12.3827 14.7106 13.6501C14.7106 14.9011 13.698 15.9301 12.4306 15.9301H10.1406C9.72642 15.9301 9.39063 15.5943 9.39063 15.1801C9.39063 14.7658 9.72642 14.4301 10.1406 14.4301H12.4306C12.8632 14.4301 13.2106 14.079 13.2106 13.6501C13.2106 13.2175 12.8596 12.8701 12.4306 12.8701H10.1406C9.89972 12.8701 9.67347 12.7543 9.53248 12.559C9.39149 12.3636 9.35293 12.1125 9.42881 11.8838L10.1888 9.59384Z" fill="#101010"/>
<path fill-rule="evenodd" clip-rule="evenodd" d="M7.8084 9.12976C8.0985 9.24092 8.29005 9.51944 8.29005 9.83011V15.1701C8.29005 15.5843 7.95426 15.9201 7.54005 15.9201C7.12583 15.9201 6.79005 15.5843 6.79005 15.1701V11.7875L6.59801 12.0013C6.32122 12.3094 5.84703 12.3348 5.53887 12.0581C5.23072 11.7813 5.20529 11.3071 5.48208 10.9989L6.98208 9.32894C7.18968 9.09781 7.51829 9.0186 7.8084 9.12976Z" fill="#101010"/>
<path fill-rule="evenodd" clip-rule="evenodd" d="M10.4696 0.414839C10.7928 0.673915 10.8448 1.14594 10.5857 1.46913L8.60572 3.9391C8.34665 4.26229 7.87463 4.31426 7.55144 4.05519C7.22824 3.79611 7.17627 3.32409 7.43535 3.0009L9.41533 0.530928C9.6744 0.207737 10.1464 0.155762 10.4696 0.414839Z" fill="#101010"/>
<path fill-rule="evenodd" clip-rule="evenodd" d="M7.84924 2.72981C8.53588 2.56888 9.25378 2.46997 10.0004 2.46997C15.3246 2.46997 19.6404 6.78577 19.6404 12.11C19.6404 17.4342 15.3246 21.75 10.0004 21.75C4.67615 21.75 0.360352 17.4342 0.360352 12.11C0.360352 9.93346 1.11188 7.94793 2.31034 6.34999C2.55887 6.01862 3.02897 5.95146 3.36034 6.19999C3.69171 6.44852 3.75887 6.91862 3.51034 7.24999C2.4888 8.61204 1.86035 10.2865 1.86035 12.11C1.86035 16.6058 5.50458 20.25 10.0004 20.25C14.4962 20.25 18.1404 16.6058 18.1404 12.11C18.1404 7.6142 14.4962 3.96997 10.0004 3.96997C9.38696 3.96997 8.7849 4.05116 8.19153 4.19023C7.78824 4.28475 7.38469 4.03445 7.29017 3.63117C7.19565 3.22788 7.44596 2.82433 7.84924 2.72981Z" fill="#101010"/>
</svg>
