<svg width="22" height="14" viewBox="0 0 22 14" fill="none" xmlns="http://www.w3.org/2000/svg">
<path fill-rule="evenodd" clip-rule="evenodd" d="M20.2502 3.3399C20.2502 2.41729 19.2493 1.84322 18.4525 2.31522L18.4437 2.32041L15.2752 4.13943L15.2737 4.14032L12.1111 5.96603C12.0653 5.9937 12.0254 6.02031 11.9902 6.04621V7.97362C12.0254 7.99952 12.0653 8.02613 12.1111 8.0538L15.2737 9.87948L15.2752 9.88037L18.445 11.7003C19.2461 12.1624 20.2502 11.5815 20.2502 10.6599V3.3399ZM17.6928 1.02183C19.4951 -0.0411015 21.7502 1.26433 21.7502 3.3399V10.6599C21.7502 12.7381 19.495 14.0371 17.6961 12.9999C17.6959 12.9998 17.6964 13.0001 17.6961 12.9999L14.5268 11.1803L14.5253 11.1794L11.3443 9.34313C11.0891 9.19002 10.8559 9.0063 10.6581 8.76286C10.5495 8.62917 10.4902 8.46217 10.4902 8.28992V5.72992C10.4902 5.55767 10.5495 5.39066 10.6581 5.25697C10.8559 5.01354 11.0892 4.82991 11.3444 4.6768L11.3552 4.67029L14.5268 2.83947L17.6928 1.02183Z" fill="#101010"/>
<path fill-rule="evenodd" clip-rule="evenodd" d="M10.49 3.3399C10.49 2.41729 9.48912 1.84322 8.69224 2.31522L8.68349 2.32041L5.51501 4.13943L5.51347 4.14032L2.34694 5.96833C1.54057 6.44128 1.54893 7.59111 2.34482 8.05028L5.51348 9.87948L5.51501 9.88037L8.68346 11.6995L8.68482 11.7003C9.48587 12.1624 10.49 11.5815 10.49 10.6599V3.3399ZM7.93254 1.02183C9.73487 -0.0410993 11.99 1.26433 11.99 3.3399V10.6599C11.99 12.738 9.7349 14.037 7.93608 13C7.9358 12.9999 7.93637 13.0002 7.93608 13L4.76661 11.1803L4.76508 11.1794L1.59524 9.34956C1.59518 9.34953 1.5953 9.34959 1.59524 9.34956C-0.208161 8.30897 -0.200441 5.72004 1.59151 4.67244L1.59505 4.67037L4.76662 2.83947L7.93254 1.02183Z" fill="#101010"/>
</svg>
