<svg width="22" height="22" viewBox="0 0 22 22" fill="none" xmlns="http://www.w3.org/2000/svg">
<path fill-rule="evenodd" clip-rule="evenodd" d="M2.09467 2.09467C3.42914 0.760201 5.42603 0.25 8 0.25H14C16.574 0.25 18.5709 0.760201 19.9053 2.09467C21.2398 3.42914 21.75 5.42603 21.75 8V14C21.75 16.574 21.2398 18.5709 19.9053 19.9053C18.5709 21.2398 16.574 21.75 14 21.75H8C5.42603 21.75 3.42914 21.2398 2.09467 19.9053C0.760201 18.5709 0.25 16.574 0.25 14V8C0.25 5.42603 0.760201 3.42914 2.09467 2.09467ZM3.15533 3.15533C2.2398 4.07086 1.75 5.57397 1.75 8V14C1.75 16.426 2.2398 17.9291 3.15533 18.8447C4.07086 19.7602 5.57397 20.25 8 20.25H14C16.426 20.25 17.9291 19.7602 18.8447 18.8447C19.7602 17.9291 20.25 16.426 20.25 14V8C20.25 5.57397 19.7602 4.07086 18.8447 3.15533C17.9291 2.2398 16.426 1.75 14 1.75H8C5.57397 1.75 4.07086 2.2398 3.15533 3.15533Z" fill="#101010"/>
<path fill-rule="evenodd" clip-rule="evenodd" d="M5.40039 8.21997C5.40039 7.80576 5.73618 7.46997 6.15039 7.46997H12.9204C15.0346 7.46997 16.7504 9.18576 16.7504 11.3C16.7504 13.4142 15.0346 15.13 12.9204 15.13H8.00039C7.58618 15.13 7.25039 14.7942 7.25039 14.38C7.25039 13.9658 7.58618 13.63 8.00039 13.63H12.9204C14.2062 13.63 15.2504 12.5858 15.2504 11.3C15.2504 10.0142 14.2062 8.96997 12.9204 8.96997H6.15039C5.73618 8.96997 5.40039 8.63418 5.40039 8.21997Z" fill="#101010"/>
<path fill-rule="evenodd" clip-rule="evenodd" d="M8.10033 6.08967C8.39322 6.38256 8.39322 6.85743 8.10033 7.15033L7.05898 8.19167L8.10201 9.24134C8.39397 9.53517 8.39247 10.01 8.09864 10.302C7.80482 10.594 7.32995 10.5925 7.03799 10.2986L5.46799 8.71864C5.17668 8.42548 5.17743 7.9519 5.46967 7.65966L7.03967 6.08967C7.33256 5.79677 7.80744 5.79677 8.10033 6.08967Z" fill="#101010"/>
</svg>
