<svg width="24" height="22" viewBox="0 0 24 22" fill="none" xmlns="http://www.w3.org/2000/svg">
<path fill-rule="evenodd" clip-rule="evenodd" d="M11.9015 1.84927L2.90855 5.44642C2.9087 5.44636 2.90526 5.44773 2.89866 5.45184C2.89207 5.45594 2.8832 5.46223 2.87268 5.47127C2.85102 5.48988 2.82727 5.51596 2.80565 5.54803C2.78403 5.5801 2.76872 5.61198 2.75954 5.63907C2.75079 5.66488 2.75006 5.6789 2.75 5.68001C2.75 5.68009 2.75 5.6801 2.75 5.68006V9.00006C2.75 9.13585 2.86421 9.25006 3 9.25006H21C21.1358 9.25006 21.25 9.13585 21.25 9.00006V5.68006C21.25 5.6808 21.2498 5.66668 21.2405 5.63907C21.2313 5.61198 21.216 5.5801 21.1943 5.54803C21.1727 5.51596 21.149 5.48988 21.1273 5.47127C21.1168 5.46223 21.1079 5.45594 21.1013 5.45184C21.0947 5.44773 21.0913 5.44636 21.0915 5.44642L12.0985 1.84927C12.0957 1.84858 12.0898 1.84729 12.0808 1.84585C12.0598 1.84252 12.0317 1.84009 12 1.84009C11.9683 1.84009 11.9402 1.84252 11.9192 1.84585C11.9102 1.84729 11.9043 1.84858 11.9015 1.84927ZM12 0.340088C12.1938 0.340088 12.4313 0.366841 12.6485 0.45373L12.37 1.15009M12 0.340088C11.8062 0.340088 11.5687 0.366841 11.3515 0.45373L12 0.340088ZM11.3515 0.45373L2.35146 4.05371L11.3515 0.45373ZM21.6485 4.05371L21.37 4.75006L21.6485 4.05371C21.9915 4.19091 22.2592 4.44411 22.4381 4.70959C22.6169 4.97474 22.75 5.31567 22.75 5.68006V9.00006C22.75 9.96428 21.9642 10.7501 21 10.7501H3C2.03579 10.7501 1.25 9.96428 1.25 9.00006V5.68006C1.25 5.31567 1.38312 4.97474 1.56185 4.70959C1.74082 4.44411 2.00846 4.19091 2.35146 4.05371L2.35146 4.05371M21.6485 4.05371L12.6485 0.45373L21.6485 4.05371Z" fill="#101010"/>
<path fill-rule="evenodd" clip-rule="evenodd" d="M3 17.75C2.86421 17.75 2.75 17.8642 2.75 18V20.25H21.25V18C21.25 17.8642 21.1358 17.75 21 17.75H3ZM1.25 18C1.25 17.0358 2.03579 16.25 3 16.25H21C21.9642 16.25 22.75 17.0358 22.75 18V21C22.75 21.4142 22.4142 21.75 22 21.75H2C1.58579 21.75 1.25 21.4142 1.25 21V18Z" fill="#101010"/>
<path fill-rule="evenodd" clip-rule="evenodd" d="M4 9.25C4.41421 9.25 4.75 9.58579 4.75 10V17C4.75 17.4142 4.41421 17.75 4 17.75C3.58579 17.75 3.25 17.4142 3.25 17V10C3.25 9.58579 3.58579 9.25 4 9.25Z" fill="#101010"/>
<path fill-rule="evenodd" clip-rule="evenodd" d="M8 9.25C8.41421 9.25 8.75 9.58579 8.75 10V17C8.75 17.4142 8.41421 17.75 8 17.75C7.58579 17.75 7.25 17.4142 7.25 17V10C7.25 9.58579 7.58579 9.25 8 9.25Z" fill="#101010"/>
<path fill-rule="evenodd" clip-rule="evenodd" d="M12 9.25C12.4142 9.25 12.75 9.58579 12.75 10V17C12.75 17.4142 12.4142 17.75 12 17.75C11.5858 17.75 11.25 17.4142 11.25 17V10C11.25 9.58579 11.5858 9.25 12 9.25Z" fill="#101010"/>
<path fill-rule="evenodd" clip-rule="evenodd" d="M16 9.25C16.4142 9.25 16.75 9.58579 16.75 10V17C16.75 17.4142 16.4142 17.75 16 17.75C15.5858 17.75 15.25 17.4142 15.25 17V10C15.25 9.58579 15.5858 9.25 16 9.25Z" fill="#101010"/>
<path fill-rule="evenodd" clip-rule="evenodd" d="M20 9.25C20.4142 9.25 20.75 9.58579 20.75 10V17C20.75 17.4142 20.4142 17.75 20 17.75C19.5858 17.75 19.25 17.4142 19.25 17V10C19.25 9.58579 19.5858 9.25 20 9.25Z" fill="#101010"/>
<path fill-rule="evenodd" clip-rule="evenodd" d="M0.25 21C0.25 20.5858 0.585786 20.25 1 20.25H23C23.4142 20.25 23.75 20.5858 23.75 21C23.75 21.4142 23.4142 21.75 23 21.75H1C0.585786 21.75 0.25 21.4142 0.25 21Z" fill="#101010"/>
<path fill-rule="evenodd" clip-rule="evenodd" d="M12 5.25C11.5858 5.25 11.25 5.58579 11.25 6C11.25 6.41421 11.5858 6.75 12 6.75C12.4142 6.75 12.75 6.41421 12.75 6C12.75 5.58579 12.4142 5.25 12 5.25ZM9.75 6C9.75 4.75736 10.7574 3.75 12 3.75C13.2426 3.75 14.25 4.75736 14.25 6C14.25 7.24264 13.2426 8.25 12 8.25C10.7574 8.25 9.75 7.24264 9.75 6Z" fill="#101010"/>
</svg>
