<svg width="22" height="22" viewBox="0 0 22 22" fill="none" xmlns="http://www.w3.org/2000/svg">
<path fill-rule="evenodd" clip-rule="evenodd" d="M18.75 8.5C18.75 8.08579 19.0858 7.75 19.5 7.75C20.2564 7.75 20.9868 7.8574 21.4125 8.425C21.6168 8.69744 21.6895 9.00027 21.7208 9.25072C21.7501 9.48532 21.75 9.74463 21.75 9.9739C21.75 9.98265 21.75 9.99135 21.75 10V12C21.75 12.0087 21.75 12.0174 21.75 12.0261C21.75 12.2554 21.7501 12.5147 21.7208 12.7493C21.6895 12.9997 21.6168 13.3026 21.4125 13.575C20.9868 14.1426 20.2564 14.25 19.5 14.25C19.0858 14.25 18.75 13.9142 18.75 13.5C18.75 13.0858 19.0858 12.75 19.5 12.75C19.8433 12.75 20.0426 12.7202 20.1541 12.6872C20.182 12.6789 20.2008 12.6716 20.2129 12.6661C20.2181 12.6483 20.2257 12.6161 20.2324 12.5632C20.2488 12.4318 20.25 12.2644 20.25 12V10C20.25 9.73556 20.2488 9.56824 20.2324 9.43678C20.2257 9.38389 20.2181 9.35171 20.2129 9.33392C20.2008 9.32845 20.182 9.32111 20.1541 9.31285C20.0426 9.27981 19.8433 9.25 19.5 9.25C19.0858 9.25 18.75 8.91421 18.75 8.5ZM20.2311 9.3439C20.231 9.34394 20.2299 9.34323 20.2279 9.34165C20.2303 9.34307 20.2312 9.34386 20.2311 9.3439ZM20.2311 12.6561C20.2312 12.6561 20.2303 12.6569 20.2279 12.6583C20.2299 12.6568 20.231 12.6561 20.2311 12.6561Z" fill="#101010"/>
<path fill-rule="evenodd" clip-rule="evenodd" d="M15.4006 0.86598C15.7508 1.08717 15.8554 1.55038 15.6342 1.90059L3.63421 20.9006C3.41303 21.2508 2.94982 21.3554 2.5996 21.1342C2.24939 20.913 2.14479 20.4498 2.36598 20.0996L14.366 1.0996C14.5872 0.749389 15.0504 0.644793 15.4006 0.86598Z" fill="#101010"/>
<path fill-rule="evenodd" clip-rule="evenodd" d="M1.46967 4.46967C2.45818 3.48116 4.00536 3.25 6 3.25C6.41421 3.25 6.75 3.58579 6.75 4C6.75 4.41421 6.41421 4.75 6 4.75C3.99464 4.75 3.04182 5.01884 2.53033 5.53033C2.01884 6.04182 1.75 6.99464 1.75 9V13C1.75 14.6927 1.93959 15.6443 2.31732 16.2095C2.65136 16.7094 3.23043 17.0396 4.47098 17.1744C4.88278 17.2191 5.18034 17.5892 5.13561 18.001C5.09089 18.4128 4.72081 18.7103 4.30902 18.6656C2.87957 18.5104 1.76364 18.0806 1.07018 17.043C0.420405 16.0707 0.25 14.7073 0.25 13V9C0.25 7.00536 0.481164 5.45818 1.46967 4.46967Z" fill="#101010"/>
<path fill-rule="evenodd" clip-rule="evenodd" d="M12.8845 3.99855C12.9295 3.5868 13.2998 3.28953 13.7116 3.33459C15.1342 3.49028 16.244 3.92423 16.9336 4.96279C17.5793 5.93535 17.75 7.29709 17.75 9.00014V13.0001C17.75 14.9948 17.5188 16.542 16.5303 17.5305C15.5418 18.519 13.9946 18.7501 12 18.7501C11.5858 18.7501 11.25 18.4144 11.25 18.0001C11.25 17.5859 11.5858 17.2501 12 17.2501C14.0054 17.2501 14.9582 16.9813 15.4697 16.4698C15.9812 15.9583 16.25 15.0055 16.25 13.0001V9.00014C16.25 7.3132 16.0607 6.35993 15.6839 5.7925C15.351 5.29106 14.7758 4.96001 13.5484 4.82569C13.1367 4.78063 12.8394 4.41031 12.8845 3.99855Z" fill="#101010"/>
</svg>
