<svg width="22" height="22" viewBox="0 0 22 22" fill="none" xmlns="http://www.w3.org/2000/svg">
<path fill-rule="evenodd" clip-rule="evenodd" d="M1.91992 0.75H20.0899V13.47C20.0899 14.684 19.5204 15.8375 18.5391 16.5706C18.539 16.5707 18.5393 16.5705 18.5391 16.5706L13.3294 20.4704C11.953 21.4995 10.0571 21.4998 8.68078 20.4706L3.47114 16.5709C3.471 16.5708 3.47128 16.571 3.47114 16.5709C2.48987 15.8379 1.91992 14.684 1.91992 13.47V0.75ZM3.41992 2.25V13.47C3.41992 14.2158 3.77022 14.9221 4.3687 15.3691L9.57905 19.2693C10.4227 19.9002 11.5871 19.9002 12.4308 19.2693L17.6405 15.3696C18.2389 14.9226 18.5899 14.2158 18.5899 13.47V2.25H3.41992Z" fill="#101010"/>
<path fill-rule="evenodd" clip-rule="evenodd" d="M0.25 1.5C0.25 1.08579 0.585786 0.75 1 0.75H21C21.4142 0.75 21.75 1.08579 21.75 1.5C21.75 1.91421 21.4142 2.25 21 2.25H1C0.585786 2.25 0.25 1.91421 0.25 1.5Z" fill="#101010"/>
<path fill-rule="evenodd" clip-rule="evenodd" d="M6.25 7C6.25 6.58579 6.58579 6.25 7 6.25H15C15.4142 6.25 15.75 6.58579 15.75 7C15.75 7.41421 15.4142 7.75 15 7.75H7C6.58579 7.75 6.25 7.41421 6.25 7Z" fill="#101010"/>
<path fill-rule="evenodd" clip-rule="evenodd" d="M6.25 12C6.25 11.5858 6.58579 11.25 7 11.25H15C15.4142 11.25 15.75 11.5858 15.75 12C15.75 12.4142 15.4142 12.75 15 12.75H7C6.58579 12.75 6.25 12.4142 6.25 12Z" fill="#101010"/>
</svg>
