<svg width="24" height="24" viewBox="0 0 24 24" fill="none" xmlns="http://www.w3.org/2000/svg">
<path fill-rule="evenodd" clip-rule="evenodd" d="M23 15.22C23.4142 15.22 23.75 15.5558 23.75 15.97C23.75 20.2542 20.2842 23.72 16 23.72C15.7298 23.72 15.4805 23.5746 15.3474 23.3395C15.2142 23.1044 15.2179 22.8158 15.3569 22.5841L16.4069 20.8341C16.62 20.4789 17.0807 20.3637 17.4359 20.5769C17.7911 20.79 17.9062 21.2507 17.6931 21.6058L17.4218 22.058C20.1909 21.4156 22.25 18.9365 22.25 15.97C22.25 15.5558 22.5858 15.22 23 15.22Z" fill="#101010"/>
<path fill-rule="evenodd" clip-rule="evenodd" d="M6.5782 1.88191C3.8091 2.52434 1.75 5.00339 1.75 7.96997C1.75 8.38418 1.41421 8.71997 1 8.71997C0.585786 8.71997 0.25 8.38418 0.25 7.96997C0.25 3.68576 3.71579 0.219971 8 0.219971C8.2702 0.219971 8.51952 0.365315 8.65265 0.600446C8.78578 0.835578 8.78214 1.12414 8.64312 1.35584L7.59312 3.10584C7.38001 3.46103 6.91931 3.5762 6.56413 3.36309C6.20894 3.14998 6.09377 2.68928 6.30688 2.3341L6.5782 1.88191Z" fill="#101010"/>
<path fill-rule="evenodd" clip-rule="evenodd" d="M5.86914 13.0699C5.86914 12.6557 6.20493 12.3199 6.61914 12.3199H9.42914C10.4844 12.3199 11.3091 13.2371 11.3091 14.2C11.3091 15.2298 10.4777 16.08 9.42914 16.08H6.61914C6.20493 16.08 5.86914 15.7442 5.86914 15.33V13.0699ZM7.36914 13.8199V14.58H9.42914C9.64061 14.58 9.80914 14.4101 9.80914 14.2C9.80914 14.0228 9.61385 13.8199 9.42914 13.8199H7.36914Z" fill="#101010"/>
<path fill-rule="evenodd" clip-rule="evenodd" d="M5.86914 15.33C5.86914 14.9157 6.20493 14.58 6.61914 14.58H9.83914C10.8633 14.58 11.8791 15.3223 11.8791 16.46C11.8791 17.5836 10.8679 18.34 9.83914 18.34H6.61914C6.20493 18.34 5.86914 18.0042 5.86914 17.59V15.33ZM7.36914 16.08V16.84H9.83914C10.0155 16.84 10.1614 16.7764 10.2559 16.6936C10.3494 16.6115 10.3791 16.5261 10.3791 16.46C10.3791 16.3866 10.3477 16.3026 10.2576 16.2241C10.1652 16.1436 10.0195 16.08 9.83914 16.08H7.36914Z" fill="#101010"/>
<path fill-rule="evenodd" clip-rule="evenodd" d="M8.41992 16.83C8.83414 16.83 9.16992 17.1657 9.16992 17.58V18.7C9.16992 19.1142 8.83414 19.45 8.41992 19.45C8.00571 19.45 7.66992 19.1142 7.66992 18.7V17.58C7.66992 17.1657 8.00571 16.83 8.41992 16.83Z" fill="#101010"/>
<path fill-rule="evenodd" clip-rule="evenodd" d="M8.41992 11.2C8.83414 11.2 9.16992 11.5357 9.16992 11.95V13.0699C9.16992 13.4842 8.83414 13.8199 8.41992 13.8199C8.00571 13.8199 7.66992 13.4842 7.66992 13.0699V11.95C7.66992 11.5357 8.00571 11.2 8.41992 11.2Z" fill="#101010"/>
<path fill-rule="evenodd" clip-rule="evenodd" d="M8.67977 9.90991C5.68399 9.90991 3.25977 12.3342 3.25977 15.33C3.25977 18.3257 5.68398 20.7499 8.67977 20.7499C11.6756 20.7499 14.0998 18.3257 14.0998 15.33C14.0998 15.2586 14.0977 15.1898 14.0952 15.1116L14.0948 15.1007C14.0928 15.0373 14.0904 14.965 14.0899 14.8907C13.8762 12.2443 11.7582 10.1323 9.10913 9.92825C9.0944 9.92738 9.08004 9.92653 9.06602 9.9257C8.91281 9.91661 8.79986 9.90991 8.67977 9.90991ZM1.75977 15.33C1.75977 11.5057 4.85555 8.40991 8.67977 8.40991C8.84716 8.40991 9.00554 8.41938 9.15207 8.42815C9.16948 8.42919 9.18673 8.43022 9.20381 8.43123L9.21654 8.43197L9.21653 8.43208C12.616 8.69013 15.3296 11.4037 15.5876 14.8032C15.589 14.822 15.5898 14.841 15.5898 14.8599C15.5898 14.9203 15.5918 14.9824 15.5944 15.0625L15.5944 15.0633C15.5969 15.1401 15.5998 15.2313 15.5998 15.33C15.5998 19.1542 12.504 22.2499 8.67977 22.2499C4.85556 22.2499 1.75977 19.1542 1.75977 15.33Z" fill="#101010"/>
<path fill-rule="evenodd" clip-rule="evenodd" d="M9.91275 8.50048C12.7522 9.00849 14.9917 11.248 15.4996 14.0874C18.4168 13.998 20.7502 11.6091 20.7502 8.66998C20.7502 5.6742 18.3259 3.25 15.3302 3.25C12.3911 3.25 10.0021 5.58329 9.91275 8.50048ZM8.41016 8.66998C8.41016 4.84577 11.5059 1.75 15.3302 1.75C19.1544 1.75 22.2502 4.84577 22.2502 8.66998C22.2502 12.4942 19.1544 15.59 15.3302 15.59H14.8402C14.448 15.59 14.122 15.2879 14.0923 14.8968C13.8904 12.2362 11.7639 10.1098 9.10339 9.90782C8.71232 9.87814 8.41016 9.55217 8.41016 9.15997V8.66998Z" fill="#101010"/>
</svg>
