<svg width="24" height="22" viewBox="0 0 24 22" fill="none" xmlns="http://www.w3.org/2000/svg">
<path fill-rule="evenodd" clip-rule="evenodd" d="M2.72892 7.92993C2.92821 7.92965 3.11942 8.00868 3.26033 8.1496L5.00033 9.88959C5.29322 10.1825 5.29322 10.6574 5.00033 10.9503C4.70744 11.2431 4.23257 11.2431 3.93967 10.9503L2.73153 9.74212L1.53185 10.9487C1.23981 11.2425 0.764933 11.2438 0.471198 10.9518C0.177463 10.6597 0.176097 10.1849 0.468146 9.89112L2.19815 8.15113C2.33866 8.00981 2.52964 7.93022 2.72892 7.92993Z" fill="#101010"/>
<path fill-rule="evenodd" clip-rule="evenodd" d="M18.999 11.0497C19.2919 10.7569 19.7667 10.7569 20.0596 11.0497L21.2693 12.2594L22.479 11.0497C22.7719 10.7569 23.2467 10.7569 23.5396 11.0498C23.8325 11.3426 23.8325 11.8175 23.5396 12.1104L21.7996 13.8504C21.5067 14.1433 21.0319 14.1433 20.739 13.8504L18.999 12.1104C18.7061 11.8175 18.7061 11.3426 18.999 11.0497Z" fill="#101010"/>
<path fill-rule="evenodd" clip-rule="evenodd" d="M4.18553 4.73948C6.02087 2.4615 8.84165 0.98999 11.9996 0.98999C17.5232 0.98999 22.0096 5.46526 22.0096 11V13.32C22.0096 13.7342 21.6738 14.07 21.2596 14.07C20.8454 14.07 20.5096 13.7342 20.5096 13.32V11C20.5096 6.29474 16.6959 2.48999 11.9996 2.48999C9.31747 2.48999 6.91825 3.73854 5.35359 5.68057C5.09371 6.00312 4.62156 6.05392 4.29901 5.79405C3.97646 5.53418 3.92566 5.06203 4.18553 4.73948Z" fill="#101010"/>
<path fill-rule="evenodd" clip-rule="evenodd" d="M2.74023 7.92993C3.15445 7.92993 3.49023 8.26572 3.49023 8.67993V10.9999C3.49023 15.7052 7.30392 19.5099 12.0002 19.5099C14.6823 19.5099 17.0815 18.2614 18.6462 16.3194C18.9061 15.9968 19.3782 15.946 19.7008 16.2059C20.0233 16.4658 20.0741 16.9379 19.8143 17.2605C17.9789 19.5384 15.1581 21.0099 12.0002 21.0099C6.47655 21.0099 1.99023 16.5347 1.99023 10.9999V8.67993C1.99023 8.26572 2.32602 7.92993 2.74023 7.92993Z" fill="#101010"/>
<path fill-rule="evenodd" clip-rule="evenodd" d="M8.25 7.5C8.25 7.08579 8.58579 6.75 9 6.75H13.38C14.7913 6.75 15.88 7.99345 15.88 9.25C15.88 10.6342 14.7642 11.75 13.38 11.75H9C8.58579 11.75 8.25 11.4142 8.25 11V7.5ZM9.75 8.25V10.25H13.38C13.9358 10.25 14.38 9.80579 14.38 9.25C14.38 8.76655 13.9086 8.25 13.38 8.25H9.75Z" fill="#101010"/>
<path fill-rule="evenodd" clip-rule="evenodd" d="M8.25 11C8.25 10.5858 8.58579 10.25 9 10.25H14C15.4148 10.25 16.75 11.2729 16.75 12.75C16.75 14.2271 15.4148 15.25 14 15.25H9C8.58579 15.25 8.25 14.9142 8.25 14.5V11ZM9.75 11.75V13.75H14C14.7852 13.75 15.25 13.2129 15.25 12.75C15.25 12.2871 14.7852 11.75 14 11.75H9.75Z" fill="#101010"/>
<path fill-rule="evenodd" clip-rule="evenodd" d="M11.8008 13.75C12.215 13.75 12.5508 14.0858 12.5508 14.5V16.25C12.5508 16.6642 12.215 17 11.8008 17C11.3866 17 11.0508 16.6642 11.0508 16.25V14.5C11.0508 14.0858 11.3866 13.75 11.8008 13.75Z" fill="#101010"/>
<path fill-rule="evenodd" clip-rule="evenodd" d="M11.8008 5C12.215 5 12.5508 5.33579 12.5508 5.75V7.5C12.5508 7.91421 12.215 8.25 11.8008 8.25C11.3866 8.25 11.0508 7.91421 11.0508 7.5V5.75C11.0508 5.33579 11.3866 5 11.8008 5Z" fill="#101010"/>
</svg>
