<svg width="22" height="14" viewBox="0 0 22 14" fill="none" xmlns="http://www.w3.org/2000/svg">
<path fill-rule="evenodd" clip-rule="evenodd" d="M12.0935 2.61348C13.1091 3.79071 13.7197 5.32885 13.7197 7C13.7197 8.67115 13.1091 10.2093 12.0935 11.3865C12.918 11.9337 13.9048 12.25 14.9697 12.25C17.8655 12.25 20.2197 9.89579 20.2197 7C20.2197 4.10421 17.8655 1.75 14.9697 1.75C13.9048 1.75 12.918 2.06633 12.0935 2.61348ZM10.4663 1.9841C11.6593 0.903631 13.2371 0.25 14.9697 0.25C18.6939 0.25 21.7197 3.27579 21.7197 7C21.7197 10.7242 18.6939 13.75 14.9697 13.75C13.2371 13.75 11.6593 13.0964 10.4663 12.0159C10.3082 11.8728 10.2186 11.6692 10.2197 11.4559C10.2209 11.2427 10.3127 11.0401 10.4723 10.8987C11.5466 9.94671 12.2197 8.54894 12.2197 7C12.2197 5.45106 11.5466 4.05329 10.4723 3.10131C10.3127 2.9599 10.2209 2.75726 10.2197 2.54405C10.2186 2.33084 10.3082 2.12722 10.4663 1.9841Z" fill="#101010"/>
<path fill-rule="evenodd" clip-rule="evenodd" d="M6.96973 1.75C4.07394 1.75 1.71973 4.10421 1.71973 7C1.71973 9.89579 4.07394 12.25 6.96973 12.25C8.31711 12.25 9.53928 11.7436 10.4663 10.9041L10.4723 10.8987L10.4723 10.8987C11.5466 9.94671 12.2197 8.54894 12.2197 7C12.2197 5.45106 11.5466 4.05329 10.4723 3.10131L10.4662 3.09594L10.4663 3.0959C9.53928 2.25637 8.31711 1.75 6.96973 1.75ZM0.219727 7C0.219727 3.27579 3.24551 0.25 6.96973 0.25C8.7009 0.25 10.2776 0.902547 11.4702 1.98141C12.8542 3.20937 13.7197 5.01041 13.7197 7C13.7197 8.98958 12.8542 10.7906 11.4702 12.0186C10.2776 13.0974 8.70091 13.75 6.96973 13.75C3.24551 13.75 0.219727 10.7242 0.219727 7Z" fill="#101010"/>
</svg>
