<svg width="22" height="22" viewBox="0 0 22 22" fill="none" xmlns="http://www.w3.org/2000/svg">
<path fill-rule="evenodd" clip-rule="evenodd" d="M8 1.75C4.54421 1.75 1.75 4.54421 1.75 8C1.75 11.169 4.1064 13.7848 7.16756 14.1864C7.17616 14.1875 7.18474 14.1888 7.1933 14.1902C7.44315 14.2318 7.71053 14.25 8 14.25C11.4558 14.25 14.25 11.4558 14.25 8C14.25 7.71054 14.2318 7.44315 14.1902 7.1933C14.1888 7.18474 14.1875 7.17616 14.1864 7.16756C13.7848 4.1064 11.169 1.75 8 1.75ZM0.25 8C0.25 3.71579 3.71579 0.25 8 0.25C11.9266 0.25 15.168 3.16707 15.6719 6.95971C15.7287 7.30558 15.75 7.6538 15.75 8C15.75 12.2842 12.2842 15.75 8 15.75C7.65381 15.75 7.30558 15.7287 6.9597 15.6719C3.16707 15.168 0.25 11.9266 0.25 8Z" fill="#101010"/>
<path fill-rule="evenodd" clip-rule="evenodd" d="M14.3909 6.54896C14.556 6.37805 14.7923 6.29548 15.0279 6.32639C18.8267 6.82478 21.7503 10.069 21.7503 14C21.7503 18.2842 18.2845 21.75 14.0003 21.75C10.0693 21.75 6.82508 18.8264 6.32669 15.0276C6.29578 14.792 6.37835 14.5557 6.54927 14.3906C6.72019 14.2255 6.95923 14.1512 7.19362 14.1902C7.44347 14.2319 7.71085 14.25 8.00032 14.25C11.4561 14.25 14.2503 11.4558 14.2503 8.00001C14.2503 7.71055 14.2322 7.44316 14.1905 7.19331C14.1515 6.95892 14.2258 6.71988 14.3909 6.54896ZM15.7503 8.00521C15.7475 12.2853 12.2856 15.7472 8.00551 15.75C8.75775 18.352 11.1562 20.25 14.0003 20.25C17.4561 20.25 20.2503 17.4558 20.2503 14C20.2503 11.1559 18.3523 8.75744 15.7503 8.00521Z" fill="#101010"/>
<path fill-rule="evenodd" clip-rule="evenodd" d="M12.616 12.5938C12.9066 12.2986 13.3815 12.295 13.6766 12.5856L14.9866 13.8756C15.2818 14.1662 15.2854 14.6411 14.9948 14.9362C14.7042 15.2314 14.2293 15.235 13.9342 14.9444L12.6242 13.6544C12.329 13.3638 12.3254 12.8889 12.616 12.5938Z" fill="#101010"/>
<path fill-rule="evenodd" clip-rule="evenodd" d="M14.4697 9.46967C14.7626 9.17678 15.2374 9.17678 15.5303 9.46967L16.5303 10.4697C16.8232 10.7626 16.8232 11.2374 16.5303 11.5303C16.2374 11.8232 15.7626 11.8232 15.4697 11.5303L14.4697 10.5303C14.1768 10.2374 14.1768 9.76256 14.4697 9.46967Z" fill="#101010"/>
<path fill-rule="evenodd" clip-rule="evenodd" d="M9.46967 14.4697C9.76256 14.1768 10.2374 14.1768 10.5303 14.4697L11.5303 15.4697C11.8232 15.7626 11.8232 16.2374 11.5303 16.5303C11.2374 16.8232 10.7626 16.8232 10.4697 16.5303L9.46967 15.5303C9.17678 15.2374 9.17678 14.7626 9.46967 14.4697Z" fill="#101010"/>
</svg>
