<svg width="18" height="22" viewBox="0 0 18 22" fill="none" xmlns="http://www.w3.org/2000/svg">
<path fill-rule="evenodd" clip-rule="evenodd" d="M9.1186 5.00222C9.69928 4.72433 10.2667 5.01776 10.61 5.30383L12.668 7.0222C12.6685 7.02262 12.669 7.02305 12.6696 7.02347C13.3049 7.55076 13.3362 8.48524 12.7137 9.04553L10.5767 11.005L12.7137 12.9644C13.3362 13.5247 13.3049 14.4592 12.6696 14.9865C12.6691 14.9869 12.6685 14.9874 12.668 14.9878L10.6105 16.7057L10.6089 16.7071C10.2656 16.992 9.70356 17.2761 9.12816 17.0068C8.55132 16.7368 8.40986 16.121 8.40986 15.67V12.9918L6.09672 15.1128C5.79142 15.3927 5.31699 15.3722 5.03705 15.0669C4.75712 14.7616 4.77768 14.2871 5.08298 14.0072L8.35721 11.005L5.08298 8.0028C4.77768 7.72286 4.75712 7.24844 5.03705 6.94313C5.31699 6.63783 5.79142 6.61727 6.09672 6.89721L8.40986 9.01816V6.33999C8.40986 5.89704 8.54385 5.27727 9.1186 5.00222ZM9.90986 12.4286L11.5698 13.9507L9.90986 15.3366V12.4286ZM9.90986 9.58133V6.67336L11.5698 8.05932L9.90986 9.58133Z" fill="#101010"/>
<path fill-rule="evenodd" clip-rule="evenodd" d="M2.90533 2.90533C2.18991 3.62075 1.75 4.67044 1.75 6V16C1.75 17.3296 2.18991 18.3793 2.90533 19.0947C3.62075 19.8101 4.67044 20.25 6 20.25H12C13.3296 20.25 14.3793 19.8101 15.0947 19.0947C15.8101 18.3793 16.25 17.3296 16.25 16V6C16.25 4.67044 15.8101 3.62075 15.0947 2.90533C14.3793 2.18991 13.3296 1.75 12 1.75H6C4.67044 1.75 3.62075 2.18991 2.90533 2.90533ZM1.84467 1.84467C2.87925 0.810085 4.32956 0.25 6 0.25H12C13.6704 0.25 15.1207 0.810085 16.1553 1.84467C17.1899 2.87925 17.75 4.32956 17.75 6V16C17.75 17.6704 17.1899 19.1207 16.1553 20.1553C15.1207 21.1899 13.6704 21.75 12 21.75H6C4.32956 21.75 2.87925 21.1899 1.84467 20.1553C0.810085 19.1207 0.25 17.6704 0.25 16V6C0.25 4.32956 0.810085 2.87925 1.84467 1.84467Z" fill="#101010"/>
</svg>
