<svg width="22" height="22" viewBox="0 0 22 22" fill="none" xmlns="http://www.w3.org/2000/svg">
<path fill-rule="evenodd" clip-rule="evenodd" d="M2.09467 2.09467C3.42914 0.760201 5.42603 0.25 8 0.25H14C16.574 0.25 18.5709 0.760201 19.9053 2.09467C21.2398 3.42914 21.75 5.42603 21.75 8V14C21.75 16.574 21.2398 18.5709 19.9053 19.9053C18.5709 21.2398 16.574 21.75 14 21.75H8C5.42603 21.75 3.42914 21.2398 2.09467 19.9053C0.760201 18.5709 0.25 16.574 0.25 14V8C0.25 5.42603 0.760201 3.42914 2.09467 2.09467ZM3.15533 3.15533C2.2398 4.07086 1.75 5.57397 1.75 8V14C1.75 16.426 2.2398 17.9291 3.15533 18.8447C4.07086 19.7602 5.57397 20.25 8 20.25H14C16.426 20.25 17.9291 19.7602 18.8447 18.8447C19.7602 17.9291 20.25 16.426 20.25 14V8C20.25 5.57397 19.7602 4.07086 18.8447 3.15533C17.9291 2.2398 16.426 1.75 14 1.75H8C5.57397 1.75 4.07086 2.2398 3.15533 3.15533Z" fill="#101010"/>
<path fill-rule="evenodd" clip-rule="evenodd" d="M3.87012 6.57004C3.87012 5.36926 4.86632 4.45818 6.05915 4.55235L6.06148 4.55253C7.5191 4.67219 9.66469 5.37961 10.8984 6.15455C10.8987 6.15469 10.8982 6.1544 10.8984 6.15455L10.9996 6.21778L11.0536 6.18338C12.2905 5.41306 14.4347 4.68273 15.8988 4.56254C15.9192 4.56087 15.9397 4.56003 15.9601 4.56003H15.9737C17.1481 4.48493 18.1301 5.37633 18.1301 6.58002V14.27C18.1301 15.2614 17.356 16.1545 16.3566 16.2739L16.1517 16.3031C14.8538 16.4805 12.8034 17.1484 11.6668 17.7787C11.4396 17.914 11.1891 17.955 10.9889 17.955C10.8045 17.955 10.5863 17.9203 10.3811 17.8201C10.3495 17.808 10.3188 17.7937 10.2891 17.7774C9.14853 17.151 7.09774 16.4713 5.81309 16.3037C5.8043 16.3026 5.79554 16.3013 5.7868 16.2998L5.62323 16.2726C4.63245 16.1473 3.87012 15.2414 3.87012 14.27V6.57004ZM5.9401 6.04762C5.61343 6.02233 5.37012 6.25115 5.37012 6.57004V14.27C5.37012 14.5116 5.59677 14.7598 5.81561 14.7849C5.82825 14.7864 5.84085 14.7881 5.8534 14.7902L6.02064 14.8181C7.47532 15.0105 9.65347 15.7306 10.956 16.4326C10.9647 16.4361 10.9734 16.4397 10.982 16.4435C12.2944 15.7266 14.4898 15.0168 15.9462 14.8173C15.947 14.8172 15.9478 14.817 15.9485 14.8169L16.1541 14.7876C16.1614 14.7865 16.1687 14.7856 16.176 14.7848C16.4106 14.7583 16.6301 14.5145 16.6301 14.27V6.58002C16.6301 6.25481 16.3903 6.03156 16.0591 6.0577C16.0395 6.05925 16.0198 6.06003 16.0001 6.06003H15.992C14.776 6.16768 12.8851 6.81096 11.8496 7.45479L11.7313 7.53011C11.4914 7.67671 11.2224 7.72255 11.0039 7.72255C10.7832 7.72255 10.5204 7.67581 10.2843 7.53912C10.277 7.53487 10.2697 7.5305 10.2625 7.526L10.1026 7.426L10.1011 7.42509C9.07511 6.78043 7.16226 6.14829 5.9401 6.04762Z" fill="#101010"/>
<path fill-rule="evenodd" clip-rule="evenodd" d="M11 6.3501C11.4142 6.3501 11.75 6.68588 11.75 7.1001V16.6601C11.75 17.0743 11.4142 17.4101 11 17.4101C10.5858 17.4101 10.25 17.0743 10.25 16.6601V7.1001C10.25 6.68588 10.5858 6.3501 11 6.3501Z" fill="#101010"/>
</svg>
