<svg width="22" height="22" viewBox="0 0 22 22" fill="none" xmlns="http://www.w3.org/2000/svg">
<path fill-rule="evenodd" clip-rule="evenodd" d="M3.09717 2.41737C2.34767 2.35439 1.75 2.90591 1.75 3.66V15.74C1.75 16.3276 2.25413 16.9034 2.83302 16.9758L2.84256 16.977L3.12938 17.0166C3.12992 17.0167 3.13047 17.0168 3.13102 17.0169C5.38798 17.3188 8.81526 18.4435 10.8171 19.5351L10.8446 19.5488M10.8731 19.5637C10.8735 19.5639 10.8832 19.5684 10.9039 19.5731C10.9285 19.5787 10.9596 19.5825 10.9937 19.5825C11.028 19.5825 11.0576 19.5787 11.0793 19.5737C11.0905 19.5711 11.0971 19.5687 11.0996 19.5678L11.1074 19.5633C13.1088 18.4584 16.5582 17.3189 18.8311 17.0166L18.8397 17.0154L19.167 16.9758C19.1674 16.9757 19.1678 16.9757 19.1681 16.9756C19.7465 16.9027 20.25 16.3273 20.25 15.74V3.67001C20.25 2.91316 19.6495 2.36379 18.8928 2.42738C18.8719 2.42914 18.851 2.43002 18.83 2.43002H18.8018C18.7846 2.43151 18.7673 2.43305 18.75 2.43465V7.00002C18.75 7.27647 18.5979 7.5305 18.3543 7.66108C18.1106 7.79166 17.8149 7.77762 17.5847 7.62454L16 6.57071L14.4153 7.62454C14.1851 7.77762 13.8894 7.79166 13.6457 7.66108C13.4021 7.5305 13.25 7.27647 13.25 7.00002V4.0662C12.8217 4.27014 12.4331 4.47865 12.101 4.68386L11.9256 4.79734C11.6339 4.97839 11.2953 5.045 11 5.045C10.7066 5.045 10.3705 4.97914 10.0802 4.80075L9.82306 4.64653C8.14346 3.59914 5.07864 2.57778 3.09946 2.41756L3.09717 2.41737M3.22163 0.922546C1.59165 0.786208 0.25 2.03446 0.25 3.66V15.74C0.25 17.0707 1.30316 18.2934 2.64185 18.4636L2.92747 18.503L2.93068 18.5034C5.00896 18.7812 8.27063 19.8521 10.1101 20.8581C10.1143 20.8603 10.1184 20.8626 10.1226 20.8647C10.1268 20.867 10.1311 20.8691 10.1354 20.8713L10.1631 20.8851C10.4305 21.0289 10.7306 21.0825 10.9937 21.0825C11.2587 21.0825 11.5663 21.028 11.8373 20.8739C13.6756 19.8603 16.9391 18.7824 19.0246 18.5041L19.3503 18.4645L19.353 18.4642C20.6942 18.2966 21.75 17.0724 21.75 15.74V3.67001C21.75 2.03821 20.4092 0.813282 18.8009 0.930017H18.77C18.7492 0.930017 18.7285 0.930881 18.7077 0.932608C18.4509 0.954012 18.1649 0.986774 17.8634 1.04259C17.5079 1.10843 17.25 1.41851 17.25 1.78005V5.60057L16.4153 5.04549C16.1637 4.87818 15.8363 4.87818 15.5847 5.04549L14.75 5.60057V2.92001C14.75 2.67088 14.6263 2.43801 14.4199 2.29854C14.2134 2.15908 13.9512 2.13122 13.7201 2.2242C12.8227 2.58522 11.9817 2.99356 11.3052 3.41231L11.2926 3.42033L11.1345 3.52258C11.1313 3.52408 11.1208 3.52869 11.1015 3.53349C11.0743 3.54028 11.0392 3.545 11 3.545C10.9608 3.545 10.9257 3.54028 10.8985 3.53349C10.8782 3.52843 10.8676 3.52359 10.865 3.52237L10.6112 3.37014C8.7302 2.19904 5.44023 1.10243 3.22163 0.922546Z" fill="#101010"/>
<path fill-rule="evenodd" clip-rule="evenodd" d="M11 3.73999C11.4142 3.73999 11.75 4.07578 11.75 4.48999V19.49C11.75 19.9042 11.4142 20.24 11 20.24C10.5858 20.24 10.25 19.9042 10.25 19.49V4.48999C10.25 4.07578 10.5858 3.73999 11 3.73999Z" fill="#101010"/>
<path fill-rule="evenodd" clip-rule="evenodd" d="M18.4859 1.20873C18.6535 1.35123 18.75 1.56009 18.75 1.78003V7.00001C18.75 7.27645 18.5979 7.53048 18.3543 7.66106C18.1106 7.79164 17.8149 7.7776 17.5847 7.62452L16 6.57069L14.4153 7.62452C14.1851 7.7776 13.8894 7.79164 13.6457 7.66106C13.4021 7.53048 13.25 7.27645 13.25 7.00001V2.91999C13.25 2.61259 13.4376 2.33631 13.7233 2.2229C15.0752 1.68627 16.5878 1.24982 17.8796 1.03976C18.0967 1.00446 18.3184 1.06623 18.4859 1.20873ZM14.75 3.43617V5.60055L15.5847 5.04547C15.8363 4.87816 16.1637 4.87816 16.4153 5.04547L17.25 5.60055V2.69085C16.4446 2.87307 15.5784 3.13138 14.75 3.43617Z" fill="#101010"/>
</svg>
