<svg width="22" height="22" viewBox="0 0 22 22" fill="none" xmlns="http://www.w3.org/2000/svg">
<path fill-rule="evenodd" clip-rule="evenodd" d="M7.28296 2.28519C6.97158 2.59968 6.75 3.13374 6.75 4.03V11.08C6.75 11.9163 7.03962 12.2861 7.2813 12.4183C7.52921 12.554 8.01657 12.5999 8.75247 12.1579C8.75284 12.1577 8.75321 12.1574 8.75358 12.1572L10.0741 11.3569C10.366 11.1818 10.7019 11.115 11 11.115C11.2981 11.115 11.634 11.1818 11.9259 11.3569L11.9287 11.3586L13.2464 12.1572C13.2468 12.1574 13.2472 12.1577 13.2475 12.1579C13.9834 12.5999 14.4708 12.554 14.7187 12.4183C14.9604 12.2861 15.25 11.9163 15.25 11.08V4.03C15.25 3.13374 15.0284 2.59968 14.717 2.28519C14.407 1.97207 13.8825 1.75 13 1.75H9C8.11751 1.75 7.59298 1.97207 7.28296 2.28519ZM6.21704 1.22982C6.90702 0.532933 7.88249 0.25 9 0.25H13C14.1175 0.25 15.093 0.532933 15.783 1.22982C16.4716 1.92532 16.75 2.90626 16.75 4.03V11.08C16.75 12.2337 16.3346 13.2439 15.4388 13.7342C14.5493 14.2209 13.4671 14.04 12.4736 13.4428L12.4713 13.4414L11.1541 12.6431C11.1542 12.6431 11.1543 12.6432 11.1541 12.6431C11.1532 12.6426 11.1494 12.6405 11.1426 12.6378C11.1345 12.6346 11.1231 12.6308 11.1085 12.6272C11.0784 12.6199 11.041 12.615 11 12.615C10.959 12.615 10.9216 12.6199 10.8915 12.6272C10.8769 12.6308 10.8655 12.6346 10.8574 12.6378C10.8506 12.6405 10.847 12.6425 10.8461 12.643C10.8459 12.6431 10.8461 12.643 10.8461 12.643L9.52873 13.4414L9.52642 13.4428C8.53295 14.04 7.45066 14.2209 6.5612 13.7342C5.66538 13.2439 5.25 12.2337 5.25 11.08V4.03C5.25 2.90626 5.52842 1.92532 6.21704 1.22982Z" fill="#101010"/>
<path fill-rule="evenodd" clip-rule="evenodd" d="M15.258 3.85106C15.3182 3.44124 15.6992 3.15782 16.109 3.21802C18.0135 3.49777 19.4774 4.22748 20.4379 5.57307C21.3778 6.88969 21.75 8.68005 21.75 10.9001V13.9301C21.75 16.5275 21.2405 18.5407 19.908 19.8865C18.5736 21.2342 16.5756 21.7501 14 21.7501H8C5.42443 21.7501 3.42637 21.2342 2.09204 19.8865C0.759534 18.5407 0.25 16.5275 0.25 13.9301V10.9001C0.25 8.71588 0.609553 6.95082 1.51436 5.64226C2.43981 4.30384 3.85327 3.5584 5.69635 3.25032C6.10489 3.18203 6.49145 3.45786 6.55974 3.86641C6.62803 4.27495 6.3522 4.66151 5.94365 4.7298C4.37673 4.99172 3.38019 5.58128 2.74814 6.49536C2.09545 7.4393 1.75 8.84424 1.75 10.9001V13.9301C1.75 16.3827 2.24047 17.9045 3.15796 18.8311C4.07363 19.756 5.57557 20.2501 8 20.2501H14C16.4244 20.2501 17.9264 19.756 18.842 18.8311C19.7595 17.9045 20.25 16.3827 20.25 13.9301V10.9001C20.25 8.81007 19.8922 7.39043 19.2171 6.44455C18.5626 5.52764 17.5265 4.94235 15.891 4.7021C15.4812 4.6419 15.1978 4.26088 15.258 3.85106Z" fill="#101010"/>
</svg>
