<svg width="23" height="22" viewBox="0 0 23 22" fill="none" xmlns="http://www.w3.org/2000/svg">
<path fill-rule="evenodd" clip-rule="evenodd" d="M1.52189 6.06428C1.72936 5.70577 2.18818 5.58334 2.54668 5.79081L11.0008 10.6833L19.3951 5.82093C19.7535 5.61331 20.2124 5.73556 20.42 6.09399C20.6276 6.45241 20.5053 6.91128 20.1469 7.1189L11.3769 12.1989C11.1445 12.3335 10.8578 12.3336 10.6253 12.1991L1.79536 7.08908C1.43685 6.88161 1.31441 6.42279 1.52189 6.06428Z" fill="#101010"/>
<path fill-rule="evenodd" clip-rule="evenodd" d="M11.001 10.7899C11.4152 10.7899 11.751 11.1257 11.751 11.5399V20.6099C11.751 21.0241 11.4152 21.3599 11.001 21.3599C10.5868 21.3599 10.251 21.0241 10.251 20.6099V11.5399C10.251 11.1257 10.5868 10.7899 11.001 10.7899Z" fill="#101010"/>
<path fill-rule="evenodd" clip-rule="evenodd" d="M11.0006 1.75C10.3434 1.75 9.72807 1.89241 9.29775 2.13399L9.29422 2.13597L3.95422 5.09599C3.49425 5.35067 3.03195 5.82777 2.68292 6.4197C2.33385 7.0117 2.14062 7.64606 2.14062 8.17V13.83C2.14062 14.354 2.33385 14.9883 2.68292 15.5803C3.03195 16.1723 3.49396 16.6492 3.95392 16.9039L9.29776 19.866C9.72807 20.1076 10.3434 20.25 11.0006 20.25C11.6578 20.25 12.2731 20.1076 12.7035 19.8661L12.7082 19.8634L13.8228 19.2483C13.4554 18.5773 13.2506 17.807 13.2506 17C13.2506 15.5059 13.9392 14.1621 15.0334 13.2933C15.8493 12.6431 16.8823 12.25 18.0006 12.25C18.6631 12.25 19.2906 12.3838 19.8606 12.6284V8.17C19.8606 7.64606 19.6674 7.0117 19.3183 6.4197C18.9693 5.82777 18.5073 5.35084 18.0473 5.09615L12.7035 2.134C12.2731 1.89242 11.6578 1.75 11.0006 1.75ZM13.4359 0.824978C12.7266 0.427287 11.8427 0.25 11.0006 0.25C10.1585 0.25 9.27466 0.427287 8.56529 0.824978L3.2273 3.78389C2.47738 4.19922 1.83921 4.89736 1.39081 5.65782C0.942393 6.41831 0.640625 7.31395 0.640625 8.17V13.83C0.640625 14.6861 0.942393 15.5817 1.39081 16.3422C1.83921 17.1027 2.47709 17.8007 3.227 18.216C3.2269 18.2159 3.2271 18.216 3.227 18.216L8.56345 21.174C8.56405 21.1744 8.56466 21.1747 8.56526 21.175C9.27464 21.5727 10.1585 21.75 11.0006 21.75C11.8424 21.75 12.7261 21.5728 13.4354 21.1754C13.4362 21.1749 13.437 21.1745 13.4378 21.174L15.263 20.1667C15.4605 20.0576 15.5985 19.8655 15.6386 19.6435C15.6788 19.4215 15.6169 19.1932 15.47 19.0219C15.3742 18.9101 15.295 18.8002 15.2343 18.6923C15.2294 18.6836 15.2242 18.6749 15.219 18.6663C14.9211 18.1833 14.7506 17.6094 14.7506 17C14.7506 15.9746 15.2216 15.0588 15.9668 14.4675L15.9681 14.4665C16.5322 14.0169 17.2391 13.75 18.0006 13.75C18.8144 13.75 19.5406 14.0411 20.1079 14.5354C20.3095 14.7111 20.5893 14.7661 20.8424 14.6799C21.0955 14.5937 21.2836 14.3793 21.3361 14.1171C21.3609 13.9927 21.3607 13.8886 21.3606 13.8385C21.3606 13.8355 21.3606 13.8326 21.3606 13.83V8.17C21.3606 7.31395 21.0588 6.41831 20.6104 5.65782C20.162 4.89736 19.5241 4.19939 18.7742 3.78406C18.7743 3.78411 18.7741 3.784 18.7742 3.78406L13.4378 0.826012C13.4372 0.825667 13.4365 0.825323 13.4359 0.824978Z" fill="#101010"/>
<path fill-rule="evenodd" clip-rule="evenodd" d="M18.001 13.75C17.2394 13.75 16.5325 14.0169 15.9685 14.4665L15.9672 14.4675L15.9672 14.4675C15.222 15.0588 14.751 15.9745 14.751 17C14.751 18.7958 16.2052 20.25 18.001 20.25C18.8176 20.25 19.5646 19.9439 20.1467 19.4359C20.8226 18.841 21.251 17.973 21.251 17C21.251 15.2042 19.7968 13.75 18.001 13.75ZM15.0341 13.293C15.85 12.6429 16.8828 12.25 18.001 12.25C20.6252 12.25 22.751 14.3758 22.751 17C22.751 18.4265 22.1198 19.6981 21.1363 20.5632L21.1343 20.5649L21.1343 20.5649C20.2965 21.2965 19.2038 21.75 18.001 21.75C15.3768 21.75 13.251 19.6242 13.251 17C13.251 15.5058 13.9397 14.1617 15.0341 13.293Z" fill="#101010"/>
<path fill-rule="evenodd" clip-rule="evenodd" d="M18.2511 15C18.6653 15 19.0011 15.3358 19.0011 15.75V17.25C19.0011 17.5134 18.8629 17.7576 18.637 17.8931L17.387 18.6431C17.0318 18.8562 16.5711 18.7411 16.358 18.3859C16.1449 18.0307 16.26 17.57 16.6152 17.3569L17.5011 16.8254V15.75C17.5011 15.3358 17.8369 15 18.2511 15Z" fill="#101010"/>
</svg>
