<svg width="21" height="22" viewBox="0 0 21 22" fill="none" xmlns="http://www.w3.org/2000/svg">
<path fill-rule="evenodd" clip-rule="evenodd" d="M0.521886 6.06428C0.729358 5.70577 1.18818 5.58334 1.54668 5.79081L10.0008 10.6833L18.3951 5.82093C18.7535 5.61331 19.2124 5.73556 19.42 6.09399C19.6276 6.45241 19.5053 6.91128 19.1469 7.1189L10.3769 12.1989C10.1445 12.3335 9.85783 12.3336 9.62535 12.1991L0.795362 7.08908C0.436854 6.88161 0.314414 6.42279 0.521886 6.06428Z" fill="#101010"/>
<path fill-rule="evenodd" clip-rule="evenodd" d="M10.001 10.7899C10.4152 10.7899 10.751 11.1257 10.751 11.5399V20.6099C10.751 21.0241 10.4152 21.3599 10.001 21.3599C9.58676 21.3599 9.25098 21.0241 9.25098 20.6099V11.5399C9.25098 11.1257 9.58676 10.7899 10.001 10.7899Z" fill="#101010"/>
<path fill-rule="evenodd" clip-rule="evenodd" d="M12.4453 0.824651C12.4454 0.824682 12.4453 0.82462 12.4453 0.824651L17.7839 3.7939C17.7841 3.79397 17.7838 3.79383 17.7839 3.7939C18.5338 4.20924 19.172 4.9074 19.6204 5.66783C20.0688 6.42832 20.3706 7.32396 20.3706 8.18001V13.83C20.3706 14.6861 20.0688 15.5817 19.6204 16.3422C19.1721 17.1025 18.5344 17.8004 17.7846 18.2158C17.7844 18.2159 17.7849 18.2156 17.7846 18.2158L12.4451 21.1855L12.4434 21.1865C11.7342 21.5784 10.8485 21.7525 10.0056 21.7525C9.1627 21.7525 8.27697 21.5784 7.56784 21.1865L7.56605 21.1855L2.2273 18.2161M12.4453 0.824651C11.732 0.427735 10.846 0.25 10.0019 0.25C9.15847 0.25 8.27436 0.427322 7.56483 0.825236C7.56437 0.825495 7.56391 0.825753 7.56345 0.826012L2.2273 3.7939C2.22752 3.79378 2.22707 3.79403 2.2273 3.7939M10.0019 1.75C9.34328 1.75 8.728 1.89245 8.29775 2.13399L8.29515 2.13545L2.95392 5.10616C2.49396 5.36085 2.03195 5.83778 1.68292 6.42971C1.33385 7.02171 1.14062 7.65607 1.14062 8.18001V13.83C1.14062 14.354 1.33385 14.9883 1.68292 15.5803C2.03195 16.1723 2.49396 16.6492 2.95392 16.9039L2.95516 16.9046L8.29337 19.8736C8.29372 19.8738 8.29407 19.874 8.29442 19.8742C8.72524 20.112 9.34404 20.2525 10.0056 20.2525C10.6673 20.2525 11.2861 20.1119 11.717 19.8741C11.7173 19.8739 11.7167 19.8743 11.717 19.8741L17.0573 16.9039C17.5173 16.6492 17.9793 16.1723 18.3283 15.5803C18.6774 14.9883 18.8706 14.354 18.8706 13.83V8.18001C18.8706 7.65607 18.6774 7.02171 18.3283 6.42971C17.9793 5.83778 17.5173 5.36085 17.0573 5.10616L11.7161 2.13544C11.2794 1.89243 10.6601 1.75 10.0019 1.75Z" fill="#101010"/>
<path fill-rule="evenodd" clip-rule="evenodd" d="M4.86138 2.72493C5.06851 2.36622 5.52722 2.24335 5.88592 2.45049L15.3759 7.93053C15.6079 8.06451 15.7509 8.31209 15.7509 8.58002V12.24C15.7509 12.6542 15.4151 12.99 15.0009 12.99C14.5866 12.99 14.2509 12.6542 14.2509 12.24V9.01299L5.13582 3.74947C4.77711 3.54233 4.65424 3.08363 4.86138 2.72493Z" fill="#101010"/>
</svg>
