<svg width="23" height="22" viewBox="0 0 23 22" fill="none" xmlns="http://www.w3.org/2000/svg">
<path fill-rule="evenodd" clip-rule="evenodd" d="M18.001 13.75C17.2394 13.75 16.5325 14.0169 15.9685 14.4665L15.9672 14.4675L15.9672 14.4675C15.222 15.0588 14.751 15.9745 14.751 17C14.751 17.6094 14.9215 18.1833 15.2194 18.6663C15.2246 18.6749 15.2297 18.6835 15.2347 18.6923C15.2954 18.8002 15.3746 18.9101 15.4704 19.0219C15.4739 19.026 15.4774 19.0302 15.4808 19.0344C15.489 19.0427 15.4997 19.0539 15.5106 19.0659C15.5244 19.0812 15.5416 19.1011 15.5601 19.1253C16.1428 19.8116 17.0187 20.25 18.001 20.25C18.8237 20.25 19.5655 19.9499 20.1293 19.4425C20.1357 19.4367 20.1423 19.431 20.149 19.4254C20.392 19.2216 20.6061 18.9684 20.7731 18.6821L20.7826 18.6663C21.0805 18.1833 21.251 17.6094 21.251 17C21.251 16.1507 20.9204 15.3784 20.3781 14.7868L20.376 14.7845L20.376 14.7845C20.2896 14.6895 20.2162 14.6189 20.151 14.57C20.1363 14.559 20.1221 14.5474 20.1082 14.5354C19.541 14.0411 18.8148 13.75 18.001 13.75ZM15.0341 13.293C15.85 12.6429 16.8828 12.25 18.001 12.25C19.1779 12.25 20.2442 12.6722 21.0741 13.3876C21.2382 13.5139 21.3765 13.6553 21.4849 13.7744C22.262 14.6227 22.751 15.7499 22.751 17C22.751 17.8874 22.5033 18.7306 22.0641 19.4459C21.8141 19.8725 21.4935 20.2534 21.123 20.5662C20.288 21.3134 19.1937 21.75 18.001 21.75C16.5512 21.75 15.2533 21.0956 14.3959 20.0715C14.3943 20.0696 14.3927 20.0676 14.3911 20.0657C14.3829 20.0573 14.3723 20.0462 14.3614 20.0341C14.3479 20.0193 14.3314 20.0001 14.3134 19.9768C14.1787 19.8176 14.0475 19.639 13.9349 19.4412C13.4976 18.7269 13.251 17.8855 13.251 17C13.251 15.5058 13.9397 14.1617 15.0341 13.293Z" fill="#101010"/>
<path fill-rule="evenodd" clip-rule="evenodd" d="M15.7607 16.98C15.7607 16.5658 16.0965 16.23 16.5107 16.23H19.4908C19.905 16.23 20.2408 16.5658 20.2408 16.98C20.2408 17.3942 19.905 17.73 19.4908 17.73H16.5107C16.0965 17.73 15.7607 17.3942 15.7607 16.98Z" fill="#101010"/>
<path fill-rule="evenodd" clip-rule="evenodd" d="M18.001 14.77C18.4152 14.77 18.751 15.1058 18.751 15.52V18.51C18.751 18.9242 18.4152 19.26 18.001 19.26C17.5868 19.26 17.251 18.9242 17.251 18.51V15.52C17.251 15.1058 17.5868 14.77 18.001 14.77Z" fill="#101010"/>
<path fill-rule="evenodd" clip-rule="evenodd" d="M1.52189 6.06428C1.72936 5.70577 2.18817 5.58334 2.54668 5.79081L11.0008 10.6833L19.3951 5.82093C19.7535 5.61331 20.2124 5.73556 20.42 6.09399C20.6276 6.45241 20.5054 6.91128 20.147 7.1189L11.3769 12.1989C11.1445 12.3335 10.8578 12.3336 10.6254 12.1991L1.79536 7.08908C1.43685 6.88161 1.31441 6.42279 1.52189 6.06428Z" fill="#101010"/>
<path fill-rule="evenodd" clip-rule="evenodd" d="M11.001 10.7899C11.4152 10.7899 11.751 11.1257 11.751 11.5399V20.6099C11.751 21.0241 11.4152 21.3599 11.001 21.3599C10.5868 21.3599 10.251 21.0241 10.251 20.6099V11.5399C10.251 11.1257 10.5868 10.7899 11.001 10.7899Z" fill="#101010"/>
<path fill-rule="evenodd" clip-rule="evenodd" d="M11.0006 1.75C10.3434 1.75 9.72809 1.89241 9.29777 2.13399L9.29423 2.13597L3.95423 5.09599C3.49427 5.35068 3.03196 5.82777 2.68292 6.41971C2.33385 7.01171 2.14062 7.64606 2.14062 8.17V13.83C2.14062 14.354 2.33385 14.9883 2.68292 15.5803C3.03196 16.1723 3.49397 16.6492 3.95393 16.9039L9.29778 19.866C9.72809 20.1076 10.3434 20.25 11.0006 20.25C11.6578 20.25 12.2732 20.1076 12.7035 19.8661L12.7082 19.8634L13.8228 19.2483C13.4554 18.5773 13.2506 17.807 13.2506 17C13.2506 15.5059 13.9392 14.1621 15.0334 13.2933C15.8493 12.6431 16.8823 12.25 18.0006 12.25C18.6631 12.25 19.2906 12.3838 19.8606 12.6284V8.17C19.8606 7.64606 19.6674 7.01171 19.3183 6.41971C18.9693 5.82777 18.5073 5.35084 18.0473 5.09615L12.7035 2.134C12.2732 1.89242 11.6578 1.75 11.0006 1.75ZM13.4359 0.824978C12.7266 0.427287 11.8427 0.25 11.0006 0.25C10.1586 0.25 9.27468 0.427287 8.56531 0.824978L3.22731 3.78389C2.4774 4.19922 1.83923 4.89736 1.39082 5.65782C0.942399 6.41831 0.640625 7.31395 0.640625 8.17V13.83C0.640625 14.6861 0.942399 15.5817 1.39082 16.3422C1.83923 17.1027 2.4771 17.8007 3.22701 18.216C3.22691 18.2159 3.22711 18.216 3.22701 18.216L8.56347 21.174C8.56407 21.1744 8.56467 21.1747 8.56528 21.175C9.27465 21.5727 10.1585 21.75 11.0006 21.75C11.8425 21.75 12.7261 21.5728 13.4354 21.1754C13.4362 21.1749 13.437 21.1745 13.4378 21.174L15.263 20.1667C15.4605 20.0576 15.5985 19.8655 15.6386 19.6435C15.6788 19.4215 15.6169 19.1932 15.4701 19.0219C15.3742 18.9101 15.295 18.8002 15.2343 18.6923C15.2294 18.6836 15.2243 18.6749 15.219 18.6663C14.9211 18.1833 14.7506 17.6094 14.7506 17C14.7506 15.9746 15.2216 15.0588 15.9668 14.4675L15.9681 14.4665C16.5322 14.0169 17.2391 13.75 18.0006 13.75C18.8145 13.75 19.5406 14.0411 20.1079 14.5354C20.3095 14.7111 20.5893 14.7661 20.8425 14.6799C21.0956 14.5937 21.2836 14.3793 21.3361 14.1171C21.3609 13.9927 21.3607 13.8887 21.3606 13.8384C21.3606 13.8354 21.3606 13.8326 21.3606 13.83V8.17C21.3606 7.31395 21.0589 6.41831 20.6104 5.65782C20.162 4.89736 19.5241 4.19939 18.7742 3.78406C18.7743 3.78411 18.7741 3.784 18.7742 3.78406L13.4378 0.826012C13.4372 0.825667 13.4366 0.825323 13.4359 0.824978Z" fill="#101010"/>
</svg>
