<svg width="23" height="22" viewBox="0 0 23 22" fill="none" xmlns="http://www.w3.org/2000/svg">
<path fill-rule="evenodd" clip-rule="evenodd" d="M1.52189 6.06428C1.72936 5.70577 2.18818 5.58334 2.54668 5.79081L11.0008 10.6833L19.3951 5.82093C19.7535 5.61331 20.2124 5.73556 20.42 6.09399C20.6276 6.45241 20.5053 6.91128 20.1469 7.1189L11.3769 12.1989C11.1445 12.3335 10.8578 12.3336 10.6253 12.1991L1.79536 7.08908C1.43685 6.88161 1.31441 6.42279 1.52189 6.06428Z" fill="#101010"/>
<path fill-rule="evenodd" clip-rule="evenodd" d="M11.001 10.7899C11.4152 10.7899 11.751 11.1257 11.751 11.5399V20.6099C11.751 21.0241 11.4152 21.3599 11.001 21.3599C10.5868 21.3599 10.251 21.0241 10.251 20.6099V11.5399C10.251 11.1257 10.5868 10.7899 11.001 10.7899Z" fill="#101010"/>
<path fill-rule="evenodd" clip-rule="evenodd" d="M13.4359 0.824978C13.4365 0.825323 13.4372 0.825667 13.4378 0.826012L18.7739 3.78389C18.774 3.78395 18.7738 3.78384 18.7739 3.78389C19.5238 4.19922 20.162 4.89736 20.6104 5.65782C21.0588 6.41831 21.3606 7.31395 21.3606 8.17V11.83C21.3606 12.2442 21.0248 12.58 20.6106 12.58C20.1964 12.58 19.8606 12.2442 19.8606 11.83V8.17C19.8606 7.64606 19.6674 7.0117 19.3183 6.4197C18.9693 5.82777 18.5073 5.35084 18.0473 5.09615L12.7035 2.134C12.2731 1.89242 11.6578 1.75 11.0006 1.75C10.3434 1.75 9.72807 1.89241 9.29775 2.13399L9.29422 2.13597L3.95422 5.09599C3.49425 5.35067 3.03195 5.82777 2.68292 6.4197C2.33385 7.0117 2.14062 7.64606 2.14062 8.17V13.83C2.14062 14.354 2.33385 14.9883 2.68292 15.5803C3.03195 16.1723 3.49396 16.6492 3.95392 16.9039L9.29776 19.866C9.72806 20.1076 10.3434 20.25 11.0006 20.25C11.6578 20.25 12.2732 20.1076 12.7035 19.8661C13.0647 19.6633 13.5218 19.7917 13.7246 20.1529C13.9274 20.5141 13.799 20.9713 13.4378 21.174C12.7281 21.5725 11.8434 21.75 11.0006 21.75C10.1586 21.75 9.27465 21.5728 8.56526 21.175C8.56466 21.1747 8.56405 21.1744 8.56345 21.174L3.2273 18.2161C3.2272 18.2161 3.22739 18.2162 3.2273 18.2161C2.47738 17.8008 1.83921 17.1027 1.39081 16.3422C0.942393 15.5817 0.640625 14.6861 0.640625 13.83V8.17C0.640625 7.31395 0.942393 6.41831 1.39081 5.65782C1.83921 4.89736 2.47709 4.19939 3.227 3.78406L8.56529 0.824978C9.27466 0.427287 10.1585 0.25 11.0006 0.25C11.8427 0.25 12.7266 0.427287 13.4359 0.824978Z" fill="#101010"/>
<path fill-rule="evenodd" clip-rule="evenodd" d="M18.201 14.75C16.8479 14.75 15.751 15.8469 15.751 17.2C15.751 18.5531 16.8479 19.65 18.201 19.65C19.5541 19.65 20.651 18.5531 20.651 17.2C20.651 15.8469 19.5541 14.75 18.201 14.75ZM14.251 17.2C14.251 15.0185 16.0195 13.25 18.201 13.25C20.3825 13.25 22.151 15.0185 22.151 17.2C22.151 19.3815 20.3825 21.15 18.201 21.15C16.0195 21.15 14.251 19.3815 14.251 17.2Z" fill="#101010"/>
<path fill-rule="evenodd" clip-rule="evenodd" d="M20.4706 19.4697C20.7635 19.1768 21.2384 19.1768 21.5313 19.4697L22.5313 20.4697C22.8242 20.7626 22.8242 21.2374 22.5313 21.5303C22.2384 21.8232 21.7635 21.8232 21.4706 21.5303L20.4706 20.5303C20.1778 20.2374 20.1778 19.7626 20.4706 19.4697Z" fill="#101010"/>
</svg>
