<svg width="20" height="22" viewBox="0 0 20 22" fill="none" xmlns="http://www.w3.org/2000/svg">
<path fill-rule="evenodd" clip-rule="evenodd" d="M9.66413 0.32918C9.87527 0.223607 10.1238 0.223607 10.3349 0.32918L12.5549 1.43918C12.8661 1.59474 13.0294 1.94379 12.9495 2.28232C12.8696 2.62084 12.5674 2.86 12.2195 2.86H7.77954C7.4317 2.86 7.12952 2.62084 7.0496 2.28232C6.96969 1.94379 7.13302 1.59474 7.44413 1.43918L9.66413 0.32918ZM4.00036 3.99459C4.1856 4.36508 4.03543 4.81558 3.66495 5.00082L2.78659 5.44L3.66495 5.87918C4.03543 6.06442 4.1856 6.51493 4.00036 6.88541C3.81512 7.2559 3.36461 7.40607 2.99413 7.22082L1.85954 6.65353V8.22C1.85954 8.63421 1.52375 8.97 1.10954 8.97C0.695326 8.97 0.359539 8.63421 0.359539 8.22V5.45625C0.359426 5.45083 0.359371 5.44542 0.359375 5.44C0.359331 5.38263 0.365894 5.32481 0.379437 5.26765C0.400235 5.17921 0.436687 5.09681 0.485709 5.02352C0.513391 4.98195 0.544727 4.94388 0.579065 4.90953C0.613424 4.87518 0.651508 4.84383 0.693101 4.81615C0.723461 4.79584 0.755387 4.77769 0.788659 4.76192L2.99413 3.65918C3.36461 3.47394 3.81512 3.62411 4.00036 3.99459ZM0.780897 4.7658C0.706891 4.80181 0.638484 4.85009 0.579065 4.90953C0.511537 4.97704 0.458398 5.05615 0.42131 5.14189C0.426743 5.12938 0.432545 5.11694 0.438719 5.10459M15.9987 3.99459C16.184 3.62411 16.6345 3.47394 17.0049 3.65918L19.2104 4.76193C19.2357 4.77391 19.2602 4.78727 19.2839 4.8019C19.3322 4.83171 19.3774 4.86717 19.4184 4.9079C19.4605 4.94977 19.4971 4.99614 19.5277 5.04581C19.5696 5.11341 19.601 5.18814 19.6197 5.26776C19.6332 5.32488 19.6397 5.38267 19.6397 5.44C19.6397 5.44541 19.6397 5.45083 19.6395 5.45624V8.22C19.6395 8.63421 19.3038 8.97 18.8895 8.97C18.4753 8.97 18.1395 8.63421 18.1395 8.22V6.65353L17.0049 7.22082C16.6345 7.40607 16.184 7.2559 15.9987 6.88541C15.8135 6.51493 15.9636 6.06442 16.3341 5.87918L17.2125 5.44L16.3341 5.00082C15.9636 4.81558 15.8135 4.36508 15.9987 3.99459ZM7.10872 8.44459C7.29396 8.0741 7.74446 7.92394 8.11495 8.10918L9.99954 9.05147L11.8841 8.10918C12.2546 7.92394 12.7051 8.0741 12.8904 8.44459C13.0756 8.81507 12.9254 9.26558 12.5549 9.45082L10.7495 10.3535V12.67C10.7495 13.0842 10.4138 13.42 9.99954 13.42C9.58533 13.42 9.24954 13.0842 9.24954 12.67V10.3535L7.44413 9.45082C7.07364 9.26558 6.92348 8.81507 7.10872 8.44459ZM0.917239 13.0551C1.24602 12.9679 1.59233 13.1128 1.76093 13.4083L3.98093 17.2983C4.14471 17.5852 4.10138 17.9456 3.87424 18.1856C3.6471 18.4255 3.28967 18.4886 2.99413 18.3408L0.774129 17.2308C0.520041 17.1038 0.359539 16.8441 0.359539 16.56V13.78C0.359539 13.4398 0.588458 13.1423 0.917239 13.0551ZM18.1395 13.78C18.1395 13.3658 18.4753 13.03 18.8895 13.03C19.3038 13.03 19.6395 13.3658 19.6395 13.78V16.56C19.6395 16.8441 19.479 17.1038 19.2249 17.2308L17.0049 18.3408C16.6345 18.5261 16.184 18.3759 15.9987 18.0054C15.8135 17.6349 15.9636 17.1844 16.3341 16.9992L18.1395 16.0965V13.78ZM9.99954 17.47C10.4138 17.47 10.7495 17.8058 10.7495 18.22V19.7865L11.8841 19.2192C12.2546 19.0339 12.7051 19.1841 12.8904 19.5546C13.0756 19.9251 12.9254 20.3756 12.5549 20.5608L10.3484 21.6641C10.3337 21.6716 10.3128 21.6817 10.2976 21.6882C10.2564 21.7061 10.2143 21.7201 10.1718 21.7301C10.1147 21.7437 10.0569 21.7502 9.99954 21.7502C9.94219 21.7502 9.88439 21.7437 9.82726 21.7301C9.76504 21.7155 9.7058 21.6931 9.65063 21.6641L7.44413 20.5608C7.07364 20.3756 6.92348 19.9251 7.10872 19.5546C7.29396 19.1841 7.74446 19.0339 8.11495 19.2192L9.24954 19.7865V18.22C9.24954 17.8058 9.58533 17.47 9.99954 17.47Z" fill="#101010"/>
</svg>
