<svg width="21" height="22" viewBox="0 0 21 22" fill="none" xmlns="http://www.w3.org/2000/svg">
<path fill-rule="evenodd" clip-rule="evenodd" d="M0.521886 6.0644C0.729358 5.7059 1.18818 5.58346 1.54668 5.79093L10.0008 10.6834L18.3951 5.82108C18.7535 5.61346 19.2124 5.73572 19.42 6.09414C19.6276 6.45257 19.5054 6.91143 19.1469 7.11905L10.3769 12.1991C10.1445 12.3337 9.85784 12.3337 9.62536 12.1992L0.795362 7.0892C0.436853 6.88173 0.314414 6.42291 0.521886 6.0644Z" fill="#101010"/>
<path fill-rule="evenodd" clip-rule="evenodd" d="M10.001 10.79C10.4152 10.79 10.751 11.1258 10.751 11.54V20.61C10.751 21.0243 10.4152 21.36 10.001 21.36C9.58676 21.36 9.25098 21.0243 9.25098 20.61V11.54C9.25098 11.1258 9.58676 10.79 10.001 10.79Z" fill="#101010"/>
<path fill-rule="evenodd" clip-rule="evenodd" d="M10.0006 0.248788C10.8441 0.247384 11.7286 0.422009 12.441 0.812272L12.4452 0.814579L17.7839 3.78391C17.784 3.78395 17.7839 3.78387 17.7839 3.78391C18.5339 4.19923 19.172 4.89736 19.6204 5.65784C20.0689 6.41834 20.3706 7.31398 20.3706 8.17004V13.82C20.3706 14.6761 20.0689 15.5717 19.6204 16.3322C19.1722 17.0924 18.5346 17.7902 17.785 18.2056L17.4207 17.5503L17.7839 18.2062M2.22731 18.2062L2.59063 17.55L2.22608 18.2055L2.22731 18.2062C2.22753 18.2063 2.2271 18.206 2.22731 18.2062ZM10.0006 0.248788C9.15834 0.250189 8.27473 0.427309 7.56535 0.824997L10.0006 0.248788ZM10.0031 1.74879C9.34365 1.74988 8.72808 1.89245 8.29778 2.13402L8.29424 2.13601L2.95423 5.096C2.49427 5.35069 2.03196 5.82779 1.68293 6.41973C1.33385 7.01174 1.14062 7.64609 1.14062 8.17004V13.82C1.14062 14.344 1.33385 14.9783 1.68293 15.5703C2.03196 16.1623 2.49398 16.6392 2.95394 16.8939L2.95517 16.8946L8.29339 19.8636C8.29359 19.8637 8.29319 19.8635 8.29339 19.8636C8.72423 20.1015 9.34384 20.2425 10.0056 20.2425C10.6672 20.2425 11.286 20.1019 11.7168 19.8642C11.7172 19.864 11.7175 19.8638 11.7179 19.8636L17.0573 16.8939C17.5173 16.6392 17.9793 16.1623 18.3283 15.5703C18.6774 14.9783 18.8706 14.344 18.8706 13.82V8.17004C18.8706 7.64609 18.6774 7.01174 18.3283 6.41973C17.9793 5.82779 17.5173 5.35085 17.0573 5.09617L11.7203 2.1278C11.7196 2.12745 11.719 2.1271 11.7184 2.12675C11.2808 1.88765 10.6612 1.74769 10.0031 1.74879Z" fill="#101010"/>
</svg>
