<svg width="24" height="24" viewBox="0 0 24 24" fill="none" xmlns="http://www.w3.org/2000/svg">
<path fill-rule="evenodd" clip-rule="evenodd" d="M4.42669 14.7509C4.41248 14.7531 4.39821 14.7549 4.3839 14.7564C3.75032 14.8191 3.25 15.3629 3.25 16C3.25 16.3459 3.38693 16.6525 3.61302 16.8725L3.62754 16.887C3.84752 17.1131 4.15415 17.25 4.5 17.25H9.5C9.91421 17.25 10.25 17.5858 10.25 18V19.5C10.25 20.4658 11.0342 21.25 12 21.25C12.9658 21.25 13.75 20.4658 13.75 19.5V18C13.75 17.5858 14.0858 17.25 14.5 17.25H19.39C20.1133 17.25 20.6891 16.728 20.7426 16.118C20.7744 15.7168 20.6331 15.3676 20.3863 15.1268L20.3716 15.1121C20.1726 14.9069 19.9197 14.7817 19.6277 14.7574C19.6095 14.7559 19.5914 14.7537 19.5733 14.7509C19.5722 14.7508 19.5707 14.7507 19.5688 14.7507C19.5633 14.7504 19.5554 14.7502 19.5436 14.7501L19.5 14.75H4.5L4.45636 14.7501C4.44457 14.7502 4.43674 14.7504 4.43123 14.7507C4.42929 14.7507 4.42779 14.7508 4.42669 14.7509ZM4.4878 13.25C4.49214 13.25 4.49621 13.25 4.5 13.25H19.5C19.5038 13.25 19.5079 13.25 19.5122 13.25C19.568 13.2499 19.6684 13.2497 19.7784 13.2649C20.432 13.3256 21.0068 13.6158 21.4412 14.0605C22.0092 14.6189 22.3049 15.4059 22.2376 16.2403L22.2373 16.2441C22.1096 17.7331 20.7859 18.75 19.39 18.75H15.25V19.5C15.25 21.2942 13.7942 22.75 12 22.75C10.2058 22.75 8.75 21.2942 8.75 19.5V18.75H4.5C3.74945 18.75 3.05911 18.4498 2.55964 17.9404C2.05018 17.4409 1.75 16.7506 1.75 16C1.75 14.5843 2.83854 13.4129 4.21501 13.2658C4.3276 13.2497 4.43086 13.2499 4.4878 13.25Z" fill="#101010"/>
<path fill-rule="evenodd" clip-rule="evenodd" d="M6.81024 2.75C5.4834 2.75 4.44145 3.89712 4.5764 5.22412C4.57757 5.23563 4.57847 5.24717 4.57911 5.25873L5.0195 13.25H18.981L19.4214 5.25873C19.422 5.24717 19.4229 5.23563 19.4241 5.22412C19.559 3.89712 18.5171 2.75 17.1902 2.75H6.81024ZM3.08228 5.35767C2.86858 3.1524 4.60317 1.25 6.81024 1.25H17.1902C19.3973 1.25 21.1319 3.1524 20.9182 5.35767L20.4391 14.0513C20.4274 14.2642 20.3255 14.4621 20.1591 14.5954C19.9944 14.7273 19.7818 14.7837 19.5736 14.7509C19.5725 14.7508 19.571 14.7507 19.569 14.7507C19.5635 14.7504 19.5557 14.7502 19.5439 14.7501L19.5002 14.75H4.50024L4.45661 14.7501C4.44482 14.7502 4.43699 14.7504 4.43147 14.7507C4.42954 14.7507 4.42804 14.7508 4.42694 14.7509C4.21869 14.7837 4.00611 14.7273 3.8414 14.5954C3.67494 14.4621 3.57312 14.2642 3.56138 14.0513L3.08228 5.35767Z" fill="#101010"/>
<path fill-rule="evenodd" clip-rule="evenodd" d="M7.99023 1.25C8.40445 1.25 8.74023 1.58579 8.74023 2V7C8.74023 7.41421 8.40445 7.75 7.99023 7.75C7.57602 7.75 7.24023 7.41421 7.24023 7V2C7.24023 1.58579 7.57602 1.25 7.99023 1.25Z" fill="#101010"/>
<path fill-rule="evenodd" clip-rule="evenodd" d="M12 1.25C12.4142 1.25 12.75 1.58579 12.75 2V4C12.75 4.41421 12.4142 4.75 12 4.75C11.5858 4.75 11.25 4.41421 11.25 4V2C11.25 1.58579 11.5858 1.25 12 1.25Z" fill="#101010"/>
</svg>
