<svg width="24" height="24" viewBox="0 0 24 24" fill="none" xmlns="http://www.w3.org/2000/svg">
<path fill-rule="evenodd" clip-rule="evenodd" d="M3.0644 3.09467C4.39887 1.7602 6.39575 1.25 8.96973 1.25H10.9697C11.3839 1.25 11.7197 1.58579 11.7197 2C11.7197 2.41421 11.3839 2.75 10.9697 2.75H8.96973C6.5437 2.75 5.04059 3.2398 4.12506 4.15533C3.20953 5.07086 2.71973 6.57397 2.71973 9V15C2.71973 17.426 3.20953 18.9291 4.12506 19.8447C5.04059 20.7602 6.5437 21.25 8.96973 21.25H14.9697C17.3958 21.25 18.8989 20.7602 19.8144 19.8447C20.7299 18.9291 21.2197 17.426 21.2197 15V13C21.2197 12.5858 21.5555 12.25 21.9697 12.25C22.3839 12.25 22.7197 12.5858 22.7197 13V15C22.7197 17.574 22.2095 19.5709 20.8751 20.9053C19.5406 22.2398 17.5437 22.75 14.9697 22.75H8.96973C6.39575 22.75 4.39887 22.2398 3.0644 20.9053C1.72993 19.5709 1.21973 17.574 1.21973 15V9C1.21973 6.42603 1.72993 4.42914 3.0644 3.09467Z" fill="#101010"/>
<path fill-rule="evenodd" clip-rule="evenodd" d="M20.6833 2.77866C19.2335 3.36247 17.4809 4.40754 15.8263 5.63594C14.1695 6.86595 12.658 8.24489 11.6761 9.4685C11.6759 9.46878 11.6757 9.46907 11.6754 9.46935L10.7149 10.6739C11.3031 10.8645 11.8583 11.198 12.3383 11.6772C12.8088 12.1397 13.1349 12.6716 13.3235 13.2421L14.5111 12.295C14.5114 12.2948 14.5117 12.2946 14.5119 12.2943C15.7352 11.3127 17.1089 9.80412 18.3338 8.14887C19.5589 6.49334 20.6007 4.73759 21.1842 3.28107L21.1851 3.27891C21.2222 3.18726 21.2227 3.11182 21.2084 3.04989C21.1931 2.98373 21.1568 2.917 21.1001 2.86033C21.0046 2.76486 20.8549 2.71483 20.6833 2.77866ZM11.9967 14.1365C11.9283 13.6326 11.7047 13.1571 11.2851 12.7453L11.2801 12.7404L11.2801 12.7403C10.8532 12.3134 10.3539 12.0792 9.84616 12.0068C9.69322 11.9974 9.58677 11.9923 9.48722 11.9985C9.23519 12.0143 8.99216 11.9022 8.84058 11.7002C8.68901 11.4982 8.64924 11.2336 8.73477 10.996C8.84999 10.6759 9.02077 10.3653 9.25613 10.0972L10.5041 8.53238L10.5054 8.53065C11.5935 7.17447 13.2118 5.70876 14.9321 4.43156C16.6524 3.15441 18.5218 2.03085 20.1307 1.38411L20.1422 1.37951L20.1422 1.37961C20.9087 1.08606 21.6771 1.31599 22.1608 1.79967C22.6508 2.28965 22.8899 3.06276 22.5762 3.84001C21.9297 5.45324 20.8117 7.32204 19.5396 9.04113C18.2672 10.7605 16.8063 12.3766 15.4498 13.465L15.4481 13.4664L13.8681 14.7264C13.8622 14.731 13.8564 14.7355 13.8504 14.74C13.61 14.9203 13.351 15.0782 13.0437 15.1984C12.8129 15.2888 12.5524 15.2592 12.3476 15.1195C12.1429 14.9797 12.0204 14.7479 12.0204 14.5C12.0204 14.3853 12.0129 14.2676 11.9967 14.1365Z" fill="#101010"/>
<path fill-rule="evenodd" clip-rule="evenodd" d="M9.85592 11.9968C9.70298 11.9874 9.59653 11.9823 9.49698 11.9885C9.4862 11.9892 9.47541 11.9897 9.46462 11.9899C8.24123 12.0134 7.13119 12.8851 6.98589 14.2203C6.98586 14.2205 6.98591 14.22 6.98589 14.2203L6.77597 16.1895L6.77569 16.1921C6.70811 16.8059 7.22586 17.3109 7.81661 17.2447L7.8207 17.2442L9.78294 17.0351C10.4049 16.9548 10.908 16.6907 11.2778 16.3217C11.7682 15.8225 12.0302 15.1724 12.0302 14.49C12.0302 14.3843 12.0226 14.2567 12.0064 14.1265C11.9386 13.6267 11.717 13.1575 11.2899 12.7303C10.8629 12.3034 10.3637 12.0692 9.85592 11.9968ZM9.9615 10.5005C9.96672 10.5008 9.97188 10.5011 9.97698 10.5015C9.99424 10.5025 10.0115 10.5042 10.0286 10.5065C10.8726 10.6182 11.6842 11.0034 12.3505 11.6697C13.0024 12.3216 13.3808 13.0912 13.4935 13.9302L13.4944 13.937C13.518 14.1256 13.5302 14.3167 13.5302 14.49C13.5302 15.5666 13.1129 16.5957 12.3447 17.3761L12.3405 17.3803C11.7319 17.989 10.9181 18.4033 9.96438 18.5241L9.9497 18.5258L7.98156 18.7356C6.43373 18.9078 5.11316 17.5941 5.28455 16.0293C5.2846 16.0289 5.28465 16.0284 5.2847 16.0279L5.49458 14.059C5.72893 11.9005 7.52942 10.5341 9.42012 10.4905C9.62154 10.4792 9.81504 10.4913 9.9615 10.5005Z" fill="#101010"/>
<path fill-rule="evenodd" clip-rule="evenodd" d="M11.2803 8.19C11.2803 7.77579 11.6161 7.44 12.0303 7.44C14.5458 7.44 16.5703 9.47707 16.5703 11.98C16.5703 12.3942 16.2345 12.73 15.8203 12.73C15.4061 12.73 15.0703 12.3942 15.0703 11.98C15.0703 10.3029 13.7148 8.94 12.0303 8.94C11.6161 8.94 11.2803 8.60421 11.2803 8.19Z" fill="#101010"/>
</svg>
