<svg width="20" height="22" viewBox="0 0 20 22" fill="none" xmlns="http://www.w3.org/2000/svg">
<path fill-rule="evenodd" clip-rule="evenodd" d="M13.59 1.75C11.171 1.75 9.20996 3.711 9.20996 6.13C9.20996 8.54901 11.171 10.51 13.59 10.51C16.009 10.51 17.97 8.54901 17.97 6.13C17.97 3.711 16.009 1.75 13.59 1.75ZM7.70996 6.13C7.70996 2.88257 10.3425 0.25 13.59 0.25C16.8374 0.25 19.47 2.88257 19.47 6.13C19.47 9.37744 16.8374 12.01 13.59 12.01C10.3425 12.01 7.70996 9.37744 7.70996 6.13Z" fill="#101010"/>
<path fill-rule="evenodd" clip-rule="evenodd" d="M4.35977 13.03C3.07295 13.03 2.02979 14.0732 2.02979 15.36C2.02979 16.6469 3.07295 17.69 4.35977 17.69C5.6466 17.69 6.68979 16.6468 6.68979 15.36C6.68979 14.0732 5.6466 13.03 4.35977 13.03ZM0.529785 15.36C0.529785 13.2448 2.24452 11.53 4.35977 11.53C6.47502 11.53 8.18979 13.2448 8.18979 15.36C8.18979 17.4753 6.47502 19.19 4.35977 19.19C2.24452 19.19 0.529785 17.4753 0.529785 15.36Z" fill="#101010"/>
<path fill-rule="evenodd" clip-rule="evenodd" d="M14.6196 16.63C13.6199 16.63 12.8096 17.4404 12.8096 18.44C12.8096 19.4396 13.6199 20.25 14.6196 20.25C15.6192 20.25 16.4296 19.4396 16.4296 18.44C16.4296 17.4404 15.6192 16.63 14.6196 16.63ZM11.3096 18.44C11.3096 16.6119 12.7915 15.13 14.6196 15.13C16.4476 15.13 17.9296 16.6119 17.9296 18.44C17.9296 20.2681 16.4476 21.75 14.6196 21.75C12.7915 21.75 11.3096 20.2681 11.3096 18.44Z" fill="#101010"/>
</svg>
