<svg width="22" height="22" viewBox="0 0 22 22" fill="none" xmlns="http://www.w3.org/2000/svg">
<path fill-rule="evenodd" clip-rule="evenodd" d="M0.25 21C0.25 20.5858 0.585786 20.25 1 20.25H21C21.4142 20.25 21.75 20.5858 21.75 21C21.75 21.4142 21.4142 21.75 21 21.75H1C0.585786 21.75 0.25 21.4142 0.25 21Z" fill="#101010"/>
<path fill-rule="evenodd" clip-rule="evenodd" d="M8.69182 2.36257C8.27472 2.08243 7.72528 2.08243 7.30818 2.36257L7.3064 2.36376L3.30865 5.03224C3.30832 5.03246 3.30799 5.03268 3.30766 5.03291C2.96033 5.26703 2.75007 5.65601 2.75 6.06977C2.75 6.06984 2.75 6.0697 2.75 6.06977L2.75951 20.2587L13.2595 20.2412L13.25 6.07049C13.25 5.64991 13.0444 5.26552 12.6965 5.0357L12.6936 5.03375L8.6936 2.36376L8.69182 2.36257ZM9.52717 1.1167C8.60472 0.49772 7.39528 0.49772 6.47283 1.1167C6.4725 1.11692 6.47218 1.11714 6.47185 1.11736L2.47363 3.78615L2.47138 3.78766C1.71936 4.29356 1.25 5.14422 1.25 6.06998L1.26001 21.0105C1.26014 21.2095 1.33939 21.4004 1.4803 21.5409C1.62121 21.6815 1.81222 21.7603 2.01126 21.76L14.0113 21.74C14.4252 21.7393 14.7603 21.4034 14.76 20.9895L14.75 6.06998C14.75 6.07015 14.75 6.06982 14.75 6.06998C14.7498 5.15137 14.2961 4.29545 13.525 3.78524C13.5245 3.78489 13.524 3.78454 13.5234 3.7842L9.52815 1.11736C9.52782 1.11714 9.5275 1.11692 9.52717 1.1167Z" fill="#101010"/>
<path fill-rule="evenodd" clip-rule="evenodd" d="M18.9805 16.25C19.3947 16.25 19.7305 16.5858 19.7305 17V21.01C19.7305 21.4242 19.3947 21.76 18.9805 21.76C18.5663 21.76 18.2305 21.4242 18.2305 21.01V17C18.2305 16.5858 18.5663 16.25 18.9805 16.25Z" fill="#101010"/>
<path fill-rule="evenodd" clip-rule="evenodd" d="M16.25 13C16.25 11.4858 17.4858 10.25 19 10.25C20.5142 10.25 21.75 11.4858 21.75 13V15C21.75 16.5142 20.5142 17.75 19 17.75C17.4858 17.75 16.25 16.5142 16.25 15V13ZM19 11.75C18.3142 11.75 17.75 12.3142 17.75 13V15C17.75 15.6858 18.3142 16.25 19 16.25C19.6858 16.25 20.25 15.6858 20.25 15V13C20.25 12.3142 19.6858 11.75 19 11.75Z" fill="#101010"/>
<path fill-rule="evenodd" clip-rule="evenodd" d="M1.25 13C1.25 12.5858 1.58579 12.25 2 12.25H14C14.4142 12.25 14.75 12.5858 14.75 13C14.75 13.4142 14.4142 13.75 14 13.75H2C1.58579 13.75 1.25 13.4142 1.25 13Z" fill="#101010"/>
<path fill-rule="evenodd" clip-rule="evenodd" d="M8 16.5C8.41421 16.5 8.75 16.8358 8.75 17.25V21C8.75 21.4142 8.41421 21.75 8 21.75C7.58579 21.75 7.25 21.4142 7.25 21V17.25C7.25 16.8358 7.58579 16.5 8 16.5Z" fill="#101010"/>
<path fill-rule="evenodd" clip-rule="evenodd" d="M8 7.25C7.58579 7.25 7.25 7.58579 7.25 8C7.25 8.41421 7.58579 8.75 8 8.75C8.41421 8.75 8.75 8.41421 8.75 8C8.75 7.58579 8.41421 7.25 8 7.25ZM5.75 8C5.75 6.75736 6.75736 5.75 8 5.75C9.24264 5.75 10.25 6.75736 10.25 8C10.25 9.24264 9.24264 10.25 8 10.25C6.75736 10.25 5.75 9.24264 5.75 8Z" fill="#101010"/>
</svg>
