<svg width="22" height="22" viewBox="0 0 22 22" fill="none" xmlns="http://www.w3.org/2000/svg">
<path fill-rule="evenodd" clip-rule="evenodd" d="M2.63353 1.98943C2.13249 2.29452 1.71973 2.96043 1.71973 4.0901V18.9301C1.71973 19.642 2.31987 20.2501 3.07973 20.2501H10.7497V6.41009C10.7497 6.05448 10.612 5.61399 10.3502 5.19875C10.0888 4.78398 9.74758 4.46411 9.41994 4.3037L4.97997 2.12371C4.97987 2.12366 4.98006 2.12376 4.97997 2.12371C3.93987 1.61462 3.13821 1.68213 2.63353 1.98943ZM1.85342 0.708255C2.9212 0.058083 4.28972 0.115712 5.63949 0.77648L10.0795 2.95649C10.0796 2.95654 10.0794 2.95644 10.0795 2.95649C10.7117 3.26611 11.2457 3.8063 11.6192 4.39894C11.9925 4.9912 12.2497 5.70571 12.2497 6.41009V21.0001C12.2497 21.4143 11.9139 21.7501 11.4997 21.7501H3.07973C1.51958 21.7501 0.219727 20.4982 0.219727 18.9301V4.0901C0.219727 2.59976 0.781965 1.36067 1.85342 0.708255Z" fill="#101010"/>
<path fill-rule="evenodd" clip-rule="evenodd" d="M11.0281 8.83714C11.204 8.69474 11.4347 8.63938 11.6561 8.68647L12.1343 8.78821L16.6323 9.79783L16.6342 9.79826L18.6609 10.2475C18.6612 10.2476 18.6607 10.2475 18.6609 10.2475C19.3874 10.4072 20.1483 10.694 20.7351 11.2857C21.3314 11.8871 21.6667 12.7195 21.7082 13.8057C21.7203 13.9061 21.7201 13.9961 21.72 14.0479C21.72 14.0522 21.72 14.0563 21.72 14.0601V17.8401C21.72 19.0211 21.4477 20.0431 20.7303 20.7604C20.013 21.4777 18.9911 21.7501 17.81 21.7501H11.5C11.0858 21.7501 10.75 21.4143 10.75 21.0001V9.42005C10.75 9.19375 10.8522 8.97954 11.0281 8.83714ZM12.25 10.3516L16.3058 11.2618L16.3077 11.2623L18.3377 11.7123L18.3391 11.7126C18.9324 11.8429 19.3719 12.0413 19.6699 12.3419C19.9511 12.6255 20.1849 13.0797 20.2104 13.8935C20.2113 13.9247 20.2143 13.9559 20.2191 13.9867C20.2192 13.9878 20.2193 13.9893 20.2193 13.9913C20.2196 13.9968 20.2198 14.0046 20.2199 14.0164L20.22 14.0601V17.8401C20.22 18.819 19.9923 19.377 19.6697 19.6997C19.347 20.0224 18.7889 20.2501 17.81 20.2501H12.25V10.3516Z" fill="#101010"/>
<path fill-rule="evenodd" clip-rule="evenodd" d="M3.75 8.00012C3.75 7.58591 4.08579 7.25012 4.5 7.25012H7.97C8.38421 7.25012 8.72 7.58591 8.72 8.00012C8.72 8.41434 8.38421 8.75012 7.97 8.75012H4.5C4.08579 8.75012 3.75 8.41434 3.75 8.00012Z" fill="#101010"/>
<path fill-rule="evenodd" clip-rule="evenodd" d="M3.75 12.0001C3.75 11.5859 4.08579 11.2501 4.5 11.2501H7.97C8.38421 11.2501 8.72 11.5859 8.72 12.0001C8.72 12.4143 8.38421 12.7501 7.97 12.7501H4.5C4.08579 12.7501 3.75 12.4143 3.75 12.0001Z" fill="#101010"/>
<path fill-rule="evenodd" clip-rule="evenodd" d="M11.5011 8.93462C11.6789 8.79229 11.9117 8.73847 12.134 8.78835L16.634 9.79835C16.9764 9.87521 17.2197 10.1792 17.2197 10.5301V13.7501C17.2197 15.4044 15.8739 16.7501 14.2197 16.7501C12.5655 16.7501 11.2197 15.4044 11.2197 13.7501V9.52015C11.2197 9.29238 11.3232 9.07695 11.5011 8.93462ZM12.7197 10.4571V13.7501C12.7197 14.5759 13.3939 15.2501 14.2197 15.2501C15.0455 15.2501 15.7197 14.5759 15.7197 13.7501V11.1305L12.7197 10.4571Z" fill="#101010"/>
<path fill-rule="evenodd" clip-rule="evenodd" d="M16.0003 9.94513C16.1776 9.80278 16.41 9.74859 16.632 9.79781L18.6607 10.2475C18.6609 10.2476 18.6611 10.2476 18.6614 10.2477C19.3878 10.4073 20.148 10.694 20.7348 11.2857C21.3386 11.8946 21.6748 12.7404 21.7094 13.8466C21.71 13.8671 21.7098 13.8876 21.7088 13.9081C21.6287 15.4826 20.3235 16.75 18.7197 16.75C17.0655 16.75 15.7197 15.4042 15.7197 13.75V10.53C15.7197 10.3026 15.8229 10.0875 16.0003 9.94513ZM17.2197 11.4645V13.75C17.2197 14.5758 17.8939 15.25 18.7197 15.25C19.5062 15.25 20.1547 14.6328 20.209 13.8607C20.1783 13.0675 19.9471 12.6216 19.6697 12.3419C19.3716 12.0413 18.9321 11.8429 18.3388 11.7126L18.3374 11.7123L18.3374 11.7123L17.2197 11.4645Z" fill="#101010"/>
</svg>
