<svg width="22" height="22" viewBox="0 0 22 22" fill="none" xmlns="http://www.w3.org/2000/svg">
<path fill-rule="evenodd" clip-rule="evenodd" d="M2.06909 2.06909C1.89993 2.23825 1.75 2.55196 1.75 3.15002V14.85C1.75 15.448 1.89993 15.7617 2.06909 15.9309C2.23825 16.1001 2.55196 16.25 3.15002 16.25H5.70001C6.11423 16.25 6.45001 16.5858 6.45001 17C6.45001 17.4142 6.11423 17.75 5.70001 17.75H3.15002C2.31809 17.75 1.55678 17.5399 1.00843 16.9916C0.460083 16.4432 0.25 15.6819 0.25 14.85V3.15002C0.25 2.31809 0.460083 1.55678 1.00843 1.00843C1.55678 0.460083 2.31809 0.25 3.15002 0.25H7.45001C8.28195 0.25 9.04325 0.460083 9.59159 1.00844C10.1399 1.5568 10.35 2.3181 10.35 3.15002V5C10.35 5.41421 10.0142 5.75 9.59998 5.75C9.18576 5.75 8.84998 5.41421 8.84998 5V3.15002C8.84998 2.55195 8.70005 2.23824 8.5309 2.06908C8.36176 1.89993 8.04807 1.75 7.45001 1.75H3.15002C2.55196 1.75 2.23825 1.89993 2.06909 2.06909Z" fill="#101010"/>
<path fill-rule="evenodd" clip-rule="evenodd" d="M6.83677 6.13657C6.62269 6.35064 6.4502 6.73176 6.4502 7.41998V18.58C6.4502 19.2682 6.62269 19.6494 6.83677 19.8634C7.05084 20.0775 7.43196 20.25 8.12018 20.25H13.9602C14.6484 20.25 15.0258 20.0775 15.237 19.8651C15.449 19.6518 15.6202 19.2706 15.6202 18.58V7.41998C15.6202 6.72941 15.449 6.34824 15.237 6.13492C15.0258 5.92245 14.6484 5.75 13.9602 5.75H8.12018C7.43196 5.75 7.05084 5.9225 6.83677 6.13657ZM5.77611 5.07591C6.36953 4.48249 7.1984 4.25 8.12018 4.25H13.9602C14.882 4.25 15.7096 4.48254 16.3009 5.07756C16.8914 5.67173 17.1202 6.50055 17.1202 7.41998V18.58C17.1202 19.4994 16.8914 20.3283 16.3009 20.9224C15.7096 21.5175 14.882 21.75 13.9602 21.75H8.12018C7.1984 21.75 6.36953 21.5175 5.77611 20.9241C5.18269 20.3307 4.9502 19.5018 4.9502 18.58V7.41998C4.9502 6.4982 5.18269 5.66933 5.77611 5.07591Z" fill="#101010"/>
<path fill-rule="evenodd" clip-rule="evenodd" d="M13.4695 2.06908C13.3003 2.23824 13.1504 2.55195 13.1504 3.15002V5C13.1504 5.41421 12.8146 5.75 12.4004 5.75C11.9862 5.75 11.6504 5.41421 11.6504 5V3.15002C11.6504 2.3181 11.8604 1.5568 12.4088 1.00844C12.9571 0.460083 13.7184 0.25 14.5504 0.25H18.8503C19.6823 0.25 20.4436 0.460083 20.9919 1.00843C21.5403 1.55678 21.7504 2.31809 21.7504 3.15002V14.85C21.7504 15.6819 21.5403 16.4432 20.9919 16.9916C20.4436 17.5399 19.6823 17.75 18.8503 17.75H16.3704C15.9561 17.75 15.6204 17.4142 15.6204 17C15.6204 16.5858 15.9561 16.25 16.3704 16.25H18.8503C19.4484 16.25 19.7621 16.1001 19.9313 15.9309C20.1004 15.7617 20.2504 15.448 20.2504 14.85V3.15002C20.2504 2.55196 20.1004 2.23825 19.9313 2.06909C19.7621 1.89993 19.4484 1.75 18.8503 1.75H14.5504C13.9523 1.75 13.6386 1.89993 13.4695 2.06908Z" fill="#101010"/>
<path fill-rule="evenodd" clip-rule="evenodd" d="M8.25 10C8.25 9.58579 8.58579 9.25 9 9.25H13C13.4142 9.25 13.75 9.58579 13.75 10C13.75 10.4142 13.4142 10.75 13 10.75H9C8.58579 10.75 8.25 10.4142 8.25 10Z" fill="#101010"/>
<path fill-rule="evenodd" clip-rule="evenodd" d="M8.25 13C8.25 12.5858 8.58579 12.25 9 12.25H13C13.4142 12.25 13.75 12.5858 13.75 13C13.75 13.4142 13.4142 13.75 13 13.75H9C8.58579 13.75 8.25 13.4142 8.25 13Z" fill="#101010"/>
<path fill-rule="evenodd" clip-rule="evenodd" d="M11 17.25C11.4142 17.25 11.75 17.5858 11.75 18V21C11.75 21.4142 11.4142 21.75 11 21.75C10.5858 21.75 10.25 21.4142 10.25 21V18C10.25 17.5858 10.5858 17.25 11 17.25Z" fill="#101010"/>
</svg>
