<svg width="22" height="22" viewBox="0 0 22 22" fill="none" xmlns="http://www.w3.org/2000/svg">
<path fill-rule="evenodd" clip-rule="evenodd" d="M0.25 21C0.25 20.5858 0.585786 20.25 1 20.25H21C21.4142 20.25 21.75 20.5858 21.75 21C21.75 21.4142 21.4142 21.75 21 21.75H1C0.585786 21.75 0.25 21.4142 0.25 21Z" fill="#101010"/>
<path fill-rule="evenodd" clip-rule="evenodd" d="M2.30736 1.68106C3.11215 0.749119 4.34646 0.25 6 0.25H16C17.6535 0.25 18.8879 0.749119 19.6926 1.68106C20.4797 2.59244 20.75 3.79713 20.75 5V21C20.75 21.4142 20.4142 21.75 20 21.75H2C1.58579 21.75 1.25 21.4142 1.25 21V5C1.25 3.79713 1.52033 2.59244 2.30736 1.68106ZM3.44264 2.66144C2.97967 3.19756 2.75 3.99287 2.75 5V20.25H19.25V5C19.25 3.99287 19.0203 3.19756 18.5574 2.66144C18.1121 2.14588 17.3465 1.75 16 1.75H6C4.65354 1.75 3.88785 2.14588 3.44264 2.66144Z" fill="#101010"/>
<path fill-rule="evenodd" clip-rule="evenodd" d="M5.25 15.5C5.25 15.0858 5.58579 14.75 6 14.75H9C9.41421 14.75 9.75 15.0858 9.75 15.5C9.75 15.9142 9.41421 16.25 9 16.25H6C5.58579 16.25 5.25 15.9142 5.25 15.5Z" fill="#101010"/>
<path fill-rule="evenodd" clip-rule="evenodd" d="M12.25 15.5C12.25 15.0858 12.5858 14.75 13 14.75H16C16.4142 14.75 16.75 15.0858 16.75 15.5C16.75 15.9142 16.4142 16.25 16 16.25H13C12.5858 16.25 12.25 15.9142 12.25 15.5Z" fill="#101010"/>
<path fill-rule="evenodd" clip-rule="evenodd" d="M5.25 11C5.25 10.5858 5.58579 10.25 6 10.25H9C9.41421 10.25 9.75 10.5858 9.75 11C9.75 11.4142 9.41421 11.75 9 11.75H6C5.58579 11.75 5.25 11.4142 5.25 11Z" fill="#101010"/>
<path fill-rule="evenodd" clip-rule="evenodd" d="M12.25 11C12.25 10.5858 12.5858 10.25 13 10.25H16C16.4142 10.25 16.75 10.5858 16.75 11C16.75 11.4142 16.4142 11.75 16 11.75H13C12.5858 11.75 12.25 11.4142 12.25 11Z" fill="#101010"/>
<path fill-rule="evenodd" clip-rule="evenodd" d="M5.25 6.5C5.25 6.08579 5.58579 5.75 6 5.75H9C9.41421 5.75 9.75 6.08579 9.75 6.5C9.75 6.91421 9.41421 7.25 9 7.25H6C5.58579 7.25 5.25 6.91421 5.25 6.5Z" fill="#101010"/>
<path fill-rule="evenodd" clip-rule="evenodd" d="M12.25 6.5C12.25 6.08579 12.5858 5.75 13 5.75H16C16.4142 5.75 16.75 6.08579 16.75 6.5C16.75 6.91421 16.4142 7.25 16 7.25H13C12.5858 7.25 12.25 6.91421 12.25 6.5Z" fill="#101010"/>
</svg>
