<svg width="22" height="22" viewBox="0 0 22 22" fill="none" xmlns="http://www.w3.org/2000/svg">
<path fill-rule="evenodd" clip-rule="evenodd" d="M8.75174 7.35724C11.7491 7.87968 14.1203 10.2509 14.6428 13.2483C17.7526 13.1725 20.25 10.6281 20.25 7.5C20.25 4.32421 17.6758 1.75 14.5 1.75C11.3719 1.75 8.82751 4.24742 8.75174 7.35724ZM7.25 7.5C7.25 3.49579 10.4958 0.25 14.5 0.25C18.5042 0.25 21.75 3.49579 21.75 7.5C21.75 11.5042 18.5042 14.75 14.5 14.75C14.3049 14.75 14.1042 14.7386 13.936 14.7287C13.5621 14.7067 13.2618 14.4123 13.2323 14.039C13.0113 11.2367 10.7633 8.98867 7.96102 8.76767C7.58768 8.73822 7.29327 8.43789 7.27128 8.06403C7.26139 7.89583 7.25 7.69505 7.25 7.5Z" fill="#101010"/>
<path fill-rule="evenodd" clip-rule="evenodd" d="M7.5 8.75C4.32421 8.75 1.75 11.3242 1.75 14.5C1.75 17.6758 4.32421 20.25 7.5 20.25C10.6758 20.25 13.25 17.6758 13.25 14.5C13.25 14.3572 13.2417 14.2006 13.2318 14.0317C13.0076 11.2352 10.7648 8.99236 7.96828 8.76824C7.79941 8.75833 7.64279 8.75 7.5 8.75ZM0.25 14.5C0.25 10.4958 3.49579 7.25 7.5 7.25C7.69505 7.25 7.89583 7.26139 8.06403 7.27128L8.07895 7.27231C11.6166 7.55131 14.4487 10.3834 14.7277 13.921L14.7287 13.936C14.7386 14.1042 14.75 14.3049 14.75 14.5C14.75 18.5042 11.5042 21.75 7.5 21.75C3.49579 21.75 0.25 18.5042 0.25 14.5Z" fill="#101010"/>
<path fill-rule="evenodd" clip-rule="evenodd" d="M7.5 11.25C7.77492 11.25 8.02781 11.4004 8.15904 11.642L8.93308 13.0669L10.358 13.841C10.5996 13.9722 10.75 14.2251 10.75 14.5C10.75 14.7749 10.5996 15.0278 10.358 15.159L8.93308 15.9331L8.15904 17.358C8.02781 17.5996 7.77492 17.75 7.5 17.75C7.22508 17.75 6.97219 17.5996 6.84096 17.358L6.06692 15.9331L4.642 15.159C4.40042 15.0278 4.25 14.7749 4.25 14.5C4.25 14.2251 4.40042 13.9722 4.642 13.841L6.06692 13.0669L6.84096 11.642C6.97219 11.4004 7.22508 11.25 7.5 11.25ZM7.5 13.5712L7.27904 13.978C7.20987 14.1053 7.10531 14.2099 6.978 14.279L6.57123 14.5L6.978 14.721C7.10531 14.7901 7.20987 14.8947 7.27904 15.022L7.5 15.4288L7.72096 15.022C7.79013 14.8947 7.89469 14.7901 8.022 14.721L8.42877 14.5L8.022 14.279C7.89469 14.2099 7.79013 14.1053 7.72096 13.978L7.5 13.5712Z" fill="#101010"/>
</svg>
