<svg width="20" height="22" viewBox="0 0 20 22" fill="none" xmlns="http://www.w3.org/2000/svg">
<path fill-rule="evenodd" clip-rule="evenodd" d="M2.09467 2.09467C3.42914 0.760201 5.42603 0.25 8 0.25H12C14.574 0.25 16.5709 0.760201 17.9053 2.09467C19.2398 3.42914 19.75 5.42603 19.75 8V14C19.75 16.574 19.2398 18.5709 17.9053 19.9053C16.5709 21.2398 14.574 21.75 12 21.75H8C5.42603 21.75 3.42914 21.2398 2.09467 19.9053C0.760201 18.5709 0.25 16.574 0.25 14V8C0.25 5.42603 0.760201 3.42914 2.09467 2.09467ZM3.15533 3.15533C2.2398 4.07086 1.75 5.57397 1.75 8V14C1.75 16.426 2.2398 17.9291 3.15533 18.8447C4.07086 19.7602 5.57397 20.25 8 20.25H12C14.426 20.25 15.9291 19.7602 16.8447 18.8447C17.7602 17.9291 18.25 16.426 18.25 14V8C18.25 5.57397 17.7602 4.07086 16.8447 3.15533C15.9291 2.2398 14.426 1.75 12 1.75H8C5.57397 1.75 4.07086 2.2398 3.15533 3.15533Z" fill="#101010"/>
<path fill-rule="evenodd" clip-rule="evenodd" d="M7 5.82996C6.58746 5.82996 6.25 6.17091 6.25 6.57996V7.57996C6.25 7.9925 6.59096 8.32996 7 8.32996H13C13.4125 8.32996 13.75 7.989 13.75 7.57996V6.57996C13.75 6.16417 13.4158 5.82996 13 5.82996H7ZM4.75 6.57996C4.75 5.349 5.75254 4.32996 7 4.32996H13C14.2442 4.32996 15.25 5.33574 15.25 6.57996V7.57996C15.25 8.81091 14.2475 9.82996 13 9.82996H7C5.76904 9.82996 4.75 8.82742 4.75 7.57996V6.57996Z" fill="#101010"/>
<path fill-rule="evenodd" clip-rule="evenodd" d="M5.13672 13C5.13672 12.4477 5.58443 12 6.13672 12H6.14827C6.70056 12 7.14827 12.4477 7.14827 13C7.14827 13.5523 6.70056 14 6.14827 14H6.13672C5.58443 14 5.13672 13.5523 5.13672 13Z" fill="#101010"/>
<path fill-rule="evenodd" clip-rule="evenodd" d="M8.99609 13C8.99609 12.4477 9.44381 12 9.99609 12H10.0076C10.5599 12 11.0076 12.4477 11.0076 13C11.0076 13.5523 10.5599 14 10.0076 14H9.99609C9.44381 14 8.99609 13.5523 8.99609 13Z" fill="#101010"/>
<path fill-rule="evenodd" clip-rule="evenodd" d="M12.8535 13C12.8535 12.4477 13.3012 12 13.8535 12H13.8651C14.4174 12 14.8651 12.4477 14.8651 13C14.8651 13.5523 14.4174 14 13.8651 14H13.8535C13.3012 14 12.8535 13.5523 12.8535 13Z" fill="#101010"/>
<path fill-rule="evenodd" clip-rule="evenodd" d="M5.13672 16.5C5.13672 15.9477 5.58443 15.5 6.13672 15.5H6.14827C6.70056 15.5 7.14827 15.9477 7.14827 16.5C7.14827 17.0523 6.70056 17.5 6.14827 17.5H6.13672C5.58443 17.5 5.13672 17.0523 5.13672 16.5Z" fill="#101010"/>
<path fill-rule="evenodd" clip-rule="evenodd" d="M8.99609 16.5C8.99609 15.9477 9.44381 15.5 9.99609 15.5H10.0076C10.5599 15.5 11.0076 15.9477 11.0076 16.5C11.0076 17.0523 10.5599 17.5 10.0076 17.5H9.99609C9.44381 17.5 8.99609 17.0523 8.99609 16.5Z" fill="#101010"/>
<path fill-rule="evenodd" clip-rule="evenodd" d="M12.8535 16.5C12.8535 15.9477 13.3012 15.5 13.8535 15.5H13.8651C14.4174 15.5 14.8651 15.9477 14.8651 16.5C14.8651 17.0523 14.4174 17.5 13.8651 17.5H13.8535C13.3012 17.5 12.8535 17.0523 12.8535 16.5Z" fill="#101010"/>
</svg>
