<svg width="20" height="22" viewBox="0 0 20 22" fill="none" xmlns="http://www.w3.org/2000/svg">
<path fill-rule="evenodd" clip-rule="evenodd" d="M6 0.25C6.41421 0.25 6.75 0.585786 6.75 1V4C6.75 4.41421 6.41421 4.75 6 4.75C5.58579 4.75 5.25 4.41421 5.25 4V1C5.25 0.585786 5.58579 0.25 6 0.25Z" fill="#101010"/>
<path fill-rule="evenodd" clip-rule="evenodd" d="M14 0.25C14.4142 0.25 14.75 0.585786 14.75 1V4C14.75 4.41421 14.4142 4.75 14 4.75C13.5858 4.75 13.25 4.41421 13.25 4V1C13.25 0.585786 13.5858 0.25 14 0.25Z" fill="#101010"/>
<path fill-rule="evenodd" clip-rule="evenodd" d="M5.95728 1.75122C5.9715 1.75041 5.98575 1.75 6 1.75H14C14.0135 1.75 14.027 1.75036 14.0405 1.75109C15.7683 1.84449 17.2706 2.22623 18.3065 3.37861C19.3291 4.51622 19.75 6.24345 19.75 8.65V14.83C19.75 16.9008 19.5117 18.6968 18.4466 19.9506C17.3544 21.2362 15.57 21.76 13 21.76H7C4.42996 21.76 2.64561 21.2362 1.55341 19.9506C0.488268 18.6968 0.25 16.9008 0.25 14.83V8.65C0.25 6.24339 0.670873 4.51842 1.69382 3.38198C2.72938 2.23153 4.23109 1.84971 5.95728 1.75122ZM6.02167 3.25C4.43017 3.34331 3.43785 3.68654 2.80868 4.38551C2.16413 5.10158 1.75 6.35661 1.75 8.65V14.83C1.75 16.8792 2.01173 18.1732 2.69659 18.9794C3.35439 19.7538 4.57004 20.26 7 20.26H13C15.43 20.26 16.6456 19.7538 17.3034 18.9794C17.9883 18.1732 18.25 16.8792 18.25 14.83V8.65C18.25 6.35655 17.8359 5.09878 17.191 4.38139C16.562 3.68169 15.57 3.33837 13.9795 3.25H6.02167Z" fill="#101010"/>
<path fill-rule="evenodd" clip-rule="evenodd" d="M0.5 16.6C0.5 16.1858 0.835786 15.85 1.25 15.85H18.75C19.1642 15.85 19.5 16.1858 19.5 16.6C19.5 17.0142 19.1642 17.35 18.75 17.35H1.25C0.835786 17.35 0.5 17.0142 0.5 16.6Z" fill="#101010"/>
<path d="M10 7.25C8.77 7.25 7.73 7.92 7.73 9.22C7.73 9.84 8.02 10.31 8.46 10.61C7.85 10.97 7.5 11.55 7.5 12.23C7.5 13.47 8.45 14.24 10 14.24C11.54 14.24 12.5 13.47 12.5 12.23C12.5 11.55 12.15 10.96 11.53 10.61C11.98 10.3 12.26 9.84 12.26 9.22C12.26 7.92 11.23 7.25 10 7.25ZM10 10.09C9.48 10.09 9.1 9.78 9.1 9.29C9.1 8.79 9.48 8.5 10 8.5C10.52 8.5 10.9 8.79 10.9 9.29C10.9 9.78 10.52 10.09 10 10.09ZM10 13C9.34 13 8.86 12.67 8.86 12.07C8.86 11.47 9.34 11.15 10 11.15C10.66 11.15 11.14 11.48 11.14 12.07C11.14 12.67 10.66 13 10 13Z" fill="#101010"/>
</svg>
