<svg width="22" height="22" viewBox="0 0 22 22" fill="none" xmlns="http://www.w3.org/2000/svg">
<path fill-rule="evenodd" clip-rule="evenodd" d="M14.5615 12.5967C14.8886 12.4019 15.2451 12.29 15.6403 12.29C15.9403 12.29 16.2366 12.3541 16.5343 12.4759C16.8173 12.5916 17.0942 12.7509 17.3721 12.9398L17.3845 12.9485L20.6912 15.2961C21.0458 15.5425 21.3237 15.8545 21.4968 16.248C21.5003 16.2558 21.5035 16.2636 21.5067 16.2715C21.6341 16.59 21.7203 16.9352 21.7203 17.33C21.7203 17.8025 21.6151 18.2817 21.3985 18.7403C21.1988 19.1633 20.9385 19.5659 20.5961 19.9437L20.5958 19.944C20.0402 20.5563 19.411 21.016 18.6867 21.3132C17.9925 21.6022 17.2448 21.75 16.4503 21.75C15.3117 21.75 14.1217 21.4821 12.8964 20.96C11.6889 20.4455 10.4898 19.7561 9.3089 18.8964L9.30682 18.8948C9.27833 18.8739 9.24914 18.8527 9.21945 18.831C9.10308 18.7461 8.97882 18.6555 8.85698 18.5598C8.53127 18.3039 8.4747 17.8324 8.73061 17.5067C8.98652 17.181 9.45801 17.1244 9.78371 17.3803C9.88241 17.4578 9.9788 17.5282 10.0918 17.6107C10.124 17.6341 10.1575 17.6586 10.1928 17.6845C11.2916 18.4843 12.3922 19.1147 13.4843 19.5801C14.559 20.038 15.5489 20.25 16.4503 20.25C17.0551 20.25 17.6067 20.1382 18.1119 19.9277L18.1159 19.926L18.1159 19.9261C18.6107 19.7233 19.0608 19.4034 19.4846 18.9364M14.5615 12.5967C14.2485 12.7639 13.9553 13.0047 13.6818 13.2779L12.9922 13.9585C12.9754 13.9508 12.9548 13.9415 12.9325 13.9319C12.789 13.8542 12.6123 13.7415 12.4103 13.59C12.079 13.3415 11.6089 13.4087 11.3603 13.74C11.1118 14.0714 11.179 14.5415 11.5103 14.79C11.7755 14.9889 12.0291 15.1517 12.261 15.2737C12.284 15.2858 12.3077 15.2967 12.3318 15.3064C12.3369 15.3084 12.3479 15.3132 12.3804 15.3281C12.3828 15.3292 12.3854 15.3304 12.3881 15.3317C12.4153 15.3441 12.4536 15.3617 12.4949 15.3794C12.5055 15.3839 12.5162 15.3882 12.527 15.3923C12.7166 15.4634 12.8923 15.48 13.0403 15.48C13.4188 15.48 13.7359 15.3341 13.9786 15.0924L14.7372 14.3439L14.7372 14.3439L14.7407 14.3404C14.9603 14.1207 15.1392 13.987 15.2773 13.915C15.2919 13.9074 15.3062 13.8993 15.3203 13.8907C15.4475 13.8133 15.5441 13.79 15.6403 13.79C15.7204 13.79 15.8241 13.806 15.9664 13.8642C16.122 13.9279 16.3031 14.0273 16.5225 14.1761L19.8262 16.5216L19.8261 16.5216L19.8334 16.5267C19.9916 16.6362 20.0723 16.74 20.1192 16.8418C20.1882 17.0176 20.2203 17.169 20.2203 17.33C20.2203 17.5776 20.1656 17.8383 20.0422 18.0998C19.902 18.3966 19.7224 18.674 19.4849 18.936" fill="#101010"/>
<path fill-rule="evenodd" clip-rule="evenodd" d="M1.98958 1.39989C2.74153 0.661982 3.62059 0.25 4.59 0.25C4.97318 0.25 5.36311 0.331382 5.71941 0.501397C6.08755 0.672288 6.42309 0.933929 6.68396 1.30922L9.00026 4.574C9.20529 4.85906 9.3657 5.13796 9.48183 5.42035C9.59972 5.6971 9.68 6.00644 9.68 6.32C9.68 6.70687 9.56726 7.07663 9.36705 7.40939C9.19678 7.70784 8.96427 7.99567 8.69563 8.26502L8.00688 8.98096C8.01385 8.99743 8.02321 9.01968 8.03333 9.04549C8.183 9.30787 8.44802 9.67722 8.84989 10.1524C9.29145 10.6626 9.75982 11.1795 10.2654 11.6947C10.5554 11.9904 10.5509 12.4653 10.2553 12.7554C9.95959 13.0454 9.48473 13.0409 9.19464 12.7453C8.66123 12.2016 8.1705 11.6596 7.71287 11.1308L7.70742 11.1245C7.25416 10.5888 6.90702 10.1141 6.69158 9.71914C6.6703 9.68014 6.65254 9.63932 6.63849 9.59717C6.63855 9.59735 6.63849 9.59717 6.63849 9.59717C6.63848 9.59717 6.63602 9.59044 6.62302 9.55973C6.62193 9.55714 6.62075 9.55437 6.61951 9.55142C6.60704 9.52203 6.58736 9.47562 6.56775 9.42334C6.55776 9.3967 6.54929 9.36951 6.54239 9.3419C6.51008 9.21265 6.49 9.08105 6.49 8.93C6.49 8.59078 6.6056 8.26699 6.86359 8.00579L7.61951 7.22003L7.62967 7.20967C7.83569 7.00365 7.97896 6.81685 8.06708 6.66096C8.07106 6.65392 8.07515 6.64695 8.07935 6.64004C8.15514 6.51553 8.18 6.40903 8.18 6.32C8.18 6.25575 8.16141 6.14722 8.10064 6.00544L8.09574 5.99401C8.03236 5.83908 7.93418 5.66049 7.78135 5.44823L7.7783 5.44399L5.45332 2.16694C5.35577 2.02604 5.23429 1.92955 5.08571 1.86097L5.07541 1.85622C4.9331 1.78791 4.76498 1.75 4.59 1.75C4.08187 1.75 3.56293 1.95593 3.03614 2.47449L3.02467 2.48555C2.56991 2.91456 2.25506 3.38355 2.05792 3.88459L2.05637 3.88855C1.85415 4.39409 1.75 4.94888 1.75 5.54C1.75 6.46267 1.96266 7.45326 2.41075 8.51784C2.86507 9.58711 3.49483 10.6779 4.28758 11.7803C5.09417 12.8879 5.99902 13.9486 7.00289 14.9622C7.29436 15.2565 7.29207 15.7314 6.99776 16.0229C6.70346 16.3144 6.22859 16.3121 5.93711 16.0178C4.8815 14.9519 3.92677 13.8332 3.07368 12.6614L3.07114 12.658C2.22474 11.4813 1.5351 10.293 1.0297 9.10323L1.02877 9.10104C0.517192 7.88605 0.25 6.69701 0.25 5.54C0.25 4.77184 0.385604 4.02732 0.662859 3.33342C0.944867 2.61753 1.38783 1.96904 1.98958 1.39989Z" fill="#101010"/>
<path fill-rule="evenodd" clip-rule="evenodd" d="M21.5303 0.46967C21.8232 0.762563 21.8232 1.23744 21.5303 1.53033L1.53033 21.5303C1.23744 21.8232 0.762563 21.8232 0.46967 21.5303C0.176777 21.2374 0.176777 20.7626 0.46967 20.4697L20.4697 0.46967C20.7626 0.176777 21.2374 0.176777 21.5303 0.46967Z" fill="#101010"/>
</svg>
