<svg width="22" height="22" viewBox="0 0 22 22" fill="none" xmlns="http://www.w3.org/2000/svg">
<path fill-rule="evenodd" clip-rule="evenodd" d="M4.25 9C4.25 8.58579 4.58579 8.25 5 8.25H8C8.41421 8.25 8.75 8.58579 8.75 9C8.75 9.41421 8.41421 9.75 8 9.75H5C4.58579 9.75 4.25 9.41421 4.25 9Z" fill="#101010"/>
<path fill-rule="evenodd" clip-rule="evenodd" d="M19.5598 5.91005C19.8911 5.66153 20.3612 5.72868 20.6098 6.06005C21.2213 6.87541 21.5702 7.9202 21.4983 9.03761C21.4982 9.03785 21.4983 9.03737 21.4983 9.03761L20.9783 17.2972C20.9063 18.4372 20.5611 19.5631 19.7687 20.41C18.9618 21.2723 17.7811 21.7501 16.2398 21.7501H5.75977C5.34555 21.7501 5.00977 21.4143 5.00977 21.0001C5.00977 20.5858 5.34555 20.2501 5.75977 20.2501H16.2398C17.4585 20.2501 18.2077 19.8828 18.6734 19.3851C19.1534 18.8721 19.4232 18.1228 19.4813 17.2028L20.0013 8.94177C20.0492 8.19945 19.8181 7.50452 19.4098 6.96005C19.1612 6.62868 19.2284 6.15858 19.5598 5.91005Z" fill="#101010"/>
<path fill-rule="evenodd" clip-rule="evenodd" d="M7.90642 0.851191C8.48147 0.494923 9.17423 0.25 9.86016 0.25H12.1502C12.8323 0.25 13.5229 0.495717 14.0959 0.851647C14.6692 1.20774 15.1938 1.71694 15.4995 2.32165L15.5019 2.32644L16.2185 3.76968C16.374 4.06498 16.6797 4.25 17.0002 4.25C17.4144 4.25 17.7502 4.58579 17.7502 5C17.7502 5.41421 17.4144 5.75 17.0002 5.75C16.1024 5.75 15.2897 5.23707 14.8843 4.45524L14.8783 4.44361L14.1597 2.99624C14.0051 2.69158 13.7002 2.37169 13.3044 2.12585C12.9075 1.87928 12.488 1.75 12.1502 1.75H9.86016C9.51608 1.75 9.09385 1.88008 8.6964 2.12631C8.29986 2.37198 7.99518 2.6917 7.84058 2.99623L7.11608 4.45529C6.71068 5.23713 5.89788 5.75 5.00016 5.75C3.26145 5.75 1.88674 7.21588 1.99859 8.94149L1.99868 8.94288L2.51877 17.2044C2.56314 17.932 2.74723 18.5646 3.06574 19.0463C3.29422 19.3918 3.19935 19.8571 2.85385 20.0856C2.50835 20.3141 2.04305 20.2192 1.81457 19.8737C1.31323 19.1156 1.07731 18.2085 1.0216 17.2964C1.02158 17.2962 1.02161 17.2967 1.0216 17.2964L0.501729 9.03851C0.501714 9.03827 0.501745 9.03875 0.501729 9.03851C0.334001 6.44443 2.3991 4.25 5.00016 4.25C5.32065 4.25 5.62634 4.06499 5.78176 3.7697L6.5008 2.32164C6.80654 1.71681 7.33138 1.20745 7.90642 0.851191Z" fill="#101010"/>
<path fill-rule="evenodd" clip-rule="evenodd" d="M13.3457 11.3883C13.6946 11.165 14.1585 11.2668 14.3817 11.6157C14.7787 12.236 15 12.9662 15 13.75C15 15.9542 13.2042 17.75 11 17.75C10.0757 17.75 9.21449 17.4297 8.53809 16.9008C8.21177 16.6457 8.15405 16.1744 8.40918 15.848C8.6643 15.5217 9.13565 15.464 9.46197 15.7191C9.88558 16.0503 10.4243 16.25 11 16.25C12.3758 16.25 13.5 15.1258 13.5 13.75C13.5 13.2538 13.3613 12.804 13.1183 12.4243C12.895 12.0754 12.9969 11.6116 13.3457 11.3883Z" fill="#101010"/>
<path fill-rule="evenodd" clip-rule="evenodd" d="M21.5303 0.46967C21.8232 0.762563 21.8232 1.23744 21.5303 1.53033L1.53033 21.5303C1.23744 21.8232 0.762563 21.8232 0.46967 21.5303C0.176777 21.2374 0.176777 20.7626 0.46967 20.4697L20.4697 0.46967C20.7626 0.176777 21.2374 0.176777 21.5303 0.46967Z" fill="#101010"/>
</svg>
