<svg width="22" height="22" viewBox="0 0 22 22" fill="none" xmlns="http://www.w3.org/2000/svg">
<path fill-rule="evenodd" clip-rule="evenodd" d="M7.90642 0.851191C8.48147 0.494923 9.17423 0.25 9.86016 0.25H12.1502C12.8323 0.25 13.5229 0.495717 14.0959 0.851647C14.6692 1.20774 15.1938 1.71694 15.4995 2.32165L15.5019 2.32644L16.2185 3.76968C16.374 4.06498 16.6797 4.25 17.0002 4.25C19.6015 4.25 21.6667 6.44412 21.4986 9.03851L20.9787 17.2971C20.9067 18.4372 20.5615 19.563 19.7691 20.4099C18.9622 21.2722 17.7815 21.75 16.2402 21.75H5.76016C4.21915 21.75 3.03612 21.2724 2.22801 20.4105C1.43411 19.5636 1.08836 18.4376 1.02153 17.2954C1.0215 17.2948 1.02146 17.2942 1.02143 17.2936L0.501729 9.03851C0.501714 9.03827 0.501745 9.03875 0.501729 9.03851C0.334001 6.44443 2.3991 4.25 5.00016 4.25C5.32065 4.25 5.62634 4.06499 5.78176 3.7697L6.5008 2.32164C6.80654 1.71681 7.33138 1.20745 7.90642 0.851191ZM7.84058 2.99623L7.11608 4.45529C6.71068 5.23713 5.89788 5.75 5.00016 5.75C3.26145 5.75 1.88674 7.21588 1.99859 8.94149L1.99868 8.94288L2.5189 17.2064C2.57232 18.1236 2.84163 18.8718 3.32231 19.3845C3.7892 19.8826 4.54117 20.25 5.76016 20.25H16.2402C17.4588 20.25 18.2081 19.8828 18.6738 19.3851C19.1538 18.872 19.4236 18.1228 19.4816 17.2029C19.4816 17.2028 19.4816 17.2029 19.4816 17.2029L20.0017 8.94149C20.1136 7.21588 18.7389 5.75 17.0002 5.75C16.1024 5.75 15.2897 5.23707 14.8843 4.45524L14.8783 4.44361L14.1597 2.99624C14.0051 2.69158 13.7002 2.37169 13.3044 2.12585C12.9075 1.87928 12.488 1.75 12.1502 1.75H9.86016C9.51608 1.75 9.09385 1.88008 8.6964 2.12631C8.29986 2.37198 7.99518 2.6917 7.84058 2.99623Z" fill="#101010"/>
<path fill-rule="evenodd" clip-rule="evenodd" d="M8.75 7C8.75 6.58579 9.08579 6.25 9.5 6.25H12.5C12.9142 6.25 13.25 6.58579 13.25 7C13.25 7.41421 12.9142 7.75 12.5 7.75H9.5C9.08579 7.75 8.75 7.41421 8.75 7Z" fill="#101010"/>
<path fill-rule="evenodd" clip-rule="evenodd" d="M7 13.75C7 11.5458 8.79579 9.75 11 9.75C13.2042 9.75 15 11.5458 15 13.75C15 15.9542 13.2042 17.75 11 17.75C8.79579 17.75 7 15.9542 7 13.75ZM11 11.25C9.62421 11.25 8.5 12.3742 8.5 13.75C8.5 15.1258 9.62421 16.25 11 16.25C12.3758 16.25 13.5 15.1258 13.5 13.75C13.5 12.3742 12.3758 11.25 11 11.25Z" fill="#101010"/>
</svg>
