<svg width="22" height="20" viewBox="0 0 22 20" fill="none" xmlns="http://www.w3.org/2000/svg">
<path fill-rule="evenodd" clip-rule="evenodd" d="M0.246094 6.5C0.246094 6.08579 0.58188 5.75 0.996094 5.75H10.4961C10.9103 5.75 11.2461 6.08579 11.2461 6.5C11.2461 6.91421 10.9103 7.25 10.4961 7.25H0.996094C0.58188 7.25 0.246094 6.91421 0.246094 6.5Z" fill="#101010"/>
<path fill-rule="evenodd" clip-rule="evenodd" d="M4.24609 14.5C4.24609 14.0858 4.58188 13.75 4.99609 13.75H6.99609C7.41031 13.75 7.74609 14.0858 7.74609 14.5C7.74609 14.9142 7.41031 15.25 6.99609 15.25H4.99609C4.58188 15.25 4.24609 14.9142 4.24609 14.5Z" fill="#101010"/>
<path fill-rule="evenodd" clip-rule="evenodd" d="M8.74609 14.5C8.74609 14.0858 9.08188 13.75 9.49609 13.75H13.4961C13.9103 13.75 14.2461 14.0858 14.2461 14.5C14.2461 14.9142 13.9103 15.25 13.4961 15.25H9.49609C9.08188 15.25 8.74609 14.9142 8.74609 14.5Z" fill="#101010"/>
<path fill-rule="evenodd" clip-rule="evenodd" d="M2.41216 2.91207C1.9871 3.33235 1.74609 4.13117 1.74609 5.89V14.11C1.74609 15.8688 1.9871 16.6676 2.41216 17.0879C2.84018 17.5111 3.6551 17.75 5.43609 17.75H16.5561C18.3371 17.75 19.152 17.5111 19.58 17.0879C20.0051 16.6676 20.2461 15.8688 20.2461 14.11V10.03C20.2461 9.61579 20.5819 9.28 20.9961 9.28C21.4103 9.28 21.7461 9.61579 21.7461 10.03V14.11C21.7461 15.8612 21.5421 17.2574 20.6347 18.1546C19.7302 19.0489 18.3251 19.25 16.5561 19.25H5.43609C3.66709 19.25 2.26201 19.0489 1.35752 18.1546C0.450087 17.2574 0.246094 15.8612 0.246094 14.11V5.89C0.246094 4.13883 0.450087 2.74265 1.35752 1.84543C2.26201 0.951125 3.66709 0.75 5.43609 0.75H13.4961C13.9103 0.75 14.2461 1.08579 14.2461 1.5C14.2461 1.91421 13.9103 2.25 13.4961 2.25H5.43609C3.6551 2.25 2.84018 2.48887 2.41216 2.91207Z" fill="#101010"/>
<path fill-rule="evenodd" clip-rule="evenodd" d="M19.0544 0.792097C19.7373 0.727589 20.3675 1.04061 20.9365 1.60969C21.5024 2.17557 21.8119 2.80433 21.7451 3.4857C21.6822 4.12767 21.299 4.62792 20.9365 4.99035L17.2265 8.70035C17.0809 8.84596 16.9007 8.95883 16.7441 9.03709C16.5868 9.11576 16.3895 9.19141 16.1875 9.22172L16.1808 9.22272L14.7582 9.42306C14.3027 9.48558 13.8408 9.36031 13.5084 9.02785C13.1759 8.69539 13.0507 8.23351 13.1132 7.77804L13.1135 7.77542L13.3145 6.34876C13.3448 6.1467 13.4205 5.94944 13.4991 5.79211C13.5774 5.63558 13.6903 5.4553 13.8359 5.30969L17.5459 1.59969C17.9083 1.23729 18.4095 0.853016 19.0544 0.792097ZM19.1955 2.28545C19.0729 2.29703 18.8841 2.38275 18.6065 2.66035L14.8991 6.36778C14.8979 6.36925 14.8924 6.37585 14.8836 6.38886C14.8705 6.40813 14.8555 6.43359 14.8408 6.46293C14.8261 6.49224 14.8145 6.52013 14.8065 6.54325C14.8005 6.56062 14.7983 6.57043 14.7978 6.5726L14.6066 7.9296L15.9636 7.73847C15.9658 7.73797 15.9756 7.73569 15.993 7.72969C16.0161 7.7217 16.044 7.7101 16.0733 7.69545C16.1026 7.68078 16.1281 7.6657 16.1474 7.65263C16.1604 7.6438 16.167 7.63833 16.1685 7.63712L19.8759 3.92969C20.1535 3.65212 20.2402 3.46237 20.2523 3.33934C20.2605 3.25571 20.25 3.04448 19.8759 2.67035C19.495 2.28944 19.2801 2.27746 19.1955 2.28545Z" fill="#101010"/>
<path fill-rule="evenodd" clip-rule="evenodd" d="M17.3417 1.93836C17.7403 1.8255 18.1549 2.05709 18.2677 2.45563C18.5173 3.33686 19.2019 4.01794 20.0662 4.25716C20.4654 4.36765 20.6994 4.78085 20.5889 5.18005C20.4784 5.57925 20.0652 5.8133 19.666 5.70281C18.2903 5.32202 17.2149 4.2431 16.8245 2.86434C16.7116 2.46579 16.9432 2.05122 17.3417 1.93836Z" fill="#101010"/>
</svg>
