<svg width="22" height="21" viewBox="0 0 22 21" fill="none" xmlns="http://www.w3.org/2000/svg">
<path fill-rule="evenodd" clip-rule="evenodd" d="M0.148438 8.03027C0.148438 7.61606 0.484224 7.28027 0.898438 7.28027H20.8984C21.3127 7.28027 21.6484 7.61606 21.6484 8.03027C21.6484 8.44449 21.3127 8.78027 20.8984 8.78027H0.898438C0.484224 8.78027 0.148438 8.44449 0.148438 8.03027Z" fill="#101010"/>
<path fill-rule="evenodd" clip-rule="evenodd" d="M4.46338 2.30927C4.73985 2.29942 5.03575 2.29004 5.34839 2.29004H16.4584C18.2391 2.29004 19.0576 2.52875 19.4883 2.95309C19.9153 3.37366 20.1584 4.17259 20.1584 5.93004V10.34C20.1584 10.7543 20.4942 11.09 20.9084 11.09C21.3226 11.09 21.6584 10.7543 21.6584 10.34V5.93004C21.6584 4.17749 21.4515 2.78142 20.541 1.88448C19.6343 0.991328 18.2278 0.790039 16.4584 0.790039H5.34839C5.00412 0.790039 4.68282 0.800479 4.40164 0.810521L4.38547 0.811274C2.9394 0.894202 1.77187 1.20619 1.02971 2.14129C0.320831 3.03446 0.148438 4.32534 0.148438 5.92004V14.14C0.148438 15.8926 0.355306 17.2887 1.26584 18.1856C2.17254 19.0788 3.57903 19.28 5.34839 19.28H10.4584C10.8726 19.28 11.2084 18.9443 11.2084 18.53C11.2084 18.1158 10.8726 17.78 10.4584 17.78H5.34839C3.56775 17.78 2.74927 17.5413 2.31849 17.117C1.89154 16.6964 1.64844 15.8975 1.64844 14.14V5.92004C1.64844 4.33475 1.84603 3.52563 2.20463 3.07379C2.52931 2.6647 3.12505 2.38698 4.46338 2.30927Z" fill="#101010"/>
<path fill-rule="evenodd" clip-rule="evenodd" d="M16.8984 12.7803C15.1035 12.7803 13.6484 14.2353 13.6484 16.0303C13.6484 17.8252 15.1035 19.2803 16.8984 19.2803C18.6934 19.2803 20.1484 17.8252 20.1484 16.0303C20.1484 14.2353 18.6934 12.7803 16.8984 12.7803ZM12.1484 16.0303C12.1484 13.4069 14.2751 11.2803 16.8984 11.2803C19.5218 11.2803 21.6484 13.4069 21.6484 16.0303C21.6484 18.6536 19.5218 20.7803 16.8984 20.7803C14.2751 20.7803 12.1484 18.6536 12.1484 16.0303Z" fill="#101010"/>
<path fill-rule="evenodd" clip-rule="evenodd" d="M15.3303 14.4987C15.6239 14.2065 16.0988 14.2076 16.391 14.5012L18.5009 16.6212C18.7931 16.9148 18.792 17.3897 18.4984 17.6819C18.2048 17.9741 17.73 17.9729 17.4378 17.6793L15.3278 15.5593C15.0356 15.2658 15.0367 14.7909 15.3303 14.4987Z" fill="#101010"/>
<path fill-rule="evenodd" clip-rule="evenodd" d="M18.4797 14.5312C18.7719 14.8248 18.7708 15.2997 18.4772 15.5919L16.3572 17.7019C16.0636 17.9941 15.5887 17.993 15.2965 17.6994C15.0043 17.4058 15.0055 16.9309 15.299 16.6387L17.419 14.5287C17.7126 14.2365 18.1875 14.2376 18.4797 14.5312Z" fill="#101010"/>
<path fill-rule="evenodd" clip-rule="evenodd" d="M4.14844 14.0303C4.14844 13.6161 4.48422 13.2803 4.89844 13.2803H8.89844C9.31265 13.2803 9.64844 13.6161 9.64844 14.0303C9.64844 14.4445 9.31265 14.7803 8.89844 14.7803H4.89844C4.48422 14.7803 4.14844 14.4445 4.14844 14.0303Z" fill="#101010"/>
</svg>
