<svg width="22" height="20" viewBox="0 0 22 20" fill="none" xmlns="http://www.w3.org/2000/svg">
<path fill-rule="evenodd" clip-rule="evenodd" d="M0.250488 6.50494C0.250488 6.09073 0.586275 5.75494 1.00049 5.75494H21.0005C21.4147 5.75494 21.7505 6.09073 21.7505 6.50494C21.7505 6.91916 21.4147 7.25494 21.0005 7.25494H1.00049C0.586275 7.25494 0.250488 6.91916 0.250488 6.50494Z" fill="#101010"/>
<path fill-rule="evenodd" clip-rule="evenodd" d="M4.25049 14.5049C4.25049 14.0907 4.58627 13.7549 5.00049 13.7549H7.00049C7.4147 13.7549 7.75049 14.0907 7.75049 14.5049C7.75049 14.9192 7.4147 15.2549 7.00049 15.2549H5.00049C4.58627 15.2549 4.25049 14.9192 4.25049 14.5049Z" fill="#101010"/>
<path fill-rule="evenodd" clip-rule="evenodd" d="M8.75049 14.5049C8.75049 14.0907 9.08627 13.7549 9.50049 13.7549H13.5005C13.9147 13.7549 14.2505 14.0907 14.2505 14.5049C14.2505 14.9192 13.9147 15.2549 13.5005 15.2549H9.50049C9.08627 15.2549 8.75049 14.9192 8.75049 14.5049Z" fill="#101010"/>
<path fill-rule="evenodd" clip-rule="evenodd" d="M2.41656 2.91702C1.9915 3.33729 1.75049 4.13612 1.75049 5.89494V14.1149C1.75049 15.8741 1.99164 16.6723 2.41605 17.0911C2.84321 17.5127 3.65727 17.75 5.43838 17.7449L5.44049 17.7449L16.5605 17.7449C18.3415 17.7449 19.1564 17.5061 19.5844 17.0829C20.0095 16.6626 20.2505 15.8638 20.2505 14.1049V5.89494C20.2505 4.13605 20.0094 3.3377 19.5837 2.91751C19.1544 2.4939 18.3368 2.25494 16.5505 2.25494H5.44049C3.65949 2.25494 2.84457 2.49382 2.41656 2.91702ZM1.36192 1.85037C2.2664 0.956069 3.67148 0.754944 5.44049 0.754944H16.5505C18.3241 0.754944 19.7315 0.955987 20.6373 1.84988C21.5465 2.74719 21.7505 4.14384 21.7505 5.89494V14.1049C21.7505 15.8561 21.5465 17.2523 20.6391 18.1495C19.7346 19.0438 18.3295 19.2449 16.5605 19.2449H5.44123C3.67298 19.2498 2.26753 19.052 1.36243 18.1588C0.454341 17.2626 0.250488 15.8658 0.250488 14.1149V5.89494C0.250488 4.14377 0.454481 2.74759 1.36192 1.85037Z" fill="#101010"/>
</svg>
