<svg width="22" height="22" viewBox="0 0 22 22" fill="none" xmlns="http://www.w3.org/2000/svg">
<path fill-rule="evenodd" clip-rule="evenodd" d="M0.250488 7.5C0.250488 7.08579 0.586275 6.75 1.00049 6.75H14.2405C14.6547 6.75 14.9905 7.08579 14.9905 7.5C14.9905 7.91421 14.6547 8.25 14.2405 8.25H1.00049C0.586275 8.25 0.250488 7.91421 0.250488 7.5Z" fill="#101010"/>
<path fill-rule="evenodd" clip-rule="evenodd" d="M4.25049 15.5C4.25049 15.0858 4.58627 14.75 5.00049 14.75H6.29049C6.7047 14.75 7.04049 15.0858 7.04049 15.5C7.04049 15.9142 6.7047 16.25 6.29049 16.25H5.00049C4.58627 16.25 4.25049 15.9142 4.25049 15.5Z" fill="#101010"/>
<path fill-rule="evenodd" clip-rule="evenodd" d="M9.25049 15.5C9.25049 15.0858 9.58627 14.75 10.0005 14.75H13.5005C13.9147 14.75 14.2505 15.0858 14.2505 15.5C14.2505 15.9142 13.9147 16.25 13.5005 16.25H10.0005C9.58627 16.25 9.25049 15.9142 9.25049 15.5Z" fill="#101010"/>
<path fill-rule="evenodd" clip-rule="evenodd" d="M21.0005 5.14001C21.4147 5.14001 21.7505 5.4758 21.7505 5.89001V15.11C21.7505 16.8597 21.5494 18.2565 20.6433 19.1541C19.7398 20.0491 18.3338 20.25 16.5605 20.25H6.98047C6.56626 20.25 6.23047 19.9142 6.23047 19.5C6.23047 19.0858 6.56626 18.75 6.98047 18.75H16.5605C18.3472 18.75 19.1612 18.5109 19.5876 18.0884C20.0115 17.6685 20.2505 16.8703 20.2505 15.11V5.89001C20.2505 5.4758 20.5863 5.14001 21.0005 5.14001Z" fill="#101010"/>
<path fill-rule="evenodd" clip-rule="evenodd" d="M1.36192 2.84543C2.2664 1.95113 3.67148 1.75 5.44049 1.75H16.5605C17.5919 1.75 18.4766 1.81983 19.1996 2.02974C19.5974 2.14523 19.8262 2.56132 19.7107 2.95911C19.5953 3.3569 19.1792 3.58575 18.7814 3.47026C18.2644 3.32017 17.5491 3.25 16.5605 3.25H5.44049C3.65949 3.25 2.84457 3.48887 2.41656 3.91207C1.9915 4.33235 1.75049 5.13117 1.75049 6.89V15.1C1.75049 16.2505 1.85 17.0068 2.05592 17.5167C2.24052 17.9738 2.51469 18.2468 2.98538 18.4322C3.37077 18.584 3.56011 19.0195 3.40829 19.4049C3.25648 19.7903 2.82098 19.9796 2.4356 19.8278C1.58628 19.4932 1.00546 18.9212 0.665057 18.0783C0.345977 17.2882 0.250488 16.2895 0.250488 15.1V6.89C0.250488 5.13883 0.454481 3.74265 1.36192 2.84543Z" fill="#101010"/>
<path fill-rule="evenodd" clip-rule="evenodd" d="M21.5308 0.46967C21.8237 0.762563 21.8237 1.23744 21.5308 1.53033L1.53082 21.5303C1.23793 21.8232 0.763051 21.8232 0.470158 21.5303C0.177265 21.2374 0.177265 20.7626 0.470158 20.4697L20.4702 0.46967C20.7631 0.176777 21.2379 0.176777 21.5308 0.46967Z" fill="#101010"/>
</svg>
