<svg width="22" height="20" viewBox="0 0 22 20" fill="none" xmlns="http://www.w3.org/2000/svg">
<path fill-rule="evenodd" clip-rule="evenodd" d="M0.25 10.61C0.25 10.1958 0.585786 9.85999 1 9.85999H18C18.4142 9.85999 18.75 10.1958 18.75 10.61C18.75 11.0242 18.4142 11.36 18 11.36H1C0.585786 11.36 0.25 11.0242 0.25 10.61Z" fill="#101010"/>
<path fill-rule="evenodd" clip-rule="evenodd" d="M4.03784 5.31912C2.90924 5.38657 2.44461 5.62105 2.19902 5.9309C1.91992 6.28305 1.75 6.93532 1.75 8.28005V15.2701C1.75 16.7631 1.95829 17.397 2.2843 17.7187C2.61379 18.0438 3.26443 18.25 4.78003 18.25H14.22C15.71 18.25 16.3641 18.0522 16.6986 17.7375C17.0198 17.4354 17.2347 16.8423 17.25 15.4261V8.28005C17.25 6.78701 17.0417 6.1531 16.7157 5.8314C16.3862 5.50627 15.7356 5.30005 14.22 5.30005H4.78003C4.51934 5.30005 4.27492 5.30926 4.03784 5.31912ZM3.96878 3.8207C4.20963 3.81066 4.48314 3.80005 4.78003 3.80005H14.22C15.7244 3.80005 16.9637 3.96882 17.7693 4.7637C18.5783 5.562 18.75 6.79308 18.75 8.28005V15.4379C18.7349 16.8689 18.5449 18.06 17.7264 18.8301C16.9208 19.5879 15.7 19.75 14.22 19.75H4.78003C3.27563 19.75 2.03626 19.5813 1.23073 18.7864C0.421725 17.9881 0.25 16.757 0.25 15.2701V8.28005C0.25 6.92477 0.39508 5.79204 1.02348 4.99919C1.68493 4.16463 2.71901 3.89441 3.95577 3.82135L3.96878 3.8207Z" fill="#101010"/>
<path fill-rule="evenodd" clip-rule="evenodd" d="M4.78396 3.8H14.22C15.7244 3.8 16.9637 3.96878 17.7693 4.76365C18.5783 5.56195 18.75 6.79303 18.75 8.28V14.5897C19.3291 14.4792 19.6227 14.294 19.801 14.0691C20.0801 13.717 20.25 13.0647 20.25 11.72V4.73C20.25 3.23697 20.0417 2.60305 19.7157 2.28135C19.3862 1.95622 18.7356 1.75 17.22 1.75H7.78003C6.29005 1.75 5.63589 1.94785 5.30142 2.26251C5.04629 2.50253 4.8582 2.9261 4.78396 3.8ZM4.27361 1.16999C5.07916 0.412149 6.30001 0.25 7.78003 0.25H17.22C18.7244 0.25 19.9637 0.418776 20.7693 1.21365C21.5783 2.01195 21.75 3.24303 21.75 4.73V11.72C21.75 13.0753 21.6049 14.208 20.9765 15.0009C20.3151 15.8354 19.281 16.1056 18.0442 16.1787C17.838 16.1909 17.6359 16.1175 17.4855 15.9757C17.3352 15.834 17.25 15.6366 17.25 15.43V8.28C17.25 6.78696 17.0417 6.15305 16.7157 5.83135C16.3862 5.50622 15.7356 5.3 14.22 5.3H4.78003C4.51692 5.3 4.27037 5.30938 4.03122 5.31935C3.8257 5.32791 3.62568 5.25169 3.47798 5.10852C3.33029 4.96534 3.24788 4.76779 3.25004 4.56211C3.2651 3.13117 3.45507 1.94005 4.27361 1.16999Z" fill="#101010"/>
<path fill-rule="evenodd" clip-rule="evenodd" d="M3.5 15.8101C3.5 15.3958 3.83579 15.0601 4.25 15.0601H5.96997C6.38418 15.0601 6.71997 15.3958 6.71997 15.8101C6.71997 16.2243 6.38418 16.5601 5.96997 16.5601H4.25C3.83579 16.5601 3.5 16.2243 3.5 15.8101Z" fill="#101010"/>
<path fill-rule="evenodd" clip-rule="evenodd" d="M7.36035 15.8101C7.36035 15.3958 7.69614 15.0601 8.11035 15.0601H11.5504C11.9646 15.0601 12.3004 15.3958 12.3004 15.8101C12.3004 16.2243 11.9646 16.5601 11.5504 16.5601H8.11035C7.69614 16.5601 7.36035 16.2243 7.36035 15.8101Z" fill="#101010"/>
</svg>
