<svg width="23" height="22" viewBox="0 0 23 22" fill="none" xmlns="http://www.w3.org/2000/svg">
<path fill-rule="evenodd" clip-rule="evenodd" d="M0.25 16.0601C0.25 15.6458 0.585786 15.3101 1 15.3101H11C11.4142 15.3101 11.75 15.6458 11.75 16.0601C11.75 16.4743 11.4142 16.8101 11 16.8101H1C0.585786 16.8101 0.25 16.4743 0.25 16.0601Z" fill="#101010"/>
<path fill-rule="evenodd" clip-rule="evenodd" d="M1.97082 13.4723C1.87902 13.5634 1.75 13.8143 1.75 14.7V18.81C1.75 19.6957 1.87902 19.9466 1.97082 20.0377C2.06467 20.1308 2.32318 20.26 3.21997 20.26H8.78003C9.67682 20.26 9.93533 20.1308 10.0292 20.0377C10.121 19.9466 10.25 19.6957 10.25 18.81V14.7C10.25 13.8143 10.121 13.5634 10.0292 13.4723C9.93533 13.3792 9.67682 13.25 8.78003 13.25H3.21997C2.32318 13.25 2.06467 13.3792 1.97082 13.4723ZM0.914154 12.4077C1.48529 11.8408 2.33676 11.75 3.21997 11.75H8.78003C9.66324 11.75 10.5147 11.8408 11.0858 12.4077C11.659 12.9766 11.75 13.8257 11.75 14.7V18.81C11.75 19.6844 11.659 20.5334 11.0858 21.1023C10.5147 21.6692 9.66324 21.76 8.78003 21.76H3.21997C2.33676 21.76 1.48529 21.6692 0.914154 21.1023C0.340962 20.5334 0.25 19.6844 0.25 18.81V14.7C0.25 13.8257 0.340962 12.9766 0.914154 12.4077Z" fill="#101010"/>
<path fill-rule="evenodd" clip-rule="evenodd" d="M21 13.25C21.4142 13.25 21.75 13.5858 21.75 14C21.75 18.2842 18.2842 21.75 14 21.75C13.7298 21.75 13.4805 21.6047 13.3474 21.3695C13.2142 21.1344 13.2179 20.8458 13.3569 20.6141L14.4069 18.8641C14.62 18.5089 15.0807 18.3938 15.4359 18.6069C15.791 18.82 15.9062 19.2807 15.6931 19.6359L15.4218 20.0881C18.1909 19.4456 20.25 16.9666 20.25 14C20.25 13.5858 20.5858 13.25 21 13.25Z" fill="#101010"/>
<path fill-rule="evenodd" clip-rule="evenodd" d="M6.57821 1.91194C3.8091 2.55436 1.75 5.03342 1.75 8C1.75 8.41421 1.41421 8.75 1 8.75C0.585786 8.75 0.25 8.41421 0.25 8C0.25 3.71579 3.71579 0.25 8 0.25C8.2702 0.25 8.51952 0.395344 8.65265 0.630474C8.78578 0.865605 8.78214 1.15417 8.64312 1.38587L7.59313 3.13587C7.38002 3.49105 6.91933 3.60623 6.56414 3.39312C6.20896 3.18001 6.09378 2.71932 6.30689 2.36413L6.57821 1.91194Z" fill="#101010"/>
<path fill-rule="evenodd" clip-rule="evenodd" d="M17.5 1.75C15.4289 1.75 13.75 3.42893 13.75 5.5C13.75 7.57107 15.4289 9.25 17.5 9.25C19.5711 9.25 21.25 7.57107 21.25 5.5C21.25 3.42893 19.5711 1.75 17.5 1.75ZM12.25 5.5C12.25 2.6005 14.6005 0.25 17.5 0.25C20.3995 0.25 22.75 2.6005 22.75 5.5C22.75 8.3995 20.3995 10.75 17.5 10.75C14.6005 10.75 12.25 8.3995 12.25 5.5Z" fill="#101010"/>
</svg>
