<svg width="22" height="22" viewBox="0 0 22 22" fill="none" xmlns="http://www.w3.org/2000/svg">
<path fill-rule="evenodd" clip-rule="evenodd" d="M11 1.75C5.89137 1.75 1.75 5.89137 1.75 11C1.75 16.1086 5.89137 20.25 11 20.25C16.1086 20.25 20.25 16.1086 20.25 11C20.25 5.89137 16.1086 1.75 11 1.75ZM0.25 11C0.25 5.06294 5.06294 0.25 11 0.25C16.9371 0.25 21.75 5.06294 21.75 11C21.75 16.9371 16.9371 21.75 11 21.75C5.06294 21.75 0.25 16.9371 0.25 11Z" fill="#101010"/>
<path fill-rule="evenodd" clip-rule="evenodd" d="M11 9.74976C10.3096 9.74976 9.75 10.3094 9.75 10.9998C9.75 11.6901 10.3096 12.2498 11 12.2498C11.6904 12.2498 12.25 11.6901 12.25 10.9998C12.25 10.3094 11.6904 9.74976 11 9.74976ZM8.25 10.9998C8.25 9.48097 9.48122 8.24976 11 8.24976C12.5188 8.24976 13.75 9.48097 13.75 10.9998C13.75 12.5185 12.5188 13.7498 11 13.7498C9.48122 13.7498 8.25 12.5185 8.25 10.9998Z" fill="#101010"/>
</svg>
