<svg width="22" height="22" viewBox="0 0 22 22" fill="none" xmlns="http://www.w3.org/2000/svg">
<path fill-rule="evenodd" clip-rule="evenodd" d="M6 8.98999C6.41421 8.98999 6.75 9.32578 6.75 9.73999V12.94C6.75 13.3542 6.41421 13.69 6 13.69C5.58579 13.69 5.25 13.3542 5.25 12.94V9.73999C5.25 9.32578 5.58579 8.98999 6 8.98999Z" fill="#101010"/>
<path fill-rule="evenodd" clip-rule="evenodd" d="M11 7.25C11.4142 7.25 11.75 7.58579 11.75 8V14.68C11.75 15.0942 11.4142 15.43 11 15.43C10.5858 15.43 10.25 15.0942 10.25 14.68V8C10.25 7.58579 10.5858 7.25 11 7.25Z" fill="#101010"/>
<path fill-rule="evenodd" clip-rule="evenodd" d="M16 8.98999C16.4142 8.98999 16.75 9.32578 16.75 9.73999V12.94C16.75 13.3542 16.4142 13.69 16 13.69C15.5858 13.69 15.25 13.3542 15.25 12.94V9.73999C15.25 9.32578 15.5858 8.98999 16 8.98999Z" fill="#101010"/>
<path fill-rule="evenodd" clip-rule="evenodd" d="M2.09467 2.09467C3.42914 0.760201 5.42603 0.25 8 0.25H14C16.574 0.25 18.5709 0.760201 19.9053 2.09467C21.2398 3.42914 21.75 5.42603 21.75 8V14C21.75 16.574 21.2398 18.5709 19.9053 19.9053C18.5709 21.2398 16.574 21.75 14 21.75H8C5.42603 21.75 3.42914 21.2398 2.09467 19.9053C0.760201 18.5709 0.25 16.574 0.25 14V8C0.25 5.42603 0.760201 3.42914 2.09467 2.09467ZM3.15533 3.15533C2.2398 4.07086 1.75 5.57397 1.75 8V14C1.75 16.426 2.2398 17.9291 3.15533 18.8447C4.07086 19.7602 5.57397 20.25 8 20.25H14C16.426 20.25 17.9291 19.7602 18.8447 18.8447C19.7602 17.9291 20.25 16.426 20.25 14V8C20.25 5.57397 19.7602 4.07086 18.8447 3.15533C17.9291 2.2398 16.426 1.75 14 1.75H8C5.57397 1.75 4.07086 2.2398 3.15533 3.15533Z" fill="#101010"/>
</svg>
