<svg width="22" height="22" viewBox="0 0 22 22" fill="none" xmlns="http://www.w3.org/2000/svg">
<path fill-rule="evenodd" clip-rule="evenodd" d="M4.57031 11.29C4.57031 10.2457 5.41611 9.40002 6.4603 9.40002H9.11029V10.15H9.86029V16.41C9.86029 16.8242 9.5245 17.16 9.11029 17.16H5.32031C4.9061 17.16 4.57031 16.8242 4.57031 16.41V11.29ZM8.36029 10.9H6.4603C6.24448 10.9 6.07031 11.0742 6.07031 11.29V15.66H8.36029V10.9Z" fill="#101010"/>
<path fill-rule="evenodd" clip-rule="evenodd" d="M8.35156 6.73999C8.35156 5.6958 9.19731 4.84998 10.2415 4.84998H11.7616C12.8144 4.84998 13.6416 5.70443 13.6416 6.73999V16.4C13.6416 16.8142 13.3058 17.15 12.8916 17.15H9.10156C8.68735 17.15 8.35156 16.8142 8.35156 16.4V6.73999ZM10.2415 6.34998C10.0258 6.34998 9.85156 6.52418 9.85156 6.73999V15.65H12.1416V6.73999C12.1416 6.51555 11.9687 6.34998 11.7616 6.34998H10.2415Z" fill="#101010"/>
<path fill-rule="evenodd" clip-rule="evenodd" d="M12.1484 11.85C12.1484 11.4358 12.4842 11.1 12.8984 11.1H15.5484C16.5891 11.1 17.422 11.9497 17.4384 12.9781L17.4385 12.99H17.4384V16.4C17.4384 16.8142 17.1027 17.15 16.6884 17.15H12.8984C12.4842 17.15 12.1484 16.8142 12.1484 16.4V11.85ZM13.6484 12.6V15.65H15.9384V12.9974C15.9324 12.768 15.7465 12.6 15.5484 12.6H13.6484Z" fill="#101010"/>
<path fill-rule="evenodd" clip-rule="evenodd" d="M2.09467 2.09467C3.42914 0.760201 5.42603 0.25 8 0.25H14C16.574 0.25 18.5709 0.760201 19.9053 2.09467C21.2398 3.42914 21.75 5.42603 21.75 8V14C21.75 16.574 21.2398 18.5709 19.9053 19.9053C18.5709 21.2398 16.574 21.75 14 21.75H8C5.42603 21.75 3.42914 21.2398 2.09467 19.9053C0.760201 18.5709 0.25 16.574 0.25 14V8C0.25 5.42603 0.760201 3.42914 2.09467 2.09467ZM3.15533 3.15533C2.2398 4.07086 1.75 5.57397 1.75 8V14C1.75 16.426 2.2398 17.9291 3.15533 18.8447C4.07086 19.7602 5.57397 20.25 8 20.25H14C16.426 20.25 17.9291 19.7602 18.8447 18.8447C19.7602 17.9291 20.25 16.426 20.25 14V8C20.25 5.57397 19.7602 4.07086 18.8447 3.15533C17.9291 2.2398 16.426 1.75 14 1.75H8C5.57397 1.75 4.07086 2.2398 3.15533 3.15533Z" fill="#101010"/>
</svg>
