<svg width="22" height="22" viewBox="0 0 22 22" fill="none" xmlns="http://www.w3.org/2000/svg">
<path fill-rule="evenodd" clip-rule="evenodd" d="M10.25 1C10.25 0.585786 10.5858 0.25 11 0.25C16.9342 0.25 21.75 5.06579 21.75 11C21.75 16.9342 16.9342 21.75 11 21.75C5.06579 21.75 0.25 16.9342 0.25 11C0.25 8.57141 1.05654 6.32363 2.42171 4.51772C2.6715 4.1873 3.14185 4.12193 3.47228 4.37171C3.8027 4.6215 3.86807 5.09185 3.61829 5.42228C2.44346 6.97637 1.75 8.9086 1.75 11C1.75 16.1058 5.89421 20.25 11 20.25C16.1058 20.25 20.25 16.1058 20.25 11C20.25 5.89421 16.1058 1.75 11 1.75C10.5858 1.75 10.25 1.41421 10.25 1Z" fill="#101010"/>
<path fill-rule="evenodd" clip-rule="evenodd" d="M10.25 4C10.25 3.58579 10.5858 3.25 11 3.25C15.2842 3.25 18.75 6.71579 18.75 11C18.75 15.2842 15.2842 18.75 11 18.75C6.71579 18.75 3.25 15.2842 3.25 11C3.25 10.5858 3.58579 10.25 4 10.25C4.41421 10.25 4.75 10.5858 4.75 11C4.75 14.4558 7.54421 17.25 11 17.25C14.4558 17.25 17.25 14.4558 17.25 11C17.25 7.54421 14.4558 4.75 11 4.75C10.5858 4.75 10.25 4.41421 10.25 4Z" fill="#101010"/>
<path fill-rule="evenodd" clip-rule="evenodd" d="M10.25 7C10.25 6.58579 10.5858 6.25 11 6.25C13.6242 6.25 15.75 8.37579 15.75 11C15.75 13.6242 13.6242 15.75 11 15.75C10.5858 15.75 10.25 15.4142 10.25 15C10.25 14.5858 10.5858 14.25 11 14.25C12.7958 14.25 14.25 12.7958 14.25 11C14.25 9.20421 12.7958 7.75 11 7.75C10.5858 7.75 10.25 7.41421 10.25 7Z" fill="#101010"/>
</svg>
