<svg width="21" height="22" viewBox="0 0 21 22" fill="none" xmlns="http://www.w3.org/2000/svg">
<path fill-rule="evenodd" clip-rule="evenodd" d="M2.6007 5.87748C2.60069 5.87758 2.60072 5.87739 2.6007 5.87748L1.86097 10.5658C1.86094 10.566 1.861 10.5656 1.86097 10.5658C1.47804 13.0172 1.92097 14.3 3.01863 15.0646L3.02438 15.0686C3.653 15.5153 4.56581 15.8484 5.85524 16.0489L5.85685 16.0492L10.5456 16.789C10.5458 16.789 10.5454 16.789 10.5456 16.789C12.4269 17.0824 13.6123 16.8772 14.392 16.3089C15.1718 15.7406 15.7306 14.6749 16.0291 12.7934C16.0291 12.7931 16.029 12.7937 16.0291 12.7934L16.7589 8.10468C16.8739 7.36675 16.9167 6.73542 16.8816 6.1991L16.8809 6.18898C16.8238 5.09072 16.4837 4.35206 15.8889 3.82049C15.2675 3.2651 14.28 2.85602 12.7743 2.62106L8.08435 1.88106C8.08413 1.88103 8.08457 1.8811 8.08435 1.88106C6.20307 1.58765 5.01764 1.79286 4.23795 2.36113C3.45804 2.92955 2.89913 3.9957 2.6007 5.87748ZM3.35446 1.14892C4.61218 0.232252 6.28722 0.0825467 8.31557 0.398989L8.31685 0.399189L13.0056 1.13899C13.0058 1.13903 13.0054 1.13896 13.0056 1.13899C14.6396 1.39406 15.9575 1.87006 16.8885 2.70206C17.8451 3.55696 18.3049 4.70655 18.3787 6.10601C18.4229 6.78828 18.3657 7.53533 18.241 8.33537C18.241 8.33542 18.241 8.33533 18.241 8.33537L17.511 13.0254L17.5107 13.0275C17.1891 15.0555 16.533 16.6046 15.2755 17.5211C14.0177 18.4378 12.3427 18.5875 10.3143 18.2711L10.3131 18.2709L5.62468 17.5311C5.62461 17.5311 5.62475 17.5311 5.62468 17.5311C4.21571 17.3119 3.04939 16.9256 2.15842 16.2934C0.358604 15.0379 -0.0377465 13.0011 0.378948 10.3342L1.11912 5.64313C1.4407 3.6151 2.09691 2.06547 3.35446 1.14892Z" fill="#101010"/>
<path fill-rule="evenodd" clip-rule="evenodd" d="M17.2227 5.52019C17.4511 5.37251 17.7416 5.36008 17.9818 5.48772C19.3019 6.18918 20.2012 7.12714 20.5714 8.4036C20.9316 9.64539 20.752 11.0801 20.2116 12.7065L18.7116 17.2166C18.0634 19.1665 17.1633 20.5879 15.7718 21.2844C14.3805 21.9809 12.7029 21.8499 10.7533 21.2017L6.2446 19.7022C6.24436 19.7021 6.24484 19.7022 6.2446 19.7022C3.88153 18.9213 2.30974 17.7515 1.86008 15.8529C1.78812 15.5491 1.91192 15.2324 2.17087 15.058C2.42983 14.8836 2.76977 14.8878 3.02429 15.0686C3.65291 15.5153 4.56574 15.8484 5.85517 16.0489L5.85678 16.0492L10.5455 16.789C10.5457 16.789 10.5453 16.789 10.5455 16.789C12.4268 17.0824 13.6122 16.8772 14.3919 16.3089C15.1717 15.7406 15.7305 14.6749 16.029 12.7934C16.029 12.7931 16.029 12.7937 16.029 12.7934L16.7588 8.10468C16.8738 7.36675 16.9167 6.73542 16.8815 6.1991C16.8637 5.92767 16.9943 5.66788 17.2227 5.52019ZM18.3419 7.55359C18.3166 7.80801 18.2825 8.06875 18.241 8.33537C18.241 8.33542 18.241 8.33533 18.241 8.33537L17.511 13.0254L17.5106 13.0275C17.1891 15.0555 16.5329 16.6046 15.2754 17.5211C14.0177 18.4378 12.3426 18.5875 10.3143 18.2711L5.62461 17.5311C5.62425 17.5311 5.62389 17.531 5.62354 17.5309C5.30716 17.4817 5.00303 17.424 4.71151 17.3571C5.21742 17.694 5.87476 18.0002 6.71517 18.2779L6.71658 18.2784L11.2265 19.7783C11.2265 19.7783 11.2265 19.7783 11.2265 19.7783C13.0368 20.3801 14.2392 20.3742 15.1004 19.9431C15.9615 19.5121 16.6864 18.5535 17.2882 16.7434L18.7881 12.2335C19.2878 10.7299 19.3681 9.63967 19.1308 8.82145C18.9961 8.35703 18.746 7.93704 18.3419 7.55359Z" fill="#101010"/>
<path fill-rule="evenodd" clip-rule="evenodd" d="M7.24 5.25C6.69324 5.25 6.25 5.69324 6.25 6.24C6.25 6.78676 6.69324 7.23 7.24 7.23C7.78676 7.23 8.23 6.78676 8.23 6.24C8.23 5.69324 7.78676 5.25 7.24 5.25ZM4.75 6.24C4.75 4.86481 5.86481 3.75 7.24 3.75C8.61519 3.75 9.73 4.86481 9.73 6.24C9.73 7.61519 8.61519 8.73 7.24 8.73C5.86481 8.73 4.75 7.61519 4.75 6.24Z" fill="#101010"/>
</svg>
