<svg width="16" height="22" viewBox="0 0 16 22" fill="none" xmlns="http://www.w3.org/2000/svg">
<path fill-rule="evenodd" clip-rule="evenodd" d="M8 7.91C8.41421 7.91 8.75 8.24579 8.75 8.66V11.1393L9.93033 12.3197C10.2232 12.6126 10.2232 13.0874 9.93033 13.3803C9.63744 13.6732 9.16256 13.6732 8.86967 13.3803L7.46967 11.9803C7.32902 11.8397 7.25 11.6489 7.25 11.45V8.66C7.25 8.24579 7.58579 7.91 8 7.91Z" fill="#101010"/>
<path fill-rule="evenodd" clip-rule="evenodd" d="M8 5.25C4.82421 5.25 2.25 7.82421 2.25 11C2.25 12.8281 3.09663 14.4496 4.42331 15.5054C4.44931 15.5208 4.47445 15.5379 4.49859 15.5565C5.47158 16.3084 6.68136 16.75 8 16.75C9.33734 16.75 10.5558 16.2993 11.5281 15.5391C11.552 15.5204 11.577 15.5032 11.6029 15.4876C12.9116 14.4321 13.75 12.81 13.75 11C13.75 7.82421 11.1758 5.25 8 5.25ZM0.75 11C0.75 6.99579 3.99579 3.75 8 3.75C12.0042 3.75 15.25 6.99579 15.25 11C15.25 13.3201 14.1563 15.3944 12.4623 16.7205C12.4356 16.7414 12.4077 16.7604 12.3787 16.7774C11.1632 17.703 9.64936 18.25 8 18.25C6.37153 18.25 4.86905 17.7135 3.65463 16.7993C3.62581 16.7826 3.598 16.764 3.57141 16.7435C1.85554 15.4176 0.75 13.3421 0.75 11Z" fill="#101010"/>
<path fill-rule="evenodd" clip-rule="evenodd" d="M11.5283 15.5391C11.6602 15.436 11.8229 15.38 11.9903 15.38H12.0003C12.2258 15.38 12.4393 15.4815 12.5818 15.6563C12.7242 15.8312 12.7804 16.0608 12.7348 16.2817L12.2248 18.7517C12.2223 18.7636 12.2196 18.7755 12.2165 18.7873C11.9415 19.8536 11.4673 20.6285 10.7801 21.1218C10.0999 21.61 9.31094 21.75 8.55028 21.75H7.46028C6.69996 21.75 5.90814 21.6102 5.2264 21.1203C4.53692 20.6249 4.0626 19.846 3.7929 18.7728C3.78997 18.7612 3.78733 18.7494 3.78496 18.7377L3.29496 16.2977C3.2507 16.0773 3.30763 15.8486 3.45009 15.6747C3.59254 15.5008 3.80548 15.4 4.03028 15.4H4.04028C4.20625 15.4 4.36753 15.4551 4.49887 15.5565C5.47186 16.3084 6.68164 16.75 8.00028 16.75C9.33762 16.75 10.5561 16.2993 11.5283 15.5391ZM10.9232 17.6374C10.0304 18.0316 9.04239 18.25 8.00028 18.25C6.96741 18.25 5.98523 18.0342 5.09509 17.6431L5.25194 18.4241C5.46229 19.2497 5.78082 19.6716 6.10166 19.9022C6.43242 20.1398 6.8706 20.25 7.46028 20.25H8.55028C9.13962 20.25 9.57562 20.14 9.90543 19.9032C10.226 19.6731 10.5446 19.2522 10.7596 18.4298L10.9232 17.6374Z" fill="#101010"/>
<path fill-rule="evenodd" clip-rule="evenodd" d="M5.2264 0.879672C5.90814 0.389827 6.69996 0.25 7.46028 0.25H8.55028C9.31094 0.25 10.0999 0.38996 10.7801 0.878221C11.4673 1.37151 11.9415 2.14638 12.2165 3.21271C12.2196 3.22452 12.2223 3.2364 12.2248 3.24834L12.7348 5.71834C12.7804 5.93919 12.7242 6.16884 12.5818 6.34369C12.4393 6.51853 12.2258 6.62 12.0003 6.62H11.9903C11.8229 6.62 11.6602 6.56398 11.5283 6.46086C10.5561 5.70071 9.33762 5.25 8.00028 5.25C6.68164 5.25 5.47186 5.6916 4.49887 6.44346C4.36753 6.54495 4.20625 6.6 4.04028 6.6H4.03028C3.80548 6.6 3.59254 6.49917 3.45009 6.32526C3.30763 6.15136 3.2507 5.92273 3.29496 5.70233L3.78496 3.26233C3.78733 3.25056 3.78997 3.23885 3.7929 3.2272C4.0626 2.154 4.53692 1.37507 5.2264 0.879672ZM5.25194 3.5759L5.09509 4.35695C5.98523 3.96583 6.96741 3.75 8.00028 3.75C9.04239 3.75 10.0304 3.96836 10.9232 4.36262L10.7596 3.57016C10.5446 2.74778 10.226 2.32689 9.90543 2.09678C9.57562 1.86004 9.13962 1.75 8.55028 1.75H7.46028C6.8706 1.75 6.43242 1.86017 6.10166 2.09783C5.78082 2.32836 5.46229 2.75026 5.25194 3.5759Z" fill="#101010"/>
</svg>
