<svg width="22" height="22" viewBox="0 0 22 22" fill="none" xmlns="http://www.w3.org/2000/svg">
<path fill-rule="evenodd" clip-rule="evenodd" d="M11 1.75C5.89421 1.75 1.75 5.89421 1.75 11C1.75 16.1058 5.89421 20.25 11 20.25C16.1058 20.25 20.25 16.1058 20.25 11C20.25 5.89421 16.1058 1.75 11 1.75ZM0.25 11C0.25 5.06579 5.06579 0.25 11 0.25C16.9342 0.25 21.75 5.06579 21.75 11C21.75 16.9342 16.9342 21.75 11 21.75C5.06579 21.75 0.25 16.9342 0.25 11Z" fill="#101010"/>
<path fill-rule="evenodd" clip-rule="evenodd" d="M10.6299 5.76001C11.0441 5.76001 11.3799 6.0958 11.3799 6.51001V10.61C11.3799 10.7636 11.4385 10.9861 11.5689 11.2147C11.6993 11.4434 11.8609 11.607 11.9922 11.6848L11.9942 11.686L11.9942 11.686L15.0942 13.536C15.4499 13.7482 15.5662 14.2087 15.3539 14.5644C15.1417 14.92 14.6812 15.0363 14.3255 14.824L11.2275 12.9752C11.2272 12.975 11.2268 12.9748 11.2265 12.9746C10.8183 12.7324 10.4903 12.3513 10.2659 11.9578C10.0412 11.5639 9.87988 11.0865 9.87988 10.61V6.51001C9.87988 6.0958 10.2157 5.76001 10.6299 5.76001Z" fill="#101010"/>
</svg>
