<svg width="22" height="18" viewBox="0 0 22 18" fill="none" xmlns="http://www.w3.org/2000/svg">
<path fill-rule="evenodd" clip-rule="evenodd" d="M5.22651 5.01685C4.75831 6.16178 4.67643 7.61545 5.29653 9.34715C5.37879 9.57688 5.34416 9.83226 5.20368 10.0318C5.0632 10.2313 4.83445 10.35 4.59044 10.35H4.56885C0.861531 10.6443 0.850386 16.0343 4.5689 16.33H15.636C16.7969 16.3386 17.9133 15.9087 18.7629 15.1278L18.7759 15.1162C20.694 13.4336 20.6131 10.5304 19.0777 8.7142L19.0753 8.71136C18.419 7.92725 17.5067 7.37855 16.3753 7.23394C16.0467 7.19194 15.7846 6.93931 15.7305 6.61247C15.5096 5.27798 15.0283 4.26228 14.4188 3.51345C14.4005 3.49105 14.3837 3.46771 14.3683 3.44356C12.693 1.4866 9.86233 1.24761 7.67601 2.39309C6.58555 2.96441 5.69792 3.86407 5.22651 5.01685ZM3.61754 8.98536C3.18325 7.29162 3.30369 5.75596 3.83812 4.44908C4.4592 2.9303 5.61533 1.77933 6.97987 1.06441C9.67975 -0.350143 13.3662 -0.121972 15.5783 2.55192C15.6015 2.5799 15.6224 2.60937 15.6411 2.64008C16.312 3.48826 16.8241 4.55357 17.1089 5.84115C18.3906 6.1279 19.4479 6.82 20.2244 7.74717C22.1862 10.0692 22.406 13.9204 19.7716 16.2381C18.6427 17.2728 17.1629 17.8406 15.6278 17.83H4.54044C4.52227 17.83 4.5041 17.8293 4.48598 17.828C-0.796194 17.4434 -1.11214 10.127 3.61754 8.98536Z" fill="#101010"/>
<path fill-rule="evenodd" clip-rule="evenodd" d="M3.84093 9.58705C3.84807 9.1729 4.1896 8.84295 4.60375 8.85009C5.29614 8.86203 5.9763 9.02919 6.59623 9.33916C6.96672 9.5244 7.11689 9.9749 6.93164 10.3454C6.7464 10.7159 6.2959 10.866 5.92541 10.6808C5.50535 10.4708 5.04551 10.3579 4.57789 10.3499C4.16374 10.3427 3.83379 10.0012 3.84093 9.58705Z" fill="#101010"/>
<path fill-rule="evenodd" clip-rule="evenodd" d="M17.2706 6.49708C17.2778 6.91123 16.9478 7.25276 16.5337 7.2599C16.0661 7.26796 15.6062 7.3808 15.1862 7.59083C14.8157 7.77607 14.3652 7.62591 14.1799 7.25542C13.9947 6.88494 14.1449 6.43443 14.5153 6.24919C15.1353 5.93922 15.8154 5.77206 16.5078 5.76012C16.922 5.75298 17.2635 6.08293 17.2706 6.49708Z" fill="#101010"/>
<path fill-rule="evenodd" clip-rule="evenodd" d="M16.0183 3.16694C16.5046 3.91683 16.8798 4.80735 17.1084 5.84116C18.1024 6.06353 18.9614 6.52969 19.6592 7.16022C20.0126 6.69878 20.22 6.12225 20.22 5.5C20.22 3.98421 18.9858 2.75 17.47 2.75C16.9382 2.75 16.4391 2.90205 16.0183 3.16694ZM14.4655 2.50386C15.2332 1.72398 16.3044 1.25 17.47 1.25C19.8142 1.25 21.72 3.15579 21.72 5.5C21.72 6.83619 21.0996 8.04048 20.115 8.81848C19.7964 9.07017 19.3354 9.0227 19.0749 8.71137C18.4186 7.92725 17.5062 7.37855 16.3749 7.23395C16.0463 7.19194 15.7842 6.93931 15.7301 6.61247C15.5092 5.27798 15.0278 4.26229 14.4183 3.51345C14.3094 3.37969 14.25 3.21248 14.25 3.04V3.03C14.25 2.83313 14.3274 2.64416 14.4655 2.50386Z" fill="#101010"/>
</svg>
