<svg width="22" height="22" viewBox="0 0 22 22" fill="none" xmlns="http://www.w3.org/2000/svg">
<path fill-rule="evenodd" clip-rule="evenodd" d="M9.33002 13.9697C9.62291 13.6768 10.0978 13.6768 10.3907 13.9697L12.5007 16.0797C12.7936 16.3726 12.7936 16.8474 12.5007 17.1403C12.2078 17.4332 11.7329 17.4332 11.44 17.1403L9.33002 15.0303C9.03713 14.7374 9.03713 14.2626 9.33002 13.9697Z" fill="#101010"/>
<path fill-rule="evenodd" clip-rule="evenodd" d="M12.4804 13.9897C12.7733 14.2826 12.7733 14.7574 12.4804 15.0503L10.3604 17.1703C10.0675 17.4632 9.59264 17.4632 9.29975 17.1703C9.00685 16.8774 9.00686 16.4026 9.29975 16.1097L11.4197 13.9897C11.7126 13.6968 12.1875 13.6968 12.4804 13.9897Z" fill="#101010"/>
<path fill-rule="evenodd" clip-rule="evenodd" d="M5.28842 10.0672C5.31755 10.4804 5.00621 10.839 4.59303 10.8681C0.851102 11.132 0.842708 16.553 4.56784 16.84H6.46027C6.87449 16.84 7.21027 17.1758 7.21027 17.59C7.21027 18.0042 6.87449 18.34 6.46027 18.34H4.54027C4.52267 18.34 4.50508 18.3394 4.48752 18.3381C-1.12214 17.9426 -1.12214 9.76741 4.48752 9.37185C4.90071 9.34272 5.25928 9.65405 5.28842 10.0672Z" fill="#101010"/>
<path fill-rule="evenodd" clip-rule="evenodd" d="M5.52186 4.92396C4.80277 6.15682 4.56031 7.82037 5.29574 9.86628C5.43585 10.2561 5.23345 10.6857 4.84365 10.8258C4.45386 10.9659 4.02428 10.7635 3.88416 10.3737C3.01459 7.95461 3.26088 5.82316 4.22616 4.16821C5.18113 2.53095 6.79847 1.43047 8.55407 0.968439C10.3096 0.506414 12.2569 0.668827 13.8885 1.62796C15.4213 2.52902 16.6112 4.09558 17.1086 6.3511C19.3212 6.84688 20.849 8.55948 21.4412 10.5068C22.0802 12.6075 21.663 15.0885 19.7693 16.7496C18.6332 17.7811 17.165 18.3506 15.6273 18.34H15.54C15.1257 18.34 14.79 18.0042 14.79 17.59C14.79 17.1758 15.1257 16.84 15.54 16.84H15.6355C16.7943 16.8486 17.9028 16.4201 18.7652 15.6353L18.7761 15.6256C20.1577 14.4167 20.5041 12.5805 20.0062 10.9432C19.5083 9.30631 18.1991 7.97566 16.3754 7.74402C16.0465 7.70223 15.784 7.44941 15.73 7.12227C15.3747 4.97226 14.3533 3.64119 13.1283 2.92108C11.8855 2.19053 10.3578 2.04482 8.93583 2.41904C7.51393 2.79326 6.25127 3.67341 5.52186 4.92396Z" fill="#101010"/>
<path fill-rule="evenodd" clip-rule="evenodd" d="M11 11.28C8.65421 11.28 6.75 13.1842 6.75 15.53C6.75 16.1614 6.88633 16.7492 7.13512 17.2633C7.13865 17.2706 7.14207 17.278 7.14536 17.2854C7.21173 17.4347 7.28541 17.5736 7.366 17.7025L7.37507 17.7174C8.10548 18.9489 9.4554 19.78 11 19.78C12.5446 19.78 13.8945 18.9489 14.6249 17.7174L14.634 17.7025C14.7146 17.5736 14.7883 17.4347 14.8546 17.2854C14.8579 17.278 14.8613 17.2706 14.8649 17.2633C15.1137 16.7492 15.25 16.1614 15.25 15.53C15.25 13.1842 13.3458 11.28 11 11.28ZM5.25 15.53C5.25 12.3558 7.82579 9.78 11 9.78C14.1742 9.78 16.75 12.3558 16.75 15.53C16.75 16.3744 16.5682 17.1827 16.2204 17.9057C16.1292 18.1096 16.0261 18.3046 15.9107 18.49C14.92 20.1545 13.0923 21.28 11 21.28C8.90772 21.28 7.07996 20.1545 6.08934 18.49C5.97392 18.3046 5.87079 18.1096 5.77959 17.9057C5.43183 17.1827 5.25 16.3744 5.25 15.53Z" fill="#101010"/>
</svg>
