<svg width="18" height="20" viewBox="0 0 18 20" fill="none" xmlns="http://www.w3.org/2000/svg">
<path fill-rule="evenodd" clip-rule="evenodd" d="M2.22552 4.42572C1.50599 5.65799 1.26245 7.32108 1.99561 9.36703C2.13534 9.75697 1.93251 10.1863 1.54257 10.3261C1.15264 10.4658 0.723263 10.263 0.583533 9.87304C-0.283313 7.454 -0.0355945 5.32333 0.930181 3.66936C1.88566 2.03301 3.50266 0.933548 5.25764 0.472187C7.01256 0.0108373 8.95876 0.173622 10.5895 1.13223C12.1211 2.03257 13.3103 3.59739 13.8078 5.84992C15.7596 6.28341 17.175 7.66896 17.8883 9.32304C18.0523 9.70339 17.877 10.1447 17.4966 10.3087C17.1162 10.4728 16.6749 10.2974 16.5109 9.91704C15.9091 8.52155 14.7028 7.44647 13.077 7.24431C12.7473 7.20331 12.4839 6.95025 12.4296 6.62245C12.0744 4.47499 11.0537 3.14506 9.82934 2.42535C8.58726 1.69521 7.06034 1.54924 5.63901 1.92289C4.21773 2.29653 2.95536 3.17582 2.22552 4.42572Z" fill="#101010"/>
<path fill-rule="evenodd" clip-rule="evenodd" d="M13.9592 6.50709C13.9663 6.92124 13.6364 7.26277 13.2222 7.26991C12.7546 7.27797 12.2947 7.39082 11.8746 7.60085C11.5042 7.78609 11.0536 7.63592 10.8684 7.26544C10.6832 6.89495 10.8333 6.44445 11.2038 6.25921C11.8238 5.94924 12.504 5.78207 13.1963 5.77013C13.6105 5.76299 13.952 6.09294 13.9592 6.50709Z" fill="#101010"/>
<path fill-rule="evenodd" clip-rule="evenodd" d="M0.25 13.03C0.25 12.6158 0.585786 12.28 1 12.28H17C17.4142 12.28 17.75 12.6158 17.75 13.03C17.75 13.4442 17.4142 13.78 17 13.78H1C0.585786 13.78 0.25 13.4442 0.25 13.03Z" fill="#101010"/>
<path fill-rule="evenodd" clip-rule="evenodd" d="M2.25 16.03C2.25 15.6158 2.58579 15.28 3 15.28H15C15.4142 15.28 15.75 15.6158 15.75 16.03C15.75 16.4442 15.4142 16.78 15 16.78H3C2.58579 16.78 2.25 16.4442 2.25 16.03Z" fill="#101010"/>
<path fill-rule="evenodd" clip-rule="evenodd" d="M5.25 19.03C5.25 18.6158 5.58579 18.28 6 18.28H12C12.4142 18.28 12.75 18.6158 12.75 19.03C12.75 19.4442 12.4142 19.78 12 19.78H6C5.58579 19.78 5.25 19.4442 5.25 19.03Z" fill="#101010"/>
</svg>
