<svg width="22" height="18" viewBox="0 0 22 18" fill="none" xmlns="http://www.w3.org/2000/svg">
<path fill-rule="evenodd" clip-rule="evenodd" d="M7.2207 17C7.2207 16.5858 7.55649 16.25 7.9707 16.25H11.9707C12.3849 16.25 12.7207 16.5858 12.7207 17C12.7207 17.4142 12.3849 17.75 11.9707 17.75H7.9707C7.55649 17.75 7.2207 17.4142 7.2207 17Z" fill="#101010"/>
<path fill-rule="evenodd" clip-rule="evenodd" d="M17.0792 5.82026C16.5843 3.57538 15.401 2.01496 13.8763 1.11621C12.2526 0.159059 10.3144 -0.00493497 8.56669 0.453235C6.81899 0.911409 5.20863 2.00563 4.25744 3.63516C3.29595 5.28231 3.0503 7.40434 3.9147 9.81328C4.0546 10.2032 4.48406 10.4058 4.87394 10.2659C5.26381 10.126 5.46646 9.69653 5.32656 9.30666C4.59596 7.2706 4.83781 5.61637 5.55289 4.39134C6.27825 3.14868 7.53352 2.27478 8.94707 1.9042C10.3606 1.53362 11.8793 1.68025 13.1146 2.40842C14.3323 3.12617 15.3477 4.45172 15.7006 6.59198C15.7547 6.91971 16.0178 7.17286 16.3474 7.21415C20.0129 7.6734 21.5211 12.6103 18.7369 15.0454L18.7261 15.055C17.8738 15.8299 16.7653 16.2586 15.6162 16.25C15.202 16.2469 14.8637 16.5802 14.8607 16.9944C14.8576 17.4086 15.1908 17.7469 15.605 17.7499C17.1335 17.7614 18.6028 17.1919 19.7298 16.1698C23.3375 13.0068 21.6276 6.83274 17.0792 5.82026Z" fill="#101010"/>
<path fill-rule="evenodd" clip-rule="evenodd" d="M4.55765 8.82007C5.27385 8.80793 5.98476 8.97766 6.6208 9.30168C6.98989 9.4897 7.13666 9.94132 6.94864 10.3104C6.76062 10.6795 6.309 10.8263 5.93992 10.6382C5.522 10.4253 5.06024 10.3152 4.60291 10.3196C0.903587 10.6014 0.89859 15.9975 4.62345 16.2618C5.03663 16.2912 5.3478 16.6499 5.31848 17.0631C5.28916 17.4762 4.93044 17.7874 4.51727 17.7581C-1.05102 17.3629 -1.0829 9.21842 4.51738 8.82183C4.53079 8.82088 4.54421 8.82029 4.55765 8.82007Z" fill="#101010"/>
<path fill-rule="evenodd" clip-rule="evenodd" d="M17.2304 6.46705C17.2375 6.88121 16.9076 7.22273 16.4934 7.22987C16.0279 7.2379 15.5779 7.34981 15.1559 7.5608C14.7854 7.74605 14.3349 7.59588 14.1497 7.22539C13.9644 6.85491 14.1146 6.40441 14.4851 6.21916C15.1031 5.91016 15.773 5.74207 16.4675 5.73009C16.8817 5.72295 17.2232 6.0529 17.2304 6.46705Z" fill="#101010"/>
</svg>
