<svg width="22" height="20" viewBox="0 0 22 20" fill="none" xmlns="http://www.w3.org/2000/svg">
<path fill-rule="evenodd" clip-rule="evenodd" d="M17.0792 5.82026C16.5843 3.57538 15.401 2.01496 13.8763 1.11621C12.2526 0.159059 10.3144 -0.00493497 8.56669 0.453235C6.81899 0.911409 5.20863 2.00563 4.25744 3.63516C3.29595 5.28231 3.0503 7.40434 3.9147 9.81328C4.0546 10.2032 4.48406 10.4058 4.87394 10.2659C5.26381 10.126 5.46646 9.69653 5.32656 9.30666C4.59596 7.2706 4.83781 5.61637 5.55289 4.39134C6.27825 3.14868 7.53352 2.27478 8.94707 1.9042C10.3606 1.53362 11.8793 1.68025 13.1146 2.40842C14.3323 3.12617 15.3477 4.45172 15.7006 6.59198C15.7547 6.91971 16.0178 7.17286 16.3474 7.21415C20.0129 7.6734 21.5211 12.6103 18.7369 15.0454L18.7261 15.055C17.8738 15.8299 16.7653 16.2586 15.6162 16.25C15.202 16.2469 14.8637 16.5802 14.8607 16.9944C14.8576 17.4086 15.1908 17.7469 15.605 17.7499C17.1335 17.7614 18.6028 17.1919 19.7298 16.1698C23.3375 13.0068 21.6276 6.83274 17.0792 5.82026Z" fill="#101010"/>
<path fill-rule="evenodd" clip-rule="evenodd" d="M4.55765 8.82007C5.27385 8.80793 5.98476 8.97766 6.6208 9.30168C6.98989 9.4897 7.13666 9.94132 6.94864 10.3104C6.76062 10.6795 6.309 10.8263 5.93992 10.6382C5.522 10.4253 5.06024 10.3152 4.60291 10.3196C0.903587 10.6014 0.89859 15.9975 4.62345 16.2618C5.03663 16.2912 5.3478 16.6499 5.31848 17.0631C5.28916 17.4762 4.93044 17.7874 4.51727 17.7581C-1.05102 17.3629 -1.0829 9.21842 4.51738 8.82183C4.53079 8.82088 4.54421 8.82029 4.55765 8.82007Z" fill="#101010"/>
<path fill-rule="evenodd" clip-rule="evenodd" d="M17.2304 6.46705C17.2375 6.88121 16.9076 7.22273 16.4934 7.22987C16.0279 7.2379 15.5779 7.34981 15.1559 7.5608C14.7854 7.74605 14.3349 7.59588 14.1497 7.22539C13.9644 6.85491 14.1146 6.40441 14.4851 6.21916C15.1031 5.91016 15.773 5.74207 16.4675 5.73009C16.8817 5.72295 17.2232 6.0529 17.2304 6.46705Z" fill="#101010"/>
<path fill-rule="evenodd" clip-rule="evenodd" d="M9.8333 12.2592C10.5426 11.4314 11.8005 12.0214 11.8005 12.9999V14.5799H12.0505C12.3677 14.5799 12.9153 14.6769 13.1543 15.2015C13.3943 15.7283 13.1049 16.2056 12.8935 16.4454C12.8933 16.4456 12.8931 16.4459 12.8929 16.4461L10.4477 19.2307C9.73838 20.0584 8.48049 19.4685 8.48049 18.4899V16.9099H8.23049C7.91327 16.9099 7.36569 16.8129 7.12672 16.2883C6.8867 15.7615 7.17614 15.2842 7.38746 15.0444C7.38768 15.0442 7.38789 15.0439 7.38811 15.0437L9.8333 12.2592ZM10.3005 14.0004L9.06277 15.4099H9.23049C9.6447 15.4099 9.98049 15.7457 9.98049 16.1599V17.4894L11.2182 16.0799H11.0505C10.6363 16.0799 10.3005 15.7441 10.3005 15.3299V14.0004ZM12.0729 16.081C12.0729 16.081 12.0724 16.0809 12.0713 16.0808L12.0729 16.081ZM11.7814 15.4373C11.782 15.4363 11.7824 15.4359 11.7824 15.4359L11.7814 15.4373ZM8.20805 15.4088C8.20806 15.4088 8.20861 15.4089 8.20967 15.4091L8.20805 15.4088ZM8.49952 16.0526C8.49894 16.0535 8.49862 16.054 8.4986 16.054L8.49952 16.0526Z" fill="#101010"/>
</svg>
