<svg width="22" height="22" viewBox="0 0 22 22" fill="none" xmlns="http://www.w3.org/2000/svg">
<path fill-rule="evenodd" clip-rule="evenodd" d="M5.21 6.01001C3.30305 6.01001 1.75 7.55538 1.75 9.47001V16.79C1.75 18.6958 3.30421 20.25 5.21 20.25H12.58C14.4869 20.25 16.04 18.7046 16.04 16.79V9.47001C16.04 7.56422 14.4858 6.01001 12.58 6.01001H5.21ZM0.25 9.47001C0.25 6.72464 2.47695 4.51001 5.21 4.51001H12.58C15.3142 4.51001 17.54 6.7358 17.54 9.47001V16.79C17.54 19.5354 15.3131 21.75 12.58 21.75H5.21C2.47579 21.75 0.25 19.5242 0.25 16.79V9.47001Z" fill="#101010"/>
<path fill-rule="evenodd" clip-rule="evenodd" d="M4.5 0.5C4.91421 0.5 5.25 0.835786 5.25 1.25V3C5.25 3.41421 4.91421 3.75 4.5 3.75C4.08579 3.75 3.75 3.41421 3.75 3V1.25C3.75 0.835786 4.08579 0.5 4.5 0.5Z" fill="#101010"/>
<path fill-rule="evenodd" clip-rule="evenodd" d="M8.5 0.5C8.91421 0.5 9.25 0.835786 9.25 1.25V3C9.25 3.41421 8.91421 3.75 8.5 3.75C8.08579 3.75 7.75 3.41421 7.75 3V1.25C7.75 0.835786 8.08579 0.5 8.5 0.5Z" fill="#101010"/>
<path fill-rule="evenodd" clip-rule="evenodd" d="M12.5 0.5C12.9142 0.5 13.25 0.835786 13.25 1.25V3C13.25 3.41421 12.9142 3.75 12.5 3.75C12.0858 3.75 11.75 3.41421 11.75 3V1.25C11.75 0.835786 12.0858 0.5 12.5 0.5Z" fill="#101010"/>
<path fill-rule="evenodd" clip-rule="evenodd" d="M16.04 7.94995C16.04 7.53574 16.3758 7.19995 16.79 7.19995C19.5231 7.19995 21.75 9.41458 21.75 12.16C21.75 14.8942 19.5243 17.12 16.79 17.12C16.3758 17.12 16.04 16.7842 16.04 16.37V7.94995ZM17.54 8.78155V15.5379C19.0873 15.1937 20.25 13.8083 20.25 12.16C20.25 10.5038 19.088 9.12392 17.54 8.78155Z" fill="#101010"/>
<path fill-rule="evenodd" clip-rule="evenodd" d="M0.25 11C0.25 10.5858 0.585786 10.25 1 10.25H16.51C16.9242 10.25 17.26 10.5858 17.26 11C17.26 11.4142 16.9242 11.75 16.51 11.75H1C0.585786 11.75 0.25 11.4142 0.25 11Z" fill="#101010"/>
</svg>
