<svg width="22" height="22" viewBox="0 0 22 22" fill="none" xmlns="http://www.w3.org/2000/svg">
<path fill-rule="evenodd" clip-rule="evenodd" d="M8.16049 6.95001C7.9711 6.95001 7.75049 7.12686 7.75049 7.42001C7.75049 7.67198 7.80371 7.73848 7.80913 7.74526C7.80922 7.74537 7.80907 7.74518 7.80913 7.74526C7.82067 7.75989 7.86434 7.80684 8.04968 7.87262L10.4556 8.71469C10.7447 8.81928 11.097 8.98833 11.3626 9.32812C11.6354 9.67711 11.7405 10.106 11.7405 10.58C11.7405 11.6269 10.9211 12.55 9.83049 12.55H8.33049C7.15102 12.55 6.25049 11.5481 6.25049 10.4C6.25049 9.9858 6.58627 9.65001 7.00049 9.65001C7.4147 9.65001 7.75049 9.9858 7.75049 10.4C7.75049 10.792 8.04995 11.05 8.33049 11.05H9.83049C10.0199 11.05 10.2405 10.8732 10.2405 10.58C10.2405 10.3276 10.187 10.2598 10.1811 10.2522C10.1692 10.2371 10.1268 10.1913 9.94875 10.1265L7.5501 9.28699C7.25645 9.18299 6.90005 9.01482 6.63161 8.67448C6.35549 8.32439 6.25049 7.89387 6.25049 7.42001C6.25049 6.37316 7.06988 5.45001 8.16049 5.45001H9.67062C10.8396 5.46581 11.7505 6.43876 11.7505 7.60001C11.7505 8.01423 11.4147 8.35001 11.0005 8.35001C10.5863 8.35001 10.2505 8.01423 10.2505 7.60001C10.2505 7.22288 9.96385 6.95644 9.65435 6.95001H8.16049Z" fill="#101010"/>
<path fill-rule="evenodd" clip-rule="evenodd" d="M9.00049 11.1C9.4147 11.1 9.75049 11.4358 9.75049 11.85V12.59C9.75049 13.0042 9.4147 13.34 9.00049 13.34C8.58627 13.34 8.25049 13.0042 8.25049 12.59V11.85C8.25049 11.4358 8.58627 11.1 9.00049 11.1Z" fill="#101010"/>
<path fill-rule="evenodd" clip-rule="evenodd" d="M9.00049 4.65997C9.4147 4.65997 9.75049 4.99576 9.75049 5.40997V6.18997C9.75049 6.60419 9.4147 6.93997 9.00049 6.93997C8.58627 6.93997 8.25049 6.60419 8.25049 6.18997V5.40997C8.25049 4.99576 8.58627 4.65997 9.00049 4.65997Z" fill="#101010"/>
<path fill-rule="evenodd" clip-rule="evenodd" d="M8.99049 1.75C4.99195 1.75 1.75049 4.99146 1.75049 8.99C1.75049 12.9885 4.99195 16.23 8.99049 16.23C12.989 16.23 16.2305 12.9885 16.2305 8.99C16.2305 4.99146 12.989 1.75 8.99049 1.75ZM0.250488 8.99C0.250488 4.16303 4.16352 0.25 8.99049 0.25C13.8175 0.25 17.7305 4.16303 17.7305 8.99C17.7305 13.817 13.8175 17.73 8.99049 17.73C4.16352 17.73 0.250488 13.817 0.250488 8.99Z" fill="#101010"/>
<path fill-rule="evenodd" clip-rule="evenodd" d="M18.3019 11.5618C18.5439 11.2256 19.0126 11.1493 19.3488 11.3913C20.7849 12.4254 21.7305 14.1172 21.7305 16.03C21.7305 19.1742 19.1747 21.73 16.0305 21.73C14.0953 21.73 12.4021 20.772 11.3686 19.3136C11.1291 18.9757 11.2089 18.5076 11.5469 18.2681C11.8848 18.0286 12.353 18.1084 12.5925 18.4463C13.359 19.528 14.6058 20.23 16.0305 20.23C18.3463 20.23 20.2305 18.3458 20.2305 16.03C20.2305 14.6228 19.5361 13.3746 18.4723 12.6086C18.1362 12.3666 18.0599 11.8979 18.3019 11.5618Z" fill="#101010"/>
</svg>
