<svg width="16" height="22" viewBox="0 0 16 22" fill="none" xmlns="http://www.w3.org/2000/svg">
<path fill-rule="evenodd" clip-rule="evenodd" d="M1.5 10.9C1.91421 10.9 2.25 11.2358 2.25 11.65C2.25 14.2125 4.66463 16.25 8 16.25C11.3354 16.25 13.75 14.2125 13.75 11.65C13.75 11.2358 14.0858 10.9 14.5 10.9C14.9142 10.9 15.25 11.2358 15.25 11.65V15.35C15.25 18.9794 11.9021 21.75 8 21.75C4.09788 21.75 0.75 18.9794 0.75 15.35V11.65C0.75 11.2358 1.08579 10.9 1.5 10.9ZM2.25115 15.4474C2.3117 18.0173 4.76294 20.25 8 20.25C11.2371 20.25 13.6883 18.0173 13.7489 15.4474C12.396 16.9019 10.2749 17.75 8 17.75C5.72509 17.75 3.60398 16.9019 2.25115 15.4474Z" fill="#101010"/>
<path fill-rule="evenodd" clip-rule="evenodd" d="M8 1.75C6.37485 1.75 4.93174 2.3185 3.89319 3.22503L3.89285 3.22533C2.86379 4.12245 2.25 5.33483 2.25 6.65C2.25 7.41948 2.4606 8.1245 2.82996 8.72891L2.83086 8.73038C3.73683 10.2206 5.66309 11.25 8 11.25C10.3369 11.25 12.2632 10.2206 13.1691 8.73038L13.17 8.72891C13.5394 8.1245 13.75 7.41948 13.75 6.65C13.75 5.33635 13.1375 4.12348 12.107 3.21517C11.0675 2.31774 9.62397 1.75 8 1.75ZM2.90714 2.09467C4.22857 0.941379 6.02533 0.25 8 0.25C9.97469 0.25 11.7702 0.941317 13.0905 2.0826L13.0956 2.08704L13.0956 2.08706C14.4035 3.2385 15.25 4.84473 15.25 6.65C15.25 7.70021 14.9608 8.67492 14.4504 9.51035C13.2162 11.5397 10.7428 12.75 8 12.75C5.25729 12.75 2.78387 11.5398 1.54966 9.51046C1.03926 8.67501 0.75 7.70026 0.75 6.65C0.75 4.84533 1.59605 3.23783 2.90679 2.09497" fill="#101010"/>
<path fill-rule="evenodd" clip-rule="evenodd" d="M8 1.75C4.72212 1.75 2.25 4.03942 2.25 6.65V11.65C2.25 14.2125 4.66463 16.25 8 16.25C11.3354 16.25 13.75 14.2125 13.75 11.65V6.65C13.75 5.33635 13.1375 4.12348 12.107 3.21517C11.0675 2.31774 9.62397 1.75 8 1.75ZM0.75 6.65C0.75 3.02058 4.09788 0.25 8 0.25C9.97469 0.25 11.7702 0.941317 13.0905 2.0826L13.0956 2.08704L13.0956 2.08706C14.4035 3.2385 15.25 4.84473 15.25 6.65V11.65C15.25 15.3275 11.8446 17.75 8 17.75C4.15537 17.75 0.75 15.3275 0.75 11.65V6.65Z" fill="#101010"/>
</svg>
