<svg width="22" height="22" viewBox="0 0 22 22" fill="none" xmlns="http://www.w3.org/2000/svg">
<path fill-rule="evenodd" clip-rule="evenodd" d="M5.22339 8.48623C5.59173 8.38616 5.97648 8.57871 6.11718 8.93353C6.7209 10.4559 8.01694 11.6292 9.61767 12.0665L9.62223 12.0678L9.62222 12.0678C10.052 12.1881 10.5137 12.25 11 12.25C11.4863 12.25 11.948 12.1881 12.3778 12.0678C12.7474 11.9643 13.1354 12.1565 13.2771 12.5132C13.5816 13.2801 13.75 14.1239 13.75 15C13.75 16.9896 12.8845 18.7906 11.5005 20.0186C10.3078 21.0974 8.73118 21.75 7 21.75C3.27579 21.75 0.25 18.7242 0.25 15C0.25 11.8934 2.36464 9.26281 5.22339 8.48623ZM5.02099 10.1354C3.10748 10.916 1.75 12.8079 1.75 15C1.75 17.8958 4.10421 20.25 7 20.25C8.34739 20.25 9.56956 19.7436 10.4965 18.9041L10.5025 18.8987L10.5026 18.8987C11.5768 17.9467 12.25 16.5489 12.25 15C12.25 14.5391 12.1902 14.0908 12.0792 13.6659C11.7267 13.7222 11.3661 13.75 11 13.75C10.3872 13.75 9.7896 13.6721 9.22011 13.5129C7.39574 13.0137 5.88187 11.7735 5.02099 10.1354Z" fill="#101010"/>
<path fill-rule="evenodd" clip-rule="evenodd" d="M11 1.75C8.10421 1.75 5.75 4.10421 5.75 7C5.75 7.68395 5.88156 8.34012 6.11706 8.93323L6.11718 8.93353C6.7209 10.4559 8.01694 11.6292 9.61767 12.0665L9.62223 12.0678C10.052 12.1881 10.5137 12.25 11 12.25C11.4863 12.25 11.948 12.1881 12.3778 12.0678L12.3823 12.0665L12.3823 12.0665C13.9831 11.6292 15.2791 10.4559 15.8828 8.93353L15.8829 8.93323C16.1184 8.34012 16.25 7.68395 16.25 7C16.25 4.10421 13.8958 1.75 11 1.75ZM4.25 7C4.25 3.27579 7.27579 0.25 11 0.25C14.7242 0.25 17.75 3.27579 17.75 7C17.75 7.87593 17.5816 8.71966 17.2772 9.48647M4.25 7C4.25 7.87593 4.41839 8.71966 4.72282 9.48647L4.25 7ZM4.72294 9.48677C5.49897 11.4435 7.16188 12.9497 9.21995 13.5128C9.78949 13.6721 10.3871 13.75 11 13.75C11.6129 13.75 12.2105 13.6721 12.7801 13.5128C14.8381 12.9497 16.501 11.4435 17.2771 9.48677" fill="#101010"/>
<path fill-rule="evenodd" clip-rule="evenodd" d="M15.8828 8.93353C16.0235 8.57871 16.4083 8.38616 16.7766 8.48623C19.6354 9.26281 21.75 11.8934 21.75 15C21.75 18.7242 18.7242 21.75 15 21.75C13.2674 21.75 11.6896 21.0964 10.4965 20.0159C10.3385 19.8728 10.2489 19.6692 10.25 19.4559C10.2512 19.2427 10.343 19.0401 10.5026 18.8987C11.5768 17.9467 12.25 16.5489 12.25 15C12.25 14.316 12.1184 13.6599 11.8829 13.0668C11.8042 12.8684 11.8137 12.6459 11.909 12.455C12.0043 12.264 12.1765 12.1228 12.3823 12.0665C13.9831 11.6292 15.2791 10.4559 15.8828 8.93353ZM16.979 10.1354C16.2382 11.5451 15.0137 12.6602 13.5239 13.2618C13.6712 13.8166 13.75 14.4008 13.75 15C13.75 16.6711 13.1393 18.2093 12.1237 19.3865C12.9483 19.9337 13.935 20.25 15 20.25C17.8958 20.25 20.25 17.8958 20.25 15C20.25 12.8079 18.8925 10.916 16.979 10.1354Z" fill="#101010"/>
</svg>
