<svg width="22" height="22" viewBox="0 0 22 22" fill="none" xmlns="http://www.w3.org/2000/svg">
<path fill-rule="evenodd" clip-rule="evenodd" d="M13.0305 2.58139C11.9118 1.47156 10.0859 1.47453 8.98011 2.58033L2.59198 8.96845C2.59169 8.96875 2.59139 8.96905 2.5911 8.96934C1.48132 10.088 1.48432 11.9139 2.5901 13.0197L8.97822 19.4078C8.97857 19.4082 8.97893 19.4085 8.97929 19.4089C10.098 20.5185 11.9237 20.5154 13.0294 19.4097L19.4194 13.0197C20.5252 11.914 20.5282 10.0882 19.4186 8.96952C19.4183 8.96916 19.4179 8.96881 19.4176 8.96845L13.0313 2.58221C13.0311 2.58194 13.0308 2.58167 13.0305 2.58139ZM7.91945 1.51967C9.61338 -0.174261 12.3868 -0.171557 14.0882 1.51779L14.0901 1.51967L20.482 7.91157C22.1713 9.61299 22.174 12.3864 20.4801 14.0803L14.0901 20.4703C12.3962 22.1643 9.62275 22.1616 7.92134 20.4722L7.91945 20.4703L1.52944 14.0803C-0.164496 12.3864 -0.161792 9.61299 1.52755 7.91158L1.52943 7.90968L7.91945 1.51967Z" fill="#101010"/>
</svg>
