<svg width="22" height="22" viewBox="0 0 22 22" fill="none" xmlns="http://www.w3.org/2000/svg">
<path fill-rule="evenodd" clip-rule="evenodd" d="M11 1.75C5.89421 1.75 1.75 5.89421 1.75 11C1.75 16.1058 5.89421 20.25 11 20.25C16.1058 20.25 20.25 16.1058 20.25 11C20.25 5.89421 16.1058 1.75 11 1.75ZM0.25 11C0.25 5.06579 5.06579 0.25 11 0.25C16.9342 0.25 21.75 5.06579 21.75 11C21.75 16.9342 16.9342 21.75 11 21.75C5.06579 21.75 0.25 16.9342 0.25 11Z" fill="#101010"/>
<path fill-rule="evenodd" clip-rule="evenodd" d="M11.2402 7.75C9.44445 7.75 7.99023 9.20421 7.99023 11C7.99023 12.7958 9.44445 14.25 11.2402 14.25C12.0574 14.25 12.8047 13.9435 13.3869 13.4351C13.6989 13.1626 14.1727 13.1947 14.4452 13.5067C14.7176 13.8187 14.6856 14.2925 14.3736 14.5649C13.5358 15.2965 12.4431 15.75 11.2402 15.75C8.61602 15.75 6.49023 13.6242 6.49023 11C6.49023 8.37579 8.61602 6.25 11.2402 6.25C12.4431 6.25 13.5358 6.70351 14.3736 7.43507C14.6856 7.70753 14.7176 8.18132 14.4452 8.49331C14.1727 8.80531 13.6989 8.83738 13.3869 8.56493C12.8047 8.05649 12.0574 7.75 11.2402 7.75Z" fill="#101010"/>
</svg>
