<svg width="22" height="22" viewBox="0 0 22 22" fill="none" xmlns="http://www.w3.org/2000/svg">
<path fill-rule="evenodd" clip-rule="evenodd" d="M3.25 4C3.25 3.58579 3.58579 3.25 4 3.25H13.1C15.0485 3.25 16.568 3.48239 17.5428 4.45717C18.5176 5.43195 18.75 6.95147 18.75 8.9V18C18.75 18.4142 18.4142 18.75 18 18.75H8.9C6.95147 18.75 5.43195 18.5176 4.45717 17.5428C3.48239 16.568 3.25 15.0485 3.25 13.1V4ZM4.75 4.75V13.1C4.75 15.0515 5.01761 15.982 5.51783 16.4822C6.01805 16.9824 6.94853 17.25 8.9 17.25H17.25V8.9C17.25 6.94853 16.9824 6.01805 16.4822 5.51783C15.982 5.01761 15.0515 4.75 13.1 4.75H4.75Z" fill="#101010"/>
<path fill-rule="evenodd" clip-rule="evenodd" d="M4 0.25C4.41421 0.25 4.75 0.585786 4.75 1V4C4.75 4.41421 4.41421 4.75 4 4.75C3.58579 4.75 3.25 4.41421 3.25 4V1C3.25 0.585786 3.58579 0.25 4 0.25Z" fill="#101010"/>
<path fill-rule="evenodd" clip-rule="evenodd" d="M0.25 4C0.25 3.58579 0.585786 3.25 1 3.25H4C4.41421 3.25 4.75 3.58579 4.75 4C4.75 4.41421 4.41421 4.75 4 4.75H1C0.585786 4.75 0.25 4.41421 0.25 4Z" fill="#101010"/>
<path fill-rule="evenodd" clip-rule="evenodd" d="M18 17.25C18.4142 17.25 18.75 17.5858 18.75 18V21C18.75 21.4142 18.4142 21.75 18 21.75C17.5858 21.75 17.25 21.4142 17.25 21V18C17.25 17.5858 17.5858 17.25 18 17.25Z" fill="#101010"/>
<path fill-rule="evenodd" clip-rule="evenodd" d="M17.25 18C17.25 17.5858 17.5858 17.25 18 17.25H21C21.4142 17.25 21.75 17.5858 21.75 18C21.75 18.4142 21.4142 18.75 21 18.75H18C17.5858 18.75 17.25 18.4142 17.25 18Z" fill="#101010"/>
</svg>
