<svg width="22" height="20" viewBox="0 0 22 20" fill="none" xmlns="http://www.w3.org/2000/svg">
<path fill-rule="evenodd" clip-rule="evenodd" d="M10.8203 2.53035C10.8202 2.53043 10.8204 2.53027 10.8203 2.53035L7.2437 6.11698C6.5652 6.80938 5.44754 6.79822 4.76967 6.12035L2.17967 3.53035C2.01863 3.36931 1.89231 3.28383 1.80883 3.24222C1.77904 3.33098 1.75 3.48134 1.75 3.71002V13.29C1.75 15.6349 3.6536 17.5408 6.00145 17.55H16C17.3296 17.55 18.3793 17.1101 19.0947 16.3947C19.8101 15.6793 20.25 14.6296 20.25 13.3V3.71002C20.25 3.48134 20.221 3.33099 20.1912 3.24222C20.1077 3.28384 19.9814 3.36931 19.8203 3.53035L17.2333 6.11742C16.5547 6.80938 15.4374 6.79808 14.7597 6.12035L11.1628 2.52346C11.081 2.43953 10.9213 2.42964 10.8203 2.53035ZM20.2765 3.21009C20.2765 3.21011 20.276 3.21021 20.275 3.21028L20.2765 3.21009ZM20.1544 3.16035C20.1537 3.1596 20.1534 3.15919 20.1535 3.15916L20.1544 3.16035ZM1.84655 3.15916C1.84656 3.15918 1.84627 3.15958 1.84567 3.16029L1.84655 3.15916ZM1.72483 3.21026C1.72395 3.21018 1.72349 3.21011 1.72349 3.21009L1.72483 3.21026ZM12.2333 1.47268C11.5548 0.780663 10.4374 0.791945 9.75967 1.46969L6.17893 5.06043L6.17283 5.06662C6.09098 5.15062 5.9313 5.16066 5.83033 5.05969L3.24033 2.46969C2.73189 1.96125 1.97981 1.49342 1.21483 1.81113C0.450614 2.12853 0.25 2.99085 0.25 3.71002V13.29C0.25 16.4648 2.82572 19.0385 5.99728 19.05L6 19.05H16C17.6704 19.05 19.1207 18.4899 20.1553 17.4553C21.1899 16.4208 21.75 14.9705 21.75 13.3V3.71002C21.75 2.99085 21.5494 2.12853 20.7852 1.81113C20.0202 1.49342 19.2681 1.96125 18.7597 2.46969L16.1697 5.05969L16.1628 5.06662C16.081 5.15062 15.9213 5.16066 15.8203 5.05969L12.2333 1.47268Z" fill="#101010"/>
</svg>
