<svg width="22" height="22" viewBox="0 0 22 22" fill="none" xmlns="http://www.w3.org/2000/svg">
<path fill-rule="evenodd" clip-rule="evenodd" d="M11.1504 14.75C11.5646 14.75 11.9004 15.0858 11.9004 15.5V17.6C11.9004 18.0142 11.5646 18.35 11.1504 18.35C10.7362 18.35 10.4004 18.0142 10.4004 17.6V15.5C10.4004 15.0858 10.7362 14.75 11.1504 14.75Z" fill="#101010"/>
<path fill-rule="evenodd" clip-rule="evenodd" d="M5.40039 20C5.40039 18.4858 6.63618 17.25 8.15039 17.25H14.1504C15.6646 17.25 16.9004 18.4858 16.9004 20V21.75H6.15039V21H5.40039V20ZM6.90039 20.25H15.4004V20C15.4004 19.3142 14.8362 18.75 14.1504 18.75H8.15039C7.4646 18.75 6.90039 19.3142 6.90039 20V20.25Z" fill="#101010"/>
<path fill-rule="evenodd" clip-rule="evenodd" d="M4.40039 21C4.40039 20.5858 4.73618 20.25 5.15039 20.25H17.1504C17.5646 20.25 17.9004 20.5858 17.9004 21C17.9004 21.4142 17.5646 21.75 17.1504 21.75H5.15039C4.73618 21.75 4.40039 21.4142 4.40039 21Z" fill="#101010"/>
<path fill-rule="evenodd" clip-rule="evenodd" d="M8 1.75C6.20421 1.75 4.75 3.20421 4.75 5V8C4.75 11.4558 7.54421 14.25 11 14.25C14.4558 14.25 17.25 11.4558 17.25 8V5C17.25 3.20421 15.7958 1.75 14 1.75H8ZM3.25 5C3.25 2.37579 5.37579 0.25 8 0.25H14C16.6242 0.25 18.75 2.37579 18.75 5V8C18.75 12.2842 15.2842 15.75 11 15.75C6.71579 15.75 3.25 12.2842 3.25 8V5Z" fill="#101010"/>
<path fill-rule="evenodd" clip-rule="evenodd" d="M3.19352 4.13246C2.38081 4.2878 1.79004 4.98325 1.79004 5.84998C1.79004 7.01197 2.28109 8.03585 3.08417 8.93338C3.13384 8.98262 3.18485 9.03089 3.23715 9.07806C3.17345 8.67915 3.14004 8.26933 3.14004 7.84998V4.84998C3.14004 4.60838 3.15769 4.36845 3.19352 4.13246ZM0.290039 5.84998C0.290039 4.03576 1.72583 2.59998 3.54004 2.59998H4.19004C4.44284 2.59998 4.67864 2.72733 4.81725 2.93875C4.95586 3.15016 4.97864 3.41718 4.87784 3.64902C4.72231 4.00675 4.64004 4.41388 4.64004 4.84998V7.84998C4.64004 8.74299 4.82721 9.58243 5.15898 10.3536C5.27513 10.6235 5.2229 10.9365 5.02535 11.1541C4.82781 11.3717 4.52137 11.4539 4.24146 11.3643C3.36165 11.0828 2.60145 10.5721 2.00971 9.98031C2.00041 9.97101 1.99136 9.96147 1.98257 9.9517C0.993548 8.85279 0.290039 7.48156 0.290039 5.84998Z" fill="#101010"/>
<path fill-rule="evenodd" clip-rule="evenodd" d="M17.1831 2.93875C17.3217 2.72733 17.5575 2.59998 17.8103 2.59998H18.4603C20.2745 2.59998 21.7103 4.03576 21.7103 5.84998C21.7103 7.48156 21.0068 8.85279 20.0178 9.9517C20.009 9.96147 19.9999 9.97101 19.9906 9.98031C19.3989 10.5721 18.6387 11.0828 17.7589 11.3643C17.479 11.4539 17.1725 11.3717 16.975 11.1541C16.7774 10.9365 16.7252 10.6235 16.8413 10.3536C17.1731 9.58243 17.3603 8.74299 17.3603 7.84998V4.84998C17.3603 4.41388 17.278 4.00675 17.1225 3.64902C17.0217 3.41718 17.0445 3.15016 17.1831 2.93875ZM18.8068 4.13246C18.8426 4.36845 18.8603 4.60838 18.8603 4.84998V7.84998C18.8603 8.26933 18.8269 8.67915 18.7632 9.07806C18.8155 9.03089 18.8665 8.98262 18.9162 8.93338C19.7192 8.03585 20.2103 7.01197 20.2103 5.84998C20.2103 4.98325 19.6195 4.2878 18.8068 4.13246Z" fill="#101010"/>
</svg>
