<svg width="22" height="22" viewBox="0 0 22 22" fill="none" xmlns="http://www.w3.org/2000/svg">
<path fill-rule="evenodd" clip-rule="evenodd" d="M11 7.25C11.4142 7.25 11.75 7.58579 11.75 8V13C11.75 13.4142 11.4142 13.75 11 13.75C10.5858 13.75 10.25 13.4142 10.25 13V8C10.25 7.58579 10.5858 7.25 11 7.25Z" fill="#101010"/>
<path fill-rule="evenodd" clip-rule="evenodd" d="M10.9999 2.34253C10.2 2.34253 9.23218 2.89142 8.41576 4.36374L2.35577 15.2637C1.59528 16.6353 1.6278 17.7172 2.0354 18.4116C2.44259 19.1053 3.36961 19.66 4.93985 19.66H10.9999C11.0417 19.66 11.0827 19.6635 11.1226 19.67H17.0599C18.6243 19.67 19.5522 19.1158 19.9609 18.421C20.3697 17.7261 20.4039 16.6443 19.6439 15.2737L13.5843 4.36437C12.7679 2.89205 11.7997 2.34253 10.9999 2.34253ZM10.8771 21.16H4.93985C3.04009 21.16 1.50711 20.4748 0.741796 19.1709C-0.0230966 17.8679 0.12442 16.1947 1.04393 14.5363L7.10394 3.63632C7.10407 3.6361 7.10382 3.63654 7.10394 3.63632C8.0675 1.89903 9.44989 0.842529 10.9999 0.842529C12.5498 0.842529 13.9319 1.89838 14.8954 3.63569L17.8354 8.92569L20.9556 14.546C21.8757 16.2054 22.02 17.879 21.2538 19.1815C20.4875 20.4843 18.9554 21.17 17.0599 21.17H10.9999C10.958 21.17 10.917 21.1666 10.8771 21.16Z" fill="#101010"/>
<path fill-rule="evenodd" clip-rule="evenodd" d="M9.99414 16C9.99414 15.4477 10.4419 15 10.9941 15H11.0031C11.5554 15 12.0031 15.4477 12.0031 16C12.0031 16.5523 11.5554 17 11.0031 17H10.9941C10.4419 17 9.99414 16.5523 9.99414 16Z" fill="#101010"/>
</svg>
