<svg width="22" height="22" viewBox="0 0 22 22" fill="none" xmlns="http://www.w3.org/2000/svg">
<path fill-rule="evenodd" clip-rule="evenodd" d="M3 1.75C2.31421 1.75 1.75 2.31421 1.75 3V5C1.75 5.68579 2.31421 6.25 3 6.25H6C6.68579 6.25 7.25 5.68579 7.25 5V3C7.25 2.31421 6.68579 1.75 6 1.75H3ZM0.25 3C0.25 1.48579 1.48579 0.25 3 0.25H6C7.51421 0.25 8.75 1.48579 8.75 3V5C8.75 6.51421 7.51421 7.75 6 7.75H3C1.48579 7.75 0.25 6.51421 0.25 5V3Z" fill="#101010"/>
<path fill-rule="evenodd" clip-rule="evenodd" d="M16.2 2.75C15.9542 2.75 15.75 2.95421 15.75 3.20001V4.79999C15.75 5.04579 15.9542 5.25 16.2 5.25H19.8C20.0458 5.25 20.25 5.04579 20.25 4.79999V3.20001C20.25 2.95421 20.0458 2.75 19.8 2.75H16.2ZM14.25 3.20001C14.25 2.12581 15.1258 1.25 16.2 1.25H19.8C20.8742 1.25 21.75 2.12581 21.75 3.20001V4.79999C21.75 5.87419 20.8742 6.75 19.8 6.75H16.2C15.1258 6.75 14.25 5.87419 14.25 4.79999V3.20001Z" fill="#101010"/>
<path fill-rule="evenodd" clip-rule="evenodd" d="M16.2 10.25C15.9542 10.25 15.75 10.4542 15.75 10.7V12.3C15.75 12.5458 15.9542 12.75 16.2 12.75H19.8C20.0458 12.75 20.25 12.5458 20.25 12.3V10.7C20.25 10.4542 20.0458 10.25 19.8 10.25H16.2ZM14.25 10.7C14.25 9.62581 15.1258 8.75 16.2 8.75H19.8C20.8742 8.75 21.75 9.62581 21.75 10.7V12.3C21.75 13.3742 20.8742 14.25 19.8 14.25H16.2C15.1258 14.25 14.25 13.3742 14.25 12.3V10.7Z" fill="#101010"/>
<path fill-rule="evenodd" clip-rule="evenodd" d="M7.25 4C7.25 3.58579 7.58579 3.25 8 3.25H15C15.4142 3.25 15.75 3.58579 15.75 4C15.75 4.41421 15.4142 4.75 15 4.75H8C7.58579 4.75 7.25 4.41421 7.25 4Z" fill="#101010"/>
<path d="M11.5 4V17C11.5 18.1 12.4 19 13.5 19H15" fill="white"/>
<path fill-rule="evenodd" clip-rule="evenodd" d="M11.5 3.25C11.9142 3.25 12.25 3.58579 12.25 4V17C12.25 17.6858 12.8142 18.25 13.5 18.25H15C15.4142 18.25 15.75 18.5858 15.75 19C15.75 19.4142 15.4142 19.75 15 19.75H13.5C11.9858 19.75 10.75 18.5142 10.75 17V4C10.75 3.58579 11.0858 3.25 11.5 3.25Z" fill="#101010"/>
<path fill-rule="evenodd" clip-rule="evenodd" d="M10.75 11.5C10.75 11.0858 11.0858 10.75 11.5 10.75H15C15.4142 10.75 15.75 11.0858 15.75 11.5C15.75 11.9142 15.4142 12.25 15 12.25H11.5C11.0858 12.25 10.75 11.9142 10.75 11.5Z" fill="#101010"/>
<path fill-rule="evenodd" clip-rule="evenodd" d="M16.2 17.75C15.9542 17.75 15.75 17.9542 15.75 18.2V19.8C15.75 20.0458 15.9542 20.25 16.2 20.25H19.8C20.0458 20.25 20.25 20.0458 20.25 19.8V18.2C20.25 17.9542 20.0458 17.75 19.8 17.75H16.2ZM14.25 18.2C14.25 17.1258 15.1258 16.25 16.2 16.25H19.8C20.8742 16.25 21.75 17.1258 21.75 18.2V19.8C21.75 20.8742 20.8742 21.75 19.8 21.75H16.2C15.1258 21.75 14.25 20.8742 14.25 19.8V18.2Z" fill="#101010"/>
</svg>
