<svg width="22" height="20" viewBox="0 0 22 20" fill="none" xmlns="http://www.w3.org/2000/svg">
<path fill-rule="evenodd" clip-rule="evenodd" d="M14.1842 8.22235C12.4292 6.45879 9.56905 6.45879 7.81406 8.22235L7.81146 8.22495C6.04862 9.97923 6.04675 12.8304 7.81276 14.5964L7.81406 14.5977C9.56834 16.3606 12.4195 16.3624 14.1855 14.5964L14.1868 14.5951C15.9497 12.8408 15.9515 9.98966 14.1855 8.22365L14.1842 8.22235ZM15.2534 7.15706C12.9088 4.8017 9.09042 4.80149 6.74552 7.15641C4.38988 9.50202 4.39197 13.3094 6.74487 15.663C9.09043 18.0193 12.8983 18.0174 15.2521 15.6643C17.6084 13.3187 17.6065 9.51089 15.2534 7.15706Z" fill="#101010"/>
<path fill-rule="evenodd" clip-rule="evenodd" d="M11.5335 10.8764C11.8282 11.1711 11.8282 11.6489 11.5335 11.9437L9.94355 13.5337C9.64884 13.8284 9.17102 13.8284 8.87631 13.5337C8.5816 13.239 8.58159 12.7612 8.8763 12.4665L10.4663 10.8764C10.761 10.5817 11.2388 10.5817 11.5335 10.8764Z" fill="#101010"/>
<path fill-rule="evenodd" clip-rule="evenodd" d="M17.8629 4.6931C17.867 4.68977 17.8709 4.6861 17.8747 4.68206C17.8843 4.67181 17.8933 4.65484 17.8937 4.63001C17.894 4.60557 17.885 4.57353 17.863 4.54706C17.861 4.54467 17.8589 4.54232 17.8567 4.54003C17.8551 4.53843 17.8536 4.53686 17.8519 4.53532C17.836 4.52045 17.815 4.51259 17.7937 4.51259C17.774 4.51259 17.7472 4.51963 17.7233 4.54012C17.721 4.54213 17.7187 4.54427 17.7164 4.54654L17.8629 4.6931ZM17.8553 4.69889L17.7052 4.55812C17.6903 4.57398 17.6824 4.59501 17.6824 4.61634C17.6824 4.63458 17.6885 4.65902 17.7057 4.68152C17.7071 4.68327 17.7085 4.68501 17.71 4.68673C17.7103 4.68708 17.7106 4.68744 17.7109 4.68779C17.7129 4.68965 17.7149 4.69142 17.7169 4.6931C17.7404 4.71238 17.7674 4.72009 17.7899 4.72009C17.81 4.72009 17.8338 4.71394 17.8553 4.69889ZM18.4291 3.99223C18.0808 3.62743 17.4909 3.62939 17.1452 3.99812C16.8357 4.32823 16.7765 4.89789 17.168 5.26486C17.5138 5.58911 18.0722 5.60496 18.4235 5.25364L18.4292 5.24794L18.4347 5.24206C18.7572 4.89805 18.7746 4.34386 18.4291 3.99223Z" fill="#101010"/>
<path fill-rule="evenodd" clip-rule="evenodd" d="M18.0401 4.87016C18.0459 4.86468 18.0516 4.85898 18.0572 4.85305C18.1435 4.76093 18.206 4.54294 18.0402 4.36994C18.0398 4.36961 18.0395 4.36928 18.0392 4.36896C18.034 4.36357 18.0286 4.35823 18.023 4.35294C17.9044 4.24179 17.6925 4.21789 17.5406 4.3688C17.5403 4.36912 17.54 4.36944 17.5397 4.36976L18.0401 4.87016ZM18.0391 4.8711C17.8974 5.0034 17.6812 5.00309 17.5399 4.87016C17.5396 4.86985 17.5393 4.86954 17.5389 4.86923C17.5363 4.86669 17.5336 4.8641 17.531 4.86147C17.5283 4.85861 17.5257 4.85573 17.5231 4.85283C17.3896 4.70242 17.4157 4.50142 17.5228 4.38713L18.0391 4.8711ZM18.6087 3.81827C18.1613 3.3511 17.4064 3.35405 16.9629 3.82714C16.5736 4.2423 16.4899 4.97179 16.997 5.44724C17.4359 5.85863 18.1484 5.88239 18.6003 5.43042C18.606 5.42472 18.6116 5.41893 18.6172 5.41305C19.026 4.97698 19.052 4.27063 18.6087 3.81827Z" fill="#101010"/>
<path fill-rule="evenodd" clip-rule="evenodd" d="M4.27527 18.2788C4.28201 18.2741 4.28853 18.2686 4.29465 18.262C4.30953 18.2462 4.31739 18.2251 4.31739 18.2038C4.31739 18.1822 4.3089 18.152 4.28344 18.1265L4.13688 18.2731C4.16031 18.2923 4.18738 18.3 4.20988 18.3C4.22999 18.3 4.25373 18.2939 4.27527 18.2788ZM4.12991 18.2667L4.27186 18.1153C4.26161 18.1057 4.24463 18.0966 4.21981 18.0963C4.19765 18.0961 4.16926 18.1034 4.14442 18.1212C4.13766 18.126 4.13115 18.1316 4.12511 18.1381C4.11024 18.1539 4.10238 18.175 4.10238 18.1963C4.10238 18.2145 4.10844 18.239 4.12569 18.2615C4.12703 18.2632 4.12844 18.265 4.12991 18.2667ZM4.84908 17.5722C4.50079 17.2074 3.9108 17.2093 3.56512 17.5781C3.24086 17.924 3.22502 18.4823 3.57633 18.8336L3.58203 18.8393L3.58792 18.8448C3.91803 19.1543 4.48768 19.2135 4.85465 18.822C5.17716 18.478 5.19457 17.9238 4.84908 17.5722Z" fill="#101010"/>
<path fill-rule="evenodd" clip-rule="evenodd" d="M4.45896 18.4511C4.46513 18.4453 4.47116 18.4393 4.47704 18.433C4.58842 18.3142 4.61219 18.1017 4.46022 17.9497L3.95981 18.4501C4.10111 18.583 4.31731 18.5834 4.45896 18.4511ZM3.95882 18.4492L4.44284 17.9329C4.3509 17.8467 4.13356 17.7843 3.96072 17.949C3.95466 17.9547 3.94867 17.9608 3.94273 17.9671C3.83559 18.0814 3.80952 18.2824 3.94297 18.4328C3.94554 18.4357 3.94818 18.4386 3.95087 18.4414C3.95349 18.4441 3.95614 18.4466 3.95882 18.4492ZM5.02863 17.3982C4.58122 16.9311 3.82625 16.934 3.38274 17.4071C2.97135 17.8459 2.94758 18.5584 3.39956 19.0104C3.40526 19.0161 3.41105 19.0217 3.41693 19.0272C3.8321 19.4164 4.56159 19.5002 5.03704 18.993C5.44585 18.5569 5.47188 17.8506 5.02863 17.3982Z" fill="#101010"/>
<path fill-rule="evenodd" clip-rule="evenodd" d="M20.6725 11.483C20.6766 11.4797 20.6805 11.476 20.6843 11.472C20.6939 11.4617 20.7029 11.4448 20.7032 11.4199C20.7035 11.3955 20.6945 11.3634 20.6725 11.337C20.6706 11.3346 20.6685 11.3322 20.6662 11.3299C20.6647 11.3283 20.6631 11.3268 20.6615 11.3252C20.6456 11.3104 20.6246 11.3025 20.6033 11.3025C20.5836 11.3025 20.5568 11.3095 20.5329 11.33C20.5305 11.332 20.5282 11.3342 20.526 11.3365L20.6725 11.483ZM20.6649 11.4888L20.5147 11.348C20.4999 11.3639 20.492 11.3849 20.492 11.4063C20.492 11.4245 20.4981 11.4489 20.5153 11.4714C20.5167 11.4732 20.5181 11.4749 20.5195 11.4766C20.5198 11.477 20.5202 11.4774 20.5205 11.4777C20.5224 11.4796 20.5245 11.4813 20.5265 11.483C20.5499 11.5023 20.577 11.51 20.5995 11.51C20.6196 11.51 20.6434 11.5039 20.6649 11.4888ZM21.2387 10.7821C20.8904 10.4173 20.3004 10.4193 19.9547 10.788C19.6453 11.1182 19.5861 11.6878 19.9775 12.0548C20.3234 12.379 20.8817 12.3949 21.2331 12.0436L21.2388 12.0379L21.2443 12.032C21.5668 11.688 21.5842 11.1338 21.2387 10.7821Z" fill="#101010"/>
<path fill-rule="evenodd" clip-rule="evenodd" d="M20.8496 11.6601C20.8555 11.6546 20.8612 11.6489 20.8667 11.643C20.9531 11.5508 21.0156 11.3329 20.8497 11.1599C20.8494 11.1595 20.8491 11.1592 20.8488 11.1589C20.8436 11.1535 20.8382 11.1481 20.8325 11.1429C20.714 11.0317 20.5021 11.0078 20.3502 11.1587C20.3499 11.159 20.3496 11.1594 20.3492 11.1597L20.8496 11.6601ZM20.8486 11.661C20.707 11.7933 20.4908 11.793 20.3495 11.6601C20.3492 11.6598 20.3488 11.6595 20.3485 11.6591C20.3458 11.6566 20.3432 11.654 20.3406 11.6514C20.3379 11.6485 20.3352 11.6456 20.3327 11.6427C20.1992 11.4923 20.2253 11.2913 20.3324 11.1771L20.8486 11.661ZM21.4183 10.6082C20.9709 10.141 20.2159 10.144 19.7724 10.6171C19.3832 11.0322 19.2995 11.7617 19.8066 12.2372C20.2454 12.6485 20.9579 12.6723 21.4099 12.2203C21.4156 12.2146 21.4212 12.2088 21.4267 12.203C21.8355 11.7669 21.8616 11.0605 21.4183 10.6082Z" fill="#101010"/>
<path fill-rule="evenodd" clip-rule="evenodd" d="M1.45603 11.4898C1.45864 11.4878 1.46101 11.4857 1.46313 11.4836L1.38959 11.41L1.31667 11.4829C1.31667 11.4829 1.31666 11.4829 1.31667 11.4829C1.33849 11.5004 1.3665 11.51 1.39334 11.51C1.41988 11.51 1.44163 11.5009 1.45603 11.4898ZM1.30962 11.4766L1.38032 11.4012L1.31656 11.337C1.3125 11.3404 1.30858 11.344 1.30483 11.348C1.28996 11.3639 1.2821 11.3849 1.2821 11.4063C1.2821 11.4245 1.28816 11.4489 1.30541 11.4714C1.30674 11.4732 1.30815 11.4749 1.30962 11.4766ZM1.32413 11.3312L1.38899 11.392L1.45154 11.3252C1.44128 11.3156 1.42431 11.3066 1.39951 11.3063C1.37737 11.306 1.34897 11.3134 1.32413 11.3312ZM1.3986 11.401L1.46313 11.3365C1.46312 11.3365 1.46313 11.3365 1.46313 11.3365C1.48858 11.3619 1.49707 11.3922 1.49707 11.4138C1.49707 11.4351 1.48922 11.4561 1.47434 11.472L1.3986 11.401ZM2.02886 10.7822C1.67474 10.411 1.10293 10.4295 0.75602 10.7765L0.750319 10.7822L0.744805 10.788C0.42055 11.1339 0.404704 11.6922 0.75602 12.0436L0.761721 12.0493L0.767603 12.0548C1.09771 12.3643 1.6674 12.4234 2.03437 12.032C2.35686 11.688 2.37429 11.1338 2.02886 10.7822Z" fill="#101010"/>
<path fill-rule="evenodd" clip-rule="evenodd" d="M1.63896 11.6613C1.63928 11.661 1.63959 11.6607 1.63991 11.6603L1.38959 11.41L1.1395 11.6601C1.1395 11.6601 1.13949 11.6601 1.1395 11.6601C1.29454 11.8065 1.52005 11.7792 1.63896 11.6613ZM1.13851 11.6592L1.38032 11.4012L1.13943 11.1599C1.13372 11.1654 1.12806 11.1711 1.12245 11.1771C1.01531 11.2913 0.989235 11.4923 1.12269 11.6427C1.12531 11.6457 1.128 11.6486 1.13075 11.6516C1.13331 11.6541 1.1359 11.6567 1.13851 11.6592ZM1.1395 11.6601C1.1395 11.6601 1.13949 11.6601 1.1395 11.6601V11.6601ZM1.14042 11.1589L1.38899 11.392L1.62253 11.1429C1.53058 11.0567 1.31326 10.9942 1.14042 11.1589ZM1.39861 11.401L1.63991 11.1597C1.6399 11.1597 1.63991 11.1597 1.63991 11.1597C1.79186 11.3117 1.76811 11.5242 1.65673 11.643L1.39861 11.401ZM2.2085 10.6083C1.75236 10.1315 1.01965 10.1593 0.579245 10.5997C0.573545 10.6054 0.567937 10.6112 0.562423 10.6171C0.15104 11.0559 0.127272 11.7684 0.579245 12.2203C0.584946 12.226 0.590738 12.2317 0.59662 12.2372C1.01179 12.6264 1.7413 12.7101 2.21676 12.203C2.62552 11.767 2.65159 11.0607 2.2085 10.6083Z" fill="#101010"/>
<path fill-rule="evenodd" clip-rule="evenodd" d="M17.8564 18.2798L17.7052 18.1381C17.6903 18.1539 17.6824 18.175 17.6824 18.1963C17.6824 18.2145 17.6885 18.239 17.7057 18.2615C17.7071 18.2632 17.7085 18.265 17.71 18.2667C17.7102 18.267 17.7104 18.2672 17.7107 18.2675C17.7127 18.2694 17.7148 18.2712 17.717 18.273C17.7388 18.2904 17.7668 18.3001 17.7937 18.3001C17.8202 18.3001 17.842 18.291 17.8564 18.2798ZM18.4292 17.5723C18.0751 17.201 17.5033 17.2196 17.1564 17.5665L17.1507 17.5722L17.1452 17.5781C16.8357 17.9082 16.7765 18.4778 17.168 18.8448C17.5138 19.1691 18.0722 19.1849 18.4235 18.8336L18.4292 18.8279L18.4347 18.822C18.7572 18.478 18.7746 17.9239 18.4292 17.5723ZM17.7233 18.1201C17.7472 18.0996 17.774 18.0926 17.7937 18.0926C17.815 18.0926 17.836 18.1004 17.8519 18.1153C17.8536 18.1168 17.8551 18.1184 17.8567 18.12C17.8589 18.1223 17.861 18.1246 17.863 18.127C17.885 18.1535 17.894 18.1855 17.8937 18.21C17.8933 18.2348 17.8843 18.2518 17.8747 18.262L17.7233 18.1201Z" fill="#101010"/>
<path fill-rule="evenodd" clip-rule="evenodd" d="M18.0394 18.4513L17.5228 17.9671C17.4157 18.0814 17.3896 18.2824 17.5231 18.4328C17.5257 18.4357 17.5284 18.4387 17.5311 18.4416C17.5337 18.4442 17.5363 18.4467 17.5389 18.4492C17.5393 18.4495 17.5396 18.4498 17.5399 18.4501C17.6949 18.5965 17.9205 18.5692 18.0394 18.4513ZM18.6089 17.3984C18.1528 16.9215 17.4201 16.9493 16.9797 17.3897C16.974 17.3954 16.9684 17.4012 16.9629 17.4071C16.5736 17.8223 16.4899 18.5518 16.997 19.0272C17.4359 19.4386 18.1484 19.4624 18.6003 19.0104C18.606 19.0047 18.6116 18.9989 18.6172 18.993C19.0259 18.557 19.052 17.8507 18.6089 17.3984ZM17.5406 17.9488C17.6925 17.7978 17.9044 17.8218 18.023 17.9329C18.0286 17.9382 18.034 17.9435 18.0392 17.9489C18.0395 17.9492 18.0398 17.9496 18.0402 17.9499C18.206 18.1229 18.1435 18.3409 18.0572 18.433L17.5406 17.9488Z" fill="#101010"/>
<path fill-rule="evenodd" clip-rule="evenodd" d="M4.27527 4.69889C4.28201 4.69418 4.28853 4.6886 4.29465 4.68206C4.30953 4.6662 4.31739 4.64518 4.31739 4.62384C4.31739 4.60226 4.3089 4.572 4.28344 4.54654L4.13688 4.6931C4.16031 4.71238 4.18738 4.72009 4.20988 4.72009C4.22999 4.72009 4.25373 4.71394 4.27527 4.69889ZM4.12991 4.68673L4.27186 4.53532C4.26161 4.52571 4.24463 4.51668 4.21981 4.51638C4.19765 4.5161 4.16926 4.52346 4.14442 4.54122C4.13766 4.54606 4.13115 4.55168 4.12511 4.55812C4.11024 4.57398 4.10238 4.59501 4.10238 4.61634C4.10238 4.63458 4.10844 4.65902 4.12569 4.68152C4.12703 4.68327 4.12844 4.68501 4.12991 4.68673ZM4.84908 3.99223C4.50079 3.62743 3.9108 3.62939 3.56512 3.99812C3.24086 4.34399 3.22502 4.90233 3.57633 5.25364L3.58203 5.25934L3.58792 5.26486C3.91803 5.57434 4.48768 5.63349 4.85465 5.24206C5.17716 4.89805 5.19457 4.34386 4.84908 3.99223Z" fill="#101010"/>
<path fill-rule="evenodd" clip-rule="evenodd" d="M4.45896 4.8711C4.46513 4.86533 4.47116 4.85932 4.47704 4.85305C4.58842 4.73424 4.61219 4.52173 4.46022 4.36976L3.95981 4.87016C4.10111 5.00309 4.31731 5.0034 4.45896 4.8711ZM3.95882 4.86923L4.44284 4.35294C4.3509 4.26674 4.13356 4.20433 3.96072 4.36899C3.95466 4.37476 3.94867 4.3808 3.94273 4.38713C3.83559 4.50142 3.80952 4.70242 3.94297 4.85283C3.94554 4.85573 3.94818 4.85861 3.95087 4.86147C3.95349 4.8641 3.95614 4.86669 3.95882 4.86923ZM5.02863 3.81827C4.58122 3.3511 3.82625 3.35405 3.38274 3.82714C2.97135 4.26594 2.94758 4.97845 3.39956 5.43042C3.40526 5.43612 3.41105 5.44173 3.41693 5.44724C3.8321 5.83646 4.56159 5.9202 5.03704 5.41305C5.44585 4.97698 5.47188 4.27063 5.02863 3.81827Z" fill="#101010"/>
<path fill-rule="evenodd" clip-rule="evenodd" d="M11.0655 1.87904C11.072 1.87424 11.0785 1.8686 11.0847 1.86201C11.0943 1.85175 11.1033 1.83478 11.1036 1.80996C11.1039 1.78551 11.0949 1.75347 11.0729 1.727C11.0696 1.72294 11.0659 1.71901 11.0619 1.71526C11.0516 1.70565 11.0346 1.69663 11.0098 1.69632C10.9877 1.69605 10.9593 1.7034 10.9344 1.72116C10.9277 1.72601 10.9212 1.73162 10.9151 1.73806C10.9003 1.75393 10.8924 1.77495 10.8924 1.79628C10.8924 1.81594 10.8994 1.84279 10.9199 1.86667C10.9219 1.86901 10.9241 1.87132 10.9263 1.87359C10.9491 1.89638 10.9738 1.9035 10.9938 1.90375C11.0118 1.90397 11.0394 1.89825 11.0655 1.87904ZM10.3551 1.17806C10.7166 0.792473 11.3032 0.836203 11.6335 1.16648C11.9848 1.5178 11.9689 2.07613 11.6447 2.422C11.2777 2.81344 10.708 2.75428 10.3779 2.4448C9.9865 2.07783 10.0457 1.50818 10.3551 1.17806Z" fill="#101010"/>
<path fill-rule="evenodd" clip-rule="evenodd" d="M11.2491 2.05109C11.2552 2.04535 11.2612 2.03933 11.2671 2.03303C11.3535 1.9409 11.416 1.72291 11.2501 1.54991C11.2446 1.5442 11.2389 1.53853 11.2329 1.53292C11.141 1.44671 10.9236 1.3843 10.7508 1.54897C10.7447 1.55474 10.7387 1.56078 10.7328 1.56711C10.6217 1.68567 10.5978 1.89754 10.7487 2.04944C10.749 2.04976 10.7493 2.05008 10.7496 2.0504C10.8213 2.12209 10.9096 2.15277 10.9908 2.15377C11.0699 2.15473 11.1682 2.12694 11.2491 2.05109ZM10.1728 1.00712C10.64 0.508729 11.3899 0.569323 11.8103 0.989741C12.2623 1.44171 12.2385 2.15422 11.8271 2.59302C11.3517 3.10017 10.6222 3.01644 10.207 2.62722C9.69986 2.15177 9.78359 1.42228 10.1728 1.00712Z" fill="#101010"/>
</svg>
