<svg width="22" height="22" viewBox="0 0 22 22" fill="none" xmlns="http://www.w3.org/2000/svg">
<path fill-rule="evenodd" clip-rule="evenodd" d="M16.0104 10.34C15.8337 10.34 15.6904 10.4833 15.6904 10.66C15.6904 10.8367 15.8337 10.98 16.0104 10.98C16.1871 10.98 16.3304 10.8367 16.3304 10.66C16.3304 10.4833 16.1872 10.34 16.0104 10.34ZM14.1904 10.66C14.1904 9.65476 15.0053 8.84003 16.0104 8.84003C17.0156 8.84003 17.8304 9.65479 17.8304 10.66C17.8304 11.6651 17.0156 12.48 16.0104 12.48C15.0053 12.48 14.1904 11.6651 14.1904 10.66Z" fill="#101010"/>
<path fill-rule="evenodd" clip-rule="evenodd" d="M2.33033 2.33033C1.96884 2.69182 1.75 3.39464 1.75 5V10.7C1.75 12.3054 1.96884 13.0082 2.33033 13.3697C2.69182 13.7312 3.39464 13.95 5 13.95H10.27V9.59003C10.27 8.47928 10.4444 7.49991 11.1122 6.83218C11.7799 6.16445 12.7592 5.98999 13.87 5.98999H18.15C18.1835 5.98999 18.2169 5.9902 18.25 5.99062V5C18.25 3.39464 18.0312 2.69182 17.6697 2.33033C17.3082 1.96884 16.6054 1.75 15 1.75H5C3.39464 1.75 2.69182 1.96884 2.33033 2.33033ZM1.26967 1.26967C2.10818 0.431164 3.40536 0.25 5 0.25H15C16.5946 0.25 17.8918 0.431164 18.7303 1.26967C19.5688 2.10818 19.75 3.40536 19.75 5V6.78998C19.75 7.00446 19.6582 7.20867 19.4977 7.35101C19.3373 7.49335 19.1236 7.56019 18.9106 7.53464C18.6887 7.508 18.4286 7.48999 18.15 7.48999H13.87C12.8407 7.48999 12.3951 7.67055 12.1728 7.89283C11.9505 8.11512 11.77 8.56077 11.77 9.59003V14.7C11.77 15.1142 11.4342 15.45 11.02 15.45H5C3.40536 15.45 2.10818 15.2688 1.26967 14.4303C0.431164 13.5918 0.25 12.2947 0.25 10.7V5C0.25 3.40536 0.431164 2.10818 1.26967 1.26967Z" fill="#101010"/>
<path fill-rule="evenodd" clip-rule="evenodd" d="M8 13.95C8.41421 13.95 8.75 14.2858 8.75 14.7V19C8.75 19.4142 8.41421 19.75 8 19.75C7.58579 19.75 7.25 19.4142 7.25 19V14.7C7.25 14.2858 7.58579 13.95 8 13.95Z" fill="#101010"/>
<path fill-rule="evenodd" clip-rule="evenodd" d="M0.25 10.9C0.25 10.4858 0.585786 10.15 1 10.15H11C11.4142 10.15 11.75 10.4858 11.75 10.9C11.75 11.3142 11.4142 11.65 11 11.65H1C0.585786 11.65 0.25 11.3142 0.25 10.9Z" fill="#101010"/>
<path fill-rule="evenodd" clip-rule="evenodd" d="M4.2002 19C4.2002 18.5858 4.53598 18.25 4.9502 18.25H11.0002C11.4144 18.25 11.7502 18.5858 11.7502 19C11.7502 19.4142 11.4144 19.75 11.0002 19.75H4.9502C4.53598 19.75 4.2002 19.4142 4.2002 19Z" fill="#101010"/>
<path fill-rule="evenodd" clip-rule="evenodd" d="M16.0095 10.34C15.8327 10.34 15.6895 10.4833 15.6895 10.66C15.6895 10.8367 15.8327 10.98 16.0095 10.98C16.1862 10.98 16.3294 10.8367 16.3294 10.66C16.3294 10.4833 16.1862 10.34 16.0095 10.34ZM14.1895 10.66C14.1895 9.65476 15.0044 8.84003 16.0095 8.84003C17.0146 8.84003 17.8294 9.65479 17.8294 10.66C17.8294 11.6651 17.0146 12.48 16.0095 12.48C15.0043 12.48 14.1895 11.6651 14.1895 10.66Z" fill="#101010"/>
<path fill-rule="evenodd" clip-rule="evenodd" d="M11.1117 6.83218C11.7794 6.16445 12.7588 5.98999 13.8695 5.98999H18.1495C18.491 5.98999 18.8109 6.01195 19.0889 6.04532L19.095 6.04606L19.095 6.04608C19.9507 6.15593 20.6866 6.45956 21.1678 7.14331C21.6202 7.78596 21.7495 8.63405 21.7495 9.59003V18.15C21.7495 19.2608 21.5751 20.2401 20.9074 20.9078C20.2396 21.5756 19.2603 21.75 18.1495 21.75H13.8695C12.7588 21.75 11.7794 21.5756 11.1117 20.9078C10.444 20.2401 10.2695 19.2608 10.2695 18.15V9.59003C10.2695 8.47928 10.444 7.49991 11.1117 6.83218ZM12.1724 7.89283C11.9501 8.11512 11.7695 8.56077 11.7695 9.59003V18.15C11.7695 19.1793 11.9501 19.6249 12.1724 19.8472C12.3946 20.0695 12.8403 20.25 13.8695 20.25H18.1495C19.1788 20.25 19.6244 20.0695 19.8467 19.8472C20.069 19.6249 20.2495 19.1793 20.2495 18.15V9.59003C20.2495 8.71601 20.1189 8.25907 19.9412 8.0067C19.7928 7.79576 19.5292 7.61461 18.9071 7.53426C18.6858 7.50783 18.4268 7.48999 18.1495 7.48999H13.8695C12.8403 7.48999 12.3946 7.67055 12.1724 7.89283ZM16.0096 10.34C15.8337 10.34 15.6895 10.4842 15.6895 10.66C15.6895 10.8358 15.8338 10.98 16.0096 10.98C16.1853 10.98 16.3295 10.8358 16.3295 10.66C16.3295 10.4842 16.1854 10.34 16.0096 10.34ZM14.1895 10.66C14.1895 9.6557 15.0054 8.84003 16.0096 8.84003C17.0137 8.84003 17.8295 9.65573 17.8295 10.66C17.8295 11.6642 17.0138 12.48 16.0096 12.48C15.0053 12.48 14.1895 11.6642 14.1895 10.66ZM16.0096 14.62C15.565 14.62 15.1681 14.8318 14.9112 15.1609C14.7296 15.3946 14.6195 15.6937 14.6195 16.01C14.6195 16.7758 15.2438 17.4 16.0096 17.4C16.7753 17.4 17.3995 16.7758 17.3995 16.01C17.3995 15.603 17.2159 15.2232 16.9151 14.954C16.6757 14.7485 16.3596 14.62 16.0096 14.62ZM13.7282 14.2387C14.2513 13.568 15.0743 13.12 16.0096 13.12C16.7376 13.12 17.4 13.3901 17.9002 13.8227L17.9079 13.8294L17.9078 13.8295C18.5048 14.3601 18.8995 15.1388 18.8995 16.01C18.8995 17.6042 17.6038 18.9 16.0096 18.9C14.4153 18.9 13.1195 17.6042 13.1195 16.01C13.1195 15.3465 13.3493 14.7258 13.7275 14.2396L13.7282 14.2387Z" fill="#101010"/>
<path fill-rule="evenodd" clip-rule="evenodd" d="M16.0092 14.62C15.5646 14.62 15.1677 14.8318 14.9108 15.1609C14.7292 15.3946 14.6191 15.6937 14.6191 16.01C14.6191 16.7758 15.2434 17.4 16.0092 17.4C16.7749 17.4 17.3991 16.7758 17.3991 16.01C17.3991 15.603 17.2155 15.2232 16.9147 14.954C16.6754 14.7485 16.3592 14.62 16.0092 14.62ZM13.7278 14.2387C14.2509 13.568 15.0739 13.12 16.0092 13.12C16.7372 13.12 17.3996 13.3901 17.8998 13.8227L17.9075 13.8294L17.9074 13.8295C18.5044 14.3601 18.8991 15.1388 18.8991 16.01C18.8991 17.6042 17.6034 18.9 16.0092 18.9C14.4149 18.9 13.1191 17.6042 13.1191 16.01C13.1191 15.3465 13.3489 14.7258 13.7271 14.2396L13.7278 14.2387L13.7278 14.2387Z" fill="#101010"/>
<path fill-rule="evenodd" clip-rule="evenodd" d="M16.0095 10.34C15.8327 10.34 15.6895 10.4833 15.6895 10.66C15.6895 10.8367 15.8327 10.98 16.0095 10.98C16.1862 10.98 16.3294 10.8367 16.3294 10.66C16.3294 10.4833 16.1862 10.34 16.0095 10.34ZM14.1895 10.66C14.1895 9.65476 15.0044 8.84003 16.0095 8.84003C17.0146 8.84003 17.8294 9.65479 17.8294 10.66C17.8294 11.6651 17.0146 12.48 16.0095 12.48C15.0043 12.48 14.1895 11.6651 14.1895 10.66Z" fill="#101010"/>
</svg>
