<svg width="22" height="22" viewBox="0 0 22 22" fill="none" xmlns="http://www.w3.org/2000/svg">
<path fill-rule="evenodd" clip-rule="evenodd" d="M4.33092 1.10463C4.94004 0.648622 5.71801 0.400024 6.70039 0.400024H15.2904C16.2728 0.400024 17.0502 0.648622 17.6588 1.10259C18.2573 1.54901 18.6266 2.14524 18.8852 2.72418L18.8858 2.72542L21.4438 8.48116C21.4442 8.48186 21.4445 8.48257 21.4448 8.48327C21.7525 9.16564 21.8085 9.96451 21.6909 10.6955C21.573 11.4275 21.2686 12.169 20.7662 12.7236L13.9159 20.274C12.3271 22.0228 9.69335 22.0199 8.0972 20.2765L8.09563 20.2747L1.23752 12.7368C1.23716 12.7364 1.2368 12.736 1.23643 12.7356C0.731499 12.1842 0.427728 11.4412 0.308869 10.7104C0.189918 9.97909 0.24289 9.17852 0.544491 8.49664L3.10449 2.73664C3.10459 2.73641 3.10439 2.73688 3.10449 2.73664C3.36285 2.15271 3.73225 1.55281 4.33092 1.10463ZM5.22987 2.30542C4.91376 2.54206 4.67792 2.88756 4.47629 3.3434L1.91629 9.1034C1.91622 9.10358 1.91637 9.10322 1.91629 9.1034C1.75808 9.46148 1.70591 9.9562 1.78941 10.4696C1.87297 10.9833 2.07884 11.4348 2.34326 11.7232L2.34515 11.7253L9.20358 19.2636C9.20379 19.2638 9.20337 19.2633 9.20358 19.2636C10.2075 20.3594 11.8142 20.3566 12.8053 19.2657L19.6546 11.7165M5.22987 2.30542C5.53575 2.07643 5.98278 1.90002 6.70039 1.90002L5.22987 2.30542ZM6.70039 1.90002H15.2904H6.70039ZM15.2904 1.90002C16.008 1.90002 16.4556 2.07643 16.762 2.30495L15.2904 1.90002ZM16.762 2.30495C17.0784 2.54095 17.314 2.88456 17.5154 3.33538L16.762 2.30495ZM17.5154 3.33538C17.5153 3.33522 17.5154 3.33554 17.5154 3.33538V3.33538Z" fill="#101010"/>
<path fill-rule="evenodd" clip-rule="evenodd" d="M1.75 7C1.75 6.58579 2.08579 6.25 2.5 6.25H19.5C19.9142 6.25 20.25 6.58579 20.25 7C20.25 7.41421 19.9142 7.75 19.5 7.75H2.5C2.08579 7.75 1.75 7.41421 1.75 7Z" fill="#101010"/>
</svg>
