<svg width="22" height="22" viewBox="0 0 22 22" fill="none" xmlns="http://www.w3.org/2000/svg">
<path fill-rule="evenodd" clip-rule="evenodd" d="M11.287 0.30709C11.5673 0.423176 11.75 0.696653 11.75 1V8C11.75 8.41421 11.4142 8.75 11 8.75C10.5858 8.75 10.25 8.41421 10.25 8V2.81066L9.53033 3.53033C9.23744 3.82322 8.76256 3.82322 8.46967 3.53033C8.17678 3.23744 8.17678 2.76256 8.46967 2.46967L10.4697 0.46967C10.6842 0.255171 11.0068 0.191005 11.287 0.30709Z" fill="#101010"/>
<path fill-rule="evenodd" clip-rule="evenodd" d="M10.4697 0.46967C10.7626 0.176777 11.2374 0.176777 11.5303 0.46967L13.5303 2.46967C13.8232 2.76256 13.8232 3.23744 13.5303 3.53033C13.2374 3.82322 12.7626 3.82322 12.4697 3.53033L10.4697 1.53033C10.1768 1.23744 10.1768 0.762563 10.4697 0.46967Z" fill="#101010"/>
<path fill-rule="evenodd" clip-rule="evenodd" d="M0.22998 12C0.22998 11.5858 0.565767 11.25 0.97998 11.25H5.38998C6.05393 11.25 6.6537 11.6204 6.9508 12.2146L8.1208 14.5546C8.33487 14.9827 8.76655 15.25 9.23998 15.25H12.77C13.2434 15.25 13.6751 14.9827 13.8892 14.5546L15.0592 12.2146C15.3582 11.6166 15.9703 11.25 16.62 11.25H20.98C21.3942 11.25 21.73 11.5858 21.73 12C21.73 12.4142 21.3942 12.75 20.98 12.75H16.62C16.5297 12.75 16.4418 12.8034 16.4008 12.8854L15.2308 15.2254C14.7649 16.1573 13.8165 16.75 12.77 16.75H9.23998C8.19341 16.75 7.24509 16.1573 6.77916 15.2254L5.60916 12.8854C5.56626 12.7996 5.48603 12.75 5.38998 12.75H0.97998C0.565767 12.75 0.22998 12.4142 0.22998 12Z" fill="#101010"/>
<path fill-rule="evenodd" clip-rule="evenodd" d="M6.74204 4.021C6.80224 4.43082 6.51882 4.81184 6.109 4.87204C4.47019 5.11277 3.434 5.69249 2.78063 6.59769C2.10743 7.53038 1.75 8.93101 1.75 11V14C1.75 16.426 2.2398 17.9291 3.15533 18.8447C4.07086 19.7602 5.57397 20.25 8 20.25H14C16.426 20.25 17.9291 19.7602 18.8447 18.8447C19.7602 17.9291 20.25 16.426 20.25 14V11C20.25 8.93101 19.8926 7.53038 19.2194 6.59769C18.566 5.69249 17.5298 5.11277 15.891 4.87204C15.4812 4.81184 15.1978 4.43082 15.258 4.021C15.3182 3.61118 15.6992 3.32776 16.109 3.38796C18.0102 3.66723 19.474 4.38751 20.4356 5.71981C21.3774 7.02462 21.75 8.79899 21.75 11V14C21.75 16.574 21.2398 18.5709 19.9053 19.9053C18.5709 21.2398 16.574 21.75 14 21.75H8C5.42603 21.75 3.42914 21.2398 2.09467 19.9053C0.760201 18.5709 0.25 16.574 0.25 14V11C0.25 8.79899 0.622567 7.02462 1.56437 5.71981C2.526 4.38751 3.98981 3.66723 5.891 3.38796C6.30082 3.32776 6.68184 3.61118 6.74204 4.021Z" fill="#101010"/>
</svg>
