<svg width="22" height="20" viewBox="0 0 22 20" fill="none" xmlns="http://www.w3.org/2000/svg">
<path fill-rule="evenodd" clip-rule="evenodd" d="M19.2661 5.35145C20.3702 3.24169 18.1296 0.958807 16.0056 2.02078L12.7656 3.64078C11.6545 4.19635 10.346 4.19635 9.23481 3.64078L5.99481 2.02078C3.86547 0.956108 1.62436 3.24634 2.73364 5.35015L8.83391 16.9406C9.75272 18.6864 12.2477 18.6864 13.1665 16.9406L19.2661 5.35145C19.266 5.35165 19.2662 5.35126 19.2661 5.35145ZM15.3348 0.679135C18.7707 -1.0388 22.3698 2.6578 20.5946 6.04787L14.4939 17.6393C13.0127 20.4535 8.98771 20.4535 7.50653 17.6393L1.40679 6.04976C-0.383313 2.65371 3.23513 -1.03611 6.66563 0.679135L9.90563 2.29914C10.5945 2.64356 11.406 2.64356 12.0948 2.29914L15.3348 0.679135Z" fill="#101010"/>
</svg>
