<svg width="20" height="22" viewBox="0 0 20 22" fill="none" xmlns="http://www.w3.org/2000/svg">
<path fill-rule="evenodd" clip-rule="evenodd" d="M0.882936 11.745C1.59955 10.7077 2.92917 10.25 5 10.25C5.54882 10.25 5.97196 10.3068 6.35216 10.4549C6.70915 10.5939 6.98172 10.7986 7.22126 10.9784C7.23089 10.9857 7.24047 10.9929 7.25 11C7.2851 11.0263 7.31782 11.0557 7.34779 11.0877L8.35645 12.1663C9.25187 13.113 10.7506 13.1091 11.6326 12.1673L11.6347 12.165L12.6547 11.085C12.684 11.054 12.7159 11.0256 12.75 11C12.7595 10.9929 12.7691 10.9857 12.7787 10.9784C13.0183 10.7986 13.2909 10.5939 13.6478 10.4549C14.028 10.3068 14.4512 10.25 15 10.25C17.0708 10.25 18.4005 10.7077 19.1171 11.745C19.4601 12.2416 19.6103 12.8026 19.6812 13.3455C19.75 13.8728 19.75 14.4402 19.75 14.973V16C19.75 17.4466 19.4926 18.9093 18.5775 20.0136C17.6386 21.1465 16.1387 21.75 14 21.75H6C3.4289 21.75 1.84938 21.1797 1.00787 19.9612C0.602354 19.374 0.420972 18.7052 0.334443 18.0428C0.249968 17.396 0.249985 16.6975 0.250001 16.0278L0.250001 14.973C0.249981 14.4402 0.24996 13.8728 0.318816 13.3455C0.389717 12.8026 0.539853 12.2416 0.882936 11.745ZM1.80619 13.5398C1.75121 13.9608 1.75 14.4356 1.75 15V16C1.75 16.7019 1.75121 17.308 1.82181 17.8485C1.89153 18.3823 2.02265 18.791 2.24214 19.1088C2.65062 19.7003 3.57111 20.25 6 20.25H14C15.8613 20.25 16.8614 19.7335 17.4225 19.0564C18.0074 18.3507 18.25 17.3134 18.25 16V15C18.25 14.4356 18.2488 13.9608 18.1938 13.5398C18.1397 13.1255 18.0399 12.8247 17.8829 12.5975C17.5995 12.1873 16.9292 11.75 15 11.75C14.5488 11.75 14.332 11.7982 14.1922 11.8526C14.0531 11.9068 13.9391 11.9841 13.701 12.1618L12.7274 13.1927C12.727 13.1931 12.7266 13.1936 12.7262 13.194C11.2484 14.7704 8.74904 14.7666 7.26474 13.195L7.26221 13.1923L6.29752 12.1607C6.06044 11.9838 5.94663 11.9067 5.80784 11.8526C5.66804 11.7982 5.45119 11.75 5 11.75C3.07083 11.75 2.40046 12.1873 2.11707 12.5975C1.96015 12.8247 1.86029 13.1255 1.80619 13.5398Z" fill="#101010"/>
<path fill-rule="evenodd" clip-rule="evenodd" d="M2.88294 1.74495C3.59955 0.707658 4.92917 0.25 7 0.25H13C15.0708 0.25 16.4005 0.707658 17.1171 1.74495C17.4601 2.24156 17.6103 2.80261 17.6812 3.34554C17.75 3.8728 17.75 4.44024 17.75 4.97301V11C17.75 11.4142 17.4142 11.75 17 11.75C16.5858 11.75 16.25 11.4142 16.25 11V5C16.25 4.43556 16.2488 3.96078 16.1938 3.53977C16.1397 3.12552 16.0399 2.82469 15.8829 2.59755C15.5995 2.18734 14.9292 1.75 13 1.75H7C5.07083 1.75 4.40046 2.18734 4.11707 2.59755C3.96015 2.82469 3.86029 3.12552 3.80619 3.53977C3.75121 3.96078 3.75 4.43556 3.75 5V11C3.75 11.4142 3.41421 11.75 3 11.75C2.58579 11.75 2.25 11.4142 2.25 11L2.25 4.97301C2.24998 4.44024 2.24996 3.8728 2.31882 3.34554C2.38972 2.80261 2.53985 2.24156 2.88294 1.74495Z" fill="#101010"/>
</svg>
