<svg width="22" height="22" viewBox="0 0 22 22" fill="none" xmlns="http://www.w3.org/2000/svg">
<path fill-rule="evenodd" clip-rule="evenodd" d="M4.53965 1.64463C5.16306 1.18848 5.94027 0.899902 6.72003 0.899902H10.52C10.8925 0.899902 11.3368 0.960384 11.7511 1.07876C12.1318 1.18755 12.5811 1.37144 12.9114 1.68184L15.9792 4.05686L15.0609 5.24295L11.9233 2.81385L11.8897 2.78023C11.8231 2.71359 11.643 2.60792 11.339 2.52105C11.0533 2.43942 10.7476 2.3999 10.52 2.3999H6.72003C6.2998 2.3999 5.82701 2.56133 5.42542 2.85518C5.02436 3.14863 4.7469 3.53477 4.64764 3.9318L4.64103 3.95825L2.22954 11.2932L2.22634 11.3022C2.05036 11.7949 2.13847 12.1785 2.32382 12.43C2.5127 12.6863 2.87295 12.8999 3.42003 12.8999H7.42003C8.46338 12.8999 9.32887 13.7913 9.16249 14.956L9.16111 14.9657L8.65735 18.1893L8.65217 18.2126C8.5415 18.7106 8.89517 19.351 9.4572 19.5384L9.47038 19.5428L9.48337 19.5477C9.68635 19.6238 9.9531 19.622 10.2262 19.5281C10.5044 19.4325 10.7051 19.2702 10.796 19.1339L10.7976 19.1315L14.8976 13.0315L16.1425 13.8683L12.0441 19.9659C12.0438 19.9663 12.0435 19.9668 12.0432 19.9672C11.7341 20.4302 11.2352 20.7675 10.7138 20.9467C10.1908 21.1265 9.56297 21.1753 8.96979 20.957C7.74702 20.5419 6.91062 19.2023 7.18236 17.9128L7.67811 14.7399C7.697 14.6011 7.65622 14.5245 7.62015 14.4836C7.57832 14.4362 7.50988 14.3999 7.42003 14.3999H3.42003C2.46712 14.3999 1.62736 14.0135 1.11624 13.3198C0.603392 12.6238 0.490495 11.7113 0.810339 10.8072L3.19966 3.53968C3.40549 2.74942 3.92306 2.0958 4.53965 1.64463Z" fill="#101010"/>
<path fill-rule="evenodd" clip-rule="evenodd" d="M16.6038 3.7261C16.5051 3.81722 16.3701 4.03451 16.3701 4.65V14.45C16.3701 15.0655 16.5051 15.2828 16.6038 15.3739C16.7173 15.4786 16.9776 15.6 17.6201 15.6H18.6201C19.2626 15.6 19.523 15.4786 19.6364 15.3739C19.7351 15.2828 19.8701 15.0655 19.8701 14.45V4.65C19.8701 4.03451 19.7351 3.81722 19.6364 3.7261C19.523 3.62138 19.2626 3.5 18.6201 3.5H17.6201C16.9776 3.5 16.7173 3.62138 16.6038 3.7261ZM15.5864 2.6239C16.123 2.12862 16.8626 2 17.6201 2H18.6201C19.3776 2 20.1173 2.12862 20.6538 2.6239C21.2051 3.13278 21.3701 3.86549 21.3701 4.65V14.45C21.3701 15.2345 21.2051 15.9672 20.6538 16.4761C20.1173 16.9714 19.3776 17.1 18.6201 17.1H17.6201C16.8626 17.1 16.123 16.9714 15.5864 16.4761C15.0351 15.9672 14.8701 15.2345 14.8701 14.45V4.65C14.8701 3.86549 15.0351 3.13278 15.5864 2.6239Z" fill="#101010"/>
</svg>
