<svg width="22" height="22" viewBox="0 0 22 22" fill="none" xmlns="http://www.w3.org/2000/svg">
<path fill-rule="evenodd" clip-rule="evenodd" d="M2.34985 1.75C2.04386 1.75 1.75485 2.00216 1.75983 2.40063L1.75994 2.41L1.75989 3.95999C1.75989 4.02195 1.78662 4.16578 1.871 4.35275C1.95251 4.53338 2.05782 4.68729 2.1502 4.77967L2.16413 4.79397L4.72412 7.49398C4.7392 7.50988 4.75357 7.52644 4.7672 7.5436C4.95508 7.78018 5.12425 8.08391 5.24771 8.39331C5.36942 8.69836 5.46985 9.06666 5.46985 9.42999V13C5.46985 13.4501 5.9962 13.7626 6.41104 13.5147L7.34161 12.9109L7.35576 12.9019C7.37323 12.8911 7.44546 12.8276 7.51715 12.6899C7.58718 12.5554 7.60986 12.4394 7.60986 12.39V9.48999C7.60986 9.10437 7.70393 8.70252 7.85426 8.34754C8.00238 7.99776 8.22825 7.63922 8.53819 7.37365L11.4084 4.83996C11.4995 4.74057 11.6135 4.57255 11.7059 4.36942C11.8054 4.15083 11.8499 3.95728 11.8499 3.82999V2.35001C11.8499 2.0242 11.5756 1.75 11.2499 1.75H2.34985ZM0.259886 2.41423C0.247587 1.21508 1.17752 0.25 2.34985 0.25H11.2499C12.4041 0.25 13.3499 1.19581 13.3499 2.35001V3.82999C13.3499 4.24269 13.2243 4.65415 13.0713 4.99057C12.9169 5.32985 12.7045 5.65874 12.4681 5.90236C12.4546 5.9162 12.4407 5.92951 12.4262 5.94227L9.51573 8.51156C9.42875 8.58549 9.32146 8.72948 9.23551 8.93246C9.15081 9.13247 9.10986 9.33561 9.10986 9.48999V12.39C9.10986 12.7406 8.99755 13.0946 8.84759 13.3826C8.70057 13.665 8.47053 13.9735 8.15232 14.1729L7.21814 14.7791L7.20214 14.7892C5.85796 15.6141 3.96985 14.7076 3.96985 13V9.42999C3.96985 9.32332 3.93529 9.15164 3.85451 8.94919C3.78095 8.76482 3.68852 8.60369 3.60985 8.49887L1.08178 5.83253C0.837747 5.58609 0.640795 5.2734 0.503762 4.96974C0.368141 4.6692 0.259886 4.30803 0.259886 3.95999V2.41423Z" fill="#101010"/>
<path fill-rule="evenodd" clip-rule="evenodd" d="M15.2096 1.12056C15.2755 0.711627 15.6605 0.433593 16.0694 0.49955C16.5463 0.576469 17.0573 0.673014 17.5214 0.790371C17.9696 0.903727 18.433 1.05056 18.7795 1.24735C20.9428 2.46718 21.75 4.78069 21.75 7.99999V14C21.75 16.574 21.2398 18.5709 19.9053 19.9053C18.5709 21.2398 16.574 21.75 14 21.75H8C5.42603 21.75 3.42914 21.2398 2.09467 19.9053C0.760201 18.5709 0.25 16.574 0.25 14V11C0.25 10.5858 0.585786 10.25 1 10.25C1.41421 10.25 1.75 10.5858 1.75 11V14C1.75 16.426 2.2398 17.9291 3.15533 18.8447C4.07086 19.7602 5.57397 20.25 8 20.25H14C16.426 20.25 17.9291 19.7602 18.8447 18.8447C19.7602 17.9291 20.25 16.426 20.25 14V7.99999C20.25 4.97995 19.4975 3.37374 18.0418 2.55338L18.0392 2.55195C17.8759 2.45907 17.5748 2.35111 17.1536 2.24459C16.7477 2.14195 16.2837 2.05349 15.8306 1.98041C15.4217 1.91446 15.1436 1.52948 15.2096 1.12056Z" fill="#101010"/>
<path fill-rule="evenodd" clip-rule="evenodd" d="M11.25 12C11.25 11.5858 11.5858 11.25 12 11.25H17C17.4142 11.25 17.75 11.5858 17.75 12C17.75 12.4142 17.4142 12.75 17 12.75H12C11.5858 12.75 11.25 12.4142 11.25 12Z" fill="#101010"/>
<path fill-rule="evenodd" clip-rule="evenodd" d="M9.25 16C9.25 15.5858 9.58579 15.25 10 15.25H17C17.4142 15.25 17.75 15.5858 17.75 16C17.75 16.4142 17.4142 16.75 17 16.75H10C9.58579 16.75 9.25 16.4142 9.25 16Z" fill="#101010"/>
</svg>
