<svg width="20" height="22" viewBox="0 0 20 22" fill="none" xmlns="http://www.w3.org/2000/svg">
<path fill-rule="evenodd" clip-rule="evenodd" d="M2.7371 2.88534C2.09637 3.57535 1.75 4.61497 1.75 6V16C1.75 17.385 2.09637 18.4246 2.7371 19.1147C3.36848 19.7946 4.39295 20.25 6 20.25H14C15.607 20.25 16.6315 19.7946 17.2629 19.1147C17.9036 18.4246 18.25 17.385 18.25 16V6C18.25 4.61497 17.9036 3.57535 17.2629 2.88534C16.6315 2.20538 15.607 1.75 14 1.75H6C4.39295 1.75 3.36848 2.20538 2.7371 2.88534ZM1.6379 1.86466C2.63152 0.794615 4.10705 0.25 6 0.25H14C15.893 0.25 17.3685 0.794615 18.3621 1.86466C19.3464 2.92465 19.75 4.38503 19.75 6V16C19.75 17.615 19.3464 19.0754 18.3621 20.1353C17.3685 21.2054 15.893 21.75 14 21.75H6C4.10705 21.75 2.63152 21.2054 1.6379 20.1353C0.653634 19.0754 0.25 17.615 0.25 16V6C0.25 4.38503 0.653634 2.92465 1.6379 1.86466Z" fill="#101010"/>
<path fill-rule="evenodd" clip-rule="evenodd" d="M12.5 2.75C12.9142 2.75 13.25 3.08579 13.25 3.5V5.5C13.25 6.18579 13.8142 6.75 14.5 6.75H16.5C16.9142 6.75 17.25 7.08579 17.25 7.5C17.25 7.91421 16.9142 8.25 16.5 8.25H14.5C12.9858 8.25 11.75 7.01421 11.75 5.5V3.5C11.75 3.08579 12.0858 2.75 12.5 2.75Z" fill="#101010"/>
<path fill-rule="evenodd" clip-rule="evenodd" d="M9.69963 12.5537C9.36611 12.4469 9.03482 12.5592 8.89908 12.7683C8.76375 12.9768 8.5339 13.1047 8.28539 13.1098C8.03687 13.1149 7.80198 12.9965 7.6582 12.7938C7.49017 12.5568 7.15557 12.4558 6.83952 12.554C6.29373 12.7353 5.94467 13.4807 6.19398 14.2602C6.39548 14.8829 6.84415 15.3811 7.33058 15.7342C7.57082 15.9086 7.8064 16.0371 7.99886 16.1201C8.15159 16.186 8.24376 16.2089 8.27607 16.2165C8.30666 16.2095 8.39797 16.1878 8.55203 16.122C8.74623 16.039 8.98396 15.9096 9.22584 15.7341C9.71653 15.3781 10.1621 14.8793 10.354 14.2668C10.5991 13.4767 10.2519 12.7333 9.69963 12.5537ZM8.25852 11.3419C8.85493 10.9694 9.59531 10.9446 10.1595 11.126L10.1612 11.1265C11.7683 11.6473 12.1806 13.4432 11.7862 14.7125L11.7858 14.7139C11.4676 15.731 10.7633 16.4719 10.1067 16.9482C9.7748 17.189 9.4394 17.374 9.14141 17.5013C8.86915 17.6177 8.54996 17.7199 8.27 17.7199L8.2547 17.7198C7.98484 17.7143 7.67466 17.6139 7.40489 17.4975C7.11111 17.3708 6.7792 17.1875 6.44944 16.9481C5.79612 16.4739 5.095 15.7375 4.76636 14.7206L4.76578 14.7188L4.76578 14.7188C4.35619 13.4403 4.7849 11.6479 6.37682 11.1271L6.38413 11.1247L6.38415 11.1248C6.97032 10.9397 7.67858 10.9874 8.25852 11.3419Z" fill="#101010"/>
</svg>
