<svg width="20" height="22" viewBox="0 0 20 22" fill="none" xmlns="http://www.w3.org/2000/svg">
<path fill-rule="evenodd" clip-rule="evenodd" d="M2.7371 2.88534C2.09637 3.57535 1.75 4.61497 1.75 6V16C1.75 17.385 2.09637 18.4246 2.7371 19.1147C3.36848 19.7946 4.39295 20.25 6 20.25H14C15.607 20.25 16.6315 19.7946 17.2629 19.1147C17.9036 18.4246 18.25 17.385 18.25 16V6C18.25 4.61497 17.9036 3.57535 17.2629 2.88534C16.6315 2.20538 15.607 1.75 14 1.75H6C4.39295 1.75 3.36848 2.20538 2.7371 2.88534ZM1.6379 1.86466C2.63152 0.794615 4.10705 0.25 6 0.25H14C15.893 0.25 17.3685 0.794615 18.3621 1.86466C19.3464 2.92465 19.75 4.38503 19.75 6V16C19.75 17.615 19.3464 19.0754 18.3621 20.1353C17.3685 21.2054 15.893 21.75 14 21.75H6C4.10705 21.75 2.63152 21.2054 1.6379 20.1353C0.653634 19.0754 0.25 17.615 0.25 16V6C0.25 4.38503 0.653634 2.92465 1.6379 1.86466Z" fill="#101010"/>
<path fill-rule="evenodd" clip-rule="evenodd" d="M12.5 2.75C12.9142 2.75 13.25 3.08579 13.25 3.5V5.5C13.25 6.18579 13.8142 6.75 14.5 6.75H16.5C16.9142 6.75 17.25 7.08579 17.25 7.5C17.25 7.91421 16.9142 8.25 16.5 8.25H14.5C12.9858 8.25 11.75 7.01421 11.75 5.5V3.5C11.75 3.08579 12.0858 2.75 12.5 2.75Z" fill="#101010"/>
<path fill-rule="evenodd" clip-rule="evenodd" d="M8.53033 11.4697C8.82322 11.7626 8.82322 12.2374 8.53033 12.5303L7.06066 14L8.53033 15.4697C8.82322 15.7626 8.82322 16.2374 8.53033 16.5303C8.23744 16.8232 7.76256 16.8232 7.46967 16.5303L5.46967 14.5303C5.17678 14.2374 5.17678 13.7626 5.46967 13.4697L7.46967 11.4697C7.76256 11.1768 8.23744 11.1768 8.53033 11.4697Z" fill="#101010"/>
<path fill-rule="evenodd" clip-rule="evenodd" d="M11.4697 11.4697C11.7626 11.1768 12.2374 11.1768 12.5303 11.4697L14.5303 13.4697C14.8232 13.7626 14.8232 14.2374 14.5303 14.5303L12.5303 16.5303C12.2374 16.8232 11.7626 16.8232 11.4697 16.5303C11.1768 16.2374 11.1768 15.7626 11.4697 15.4697L12.9393 14L11.4697 12.5303C11.1768 12.2374 11.1768 11.7626 11.4697 11.4697Z" fill="#101010"/>
</svg>
