<svg width="22" height="22" viewBox="0 0 22 22" fill="none" xmlns="http://www.w3.org/2000/svg">
<path fill-rule="evenodd" clip-rule="evenodd" d="M2.83033 7.83033C2.1398 8.52086 1.75 9.67397 1.75 11.6V15.4C1.75 17.326 2.1398 18.4791 2.83033 19.1697C3.52086 19.8602 4.67397 20.25 6.6 20.25H10.4C12.326 20.25 13.4791 19.8602 14.1697 19.1697C14.8602 18.4791 15.25 17.326 15.25 15.4V12.4C15.25 11.9858 15.5858 11.65 16 11.65C16.4142 11.65 16.75 11.9858 16.75 12.4V15.4C16.75 17.474 16.3398 19.1209 15.2303 20.2303C14.1209 21.3398 12.474 21.75 10.4 21.75H6.6C4.52603 21.75 2.87914 21.3398 1.76967 20.2303C0.660201 19.1209 0.25 17.474 0.25 15.4V11.6C0.25 9.52603 0.660201 7.87914 1.76967 6.76967C2.87914 5.6602 4.52603 5.25 6.6 5.25H9.6C10.0142 5.25 10.35 5.58579 10.35 6C10.35 6.41421 10.0142 6.75 9.6 6.75H6.6C4.67397 6.75 3.52086 7.1398 2.83033 7.83033Z" fill="#101010"/>
<path fill-rule="evenodd" clip-rule="evenodd" d="M9.3126 5.30711C9.59285 5.19103 9.91544 5.25519 10.1299 5.46969L16.5299 11.8697C16.7444 12.0842 16.8086 12.4068 16.6925 12.687C16.5764 12.9673 16.303 13.15 15.9996 13.15H12.7996C11.5581 13.15 10.4917 12.9528 9.76928 12.2304C9.04686 11.5079 8.84961 10.4416 8.84961 9.20002V6.00002C8.84961 5.69668 9.03234 5.4232 9.3126 5.30711ZM10.3496 7.81068V9.20002C10.3496 10.3585 10.5524 10.8921 10.8299 11.1697C11.1075 11.4473 11.6412 11.65 12.7996 11.65H14.1889L10.3496 7.81068Z" fill="#101010"/>
<path fill-rule="evenodd" clip-rule="evenodd" d="M9.84961 1C9.84961 0.585786 10.1854 0.25 10.5996 0.25H14.5996C15.0138 0.25 15.3496 0.585786 15.3496 1C15.3496 1.41421 15.0138 1.75 14.5996 1.75H10.5996C10.1854 1.75 9.84961 1.41421 9.84961 1Z" fill="#101010"/>
<path fill-rule="evenodd" clip-rule="evenodd" d="M9 1.75C7.75421 1.75 6.75 2.75421 6.75 4C6.75 4.41421 6.41421 4.75 6 4.75C5.58579 4.75 5.25 4.41421 5.25 4C5.25 1.92579 6.92579 0.25 9 0.25H11.62C12.0342 0.25 12.37 0.585786 12.37 1C12.37 1.41421 12.0342 1.75 11.62 1.75H9Z" fill="#101010"/>
<path fill-rule="evenodd" clip-rule="evenodd" d="M21.0004 6.25C21.4146 6.25 21.7504 6.58579 21.7504 7V13.19C21.7504 15.1542 20.1546 16.75 18.1904 16.75C17.7762 16.75 17.4404 16.4142 17.4404 16C17.4404 15.5858 17.7762 15.25 18.1904 15.25C19.3262 15.25 20.2504 14.3258 20.2504 13.19V7C20.2504 6.58579 20.5862 6.25 21.0004 6.25Z" fill="#101010"/>
<path fill-rule="evenodd" clip-rule="evenodd" d="M14.713 0.307112C14.9932 0.191027 15.3158 0.255193 15.5303 0.469692L21.5303 6.46969C21.7448 6.68419 21.809 7.00678 21.6929 7.28703C21.5768 7.56729 21.3033 7.75002 21 7.75002H18C16.8335 7.75002 15.8171 7.56527 15.1259 6.8741C14.4347 6.18293 14.25 5.16657 14.25 4.00002V1.00002C14.25 0.696675 14.4327 0.423198 14.713 0.307112ZM15.75 2.81068V4.00002C15.75 5.08347 15.9403 5.56711 16.1866 5.81344C16.4329 6.05977 16.9165 6.25002 18 6.25002H19.1893L15.75 2.81068Z" fill="#101010"/>
</svg>
