<svg width="22" height="22" viewBox="0 0 22 22" fill="none" xmlns="http://www.w3.org/2000/svg">
<path fill-rule="evenodd" clip-rule="evenodd" d="M9.61187 7.08984C8.98769 7.08984 8.42188 7.63173 8.42188 8.36984C8.42188 8.87252 8.53009 9.10244 8.62588 9.22464C8.72842 9.35544 8.90085 9.47164 9.24032 9.59218L13.2724 10.9929C13.7216 11.1521 14.2086 11.3907 14.5684 11.8496C14.9351 12.3174 15.0919 12.9125 15.0919 13.6298C15.0919 15.1317 13.9177 16.4098 12.4019 16.4098H9.89188C8.2137 16.4098 6.92188 14.9993 6.92188 13.3298C6.92188 12.9156 7.25766 12.5798 7.67188 12.5798C8.08609 12.5798 8.42188 12.9156 8.42188 13.3298C8.42188 14.2404 9.11005 14.9098 9.89188 14.9098H12.4019C13.0261 14.9098 13.5919 14.368 13.5919 13.6298C13.5919 13.1272 13.4837 12.8972 13.3879 12.775C13.2853 12.6442 13.1129 12.5281 12.7735 12.4075L8.74132 11.0068C8.29218 10.8476 7.80512 10.609 7.44537 10.15C7.07866 9.68225 6.92188 9.08717 6.92188 8.36984C6.92188 6.86796 8.09606 5.58984 9.61187 5.58984H12.1219C13.8 5.58984 15.0919 7.00043 15.0919 8.66984C15.0919 9.08406 14.7561 9.41984 14.3419 9.41984C13.9277 9.41984 13.5919 9.08406 13.5919 8.66984C13.5919 7.75926 12.9037 7.08984 12.1219 7.08984H9.61187Z" fill="#101010"/>
<path fill-rule="evenodd" clip-rule="evenodd" d="M11 4.25C11.4142 4.25 11.75 4.58579 11.75 5V17C11.75 17.4142 11.4142 17.75 11 17.75C10.5858 17.75 10.25 17.4142 10.25 17V5C10.25 4.58579 10.5858 4.25 11 4.25Z" fill="#101010"/>
<path fill-rule="evenodd" clip-rule="evenodd" d="M11 1.75C5.89137 1.75 1.75 5.89137 1.75 11C1.75 16.1086 5.89137 20.25 11 20.25C16.1086 20.25 20.25 16.1086 20.25 11C20.25 5.89137 16.1086 1.75 11 1.75ZM0.25 11C0.25 5.06294 5.06294 0.25 11 0.25C16.9371 0.25 21.75 5.06294 21.75 11C21.75 16.9371 16.9371 21.75 11 21.75C5.06294 21.75 0.25 16.9371 0.25 11Z" fill="#101010"/>
</svg>
