<svg width="22" height="22" viewBox="0 0 22 22" fill="none" xmlns="http://www.w3.org/2000/svg">
<path fill-rule="evenodd" clip-rule="evenodd" d="M3.68977 1.75999C2.63217 1.75999 1.75977 2.62603 1.75977 3.69V6.32001C1.75977 7.37761 2.6258 8.25 3.68977 8.25H18.3198C19.3756 8.25 20.2498 7.37579 20.2498 6.32001V3.69C20.2498 2.63239 19.3837 1.75999 18.3198 1.75999H3.68977ZM0.259766 3.69C0.259766 1.79397 1.80738 0.259995 3.68977 0.259995H18.3198C20.2158 0.259995 21.7498 1.80762 21.7498 3.69V6.32001C21.7498 8.20422 20.204 9.75 18.3198 9.75H3.68977C1.79375 9.75 0.259766 8.20241 0.259766 6.32001V3.69Z" fill="#101010"/>
<path fill-rule="evenodd" clip-rule="evenodd" d="M3.68977 13.76C2.63217 13.76 1.75977 14.626 1.75977 15.69V18.32C1.75977 19.3776 2.6258 20.25 3.68977 20.25H18.3198C19.3756 20.25 20.2498 19.3758 20.2498 18.32V15.69C20.2498 14.6324 19.3837 13.76 18.3198 13.76H3.68977ZM0.259766 15.69C0.259766 13.794 1.80738 12.26 3.68977 12.26H18.3198C20.2158 12.26 21.7498 13.8076 21.7498 15.69V18.32C21.7498 20.2042 20.204 21.75 18.3198 21.75H3.68977C1.79375 21.75 0.259766 20.2024 0.259766 18.32V15.69Z" fill="#101010"/>
<path fill-rule="evenodd" clip-rule="evenodd" d="M5 3.25C5.41421 3.25 5.75 3.58579 5.75 4V6C5.75 6.41421 5.41421 6.75 5 6.75C4.58579 6.75 4.25 6.41421 4.25 6V4C4.25 3.58579 4.58579 3.25 5 3.25Z" fill="#101010"/>
<path fill-rule="evenodd" clip-rule="evenodd" d="M9 3.25C9.41421 3.25 9.75 3.58579 9.75 4V6C9.75 6.41421 9.41421 6.75 9 6.75C8.58579 6.75 8.25 6.41421 8.25 6V4C8.25 3.58579 8.58579 3.25 9 3.25Z" fill="#101010"/>
<path fill-rule="evenodd" clip-rule="evenodd" d="M5 15.25C5.41421 15.25 5.75 15.5858 5.75 16V18C5.75 18.4142 5.41421 18.75 5 18.75C4.58579 18.75 4.25 18.4142 4.25 18V16C4.25 15.5858 4.58579 15.25 5 15.25Z" fill="#101010"/>
<path fill-rule="evenodd" clip-rule="evenodd" d="M9 15.25C9.41421 15.25 9.75 15.5858 9.75 16V18C9.75 18.4142 9.41421 18.75 9 18.75C8.58579 18.75 8.25 18.4142 8.25 18V16C8.25 15.5858 8.58579 15.25 9 15.25Z" fill="#101010"/>
<path fill-rule="evenodd" clip-rule="evenodd" d="M12.25 5C12.25 4.58579 12.5858 4.25 13 4.25H17C17.4142 4.25 17.75 4.58579 17.75 5C17.75 5.41421 17.4142 5.75 17 5.75H13C12.5858 5.75 12.25 5.41421 12.25 5Z" fill="#101010"/>
<path fill-rule="evenodd" clip-rule="evenodd" d="M12.25 17C12.25 16.5858 12.5858 16.25 13 16.25H17C17.4142 16.25 17.75 16.5858 17.75 17C17.75 17.4142 17.4142 17.75 17 17.75H13C12.5858 17.75 12.25 17.4142 12.25 17Z" fill="#101010"/>
</svg>
