<svg width="22" height="23" viewBox="0 0 22 23" fill="none" xmlns="http://www.w3.org/2000/svg">
<path fill-rule="evenodd" clip-rule="evenodd" d="M2.09467 3.09467C3.42914 1.7602 5.42603 1.25 8 1.25H10C10.4142 1.25 10.75 1.58579 10.75 2C10.75 2.41421 10.4142 2.75 10 2.75H8C5.57397 2.75 4.07086 3.2398 3.15533 4.15533C2.2398 5.07086 1.75 6.57397 1.75 9V15C1.75 17.426 2.2398 18.9291 3.15533 19.8447C4.07086 20.7602 5.57397 21.25 8 21.25H14C16.426 21.25 17.9291 20.7602 18.8447 19.8447C19.7602 18.9291 20.25 17.426 20.25 15V13C20.25 12.5858 20.5858 12.25 21 12.25C21.4142 12.25 21.75 12.5858 21.75 13V15C21.75 17.574 21.2398 19.5709 19.9053 20.9053C18.5709 22.2398 16.574 22.75 14 22.75H8C5.42603 22.75 3.42914 22.2398 2.09467 20.9053C0.760201 19.5709 0.25 17.574 0.25 15V9C0.25 6.42603 0.760201 4.42914 2.09467 3.09467Z" fill="#101010"/>
<path fill-rule="evenodd" clip-rule="evenodd" d="M17.1964 1.01356C18.3098 0.904277 19.4136 1.39321 20.51 2.48965C21.6065 3.58608 22.0954 4.68989 21.9861 5.80324C21.8807 6.87725 21.233 7.76738 20.51 8.49031L12.6213 16.379C12.3961 16.5969 12.1018 16.7873 11.8178 16.9301C11.5354 17.072 11.2028 17.1971 10.8858 17.2424L7.87196 17.673C7.12987 17.7751 6.41984 17.5725 5.9217 17.0764C5.42249 16.5792 5.2183 15.8689 5.32744 15.1226C5.32751 15.1221 5.32759 15.1216 5.32766 15.121L5.7569 12.1163C5.75696 12.1159 5.75703 12.1154 5.75709 12.115C5.80213 11.7938 5.92665 11.4588 6.06959 11.1744C6.21283 10.8894 6.40569 10.5933 6.62938 10.3696L14.5094 2.48965C15.2323 1.76672 16.1224 1.11899 17.1964 1.01356ZM17.343 2.50639C16.787 2.56096 16.2071 2.91323 15.57 3.55031L7.69004 11.4303C7.61372 11.5066 7.50658 11.6555 7.40982 11.848C7.31296 12.0408 7.25763 12.2153 7.24251 12.3236L7.24217 12.326L6.81217 15.336L6.81176 15.3389C6.76139 15.682 6.86226 15.8961 6.98021 16.0136C7.09937 16.1322 7.31879 16.2345 7.66568 16.1872C7.66627 16.1871 7.66686 16.1871 7.66746 16.187L10.6736 15.7575C10.7766 15.7428 10.949 15.6879 11.1441 15.5899C11.3349 15.494 11.4889 15.3862 11.5745 15.3045L19.4494 7.42965C20.0864 6.79257 20.4387 6.2127 20.4933 5.65671C20.544 5.14006 20.3529 4.45387 19.4494 3.55031C18.5458 2.64674 17.8596 2.45567 17.343 2.50639Z" fill="#101010"/>
<path fill-rule="evenodd" clip-rule="evenodd" d="M13.7079 3.42781C14.1067 3.316 14.5207 3.54869 14.6325 3.94752C15.2316 6.08464 16.9044 7.7591 19.0548 8.36838C19.4533 8.48129 19.6849 8.8959 19.5719 9.29442C19.459 9.69295 19.0444 9.92448 18.6459 9.81157C15.9963 9.06084 13.9291 6.9953 13.1882 4.35242C13.0764 3.95358 13.3091 3.53962 13.7079 3.42781Z" fill="#101010"/>
</svg>
