<svg width="22" height="22" viewBox="0 0 22 22" fill="none" xmlns="http://www.w3.org/2000/svg">
<path fill-rule="evenodd" clip-rule="evenodd" d="M2.09467 2.09467C3.42914 0.760201 5.42603 0.25 8 0.25H14C16.574 0.25 18.5709 0.760201 19.9053 2.09467C21.2398 3.42914 21.75 5.42603 21.75 8V14C21.75 16.574 21.2398 18.5709 19.9053 19.9053C18.5709 21.2398 16.574 21.75 14 21.75H8C5.42603 21.75 3.42914 21.2398 2.09467 19.9053C0.760201 18.5709 0.25 16.574 0.25 14V8C0.25 5.42603 0.760201 3.42914 2.09467 2.09467ZM3.15533 3.15533C2.2398 4.07086 1.75 5.57397 1.75 8V14C1.75 16.426 2.2398 17.9291 3.15533 18.8447C4.07086 19.7602 5.57397 20.25 8 20.25H14C16.426 20.25 17.9291 19.7602 18.8447 18.8447C19.7602 17.9291 20.25 16.426 20.25 14V8C20.25 5.57397 19.7602 4.07086 18.8447 3.15533C17.9291 2.2398 16.426 1.75 14 1.75H8C5.57397 1.75 4.07086 2.2398 3.15533 3.15533Z" fill="#101010"/>
<path fill-rule="evenodd" clip-rule="evenodd" d="M9.11232 8.28296C8.39313 7.5709 7.23599 7.57467 6.53033 8.28033C6.23744 8.57322 5.76256 8.57322 5.46967 8.28033C5.17678 7.98744 5.17678 7.51256 5.46967 7.21967C6.76401 5.92533 8.86687 5.9291 10.1677 7.21704C10.462 7.50847 10.4644 7.98334 10.173 8.27769C9.88153 8.57203 9.40666 8.57439 9.11232 8.28296Z" fill="#101010"/>
<path fill-rule="evenodd" clip-rule="evenodd" d="M15.4722 8.28296C14.753 7.5709 13.5959 7.57467 12.8902 8.28033C12.5973 8.57322 12.1224 8.57322 11.8295 8.28033C11.5366 7.98744 11.5366 7.51256 11.8295 7.21967C13.1239 5.92533 15.2267 5.9291 16.5275 7.21704C16.8219 7.50847 16.8243 7.98334 16.5328 8.27769C16.2414 8.57203 15.7665 8.57439 15.4722 8.28296Z" fill="#101010"/>
<path fill-rule="evenodd" clip-rule="evenodd" d="M5.75 15.8C5.75 12.8958 8.09579 10.55 11 10.55C13.9042 10.55 16.25 12.8958 16.25 15.8C16.25 16.7143 15.5142 17.45 14.6 17.45H7.4C6.48578 17.45 5.75 16.7143 5.75 15.8ZM11 12.05C8.92421 12.05 7.25 13.7243 7.25 15.8C7.25 15.8858 7.31422 15.95 7.4 15.95H14.6C14.6858 15.95 14.75 15.8858 14.75 15.8C14.75 13.7243 13.0758 12.05 11 12.05Z" fill="#101010"/>
</svg>
