<svg width="23" height="23" viewBox="0 0 23 23" fill="none" xmlns="http://www.w3.org/2000/svg">
<path fill-rule="evenodd" clip-rule="evenodd" d="M5.26976 7.5C3.61398 7.5 2.25977 8.85422 2.25977 10.51V12.24C2.25977 12.6542 1.92398 12.99 1.50977 12.99C1.09555 12.99 0.759766 12.6542 0.759766 12.24V10.51C0.759766 8.0258 2.78554 6 5.26976 6H16.7498C19.234 6 21.2598 8.0258 21.2598 10.51V11.95C21.2598 12.3642 20.924 12.7 20.5098 12.7H18.4898C18.1307 12.7 17.8149 12.8392 17.5871 13.0732L17.5737 13.0867C17.3076 13.3464 17.159 13.7162 17.1964 14.1089L17.1972 14.1177L17.1972 14.1177C17.2501 14.7527 17.8607 15.3 18.6098 15.3H20.5098C20.924 15.3 21.2598 15.6358 21.2598 16.05V17.24C21.2598 19.7242 19.234 21.75 16.7498 21.75H11.2698C10.8555 21.75 10.5198 21.4142 10.5198 21C10.5198 20.5858 10.8555 20.25 11.2698 20.25H16.7498C18.4056 20.25 19.7598 18.8958 19.7598 17.24V16.8H18.6098C17.2002 16.8 15.8321 15.7693 15.7027 14.2467C15.622 13.3845 15.9503 12.579 16.5191 12.02C17.0307 11.4981 17.7321 11.2 18.4898 11.2H19.7598V10.51C19.7598 8.85422 18.4056 7.5 16.7498 7.5H5.26976Z" fill="#101010"/>
<path fill-rule="evenodd" clip-rule="evenodd" d="M13.1098 2.95004C13.1098 2.14252 12.3027 1.58813 11.5556 1.87132L3.61518 4.87147C2.79841 5.18067 2.25977 5.96049 2.25977 6.84005V11.41C2.25977 11.8242 1.92398 12.16 1.50977 12.16C1.09555 12.16 0.759766 11.8242 0.759766 11.41V6.84005C0.759766 5.33973 1.6813 3.99942 3.08434 3.46854L11.0239 0.468693C12.7568 -0.188117 14.6098 1.09755 14.6098 2.95004V6.75002C14.6098 7.16424 14.274 7.50002 13.8598 7.50002C13.4456 7.50002 13.1098 7.16424 13.1098 6.75002V2.95004Z" fill="#101010"/>
<path fill-rule="evenodd" clip-rule="evenodd" d="M18.4886 12.7002C18.1295 12.7002 17.8138 12.8394 17.586 13.0734L17.5725 13.0869C17.3065 13.3466 17.1578 13.7164 17.1952 14.1091L17.1961 14.1179L17.196 14.1179C17.2489 14.7529 17.8595 15.3002 18.6086 15.3002H20.5514C20.713 15.2897 20.8186 15.1633 20.8186 15.0302V12.9702C20.8186 12.837 20.713 12.7106 20.5514 12.7002H18.4886ZM16.5179 12.0201C17.0295 11.4983 17.731 11.2002 18.4886 11.2002H20.5686C20.5775 11.2002 20.5865 11.2004 20.5954 11.2007C21.5484 11.2347 22.3186 12.0059 22.3186 12.9702V15.0302C22.3186 15.9945 21.5484 16.7657 20.5954 16.7997C20.5865 16.8 20.5775 16.8002 20.5686 16.8002H18.6086C17.1991 16.8002 15.8309 15.7695 15.7016 14.2469C15.6208 13.3847 15.9491 12.5792 16.5179 12.0201Z" fill="#101010"/>
<path fill-rule="evenodd" clip-rule="evenodd" d="M5.25977 11C5.25977 10.5858 5.59555 10.25 6.00977 10.25H13.0098C13.424 10.25 13.7598 10.5858 13.7598 11C13.7598 11.4142 13.424 11.75 13.0098 11.75H6.00977C5.59555 11.75 5.25977 11.4142 5.25977 11Z" fill="#101010"/>
<path fill-rule="evenodd" clip-rule="evenodd" d="M1.25977 15.5C1.25977 15.0858 1.59555 14.75 2.00977 14.75H7.34976C8.40395 14.75 9.25977 15.6057 9.25977 16.66V17.94C9.25977 18.3542 8.92398 18.69 8.50977 18.69C8.09555 18.69 7.75977 18.3542 7.75977 17.94V16.66C7.75977 16.4342 7.57557 16.25 7.34976 16.25H2.00977C1.59555 16.25 1.25977 15.9142 1.25977 15.5Z" fill="#101010"/>
<path fill-rule="evenodd" clip-rule="evenodd" d="M3.7601 13.7497C4.05299 14.0426 4.05299 14.5175 3.76009 14.8104L3.07044 15.5L3.76009 16.1896C4.05299 16.4825 4.05299 16.9574 3.7601 17.2503C3.46721 17.5432 2.99234 17.5432 2.69944 17.2503L1.47944 16.0303C1.33879 15.8897 1.25977 15.6989 1.25977 15.5C1.25977 15.3011 1.33879 15.1103 1.47944 14.9697L2.69944 13.7497C2.99234 13.4568 3.46721 13.4568 3.7601 13.7497Z" fill="#101010"/>
<path fill-rule="evenodd" clip-rule="evenodd" d="M2.00977 17.5901C2.42398 17.5901 2.75977 17.9259 2.75977 18.3401V19.6201C2.75977 19.8459 2.94401 20.0301 3.16977 20.0301H8.50977C8.92398 20.0301 9.25977 20.3659 9.25977 20.7801C9.25977 21.1943 8.92398 21.5301 8.50977 21.5301H3.16977C2.11553 21.5301 1.25977 20.6742 1.25977 19.6201V18.3401C1.25977 17.9259 1.59555 17.5901 2.00977 17.5901Z" fill="#101010"/>
<path fill-rule="evenodd" clip-rule="evenodd" d="M6.76069 19.03C7.05359 18.7371 7.52846 18.7371 7.82135 19.03L9.04135 20.25C9.182 20.3907 9.26102 20.5814 9.26102 20.7803C9.26101 20.9793 9.18199 21.17 9.04134 21.3107L7.82134 22.5306C7.52844 22.8235 7.05357 22.8235 6.76068 22.5306C6.46779 22.2377 6.4678 21.7629 6.76069 21.47L7.45036 20.7803L6.76068 20.0906C6.46779 19.7977 6.4678 19.3229 6.76069 19.03Z" fill="#101010"/>
</svg>
