<svg width="22" height="22" viewBox="0 0 22 22" fill="none" xmlns="http://www.w3.org/2000/svg">
<path fill-rule="evenodd" clip-rule="evenodd" d="M7.25 21C7.25 20.5858 7.58579 20.25 8 20.25H20C20.4142 20.25 20.75 20.5858 20.75 21C20.75 21.4142 20.4142 21.75 20 21.75H8C7.58579 21.75 7.25 21.4142 7.25 21Z" fill="#101010"/>
<path fill-rule="evenodd" clip-rule="evenodd" d="M11.8084 1.38073C13.2632 -0.0852439 15.6489 -0.0815523 17.1101 1.37967L20.6178 4.88739C20.6182 4.88777 20.6186 4.88815 20.619 4.88853C22.085 6.34329 22.0814 8.72908 20.6201 10.1903L10.1923 20.618C10.1919 20.6185 10.1915 20.6189 10.191 20.6193C8.73626 22.0852 6.3506 22.0815 4.88941 20.6203L1.3794 17.1103L1.90973 16.58L1.3794 17.1103C-0.0818378 15.6491 -0.0855186 13.2633 1.38049 11.8086C1.38088 11.8082 1.38128 11.8078 1.38168 11.8074L11.8072 1.38195C11.8076 1.38154 11.808 1.38114 11.8084 1.38073ZM16.0494 2.44033C15.1711 1.56196 13.7377 1.56525 12.8724 2.43805L12.8701 2.44033L2.44006 12.8703L2.43778 12.8726C1.56497 13.7379 1.56169 15.1713 2.44006 16.0497L5.95007 19.5597C6.82844 20.438 8.26178 20.4347 9.12712 19.5619L9.1294 19.5597L19.5595 9.12967C20.4378 8.2513 20.4345 6.81794 19.5617 5.9526L19.5595 5.95033L16.0494 2.44033Z" fill="#101010"/>
<path fill-rule="evenodd" clip-rule="evenodd" d="M5.58979 7.59967C5.88268 7.30678 6.35755 7.30678 6.65045 7.59967L14.4004 15.3497C14.6933 15.6426 14.6933 16.1174 14.4004 16.4103C14.1076 16.7032 13.6327 16.7032 13.3398 16.4103L5.58979 8.66033C5.29689 8.36744 5.29689 7.89257 5.58979 7.59967Z" fill="#101010"/>
<path fill-rule="evenodd" clip-rule="evenodd" d="M8.69935 10.4692C8.99251 10.7618 8.99293 11.2367 8.7003 11.5299L3.05033 17.1899C2.7577 17.483 2.28283 17.4834 1.98967 17.1908C1.69652 16.8982 1.6961 16.4233 1.98873 16.1301L7.63869 10.4701C7.93133 10.177 8.4062 10.1766 8.69935 10.4692Z" fill="#101010"/>
<path fill-rule="evenodd" clip-rule="evenodd" d="M11.5301 13.2997C11.823 13.5926 11.823 14.0675 11.5301 14.3603L5.87017 20.0203C5.57728 20.3132 5.10241 20.3132 4.80951 20.0203C4.51662 19.7275 4.51662 19.2526 4.80951 18.9597L10.4695 13.2997C10.7624 13.0068 11.2373 13.0068 11.5301 13.2997Z" fill="#101010"/>
</svg>
