<svg width="18" height="18" viewBox="0 0 18 18" fill="none" xmlns="http://www.w3.org/2000/svg">
<path fill-rule="evenodd" clip-rule="evenodd" d="M8.88031 0.190002C9.07923 0.190002 9.26999 0.26902 9.41064 0.409672L11.9706 2.96967C12.2635 3.26257 12.2635 3.73744 11.9706 4.03033C11.6777 4.32323 11.2029 4.32323 10.91 4.03033L8.88031 2.00066L6.85064 4.03033C6.55775 4.32323 6.08288 4.32323 5.78998 4.03033C5.49709 3.73744 5.49709 3.26257 5.78998 2.96967L8.34998 0.409672C8.49064 0.26902 8.6814 0.190002 8.88031 0.190002Z" fill="#101010"/>
<path fill-rule="evenodd" clip-rule="evenodd" d="M8.87988 0.26001C9.2941 0.26001 9.62988 0.595796 9.62988 1.01001V11.18C9.62988 11.5942 9.2941 11.93 8.87988 11.93C8.46567 11.93 8.12988 11.5942 8.12988 11.18V1.01001C8.12988 0.595796 8.46567 0.26001 8.87988 0.26001Z" fill="#101010"/>
<path fill-rule="evenodd" clip-rule="evenodd" d="M1 8.25C1.41421 8.25 1.75 8.58579 1.75 9C1.75 11.0406 2.44112 12.8486 3.66877 14.141C4.89078 15.4274 6.68843 16.25 9 16.25C11.3116 16.25 13.1092 15.4274 14.3312 14.141C15.5589 12.8486 16.25 11.0406 16.25 9C16.25 8.58579 16.5858 8.25 17 8.25C17.4142 8.25 17.75 8.58579 17.75 9C17.75 11.3794 16.9411 13.5714 15.4188 15.174C13.8908 16.7826 11.6884 17.75 9 17.75C6.31157 17.75 4.10922 16.7826 2.58123 15.174C1.05888 13.5714 0.25 11.3794 0.25 9C0.25 8.58579 0.585786 8.25 1 8.25Z" fill="#101010"/>
</svg>
