<svg width="22" height="22" viewBox="0 0 22 22" fill="none" xmlns="http://www.w3.org/2000/svg">
<path fill-rule="evenodd" clip-rule="evenodd" d="M0.25 11C0.25 5.06579 5.06579 0.25 11 0.25C11.4142 0.25 11.75 0.585786 11.75 1C11.75 1.41421 11.4142 1.75 11 1.75C5.89421 1.75 1.75 5.89421 1.75 11C1.75 16.1058 5.89421 20.25 11 20.25C16.1058 20.25 20.25 16.1058 20.25 11C20.25 10.5858 20.5858 10.25 21 10.25C21.4142 10.25 21.75 10.5858 21.75 11C21.75 16.9342 16.9342 21.75 11 21.75C5.06579 21.75 0.25 16.9342 0.25 11Z" fill="#101010"/>
<path fill-rule="evenodd" clip-rule="evenodd" d="M20.7303 1.26966C21.0232 1.56255 21.0232 2.03742 20.7303 2.33032L12.5303 10.5303C12.2374 10.8232 11.7626 10.8232 11.4697 10.5303C11.1768 10.2374 11.1768 9.76255 11.4697 9.46966L19.6697 1.26966C19.9626 0.976765 20.4374 0.976765 20.7303 1.26966Z" fill="#101010"/>
<path fill-rule="evenodd" clip-rule="evenodd" d="M15.4199 1C15.4199 0.585786 15.7557 0.25 16.1699 0.25H20.9999C21.4141 0.25 21.7499 0.585786 21.7499 1V5.83C21.7499 6.24421 21.4141 6.58 20.9999 6.58C20.5857 6.58 20.2499 6.24421 20.2499 5.83V1.75H16.1699C15.7557 1.75 15.4199 1.41421 15.4199 1Z" fill="#101010"/>
</svg>
