<svg width="22" height="22" viewBox="0 0 22 22" fill="none" xmlns="http://www.w3.org/2000/svg">
<path fill-rule="evenodd" clip-rule="evenodd" d="M10.9999 8.16992C9.43414 8.16992 8.16992 9.43414 8.16992 10.9999C8.16992 11.5103 8.30385 11.9864 8.54021 12.399L12.399 8.54021C11.9864 8.30385 11.5103 8.16992 10.9999 8.16992ZM6.66992 10.9999C6.66992 8.60571 8.60571 6.66992 10.9999 6.66992C12.1977 6.66992 13.276 7.15536 14.0603 7.93959C14.3531 8.23249 14.3531 8.70736 14.0603 9.00025L9.00025 14.0603C8.70736 14.3531 8.23249 14.3531 7.93959 14.0603C7.15536 13.276 6.66992 12.1977 6.66992 10.9999Z" fill="#101010"/>
<path fill-rule="evenodd" clip-rule="evenodd" d="M1.25734 8.00695C3.64826 4.24858 7.15186 1.97998 10.9998 1.97998C13.2495 1.97998 15.4053 2.76359 17.2715 4.17121C17.6022 4.42065 17.668 4.89093 17.4186 5.22162C17.1692 5.55231 16.6989 5.61818 16.3682 5.36875C14.7344 4.13637 12.8902 3.47998 10.9998 3.47998C7.78799 3.47998 4.71174 5.37118 2.52266 8.81252L2.52204 8.81351C2.16745 9.36902 1.96484 10.1642 1.96484 11.005C1.96484 11.8457 2.16745 12.6409 2.52204 13.1965L2.52238 13.197C3.27615 14.3801 4.14895 15.393 5.08887 16.2013C5.40292 16.4714 5.43857 16.945 5.16848 17.259C4.8984 17.5731 4.42486 17.6087 4.11081 17.3386C3.05073 16.427 2.08354 15.2998 1.25731 14.003C0.712133 13.1486 0.464844 12.054 0.464844 11.005C0.464844 9.95594 0.712142 8.86136 1.25734 8.00695Z" fill="#101010"/>
<path fill-rule="evenodd" clip-rule="evenodd" d="M18.58 6.34555C18.9028 6.08594 19.3749 6.13713 19.6345 6.45989C20.0184 6.93716 20.3955 7.45001 20.7434 7.99809C21.288 8.85233 21.5351 9.94639 21.5351 10.995C21.5351 12.044 21.2878 13.1386 20.7426 13.993C18.3517 17.7514 14.8481 20.02 11.0001 20.02C9.66358 20.02 8.35494 19.7373 7.12907 19.2212C6.74732 19.0604 6.56815 18.6207 6.72889 18.2389C6.88963 17.8572 7.32941 17.678 7.71116 17.8387C8.76529 18.2826 9.87665 18.52 11.0001 18.52C14.212 18.52 17.2882 16.6288 19.4773 13.1874L19.4779 13.1864C19.8325 12.6309 20.0351 11.8357 20.0351 10.995C20.0351 10.1542 19.8325 9.359 19.4779 8.80348L19.4769 8.80183C19.1647 8.30991 18.8218 7.84276 18.4657 7.40003C18.2061 7.07727 18.2573 6.60516 18.58 6.34555Z" fill="#101010"/>
<path fill-rule="evenodd" clip-rule="evenodd" d="M14.6456 10.9625C15.0529 11.0376 15.3223 11.4287 15.2472 11.8361C14.9308 13.5519 13.5414 14.9413 11.8256 15.2576C11.4182 15.3328 11.0271 15.0634 10.952 14.6561C10.8769 14.2487 11.1462 13.8576 11.5536 13.7825C12.6577 13.5789 13.5684 12.6682 13.772 11.5641C13.8471 11.1567 14.2382 10.8874 14.6456 10.9625Z" fill="#101010"/>
<path fill-rule="evenodd" clip-rule="evenodd" d="M9.00033 12.9997C9.29322 13.2926 9.29322 13.7675 9.00033 14.0604L1.53033 21.5304C1.23744 21.8233 0.762563 21.8233 0.46967 21.5304C0.176777 21.2375 0.176777 20.7626 0.46967 20.4697L7.93967 12.9997C8.23256 12.7068 8.70744 12.7068 9.00033 12.9997Z" fill="#101010"/>
<path fill-rule="evenodd" clip-rule="evenodd" d="M21.5306 0.46967C21.8235 0.762563 21.8235 1.23744 21.5306 1.53033L14.0606 9.00033C13.7677 9.29322 13.2928 9.29322 12.9999 9.00033C12.7071 8.70744 12.7071 8.23256 12.9999 7.93967L20.4699 0.46967C20.7628 0.176777 21.2377 0.176777 21.5306 0.46967Z" fill="#101010"/>
</svg>
