<svg width="22" height="22" viewBox="0 0 22 22" fill="none" xmlns="http://www.w3.org/2000/svg">
<path fill-rule="evenodd" clip-rule="evenodd" d="M2.09467 2.09467C3.42914 0.760201 5.42603 0.25 8 0.25H14C16.574 0.25 18.5709 0.760201 19.9053 2.09467C21.2398 3.42914 21.75 5.42603 21.75 8V12C21.75 12.4142 21.4142 12.75 21 12.75C20.5858 12.75 20.25 12.4142 20.25 12V8C20.25 5.57397 19.7602 4.07086 18.8447 3.15533C17.9291 2.2398 16.426 1.75 14 1.75H8C5.57397 1.75 4.07086 2.2398 3.15533 3.15533C2.2398 4.07086 1.75 5.57397 1.75 8V14C1.75 16.426 2.2398 17.9291 3.15533 18.8447C4.07086 19.7602 5.57397 20.25 8 20.25H12C12.4142 20.25 12.75 20.5858 12.75 21C12.75 21.4142 12.4142 21.75 12 21.75H8C5.42603 21.75 3.42914 21.2398 2.09467 19.9053C0.760201 18.5709 0.25 16.574 0.25 14V8C0.25 5.42603 0.760201 3.42914 2.09467 2.09467Z" fill="#101010"/>
<path fill-rule="evenodd" clip-rule="evenodd" d="M16.1296 7.91728C16.457 8.17106 16.5167 8.64217 16.2629 8.96954L13.9485 11.9553C13.3536 12.7076 12.2567 12.8448 11.4916 12.2535L11.4863 12.2495L9.65976 10.8122C9.5469 10.7264 9.38951 10.7478 9.30382 10.8583C9.30374 10.8584 9.3039 10.8582 9.30382 10.8583L6.9243 13.9477C6.67154 14.2759 6.20062 14.337 5.87246 14.0842C5.5443 13.8315 5.48318 13.3606 5.73593 13.0324L8.11666 9.94146C8.71057 9.17286 9.81179 9.03397 10.5787 9.62659L10.5839 9.63062L12.4105 11.0679C12.5245 11.1546 12.6852 11.1322 12.7703 11.0268L15.0774 8.05055C15.3312 7.72318 15.8023 7.66351 16.1296 7.91728Z" fill="#101010"/>
<path fill-rule="evenodd" clip-rule="evenodd" d="M17.1923 15.1518L16.9105 15.7254C16.7753 15.9958 16.5611 16.2176 16.3497 16.3762C16.1395 16.5338 15.8646 16.6795 15.563 16.7297L15.5567 16.7308L15.1801 16.7902C14.8584 16.8443 14.7662 16.9411 14.7461 16.9684C14.7464 17.0023 14.7636 17.1398 15.0018 17.3813L15.35 17.7296L15.3612 17.741C15.5827 17.9721 15.7225 18.2667 15.7987 18.5352C15.8748 18.8031 15.9108 19.1276 15.8424 19.4402L15.8394 19.4536L15.7899 19.6614C15.7252 19.941 15.7271 20.1247 15.7456 20.2268C15.7476 20.2375 15.7496 20.2467 15.7515 20.2547C15.7582 20.2542 15.7657 20.2534 15.7741 20.2523C15.8736 20.2393 16.0467 20.1859 16.2923 20.0377L16.3049 20.0303L16.5631 19.8813C16.5635 19.8811 16.5639 19.8809 16.5643 19.8806C16.8598 19.7095 17.1995 19.6449 17.4997 19.6449C17.7999 19.6449 18.1397 19.7095 18.4352 19.8807C18.4356 19.8809 18.4359 19.8811 18.4363 19.8813L18.7057 20.0367C18.9486 20.1825 19.1201 20.2352 19.2187 20.248C19.2276 20.2491 19.2356 20.2499 19.2426 20.2505C19.2447 20.2421 19.2469 20.2324 19.249 20.2211C19.268 20.1197 19.271 19.9371 19.2089 19.6587L19.1569 19.4402C19.0886 19.1276 19.1247 18.8031 19.2007 18.5352C19.2769 18.2667 19.4168 17.9721 19.6382 17.741L19.6494 17.7296L19.9977 17.3813C20.2358 17.1398 20.2531 17.0023 20.2534 16.9684C20.2332 16.9411 20.1411 16.8443 19.8194 16.7902L19.4428 16.7308C19.4342 16.7294 19.4257 16.7279 19.4172 16.7263C19.127 16.6701 18.8593 16.532 18.6468 16.3731C18.435 16.2146 18.2237 15.9949 18.0889 15.7253L18.0866 15.7206L17.8077 15.1529C17.8075 15.1525 17.8073 15.1522 17.8072 15.1518C17.706 14.9479 17.6101 14.8391 17.5473 14.7878C17.5252 14.7698 17.5094 14.7603 17.4997 14.7556C17.49 14.7603 17.4742 14.7698 17.4522 14.7878C17.3894 14.8391 17.2934 14.9479 17.1923 15.1518ZM17.4997 13.2524C18.2757 13.2524 18.8296 13.8367 19.1518 14.487L19.1529 14.4893L19.4308 15.0551C19.4311 15.0556 19.4316 15.0564 19.4323 15.0577C19.4336 15.0598 19.4355 15.0627 19.4381 15.0665C19.4434 15.0742 19.451 15.0841 19.4614 15.0959C19.4827 15.1199 19.5112 15.1464 19.5451 15.1718C19.6136 15.223 19.6715 15.2457 19.6961 15.2522L20.063 15.3101C20.7682 15.4277 21.4551 15.7924 21.6843 16.5123C21.9128 17.2297 21.5676 17.9266 21.0633 18.437L21.06 18.4403L20.7196 18.7807C20.7181 18.7825 20.7154 18.7859 20.7119 18.7909C20.7059 18.7994 20.6984 18.8114 20.6901 18.827C20.6731 18.8591 20.6566 18.8995 20.6437 18.9447C20.6309 18.9899 20.6239 19.0325 20.6216 19.0677C20.6197 19.0969 20.6216 19.1136 20.6222 19.1183L20.6715 19.3255C20.8407 20.0784 20.818 20.9806 20.1389 21.4776C19.458 21.9761 18.596 21.7188 17.9397 21.3265L17.6849 21.1796L17.6831 21.1785C17.6688 21.1702 17.6041 21.1449 17.4997 21.1449C17.3953 21.1449 17.3306 21.1702 17.3163 21.1785L17.3145 21.1796L17.0605 21.3261C16.4003 21.7227 15.5338 21.9826 14.8513 21.4802C14.1712 20.9795 14.1547 20.0728 14.3291 19.3205L14.3301 19.3163L14.3772 19.1183C14.3779 19.1136 14.3797 19.0969 14.3778 19.0677C14.3756 19.0325 14.3685 18.9899 14.3557 18.9447C14.3429 18.8995 14.3264 18.8591 14.3094 18.827C14.3011 18.8114 14.2935 18.7994 14.2875 18.7909C14.284 18.7859 14.2814 18.7825 14.2798 18.7807L13.9362 18.4371C13.4319 17.9266 13.0866 17.2297 13.3151 16.5123C13.5444 15.7924 14.2312 15.4277 14.9364 15.3101L14.9427 15.3091L15.3152 15.2503C15.3172 15.2497 15.33 15.2463 15.3526 15.2357C15.3809 15.2224 15.4148 15.2024 15.4497 15.1762C15.4846 15.15 15.5144 15.1223 15.537 15.0968C15.548 15.0844 15.5561 15.0739 15.5616 15.066C15.5659 15.0598 15.568 15.0561 15.5687 15.0549L15.8477 14.487C16.1698 13.8367 16.7237 13.2524 17.4997 13.2524Z" fill="#101010"/>
</svg>
