<svg width="21" height="22" viewBox="0 0 21 22" fill="none" xmlns="http://www.w3.org/2000/svg">
<path fill-rule="evenodd" clip-rule="evenodd" d="M14.8799 9.75C12.6741 9.75 10.8799 11.5442 10.8799 13.75C10.8799 14.4978 11.0896 15.2031 11.4598 15.8089L11.464 15.8156L11.4639 15.8157C11.7752 16.3372 12.2008 16.7773 12.7118 17.0906C12.7193 17.0951 12.7267 17.0998 12.734 17.1047C13.3545 17.5156 14.0911 17.75 14.8799 17.75C16.3459 17.75 17.6165 16.9675 18.3064 15.8148L18.3099 15.8089L18.3099 15.8089C18.6771 15.2081 18.8799 14.5037 18.8799 13.75C18.8799 11.8471 17.5497 10.2477 15.7583 9.85238L15.7432 9.84888C15.4752 9.78391 15.1848 9.75 14.8799 9.75ZM9.37988 13.75C9.37988 10.7158 11.8457 8.25 14.8799 8.25C15.2923 8.25 15.6993 8.29548 16.089 8.38928C18.5537 8.93679 20.3799 11.1355 20.3799 13.75C20.3799 14.7751 20.1033 15.7496 19.5917 16.5881C18.6412 18.1739 16.8926 19.25 14.8799 19.25C13.7933 19.25 12.7739 18.9272 11.9167 18.3626C11.194 17.917 10.6043 17.3011 10.1779 16.5877C9.66938 15.7543 9.37988 14.7808 9.37988 13.75Z" fill="#101010"/>
<path fill-rule="evenodd" clip-rule="evenodd" d="M17.2808 12.0707C17.5621 12.3748 17.5436 12.8493 17.2395 13.1306L14.7095 15.4706C14.4138 15.7441 13.9548 15.7352 13.6699 15.4503L12.4999 14.2803C12.207 13.9874 12.2071 13.5125 12.5 13.2196C12.7928 12.9267 13.2677 12.9268 13.5606 13.2196L14.2205 13.8796L16.221 12.0294C16.5251 11.7481 16.9996 11.7666 17.2808 12.0707Z" fill="#101010"/>
<path fill-rule="evenodd" clip-rule="evenodd" d="M3.33008 1.75C2.65781 1.75 2.06006 2.3003 2.06006 3.12V5.45001C2.06006 5.6042 2.12011 5.87215 2.26136 6.1857C2.39915 6.49157 2.58116 6.76703 2.75559 6.94495L2.76371 6.95323L2.76365 6.9533L6.60367 10.9933C6.61836 11.0088 6.63239 11.0248 6.64571 11.0415C6.8988 11.3578 7.13578 11.7765 7.31078 12.2111C7.48409 12.6416 7.62006 13.1456 7.62006 13.63V18.98C7.62006 19.9693 8.75505 20.5824 9.60018 20.0655L11.0033 19.1599C11.012 19.1542 11.0208 19.1488 11.0298 19.1436C11.1216 19.0896 11.2651 18.9432 11.3903 18.7014C11.4989 18.4917 11.5562 18.2817 11.5678 18.1267C11.0027 17.7096 10.5336 17.1825 10.1781 16.5877C9.66956 15.7543 9.38007 14.7808 9.38007 13.75C9.38007 10.7158 11.8459 8.25 14.8801 8.25C15.1577 8.25 15.4329 8.27061 15.7019 8.31269L17.1617 7.02713C17.3344 6.84521 17.5333 6.551 17.6899 6.20684C17.853 5.84853 17.9401 5.50245 17.9401 5.23999V3.01999C17.9401 2.32422 17.3658 1.75 16.67 1.75H3.33008ZM0.560059 3.12C0.560059 1.51969 1.78235 0.25 3.33008 0.25H16.67C18.1942 0.25 19.4401 1.49576 19.4401 3.01999V5.23999C19.4401 5.78754 19.2721 6.35146 19.0552 6.82816C18.837 7.30752 18.539 7.76523 18.2156 8.09506C18.2028 8.10814 18.1895 8.12075 18.1757 8.13286L16.4157 9.68284C16.2321 9.84456 15.9811 9.90653 15.7433 9.84888C15.4753 9.78391 15.185 9.75 14.8801 9.75C12.6743 9.75 10.8801 11.5442 10.8801 13.75C10.8801 14.4978 11.0898 15.2031 11.46 15.8089L11.4641 15.8156L11.4641 15.8157C11.7753 16.3372 12.201 16.7773 12.712 17.0906C12.9345 17.2269 13.0701 17.4691 13.0701 17.73V18.07C13.0701 18.522 12.9273 18.9952 12.7223 19.3911C12.5224 19.7771 12.216 20.1806 11.8054 20.4275L10.4068 21.3302L10.3945 21.3379C8.62019 22.435 6.12006 21.2286 6.12006 18.98V13.63C6.12006 13.4044 6.05103 13.0985 5.91933 12.7714C5.79463 12.4617 5.63495 12.1856 5.49247 12.0015L1.68012 7.9906C1.35647 7.65909 1.08506 7.22653 0.893731 6.80181C0.704996 6.38286 0.560059 5.89582 0.560059 5.45001V3.12Z" fill="#101010"/>
</svg>
