<svg width="21" height="22" viewBox="0 0 21 22" fill="none" xmlns="http://www.w3.org/2000/svg">
<path fill-rule="evenodd" clip-rule="evenodd" d="M3.33006 1.76001C2.6578 1.76001 2.06006 2.3103 2.06006 3.13V5.45001C2.06006 5.61289 2.11982 5.88228 2.2581 6.19049C2.39357 6.49245 2.57382 6.76307 2.75039 6.93964L2.76368 6.95327L6.60368 10.9933C6.61629 11.0066 6.62841 11.0203 6.64001 11.0345C6.90276 11.3549 7.14136 11.7775 7.31532 12.2131C7.48804 12.6456 7.62006 13.1484 7.62006 13.63V18.98C7.62006 19.9693 8.75505 20.5824 9.60016 20.0655L11.0034 19.1598C11.3514 18.9352 11.8156 19.0352 12.0402 19.3833C12.2648 19.7313 12.1648 20.1955 11.8168 20.4201L10.4068 21.3302L10.3945 21.3379C8.62017 22.435 6.12006 21.2285 6.12006 18.98V13.63C6.12006 13.4016 6.05207 13.0944 5.92229 12.7694C5.79829 12.4589 5.63905 12.1851 5.49575 12.0049L1.68253 7.99307C1.35234 7.66061 1.08016 7.22943 0.88952 6.80449C0.700296 6.38272 0.560059 5.89713 0.560059 5.45001V3.13C0.560059 1.52971 1.78232 0.26001 3.33006 0.26001H16.6701C18.1943 0.26001 19.4401 1.50582 19.4401 3.03003V5.25C19.4401 5.79751 19.2722 6.36157 19.0548 6.83769C18.8366 7.31586 18.5373 7.77344 18.2104 8.10034C17.9175 8.39323 17.4426 8.39323 17.1497 8.10034C16.8568 7.80744 16.8568 7.33257 17.1497 7.03968C17.3228 6.86658 17.5285 6.56916 17.6903 6.21482C17.853 5.85843 17.9401 5.51249 17.9401 5.25V3.03003C17.9401 2.33423 17.3658 1.76001 16.6701 1.76001H3.33006Z" fill="#101010"/>
<path fill-rule="evenodd" clip-rule="evenodd" d="M14.8799 9.75C12.6741 9.75 10.8799 11.5442 10.8799 13.75C10.8799 14.5003 11.0909 15.2135 11.4574 15.8049L11.4635 15.8148L11.4634 15.8148C12.1538 16.9683 13.4248 17.75 14.8799 17.75C16.3375 17.75 17.6062 16.9762 18.2951 15.8169L18.2999 15.8089L18.2999 15.8089C18.6702 15.2031 18.8799 14.4978 18.8799 13.75C18.8799 11.5442 17.0857 9.75 14.8799 9.75ZM9.37988 13.75C9.37988 10.7158 11.8457 8.25 14.8799 8.25C17.9141 8.25 20.3799 10.7158 20.3799 13.75C20.3799 14.7805 20.0905 15.7538 19.5823 16.5871C18.6306 18.1856 16.8806 19.25 14.8799 19.25C12.8771 19.25 11.1296 18.174 10.1793 16.5901C9.66775 15.7626 9.37988 14.7777 9.37988 13.75Z" fill="#101010"/>
<path fill-rule="evenodd" clip-rule="evenodd" d="M13.1098 11.9496C13.4027 11.6568 13.8776 11.6568 14.1705 11.9497L16.6805 14.4597C16.9734 14.7526 16.9734 15.2274 16.6805 15.5203C16.3876 15.8132 15.9127 15.8132 15.6198 15.5203L13.1098 13.0103C12.8169 12.7174 12.8169 12.2425 13.1098 11.9496Z" fill="#101010"/>
<path fill-rule="evenodd" clip-rule="evenodd" d="M16.6604 11.9797C16.9533 12.2726 16.9533 12.7474 16.6604 13.0403L14.1504 15.5503C13.8576 15.8432 13.3827 15.8432 13.0898 15.5504C12.7969 15.2575 12.7969 14.7826 13.0898 14.4897L15.5998 11.9797C15.8927 11.6868 16.3676 11.6868 16.6604 11.9797Z" fill="#101010"/>
<path fill-rule="evenodd" clip-rule="evenodd" d="M3.33006 1.75C2.6578 1.75 2.06006 2.30029 2.06006 3.12V5.45001C2.06006 5.60419 2.12011 5.87213 2.26137 6.18567C2.39917 6.49153 2.58117 6.76699 2.75561 6.94492L2.76374 6.95321L2.76368 6.95327L6.60368 10.9933C6.61837 11.0088 6.63239 11.0248 6.64571 11.0415C6.8988 11.3578 7.13578 11.7765 7.31078 12.2111C7.48409 12.6416 7.62006 13.1456 7.62006 13.63V18.98C7.62006 19.9693 8.75505 20.5824 9.60016 20.0655L11.0034 19.1598C11.0121 19.1542 11.0209 19.1488 11.0298 19.1435C11.1216 19.0895 11.2651 18.9431 11.3903 18.7014C11.4989 18.4916 11.5562 18.2817 11.5678 18.1267C11.0028 17.7096 10.5336 17.1826 10.178 16.5877C9.66955 15.7543 9.38006 14.7808 9.38006 13.75C9.38006 10.7158 11.8458 8.25 14.8801 8.25C15.1577 8.25 15.4329 8.27061 15.7019 8.3127L17.1617 7.02713C17.3345 6.84522 17.5333 6.55101 17.6899 6.20684C17.853 5.84854 17.9401 5.50245 17.9401 5.23999V3.02002C17.9401 2.32422 17.3658 1.75 16.6701 1.75H3.33006ZM0.560059 3.12C0.560059 1.5197 1.78232 0.25 3.33006 0.25H16.6701C18.1943 0.25 19.4401 1.49582 19.4401 3.02002V5.23999C19.4401 5.78753 19.2721 6.35145 19.0552 6.82816C18.837 7.30752 18.539 7.76523 18.2156 8.09506C18.2028 8.10814 18.1895 8.12075 18.1757 8.13285L16.4157 9.68284C16.2321 9.84456 15.9812 9.90653 15.7434 9.84888C15.4754 9.78391 15.185 9.75 14.8801 9.75C12.6743 9.75 10.8801 11.5442 10.8801 13.75C10.8801 14.4978 11.0898 15.2031 11.46 15.8089L11.4641 15.8156L11.4641 15.8157C11.7753 16.3372 12.2009 16.7773 12.712 17.0905C12.9344 17.2269 13.0701 17.4691 13.0701 17.73V18.07C13.0701 18.522 12.9273 18.9952 12.7223 19.3911C12.5225 19.7771 12.216 20.1805 11.8054 20.4274L10.4068 21.3302L10.3945 21.3379C8.62017 22.435 6.12006 21.2285 6.12006 18.98V13.63C6.12006 13.4044 6.05103 13.0985 5.91934 12.7714C5.79463 12.4617 5.63496 12.1856 5.49247 12.0015L1.68015 7.99058C1.35651 7.65908 1.0851 7.22653 0.893752 6.80181C0.705009 6.38287 0.560059 5.89583 0.560059 5.45001V3.12Z" fill="#101010"/>
</svg>
