<svg width="20" height="22" viewBox="0 0 20 22" fill="none" xmlns="http://www.w3.org/2000/svg">
<path fill-rule="evenodd" clip-rule="evenodd" d="M3.33008 1.76001C2.65781 1.76001 2.06006 2.31031 2.06006 3.13V5.45001C2.06006 5.6129 2.11982 5.88231 2.25809 6.19052C2.39356 6.49249 2.5738 6.76311 2.75036 6.93967L2.76365 6.9533L6.60367 10.9933C6.61628 11.0066 6.6284 11.0203 6.64001 11.0345C6.90276 11.3549 7.14136 11.7775 7.31532 12.2131C7.48804 12.6456 7.62006 13.1484 7.62006 13.63V18.98C7.62006 19.9693 8.75505 20.5824 9.60018 20.0655L11.0033 19.1599L11.0205 19.1491C11.1208 19.0882 11.2665 18.9358 11.3909 18.6966C11.5132 18.4611 11.5701 18.2272 11.5701 18.07C11.5701 17.6558 11.9059 17.32 12.3201 17.32C12.7343 17.32 13.0701 17.6558 13.0701 18.07C13.0701 18.5228 12.9269 18.9939 12.7218 19.3885C12.5202 19.7761 12.2142 20.1755 11.8093 20.425L10.4068 21.3302L10.3945 21.3379C8.62019 22.435 6.12006 21.2286 6.12006 18.98V13.63C6.12006 13.4016 6.05207 13.0944 5.92229 12.7694C5.79829 12.4589 5.63905 12.1851 5.49575 12.0049L1.68249 7.9931C1.3523 7.66063 1.08013 7.22943 0.8895 6.80449C0.700283 6.38271 0.560059 5.89712 0.560059 5.45001V3.13C0.560059 1.5297 1.78235 0.26001 3.33008 0.26001H16.67C18.1942 0.26001 19.4401 1.50577 19.4401 3.03V5.25C19.4401 5.79751 19.2722 6.36158 19.0548 6.83769C18.8366 7.31586 18.5373 7.77344 18.2104 8.10034C17.9175 8.39323 17.4426 8.39323 17.1497 8.10034C16.8568 7.80744 16.8568 7.33257 17.1497 7.03968C17.3228 6.86657 17.5285 6.56915 17.6903 6.21482C17.853 5.85843 17.9401 5.51249 17.9401 5.25V3.03C17.9401 2.33423 17.3658 1.76001 16.67 1.76001H3.33008Z" fill="#101010"/>
<path fill-rule="evenodd" clip-rule="evenodd" d="M14.0701 9.87C12.717 9.87 11.6201 10.9669 11.6201 12.32C11.6201 13.6731 12.717 14.77 14.0701 14.77C15.4232 14.77 16.5201 13.6731 16.5201 12.32C16.5201 10.9669 15.4232 9.87 14.0701 9.87ZM10.1201 12.32C10.1201 10.1385 11.8886 8.37 14.0701 8.37C16.2517 8.37 18.0201 10.1385 18.0201 12.32C18.0201 14.5015 16.2516 16.27 14.0701 16.27C11.8886 16.27 10.1201 14.5015 10.1201 12.32Z" fill="#101010"/>
<path fill-rule="evenodd" clip-rule="evenodd" d="M16.3398 14.5897C16.6327 14.2968 17.1076 14.2968 17.4004 14.5897L18.4004 15.5897C18.6933 15.8826 18.6933 16.3574 18.4004 16.6503C18.1076 16.9432 17.6327 16.9432 17.3398 16.6503L16.3398 15.6503C16.0469 15.3574 16.0469 14.8826 16.3398 14.5897Z" fill="#101010"/>
</svg>
