<svg width="22" height="22" viewBox="0 0 22 22" fill="none" xmlns="http://www.w3.org/2000/svg">
<path fill-rule="evenodd" clip-rule="evenodd" d="M11 1.75C5.89137 1.75 1.75 5.89137 1.75 11C1.75 16.1086 5.89137 20.25 11 20.25C16.1086 20.25 20.25 16.1086 20.25 11C20.25 5.89137 16.1086 1.75 11 1.75ZM0.25 11C0.25 5.06294 5.06294 0.25 11 0.25C16.9371 0.25 21.75 5.06294 21.75 11C21.75 16.9371 16.9371 21.75 11 21.75C5.06294 21.75 0.25 16.9371 0.25 11Z" fill="#101010"/>
<path fill-rule="evenodd" clip-rule="evenodd" d="M10.9996 8.85986C10.5038 8.85986 10.0996 9.26408 10.0996 9.75989V12.2299C10.0996 12.7257 10.5038 13.1299 10.9996 13.1299C11.4954 13.1299 11.8996 12.7257 11.8996 12.2299V9.75989C11.8996 9.26408 11.4954 8.85986 10.9996 8.85986ZM8.59961 9.75989C8.59961 8.43569 9.67537 7.35986 10.9996 7.35986C12.3238 7.35986 13.3996 8.43569 13.3996 9.75989V12.2299C13.3996 13.5541 12.3238 14.6299 10.9996 14.6299C9.67537 14.6299 8.59961 13.5541 8.59961 12.2299V9.75989Z" fill="#101010"/>
<path fill-rule="evenodd" clip-rule="evenodd" d="M11 5.67993C8.65421 5.67993 6.75 7.58415 6.75 9.92993V12.0699C6.75 14.4157 8.65421 16.3199 11 16.3199C13.227 16.3199 15.0624 14.6026 15.2322 12.4119C15.2643 11.999 15.625 11.6901 16.038 11.7222C16.4509 11.7542 16.7598 12.1149 16.7278 12.5279C16.4976 15.4972 14.013 17.8199 11 17.8199C7.82579 17.8199 5.25 15.2442 5.25 12.0699V9.92993C5.25 6.75572 7.82579 4.17993 11 4.17993C13.9786 4.17993 16.4286 6.44529 16.7163 9.34588C16.7572 9.75807 16.4562 10.1254 16.044 10.1663C15.6319 10.2071 15.2646 9.90615 15.2237 9.49396C15.0114 7.35456 13.2014 5.67993 11 5.67993Z" fill="#101010"/>
</svg>
