<svg width="16" height="22" viewBox="0 0 16 22" fill="none" xmlns="http://www.w3.org/2000/svg">
<path fill-rule="evenodd" clip-rule="evenodd" d="M1.15039 0.25C1.5646 0.25 1.90039 0.585786 1.90039 1V21C1.90039 21.4142 1.5646 21.75 1.15039 21.75C0.736177 21.75 0.400391 21.4142 0.400391 21V1C0.400391 0.585786 0.736177 0.25 1.15039 0.25Z" fill="#101010"/>
<path fill-rule="evenodd" clip-rule="evenodd" d="M0.400391 3C0.400391 2.58579 0.736177 2.25 1.15039 2.25H12.3504C13.0862 2.25 13.7373 2.35099 14.2654 2.57239C14.799 2.79612 15.2492 3.16378 15.4698 3.70408C15.6899 4.24342 15.6265 4.82085 15.4059 5.35395C15.1873 5.88236 14.7986 6.41246 14.2807 6.93033L13.0807 8.13033C12.5525 8.65853 12.6069 9.45283 13.0443 9.83557C13.0568 9.84653 13.069 9.8579 13.0807 9.86967L14.2807 11.0697C15.2683 12.0573 15.8863 13.2369 15.4272 14.3079C14.973 15.3678 13.7039 15.75 12.3504 15.75H1.15039C0.736177 15.75 0.400391 15.4142 0.400391 15C0.400391 14.5858 0.736177 14.25 1.15039 14.25H12.3504C13.5969 14.25 13.9777 13.8822 14.0485 13.7171C14.1145 13.5631 14.1325 13.0427 13.2201 12.1303L12.0362 10.9465C10.8946 9.92602 10.9545 8.13519 12.0201 7.06967L13.2201 5.86967C13.6522 5.43754 13.901 5.06764 14.0199 4.78042C14.1368 4.4979 14.1109 4.34408 14.081 4.27092C14.0515 4.19872 13.9642 4.07263 13.6854 3.95574C13.401 3.83651 12.9646 3.75 12.3504 3.75H1.15039C0.736177 3.75 0.400391 3.41421 0.400391 3Z" fill="#101010"/>
</svg>
