<svg width="24" height="22" viewBox="0 0 24 22" fill="none" xmlns="http://www.w3.org/2000/svg">
<path fill-rule="evenodd" clip-rule="evenodd" d="M15.4561 1.26521C16.6148 -0.0574492 18.7897 0.771677 18.7897 2.52003V8.97003H21.1297C22.7731 8.97003 23.6504 10.8995 22.5628 12.1355L22.5627 12.1356L14.9941 20.7339C14.9939 20.7341 14.9938 20.7344 14.9936 20.7346C13.8349 22.0576 11.6597 21.2285 11.6597 19.48V13.03H9.31972C7.67994 13.03 6.81669 11.0991 7.88296 9.86884L7.88674 9.86448L7.88676 9.86449L15.4553 1.26616C15.4555 1.26584 15.4558 1.26553 15.4561 1.26521ZM17.2897 2.52003C17.2897 2.14881 16.8256 1.97791 16.5841 2.25391L16.5827 2.25558L9.01506 10.8529C8.78357 11.1226 8.98021 11.53 9.31972 11.53H12.4097C12.8239 11.53 13.1597 11.8658 13.1597 12.28V19.48C13.1597 19.8513 13.6238 20.0221 13.8653 19.7462L13.8667 19.7445L21.4367 11.1446C21.4367 11.1445 21.4367 11.1445 21.4367 11.1445C21.669 10.8805 21.4863 10.47 21.1297 10.47H18.0397C17.6255 10.47 17.2897 10.1342 17.2897 9.72003V2.52003Z" fill="#101010"/>
<path fill-rule="evenodd" clip-rule="evenodd" d="M0.75 3C0.75 2.58579 1.08579 2.25 1.5 2.25H8.5C8.91421 2.25 9.25 2.58579 9.25 3C9.25 3.41421 8.91421 3.75 8.5 3.75H1.5C1.08579 3.75 0.75 3.41421 0.75 3Z" fill="#101010"/>
<path fill-rule="evenodd" clip-rule="evenodd" d="M0.75 19C0.75 18.5858 1.08579 18.25 1.5 18.25H7.5C7.91421 18.25 8.25 18.5858 8.25 19C8.25 19.4142 7.91421 19.75 7.5 19.75H1.5C1.08579 19.75 0.75 19.4142 0.75 19Z" fill="#101010"/>
<path fill-rule="evenodd" clip-rule="evenodd" d="M0.75 11C0.75 10.5858 1.08579 10.25 1.5 10.25H4.5C4.91421 10.25 5.25 10.5858 5.25 11C5.25 11.4142 4.91421 11.75 4.5 11.75H1.5C1.08579 11.75 0.75 11.4142 0.75 11Z" fill="#101010"/>
</svg>
