<svg width="22" height="22" viewBox="0 0 22 22" fill="none" xmlns="http://www.w3.org/2000/svg">
<path fill-rule="evenodd" clip-rule="evenodd" d="M5.37287 2.52102C5.51536 2.34934 5.72689 2.25 5.95 2.25H16.05C16.2731 2.25 16.4846 2.34934 16.6271 2.52102C16.7696 2.69271 16.8283 2.91892 16.7872 3.13822C16.7635 3.26461 16.75 3.38714 16.75 3.5C16.75 4.46579 17.5342 5.25 18.5 5.25C18.6129 5.25 18.7354 5.23655 18.8618 5.21285C19.0811 5.17173 19.3073 5.23038 19.479 5.37287C19.6507 5.51536 19.75 5.72689 19.75 5.95V16.05C19.75 16.2731 19.6507 16.4846 19.479 16.6271C19.3073 16.7696 19.0811 16.8283 18.8618 16.7872C18.7354 16.7635 18.6129 16.75 18.5 16.75C17.5342 16.75 16.75 17.5342 16.75 18.5C16.75 18.6129 16.7635 18.7354 16.7872 18.8618C16.8283 19.0811 16.7696 19.3073 16.6271 19.479C16.4846 19.6507 16.2731 19.75 16.05 19.75H5.95C5.72689 19.75 5.51536 19.6507 5.37287 19.479C5.23038 19.3073 5.17173 19.0811 5.21285 18.8618C5.23655 18.7354 5.25 18.6129 5.25 18.5C5.25 17.5342 4.46579 16.75 3.5 16.75C3.38714 16.75 3.26461 16.7635 3.13822 16.7872C2.91892 16.8283 2.69271 16.7696 2.52102 16.6271C2.34934 16.4846 2.25 16.2731 2.25 16.05V5.95C2.25 5.72689 2.34934 5.51536 2.52102 5.37287C2.69271 5.23038 2.91892 5.17173 3.13822 5.21285C3.26461 5.23655 3.38714 5.25 3.5 5.25C4.46579 5.25 5.25 4.46579 5.25 3.5C5.25 3.38714 5.23655 3.26461 5.21285 3.13822C5.17173 2.91892 5.23038 2.69271 5.37287 2.52102ZM6.74052 3.75C6.61904 5.345 5.345 6.61904 3.75 6.74052V15.2595C5.345 15.381 6.61904 16.655 6.74052 18.25H15.2595C15.381 16.655 16.655 15.381 18.25 15.2595V6.74052C16.655 6.61904 15.381 5.345 15.2595 3.75H6.74052Z" fill="#101010"/>
<path fill-rule="evenodd" clip-rule="evenodd" d="M3.5 1.75C2.53421 1.75 1.75 2.53421 1.75 3.5C1.75 4.34493 2.34964 5.05127 3.14344 5.21382C3.26799 5.23691 3.38869 5.25 3.5 5.25C4.46579 5.25 5.25 4.46579 5.25 3.5C5.25 3.38869 5.23691 3.26799 5.21382 3.14344C5.05127 2.34964 4.34493 1.75 3.5 1.75ZM0.25 3.5C0.25 1.70579 1.70579 0.25 3.5 0.25C5.07333 0.25 6.38583 1.3679 6.68519 2.85167L6.68722 2.86177L6.68715 2.86178C6.72345 3.05539 6.75 3.27286 6.75 3.5C6.75 5.29421 5.29421 6.75 3.5 6.75C3.27286 6.75 3.05539 6.72345 2.86178 6.68715L2.85166 6.68526L2.85167 6.68519C1.3679 6.38583 0.25 5.07333 0.25 3.5Z" fill="#101010"/>
<path fill-rule="evenodd" clip-rule="evenodd" d="M16.7862 3.14342C16.7631 3.26797 16.75 3.38869 16.75 3.5C16.75 4.46579 17.5342 5.25 18.5 5.25C18.6113 5.25 18.732 5.23691 18.8566 5.21382C19.6504 5.05127 20.25 4.34493 20.25 3.5C20.25 2.53421 19.4658 1.75 18.5 1.75C17.6551 1.75 16.9487 2.34963 16.7862 3.14342ZM15.3148 2.85167C15.6142 1.3679 16.9267 0.25 18.5 0.25C20.2942 0.25 21.75 1.70579 21.75 3.5C21.75 5.07333 20.6321 6.38583 19.1483 6.68519L19.1382 6.68722L19.1382 6.68715C18.9446 6.72345 18.7271 6.75 18.5 6.75C16.7058 6.75 15.25 5.29421 15.25 3.5C15.25 3.27286 15.2765 3.05539 15.3128 2.86178L15.3147 2.85166L15.3148 2.85167Z" fill="#101010"/>
<path fill-rule="evenodd" clip-rule="evenodd" d="M3.14342 16.7862C2.34963 16.9487 1.75 17.6551 1.75 18.5C1.75 19.4658 2.53421 20.25 3.5 20.25C4.34493 20.25 5.05127 19.6504 5.21382 18.8566C5.23691 18.732 5.25 18.6113 5.25 18.5C5.25 17.5342 4.46579 16.75 3.5 16.75C3.38869 16.75 3.26797 16.7631 3.14342 16.7862ZM2.86178 15.3128C3.05539 15.2765 3.27286 15.25 3.5 15.25C5.29421 15.25 6.75 16.7058 6.75 18.5C6.75 18.7271 6.72345 18.9446 6.68715 19.1382L6.68526 19.1483L6.68519 19.1483C6.38583 20.6321 5.07333 21.75 3.5 21.75C1.70579 21.75 0.25 20.2942 0.25 18.5C0.25 16.9267 1.3679 15.6142 2.85167 15.3148L2.86177 15.3128L2.86178 15.3128Z" fill="#101010"/>
<path fill-rule="evenodd" clip-rule="evenodd" d="M18.5 16.75C17.5342 16.75 16.75 17.5342 16.75 18.5C16.75 18.6113 16.7631 18.732 16.7862 18.8566C16.9487 19.6504 17.6551 20.25 18.5 20.25C19.4658 20.25 20.25 19.4658 20.25 18.5C20.25 17.6551 19.6504 16.9487 18.8566 16.7862C18.732 16.7631 18.6113 16.75 18.5 16.75ZM15.25 18.5C15.25 16.7058 16.7058 15.25 18.5 15.25C18.7271 15.25 18.9446 15.2765 19.1382 15.3128L19.1483 15.3147L19.1483 15.3148C20.6321 15.6142 21.75 16.9267 21.75 18.5C21.75 20.2942 20.2942 21.75 18.5 21.75C16.9267 21.75 15.6142 20.6321 15.3148 19.1483L15.3128 19.1382L15.3128 19.1382C15.2765 18.9446 15.25 18.7271 15.25 18.5Z" fill="#101010"/>
</svg>
