<svg width="22" height="22" viewBox="0 0 22 22" fill="none" xmlns="http://www.w3.org/2000/svg">
<path fill-rule="evenodd" clip-rule="evenodd" d="M17.6498 2.25C16.98 2.25 16.3862 2.56599 16.0133 3.04859C15.9932 3.07453 15.9716 3.09895 15.9487 3.12177C15.6957 3.47539 15.5498 3.89064 15.5498 4.35C15.5498 5.51579 16.484 6.45 17.6498 6.45C18.1447 6.45 18.5919 6.28091 18.9443 6.00197L18.9457 6.00088C19.4345 5.61573 19.7498 5.01856 19.7498 4.35C19.7498 3.18421 18.8156 2.25 17.6498 2.25ZM14.898 2.04179C15.5478 1.2554 16.5411 0.75 17.6498 0.75C19.644 0.75 21.2498 2.35579 21.2498 4.35C21.2498 5.50144 20.7051 6.52427 19.874 7.17912L19.4098 6.59L19.8753 7.17803C19.2677 7.65909 18.4949 7.95 17.6498 7.95C15.6556 7.95 14.0498 6.34421 14.0498 4.35C14.0498 3.50098 14.3432 2.74157 14.8171 2.13038C14.8419 2.0985 14.8689 2.06891 14.898 2.04179Z" fill="#101010"/>
<path fill-rule="evenodd" clip-rule="evenodd" d="M4.35 2.25C3.18421 2.25 2.25 3.18421 2.25 4.35C2.25 5.01755 2.56435 5.61392 3.05193 5.99913C3.42027 6.28404 3.86004 6.45 4.35 6.45C5.51579 6.45 6.45 5.51579 6.45 4.35C6.45 3.86004 6.28404 3.42027 5.99913 3.05193C5.61392 2.56435 5.01755 2.25 4.35 2.25ZM0.75 4.35C0.75 2.35579 2.35579 0.75 4.35 0.75C5.50144 0.75 6.52427 1.29469 7.17912 2.12585L7.18268 2.13037L7.18266 2.13038C7.65665 2.74157 7.95 3.50098 7.95 4.35C7.95 6.34421 6.34421 7.95 4.35 7.95C3.50098 7.95 2.74157 7.65665 2.13038 7.18266L2.12583 7.17914L2.12585 7.17912C1.29469 6.52427 0.75 5.50144 0.75 4.35Z" fill="#101010"/>
<path fill-rule="evenodd" clip-rule="evenodd" d="M17.6498 15.55C16.484 15.55 15.5498 16.4842 15.5498 17.65C15.5498 18.1125 15.6975 18.5334 15.9445 18.8741C15.969 18.8981 15.992 18.9239 16.0133 18.9514C16.3862 19.434 16.98 19.75 17.6498 19.75C18.8156 19.75 19.7498 18.8158 19.7498 17.65C19.7498 16.9802 19.4338 16.3864 18.9512 16.0135C18.9253 15.9934 18.9009 15.9718 18.878 15.9489C18.5244 15.6959 18.1092 15.55 17.6498 15.55ZM14.0498 17.65C14.0498 15.6558 15.6556 14.05 17.6498 14.05C18.4988 14.05 19.2582 14.3433 19.8694 14.8173C19.9013 14.8421 19.9309 14.8691 19.958 14.8981C20.7444 15.5479 21.2498 16.5413 21.2498 17.65C21.2498 19.6442 19.644 21.25 17.6498 21.25C16.5411 21.25 15.5477 20.7446 14.898 19.9582C14.8707 19.9328 14.8452 19.9052 14.8218 19.8755C14.3407 19.2679 14.0498 18.4951 14.0498 17.65Z" fill="#101010"/>
<path fill-rule="evenodd" clip-rule="evenodd" d="M3.12592 15.9447C3.10192 15.9692 3.07611 15.9922 3.04859 16.0135C2.56599 16.3864 2.25 16.9802 2.25 17.65C2.25 18.8158 3.18421 19.75 4.35 19.75C5.0235 19.75 5.61662 19.4409 5.99751 18.9501C6.28342 18.5814 6.45 18.1409 6.45 17.65C6.45 16.4842 5.51579 15.55 4.35 15.55C3.88747 15.55 3.46663 15.6977 3.12592 15.9447ZM2.12447 14.822C2.73212 14.3409 3.50492 14.05 4.35 14.05C6.34421 14.05 7.95 15.6558 7.95 17.65C7.95 18.499 7.65665 19.2584 7.18266 19.8696L7.18249 19.8698C6.52338 20.7191 5.4965 21.25 4.35 21.25C2.35579 21.25 0.75 19.6442 0.75 17.65C0.75 16.5413 1.2554 15.5479 2.0418 14.8981C2.06723 14.8709 2.09483 14.8454 2.12447 14.822Z" fill="#101010"/>
<path fill-rule="evenodd" clip-rule="evenodd" d="M7.65126 2.91679C7.84203 3.35282 7.95 3.83492 7.95 4.35C7.95 6.34421 6.34421 7.95 4.35 7.95C3.83492 7.95 3.35282 7.84203 2.91679 7.65126C2.48555 8.68258 2.25 9.81298 2.25 11C2.25 12.1946 2.48534 13.3197 2.91648 14.3489C3.35259 14.158 3.8348 14.05 4.35 14.05C6.34421 14.05 7.95 15.6558 7.95 17.65C7.95 18.1613 7.84352 18.6461 7.65287 19.0839C8.68376 19.5147 9.8136 19.75 11 19.75C12.1946 19.75 13.3197 19.5147 14.3489 19.0835C14.158 18.6474 14.05 18.1652 14.05 17.65C14.05 15.6558 15.6558 14.05 17.65 14.05C18.1614 14.05 18.6463 14.1565 19.0842 14.3473C19.5149 13.3185 19.75 12.1939 19.75 11C19.75 9.81298 19.5144 8.68258 19.0832 7.65126C18.6472 7.84203 18.1651 7.95 17.65 7.95C15.6558 7.95 14.05 6.34421 14.05 4.35C14.05 3.83861 14.1565 3.35368 14.3473 2.91581C13.3185 2.48509 12.1939 2.25 11 2.25C9.81298 2.25 8.68258 2.48555 7.65126 2.91679ZM6.23862 1.9274C7.66541 1.17077 9.28587 0.75 11 0.75C12.7245 0.75 14.335 1.17097 15.7614 1.9274C15.9581 2.03173 16.0983 2.21808 16.144 2.43602C16.1897 2.65395 16.1363 2.88094 15.998 3.05553C15.7191 3.40788 15.55 3.85508 15.55 4.35C15.55 5.51579 16.4842 6.45 17.65 6.45C18.141 6.45 18.5816 6.28335 18.9504 5.99734C19.1253 5.86168 19.3512 5.81022 19.5677 5.85676C19.7841 5.90329 19.9689 6.04305 20.0726 6.23862C20.8292 7.66541 21.25 9.28587 21.25 11C21.25 12.7245 20.829 14.335 20.0726 15.7614C19.9683 15.9581 19.7819 16.0983 19.564 16.144C19.346 16.1897 19.1191 16.1363 18.9445 15.998C18.5921 15.7191 18.1449 15.55 17.65 15.55C16.4842 15.55 15.55 16.4842 15.55 17.65C15.55 18.141 15.7167 18.5816 16.0027 18.9504C16.1383 19.1253 16.1898 19.3512 16.1432 19.5677C16.0967 19.7841 15.9569 19.9689 15.7614 20.0726C14.335 20.829 12.7245 21.25 11 21.25C9.28587 21.25 7.66541 20.8292 6.23862 20.0726C6.04189 19.9683 5.9017 19.7819 5.85598 19.564C5.81026 19.346 5.86375 19.1191 6.00197 18.9445C6.28091 18.5921 6.45 18.1449 6.45 17.65C6.45 16.4842 5.51579 15.55 4.35 15.55C3.85902 15.55 3.41843 15.7167 3.04962 16.0027C2.87469 16.1383 2.64877 16.1898 2.43234 16.1432C2.21592 16.0967 2.03111 15.9569 1.9274 15.7614C1.17097 14.335 0.75 12.7245 0.75 11C0.75 9.28587 1.17077 7.66541 1.9274 6.23862C2.03111 6.04305 2.21592 5.90329 2.43234 5.85676C2.64877 5.81022 2.87469 5.86168 3.04962 5.99734C3.41843 6.28335 3.85902 6.45 4.35 6.45C5.51579 6.45 6.45 5.51579 6.45 4.35C6.45 3.85902 6.28335 3.41843 5.99734 3.04962C5.86168 2.87469 5.81022 2.64877 5.85676 2.43234C5.90329 2.21592 6.04305 2.03111 6.23862 1.9274Z" fill="#101010"/>
</svg>
