<svg width="20" height="22" viewBox="0 0 20 22" fill="none" xmlns="http://www.w3.org/2000/svg">
<path fill-rule="evenodd" clip-rule="evenodd" d="M10.1878 9.59384C10.2896 9.2871 10.5765 9.08008 10.8997 9.08008H13.9597C14.3739 9.08008 14.7097 9.41586 14.7097 9.83008C14.7097 10.2443 14.3739 10.5801 13.9597 10.5801H11.441L11.1788 11.3701H12.4296C13.6806 11.3701 14.7097 12.3827 14.7097 13.6501C14.7097 14.9011 13.697 15.9301 12.4296 15.9301H10.1397C9.72544 15.9301 9.38965 15.5943 9.38965 15.1801C9.38965 14.7658 9.72544 14.4301 10.1397 14.4301H12.4296C12.8623 14.4301 13.2097 14.079 13.2097 13.6501C13.2097 13.2175 12.8586 12.8701 12.4296 12.8701H10.1397C9.89874 12.8701 9.6725 12.7543 9.53151 12.559C9.39052 12.3636 9.35195 12.1125 9.42783 11.8838L10.1878 9.59384Z" fill="#101010"/>
<path fill-rule="evenodd" clip-rule="evenodd" d="M7.8084 9.12976C8.0985 9.24092 8.29005 9.51944 8.29005 9.83011V15.1701C8.29005 15.5843 7.95426 15.9201 7.54005 15.9201C7.12583 15.9201 6.79005 15.5843 6.79005 15.1701V11.7875L6.59801 12.0013C6.32122 12.3094 5.84703 12.3348 5.53887 12.0581C5.23072 11.7813 5.20529 11.3071 5.48208 10.9989L6.98208 9.32894C7.18968 9.09781 7.51829 9.0186 7.8084 9.12976Z" fill="#101010"/>
<path fill-rule="evenodd" clip-rule="evenodd" d="M9.53093 0.414839C9.85412 0.155762 10.3261 0.207737 10.5852 0.530928L12.5652 3.0009C12.8243 3.32409 12.7723 3.79611 12.4491 4.05519C12.1259 4.31426 11.6539 4.26229 11.3948 3.9391L9.41484 1.46913C9.15576 1.14594 9.20774 0.673915 9.53093 0.414839Z" fill="#101010"/>
<path fill-rule="evenodd" clip-rule="evenodd" d="M10.0004 3.96997C5.50458 3.96997 1.86035 7.6142 1.86035 12.11C1.86035 16.6058 5.50458 20.25 10.0004 20.25C14.4962 20.25 18.1404 16.6058 18.1404 12.11C18.1404 10.2865 17.5119 8.61204 16.4904 7.24999C16.2419 6.91862 16.309 6.44852 16.6404 6.19999C16.9718 5.95146 17.4419 6.01862 17.6904 6.34999C18.8889 7.94793 19.6404 9.93346 19.6404 12.11C19.6404 17.4342 15.3246 21.75 10.0004 21.75C4.67615 21.75 0.360352 17.4342 0.360352 12.11C0.360352 6.78577 4.67615 2.46997 10.0004 2.46997C10.747 2.46997 11.4649 2.56888 12.1515 2.72981C12.5548 2.82433 12.8051 3.22788 12.7106 3.63117C12.616 4.03445 12.2125 4.28475 11.8092 4.19023C11.2158 4.05116 10.6138 3.96997 10.0004 3.96997Z" fill="#101010"/>
</svg>
