<svg width="20" height="22" viewBox="0 0 20 22" fill="none" xmlns="http://www.w3.org/2000/svg">
<path fill-rule="evenodd" clip-rule="evenodd" d="M9.53092 0.414842C9.85411 0.155763 10.3261 0.207734 10.5852 0.530923L12.5652 3.00089C12.8243 3.32408 12.7723 3.7961 12.4491 4.05518C12.126 4.31426 11.6539 4.26229 11.3949 3.9391L9.41484 1.46913C9.15576 1.14594 9.20773 0.673921 9.53092 0.414842Z" fill="#101010"/>
<path fill-rule="evenodd" clip-rule="evenodd" d="M10.0004 3.96997C5.50458 3.96997 1.86035 7.6142 1.86035 12.11C1.86035 16.6058 5.50458 20.25 10.0004 20.25C14.4962 20.25 18.1404 16.6058 18.1404 12.11C18.1404 10.2865 17.5119 8.61205 16.4904 7.24999C16.2418 6.91862 16.309 6.44852 16.6404 6.19999C16.9717 5.95146 17.4418 6.01862 17.6904 6.34999C18.8888 7.94793 19.6404 9.93346 19.6404 12.11C19.6404 17.4342 15.3246 21.75 10.0004 21.75C4.67615 21.75 0.360352 17.4342 0.360352 12.11C0.360352 6.78577 4.67615 2.46997 10.0004 2.46997C10.747 2.46997 11.4649 2.56888 12.1515 2.72981C12.5548 2.82433 12.8051 3.22788 12.7106 3.63117C12.6161 4.03445 12.2125 4.28475 11.8092 4.19023C11.2159 4.05116 10.6138 3.96997 10.0004 3.96997Z" fill="#101010"/>
<path fill-rule="evenodd" clip-rule="evenodd" d="M7.8084 8.87976C8.0985 8.99092 8.29005 9.26944 8.29005 9.58011V14.9201C8.29005 15.3343 7.95426 15.6701 7.54005 15.6701C7.12583 15.6701 6.79005 15.3343 6.79005 14.9201V11.5375L6.59801 11.7513C6.32122 12.0594 5.84703 12.0848 5.53887 11.8081C5.23072 11.5313 5.20529 11.0571 5.48208 10.7489L6.98208 9.07894C7.18968 8.84781 7.51829 8.7686 7.8084 8.87976Z" fill="#101010"/>
<path fill-rule="evenodd" clip-rule="evenodd" d="M12 10.3301C11.3118 10.3301 10.75 10.8867 10.75 11.5801V12.9301C10.75 13.6158 11.3142 14.1801 12 14.1801C12.6858 14.1801 13.25 13.6158 13.25 12.9301V11.5801C13.25 10.8943 12.6858 10.3301 12 10.3301ZM9.25 11.5801C9.25 10.0534 10.4882 8.83008 12 8.83008C13.5142 8.83008 14.75 10.0659 14.75 11.5801V12.9301C14.75 14.4443 13.5142 15.6801 12 15.6801C10.4858 15.6801 9.25 14.4443 9.25 12.9301V11.5801Z" fill="#101010"/>
</svg>
