<svg width="22" height="22" viewBox="0 0 22 22" fill="none" xmlns="http://www.w3.org/2000/svg">
<path fill-rule="evenodd" clip-rule="evenodd" d="M7.01693 7.01657C6.61986 7.41365 6.36035 8.10965 6.36035 9.38V12.61C6.36035 13.8803 6.61986 14.5763 7.01693 14.9734C7.414 15.3705 8.11 15.63 9.38035 15.63H12.6104C13.8807 15.63 14.5767 15.3705 14.9738 14.9734C15.3708 14.5763 15.6304 13.8803 15.6304 12.61V9.38C15.6304 8.10824 15.3727 7.41555 14.9775 7.02032C14.5818 6.62455 13.886 6.3649 12.6089 6.35999H9.38035C8.11 6.35999 7.414 6.6195 7.01693 7.01657ZM5.95627 5.95592C6.7717 5.14048 7.9607 4.85999 9.38035 4.85999H12.6131C14.0352 4.86525 15.2241 5.14557 16.0382 5.95967C16.853 6.77445 17.1304 7.96177 17.1304 9.38V12.61C17.1304 14.0296 16.8499 15.2186 16.0344 16.0341C15.219 16.8495 14.03 17.13 12.6104 17.13H9.38035C7.9607 17.13 6.7717 16.8495 5.95627 16.0341C5.14084 15.2186 4.86035 14.0296 4.86035 12.61V9.38C4.86035 7.96036 5.14084 6.77135 5.95627 5.95592Z" fill="#101010"/>
<path fill-rule="evenodd" clip-rule="evenodd" d="M11.637 2.40658C11.24 2.80364 10.9805 3.49964 10.9805 4.76999V4.87H12.6105C14.0301 4.87 15.2191 5.15049 16.0346 5.96593C16.85 6.78136 17.1305 7.97036 17.1305 9.39001V11.02H17.2305C18.5008 11.02 19.1968 10.7605 19.5939 10.3634C19.991 9.96635 20.2505 9.27035 20.2505 8V4.76999C20.2505 3.49964 19.991 2.80364 19.5939 2.40658C19.1968 2.00951 18.5008 1.75 17.2305 1.75H14.0005C12.7301 1.75 12.0341 2.00951 11.637 2.40658ZM10.5764 1.34591C11.3918 0.530486 12.5808 0.25 14.0005 0.25H17.2305C18.6501 0.25 19.8391 0.530486 20.6545 1.34591C21.47 2.16134 21.7505 3.35034 21.7505 4.76999V8C21.7505 9.41965 21.47 10.6086 20.6545 11.4241C19.8391 12.2395 18.6501 12.52 17.2305 12.52H16.3805C15.9663 12.52 15.6305 12.1842 15.6305 11.77V9.39001C15.6305 8.11966 15.371 7.42366 14.9739 7.02658C14.5768 6.62951 13.8808 6.37 12.6105 6.37H10.2305C9.81626 6.37 9.48047 6.03421 9.48047 5.62V4.76999C9.48047 3.35034 9.76096 2.16134 10.5764 1.34591Z" fill="#101010"/>
<path fill-rule="evenodd" clip-rule="evenodd" d="M2.40658 11.6366C2.00951 12.0337 1.75 12.7296 1.75 14V17.23C1.75 18.5004 2.00951 19.1964 2.40658 19.5934C2.80365 19.9905 3.49965 20.25 4.77 20.25H8C9.27035 20.25 9.96635 19.9905 10.3634 19.5934C10.7605 19.1964 11.02 18.5004 11.02 17.23V17.13H9.39C7.97035 17.13 6.78135 16.8495 5.96592 16.0341C5.15049 15.2186 4.87 14.0296 4.87 12.61V10.98H4.77C3.49965 10.98 2.80365 11.2395 2.40658 11.6366ZM1.34592 10.5759C2.16135 9.7605 3.35035 9.48001 4.77 9.48001H5.62C6.03421 9.48001 6.37 9.8158 6.37 10.23V12.61C6.37 13.8803 6.62951 14.5763 7.02658 14.9734C7.42365 15.3705 8.11965 15.63 9.39 15.63H11.77C12.1842 15.63 12.52 15.9658 12.52 16.38V17.23C12.52 18.6497 12.2395 19.8387 11.4241 20.6541C10.6086 21.4695 9.41965 21.75 8 21.75H4.77C3.35035 21.75 2.16135 21.4695 1.34592 20.6541C0.53049 19.8387 0.25 18.6497 0.25 17.23V14C0.25 12.5804 0.53049 11.3914 1.34592 10.5759Z" fill="#101010"/>
</svg>
