<svg width="22" height="22" viewBox="0 0 22 22" fill="none" xmlns="http://www.w3.org/2000/svg">
<path fill-rule="evenodd" clip-rule="evenodd" d="M2.09467 2.09467C3.42914 0.760201 5.42603 0.25 8 0.25H14C16.574 0.25 18.5709 0.760201 19.9053 2.09467C21.2398 3.42914 21.75 5.42603 21.75 8V14C21.75 16.574 21.2398 18.5709 19.9053 19.9053C18.5709 21.2398 16.574 21.75 14 21.75H8C5.42603 21.75 3.42914 21.2398 2.09467 19.9053C0.760201 18.5709 0.25 16.574 0.25 14V8C0.25 5.42603 0.760201 3.42914 2.09467 2.09467ZM3.15533 3.15533C2.2398 4.07086 1.75 5.57397 1.75 8V14C1.75 16.426 2.2398 17.9291 3.15533 18.8447C4.07086 19.7602 5.57397 20.25 8 20.25H14C16.426 20.25 17.9291 19.7602 18.8447 18.8447C19.7602 17.9291 20.25 16.426 20.25 14V8C20.25 5.57397 19.7602 4.07086 18.8447 3.15533C17.9291 2.2398 16.426 1.75 14 1.75H8C5.57397 1.75 4.07086 2.2398 3.15533 3.15533Z" fill="#101010"/>
<path fill-rule="evenodd" clip-rule="evenodd" d="M9.08 8.96997C7.79422 8.96997 6.75 10.0142 6.75 11.3C6.75 12.5858 7.79421 13.63 9.08 13.63H14C14.4142 13.63 14.75 13.9658 14.75 14.38C14.75 14.7942 14.4142 15.13 14 15.13H9.08C6.96579 15.13 5.25 13.4142 5.25 11.3C5.25 9.18576 6.96579 7.46997 9.08 7.46997H15.85C16.2642 7.46997 16.6 7.80576 16.6 8.21997C16.6 8.63418 16.2642 8.96997 15.85 8.96997H9.08Z" fill="#101010"/>
<path fill-rule="evenodd" clip-rule="evenodd" d="M13.8994 6.08967C14.1922 5.79677 14.6671 5.79677 14.96 6.08966L16.53 7.65966C16.8223 7.9519 16.823 8.42548 16.5317 8.71864L14.9617 10.2986C14.6697 10.5925 14.1949 10.594 13.901 10.302C13.6072 10.01 13.6057 9.53516 13.8977 9.24134L14.9407 8.19167L13.8994 7.15033C13.6065 6.85743 13.6065 6.38256 13.8994 6.08967Z" fill="#101010"/>
</svg>
