<svg width="20" height="22" viewBox="0 0 20 22" fill="none" xmlns="http://www.w3.org/2000/svg">
<path fill-rule="evenodd" clip-rule="evenodd" d="M9.53093 0.414839C9.85412 0.155762 10.3261 0.207737 10.5852 0.530928L12.5652 3.0009C12.8243 3.32409 12.7723 3.79611 12.4491 4.05519C12.1259 4.31426 11.6539 4.26229 11.3948 3.9391L9.41484 1.46913C9.15576 1.14594 9.20774 0.673915 9.53093 0.414839Z" fill="#101010"/>
<path fill-rule="evenodd" clip-rule="evenodd" d="M10.0004 3.96997C5.50458 3.96997 1.86035 7.6142 1.86035 12.11C1.86035 16.6058 5.50458 20.25 10.0004 20.25C14.4962 20.25 18.1404 16.6058 18.1404 12.11C18.1404 10.2865 17.5119 8.61204 16.4904 7.24999C16.2419 6.91862 16.309 6.44852 16.6404 6.19999C16.9718 5.95146 17.4419 6.01862 17.6904 6.34999C18.8889 7.94793 19.6404 9.93346 19.6404 12.11C19.6404 17.4342 15.3246 21.75 10.0004 21.75C4.67615 21.75 0.360352 17.4342 0.360352 12.11C0.360352 6.78577 4.67615 2.46997 10.0004 2.46997C10.747 2.46997 11.4649 2.56888 12.1515 2.72981C12.5548 2.82433 12.8051 3.22788 12.7106 3.63117C12.616 4.03445 12.2125 4.28475 11.8092 4.19023C11.2158 4.05116 10.6138 3.96997 10.0004 3.96997Z" fill="#101010"/>
<path fill-rule="evenodd" clip-rule="evenodd" d="M8.13895 9.59385C8.24074 9.28711 8.52759 9.08008 8.85077 9.08008H11.9108C12.325 9.08008 12.6608 9.41586 12.6608 9.83008C12.6608 10.2443 12.325 10.5801 11.9108 10.5801H9.3921L9.12994 11.3701H10.3808C11.6319 11.3701 12.6608 12.3827 12.6608 13.6501C12.6608 14.9011 11.6482 15.9301 10.3808 15.9301H8.09083C7.67661 15.9301 7.34083 15.5943 7.34083 15.1801C7.34083 14.7658 7.67661 14.4301 8.09083 14.4301H10.3808C10.8134 14.4301 11.1608 14.0791 11.1608 13.6501C11.1608 13.2174 10.8097 12.8701 10.3808 12.8701H8.09083C7.84992 12.8701 7.62368 12.7543 7.48269 12.559C7.3417 12.3637 7.30312 12.1125 7.379 11.8838L8.13895 9.59385Z" fill="#101010"/>
</svg>
