<svg width="22" height="22" viewBox="0 0 22 22" fill="none" xmlns="http://www.w3.org/2000/svg">
<path fill-rule="evenodd" clip-rule="evenodd" d="M20.3008 15.6997C20.5937 15.9925 20.5937 16.4674 20.3008 16.7603L16.7608 20.3003C16.4679 20.5932 15.993 20.5932 15.7001 20.3003C15.4072 20.0074 15.4072 19.5325 15.7001 19.2397L19.2401 15.6997C19.533 15.4068 20.0079 15.4068 20.3008 15.6997Z" fill="#101010"/>
<path fill-rule="evenodd" clip-rule="evenodd" d="M15.7001 15.6997C15.993 15.4068 16.4679 15.4068 16.7608 15.6997L20.3008 19.2397C20.5937 19.5325 20.5937 20.0074 20.3008 20.3003C20.0079 20.5932 19.533 20.5932 19.2401 20.3003L15.7001 16.7603C15.4072 16.4674 15.4072 15.9925 15.7001 15.6997Z" fill="#101010"/>
<path fill-rule="evenodd" clip-rule="evenodd" d="M6 8.75C6.41421 8.75 6.75 9.08579 6.75 9.5V12.5C6.75 12.9142 6.41421 13.25 6 13.25C5.58579 13.25 5.25 12.9142 5.25 12.5V9.5C5.25 9.08579 5.58579 8.75 6 8.75Z" fill="#101010"/>
<path fill-rule="evenodd" clip-rule="evenodd" d="M11 8.75C11.4142 8.75 11.75 9.08579 11.75 9.5V12.5C11.75 12.9142 11.4142 13.25 11 13.25C10.5858 13.25 10.25 12.9142 10.25 12.5V9.5C10.25 9.08579 10.5858 8.75 11 8.75Z" fill="#101010"/>
<path fill-rule="evenodd" clip-rule="evenodd" d="M16 8.75C16.4142 8.75 16.75 9.08579 16.75 9.5V12.5C16.75 12.9142 16.4142 13.25 16 13.25C15.5858 13.25 15.25 12.9142 15.25 12.5V9.5C15.25 9.08579 15.5858 8.75 16 8.75Z" fill="#101010"/>
<path fill-rule="evenodd" clip-rule="evenodd" d="M2.09467 2.09467C3.42914 0.760201 5.42603 0.25 8 0.25H14C16.574 0.25 18.5709 0.760201 19.9053 2.09467C21.2398 3.42914 21.75 5.42603 21.75 8V12C21.75 12.4142 21.4142 12.75 21 12.75C20.5858 12.75 20.25 12.4142 20.25 12V8C20.25 5.57397 19.7602 4.07086 18.8447 3.15533C17.9291 2.2398 16.426 1.75 14 1.75H8C5.57397 1.75 4.07086 2.2398 3.15533 3.15533C2.2398 4.07086 1.75 5.57397 1.75 8V14C1.75 16.426 2.2398 17.9291 3.15533 18.8447C4.07086 19.7602 5.57397 20.25 8 20.25H12C12.4142 20.25 12.75 20.5858 12.75 21C12.75 21.4142 12.4142 21.75 12 21.75H8C5.42603 21.75 3.42914 21.2398 2.09467 19.9053C0.760201 18.5709 0.25 16.574 0.25 14V8C0.25 5.42603 0.760201 3.42914 2.09467 2.09467Z" fill="#101010"/>
</svg>
