<svg width="20" height="22" viewBox="0 0 20 22" fill="none" xmlns="http://www.w3.org/2000/svg">
<path fill-rule="evenodd" clip-rule="evenodd" d="M6.54571 7.79275C6.68779 7.40366 7.11838 7.20343 7.50746 7.34551C9.12132 7.93484 10.8791 7.93484 12.4929 7.34551C12.882 7.20343 13.3126 7.40366 13.4547 7.79275C13.5968 8.18183 13.3965 8.61243 13.0075 8.75451C11.0613 9.46518 8.93909 9.46518 6.99294 8.75451C6.60386 8.61243 6.40363 8.18183 6.54571 7.79275Z" fill="#101010"/>
<path fill-rule="evenodd" clip-rule="evenodd" d="M0.570312 4.86C0.570312 2.32705 2.63484 0.25 5.18031 0.25H14.8203C17.3665 0.25 19.4284 2.32697 19.4403 4.85646L19.4403 4.86L19.4403 18.95C19.4403 20.0187 19.0533 20.9642 18.2284 21.45C17.4034 21.9359 16.3895 21.8153 15.4562 21.2957M15.4562 21.2957L10.5696 18.582C10.456 18.5174 10.255 18.4625 10.0091 18.4625C9.76384 18.4625 9.55735 18.5171 9.43561 18.585L4.55443 21.2957L4.55207 21.297C3.61779 21.8114 2.60519 21.9272 1.78221 21.4425C0.958643 20.9575 0.570312 20.0157 0.570312 18.95V4.86M5.18031 1.75C3.46579 1.75 2.07031 3.15295 2.07031 4.86V18.95C2.07031 19.6843 2.32698 20.0225 2.54342 20.15C2.7603 20.2777 3.18232 20.3385 3.82737 19.9837C3.82777 19.9834 3.82816 19.9832 3.82855 19.983L8.70501 17.275C8.70517 17.2749 8.70485 17.2751 8.70501 17.275C9.10317 17.0531 9.57696 16.9625 10.0091 16.9625C10.4393 16.9625 10.9117 17.0521 11.3074 17.276L16.1844 19.9843C16.8309 20.3444 17.2525 20.284 17.4672 20.1575C17.6823 20.0308 17.9403 19.6913 17.9403 18.95V4.862C17.9314 3.15219 16.5336 1.75 14.8203 1.75H5.18031Z" fill="#101010"/>
<path fill-rule="evenodd" clip-rule="evenodd" d="M0.570312 4.86C0.570312 2.32705 2.63484 0.25 5.18031 0.25H14.8203C17.3665 0.25 19.4284 2.32697 19.4403 4.85646L19.4403 4.86L19.4403 18.95C19.4403 20.0187 19.0533 20.9642 18.2284 21.45C17.4034 21.9359 16.3895 21.8153 15.4562 21.2957M15.4562 21.2957L10.5696 18.582C10.456 18.5174 10.255 18.4625 10.0091 18.4625C9.76384 18.4625 9.55735 18.5171 9.43561 18.585L4.55443 21.2957L4.55207 21.297C3.61779 21.8114 2.60519 21.9272 1.78221 21.4425C0.958643 20.9575 0.570312 20.0157 0.570312 18.95V4.86M5.18031 1.75C3.46579 1.75 2.07031 3.15295 2.07031 4.86V18.95C2.07031 19.6843 2.32698 20.0225 2.54342 20.15C2.7603 20.2777 3.18232 20.3385 3.82737 19.9837C3.82777 19.9834 3.82816 19.9832 3.82855 19.983L8.70501 17.275C8.70517 17.2749 8.70485 17.2751 8.70501 17.275C9.10317 17.0531 9.57696 16.9625 10.0091 16.9625C10.4393 16.9625 10.9117 17.0521 11.3074 17.276L16.1844 19.9843C16.8309 20.3444 17.2525 20.284 17.4672 20.1575C17.6823 20.0308 17.9403 19.6913 17.9403 18.95V4.862C17.9314 3.15219 16.5336 1.75 14.8203 1.75H5.18031Z" fill="#101010"/>
</svg>
