<svg width="22" height="22" viewBox="0 0 22 22" fill="none" xmlns="http://www.w3.org/2000/svg">
<path fill-rule="evenodd" clip-rule="evenodd" d="M8 5.75C7.30964 5.75 6.75 6.30964 6.75 7C6.75 7.69036 7.30964 8.25 8 8.25C8.69036 8.25 9.25 7.69036 9.25 7C9.25 6.30964 8.69036 5.75 8 5.75ZM5.25 7C5.25 5.48122 6.48122 4.25 8 4.25C9.51878 4.25 10.75 5.48122 10.75 7C10.75 8.51878 9.51878 9.75 8 9.75C6.48122 9.75 5.25 8.51878 5.25 7Z" fill="#101010"/>
<path fill-rule="evenodd" clip-rule="evenodd" d="M2.09467 2.09467C3.42914 0.760201 5.42603 0.25 8 0.25H12C12.4142 0.25 12.75 0.585786 12.75 1C12.75 1.41421 12.4142 1.75 12 1.75H8C5.57397 1.75 4.07086 2.2398 3.15533 3.15533C2.2398 4.07086 1.75 5.57397 1.75 8V14C1.75 16.426 2.2398 17.9291 3.15533 18.8447C4.07086 19.7602 5.57397 20.25 8 20.25H14C16.426 20.25 17.9291 19.7602 18.8447 18.8447C19.7602 17.9291 20.25 16.426 20.25 14V9C20.25 8.58579 20.5858 8.25 21 8.25C21.4142 8.25 21.75 8.58579 21.75 9V14C21.75 16.574 21.2398 18.5709 19.9053 19.9053C18.5709 21.2398 16.574 21.75 14 21.75H8C5.42603 21.75 3.42914 21.2398 2.09467 19.9053C0.760201 18.5709 0.25 16.574 0.25 14V8C0.25 5.42603 0.760201 3.42914 2.09467 2.09467Z" fill="#101010"/>
<path fill-rule="evenodd" clip-rule="evenodd" d="M20.9514 1.07112C20.3938 0.508022 19.7727 0.194291 19.0951 0.259791C18.4575 0.32142 17.9638 0.705309 17.6094 1.05973L13.9794 4.68973C13.8379 4.83123 13.7245 5.00601 13.6439 5.16715C13.567 5.32103 13.4903 5.52173 13.4656 5.73587L13.2674 7.11325L13.267 7.11608C13.2042 7.56477 13.3249 8.0234 13.6556 8.35414C13.9864 8.68489 14.445 8.80563 14.8937 8.74282L16.2865 8.54242L16.2967 8.54088C16.4845 8.51124 16.6736 8.44205 16.8297 8.36662C16.9831 8.29252 17.169 8.18141 17.3201 8.03039L20.9501 4.40039C21.3068 4.04369 21.686 3.55052 21.7475 2.91621C21.8127 2.24329 21.5051 1.62534 20.9514 1.07112ZM19.2394 1.75283C19.1269 1.7637 18.9456 1.84481 18.6701 2.12039L15.0412 5.74921C15.0412 5.7492 15.0408 5.7496 15.0401 5.75039L15.0412 5.74921C15.041 5.74949 15.0348 5.7564 15.0244 5.77155C15.0119 5.78965 14.9982 5.81261 14.9855 5.83797C14.9728 5.86348 14.9638 5.88593 14.9584 5.90242C14.9567 5.90782 14.9556 5.91165 14.955 5.91394C14.9542 5.9216 14.9532 5.92924 14.9521 5.93687L14.7637 7.24608L16.0629 7.05914C16.066 7.05845 16.0771 7.05586 16.0959 7.04951C16.12 7.04141 16.1482 7.02999 16.1772 7.016C16.2063 7.00193 16.2307 6.98789 16.2484 6.97621C16.2568 6.97065 16.2618 6.96686 16.264 6.96516L19.8894 3.33973C20.1627 3.06643 20.2435 2.8846 20.2545 2.77141C20.2617 2.6974 20.2548 2.49582 19.8894 2.13039L19.8866 2.12756C19.5146 1.75157 19.3112 1.74589 19.2394 1.75283Z" fill="#101010"/>
<path fill-rule="evenodd" clip-rule="evenodd" d="M17.4169 1.38817C17.8156 1.27582 18.2298 1.50793 18.3422 1.90662C18.5814 2.75535 19.245 3.41898 20.0937 3.65817C20.4924 3.77053 20.7245 4.18481 20.6122 4.58349C20.4998 4.98218 20.0856 5.21429 19.6869 5.10194C18.3356 4.72113 17.2792 3.66476 16.8984 2.31349C16.7861 1.91481 17.0182 1.50053 17.4169 1.38817Z" fill="#101010"/>
<path fill-rule="evenodd" clip-rule="evenodd" d="M18.8813 12.0689C18.3824 11.6403 17.5376 11.6403 17.0387 12.0689L12.8787 15.6389C12.8786 15.6389 12.8788 15.6388 12.8787 15.6389C11.8176 16.5501 10.1423 16.5502 9.0813 15.6389L9.07488 15.6334L8.74844 15.3464C8.30001 14.9637 7.53368 14.9167 7.01784 15.2628L2.08806 18.5726C1.74417 18.8035 1.27822 18.7119 1.04733 18.368C0.816435 18.0241 0.908043 17.5582 1.25194 17.3273L6.18194 14.0173C7.24502 13.3041 8.75679 13.376 9.72875 14.2111L9.73512 14.2165L10.0615 14.5034C10.5608 14.9296 11.4033 14.9288 11.9013 14.501L16.0613 10.931C16.0614 10.9309 16.0612 10.9311 16.0613 10.931C17.1224 10.0198 18.7977 10.0197 19.8587 10.931C19.8587 10.931 19.8587 10.931 19.8587 10.931L21.4887 12.331C21.8029 12.6009 21.8388 13.0744 21.5689 13.3886C21.2991 13.7028 20.8256 13.7388 20.5113 13.4689L18.8813 12.0689Z" fill="#101010"/>
</svg>
