<svg width="22" height="22" viewBox="0 0 22 22" fill="none" xmlns="http://www.w3.org/2000/svg">
<path fill-rule="evenodd" clip-rule="evenodd" d="M9.09986 10.9297C9.39275 11.2226 9.39275 11.6974 9.09986 11.9903L6.04986 15.0403C5.75697 15.3332 5.28209 15.3332 4.9892 15.0403C4.69631 14.7474 4.69631 14.2726 4.9892 13.9797L8.0392 10.9297C8.33209 10.6368 8.80697 10.6368 9.09986 10.9297Z" fill="#101010"/>
<path fill-rule="evenodd" clip-rule="evenodd" d="M5.01947 10.9597C5.31237 10.6668 5.78724 10.6668 6.08013 10.9597L9.13014 14.0097C9.42303 14.3026 9.42303 14.7774 9.13014 15.0703C8.83724 15.3632 8.36237 15.3632 8.06947 15.0703L5.01947 12.0203C4.72658 11.7274 4.72658 11.2526 5.01947 10.9597Z" fill="#101010"/>
<path fill-rule="evenodd" clip-rule="evenodd" d="M11.5303 13C11.5303 12.4477 11.978 12 12.5303 12H12.5403C13.0926 12 13.5403 12.4477 13.5403 13C13.5403 13.5523 13.0926 14 12.5403 14H12.5303C11.978 14 11.5303 13.5523 11.5303 13Z" fill="#101010"/>
<path fill-rule="evenodd" clip-rule="evenodd" d="M15.4697 13C15.4697 12.4477 15.9174 12 16.4697 12H16.4797C17.032 12 17.4797 12.4477 17.4797 13C17.4797 13.5523 17.032 14 16.4797 14H16.4697C15.9174 14 15.4697 13.5523 15.4697 13Z" fill="#101010"/>
<path fill-rule="evenodd" clip-rule="evenodd" d="M14.5 13.96C15.0523 13.96 15.5 14.4077 15.5 14.96V14.98C15.5 15.5323 15.0523 15.98 14.5 15.98C13.9477 15.98 13.5 15.5323 13.5 14.98V14.96C13.5 14.4077 13.9477 13.96 14.5 13.96Z" fill="#101010"/>
<path fill-rule="evenodd" clip-rule="evenodd" d="M14.5 10.02C15.0523 10.02 15.5 10.4677 15.5 11.02V11.04C15.5 11.5923 15.0523 12.04 14.5 12.04C13.9477 12.04 13.5 11.5923 13.5 11.04V11.02C13.5 10.4677 13.9477 10.02 14.5 10.02Z" fill="#101010"/>
<path fill-rule="evenodd" clip-rule="evenodd" d="M2.09467 6.09467C3.42914 4.7602 5.42603 4.25 8 4.25H14C16.574 4.25 18.5709 4.7602 19.9053 6.09467C21.2398 7.42914 21.75 9.42603 21.75 12V14C21.75 16.574 21.2398 18.5709 19.9053 19.9053C18.5709 21.2398 16.574 21.75 14 21.75H8C5.42603 21.75 3.42914 21.2398 2.09467 19.9053C0.760201 18.5709 0.25 16.574 0.25 14V12C0.25 9.42603 0.760201 7.42914 2.09467 6.09467ZM3.15533 7.15533C2.2398 8.07086 1.75 9.57397 1.75 12V14C1.75 16.426 2.2398 17.9291 3.15533 18.8447C4.07086 19.7602 5.57397 20.25 8 20.25H14C16.426 20.25 17.9291 19.7602 18.8447 18.8447C19.7602 17.9291 20.25 16.426 20.25 14V12C20.25 9.57397 19.7602 8.07086 18.8447 7.15533C17.9291 6.2398 16.426 5.75 14 5.75H8C5.57397 5.75 4.07086 6.2398 3.15533 7.15533Z" fill="#101010"/>
<path fill-rule="evenodd" clip-rule="evenodd" d="M12.0179 0.250037C12.4321 0.254138 12.7645 0.593232 12.7604 1.00743L12.7504 2.02363C12.7331 2.97459 11.9672 3.75 11.0005 3.75H10.9705C10.8445 3.75 10.7305 3.85436 10.7305 4C10.7305 4.13579 10.8447 4.25 10.9805 4.25H11.9805C12.3947 4.25 12.7305 4.58579 12.7305 5C12.7305 5.41421 12.3947 5.75 11.9805 5.75H10.9805C10.0163 5.75 9.23047 4.96421 9.23047 4C9.23047 3.04564 9.99647 2.25 10.9705 2.25H11.0005C11.1331 2.25 11.2468 2.14642 11.2505 1.99853L11.2605 0.992574C11.2646 0.578381 11.6037 0.245936 12.0179 0.250037Z" fill="#101010"/>
</svg>
