<svg width="20" height="22" viewBox="0 0 20 22" fill="none" xmlns="http://www.w3.org/2000/svg">
<path fill-rule="evenodd" clip-rule="evenodd" d="M2.7371 2.88534C2.09637 3.57535 1.75 4.61497 1.75 6V16C1.75 17.385 2.09637 18.4246 2.7371 19.1147C3.36848 19.7946 4.39295 20.25 6 20.25H14C15.607 20.25 16.6315 19.7946 17.2629 19.1147C17.9036 18.4246 18.25 17.385 18.25 16V6C18.25 4.61497 17.9036 3.57535 17.2629 2.88534C16.6315 2.20538 15.607 1.75 14 1.75H6C4.39295 1.75 3.36848 2.20538 2.7371 2.88534ZM1.6379 1.86466C2.63152 0.794615 4.10705 0.25 6 0.25H14C15.893 0.25 17.3685 0.794615 18.3621 1.86466C19.3464 2.92465 19.75 4.38503 19.75 6V16C19.75 17.615 19.3464 19.0754 18.3621 20.1353C17.3685 21.2054 15.893 21.75 14 21.75H6C4.10705 21.75 2.63152 21.2054 1.6379 20.1353C0.653634 19.0754 0.25 17.615 0.25 16V6C0.25 4.38503 0.653634 2.92465 1.6379 1.86466Z" fill="#101010"/>
<path fill-rule="evenodd" clip-rule="evenodd" d="M5.75 4.75C5.20421 4.75 4.75 5.20421 4.75 5.75V8.25C4.75 8.79579 5.20421 9.25 5.75 9.25H14.25C14.7958 9.25 15.25 8.79579 15.25 8.25V5.75C15.25 5.20421 14.7958 4.75 14.25 4.75H5.75ZM3.25 5.75C3.25 4.37579 4.37579 3.25 5.75 3.25H14.25C15.6242 3.25 16.75 4.37579 16.75 5.75V8.25C16.75 9.62421 15.6242 10.75 14.25 10.75H5.75C4.37579 10.75 3.25 9.62421 3.25 8.25V5.75Z" fill="#101010"/>
<path fill-rule="evenodd" clip-rule="evenodd" d="M8.83032 13.7497C9.12321 14.0426 9.12321 14.5175 8.83032 14.8104L6.53033 17.1103C6.23744 17.4032 5.76256 17.4032 5.46967 17.1103C5.17678 16.8175 5.17678 16.3426 5.46967 16.0497L7.76966 13.7497C8.06255 13.4568 8.53742 13.4568 8.83032 13.7497Z" fill="#101010"/>
<path fill-rule="evenodd" clip-rule="evenodd" d="M5.49994 13.7797C5.79284 13.4868 6.26771 13.4868 6.5606 13.7797L8.86059 16.0797C9.15348 16.3725 9.15348 16.8474 8.86059 17.1403C8.5677 17.4332 8.09282 17.4332 7.79993 17.1403L5.49994 14.8403C5.20705 14.5474 5.20705 14.0726 5.49994 13.7797Z" fill="#101010"/>
<path fill-rule="evenodd" clip-rule="evenodd" d="M13.4902 14.33C13.4902 13.7777 13.9379 13.33 14.4902 13.33H14.5103C15.0625 13.33 15.5103 13.7777 15.5103 14.33C15.5103 14.8823 15.0625 15.33 14.5103 15.33H14.4902C13.9379 15.33 13.4902 14.8823 13.4902 14.33Z" fill="#101010"/>
<path fill-rule="evenodd" clip-rule="evenodd" d="M12.4902 15.48C13.0425 15.48 13.4902 15.9277 13.4902 16.48V16.5C13.4902 17.0523 13.0425 17.5 12.4902 17.5C11.9379 17.5 11.4902 17.0523 11.4902 16.5V16.48C11.4902 15.9277 11.9379 15.48 12.4902 15.48Z" fill="#101010"/>
</svg>
