<svg width="22" height="22" viewBox="0 0 22 22" fill="none" xmlns="http://www.w3.org/2000/svg">
<path fill-rule="evenodd" clip-rule="evenodd" d="M0.25 11C0.25 5.06579 5.06579 0.25 11 0.25C16.9342 0.25 21.75 5.06579 21.75 11C21.75 11.4142 21.4142 11.75 21 11.75C20.5858 11.75 20.25 11.4142 20.25 11C20.25 5.89421 16.1058 1.75 11 1.75C5.89421 1.75 1.75 5.89421 1.75 11C1.75 16.1058 5.89421 20.25 11 20.25C11.4142 20.25 11.75 20.5858 11.75 21C11.75 21.4142 11.4142 21.75 11 21.75C5.06579 21.75 0.25 16.9342 0.25 11Z" fill="#101010"/>
<path fill-rule="evenodd" clip-rule="evenodd" d="M6.2501 2C6.2501 1.58579 6.58588 1.25 7.0001 1.25H8.0001C8.24125 1.25 8.46769 1.36596 8.60864 1.56162C8.74959 1.75729 8.78786 2.0088 8.71149 2.23754C6.81297 7.92336 6.81297 14.0766 8.71149 19.7625C8.78786 19.9912 8.74959 20.2427 8.60864 20.4384C8.46769 20.634 8.24125 20.75 8.0001 20.75H7.0001C6.58588 20.75 6.2501 20.4142 6.2501 20C6.2501 19.593 6.57424 19.2618 6.97843 19.2503C5.39065 13.8661 5.39065 8.13389 6.97843 2.74969C6.57424 2.73823 6.2501 2.40697 6.2501 2Z" fill="#101010"/>
<path fill-rule="evenodd" clip-rule="evenodd" d="M13.7638 1.2882C14.1569 1.15762 14.5814 1.37043 14.712 1.76352C15.7072 4.75958 16.2102 7.8794 16.2102 11C16.2102 11.4142 15.8744 11.75 15.4602 11.75C15.046 11.75 14.7102 11.4142 14.7102 11C14.7102 8.04052 14.2332 5.08034 13.2884 2.2364C13.1579 1.84331 13.3707 1.41879 13.7638 1.2882Z" fill="#101010"/>
<path fill-rule="evenodd" clip-rule="evenodd" d="M1.56115 13.3918C1.75655 13.2508 2.00778 13.2123 2.23644 13.2882C5.08038 14.233 8.04056 14.71 11 14.71C11.4142 14.71 11.75 15.0458 11.75 15.46C11.75 15.8742 11.4142 16.21 11 16.21C8.22034 16.21 5.44127 15.8109 2.74973 15.0203C2.73898 15.4251 2.40743 15.75 2 15.75C1.58579 15.75 1.25 15.4142 1.25 15V14C1.25 13.7591 1.36576 13.5328 1.56115 13.3918Z" fill="#101010"/>
<path fill-rule="evenodd" clip-rule="evenodd" d="M19.7627 8.71137C14.0768 6.81285 7.92357 6.81285 2.23774 8.71137C1.84485 8.84255 1.42 8.6304 1.28881 8.23751C1.15763 7.84462 1.36978 7.41977 1.76267 7.28859C7.75684 5.28711 14.2436 5.28711 20.2377 7.28859C20.6306 7.41977 20.8428 7.84462 20.7116 8.23751C20.5804 8.6304 20.1556 8.84255 19.7627 8.71137Z" fill="#101010"/>
<path fill-rule="evenodd" clip-rule="evenodd" d="M17.2 14.75C15.8469 14.75 14.75 15.8469 14.75 17.2C14.75 18.5531 15.8469 19.65 17.2 19.65C18.5531 19.65 19.65 18.5531 19.65 17.2C19.65 15.8469 18.5531 14.75 17.2 14.75ZM13.25 17.2C13.25 15.0185 15.0185 13.25 17.2 13.25C19.3815 13.25 21.15 15.0185 21.15 17.2C21.15 19.3815 19.3815 21.15 17.2 21.15C15.0185 21.15 13.25 19.3815 13.25 17.2Z" fill="#101010"/>
<path fill-rule="evenodd" clip-rule="evenodd" d="M19.4697 19.4697C19.7626 19.1768 20.2374 19.1768 20.5303 19.4697L21.5303 20.4697C21.8232 20.7626 21.8232 21.2374 21.5303 21.5303C21.2374 21.8232 20.7626 21.8232 20.4697 21.5303L19.4697 20.5303C19.1768 20.2374 19.1768 19.7626 19.4697 19.4697Z" fill="#101010"/>
</svg>
