<svg width="22" height="22" viewBox="0 0 22 22" fill="none" xmlns="http://www.w3.org/2000/svg">
<path fill-rule="evenodd" clip-rule="evenodd" d="M0.25 11C0.25 5.06579 5.06579 0.25 11 0.25C16.9342 0.25 21.75 5.06579 21.75 11C21.75 11.4142 21.4142 11.75 21 11.75C20.5858 11.75 20.25 11.4142 20.25 11C20.25 5.89421 16.1058 1.75 11 1.75C5.89421 1.75 1.75 5.89421 1.75 11C1.75 16.1058 5.89421 20.25 11 20.25C11.4142 20.25 11.75 20.5858 11.75 21C11.75 21.4142 11.4142 21.75 11 21.75C5.06579 21.75 0.25 16.9342 0.25 11Z" fill="#101010"/>
<path fill-rule="evenodd" clip-rule="evenodd" d="M6.2501 2C6.2501 1.58579 6.58588 1.25 7.0001 1.25H8.0001C8.24125 1.25 8.46769 1.36596 8.60864 1.56162C8.74959 1.75729 8.78786 2.0088 8.71149 2.23754C6.81297 7.92336 6.81297 14.0766 8.71149 19.7625C8.78786 19.9912 8.74959 20.2427 8.60864 20.4384C8.46769 20.634 8.24125 20.75 8.0001 20.75H7.0001C6.58588 20.75 6.2501 20.4142 6.2501 20C6.2501 19.593 6.57424 19.2618 6.97843 19.2503C5.39065 13.8661 5.39065 8.13389 6.97843 2.74969C6.57424 2.73823 6.2501 2.40697 6.2501 2Z" fill="#101010"/>
<path fill-rule="evenodd" clip-rule="evenodd" d="M13.7638 1.2882C14.1569 1.15762 14.5814 1.37043 14.712 1.76352C15.7072 4.75958 16.2102 7.8794 16.2102 11C16.2102 11.4142 15.8744 11.75 15.4602 11.75C15.046 11.75 14.7102 11.4142 14.7102 11C14.7102 8.04052 14.2332 5.08034 13.2884 2.2364C13.1579 1.84331 13.3707 1.41879 13.7638 1.2882Z" fill="#101010"/>
<path fill-rule="evenodd" clip-rule="evenodd" d="M1.56115 13.3918C1.75655 13.2508 2.00778 13.2123 2.23644 13.2882C5.08038 14.233 8.04056 14.71 11 14.71C11.4142 14.71 11.75 15.0458 11.75 15.46C11.75 15.8742 11.4142 16.21 11 16.21C8.22034 16.21 5.44127 15.8109 2.74973 15.0203C2.73898 15.4251 2.40743 15.75 2 15.75C1.58579 15.75 1.25 15.4142 1.25 15V14C1.25 13.7591 1.36576 13.5328 1.56115 13.3918Z" fill="#101010"/>
<path fill-rule="evenodd" clip-rule="evenodd" d="M19.7627 8.71137C14.0768 6.81285 7.92357 6.81285 2.23774 8.71137C1.84485 8.84255 1.42 8.6304 1.28881 8.23751C1.15763 7.84462 1.36978 7.41977 1.76267 7.28859C7.75684 5.28711 14.2436 5.28711 20.2377 7.28859C20.6306 7.41977 20.8428 7.84462 20.7116 8.23751C20.5804 8.6304 20.1556 8.84255 19.7627 8.71137Z" fill="#101010"/>
<path fill-rule="evenodd" clip-rule="evenodd" d="M12.7598 17.26C12.7598 14.7871 14.7642 12.77 17.2498 12.77C17.7862 12.77 18.2781 12.8517 18.7135 12.9811C19.1105 13.0991 19.3367 13.5167 19.2187 13.9137C19.1006 14.3108 18.6831 14.537 18.286 14.4189C17.9814 14.3283 17.6333 14.27 17.2498 14.27C15.5953 14.27 14.2598 15.6129 14.2598 17.26C14.2598 18.9145 15.6027 20.25 17.2498 20.25C18.8955 20.25 20.2397 18.9058 20.2397 17.26C20.2397 16.6402 20.0548 16.0667 19.739 15.6009C19.5065 15.258 19.596 14.7917 19.9389 14.5592C20.2817 14.3268 20.7481 14.4163 20.9805 14.7591C21.4647 15.4732 21.7397 16.3398 21.7397 17.26C21.7397 19.7342 19.724 21.75 17.2498 21.75C14.7768 21.75 12.7598 19.7455 12.7598 17.26Z" fill="#101010"/>
<path fill-rule="evenodd" clip-rule="evenodd" d="M17.296 11.8053C17.6078 11.5327 18.0816 11.5645 18.3542 11.8764L19.6042 13.3064C19.8768 13.6183 19.845 14.0921 19.5332 14.3647C19.2213 14.6373 18.7475 14.6055 18.4749 14.2936L17.2249 12.8636C16.9523 12.5517 16.9841 12.0779 17.296 11.8053Z" fill="#101010"/>
<path fill-rule="evenodd" clip-rule="evenodd" d="M19.6466 13.3594C19.8899 13.6945 19.8155 14.1635 19.4803 14.4069L18.0203 15.4669C17.6851 15.7102 17.2161 15.6358 16.9727 15.3006C16.7294 14.9654 16.8038 14.4964 17.139 14.2531L18.599 13.1931C18.9342 12.9497 19.4032 13.0242 19.6466 13.3594Z" fill="#101010"/>
</svg>
