<svg width="22" height="22" viewBox="0 0 22 22" fill="none" xmlns="http://www.w3.org/2000/svg">
<path fill-rule="evenodd" clip-rule="evenodd" d="M17.5387 4.47973C13.9318 0.863528 8.06767 0.863528 4.46071 4.47973L4.45937 4.48108C0.778459 8.15274 0.842393 14.146 4.64527 17.7453C8.15659 21.0621 13.8536 21.061 17.3538 17.7456M18.6001 3.41975C14.4072 -0.783149 7.59224 -0.783145 3.39936 3.41976C-0.879039 7.68816 -0.802722 14.6543 3.61417 18.8348L3.61467 18.8352C7.70335 22.698 14.3058 22.6989 18.3855 18.8345L18.3859 18.8341C22.7922 14.6536 22.8682 7.68793 18.6001 3.41975ZM17.3539 17.7455C21.1472 14.1461 21.2111 8.15209 17.5394 4.48041L17.5387 4.47973" fill="#101010"/>
<path fill-rule="evenodd" clip-rule="evenodd" d="M15.3855 14.5554C15.6697 14.8567 15.6559 15.3314 15.3546 15.6156C12.9463 17.8876 9.05396 17.8893 6.65397 15.6144C6.35335 15.3294 6.34064 14.8547 6.62559 14.5541C6.91055 14.2535 7.38525 14.2408 7.68588 14.5257C9.50588 16.2509 12.4935 16.2526 14.3252 14.5245C14.6265 14.2403 15.1012 14.2541 15.3855 14.5554Z" fill="#101010"/>
</svg>
