<svg width="22" height="22" viewBox="0 0 22 22" fill="none" xmlns="http://www.w3.org/2000/svg">
<path fill-rule="evenodd" clip-rule="evenodd" d="M2.09467 2.09467C3.42914 0.760201 5.42603 0.25 8 0.25H14C16.574 0.25 18.5709 0.760201 19.9053 2.09467C21.2398 3.42914 21.75 5.42603 21.75 8V14C21.75 16.574 21.2398 18.5709 19.9053 19.9053C18.5709 21.2398 16.574 21.75 14 21.75H8C5.42603 21.75 3.42914 21.2398 2.09467 19.9053C0.760201 18.5709 0.25 16.574 0.25 14V8C0.25 5.42603 0.760201 3.42914 2.09467 2.09467ZM3.15533 3.15533C2.2398 4.07086 1.75 5.57397 1.75 8V14C1.75 16.426 2.2398 17.9291 3.15533 18.8447C4.07086 19.7602 5.57397 20.25 8 20.25H14C16.426 20.25 17.9291 19.7602 18.8447 18.8447C19.7602 17.9291 20.25 16.426 20.25 14V8C20.25 5.57397 19.7602 4.07086 18.8447 3.15533C17.9291 2.2398 16.426 1.75 14 1.75H8C5.57397 1.75 4.07086 2.2398 3.15533 3.15533Z" fill="#101010"/>
<path fill-rule="evenodd" clip-rule="evenodd" d="M11 0.25C11.4142 0.25 11.75 0.585786 11.75 1V21C11.75 21.4142 11.4142 21.75 11 21.75C10.5858 21.75 10.25 21.4142 10.25 21V1C10.25 0.585786 10.5858 0.25 11 0.25Z" fill="#101010"/>
<path fill-rule="evenodd" clip-rule="evenodd" d="M0.25 8.5C0.25 8.08579 0.585786 7.75 1 7.75H11C11.4142 7.75 11.75 8.08579 11.75 8.5C11.75 8.91421 11.4142 9.25 11 9.25H1C0.585786 9.25 0.25 8.91421 0.25 8.5Z" fill="#101010"/>
<path fill-rule="evenodd" clip-rule="evenodd" d="M10.25 13.5C10.25 13.0858 10.5858 12.75 11 12.75H21C21.4142 12.75 21.75 13.0858 21.75 13.5C21.75 13.9142 21.4142 14.25 21 14.25H11C10.5858 14.25 10.25 13.9142 10.25 13.5Z" fill="#101010"/>
</svg>
