<svg width="22" height="22" viewBox="0 0 22 22" fill="none" xmlns="http://www.w3.org/2000/svg">
<path fill-rule="evenodd" clip-rule="evenodd" d="M2.09467 2.09467C3.42914 0.760201 5.42603 0.25 8 0.25H14C16.574 0.25 18.5709 0.760201 19.9053 2.09467C21.2398 3.42914 21.75 5.42603 21.75 8V14C21.75 16.574 21.2398 18.5709 19.9053 19.9053C18.5709 21.2398 16.574 21.75 14 21.75H8C5.42603 21.75 3.42914 21.2398 2.09467 19.9053C0.760201 18.5709 0.25 16.574 0.25 14V8C0.25 5.42603 0.760201 3.42914 2.09467 2.09467ZM3.15533 3.15533C2.2398 4.07086 1.75 5.57397 1.75 8V14C1.75 16.426 2.2398 17.9291 3.15533 18.8447C4.07086 19.7602 5.57397 20.25 8 20.25H14C16.426 20.25 17.9291 19.7602 18.8447 18.8447C19.7602 17.9291 20.25 16.426 20.25 14V8C20.25 5.57397 19.7602 4.07086 18.8447 3.15533C17.9291 2.2398 16.426 1.75 14 1.75H8C5.57397 1.75 4.07086 2.2398 3.15533 3.15533Z" fill="#101010"/>
<path fill-rule="evenodd" clip-rule="evenodd" d="M0.25 11C0.25 10.5858 0.585786 10.25 1 10.25H21C21.4142 10.25 21.75 10.5858 21.75 11C21.75 11.4142 21.4142 11.75 21 11.75H1C0.585786 11.75 0.25 11.4142 0.25 11Z" fill="#101010"/>
<path fill-rule="evenodd" clip-rule="evenodd" d="M7.25 10.25C7.66421 10.25 8 10.5858 8 11V20.5C8 20.9142 7.66421 21.25 7.25 21.25C6.83579 21.25 6.5 20.9142 6.5 20.5V11C6.5 10.5858 6.83579 10.25 7.25 10.25Z" fill="#101010"/>
<path fill-rule="evenodd" clip-rule="evenodd" d="M14.75 10.25C15.1642 10.25 15.5 10.5858 15.5 11V21C15.5 21.4142 15.1642 21.75 14.75 21.75C14.3358 21.75 14 21.4142 14 21V11C14 10.5858 14.3358 10.25 14.75 10.25Z" fill="#101010"/>
<path fill-rule="evenodd" clip-rule="evenodd" d="M7.25 0.25C7.66421 0.25 8 0.585786 8 1V11C8 11.4142 7.66421 11.75 7.25 11.75C6.83579 11.75 6.5 11.4142 6.5 11V1C6.5 0.585786 6.83579 0.25 7.25 0.25Z" fill="#101010"/>
<path fill-rule="evenodd" clip-rule="evenodd" d="M14.75 0.79C15.1642 0.79 15.5 1.12579 15.5 1.54V11C15.5 11.4142 15.1642 11.75 14.75 11.75C14.3358 11.75 14 11.4142 14 11V1.54C14 1.12579 14.3358 0.79 14.75 0.79Z" fill="#101010"/>
</svg>
