<svg width="22" height="22" viewBox="0 0 22 22" fill="none" xmlns="http://www.w3.org/2000/svg">
<path fill-rule="evenodd" clip-rule="evenodd" d="M2.09467 2.09467C3.42914 0.760201 5.42603 0.25 8 0.25H14C16.574 0.25 18.5709 0.760201 19.9053 2.09467C21.2398 3.42914 21.75 5.42603 21.75 8V14C21.75 16.574 21.2398 18.5709 19.9053 19.9053C18.5709 21.2398 16.574 21.75 14 21.75H8C5.42603 21.75 3.42914 21.2398 2.09467 19.9053C0.760201 18.5709 0.25 16.574 0.25 14V8C0.25 5.42603 0.760201 3.42914 2.09467 2.09467ZM3.15533 3.15533C2.2398 4.07086 1.75 5.57397 1.75 8V14C1.75 16.426 2.2398 17.9291 3.15533 18.8447C4.07086 19.7602 5.57397 20.25 8 20.25H14C16.426 20.25 17.9291 19.7602 18.8447 18.8447C19.7602 17.9291 20.25 16.426 20.25 14V8C20.25 5.57397 19.7602 4.07086 18.8447 3.15533C17.9291 2.2398 16.426 1.75 14 1.75H8C5.57397 1.75 4.07086 2.2398 3.15533 3.15533Z" fill="#101010"/>
<path fill-rule="evenodd" clip-rule="evenodd" d="M0.280273 7.5C0.280273 7.08579 0.61606 6.75 1.03027 6.75H21.0003C21.4145 6.75 21.7503 7.08579 21.7503 7.5C21.7503 7.91421 21.4145 8.25 21.0003 8.25H1.03027C0.61606 8.25 0.280273 7.91421 0.280273 7.5Z" fill="#101010"/>
<path fill-rule="evenodd" clip-rule="evenodd" d="M0.280273 14.5C0.280273 14.0858 0.61606 13.75 1.03027 13.75H21.0003C21.4145 13.75 21.7503 14.0858 21.7503 14.5C21.7503 14.9142 21.4145 15.25 21.0003 15.25H1.03027C0.61606 15.25 0.280273 14.9142 0.280273 14.5Z" fill="#101010"/>
<path fill-rule="evenodd" clip-rule="evenodd" d="M7.50977 0.26C7.92398 0.26 8.25977 0.595787 8.25977 1.01V20.99C8.25977 21.4042 7.92398 21.74 7.50977 21.74C7.09555 21.74 6.75977 21.4042 6.75977 20.99V1.01C6.75977 0.595787 7.09555 0.26 7.50977 0.26Z" fill="#101010"/>
<path fill-rule="evenodd" clip-rule="evenodd" d="M14.5098 0.26C14.924 0.26 15.2598 0.595787 15.2598 1.01V20.99C15.2598 21.4042 14.924 21.74 14.5098 21.74C14.0956 21.74 13.7598 21.4042 13.7598 20.99V1.01C13.7598 0.595787 14.0956 0.26 14.5098 0.26Z" fill="#101010"/>
</svg>
