<svg width="22" height="22" viewBox="0 0 22 22" fill="none" xmlns="http://www.w3.org/2000/svg">
<path fill-rule="evenodd" clip-rule="evenodd" d="M14.6543 7.19965C14.9472 7.49254 14.9472 7.96742 14.6543 8.26031L8.11431 14.8003C7.82142 15.0932 7.34655 15.0932 7.05365 14.8003C6.76076 14.5074 6.76076 14.0325 7.05365 13.7396L13.5936 7.19965C13.8865 6.90676 14.3614 6.90676 14.6543 7.19965Z" fill="#101010"/>
<path fill-rule="evenodd" clip-rule="evenodd" d="M7.99368 7.66003C7.72859 7.66003 7.51367 7.87495 7.51367 8.14005C7.51367 8.40512 7.72856 8.62003 7.99368 8.62003C8.25878 8.62003 8.47366 8.40514 8.47366 8.14005C8.47366 7.87492 8.25876 7.66003 7.99368 7.66003ZM6.01367 8.14005C6.01367 7.04652 6.90016 6.16003 7.99368 6.16003C9.08723 6.16003 9.97366 7.04655 9.97366 8.14005C9.97366 9.23357 9.08721 10.12 7.99368 10.12C6.90018 10.12 6.01367 9.23359 6.01367 8.14005Z" fill="#101010"/>
<path fill-rule="evenodd" clip-rule="evenodd" d="M14.5337 13.38C14.2686 13.38 14.0537 13.5949 14.0537 13.86C14.0537 14.1251 14.2686 14.34 14.5337 14.34C14.7988 14.34 15.0137 14.1251 15.0137 13.86C15.0137 13.5949 14.7988 13.38 14.5337 13.38ZM12.5537 13.86C12.5537 12.7665 13.4402 11.88 14.5337 11.88C15.6272 11.88 16.5137 12.7664 16.5137 13.86C16.5137 14.9535 15.6272 15.84 14.5337 15.84C13.4401 15.84 12.5537 14.9535 12.5537 13.86Z" fill="#101010"/>
<path fill-rule="evenodd" clip-rule="evenodd" d="M11.0137 1.75C5.90504 1.75 1.76367 5.89137 1.76367 11C1.76367 16.1086 5.90504 20.25 11.0137 20.25C16.1223 20.25 20.2637 16.1086 20.2637 11C20.2637 5.89137 16.1223 1.75 11.0137 1.75ZM0.263672 11C0.263672 5.06294 5.07661 0.25 11.0137 0.25C16.9507 0.25 21.7637 5.06294 21.7637 11C21.7637 16.9371 16.9507 21.75 11.0137 21.75C5.07661 21.75 0.263672 16.9371 0.263672 11Z" fill="#101010"/>
</svg>
