<svg width="22" height="22" viewBox="0 0 22 22" fill="none" xmlns="http://www.w3.org/2000/svg">
<path fill-rule="evenodd" clip-rule="evenodd" d="M6.67718 0.567429C7.12087 0.383038 7.63122 0.25 8.10001 0.25H13.9C14.3688 0.25 14.8791 0.383038 15.3228 0.567429C15.7666 0.751873 16.2201 1.01942 16.5503 1.34967L20.6503 5.44968C20.9806 5.77994 21.2481 6.23337 21.4326 6.67718C21.617 7.12087 21.75 7.63122 21.75 8.10001V13.9C21.75 14.3688 21.617 14.8791 21.4326 15.3228C21.2481 15.7666 20.9806 16.2201 20.6503 16.5503L16.5503 20.6503C16.2201 20.9806 15.7666 21.2481 15.3228 21.4326C14.8791 21.617 14.3688 21.75 13.9 21.75H8.10001C7.63122 21.75 7.12087 21.617 6.67718 21.4326C6.23336 21.2481 5.77992 20.9806 5.44967 20.6503L5.98 20.12L5.44966 20.6503L1.34967 16.5503C1.01942 16.2201 0.751875 15.7666 0.56743 15.3228C0.383038 14.8791 0.25 14.3688 0.25 13.9V8.10001C0.25 7.63122 0.383038 7.12087 0.56743 6.67718C0.751875 6.23337 1.01942 5.77994 1.34967 5.44968L1.88 5.98001L1.34967 5.44968L5.44966 1.34968L5.98 1.88L5.44967 1.34967C5.77992 1.01942 6.23336 0.751873 6.67718 0.567429ZM7.25282 1.95258C6.92664 2.08813 6.66007 2.26059 6.51033 2.41034L2.41034 6.51034L1.88816 5.98817L2.41034 6.51034C2.26059 6.66009 2.08813 6.92665 1.95257 7.25283C1.81696 7.57914 1.75 7.8888 1.75 8.10001V13.9C1.75 14.1112 1.81696 14.4209 1.95257 14.7472C2.08813 15.0733 2.26059 15.3399 2.41034 15.4897L6.51033 19.5897C6.66007 19.7394 6.92664 19.9119 7.25282 20.0474C7.57914 20.183 7.88879 20.25 8.10001 20.25H13.9C14.1112 20.25 14.4209 20.183 14.7472 20.0474C15.0734 19.9119 15.3399 19.7394 15.4897 19.5897L19.5897 15.4897C19.7394 15.3399 19.9119 15.0733 20.0474 14.7472C20.183 14.4209 20.25 14.1112 20.25 13.9V8.10001C20.25 7.8888 20.183 7.57914 20.0474 7.25283C19.9119 6.92665 19.7394 6.66009 19.5897 6.51034L15.4897 2.41034C15.3399 2.26059 15.0734 2.08813 14.7472 1.95258C14.4209 1.81696 14.1112 1.75 13.9 1.75H8.10001C7.88879 1.75 7.57914 1.81696 7.25282 1.95258Z" fill="#101010"/>
<path fill-rule="evenodd" clip-rule="evenodd" d="M18.6103 3.40961C18.9032 3.7025 18.9032 4.17738 18.6103 4.47027L4.47027 18.6103C4.17738 18.9031 3.7025 18.9031 3.40961 18.6103C3.11672 18.3174 3.11672 17.8425 3.40961 17.5496L17.5496 3.40961C17.8425 3.11672 18.3174 3.11672 18.6103 3.40961Z" fill="#101010"/>
</svg>
