<svg width="22" height="22" viewBox="0 0 22 22" fill="none" xmlns="http://www.w3.org/2000/svg">
<path fill-rule="evenodd" clip-rule="evenodd" d="M10.9501 1.8C5.75222 1.8 1.64808 6.00298 1.74991 11.2053L1.75005 11.22V17.38C1.75005 18.9071 3.03562 20.2 4.57005 20.2C6.10584 20.2 7.39005 18.9158 7.39005 17.38V14.57C7.39005 13.9332 6.88543 13.48 6.30005 13.48C5.66325 13.48 5.21005 13.9846 5.21005 14.57V17.49C5.21005 17.9042 4.87426 18.24 4.46005 18.24C4.04584 18.24 3.71005 17.9042 3.71005 17.49V14.57C3.71005 13.2154 4.77685 11.98 6.30005 11.98C7.65467 11.98 8.89005 13.0468 8.89005 14.57V17.38C8.89005 19.7442 6.93426 21.7 4.57005 21.7C2.20448 21.7 0.25005 19.7329 0.25005 17.38V11.2272C0.135955 5.19298 4.91037 0.3 10.9501 0.3C16.9906 0.3 21.75 5.19212 21.75 11.11V17.27C21.75 19.6342 19.7943 21.59 17.43 21.59C15.0658 21.59 13.1101 19.6342 13.1101 17.27V14.46C13.1101 13.1054 14.1769 11.87 15.7001 11.87C17.0547 11.87 18.2901 12.9368 18.2901 14.46V17.49C18.2901 17.9042 17.9543 18.24 17.5401 18.24C17.1258 18.24 16.7901 17.9042 16.7901 17.49V14.46C16.7901 13.8232 16.2854 13.37 15.7001 13.37C15.0633 13.37 14.6101 13.8746 14.6101 14.46V17.27C14.6101 18.8058 15.8943 20.09 17.43 20.09C18.9658 20.09 20.25 18.8058 20.25 17.27V11.11C20.25 6.00788 16.1495 1.8 10.9501 1.8Z" fill="#101010"/>
</svg>
