<svg width="22" height="22" viewBox="0 0 22 22" fill="none" xmlns="http://www.w3.org/2000/svg">
<path fill-rule="evenodd" clip-rule="evenodd" d="M2.0644 2.09467C3.39887 0.760201 5.39575 0.25 7.96973 0.25H13.9697C16.5437 0.25 18.5406 0.760201 19.8751 2.09467C21.2095 3.42914 21.7197 5.42603 21.7197 8V14C21.7197 16.574 21.2095 18.5709 19.8751 19.9053C18.5406 21.2398 16.5437 21.75 13.9697 21.75H7.96973C5.39575 21.75 3.39887 21.2398 2.0644 19.9053C0.729928 18.5709 0.219727 16.574 0.219727 14V8C0.219727 5.42603 0.729928 3.42914 2.0644 2.09467ZM3.12506 3.15533C2.20953 4.07086 1.71973 5.57397 1.71973 8V14C1.71973 16.426 2.20953 17.9291 3.12506 18.8447C4.04059 19.7602 5.5437 20.25 7.96973 20.25H13.9697C16.3958 20.25 17.8989 19.7602 18.8144 18.8447C19.7299 17.9291 20.2197 16.426 20.2197 14V8C20.2197 5.57397 19.7299 4.07086 18.8144 3.15533C17.8989 2.2398 16.3958 1.75 13.9697 1.75H7.96973C5.5437 1.75 4.04059 2.2398 3.12506 3.15533Z" fill="#101010"/>
<path d="M14.4858 12.2888L13.699 10.7985L11.6075 16.105L11.6061 16.1085C11.5192 16.3258 11.3991 16.5436 11.2288 16.7187C11.0552 16.8971 10.7892 17.0675 10.4447 17.0675C10.1002 17.0675 9.83429 16.8971 9.66065 16.7187C9.49033 16.5436 9.37029 16.3258 9.28337 16.1085L9.28237 16.106L8.14337 13.2285L8.14298 13.2276C8.06938 13.0443 7.90144 12.8371 7.65968 12.673C7.41776 12.5087 7.16489 12.4303 6.97078 12.43L6.96973 12.43L0.972227 12.45C0.558015 12.4514 0.221112 12.1167 0.219731 11.7025C0.21835 11.2883 0.553016 10.9514 0.967227 10.95L6.96973 10.93C7.52547 10.93 8.06713 11.1366 8.50227 11.432C8.93759 11.7276 9.32948 12.155 9.53608 12.6715L9.53709 12.674L10.4442 14.9657L12.5018 9.74542C12.6462 9.37801 12.9765 8.86997 13.5925 8.8373C14.2063 8.80475 14.5894 9.27237 14.773 9.61986L15.8137 11.5912C15.8899 11.7363 16.0556 11.9122 16.2908 12.054C16.5262 12.196 16.7584 12.26 16.9197 12.26H20.9797C21.3939 12.26 21.7297 12.5958 21.7297 13.01C21.7297 13.4242 21.3939 13.76 20.9797 13.76H16.9197C16.4211 13.76 15.9233 13.5841 15.5161 13.3385C15.109 13.0929 14.7196 12.7334 14.4858 12.2888Z" fill="#101010"/>
</svg>
