<svg width="22" height="22" viewBox="0 0 22 22" fill="none" xmlns="http://www.w3.org/2000/svg">
<path fill-rule="evenodd" clip-rule="evenodd" d="M6.56 2.84009C3.90771 2.84009 1.75 5.00076 1.75 7.68005C1.75 11.2089 3.51031 13.9741 5.62269 15.9527C5.92501 16.2358 5.94053 16.7105 5.65737 17.0128C5.37421 17.3151 4.89959 17.3306 4.59728 17.0474C2.28966 14.886 0.25 11.7512 0.25 7.68005C0.25 4.17934 3.07229 1.34009 6.56 1.34009C8.29673 1.34009 9.86456 2.04607 11.0003 3.1848C12.1385 2.04572 13.7122 1.34009 15.44 1.34009C16.7448 1.34009 17.962 1.73778 18.974 2.43141C19.3157 2.66558 19.4028 3.1324 19.1686 3.47406C18.9345 3.81573 18.4676 3.90286 18.126 3.66869C17.358 3.14232 16.4353 2.84009 15.44 2.84009C13.8778 2.84009 12.477 3.59919 11.6021 4.77724C11.4606 4.96776 11.2373 5.08008 11 5.08008C10.7627 5.08008 10.5394 4.96776 10.3979 4.77724C9.52255 3.59858 8.13147 2.84009 6.56 2.84009Z" fill="#101010"/>
<path fill-rule="evenodd" clip-rule="evenodd" d="M20.511 5.2858C20.9055 5.15928 21.3278 5.37647 21.4543 5.77089C21.6485 6.3764 21.7501 7.02377 21.7501 7.68996C21.7501 11.4395 20.0108 14.4 17.9345 16.5286C15.8681 18.6471 13.4231 19.9911 11.8669 20.5282C11.5923 20.6246 11.2778 20.66 11.0001 20.66C10.7232 20.66 10.4096 20.6248 10.1356 20.529C9.42594 20.2884 8.55936 19.884 7.6364 19.3344C7.28051 19.1224 7.16381 18.6621 7.37574 18.3062C7.58768 17.9503 8.04799 17.8336 8.40388 18.0456C9.25913 18.5549 10.031 18.91 10.6206 19.1096L10.6298 19.1127L10.6297 19.1127C10.6945 19.1356 10.8287 19.16 11.0001 19.16C11.1715 19.16 11.3057 19.1356 11.3705 19.1127L11.3756 19.1109L11.3756 19.1109C12.7194 18.6475 14.9631 17.4268 16.8607 15.4813C18.7495 13.5449 20.2501 10.9405 20.2501 7.68996C20.2501 7.17615 20.1717 6.68351 20.0259 6.22903C19.8994 5.83461 20.1166 5.41231 20.511 5.2858Z" fill="#101010"/>
<path fill-rule="evenodd" clip-rule="evenodd" d="M21.5303 0.46967C21.8232 0.762563 21.8232 1.23744 21.5303 1.53033L1.53033 21.5303C1.23744 21.8232 0.762563 21.8232 0.46967 21.5303C0.176777 21.2374 0.176777 20.7626 0.46967 20.4697L20.4697 0.46967C20.7626 0.176777 21.2374 0.176777 21.5303 0.46967Z" fill="#101010"/>
</svg>
