<svg width="22" height="21" viewBox="0 0 22 21" fill="none" xmlns="http://www.w3.org/2000/svg">
<path fill-rule="evenodd" clip-rule="evenodd" d="M16.1999 11.1501C13.9641 11.1501 12.1499 12.9643 12.1499 15.2001C12.1499 15.9547 12.3679 16.6703 12.7399 17.279L12.7459 17.289L12.7459 17.289C13.4353 18.4577 14.7237 19.2501 16.1999 19.2501C17.6737 19.2501 18.9549 18.4596 19.656 17.2856L19.6639 17.2726C20.0391 16.6723 20.2499 15.9602 20.2499 15.2001C20.2499 12.9643 18.4357 11.1501 16.1999 11.1501ZM10.6499 15.2001C10.6499 12.1359 13.1357 9.65015 16.1999 9.65015C19.2641 9.65015 21.7499 12.1359 21.7499 15.2001C21.7499 16.2374 21.4622 17.2228 20.94 18.0611C19.9801 19.6635 18.2234 20.7501 16.1999 20.7501C14.1782 20.7501 12.4082 19.6648 11.4569 18.0562C10.9507 17.226 10.6499 16.2434 10.6499 15.2001Z" fill="#101010"/>
<path fill-rule="evenodd" clip-rule="evenodd" d="M18.6215 13.5117C18.9023 13.8162 18.883 14.2907 18.5784 14.5715L16.0184 16.9314C15.7226 17.2042 15.2643 17.1949 14.9797 16.9103L13.7997 15.7303C13.5069 15.4375 13.5069 14.9626 13.7997 14.6697C14.0926 14.3768 14.5675 14.3768 14.8604 14.6697L15.5312 15.3405L17.5617 13.4686C17.8663 13.1878 18.3408 13.2071 18.6215 13.5117Z" fill="#101010"/>
<path fill-rule="evenodd" clip-rule="evenodd" d="M6.56 1.8501C3.90772 1.8501 1.75 4.01082 1.75 6.69012C1.75 9.94064 3.25068 12.545 5.13923 14.48C7.03683 16.4243 9.27995 17.6421 10.6223 18.1003L10.6296 18.1028L10.6296 18.1029C10.6944 18.1257 10.8286 18.1501 11 18.1501C11.1714 18.1501 11.3056 18.1257 11.3704 18.1029L11.3828 18.0985L11.3828 18.0986C11.4073 18.0905 11.4321 18.082 11.4574 18.0732C10.9481 17.2366 10.65 16.2538 10.65 15.2001C10.65 12.1359 13.1358 9.65015 16.2 9.65015C17.4064 9.65015 18.5247 10.039 19.4374 10.6969C19.9448 9.49702 20.25 8.1628 20.25 6.69012C20.25 4.01082 18.0923 1.8501 15.44 1.8501C13.8774 1.8501 12.4756 2.60973 11.6005 3.77943C11.4589 3.9687 11.2364 4.08014 11 4.08014C10.7636 4.08014 10.5411 3.9687 10.3995 3.77943C9.52436 2.60973 8.12263 1.8501 6.56 1.8501ZM0.25 6.69012C0.25 3.18942 3.07228 0.350098 6.56 0.350098C8.28835 0.350098 9.86209 1.05615 11 2.18925C12.1379 1.05615 13.7116 0.350098 15.44 0.350098C18.9277 0.350098 21.75 3.18942 21.75 6.69012C21.75 8.79476 21.204 10.6544 20.3527 12.2612C20.2396 12.4747 20.0306 12.6207 19.7912 12.6532C19.5517 12.6858 19.3113 12.6011 19.1452 12.4256C18.3997 11.6377 17.3536 11.1501 16.2 11.1501C13.9642 11.1501 12.15 12.9643 12.15 15.2001C12.15 16.235 12.5447 17.1795 13.1891 17.9002C13.3478 18.0777 13.4128 18.32 13.3643 18.553C13.3157 18.7861 13.1594 18.9823 12.9431 19.0817C12.5611 19.2572 12.1962 19.4083 11.8628 19.5197C11.5892 19.6151 11.2763 19.6501 11 19.6501C10.7227 19.6501 10.4086 19.6148 10.1343 19.5188C8.57655 18.9862 6.13169 17.6444 4.06577 15.5277C1.98932 13.4002 0.25 10.4396 0.25 6.69012Z" fill="#101010"/>
</svg>
