<svg width="22" height="22" viewBox="0 0 22 22" fill="none" xmlns="http://www.w3.org/2000/svg">
<path fill-rule="evenodd" clip-rule="evenodd" d="M11 1.75C5.89137 1.75 1.75 5.89137 1.75 11C1.75 16.1086 5.89137 20.25 11 20.25C16.1086 20.25 20.25 16.1086 20.25 11C20.25 5.89137 16.1086 1.75 11 1.75ZM0.25 11C0.25 5.06294 5.06294 0.25 11 0.25C16.9371 0.25 21.75 5.06294 21.75 11C21.75 16.9371 16.9371 21.75 11 21.75C5.06294 21.75 0.25 16.9371 0.25 11Z" fill="#101010"/>
<path fill-rule="evenodd" clip-rule="evenodd" d="M8.59961 7.64014C7.35868 7.64014 6.34961 8.64946 6.34961 9.91013C6.34961 11.5506 7.10527 12.875 8.08133 13.875C9.06205 14.8798 10.2189 15.5062 10.8917 15.7369C10.8947 15.7375 10.9014 15.7388 10.9124 15.7403C10.9344 15.7431 10.9629 15.7451 10.9946 15.7451C11.0263 15.7451 11.0549 15.7431 11.0768 15.7403C11.088 15.7388 11.0948 15.7374 11.0977 15.7368C11.7748 15.5064 12.9346 14.88 13.9169 13.8747C14.894 12.8749 15.6496 11.5506 15.6496 9.91013C15.6496 8.64946 14.6405 7.64014 13.3996 7.64014C12.6672 7.64014 12.0071 7.99934 11.6026 8.54615C11.4613 8.7371 11.238 8.84986 11.0005 8.85013C10.7629 8.8504 10.5393 8.73815 10.3977 8.54752C9.98325 7.98995 9.33266 7.64014 8.59961 7.64014ZM4.84961 9.91013C4.84961 7.83079 6.52054 6.14014 8.59961 6.14014C9.51242 6.14014 10.3491 6.46679 11 7.01389C11.6489 6.47061 12.4891 6.14014 13.3996 6.14014C15.4787 6.14014 17.1496 7.83079 17.1496 9.91013C17.1496 12.0497 16.1552 13.7304 14.9898 14.9231C13.8335 16.1063 12.4635 16.8589 11.5695 17.1607L11.5668 17.1616C11.3738 17.226 11.164 17.2451 10.9946 17.2451C10.8253 17.2451 10.6154 17.226 10.4224 17.1616L10.4183 17.1603C9.5298 16.8584 8.16269 16.1059 7.00789 14.9227C5.84395 13.7302 4.84961 12.0496 4.84961 9.91013Z" fill="#101010"/>
</svg>
