<svg width="22" height="21" viewBox="0 0 22 21" fill="none" xmlns="http://www.w3.org/2000/svg">
<path fill-rule="evenodd" clip-rule="evenodd" d="M16.1999 11.1501C13.9641 11.1501 12.1499 12.9643 12.1499 15.2001C12.1499 16.2347 12.5444 17.179 13.1885 17.8996C13.9339 18.7295 15.0044 19.2501 16.1999 19.2501C18.4357 19.2501 20.2499 17.4359 20.2499 15.2001C20.2499 14.1351 19.8328 13.1688 19.1498 12.4406C19.1454 12.4361 19.1353 12.4257 19.1235 12.4124C19.1169 12.4049 19.0996 12.3854 19.0788 12.3571C18.3381 11.6095 17.3197 11.1501 16.1999 11.1501ZM10.6499 15.2001C10.6499 12.1359 13.1357 9.65015 16.1999 9.65015C17.7863 9.65015 19.2202 10.3225 20.2347 11.3946C20.2601 11.4215 20.2832 11.4499 20.3041 11.4796C21.1975 12.4625 21.7499 13.7644 21.7499 15.2001C21.7499 18.2643 19.2641 20.7501 16.1999 20.7501C14.5556 20.7501 13.0863 20.031 12.0718 18.9012L12.0708 18.9001C11.1952 17.9207 10.6499 16.6253 10.6499 15.2001ZM19.6899 12.6601C19.6929 12.6601 19.696 12.6601 19.699 12.66C19.6834 12.6604 19.6775 12.6601 19.6899 12.6601Z" fill="#101010"/>
<path fill-rule="evenodd" clip-rule="evenodd" d="M14.4209 13.4686C14.7144 13.1763 15.1893 13.1772 15.4816 13.4707L18.0115 16.0107C18.3039 16.3042 18.3029 16.779 18.0094 17.0714C17.716 17.3637 17.2411 17.3627 16.9488 17.0693L14.4188 14.5293C14.1265 14.2358 14.1274 13.7609 14.4209 13.4686Z" fill="#101010"/>
<path fill-rule="evenodd" clip-rule="evenodd" d="M17.9792 13.4987C18.2727 13.791 18.2736 14.2659 17.9813 14.5593L15.4513 17.0993C15.159 17.3928 14.6841 17.3937 14.3906 17.1014C14.0972 16.8091 14.0962 16.3342 14.3886 16.0407L16.9186 13.5007C17.2109 13.2073 17.6858 13.2063 17.9792 13.4987Z" fill="#101010"/>
<path fill-rule="evenodd" clip-rule="evenodd" d="M6.56 1.8501C3.90772 1.8501 1.75 4.01082 1.75 6.69012C1.75 9.94064 3.25068 12.545 5.13923 14.48C7.03683 16.4243 9.27995 17.6421 10.6223 18.1003L10.6296 18.1028L10.6296 18.1029C10.6944 18.1257 10.8286 18.1501 11 18.1501C11.1714 18.1501 11.3056 18.1257 11.3704 18.1029L11.3828 18.0985L11.3828 18.0986C11.4073 18.0905 11.4321 18.082 11.4574 18.0732C10.9481 17.2366 10.65 16.2538 10.65 15.2001C10.65 12.1359 13.1358 9.65015 16.2 9.65015C17.4065 9.65015 18.5248 10.039 19.4374 10.6969C19.9448 9.49702 20.25 8.1628 20.25 6.69012C20.25 4.01082 18.0923 1.8501 15.44 1.8501C13.8774 1.8501 12.4756 2.60973 11.6005 3.77943C11.4589 3.9687 11.2364 4.08014 11 4.08014C10.7636 4.08014 10.5411 3.9687 10.3995 3.77943C9.52436 2.60973 8.12263 1.8501 6.56 1.8501ZM0.25 6.69012C0.25 3.18943 3.07228 0.350098 6.56 0.350098C8.28835 0.350098 9.86208 1.05615 11 2.18925C12.1379 1.05615 13.7116 0.350098 15.44 0.350098C18.9277 0.350098 21.75 3.18943 21.75 6.69012C21.75 8.79476 21.204 10.6544 20.3527 12.2612C20.2396 12.4747 20.0306 12.6207 19.7912 12.6532C19.5517 12.6858 19.3113 12.6011 19.1452 12.4256C18.3997 11.6377 17.3536 11.1501 16.2 11.1501C13.9642 11.1501 12.15 12.9643 12.15 15.2001C12.15 16.235 12.5447 17.1796 13.1891 17.9002C13.3478 18.0777 13.4128 18.32 13.3643 18.553C13.3157 18.7861 13.1594 18.9823 12.9431 19.0817C12.5611 19.2572 12.1962 19.4083 11.8628 19.5197C11.5892 19.6151 11.2763 19.6501 11 19.6501C10.7227 19.6501 10.4086 19.6148 10.1343 19.5188C8.57655 18.9862 6.13169 17.6444 4.06577 15.5277C1.98932 13.4002 0.25 10.4396 0.25 6.69012Z" fill="#101010"/>
</svg>
