<svg width="22" height="21" viewBox="0 0 22 21" fill="none" xmlns="http://www.w3.org/2000/svg">
<path fill-rule="evenodd" clip-rule="evenodd" d="M0.25 6.69012C0.25 3.18942 3.07228 0.350098 6.56 0.350098C8.28784 0.350098 9.86155 1.05578 10.9997 2.19486C12.1354 1.05613 13.7033 0.350098 15.44 0.350098C18.9277 0.350098 21.75 3.18942 21.75 6.69012C21.75 7.96165 21.5467 9.13729 21.2056 10.2246C21.0816 10.6198 20.6607 10.8397 20.2655 10.7157C19.8703 10.5917 19.6504 10.1708 19.7744 9.77562C20.0733 8.82295 20.25 7.79859 20.25 6.69012C20.25 4.01082 18.0923 1.8501 15.44 1.8501C13.8685 1.8501 12.4775 2.60863 11.6021 3.78731C11.4606 3.97783 11.2373 4.09015 11 4.09015C10.7627 4.09015 10.5394 3.97783 10.3979 3.78731C9.523 2.60925 8.12219 1.8501 6.56 1.8501C3.90772 1.8501 1.75 4.01082 1.75 6.69012C1.75 9.94062 3.25066 12.5451 5.13939 14.4814C7.03701 16.4269 9.28066 17.6477 10.6245 18.1111L10.6296 18.1129C10.695 18.136 10.8245 18.1601 11 18.1601C11.4142 18.1601 11.75 18.4959 11.75 18.9101C11.75 19.3243 11.4142 19.6601 11 19.6601C10.7165 19.6601 10.4072 19.6246 10.1332 19.5284C8.57697 18.9912 6.13199 17.6473 4.06561 15.5288C1.98934 13.4002 0.25 10.4396 0.25 6.69012Z" fill="#101010"/>
<path fill-rule="evenodd" clip-rule="evenodd" d="M19.1332 12.4266C19.7964 12.3585 20.4067 12.6563 20.9502 13.1998C21.4968 13.7464 21.7983 14.358 21.7325 15.0228C21.6706 15.6479 21.2978 16.1329 20.9502 16.4805L17.4178 20.0129C17.2712 20.1665 17.0909 20.2782 16.9427 20.3523C16.7869 20.4302 16.5975 20.5009 16.4068 20.531L16.3944 20.533L15.0459 20.7226C15.0456 20.7227 15.0462 20.7226 15.0459 20.7226C14.6044 20.7854 14.1484 20.6694 13.8195 20.3405C13.4906 20.0116 13.3744 19.5565 13.4373 19.1149C13.4373 19.1147 13.4372 19.1152 13.4373 19.1149L13.6289 17.7532C13.6595 17.5595 13.7318 17.3712 13.8094 17.2179C13.887 17.0645 13.9972 16.8922 14.1395 16.7499C14.1395 16.7499 14.1395 16.7499 14.1395 16.7499L17.6795 13.2099C18.0272 12.8622 18.5111 12.4905 19.1332 12.4266ZM19.2865 13.9188C19.1786 13.9298 19.0025 14.0082 18.7402 14.2705C18.7402 14.2705 18.7402 14.2705 18.7402 14.2705L15.2015 17.8092C15.201 17.8098 15.1954 17.8162 15.1861 17.8298C15.1742 17.847 15.1608 17.8694 15.1478 17.895C15.1349 17.9207 15.1247 17.9449 15.1178 17.9647C15.1135 17.9771 15.1114 17.9848 15.1107 17.9878L14.9368 19.2232L16.1729 19.0492C16.1761 19.0485 16.1852 19.0462 16.2 19.0411C16.2214 19.0338 16.2465 19.0233 16.272 19.0106C16.2976 18.9978 16.3181 18.9854 16.3317 18.9759C16.3348 18.9737 16.3372 18.972 16.3389 18.9707C16.3424 18.9671 16.3459 18.9634 16.3495 18.9599L19.8895 15.4199C20.1519 15.1575 20.2291 14.9825 20.2397 14.8751C20.2464 14.8074 20.2429 14.6139 19.8895 14.2605C19.543 13.914 19.3533 13.9119 19.2865 13.9188ZM15.2002 17.8105C15.2002 17.8105 15.2001 17.8106 15.2002 17.8105V17.8105Z" fill="#101010"/>
<path fill-rule="evenodd" clip-rule="evenodd" d="M17.4992 13.5276C17.8983 13.4167 18.3117 13.6504 18.4225 14.0495C18.6521 14.876 19.2941 15.5179 20.1206 15.7475C20.5197 15.8584 20.7534 16.2718 20.6425 16.6709C20.5317 17.07 20.1183 17.3037 19.7192 17.1928C18.3857 16.8224 17.3477 15.7844 16.9773 14.4509C16.8664 14.0518 17.1001 13.6384 17.4992 13.5276Z" fill="#101010"/>
</svg>
