<svg width="22" height="22" viewBox="0 0 22 22" fill="none" xmlns="http://www.w3.org/2000/svg">
<path fill-rule="evenodd" clip-rule="evenodd" d="M6.7998 8.45001C7.21402 8.45001 7.5498 8.7858 7.5498 9.20001V13.4C7.5498 13.8142 7.21402 14.15 6.7998 14.15C6.38559 14.15 6.0498 13.8142 6.0498 13.4V9.20001C6.0498 8.7858 6.38559 8.45001 6.7998 8.45001Z" fill="#101010"/>
<path fill-rule="evenodd" clip-rule="evenodd" d="M6.95001 5.75C6.28727 5.75 5.75 6.28727 5.75 6.95001C5.75 7.61274 6.28726 8.14999 6.95001 8.14999C7.61277 8.14999 8.15002 7.61274 8.15002 6.95001C8.15002 6.28727 7.61275 5.75 6.95001 5.75ZM4.25 6.95001C4.25 5.45884 5.45884 4.25 6.95001 4.25C8.44118 4.25 9.65002 5.45884 9.65002 6.95001C9.65002 8.4412 8.44117 9.64999 6.95001 9.64999C5.45886 9.64999 4.25 8.4412 4.25 6.95001Z" fill="#101010"/>
<path fill-rule="evenodd" clip-rule="evenodd" d="M6.79999 14.15C6.22011 14.15 5.75 14.6201 5.75 15.2C5.75 15.7799 6.22009 16.25 6.79999 16.25C7.37989 16.25 7.84998 15.7799 7.84998 15.2C7.84998 14.6201 7.37987 14.15 6.79999 14.15ZM4.25 15.2C4.25 13.7917 5.39165 12.65 6.79999 12.65C8.20833 12.65 9.34998 13.7917 9.34998 15.2C9.34998 16.6083 8.20831 17.75 6.79999 17.75C5.39166 17.75 4.25 16.6083 4.25 15.2Z" fill="#101010"/>
<path fill-rule="evenodd" clip-rule="evenodd" d="M15.2004 14.15C14.6205 14.15 14.1504 14.6201 14.1504 15.2C14.1504 15.7799 14.6205 16.25 15.2004 16.25C15.7803 16.25 16.2504 15.7799 16.2504 15.2C16.2504 14.6201 15.7803 14.15 15.2004 14.15ZM12.6504 15.2C12.6504 13.7917 13.792 12.65 15.2004 12.65C16.6087 12.65 17.7504 13.7917 17.7504 15.2C17.7504 16.6083 16.6087 17.75 15.2004 17.75C13.7921 17.75 12.6504 16.6083 12.6504 15.2Z" fill="#101010"/>
<path fill-rule="evenodd" clip-rule="evenodd" d="M6.69328 8.47364C7.09445 8.37049 7.50328 8.61207 7.60643 9.01323C7.79352 9.74077 8.45981 10.2769 9.23341 10.27L9.23642 10.27L11.2953 10.26C11.2955 10.26 11.2957 10.26 11.2959 10.26M9.2451 11.77C7.7594 11.7824 6.50649 10.7588 6.15369 9.38679C6.05054 8.98563 6.29212 8.5768 6.69328 8.47364" fill="#101010"/>
<path fill-rule="evenodd" clip-rule="evenodd" d="M2.09467 2.09467C3.42914 0.760201 5.42603 0.25 8 0.25H14C16.574 0.25 18.5709 0.760201 19.9053 2.09467C21.2398 3.42914 21.75 5.42603 21.75 8V14C21.75 16.574 21.2398 18.5709 19.9053 19.9053C18.5709 21.2398 16.574 21.75 14 21.75H8C5.42603 21.75 3.42914 21.2398 2.09467 19.9053C0.760201 18.5709 0.25 16.574 0.25 14V8C0.25 5.42603 0.760201 3.42914 2.09467 2.09467ZM3.15533 3.15533C2.2398 4.07086 1.75 5.57397 1.75 8V14C1.75 16.426 2.2398 17.9291 3.15533 18.8447C4.07086 19.7602 5.57397 20.25 8 20.25H14C16.426 20.25 17.9291 19.7602 18.8447 18.8447C19.7602 17.9291 20.25 16.426 20.25 14V8C20.25 5.57397 19.7602 4.07086 18.8447 3.15533C17.9291 2.2398 16.426 1.75 14 1.75H8C5.57397 1.75 4.07086 2.2398 3.15533 3.15533Z" fill="#101010"/>
</svg>
