<svg width="22" height="22" viewBox="0 0 22 22" fill="none" xmlns="http://www.w3.org/2000/svg">
<path fill-rule="evenodd" clip-rule="evenodd" d="M4 6.25C4.41421 6.25 4.75 6.58579 4.75 7V14C4.75 14.4142 4.41421 14.75 4 14.75C3.58579 14.75 3.25 14.4142 3.25 14V7C3.25 6.58579 3.58579 6.25 4 6.25Z" fill="#101010"/>
<path fill-rule="evenodd" clip-rule="evenodd" d="M4.25 15.25C2.86929 15.25 1.75 16.3693 1.75 17.75C1.75 19.1307 2.86929 20.25 4.25 20.25C5.63071 20.25 6.75 19.1307 6.75 17.75C6.75 16.3693 5.63071 15.25 4.25 15.25ZM0.25 17.75C0.25 15.5409 2.04086 13.75 4.25 13.75C6.45914 13.75 8.25 15.5409 8.25 17.75C8.25 19.9591 6.45914 21.75 4.25 21.75C2.04086 21.75 0.25 19.9591 0.25 17.75Z" fill="#101010"/>
<path fill-rule="evenodd" clip-rule="evenodd" d="M4 1.75C2.75736 1.75 1.75 2.75736 1.75 4C1.75 5.24264 2.75736 6.25 4 6.25C5.24264 6.25 6.25 5.24264 6.25 4C6.25 2.75736 5.24264 1.75 4 1.75ZM0.25 4C0.25 1.92893 1.92893 0.25 4 0.25C6.07107 0.25 7.75 1.92893 7.75 4C7.75 6.07107 6.07107 7.75 4 7.75C1.92893 7.75 0.25 6.07107 0.25 4Z" fill="#101010"/>
<path fill-rule="evenodd" clip-rule="evenodd" d="M18 1.75C16.7574 1.75 15.75 2.75736 15.75 4C15.75 5.24264 16.7574 6.25 18 6.25C19.2426 6.25 20.25 5.24264 20.25 4C20.25 2.75736 19.2426 1.75 18 1.75ZM14.25 4C14.25 1.92893 15.9289 0.25 18 0.25C20.0711 0.25 21.75 1.92893 21.75 4C21.75 6.07107 20.0711 7.75 18 7.75C15.9289 7.75 14.25 6.07107 14.25 4Z" fill="#101010"/>
<path fill-rule="evenodd" clip-rule="evenodd" d="M17.4181 6.25219C17.809 6.38918 18.0148 6.81712 17.8779 7.20802C16.9559 9.83893 14.4481 11.7313 11.4972 11.72L11.5001 10.97L11.4979 11.72L11.4972 11.72L8.06787 11.71L8.06609 11.71C6.52947 11.7019 5.22325 12.7603 4.85643 14.1868C4.75328 14.5879 4.34445 14.8295 3.94328 14.7264C3.54212 14.6232 3.30054 14.2144 3.40369 13.8132C3.93681 11.74 5.83011 10.1986 8.07306 10.21C8.07339 10.21 8.07371 10.21 8.07403 10.21" fill="#101010"/>
</svg>
