<svg width="22" height="22" viewBox="0 0 22 22" fill="none" xmlns="http://www.w3.org/2000/svg">
<path fill-rule="evenodd" clip-rule="evenodd" d="M10.7998 6.5C10.7998 6.08579 11.1356 5.75 11.5498 5.75H14.4498C15.414 5.75 16.1998 6.53579 16.1998 7.5V13.4C16.1998 13.8142 15.864 14.15 15.4498 14.15C15.0356 14.15 14.6998 13.8142 14.6998 13.4V7.5C14.6998 7.36421 14.5856 7.25 14.4498 7.25H11.5498C11.1356 7.25 10.7998 6.91421 10.7998 6.5Z" fill="#101010"/>
<path fill-rule="evenodd" clip-rule="evenodd" d="M13.6262 4.51986C13.8913 4.83807 13.8483 5.31099 13.5301 5.57616L12.4215 6.5L13.5301 7.42384C13.8483 7.68901 13.8913 8.16193 13.6262 8.48014C13.361 8.79835 12.8881 8.84134 12.5698 8.57616L10.7699 7.07616C10.5989 6.93367 10.5 6.72258 10.5 6.5C10.5 6.27742 10.5989 6.06633 10.7699 5.92384L12.5698 4.42384C12.8881 4.15866 13.361 4.20165 13.6262 4.51986Z" fill="#101010"/>
<path fill-rule="evenodd" clip-rule="evenodd" d="M6.5498 8.45001C6.96402 8.45001 7.2998 8.7858 7.2998 9.20001V13.4C7.2998 13.8142 6.96402 14.15 6.5498 14.15C6.13559 14.15 5.7998 13.8142 5.7998 13.4V9.20001C5.7998 8.7858 6.13559 8.45001 6.5498 8.45001Z" fill="#101010"/>
<path fill-rule="evenodd" clip-rule="evenodd" d="M6.70001 5.75C6.03727 5.75 5.5 6.28727 5.5 6.95001C5.5 7.61274 6.03726 8.14999 6.70001 8.14999C7.36277 8.14999 7.90002 7.61274 7.90002 6.95001C7.90002 6.28727 7.36275 5.75 6.70001 5.75ZM4 6.95001C4 5.45884 5.20884 4.25 6.70001 4.25C8.19118 4.25 9.40002 5.45884 9.40002 6.95001C9.40002 8.4412 8.19117 9.64999 6.70001 9.64999C5.20886 9.64999 4 8.4412 4 6.95001Z" fill="#101010"/>
<path fill-rule="evenodd" clip-rule="evenodd" d="M6.54999 14.15C5.97011 14.15 5.5 14.6201 5.5 15.2C5.5 15.7799 5.97009 16.25 6.54999 16.25C7.12989 16.25 7.59998 15.7799 7.59998 15.2C7.59998 14.6201 7.12987 14.15 6.54999 14.15ZM4 15.2C4 13.7917 5.14165 12.65 6.54999 12.65C7.95833 12.65 9.09998 13.7917 9.09998 15.2C9.09998 16.6083 7.95831 17.75 6.54999 17.75C5.14166 17.75 4 16.6083 4 15.2Z" fill="#101010"/>
<path fill-rule="evenodd" clip-rule="evenodd" d="M15.4504 14.15C14.8705 14.15 14.4004 14.6201 14.4004 15.2C14.4004 15.7799 14.8705 16.25 15.4504 16.25C16.0303 16.25 16.5004 15.7799 16.5004 15.2C16.5004 14.6201 16.0303 14.15 15.4504 14.15ZM12.9004 15.2C12.9004 13.7917 14.042 12.65 15.4504 12.65C16.8587 12.65 18.0004 13.7917 18.0004 15.2C18.0004 16.6083 16.8587 17.75 15.4504 17.75C14.0421 17.75 12.9004 16.6083 12.9004 15.2Z" fill="#101010"/>
<path fill-rule="evenodd" clip-rule="evenodd" d="M2.09467 2.09467C3.42914 0.760201 5.42603 0.25 8 0.25H14C16.574 0.25 18.5709 0.760201 19.9053 2.09467C21.2398 3.42914 21.75 5.42603 21.75 8V14C21.75 16.574 21.2398 18.5709 19.9053 19.9053C18.5709 21.2398 16.574 21.75 14 21.75H8C5.42603 21.75 3.42914 21.2398 2.09467 19.9053C0.760201 18.5709 0.25 16.574 0.25 14V8C0.25 5.42603 0.760201 3.42914 2.09467 2.09467ZM3.15533 3.15533C2.2398 4.07086 1.75 5.57397 1.75 8V14C1.75 16.426 2.2398 17.9291 3.15533 18.8447C4.07086 19.7602 5.57397 20.25 8 20.25H14C16.426 20.25 17.9291 19.7602 18.8447 18.8447C19.7602 17.9291 20.25 16.426 20.25 14V8C20.25 5.57397 19.7602 4.07086 18.8447 3.15533C17.9291 2.2398 16.426 1.75 14 1.75H8C5.57397 1.75 4.07086 2.2398 3.15533 3.15533Z" fill="#101010"/>
</svg>
