<svg width="22" height="22" viewBox="0 0 22 22" fill="none" xmlns="http://www.w3.org/2000/svg">
<path fill-rule="evenodd" clip-rule="evenodd" d="M6.80078 7.85001C7.21499 7.85001 7.55078 8.18579 7.55078 8.60001V12.8C7.55078 13.2142 7.21499 13.55 6.80078 13.55C6.38657 13.55 6.05078 13.2142 6.05078 12.8V8.60001C6.05078 8.18579 6.38657 7.85001 6.80078 7.85001Z" fill="#101010"/>
<path fill-rule="evenodd" clip-rule="evenodd" d="M6.95001 13.85C6.28726 13.85 5.75 14.3873 5.75 15.05C5.75 15.7127 6.28727 16.25 6.95001 16.25C7.61275 16.25 8.15002 15.7127 8.15002 15.05C8.15002 14.3873 7.61277 13.85 6.95001 13.85ZM4.25 15.05C4.25 13.5588 5.45886 12.35 6.95001 12.35C8.44117 12.35 9.65002 13.5588 9.65002 15.05C9.65002 16.5412 8.44118 17.75 6.95001 17.75C5.45884 17.75 4.25 16.5412 4.25 15.05Z" fill="#101010"/>
<path fill-rule="evenodd" clip-rule="evenodd" d="M6.79999 5.75C6.22009 5.75 5.75 6.22009 5.75 6.79999C5.75 7.3799 6.22011 7.85001 6.79999 7.85001C7.37987 7.85001 7.84998 7.3799 7.84998 6.79999C7.84998 6.22009 7.37989 5.75 6.79999 5.75ZM4.25 6.79999C4.25 5.39166 5.39166 4.25 6.79999 4.25C8.20831 4.25 9.34998 5.39166 9.34998 6.79999C9.34998 8.2083 8.20833 9.35001 6.79999 9.35001C5.39165 9.35001 4.25 8.2083 4.25 6.79999Z" fill="#101010"/>
<path fill-rule="evenodd" clip-rule="evenodd" d="M15.2004 5.75C14.6205 5.75 14.1504 6.22009 14.1504 6.79999C14.1504 7.3799 14.6205 7.85001 15.2004 7.85001C15.7803 7.85001 16.2504 7.3799 16.2504 6.79999C16.2504 6.22009 15.7803 5.75 15.2004 5.75ZM12.6504 6.79999C12.6504 5.39166 13.7921 4.25 15.2004 4.25C16.6087 4.25 17.7504 5.39166 17.7504 6.79999C17.7504 8.2083 16.6087 9.35001 15.2004 9.35001C13.792 9.35001 12.6504 8.2083 12.6504 6.79999Z" fill="#101010"/>
<path fill-rule="evenodd" clip-rule="evenodd" d="M14.9465 7.87155C15.3377 8.00752 15.5447 8.43492 15.4087 8.82618C14.8174 10.5275 13.1991 11.7518 11.2961 11.74L11.2966 11.74L11.3002 10.99L11.2955 11.74M9.24529 10.23L9.24387 10.23L9.24023 10.98L9.24687 10.23C9.24634 10.23 9.24582 10.23 9.24529 10.23Z" fill="#101010"/>
<path fill-rule="evenodd" clip-rule="evenodd" d="M3.15533 3.15533C2.2398 4.07086 1.75 5.57397 1.75 8V14C1.75 16.426 2.2398 17.9291 3.15533 18.8447C4.07086 19.7602 5.57397 20.25 8 20.25H14C16.426 20.25 17.9291 19.7602 18.8447 18.8447C19.7602 17.9291 20.25 16.426 20.25 14V8C20.25 5.57397 19.7602 4.07086 18.8447 3.15533C17.9291 2.2398 16.426 1.75 14 1.75H8C5.57397 1.75 4.07086 2.2398 3.15533 3.15533ZM2.09467 2.09467C3.42914 0.760201 5.42603 0.25 8 0.25H14C16.574 0.25 18.5709 0.760201 19.9053 2.09467C21.2398 3.42914 21.75 5.42603 21.75 8V14C21.75 16.574 21.2398 18.5709 19.9053 19.9053C18.5709 21.2398 16.574 21.75 14 21.75H8C5.42603 21.75 3.42914 21.2398 2.09467 19.9053C0.760201 18.5709 0.25 16.574 0.25 14V8C0.25 5.42603 0.760201 3.42914 2.09467 2.09467Z" fill="#101010"/>
</svg>
