<svg width="22" height="22" viewBox="0 0 22 22" fill="none" xmlns="http://www.w3.org/2000/svg">
<path fill-rule="evenodd" clip-rule="evenodd" d="M4 1.75C2.75736 1.75 1.75 2.75736 1.75 4C1.75 5.24264 2.75736 6.25 4 6.25C5.24264 6.25 6.25 5.24264 6.25 4C6.25 2.75736 5.24264 1.75 4 1.75ZM0.25 4C0.25 1.92893 1.92893 0.25 4 0.25C6.07107 0.25 7.75 1.92893 7.75 4C7.75 6.07107 6.07107 7.75 4 7.75C1.92893 7.75 0.25 6.07107 0.25 4Z" fill="#101010"/>
<path fill-rule="evenodd" clip-rule="evenodd" d="M18 8.75C16.7574 8.75 15.75 9.75736 15.75 11C15.75 12.2426 16.7574 13.25 18 13.25C19.2426 13.25 20.25 12.2426 20.25 11C20.25 9.75736 19.2426 8.75 18 8.75ZM14.25 11C14.25 8.92893 15.9289 7.25 18 7.25C20.0711 7.25 21.75 8.92893 21.75 11C21.75 13.0711 20.0711 14.75 18 14.75C15.9289 14.75 14.25 13.0711 14.25 11Z" fill="#101010"/>
<path fill-rule="evenodd" clip-rule="evenodd" d="M4 15.75C2.75736 15.75 1.75 16.7574 1.75 18C1.75 19.2426 2.75736 20.25 4 20.25C5.24264 20.25 6.25 19.2426 6.25 18C6.25 16.7574 5.24264 15.75 4 15.75ZM0.25 18C0.25 15.9289 1.92893 14.25 4 14.25C6.07107 14.25 7.75 15.9289 7.75 18C7.75 20.0711 6.07107 21.75 4 21.75C1.92893 21.75 0.25 20.0711 0.25 18Z" fill="#101010"/>
<path fill-rule="evenodd" clip-rule="evenodd" d="M4 6.25C4.41421 6.25 4.75 6.58579 4.75 7C4.75 8.34516 5.14758 9.11115 5.6647 9.55694C6.20257 10.0206 6.99853 10.25 8 10.25H15C15.4142 10.25 15.75 10.5858 15.75 11C15.75 11.4142 15.4142 11.75 15 11.75H8C6.82961 11.75 5.65395 11.4919 4.75 10.7476V15C4.75 15.4142 4.41421 15.75 4 15.75C3.58579 15.75 3.25 15.4142 3.25 15V7C3.25 6.58579 3.58579 6.25 4 6.25Z" fill="#101010"/>
</svg>
