<svg width="22" height="22" viewBox="0 0 22 22" fill="none" xmlns="http://www.w3.org/2000/svg">
<path fill-rule="evenodd" clip-rule="evenodd" d="M11 13.25C11.4142 13.25 11.75 13.5858 11.75 14V17C11.75 17.4142 11.4142 17.75 11 17.75C10.5858 17.75 10.25 17.4142 10.25 17V14C10.25 13.5858 10.5858 13.25 11 13.25Z" fill="#101010"/>
<path fill-rule="evenodd" clip-rule="evenodd" d="M13.3988 1.24467C13.3991 1.2449 13.3994 1.24513 13.3997 1.24536L20.3302 6.78578C20.8438 7.19936 21.2287 7.80505 21.4643 8.42261C21.7 9.04035 21.8164 9.74892 21.71 10.4008L21.7096 10.4035L20.3796 18.3635L20.3792 18.3658C20.078 20.135 18.3967 21.5599 16.5998 21.5599H5.39981C3.59361 21.5599 1.92125 20.1456 1.6203 18.3649L0.290848 10.4081C0.290704 10.4073 0.29056 10.4065 0.290417 10.4056C0.177594 9.75178 0.291723 9.04146 0.527828 8.42261C0.764085 7.80335 1.15239 7.19722 1.6719 6.78381C1.67231 6.78348 1.67272 6.78316 1.67313 6.78283L8.60062 1.23483C9.93599 0.164325 12.0559 0.166089 13.3988 1.24467ZM12.46 2.41453C11.6629 1.7739 10.3234 1.77609 9.53901 2.40506L2.6065 7.95707C2.34662 8.16364 2.09535 8.52203 1.9293 8.95729C1.7632 9.39264 1.71232 9.82631 1.76878 10.1518L1.76957 10.1563L3.09932 18.115C3.09936 18.1151 3.09929 18.1148 3.09932 18.115C3.27864 19.1741 4.3262 20.0599 5.39981 20.0599H16.5998C17.6625 20.0599 18.7208 19.1655 18.9003 18.1152C18.9003 18.1148 18.9004 18.1145 18.9004 18.1141L20.2296 10.1591C20.2297 10.1586 20.2298 10.1582 20.2298 10.1577C20.283 9.82977 20.2294 9.39394 20.0628 8.95729C19.8961 8.52035 19.6464 8.16137 19.3903 7.95483C19.39 7.95459 19.3897 7.95435 19.3894 7.95412L12.4615 2.41576L12.46 2.41453Z" fill="#101010"/>
</svg>
