<svg width="22" height="22" viewBox="0 0 22 22" fill="none" xmlns="http://www.w3.org/2000/svg">
<path fill-rule="evenodd" clip-rule="evenodd" d="M10.4837 0.268869C11.5191 0.24459 12.5961 0.507656 13.4501 1.10549L19.6288 5.43461C19.6291 5.43477 19.6286 5.43446 19.6288 5.43461C20.2484 5.86666 20.7707 6.53277 21.1361 7.23285C21.5017 7.93324 21.75 8.74271 21.75 9.49991V16.7799C21.75 19.503 19.5254 21.7399 16.79 21.7399H5.21C2.47347 21.7399 0.25 19.5018 0.25 16.7699V9.35991C0.25 8.64944 0.474406 7.88042 0.804179 7.2083C1.134 6.53609 1.60552 5.88676 2.16901 5.44831L7.55901 1.24831C8.38375 0.606854 9.44825 0.293148 10.4837 0.268869ZM8.48046 2.43193C8.48037 2.43199 8.48054 2.43186 8.48046 2.43193L3.09099 6.63151C2.75471 6.89306 2.4109 7.33895 2.15082 7.86902C1.89059 8.3994 1.75 8.94038 1.75 9.35991V16.7699C1.75 18.678 3.30653 20.2399 5.21 20.2399H16.79C18.6946 20.2399 20.25 18.6769 20.25 16.7799V9.49991C20.25 9.04712 20.0933 8.47659 19.8064 7.92697C19.5195 7.37731 19.1413 6.92318 18.7712 6.66521L18.7696 6.66415L12.5899 2.33434C12.5898 2.33427 12.59 2.3344 12.5899 2.33434C12.044 1.95229 11.2958 1.75024 10.5188 1.76846C9.74188 1.78667 9.00571 2.02351 8.48046 2.43193Z" fill="#101010"/>
<path fill-rule="evenodd" clip-rule="evenodd" d="M16.0303 9.96967C16.3232 10.2626 16.3232 10.7374 16.0303 11.0303L11.8303 15.2303C11.6714 15.3892 11.4497 15.4685 11.2261 15.4463C11.0025 15.4242 10.8006 15.303 10.676 15.116L9.58343 13.4772L7.03033 16.0303C6.73744 16.3232 6.26256 16.3232 5.96967 16.0303C5.67678 15.7374 5.67678 15.2626 5.96967 14.9697L9.16967 11.7697C9.32855 11.6108 9.5503 11.5315 9.7739 11.5537C9.9975 11.5758 10.1994 11.697 10.324 11.884L11.4166 13.5228L14.9697 9.96967C15.2626 9.67678 15.7374 9.67678 16.0303 9.96967Z" fill="#101010"/>
<path fill-rule="evenodd" clip-rule="evenodd" d="M12.75 10.5C12.75 10.0858 13.0858 9.75 13.5 9.75H15.5C15.9142 9.75 16.25 10.0858 16.25 10.5V12.5C16.25 12.9142 15.9142 13.25 15.5 13.25C15.0858 13.25 14.75 12.9142 14.75 12.5V11.25H13.5C13.0858 11.25 12.75 10.9142 12.75 10.5Z" fill="#101010"/>
</svg>
