<svg width="22" height="22" viewBox="0 0 22 22" fill="none" xmlns="http://www.w3.org/2000/svg">
<path fill-rule="evenodd" clip-rule="evenodd" d="M13.4001 1.24543C13.4004 1.24563 13.3999 1.24522 13.4001 1.24543L20.3307 6.78588C20.8443 7.19946 21.2292 7.80516 21.4648 8.42272C21.7005 9.04047 21.8169 9.74905 21.7105 10.4009L21.71 10.4037L20.3801 18.3636L20.3797 18.3659C20.0785 20.1351 18.3972 21.5601 16.6003 21.5601H5.40029C3.59407 21.5601 1.92173 20.1457 1.62077 18.365L0.291336 10.4083C0.291192 10.4074 0.291048 10.4066 0.290905 10.4058C0.17808 9.75192 0.292215 9.04159 0.528324 8.42272C0.764587 7.80345 1.15291 7.1973 1.67243 6.78389C1.67283 6.78357 1.67323 6.78325 1.67363 6.78293L8.60111 1.23489C9.93652 0.16435 12.0573 0.166776 13.4001 1.24543ZM12.4604 2.41459C11.6634 1.77396 10.3239 1.77615 9.5395 2.40511L2.607 7.95717C2.34713 8.16374 2.09585 8.52214 1.92979 8.95741C1.76369 9.39278 1.71281 9.82645 1.76926 10.1519L1.77006 10.1565L3.0998 18.1151C3.09983 18.1152 3.09977 18.1149 3.0998 18.1151C3.27912 19.1742 4.32671 20.0601 5.40029 20.0601H16.6003C17.663 20.0601 18.7213 19.1656 18.9008 18.1153C18.9008 18.1149 18.9009 18.1146 18.9009 18.1142L20.2301 10.1592C20.2302 10.1588 20.2302 10.1583 20.2303 10.1579C20.2835 9.82994 20.2299 9.39408 20.0633 8.95741C19.8966 8.52043 19.6468 8.16142 19.3908 7.95489C19.3905 7.95467 19.3902 7.95444 19.3899 7.95422L12.462 2.41583L12.4604 2.41459Z" fill="#101010"/>
<path fill-rule="evenodd" clip-rule="evenodd" d="M10.9999 13.2225C10.4703 13.2225 9.9082 13.4362 9.39723 13.923C9.09734 14.2088 8.62261 14.1973 8.33688 13.8974C8.05116 13.5975 8.06264 13.1228 8.36254 12.837C9.12157 12.1139 10.0444 11.7225 10.9999 11.7225C11.9553 11.7225 12.8782 12.1139 13.6372 12.837C13.9371 13.1228 13.9486 13.5975 13.6629 13.8974C13.3772 14.1973 12.9024 14.2088 12.6025 13.923C12.0916 13.4362 11.5294 13.2225 10.9999 13.2225Z" fill="#101010"/>
<path fill-rule="evenodd" clip-rule="evenodd" d="M8.18822 9.34262C9.9912 8.4862 12.0083 8.48533 13.8035 9.3434L13.8067 9.34495L13.8067 9.34495C14.4971 9.67904 15.1649 10.1354 15.7653 10.7248C16.061 11.0149 16.0654 11.4898 15.7753 11.7854C15.4851 12.081 15.0103 12.0855 14.7146 11.7953C14.2356 11.3251 13.7039 10.9618 13.155 10.696C11.7714 10.0352 10.2301 10.0342 8.83425 10.6964C8.28947 10.9603 7.76512 11.3234 7.27042 11.8001C6.97215 12.0875 6.49736 12.0787 6.20994 11.7805C5.92252 11.4822 5.93131 11.0074 6.22958 10.72C6.83414 10.1374 7.48899 9.68093 8.18334 9.34495L8.18821 9.3426L8.18822 9.34262Z" fill="#101010"/>
<path fill-rule="evenodd" clip-rule="evenodd" d="M9.99609 16C9.99609 15.4477 10.4438 15 10.9961 15H11.0051C11.5574 15 12.0051 15.4477 12.0051 16C12.0051 16.5523 11.5574 17 11.0051 17H10.9961C10.4438 17 9.99609 16.5523 9.99609 16Z" fill="#101010"/>
</svg>
