<svg width="22" height="22" viewBox="0 0 22 22" fill="none" xmlns="http://www.w3.org/2000/svg">
<path fill-rule="evenodd" clip-rule="evenodd" d="M0.25 21C0.25 20.5858 0.585786 20.25 1 20.25H21C21.4142 20.25 21.75 20.5858 21.75 21C21.75 21.4142 21.4142 21.75 21 21.75H1C0.585786 21.75 0.25 21.4142 0.25 21Z" fill="#101010"/>
<path fill-rule="evenodd" clip-rule="evenodd" d="M2.30736 1.68106C3.11215 0.749119 4.34646 0.25 6 0.25H16C17.6535 0.25 18.8879 0.749119 19.6926 1.68106C20.4797 2.59244 20.75 3.79713 20.75 5V21C20.75 21.4142 20.4142 21.75 20 21.75H2C1.58579 21.75 1.25 21.4142 1.25 21V5C1.25 3.79713 1.52033 2.59244 2.30736 1.68106ZM3.44264 2.66144C2.97967 3.19756 2.75 3.99287 2.75 5V20.25H19.25V5C19.25 3.99287 19.0203 3.19756 18.5574 2.66144C18.1121 2.14588 17.3465 1.75 16 1.75H6C4.65354 1.75 3.88785 2.14588 3.44264 2.66144Z" fill="#101010"/>
<path fill-rule="evenodd" clip-rule="evenodd" d="M7.24023 14.94C7.24023 14.0006 8.01118 13.25 8.93022 13.25H13.0602C13.9889 13.25 14.7539 14.0018 14.7402 14.9462V21C14.7402 21.4142 14.4044 21.75 13.9902 21.75H7.99023C7.57602 21.75 7.24023 21.4142 7.24023 21V14.94ZM8.93022 14.75C8.82926 14.75 8.74023 14.8394 8.74023 14.94V20.25H13.2402V14.94L13.2404 14.9256C13.2421 14.8338 13.1689 14.75 13.0602 14.75H8.93022Z" fill="#101010"/>
<path fill-rule="evenodd" clip-rule="evenodd" d="M11 4.25C11.4142 4.25 11.75 4.58579 11.75 5V10C11.75 10.4142 11.4142 10.75 11 10.75C10.5858 10.75 10.25 10.4142 10.25 10V5C10.25 4.58579 10.5858 4.25 11 4.25Z" fill="#101010"/>
<path fill-rule="evenodd" clip-rule="evenodd" d="M7.75 7.5C7.75 7.08579 8.08579 6.75 8.5 6.75H13.5C13.9142 6.75 14.25 7.08579 14.25 7.5C14.25 7.91421 13.9142 8.25 13.5 8.25H8.5C8.08579 8.25 7.75 7.91421 7.75 7.5Z" fill="#101010"/>
</svg>
