<svg width="22" height="22" viewBox="0 0 22 22" fill="none" xmlns="http://www.w3.org/2000/svg">
<path fill-rule="evenodd" clip-rule="evenodd" d="M18.2395 8.35479C17.6634 7.00723 16.7287 6.03756 15.522 5.97597L18.2395 8.35479ZM18.2395 8.35479L21.3695 15.6648C22.6007 18.5497 20.4878 21.75 17.35 21.75H4.59001C1.3532 21.75 -0.760964 18.3335 0.69951 15.4339C0.699776 15.4334 0.700041 15.4329 0.700307 15.4324L2.41991 11.9831C2.966 10.8968 3.84313 10.1711 4.89484 10.058C5.94818 9.9448 6.95765 10.4696 7.71672 11.4228L7.71976 11.4266L7.93764 11.704C8.44056 12.3314 8.97189 12.5221 9.38794 12.4876C9.80412 12.453 10.295 12.1772 10.684 11.4764C10.6841 11.4763 10.684 11.4765 10.684 11.4764L12.574 8.06642C13.2858 6.78412 14.3154 5.91439 15.522 5.97597M13.886 8.79358C14.4841 7.71622 15.0846 7.4556 15.4455 7.47402C15.8062 7.49243 16.3764 7.81255 16.8604 8.94477L19.9902 16.2544C19.9901 16.2542 19.9903 16.2546 19.9902 16.2544C20.7984 18.1493 19.412 20.25 17.35 20.25H4.59001C2.46741 20.25 1.08175 18.0077 2.03971 16.1076L2.04122 16.1046L3.7601 12.6569C3.76028 12.6565 3.76046 12.6561 3.76064 12.6558C4.14447 11.8929 4.64208 11.5939 5.05518 11.5495C5.46646 11.5052 6.01135 11.6901 6.54182 12.3553L6.76027 12.6334L6.76436 12.6385C7.50085 13.5591 8.48367 14.0678 9.51208 13.9824C10.5408 13.897 11.4248 13.2329 11.9958 12.2039L13.886 8.79358C13.8861 8.79344 13.8859 8.79372 13.886 8.79358Z" fill="#101010"/>
<path fill-rule="evenodd" clip-rule="evenodd" d="M5.96973 1.75C4.72709 1.75 3.71973 2.75736 3.71973 4C3.71973 5.24264 4.72709 6.25 5.96973 6.25C7.21237 6.25 8.21973 5.24264 8.21973 4C8.21973 2.75736 7.21237 1.75 5.96973 1.75ZM2.21973 4C2.21973 1.92893 3.89866 0.25 5.96973 0.25C8.04079 0.25 9.71973 1.92893 9.71973 4C9.71973 6.07107 8.04079 7.75 5.96973 7.75C3.89866 7.75 2.21973 6.07107 2.21973 4Z" fill="#101010"/>
</svg>
