<svg width="22" height="22" viewBox="0 0 22 22" fill="none" xmlns="http://www.w3.org/2000/svg">
<path fill-rule="evenodd" clip-rule="evenodd" d="M21.5301 0.46967C21.823 0.762563 21.823 1.23744 21.5301 1.53033L13.3301 9.73033C13.0372 10.0232 12.5624 10.0232 12.2695 9.73033C11.9766 9.43744 11.9766 8.96256 12.2695 8.66967L20.4695 0.46967C20.7624 0.176777 21.2372 0.176777 21.5301 0.46967Z" fill="#101010"/>
<path fill-rule="evenodd" clip-rule="evenodd" d="M12 4.41998C12.4142 4.41998 12.75 4.75577 12.75 5.16998V9.24998H16.83C17.2442 9.24998 17.58 9.58577 17.58 9.99998C17.58 10.4142 17.2442 10.75 16.83 10.75H12C11.5858 10.75 11.25 10.4142 11.25 9.99998V5.16998C11.25 4.75577 11.5858 4.41998 12 4.41998Z" fill="#101010"/>
<path fill-rule="evenodd" clip-rule="evenodd" d="M2.09467 2.09467C3.42914 0.760201 5.42603 0.25 8 0.25H10C10.4142 0.25 10.75 0.585786 10.75 1C10.75 1.41421 10.4142 1.75 10 1.75H8C5.57397 1.75 4.07086 2.2398 3.15533 3.15533C2.2398 4.07086 1.75 5.57397 1.75 8V14C1.75 16.426 2.2398 17.9291 3.15533 18.8447C4.07086 19.7602 5.57397 20.25 8 20.25H14C16.426 20.25 17.9291 19.7602 18.8447 18.8447C19.7602 17.9291 20.25 16.426 20.25 14V12C20.25 11.5858 20.5858 11.25 21 11.25C21.4142 11.25 21.75 11.5858 21.75 12V14C21.75 16.574 21.2398 18.5709 19.9053 19.9053C18.5709 21.2398 16.574 21.75 14 21.75H8C5.42603 21.75 3.42914 21.2398 2.09467 19.9053C0.760201 18.5709 0.25 16.574 0.25 14V8C0.25 5.42603 0.760201 3.42914 2.09467 2.09467Z" fill="#101010"/>
</svg>
