<svg width="22" height="22" viewBox="0 0 22 22" fill="none" xmlns="http://www.w3.org/2000/svg">
<path fill-rule="evenodd" clip-rule="evenodd" d="M0.25 11C0.25 5.06579 5.06579 0.25 11 0.25C11.4142 0.25 11.75 0.585786 11.75 1C11.75 1.41421 11.4142 1.75 11 1.75C5.89421 1.75 1.75 5.89421 1.75 11C1.75 16.1058 5.89421 20.25 11 20.25C16.1058 20.25 20.25 16.1058 20.25 11C20.25 10.5858 20.5858 10.25 21 10.25C21.4142 10.25 21.75 10.5858 21.75 11C21.75 16.9342 16.9342 21.75 11 21.75C5.06579 21.75 0.25 16.9342 0.25 11Z" fill="#101010"/>
<path fill-rule="evenodd" clip-rule="evenodd" d="M21.5301 0.46967C21.823 0.762563 21.823 1.23744 21.5301 1.53033L13.3301 9.73033C13.0372 10.0232 12.5624 10.0232 12.2695 9.73033C11.9766 9.43744 11.9766 8.96256 12.2695 8.66967L20.4695 0.46967C20.7624 0.176777 21.2372 0.176777 21.5301 0.46967Z" fill="#101010"/>
<path fill-rule="evenodd" clip-rule="evenodd" d="M12 4.41998C12.4142 4.41998 12.75 4.75577 12.75 5.16998V9.24998H16.83C17.2442 9.24998 17.58 9.58577 17.58 9.99998C17.58 10.4142 17.2442 10.75 16.83 10.75H12C11.5858 10.75 11.25 10.4142 11.25 9.99998V5.16998C11.25 4.75577 11.5858 4.41998 12 4.41998Z" fill="#101010"/>
</svg>
