<svg width="22" height="22" viewBox="0 0 22 22" fill="none" xmlns="http://www.w3.org/2000/svg">
<path fill-rule="evenodd" clip-rule="evenodd" d="M18.2502 3.7513C15.5824 1.0925 11.2666 1.09379 8.61 3.7504L8.60871 3.75169C6.75592 5.59548 6.19424 8.25213 6.9165 10.5995C6.9982 10.865 6.92644 11.154 6.73 11.3504L2.03501 16.0454C1.96934 16.1145 1.88035 16.2572 1.81618 16.4497C1.7509 16.6456 1.73858 16.811 1.75182 16.9018L1.75269 16.9078L2.05176 19.0813C2.07986 19.2571 2.18508 19.4653 2.36247 19.6435C2.54121 19.823 2.74448 19.9235 2.91192 19.9471L5.0979 20.2479C5.19719 20.2624 5.36627 20.2506 5.55595 20.1891C5.74696 20.1272 5.88054 20.0405 5.94171 19.9775L5.94984 19.9691L10.6599 15.2692C10.8572 15.0723 11.1475 15.0011 11.4135 15.0843C13.7456 15.8136 16.4032 15.2463 18.2599 13.3992C20.9163 10.7422 20.9161 6.40817 18.2502 3.7513ZM7.54998 2.68909C10.7934 -0.553649 16.0571 -0.552146 19.3091 2.68884C22.563 5.93179 22.563 11.2174 19.32 14.4604L19.3187 14.4617C17.172 16.598 14.1448 17.3309 11.4088 16.6409L7.01301 21.0274C6.73471 21.3118 6.36545 21.5036 6.01839 21.616C5.66915 21.7292 5.26463 21.7874 4.88493 21.7327C4.88377 21.7326 4.8826 21.7324 4.88144 21.7322L2.70742 21.4331C2.15503 21.3563 1.66279 21.0668 1.29937 20.7017C0.935761 20.3364 0.651261 19.8465 0.568272 19.3033L0.56659 19.2923L0.26752 17.1183C0.267356 17.1172 0.267194 17.1161 0.267032 17.1149C0.211153 16.7267 0.278765 16.3186 0.393157 15.9754C0.508058 15.6307 0.697407 15.2698 0.961484 14.9977L0.96928 14.9897L5.36011 10.599C4.6789 7.8583 5.39952 4.82959 7.54998 2.68909Z" fill="#101010"/>
<path fill-rule="evenodd" clip-rule="evenodd" d="M5.35932 15.9597C5.65221 15.6668 6.12709 15.6668 6.41998 15.9597L8.71998 18.2597C9.01287 18.5526 9.01287 19.0274 8.71998 19.3203C8.42708 19.6132 7.95221 19.6132 7.65932 19.3203L5.35932 17.0203C5.06643 16.7274 5.06643 16.2526 5.35932 15.9597Z" fill="#101010"/>
<path fill-rule="evenodd" clip-rule="evenodd" d="M13.5 7.75C13.0858 7.75 12.75 8.08579 12.75 8.5C12.75 8.91421 13.0858 9.25 13.5 9.25C13.9142 9.25 14.25 8.91421 14.25 8.5C14.25 8.08579 13.9142 7.75 13.5 7.75ZM11.25 8.5C11.25 7.25736 12.2574 6.25 13.5 6.25C14.7426 6.25 15.75 7.25736 15.75 8.5C15.75 9.74264 14.7426 10.75 13.5 10.75C12.2574 10.75 11.25 9.74264 11.25 8.5Z" fill="#101010"/>
</svg>
