<svg width="22" height="18" viewBox="0 0 22 18" fill="none" xmlns="http://www.w3.org/2000/svg">
<path fill-rule="evenodd" clip-rule="evenodd" d="M6.5 1.75C5.89105 1.75 5.38302 1.77004 4.94607 1.83246C4.93813 1.8336 4.93017 1.8346 4.9222 1.83548C3.70657 1.96953 3.13894 2.29944 2.81013 2.79874C2.43687 3.36555 2.25 4.31741 2.25 6V12C2.25 13.6826 2.43687 14.6345 2.81013 15.2013C3.13894 15.7006 3.70657 16.0305 4.9222 16.1645C4.93017 16.1654 4.93813 16.1664 4.94607 16.1675C5.38302 16.23 5.89105 16.25 6.5 16.25H15.5C16.109 16.25 16.617 16.23 17.0539 16.1675C17.0619 16.1664 17.0698 16.1654 17.0778 16.1645C18.2934 16.0305 18.8611 15.7006 19.1899 15.2013C19.5631 14.6345 19.75 13.6826 19.75 12V6C19.75 4.31741 19.5631 3.36555 19.1899 2.79874C18.8611 2.29944 18.2934 1.96953 17.0778 1.83548C17.0698 1.8346 17.0619 1.8336 17.0539 1.83246C16.617 1.77004 16.109 1.75 15.5 1.75H6.5ZM4.74594 0.345834C5.2857 0.269667 5.8736 0.25 6.5 0.25H15.5C16.1264 0.25 16.7143 0.269667 17.2541 0.345834C18.6627 0.502914 19.7609 0.938469 20.4426 1.97376C21.0819 2.94445 21.25 4.30259 21.25 6V12C21.25 13.6974 21.0819 15.0555 20.4426 16.0262C19.7609 17.0615 18.6627 17.4971 17.2541 17.6542C16.7143 17.7303 16.1264 17.75 15.5 17.75H6.5C5.8736 17.75 5.28569 17.7303 4.74593 17.6542C3.33727 17.4971 2.23915 17.0615 1.55737 16.0262C0.918133 15.0555 0.75 13.6974 0.75 12V6C0.75 4.30259 0.918133 2.94445 1.55737 1.97376C2.23915 0.938469 3.33727 0.502913 4.74594 0.345834Z" fill="#101010"/>
<path fill-rule="evenodd" clip-rule="evenodd" d="M11.75 7C11.75 6.58579 12.0858 6.25 12.5 6.25H16C16.4142 6.25 16.75 6.58579 16.75 7C16.75 7.41421 16.4142 7.75 16 7.75H12.5C12.0858 7.75 11.75 7.41421 11.75 7Z" fill="#101010"/>
<path fill-rule="evenodd" clip-rule="evenodd" d="M5.25 12.5C5.25 12.0858 5.58579 11.75 6 11.75H16C16.4142 11.75 16.75 12.0858 16.75 12.5C16.75 12.9142 16.4142 13.25 16 13.25H6C5.58579 13.25 5.25 12.9142 5.25 12.5Z" fill="#101010"/>
<path fill-rule="evenodd" clip-rule="evenodd" d="M8.09473 7C8.09473 6.44772 8.54244 6 9.09473 6H9.10371C9.65599 6 10.1037 6.44772 10.1037 7C10.1037 7.55228 9.65599 8 9.10371 8H9.09473C8.54244 8 8.09473 7.55228 8.09473 7Z" fill="#101010"/>
<path fill-rule="evenodd" clip-rule="evenodd" d="M5.09473 7C5.09473 6.44772 5.54244 6 6.09473 6H6.10371C6.65599 6 7.10371 6.44772 7.10371 7C7.10371 7.55228 6.65599 8 6.10371 8H6.09473C5.54244 8 5.09473 7.55228 5.09473 7Z" fill="#101010"/>
</svg>
