<svg width="22" height="22" viewBox="0 0 22 22" fill="none" xmlns="http://www.w3.org/2000/svg">
<path fill-rule="evenodd" clip-rule="evenodd" d="M6.26022 1.75C5.62103 1.75 5.08042 1.77003 4.61028 1.83332L4.59364 1.83537C3.30687 1.97938 2.69376 2.3295 2.33744 2.86939C1.93707 3.47604 1.74023 4.48763 1.74023 6.26001V12.58C1.74023 14.3524 1.93707 15.364 2.33744 15.9706C2.69376 16.5105 3.30687 16.8606 4.59364 17.0047L4.61028 17.0067C5.08042 17.07 5.62103 17.09 6.26022 17.09H15.7302C16.3792 17.09 16.9099 17.07 17.3802 17.0067L17.3968 17.0047C18.6836 16.8606 19.2967 16.5105 19.653 15.9706C20.0534 15.364 20.2502 14.3524 20.2502 12.58V6.26001C20.2502 4.48763 20.0534 3.47604 19.653 2.86939C19.2967 2.3295 18.6836 1.97938 17.3968 1.83537L17.3802 1.83332C16.91 1.77003 16.3694 1.75 15.7302 1.75H6.26022ZM4.41853 0.34561C4.98608 0.269824 5.60264 0.25 6.26022 0.25H15.7302C16.3878 0.25 17.0044 0.269824 17.5719 0.345611C19.0511 0.51237 20.1951 0.967555 20.9049 2.04315C21.5721 3.05399 21.7502 4.47239 21.7502 6.26001V12.58C21.7502 14.3676 21.5721 15.786 20.9049 16.7969C20.1951 17.8725 19.0512 18.3276 17.572 18.4944C17.0046 18.5702 16.398 18.59 15.7302 18.59H6.26022C5.60262 18.59 4.98605 18.5702 4.41848 18.4944C2.93928 18.3276 1.79536 17.8725 1.08551 16.7969C0.418388 15.786 0.240234 14.3676 0.240234 12.58V6.26001C0.240234 4.47239 0.418388 3.05399 1.08551 2.04315C1.79537 0.967554 2.93931 0.512369 4.41853 0.34561Z" fill="#101010"/>
<path fill-rule="evenodd" clip-rule="evenodd" d="M11.8301 7.32001C11.8301 6.90579 12.1659 6.57001 12.5801 6.57001H16.2601C16.6743 6.57001 17.0101 6.90579 17.0101 7.32001C17.0101 7.73422 16.6743 8.07001 16.2601 8.07001H12.5801C12.1659 8.07001 11.8301 7.73422 11.8301 7.32001Z" fill="#101010"/>
<path fill-rule="evenodd" clip-rule="evenodd" d="M4.99023 13.11C4.99023 12.6958 5.32602 12.36 5.74023 12.36H16.2702C16.6844 12.36 17.0202 12.6958 17.0202 13.11C17.0202 13.5242 16.6844 13.86 16.2702 13.86H5.74023C5.32602 13.86 4.99023 13.5242 4.99023 13.11Z" fill="#101010"/>
<path fill-rule="evenodd" clip-rule="evenodd" d="M5.25 21C5.25 20.5858 5.58579 20.25 6 20.25H16C16.4142 20.25 16.75 20.5858 16.75 21C16.75 21.4142 16.4142 21.75 16 21.75H6C5.58579 21.75 5.25 21.4142 5.25 21Z" fill="#101010"/>
<path fill-rule="evenodd" clip-rule="evenodd" d="M5.19531 7.29999C5.19531 6.7477 5.64303 6.29999 6.19531 6.29999H6.20429C6.75658 6.29999 7.20429 6.7477 7.20429 7.29999C7.20429 7.85227 6.75658 8.29999 6.20429 8.29999H6.19531C5.64303 8.29999 5.19531 7.85227 5.19531 7.29999Z" fill="#101010"/>
<path fill-rule="evenodd" clip-rule="evenodd" d="M8.49512 7.29999C8.49512 6.7477 8.94283 6.29999 9.49512 6.29999H9.5041C10.0564 6.29999 10.5041 6.7477 10.5041 7.29999C10.5041 7.85227 10.0564 8.29999 9.5041 8.29999H9.49512C8.94283 8.29999 8.49512 7.85227 8.49512 7.29999Z" fill="#101010"/>
</svg>
