<svg width="20" height="22" viewBox="0 0 20 22" fill="none" xmlns="http://www.w3.org/2000/svg">
<path fill-rule="evenodd" clip-rule="evenodd" d="M9.93973 4.67993C5.53394 4.67993 1.96973 8.24415 1.96973 12.6499V16.8399H18.0297V12.6499C18.0297 8.24415 14.4655 4.67993 10.0597 4.67993H9.93973ZM0.469727 12.6499C0.469727 7.41572 4.70551 3.17993 9.93973 3.17993H10.0597C15.2939 3.17993 19.5297 7.41572 19.5297 12.6499V17.5899C19.5297 18.0041 19.1939 18.3399 18.7797 18.3399H1.21973C0.805513 18.3399 0.469727 18.0041 0.469727 17.5899V12.6499Z" fill="#101010"/>
<path fill-rule="evenodd" clip-rule="evenodd" d="M10 0.25C10.4142 0.25 10.75 0.585786 10.75 1V3.92999C10.75 4.34421 10.4142 4.67999 10 4.67999C9.58579 4.67999 9.25 4.34421 9.25 3.92999V1C9.25 0.585786 9.58579 0.25 10 0.25Z" fill="#101010"/>
<path fill-rule="evenodd" clip-rule="evenodd" d="M5.80157 17.078C5.9434 16.9261 6.14185 16.84 6.34961 16.84H13.6496C13.8574 16.84 14.0558 16.9261 14.1976 17.078C14.3395 17.2298 14.412 17.4336 14.3979 17.6409C14.2412 19.9424 12.3261 21.75 9.99961 21.75C7.67314 21.75 5.75799 19.9424 5.60134 17.6409C5.58723 17.4336 5.65974 17.2298 5.80157 17.078ZM7.26779 18.34C7.67658 19.4566 8.74871 20.25 9.99961 20.25C11.2505 20.25 12.3226 19.4566 12.7314 18.34H7.26779Z" fill="#101010"/>
</svg>
