<svg width="20" height="22" viewBox="0 0 20 22" fill="none" xmlns="http://www.w3.org/2000/svg">
<path fill-rule="evenodd" clip-rule="evenodd" d="M4.15856 0.905482C4.66772 0.516122 5.31637 0.25 5.99039 0.25H14.0104C14.6847 0.25 15.3334 0.51631 15.8438 0.90694C16.3545 1.29791 16.7823 1.85587 16.9633 2.51006L16.964 2.51274L19.1647 10.5853C19.4322 11.5809 19.2677 12.5553 18.7047 13.2908C18.1415 14.0267 17.2434 14.44 16.2104 14.44H3.79039C2.75755 14.44 1.85843 14.0267 1.29613 13.288C0.733918 12.5495 0.573804 11.5717 0.846925 10.5723L3.04611 2.5053C3.04623 2.50483 3.04636 2.50436 3.04649 2.50389C3.22238 1.85104 3.6497 1.2946 4.15856 0.905482ZM5.06973 2.09702C4.77145 2.32511 4.56902 2.61816 4.49468 2.8947L4.49399 2.89726L2.29399 10.9673C2.12711 11.5779 2.24687 12.0605 2.48966 12.3795C2.73236 12.6983 3.16324 12.94 3.79039 12.94H16.2104C16.8374 12.94 17.2693 12.6983 17.5136 12.3791C17.7579 12.0599 17.8784 11.5798 17.7164 10.9759C17.7163 10.9755 17.7162 10.9751 17.7161 10.9747L15.5175 2.90994C15.5174 2.90954 15.5173 2.90915 15.5172 2.90875C15.4379 2.62331 15.2308 2.32678 14.932 2.09806C14.6324 1.86869 14.2961 1.75 14.0104 1.75H5.99039C5.70441 1.75 5.36807 1.86888 5.06973 2.09702Z" fill="#101010"/>
<path fill-rule="evenodd" clip-rule="evenodd" d="M10 13.25C10.4142 13.25 10.75 13.5858 10.75 14V21C10.75 21.4142 10.4142 21.75 10 21.75C9.58579 21.75 9.25 21.4142 9.25 21V14C9.25 13.5858 9.58579 13.25 10 13.25Z" fill="#101010"/>
<path fill-rule="evenodd" clip-rule="evenodd" d="M5.25 21C5.25 20.5858 5.58579 20.25 6 20.25H14C14.4142 20.25 14.75 20.5858 14.75 21C14.75 21.4142 14.4142 21.75 14 21.75H6C5.58579 21.75 5.25 21.4142 5.25 21Z" fill="#101010"/>
</svg>
