<svg width="18" height="22" viewBox="0 0 18 22" fill="none" xmlns="http://www.w3.org/2000/svg">
<path fill-rule="evenodd" clip-rule="evenodd" d="M17.56 0.949772C17.8529 1.24267 17.8529 1.71754 17.56 2.01043L1.71002 17.8604C1.41712 18.1533 0.942251 18.1533 0.649357 17.8604C0.356464 17.5675 0.356464 17.0927 0.649357 16.7998L16.4994 0.949772C16.7922 0.656879 17.2671 0.656879 17.56 0.949772Z" fill="#101010"/>
<path fill-rule="evenodd" clip-rule="evenodd" d="M10.4395 1.90267C6.1713 0.969196 2.33008 4.40127 2.33008 8.90006C2.33008 9.86387 2.55326 10.8127 2.93833 11.7021C3.10292 12.0822 2.9282 12.5237 2.54808 12.6883C2.16797 12.8529 1.72641 12.6782 1.56183 12.2981C1.1069 11.2474 0.830078 10.0962 0.830078 8.90006C0.830078 3.57895 5.42868 -0.72892 10.7604 0.437383L10.7607 0.437448C12.3799 0.792347 13.8132 1.6555 14.9104 2.8405C15.1918 3.14443 15.1736 3.61896 14.8696 3.90038C14.5657 4.1818 14.0912 4.16355 13.8098 3.85961C12.907 2.88469 11.7405 2.18788 10.4398 1.90273" fill="#101010"/>
<path fill-rule="evenodd" clip-rule="evenodd" d="M15.8352 5.58454C16.2303 5.4603 16.6514 5.6799 16.7756 6.07504C18.0607 10.1619 16.1164 14.2318 13.2702 16.2674V17.03C13.2702 17.032 13.2704 17.0366 13.2708 17.0437C13.2759 17.1299 13.302 17.5753 13.1184 17.9492C13.0006 18.1894 12.8064 18.4037 12.525 18.5481C12.2569 18.6857 11.9487 18.74 11.6202 18.74H6.42016C5.87406 18.74 5.24202 18.6393 4.92784 18.0722C4.79343 17.8295 4.77162 17.5835 4.76637 17.4291C4.76361 17.348 4.7667 17.2046 4.76871 17.1113C4.76952 17.0735 4.77016 17.0439 4.77016 17.03V16.2712C4.36765 15.9862 3.98932 15.6598 3.62983 15.3003C3.33693 15.0074 3.33693 14.5326 3.62983 14.2397C3.92272 13.9468 4.39759 13.9468 4.69049 14.2397C5.08786 14.6371 5.49403 14.9692 5.91766 15.234C6.13694 15.3711 6.27016 15.6114 6.27016 15.87V17.03C6.27016 17.0956 6.26845 17.1609 6.26709 17.2132C6.26689 17.2208 6.2667 17.2282 6.26652 17.2352C6.30922 17.2382 6.36005 17.24 6.42016 17.24H11.6202C11.6883 17.24 11.7379 17.2354 11.7726 17.2299C11.7731 17.2121 11.773 17.1917 11.7726 17.1672C11.7724 17.1526 11.772 17.1393 11.7717 17.1237C11.7715 17.1182 11.7714 17.1124 11.7712 17.1061C11.7707 17.0848 11.7702 17.0576 11.7702 17.03V15.87C11.7702 15.6146 11.9002 15.3767 12.1152 15.2388C14.6643 13.6033 16.4483 10.035 15.3447 6.52497C15.2204 6.12983 15.44 5.70879 15.8352 5.58454Z" fill="#101010"/>
<path fill-rule="evenodd" clip-rule="evenodd" d="M12.2944 21.7216C10.1383 21.1096 7.86012 21.1096 5.70401 21.7216C5.30554 21.8347 4.89082 21.6033 4.77772 21.2049C4.66461 20.8064 4.89595 20.3917 5.29442 20.2786C7.71831 19.5906 10.2801 19.5906 12.704 20.2786C13.1025 20.3917 13.3338 20.8064 13.2207 21.2049C13.1076 21.6033 12.6929 21.8347 12.2944 21.7216Z" fill="#101010"/>
</svg>
