<svg width="22" height="22" viewBox="0 0 22 22" fill="none" xmlns="http://www.w3.org/2000/svg">
<path fill-rule="evenodd" clip-rule="evenodd" d="M5.26172 7.95996C5.26172 7.54575 5.59751 7.20996 6.01172 7.20996H15.9917C16.4059 7.20996 16.7417 7.54575 16.7417 7.95996C16.7417 8.37417 16.4059 8.70996 15.9917 8.70996H6.01172C5.59751 8.70996 5.26172 8.37417 5.26172 7.95996Z" fill="#101010"/>
<path fill-rule="evenodd" clip-rule="evenodd" d="M11.002 5.53003C11.4162 5.53003 11.752 5.86582 11.752 6.28003V7.96002C11.752 8.37424 11.4162 8.71002 11.002 8.71002C10.5877 8.71002 10.252 8.37424 10.252 7.96002V6.28003C10.252 5.86582 10.5877 5.53003 11.002 5.53003Z" fill="#101010"/>
<path fill-rule="evenodd" clip-rule="evenodd" d="M13.502 7.18994C13.9162 7.18994 14.252 7.52573 14.252 7.93994C14.252 12.6284 10.5815 16.4699 6.00195 16.4699C5.58774 16.4699 5.25195 16.1341 5.25195 15.7199C5.25195 15.3057 5.58774 14.9699 6.00195 14.9699C9.7024 14.9699 12.752 11.8515 12.752 7.93994C12.752 7.52573 13.0877 7.18994 13.502 7.18994Z" fill="#101010"/>
<path fill-rule="evenodd" clip-rule="evenodd" d="M10.9978 12.6534C11.3273 12.4024 11.7979 12.4661 12.0489 12.7956C13.0916 14.1648 14.488 14.97 16.0022 14.97C16.4164 14.97 16.7522 15.3058 16.7522 15.72C16.7522 16.1342 16.4164 16.47 16.0022 16.47C13.9163 16.47 12.1128 15.3553 10.8555 13.7045C10.6046 13.3749 10.6682 12.9043 10.9978 12.6534Z" fill="#101010"/>
<path fill-rule="evenodd" clip-rule="evenodd" d="M11.002 1.75C5.89332 1.75 1.75195 5.89137 1.75195 11C1.75195 16.1086 5.89332 20.25 11.002 20.25C16.1106 20.25 20.252 16.1086 20.252 11C20.252 5.89137 16.1106 1.75 11.002 1.75ZM0.251953 11C0.251953 5.06294 5.06489 0.25 11.002 0.25C16.939 0.25 21.752 5.06294 21.752 11C21.752 16.9371 16.939 21.75 11.002 21.75C5.06489 21.75 0.251953 16.9371 0.251953 11Z" fill="#101010"/>
</svg>
