<svg width="22" height="22" viewBox="0 0 22 22" fill="none" xmlns="http://www.w3.org/2000/svg">
<path fill-rule="evenodd" clip-rule="evenodd" d="M13.0301 1.04286C14.2529 1.45793 15.0893 2.79754 14.8176 4.08714L14.3218 7.25994C14.3029 7.39882 14.3437 7.4754 14.3798 7.51628C14.4216 7.56368 14.49 7.59999 14.5799 7.59999H18.5799C19.5328 7.59999 20.3726 7.98643 20.8837 8.68009C21.3965 9.3761 21.5094 10.2886 21.1896 11.1927L18.8003 18.4602C18.5944 19.2505 18.0769 19.9041 17.4603 20.3553C16.8369 20.8114 16.0597 21.1 15.2799 21.1H11.4799C11.1075 21.1 10.6632 21.0395 10.2488 20.9211C9.86807 20.8123 9.41883 20.6285 9.08848 20.318L6.02076 17.943L6.93902 16.757L10.0766 19.1861L10.1102 19.2197C10.1769 19.2863 10.3569 19.392 10.6609 19.4788C10.9466 19.5605 11.2523 19.6 11.4799 19.6H15.2799C15.7001 19.6 16.1729 19.4386 16.5745 19.1447C16.9756 18.8513 17.253 18.4651 17.3523 18.0681L17.3589 18.0416L19.7704 10.7067L19.7736 10.6977C19.9496 10.205 19.8614 9.82144 19.6761 9.56989C19.4872 9.31356 19.127 9.09999 18.5799 9.09999H14.5799C13.5365 9.09999 12.671 8.20859 12.8374 7.04393L12.8388 7.0342L13.3426 3.81061L13.3477 3.78729C13.4584 3.28927 13.1047 2.64885 12.5427 2.46151L12.5295 2.45711L12.5165 2.45224C12.3136 2.37612 12.0468 2.37787 11.7737 2.47176C11.4955 2.56738 11.2948 2.72969 11.2039 2.86602L11.2024 2.86837L7.10235 8.96837L5.85742 8.13162L9.95585 2.03397C9.95614 2.03353 9.95644 2.03308 9.95673 2.03264C10.2659 1.56965 10.7647 1.23243 11.2861 1.05323C11.8091 0.873444 12.4369 0.824577 13.0301 1.04286Z" fill="#101010"/>
<path fill-rule="evenodd" clip-rule="evenodd" d="M2.36359 6.626C2.26488 6.71713 2.12988 6.93441 2.12988 7.5499V17.3499C2.12988 17.9654 2.26488 18.1827 2.36359 18.2738C2.47705 18.3785 2.73737 18.4999 3.37988 18.4999H4.37988C5.0224 18.4999 5.28272 18.3785 5.39617 18.2738C5.49489 18.1827 5.62988 17.9654 5.62988 17.3499V7.5499C5.62988 6.93441 5.49489 6.71713 5.39617 6.626C5.28272 6.52128 5.0224 6.3999 4.37988 6.3999H3.37988C2.73737 6.3999 2.47705 6.52128 2.36359 6.626ZM1.34617 5.5238C1.88272 5.02853 2.6224 4.8999 3.37988 4.8999H4.37988C5.13737 4.8999 5.87705 5.02853 6.41359 5.5238C6.96488 6.03268 7.12988 6.76539 7.12988 7.5499V17.3499C7.12988 18.1344 6.96488 18.8671 6.41359 19.376C5.87705 19.8713 5.13737 19.9999 4.37988 19.9999H3.37988C2.6224 19.9999 1.88272 19.8713 1.34617 19.376C0.794888 18.8671 0.629883 18.1344 0.629883 17.3499V7.5499C0.629883 6.76539 0.794888 6.03268 1.34617 5.5238Z" fill="#101010"/>
</svg>
