<svg width="22" height="22" viewBox="0 0 22 22" fill="none" xmlns="http://www.w3.org/2000/svg">
<path fill-rule="evenodd" clip-rule="evenodd" d="M7.76834 9.64217C8.6116 9.92983 9.17642 10.8556 8.9978 11.7447L8.73867 13.3799H10.8298C11.4631 13.3799 12.0473 13.639 12.4094 14.1293C12.7732 14.6219 12.8451 15.2573 12.6292 15.8637L11.2702 20C10.9948 21.0484 9.93182 21.7399 8.94981 21.7399H6.77981C6.53594 21.7399 6.25263 21.7029 5.98678 21.6281C5.7525 21.5623 5.44418 21.443 5.20093 21.2199L3.46075 19.873L4.37887 18.6868L6.1865 20.0859L6.21271 20.1121C6.21678 20.1148 6.22613 20.1207 6.24235 20.1287C6.2771 20.146 6.32761 20.1658 6.39285 20.1841C6.52699 20.2219 6.67369 20.2399 6.77981 20.2399H8.94981C9.33825 20.2399 9.74413 19.9249 9.82159 19.6105L9.8284 19.5829L11.2108 15.375L11.2147 15.3643C11.2836 15.1742 11.2391 15.0696 11.2028 15.0204C11.1624 14.9658 11.0566 14.8799 10.8298 14.8799H8.53981C7.75553 14.8799 7.098 14.196 7.22811 13.3286L7.22903 13.3224L7.5223 11.472L7.52667 11.4517C7.55251 11.3319 7.44572 11.1157 7.28264 11.0614L7.27117 11.0575L7.25982 11.0534C7.22587 11.0408 7.15033 11.0324 7.04772 11.0678C7 11.0842 6.95822 11.1065 6.92633 11.1294C6.91077 11.1405 6.8993 11.1506 6.89146 11.1584C6.88475 11.1651 6.88167 11.1692 6.8811 11.17C6.88105 11.1701 6.88111 11.17 6.8811 11.17L4.54275 14.6575L3.29688 13.8222L5.6386 10.3296C5.86229 9.99897 6.20967 9.76988 6.55941 9.64947C6.91111 9.52838 7.34588 9.4896 7.76834 9.64217Z" fill="#101010"/>
<path fill-rule="evenodd" clip-rule="evenodd" d="M1.7862 13.3834C1.7739 13.413 1.75 13.4956 1.75 13.6799V19.2799C1.75 19.4626 1.77275 19.5466 1.78511 19.5781C1.81671 19.5908 1.91317 19.6199 2.14 19.6199H2.71C2.93918 19.6199 3.03422 19.589 3.06383 19.5763C3.07612 19.5467 3.1 19.4641 3.1 19.2799V13.6799C3.1 13.4956 3.07609 13.413 3.0638 13.3834C3.03422 13.3707 2.9392 13.3398 2.71 13.3398H2.14C1.9108 13.3398 1.81578 13.3707 1.7862 13.3834ZM1.79331 13.3696C1.79339 13.3697 1.79267 13.371 1.79095 13.3732C1.79238 13.3706 1.79324 13.3695 1.79331 13.3696ZM3.05668 13.3696C3.05676 13.3695 3.05762 13.3706 3.05905 13.3732C3.05733 13.371 3.05661 13.3697 3.05668 13.3696ZM3.05671 19.5902C3.05663 19.5901 3.05735 19.5888 3.05907 19.5865C3.05764 19.5891 3.05678 19.5903 3.05671 19.5902ZM1.79286 19.5939C1.79279 19.594 1.79194 19.5929 1.79053 19.5902C1.79222 19.5925 1.79293 19.5938 1.79286 19.5939ZM0.75849 12.2864C1.15484 11.9168 1.68044 11.8398 2.14 11.8398H2.71C3.16956 11.8398 3.69516 11.9168 4.09151 12.2864C4.50064 12.6679 4.6 13.1968 4.6 13.6799V19.2799C4.6 19.7631 4.50064 20.2919 4.09146 20.6734C3.69509 21.043 3.1695 21.1199 2.71 21.1199H2.14C1.68583 21.1199 1.15863 21.0475 0.760531 20.679C0.348111 20.2973 0.25 19.7652 0.25 19.2799V13.6799C0.25 13.1968 0.349361 12.6679 0.75849 12.2864Z" fill="#101010"/>
<path fill-rule="evenodd" clip-rule="evenodd" d="M10.7297 1.99987C11.0051 0.951443 12.0681 0.26001 13.0501 0.26001H15.2201C15.464 0.26001 15.7473 0.296988 16.0132 0.371747C16.2474 0.43763 16.5558 0.556848 16.799 0.779971L18.5392 2.12687L17.6211 3.31307L15.8134 1.91395L15.7872 1.88774C15.7832 1.88506 15.7738 1.87922 15.7576 1.87114C15.7228 1.85383 15.6723 1.83408 15.6071 1.81574C15.4729 1.77801 15.3263 1.76001 15.2201 1.76001H13.0501C12.6617 1.76001 12.2558 2.07497 12.1784 2.38938L12.1715 2.41701L10.7891 6.62491L10.7852 6.6356C10.7163 6.82569 10.7609 6.93026 10.7972 6.97944C10.8376 7.03413 10.9434 7.12 11.1701 7.12H13.4601C14.2444 7.12 14.9019 7.80389 14.7718 8.67131L14.7709 8.67745L14.4776 10.5279L14.4733 10.5481C14.4474 10.6679 14.5542 10.8842 14.7173 10.9385L14.7288 10.9423L14.7401 10.9465C14.7741 10.9591 14.8496 10.9674 14.9522 10.9321C14.9999 10.9157 15.0417 10.8934 15.0736 10.8705C15.0892 10.8594 15.1006 10.8493 15.1085 10.8415C15.1152 10.8347 15.1183 10.8306 15.1188 10.8299C15.1189 10.8297 15.1189 10.8298 15.1188 10.8299L17.4572 7.34234L18.7031 8.17768L16.3631 11.6677L16.3613 11.6702C16.1376 12.0009 15.7903 12.23 15.4405 12.3504C15.0888 12.4715 14.6541 12.5103 14.2316 12.3577C13.3883 12.0701 12.8235 11.1443 13.0021 10.2552L13.2613 8.62H11.1701C10.5369 8.62 9.95268 8.36086 9.59058 7.87056C9.22676 7.37794 9.15486 6.74258 9.37079 6.13622L10.7297 1.99987Z" fill="#101010"/>
<path fill-rule="evenodd" clip-rule="evenodd" d="M18.9361 2.42342C18.9238 2.45309 18.8999 2.53565 18.8999 2.71985V8.31982C18.8999 8.50413 18.9238 8.58671 18.9361 8.61635C18.9657 8.62903 19.0607 8.65991 19.2899 8.65991H19.8599C20.0891 8.65991 20.1841 8.62903 20.2137 8.61635C20.226 8.58671 20.2499 8.50413 20.2499 8.31982V2.71985C20.2499 2.53719 20.2271 2.4532 20.2148 2.42167C20.1832 2.40898 20.0867 2.37988 19.8599 2.37988H19.2899C19.0607 2.37988 18.9657 2.41074 18.9361 2.42342ZM18.9432 2.40959C18.9433 2.40969 18.9425 2.411 18.9408 2.41324C18.9423 2.41061 18.9431 2.40949 18.9432 2.40959ZM20.207 2.40586C20.2071 2.40576 20.208 2.40689 20.2094 2.40955C20.2077 2.40729 20.207 2.40596 20.207 2.40586ZM20.2066 8.63016C20.2065 8.63006 20.2072 8.62875 20.209 8.62651C20.2075 8.62914 20.2067 8.63026 20.2066 8.63016ZM18.9432 8.63016C18.9431 8.63026 18.9423 8.62914 18.9409 8.62651C18.9426 8.62875 18.9433 8.63006 18.9432 8.63016ZM17.9084 1.32632C18.3048 0.956749 18.8304 0.879883 19.2899 0.879883H19.8599C20.3141 0.879883 20.8413 0.95222 21.2394 1.32071C21.6518 1.70246 21.7499 2.23451 21.7499 2.71985V8.31982C21.7499 8.80299 21.6505 9.33184 21.2414 9.71337C20.8451 10.083 20.3195 10.1599 19.8599 10.1599H19.2899C18.8303 10.1599 18.3047 10.083 17.9084 9.71337C17.4993 9.33184 17.3999 8.80299 17.3999 8.31982V2.71985C17.3999 2.23669 17.4993 1.70783 17.9084 1.32632Z" fill="#101010"/>
</svg>
