<svg width="20" height="22" viewBox="0 0 20 22" fill="none" xmlns="http://www.w3.org/2000/svg">
<path fill-rule="evenodd" clip-rule="evenodd" d="M4 1.76001C2.74764 1.76001 1.75 2.76074 1.75 3.97998V14.89C1.75 16.1093 2.74764 17.11 4 17.11H4.75C5.73263 17.11 6.69431 17.4945 7.39866 18.198C7.39921 18.1985 7.39977 18.1991 7.40033 18.1996L9.10688 19.8862C9.10699 19.8863 9.10709 19.8864 9.10719 19.8865M0.25 3.97998C0.25 1.91923 1.93236 0.26001 4 0.26001H16C18.0676 0.26001 19.75 1.91923 19.75 3.97998V14.89C19.75 16.9391 18.0693 18.61 16 18.61H15.24C14.6347 18.61 14.0667 18.8439 13.6503 19.2603L13.6472 19.2634L11.9372 20.9534L11.9369 20.9537C10.8648 22.0121 9.12518 22.0121 8.05309 20.9537L8.05278 20.9534L6.34279 19.2634L6.33966 19.2603C5.92416 18.8448 5.34659 18.61 4.75 18.61H4C1.93236 18.61 0.25 16.9508 0.25 14.89V3.97998ZM4 1.76001H16H4ZM16 1.76001C17.2524 1.76001 18.25 2.76074 18.25 3.97998L16 1.76001ZM18.25 3.97998V14.89V3.97998ZM18.25 14.89C18.25 16.1009 17.2507 17.11 16 17.11L18.25 14.89ZM12.5914 18.1979C13.2948 17.4954 14.2461 17.11 15.24 17.11H16M12.5914 18.1979C12.5908 18.1985 12.5903 18.1991 12.5897 18.1996L12.5914 18.1979ZM12.5897 18.1996L10.8831 19.8862C10.883 19.8863 10.8829 19.8864 10.8828 19.8865" fill="#101010"/>
<path fill-rule="evenodd" clip-rule="evenodd" d="M8 6.75C7.03617 6.75 6.25 7.53227 6.25 8.51001C6.25 9.83495 6.86015 10.9067 7.65867 11.7231C8.4548 12.5371 9.39349 13.0481 9.94232 13.2432C9.94435 13.2435 9.94697 13.2439 9.95019 13.2444C9.9644 13.2462 9.98309 13.2475 10.0037 13.2475C10.0245 13.2475 10.0416 13.2462 10.0529 13.2447C10.0533 13.2446 10.0536 13.2446 10.0539 13.2446C10.6016 13.0507 11.5403 12.5394 12.3372 11.7235C13.1344 10.9072 13.7454 9.83489 13.75 8.50888C13.7494 7.53167 12.9635 6.75 12 6.75C11.4265 6.75 10.924 7.02041 10.5988 7.45157C10.4571 7.6395 10.2354 7.75 10 7.75C9.76462 7.75 9.5429 7.6395 9.40118 7.45157C9.07604 7.02041 8.57346 6.75 8 6.75ZM4.75 8.51001C4.75 6.70775 6.20383 5.25 8 5.25C8.75721 5.25 9.44934 5.50687 10 5.93816C10.5507 5.50687 11.2428 5.25 12 5.25C13.7962 5.25 15.25 6.70775 15.25 8.51001L15.25 8.51239C15.2442 10.3358 14.3953 11.7631 13.4103 12.7716C12.4341 13.771 11.2806 14.4073 10.5253 14.6688L10.5172 14.6716L10.5172 14.6715C10.3405 14.7304 10.1539 14.7475 10.0037 14.7475C9.85131 14.7475 9.669 14.7299 9.49629 14.6759C9.48905 14.6736 9.48184 14.6712 9.47467 14.6688C8.71998 14.4075 7.56396 13.7715 6.58633 12.7719C5.59985 11.7633 4.75 10.3351 4.75 8.51001Z" fill="#101010"/>
</svg>
