<svg width="22" height="20" viewBox="0 0 22 20" fill="none" xmlns="http://www.w3.org/2000/svg">
<path fill-rule="evenodd" clip-rule="evenodd" d="M6.50195 1.75C3.88705 1.75 1.75195 3.89333 1.75195 6.5C1.75195 7.6462 2.16499 8.69838 2.84861 9.52046C3.11346 9.83894 3.06997 10.3118 2.75149 10.5767C2.43301 10.8415 1.96013 10.798 1.69529 10.4795C0.798912 9.40162 0.251953 8.0138 0.251953 6.5C0.251953 3.06667 3.05685 0.25 6.50195 0.25H11.502C14.9362 0.25 17.752 3.06579 17.752 6.5C17.752 9.93333 14.9471 12.75 11.502 12.75H9.00195C8.58774 12.75 8.25195 12.4142 8.25195 12C8.25195 11.5858 8.58774 11.25 9.00195 11.25H11.502C14.1169 11.25 16.252 9.10667 16.252 6.5C16.252 3.89421 14.1077 1.75 11.502 1.75H6.50195Z" fill="#101010"/>
<path fill-rule="evenodd" clip-rule="evenodd" d="M10.502 8.75C7.88705 8.75 5.75195 10.8933 5.75195 13.5C5.75195 16.1058 7.89617 18.25 10.502 18.25H15.502C18.1169 18.25 20.252 16.1067 20.252 13.5C20.252 12.3538 19.8389 11.3016 19.1553 10.4795C18.8905 10.1611 18.9339 9.68818 19.2524 9.42334C19.5709 9.15849 20.0438 9.20198 20.3086 9.52046C21.205 10.5984 21.752 11.9862 21.752 13.5C21.752 16.9333 18.9471 19.75 15.502 19.75H10.502C7.06774 19.75 4.25195 16.9342 4.25195 13.5C4.25195 10.0667 7.05685 7.25 10.502 7.25H13.002C13.4162 7.25 13.752 7.58579 13.752 8C13.752 8.41421 13.4162 8.75 13.002 8.75H10.502Z" fill="#101010"/>
</svg>
