<svg width="22" height="22" viewBox="0 0 22 22" fill="none" xmlns="http://www.w3.org/2000/svg">
<path fill-rule="evenodd" clip-rule="evenodd" d="M6.70907 3.22924C6.00031 4.10912 5.75 5.38987 5.75 7V9C5.75 9.41421 5.41421 9.75 5 9.75C4.58579 9.75 4.25 9.41421 4.25 9V7C4.25 5.30013 4.49969 3.58088 5.54093 2.28826C6.61038 0.960615 8.37164 0.25 11 0.25C13.6284 0.25 15.3896 0.960615 16.4591 2.28826C17.5003 3.58088 17.75 5.30013 17.75 7V9C17.75 9.41421 17.4142 9.75 17 9.75C16.5858 9.75 16.25 9.41421 16.25 9V7C16.25 5.38987 15.9997 4.10912 15.2909 3.22924C14.6104 2.38439 13.3716 1.75 11 1.75C8.62836 1.75 7.38962 2.38439 6.70907 3.22924Z" fill="#101010"/>
<path fill-rule="evenodd" clip-rule="evenodd" d="M2.53033 10.5303C2.01884 11.0418 1.75 11.9946 1.75 14V16C1.75 18.0054 2.01884 18.9582 2.53033 19.4697C3.04182 19.9812 3.99464 20.25 6 20.25H16C18.0054 20.25 18.9582 19.9812 19.4697 19.4697C19.9812 18.9582 20.25 18.0054 20.25 16V14C20.25 11.9946 19.9812 11.0418 19.4697 10.5303C18.9582 10.0188 18.0054 9.75 16 9.75H6C3.99464 9.75 3.04182 10.0188 2.53033 10.5303ZM1.46967 9.46967C2.45818 8.48116 4.00536 8.25 6 8.25H16C17.9946 8.25 19.5418 8.48116 20.5303 9.46967C21.5188 10.4582 21.75 12.0054 21.75 14V16C21.75 17.9946 21.5188 19.5418 20.5303 20.5303C19.5418 21.5188 17.9946 21.75 16 21.75H6C4.00536 21.75 2.45818 21.5188 1.46967 20.5303C0.481164 19.5418 0.25 17.9946 0.25 16V14C0.25 12.0054 0.481164 10.4582 1.46967 9.46967Z" fill="#101010"/>
<path fill-rule="evenodd" clip-rule="evenodd" d="M13.9961 15C13.9961 14.4477 14.4438 14 14.9961 14H15.0051C15.5574 14 16.0051 14.4477 16.0051 15C16.0051 15.5523 15.5574 16 15.0051 16H14.9961C14.4438 16 13.9961 15.5523 13.9961 15Z" fill="#101010"/>
<path fill-rule="evenodd" clip-rule="evenodd" d="M9.99609 15C9.99609 14.4477 10.4438 14 10.9961 14H11.0051C11.5574 14 12.0051 14.4477 12.0051 15C12.0051 15.5523 11.5574 16 11.0051 16H10.9961C10.4438 16 9.99609 15.5523 9.99609 15Z" fill="#101010"/>
<path fill-rule="evenodd" clip-rule="evenodd" d="M5.99414 15C5.99414 14.4477 6.44186 14 6.99414 14H7.00312C7.55541 14 8.00312 14.4477 8.00312 15C8.00312 15.5523 7.55541 16 7.00312 16H6.99414C6.44186 16 5.99414 15.5523 5.99414 15Z" fill="#101010"/>
</svg>
