<svg width="22" height="22" viewBox="0 0 22 22" fill="none" xmlns="http://www.w3.org/2000/svg">
<path fill-rule="evenodd" clip-rule="evenodd" d="M9.14631 7.34831C8.87546 7.68416 8.75 8.21443 8.75 9V10C8.75 10.4142 8.41421 10.75 8 10.75C7.58579 10.75 7.25 10.4142 7.25 10V9C7.25 8.12557 7.37454 7.15584 7.97869 6.40669C8.61101 5.62261 9.62252 5.25 11 5.25C12.3775 5.25 13.389 5.62261 14.0213 6.40669C14.6255 7.15584 14.75 8.12557 14.75 9V10C14.75 10.4142 14.4142 10.75 14 10.75C13.5858 10.75 13.25 10.4142 13.25 10V9C13.25 8.21443 13.1245 7.68416 12.8537 7.34831C12.611 7.04739 12.1225 6.75 11 6.75C9.87748 6.75 9.38899 7.04739 9.14631 7.34831Z" fill="#101010"/>
<path fill-rule="evenodd" clip-rule="evenodd" d="M11.0004 13.1499C11.0833 13.1499 11.1504 13.0827 11.1504 12.9999C11.1504 12.9171 11.0833 12.8499 11.0004 12.8499C10.9175 12.8499 10.8503 12.9171 10.8503 12.9999C10.8503 13.0827 10.9175 13.1499 11.0004 13.1499ZM9.65039 12.9999C9.65039 12.2544 10.2547 11.6499 11.0004 11.6499C11.746 11.6499 12.3503 12.2544 12.3503 12.9999C12.3503 13.7454 11.746 14.3499 11.0004 14.3499C10.2547 14.3499 9.65039 13.7454 9.65039 12.9999Z" fill="#101010"/>
<path fill-rule="evenodd" clip-rule="evenodd" d="M7.03033 11.0303C6.89384 11.1668 6.75 11.4946 6.75 12.5V13.5C6.75 14.5054 6.89384 14.8332 7.03033 14.9697C7.16682 15.1062 7.49464 15.25 8.5 15.25H13.5C14.5054 15.25 14.8332 15.1062 14.9697 14.9697C15.1062 14.8332 15.25 14.5054 15.25 13.5V12.5C15.25 11.4946 15.1062 11.1668 14.9697 11.0303C14.8332 10.8938 14.5054 10.75 13.5 10.75H8.5C7.49464 10.75 7.16682 10.8938 7.03033 11.0303ZM5.96967 9.96967C6.58318 9.35616 7.50536 9.25 8.5 9.25H13.5C14.4946 9.25 15.4168 9.35616 16.0303 9.96967C16.6438 10.5832 16.75 11.5054 16.75 12.5V13.5C16.75 14.4946 16.6438 15.4168 16.0303 16.0303C15.4168 16.6438 14.4946 16.75 13.5 16.75H8.5C7.50536 16.75 6.58318 16.6438 5.96967 16.0303C5.35616 15.4168 5.25 14.4946 5.25 13.5V12.5C5.25 11.5054 5.35616 10.5832 5.96967 9.96967Z" fill="#101010"/>
<path fill-rule="evenodd" clip-rule="evenodd" d="M11 1.75C5.89137 1.75 1.75 5.89137 1.75 11C1.75 16.1086 5.89137 20.25 11 20.25C16.1086 20.25 20.25 16.1086 20.25 11C20.25 5.89137 16.1086 1.75 11 1.75ZM0.25 11C0.25 5.06294 5.06294 0.25 11 0.25C16.9371 0.25 21.75 5.06294 21.75 11C21.75 16.9371 16.9371 21.75 11 21.75C5.06294 21.75 0.25 16.9371 0.25 11Z" fill="#101010"/>
</svg>
