<svg width="18" height="18" viewBox="0 0 18 18" fill="none" xmlns="http://www.w3.org/2000/svg">
<path fill-rule="evenodd" clip-rule="evenodd" d="M13.9091 5.96967C14.202 5.67678 14.6769 5.67678 14.9698 5.96967L17.5298 8.52967C17.8227 8.82256 17.8227 9.29744 17.5298 9.59033L14.9698 12.1503C14.6769 12.4432 14.202 12.4432 13.9091 12.1503C13.6162 11.8574 13.6162 11.3826 13.9091 11.0897L15.9388 9.06L13.9091 7.03033C13.6162 6.73744 13.6162 6.26256 13.9091 5.96967Z" fill="#101010"/>
<path fill-rule="evenodd" clip-rule="evenodd" d="M6.00977 9.06C6.00977 8.64578 6.34555 8.31 6.75977 8.31H16.9298C17.344 8.31 17.6798 8.64578 17.6798 9.06C17.6798 9.47421 17.344 9.81 16.9298 9.81H6.75977C6.34555 9.81 6.00977 9.47421 6.00977 9.06Z" fill="#101010"/>
<path fill-rule="evenodd" clip-rule="evenodd" d="M3.6188 3.66877C2.33237 4.89078 1.50977 6.68843 1.50977 9C1.50977 11.3116 2.33237 13.1092 3.6188 14.3312C4.91118 15.5589 6.71915 16.25 8.75977 16.25C9.17398 16.25 9.50977 16.5858 9.50977 17C9.50977 17.4142 9.17398 17.75 8.75977 17.75C6.38038 17.75 4.18835 16.9411 2.58573 15.4188C0.977163 13.8908 0.00976562 11.6884 0.00976562 9C0.00976562 6.31157 0.977163 4.10922 2.58573 2.58123C4.18835 1.05888 6.38038 0.25 8.75977 0.25C9.17398 0.25 9.50977 0.585786 9.50977 1C9.50977 1.41421 9.17398 1.75 8.75977 1.75C6.71915 1.75 4.91118 2.44112 3.6188 3.66877Z" fill="#101010"/>
</svg>
