<svg width="22" height="22" viewBox="0 0 22 22" fill="none" xmlns="http://www.w3.org/2000/svg">
<path fill-rule="evenodd" clip-rule="evenodd" d="M15.1035 1.81018C14.9376 1.72299 14.5098 1.66986 13.7794 2.19788L10.7015 4.41635C10.3672 4.66181 9.95113 4.79918 9.56834 4.85771C9.18272 4.91667 8.7485 4.90827 8.36141 4.7844L8.35571 4.78257L5.4062 3.81271C4.58662 3.54398 4.19685 3.71548 4.05718 3.85351C3.91657 3.99248 3.74008 4.38225 3.99607 5.20707C3.99613 5.20726 3.99601 5.20688 3.99607 5.20707L5.00533 8.43486C5.0054 8.4351 5.00525 8.43462 5.00533 8.43486C5.1389 8.85972 5.12738 9.33138 5.04141 9.74054C4.9553 10.1504 4.77664 10.5843 4.48845 10.9192L2.50941 13.2182C2.50924 13.2184 2.50957 13.218 2.50941 13.2182C1.7731 14.0774 1.82428 14.5394 1.88693 14.667C1.94974 14.7949 2.28368 15.1177 3.41236 15.061L6.75182 14.8911C7.2159 14.8679 7.68897 15.0044 8.0812 15.2085C8.47324 15.4126 8.85993 15.7231 9.10831 16.1264C9.10843 16.1266 9.10819 16.1262 9.10831 16.1264L10.868 18.9759C10.868 18.976 10.868 18.9759 10.868 18.9759C11.4636 19.9401 11.9181 20.0294 12.0569 20.0084C12.197 19.9873 12.6061 19.7663 12.8945 18.6697C12.8945 18.6696 12.8945 18.6698 12.8945 18.6697L13.6632 15.7351C13.6634 15.7341 13.6636 15.7332 13.6639 15.7322C13.7747 15.2995 14.0344 14.9054 14.3234 14.6038C14.6134 14.301 14.9944 14.027 15.4148 13.8947L18.6441 12.8849C18.6444 12.8848 18.6438 12.885 18.6441 12.8849C19.4694 12.6241 19.6908 12.2559 19.725 12.0607C19.7588 11.8674 19.6782 11.4495 18.9882 10.9287L18.9869 10.9277L16.5102 9.05027C16.1771 8.80295 15.9226 8.44446 15.7537 8.09567C15.5837 7.74472 15.4622 7.32439 15.4701 6.91564L15.5401 3.12624C15.5577 2.22322 15.2704 1.89793 15.1035 1.81018ZM17.0398 3.15394C17.062 2.00726 16.7043 0.957123 15.8015 0.482476C14.8975 0.00723942 13.8305 0.310179 12.9011 0.981916C12.9012 0.981804 12.9009 0.982028 12.9011 0.981916L9.82143 3.20164L9.81458 3.20664C9.72956 3.26939 9.56234 3.34119 9.34162 3.37494C9.12367 3.40827 8.93396 3.3921 8.82079 3.35647L5.87425 2.3876C4.80417 2.03657 3.71808 2.0797 3.00278 2.78663C2.28844 3.49262 2.22998 4.57769 2.56373 5.65248L3.57455 8.88529C3.61074 9.00025 3.62245 9.19899 3.57347 9.4321C3.52459 9.66474 3.43325 9.8458 3.35144 9.94088L1.37156 12.2408L1.37052 12.242C0.54735 13.2024 0.0556624 14.3408 0.540502 15.3282C1.0252 16.3152 2.22627 16.6225 3.48758 16.5591L6.82739 16.3892C6.96331 16.3824 7.1709 16.4258 7.38867 16.5391C7.60643 16.6524 7.75956 16.7967 7.83119 16.9131L9.59181 19.7641C10.2563 20.8399 11.1918 21.6558 12.2805 21.4917C13.3679 21.3278 14.0237 20.2739 14.3453 19.0508L15.1155 16.1101L15.1168 16.1051C15.1464 15.989 15.2412 15.8141 15.4066 15.6414C15.5714 15.4693 15.7452 15.3633 15.8648 15.3256C15.8647 15.3256 15.8649 15.3255 15.8648 15.3256L19.0938 14.3159L19.0958 14.3153C20.1699 13.9761 21.0292 13.3092 21.2025 12.3194C21.3761 11.3281 20.7922 10.4113 19.8928 9.73216C19.8924 9.73191 19.8921 9.73166 19.8918 9.73142L17.4131 7.8524L17.4054 7.84665C17.3206 7.78407 17.2016 7.64417 17.1037 7.44197C17.0061 7.24042 16.9677 7.05574 16.9698 6.94448L17.0398 3.15394C17.0398 3.15368 17.0398 3.1542 17.0398 3.15394Z" fill="#101010"/>
<path fill-rule="evenodd" clip-rule="evenodd" d="M17.3496 17.4396C17.6425 17.1467 18.1173 17.1467 18.4102 17.4396L21.4402 20.4696C21.7331 20.7625 21.7331 21.2374 21.4402 21.5303C21.1473 21.8232 20.6724 21.8232 20.3795 21.5303L17.3496 18.5003C17.0567 18.2074 17.0567 17.7325 17.3496 17.4396Z" fill="#101010"/>
</svg>
