<svg width="20" height="21" viewBox="0 0 20 21" fill="none" xmlns="http://www.w3.org/2000/svg">
<path fill-rule="evenodd" clip-rule="evenodd" d="M13.9701 2.96967C15.093 1.84678 16.9079 1.84678 18.0308 2.96967C19.1537 4.09256 19.1537 5.90744 18.0308 7.03033L5.03076 20.0303C3.90787 21.1532 2.09299 21.1532 0.9701 20.0303C-0.152794 18.9074 -0.152794 17.0926 0.9701 15.9697L13.9701 2.96967ZM16.9701 4.03033C16.433 3.49322 15.5679 3.49322 15.0308 4.03033L2.03076 17.0303C1.49365 17.5674 1.49365 18.4326 2.03076 18.9697C2.56787 19.5068 3.43299 19.5068 3.9701 18.9697L16.9701 5.96967C17.5072 5.43256 17.5072 4.56744 16.9701 4.03033Z" fill="#101010"/>
<path fill-rule="evenodd" clip-rule="evenodd" d="M12.4804 4.45967C12.7733 4.16678 13.2482 4.16678 13.5411 4.45967L16.5411 7.45967C16.834 7.75256 16.834 8.22744 16.5411 8.52033C16.2482 8.81322 15.7733 8.81322 15.4804 8.52033L12.4804 5.52033C12.1875 5.22744 12.1875 4.75256 12.4804 4.45967Z" fill="#101010"/>
<path fill-rule="evenodd" clip-rule="evenodd" d="M4.64646 0.646447C4.77575 0.517157 4.9653 0.46875 5.14075 0.520215L6.50001 0.918933L7.85928 0.520215C8.03473 0.46875 8.22428 0.517157 8.35357 0.646447C8.48286 0.775736 8.53126 0.965286 8.4798 1.14074L8.08108 2.5L8.4798 3.85926C8.53126 4.03471 8.48286 4.22426 8.35357 4.35355C8.22428 4.48284 8.03473 4.53125 7.85928 4.47978L6.50001 4.08107L5.14075 4.47978C4.9653 4.53125 4.77575 4.48284 4.64646 4.35355C4.51717 4.22426 4.46876 4.03471 4.52023 3.85926L4.91895 2.5L4.52023 1.14074C4.46876 0.965287 4.51717 0.775736 4.64646 0.646447ZM5.73737 1.73736L5.9198 2.35926C5.94675 2.45115 5.94675 2.54885 5.9198 2.64074L5.73737 3.26264L6.35928 3.08022C6.45116 3.05326 6.54886 3.05326 6.64075 3.08022L7.26265 3.26264L7.08023 2.64074C7.05327 2.54885 7.05327 2.45115 7.08023 2.35926L7.26265 1.73736L6.64075 1.91978C6.54886 1.94674 6.45116 1.94674 6.35928 1.91978L5.73737 1.73736Z" fill="#101010"/>
<path fill-rule="evenodd" clip-rule="evenodd" d="M0.646459 6.64645C0.775748 6.51716 0.965299 6.46875 1.14075 6.52022L2.50001 6.91893L3.85928 6.52022C4.03473 6.46875 4.22428 6.51716 4.35357 6.64645C4.48286 6.77574 4.53126 6.96529 4.4798 7.14074L4.08108 8.5L4.4798 9.85926C4.53126 10.0347 4.48286 10.2243 4.35357 10.3536C4.22428 10.4828 4.03473 10.5313 3.85928 10.4798L2.50001 10.0811L1.14075 10.4798C0.965299 10.5313 0.775748 10.4828 0.646459 10.3536C0.51717 10.2243 0.468762 10.0347 0.520228 9.85926L0.918945 8.5L0.520228 7.14074C0.468762 6.96529 0.51717 6.77574 0.646459 6.64645ZM1.73737 7.73736L1.9198 8.35926C1.94675 8.45115 1.94675 8.54885 1.9198 8.64074L1.73737 9.26264L2.35928 9.08022C2.45116 9.05326 2.54886 9.05326 2.64075 9.08022L3.26265 9.26264L3.08023 8.64074C3.05327 8.54885 3.05327 8.45115 3.08023 8.35926L3.26265 7.73736L2.64075 7.91979C2.54886 7.94674 2.45116 7.94674 2.35928 7.91979L1.73737 7.73736Z" fill="#101010"/>
<path fill-rule="evenodd" clip-rule="evenodd" d="M15.6465 11.6464C15.7757 11.5172 15.9653 11.4688 16.1407 11.5202L17.5 11.9189L18.8593 11.5202C19.0347 11.4688 19.2243 11.5172 19.3536 11.6464C19.4829 11.7757 19.5313 11.9653 19.4798 12.1407L19.0811 13.5L19.4798 14.8593C19.5313 15.0347 19.4829 15.2243 19.3536 15.3536C19.2243 15.4828 19.0347 15.5313 18.8593 15.4798L17.5 15.0811L16.1407 15.4798C15.9653 15.5313 15.7757 15.4828 15.6465 15.3536C15.5172 15.2243 15.4688 15.0347 15.5202 14.8593L15.9189 13.5L15.5202 12.1407C15.4688 11.9653 15.5172 11.7757 15.6465 11.6464ZM16.7374 12.7374L16.9198 13.3593C16.9468 13.4512 16.9468 13.5488 16.9198 13.6407L16.7374 14.2626L17.3593 14.0802C17.4512 14.0533 17.5489 14.0533 17.6407 14.0802L18.2627 14.2626L18.0802 13.6407C18.0533 13.5488 18.0533 13.4512 18.0802 13.3593L18.2627 12.7374L17.6407 12.9198C17.5489 12.9467 17.4512 12.9467 17.3593 12.9198L16.7374 12.7374Z" fill="#101010"/>
</svg>
