<svg width="22" height="22" viewBox="0 0 22 22" fill="none" xmlns="http://www.w3.org/2000/svg">
<path fill-rule="evenodd" clip-rule="evenodd" d="M9.25 5.75C5.38401 5.75 2.25 8.88401 2.25 12.75C2.25 16.616 5.38401 19.75 9.25 19.75C13.116 19.75 16.25 16.616 16.25 12.75C16.25 8.88401 13.116 5.75 9.25 5.75ZM0.75 12.75C0.75 8.05558 4.55558 4.25 9.25 4.25C13.9444 4.25 17.75 8.05558 17.75 12.75C17.75 17.4444 13.9444 21.25 9.25 21.25C4.55558 21.25 0.75 17.4444 0.75 12.75Z" fill="#101010"/>
<path fill-rule="evenodd" clip-rule="evenodd" d="M21.0303 0.96967C21.3232 1.26256 21.3232 1.73744 21.0303 2.03033L15.5303 7.53033C15.2374 7.82322 14.7626 7.82322 14.4697 7.53033C14.1768 7.23744 14.1768 6.76256 14.4697 6.46967L19.9697 0.96967C20.2626 0.676777 20.7374 0.676777 21.0303 0.96967Z" fill="#101010"/>
<path fill-rule="evenodd" clip-rule="evenodd" d="M13.25 1.5C13.25 1.08579 13.5858 0.75 14 0.75H20.5C20.9142 0.75 21.25 1.08579 21.25 1.5V8C21.25 8.41421 20.9142 8.75 20.5 8.75C20.0858 8.75 19.75 8.41421 19.75 8V2.25H14C13.5858 2.25 13.25 1.91421 13.25 1.5Z" fill="#101010"/>
</svg>
