<svg width="22" height="22" viewBox="0 0 22 22" fill="none" xmlns="http://www.w3.org/2000/svg">
<path fill-rule="evenodd" clip-rule="evenodd" d="M11 1.75C5.89421 1.75 1.75 5.89421 1.75 11C1.75 13.2832 2.57796 15.3734 3.95136 16.988L16.988 3.95136C15.3734 2.57796 13.2832 1.75 11 1.75ZM0.25 11C0.25 5.06579 5.06579 0.25 11 0.25C13.9671 0.25 16.6556 1.45492 18.6003 3.39967C18.741 3.54032 18.82 3.73109 18.82 3.93C18.82 4.12891 18.741 4.31968 18.6003 4.46033L4.46032 18.6003C4.16743 18.8932 3.69256 18.8932 3.39966 18.6003C1.45491 16.6556 0.25 13.9671 0.25 11Z" fill="#101010"/>
<path fill-rule="evenodd" clip-rule="evenodd" d="M17.5394 3.39966C17.8323 3.10677 18.3071 3.10677 18.6 3.39966C20.5448 5.34441 21.7497 8.03288 21.7497 11C21.7497 16.9342 16.9339 21.75 10.9997 21.75C8.03259 21.75 5.34411 20.5451 3.39936 18.6003C3.25871 18.4597 3.17969 18.2689 3.17969 18.07C3.17969 17.8711 3.25871 17.6803 3.39936 17.5397L17.5394 3.39966ZM5.01171 18.0486C6.62629 19.422 8.71646 20.25 10.9997 20.25C16.1055 20.25 20.2497 16.1058 20.2497 11C20.2497 8.71676 19.4217 6.62659 18.0483 5.01201L5.01171 18.0486Z" fill="#101010"/>
<path fill-rule="evenodd" clip-rule="evenodd" d="M6.22991 14.7092C6.52306 14.4166 6.99793 14.417 7.29057 14.7101L12.9405 20.3701C13.2332 20.6633 13.2327 21.1382 12.9396 21.4308C12.6464 21.7234 12.1716 21.723 11.8789 21.4299L6.22896 15.7698C5.93633 15.4767 5.93675 15.0018 6.22991 14.7092Z" fill="#101010"/>
<path fill-rule="evenodd" clip-rule="evenodd" d="M9.75931 11.1801C10.052 10.8869 10.5268 10.8866 10.82 11.1793L17.4 17.7493C17.6931 18.0419 17.6935 18.5168 17.4008 18.8099C17.1081 19.103 16.6332 19.1034 16.3401 18.8107L9.76011 12.2407C9.467 11.9481 9.46664 11.4732 9.75931 11.1801Z" fill="#101010"/>
<path fill-rule="evenodd" clip-rule="evenodd" d="M13.3002 7.63923C13.5933 7.34657 14.0682 7.34695 14.3608 7.64008L20.6508 13.9401C20.9435 14.2332 20.9431 14.7081 20.65 15.0007C20.3568 15.2934 19.882 15.293 19.5893 14.9999L13.2993 8.69989C13.0067 8.40676 13.007 7.93189 13.3002 7.63923Z" fill="#101010"/>
</svg>
