<svg width="22" height="22" viewBox="0 0 22 22" fill="none" xmlns="http://www.w3.org/2000/svg">
<path fill-rule="evenodd" clip-rule="evenodd" d="M11 1.75C5.89137 1.75 1.75 5.89137 1.75 11C1.75 16.1086 5.89137 20.25 11 20.25C16.1086 20.25 20.25 16.1086 20.25 11C20.25 5.89137 16.1086 1.75 11 1.75ZM0.25 11C0.25 5.06294 5.06294 0.25 11 0.25C16.9371 0.25 21.75 5.06294 21.75 11C21.75 16.9371 16.9371 21.75 11 21.75C5.06294 21.75 0.25 16.9371 0.25 11Z" fill="#101010"/>
<path fill-rule="evenodd" clip-rule="evenodd" d="M10.25 6C10.25 5.58579 10.5858 5.25 11 5.25C14.1742 5.25 16.75 7.82579 16.75 11C16.75 14.1742 14.1742 16.75 11 16.75C10.5858 16.75 10.25 16.4142 10.25 16V6ZM11.75 6.81608V15.1839C13.7386 14.8293 15.25 13.0899 15.25 11C15.25 8.9101 13.7386 7.17069 11.75 6.81608Z" fill="#101010"/>
<path fill-rule="evenodd" clip-rule="evenodd" d="M10.25 6.81608C8.26143 7.17069 6.75 8.9101 6.75 11C6.75 13.0899 8.26143 14.8293 10.25 15.1839V6.81608ZM5.25 11C5.25 7.82579 7.82579 5.25 11 5.25C11.4142 5.25 11.75 5.58579 11.75 6V16C11.75 16.4142 11.4142 16.75 11 16.75C7.82579 16.75 5.25 14.1742 5.25 11Z" fill="#101010"/>
<path fill-rule="evenodd" clip-rule="evenodd" d="M11 15.25C11.4142 15.25 11.75 15.5858 11.75 16V21C11.75 21.4142 11.4142 21.75 11 21.75C10.5858 21.75 10.25 21.4142 10.25 21V16C10.25 15.5858 10.5858 15.25 11 15.25Z" fill="#101010"/>
<path fill-rule="evenodd" clip-rule="evenodd" d="M11 0.25C11.4142 0.25 11.75 0.585786 11.75 1V6C11.75 6.41421 11.4142 6.75 11 6.75C10.5858 6.75 10.25 6.41421 10.25 6V1C10.25 0.585786 10.5858 0.25 11 0.25Z" fill="#101010"/>
</svg>
