<svg width="22" height="22" viewBox="0 0 22 22" fill="none" xmlns="http://www.w3.org/2000/svg">
<path fill-rule="evenodd" clip-rule="evenodd" d="M2.09662 2.09467C3.43109 0.760201 5.42798 0.25 8.00195 0.25H14.002C16.5759 0.25 18.5728 0.760201 19.9073 2.09467C21.2418 3.42914 21.752 5.42603 21.752 8V14C21.752 16.574 21.2418 18.5709 19.9073 19.9053C18.5728 21.2398 16.5759 21.75 14.002 21.75H8.00195C5.42798 21.75 3.43109 21.2398 2.09662 19.9053C0.762154 18.5709 0.251953 16.574 0.251953 14V8C0.251953 5.42603 0.762154 3.42914 2.09662 2.09467ZM3.15728 3.15533C2.24175 4.07086 1.75195 5.57397 1.75195 8V14C1.75195 16.426 2.24175 17.9291 3.15728 18.8447C4.07281 19.7602 5.57593 20.25 8.00195 20.25H14.002C16.428 20.25 17.9311 19.7602 18.8466 18.8447C19.7622 17.9291 20.252 16.426 20.252 14V8C20.252 5.57397 19.7622 4.07086 18.8466 3.15533C17.9311 2.2398 16.428 1.75 14.002 1.75H8.00195C5.57593 1.75 4.07281 2.2398 3.15728 3.15533Z" fill="#101010"/>
<path fill-rule="evenodd" clip-rule="evenodd" d="M17.5323 4.46967C17.8252 4.76256 17.8252 5.23744 17.5323 5.53033L5.53228 17.5303C5.23939 17.8232 4.76452 17.8232 4.47162 17.5303C4.17873 17.2374 4.17873 16.7626 4.47162 16.4697L16.4716 4.46967C16.7645 4.17678 17.2394 4.17678 17.5323 4.46967Z" fill="#101010"/>
<path fill-rule="evenodd" clip-rule="evenodd" d="M12.252 5C12.252 4.58579 12.5877 4.25 13.002 4.25H17.002C17.4162 4.25 17.752 4.58579 17.752 5V9C17.752 9.41421 17.4162 9.75 17.002 9.75C16.5877 9.75 16.252 9.41421 16.252 9V5.75H13.002C12.5877 5.75 12.252 5.41421 12.252 5Z" fill="#101010"/>
<path fill-rule="evenodd" clip-rule="evenodd" d="M5.00195 12.25C5.41617 12.25 5.75195 12.5858 5.75195 13V16.25H9.00195C9.41617 16.25 9.75195 16.5858 9.75195 17C9.75195 17.4142 9.41617 17.75 9.00195 17.75H5.00195C4.58774 17.75 4.25195 17.4142 4.25195 17V13C4.25195 12.5858 4.58774 12.25 5.00195 12.25Z" fill="#101010"/>
<path fill-rule="evenodd" clip-rule="evenodd" d="M4.47162 4.46967C4.76452 4.17678 5.23939 4.17678 5.53228 4.46967L17.5323 16.4697C17.8252 16.7626 17.8252 17.2374 17.5323 17.5303C17.2394 17.8232 16.7645 17.8232 16.4716 17.5303L4.47162 5.53033C4.17873 5.23744 4.17873 4.76256 4.47162 4.46967Z" fill="#101010"/>
<path fill-rule="evenodd" clip-rule="evenodd" d="M4.25195 5C4.25195 4.58579 4.58774 4.25 5.00195 4.25H9.00195C9.41617 4.25 9.75195 4.58579 9.75195 5C9.75195 5.41421 9.41617 5.75 9.00195 5.75H5.75195V9C5.75195 9.41421 5.41617 9.75 5.00195 9.75C4.58774 9.75 4.25195 9.41421 4.25195 9V5Z" fill="#101010"/>
<path fill-rule="evenodd" clip-rule="evenodd" d="M17.002 12.25C17.4162 12.25 17.752 12.5858 17.752 13V17C17.752 17.4142 17.4162 17.75 17.002 17.75H13.002C12.5877 17.75 12.252 17.4142 12.252 17C12.252 16.5858 12.5877 16.25 13.002 16.25H16.252V13C16.252 12.5858 16.5877 12.25 17.002 12.25Z" fill="#101010"/>
</svg>
