<svg width="22" height="22" viewBox="0 0 22 22" fill="none" xmlns="http://www.w3.org/2000/svg">
<path fill-rule="evenodd" clip-rule="evenodd" d="M5.5 1.75C3.42421 1.75 1.75 3.42421 1.75 5.5V8C1.75 8.41421 1.41421 8.75 1 8.75C0.585786 8.75 0.25 8.41421 0.25 8V5.5C0.25 2.59579 2.59579 0.25 5.5 0.25H8C8.41421 0.25 8.75 0.585786 8.75 1C8.75 1.41421 8.41421 1.75 8 1.75H5.5Z" fill="#101010"/>
<path fill-rule="evenodd" clip-rule="evenodd" d="M13.25 1C13.25 0.585786 13.5858 0.25 14 0.25H16.5C19.4042 0.25 21.75 2.59579 21.75 5.5V8C21.75 8.41421 21.4142 8.75 21 8.75C20.5858 8.75 20.25 8.41421 20.25 8V5.5C20.25 3.42421 18.5758 1.75 16.5 1.75H14C13.5858 1.75 13.25 1.41421 13.25 1Z" fill="#101010"/>
<path fill-rule="evenodd" clip-rule="evenodd" d="M21 14.25C21.4142 14.25 21.75 14.5858 21.75 15V16.5C21.75 19.4042 19.4042 21.75 16.5 21.75H15C14.5858 21.75 14.25 21.4142 14.25 21C14.25 20.5858 14.5858 20.25 15 20.25H16.5C18.5758 20.25 20.25 18.5758 20.25 16.5V15C20.25 14.5858 20.5858 14.25 21 14.25Z" fill="#101010"/>
<path fill-rule="evenodd" clip-rule="evenodd" d="M1 13.25C1.41421 13.25 1.75 13.5858 1.75 14V16.5C1.75 18.5758 3.42421 20.25 5.5 20.25H8C8.41421 20.25 8.75 20.5858 8.75 21C8.75 21.4142 8.41421 21.75 8 21.75H5.5C2.59579 21.75 0.25 19.4042 0.25 16.5V14C0.25 13.5858 0.585786 13.25 1 13.25Z" fill="#101010"/>
</svg>
