<svg width="20" height="20" viewBox="0 0 20 20" fill="none" xmlns="http://www.w3.org/2000/svg">
<path fill-rule="evenodd" clip-rule="evenodd" d="M12.25 1C12.25 0.585786 12.5858 0.25 13 0.25H19C19.4142 0.25 19.75 0.585786 19.75 1V7C19.75 7.41421 19.4142 7.75 19 7.75C18.5858 7.75 18.25 7.41421 18.25 7V1.75H13C12.5858 1.75 12.25 1.41421 12.25 1Z" fill="#101010"/>
<path fill-rule="evenodd" clip-rule="evenodd" d="M1 12.25C1.41421 12.25 1.75 12.5858 1.75 13V18.25H7C7.41421 18.25 7.75 18.5858 7.75 19C7.75 19.4142 7.41421 19.75 7 19.75H1C0.585786 19.75 0.25 19.4142 0.25 19V13C0.25 12.5858 0.585786 12.25 1 12.25Z" fill="#101010"/>
<path fill-rule="evenodd" clip-rule="evenodd" d="M19.5303 0.46967C19.8232 0.762563 19.8232 1.23744 19.5303 1.53033L12.0303 9.03033C11.7374 9.32322 11.2626 9.32322 10.9697 9.03033C10.6768 8.73744 10.6768 8.26256 10.9697 7.96967L18.4697 0.46967C18.7626 0.176777 19.2374 0.176777 19.5303 0.46967Z" fill="#101010"/>
<path fill-rule="evenodd" clip-rule="evenodd" d="M9.03033 10.9697C9.32322 11.2626 9.32322 11.7374 9.03033 12.0303L1.53033 19.5303C1.23744 19.8232 0.762563 19.8232 0.46967 19.5303C0.176777 19.2374 0.176777 18.7626 0.46967 18.4697L7.96967 10.9697C8.26256 10.6768 8.73744 10.6768 9.03033 10.9697Z" fill="#101010"/>
</svg>
