<svg width="22" height="22" viewBox="0 0 22 22" fill="none" xmlns="http://www.w3.org/2000/svg">
<path fill-rule="evenodd" clip-rule="evenodd" d="M3.15533 3.15533C2.2398 4.07086 1.75 5.57397 1.75 8V8.98C1.75 9.39421 1.41421 9.73 1 9.73C0.585786 9.73 0.25 9.39421 0.25 8.98V8C0.25 5.42603 0.760201 3.42914 2.09467 2.09467C3.42914 0.760201 5.42603 0.25 8 0.25H14C16.574 0.25 18.5709 0.760201 19.9053 2.09467C21.2398 3.42914 21.75 5.42603 21.75 8V14C21.75 16.574 21.2398 18.5709 19.9053 19.9053C18.5709 21.2398 16.574 21.75 14 21.75H13C12.5858 21.75 12.25 21.4142 12.25 21C12.25 20.5858 12.5858 20.25 13 20.25H14C16.426 20.25 17.9291 19.7602 18.8447 18.8447C19.7602 17.9291 20.25 16.426 20.25 14V8C20.25 5.57397 19.7602 4.07086 18.8447 3.15533C17.9291 2.2398 16.426 1.75 14 1.75H8C5.57397 1.75 4.07086 2.2398 3.15533 3.15533Z" fill="#101010"/>
<path fill-rule="evenodd" clip-rule="evenodd" d="M12.25 4.98001C12.25 4.5658 12.5858 4.23001 13 4.23001H17.01C17.3132 4.23001 17.5866 4.41258 17.7028 4.69265C17.8189 4.97273 17.755 5.2952 17.5409 5.50981L12.5309 10.5298C12.2383 10.823 11.7634 10.8235 11.4702 10.5309C11.177 10.2383 11.1765 9.76339 11.4691 9.47021L15.2019 5.73001H13C12.5858 5.73001 12.25 5.39422 12.25 4.98001Z" fill="#101010"/>
<path fill-rule="evenodd" clip-rule="evenodd" d="M17.0098 4.23001C17.424 4.23001 17.7598 4.5658 17.7598 4.98001V8.99001C17.7598 9.40422 17.424 9.74001 17.0098 9.74001C16.5956 9.74001 16.2598 9.40422 16.2598 8.99001V4.98001C16.2598 4.5658 16.5956 4.23001 17.0098 4.23001Z" fill="#101010"/>
<path fill-rule="evenodd" clip-rule="evenodd" d="M2.26158 13.2616C1.9648 13.5584 1.75 14.099 1.75 15.15V17.85C1.75 18.901 1.9648 19.4416 2.26158 19.7384C2.55836 20.0352 3.09897 20.25 4.15 20.25H6.85C7.90103 20.25 8.44164 20.0352 8.73842 19.7384C9.0352 19.4416 9.25 18.901 9.25 17.85V15.15C9.25 14.099 9.0352 13.5584 8.73842 13.2616C8.44164 12.9648 7.90103 12.75 6.85 12.75H4.15C3.09897 12.75 2.55836 12.9648 2.26158 13.2616ZM1.20092 12.2009C1.91664 11.4852 2.95103 11.25 4.15 11.25H6.85C8.04897 11.25 9.08336 11.4852 9.79908 12.2009C10.5148 12.9166 10.75 13.951 10.75 15.15V17.85C10.75 19.049 10.5148 20.0834 9.79908 20.7991C9.08336 21.5148 8.04897 21.75 6.85 21.75H4.15C2.95103 21.75 1.91664 21.5148 1.20092 20.7991C0.485201 20.0834 0.25 19.049 0.25 17.85V15.15C0.25 13.951 0.485201 12.9166 1.20092 12.2009Z" fill="#101010"/>
</svg>
