<svg width="16" height="22" viewBox="0 0 16 22" fill="none" xmlns="http://www.w3.org/2000/svg">
<path fill-rule="evenodd" clip-rule="evenodd" d="M8 1.75C4.65936 1.75 2 4.35079 2 7.5C2 10.6492 4.65936 13.25 8 13.25C11.3406 13.25 14 10.6492 14 7.5C14 4.35079 11.3406 1.75 8 1.75ZM0.5 7.5C0.5 3.46951 3.88479 0.25 8 0.25C12.1152 0.25 15.5 3.46951 15.5 7.5C15.5 11.5305 12.1152 14.75 8 14.75C3.88479 14.75 0.5 11.5305 0.5 7.5Z" fill="#101010"/>
<path fill-rule="evenodd" clip-rule="evenodd" d="M12.5098 11.5901C12.924 11.5901 13.2598 11.9259 13.2598 12.3401V19.9001C13.2598 20.519 13.0349 21.1229 12.5165 21.4769C11.9885 21.8375 11.343 21.8117 10.7821 21.5495L10.7796 21.5483L8.08956 20.2783L8.085 20.2761C8.08281 20.2755 8.07946 20.2747 8.07487 20.2738C8.05773 20.2704 8.03325 20.2676 8.00476 20.2676C7.97627 20.2676 7.95179 20.2704 7.93465 20.2738C7.93009 20.2747 7.92676 20.2755 7.92457 20.2761L7.92093 20.2779L5.24121 21.5477C4.67652 21.8156 4.02663 21.8452 3.49583 21.4783C2.9786 21.1208 2.75977 20.5138 2.75977 19.9001L2.76975 12.5191C2.77031 12.1049 3.10655 11.7695 3.52076 11.7701C3.93497 11.7706 4.2703 12.1069 4.26974 12.5211L4.25977 19.9001C4.25977 19.9002 4.25977 19.8999 4.25977 19.9001C4.25982 20.039 4.28428 20.1299 4.30695 20.1815C4.32851 20.2305 4.34744 20.2435 4.34867 20.2443C4.35011 20.2453 4.35188 20.2464 4.35542 20.2475C4.35912 20.2486 4.36834 20.251 4.38497 20.2513C4.41855 20.252 4.4895 20.2441 4.59833 20.1925L7.27295 18.925C7.51486 18.8063 7.78244 18.7676 8.00476 18.7676C8.2269 18.7676 8.49423 18.8062 8.73598 18.9247L11.4174 20.1907C11.4178 20.1908 11.4181 20.191 11.4185 20.1912C11.5234 20.2401 11.5933 20.2479 11.6282 20.2471C11.66 20.2464 11.6693 20.2391 11.6705 20.2382C11.6727 20.2367 11.6916 20.2238 11.713 20.1761C11.7352 20.1263 11.7598 20.0377 11.7598 19.9001V12.3401C11.7598 11.9259 12.0956 11.5901 12.5098 11.5901ZM7.93517 20.2709C7.93383 20.2716 7.93258 20.2722 7.93143 20.2727L7.93517 20.2709ZM8.07435 20.2709L8.07833 20.2729C8.07711 20.2723 8.07578 20.2716 8.07435 20.2709Z" fill="#101010"/>
</svg>
