<svg width="24" height="22" viewBox="0 0 24 22" fill="none" xmlns="http://www.w3.org/2000/svg">
<path fill-rule="evenodd" clip-rule="evenodd" d="M7.44942 3.70996C6.80346 3.70996 6.22055 4.14078 6.02608 4.77115L6.02549 4.77303L1.81571 18.2922C1.81569 18.2923 1.81574 18.2922 1.81571 18.2922C1.51359 19.2664 2.24205 20.25 3.2394 20.25H16.3794C17.0781 20.25 17.6715 19.7827 17.8297 19.1166L17.8316 19.1088L21.2001 5.58498C21.2003 5.58404 21.2006 5.5831 21.2008 5.58216C21.2846 5.23065 21.2517 4.91074 21.1334 4.64309L21.1296 4.63457L21.1261 4.62596C20.9068 4.0944 20.3825 3.70996 19.7494 3.70996H7.44942ZM4.59303 4.32799C4.97885 3.07888 6.13572 2.20996 7.44942 2.20996H19.7494C21.0129 2.20996 22.0664 2.98141 22.5092 4.04543C22.7673 4.63485 22.8133 5.29079 22.6587 5.93504L22.6572 5.94128L19.2881 19.4675C18.9649 20.8193 17.7593 21.75 16.3794 21.75H3.2394C1.21684 21.75 -0.214533 19.7734 0.383118 17.8476L4.59274 4.32895C4.59284 4.32863 4.59294 4.32831 4.59303 4.32799Z" fill="#101010"/>
<path fill-rule="evenodd" clip-rule="evenodd" d="M21.9456 4.25195C22.3588 4.22192 22.718 4.53248 22.748 4.9456L23.7382 18.5678C23.8582 20.2878 22.5085 21.75 20.78 21.75H16C15.5858 21.75 15.25 21.4142 15.25 21C15.25 20.5858 15.5858 20.25 16 20.25H20.78C21.6312 20.25 22.3013 19.5327 22.2419 18.6731C22.2419 18.6728 22.2419 18.6734 22.2419 18.6731L21.252 5.05434C21.2219 4.64122 21.5325 4.28197 21.9456 4.25195Z" fill="#101010"/>
<path fill-rule="evenodd" clip-rule="evenodd" d="M10.8954 0.330881C11.2981 0.427831 11.546 0.832884 11.449 1.23559L10.409 5.55554C10.3121 5.95825 9.90702 6.20611 9.50432 6.10916C9.10161 6.01221 8.85374 5.60716 8.95069 5.20445L9.9907 0.884504C10.0877 0.481796 10.4927 0.233931 10.8954 0.330881Z" fill="#101010"/>
<path fill-rule="evenodd" clip-rule="evenodd" d="M17.4778 0.317019C17.8827 0.404701 18.1398 0.803959 18.0521 1.20879L17.1121 5.54875C17.0244 5.95358 16.6251 6.21067 16.2203 6.12299C15.8155 6.03531 15.5584 5.63605 15.6461 5.23123L16.5861 0.89126C16.6737 0.486433 17.073 0.229337 17.4778 0.317019Z" fill="#101010"/>
<path fill-rule="evenodd" clip-rule="evenodd" d="M6.94922 11C6.94922 10.5858 7.28501 10.25 7.69922 10.25H15.6992C16.1134 10.25 16.4492 10.5858 16.4492 11C16.4492 11.4142 16.1134 11.75 15.6992 11.75H7.69922C7.28501 11.75 6.94922 11.4142 6.94922 11Z" fill="#101010"/>
<path fill-rule="evenodd" clip-rule="evenodd" d="M5.94922 15C5.94922 14.5858 6.28501 14.25 6.69922 14.25H14.6992C15.1134 14.25 15.4492 14.5858 15.4492 15C15.4492 15.4142 15.1134 15.75 14.6992 15.75H6.69922C6.28501 15.75 5.94922 15.4142 5.94922 15Z" fill="#101010"/>
</svg>
