<svg width="22" height="22" viewBox="0 0 22 22" fill="none" xmlns="http://www.w3.org/2000/svg">
<path fill-rule="evenodd" clip-rule="evenodd" d="M3.03033 3.03033C2.22059 3.84007 1.75 5.11561 1.75 7V12C1.75 14.4353 2.24367 15.6541 2.99388 16.3106C3.76886 16.9887 5.01326 17.25 7 17.25H7.5C7.78282 17.25 8.05796 17.3383 8.27436 17.4455C8.48803 17.5515 8.7297 17.7182 8.90264 17.9535L10.4 19.95C10.6092 20.2289 10.8337 20.31 11 20.31C11.1663 20.31 11.3908 20.2289 11.6 19.95L13.1 17.95L13.1029 17.9462C13.4325 17.5124 13.9521 17.25 14.5 17.25H15C16.8844 17.25 18.1599 16.7794 18.9697 15.9697C19.7794 15.1599 20.25 13.8844 20.25 12V7C20.25 5.11561 19.7794 3.84007 18.9697 3.03033C18.1599 2.22059 16.8844 1.75 15 1.75H7C5.11561 1.75 3.84007 2.22059 3.03033 3.03033ZM1.96967 1.96967C3.15993 0.77941 4.88439 0.25 7 0.25H15C17.1156 0.25 18.8401 0.77941 20.0303 1.96967C21.2206 3.15993 21.75 4.88439 21.75 7V12C21.75 14.1156 21.2206 15.8401 20.0303 17.0303C18.8401 18.2206 17.1156 18.75 15 18.75H14.5C14.4284 18.75 14.3486 18.7871 14.2982 18.8524C14.2978 18.8529 14.2975 18.8534 14.2971 18.8538L12.8 20.85C12.3492 21.4511 11.7037 21.81 11 21.81C10.2963 21.81 9.65084 21.4511 9.2 20.85L7.69876 18.8484C7.69654 18.8462 7.69203 18.8422 7.6847 18.8365C7.66662 18.8224 7.64037 18.8054 7.60814 18.7895C7.57598 18.7735 7.54532 18.7622 7.52072 18.7556C7.50625 18.7517 7.49766 18.7504 7.49494 18.75H7C4.98674 18.75 3.23114 18.5113 2.00612 17.4394C0.756333 16.3459 0.25 14.5647 0.25 12V7C0.25 4.88439 0.77941 3.15993 1.96967 1.96967Z" fill="#101010"/>
<path fill-rule="evenodd" clip-rule="evenodd" d="M13.9966 10C13.9966 9.44772 14.4443 9 14.9966 9H15.0056C15.5578 9 16.0056 9.44772 16.0056 10C16.0056 10.5523 15.5578 11 15.0056 11H14.9966C14.4443 11 13.9966 10.5523 13.9966 10Z" fill="#101010"/>
<path fill-rule="evenodd" clip-rule="evenodd" d="M9.99561 10C9.99561 9.44772 10.4433 9 10.9956 9H11.0046C11.5569 9 12.0046 9.44772 12.0046 10C12.0046 10.5523 11.5569 11 11.0046 11H10.9956C10.4433 11 9.99561 10.5523 9.99561 10Z" fill="#101010"/>
<path fill-rule="evenodd" clip-rule="evenodd" d="M5.99463 10C5.99463 9.44772 6.44234 9 6.99463 9H7.00361C7.5559 9 8.00361 9.44772 8.00361 10C8.00361 10.5523 7.5559 11 7.00361 11H6.99463C6.44234 11 5.99463 10.5523 5.99463 10Z" fill="#101010"/>
</svg>
