<svg width="22" height="22" viewBox="0 0 22 22" fill="none" xmlns="http://www.w3.org/2000/svg">
<path fill-rule="evenodd" clip-rule="evenodd" d="M5.79001 5.75C5.54768 5.75 5.33123 5.75944 5.13303 5.78422C5.12334 5.78543 5.11363 5.78645 5.1039 5.78728C3.89531 5.89062 3.09368 6.28721 2.58266 6.8883C2.06344 7.49903 1.75 8.43122 1.75 9.79001V13.79C1.75 15.7255 2.14374 16.6413 2.69207 17.1201C3.2656 17.6209 4.20732 17.83 5.79001 17.83H6.19C6.45271 17.83 6.69761 17.9137 6.88205 18.0069C7.06697 18.1003 7.27317 18.2449 7.42576 18.4444L7.43001 18.45L8.63101 20.0514C8.77703 20.247 8.91454 20.2825 8.99001 20.2825C9.06547 20.2825 9.20298 20.247 9.349 20.0514L9.35001 20.05L10.55 18.45C10.8416 18.0611 11.3039 17.83 11.79 17.83H12.19C13.55 17.83 14.482 17.5185 15.0922 17.0006C15.6925 16.4913 16.0893 15.6904 16.1927 14.4763C16.1935 14.4665 16.1946 14.4568 16.1958 14.447C16.2206 14.2488 16.23 14.0323 16.23 13.79V9.79001C16.23 8.31121 15.8597 7.33787 15.2509 6.72908C14.6421 6.12029 13.6688 5.75 12.19 5.75H5.79001ZM4.96177 4.29397C5.2387 4.26021 5.51719 4.25 5.79001 4.25H12.19C13.9012 4.25 15.3229 4.67971 16.3116 5.66842C17.3003 6.65714 17.73 8.0788 17.73 9.79001V13.79C17.73 14.0628 17.7198 14.3413 17.686 14.6182C17.5574 16.0975 17.0443 17.3114 16.0628 18.1444C15.088 18.9715 13.76 19.33 12.19 19.33H11.79C11.7848 19.33 11.7769 19.3313 11.7679 19.3358C11.759 19.3403 11.7531 19.3459 11.75 19.35L10.551 20.9486C10.5509 20.9489 10.5512 20.9484 10.551 20.9486C10.1671 21.4627 9.60928 21.7825 8.99001 21.7825C8.37073 21.7825 7.81345 21.4633 7.42948 20.9493C7.42931 20.9491 7.42964 20.9495 7.42948 20.9493L6.24465 19.3695C6.23609 19.3631 6.22253 19.3542 6.20544 19.3456C6.19004 19.3378 6.1769 19.3328 6.16804 19.33H5.79001C4.1827 19.33 2.72941 19.1441 1.70544 18.2499C0.656266 17.3338 0.25 15.8545 0.25 13.79V9.79001C0.25 8.21879 0.611563 6.89098 1.43984 5.91672C2.27363 4.93598 3.48684 4.42272 4.96177 4.29397Z" fill="#101010"/>
<path fill-rule="evenodd" clip-rule="evenodd" d="M5.92377 4.25H12.19C13.9012 4.25 15.3229 4.67971 16.3116 5.66842C17.3003 6.65714 17.73 8.0788 17.73 9.79001V13.6567C18.4787 13.4728 19.0185 13.1404 19.3978 12.695C19.9163 12.086 20.23 11.1544 20.23 9.79001V5.79001C20.23 4.31121 19.8598 3.33787 19.251 2.72908C18.6422 2.12029 17.6688 1.75 16.19 1.75H9.79004C8.43126 1.75 7.49907 2.06344 6.88833 2.58266C6.44187 2.96223 6.10823 3.50211 5.92377 4.25ZM5.91675 1.43984C6.89102 0.611563 8.21883 0.25 9.79004 0.25H16.19C17.9012 0.25 19.3229 0.67971 20.3116 1.66842C21.3003 2.65714 21.73 4.0788 21.73 5.79001V9.79001C21.73 11.3657 21.3687 12.694 20.5398 13.6675C19.7028 14.6505 18.4841 15.1607 17.0039 15.2873C16.7784 15.3066 16.5563 15.223 16.3995 15.0599C16.2426 14.8968 16.1678 14.6715 16.1958 14.447C16.2206 14.2488 16.23 14.0323 16.23 13.79V9.79001C16.23 8.31121 15.8598 7.33787 15.251 6.72908C14.6422 6.12029 13.6688 5.75 12.19 5.75H5.79004C5.54772 5.75 5.33127 5.75944 5.13307 5.78422C4.90851 5.81229 4.68329 5.73746 4.52017 5.58059C4.35705 5.42373 4.27349 5.2016 4.29277 4.97612C4.41943 3.4947 4.93284 2.27633 5.91675 1.43984Z" fill="#101010"/>
<path fill-rule="evenodd" clip-rule="evenodd" d="M11.4956 12.25C11.4956 11.6977 11.9433 11.25 12.4956 11.25H12.5046C13.0569 11.25 13.5046 11.6977 13.5046 12.25C13.5046 12.8023 13.0569 13.25 12.5046 13.25H12.4956C11.9433 13.25 11.4956 12.8023 11.4956 12.25Z" fill="#101010"/>
<path fill-rule="evenodd" clip-rule="evenodd" d="M7.99561 12.25C7.99561 11.6977 8.44332 11.25 8.99561 11.25H9.00461C9.55689 11.25 10.0046 11.6977 10.0046 12.25C10.0046 12.8023 9.55689 13.25 9.00461 13.25H8.99561C8.44332 13.25 7.99561 12.8023 7.99561 12.25Z" fill="#101010"/>
<path fill-rule="evenodd" clip-rule="evenodd" d="M4.49561 12.25C4.49561 11.6977 4.94332 11.25 5.49561 11.25H5.50461C6.05689 11.25 6.50461 11.6977 6.50461 12.25C6.50461 12.8023 6.05689 13.25 5.50461 13.25H5.49561C4.94332 13.25 4.49561 12.8023 4.49561 12.25Z" fill="#101010"/>
</svg>
