<svg width="22" height="22" viewBox="0 0 22 22" fill="none" xmlns="http://www.w3.org/2000/svg">
<path fill-rule="evenodd" clip-rule="evenodd" d="M2.90533 3.33526C2.18991 4.05068 1.75 5.10037 1.75 6.42993V12.43C1.75 13.7596 2.18991 14.8092 2.90533 15.5247C3.62075 16.2401 4.67044 16.68 6 16.68C6.41421 16.68 6.75 17.0158 6.75 17.43V19.56C6.75 19.757 6.96905 19.8759 7.13396 19.7659L7.13461 19.7655L11.5846 16.8055C11.7077 16.7237 11.8522 16.68 12 16.68H16C17.3296 16.68 18.3793 16.2401 19.0947 15.5247C19.8101 14.8092 20.25 13.7596 20.25 12.43V6.42993C20.25 5.10037 19.8101 4.05068 19.0947 3.33526C18.3793 2.61985 17.3296 2.17993 16 2.17993H6C4.67044 2.17993 3.62075 2.61985 2.90533 3.33526ZM1.84467 2.2746C2.87925 1.24002 4.32956 0.679932 6 0.679932H16C17.6704 0.679932 19.1207 1.24002 20.1553 2.2746C21.1899 3.30919 21.75 4.7595 21.75 6.42993V12.43C21.75 14.1004 21.1899 15.5507 20.1553 16.5853C19.1207 17.6199 17.6704 18.18 16 18.18H12.2267L7.96601 21.014C7.9658 21.0141 7.96558 21.0143 7.96536 21.0144M1.84467 2.2746C0.810085 3.30919 0.25 4.7595 0.25 6.42993L1.84467 2.2746ZM0.25 6.42993V12.43V6.42993ZM0.25 12.43C0.25 14.1004 0.810085 15.5507 1.84467 16.5853L0.25 12.43ZM1.84467 16.5853C2.72109 17.4617 3.89583 17.9977 5.25 18.141L1.84467 16.5853Z" fill="#101010"/>
<path fill-rule="evenodd" clip-rule="evenodd" d="M8.58984 7.5199C8.58984 6.18572 9.66557 5.10986 10.9998 5.10986C12.3341 5.10986 13.4098 6.18572 13.4098 7.5199C13.4098 8.5728 12.7176 9.12847 12.2645 9.43808C12.0701 9.57242 11.9448 9.67808 11.8636 9.78694C11.7962 9.87739 11.7498 9.98199 11.7498 10.1499V10.3599C11.7498 10.7741 11.414 11.1099 10.9998 11.1099C10.5856 11.1099 10.2498 10.7741 10.2498 10.3599V10.1499C10.2498 9.07303 10.9585 8.51702 11.4137 8.20271L11.4169 8.20053L11.4169 8.20053C11.602 8.07407 11.7232 7.97084 11.8009 7.8659C11.866 7.77804 11.9098 7.67763 11.9098 7.5199C11.9098 7.01408 11.5056 6.60986 10.9998 6.60986C10.4941 6.60986 10.0898 7.01408 10.0898 7.5199C10.0898 7.93411 9.75406 8.2699 9.33984 8.2699C8.92563 8.2699 8.58984 7.93411 8.58984 7.5199Z" fill="#101010"/>
<path fill-rule="evenodd" clip-rule="evenodd" d="M10.2456 12.75C10.2456 12.3358 10.5814 12 10.9956 12H11.0046C11.4188 12 11.7546 12.3358 11.7546 12.75C11.7546 13.1642 11.4188 13.5 11.0046 13.5H10.9956C10.5814 13.5 10.2456 13.1642 10.2456 12.75Z" fill="#101010"/>
</svg>
