<svg width="22" height="22" viewBox="0 0 22 22" fill="none" xmlns="http://www.w3.org/2000/svg">
<path fill-rule="evenodd" clip-rule="evenodd" d="M3.03033 3.00033C2.22059 3.81007 1.75 5.08561 1.75 6.97V11.97C1.75 14.4053 2.24367 15.6241 2.99388 16.2806C3.76886 16.9587 5.01326 17.22 7 17.22H7.5C7.78454 17.22 8.05809 17.3093 8.27291 17.4167C8.48906 17.5248 8.7217 17.6892 8.89345 17.9114L8.90005 17.92L8.89999 17.92L10.4 19.92C10.6091 20.1989 10.8337 20.28 11 20.28C11.1663 20.28 11.3909 20.1989 11.6 19.92C11.8485 19.5886 12.3186 19.5215 12.65 19.77C12.9814 20.0185 13.0485 20.4886 12.8 20.82C12.3492 21.4211 11.7037 21.78 11 21.78C10.2963 21.78 9.65083 21.4211 9.19999 20.82L7.70704 18.8294C7.70495 18.8272 7.69746 18.8196 7.68265 18.8081C7.66173 18.792 7.63403 18.7743 7.60208 18.7583C7.57006 18.7423 7.54047 18.7314 7.5174 18.7251C7.50495 18.7217 7.49735 18.7204 7.49456 18.72H7C4.98674 18.72 3.23114 18.4813 2.00612 17.4094C0.756333 16.3159 0.25 14.5347 0.25 11.97V6.97C0.25 4.85439 0.77941 3.12993 1.96967 1.93967C3.15993 0.749411 4.88439 0.220001 7 0.220001H15C17.1156 0.220001 18.8401 0.749411 20.0303 1.93967C21.2206 3.12993 21.75 4.85439 21.75 6.97V11.97C21.75 12.3842 21.4142 12.72 21 12.72C20.5858 12.72 20.25 12.3842 20.25 11.97V6.97C20.25 5.08561 19.7794 3.81007 18.9697 3.00033C18.1599 2.19059 16.8844 1.72 15 1.72H7C5.11561 1.72 3.84007 2.19059 3.03033 3.00033Z" fill="#101010"/>
<path fill-rule="evenodd" clip-rule="evenodd" d="M17.2 14.75C15.8469 14.75 14.75 15.8469 14.75 17.2C14.75 18.5531 15.8469 19.65 17.2 19.65C18.5531 19.65 19.65 18.5531 19.65 17.2C19.65 15.8469 18.5531 14.75 17.2 14.75ZM13.25 17.2C13.25 15.0185 15.0185 13.25 17.2 13.25C19.3815 13.25 21.15 15.0185 21.15 17.2C21.15 19.3815 19.3815 21.15 17.2 21.15C15.0185 21.15 13.25 19.3815 13.25 17.2Z" fill="#101010"/>
<path fill-rule="evenodd" clip-rule="evenodd" d="M19.4697 19.4697C19.7626 19.1768 20.2374 19.1768 20.5303 19.4697L21.5303 20.4697C21.8232 20.7626 21.8232 21.2374 21.5303 21.5303C21.2374 21.8232 20.7626 21.8232 20.4697 21.5303L19.4697 20.5303C19.1768 20.2374 19.1768 19.7626 19.4697 19.4697Z" fill="#101010"/>
<path fill-rule="evenodd" clip-rule="evenodd" d="M13.9966 10C13.9966 9.44772 14.4443 9 14.9966 9H15.0056C15.5578 9 16.0056 9.44772 16.0056 10C16.0056 10.5523 15.5578 11 15.0056 11H14.9966C14.4443 11 13.9966 10.5523 13.9966 10Z" fill="#101010"/>
<path fill-rule="evenodd" clip-rule="evenodd" d="M9.99561 10C9.99561 9.44772 10.4433 9 10.9956 9H11.0046C11.5569 9 12.0046 9.44772 12.0046 10C12.0046 10.5523 11.5569 11 11.0046 11H10.9956C10.4433 11 9.99561 10.5523 9.99561 10Z" fill="#101010"/>
<path fill-rule="evenodd" clip-rule="evenodd" d="M5.99463 10C5.99463 9.44772 6.44234 9 6.99463 9H7.00361C7.5559 9 8.00361 9.44772 8.00361 10C8.00361 10.5523 7.5559 11 7.00361 11H6.99463C6.44234 11 5.99463 10.5523 5.99463 10Z" fill="#101010"/>
</svg>
