<svg width="22" height="22" viewBox="0 0 22 22" fill="none" xmlns="http://www.w3.org/2000/svg">
<path fill-rule="evenodd" clip-rule="evenodd" d="M5.69908 2.69908C5.11491 3.28325 4.75 4.14544 4.75 5.25V7.25H11.19C12.3804 7.25 13.4308 7.65009 14.1853 8.40469C14.9399 9.15928 15.34 10.2096 15.34 11.4V15.47C15.34 15.6924 15.3268 15.9146 15.2968 16.1336L15.8512 16.4993C15.8708 16.5127 15.8843 16.515 15.8943 16.5153C15.9073 16.5157 15.9252 16.5125 15.9444 16.5021C15.9636 16.4918 15.9778 16.4777 15.9863 16.464C15.9935 16.4526 16 16.4367 16 16.41V14.6C16 14.1858 16.3358 13.85 16.75 13.85C17.8532 13.85 18.7192 13.488 19.2961 12.9032L19.3032 12.8961C19.8879 12.3191 20.25 11.4532 20.25 10.35V5.25C20.25 4.14544 19.8851 3.28325 19.3009 2.69908C18.7168 2.11491 17.8546 1.75 16.75 1.75H8.25C7.14544 1.75 6.28325 2.11491 5.69908 2.69908ZM4.63842 1.63842C5.54175 0.735085 6.80456 0.25 8.25 0.25H16.75C18.1954 0.25 19.4582 0.735085 20.3616 1.63842C21.2649 2.54175 21.75 3.80456 21.75 5.25V10.35C21.75 11.7849 21.2733 13.0575 20.3603 13.9603C19.6183 14.7107 18.6264 15.1664 17.5 15.3048V16.41C17.5 17.6758 16.0826 18.4643 15.0134 17.7437L14.047 17.106C13.7726 16.925 13.6481 16.5865 13.7397 16.2709C13.8058 16.0435 13.84 15.7763 13.84 15.47V11.4C13.84 10.5505 13.5601 9.90076 13.1247 9.46534C12.6893 9.02992 12.0396 8.75 11.19 8.75H4.39999C4.2931 8.75 4.19089 8.75755 4.05752 8.76781C3.84923 8.78383 3.64369 8.71225 3.49041 8.57031C3.33713 8.42837 3.25 8.22893 3.25 8.02002V5.25C3.25 3.80456 3.73509 2.54175 4.63842 1.63842Z" fill="#101010"/>
<path fill-rule="evenodd" clip-rule="evenodd" d="M4.06393 8.76732C3.32429 8.83767 2.75915 9.13196 2.3774 9.56028C1.99363 9.99088 1.75 10.608 1.75 11.4V15.47C1.75 16.3186 2.02934 16.9687 2.47033 17.4097C2.90017 17.8395 3.5495 18.12 4.39999 18.12C4.81421 18.12 5.14999 18.4558 5.14999 18.87V20.1787L8.05445 18.2456C8.17755 18.1637 8.32213 18.12 8.47 18.12H11.19C12.5609 18.12 13.4548 17.4012 13.7327 16.2969C13.7349 16.2882 13.7372 16.2795 13.7397 16.2709C13.8058 16.0435 13.84 15.7763 13.84 15.47V11.4C13.84 10.5505 13.5601 9.90076 13.1247 9.46534C12.6893 9.02992 12.0396 8.75 11.19 8.75H4.39999C4.29482 8.75 4.19418 8.75731 4.06393 8.76732ZM3.95199 7.2715C4.07697 7.26187 4.23119 7.25 4.39999 7.25H11.19C12.3804 7.25 13.4308 7.65009 14.1853 8.40469C14.9399 9.15928 15.34 10.2096 15.34 11.4V15.47C15.34 15.879 15.2953 16.2873 15.1841 16.676C14.718 18.5041 13.1744 19.62 11.19 19.62H8.69677L5.86974 21.5016C4.90373 22.1608 3.64999 21.4385 3.64999 20.32V19.5645C2.77047 19.431 1.99774 19.0584 1.40967 18.4703C0.650664 17.7113 0.25 16.6613 0.25 15.47V11.4C0.25 10.292 0.596373 9.30417 1.2576 8.56226C1.91985 7.81921 2.85275 7.37392 3.93025 7.27327L3.94247 7.27213L3.94248 7.27223L3.95199 7.2715Z" fill="#101010"/>
</svg>
