<svg width="22" height="22" viewBox="0 0 22 22" fill="none" xmlns="http://www.w3.org/2000/svg">
<path fill-rule="evenodd" clip-rule="evenodd" d="M1.96967 1.96967C3.15993 0.77941 4.88439 0.25 7 0.25H15C17.1156 0.25 18.8401 0.77941 20.0303 1.96967C21.2206 3.15993 21.75 4.88439 21.75 7V15C21.75 17.1156 21.2206 18.8401 20.0303 20.0303C18.8401 21.2206 17.1156 21.75 15 21.75H2C1.03579 21.75 0.25 20.9642 0.25 20V7C0.25 4.88439 0.77941 3.15993 1.96967 1.96967ZM3.03033 3.03033C2.22059 3.84007 1.75 5.11561 1.75 7V20C1.75 20.1358 1.86421 20.25 2 20.25H15C16.8844 20.25 18.1599 19.7794 18.9697 18.9697C19.7794 18.1599 20.25 16.8844 20.25 15V7C20.25 5.11561 19.7794 3.84007 18.9697 3.03033C18.1599 2.22059 16.8844 1.75 15 1.75H7C5.11561 1.75 3.84007 2.22059 3.03033 3.03033Z" fill="#101010"/>
<path fill-rule="evenodd" clip-rule="evenodd" d="M5.25 8.5C5.25 8.08579 5.58579 7.75 6 7.75H16C16.4142 7.75 16.75 8.08579 16.75 8.5C16.75 8.91421 16.4142 9.25 16 9.25H6C5.58579 9.25 5.25 8.91421 5.25 8.5Z" fill="#101010"/>
<path fill-rule="evenodd" clip-rule="evenodd" d="M5.25 13.5C5.25 13.0858 5.58579 12.75 6 12.75H13C13.4142 12.75 13.75 13.0858 13.75 13.5C13.75 13.9142 13.4142 14.25 13 14.25H6C5.58579 14.25 5.25 13.9142 5.25 13.5Z" fill="#101010"/>
</svg>
