<svg width="22" height="22" viewBox="0 0 22 22" fill="none" xmlns="http://www.w3.org/2000/svg">
<path fill-rule="evenodd" clip-rule="evenodd" d="M1.96967 1.96967C3.15993 0.77941 4.88439 0.25 7 0.25H15C17.1156 0.25 18.8401 0.77941 20.0303 1.96967C21.2206 3.15993 21.75 4.88439 21.75 7V15C21.75 17.1156 21.2206 18.8401 20.0303 20.0303C18.8401 21.2206 17.1156 21.75 15 21.75H2C1.03579 21.75 0.25 20.9642 0.25 20V7C0.25 4.88439 0.77941 3.15993 1.96967 1.96967ZM3.03033 3.03033C2.22059 3.84007 1.75 5.11561 1.75 7V20C1.75 20.1358 1.86421 20.25 2 20.25H15C16.8844 20.25 18.1599 19.7794 18.9697 18.9697C19.7794 18.1599 20.25 16.8844 20.25 15V7C20.25 5.11561 19.7794 3.84007 18.9697 3.03033C18.1599 2.22059 16.8844 1.75 15 1.75H7C5.11561 1.75 3.84007 2.22059 3.03033 3.03033Z" fill="#101010"/>
<path fill-rule="evenodd" clip-rule="evenodd" d="M6.75 11C6.75 10.5858 7.08579 10.25 7.5 10.25H14.5C14.9142 10.25 15.25 10.5858 15.25 11C15.25 11.4142 14.9142 11.75 14.5 11.75H7.5C7.08579 11.75 6.75 11.4142 6.75 11Z" fill="#101010"/>
</svg>
