<svg width="23" height="22" viewBox="0 0 23 22" fill="none" xmlns="http://www.w3.org/2000/svg">
<path fill-rule="evenodd" clip-rule="evenodd" d="M3.90533 3.33532C3.18991 4.05074 2.75 5.10043 2.75 6.42999V12.3144C3.42185 11.9535 4.18914 11.75 5 11.75C6.39654 11.75 7.66962 12.3533 8.53034 13.3315C9.28682 14.1724 9.75 15.2878 9.75 16.5C9.75 16.5602 9.74882 16.6202 9.74644 16.68H11C11.1482 16.68 11.2931 16.7239 11.4164 16.8062L15.866 19.776C15.8661 19.7761 15.8663 19.7761 15.8664 19.7762M2.84467 2.27466C3.87925 1.24008 5.32956 0.679993 7 0.679993H17C18.6704 0.679993 20.1207 1.24008 21.1553 2.27466C22.1899 3.30925 22.75 4.75956 22.75 6.42999V12.43C22.75 14.1011 22.1895 15.5511 21.1503 16.5903C20.2779 17.4628 19.1036 17.9978 17.75 18.141V19.56C17.75 20.9494 16.2004 21.8016 15.034 21.0241L15.0337 21.0238L10.7727 18.18H8.88C8.647 18.18 8.42722 18.0717 8.28526 17.8869C8.14331 17.7021 8.09529 17.4619 8.15533 17.2367C8.21801 17.0017 8.25 16.7568 8.25 16.5C8.25 15.6739 7.93451 14.9108 7.41292 14.3322L7.40637 14.3249L7.40642 14.3249C6.82718 13.6652 5.96171 13.25 5 13.25C4.08896 13.25 3.26089 13.6234 2.66745 14.2331C2.47551 14.4303 2.19097 14.5066 1.92614 14.4318C1.6613 14.357 1.45871 14.1431 1.3983 13.8747C1.29372 13.4099 1.25 12.9231 1.25 12.43V6.42999C1.25 4.75956 1.81009 3.30925 2.84467 2.27466Z" fill="#101010"/>
<path fill-rule="evenodd" clip-rule="evenodd" d="M5 13.25C4.23847 13.25 3.53157 13.5169 2.96748 13.9665L2.96618 13.9675L2.96618 13.9675C2.221 14.5588 1.75 15.4745 1.75 16.5C1.75 18.2958 3.20421 19.75 5 19.75C5.81667 19.75 6.56362 19.4439 7.14572 18.9359C7.82159 18.341 8.25 17.473 8.25 16.5C8.25 14.7042 6.79579 13.25 5 13.25ZM2.03317 12.793C2.84898 12.1429 3.88183 11.75 5 11.75C7.62421 11.75 9.75 13.8758 9.75 16.5C9.75 17.9265 9.11887 19.1981 8.13533 20.0632L8.13333 20.0649L8.13333 20.0649C7.29557 20.7965 6.20287 21.25 5 21.25C2.37579 21.25 0.25 19.1242 0.25 16.5C0.25 15.0058 0.938723 13.6617 2.03317 12.793Z" fill="#101010"/>
<path fill-rule="evenodd" clip-rule="evenodd" d="M5.25011 14.5C5.66433 14.5 6.00011 14.8358 6.00011 15.25V16.75C6.00011 17.0134 5.86189 17.2576 5.63599 17.3931L4.38599 18.1431C4.0308 18.3562 3.5701 18.2411 3.35699 17.8859C3.14388 17.5307 3.25906 17.07 3.61424 16.8569L4.50011 16.3254V15.25C4.50011 14.8358 4.8359 14.5 5.25011 14.5Z" fill="#101010"/>
<path fill-rule="evenodd" clip-rule="evenodd" d="M7.75 9.5C7.75 9.08579 8.08579 8.75 8.5 8.75H15.5C15.9142 8.75 16.25 9.08579 16.25 9.5C16.25 9.91421 15.9142 10.25 15.5 10.25H8.5C8.08579 10.25 7.75 9.91421 7.75 9.5Z" fill="#101010"/>
</svg>
