<svg width="23" height="22" viewBox="0 0 23 22" fill="none" xmlns="http://www.w3.org/2000/svg">
<path fill-rule="evenodd" clip-rule="evenodd" d="M3.90533 3.33532C3.18991 4.05074 2.75 5.10043 2.75 6.42999V12.3144C3.42185 11.9535 4.18914 11.75 5 11.75C6.39654 11.75 7.66962 12.3533 8.53034 13.3315C9.28682 14.1724 9.75 15.2878 9.75 16.5C9.75 16.5602 9.74882 16.6202 9.74644 16.68H11C11.1482 16.68 11.2931 16.7239 11.4164 16.8062L15.866 19.776C15.8661 19.7761 15.8663 19.7761 15.8664 19.7762M2.84467 2.27466C3.87925 1.24008 5.32956 0.679993 7 0.679993H17C18.6704 0.679993 20.1207 1.24008 21.1553 2.27466C22.1899 3.30925 22.75 4.75956 22.75 6.42999V12.43C22.75 14.1011 22.1895 15.5511 21.1503 16.5903C20.2779 17.4628 19.1036 17.9978 17.75 18.141V19.56C17.75 20.9494 16.2004 21.8016 15.034 21.0241L15.0337 21.0238L10.7727 18.18H8.88C8.647 18.18 8.42722 18.0717 8.28526 17.8869C8.14331 17.7021 8.09529 17.4619 8.15533 17.2367C8.21801 17.0017 8.25 16.7568 8.25 16.5C8.25 15.6739 7.93451 14.9108 7.41292 14.3322L7.40637 14.3249L7.40642 14.3249C6.82718 13.6652 5.96171 13.25 5 13.25C4.08896 13.25 3.26089 13.6234 2.66745 14.2331C2.47551 14.4303 2.19097 14.5066 1.92614 14.4318C1.6613 14.357 1.45871 14.1431 1.3983 13.8747C1.29372 13.4099 1.25 12.9231 1.25 12.43V6.42999C1.25 4.75956 1.81009 3.30925 2.84467 2.27466Z" fill="#101010"/>
<path fill-rule="evenodd" clip-rule="evenodd" d="M2.66775 14.2328C3.26117 13.6233 4.08912 13.25 5 13.25L2.66775 14.2328ZM1.59256 13.1869C2.45912 12.2966 3.67104 11.75 5 11.75C6.39654 11.75 7.66962 12.3533 8.53034 13.3315C9.28683 14.1724 9.75 15.2878 9.75 16.5C9.75 16.8782 9.70325 17.2485 9.60846 17.609C9.50012 18.083 9.31098 18.5434 9.0614 18.9488C8.24048 20.3247 6.73187 21.25 5 21.25C3.77953 21.25 2.6736 20.788 1.84125 20.0302C1.48653 19.7214 1.17766 19.3535 0.937526 18.947C0.49793 18.2315 0.25 17.3879 0.25 16.5C0.25 15.2186 0.760511 14.0427 1.59226 13.1872L1.59256 13.1869ZM5 13.25C5.96171 13.25 6.82718 13.6652 7.40642 14.3249L5 13.25ZM2.66745 14.2331C2.09938 14.8176 1.75 15.6216 1.75 16.5C1.75 17.1094 1.92051 17.6833 2.21836 18.1663L2.22644 18.1797C2.38405 18.4477 2.59106 18.6951 2.83119 18.9032L2.84607 18.9164C3.4129 19.4347 4.16406 19.75 5 19.75C6.18588 19.75 7.21562 19.1177 7.77543 18.1766L7.78183 18.1658L7.78191 18.1659C7.94819 17.8967 8.07655 17.5842 8.1483 17.2654C8.15045 17.2558 8.1528 17.2462 8.15533 17.2367C8.21801 17.0017 8.25 16.7568 8.25 16.5C8.25 15.6739 7.93451 14.9108 7.41292 14.3322L7.40637 14.3249L7.40642 14.3249" fill="#101010"/>
<path fill-rule="evenodd" clip-rule="evenodd" d="M3.41861 14.9009C3.71081 14.6073 4.18568 14.6062 4.47927 14.8984L6.59926 17.0084C6.89285 17.3006 6.89397 17.7755 6.60177 18.0691C6.30957 18.3626 5.8347 18.3638 5.54112 18.0716L3.42112 15.9616C3.12754 15.6694 3.12641 15.1945 3.41861 14.9009Z" fill="#101010"/>
<path fill-rule="evenodd" clip-rule="evenodd" d="M6.58175 14.9309C6.87395 15.2245 6.87283 15.6994 6.57924 15.9916L4.45925 18.1016C4.16566 18.3938 3.69079 18.3927 3.39859 18.0991C3.10639 17.8055 3.10752 17.3306 3.4011 17.0384L5.5211 14.9284C5.81468 14.6362 6.28956 14.6374 6.58175 14.9309Z" fill="#101010"/>
<path fill-rule="evenodd" clip-rule="evenodd" d="M7.75 9.5C7.75 9.08579 8.08579 8.75 8.5 8.75H15.5C15.9142 8.75 16.25 9.08579 16.25 9.5C16.25 9.91421 15.9142 10.25 15.5 10.25H8.5C8.08579 10.25 7.75 9.91421 7.75 9.5Z" fill="#101010"/>
</svg>
