<svg width="22" height="22" viewBox="0 0 22 22" fill="none" xmlns="http://www.w3.org/2000/svg">
<path fill-rule="evenodd" clip-rule="evenodd" d="M6.75 9.5C6.75 9.08579 7.08579 8.75 7.5 8.75H14.5C14.9142 8.75 15.25 9.08579 15.25 9.5C15.25 9.91421 14.9142 10.25 14.5 10.25H7.5C7.08579 10.25 6.75 9.91421 6.75 9.5Z" fill="#101010"/>
<path fill-rule="evenodd" clip-rule="evenodd" d="M1.84467 2.27466C2.87925 1.24008 4.32956 0.679993 6 0.679993H16C17.6704 0.679993 19.1207 1.24008 20.1553 2.27466C21.1899 3.30925 21.75 4.75956 21.75 6.42999V12.43C21.75 14.1004 21.1899 15.5507 20.1553 16.5853C19.2789 17.4617 18.1042 17.9977 16.75 18.141V19.56C16.75 20.9627 15.1897 21.7838 14.0346 21.0145M14.034 21.0141L9.77334 18.18H6C4.32956 18.18 2.87925 17.6199 1.84467 16.5853C0.810085 15.5507 0.25 14.1004 0.25 12.43V6.42999C0.25 4.75956 0.810085 3.30925 1.84467 2.27466M2.90533 3.33532C2.18991 4.05074 1.75 5.10043 1.75 6.42999V12.43C1.75 13.7596 2.18991 14.8092 2.90533 15.5247C3.62075 16.2401 4.67044 16.68 6 16.68H10C10.1478 16.68 10.2923 16.7237 10.4154 16.8055L14.8654 19.7655L14.866 19.766C15.0309 19.8759 15.25 19.7571 15.25 19.56V17.43C15.25 17.0158 15.5858 16.68 16 16.68C17.3296 16.68 18.3793 16.2401 19.0947 15.5247C19.8101 14.8092 20.25 13.7596 20.25 12.43V6.42999C20.25 5.10043 19.8101 4.05074 19.0947 3.33532C18.3793 2.61991 17.3296 2.17999 16 2.17999H6C4.67044 2.17999 3.62075 2.61991 2.90533 3.33532Z" fill="#101010"/>
</svg>
