<svg width="22" height="22" viewBox="0 0 22 22" fill="none" xmlns="http://www.w3.org/2000/svg">
<path fill-rule="evenodd" clip-rule="evenodd" d="M3.03033 3.0003C2.22059 3.81004 1.75 5.08558 1.75 6.96997V11.97C1.75 14.4053 2.24367 15.6241 2.99388 16.2805C3.76886 16.9587 5.01326 17.22 7 17.22H7.5C7.78583 17.22 8.06121 17.3071 8.28043 17.4167C8.49669 17.5248 8.73258 17.6921 8.90265 17.9235L10.4 19.92C10.6091 20.1989 10.8337 20.28 11 20.28C11.1663 20.28 11.3909 20.1989 11.6 19.92L13.1 17.92L13.1029 17.9162C13.4325 17.4825 13.952 17.22 14.5 17.22H15C16.8844 17.22 18.1599 16.7494 18.9697 15.9396C19.7794 15.1299 20.25 13.8544 20.25 11.97V6.96997C20.25 5.08558 19.7794 3.81004 18.9697 3.0003C18.1599 2.19056 16.8844 1.71997 15 1.71997H7C5.11561 1.71997 3.84007 2.19056 3.03033 3.0003ZM1.96967 1.93964C3.15993 0.749381 4.88439 0.219971 7 0.219971H15C17.1156 0.219971 18.8401 0.749381 20.0303 1.93964C21.2206 3.1299 21.75 4.85436 21.75 6.96997V11.97C21.75 14.0856 21.2206 15.81 20.0303 17.0003C18.8401 18.1906 17.1156 18.72 15 18.72H14.5C14.4285 18.72 14.3486 18.757 14.2982 18.8224C14.2978 18.8229 14.2975 18.8234 14.2971 18.8238L12.8 20.82C12.3492 21.4211 11.7037 21.78 11 21.78C10.2963 21.78 9.65083 21.4211 9.19999 20.82L7.69735 18.8165C7.69533 18.8145 7.69059 18.81 7.68241 18.8036C7.66499 18.7898 7.64004 18.7735 7.60956 18.7583C7.57913 18.7431 7.54994 18.7323 7.52605 18.7259C7.50853 18.7212 7.49895 18.7201 7.49745 18.72H7C4.98674 18.72 3.23114 18.4813 2.00612 17.4094C0.756333 16.3158 0.25 14.5346 0.25 11.97V6.96997C0.25 4.85436 0.77941 3.1299 1.96967 1.93964Z" fill="#101010"/>
<path fill-rule="evenodd" clip-rule="evenodd" d="M7.53033 7.16968C7.82322 7.46258 7.82322 7.93745 7.53033 8.23034L6.06066 9.70001L7.53033 11.1697C7.82322 11.4626 7.82322 11.9374 7.53033 12.2303C7.23744 12.5232 6.76256 12.5232 6.46967 12.2303L4.46967 10.2303C4.17678 9.93745 4.17678 9.46258 4.46967 9.16968L6.46967 7.16968C6.76256 6.87679 7.23744 6.87679 7.53033 7.16968Z" fill="#101010"/>
<path fill-rule="evenodd" clip-rule="evenodd" d="M14.4697 7.16968C14.7626 6.87679 15.2374 6.87679 15.5303 7.16968L17.5303 9.16968C17.8232 9.46258 17.8232 9.93745 17.5303 10.2303L15.5303 12.2303C15.2374 12.5232 14.7626 12.5232 14.4697 12.2303C14.1768 11.9374 14.1768 11.4626 14.4697 11.1697L15.9393 9.70001L14.4697 8.23034C14.1768 7.93745 14.1768 7.46258 14.4697 7.16968Z" fill="#101010"/>
<path fill-rule="evenodd" clip-rule="evenodd" d="M12.296 6.6808C12.6766 6.84416 12.8528 7.28516 12.6894 7.6658L10.6894 12.3258C10.526 12.7065 10.085 12.8826 9.7044 12.7192C9.32376 12.5559 9.14762 12.1149 9.31099 11.7342L11.311 7.07421C11.4743 6.69357 11.9153 6.51743 12.296 6.6808Z" fill="#101010"/>
</svg>
