<svg width="22" height="22" viewBox="0 0 22 22" fill="none" xmlns="http://www.w3.org/2000/svg">
<path fill-rule="evenodd" clip-rule="evenodd" d="M3.03033 3.03033C2.22059 3.84007 1.75 5.11561 1.75 7V12C1.75 14.4353 2.24367 15.6541 2.99388 16.3106C3.76886 16.9887 5.01326 17.25 7 17.25H7.5C7.78282 17.25 8.05796 17.3383 8.27436 17.4455C8.48803 17.5515 8.7297 17.7182 8.90264 17.9535L10.4 19.95C10.6092 20.2289 10.8337 20.31 11 20.31C11.1663 20.31 11.3908 20.2289 11.6 19.95L13.1 17.95L13.1029 17.9462C13.4325 17.5124 13.9521 17.25 14.5 17.25H15C16.8844 17.25 18.1599 16.7794 18.9697 15.9697C19.7794 15.1599 20.25 13.8844 20.25 12V7C20.25 5.11561 19.7794 3.84007 18.9697 3.03033C18.1599 2.22059 16.8844 1.75 15 1.75H7C5.11561 1.75 3.84007 2.22059 3.03033 3.03033ZM1.96967 1.96967C3.15993 0.77941 4.88439 0.25 7 0.25H15C17.1156 0.25 18.8401 0.77941 20.0303 1.96967C21.2206 3.15993 21.75 4.88439 21.75 7V12C21.75 14.1156 21.2206 15.8401 20.0303 17.0303C18.8401 18.2206 17.1156 18.75 15 18.75H14.5C14.4284 18.75 14.3486 18.7871 14.2982 18.8524C14.2978 18.8529 14.2975 18.8534 14.2971 18.8538L12.8 20.85C12.3492 21.4511 11.7037 21.81 11 21.81C10.2963 21.81 9.65084 21.4511 9.2 20.85L7.69876 18.8484C7.69654 18.8462 7.69203 18.8422 7.6847 18.8365C7.66662 18.8224 7.64037 18.8054 7.60814 18.7895C7.57598 18.7735 7.54532 18.7622 7.52072 18.7556C7.50625 18.7517 7.49766 18.7504 7.49494 18.75H7C4.98674 18.75 3.23114 18.5113 2.00612 17.4394C0.756333 16.3459 0.25 14.5647 0.25 12V7C0.25 4.88439 0.77941 3.15993 1.96967 1.96967Z" fill="#101010"/>
<path fill-rule="evenodd" clip-rule="evenodd" d="M5.25 7C5.25 6.58579 5.58579 6.25 6 6.25H16C16.4142 6.25 16.75 6.58579 16.75 7C16.75 7.41421 16.4142 7.75 16 7.75H6C5.58579 7.75 5.25 7.41421 5.25 7Z" fill="#101010"/>
<path fill-rule="evenodd" clip-rule="evenodd" d="M5.25 12C5.25 11.5858 5.58579 11.25 6 11.25H12C12.4142 11.25 12.75 11.5858 12.75 12C12.75 12.4142 12.4142 12.75 12 12.75H6C5.58579 12.75 5.25 12.4142 5.25 12Z" fill="#101010"/>
</svg>
