<svg width="22" height="22" viewBox="0 0 22 22" fill="none" xmlns="http://www.w3.org/2000/svg">
<path fill-rule="evenodd" clip-rule="evenodd" d="M4.25 7C4.25 3.27579 7.27579 0.25 11 0.25C14.1632 0.25 16.805 2.42268 17.5469 5.34547C17.6489 5.74695 17.406 6.15503 17.0045 6.25694C16.6031 6.35886 16.195 6.11601 16.0931 5.71453C15.515 3.43732 13.4568 1.75 11 1.75C8.10421 1.75 5.75 4.10421 5.75 7V12C5.75 13.2788 6.20475 14.4497 6.96526 15.3588C7.23103 15.6765 7.18893 16.1495 6.87123 16.4153C6.55352 16.681 6.08052 16.6389 5.81474 16.3212C4.83525 15.1503 4.25 13.6412 4.25 12V7Z" fill="#101010"/>
<path fill-rule="evenodd" clip-rule="evenodd" d="M17.0001 8.22998C17.4143 8.22998 17.7501 8.56577 17.7501 8.97998V12C17.7501 15.7242 14.7243 18.75 11.0001 18.75C10.1823 18.75 9.38294 18.6045 8.65678 18.3322C8.26894 18.1868 8.07244 17.7545 8.21788 17.3666C8.36332 16.9788 8.79563 16.7823 9.18347 16.9277C9.73731 17.1354 10.358 17.25 11.0001 17.25C13.8959 17.25 16.2501 14.8958 16.2501 12V8.97998C16.2501 8.56577 16.5859 8.22998 17.0001 8.22998Z" fill="#101010"/>
<path fill-rule="evenodd" clip-rule="evenodd" d="M20.0004 9.25C20.4146 9.25 20.7504 9.58579 20.7504 10V12C20.7504 17.3842 16.3846 21.75 11.0004 21.75C8.43257 21.75 6.09192 20.7525 4.3491 19.1287C4.04604 18.8464 4.02925 18.3718 4.31161 18.0687C4.59397 17.7657 5.06854 17.7489 5.37161 18.0313C6.84878 19.4075 8.82814 20.25 11.0004 20.25C15.5561 20.25 19.2504 16.5558 19.2504 12V10C19.2504 9.58579 19.5861 9.25 20.0004 9.25Z" fill="#101010"/>
<path fill-rule="evenodd" clip-rule="evenodd" d="M21.0303 1.45966C21.3232 1.75255 21.3232 2.22743 21.0303 2.52032L2.03033 21.5203C1.73744 21.8132 1.26256 21.8132 0.96967 21.5203C0.676777 21.2274 0.676777 20.7526 0.96967 20.4597L19.9697 1.45966C20.2626 1.16677 20.7374 1.16677 21.0303 1.45966Z" fill="#101010"/>
<path fill-rule="evenodd" clip-rule="evenodd" d="M10.5498 0.51001C10.964 0.51001 11.2998 0.845796 11.2998 1.26001V4.50001C11.2998 4.91422 10.964 5.25001 10.5498 5.25001C10.1356 5.25001 9.7998 4.91422 9.7998 4.50001V1.26001C9.7998 0.845796 10.1356 0.51001 10.5498 0.51001Z" fill="#101010"/>
<path fill-rule="evenodd" clip-rule="evenodd" d="M7.5 1.75C7.91421 1.75 8.25 2.08579 8.25 2.5V6.5C8.25 6.91421 7.91421 7.25 7.5 7.25C7.08579 7.25 6.75 6.91421 6.75 6.5V2.5C6.75 2.08579 7.08579 1.75 7.5 1.75Z" fill="#101010"/>
</svg>
