<svg width="20" height="22" viewBox="0 0 20 22" fill="none" xmlns="http://www.w3.org/2000/svg">
<path fill-rule="evenodd" clip-rule="evenodd" d="M3.25 7C3.25 3.27579 6.27579 0.25 10 0.25C13.7242 0.25 16.75 3.27579 16.75 7V12C16.75 15.7242 13.7242 18.75 10 18.75C6.27579 18.75 3.25 15.7242 3.25 12V7ZM10 1.75C7.10421 1.75 4.75 4.10421 4.75 7V12C4.75 14.8958 7.10421 17.25 10 17.25C12.8958 17.25 15.25 14.8958 15.25 12V7C15.25 4.10421 12.8958 1.75 10 1.75Z" fill="#101010"/>
<path fill-rule="evenodd" clip-rule="evenodd" d="M1 9.25C1.41421 9.25 1.75 9.58579 1.75 10V12C1.75 16.5558 5.44421 20.25 10 20.25C14.5558 20.25 18.25 16.5558 18.25 12V10C18.25 9.58579 18.5858 9.25 19 9.25C19.4142 9.25 19.75 9.58579 19.75 10V12C19.75 17.3842 15.3842 21.75 10 21.75C4.61579 21.75 0.25 17.3842 0.25 12V10C0.25 9.58579 0.585786 9.25 1 9.25Z" fill="#101010"/>
<path fill-rule="evenodd" clip-rule="evenodd" d="M12.3523 7.18443C10.7385 6.5951 8.9807 6.5951 7.36684 7.18443C6.97776 7.32651 6.54716 7.12628 6.40508 6.73719C6.263 6.34811 6.46324 5.91751 6.85232 5.77543C8.79846 5.06476 10.9207 5.06476 12.8668 5.77543C13.2559 5.91751 13.4562 6.34811 13.3141 6.73719C13.172 7.12628 12.7414 7.32651 12.3523 7.18443Z" fill="#101010"/>
<path fill-rule="evenodd" clip-rule="evenodd" d="M11.5016 10.2031C10.4318 9.90887 9.29917 9.90887 8.22933 10.2031C7.82994 10.3129 7.41714 10.0782 7.30731 9.67879C7.19748 9.2794 7.43221 8.8666 7.8316 8.75677C9.16176 8.39097 10.5692 8.39097 11.8993 8.75677C12.2987 8.8666 12.5334 9.2794 12.4236 9.67879C12.3138 10.0782 11.901 10.3129 11.5016 10.2031Z" fill="#101010"/>
</svg>
