<svg width="18" height="22" viewBox="0 0 18 22" fill="none" xmlns="http://www.w3.org/2000/svg">
<path fill-rule="evenodd" clip-rule="evenodd" d="M4.25 5C4.25 2.37579 6.37579 0.25 9 0.25C11.6242 0.25 13.75 2.37579 13.75 5V10.5C13.75 13.1242 11.6242 15.25 9 15.25C6.37579 15.25 4.25 13.1242 4.25 10.5V5ZM9 1.75C7.20421 1.75 5.75 3.20421 5.75 5V10.5C5.75 12.2958 7.20421 13.75 9 13.75C10.7958 13.75 12.25 12.2958 12.25 10.5V5C12.25 3.20421 10.7958 1.75 9 1.75Z" fill="#101010"/>
<path fill-rule="evenodd" clip-rule="evenodd" d="M1.34961 7.8999C1.76382 7.8999 2.09961 8.23569 2.09961 8.6499V10.3499C2.09961 14.1557 5.19382 17.2499 8.99961 17.2499C12.8054 17.2499 15.8996 14.1557 15.8996 10.3499V8.6499C15.8996 8.23569 16.2354 7.8999 16.6496 7.8999C17.0638 7.8999 17.3996 8.23569 17.3996 8.6499V10.3499C17.3996 14.9841 13.6338 18.7499 8.99961 18.7499C4.3654 18.7499 0.599609 14.9841 0.599609 10.3499V8.6499C0.599609 8.23569 0.935396 7.8999 1.34961 7.8999Z" fill="#101010"/>
<path fill-rule="evenodd" clip-rule="evenodd" d="M10.1314 6.13427C9.39809 5.8654 8.60107 5.8654 7.86777 6.13427C7.47887 6.27687 7.04802 6.0772 6.90542 5.68831C6.76283 5.29941 6.96249 4.86855 7.35139 4.72596C8.41809 4.33484 9.58107 4.33484 10.6478 4.72596C11.0367 4.86855 11.2363 5.29941 11.0937 5.68831C10.9511 6.0772 10.5203 6.27687 10.1314 6.13427Z" fill="#101010"/>
<path fill-rule="evenodd" clip-rule="evenodd" d="M9.61786 8.2752C9.2134 8.16836 8.7954 8.16836 8.39095 8.2752C7.99047 8.38098 7.58006 8.14209 7.47427 7.74161C7.36849 7.34113 7.60738 6.93073 8.00786 6.82494C8.6634 6.65178 9.3454 6.65178 10.0009 6.82494C10.4014 6.93073 10.6403 7.34113 10.5345 7.74161C10.4287 8.14209 10.0183 8.38098 9.61786 8.2752Z" fill="#101010"/>
<path fill-rule="evenodd" clip-rule="evenodd" d="M9 17.25C9.41421 17.25 9.75 17.5858 9.75 18V21C9.75 21.4142 9.41421 21.75 9 21.75C8.58579 21.75 8.25 21.4142 8.25 21V18C8.25 17.5858 8.58579 17.25 9 17.25Z" fill="#101010"/>
</svg>
