<svg width="14" height="22" viewBox="0 0 14 22" fill="none" xmlns="http://www.w3.org/2000/svg">
<path fill-rule="evenodd" clip-rule="evenodd" d="M0.471035 12.4483C0.612523 12.3075 0.804279 12.229 1.00386 12.23L4.89202 12.25C5.73843 12.2503 6.57247 12.4477 7.33541 12.8292C7.89114 13.107 8.49628 13.25 9.12 13.25H13C13.4142 13.25 13.75 13.5858 13.75 14V18C13.75 20.0642 12.0642 21.75 10 21.75H4C1.93579 21.75 0.25 20.0642 0.25 18V12.98C0.25 12.7804 0.329548 12.5891 0.471035 12.4483ZM1.75 13.7338V18C1.75 19.2358 2.76421 20.25 4 20.25H10C11.2358 20.25 12.25 19.2358 12.25 18V14.75H9.12C8.26371 14.75 7.42886 14.5529 6.66459 14.1708C6.10814 13.8926 5.50292 13.75 4.89001 13.75H4.88616V13.75L1.75 13.7338Z" fill="#101010"/>
<path fill-rule="evenodd" clip-rule="evenodd" d="M3.25 4C3.25 3.58579 3.58579 3.25 4 3.25H10C10.4142 3.25 10.75 3.58579 10.75 4V5.59C10.75 5.64886 10.7794 5.71874 10.8203 5.75966L12.9403 7.87968C13.1938 8.13317 13.3894 8.46534 13.5215 8.78398C13.6535 9.10234 13.75 9.47428 13.75 9.83V14C13.75 14.4142 13.4142 14.75 13 14.75H9.12C8.26371 14.75 7.42886 14.553 6.66459 14.1708C6.10814 13.8926 5.50292 13.75 4.89001 13.75H4.88616L0.996143 13.73C0.583441 13.7279 0.25 13.3927 0.25 12.98V9.83C0.25 9.47428 0.346452 9.10234 0.478463 8.78398C0.61059 8.46534 0.806199 8.13317 1.05969 7.87968C1.0597 7.87967 1.05969 7.87968 1.05969 7.87968L3.17969 5.75967C3.22061 5.71874 3.25 5.64886 3.25 5.59V4ZM4.75 4.75V5.59C4.75 6.05113 4.55943 6.50125 4.24035 6.82032C4.24035 6.82032 4.24035 6.82032 4.24035 6.82032L2.12036 8.94033C2.04386 9.01683 1.94445 9.16467 1.86406 9.35853C1.78356 9.55267 1.75 9.72573 1.75 9.83V12.2338L4.89001 12.25C4.89071 12.25 4.8914 12.25 4.89209 12.25C5.73848 12.2503 6.57249 12.4477 7.33541 12.8292C7.89114 13.107 8.49628 13.25 9.12 13.25H12.25V9.83C12.25 9.72573 12.2164 9.55267 12.1359 9.35853C12.0555 9.16467 11.9561 9.01684 11.8796 8.94033L9.75965 6.82032C9.44057 6.50125 9.25 6.05113 9.25 5.59V4.75H4.75Z" fill="#101010"/>
<path fill-rule="evenodd" clip-rule="evenodd" d="M13 13.25C13.4142 13.25 13.75 13.5858 13.75 14V15C13.75 15.4142 13.4142 15.75 13 15.75C12.5858 15.75 12.25 15.4142 12.25 15V14C12.25 13.5858 12.5858 13.25 13 13.25Z" fill="#101010"/>
<path fill-rule="evenodd" clip-rule="evenodd" d="M1 12.23C1.41421 12.23 1.75 12.5658 1.75 12.98V13.98C1.75 14.3942 1.41421 14.73 1 14.73C0.585786 14.73 0.25 14.3942 0.25 13.98V12.98C0.25 12.5658 0.585786 12.23 1 12.23Z" fill="#101010"/>
<path fill-rule="evenodd" clip-rule="evenodd" d="M4.5 1.75C4.08746 1.75 3.75 2.09096 3.75 2.5C3.75 2.90904 4.08746 3.25 4.5 3.25H9.5C9.91254 3.25 10.25 2.90904 10.25 2.5C10.25 2.09096 9.91254 1.75 9.5 1.75H4.5ZM2.25 2.5C2.25 1.26904 3.25254 0.25 4.5 0.25H9.5C10.7475 0.25 11.75 1.26904 11.75 2.5C11.75 3.73096 10.7475 4.75 9.5 4.75H4.5C3.25254 4.75 2.25 3.73096 2.25 2.5Z" fill="#101010"/>
</svg>
