<svg width="22" height="22" viewBox="0 0 22 22" fill="none" xmlns="http://www.w3.org/2000/svg">
<path fill-rule="evenodd" clip-rule="evenodd" d="M0.169922 11C0.169922 5.08579 5.00571 0.25 10.9199 0.25C16.8341 0.25 21.6699 5.08579 21.6699 11C21.6699 16.9142 16.8341 21.75 10.9199 21.75C5.00571 21.75 0.169922 16.9142 0.169922 11ZM10.9199 1.75C5.83414 1.75 1.66992 5.91421 1.66992 11C1.66992 16.0858 5.83414 20.25 10.9199 20.25C16.0057 20.25 20.1699 16.0858 20.1699 11C20.1699 5.91421 16.0057 1.75 10.9199 1.75Z" fill="#101010"/>
<path fill-rule="evenodd" clip-rule="evenodd" d="M6.16992 11C6.16992 10.5858 6.50571 10.25 6.91992 10.25H14.9199C15.3341 10.25 15.6699 10.5858 15.6699 11C15.6699 11.4142 15.3341 11.75 14.9199 11.75H6.91992C6.50571 11.75 6.16992 11.4142 6.16992 11Z" fill="#101010"/>
</svg>
