<svg width="18" height="22" viewBox="0 0 18 22" fill="none" xmlns="http://www.w3.org/2000/svg">
<path fill-rule="evenodd" clip-rule="evenodd" d="M2.53033 2.53033C2.01884 3.04182 1.75 3.99464 1.75 6V16C1.75 18.0054 2.01884 18.9582 2.53033 19.4697C3.04182 19.9812 3.99464 20.25 6 20.25H12C14.0054 20.25 14.9582 19.9812 15.4697 19.4697C15.9812 18.9582 16.25 18.0054 16.25 16V6C16.25 3.99464 15.9812 3.04182 15.4697 2.53033C14.9582 2.01884 14.0054 1.75 12 1.75H6C3.99464 1.75 3.04182 2.01884 2.53033 2.53033ZM1.46967 1.46967C2.45818 0.481164 4.00536 0.25 6 0.25H12C13.9946 0.25 15.5418 0.481164 16.5303 1.46967C17.5188 2.45818 17.75 4.00536 17.75 6V16C17.75 17.9946 17.5188 19.5418 16.5303 20.5303C15.5418 21.5188 13.9946 21.75 12 21.75H6C4.00536 21.75 2.45818 21.5188 1.46967 20.5303C0.481164 19.5418 0.25 17.9946 0.25 16V6C0.25 4.00536 0.481164 2.45818 1.46967 1.46967Z" fill="#101010"/>
<path fill-rule="evenodd" clip-rule="evenodd" d="M6.25 4.5C6.25 4.08579 6.58579 3.75 7 3.75H11C11.4142 3.75 11.75 4.08579 11.75 4.5C11.75 4.91421 11.4142 5.25 11 5.25H7C6.58579 5.25 6.25 4.91421 6.25 4.5Z" fill="#101010"/>
<path fill-rule="evenodd" clip-rule="evenodd" d="M9.0002 15.75C8.55837 15.75 8.2002 16.1082 8.2002 16.55C8.2002 16.9918 8.55837 17.35 9.0002 17.35C9.44202 17.35 9.8002 16.9918 9.8002 16.55C9.8002 16.1082 9.44202 15.75 9.0002 15.75ZM6.7002 16.55C6.7002 15.2797 7.72994 14.25 9.0002 14.25C10.2704 14.25 11.3002 15.2797 11.3002 16.55C11.3002 17.8203 10.2705 18.85 9.0002 18.85C7.72994 18.85 6.7002 17.8203 6.7002 16.55Z" fill="#101010"/>
</svg>
