<svg width="22" height="20" viewBox="0 0 22 20" fill="none" xmlns="http://www.w3.org/2000/svg">
<path fill-rule="evenodd" clip-rule="evenodd" d="M2.88827 3.2371C2.20831 3.86848 1.75293 4.89295 1.75293 6.5V13.5C1.75293 15.107 2.20831 16.1315 2.88827 16.7629C3.57828 17.4036 4.6179 17.75 6.00293 17.75H16.0029C17.388 17.75 18.4276 17.4036 19.1176 16.7629C19.7975 16.1315 20.2529 15.107 20.2529 13.5V6.5C20.2529 4.89295 19.7975 3.86848 19.1176 3.2371C18.4276 2.59637 17.388 2.25 16.0029 2.25H6.00293C4.6179 2.25 3.57828 2.59637 2.88827 3.2371ZM1.86759 2.1379C2.92758 1.15363 4.38796 0.75 6.00293 0.75H16.0029C17.6179 0.75 19.0783 1.15363 20.1383 2.1379C21.2083 3.13152 21.7529 4.60705 21.7529 6.5V13.5C21.7529 15.393 21.2083 16.8685 20.1383 17.8621C19.0783 18.8464 17.6179 19.25 16.0029 19.25H6.00293C4.38796 19.25 2.92758 18.8464 1.86759 17.8621C0.797545 16.8685 0.25293 15.393 0.25293 13.5V6.5C0.25293 4.60705 0.797545 3.13152 1.86759 2.1379Z" fill="#101010"/>
<path fill-rule="evenodd" clip-rule="evenodd" d="M11.0029 7.75C9.76029 7.75 8.75293 8.75736 8.75293 10C8.75293 11.2426 9.76029 12.25 11.0029 12.25C12.2456 12.25 13.2529 11.2426 13.2529 10C13.2529 8.75736 12.2456 7.75 11.0029 7.75ZM7.25293 10C7.25293 7.92893 8.93186 6.25 11.0029 6.25C13.074 6.25 14.7529 7.92893 14.7529 10C14.7529 12.0711 13.074 13.75 11.0029 13.75C8.93186 13.75 7.25293 12.0711 7.25293 10Z" fill="#101010"/>
<path fill-rule="evenodd" clip-rule="evenodd" d="M2.75293 6.5C2.75293 4.70579 4.20872 3.25 6.00293 3.25H7.50293C7.91714 3.25 8.25293 3.58579 8.25293 4C8.25293 4.41421 7.91714 4.75 7.50293 4.75H6.00293C5.03714 4.75 4.25293 5.53421 4.25293 6.5V8C4.25293 8.41421 3.91714 8.75 3.50293 8.75C3.08872 8.75 2.75293 8.41421 2.75293 8V6.5Z" fill="#101010"/>
<path fill-rule="evenodd" clip-rule="evenodd" d="M13.7529 4C13.7529 3.58579 14.0887 3.25 14.5029 3.25H16.0029C17.7971 3.25 19.2529 4.70579 19.2529 6.5V8C19.2529 8.41421 18.9171 8.75 18.5029 8.75C18.0887 8.75 17.7529 8.41421 17.7529 8V6.5C17.7529 5.53421 16.9687 4.75 16.0029 4.75H14.5029C14.0887 4.75 13.7529 4.41421 13.7529 4Z" fill="#101010"/>
<path fill-rule="evenodd" clip-rule="evenodd" d="M3.50293 11.25C3.91714 11.25 4.25293 11.5858 4.25293 12V13.5C4.25293 14.4658 5.03714 15.25 6.00293 15.25H7.50293C7.91714 15.25 8.25293 15.5858 8.25293 16C8.25293 16.4142 7.91714 16.75 7.50293 16.75H6.00293C4.20872 16.75 2.75293 15.2942 2.75293 13.5V12C2.75293 11.5858 3.08872 11.25 3.50293 11.25Z" fill="#101010"/>
<path fill-rule="evenodd" clip-rule="evenodd" d="M18.5029 11.25C18.9171 11.25 19.2529 11.5858 19.2529 12V13.5C19.2529 15.2942 17.7971 16.75 16.0029 16.75H14.5029C14.0887 16.75 13.7529 16.4142 13.7529 16C13.7529 15.5858 14.0887 15.25 14.5029 15.25H16.0029C16.9687 15.25 17.7529 14.4658 17.7529 13.5V12C17.7529 11.5858 18.0887 11.25 18.5029 11.25Z" fill="#101010"/>
</svg>
