<svg width="22" height="20" viewBox="0 0 22 20" fill="none" xmlns="http://www.w3.org/2000/svg">
<path fill-rule="evenodd" clip-rule="evenodd" d="M2.89022 3.2371C2.21027 3.86848 1.75488 4.89295 1.75488 6.5V13.5C1.75488 15.107 2.21027 16.1315 2.89022 16.7629C3.58024 17.4036 4.61985 17.75 6.00488 17.75H16.0049C17.3899 17.75 18.4295 17.4036 19.1195 16.7629C19.7995 16.1315 20.2549 15.107 20.2549 13.5V6.5C20.2549 4.89295 19.7995 3.86848 19.1195 3.2371C18.4295 2.59637 17.3899 2.25 16.0049 2.25H6.00488C4.61985 2.25 3.58024 2.59637 2.89022 3.2371ZM1.86954 2.1379C2.92953 1.15363 4.38991 0.75 6.00488 0.75H16.0049C17.6199 0.75 19.0802 1.15363 20.1402 2.1379C21.2103 3.13152 21.7549 4.60705 21.7549 6.5V13.5C21.7549 15.393 21.2103 16.8685 20.1402 17.8621C19.0802 18.8464 17.6199 19.25 16.0049 19.25H6.00488C4.38991 19.25 2.92953 18.8464 1.86954 17.8621C0.799498 16.8685 0.254883 15.393 0.254883 13.5V6.5C0.254883 4.60705 0.799498 3.13152 1.86954 2.1379Z" fill="#101010"/>
<path fill-rule="evenodd" clip-rule="evenodd" d="M11.0049 7.75C9.76224 7.75 8.75488 8.75736 8.75488 10C8.75488 11.2426 9.76224 12.25 11.0049 12.25C12.2475 12.25 13.2549 11.2426 13.2549 10C13.2549 8.75736 12.2475 7.75 11.0049 7.75ZM7.25488 10C7.25488 7.92893 8.93382 6.25 11.0049 6.25C13.076 6.25 14.7549 7.92893 14.7549 10C14.7549 12.0711 13.076 13.75 11.0049 13.75C8.93382 13.75 7.25488 12.0711 7.25488 10Z" fill="#101010"/>
<path fill-rule="evenodd" clip-rule="evenodd" d="M14.2549 5C14.2549 4.58579 14.5907 4.25 15.0049 4.25H18.0049C18.4191 4.25 18.7549 4.58579 18.7549 5C18.7549 5.41421 18.4191 5.75 18.0049 5.75H15.0049C14.5907 5.75 14.2549 5.41421 14.2549 5Z" fill="#101010"/>
<path fill-rule="evenodd" clip-rule="evenodd" d="M3.25488 15C3.25488 14.5858 3.59067 14.25 4.00488 14.25H7.00488C7.4191 14.25 7.75488 14.5858 7.75488 15C7.75488 15.4142 7.4191 15.75 7.00488 15.75H4.00488C3.59067 15.75 3.25488 15.4142 3.25488 15Z" fill="#101010"/>
</svg>
