<svg width="22" height="20" viewBox="0 0 22 20" fill="none" xmlns="http://www.w3.org/2000/svg">
<path fill-rule="evenodd" clip-rule="evenodd" d="M2.88534 2.7371C2.20538 3.36848 1.75 4.39295 1.75 6V8C1.75 8.41421 1.41421 8.75 1 8.75C0.585786 8.75 0.25 8.41421 0.25 8V6C0.25 4.10705 0.794615 2.63152 1.86466 1.6379C2.92465 0.653634 4.38503 0.25 6 0.25H16C17.615 0.25 19.0754 0.653634 20.1353 1.6379C21.2054 2.63152 21.75 4.10705 21.75 6V12C21.75 13.893 21.2054 15.3685 20.1353 16.3621C19.0754 17.3464 17.615 17.75 16 17.75H11C10.5858 17.75 10.25 17.4142 10.25 17C10.25 16.5858 10.5858 16.25 11 16.25H16C17.385 16.25 18.4246 15.9036 19.1147 15.2629C19.7946 14.6315 20.25 13.607 20.25 12V6C20.25 4.39295 19.7946 3.36848 19.1147 2.7371C18.4246 2.09637 17.385 1.75 16 1.75H6C4.61497 1.75 3.57535 2.09637 2.88534 2.7371Z" fill="#101010"/>
<path fill-rule="evenodd" clip-rule="evenodd" d="M11 7.25C10.0335 7.25 9.25 8.0335 9.25 9C9.25 9.9665 10.0335 10.75 11 10.75C11.9665 10.75 12.75 9.9665 12.75 9C12.75 8.0335 11.9665 7.25 11 7.25ZM7.75 9C7.75 7.20507 9.20507 5.75 11 5.75C12.7949 5.75 14.25 7.20507 14.25 9C14.25 10.7949 12.7949 12.25 11 12.25C9.20507 12.25 7.75 10.7949 7.75 9Z" fill="#101010"/>
<path fill-rule="evenodd" clip-rule="evenodd" d="M17.5 5.75C17.9142 5.75 18.25 6.08579 18.25 6.5V11.5C18.25 11.9142 17.9142 12.25 17.5 12.25C17.0858 12.25 16.75 11.9142 16.75 11.5V6.5C16.75 6.08579 17.0858 5.75 17.5 5.75Z" fill="#101010"/>
<path fill-rule="evenodd" clip-rule="evenodd" d="M0.25 12.5C0.25 12.0858 0.585786 11.75 1 11.75H6.34003C7.39424 11.75 8.25 12.6058 8.25 13.66V14.94C8.25 15.3542 7.91421 15.69 7.5 15.69C7.08579 15.69 6.75 15.3542 6.75 14.94V13.66C6.75 13.4342 6.56581 13.25 6.34003 13.25H1C0.585786 13.25 0.25 12.9142 0.25 12.5Z" fill="#101010"/>
<path fill-rule="evenodd" clip-rule="evenodd" d="M2.7503 10.7497C3.04319 11.0426 3.04319 11.5175 2.7503 11.8104L2.06066 12.5L2.7503 13.1896C3.04319 13.4825 3.04319 13.9574 2.7503 14.2503C2.45741 14.5432 1.98253 14.5432 1.68964 14.2503L0.46967 13.0303C0.176777 12.7374 0.176777 12.2626 0.46967 11.9697L1.68964 10.7497C1.98253 10.4568 2.45741 10.4568 2.7503 10.7497Z" fill="#101010"/>
<path fill-rule="evenodd" clip-rule="evenodd" d="M1 14.59C1.41421 14.59 1.75 14.9258 1.75 15.34V16.62C1.75 16.8458 1.93424 17.03 2.15997 17.03H7.5C7.91421 17.03 8.25 17.3658 8.25 17.78C8.25 18.1942 7.91421 18.53 7.5 18.53H2.15997C1.10571 18.53 0.25 17.6742 0.25 16.62V15.34C0.25 14.9258 0.585786 14.59 1 14.59Z" fill="#101010"/>
<path fill-rule="evenodd" clip-rule="evenodd" d="M5.75093 16.03C6.04383 15.7371 6.51871 15.7371 6.81159 16.03L8.03156 17.25C8.32444 17.5429 8.32444 18.0178 8.03155 18.3107L6.81158 19.5306C6.51869 19.8235 6.04381 19.8235 5.75092 19.5306C5.45803 19.2377 5.45803 18.7629 5.75092 18.47L6.44057 17.7803L5.75091 17.0906C5.45802 16.7977 5.45803 16.3228 5.75093 16.03Z" fill="#101010"/>
</svg>
