<svg width="24" height="20" viewBox="0 0 24 20" fill="none" xmlns="http://www.w3.org/2000/svg">
<path fill-rule="evenodd" clip-rule="evenodd" d="M3.43029 3.1146C2.85534 3.64847 2.45996 4.52293 2.45996 5.91998V11.07C2.45996 12.0802 2.66699 12.8141 2.99072 13.3386C3.30881 13.8541 3.77032 14.2183 4.37926 14.4463C4.56718 14.5144 4.75881 14.5691 4.94845 14.5994C4.96392 14.6019 4.97931 14.6049 4.99459 14.6083C5.32974 14.6837 5.70302 14.72 6.10995 14.72H14.9C16.105 14.72 16.9946 14.4186 17.5796 13.8754C18.1546 13.3415 18.55 12.4671 18.55 11.07V5.91998C18.55 5.50905 18.5069 5.14665 18.4427 4.77771C18.26 3.86441 17.8473 3.26676 17.2924 2.88329C16.7194 2.48741 15.9215 2.27002 14.9 2.27002H6.10995C4.90492 2.27002 4.01531 2.57138 3.43029 3.1146ZM2.40962 2.0154C3.36461 1.12864 4.67499 0.77002 6.10995 0.77002H14.9C16.1184 0.77002 17.2455 1.02762 18.1451 1.64925C19.061 2.28215 19.6675 3.24209 19.9157 4.49423L19.9187 4.51073C19.9937 4.93889 20.05 5.39404 20.05 5.91998V11.07C20.05 12.753 19.5653 14.0785 18.6003 14.9746C17.6453 15.8613 16.3349 16.22 14.9 16.22H6.10995C5.62486 16.22 5.14592 16.1777 4.68789 16.0768C4.3875 16.0268 4.10839 15.9439 3.86366 15.8549L3.85764 15.8527L3.85765 15.8527C2.96808 15.5205 2.22559 14.9551 1.71421 14.1264C1.20793 13.306 0.959961 12.2798 0.959961 11.07V5.91998C0.959961 4.23703 1.44457 2.91151 2.40962 2.0154Z" fill="#101010"/>
<path fill-rule="evenodd" clip-rule="evenodd" d="M18.6521 4.10845C18.8313 3.93018 19.0882 3.85417 19.3356 3.90624C20.4226 4.13509 21.3744 4.64808 22.0472 5.51923C22.7167 6.38621 23.0511 7.53171 23.0511 8.92012V14.0701C23.0511 15.7531 22.5665 17.0786 21.6014 17.9747C20.6464 18.8615 19.336 19.2201 17.9011 19.2201H9.11107C8.30814 19.2201 7.54414 19.1123 6.85801 18.8525C5.41264 18.317 4.4334 17.1878 4.09544 15.4863C4.046 15.2374 4.12578 14.9803 4.30747 14.8032C4.48916 14.626 4.74812 14.5527 4.9957 14.6085C5.33085 14.6839 5.70413 14.7201 6.11107 14.7201H14.9011C16.1061 14.7201 16.9957 14.4187 17.5807 13.8755C18.1557 13.3417 18.5511 12.4672 18.5511 11.0701V5.92012C18.5511 5.49312 18.5148 5.12432 18.4464 4.79086C18.3956 4.54325 18.4729 4.28672 18.6521 4.10845ZM20.0493 5.74386C20.0505 5.80207 20.0511 5.86082 20.0511 5.92012V11.0701C20.0511 12.7531 19.5665 14.0786 18.6014 14.9747C17.6464 15.8615 16.336 16.2201 14.9011 16.2201H6.11107C6.0485 16.2201 5.98604 16.2194 5.92372 16.218C6.25404 16.8227 6.75062 17.2136 7.38118 17.4467L7.38708 17.4489L7.38707 17.4489C7.86019 17.6284 8.43514 17.7201 9.11107 17.7201H17.9011C19.1061 17.7201 19.9957 17.4187 20.5807 16.8755C21.1557 16.3417 21.5511 15.4672 21.5511 14.0701V8.92012C21.5511 7.76853 21.2754 6.97404 20.86 6.43604C20.644 6.15634 20.3742 5.92518 20.0493 5.74386Z" fill="#101010"/>
<path fill-rule="evenodd" clip-rule="evenodd" d="M10.4984 6.60986C9.45459 6.60986 8.6084 7.45606 8.6084 8.49988C8.6084 9.5437 9.45459 10.3899 10.4984 10.3899C11.5422 10.3899 12.3884 9.5437 12.3884 8.49988C12.3884 7.45606 11.5422 6.60986 10.4984 6.60986ZM7.1084 8.49988C7.1084 6.62763 8.62617 5.10986 10.4984 5.10986C12.3707 5.10986 13.8884 6.62763 13.8884 8.49988C13.8884 10.3721 12.3707 11.8899 10.4984 11.8899C8.62617 11.8899 7.1084 10.3721 7.1084 8.49988Z" fill="#101010"/>
<path fill-rule="evenodd" clip-rule="evenodd" d="M4.78027 5.55005C5.19449 5.55005 5.53027 5.88584 5.53027 6.30005V10.7001C5.53027 11.1143 5.19449 11.4501 4.78027 11.4501C4.36606 11.4501 4.03027 11.1143 4.03027 10.7001V6.30005C4.03027 5.88584 4.36606 5.55005 4.78027 5.55005Z" fill="#101010"/>
<path fill-rule="evenodd" clip-rule="evenodd" d="M16.2217 5.55029C16.6359 5.55029 16.9717 5.88608 16.9717 6.30029V10.7003C16.9717 11.1145 16.6359 11.4503 16.2217 11.4503C15.8075 11.4503 15.4717 11.1145 15.4717 10.7003V6.30029C15.4717 5.88608 15.8075 5.55029 16.2217 5.55029Z" fill="#101010"/>
</svg>
