<svg width="22" height="22" viewBox="0 0 22 22" fill="none" xmlns="http://www.w3.org/2000/svg">
<path fill-rule="evenodd" clip-rule="evenodd" d="M9.96048 8.23999C9.61343 8.23999 9.2605 8.55438 9.2605 9.01999C9.2605 9.37256 9.33616 9.49971 9.3741 9.54802C9.4191 9.60533 9.50913 9.67674 9.7499 9.76267L12.762 10.8134C13.1144 10.9388 13.5171 11.1357 13.8179 11.5209C14.1253 11.9146 14.2505 12.4057 14.2505 12.97C14.2505 14.1977 13.3003 15.25 12.0505 15.25H10.1705C8.80523 15.25 7.75049 14.1024 7.75049 12.75C7.75049 12.3358 8.08627 12 8.50049 12C8.9147 12 9.25049 12.3358 9.25049 12.75C9.25049 13.3375 9.69578 13.75 10.1705 13.75H12.0505C12.4007 13.75 12.7505 13.4423 12.7505 12.97C12.7505 12.6243 12.6757 12.4954 12.6356 12.4441C12.5891 12.3845 12.4972 12.3116 12.2611 12.2273L9.24899 11.1766C8.90132 11.0528 8.49675 10.8595 8.19439 10.4745C7.88483 10.0803 7.7605 9.58742 7.7605 9.01999C7.7605 7.8056 8.70753 6.73999 9.96048 6.73999H11.8405C13.2058 6.73999 14.2605 7.88754 14.2605 9.23999C14.2605 9.6542 13.9247 9.98999 13.5105 9.98999C13.0963 9.98999 12.7605 9.6542 12.7605 9.23999C12.7605 8.65244 12.3152 8.23999 11.8405 8.23999H9.96048Z" fill="#101010"/>
<path fill-rule="evenodd" clip-rule="evenodd" d="M11.0005 5.75C11.4147 5.75 11.7505 6.08579 11.7505 6.5V15.5C11.7505 15.9142 11.4147 16.25 11.0005 16.25C10.5863 16.25 10.2505 15.9142 10.2505 15.5V6.5C10.2505 6.08579 10.5863 5.75 11.0005 5.75Z" fill="#101010"/>
<path fill-rule="evenodd" clip-rule="evenodd" d="M11.0005 1.75C5.8947 1.75 1.75049 5.89421 1.75049 11C1.75049 16.1058 5.8947 20.25 11.0005 20.25C16.1063 20.25 20.2505 16.1058 20.2505 11C20.2505 10.5858 20.5863 10.25 21.0005 10.25C21.4147 10.25 21.7505 10.5858 21.7505 11C21.7505 16.9342 16.9347 21.75 11.0005 21.75C5.06627 21.75 0.250488 16.9342 0.250488 11C0.250488 5.06579 5.06627 0.25 11.0005 0.25C11.4147 0.25 11.7505 0.585786 11.7505 1C11.7505 1.41421 11.4147 1.75 11.0005 1.75Z" fill="#101010"/>
<path fill-rule="evenodd" clip-rule="evenodd" d="M16.0005 1.25C16.4147 1.25 16.7505 1.58579 16.7505 2V5.25H20.0005C20.4147 5.25 20.7505 5.58579 20.7505 6C20.7505 6.41421 20.4147 6.75 20.0005 6.75H16.0005C15.5863 6.75 15.2505 6.41421 15.2505 6V2C15.2505 1.58579 15.5863 1.25 16.0005 1.25Z" fill="#101010"/>
<path fill-rule="evenodd" clip-rule="evenodd" d="M21.5308 0.46967C21.8237 0.762563 21.8237 1.23744 21.5308 1.53033L16.5308 6.53033C16.2379 6.82322 15.7631 6.82322 15.4702 6.53033C15.1773 6.23744 15.1773 5.76256 15.4702 5.46967L20.4702 0.46967C20.7631 0.176777 21.2379 0.176777 21.5308 0.46967Z" fill="#101010"/>
</svg>
