<svg width="22" height="20" viewBox="0 0 22 20" fill="none" xmlns="http://www.w3.org/2000/svg">
<path fill-rule="evenodd" clip-rule="evenodd" d="M2.88729 3.2371C2.20734 3.86848 1.75195 4.89295 1.75195 6.5V13.5C1.75195 15.107 2.20734 16.1315 2.88729 16.7629C3.57731 17.4036 4.61692 17.75 6.00195 17.75H16.002C17.387 17.75 18.4266 17.4036 19.1166 16.7629C19.7966 16.1315 20.252 15.107 20.252 13.5V6.5C20.252 4.89295 19.7966 3.86848 19.1166 3.2371C18.4266 2.59637 17.387 2.25 16.002 2.25H6.00195C4.61692 2.25 3.57731 2.59637 2.88729 3.2371ZM1.86661 2.1379C2.9266 1.15363 4.38698 0.75 6.00195 0.75H16.002C17.6169 0.75 19.0773 1.15363 20.1373 2.1379C21.2073 3.13152 21.752 4.60705 21.752 6.5V13.5C21.752 15.393 21.2073 16.8685 20.1373 17.8621C19.0773 18.8464 17.6169 19.25 16.002 19.25H6.00195C4.38698 19.25 2.9266 18.8464 1.86661 17.8621C0.796568 16.8685 0.251953 15.393 0.251953 13.5V6.5C0.251953 4.60705 0.796568 3.13152 1.86661 2.1379Z" fill="#101010"/>
<path fill-rule="evenodd" clip-rule="evenodd" d="M11.002 7.75C9.75931 7.75 8.75195 8.75736 8.75195 10C8.75195 11.2426 9.75931 12.25 11.002 12.25C12.2446 12.25 13.252 11.2426 13.252 10C13.252 8.75736 12.2446 7.75 11.002 7.75ZM7.25195 10C7.25195 7.92893 8.93089 6.25 11.002 6.25C13.073 6.25 14.752 7.92893 14.752 10C14.752 12.0711 13.073 13.75 11.002 13.75C8.93089 13.75 7.25195 12.0711 7.25195 10Z" fill="#101010"/>
<path fill-rule="evenodd" clip-rule="evenodd" d="M6.00195 1.25C6.41617 1.25 6.75195 1.58579 6.75195 2V3C6.75195 4.54155 6.5047 5.80791 5.65728 6.65533C4.80986 7.50275 3.5435 7.75 2.00195 7.75H1.00195C0.58774 7.75 0.251953 7.41421 0.251953 7C0.251953 6.58579 0.58774 6.25 1.00195 6.25H2.00195C3.4604 6.25 4.19404 5.99725 4.59662 5.59467C4.9992 5.19209 5.25195 4.45845 5.25195 3V2C5.25195 1.58579 5.58774 1.25 6.00195 1.25Z" fill="#101010"/>
<path fill-rule="evenodd" clip-rule="evenodd" d="M16.002 1.25C16.4162 1.25 16.752 1.58579 16.752 2V3C16.752 4.45845 17.0047 5.19209 17.4073 5.59467C17.8099 5.99725 18.5435 6.25 20.002 6.25H21.002C21.4162 6.25 21.752 6.58579 21.752 7C21.752 7.41421 21.4162 7.75 21.002 7.75H20.002C18.4604 7.75 17.194 7.50275 16.3466 6.65533C15.4992 5.80791 15.252 4.54155 15.252 3V2C15.252 1.58579 15.5877 1.25 16.002 1.25Z" fill="#101010"/>
<path fill-rule="evenodd" clip-rule="evenodd" d="M0.251953 13C0.251953 12.5858 0.58774 12.25 1.00195 12.25H2.00195C3.5435 12.25 4.80986 12.4972 5.65728 13.3447C6.5047 14.1921 6.75195 15.4585 6.75195 17V18C6.75195 18.4142 6.41617 18.75 6.00195 18.75C5.58774 18.75 5.25195 18.4142 5.25195 18V17C5.25195 15.5415 4.9992 14.8079 4.59662 14.4053C4.19404 14.0028 3.4604 13.75 2.00195 13.75H1.00195C0.58774 13.75 0.251953 13.4142 0.251953 13Z" fill="#101010"/>
<path fill-rule="evenodd" clip-rule="evenodd" d="M16.3466 13.3447C17.194 12.4972 18.4604 12.25 20.002 12.25H21.002C21.4162 12.25 21.752 12.5858 21.752 13C21.752 13.4142 21.4162 13.75 21.002 13.75H20.002C18.5435 13.75 17.8099 14.0028 17.4073 14.4053C17.0047 14.8079 16.752 15.5415 16.752 17V18C16.752 18.4142 16.4162 18.75 16.002 18.75C15.5877 18.75 15.252 18.4142 15.252 18V17C15.252 15.4585 15.4992 14.1921 16.3466 13.3447Z" fill="#101010"/>
</svg>
