<svg width="22" height="22" viewBox="0 0 22 22" fill="none" xmlns="http://www.w3.org/2000/svg">
<path fill-rule="evenodd" clip-rule="evenodd" d="M2.41908 2.41908C1.9912 2.84696 1.75 3.66007 1.75 5.44V11.78C1.75 13.5603 1.99134 14.3727 2.41858 14.7992C2.8456 15.2254 3.65785 15.465 5.43789 15.46L5.44 15.46L16.56 15.46C18.3414 15.46 19.1539 15.2209 19.5814 14.7942C20.0085 14.3678 20.25 13.5556 20.25 11.77V5.44C20.25 3.66 20.0088 2.84736 19.5802 2.41958C19.1511 1.99129 18.3353 1.75 16.55 1.75H5.44C3.66007 1.75 2.84696 1.9912 2.41908 2.41908ZM1.35842 1.35842C2.26304 0.453799 3.66993 0.25 5.44 0.25H16.55C18.3247 0.25 19.7339 0.453713 20.6398 1.35792C21.5462 2.26264 21.75 3.67 21.75 5.44V11.77C21.75 13.5444 21.5465 14.9522 20.6411 15.8558C19.7361 16.7591 18.3286 16.96 16.56 16.96H5.44109C3.67161 16.9649 2.26422 16.7644 1.35892 15.8608C0.453661 14.9573 0.25 13.5497 0.25 11.78V5.44C0.25 3.66993 0.453799 2.26304 1.35842 1.35842Z" fill="#101010"/>
<path fill-rule="evenodd" clip-rule="evenodd" d="M11 15.47C11.4142 15.47 11.75 15.8058 11.75 16.22V21C11.75 21.4142 11.4142 21.75 11 21.75C10.5858 21.75 10.25 21.4142 10.25 21V16.22C10.25 15.8058 10.5858 15.47 11 15.47Z" fill="#101010"/>
<path fill-rule="evenodd" clip-rule="evenodd" d="M0.25 12C0.25 11.5858 0.585786 11.25 1 11.25H21C21.4142 11.25 21.75 11.5858 21.75 12C21.75 12.4142 21.4142 12.75 21 12.75H1C0.585786 12.75 0.25 12.4142 0.25 12Z" fill="#101010"/>
<path fill-rule="evenodd" clip-rule="evenodd" d="M5.75 21C5.75 20.5858 6.08579 20.25 6.5 20.25H15.5C15.9142 20.25 16.25 20.5858 16.25 21C16.25 21.4142 15.9142 21.75 15.5 21.75H6.5C6.08579 21.75 5.75 21.4142 5.75 21Z" fill="#101010"/>
</svg>
