<svg width="22" height="22" viewBox="0 0 22 22" fill="none" xmlns="http://www.w3.org/2000/svg">
<path fill-rule="evenodd" clip-rule="evenodd" d="M2.09467 2.09467C3.42914 0.760201 5.42603 0.25 8 0.25H14C16.574 0.25 18.5709 0.760201 19.9053 2.09467C21.2398 3.42914 21.75 5.42603 21.75 8V14C21.75 16.574 21.2398 18.5709 19.9053 19.9053C18.5709 21.2398 16.574 21.75 14 21.75H8C5.42603 21.75 3.42914 21.2398 2.09467 19.9053C0.760201 18.5709 0.25 16.574 0.25 14V8C0.25 5.42603 0.760201 3.42914 2.09467 2.09467ZM3.15533 3.15533C2.2398 4.07086 1.75 5.57397 1.75 8V14C1.75 16.426 2.2398 17.9291 3.15533 18.8447C4.07086 19.7602 5.57397 20.25 8 20.25H14C16.426 20.25 17.9291 19.7602 18.8447 18.8447C19.7602 17.9291 20.25 16.426 20.25 14V8C20.25 5.57397 19.7602 4.07086 18.8447 3.15533C17.9291 2.2398 16.426 1.75 14 1.75H8C5.57397 1.75 4.07086 2.2398 3.15533 3.15533Z" fill="#101010"/>
<path fill-rule="evenodd" clip-rule="evenodd" d="M13.9966 11C13.9966 10.4477 14.4443 10 14.9966 10H15.0056C15.5578 10 16.0056 10.4477 16.0056 11C16.0056 11.5523 15.5578 12 15.0056 12H14.9966C14.4443 12 13.9966 11.5523 13.9966 11Z" fill="#101010"/>
<path fill-rule="evenodd" clip-rule="evenodd" d="M9.99561 11C9.99561 10.4477 10.4433 10 10.9956 10H11.0046C11.5569 10 12.0046 10.4477 12.0046 11C12.0046 11.5523 11.5569 12 11.0046 12H10.9956C10.4433 12 9.99561 11.5523 9.99561 11Z" fill="#101010"/>
<path fill-rule="evenodd" clip-rule="evenodd" d="M5.99463 11C5.99463 10.4477 6.44234 10 6.99463 10H7.00361C7.5559 10 8.00361 10.4477 8.00361 11C8.00361 11.5523 7.5559 12 7.00361 12H6.99463C6.44234 12 5.99463 11.5523 5.99463 11Z" fill="#101010"/>
</svg>
