<svg width="18" height="22" viewBox="0 0 18 22" fill="none" xmlns="http://www.w3.org/2000/svg">
<path fill-rule="evenodd" clip-rule="evenodd" d="M0.75 8.5C0.75 3.95579 4.45579 0.25 9 0.25C13.5442 0.25 17.25 3.95579 17.25 8.5V13.5C17.25 18.0442 13.5442 21.75 9 21.75C4.45579 21.75 0.75 18.0442 0.75 13.5V8.5ZM9 1.75C5.28421 1.75 2.25 4.78421 2.25 8.5V13.5C2.25 17.2158 5.28421 20.25 9 20.25C12.7158 20.25 15.75 17.2158 15.75 13.5V8.5C15.75 4.78421 12.7158 1.75 9 1.75Z" fill="#101010"/>
<path fill-rule="evenodd" clip-rule="evenodd" d="M9 5.75C8.58421 5.75 8.25 6.08421 8.25 6.5V8.5C8.25 8.91579 8.58421 9.25 9 9.25C9.40904 9.25 9.75 8.91254 9.75 8.5V6.5C9.75 6.08746 9.40904 5.75 9 5.75ZM6.75 6.5C6.75 5.25579 7.75579 4.25 9 4.25C10.231 4.25 11.25 5.25254 11.25 6.5V8.5C11.25 9.74746 10.231 10.75 9 10.75C7.75579 10.75 6.75 9.74421 6.75 8.5V6.5Z" fill="#101010"/>
<path fill-rule="evenodd" clip-rule="evenodd" d="M9 0.25C9.41421 0.25 9.75 0.585786 9.75 1V5C9.75 5.41421 9.41421 5.75 9 5.75C8.58579 5.75 8.25 5.41421 8.25 5V1C8.25 0.585786 8.58579 0.25 9 0.25Z" fill="#101010"/>
</svg>
