<svg width="22" height="22" viewBox="0 0 22 22" fill="none" xmlns="http://www.w3.org/2000/svg">
<path fill-rule="evenodd" clip-rule="evenodd" d="M3.07408 3.07409C2.2148 3.93338 1.75 5.349 1.75 7.65002V13.35C1.75 15.651 2.2148 17.0666 3.07408 17.9259C3.93336 18.7852 5.34897 19.25 7.64999 19.25H12.8231C12.4552 18.5787 12.25 17.8077 12.25 17C12.25 14.3758 14.3758 12.25 17 12.25C17.8104 12.25 18.5792 12.4532 19.25 12.8148V7.65002C19.25 5.349 18.7852 3.93338 17.9259 3.07409C17.0666 2.2148 15.651 1.75 13.35 1.75H7.64999C5.34897 1.75 3.93336 2.2148 3.07408 3.07409ZM2.01341 2.01343C3.29163 0.735208 5.20102 0.25 7.64999 0.25H13.35C15.799 0.25 17.7084 0.735208 18.9866 2.01343C20.2648 3.29166 20.75 5.20105 20.75 7.65002V13.35C20.75 13.7043 20.7396 14.0506 20.7184 14.3783C20.6989 14.6811 20.4989 14.9423 20.2117 15.04C19.9244 15.1378 19.6066 15.0529 19.4064 14.8249C18.8272 14.1652 17.9617 13.75 17 13.75C15.2042 13.75 13.75 15.2042 13.75 17C13.75 17.6094 13.9205 18.1833 14.2184 18.6663L14.2265 18.6797C14.3841 18.9477 14.5911 19.1951 14.8312 19.4032C15.0611 19.6025 15.1479 19.921 15.0508 20.2093C14.9537 20.4977 14.6919 20.6988 14.3883 20.7184C14.0604 20.7396 13.7142 20.75 13.35 20.75H7.64999C5.20102 20.75 3.29163 20.2648 2.01341 18.9866C0.7352 17.7083 0.25 15.7989 0.25 13.35V7.65002C0.25 5.20105 0.7352 3.29166 2.01341 2.01343Z" fill="#101010"/>
<path fill-rule="evenodd" clip-rule="evenodd" d="M5.71953 11.27C5.3329 11.27 5.01953 11.5834 5.01953 11.97C5.01953 12.3566 5.33294 12.67 5.71953 12.67C6.10612 12.67 6.41953 12.3566 6.41953 11.97C6.41953 11.5834 6.10616 11.27 5.71953 11.27ZM3.51953 11.97C3.51953 10.7549 4.50453 9.77002 5.71953 9.77002C6.93452 9.77002 7.91953 10.7549 7.91953 11.97C7.91953 13.185 6.93456 14.17 5.71953 14.17C4.50449 14.17 3.51953 13.185 3.51953 11.97Z" fill="#101010"/>
<path fill-rule="evenodd" clip-rule="evenodd" d="M12.3805 3.57839C12.9835 3.92749 13.2297 4.58493 13.2297 5.33996V10.9999C13.2297 11.4142 12.8939 11.7499 12.4797 11.7499C12.0655 11.7499 11.7297 11.4142 11.7297 10.9999V5.33996C11.7297 5.11161 11.6933 4.98807 11.6669 4.93046C11.6459 4.88452 11.631 4.87751 11.6291 4.8766C11.629 4.87655 11.6291 4.87662 11.6291 4.8766C11.6029 4.86145 11.4662 4.81808 11.1595 4.90284L11.1575 4.90339L8.26468 5.69412C8.04839 5.75236 7.92969 5.89305 7.92969 6.12994V11.9699C7.92969 12.3841 7.5939 12.7199 7.17969 12.7199C6.76547 12.7199 6.42969 12.3841 6.42969 11.9699V6.12994C6.42969 5.16743 7.05024 4.46834 7.87318 4.24611L10.7599 3.45702C10.7603 3.45692 10.7607 3.45682 10.761 3.45673C11.2142 3.33167 11.8371 3.26376 12.3805 3.57839Z" fill="#101010"/>
<path fill-rule="evenodd" clip-rule="evenodd" d="M11.0291 10.3C10.6425 10.3 10.3291 10.6135 10.3291 11.0001C10.3291 11.3867 10.6425 11.7001 11.0291 11.7001C11.4157 11.7001 11.7291 11.3867 11.7291 11.0001C11.7291 10.6135 11.4157 10.3 11.0291 10.3ZM8.8291 11.0001C8.8291 9.78504 9.81406 8.80005 11.0291 8.80005C12.2441 8.80005 13.2291 9.78504 13.2291 11.0001C13.2291 12.2151 12.2441 13.2001 11.0291 13.2001C9.81406 13.2001 8.8291 12.2151 8.8291 11.0001Z" fill="#101010"/>
<path fill-rule="evenodd" clip-rule="evenodd" d="M13.2026 6.1825C13.3118 6.58208 13.0763 6.99447 12.6767 7.10358L7.3667 8.55359C6.96712 8.66271 6.55474 8.42724 6.44562 8.02765C6.33651 7.62807 6.57198 7.21569 6.97156 7.10657L12.2816 5.65656C12.6811 5.54745 13.0935 5.78292 13.2026 6.1825Z" fill="#101010"/>
<path fill-rule="evenodd" clip-rule="evenodd" d="M17 13.75C15.2042 13.75 13.75 15.2042 13.75 17C13.75 17.6094 13.9205 18.1833 14.2184 18.6663L14.2247 18.6765L14.2246 18.6766C14.7844 19.6177 15.8141 20.25 17 20.25C18.1859 20.25 19.2156 19.6177 19.7754 18.6766L19.7815 18.6663L19.7816 18.6663C20.0795 18.1833 20.25 17.6094 20.25 17C20.25 15.2042 18.7958 13.75 17 13.75ZM12.25 17C12.25 14.3758 14.3758 12.25 17 12.25C19.6242 12.25 21.75 14.3758 21.75 17C21.75 17.8885 21.5017 18.7327 21.0615 19.4486C20.2406 20.8246 18.732 21.75 17 21.75C15.268 21.75 13.7594 20.8246 12.9385 19.4486C12.4983 18.7327 12.25 17.8885 12.25 17Z" fill="#101010"/>
<path fill-rule="evenodd" clip-rule="evenodd" d="M14.7598 16.98C14.7598 16.5658 15.0956 16.23 15.5098 16.23H18.4898C18.904 16.23 19.2398 16.5658 19.2398 16.98C19.2398 17.3942 18.904 17.73 18.4898 17.73H15.5098C15.0956 17.73 14.7598 17.3942 14.7598 16.98Z" fill="#101010"/>
<path fill-rule="evenodd" clip-rule="evenodd" d="M17 14.77C17.4142 14.77 17.75 15.1058 17.75 15.52V18.51C17.75 18.9242 17.4142 19.26 17 19.26C16.5858 19.26 16.25 18.9242 16.25 18.51V15.52C16.25 15.1058 16.5858 14.77 17 14.77Z" fill="#101010"/>
</svg>
