<svg width="22" height="22" viewBox="0 0 22 22" fill="none" xmlns="http://www.w3.org/2000/svg">
<path fill-rule="evenodd" clip-rule="evenodd" d="M5.30314 2.75799C5.56382 3.07988 5.51421 3.55216 5.19231 3.81284C3.87755 4.87762 2.86049 6.29313 2.28767 7.9192C2.15005 8.30988 1.72177 8.51503 1.33109 8.3774C0.940407 8.23977 0.735265 7.81149 0.872891 7.42081C1.54007 5.52688 2.72305 3.88239 4.24828 2.64717C4.57017 2.38648 5.04245 2.4361 5.30314 2.75799Z" fill="#101010"/>
<path fill-rule="evenodd" clip-rule="evenodd" d="M1 10.25C1.41421 10.25 1.75 10.5858 1.75 11C1.75 12.0795 1.94366 13.1147 2.2866 14.0786C2.42544 14.4689 2.22163 14.8978 1.83138 15.0366C1.44113 15.1755 1.01221 14.9717 0.873373 14.5814C0.476312 13.4653 0.25 12.2605 0.25 11C0.25 10.5858 0.585786 10.25 1 10.25Z" fill="#101010"/>
<path fill-rule="evenodd" clip-rule="evenodd" d="M20.7104 8.50115C21.1184 8.42958 21.5072 8.70229 21.5788 9.11027C21.6851 9.71638 21.75 10.3501 21.75 10.9999C21.75 16.9341 16.9343 21.7499 11 21.7499C9.91576 21.7499 8.86218 21.5889 7.87167 21.2874C7.4754 21.1668 7.25193 20.7478 7.37254 20.3515C7.49314 19.9552 7.91215 19.7318 8.30841 19.8524C9.1579 20.1109 10.0643 20.2499 11 20.2499C16.1058 20.2499 20.25 16.1057 20.25 10.9999C20.25 10.4496 20.195 9.90336 20.1013 9.36947C20.0297 8.96149 20.3025 8.57273 20.7104 8.50115Z" fill="#101010"/>
<path fill-rule="evenodd" clip-rule="evenodd" d="M2.90827 16.924C3.22084 16.6522 3.69456 16.6853 3.96636 16.9979C4.33248 17.4189 4.74935 17.8089 5.19195 18.1668C5.51406 18.4272 5.56406 18.8994 5.30363 19.2216C5.04321 19.5437 4.57097 19.5937 4.24887 19.3332C3.75146 18.9311 3.26832 18.4811 2.83445 17.9821C2.56265 17.6696 2.5957 17.1958 2.90827 16.924Z" fill="#101010"/>
<path fill-rule="evenodd" clip-rule="evenodd" d="M7.87167 0.712487C8.86218 0.411027 9.91576 0.25 11 0.25C14.6775 0.25 17.9243 2.10045 19.8582 4.91533C20.0928 5.25674 20.0061 5.72364 19.6647 5.9582C19.3233 6.19275 18.8564 6.10613 18.6219 5.76472C16.9558 3.3396 14.1626 1.75 11 1.75C10.0643 1.75 9.1579 1.88896 8.30841 2.1475C7.91215 2.2681 7.49314 2.04463 7.37254 1.64836C7.25193 1.2521 7.4754 0.83309 7.87167 0.712487Z" fill="#101010"/>
<path fill-rule="evenodd" clip-rule="evenodd" d="M7.59 13.6799C7.1261 13.6799 6.75 14.056 6.75 14.52C6.75 14.9839 7.12606 15.3599 7.59 15.3599C8.05393 15.3599 8.42999 14.9839 8.42999 14.52C8.42999 14.056 8.0539 13.6799 7.59 13.6799ZM5.25 14.52C5.25 13.2276 6.29763 12.1799 7.59 12.1799C8.88236 12.1799 9.92999 13.2276 9.92999 14.52C9.92999 15.8123 8.88232 16.8599 7.59 16.8599C6.29767 16.8599 5.25 15.8123 5.25 14.52Z" fill="#101010"/>
<path fill-rule="evenodd" clip-rule="evenodd" d="M14.8601 5.38229C15.4861 5.7504 15.7499 6.43938 15.7499 7.25007V13.4601C15.7499 13.8743 15.4141 14.2101 14.9999 14.2101C14.5857 14.2101 14.2499 13.8743 14.2499 13.4601V7.25007C14.2499 6.99449 14.2092 6.84783 14.1744 6.77148C14.1439 6.70428 14.1159 6.68479 14.0997 6.67532C14.0448 6.64301 13.871 6.59949 13.528 6.69341L10.3493 7.56309C10.3491 7.56315 10.3496 7.56303 10.3493 7.56309C10.0673 7.64109 9.91992 7.81557 9.91992 8.12006V14.5201C9.91992 14.9343 9.58414 15.2701 9.16992 15.2701C8.75571 15.2701 8.41992 14.9343 8.41992 14.5201V8.12006C8.41992 7.08478 9.07289 6.35919 9.95046 6.1171L9.95197 6.11668L13.1318 5.24667C13.1319 5.24665 13.1318 5.24668 13.1318 5.24667C13.6288 5.11062 14.2901 5.04712 14.8601 5.38229Z" fill="#101010"/>
<path fill-rule="evenodd" clip-rule="evenodd" d="M13.4103 12.6201C12.9464 12.6201 12.5703 12.9962 12.5703 13.4601C12.5703 13.924 12.9464 14.3001 13.4103 14.3001C13.8742 14.3001 14.2503 13.924 14.2503 13.4601C14.2503 12.9962 13.8742 12.6201 13.4103 12.6201ZM11.0703 13.4601C11.0703 12.1678 12.1179 11.1201 13.4103 11.1201C14.7027 11.1201 15.7503 12.1678 15.7503 13.4601C15.7503 14.7525 14.7026 15.8001 13.4103 15.8001C12.118 15.8001 11.0703 14.7525 11.0703 13.4601Z" fill="#101010"/>
<path fill-rule="evenodd" clip-rule="evenodd" d="M15.7234 7.97245C15.8325 8.37202 15.5971 8.78443 15.1975 8.8936L9.37753 10.4836C8.97796 10.5928 8.56555 10.3574 8.45639 9.95779C8.34723 9.55822 8.58265 9.14581 8.98222 9.03665L14.8022 7.44662C15.2018 7.33746 15.6142 7.57288 15.7234 7.97245Z" fill="#101010"/>
</svg>
