<svg width="22" height="21" viewBox="0 0 22 21" fill="none" xmlns="http://www.w3.org/2000/svg">
<path fill-rule="evenodd" clip-rule="evenodd" d="M0.25 1C0.25 0.585786 0.585786 0.25 1 0.25H21C21.4142 0.25 21.75 0.585786 21.75 1C21.75 1.41421 21.4142 1.75 21 1.75H1C0.585786 1.75 0.25 1.41421 0.25 1Z" fill="#101010"/>
<path fill-rule="evenodd" clip-rule="evenodd" d="M0.25 7C0.25 6.58579 0.585786 6.25 1 6.25H10C10.4142 6.25 10.75 6.58579 10.75 7C10.75 7.41421 10.4142 7.75 10 7.75H1C0.585786 7.75 0.25 7.41421 0.25 7Z" fill="#101010"/>
<path fill-rule="evenodd" clip-rule="evenodd" d="M0.25 13C0.25 12.5858 0.585786 12.25 1 12.25H7C7.41421 12.25 7.75 12.5858 7.75 13C7.75 13.4142 7.41421 13.75 7 13.75H1C0.585786 13.75 0.25 13.4142 0.25 13Z" fill="#101010"/>
<path fill-rule="evenodd" clip-rule="evenodd" d="M0.25 19C0.25 18.5858 0.585786 18.25 1 18.25H5C5.41421 18.25 5.75 18.5858 5.75 19C5.75 19.4142 5.41421 19.75 5 19.75H1C0.585786 19.75 0.25 19.4142 0.25 19Z" fill="#101010"/>
<path fill-rule="evenodd" clip-rule="evenodd" d="M10.8402 16.3899C10.0504 16.3899 9.41016 17.0301 9.41016 17.8199C9.41016 18.6096 10.0504 19.2499 10.8402 19.2499C11.6299 19.2499 12.2702 18.6096 12.2702 17.8199C12.2702 17.0301 11.6299 16.3899 10.8402 16.3899ZM7.91016 17.8199C7.91016 16.2017 9.22197 14.8899 10.8402 14.8899C12.4583 14.8899 13.7702 16.2017 13.7702 17.8199C13.7702 19.4381 12.4583 20.7499 10.8402 20.7499C9.22197 20.7499 7.91016 19.4381 7.91016 17.8199Z" fill="#101010"/>
<path fill-rule="evenodd" clip-rule="evenodd" d="M20.6645 5.54198C21.4086 5.97581 21.7505 6.80347 21.7505 7.85988V16.3699C21.7505 16.7841 21.4147 17.1199 21.0005 17.1199C20.5863 17.1199 20.2505 16.7841 20.2505 16.3699V7.85988C20.2505 7.10628 20.0225 6.90395 19.909 6.83778C19.7372 6.73763 19.4074 6.69901 18.907 6.83368C18.9066 6.8338 18.9061 6.83391 18.9057 6.83403L14.5602 8.0228C14.0665 8.16082 13.7705 8.50632 13.7705 9.04988V17.8199C13.7705 18.2341 13.4347 18.5699 13.0205 18.5699C12.6063 18.5699 12.2705 18.2341 12.2705 17.8199V9.04988C12.2705 7.77399 13.0739 6.87964 14.1593 6.57737L14.1626 6.57646L18.5153 5.38572C19.1642 5.21081 19.9789 5.14221 20.6645 5.54198Z" fill="#101010"/>
<path fill-rule="evenodd" clip-rule="evenodd" d="M18.8206 14.9399C18.0309 14.9399 17.3906 15.5802 17.3906 16.3699C17.3906 17.1597 18.0309 17.7999 18.8206 17.7999C19.6104 17.7999 20.2506 17.1597 20.2506 16.3699C20.2506 15.5802 19.6104 14.9399 18.8206 14.9399ZM15.8906 16.3699C15.8906 14.7517 17.2024 13.4399 18.8206 13.4399C20.4388 13.4399 21.7506 14.7517 21.7506 16.3699C21.7506 17.9881 20.4388 19.2999 18.8206 19.2999C17.2024 19.2999 15.8906 17.9881 15.8906 16.3699Z" fill="#101010"/>
<path fill-rule="evenodd" clip-rule="evenodd" d="M21.7232 9.22222C21.8324 9.62179 21.5969 10.0342 21.1974 10.1434L13.2174 12.3233C12.8178 12.4325 12.4054 12.1971 12.2962 11.7975C12.1871 11.3979 12.4225 10.9855 12.8221 10.8764L20.8021 8.69638C21.2016 8.58722 21.6141 8.82265 21.7232 9.22222Z" fill="#101010"/>
</svg>
