<svg width="20" height="22" viewBox="0 0 20 22" fill="none" xmlns="http://www.w3.org/2000/svg">
<path fill-rule="evenodd" clip-rule="evenodd" d="M4.28016 15.51C2.97124 15.51 1.91016 16.5711 1.91016 17.88C1.91016 19.1889 2.97124 20.25 4.28016 20.25C5.58907 20.25 6.65016 19.1889 6.65016 17.88C6.65016 16.5711 5.58907 15.51 4.28016 15.51ZM0.410156 17.88C0.410156 15.7427 2.14281 14.01 4.28016 14.01C6.4175 14.01 8.15016 15.7427 8.15016 17.88C8.15016 20.0174 6.4175 21.75 4.28016 21.75C2.14281 21.75 0.410156 20.0174 0.410156 17.88Z" fill="#101010"/>
<path fill-rule="evenodd" clip-rule="evenodd" d="M18.1976 0.55376C19.127 1.09701 19.5904 2.15025 19.5904 3.60001V15.8C19.5904 16.2142 19.2546 16.55 18.8404 16.55C18.4262 16.55 18.0904 16.2142 18.0904 15.8V3.60001C18.0904 2.44977 17.7388 2.023 17.4407 1.84876C17.085 1.64085 16.5086 1.60881 15.7577 1.81358L9.51753 3.51363C8.68313 3.74053 8.15039 4.35967 8.15039 5.30001V17.87C8.15039 18.2842 7.8146 18.62 7.40039 18.62C6.98618 18.62 6.65039 18.2842 6.65039 17.87V5.30001C6.65039 3.64046 7.67785 2.45955 9.12329 2.06637C9.12339 2.06634 9.12319 2.0664 9.12329 2.06637L15.3631 0.366436C15.3631 0.366418 15.363 0.366454 15.3631 0.366436C16.2622 0.121249 17.3259 0.0442027 18.1976 0.55376Z" fill="#101010"/>
<path fill-rule="evenodd" clip-rule="evenodd" d="M15.7206 13.4301C14.4117 13.4301 13.3506 14.4911 13.3506 15.8001C13.3506 17.109 14.4117 18.1701 15.7206 18.1701C17.0295 18.1701 18.0906 17.109 18.0906 15.8001C18.0906 14.4911 17.0295 13.4301 15.7206 13.4301ZM11.8506 15.8001C11.8506 13.6627 13.5832 11.9301 15.7206 11.9301C17.8579 11.9301 19.5906 13.6627 19.5906 15.8001C19.5906 17.9374 17.8579 19.6701 15.7206 19.6701C13.5832 19.6701 11.8506 17.9374 11.8506 15.8001Z" fill="#101010"/>
<path fill-rule="evenodd" clip-rule="evenodd" d="M19.5642 5.20263C19.6731 5.60225 19.4375 6.01455 19.0379 6.12354L7.59792 9.24354C7.1983 9.35253 6.78599 9.11693 6.67701 8.71731C6.56802 8.31769 6.80362 7.90538 7.20324 7.7964L18.6432 4.6764C19.0429 4.56741 19.4552 4.80301 19.5642 5.20263Z" fill="#101010"/>
</svg>
