<svg width="22" height="22" viewBox="0 0 22 22" fill="none" xmlns="http://www.w3.org/2000/svg">
<path fill-rule="evenodd" clip-rule="evenodd" d="M2.09467 2.09467C3.42914 0.760201 5.42603 0.25 8 0.25H14C16.574 0.25 18.5709 0.760201 19.9053 2.09467C21.2398 3.42914 21.75 5.42603 21.75 8V14C21.75 16.574 21.2398 18.5709 19.9053 19.9053C18.5709 21.2398 16.574 21.75 14 21.75H8C5.42603 21.75 3.42914 21.2398 2.09467 19.9053C0.760201 18.5709 0.25 16.574 0.25 14V8C0.25 5.42603 0.760201 3.42914 2.09467 2.09467ZM3.15533 3.15533C2.2398 4.07086 1.75 5.57397 1.75 8V14C1.75 16.426 2.2398 17.9291 3.15533 18.8447C4.07086 19.7602 5.57397 20.25 8 20.25H14C16.426 20.25 17.9291 19.7602 18.8447 18.8447C19.7602 17.9291 20.25 16.426 20.25 14V8C20.25 5.57397 19.7602 4.07086 18.8447 3.15533C17.9291 2.2398 16.426 1.75 14 1.75H8C5.57397 1.75 4.07086 2.2398 3.15533 3.15533Z" fill="#101010"/>
<path fill-rule="evenodd" clip-rule="evenodd" d="M6 0.75C6.41421 0.75 6.75 1.08579 6.75 1.5V20.5C6.75 20.9142 6.41421 21.25 6 21.25C5.58579 21.25 5.25 20.9142 5.25 20.5V1.5C5.25 1.08579 5.58579 0.75 6 0.75Z" fill="#101010"/>
<path fill-rule="evenodd" clip-rule="evenodd" d="M10.4705 13.5701C10.0618 13.5701 9.73047 13.9014 9.73047 14.3101C9.73047 14.7187 10.0618 15.05 10.4705 15.05C10.8792 15.05 11.2105 14.7187 11.2105 14.3101C11.2105 13.9014 10.8792 13.5701 10.4705 13.5701ZM8.23047 14.3101C8.23047 13.0729 9.23336 12.0701 10.4705 12.0701C11.7076 12.0701 12.7105 13.0729 12.7105 14.3101C12.7105 15.5472 11.7076 16.55 10.4705 16.55C9.23336 16.55 8.23047 15.5472 8.23047 14.3101Z" fill="#101010"/>
<path fill-rule="evenodd" clip-rule="evenodd" d="M17.3199 5.6883C17.9291 6.04342 18.1809 6.70873 18.1809 7.47997V13.31C18.1809 13.7242 17.8452 14.06 17.4309 14.06C17.0167 14.06 16.6809 13.7242 16.6809 13.31V7.47997C16.6809 7.24433 16.6433 7.11446 16.6146 7.05155C16.5907 6.99939 16.5718 6.98845 16.565 6.98448C16.5276 6.96271 16.3769 6.91923 16.0555 7.00435L13.08 7.81312C12.837 7.88117 12.7109 8.03633 12.7109 8.28997V14.3C12.7109 14.7142 12.3752 15.05 11.9609 15.05C11.5467 15.05 11.2109 14.7142 11.2109 14.3V8.28997C11.2109 7.30419 11.8443 6.59958 12.6802 6.36738L12.6842 6.36626L15.6683 5.55518C16.1356 5.43096 16.7698 5.36763 17.3199 5.6883Z" fill="#101010"/>
<path fill-rule="evenodd" clip-rule="evenodd" d="M15.9304 12.5701C15.5217 12.5701 15.1904 12.9014 15.1904 13.3101C15.1904 13.7187 15.5217 14.05 15.9304 14.05C16.3391 14.05 16.6704 13.7187 16.6704 13.3101C16.6704 12.9014 16.3391 12.5701 15.9304 12.5701ZM13.6904 13.3101C13.6904 12.0729 14.6933 11.0701 15.9304 11.0701C17.1675 11.0701 18.1704 12.0729 18.1704 13.3101C18.1704 14.5472 17.1675 15.55 15.9304 15.55C14.6933 15.55 13.6904 14.5472 13.6904 13.3101Z" fill="#101010"/>
<path fill-rule="evenodd" clip-rule="evenodd" d="M18.1538 8.35288C18.2626 8.75253 18.0269 9.16476 17.6273 9.27363L12.1573 10.7636C11.7576 10.8725 11.3454 10.6367 11.2365 10.2371C11.1277 9.83744 11.3634 9.42521 11.763 9.31635L17.233 7.82636C17.6327 7.7175 18.0449 7.95323 18.1538 8.35288Z" fill="#101010"/>
</svg>
