<svg width="20" height="22" viewBox="0 0 20 22" fill="none" xmlns="http://www.w3.org/2000/svg">
<path fill-rule="evenodd" clip-rule="evenodd" d="M6 0.25C6.41421 0.25 6.75 0.585786 6.75 1V4C6.75 4.41421 6.41421 4.75 6 4.75C5.58579 4.75 5.25 4.41421 5.25 4V1C5.25 0.585786 5.58579 0.25 6 0.25Z" fill="#101010"/>
<path fill-rule="evenodd" clip-rule="evenodd" d="M14 0.25C14.4142 0.25 14.75 0.585786 14.75 1V4C14.75 4.41421 14.4142 4.75 14 4.75C13.5858 4.75 13.25 4.41421 13.25 4V1C13.25 0.585786 13.5858 0.25 14 0.25Z" fill="#101010"/>
<path fill-rule="evenodd" clip-rule="evenodd" d="M4.25 12C4.25 11.5858 4.58579 11.25 5 11.25H13C13.4142 11.25 13.75 11.5858 13.75 12C13.75 12.4142 13.4142 12.75 13 12.75H5C4.58579 12.75 4.25 12.4142 4.25 12Z" fill="#101010"/>
<path fill-rule="evenodd" clip-rule="evenodd" d="M4.25 16C4.25 15.5858 4.58579 15.25 5 15.25H10C10.4142 15.25 10.75 15.5858 10.75 16C10.75 16.4142 10.4142 16.75 10 16.75H5C4.58579 16.75 4.25 16.4142 4.25 16Z" fill="#101010"/>
<path fill-rule="evenodd" clip-rule="evenodd" d="M5.95728 1.75122C5.9715 1.75041 5.98575 1.75 6 1.75H14C14.0135 1.75 14.027 1.75036 14.0405 1.75109C15.7683 1.84449 17.2706 2.22623 18.3065 3.37861C19.3291 4.51622 19.75 6.24345 19.75 8.65V14.83C19.75 16.9008 19.5117 18.6968 18.4466 19.9506C17.3544 21.2362 15.57 21.76 13 21.76H7C4.42996 21.76 2.64561 21.2362 1.55341 19.9506C0.488268 18.6968 0.25 16.9008 0.25 14.83V8.65C0.25 6.24339 0.670873 4.51842 1.69382 3.38198C2.72938 2.23153 4.23109 1.84971 5.95728 1.75122ZM6.02167 3.25C4.43017 3.34331 3.43785 3.68654 2.80868 4.38551C2.16413 5.10158 1.75 6.35661 1.75 8.65V14.83C1.75 16.8792 2.01173 18.1732 2.69659 18.9794C3.35439 19.7538 4.57004 20.26 7 20.26H13C15.43 20.26 16.6456 19.7538 17.3034 18.9794C17.9883 18.1732 18.25 16.8792 18.25 14.83V8.65C18.25 6.35655 17.8359 5.09878 17.191 4.38139C16.562 3.68169 15.57 3.33837 13.9795 3.25H6.02167Z" fill="#101010"/>
</svg>
