<svg width="22" height="23" viewBox="0 0 22 23" fill="none" xmlns="http://www.w3.org/2000/svg">
<path fill-rule="evenodd" clip-rule="evenodd" d="M6 0.25C6.41421 0.25 6.75 0.585786 6.75 1V4C6.75 4.41421 6.41421 4.75 6 4.75C5.58579 4.75 5.25 4.41421 5.25 4V1C5.25 0.585786 5.58579 0.25 6 0.25Z" fill="#101010"/>
<path fill-rule="evenodd" clip-rule="evenodd" d="M14 0.25C14.4142 0.25 14.75 0.585786 14.75 1V4C14.75 4.41421 14.4142 4.75 14 4.75C13.5858 4.75 13.25 4.41421 13.25 4V1C13.25 0.585786 13.5858 0.25 14 0.25Z" fill="#101010"/>
<path fill-rule="evenodd" clip-rule="evenodd" d="M2.7371 4.38534C2.09637 5.07535 1.75 6.11497 1.75 7.5V16C1.75 17.385 2.09637 18.4246 2.7371 19.1147C3.36848 19.7946 4.39295 20.25 6 20.25H10.8905C10.7951 20.1174 10.7049 19.9808 10.6199 19.8408C10.0693 18.9453 9.75 17.8704 9.75 16.75C9.75 14.8692 10.6159 13.1644 12.0022 12.0738C13.0319 11.2402 14.346 10.75 15.75 10.75C16.6416 10.75 17.489 10.9437 18.25 11.2935V7.5C18.25 6.11497 17.9036 5.07535 17.2629 4.38534C16.6315 3.70538 15.607 3.25 14 3.25H6C4.39295 3.25 3.36848 3.70538 2.7371 4.38534ZM1.6379 3.36466C2.63152 2.29462 4.10705 1.75 6 1.75H14C15.893 1.75 17.3685 2.29462 18.3621 3.36466C19.3464 4.42465 19.75 5.88503 19.75 7.5V12.63C19.75 12.9181 19.585 13.1808 19.3254 13.3058C19.0658 13.4307 18.7575 13.396 18.5323 13.2163C17.7723 12.61 16.8064 12.25 15.75 12.25C14.6961 12.25 13.712 12.6182 12.9425 13.2425L12.9332 13.25L12.9332 13.2499C11.9021 14.0594 11.25 15.3329 11.25 16.75C11.25 17.5886 11.4901 18.3929 11.8988 19.0569L11.9013 19.061L11.9013 19.0611C12.2222 19.5902 12.6347 20.0436 13.1179 20.3911C13.3822 20.5813 13.4937 20.9202 13.3938 21.2301C13.294 21.5399 13.0056 21.75 12.68 21.75H6C4.10705 21.75 2.63152 21.2054 1.6379 20.1353C0.653634 19.0754 0.25 17.615 0.25 16V7.5C0.25 5.88503 0.653634 4.42465 1.6379 3.36466Z" fill="#101010"/>
<path fill-rule="evenodd" clip-rule="evenodd" d="M4.25 10C4.25 9.58579 4.58579 9.25 5 9.25H11C11.4142 9.25 11.75 9.58579 11.75 10C11.75 10.4142 11.4142 10.75 11 10.75H5C4.58579 10.75 4.25 10.4142 4.25 10Z" fill="#101010"/>
<path fill-rule="evenodd" clip-rule="evenodd" d="M4.25 15C4.25 14.5858 4.58579 14.25 5 14.25H7.62C8.03421 14.25 8.37 14.5858 8.37 15C8.37 15.4142 8.03421 15.75 7.62 15.75H5C4.58579 15.75 4.25 15.4142 4.25 15Z" fill="#101010"/>
<path fill-rule="evenodd" clip-rule="evenodd" d="M15.75 12.25C14.6961 12.25 13.712 12.6182 12.9425 13.2425L12.9332 13.25L12.9332 13.2499C11.9021 14.0594 11.25 15.3329 11.25 16.75C11.25 17.5886 11.4901 18.3929 11.8988 19.0569L11.9013 19.061L11.9013 19.0611C12.2222 19.5902 12.6347 20.0436 13.1179 20.3911L13.1232 20.3949L13.1232 20.395C13.8582 20.9334 14.7638 21.25 15.75 21.25C16.8903 21.25 17.9141 20.8315 18.701 20.1301C18.7076 20.1242 18.7144 20.1184 18.7213 20.1127C19.0589 19.8327 19.3532 19.4818 19.5922 19.0721L19.6012 19.0569C20.0099 18.3929 20.25 17.5886 20.25 16.75C20.25 15.3188 19.5826 14.0428 18.5362 13.2194L18.5323 13.2163L18.5323 13.2163C17.7723 12.61 16.8064 12.25 15.75 12.25ZM12.0022 12.0737C13.0319 11.2402 14.346 10.75 15.75 10.75C17.1527 10.75 18.446 11.2294 19.4657 12.0421C20.8583 13.1388 21.75 14.8421 21.75 16.75C21.75 17.8682 21.4319 18.9411 20.8834 19.8355C20.5653 20.3788 20.1647 20.8622 19.6891 21.2587C18.6373 22.192 17.2649 22.75 15.75 22.75C14.4374 22.75 13.224 22.3274 12.2394 21.607C11.5845 21.1353 11.0383 20.5301 10.62 19.841C10.0694 18.9454 9.75 17.8705 9.75 16.75C9.75 14.8692 10.6159 13.1644 12.0022 12.0737Z" fill="#101010"/>
<path fill-rule="evenodd" clip-rule="evenodd" d="M15.75 13.5C16.1642 13.5 16.5 13.8358 16.5 14.25C16.5 15.2158 17.2842 16 18.25 16C18.6642 16 19 16.3358 19 16.75C19 17.1642 18.6642 17.5 18.25 17.5C17.2842 17.5 16.5 18.2842 16.5 19.25C16.5 19.6642 16.1642 20 15.75 20C15.3358 20 15 19.6642 15 19.25C15 18.2842 14.2158 17.5 13.25 17.5C12.8358 17.5 12.5 17.1642 12.5 16.75C12.5 16.3358 12.8358 16 13.25 16C14.2158 16 15 15.2158 15 14.25C15 13.8358 15.3358 13.5 15.75 13.5ZM15.75 16.3262C15.622 16.4801 15.4801 16.622 15.3262 16.75C15.4801 16.878 15.622 17.0199 15.75 17.1738C15.878 17.0199 16.0199 16.878 16.1738 16.75C16.0199 16.622 15.878 16.4801 15.75 16.3262Z" fill="#101010"/>
</svg>
