<svg width="24" height="24" viewBox="0 0 24 24" fill="none" xmlns="http://www.w3.org/2000/svg">
<path fill-rule="evenodd" clip-rule="evenodd" d="M11.8544 1.88466C13.0674 1.76854 14.2166 2.48628 15.53 3.79967L18.99 7.25967C20.237 8.50672 20.932 9.6442 20.8465 10.8565C20.7637 12.0318 19.9535 13.0168 18.99 13.9803L13.4188 19.5514C12.8122 20.1556 12.2675 20.6497 11.7502 20.9942C11.2262 21.3432 10.6788 21.5738 10.0755 21.5775C9.4713 21.5812 8.91993 21.3568 8.3895 21.0078C7.86623 20.6637 7.31482 20.1659 6.6993 19.5503L3.2393 16.0903C2.58547 15.4365 2.06759 14.8653 1.71587 14.335C1.35947 13.7977 1.1333 13.2427 1.1525 12.6351C1.17156 12.0318 1.42899 11.4984 1.78652 10.9972C2.14052 10.5008 2.64123 9.97023 3.23819 9.37078L3.2393 9.36967L8.8093 3.79967C9.2982 3.31076 9.7716 2.86629 10.2483 2.5328C10.7302 2.19566 11.2571 1.94184 11.8544 1.88466ZM11.1081 3.76189C10.7464 4.01496 10.351 4.37924 9.86996 4.86033L4.30106 10.4292C4.30085 10.4294 4.30127 10.429 4.30106 10.4292C3.70335 11.0295 3.28239 11.4831 3.00773 11.8682C2.73652 12.2484 2.65769 12.4944 2.65175 12.6824C2.64595 12.866 2.70603 13.1141 2.96588 13.5059C3.23042 13.9047 3.65878 14.3885 4.29996 15.0297L7.75996 18.4897C8.35943 19.0891 8.82303 19.4976 9.21382 19.7547C9.59745 20.007 9.85921 20.0788 10.0663 20.0775C10.2742 20.0762 10.5361 20.0006 10.9187 19.7458C11.3079 19.4866 11.7669 19.0796 12.36 18.489C12.3601 18.4889 12.3598 18.4892 12.36 18.489L17.9293 12.9197C18.9057 11.9432 19.3106 11.3132 19.3502 10.751C19.3873 10.2258 19.1122 9.50327 17.9293 8.32033L14.4693 4.86033C13.1927 3.58372 12.4819 3.33145 11.9973 3.37784C11.7459 3.40191 11.4647 3.51247 11.1081 3.76189Z" fill="#101010"/>
<path fill-rule="evenodd" clip-rule="evenodd" d="M21.7219 16.4019L22.3833 17.4941C22.9289 18.4035 23.0914 19.4102 22.62 20.2413C22.1488 21.072 21.2013 21.45 20.1401 21.45C19.079 21.45 18.1315 21.072 17.6603 20.2413C17.1889 19.4102 17.3514 18.4035 17.897 17.4941L17.8986 17.4915L18.5569 16.4042C18.9002 15.8273 19.4508 15.395 20.1364 15.395C20.8212 15.395 21.3741 15.8269 21.7219 16.4019ZM20.055 16.9282C20.0041 16.9625 19.9272 17.0344 19.8452 17.1726L19.8417 17.1785L19.1825 18.2671C18.7989 18.9071 18.8565 19.3099 18.965 19.5012C19.0738 19.693 19.3913 19.95 20.1401 19.95C20.889 19.95 21.2065 19.693 21.3153 19.5012C21.4238 19.3099 21.4814 18.9071 21.0978 18.2671L20.4386 17.1785C20.3543 17.0391 20.275 16.9653 20.2219 16.9297C20.1716 16.8961 20.1439 16.895 20.1364 16.895C20.1291 16.895 20.1029 16.896 20.055 16.9282Z" fill="#101010"/>
<path fill-rule="evenodd" clip-rule="evenodd" d="M18.8127 12.8362C13.3595 11.4389 7.63184 11.4877 2.19675 12.9638C1.79702 13.0723 1.38497 12.8363 1.2764 12.4366C1.16784 12.0368 1.40389 11.6248 1.80362 11.5162C7.4881 9.97241 13.48 9.92109 19.1864 11.3835L19.1889 11.3841L19.6889 11.5141C20.0898 11.6184 20.3303 12.0278 20.2261 12.4287C20.1218 12.8296 19.7123 13.0701 19.3115 12.9659L18.814 12.8365C18.8136 12.8364 18.8131 12.8363 18.8127 12.8362Z" fill="#101010"/>
</svg>
