<svg width="16" height="21" viewBox="0 0 16 21" fill="none" xmlns="http://www.w3.org/2000/svg">
<path fill-rule="evenodd" clip-rule="evenodd" d="M0.22168 8C0.22168 3.71579 3.68747 0.25 7.97168 0.25C12.2559 0.25 15.7217 3.71579 15.7217 8V13.5C15.7217 15.8442 13.8159 17.75 11.4717 17.75C9.12747 17.75 7.22168 15.8442 7.22168 13.5V10C7.22168 9.58579 7.55747 9.25 7.97168 9.25C8.38589 9.25 8.72168 9.58579 8.72168 10V13.5C8.72168 15.0158 9.95589 16.25 11.4717 16.25C12.9875 16.25 14.2217 15.0158 14.2217 13.5V8C14.2217 4.54421 11.4275 1.75 7.97168 1.75C4.51589 1.75 1.72168 4.54421 1.72168 8V14C1.72168 16.8958 4.07589 19.25 6.97168 19.25C7.38589 19.25 7.72168 19.5858 7.72168 20C7.72168 20.4142 7.38589 20.75 6.97168 20.75C3.24747 20.75 0.22168 17.7242 0.22168 14V8Z" fill="#101010"/>
</svg>
