<svg width="20" height="20" viewBox="0 0 20 20" fill="none" xmlns="http://www.w3.org/2000/svg">
<path fill-rule="evenodd" clip-rule="evenodd" d="M6.27131 3.24971C9.2942 0.22682 14.2091 0.22682 17.232 3.24971C20.2549 6.27261 20.2549 11.1875 17.232 14.2104L13.342 18.1004C11.6791 19.7633 8.9942 19.7633 7.33131 18.1004C5.66842 16.4375 5.66842 13.7526 7.33131 12.0897L9.80131 9.61971C10.0942 9.32682 10.5691 9.32682 10.862 9.61971C11.1549 9.91261 11.1549 10.3875 10.862 10.6804L8.39197 13.1504C7.31486 14.2275 7.31486 15.9626 8.39197 17.0397C9.46908 18.1168 11.2042 18.1168 12.2813 17.0397L16.1713 13.1497C18.6084 10.7126 18.6084 6.74748 16.1713 4.31037C13.7342 1.87327 9.76908 1.87327 7.33197 4.31037L3.09197 8.55037C1.04549 10.5969 1.04386 13.9229 3.0931 15.9808C3.38537 16.2744 3.38436 16.7492 3.09084 17.0415C2.79732 17.3338 2.32245 17.3328 2.03018 17.0392C-0.600583 14.3972 -0.602206 10.1232 2.03131 7.48971L6.27131 3.24971Z" fill="#101010"/>
</svg>
