<svg width="22" height="22" viewBox="0 0 22 22" fill="none" xmlns="http://www.w3.org/2000/svg">
<path fill-rule="evenodd" clip-rule="evenodd" d="M15.0032 2.25182C15.9069 2.21607 16.8149 2.60504 17.5395 3.32964L20.7171 6.5073C20.7175 6.50771 20.7179 6.50812 20.7184 6.50853C22.1188 7.89804 22.1573 10.2574 20.4518 11.3428L20.4499 11.344L17.6499 13.1139C17.3535 13.3013 16.9668 13.2583 16.7188 13.0103L11.0488 7.34032C10.8008 7.09235 10.7578 6.70565 10.9452 6.40923L12.714 3.61117C12.7142 3.61082 12.7144 3.61047 12.7146 3.61012C13.2483 2.76095 14.0869 2.28807 15.0032 2.25182ZM15.0625 3.75065C14.6517 3.7669 14.2607 3.96865 13.9843 4.40882L13.9831 4.41075L13.9831 4.41075L12.5336 6.70376L17.3554 11.5255L19.6465 10.0773C19.6467 10.0771 19.647 10.0769 19.6473 10.0767C20.3606 9.62201 20.5392 8.44295 19.6611 7.57263L19.6588 7.5703L19.6588 7.57029L16.4788 4.3903C16.0034 3.9149 15.4864 3.73388 15.0625 3.75065Z" fill="#101010"/>
<path fill-rule="evenodd" clip-rule="evenodd" d="M4.14769 9.01521C4.55903 9.06389 4.85302 9.43682 4.80434 9.84816L3.82416 18.1296C3.73871 18.8404 3.95423 19.3916 4.30735 19.7447C4.66069 20.098 5.21551 20.3166 5.93325 20.235C5.93366 20.2349 5.93407 20.2349 5.93448 20.2348L14.6507 19.2052C15.6999 19.0801 16.1968 18.8422 16.4478 18.5481C16.6888 18.2656 16.852 17.7522 16.7433 16.6646C16.7422 16.6543 16.7414 16.6439 16.7408 16.6336L16.5008 12.5136C16.4767 12.1001 16.7924 11.7453 17.2059 11.7212C17.6194 11.6972 17.9742 12.0128 17.9983 12.4264L18.2374 16.5311C18.356 17.7367 18.2324 18.7676 17.5888 19.5218C16.9522 20.2677 15.9591 20.5598 14.8284 20.6947L6.10751 21.7248L6.10457 21.7251C4.98291 21.8532 3.95817 21.5168 3.24671 20.8053C2.53499 20.0936 2.20049 19.0702 2.3348 17.9513C2.33483 17.951 2.33477 17.9515 2.3348 17.9513L3.31474 9.67186C3.36342 9.26051 3.73635 8.96652 4.14769 9.01521Z" fill="#101010"/>
<path fill-rule="evenodd" clip-rule="evenodd" d="M9.0806 6.65297C9.10659 6.23957 9.46277 5.92551 9.87617 5.95149L11.6262 6.06147C12.0396 6.08746 12.3536 6.44364 12.3277 6.85704C12.3017 7.27044 11.9455 7.5845 11.5321 7.55852L9.78208 7.44854C9.36869 7.42255 9.05462 7.06637 9.0806 6.65297Z" fill="#101010"/>
<path fill-rule="evenodd" clip-rule="evenodd" d="M7.98878 16.0588C8.28214 16.3512 8.28289 16.8261 7.99046 17.1195L4.81046 20.3095C4.51803 20.6029 4.04316 20.6036 3.74981 20.3112C3.45645 20.0188 3.4557 19.5439 3.74813 19.2505L6.92812 16.0605C7.22055 15.7671 7.69542 15.7664 7.98878 16.0588Z" fill="#101010"/>
<path fill-rule="evenodd" clip-rule="evenodd" d="M5.5 1.75C4.61698 1.75 3.80173 2.05774 3.16037 2.57416L3.15439 2.57897L3.15437 2.57894C2.29152 3.25926 1.75 4.31377 1.75 5.5C1.75 6.19677 1.94918 6.86371 2.29228 7.43275L2.29312 7.43413C2.74356 8.18488 3.45167 8.76667 4.29717 9.0485L4.31125 9.05335C4.67526 9.18277 5.06976 9.25 5.5 9.25C6.45055 9.25 7.30509 8.90127 7.9626 8.31866L7.97183 8.31049L7.9719 8.31056C8.25782 8.06549 8.50637 7.76833 8.70689 7.43414C8.88251 7.14143 9.01524 6.83422 9.10683 6.50114L9.1095 6.49145L9.10956 6.49147C9.20023 6.17825 9.25 5.83841 9.25 5.5C9.25 3.42421 7.57579 1.75 5.5 1.75ZM2.22262 1.40342C3.12081 0.681282 4.26439 0.25 5.5 0.25C8.40421 0.25 10.75 2.59579 10.75 5.5C10.75 5.97984 10.6803 6.45828 10.5518 6.90368C10.4235 7.36877 10.2367 7.79998 9.99313 8.20588C9.7147 8.66992 9.36482 9.09133 8.95278 9.44542C8.03089 10.2604 6.82724 10.75 5.5 10.75C4.91282 10.75 4.34969 10.6581 3.81578 10.4692C2.62442 10.0701 1.63519 9.25307 1.00687 8.20588L1.64999 7.82001L1.00771 8.20727C0.530806 7.41631 0.25 6.48323 0.25 5.5C0.25 3.84759 1.00723 2.36317 2.22262 1.40342Z" fill="#101010"/>
<path fill-rule="evenodd" clip-rule="evenodd" d="M3.0498 5.5C3.0498 5.08579 3.38559 4.75 3.7998 4.75H7.15982C7.57403 4.75 7.90982 5.08579 7.90982 5.5C7.90982 5.91421 7.57403 6.25 7.15982 6.25H3.7998C3.38559 6.25 3.0498 5.91421 3.0498 5.5Z" fill="#101010"/>
</svg>
