<svg width="22" height="23" viewBox="0 0 22 23" fill="none" xmlns="http://www.w3.org/2000/svg">
<path fill-rule="evenodd" clip-rule="evenodd" d="M8.02798 18.0144C8.10539 17.6726 8.40908 17.4301 8.75945 17.4301H13.2595C13.6098 17.4301 13.9135 17.6726 13.9909 18.0144L14.4025 19.831C14.5426 20.4773 14.3716 21.1058 13.9483 21.5647C13.5325 22.0154 12.9254 22.25 12.2695 22.25H9.74946C8.49393 22.25 7.30446 21.188 7.61829 19.823L8.02798 18.0144ZM9.35856 18.9301L9.08093 20.1557L9.08026 20.1586C9.0526 20.2785 9.08294 20.4075 9.19406 20.5272C9.30838 20.6503 9.50241 20.75 9.74946 20.75H12.2695C12.5735 20.75 12.7564 20.6445 12.8457 20.5477C12.927 20.4596 12.9758 20.3339 12.9371 20.1517L12.6603 18.9301H9.35856Z" fill="#101010"/>
<path fill-rule="evenodd" clip-rule="evenodd" d="M11.0146 8.97253C11.6891 8.97253 12.3204 9.29853 12.7681 9.86507L15.817 13.7337C15.8173 13.734 15.8176 13.7344 15.8179 13.7348C16.2306 14.2549 16.5717 14.8456 16.5089 15.5253C16.4465 16.2013 16.0055 16.7315 15.488 17.1905C15.4877 17.1908 15.4874 17.191 15.4872 17.1912L13.7583 18.7303C13.4489 19.0057 12.9748 18.9781 12.6994 18.6687C12.424 18.3594 12.4515 17.8853 12.7609 17.6099L14.4909 16.0698L14.4921 16.0688C14.9442 15.668 15.0078 15.4684 15.0153 15.3872C15.0225 15.3098 14.9991 15.1159 14.6422 14.6663L14.6406 14.6642L11.5911 10.795C11.5911 10.7949 11.5912 10.7951 11.5911 10.795C11.3988 10.5518 11.185 10.4725 11.0146 10.4725C10.8442 10.4725 10.6306 10.5515 10.4383 10.7947C10.4382 10.7948 10.4384 10.7947 10.4383 10.7947L7.38704 14.6663C7.02654 15.1204 6.99323 15.3249 6.99982 15.4089C7.00531 15.4789 7.05667 15.6733 7.51579 16.0506C7.52341 16.0568 7.53091 16.0633 7.53829 16.0698L9.2683 17.6099C9.57769 17.8853 9.60523 18.3594 9.32981 18.6687C9.0544 18.9781 8.58033 19.0057 8.27094 18.7303L6.55162 17.1997C6.00608 16.7491 5.55852 16.2162 5.50441 15.5261C5.45103 14.8455 5.80221 14.2504 6.21135 13.7347C6.21163 13.7344 6.21191 13.734 6.2122 13.7337L9.26057 9.86579C9.70821 9.29925 10.3401 8.97253 11.0146 8.97253Z" fill="#101010"/>
<path fill-rule="evenodd" clip-rule="evenodd" d="M11.0098 9.37C11.424 9.37 11.7598 9.70578 11.7598 10.12V12.65C11.7598 13.0642 11.424 13.4 11.0098 13.4C10.5956 13.4 10.2598 13.0642 10.2598 12.65V10.12C10.2598 9.70578 10.5956 9.37 11.0098 9.37Z" fill="#101010"/>
<path fill-rule="evenodd" clip-rule="evenodd" d="M10.5195 1.75C10.3837 1.75 10.2695 1.86421 10.2695 2V3C10.2695 3.13579 10.3837 3.25 10.5195 3.25H11.5195C11.6553 3.25 11.7695 3.13579 11.7695 3V2C11.7695 1.86421 11.6553 1.75 11.5195 1.75H10.5195ZM8.76953 2C8.76953 1.03579 9.55532 0.25 10.5195 0.25H11.5195C12.4837 0.25 13.2695 1.03579 13.2695 2V3C13.2695 3.96421 12.4837 4.75 11.5195 4.75H10.5195C9.55532 4.75 8.76953 3.96421 8.76953 3V2Z" fill="#101010"/>
<path fill-rule="evenodd" clip-rule="evenodd" d="M0.519531 11.17C0.519531 10.2059 1.30526 9.41998 2.26953 9.41998H3.26953C4.2338 9.41998 5.01953 10.2059 5.01953 11.17V12.17C5.01953 13.1343 4.23374 13.92 3.26953 13.92H2.26953C1.30532 13.92 0.519531 13.1343 0.519531 12.17V11.17ZM2.26953 10.92C2.1338 10.92 2.01953 11.0342 2.01953 11.17V12.17C2.01953 12.3058 2.13374 12.42 2.26953 12.42H3.26953C3.40532 12.42 3.51953 12.3058 3.51953 12.17V11.17C3.51953 11.0342 3.40526 10.92 3.26953 10.92H2.26953Z" fill="#101010"/>
<path fill-rule="evenodd" clip-rule="evenodd" d="M18.7295 10.92C18.5938 10.92 18.4795 11.0342 18.4795 11.17V12.17C18.4795 12.3058 18.5937 12.42 18.7295 12.42H19.7295C19.8653 12.42 19.9795 12.3058 19.9795 12.17V11.17C19.9795 11.0342 19.8652 10.92 19.7295 10.92H18.7295ZM16.9795 11.17C16.9795 10.2059 17.7652 9.41998 18.7295 9.41998H19.7295C20.6938 9.41998 21.4795 10.2059 21.4795 11.17V12.17C21.4795 13.1343 20.6937 13.92 19.7295 13.92H18.7295C17.7653 13.92 16.9795 13.1343 16.9795 12.17V11.17Z" fill="#101010"/>
<path fill-rule="evenodd" clip-rule="evenodd" d="M10.2648 2.47203C10.3134 2.88338 10.0193 3.25624 9.60798 3.30482C6.16904 3.71099 3.5 6.62667 3.5 10.17C3.5 10.5842 3.16421 10.92 2.75 10.92C2.33579 10.92 2 10.5842 2 10.17C2 5.85329 5.25097 2.309 9.43203 1.81517C9.84339 1.76659 10.2162 2.06067 10.2648 2.47203Z" fill="#101010"/>
<path fill-rule="evenodd" clip-rule="evenodd" d="M11.7753 2.4677C11.8263 2.05663 12.2008 1.76472 12.6119 1.8157C16.7707 2.33143 19.9996 5.86459 19.9996 10.17C19.9996 10.5842 19.6638 10.92 19.2496 10.92C18.8354 10.92 18.4996 10.5842 18.4996 10.17C18.4996 6.63538 15.8485 3.72856 12.4273 3.3043C12.0162 3.25332 11.7243 2.87876 11.7753 2.4677Z" fill="#101010"/>
</svg>
