<svg width="22" height="22" viewBox="0 0 22 22" fill="none" xmlns="http://www.w3.org/2000/svg">
<path fill-rule="evenodd" clip-rule="evenodd" d="M16.9101 1.75C15.8943 1.75 15.0801 2.56421 15.0801 3.58C15.0801 4.55792 15.8322 5.34607 16.7843 5.40782C16.8642 5.40073 16.946 5.40073 17.0258 5.40782C17.9763 5.34613 18.7317 4.559 18.7401 3.57733C18.7386 2.57086 17.9231 1.75 16.9101 1.75ZM13.5801 3.58C13.5801 1.73579 15.0659 0.25 16.9101 0.25C18.7562 0.25 20.2401 1.74768 20.2401 3.58V3.58536H20.2401C20.2272 5.38428 18.8112 6.84488 17.0272 6.90951C16.9864 6.91099 16.9456 6.90913 16.9051 6.90396C16.8646 6.90913 16.8237 6.91099 16.7829 6.90951C14.9999 6.84491 13.5801 5.38403 13.5801 3.58Z" fill="#101010"/>
<path fill-rule="evenodd" clip-rule="evenodd" d="M15.8111 7.85124C17.3315 7.58491 19.065 7.83883 20.3252 8.67506L20.3266 8.67596C21.188 9.25022 21.7181 10.0823 21.7181 11.01C21.7181 11.9377 21.188 12.7698 20.3266 13.344C19.0757 14.1813 17.3629 14.4342 15.8464 14.1796C15.4379 14.1111 15.1623 13.7243 15.2309 13.3158C15.2995 12.9073 15.6862 12.6318 16.0947 12.7003C17.3177 12.9057 18.6242 12.6789 19.4932 12.0969L19.4945 12.096C20.0431 11.7302 20.2181 11.3223 20.2181 11.01C20.2181 10.6978 20.0433 10.2901 19.4952 9.9245C18.6155 9.34106 17.2894 9.11513 16.07 9.32874C15.662 9.40021 15.2733 9.12741 15.2018 8.71941C15.1303 8.31141 15.4031 7.92271 15.8111 7.85124Z" fill="#101010"/>
<path fill-rule="evenodd" clip-rule="evenodd" d="M1.73047 3.58C1.73047 1.74768 3.21437 0.25 5.06047 0.25C6.90469 0.25 8.39047 1.73579 8.39047 3.58C8.39047 5.38403 6.97062 6.84491 5.18763 6.90951C5.14681 6.91099 5.10595 6.90913 5.06547 6.90396C5.02499 6.90913 4.98413 6.91099 4.94331 6.90951C3.15938 6.84488 1.74334 5.38429 1.73049 3.58536L1.73047 3.58ZM3.23047 3.57733C3.23885 4.559 3.99425 5.34613 4.94472 5.40782C5.02458 5.40073 5.10637 5.40073 5.18623 5.40782C6.13834 5.34607 6.89047 4.55792 6.89047 3.58C6.89047 2.56421 6.07626 1.75 5.06047 1.75C4.04747 1.75 3.23191 2.57087 3.23047 3.57733Z" fill="#101010"/>
<path fill-rule="evenodd" clip-rule="evenodd" d="M2.47578 9.92449C3.35554 9.34105 4.68164 9.11513 5.90101 9.32874C6.30901 9.40021 6.6977 9.12741 6.76918 8.71941C6.84065 8.31141 6.56784 7.92271 6.15984 7.85124C4.63953 7.58491 2.906 7.83883 1.64575 8.67506L1.64575 8.67506L1.6444 8.67596C0.783019 9.25022 0.25293 10.0823 0.25293 11.01C0.25293 11.9374 0.782741 12.7693 1.64373 13.3436C2.89469 14.1812 4.60784 14.4343 6.1246 14.1796C6.5331 14.1111 6.80866 13.7243 6.74008 13.3158C6.6715 12.9073 6.28475 12.6318 5.87625 12.7003C4.65329 12.9057 3.34679 12.6789 2.47781 12.0969L2.47645 12.096C1.92784 11.7302 1.75293 11.3223 1.75293 11.01C1.75293 10.6978 1.9277 10.2901 2.47578 9.92449Z" fill="#101010"/>
<path fill-rule="evenodd" clip-rule="evenodd" d="M10.9111 9.21997C9.89527 9.21997 9.08105 10.0342 9.08105 11.05C9.08105 12.0279 9.83319 12.816 10.7853 12.8778C10.8663 12.8706 10.9492 12.8707 11.0302 12.8781C11.9729 12.824 12.7326 12.0343 12.7411 11.0473C12.7396 10.0408 11.924 9.21997 10.9111 9.21997ZM7.58105 11.05C7.58105 9.20576 9.06684 7.71997 10.9111 7.71997C12.7572 7.71997 14.2411 9.21765 14.2411 11.05V11.0553H14.241C14.2282 12.8494 12.8158 14.3277 11.0228 14.3797C10.9838 14.3808 10.9447 14.3789 10.9061 14.3739C10.8656 14.3791 10.8247 14.381 10.7839 14.3795C9.0009 14.3149 7.58105 12.854 7.58105 11.05Z" fill="#101010"/>
<path fill-rule="evenodd" clip-rule="evenodd" d="M11.0045 15.235C12.173 15.235 13.3818 15.526 14.3267 16.1559C15.1881 16.7302 15.7182 17.5623 15.7182 18.49C15.7182 19.4175 15.1883 20.2495 14.3271 20.8238C13.3781 21.4582 12.1697 21.7525 11.0007 21.7525C9.83171 21.7525 8.62331 21.4582 7.67435 20.8238C6.81316 20.2496 6.2832 19.4175 6.2832 18.49C6.2832 17.5623 6.81329 16.7302 7.67468 16.1559L7.67648 16.1547L7.67648 16.1547C8.62546 15.526 9.83574 15.235 11.0045 15.235ZM8.50584 17.4046C7.95793 17.7702 7.7832 18.1778 7.7832 18.49C7.7832 18.8023 7.95811 19.2102 8.50673 19.5759L8.50763 19.5765C9.15858 20.0119 10.0599 20.2525 11.0007 20.2525C11.9415 20.2525 12.8428 20.0119 13.4938 19.5765L13.4947 19.5759C14.0433 19.2102 14.2182 18.8023 14.2182 18.49C14.2182 18.1777 14.0433 17.7698 13.4947 17.404C12.8496 16.974 11.9484 16.735 11.0045 16.735C10.0611 16.735 9.1568 16.9737 8.50584 17.4046Z" fill="#101010"/>
</svg>
