<svg width="22" height="22" viewBox="0 0 22 22" fill="none" xmlns="http://www.w3.org/2000/svg">
<path fill-rule="evenodd" clip-rule="evenodd" d="M3.16705 3.15533C2.25152 4.07086 1.76172 5.57397 1.76172 8V14C1.76172 16.426 2.25152 17.9291 3.16705 18.8447C4.08258 19.7602 5.58569 20.25 8.01172 20.25H14.0117C16.4377 20.25 17.9409 19.7602 18.8564 18.8447C19.7719 17.9291 20.2617 16.426 20.2617 14V8C20.2617 5.57397 19.7719 4.07086 18.8564 3.15533C17.9409 2.2398 16.4377 1.75 14.0117 1.75H8.01172C5.58569 1.75 4.08258 2.2398 3.16705 3.15533ZM2.10639 2.09467C3.44086 0.760201 5.43775 0.25 8.01172 0.25H14.0117C16.5857 0.25 18.5826 0.760201 19.917 2.09467C21.2515 3.42914 21.7617 5.42603 21.7617 8V14C21.7617 16.574 21.2515 18.5709 19.917 19.9053C18.5826 21.2398 16.5857 21.75 14.0117 21.75H8.01172C5.43775 21.75 3.44086 21.2398 2.10639 19.9053C0.77192 18.5709 0.261719 16.574 0.261719 14V8C0.261719 5.42603 0.77192 3.42914 2.10639 2.09467Z" fill="#101010"/>
<path fill-rule="evenodd" clip-rule="evenodd" d="M14.6523 7.19965C14.9452 7.49254 14.9452 7.96742 14.6523 8.26031L8.11236 14.8003C7.81947 15.0932 7.34459 15.0932 7.0517 14.8003C6.75881 14.5074 6.75881 14.0325 7.0517 13.7396L13.5917 7.19965C13.8846 6.90676 14.3594 6.90676 14.6523 7.19965Z" fill="#101010"/>
<path fill-rule="evenodd" clip-rule="evenodd" d="M7.99173 7.66003C7.72663 7.66003 7.51172 7.87495 7.51172 8.14005C7.51172 8.40512 7.72661 8.62003 7.99173 8.62003C8.25683 8.62003 8.47171 8.40514 8.47171 8.14005C8.47171 7.87492 8.2568 7.66003 7.99173 7.66003ZM6.01172 8.14005C6.01172 7.04652 6.89821 6.16003 7.99173 6.16003C9.08528 6.16003 9.97171 7.04655 9.97171 8.14005C9.97171 9.23357 9.08525 10.12 7.99173 10.12C6.89823 10.12 6.01172 9.23359 6.01172 8.14005Z" fill="#101010"/>
<path fill-rule="evenodd" clip-rule="evenodd" d="M14.5317 13.38C14.2666 13.38 14.0518 13.5949 14.0518 13.86C14.0518 14.1251 14.2667 14.34 14.5317 14.34C14.7968 14.34 15.0117 14.1251 15.0117 13.86C15.0117 13.5949 14.7969 13.38 14.5317 13.38ZM12.5518 13.86C12.5518 12.7665 13.4382 11.88 14.5317 11.88C15.6252 11.88 16.5117 12.7664 16.5117 13.86C16.5117 14.9535 15.6253 15.84 14.5317 15.84C13.4382 15.84 12.5518 14.9535 12.5518 13.86Z" fill="#101010"/>
</svg>
