<svg width="23" height="22" viewBox="0 0 23 22" fill="none" xmlns="http://www.w3.org/2000/svg">
<path fill-rule="evenodd" clip-rule="evenodd" d="M2.66281 15.6875C3.00522 11.5897 6.62943 8.25 10.7402 8.25C14.5381 8.25 18.1092 11.2861 18.7398 15.0253L18.7399 15.026C19.357 18.7058 16.7615 21.75 13.0402 21.75H8.25021C4.91317 21.75 2.38634 19.0168 2.66278 15.6879L2.66281 15.6875ZM4.15764 15.8121C4.43542 12.4901 7.41111 9.75 10.7402 9.75C13.802 9.75 16.7508 12.2535 17.2605 15.274M17.2606 15.2742C17.7233 18.0343 15.8389 20.25 13.0402 20.25L17.2606 15.2742ZM4.1576 15.8125C3.95427 18.2634 5.78737 20.25 8.25021 20.25H13.0402" fill="#101010"/>
<path fill-rule="evenodd" clip-rule="evenodd" d="M9.47022 2.25C8.50372 2.25 7.72021 3.0335 7.72021 4C7.72021 4.9665 8.50372 5.75 9.47022 5.75C10.4367 5.75 11.2202 4.9665 11.2202 4C11.2202 3.0335 10.4367 2.25 9.47022 2.25ZM6.22021 4C6.22021 2.20507 7.67529 0.75 9.47022 0.75C11.2651 0.75 12.7202 2.20507 12.7202 4C12.7202 5.79493 11.2651 7.25 9.47022 7.25C7.67529 7.25 6.22021 5.79493 6.22021 4Z" fill="#101010"/>
<path fill-rule="evenodd" clip-rule="evenodd" d="M16.3003 4.44995C15.6099 4.44995 15.0503 5.00959 15.0503 5.69995C15.0503 6.39031 15.6099 6.94995 16.3003 6.94995C16.9906 6.94995 17.5503 6.39031 17.5503 5.69995C17.5503 5.0096 16.9906 4.44995 16.3003 4.44995ZM13.5503 5.69995C13.5503 4.18117 14.7815 2.94995 16.3003 2.94995C17.8191 2.94995 19.0503 4.18117 19.0503 5.69995C19.0503 7.21873 17.8191 8.44995 16.3003 8.44995C14.7815 8.44995 13.5503 7.21873 13.5503 5.69995Z" fill="#101010"/>
<path fill-rule="evenodd" clip-rule="evenodd" d="M20 9.44995C19.5858 9.44995 19.25 9.78574 19.25 10.2C19.25 10.6142 19.5858 10.95 20 10.95C20.4142 10.95 20.75 10.6142 20.75 10.2C20.75 9.78574 20.4142 9.44995 20 9.44995ZM17.75 10.2C17.75 8.95731 18.7574 7.94995 20 7.94995C21.2426 7.94995 22.25 8.95731 22.25 10.2C22.25 11.4426 21.2426 12.45 20 12.45C18.7574 12.45 17.75 11.4426 17.75 10.2Z" fill="#101010"/>
<path fill-rule="evenodd" clip-rule="evenodd" d="M2.97021 6.44995C2.27986 6.44995 1.72021 7.0096 1.72021 7.69995C1.72021 8.39031 2.27986 8.94995 2.97021 8.94995C3.66057 8.94995 4.22021 8.39031 4.22021 7.69995C4.22021 7.00959 3.66057 6.44995 2.97021 6.44995ZM0.220215 7.69995C0.220215 6.18117 1.45143 4.94995 2.97021 4.94995C4.489 4.94995 5.72021 6.18117 5.72021 7.69995C5.72021 9.21873 4.489 10.45 2.97021 10.45C1.45143 10.45 0.220215 9.21873 0.220215 7.69995Z" fill="#101010"/>
</svg>
