<svg width="22" height="22" viewBox="0 0 22 22" fill="none" xmlns="http://www.w3.org/2000/svg">
<path fill-rule="evenodd" clip-rule="evenodd" d="M2.09467 2.09467C3.42914 0.760201 5.42603 0.25 8 0.25H14C16.574 0.25 18.5709 0.760201 19.9053 2.09467C21.2398 3.42914 21.75 5.42603 21.75 8V14C21.75 16.574 21.2398 18.5709 19.9053 19.9053C18.5709 21.2398 16.574 21.75 14 21.75H8C5.42603 21.75 3.42914 21.2398 2.09467 19.9053C0.760201 18.5709 0.25 16.574 0.25 14V8C0.25 5.42603 0.760201 3.42914 2.09467 2.09467ZM3.15533 3.15533C2.2398 4.07086 1.75 5.57397 1.75 8V14C1.75 16.426 2.2398 17.9291 3.15533 18.8447C4.07086 19.7602 5.57397 20.25 8 20.25H14C16.426 20.25 17.9291 19.7602 18.8447 18.8447C19.7602 17.9291 20.25 16.426 20.25 14V8C20.25 5.57397 19.7602 4.07086 18.8447 3.15533C17.9291 2.2398 16.426 1.75 14 1.75H8C5.57397 1.75 4.07086 2.2398 3.15533 3.15533Z" fill="#101010"/>
<path fill-rule="evenodd" clip-rule="evenodd" d="M7.81999 0.272021C8.22207 0.172506 8.62869 0.417784 8.72821 0.819865L13.6782 20.8199C13.7777 21.2219 13.5325 21.6286 13.1304 21.7281C12.7283 21.8276 12.3217 21.5823 12.2222 21.1802L7.27214 1.18024C7.17263 0.778161 7.41791 0.371536 7.81999 0.272021Z" fill="#101010"/>
<path fill-rule="evenodd" clip-rule="evenodd" d="M11.2502 11.01C11.3662 11.4077 11.1379 11.824 10.7403 11.94L1.21022 14.72C0.812583 14.836 0.396199 14.6077 0.280203 14.2101C0.164208 13.8124 0.392526 13.396 0.790167 13.2801L10.3202 10.5001C10.7178 10.3841 11.1342 10.6124 11.2502 11.01Z" fill="#101010"/>
</svg>
