<svg width="22" height="22" viewBox="0 0 22 22" fill="none" xmlns="http://www.w3.org/2000/svg">
<path fill-rule="evenodd" clip-rule="evenodd" d="M1.24023 1C1.24023 0.585786 1.57602 0.25 1.99023 0.25H19.9902C20.4044 0.25 20.7402 0.585786 20.7402 1V13.1C20.7402 14.1754 20.4559 15.12 19.7831 15.7928C19.1103 16.4656 18.1656 16.75 17.0902 16.75H4.90024C3.82457 16.75 2.88053 16.4655 2.20684 15.7935C1.53349 15.1219 1.2459 14.1786 1.24024 13.104L1.24023 13.1V1ZM2.74023 1.75V13.098C2.7449 13.9222 2.96222 14.4284 3.26614 14.7315C3.56994 15.0345 4.07591 15.25 4.90024 15.25H17.0902C17.9149 15.25 18.4202 15.0344 18.7224 14.7322C19.0246 14.43 19.2402 13.9246 19.2402 13.1V1.75H2.74023Z" fill="#101010"/>
<path fill-rule="evenodd" clip-rule="evenodd" d="M0.25 1C0.25 0.585786 0.585786 0.25 1 0.25H21C21.4142 0.25 21.75 0.585786 21.75 1C21.75 1.41421 21.4142 1.75 21 1.75H1C0.585786 1.75 0.25 1.41421 0.25 1Z" fill="#101010"/>
<path fill-rule="evenodd" clip-rule="evenodd" d="M11.0002 15.25C11.4144 15.25 11.7502 15.5858 11.7502 16V19C11.7502 19.2841 11.5897 19.5438 11.3356 19.6708L7.33557 21.6708C6.96509 21.8561 6.51459 21.7059 6.32934 21.3354C6.1441 20.9649 6.29427 20.5144 6.66475 20.3292L10.2502 18.5365V16C10.2502 15.5858 10.586 15.25 11.0002 15.25Z" fill="#101010"/>
<path fill-rule="evenodd" clip-rule="evenodd" d="M10.3293 18.6645C10.5146 18.294 10.9651 18.1439 11.3356 18.3291L15.3356 20.3291C15.7061 20.5143 15.8562 20.9648 15.671 21.3353C15.4857 21.7058 15.0352 21.856 14.6648 21.6707L10.6648 19.6707C10.2943 19.4855 10.1441 19.035 10.3293 18.6645Z" fill="#101010"/>
<path fill-rule="evenodd" clip-rule="evenodd" d="M16.0757 6.51934C16.3412 6.8373 16.2987 7.31026 15.9807 7.57573L12.8307 10.2057L12.8185 10.2157C12.5408 10.4379 12.1836 10.5451 11.8217 10.4848C11.457 10.424 11.1495 10.2031 10.9589 9.88925L10.9569 9.8859L10.9569 9.88589L9.90557 8.13369L6.9807 10.5757C6.66274 10.8412 6.18977 10.7987 5.9243 10.4807C5.65883 10.1627 5.70138 9.68977 6.01934 9.4243L9.16762 6.79573C9.16797 6.79544 9.16833 6.79514 9.16868 6.79484C9.45085 6.55832 9.8165 6.44778 10.185 6.51261C10.5516 6.57712 10.8544 6.8032 11.0411 7.11078L11.0431 7.11414L11.0431 7.11414L12.0945 8.86635L15.0193 6.4243C15.3373 6.15883 15.8103 6.20138 16.0757 6.51934Z" fill="#101010"/>
</svg>
