<svg width="18" height="18" viewBox="0 0 18 18" fill="none" xmlns="http://www.w3.org/2000/svg">
<path fill-rule="evenodd" clip-rule="evenodd" d="M16.4897 4.21993C16.4897 2.83049 14.9873 1.96623 13.7843 2.65971L9.63521 5.04918L5.48429 7.44969C4.28486 8.14112 4.28486 9.86872 5.48429 10.5602L5.48518 10.5607L9.63521 12.9607L13.784 15.35C14.9848 16.0422 16.4897 15.1719 16.4897 13.7899V4.21993ZM13.0354 1.36002C15.2324 0.0937871 17.9897 1.66948 17.9897 4.21993V13.7899C17.9897 16.3279 15.2346 17.9173 13.0354 16.6499C13.0353 16.6498 13.0355 16.6499 13.0354 16.6499L8.88544 14.2598L4.73515 11.8597C4.73498 11.8596 4.73531 11.8598 4.73515 11.8597C2.53523 10.591 2.53474 7.41909 4.73466 6.15044C4.73482 6.15034 4.73449 6.15053 4.73466 6.15044L8.88545 3.75L13.0354 1.36002C13.0353 1.36007 13.0355 1.35996 13.0354 1.36002Z" fill="#101010"/>
<path fill-rule="evenodd" clip-rule="evenodd" d="M0.759766 2.07007C1.17398 2.07007 1.50977 2.40585 1.50977 2.82007V15.1801C1.50977 15.5943 1.17398 15.9301 0.759766 15.9301C0.345552 15.9301 0.00976562 15.5943 0.00976562 15.1801V2.82007C0.00976562 2.40585 0.345552 2.07007 0.759766 2.07007Z" fill="#101010"/>
</svg>
