<svg width="20" height="22" viewBox="0 0 20 22" fill="none" xmlns="http://www.w3.org/2000/svg">
<path fill-rule="evenodd" clip-rule="evenodd" d="M5.3591 1.23704C6.03327 0.517931 7.03399 0.25 8.25 0.25H11.75C12.966 0.25 13.9667 0.517931 14.6409 1.23704C15.3054 1.94586 15.5 2.93363 15.5 4V6C15.5 6.41421 15.1642 6.75 14.75 6.75H5.25C4.83579 6.75 4.5 6.41421 4.5 6V4C4.5 2.93363 4.69458 1.94586 5.3591 1.23704ZM6.4534 2.26296C6.18042 2.55414 6 3.06637 6 4V5.25H14V4C14 3.06637 13.8196 2.55414 13.5466 2.26296C13.2833 1.98207 12.784 1.75 11.75 1.75H8.25C7.21601 1.75 6.71673 1.98207 6.4534 2.26296Z" fill="#101010"/>
<path fill-rule="evenodd" clip-rule="evenodd" d="M5.25 14C5.25 13.5858 5.58579 13.25 6 13.25H14C14.4142 13.25 14.75 13.5858 14.75 14V18C14.75 19.1156 14.4706 20.0901 13.7803 20.7803C13.0901 21.4706 12.1156 21.75 11 21.75H9C7.88439 21.75 6.90993 21.4706 6.21967 20.7803C5.52941 20.0901 5.25 19.1156 5.25 18V14ZM6.75 14.75V18C6.75 18.8844 6.97059 19.4099 7.28033 19.7197C7.59007 20.0294 8.11561 20.25 9 20.25H11C11.8844 20.25 12.4099 20.0294 12.7197 19.7197C13.0294 19.4099 13.25 18.8844 13.25 18V14.75H6.75Z" fill="#101010"/>
<path fill-rule="evenodd" clip-rule="evenodd" d="M2.28033 7.28033C1.97059 7.59007 1.75 8.11561 1.75 9V14C1.75 14.8844 1.97059 15.4099 2.28033 15.7197C2.59007 16.0294 3.11561 16.25 4 16.25H5.25V14C5.25 13.5858 5.58579 13.25 6 13.25H14C14.4142 13.25 14.75 13.5858 14.75 14V16.25H16C16.8844 16.25 17.4099 16.0294 17.7197 15.7197C18.0294 15.4099 18.25 14.8844 18.25 14V9C18.25 8.11561 18.0294 7.59007 17.7197 7.28033C17.4099 6.97059 16.8844 6.75 16 6.75H4C3.11561 6.75 2.59007 6.97059 2.28033 7.28033ZM1.21967 6.21967C1.90993 5.52941 2.88439 5.25 4 5.25H16C17.1156 5.25 18.0901 5.52941 18.7803 6.21967C19.4706 6.90993 19.75 7.88439 19.75 9V14C19.75 15.1156 19.4706 16.0901 18.7803 16.7803C18.0901 17.4706 17.1156 17.75 16 17.75H14C13.5858 17.75 13.25 17.4142 13.25 17V14.75H6.75V17C6.75 17.4142 6.41421 17.75 6 17.75H4C2.88439 17.75 1.90993 17.4706 1.21967 16.7803C0.52941 16.0901 0.25 15.1156 0.25 14V9C0.25 7.88439 0.52941 6.90993 1.21967 6.21967Z" fill="#101010"/>
<path fill-rule="evenodd" clip-rule="evenodd" d="M4.25 14C4.25 13.5858 4.58579 13.25 5 13.25H15C15.4142 13.25 15.75 13.5858 15.75 14C15.75 14.4142 15.4142 14.75 15 14.75H5C4.58579 14.75 4.25 14.4142 4.25 14Z" fill="#101010"/>
<path fill-rule="evenodd" clip-rule="evenodd" d="M4.25 10C4.25 9.58579 4.58579 9.25 5 9.25H8C8.41421 9.25 8.75 9.58579 8.75 10C8.75 10.4142 8.41421 10.75 8 10.75H5C4.58579 10.75 4.25 10.4142 4.25 10Z" fill="#101010"/>
</svg>
