<svg width="22" height="22" viewBox="0 0 22 22" fill="none" xmlns="http://www.w3.org/2000/svg">
<path fill-rule="evenodd" clip-rule="evenodd" d="M6.3591 1.23704C7.03327 0.517931 8.03399 0.25 9.25 0.25H12.75C13.966 0.25 14.9667 0.517931 15.6409 1.23704C16.3054 1.94586 16.5 2.93363 16.5 4V6C16.5 6.41421 16.1642 6.75 15.75 6.75H6.25C5.83579 6.75 5.5 6.41421 5.5 6V4C5.5 2.93363 5.69458 1.94586 6.3591 1.23704ZM7.4534 2.26296C7.18042 2.55414 7 3.06637 7 4V5.25H15V4C15 3.06637 14.8196 2.55414 14.5466 2.26296C14.2833 1.98207 13.784 1.75 12.75 1.75H9.25C8.21601 1.75 7.71673 1.98207 7.4534 2.26296Z" fill="#101010"/>
<path fill-rule="evenodd" clip-rule="evenodd" d="M11.2204 14C11.2204 13.5858 11.5562 13.25 11.9704 13.25H15.0004C15.4147 13.25 15.7504 13.5858 15.7504 14V18C15.7504 19.1156 15.471 20.0901 14.7808 20.7803C14.0905 21.4706 13.1161 21.75 12.0004 21.75H10.0004C9.05871 21.75 8.21689 21.553 7.55742 21.0723C6.88317 20.5809 6.48976 19.8589 6.33254 18.9942C6.25844 18.5866 6.52875 18.1962 6.93628 18.1221C7.34381 18.048 7.73425 18.3183 7.80834 18.7258C7.91112 19.2911 8.13771 19.6391 8.44097 19.8602C8.759 20.092 9.25217 20.25 10.0004 20.25H12.0004C12.8848 20.25 13.4104 20.0294 13.7201 19.7197C14.0299 19.4099 14.2504 18.8844 14.2504 18V14.75H11.9704C11.5562 14.75 11.2204 14.4142 11.2204 14Z" fill="#101010"/>
<path fill-rule="evenodd" clip-rule="evenodd" d="M3.28033 7.28033C2.97059 7.59007 2.75 8.11561 2.75 9V14C2.75 14.8844 2.97059 15.4099 3.28033 15.7197C3.59007 16.0294 4.11561 16.25 5 16.25C5.41421 16.25 5.75 16.5858 5.75 17C5.75 17.4142 5.41421 17.75 5 17.75C3.88439 17.75 2.90993 17.4706 2.21967 16.7803C1.52941 16.0901 1.25 15.1156 1.25 14V9C1.25 7.88439 1.52941 6.90993 2.21967 6.21967C2.90993 5.52941 3.88439 5.25 5 5.25H15.59C16.0042 5.25 16.34 5.58579 16.34 6C16.34 6.41421 16.0042 6.75 15.59 6.75H5C4.11561 6.75 3.59007 6.97059 3.28033 7.28033Z" fill="#101010"/>
<path fill-rule="evenodd" clip-rule="evenodd" d="M18.3543 6.0917C18.5909 5.75167 19.0583 5.66778 19.3983 5.90432C20.3652 6.57695 20.75 7.69341 20.75 9V14C20.75 15.1156 20.4706 16.0901 19.7803 16.7803C19.0901 17.4706 18.1156 17.75 17 17.75H15C14.5858 17.75 14.25 17.4142 14.25 17V14.75H12C11.5858 14.75 11.25 14.4142 11.25 14C11.25 13.5858 11.5858 13.25 12 13.25H15C15.4142 13.25 15.75 13.5858 15.75 14V16.25H17C17.8844 16.25 18.4099 16.0294 18.7197 15.7197C19.0294 15.4099 19.25 14.8844 19.25 14V9C19.25 7.96659 18.9548 7.42305 18.5417 7.13568C18.2017 6.89914 18.1178 6.43173 18.3543 6.0917Z" fill="#101010"/>
<path fill-rule="evenodd" clip-rule="evenodd" d="M14.04 14C14.04 13.5858 14.3758 13.25 14.79 13.25H16C16.4143 13.25 16.75 13.5858 16.75 14C16.75 14.4142 16.4143 14.75 16 14.75H14.79C14.3758 14.75 14.04 14.4142 14.04 14Z" fill="#101010"/>
<path fill-rule="evenodd" clip-rule="evenodd" d="M5.25 10C5.25 9.58579 5.58579 9.25 6 9.25H8C8.41421 9.25 8.75 9.58579 8.75 10C8.75 10.4142 8.41421 10.75 8 10.75H6C5.58579 10.75 5.25 10.4142 5.25 10Z" fill="#101010"/>
<path fill-rule="evenodd" clip-rule="evenodd" d="M21.5303 0.46967C21.8232 0.762563 21.8232 1.23744 21.5303 1.53033L1.53033 21.5303C1.23744 21.8232 0.762563 21.8232 0.46967 21.5303C0.176777 21.2374 0.176777 20.7626 0.46967 20.4697L20.4697 0.46967C20.7626 0.176777 21.2374 0.176777 21.5303 0.46967Z" fill="#101010"/>
</svg>
