<svg width="22" height="22" viewBox="0 0 22 22" fill="none" xmlns="http://www.w3.org/2000/svg">
<path fill-rule="evenodd" clip-rule="evenodd" d="M2.09662 2.09467C3.43109 0.760201 5.42798 0.25 8.00195 0.25H14.002C16.5759 0.25 18.5728 0.760201 19.9073 2.09467C21.2418 3.42914 21.752 5.42603 21.752 8V14C21.752 16.574 21.2418 18.5709 19.9073 19.9053C18.5728 21.2398 16.5759 21.75 14.002 21.75H8.00195C5.42798 21.75 3.43109 21.2398 2.09662 19.9053C0.762154 18.5709 0.251953 16.574 0.251953 14V8C0.251953 5.42603 0.762154 3.42914 2.09662 2.09467ZM3.15728 3.15533C2.24175 4.07086 1.75195 5.57397 1.75195 8V14C1.75195 16.426 2.24175 17.9291 3.15728 18.8447C4.07281 19.7602 5.57593 20.25 8.00195 20.25H14.002C16.428 20.25 17.9311 19.7602 18.8466 18.8447C19.7622 17.9291 20.252 16.426 20.252 14V8C20.252 5.57397 19.7622 4.07086 18.8466 3.15533C17.9311 2.2398 16.428 1.75 14.002 1.75H8.00195C5.57593 1.75 4.07281 2.2398 3.15728 3.15533Z" fill="#101010"/>
<path fill-rule="evenodd" clip-rule="evenodd" d="M13.3218 7.71997C13.0508 7.71997 12.8818 7.89901 12.8818 8.15997V9.65002C12.8818 9.91099 13.0508 10.09 13.3218 10.09H15.2518V8.15997C15.2518 7.92418 15.0476 7.71997 14.8118 7.71997H13.3218ZM11.3818 8.15997C11.3818 7.12094 12.1729 6.21997 13.3218 6.21997H14.8118C15.8761 6.21997 16.7518 7.09576 16.7518 8.15997V10.84C16.7518 11.2542 16.416 11.59 16.0018 11.59H13.3218C12.1729 11.59 11.3818 10.6891 11.3818 9.65002V8.15997Z" fill="#101010"/>
<path fill-rule="evenodd" clip-rule="evenodd" d="M16.0022 10.09C16.4164 10.09 16.7522 10.4258 16.7522 10.84C16.7522 12.2486 16.6282 13.2351 16.2003 13.999C15.7635 14.779 15.0672 15.2176 14.2945 15.6753C13.9381 15.8864 13.478 15.7686 13.2669 15.4123C13.0558 15.0559 13.1736 14.5958 13.53 14.3847C14.3272 13.9125 14.676 13.651 14.8916 13.266C15.1162 12.865 15.2522 12.2214 15.2522 10.84C15.2522 10.4258 15.588 10.09 16.0022 10.09Z" fill="#101010"/>
<path fill-rule="evenodd" clip-rule="evenodd" d="M7.18219 7.71997C6.91114 7.71997 6.74219 7.89901 6.74219 8.15997V9.65002C6.74219 9.91099 6.91114 10.09 7.18219 10.09H9.11219V8.15997C9.11219 7.92419 8.90797 7.71997 8.67218 7.71997H7.18219ZM5.24219 8.15997C5.24219 7.12094 6.03324 6.21997 7.18219 6.21997H8.67218C9.7364 6.21997 10.6122 7.09576 10.6122 8.15997V10.84C10.6122 11.2542 10.2764 11.59 9.86219 11.59H7.18219C6.03324 11.59 5.24219 10.6891 5.24219 9.65002V8.15997Z" fill="#101010"/>
<path fill-rule="evenodd" clip-rule="evenodd" d="M9.86258 10.09C10.2768 10.09 10.6126 10.4258 10.6126 10.84C10.6126 12.2486 10.4886 13.2351 10.0607 13.999C9.62382 14.779 8.92756 15.2176 8.15482 15.6753C7.79844 15.8864 7.3384 15.7686 7.12729 15.4123C6.91619 15.0559 7.03396 14.5958 7.39034 14.3847C8.1876 13.9125 8.53634 13.651 8.75197 13.266C8.97659 12.865 9.11258 12.2214 9.11258 10.84C9.11258 10.4258 9.44836 10.09 9.86258 10.09Z" fill="#101010"/>
</svg>
