<svg width="22" height="20" viewBox="0 0 22 20" fill="none" xmlns="http://www.w3.org/2000/svg">
<path fill-rule="evenodd" clip-rule="evenodd" d="M15.2021 2.02002C14.1072 2.02002 13.3721 2.82294 13.3721 3.84998V7.07001C13.3721 8.09706 14.1072 8.90002 15.2021 8.90002H20.2521V3.84998C20.2521 2.84421 19.4279 2.02002 18.4221 2.02002H15.2021ZM11.8721 3.84998C11.8721 2.03701 13.2369 0.52002 15.2021 0.52002H18.4221C20.2563 0.52002 21.7521 2.01575 21.7521 3.84998V9.65002C21.7521 10.0642 21.4163 10.4 21.0021 10.4H15.2021C13.2369 10.4 11.8721 8.88295 11.8721 7.07001V3.84998Z" fill="#101010"/>
<path fill-rule="evenodd" clip-rule="evenodd" d="M21.0018 8.90002C21.416 8.90002 21.7518 9.23581 21.7518 9.65002C21.7518 12.6886 21.4753 14.6231 20.6656 16.0637C19.8474 17.5195 18.5407 18.3632 16.8549 19.3648C16.4988 19.5763 16.0386 19.4592 15.827 19.1031C15.6154 18.7469 15.7326 18.2868 16.0887 18.0752C17.8029 17.0568 18.7612 16.3905 19.358 15.3288C19.9633 14.2519 20.2518 12.6615 20.2518 9.65002C20.2518 9.23581 20.5876 8.90002 21.0018 8.90002Z" fill="#101010"/>
<path fill-rule="evenodd" clip-rule="evenodd" d="M3.57219 2.02002C2.47733 2.02002 1.74219 2.82294 1.74219 3.84998V7.07001C1.74219 8.09706 2.47736 8.90002 3.57219 8.90002H8.63219V3.84998C8.63219 2.84421 7.80799 2.02002 6.80219 2.02002H3.57219ZM9.37719 10.4C9.37885 10.4 9.38052 10.4 9.38219 10.4C9.7964 10.4 10.1322 10.0642 10.1322 9.65002V3.84998C10.1322 2.01575 8.63638 0.52002 6.80219 0.52002H3.57219C1.60704 0.52002 0.242188 2.03701 0.242188 3.84998V7.07001C0.242188 8.88295 1.60702 10.4 3.57219 10.4H9.37219C9.37386 10.4 9.37552 10.4 9.37719 10.4Z" fill="#101010"/>
<path fill-rule="evenodd" clip-rule="evenodd" d="M9.37191 8.90002C9.78613 8.90002 10.1219 9.23581 10.1219 9.65002C10.1219 12.6886 9.84544 14.6231 9.03571 16.0637C8.21748 17.5195 6.91086 18.3632 5.22499 19.3648C4.86889 19.5763 4.4087 19.4592 4.19713 19.1031C3.98556 18.7469 4.10273 18.2868 4.45883 18.0752C6.17297 17.0568 7.13135 16.3905 7.72811 15.3288C8.33338 14.2519 8.62191 12.6615 8.62191 9.65002C8.62191 9.23581 8.9577 8.90002 9.37191 8.90002Z" fill="#101010"/>
</svg>
