<svg width="22" height="22" viewBox="0 0 22 22" fill="none" xmlns="http://www.w3.org/2000/svg">
<path fill-rule="evenodd" clip-rule="evenodd" d="M1.84467 4.84467C2.87925 3.81009 4.32956 3.25 6 3.25H16C17.6704 3.25 19.1207 3.81009 20.1553 4.84467C21.1899 5.87925 21.75 7.32956 21.75 9V16C21.75 17.6704 21.1899 19.1207 20.1553 20.1553C19.1207 21.1899 17.6704 21.75 16 21.75H6C4.32956 21.75 2.87925 21.1899 1.84467 20.1553C0.810085 19.1207 0.25 17.6704 0.25 16V9C0.25 7.32956 0.810085 5.87925 1.84467 4.84467ZM2.90533 5.90533C2.18991 6.62075 1.75 7.67044 1.75 9V16C1.75 17.3296 2.18991 18.3793 2.90533 19.0947C3.62075 19.8101 4.67044 20.25 6 20.25H16C17.3296 20.25 18.3793 19.8101 19.0947 19.0947C19.8101 18.3793 20.25 17.3296 20.25 16V9C20.25 7.67044 19.8101 6.62075 19.0947 5.90533C18.3793 5.18991 17.3296 4.75 16 4.75H6C4.67044 4.75 3.62075 5.18991 2.90533 5.90533Z" fill="#101010"/>
<path fill-rule="evenodd" clip-rule="evenodd" d="M6 0.25C6.41421 0.25 6.75 0.585786 6.75 1V4C6.75 4.41421 6.41421 4.75 6 4.75C5.58579 4.75 5.25 4.41421 5.25 4V1C5.25 0.585786 5.58579 0.25 6 0.25Z" fill="#101010"/>
<path fill-rule="evenodd" clip-rule="evenodd" d="M7.5 10.75C6.5335 10.75 5.75 11.5335 5.75 12.5C5.75 13.4665 6.5335 14.25 7.5 14.25C8.4665 14.25 9.25 13.4665 9.25 12.5C9.25 11.5335 8.4665 10.75 7.5 10.75ZM4.25 12.5C4.25 10.7051 5.70507 9.25 7.5 9.25C9.29493 9.25 10.75 10.7051 10.75 12.5C10.75 14.2949 9.29493 15.75 7.5 15.75C5.70507 15.75 4.25 14.2949 4.25 12.5Z" fill="#101010"/>
<path fill-rule="evenodd" clip-rule="evenodd" d="M12.75 10C12.75 9.58579 13.0858 9.25 13.5 9.25H17.5C17.9142 9.25 18.25 9.58579 18.25 10C18.25 10.4142 17.9142 10.75 17.5 10.75H13.5C13.0858 10.75 12.75 10.4142 12.75 10Z" fill="#101010"/>
<path fill-rule="evenodd" clip-rule="evenodd" d="M12.75 14C12.75 13.5858 13.0858 13.25 13.5 13.25H14C14.4142 13.25 14.75 13.5858 14.75 14C14.75 14.4142 14.4142 14.75 14 14.75H13.5C13.0858 14.75 12.75 14.4142 12.75 14Z" fill="#101010"/>
<path fill-rule="evenodd" clip-rule="evenodd" d="M16.25 14C16.25 13.5858 16.5858 13.25 17 13.25H17.5C17.9142 13.25 18.25 13.5858 18.25 14C18.25 14.4142 17.9142 14.75 17.5 14.75H17C16.5858 14.75 16.25 14.4142 16.25 14Z" fill="#101010"/>
</svg>
