<svg width="20" height="22" viewBox="0 0 20 22" fill="none" xmlns="http://www.w3.org/2000/svg">
<path fill-rule="evenodd" clip-rule="evenodd" d="M2.12384 1.86636C3.11342 0.794051 4.58817 0.25 6.49 0.25H13.49C15.3697 0.25 16.8435 0.79554 17.8397 1.8634C18.8271 2.92192 19.24 4.38154 19.24 6V7C19.24 7.96421 18.4542 8.75 17.49 8.75C17.3542 8.75 17.24 8.86421 17.24 9V11.18C17.24 11.5068 17.3679 11.8173 17.6103 12.0597L18.4371 12.8864C18.9632 13.4007 19.25 14.1044 19.25 14.83V16C19.25 17.6185 18.8371 19.0781 17.8497 20.1366C16.8535 21.2045 15.3797 21.75 13.5 21.75H6.5C4.59378 21.75 3.11654 21.2063 2.12548 20.1341C1.14441 19.0726 0.75 17.6115 0.75 16V6C0.75 4.38854 1.1444 2.92767 2.12384 1.86636ZM3.22616 2.88364C2.5906 3.57233 2.25 4.61146 2.25 6V16C2.25 17.3885 2.59059 18.4274 3.22702 19.1159C3.85347 19.7937 4.87622 20.25 6.5 20.25H13.5C15.0903 20.25 16.1165 19.7955 16.7528 19.1134C17.3979 18.4219 17.75 17.3815 17.75 16V14.83C17.75 14.4974 17.6182 14.1827 17.3868 13.9574L17.3796 13.9504L17.3797 13.9503L16.5497 13.1203C16.0321 12.6027 15.74 11.9132 15.74 11.18V9C15.74 8.03579 16.5258 7.25 17.49 7.25C17.6258 7.25 17.74 7.13579 17.74 7V6C17.74 4.61846 17.3879 3.57808 16.7428 2.8866C16.1065 2.20446 15.0803 1.75 13.49 1.75H6.49C4.87183 1.75 3.85158 2.20595 3.22616 2.88364Z" fill="#101010"/>
<path fill-rule="evenodd" clip-rule="evenodd" d="M6.73047 17.9989C6.73047 17.9992 6.73047 17.9996 6.73047 18L6.74046 20.9675C6.74186 21.3817 6.4072 21.7186 5.99299 21.72C5.57878 21.7214 5.24187 21.3867 5.24047 20.9725L5.23047 18.0025L5.23047 18C5.23047 16.4758 6.45625 15.25 7.98047 15.25H11.9905C13.506 15.25 14.7267 16.4756 14.7404 17.9832L14.7704 20.9725C14.7746 21.3867 14.4422 21.7258 14.028 21.73C13.6138 21.7341 13.2747 21.4017 13.2705 20.9875L13.2405 17.9975C13.2342 17.3051 12.675 16.75 11.9905 16.75H7.98047C7.28506 16.75 6.73107 17.3036 6.73047 17.9989Z" fill="#101010"/>
<path fill-rule="evenodd" clip-rule="evenodd" d="M7.00341 0.310112C7.41756 0.317277 7.74749 0.658822 7.74032 1.07297L7.69032 3.96297C7.68315 4.37713 7.34161 4.70705 6.92746 4.69989C6.51331 4.69272 6.18338 4.35118 6.19054 3.93703L6.24054 1.04703C6.24771 0.632874 6.58925 0.302947 7.00341 0.310112Z" fill="#101010"/>
<path fill-rule="evenodd" clip-rule="evenodd" d="M10.0034 0.310112C10.4176 0.317277 10.7475 0.658822 10.7403 1.07297L10.6903 3.96297C10.6832 4.37713 10.3416 4.70705 9.92746 4.69989C9.51331 4.69272 9.18338 4.35118 9.19054 3.93703L9.24054 1.04703C9.24771 0.632874 9.58925 0.302947 10.0034 0.310112Z" fill="#101010"/>
<path fill-rule="evenodd" clip-rule="evenodd" d="M13.0035 0.290124C13.4176 0.297314 13.7475 0.638879 13.7403 1.05303L13.6903 3.93303C13.6831 4.34718 13.3416 4.67709 12.9274 4.6699C12.5133 4.66271 12.1834 4.32114 12.1905 3.90699L12.2405 1.02699C12.2477 0.612841 12.5893 0.282934 13.0035 0.290124Z" fill="#101010"/>
</svg>
