<svg width="22" height="23" viewBox="0 0 22 23" fill="none" xmlns="http://www.w3.org/2000/svg">
<path fill-rule="evenodd" clip-rule="evenodd" d="M0.25 16C0.25 14.4858 1.48579 13.25 3 13.25H7.67C8.08421 13.25 8.42 13.5858 8.42 14V22C8.42 22.4142 8.08421 22.75 7.67 22.75H1C0.585786 22.75 0.25 22.4142 0.25 22V16ZM3 14.75C2.31421 14.75 1.75 15.3142 1.75 16V21.25H6.92V14.75H3Z" fill="#101010"/>
<path fill-rule="evenodd" clip-rule="evenodd" d="M6.91016 12C6.91016 10.4858 8.14594 9.25 9.66016 9.25H12.3302C13.8568 9.25 15.0802 10.4882 15.0802 12V22C15.0802 22.4142 14.7444 22.75 14.3302 22.75H7.66016C7.24594 22.75 6.91016 22.4142 6.91016 22V12ZM9.66016 10.75C8.97437 10.75 8.41016 11.3142 8.41016 12V21.25H13.5802V12C13.5802 11.3118 13.0235 10.75 12.3302 10.75H9.66016Z" fill="#101010"/>
<path fill-rule="evenodd" clip-rule="evenodd" d="M13.5801 17C13.5801 16.5858 13.9159 16.25 14.3301 16.25H19.0001C20.5143 16.25 21.7501 17.4858 21.7501 19V22C21.7501 22.4142 21.4143 22.75 21.0001 22.75H14.3301C13.9159 22.75 13.5801 22.4142 13.5801 22V17ZM15.0801 17.75V21.25H20.2501V19C20.2501 18.3142 19.6859 17.75 19.0001 17.75H15.0801Z" fill="#101010"/>
<path fill-rule="evenodd" clip-rule="evenodd" d="M11.0024 2.71199L10.6207 3.47536L10.6207 3.47536C10.5171 3.68252 10.3577 3.83734 10.2189 3.93975C10.0783 4.04344 9.8877 4.14593 9.66809 4.18711L9.65315 4.18975L9.01645 4.29585L9.51252 4.79192C9.69793 4.96909 9.80097 5.19032 9.85373 5.37154C9.90789 5.55757 9.93687 5.79669 9.88066 6.03863L9.75846 6.57395L10.313 6.24739C10.539 6.10955 10.7896 6.06496 10.9949 6.06496C11.2002 6.06496 11.4507 6.10955 11.6767 6.24739L12.2313 6.57395L12.1091 6.03862C12.0528 5.79647 12.0818 5.55918 12.1367 5.37281C12.1925 5.18374 12.297 4.97216 12.4695 4.7996L12.9833 4.28586L12.3575 4.18155C12.1241 4.14816 11.9248 4.04338 11.7809 3.93724C11.6347 3.82938 11.4771 3.66952 11.3757 3.45873L11.0024 2.71199ZM10.9949 0.893704C11.603 0.889666 11.9912 1.34232 12.1883 1.72985L12.1907 1.73453L12.1907 1.73454L12.6808 2.71475L13.5512 2.85983C13.5516 2.85989 13.5519 2.85995 13.5523 2.86001C13.9914 2.93225 14.513 3.17484 14.6961 3.732C14.881 4.29462 14.5977 4.79838 14.2776 5.11289L13.5927 5.79777L13.7808 6.62169C13.8804 7.05104 13.9099 7.73085 13.365 8.12754C12.822 8.52287 12.185 8.28901 11.8082 8.06558C11.8078 8.06534 11.8074 8.06509 11.807 8.06485L10.9949 7.58662L10.1828 8.06485C10.1824 8.06508 10.182 8.06532 10.1816 8.06555C9.80476 8.28899 9.16776 8.52289 8.6247 8.12754C8.07975 7.73082 8.10937 7.05094 8.20901 6.62159C8.20914 6.621 8.20928 6.62042 8.20941 6.61984L8.39705 5.79777L7.71954 5.12027L7.71954 5.12027C7.41033 4.81105 7.11521 4.30826 7.29887 3.7413C7.48224 3.17525 8.01494 2.94023 8.44829 2.86984L9.31894 2.72476L9.80905 1.74452L9.80905 1.74452C10.0045 1.35355 10.3884 0.89773 10.9949 0.893704ZM11.0974 7.52595C11.0945 7.52775 11.0917 7.52946 11.0889 7.53108L11.0974 7.52595ZM10.9008 7.53108C10.8981 7.52945 10.8952 7.52775 10.8924 7.52595L10.9008 7.53108ZM12.7295 2.81278L12.725 2.80348C12.7265 2.80646 12.728 2.80956 12.7295 2.81278Z" fill="#101010"/>
</svg>
