<svg width="18" height="22" viewBox="0 0 18 22" fill="none" xmlns="http://www.w3.org/2000/svg">
<path fill-rule="evenodd" clip-rule="evenodd" d="M9.00005 6.7876C8.94324 6.7876 8.67127 6.8405 8.37182 7.44363L8.37088 7.44551L7.05087 10.0855C6.89258 10.4021 6.63338 10.6648 6.37625 10.8535C6.11828 11.0428 5.79258 11.2088 5.44934 11.2689L5.44386 11.2698L3.05099 11.6703C2.41598 11.774 2.28227 12.0105 2.26268 12.0713C2.24312 12.132 2.21334 12.4027 2.67039 12.8598L4.5388 14.7282C4.79915 14.9969 4.97296 15.3476 5.06925 15.6804C5.16506 16.0115 5.20731 16.4056 5.12087 16.7787C5.12077 16.7791 5.12067 16.7795 5.12057 16.78L4.59104 19.0878C4.39608 19.9326 4.61698 20.1401 4.62164 20.1436C4.62669 20.1472 4.89111 20.2951 5.6379 19.8548C5.63823 19.8546 5.63856 19.8544 5.6389 19.8542L7.88117 18.5228C8.22718 18.3203 8.63325 18.2401 9.00005 18.2401C9.36684 18.2401 9.77291 18.3203 10.1189 18.5228L10.1229 18.5252L12.3612 19.8542C12.3615 19.8544 12.3619 19.8546 12.3622 19.8548C13.109 20.2951 13.3734 20.1472 13.3785 20.1436C13.3831 20.1401 13.6042 19.9336 13.4093 19.0887L12.8787 16.7763C12.7936 16.4017 12.8343 16.0067 12.9308 15.6729C13.0273 15.3397 13.2027 14.9867 13.4697 14.7198L15.3297 12.8598C15.788 12.4015 15.7564 12.1337 15.7376 12.0756C15.718 12.015 15.5833 11.7783 14.9453 11.6696C14.945 11.6696 14.9456 11.6697 14.9453 11.6696L12.5615 11.2707C12.2075 11.2159 11.8772 11.0448 11.6213 10.8554C11.3629 10.6641 11.106 10.3992 10.9492 10.0855L9.62922 7.44551L9.62828 7.44363C9.32882 6.8405 9.05686 6.7876 9.00005 6.7876ZM10.9714 6.77582C10.5608 5.94929 9.88795 5.2876 9.00005 5.2876C8.11225 5.2876 7.43942 5.94914 7.02883 6.77552C7.02865 6.77587 7.02848 6.77622 7.0283 6.77657L5.70923 9.41469C5.68753 9.4581 5.61673 9.55035 5.48886 9.64417C5.36313 9.73643 5.24986 9.78049 5.19252 9.79101L2.8091 10.1899C2.80857 10.19 2.80804 10.1901 2.80751 10.1902C1.91315 10.3367 1.10266 10.7802 0.834925 11.6114C0.566999 12.4432 0.966787 13.2775 1.60973 13.9204C1.60973 13.9204 1.60973 13.9204 1.60973 13.9204L3.46417 15.7749C3.51366 15.8275 3.583 15.9406 3.62836 16.0973C3.67495 16.2583 3.67271 16.3836 3.65956 16.4402L3.65906 16.4424L3.12924 18.7515C3.12928 18.7513 3.1292 18.7516 3.12924 18.7515C2.90435 19.7265 2.95823 20.7852 3.73593 21.3541C4.51338 21.9229 5.53874 21.6549 6.40118 21.146L6.40294 21.145L8.64034 19.8165C8.7048 19.7793 8.83307 19.7401 9.00005 19.7401C9.16703 19.7401 9.2953 19.7793 9.35976 19.8165L11.5972 21.145L11.5989 21.146C12.4614 21.6549 13.4867 21.9229 14.2642 21.3541C15.0419 20.7852 15.0959 19.727 14.871 18.752C14.871 18.7522 14.8709 18.7518 14.871 18.752L14.3414 16.4439C14.3414 16.444 14.3414 16.4438 14.3414 16.4439C14.3266 16.3783 14.3259 16.2482 14.3717 16.0898C14.4178 15.9305 14.4874 15.8235 14.5304 15.7804L16.3904 13.9204C17.0321 13.2787 17.4337 12.4465 17.165 11.6146C16.8971 10.7852 16.087 10.3421 15.1957 10.1907L12.8038 9.79038L12.7913 9.78839C12.7481 9.78191 12.6412 9.7441 12.5138 9.64979C12.3872 9.55608 12.314 9.46104 12.2909 9.41469L10.9714 6.77582C10.9713 6.77556 10.9715 6.77607 10.9714 6.77582Z" fill="#101010"/>
<path fill-rule="evenodd" clip-rule="evenodd" d="M3 0.25C3.41421 0.25 3.75 0.585786 3.75 1V8C3.75 8.41421 3.41421 8.75 3 8.75C2.58579 8.75 2.25 8.41421 2.25 8V1C2.25 0.585786 2.58579 0.25 3 0.25Z" fill="#101010"/>
<path fill-rule="evenodd" clip-rule="evenodd" d="M15 0.25C15.4142 0.25 15.75 0.585786 15.75 1V8C15.75 8.41421 15.4142 8.75 15 8.75C14.5858 8.75 14.25 8.41421 14.25 8V1C14.25 0.585786 14.5858 0.25 15 0.25Z" fill="#101010"/>
<path fill-rule="evenodd" clip-rule="evenodd" d="M9 0.25C9.41421 0.25 9.75 0.585786 9.75 1V3C9.75 3.41421 9.41421 3.75 9 3.75C8.58579 3.75 8.25 3.41421 8.25 3V1C8.25 0.585786 8.58579 0.25 9 0.25Z" fill="#101010"/>
</svg>
