<svg width="20" height="21" viewBox="0 0 20 21" fill="none" xmlns="http://www.w3.org/2000/svg">
<path fill-rule="evenodd" clip-rule="evenodd" d="M1.89481 1.49637C2.84095 0.485041 4.3285 0.25 6.22 0.25H13.78C15.6715 0.25 17.1591 0.485041 18.1052 1.49637C19.0347 2.48991 19.25 4.03645 19.25 6.04001V10.3C19.25 10.7142 18.9142 11.05 18.5 11.05C18.0858 11.05 17.75 10.7142 17.75 10.3V6.04001C17.75 4.01357 17.4953 3.0401 17.0098 2.52114C16.5409 2.01996 15.6685 1.75 13.78 1.75H6.22C4.3315 1.75 3.45906 2.01996 2.99019 2.52114C2.50468 3.0401 2.25 4.01357 2.25 6.04001V17.3C2.25 17.9046 2.33408 18.3385 2.45025 18.6233C2.56542 18.9057 2.68815 18.9904 2.74794 19.0162C2.80225 19.0396 2.92947 19.0686 3.18132 18.9599C3.44052 18.848 3.78163 18.6077 4.18124 18.1788C4.18701 18.1726 4.19289 18.1665 4.19887 18.1605L4.20198 18.1574C5.3393 16.9598 7.1318 17.0578 8.12075 18.381L9.13053 19.7307C9.37867 20.0624 9.31095 20.5324 8.97929 20.7805C8.64762 21.0287 8.1776 20.9609 7.92947 20.6293L6.91946 19.2793L6.91923 19.279C6.49043 18.7052 5.78886 18.6606 5.28577 19.1944L5.27113 19.2095L5.26989 19.2108C4.78723 19.7271 4.28513 20.1171 3.77589 20.337C3.25617 20.5614 2.68652 20.6229 2.15457 20.3938C1.62811 20.1671 1.27521 19.7143 1.06131 19.1898C0.848419 18.6677 0.75 18.0254 0.75 17.3V6.04001C0.75 4.03645 0.96532 2.48991 1.89481 1.49637Z" fill="#101010"/>
<path fill-rule="evenodd" clip-rule="evenodd" d="M5.25 6C5.25 5.58579 5.58579 5.25 6 5.25H14C14.4142 5.25 14.75 5.58579 14.75 6C14.75 6.41421 14.4142 6.75 14 6.75H6C5.58579 6.75 5.25 6.41421 5.25 6Z" fill="#101010"/>
<path fill-rule="evenodd" clip-rule="evenodd" d="M6.25 10C6.25 9.58579 6.58579 9.25 7 9.25H13C13.4142 9.25 13.75 9.58579 13.75 10C13.75 10.4142 13.4142 10.75 13 10.75H7C6.58579 10.75 6.25 10.4142 6.25 10Z" fill="#101010"/>
<path fill-rule="evenodd" clip-rule="evenodd" d="M17.1342 12.4568C17.7974 12.3886 18.4077 12.6865 18.9512 13.23C19.4978 13.7766 19.7992 14.3882 19.7334 15.053C19.6716 15.6781 19.2988 16.163 18.9512 16.5107L15.4188 20.043C15.2722 20.1966 15.0919 20.3083 14.9438 20.3824C14.7879 20.4603 14.5985 20.5311 14.4078 20.5612L14.3954 20.5631L13.0469 20.7528C13.0466 20.7528 13.0472 20.7528 13.0469 20.7528C12.6054 20.8156 12.1494 20.6996 11.8205 20.3707C11.4916 20.0417 11.3754 19.5866 11.4382 19.1451C11.4383 19.1448 11.4382 19.1454 11.4382 19.1451L11.6299 17.7833C11.6605 17.5896 11.7328 17.4013 11.8104 17.248C11.8879 17.0946 11.9982 16.9223 12.1405 16.78C12.1405 16.78 12.1405 16.78 12.1405 16.78L15.6805 13.24C16.0282 12.8923 16.5121 12.5207 17.1342 12.4568ZM17.2875 13.9489C17.1796 13.96 17.0035 14.0383 16.7412 14.3006L13.2025 17.8393C13.202 17.84 13.1964 17.8463 13.1871 17.8599C13.1752 17.8771 13.1618 17.8995 13.1488 17.9252C13.1358 17.9508 13.1257 17.975 13.1188 17.9948C13.1145 18.0072 13.1124 18.015 13.1117 18.018L12.9378 19.2534L14.1739 19.0794C14.1771 19.0786 14.1862 19.0764 14.201 19.0713C14.2223 19.0639 14.2474 19.0535 14.2729 19.0408C14.2986 19.0279 14.319 19.0155 14.3326 19.0061C14.3358 19.0039 14.3382 19.0021 14.3399 19.0009C14.3434 18.9972 14.3469 18.9936 14.3505 18.99L17.8905 15.45C18.1529 15.1876 18.2301 15.0126 18.2407 14.9052C18.2474 14.8375 18.2439 14.6441 17.8905 14.2907C17.544 13.9442 17.3543 13.942 17.2875 13.9489Z" fill="#101010"/>
<path fill-rule="evenodd" clip-rule="evenodd" d="M15.4987 13.5577C15.8978 13.4468 16.3112 13.6805 16.422 14.0796C16.6516 14.9062 17.2936 15.5481 18.1201 15.7777C18.5192 15.8886 18.7529 16.302 18.642 16.7011C18.5312 17.1002 18.1178 17.3338 17.7187 17.223C16.3852 16.8526 15.3472 15.8145 14.9768 14.4811C14.8659 14.082 15.0996 13.6686 15.4987 13.5577Z" fill="#101010"/>
</svg>
