<svg width="22" height="22" viewBox="0 0 22 22" fill="none" xmlns="http://www.w3.org/2000/svg">
<path fill-rule="evenodd" clip-rule="evenodd" d="M5.76968 9.66972C5.46714 9.97152 5.25 10.5193 5.25 11.58V14.31C5.25 15.3746 5.46917 15.9255 5.77343 16.229C6.07808 16.5329 6.62951 16.75 7.69 16.75H10.41C11.4764 16.75 12.0268 16.5325 12.3297 16.2297C12.6325 15.9268 12.85 15.3764 12.85 14.31V11.58C12.85 10.5194 12.6329 9.97103 12.3309 9.66907C12.029 9.36712 11.4806 9.14999 10.42 9.14999H7.69C6.62361 9.14999 6.07269 9.36745 5.76968 9.66972ZM4.71032 8.60777C5.43231 7.88754 6.47639 7.64999 7.69 7.64999H10.42C11.6294 7.64999 12.671 7.88787 13.3916 8.60841C14.1121 9.32896 14.35 10.3706 14.35 11.58V14.31C14.35 15.5236 14.1125 16.5682 13.3903 17.2903C12.6682 18.0125 11.6236 18.25 10.41 18.25H7.69C6.48049 18.25 5.43692 18.0121 4.71407 17.291C3.99083 16.5695 3.75 15.5254 3.75 14.31V11.58C3.75 10.3707 3.98786 9.32846 4.71032 8.60777Z" fill="#101010"/>
<path fill-rule="evenodd" clip-rule="evenodd" d="M9.15045 7.65H10.4104C11.624 7.65 12.6681 7.88754 13.3901 8.60777C14.1125 9.32847 14.3504 10.3707 14.3504 11.58V12.8499C15.3906 12.8445 15.931 12.6287 16.2301 12.3297C16.5329 12.0268 16.7504 11.4764 16.7504 10.41V7.68C16.7504 6.61937 16.5333 6.07103 16.2313 5.76908C15.9294 5.46713 15.381 5.25 14.3204 5.25H11.5904C10.5221 5.25 9.97178 5.46575 9.66942 5.76663C9.37077 6.06382 9.1545 6.60312 9.15045 7.65ZM8.61136 4.70337C9.334 3.98426 10.3787 3.75 11.5904 3.75H14.3204C15.5298 3.75 16.5714 3.98787 17.292 4.70842C18.0125 5.42897 18.2504 6.47063 18.2504 7.68V10.41C18.2504 11.6236 18.0129 12.6682 17.2907 13.3903C16.5686 14.1125 15.524 14.35 14.3104 14.35H13.6004C13.1862 14.35 12.8504 14.0142 12.8504 13.6V11.58C12.8504 10.5193 12.6333 9.97153 12.3307 9.66973C12.0277 9.36745 11.4768 9.15 10.4104 9.15H8.40039C7.98618 9.15 7.65039 8.81421 7.65039 8.4V7.68C7.65039 6.4666 7.88785 5.42335 8.61136 4.70337Z" fill="#101010"/>
<path fill-rule="evenodd" clip-rule="evenodd" d="M21 13.25C21.4142 13.25 21.75 13.5858 21.75 14C21.75 18.2842 18.2842 21.75 14 21.75C13.7298 21.75 13.4805 21.6047 13.3474 21.3695C13.2142 21.1344 13.2179 20.8458 13.3569 20.6141L14.4069 18.8641C14.62 18.5089 15.0807 18.3938 15.4359 18.6069C15.7911 18.82 15.9062 19.2807 15.6931 19.6359L15.4218 20.0881C18.1909 19.4456 20.25 16.9666 20.25 14C20.25 13.5858 20.5858 13.25 21 13.25Z" fill="#101010"/>
<path fill-rule="evenodd" clip-rule="evenodd" d="M6.57819 1.91194C3.8091 2.55437 1.75 5.03342 1.75 8C1.75 8.41421 1.41421 8.75 1 8.75C0.585786 8.75 0.25 8.41421 0.25 8C0.25 3.71579 3.71579 0.25 8 0.25C8.2702 0.25 8.51952 0.395344 8.65265 0.630476C8.78578 0.865607 8.78214 1.15417 8.64312 1.38587L7.59312 3.13587C7.38001 3.49106 6.91931 3.60623 6.56413 3.39312C6.20894 3.18001 6.09377 2.71931 6.30688 2.36413L6.57819 1.91194Z" fill="#101010"/>
</svg>
