<svg width="18" height="16" viewBox="0 0 18 16" fill="none" xmlns="http://www.w3.org/2000/svg">
<path fill-rule="evenodd" clip-rule="evenodd" d="M5.87012 5.05994C3.52433 5.05994 1.62012 6.96415 1.62012 9.30994C1.62012 11.6557 3.52433 13.5599 5.87012 13.5599H13.8701C14.2843 13.5599 14.6201 13.8957 14.6201 14.3099C14.6201 14.7241 14.2843 15.0599 13.8701 15.0599H5.87012C2.6959 15.0599 0.120117 12.4841 0.120117 9.30994C0.120117 6.13572 2.6959 3.55994 5.87012 3.55994H16.8701C17.2843 3.55994 17.6201 3.89572 17.6201 4.30994C17.6201 4.72415 17.2843 5.05994 16.8701 5.05994H5.87012Z" fill="#101010"/>
<path fill-rule="evenodd" clip-rule="evenodd" d="M14.04 1.15961C14.3329 0.866718 14.8077 0.866718 15.1006 1.15961L17.6606 3.71961C17.9535 4.0125 17.9535 4.48738 17.6606 4.78027L15.1006 7.34027C14.8077 7.63316 14.3329 7.63316 14.04 7.34027C13.7471 7.04738 13.7471 6.5725 14.04 6.27961L16.0697 4.24994L14.04 2.22027C13.7471 1.92738 13.7471 1.4525 14.04 1.15961Z" fill="#101010"/>
</svg>
