<svg width="22" height="22" viewBox="0 0 22 22" fill="none" xmlns="http://www.w3.org/2000/svg">
<path fill-rule="evenodd" clip-rule="evenodd" d="M2.09467 2.09467C3.42914 0.760201 5.42603 0.25 8 0.25H14C16.574 0.25 18.5709 0.760201 19.9053 2.09467C21.2398 3.42914 21.75 5.42603 21.75 8V14C21.75 16.574 21.2398 18.5709 19.9053 19.9053C18.5709 21.2398 16.574 21.75 14 21.75H8C5.42603 21.75 3.42914 21.2398 2.09467 19.9053C0.760201 18.5709 0.25 16.574 0.25 14V8C0.25 5.42603 0.760201 3.42914 2.09467 2.09467ZM3.15533 3.15533C2.2398 4.07086 1.75 5.57397 1.75 8V14C1.75 16.426 2.2398 17.9291 3.15533 18.8447C4.07086 19.7602 5.57397 20.25 8 20.25H14C16.426 20.25 17.9291 19.7602 18.8447 18.8447C19.7602 17.9291 20.25 16.426 20.25 14V8C20.25 5.57397 19.7602 4.07086 18.8447 3.15533C17.9291 2.2398 16.426 1.75 14 1.75H8C5.57397 1.75 4.07086 2.2398 3.15533 3.15533Z" fill="#101010"/>
<path fill-rule="evenodd" clip-rule="evenodd" d="M5.25 11.26C5.25 8.0858 7.82579 5.51001 11 5.51001C11.7034 5.51001 12.3263 5.62387 12.8855 5.79164C13.2823 5.91066 13.5074 6.32878 13.3884 6.72552C13.2693 7.12227 12.8512 7.3474 12.4545 7.22838C12.0137 7.09615 11.5366 7.01001 11 7.01001C8.65421 7.01001 6.75 8.91422 6.75 11.26C6.75 13.6058 8.65421 15.51 11 15.51C13.3458 15.51 15.25 13.6058 15.25 11.26C15.25 10.3841 14.9872 9.57713 14.5348 8.89423C14.306 8.54892 14.4005 8.08354 14.7458 7.85477C15.0911 7.62601 15.5565 7.72048 15.7852 8.06579C16.3928 8.98289 16.75 10.076 16.75 11.26C16.75 14.4342 14.1742 17.01 11 17.01C7.82579 17.01 5.25 14.4342 5.25 11.26Z" fill="#101010"/>
<path fill-rule="evenodd" clip-rule="evenodd" d="M11.2278 4.17392C11.5404 3.9022 12.0141 3.93538 12.2858 4.24801L13.9458 6.15802C14.2175 6.47066 14.1844 6.94437 13.8717 7.21609C13.5591 7.4878 13.0854 7.45463 12.8137 7.14199L11.1537 5.23199C10.8819 4.91935 10.9151 4.44564 11.2278 4.17392Z" fill="#101010"/>
<path fill-rule="evenodd" clip-rule="evenodd" d="M13.9857 6.20703C14.2303 6.54128 14.1577 7.01056 13.8235 7.25522L11.8835 8.67521C11.5492 8.91986 11.0799 8.84724 10.8353 8.51299C10.5906 8.17875 10.6633 7.70946 10.9975 7.46481L12.9375 6.04481C13.2717 5.80016 13.741 5.87279 13.9857 6.20703Z" fill="#101010"/>
</svg>
