<svg width="22" height="20" viewBox="0 0 22 20" fill="none" xmlns="http://www.w3.org/2000/svg">
<path fill-rule="evenodd" clip-rule="evenodd" d="M12.4589 0.480876C12.7456 0.181923 13.2204 0.171993 13.5194 0.458697L15.9594 2.79872C16.1806 3.01091 16.2505 3.33638 16.1358 3.62066C16.0211 3.90494 15.7449 4.0908 15.4384 4.09003L7.49023 4.07001C7.48993 4.07001 7.48963 4.07001 7.48932 4.07001C4.33545 4.07051 1.74023 6.66305 1.74023 9.84003C1.74023 11.4224 2.38494 12.864 3.43057 13.9097C3.72346 14.2026 3.72346 14.6774 3.43057 14.9703C3.13767 15.2632 2.6628 15.2632 2.36991 14.9703C1.05553 13.656 0.240234 11.8376 0.240234 9.84003C0.240234 5.83732 3.50452 2.57001 7.49023 2.57001H7.49212L13.5697 2.58532L12.4811 1.5413C12.1822 1.2546 12.1722 0.77983 12.4589 0.480876Z" fill="#101010"/>
<path fill-rule="evenodd" clip-rule="evenodd" d="M18.5703 5.02973C18.8631 4.73684 19.338 4.73684 19.6309 5.02973C20.9453 6.3441 21.7606 8.16242 21.7606 10.16C21.7606 14.1627 18.4963 17.4301 14.5106 17.4301L14.5087 17.4301L8.43108 17.4147L9.5197 18.4588C9.81865 18.7455 9.82858 19.2202 9.54188 19.5192C9.25517 19.8181 8.7804 19.8281 8.48145 19.5414L6.04145 17.2013C5.8202 16.9892 5.75035 16.6637 5.86505 16.3794C5.97975 16.0951 6.25591 15.9093 6.56246 15.91L14.5106 15.9301C14.5109 15.9301 14.5113 15.9301 14.5117 15.9301C17.6655 15.9295 20.2606 13.337 20.2606 10.16C20.2606 8.57765 19.6159 7.13601 18.5703 6.09039C18.2774 5.7975 18.2774 5.32262 18.5703 5.02973Z" fill="#101010"/>
<path fill-rule="evenodd" clip-rule="evenodd" d="M11.5184 6.62976C11.8085 6.74092 12 7.01944 12 7.33011V12.6701C12 13.0843 11.6642 13.4201 11.25 13.4201C10.8358 13.4201 10.5 13.0843 10.5 12.6701V9.28747L10.308 9.50126C10.0312 9.80942 9.55699 9.83485 9.24883 9.55806C8.94068 9.28127 8.91525 8.80708 9.19204 8.49892L10.692 6.82894C10.8996 6.59781 11.2283 6.5186 11.5184 6.62976Z" fill="#101010"/>
</svg>
