<svg width="20" height="22" viewBox="0 0 20 22" fill="none" xmlns="http://www.w3.org/2000/svg">
<path fill-rule="evenodd" clip-rule="evenodd" d="M10.0001 4.40002C9.022 4.40002 8.13454 4.55664 7.32483 4.79862C6.92796 4.91723 6.51009 4.69165 6.39148 4.29478C6.27288 3.89791 6.49846 3.48003 6.89532 3.36143C7.82561 3.08341 8.85816 2.90002 10.0001 2.90002C15.2043 2.90002 19.4201 7.11581 19.4201 12.32C19.4201 17.5242 15.2043 21.74 10.0001 21.74C4.79586 21.74 0.580078 17.5242 0.580078 12.32C0.580078 10.3864 1.16704 8.58249 2.16604 7.084C2.3958 6.73935 2.86146 6.64622 3.2061 6.87599C3.55075 7.10575 3.64388 7.5714 3.41412 7.91605C2.57311 9.17755 2.08008 10.6936 2.08008 12.32C2.08008 16.6958 5.62429 20.24 10.0001 20.24C14.3759 20.24 17.9201 16.6958 17.9201 12.32C17.9201 7.94424 14.3759 4.40002 10.0001 4.40002Z" fill="#101010"/>
<path fill-rule="evenodd" clip-rule="evenodd" d="M9.25256 0.434314C9.56498 0.706275 9.59779 1.18001 9.32583 1.49244L6.43583 4.81244C6.16386 5.12487 5.69012 5.15767 5.3777 4.88571C5.06527 4.61375 5.03247 4.14001 5.30443 3.82758L8.19443 0.507582C8.46639 0.195156 8.94013 0.162353 9.25256 0.434314Z" fill="#101010"/>
<path fill-rule="evenodd" clip-rule="evenodd" d="M5.2644 3.8778C5.50861 3.54324 5.97781 3.47001 6.31237 3.71422L9.68237 6.17422C10.0169 6.41844 10.0902 6.88764 9.84594 7.22219C9.60172 7.55675 9.13253 7.62999 8.79797 7.38577L5.42797 4.92577C5.09341 4.68155 5.02018 4.21236 5.2644 3.8778Z" fill="#101010"/>
</svg>
