<svg width="22" height="22" viewBox="0 0 22 22" fill="none" xmlns="http://www.w3.org/2000/svg">
<path fill-rule="evenodd" clip-rule="evenodd" d="M14.1703 6.35686L6.62658 8.70804C5.54174 9.03531 5.51675 10.5783 6.59712 10.9384L6.59918 10.9391L8.67308 11.6371C9.47963 11.8945 10.0993 12.538 10.3609 13.3211C10.3611 13.3217 10.3613 13.3222 10.3615 13.3228L11.0619 15.394C11.4196 16.4733 12.9482 16.4699 13.2939 15.3667C13.294 15.3665 13.2939 15.367 13.2939 15.3667L15.6356 7.82155C15.9174 6.94015 15.083 6.08117 14.1703 6.35686ZM17.0654 8.27509C17.7202 6.21845 15.7772 4.30048 13.7318 4.9224L6.18982 7.27299C3.69848 8.02786 3.66432 11.541 6.1218 12.3611C6.12212 12.3613 6.12245 12.3614 6.12278 12.3615L8.20073 13.0608L8.2141 13.0652C8.54342 13.1692 8.8205 13.4433 8.93844 13.7971L8.93948 13.8002L9.63804 15.8659C9.6383 15.8667 9.63857 15.8675 9.63884 15.8683C10.4625 18.3464 13.9513 18.2893 14.7257 15.8139L14.7262 15.8123L17.0654 8.27509Z" fill="#101010"/>
<path fill-rule="evenodd" clip-rule="evenodd" d="M2.09467 2.09467C3.42914 0.760201 5.42603 0.25 8 0.25H14C16.574 0.25 18.5709 0.760201 19.9053 2.09467C21.2398 3.42914 21.75 5.42603 21.75 8V14C21.75 16.574 21.2398 18.5709 19.9053 19.9053C18.5709 21.2398 16.574 21.75 14 21.75H8C5.42603 21.75 3.42914 21.2398 2.09467 19.9053C0.760201 18.5709 0.25 16.574 0.25 14V8C0.25 5.42603 0.760201 3.42914 2.09467 2.09467ZM3.15533 3.15533C2.2398 4.07086 1.75 5.57397 1.75 8V14C1.75 16.426 2.2398 17.9291 3.15533 18.8447C4.07086 19.7602 5.57397 20.25 8 20.25H14C16.426 20.25 17.9291 19.7602 18.8447 18.8447C19.7602 17.9291 20.25 16.426 20.25 14V8C20.25 5.57397 19.7602 4.07086 18.8447 3.15533C17.9291 2.2398 16.426 1.75 14 1.75H8C5.57397 1.75 4.07086 2.2398 3.15533 3.15533Z" fill="#101010"/>
</svg>
