<svg width="22" height="22" viewBox="0 0 22 22" fill="none" xmlns="http://www.w3.org/2000/svg">
<path fill-rule="evenodd" clip-rule="evenodd" d="M4.47385 1.755C3.24555 1.755 2.10621 2.44813 1.80082 3.76896L1.80077 3.76918C1.42785 5.37986 2.43763 6.83494 3.51676 7.87633C4.05237 8.37609 4.88748 8.37613 5.41267 7.87708C6.50102 6.83711 7.51254 5.38071 7.13942 3.76918L7.13891 3.76695C6.83769 2.44769 5.70201 1.755 4.47385 1.755ZM8.60102 3.43195C8.11185 1.29196 6.24788 0.255005 4.47385 0.255005C2.6997 0.255005 0.834106 1.29181 0.339423 3.43083M8.60102 3.43195C9.1671 5.87957 7.59941 7.86247 6.44818 8.9623L6.44701 8.96342C5.33323 10.0229 3.59105 10.0038 2.4867 8.96674L2.47954 8.96002L2.47958 8.95997C1.34019 7.86164 -0.227123 5.87835 0.339373 3.43105" fill="#101010"/>
<path fill-rule="evenodd" clip-rule="evenodd" d="M17.4901 13.755C16.2499 13.755 15.1056 14.4507 14.8008 15.769L14.8007 15.7692C14.4279 17.3797 15.4383 18.8359 16.5345 19.8742C17.0702 20.3762 17.9173 20.3768 18.4432 19.8766L18.4444 19.8754C19.541 18.837 20.5524 17.3803 20.1794 15.7692L20.1794 15.769C19.8746 14.4507 18.7302 13.755 17.4901 13.755ZM21.6407 15.4308C21.1455 13.2892 19.2699 12.255 17.4901 12.255C15.7103 12.255 13.8347 13.2892 13.3394 15.4308M21.6407 15.4308C22.2077 17.8797 20.6391 19.863 19.4758 20.9646C18.3619 22.0228 16.6106 22.0034 15.5067 20.9667L15.5044 20.9646C14.3411 19.863 12.7725 17.8798 13.3394 15.4311" fill="#101010"/>
<path fill-rule="evenodd" clip-rule="evenodd" d="M10.2504 4C10.2504 3.58579 10.5861 3.25 11.0004 3.25H13.6804C16.2242 3.25 17.4038 6.39845 15.4951 8.07368L7.50419 15.0645L7.5028 15.0657C6.6368 15.8195 7.17257 17.25 8.32036 17.25H11.0004C11.4146 17.25 11.7504 17.5858 11.7504 18C11.7504 18.4142 11.4146 18.75 11.0004 18.75H8.32036C5.78848 18.75 4.60422 15.6013 6.51719 13.9349C6.51744 13.9347 6.51695 13.9352 6.51719 13.9349L14.5056 6.94632C14.5057 6.94621 14.5055 6.94643 14.5056 6.94632C15.3764 6.18147 14.8364 4.75 13.6804 4.75H11.0004C10.5861 4.75 10.2504 4.41421 10.2504 4Z" fill="#101010"/>
<path fill-rule="evenodd" clip-rule="evenodd" d="M3.48633 4.5C3.48633 3.94772 3.93404 3.5 4.48633 3.5H4.49788C5.05017 3.5 5.49788 3.94772 5.49788 4.5C5.49788 5.05228 5.05017 5.5 4.49788 5.5H4.48633C3.93404 5.5 3.48633 5.05228 3.48633 4.5Z" fill="#101010"/>
<path fill-rule="evenodd" clip-rule="evenodd" d="M16.4863 16.5C16.4863 15.9477 16.934 15.5 17.4863 15.5H17.4979C18.0502 15.5 18.4979 15.9477 18.4979 16.5C18.4979 17.0523 18.0502 17.5 17.4979 17.5H17.4863C16.934 17.5 16.4863 17.0523 16.4863 16.5Z" fill="#101010"/>
</svg>
