<svg width="22" height="22" viewBox="0 0 22 22" fill="none" xmlns="http://www.w3.org/2000/svg">
<path fill-rule="evenodd" clip-rule="evenodd" d="M4.11 5.62988C2.81421 5.62988 1.75 6.69409 1.75 7.98987V19.3499C1.75 19.9089 1.94396 20.122 2.05893 20.1896C2.17463 20.2577 2.45673 20.3233 2.94646 20.0539C2.94696 20.0536 2.94746 20.0533 2.94797 20.053L6.87975 17.862C7.22722 17.6718 7.63399 17.5974 8 17.5974C8.36601 17.5974 8.77277 17.6718 9.12024 17.862L9.12509 17.8647L13.052 20.053C13.0525 20.0533 13.053 20.0536 13.0536 20.0539C13.5433 20.3233 13.8254 20.2577 13.9411 20.1896C14.056 20.122 14.25 19.9089 14.25 19.3499V7.98987C14.25 6.69409 13.1858 5.62988 11.89 5.62988H4.11ZM0.25 7.98987C0.25 5.86565 1.98579 4.12988 4.11 4.12988H11.89C14.0142 4.12988 15.75 5.86565 15.75 7.98987V19.3499C15.75 20.2409 15.424 21.0577 14.7014 21.4826C13.9797 21.907 13.1073 21.7963 12.328 21.3667L12.3249 21.365L8.39976 19.1777C8.39921 19.1774 8.39864 19.1771 8.39808 19.1768C8.32502 19.1373 8.18257 19.0974 8 19.0974C7.81743 19.0974 7.67498 19.1373 7.60192 19.1768C7.60136 19.1771 7.60079 19.1774 7.60024 19.1777L3.67508 21.365L3.67203 21.3667C2.89269 21.7963 2.02025 21.907 1.29857 21.4826C0.57604 21.0577 0.25 20.2409 0.25 19.3499V7.98987Z" fill="#101010"/>
<path fill-rule="evenodd" clip-rule="evenodd" d="M9.94017 9.05976C10.2331 9.35265 10.2331 9.82752 9.94017 10.1204L7.12017 12.9404C6.82728 13.2333 6.35241 13.2333 6.05951 12.9404C5.76662 12.6475 5.76662 12.1727 6.05951 11.8798L8.87951 9.05976C9.17241 8.76686 9.64728 8.76686 9.94017 9.05976Z" fill="#101010"/>
<path fill-rule="evenodd" clip-rule="evenodd" d="M6.05951 9.05976C6.35241 8.76686 6.82728 8.76686 7.12017 9.05976L9.94017 11.8798C10.2331 12.1727 10.2331 12.6475 9.94017 12.9404C9.64728 13.2333 9.17241 13.2333 8.87951 12.9404L6.05951 10.1204C5.76662 9.82752 5.76662 9.35265 6.05951 9.05976Z" fill="#101010"/>
<path fill-rule="evenodd" clip-rule="evenodd" d="M10.11 1.75C8.81421 1.75 7.75 2.8142 7.75 4.10999V4.13H11.89C14.0142 4.13 15.75 5.86577 15.75 7.98999V14.3297L19.052 16.1732C19.0526 16.1735 19.0532 16.1738 19.0537 16.1741C19.5433 16.4434 19.8254 16.3778 19.9411 16.3097C20.056 16.2421 20.25 16.029 20.25 15.47V4.10999C20.25 2.8142 19.1858 1.75 17.89 1.75H10.11ZM6.25 4.10999C6.25 1.98577 7.98579 0.25 10.11 0.25H17.89C20.0142 0.25 21.75 1.98577 21.75 4.10999V15.47C21.75 16.361 21.424 17.1779 20.7014 17.6027C19.9797 18.0271 19.1073 17.9164 18.328 17.4868L18.3244 17.4848L14.6344 15.4249C14.3971 15.2924 14.25 15.0418 14.25 14.77V7.98999C14.25 6.69421 13.1858 5.63 11.89 5.63H7C6.58579 5.63 6.25 5.29422 6.25 4.88V4.10999Z" fill="#101010"/>
</svg>
