<svg width="22" height="22" viewBox="0 0 22 22" fill="none" xmlns="http://www.w3.org/2000/svg">
<path fill-rule="evenodd" clip-rule="evenodd" d="M5.5 1.75C3.42421 1.75 1.75 3.42421 1.75 5.5V8C1.75 8.41421 1.41421 8.75 1 8.75C0.585786 8.75 0.25 8.41421 0.25 8V5.5C0.25 2.59579 2.59579 0.25 5.5 0.25H8C8.41421 0.25 8.75 0.585786 8.75 1C8.75 1.41421 8.41421 1.75 8 1.75H5.5Z" fill="#101010"/>
<path fill-rule="evenodd" clip-rule="evenodd" d="M13.25 1C13.25 0.585786 13.5858 0.25 14 0.25H16.5C19.4042 0.25 21.75 2.59579 21.75 5.5V8C21.75 8.41421 21.4142 8.75 21 8.75C20.5858 8.75 20.25 8.41421 20.25 8V5.5C20.25 3.42421 18.5758 1.75 16.5 1.75H14C13.5858 1.75 13.25 1.41421 13.25 1Z" fill="#101010"/>
<path fill-rule="evenodd" clip-rule="evenodd" d="M21 14.25C21.4142 14.25 21.75 14.5858 21.75 15V16.5C21.75 19.4042 19.4042 21.75 16.5 21.75H15C14.5858 21.75 14.25 21.4142 14.25 21C14.25 20.5858 14.5858 20.25 15 20.25H16.5C18.5758 20.25 20.25 18.5758 20.25 16.5V15C20.25 14.5858 20.5858 14.25 21 14.25Z" fill="#101010"/>
<path fill-rule="evenodd" clip-rule="evenodd" d="M1 13.25C1.41421 13.25 1.75 13.5858 1.75 14V16.5C1.75 18.5758 3.42421 20.25 5.5 20.25H8C8.41421 20.25 8.75 20.5858 8.75 21C8.75 21.4142 8.41421 21.75 8 21.75H5.5C2.59579 21.75 0.25 19.4042 0.25 16.5V14C0.25 13.5858 0.585786 13.25 1 13.25Z" fill="#101010"/>
<path fill-rule="evenodd" clip-rule="evenodd" d="M7.5 5.75C6.5335 5.75 5.75 6.5335 5.75 7.5C5.75 8.4665 6.5335 9.25 7.5 9.25C8.4665 9.25 9.25 8.4665 9.25 7.5C9.25 6.5335 8.4665 5.75 7.5 5.75ZM4.25 7.5C4.25 5.70507 5.70507 4.25 7.5 4.25C9.29493 4.25 10.75 5.70507 10.75 7.5C10.75 9.29493 9.29493 10.75 7.5 10.75C5.70507 10.75 4.25 9.29493 4.25 7.5Z" fill="#101010"/>
<path fill-rule="evenodd" clip-rule="evenodd" d="M6.5 14.75C6.08579 14.75 5.75 15.0858 5.75 15.5C5.75 15.9142 6.08579 16.25 6.5 16.25C6.91421 16.25 7.25 15.9142 7.25 15.5C7.25 15.0858 6.91421 14.75 6.5 14.75ZM4.25 15.5C4.25 14.2574 5.25736 13.25 6.5 13.25C7.74264 13.25 8.75 14.2574 8.75 15.5C8.75 16.7426 7.74264 17.75 6.5 17.75C5.25736 17.75 4.25 16.7426 4.25 15.5Z" fill="#101010"/>
<path fill-rule="evenodd" clip-rule="evenodd" d="M15.5 5.75C15.0858 5.75 14.75 6.08579 14.75 6.5C14.75 6.91421 15.0858 7.25 15.5 7.25C15.9142 7.25 16.25 6.91421 16.25 6.5C16.25 6.08579 15.9142 5.75 15.5 5.75ZM13.25 6.5C13.25 5.25736 14.2574 4.25 15.5 4.25C16.7426 4.25 17.75 5.25736 17.75 6.5C17.75 7.74264 16.7426 8.75 15.5 8.75C14.2574 8.75 13.25 7.74264 13.25 6.5Z" fill="#101010"/>
<path fill-rule="evenodd" clip-rule="evenodd" d="M14.5 12.75C13.5335 12.75 12.75 13.5335 12.75 14.5C12.75 15.4665 13.5335 16.25 14.5 16.25C15.4665 16.25 16.25 15.4665 16.25 14.5C16.25 13.5335 15.4665 12.75 14.5 12.75ZM11.25 14.5C11.25 12.7051 12.7051 11.25 14.5 11.25C16.2949 11.25 17.75 12.7051 17.75 14.5C17.75 16.2949 16.2949 17.75 14.5 17.75C12.7051 17.75 11.25 16.2949 11.25 14.5Z" fill="#101010"/>
</svg>
