<svg width="22" height="20" viewBox="0 0 22 20" fill="none" xmlns="http://www.w3.org/2000/svg">
<path fill-rule="evenodd" clip-rule="evenodd" d="M4.5 1.75C2.98122 1.75 1.75 2.98122 1.75 4.5C1.75 6.01878 2.98122 7.25 4.5 7.25C6.01878 7.25 7.25 6.01878 7.25 4.5C7.25 2.98122 6.01878 1.75 4.5 1.75ZM0.25 4.5C0.25 2.15279 2.15279 0.25 4.5 0.25C6.84721 0.25 8.75 2.15279 8.75 4.5C8.75 6.84721 6.84721 8.75 4.5 8.75C2.15279 8.75 0.25 6.84721 0.25 4.5Z" fill="#101010"/>
<path fill-rule="evenodd" clip-rule="evenodd" d="M4.5 12.75C2.98122 12.75 1.75 13.9812 1.75 15.5C1.75 17.0188 2.98122 18.25 4.5 18.25C6.01878 18.25 7.25 17.0188 7.25 15.5C7.25 13.9812 6.01878 12.75 4.5 12.75ZM0.25 15.5C0.25 13.1528 2.15279 11.25 4.5 11.25C6.84721 11.25 8.75 13.1528 8.75 15.5C8.75 17.8472 6.84721 19.75 4.5 19.75C2.15279 19.75 0.25 17.8472 0.25 15.5Z" fill="#101010"/>
<path fill-rule="evenodd" clip-rule="evenodd" d="M21.6011 3.55094C21.8492 3.88269 21.7813 4.35269 21.4495 4.6007L8.0995 14.5807C7.76774 14.8287 7.29775 14.7608 7.04973 14.4291C6.80172 14.0973 6.86961 13.6273 7.20137 13.3793L20.5514 3.3993C20.8831 3.15129 21.3531 3.21918 21.6011 3.55094Z" fill="#101010"/>
<path fill-rule="evenodd" clip-rule="evenodd" d="M7.04995 5.53065C7.29812 5.19901 7.76815 5.13135 8.09979 5.37952L21.4498 15.3695C21.7814 15.6177 21.8491 16.0877 21.6009 16.4194C21.3528 16.751 20.8827 16.8187 20.5511 16.5705L7.20108 6.58049C6.86944 6.33232 6.80178 5.86229 7.04995 5.53065Z" fill="#101010"/>
</svg>
