<svg width="22" height="22" viewBox="0 0 22 22" fill="none" xmlns="http://www.w3.org/2000/svg">
<path fill-rule="evenodd" clip-rule="evenodd" d="M2.09467 2.09467C3.42914 0.760201 5.42603 0.25 8 0.25H14C16.574 0.25 18.5709 0.760201 19.9053 2.09467C21.2398 3.42914 21.75 5.42603 21.75 8V14C21.75 16.574 21.2398 18.5709 19.9053 19.9053C18.5709 21.2398 16.574 21.75 14 21.75H8C5.42603 21.75 3.42914 21.2398 2.09467 19.9053C0.760201 18.5709 0.25 16.574 0.25 14V8C0.25 5.42603 0.760201 3.42914 2.09467 2.09467ZM3.15533 3.15533C2.2398 4.07086 1.75 5.57397 1.75 8V14C1.75 16.426 2.2398 17.9291 3.15533 18.8447C4.07086 19.7602 5.57397 20.25 8 20.25H14C16.426 20.25 17.9291 19.7602 18.8447 18.8447C19.7602 17.9291 20.25 16.426 20.25 14V8C20.25 5.57397 19.7602 4.07086 18.8447 3.15533C17.9291 2.2398 16.426 1.75 14 1.75H8C5.57397 1.75 4.07086 2.2398 3.15533 3.15533Z" fill="#101010"/>
<path fill-rule="evenodd" clip-rule="evenodd" d="M7.41998 6.81006C6.77382 6.81006 6.25 7.33388 6.25 7.98006C6.25 8.62624 6.77382 9.15005 7.41998 9.15005C8.06618 9.15005 8.59003 8.62621 8.59003 7.98006C8.59003 7.33391 8.06618 6.81006 7.41998 6.81006ZM4.75 7.98006C4.75 6.50546 5.94537 5.31006 7.41998 5.31006C8.89456 5.31006 10.09 6.50543 10.09 7.98006C10.09 9.45468 8.89456 10.6501 7.41998 10.6501C5.94537 10.6501 4.75 9.45465 4.75 7.98006Z" fill="#101010"/>
<path fill-rule="evenodd" clip-rule="evenodd" d="M7.41998 12.8501C6.77382 12.8501 6.25 13.3739 6.25 14.0201C6.25 14.6663 6.77382 15.1901 7.41998 15.1901C8.06618 15.1901 8.59003 14.6662 8.59003 14.0201C8.59003 13.3739 8.06618 12.8501 7.41998 12.8501ZM4.75 14.0201C4.75 12.5455 5.94537 11.3501 7.41998 11.3501C8.89456 11.3501 10.09 12.5455 10.09 14.0201C10.09 15.4947 8.89456 16.6901 7.41998 16.6901C5.94537 16.6901 4.75 15.4947 4.75 14.0201Z" fill="#101010"/>
<path fill-rule="evenodd" clip-rule="evenodd" d="M17.1008 7.25078C17.3489 7.58248 17.2811 8.05249 16.9494 8.30059L9.60941 13.7906C9.27772 14.0387 8.80771 13.9709 8.55961 13.6392C8.31152 13.3075 8.37929 12.8375 8.71099 12.5894L16.051 7.09941C16.3827 6.85131 16.8527 6.91909 17.1008 7.25078Z" fill="#101010"/>
<path fill-rule="evenodd" clip-rule="evenodd" d="M8.55961 8.34087C8.80771 8.00917 9.27772 7.9414 9.60941 8.18949L16.9494 13.6795C17.2811 13.9276 17.3489 14.3976 17.1008 14.7293C16.8527 15.061 16.3827 15.1288 16.051 14.8807L8.71099 9.39067C8.37929 9.14258 8.31152 8.67257 8.55961 8.34087Z" fill="#101010"/>
</svg>
