<svg width="22" height="22" viewBox="0 0 22 22" fill="none" xmlns="http://www.w3.org/2000/svg">
<path fill-rule="evenodd" clip-rule="evenodd" d="M2.09467 2.09467C3.42914 0.760201 5.42603 0.25 8 0.25H14C16.574 0.25 18.5709 0.760201 19.9053 2.09467C21.2398 3.42914 21.75 5.42603 21.75 8V14C21.75 16.574 21.2398 18.5709 19.9053 19.9053C18.5709 21.2398 16.574 21.75 14 21.75H8C5.42603 21.75 3.42914 21.2398 2.09467 19.9053C0.760201 18.5709 0.25 16.574 0.25 14V8C0.25 5.42603 0.760201 3.42914 2.09467 2.09467ZM3.15533 3.15533C2.2398 4.07086 1.75 5.57397 1.75 8V14C1.75 16.426 2.2398 17.9291 3.15533 18.8447C4.07086 19.7602 5.57397 20.25 8 20.25H14C16.426 20.25 17.9291 19.7602 18.8447 18.8447C19.7602 17.9291 20.25 16.426 20.25 14V8C20.25 5.57397 19.7602 4.07086 18.8447 3.15533C17.9291 2.2398 16.426 1.75 14 1.75H8C5.57397 1.75 4.07086 2.2398 3.15533 3.15533Z" fill="#101010"/>
<path fill-rule="evenodd" clip-rule="evenodd" d="M9.45717 11.4572C10.0041 10.9102 10.776 10.75 11.6 10.75H15.4C16.224 10.75 16.9959 10.9102 17.5428 11.4572C18.0898 12.0041 18.25 12.776 18.25 13.6V15.4C18.25 16.224 18.0898 16.9959 17.5428 17.5428C16.9959 18.0898 16.224 18.25 15.4 18.25H11.6C10.776 18.25 10.0041 18.0898 9.45717 17.5428C8.9102 16.9959 8.75 16.224 8.75 15.4V13.6C8.75 12.776 8.9102 12.0041 9.45717 11.4572ZM10.5178 12.5178C10.3898 12.6459 10.25 12.924 10.25 13.6V15.4C10.25 16.076 10.3898 16.3541 10.5178 16.4822C10.6459 16.6102 10.924 16.75 11.6 16.75H15.4C16.076 16.75 16.3541 16.6102 16.4822 16.4822C16.6102 16.3541 16.75 16.076 16.75 15.4V13.6C16.75 12.924 16.6102 12.6459 16.4822 12.5178C16.3541 12.3898 16.076 12.25 15.4 12.25H11.6C10.924 12.25 10.6459 12.3898 10.5178 12.5178Z" fill="#101010"/>
</svg>
