<svg width="22" height="22" viewBox="0 0 22 22" fill="none" xmlns="http://www.w3.org/2000/svg">
<path fill-rule="evenodd" clip-rule="evenodd" d="M2.09467 2.09467C3.42914 0.760201 5.42603 0.25 8 0.25H14C16.574 0.25 18.5709 0.760201 19.9053 2.09467C21.2398 3.42914 21.75 5.42603 21.75 8V14C21.75 16.574 21.2398 18.5709 19.9053 19.9053C18.5709 21.2398 16.574 21.75 14 21.75H8C5.42603 21.75 3.42914 21.2398 2.09467 19.9053C0.760201 18.5709 0.25 16.574 0.25 14V8C0.25 5.42603 0.760201 3.42914 2.09467 2.09467ZM3.15533 3.15533C2.2398 4.07086 1.75 5.57397 1.75 8V14C1.75 16.426 2.2398 17.9291 3.15533 18.8447C4.07086 19.7602 5.57397 20.25 8 20.25H14C16.426 20.25 17.9291 19.7602 18.8447 18.8447C19.7602 17.9291 20.25 16.426 20.25 14V8C20.25 5.57397 19.7602 4.07086 18.8447 3.15533C17.9291 2.2398 16.426 1.75 14 1.75H8C5.57397 1.75 4.07086 2.2398 3.15533 3.15533Z" fill="#101010"/>
<path fill-rule="evenodd" clip-rule="evenodd" d="M9.13041 7.43967C9.4233 7.73256 9.4233 8.20744 9.13041 8.50033L6.64346 10.9873C6.64305 10.9889 6.64258 10.9916 6.64258 10.995C6.64258 10.9984 6.64305 11.0011 6.64346 11.0027L9.13041 13.4897C9.4233 13.7826 9.4233 14.2574 9.13041 14.5503C8.83752 14.8432 8.36264 14.8432 8.06975 14.5503L5.57975 12.0603C4.99685 11.4774 4.99685 10.5126 5.57975 9.92967L8.06975 7.43967C8.36264 7.14678 8.83752 7.14678 9.13041 7.43967ZM6.64041 10.9997C6.64043 10.9997 6.64044 10.9997 6.64046 10.9997L6.64041 10.9997Z" fill="#101010"/>
<path fill-rule="evenodd" clip-rule="evenodd" d="M12.8701 7.43967C13.163 7.14678 13.6378 7.14678 13.9307 7.43967L16.4207 9.92967C17.0036 10.5126 17.0036 11.4774 16.4207 12.0603L13.9307 14.5503C13.6378 14.8432 13.163 14.8432 12.8701 14.5503C12.5772 14.2574 12.5772 13.7826 12.8701 13.4897L15.357 11.0027C15.3574 11.0011 15.3579 10.9984 15.3579 10.995C15.3579 10.9916 15.3574 10.9889 15.357 10.9873L12.8701 8.50033C12.5772 8.20744 12.5772 7.73256 12.8701 7.43967ZM15.3601 10.9997L15.36 10.9997L15.3601 10.9997Z" fill="#101010"/>
</svg>
