<svg width="22" height="22" viewBox="0 0 22 22" fill="none" xmlns="http://www.w3.org/2000/svg">
<path fill-rule="evenodd" clip-rule="evenodd" d="M10.5 1.75C5.66751 1.75 1.75 5.66751 1.75 10.5C1.75 15.3325 5.66751 19.25 10.5 19.25C15.3325 19.25 19.25 15.3325 19.25 10.5C19.25 5.66751 15.3325 1.75 10.5 1.75ZM0.25 10.5C0.25 4.83908 4.83908 0.25 10.5 0.25C16.1609 0.25 20.75 4.83908 20.75 10.5C20.75 16.1609 16.1609 20.75 10.5 20.75C4.83908 20.75 0.25 16.1609 0.25 10.5Z" fill="#101010"/>
<path fill-rule="evenodd" clip-rule="evenodd" d="M18.4697 18.4697C18.7626 18.1768 19.2374 18.1768 19.5303 18.4697L21.5303 20.4697C21.8232 20.7626 21.8232 21.2374 21.5303 21.5303C21.2374 21.8232 20.7626 21.8232 20.4697 21.5303L18.4697 19.5303C18.1768 19.2374 18.1768 18.7626 18.4697 18.4697Z" fill="#101010"/>
</svg>
