<svg width="22" height="22" viewBox="0 0 22 22" fill="none" xmlns="http://www.w3.org/2000/svg">
<path fill-rule="evenodd" clip-rule="evenodd" d="M10 1.75C5.44421 1.75 1.75 5.44421 1.75 10C1.75 14.5558 5.44421 18.25 10 18.25C14.5558 18.25 18.25 14.5558 18.25 10C18.25 9.58579 18.5858 9.25 19 9.25C19.4142 9.25 19.75 9.58579 19.75 10C19.75 15.3842 15.3842 19.75 10 19.75C4.61579 19.75 0.25 15.3842 0.25 10C0.25 4.61579 4.61579 0.25 10 0.25C10.4142 0.25 10.75 0.585786 10.75 1C10.75 1.41421 10.4142 1.75 10 1.75Z" fill="#101010"/>
<path fill-rule="evenodd" clip-rule="evenodd" d="M19.3534 16.9698C18.5839 16.964 17.8915 17.2675 17.4691 17.854C17.0471 18.4399 16.9766 19.1941 17.218 19.925L17.2182 19.9256C17.5202 20.8372 18.11 21.6168 19.0155 21.7382C19.921 21.8595 20.6948 21.2628 21.2249 20.4648L21.225 20.4647C21.7286 19.7063 21.9422 18.8156 21.5326 18.0508C21.1232 17.2863 20.2646 16.9706 19.3534 16.9698ZM18.6422 19.4543C18.8703 20.1425 19.1504 20.2428 19.2148 20.2515C19.2794 20.2601 19.5755 20.2368 19.9754 19.6349M18.6422 19.4543C18.5238 19.0954 18.5933 18.8597 18.6862 18.7306C18.7782 18.603 18.9744 18.4665 19.3436 18.4698L19.3436 18.4698H19.3502C19.9778 18.4698 20.1676 18.6792 20.2103 18.7589C20.2532 18.839 20.3217 19.1133 19.9754 19.6348" fill="#101010"/>
<path fill-rule="evenodd" clip-rule="evenodd" d="M12.25 4C12.25 3.58579 12.5858 3.25 13 3.25H19C19.4142 3.25 19.75 3.58579 19.75 4C19.75 4.41421 19.4142 4.75 19 4.75H13C12.5858 4.75 12.25 4.41421 12.25 4Z" fill="#101010"/>
<path fill-rule="evenodd" clip-rule="evenodd" d="M12.25 7C12.25 6.58579 12.5858 6.25 13 6.25H16C16.4142 6.25 16.75 6.58579 16.75 7C16.75 7.41421 16.4142 7.75 16 7.75H13C12.5858 7.75 12.25 7.41421 12.25 7Z" fill="#101010"/>
</svg>
