<svg width="20" height="22" viewBox="0 0 20 22" fill="none" xmlns="http://www.w3.org/2000/svg">
<path fill-rule="evenodd" clip-rule="evenodd" d="M10.0026 0.247559C10.6109 0.247559 11.2561 0.331775 11.7871 0.525456L11.7934 0.527727L16.7828 2.39756C17.5298 2.67688 18.1665 3.23762 18.6132 3.88337C19.06 4.52922 19.3601 5.32273 19.3601 6.12006V13.5501C19.3601 14.289 19.1212 15.0878 18.7714 15.7833C18.4214 16.4791 17.9221 17.1476 17.3291 17.5908L13.0308 20.7995C13.0304 20.7998 13.0301 20.8001 13.0297 20.8004C12.172 21.4447 11.0735 21.7451 10.0101 21.7451C8.94676 21.7451 7.84824 21.4447 6.9905 20.8003C6.99016 20.8001 6.98982 20.7998 6.98948 20.7995L2.69151 17.5911C2.09852 17.1479 1.59888 16.4791 1.2489 15.7833C0.899056 15.0878 0.660156 14.289 0.660156 13.5501V6.12006C0.660156 5.32273 0.960325 4.52922 1.40711 3.88337C1.85378 3.23768 2.49033 2.677 3.23725 2.39765C3.23732 2.39762 3.23717 2.39768 3.23725 2.39765L8.22695 0.527754C8.75157 0.331814 9.3953 0.247559 10.0026 0.247559ZM8.75256 1.93265C8.75241 1.93271 8.75271 1.9326 8.75256 1.93265L3.76334 3.80236C3.36036 3.95304 2.95148 4.2875 2.6407 4.73675C2.32999 5.1859 2.16016 5.68739 2.16016 6.12006V13.5501C2.16016 13.9911 2.31126 14.5573 2.58892 15.1093C2.86643 15.661 3.23209 16.1224 3.58907 16.3892C3.5891 16.3893 3.58904 16.3892 3.58907 16.3892L7.89084 19.6006C8.44295 20.0156 9.20897 20.2451 10.0101 20.2451C10.8113 20.2451 11.5773 20.0156 12.1295 19.6006L12.1315 19.5991L16.4312 16.3893C16.7881 16.1224 17.1539 15.6609 17.4314 15.1093C17.709 14.5573 17.8601 13.9911 17.8601 13.5501V6.12006C17.8601 5.68739 17.6903 5.1859 17.3796 4.73675C17.0688 4.2875 16.6604 3.95324 16.2575 3.80256L11.2703 1.93362C10.9515 1.81792 10.4929 1.74756 10.0026 1.74756C9.51023 1.74756 9.05794 1.81869 8.75256 1.93265Z" fill="#101010"/>
<path fill-rule="evenodd" clip-rule="evenodd" d="M10 7.25C8.20507 7.25 6.75 8.70507 6.75 10.5C6.75 12.2949 8.20507 13.75 10 13.75C11.7949 13.75 13.25 12.2949 13.25 10.5C13.25 8.70507 11.7949 7.25 10 7.25ZM5.25 10.5C5.25 7.87665 7.37665 5.75 10 5.75C12.6234 5.75 14.75 7.87665 14.75 10.5C14.75 13.1234 12.6234 15.25 10 15.25C7.37665 15.25 5.25 13.1234 5.25 10.5Z" fill="#101010"/>
<path fill-rule="evenodd" clip-rule="evenodd" d="M10.2501 8.5C10.6643 8.5 11.0001 8.83579 11.0001 9.25V10.18C11.0001 10.7837 10.6899 11.3641 10.1434 11.6847L9.38846 12.1416C9.0341 12.3561 8.57296 12.2427 8.35848 11.8883C8.144 11.534 8.2574 11.0729 8.61176 10.8584L9.38346 10.3913C9.45282 10.351 9.50011 10.2739 9.50011 10.18V9.25C9.50011 8.83579 9.8359 8.5 10.2501 8.5Z" fill="#101010"/>
</svg>
