<svg width="22" height="22" viewBox="0 0 22 22" fill="none" xmlns="http://www.w3.org/2000/svg">
<path fill-rule="evenodd" clip-rule="evenodd" d="M11 8.75C9.75736 8.75 8.75 9.75736 8.75 11C8.75 12.2426 9.75736 13.25 11 13.25C12.2426 13.25 13.25 12.2426 13.25 11C13.25 9.75736 12.2426 8.75 11 8.75ZM7.25 11C7.25 8.92893 8.92893 7.25 11 7.25C13.0711 7.25 14.75 8.92893 14.75 11C14.75 13.0711 13.0711 14.75 11 14.75C8.92893 14.75 7.25 13.0711 7.25 11Z" fill="#101010"/>
<path fill-rule="evenodd" clip-rule="evenodd" d="M8.60347 2.77006C8.3358 2.32411 7.77209 2.18539 7.35347 2.43444L7.34256 2.44093L5.61251 3.43084C5.06514 3.74362 4.8763 4.45277 5.1894 4.99468L4.54 5.36989L5.18888 4.99379C5.72395 5.91692 5.86779 6.9287 5.38982 7.75811C4.91192 8.58741 3.96479 8.96989 2.9 8.96989C2.26678 8.96989 1.75 9.49153 1.75 10.1199V11.8799C1.75 12.5082 2.26678 13.0299 2.9 13.0299C3.96479 13.0299 4.91192 13.4124 5.38982 14.2417C5.86773 15.071 5.72398 16.0826 5.18909 17.0056C4.87642 17.5475 5.06491 18.256 5.6121 18.5687L7.35352 19.5652C7.77214 19.8143 8.33578 19.6757 8.60345 19.2298L8.71093 19.0441C9.2458 18.1213 10.052 17.4924 11.0087 17.4924C11.9662 17.4924 12.77 18.1218 13.3 19.0456C13.3002 19.0461 13.3004 19.0465 13.3007 19.0469L13.4065 19.2297C13.6742 19.6757 14.2379 19.8144 14.6565 19.5653L14.6674 19.5588L16.3975 18.5689C16.9434 18.257 17.1351 17.5577 16.8198 17.0037C16.2858 16.0812 16.1426 15.0704 16.6202 14.2417C17.0981 13.4124 18.0452 13.0299 19.11 13.0299C19.7432 13.0299 20.26 12.5082 20.26 11.8799V10.1199C20.26 9.48667 19.7384 8.96989 19.11 8.96989C18.0452 8.96989 17.0981 8.58741 16.6202 7.75811C16.1423 6.92886 16.286 5.91731 16.8208 4.99433C17.1336 4.45246 16.9451 3.74379 16.3979 3.43107L14.6565 2.43454C14.2379 2.18548 13.6742 2.32411 13.4065 2.77006L13.2991 2.95567C12.7642 3.87847 11.958 4.50739 11.0012 4.50739C10.0439 4.50739 9.24021 3.87813 8.71021 2.95443C8.70992 2.95391 8.70962 2.9534 8.70933 2.95289L8.60347 2.77006ZM6.59248 1.1418C7.75191 0.45644 9.22257 0.876915 9.89456 2.00642L9.89912 2.01409L10.0091 2.20411L10.0107 2.20689C10.3807 2.85235 10.7666 3.00739 11.0012 3.00739C11.237 3.00739 11.6259 2.85103 12.0009 2.20411C12.001 2.204 12.0009 2.20422 12.0009 2.20411L12.1154 2.00639C12.7874 0.876883 14.2581 0.456436 15.4175 1.14181L17.1421 2.12871C18.4147 2.85592 18.8463 4.48701 18.1194 5.7451L18.1189 5.74599C17.7439 6.39286 17.8028 6.80608 17.9198 7.00916C18.0369 7.21237 18.3648 7.46989 19.11 7.46989C20.5616 7.46989 21.76 8.65311 21.76 10.1199V11.8799C21.76 13.3315 20.5768 14.5299 19.11 14.5299C18.3648 14.5299 18.0369 14.7874 17.9198 14.9906C17.8028 15.1937 17.7439 15.6069 18.1189 16.2538L18.1212 16.2578C18.8444 17.5234 18.4157 19.143 17.1425 19.8708C17.1424 19.8709 17.1426 19.8708 17.1425 19.8708L15.4174 20.858C14.258 21.5433 12.7874 21.1228 12.1154 19.9934L12.1109 19.9857L12.0009 19.7957L11.9993 19.7929C11.6293 19.1474 11.2434 18.9924 11.0087 18.9924C10.773 18.9924 10.3841 19.1487 10.0091 19.7957C10.009 19.7958 10.0091 19.7956 10.0091 19.7957L9.8946 19.9934C9.22263 21.1229 7.75199 21.5433 6.59257 20.858L4.8679 19.8711C4.86776 19.871 4.86803 19.8711 4.8679 19.8711C3.59558 19.1437 3.16378 17.5126 3.8906 16.2547L3.89112 16.2538C4.26606 15.6069 4.20721 15.1937 4.09018 14.9906C3.97308 14.7874 3.64521 14.5299 2.9 14.5299C1.43322 14.5299 0.25 13.3315 0.25 11.8799V10.1199C0.25 8.66824 1.43322 7.46989 2.9 7.46989C3.64521 7.46989 3.97308 7.21237 4.09018 7.00917C4.20721 6.80608 4.26606 6.39286 3.89112 5.74599L3.8906 5.7451C3.16378 4.48714 3.59518 2.85627 4.86749 2.12894L6.59248 1.1418Z" fill="#101010"/>
</svg>
