<svg width="22" height="20" viewBox="0 0 22 20" fill="none" xmlns="http://www.w3.org/2000/svg">
<path fill-rule="evenodd" clip-rule="evenodd" d="M14.25 4.5C14.25 4.08579 14.5858 3.75 15 3.75H21C21.4142 3.75 21.75 4.08579 21.75 4.5C21.75 4.91421 21.4142 5.25 21 5.25H15C14.5858 5.25 14.25 4.91421 14.25 4.5Z" fill="#101010"/>
<path fill-rule="evenodd" clip-rule="evenodd" d="M0.25 4.5C0.25 4.08579 0.585786 3.75 1 3.75H5C5.41421 3.75 5.75 4.08579 5.75 4.5C5.75 4.91421 5.41421 5.25 5 5.25H1C0.585786 5.25 0.25 4.91421 0.25 4.5Z" fill="#101010"/>
<path fill-rule="evenodd" clip-rule="evenodd" d="M9 1.75C7.48122 1.75 6.25 2.98122 6.25 4.5C6.25 6.01878 7.48122 7.25 9 7.25C10.5188 7.25 11.75 6.01878 11.75 4.5C11.75 2.98122 10.5188 1.75 9 1.75ZM4.75 4.5C4.75 2.15279 6.65279 0.25 9 0.25C11.3472 0.25 13.25 2.15279 13.25 4.5C13.25 6.84721 11.3472 8.75 9 8.75C6.65279 8.75 4.75 6.84721 4.75 4.5Z" fill="#101010"/>
<path fill-rule="evenodd" clip-rule="evenodd" d="M16.25 15.5C16.25 15.0858 16.5858 14.75 17 14.75H21C21.4142 14.75 21.75 15.0858 21.75 15.5C21.75 15.9142 21.4142 16.25 21 16.25H17C16.5858 16.25 16.25 15.9142 16.25 15.5Z" fill="#101010"/>
<path fill-rule="evenodd" clip-rule="evenodd" d="M0.25 15.5C0.25 15.0858 0.585786 14.75 1 14.75H7C7.41421 14.75 7.75 15.0858 7.75 15.5C7.75 15.9142 7.41421 16.25 7 16.25H1C0.585786 16.25 0.25 15.9142 0.25 15.5Z" fill="#101010"/>
<path fill-rule="evenodd" clip-rule="evenodd" d="M13 12.75C11.4812 12.75 10.25 13.9812 10.25 15.5C10.25 17.0188 11.4812 18.25 13 18.25C14.5188 18.25 15.75 17.0188 15.75 15.5C15.75 13.9812 14.5188 12.75 13 12.75ZM8.75 15.5C8.75 13.1528 10.6528 11.25 13 11.25C15.3472 11.25 17.25 13.1528 17.25 15.5C17.25 17.8472 15.3472 19.75 13 19.75C10.6528 19.75 8.75 17.8472 8.75 15.5Z" fill="#101010"/>
</svg>
