<svg width="20" height="22" viewBox="0 0 20 22" fill="none" xmlns="http://www.w3.org/2000/svg">
<path fill-rule="evenodd" clip-rule="evenodd" d="M17 9.25C17.4142 9.25 17.75 9.58579 17.75 10V21C17.75 21.4142 17.4142 21.75 17 21.75C16.5858 21.75 16.25 21.4142 16.25 21V10C16.25 9.58579 16.5858 9.25 17 9.25Z" fill="#101010"/>
<path fill-rule="evenodd" clip-rule="evenodd" d="M17 0.25C17.4142 0.25 17.75 0.585786 17.75 1V6C17.75 6.41421 17.4142 6.75 17 6.75C16.5858 6.75 16.25 6.41421 16.25 6V1C16.25 0.585786 16.5858 0.25 17 0.25Z" fill="#101010"/>
<path fill-rule="evenodd" clip-rule="evenodd" d="M10 15.25C10.4142 15.25 10.75 15.5858 10.75 16V21C10.75 21.4142 10.4142 21.75 10 21.75C9.58579 21.75 9.25 21.4142 9.25 21V16C9.25 15.5858 9.58579 15.25 10 15.25Z" fill="#101010"/>
<path fill-rule="evenodd" clip-rule="evenodd" d="M10 0.25C10.4142 0.25 10.75 0.585786 10.75 1V12C10.75 12.4142 10.4142 12.75 10 12.75C9.58579 12.75 9.25 12.4142 9.25 12V1C9.25 0.585786 9.58579 0.25 10 0.25Z" fill="#101010"/>
<path fill-rule="evenodd" clip-rule="evenodd" d="M3 9.25C3.41421 9.25 3.75 9.58579 3.75 10V21C3.75 21.4142 3.41421 21.75 3 21.75C2.58579 21.75 2.25 21.4142 2.25 21V10C2.25 9.58579 2.58579 9.25 3 9.25Z" fill="#101010"/>
<path fill-rule="evenodd" clip-rule="evenodd" d="M3 0.25C3.41421 0.25 3.75 0.585786 3.75 1V6C3.75 6.41421 3.41421 6.75 3 6.75C2.58579 6.75 2.25 6.41421 2.25 6V1C2.25 0.585786 2.58579 0.25 3 0.25Z" fill="#101010"/>
<path fill-rule="evenodd" clip-rule="evenodd" d="M0.25 10C0.25 9.58579 0.585786 9.25 1 9.25H5C5.41421 9.25 5.75 9.58579 5.75 10C5.75 10.4142 5.41421 10.75 5 10.75H1C0.585786 10.75 0.25 10.4142 0.25 10Z" fill="#101010"/>
<path fill-rule="evenodd" clip-rule="evenodd" d="M14.25 10C14.25 9.58579 14.5858 9.25 15 9.25H19C19.4142 9.25 19.75 9.58579 19.75 10C19.75 10.4142 19.4142 10.75 19 10.75H15C14.5858 10.75 14.25 10.4142 14.25 10Z" fill="#101010"/>
<path fill-rule="evenodd" clip-rule="evenodd" d="M7.25 12C7.25 11.5858 7.58579 11.25 8 11.25H12C12.4142 11.25 12.75 11.5858 12.75 12C12.75 12.4142 12.4142 12.75 12 12.75H8C7.58579 12.75 7.25 12.4142 7.25 12Z" fill="#101010"/>
</svg>
