<svg width="22" height="22" viewBox="0 0 22 22" fill="none" xmlns="http://www.w3.org/2000/svg">
<path fill-rule="evenodd" clip-rule="evenodd" d="M2.09467 2.09467C3.42914 0.760201 5.42603 0.25 8 0.25H14C16.574 0.25 18.5709 0.760201 19.9053 2.09467C21.2398 3.42914 21.75 5.42603 21.75 8V14C21.75 16.574 21.2398 18.5709 19.9053 19.9053C18.5709 21.2398 16.574 21.75 14 21.75H8C5.42603 21.75 3.42914 21.2398 2.09467 19.9053C0.760201 18.5709 0.25 16.574 0.25 14V8C0.25 5.42603 0.760201 3.42914 2.09467 2.09467ZM3.15533 3.15533C2.2398 4.07086 1.75 5.57397 1.75 8V14C1.75 16.426 2.2398 17.9291 3.15533 18.8447C4.07086 19.7602 5.57397 20.25 8 20.25H14C16.426 20.25 17.9291 19.7602 18.8447 18.8447C19.7602 17.9291 20.25 16.426 20.25 14V8C20.25 5.57397 19.7602 4.07086 18.8447 3.15533C17.9291 2.2398 16.426 1.75 14 1.75H8C5.57397 1.75 4.07086 2.2398 3.15533 3.15533Z" fill="#101010"/>
<path fill-rule="evenodd" clip-rule="evenodd" d="M14.5703 12.8501C14.9845 12.8501 15.3203 13.1859 15.3203 13.6001V17.5001C15.3203 17.9143 14.9845 18.2501 14.5703 18.2501C14.1561 18.2501 13.8203 17.9143 13.8203 17.5001V13.6001C13.8203 13.1859 14.1561 12.8501 14.5703 12.8501Z" fill="#101010"/>
<path fill-rule="evenodd" clip-rule="evenodd" d="M14.5703 3.75C14.9845 3.75 15.3203 4.08579 15.3203 4.5V6.45C15.3203 6.86421 14.9845 7.2 14.5703 7.2C14.1561 7.2 13.8203 6.86421 13.8203 6.45V4.5C13.8203 4.08579 14.1561 3.75 14.5703 3.75Z" fill="#101010"/>
<path fill-rule="evenodd" clip-rule="evenodd" d="M14.5697 7.19995C13.548 7.19995 12.7197 8.02822 12.7197 9.04995C12.7197 10.0717 13.548 10.9 14.5697 10.9C15.5915 10.9 16.4197 10.0717 16.4197 9.04995C16.4197 8.02822 15.5915 7.19995 14.5697 7.19995ZM11.2197 9.04995C11.2197 7.1998 12.7196 5.69995 14.5697 5.69995C16.4199 5.69995 17.9197 7.1998 17.9197 9.04995C17.9197 10.9001 16.4199 12.4 14.5697 12.4C12.7196 12.4 11.2197 10.9001 11.2197 9.04995Z" fill="#101010"/>
<path fill-rule="evenodd" clip-rule="evenodd" d="M7.42969 14.8C7.8439 14.8 8.17969 15.1358 8.17969 15.55V17.5C8.17969 17.9143 7.8439 18.25 7.42969 18.25C7.01547 18.25 6.67969 17.9143 6.67969 17.5V15.55C6.67969 15.1358 7.01547 14.8 7.42969 14.8Z" fill="#101010"/>
<path fill-rule="evenodd" clip-rule="evenodd" d="M7.42969 3.75C7.8439 3.75 8.17969 4.08579 8.17969 4.5V8.4C8.17969 8.81421 7.8439 9.15 7.42969 9.15C7.01547 9.15 6.67969 8.81421 6.67969 8.4V4.5C6.67969 4.08579 7.01547 3.75 7.42969 3.75Z" fill="#101010"/>
<path fill-rule="evenodd" clip-rule="evenodd" d="M7.43008 11.1001C6.40835 11.1001 5.58008 11.9284 5.58008 12.9501C5.58008 13.9718 6.40835 14.8001 7.43008 14.8001C8.45181 14.8001 9.28008 13.9718 9.28008 12.9501C9.28008 11.9284 8.45181 11.1001 7.43008 11.1001ZM4.08008 12.9501C4.08008 11.0999 5.57992 9.6001 7.43008 9.6001C9.28023 9.6001 10.7801 11.0999 10.7801 12.9501C10.7801 14.8003 9.28023 16.3001 7.43008 16.3001C5.57992 16.3001 4.08008 14.8003 4.08008 12.9501Z" fill="#101010"/>
</svg>
