<svg width="20" height="22" viewBox="0 0 20 22" fill="none" xmlns="http://www.w3.org/2000/svg">
<path fill-rule="evenodd" clip-rule="evenodd" d="M11.877 0.821719C11.8776 0.822095 11.8782 0.822471 11.8789 0.822847L17.3754 4.00082C17.3905 4.00952 17.4052 4.01875 17.4196 4.02847L17.4439 4.04484C17.9233 4.36842 18.3182 4.63497 18.622 4.87567C18.9359 5.12435 19.2064 5.38593 19.3993 5.71977C19.5966 6.06112 19.6779 6.41665 19.7152 6.79578C19.75 7.15055 19.75 7.57754 19.75 8.07569V13.9245C19.75 14.4227 19.75 14.8497 19.7152 15.2044C19.6779 15.5836 19.5966 15.9391 19.3993 16.2804C19.2064 16.6143 18.9359 16.8759 18.622 17.1245C18.3182 17.3652 17.9233 17.6318 17.4439 17.9554L17.4196 17.9717C17.4052 17.9815 17.3905 17.9907 17.3754 17.9994L11.8789 21.1774C11.8783 21.1777 11.8777 21.1781 11.8771 21.1784C11.3243 21.5014 10.643 21.6401 10.0038 21.6401C9.36329 21.6401 8.68064 21.501 8.12453 21.1794L2.6246 17.9994C2.60955 17.9907 2.59481 17.9815 2.5804 17.9717L2.55605 17.9553C2.07673 17.6318 1.68174 17.3652 1.37782 17.1242C1.06369 16.8752 0.793135 16.6131 0.600207 16.2784C0.403102 15.9364 0.322034 15.58 0.28482 15.1999C0.249967 14.8439 0.249983 14.4152 0.250001 13.9144V8.0757C0.249983 7.57754 0.249967 7.15055 0.284851 6.79578C0.32213 6.41665 0.403367 6.06112 0.600675 5.71977C0.793649 5.38593 1.06413 5.12435 1.37802 4.87567C1.68185 4.63497 2.07675 4.36842 2.55615 4.04484L2.5804 4.02847C2.59481 4.01875 2.60955 4.00952 2.6246 4.00082L8.12453 0.820859C8.12455 0.820847 8.12451 0.820872 8.12453 0.820859C8.68063 0.49928 9.36332 0.360107 10.0038 0.360107C10.643 0.360107 11.3242 0.498767 11.877 0.821719ZM10.0038 1.86011C9.55671 1.86011 9.14936 1.96096 8.87547 2.11936L3.39799 5.28634C2.90011 5.62243 2.55944 5.85339 2.30948 6.05142C2.06088 6.24837 1.95635 6.37179 1.89933 6.47044C1.84664 6.5616 1.80287 6.68606 1.77765 6.94256C1.75084 7.21527 1.75 7.56804 1.75 8.11011V13.8801C1.75 14.4246 1.75083 14.7794 1.77768 15.0538C1.80297 15.312 1.8469 15.4376 1.8998 15.5293C1.95687 15.6284 2.06131 15.7519 2.30968 15.9488C2.55953 16.1469 2.90008 16.3778 3.39799 16.7139L8.87541 19.8808C9.1493 20.0392 9.55671 20.1401 10.0038 20.1401C10.4513 20.1401 10.8542 20.0391 11.1211 19.8828L11.1246 19.8808L16.602 16.7139C17.0999 16.3778 17.4406 16.1468 17.6905 15.9488C17.9391 15.7518 18.0436 15.6284 18.1007 15.5298C18.1534 15.4386 18.1971 15.3142 18.2224 15.0577C18.2492 14.7849 18.25 14.4322 18.25 13.8901V8.11011C18.25 7.56804 18.2492 7.21527 18.2224 6.94256C18.1971 6.68606 18.1534 6.5616 18.1007 6.47044C18.0436 6.37179 17.9391 6.24837 17.6905 6.05142C17.4406 5.85339 17.0999 5.62243 16.602 5.28634L11.1211 2.11738C10.8542 1.96113 10.4513 1.86011 10.0038 1.86011Z" fill="#101010"/>
<path fill-rule="evenodd" clip-rule="evenodd" d="M10 8.75C8.75736 8.75 7.75 9.75736 7.75 11C7.75 12.2426 8.75736 13.25 10 13.25C11.2426 13.25 12.25 12.2426 12.25 11C12.25 9.75736 11.2426 8.75 10 8.75ZM6.25 11C6.25 8.92893 7.92893 7.25 10 7.25C12.0711 7.25 13.75 8.92893 13.75 11C13.75 13.0711 12.0711 14.75 10 14.75C7.92893 14.75 6.25 13.0711 6.25 11Z" fill="#101010"/>
</svg>
