<svg width="21" height="22" viewBox="0 0 21 22" fill="none" xmlns="http://www.w3.org/2000/svg">
<path fill-rule="evenodd" clip-rule="evenodd" d="M10.0002 0.247559C10.6052 0.247559 11.2481 0.331578 11.7726 0.527464L16.7628 2.39756C16.7629 2.39758 16.7628 2.39754 16.7628 2.39756C17.5098 2.6769 18.1465 3.23765 18.5932 3.88337C19.04 4.52922 19.3402 5.32273 19.3402 6.12006V9.55006C19.3402 9.96427 19.0044 10.3001 18.5902 10.3001C18.1759 10.3001 17.8402 9.96427 17.8402 9.55006V6.12006C17.8402 5.68739 17.6703 5.1859 17.3596 4.73675C17.0488 4.2875 16.6405 3.95324 16.2375 3.80256L11.2477 1.93265C11.2476 1.93262 11.2478 1.93269 11.2477 1.93265C10.9422 1.8186 10.4899 1.74756 10.0002 1.74756C9.51073 1.74756 9.05905 1.81839 8.75353 1.93229C8.75321 1.93241 8.75289 1.93253 8.75257 1.93265L3.76283 3.81256C3.35973 3.96328 2.95118 4.29771 2.64025 4.74616C2.32921 5.19474 2.16016 5.6935 2.16016 6.12006V13.5501C2.16016 13.9911 2.31126 14.5573 2.58892 15.1093C2.86636 15.6609 3.23191 16.1222 3.58881 16.3891M3.58881 16.3891L7.89832 19.6061C8.4403 20.0243 9.1986 20.2501 10.0002 20.2501C10.4144 20.2501 10.7502 20.5858 10.7502 21.0001C10.7502 21.4143 10.4144 21.7501 10.0002 21.7501C8.94378 21.7501 7.84436 21.4569 6.98707 20.7978L2.6915 17.5911C2.09851 17.1479 1.59887 16.4791 1.24889 15.7833C0.899053 15.0878 0.660156 14.289 0.660156 13.5501V6.12006C0.660156 5.32661 0.961102 4.53537 1.40757 3.89146C1.85394 3.24768 2.49005 2.68731 3.23654 2.40792C3.23685 2.4078 3.23717 2.40768 3.23748 2.40756L8.22573 0.528217L8.22774 0.527464C8.75221 0.331578 9.3951 0.247559 10.0002 0.247559" fill="#101010"/>
<path fill-rule="evenodd" clip-rule="evenodd" d="M14 11.75C12.2051 11.75 10.75 13.2051 10.75 15C10.75 16.7949 12.2051 18.25 14 18.25C15.7949 18.25 17.25 16.7949 17.25 15C17.25 13.2051 15.7949 11.75 14 11.75ZM9.25 15C9.25 12.3766 11.3766 10.25 14 10.25C16.6234 10.25 18.75 12.3766 18.75 15C18.75 17.6234 16.6234 19.75 14 19.75C11.3766 19.75 9.25 17.6234 9.25 15Z" fill="#101010"/>
<path fill-rule="evenodd" clip-rule="evenodd" d="M17.9961 20C17.9961 19.4477 18.4438 19 18.9961 19H19.0051C19.5574 19 20.0051 19.4477 20.0051 20C20.0051 20.5523 19.5574 21 19.0051 21H18.9961C18.4438 21 17.9961 20.5523 17.9961 20Z" fill="#101010"/>
</svg>
