<svg width="22" height="22" viewBox="0 0 22 22" fill="none" xmlns="http://www.w3.org/2000/svg">
<path fill-rule="evenodd" clip-rule="evenodd" d="M19.5999 5.37012C20.0141 5.37012 20.3499 5.7059 20.3499 6.12012V13.5601C20.3499 14.2991 20.111 15.0979 19.7612 15.7934C19.4112 16.4892 18.9119 17.1577 18.3189 17.6009L14.0206 20.8096C14.0202 20.8099 14.0199 20.8101 14.0195 20.8104C13.1618 21.4548 12.0633 21.7551 10.9999 21.7551C9.93641 21.7551 8.83779 21.4547 7.98002 20.8102C7.97975 20.81 7.97948 20.8098 7.97921 20.8096L6.39049 19.6206C6.05887 19.3724 5.99124 18.9023 6.23944 18.5707C6.48763 18.2391 6.95766 18.1715 7.28928 18.4197L8.88057 19.6106C9.43268 20.0257 10.1987 20.2551 10.9999 20.2551C11.8011 20.2551 12.5671 20.0257 13.1192 19.6106L13.1212 19.6091L17.4209 16.3994C17.7779 16.1325 18.1436 15.6711 18.4211 15.1193C18.6988 14.5673 18.8499 14.0012 18.8499 13.5601V6.12012C18.8499 5.7059 19.1857 5.37012 19.5999 5.37012Z" fill="#101010"/>
<path fill-rule="evenodd" clip-rule="evenodd" d="M11.0102 0.247559C11.6152 0.247559 12.2581 0.331578 12.7826 0.527464L17.7733 2.39775C17.786 2.40248 17.7984 2.40754 17.8108 2.41294C17.9939 2.49306 18.1833 2.58732 18.366 2.69694C18.7212 2.91005 18.8364 3.37075 18.6233 3.72593C18.4102 4.08112 17.9495 4.19629 17.5943 3.98318C17.4821 3.91585 17.3577 3.85276 17.2273 3.79498L12.2577 1.93265C12.2576 1.93262 12.2578 1.93269 12.2577 1.93265C11.9522 1.8186 11.4999 1.74756 11.0102 1.74756C10.5206 1.74756 10.0688 1.81842 9.76332 1.93237C9.76307 1.93247 9.76357 1.93228 9.76332 1.93237L4.76283 3.81256C4.35973 3.96328 3.95118 4.29771 3.64025 4.74616C3.32921 5.19474 3.16016 5.6935 3.16016 6.12006V13.5501C3.16016 13.9911 3.31126 14.5573 3.58892 15.1093C3.86645 15.661 4.23213 16.1225 4.58914 16.3893L4.59016 16.3901L4.79016 16.5401C5.12153 16.7886 5.18868 17.2587 4.94016 17.5901C4.69163 17.9214 4.22153 17.9886 3.89016 17.7401L3.69117 17.5908C3.69108 17.5908 3.69125 17.5909 3.69117 17.5908C3.09829 17.1476 2.59881 16.479 2.24889 15.7833C1.89905 15.0878 1.66016 14.289 1.66016 13.5501V6.12006C1.66016 5.32661 1.9611 4.53537 2.40757 3.89146C2.854 3.2476 3.49021 2.68717 4.23682 2.40781C4.23704 2.40773 4.2366 2.40789 4.23682 2.40781L9.2362 0.528043L9.23774 0.527464C9.76221 0.331578 10.4051 0.247559 11.0102 0.247559Z" fill="#101010"/>
<path fill-rule="evenodd" clip-rule="evenodd" d="M21.5303 0.46967C21.8232 0.762563 21.8232 1.23744 21.5303 1.53033L1.53033 21.5303C1.23744 21.8232 0.762563 21.8232 0.46967 21.5303C0.176777 21.2374 0.176777 20.7626 0.46967 20.4697L20.4697 0.46967C20.7626 0.176777 21.2374 0.176777 21.5303 0.46967Z" fill="#101010"/>
</svg>
