<svg width="23" height="23" viewBox="0 0 23 23" fill="none" xmlns="http://www.w3.org/2000/svg">
<path fill-rule="evenodd" clip-rule="evenodd" d="M21.0096 9.46997C21.4238 9.46997 21.7596 9.80576 21.7596 10.22V14.71C21.7596 17.0284 21.3021 18.8478 20.0828 20.0687C18.8632 21.2898 17.0435 21.75 14.7196 21.75H9.32962C8.72488 21.75 8.15789 21.7188 7.62352 21.6425C7.21347 21.5839 6.92855 21.204 6.98713 20.794C7.0457 20.3839 7.4256 20.099 7.83565 20.1576C8.28128 20.2212 8.77436 20.25 9.32962 20.25H14.7196C16.8957 20.25 18.221 19.8102 19.0214 19.0087C19.8221 18.2071 20.2596 16.8815 20.2596 14.71V10.22C20.2596 9.80576 20.5954 9.46997 21.0096 9.46997Z" fill="#101010"/>
<path fill-rule="evenodd" clip-rule="evenodd" d="M3.04004 9.46997C3.45425 9.46997 3.79004 9.80576 3.79004 10.22V14.52C3.79004 14.9342 3.45425 15.27 3.04004 15.27C2.62583 15.27 2.29004 14.9342 2.29004 14.52V10.22C2.29004 9.80576 2.62583 9.46997 3.04004 9.46997Z" fill="#101010"/>
<path fill-rule="evenodd" clip-rule="evenodd" d="M8.94371 0.925153C8.98215 0.541847 9.30473 0.25 9.68996 0.25H14.3599C14.7452 0.25 15.0678 0.541843 15.1062 0.925147L15.7764 7.60664C15.9996 9.87605 14.3049 11.75 12.03 11.75C9.75846 11.75 8.05003 9.87943 8.27358 7.60664L8.94371 0.925153ZM10.3685 1.75L9.76638 7.75347C9.76635 7.7537 9.7664 7.75324 9.76638 7.75347C9.63034 9.14035 10.6417 10.25 12.03 10.25C13.4148 10.25 14.42 9.14446 14.2837 7.75423C14.2836 7.75397 14.2837 7.75448 14.2837 7.75423L13.6814 1.75H10.3685Z" fill="#101010"/>
<path fill-rule="evenodd" clip-rule="evenodd" d="M13.7643 0.496707C13.9064 0.339619 14.1084 0.25 14.3203 0.25H17.3703C18.7571 0.25 19.891 0.511366 20.7167 1.27405C21.5325 2.02762 21.9056 3.14206 22.0932 4.49711C22.0944 4.50605 22.0955 4.51502 22.0964 4.524L22.3766 7.27572C22.6204 9.72559 20.7954 11.75 18.3303 11.75C16.2923 11.75 14.4957 10.1166 14.2748 8.09135L14.274 8.08454L13.574 1.07452C13.553 0.863694 13.6221 0.653795 13.7643 0.496707ZM15.1489 1.75L15.7663 7.93184C15.9069 9.2052 17.0694 10.25 18.3303 10.25C19.905 10.25 21.0399 8.99477 20.8841 7.42501C20.884 7.42475 20.8841 7.42527 20.8841 7.42501L20.6055 4.68964C20.4328 3.45304 20.1266 2.77094 19.6989 2.37592C19.2796 1.98862 18.6035 1.75 17.3703 1.75H15.1489Z" fill="#101010"/>
<path fill-rule="evenodd" clip-rule="evenodd" d="M3.2735 1.27405C4.09919 0.511366 5.23306 0.25 6.61988 0.25H9.66987C9.88176 0.25 10.0838 0.339634 10.226 0.496745C10.3681 0.653855 10.4372 0.863779 10.4161 1.07462L9.71635 8.0824C9.71632 8.08275 9.71628 8.0831 9.71625 8.08346C9.51818 10.1201 7.7029 11.75 5.66987 11.75C3.20788 11.75 1.36948 9.72867 1.61355 7.27572L1.61373 7.274L1.89376 4.524C1.89467 4.51502 1.89575 4.50605 1.89699 4.49711C2.08461 3.14206 2.45768 2.02762 3.2735 1.27405ZM3.38465 4.68964L3.10618 7.42424C3.10616 7.4245 3.10621 7.42397 3.10618 7.42424C2.95073 8.99091 4.09213 10.25 5.66987 10.25C6.93648 10.25 8.1009 9.20048 8.22336 7.93762L8.22355 7.9357L8.84113 1.75H6.61988C5.3867 1.75 4.71058 1.98862 4.29128 2.37592C3.86363 2.77094 3.55736 3.45304 3.38465 4.68964Z" fill="#101010"/>
<path fill-rule="evenodd" clip-rule="evenodd" d="M5 14.75C4.42521 14.75 3.88242 14.9036 3.41087 15.1719C3.40374 15.1759 3.39655 15.1799 3.38929 15.1837C3.24571 15.2593 3.10831 15.3506 2.97678 15.459L2.96626 15.4676L2.96618 15.4675C2.221 16.0588 1.75 16.9745 1.75 18C1.75 18.6094 1.92053 19.1834 2.2184 19.6664C2.22367 19.6749 2.22877 19.6836 2.2337 19.6924C2.29433 19.8002 2.37353 19.91 2.46947 20.0219C2.47299 20.026 2.47647 20.0302 2.4799 20.0344C2.48809 20.0427 2.49872 20.0539 2.50962 20.0659C2.52345 20.0812 2.54059 20.1011 2.55912 20.1252C3.14182 20.8115 4.01778 21.25 5 21.25C5.82269 21.25 6.56449 20.9499 7.12828 20.4425C7.13605 20.4355 7.14397 20.4287 7.15202 20.422C7.17979 20.3885 7.21044 20.3574 7.24363 20.3291C7.43823 20.1633 7.61789 19.9419 7.77509 19.6772L7.78152 19.6663L7.7816 19.6664C8.07947 19.1834 8.25 18.6094 8.25 18C8.25 17.1507 7.91943 16.3784 7.37713 15.7868L7.37503 15.7845L7.37504 15.7845C7.28866 15.6895 7.2152 15.6189 7.14998 15.57C7.13531 15.559 7.12106 15.5474 7.10724 15.5354C6.53997 15.0411 5.81383 14.75 5 14.75ZM2.67969 13.8621C3.36572 13.4741 4.15912 13.25 5 13.25C6.17689 13.25 7.24317 13.6722 8.07311 14.3876C8.2372 14.5139 8.3755 14.6552 8.48392 14.7744C9.261 15.6227 9.75 16.7499 9.75 18C9.75 18.8884 9.50174 19.7325 9.06166 20.4484C8.85102 20.8021 8.58917 21.1408 8.26981 21.4244C8.22143 21.4798 8.1691 21.5297 8.11074 21.5762C7.27719 22.3174 6.18732 22.75 5 22.75C3.55017 22.75 2.25229 22.0955 1.3949 21.0714C1.39329 21.0695 1.39169 21.0676 1.3901 21.0656C1.38191 21.0572 1.37128 21.0461 1.36037 21.0341C1.34694 21.0192 1.3304 21.0001 1.31248 20.9768C1.1778 20.8177 1.04664 20.6392 0.933962 20.4412C0.496613 19.7269 0.25 18.8855 0.25 18C0.25 16.5079 0.936775 15.1655 2.02852 14.2967C2.23223 14.1295 2.44935 13.9843 2.67969 13.8621Z" fill="#101010"/>
<path fill-rule="evenodd" clip-rule="evenodd" d="M2.75977 17.98C2.75977 17.5658 3.09555 17.23 3.50977 17.23H6.48975C6.90396 17.23 7.23975 17.5658 7.23975 17.98C7.23975 18.3942 6.90396 18.73 6.48975 18.73H3.50977C3.09555 18.73 2.75977 18.3942 2.75977 17.98Z" fill="#101010"/>
</svg>
