<svg width="22" height="22" viewBox="0 0 22 22" fill="none" xmlns="http://www.w3.org/2000/svg">
<path fill-rule="evenodd" clip-rule="evenodd" d="M2.01074 9.46997C2.42496 9.46997 2.76074 9.80576 2.76074 10.22V14.71C2.76074 16.8806 3.20037 18.2064 4.00232 19.0084C4.80428 19.8103 6.13012 20.25 8.30074 20.25H13.6907C15.8614 20.25 17.1872 19.8103 17.9892 19.0084C18.7911 18.2064 19.2307 16.8806 19.2307 14.71V10.22C19.2307 9.80576 19.5665 9.46997 19.9807 9.46997C20.395 9.46997 20.7307 9.80576 20.7307 10.22V14.71C20.7307 17.0293 20.2704 18.8485 19.0498 20.0691C17.8293 21.2896 16.0101 21.75 13.6907 21.75H8.30074C5.98136 21.75 4.16221 21.2896 2.94166 20.0691C1.72112 18.8485 1.26074 17.0293 1.26074 14.71V10.22C1.26074 9.80576 1.59653 9.46997 2.01074 9.46997Z" fill="#101010"/>
<path fill-rule="evenodd" clip-rule="evenodd" d="M7.92427 0.925151C7.96272 0.541846 8.2853 0.25 8.67053 0.25H13.3405C13.7262 0.25 14.049 0.542472 14.0869 0.926257L14.7469 7.60626C14.9701 9.87565 13.2755 11.75 11.0005 11.75C8.72558 11.75 7.03091 9.87598 7.25413 7.60658L7.92427 0.925151ZM9.34907 1.75L8.74693 7.75342C8.74691 7.75364 8.74695 7.75319 8.74693 7.75342C8.61054 9.14371 9.6157 10.25 11.0005 10.25C12.3855 10.25 13.3908 9.1442 13.2542 7.75374C13.2542 7.75363 13.2542 7.75385 13.2542 7.75374L12.661 1.75H9.34907Z" fill="#101010"/>
<path fill-rule="evenodd" clip-rule="evenodd" d="M12.7447 0.496707C12.8869 0.339619 13.0889 0.25 13.3008 0.25H16.3508C17.7376 0.25 18.8715 0.511374 19.6972 1.27407C20.513 2.02763 20.8861 3.14208 21.0737 4.49714C21.0749 4.50608 21.076 4.51505 21.0769 4.52403L21.3571 7.27574C21.6009 9.72563 19.7759 11.75 17.3108 11.75C15.2765 11.75 13.4641 10.1194 13.2547 8.08687L13.2545 8.08452L12.5545 1.07452C12.5334 0.863693 12.6025 0.653794 12.7447 0.496707ZM14.1294 1.75L14.7468 7.93313C14.7469 7.9335 14.7469 7.93386 14.7469 7.93422C14.8781 9.20117 16.0455 10.25 17.3108 10.25C18.8854 10.25 20.0203 8.99482 19.8646 7.4251C19.8645 7.42482 19.8646 7.42538 19.8646 7.4251L19.586 4.68966C19.4133 3.45307 19.1071 2.77096 18.6794 2.37593C18.2601 1.98863 17.584 1.75 16.3508 1.75H14.1294Z" fill="#101010"/>
<path fill-rule="evenodd" clip-rule="evenodd" d="M2.24403 1.27407C3.06973 0.511374 4.2036 0.25 5.59043 0.25H8.64043C8.85232 0.25 9.05433 0.339635 9.19652 0.496746C9.3387 0.653857 9.40779 0.863783 9.3867 1.07463L8.68692 8.08239C8.68689 8.08271 8.68695 8.08207 8.68692 8.08239C8.48891 10.1191 6.6735 11.75 4.64042 11.75C2.17552 11.75 0.350603 9.72592 0.594058 7.27627C0.594075 7.27609 0.59404 7.27644 0.594058 7.27627L0.864014 4.52672C0.864984 4.51683 0.86615 4.50697 0.867512 4.49714C1.05514 3.14208 1.42821 2.02763 2.24403 1.27407ZM2.35536 4.68835L2.08684 7.42328C1.93061 8.9934 3.0655 10.25 4.64042 10.25C5.90704 10.25 7.07147 9.20047 7.19393 7.93761L7.19411 7.93571L7.81168 1.75H5.59043C4.35725 1.75 3.68112 1.98863 3.26182 2.37593C2.83431 2.77082 2.52811 3.45258 2.35536 4.68835Z" fill="#101010"/>
<path fill-rule="evenodd" clip-rule="evenodd" d="M8.59342 16.0934C9.2005 15.4863 10.0505 15.25 11 15.25C11.9495 15.25 12.7995 15.4863 13.4066 16.0934C14.0137 16.7005 14.25 17.5505 14.25 18.5V21C14.25 21.4142 13.9142 21.75 13.5 21.75H8.5C8.08579 21.75 7.75 21.4142 7.75 21V18.5C7.75 17.5505 7.98634 16.7005 8.59342 16.0934ZM9.65408 17.1541C9.42866 17.3795 9.25 17.7795 9.25 18.5V20.25H12.75V18.5C12.75 17.7795 12.5713 17.3795 12.3459 17.1541C12.1205 16.9287 11.7205 16.75 11 16.75C10.2795 16.75 9.8795 16.9287 9.65408 17.1541Z" fill="#101010"/>
</svg>
