<svg width="22" height="22" viewBox="0 0 22 22" fill="none" xmlns="http://www.w3.org/2000/svg">
<path fill-rule="evenodd" clip-rule="evenodd" d="M2.06537 2.09467C3.39984 0.760201 5.39673 0.25 7.9707 0.25H13.9707C16.5447 0.25 18.5416 0.760201 19.876 2.09467C21.2105 3.42914 21.7207 5.42603 21.7207 8V14C21.7207 16.574 21.2105 18.5709 19.876 19.9053C18.5416 21.2398 16.5447 21.75 13.9707 21.75H7.9707C5.39673 21.75 3.39984 21.2398 2.06537 19.9053C0.730904 18.5709 0.220703 16.574 0.220703 14V8C0.220703 5.42603 0.730904 3.42914 2.06537 2.09467ZM3.12603 3.15533C2.2105 4.07086 1.7207 5.57397 1.7207 8V14C1.7207 16.426 2.2105 17.9291 3.12603 18.8447C4.04156 19.7602 5.54468 20.25 7.9707 20.25H13.9707C16.3967 20.25 17.8998 19.7602 18.8154 18.8447C19.7309 17.9291 20.2207 16.426 20.2207 14V8C20.2207 5.57397 19.7309 4.07086 18.8154 3.15533C17.8998 2.2398 16.3967 1.75 13.9707 1.75H7.9707C5.54468 1.75 4.04156 2.2398 3.12603 3.15533Z" fill="#101010"/>
<path fill-rule="evenodd" clip-rule="evenodd" d="M0.25 7.5C0.25 7.08579 0.585786 6.75 1 6.75H21C21.4142 6.75 21.75 7.08579 21.75 7.5C21.75 7.91421 21.4142 8.25 21 8.25H1C0.585786 8.25 0.25 7.91421 0.25 7.5Z" fill="#101010"/>
<path fill-rule="evenodd" clip-rule="evenodd" d="M10.4711 11.4097C10.764 11.1168 11.2388 11.1168 11.5317 11.4097L14.0917 13.9697C14.3846 14.2626 14.3846 14.7374 14.0917 15.0303C13.7988 15.3232 13.324 15.3232 13.0311 15.0303L11.0014 13.0007L8.97174 15.0303C8.67884 15.3232 8.20397 15.3232 7.91108 15.0303C7.61818 14.7374 7.61818 14.2626 7.91108 13.9697L10.4711 11.4097Z" fill="#101010"/>
</svg>
