<svg width="22" height="22" viewBox="0 0 22 22" fill="none" xmlns="http://www.w3.org/2000/svg">
<path fill-rule="evenodd" clip-rule="evenodd" d="M2.06537 2.09467C3.39984 0.760201 5.39673 0.25 7.9707 0.25H13.9707C16.5447 0.25 18.5416 0.760201 19.876 2.09467C21.2105 3.42914 21.7207 5.42603 21.7207 8V14C21.7207 16.574 21.2105 18.5709 19.876 19.9053C18.5416 21.2398 16.5447 21.75 13.9707 21.75H7.9707C5.39673 21.75 3.39984 21.2398 2.06537 19.9053C0.730904 18.5709 0.220703 16.574 0.220703 14V8C0.220703 5.42603 0.730904 3.42914 2.06537 2.09467ZM3.12603 3.15533C2.2105 4.07086 1.7207 5.57397 1.7207 8V14C1.7207 16.426 2.2105 17.9291 3.12603 18.8447C4.04156 19.7602 5.54468 20.25 7.9707 20.25H13.9707C16.3967 20.25 17.8998 19.7602 18.8154 18.8447C19.7309 17.9291 20.2207 16.426 20.2207 14V8C20.2207 5.57397 19.7309 4.07086 18.8154 3.15533C17.8998 2.2398 16.3967 1.75 13.9707 1.75H7.9707C5.54468 1.75 4.04156 2.2398 3.12603 3.15533Z" fill="#101010"/>
<path fill-rule="evenodd" clip-rule="evenodd" d="M13.9707 0.25C14.3849 0.25 14.7207 0.585786 14.7207 1V21C14.7207 21.4142 14.3849 21.75 13.9707 21.75C13.5565 21.75 13.2207 21.4142 13.2207 21V1C13.2207 0.585786 13.5565 0.25 13.9707 0.25Z" fill="#101010"/>
<path fill-rule="evenodd" clip-rule="evenodd" d="M6.44037 7.90967C6.73327 7.61678 7.20814 7.61678 7.50103 7.90967L10.061 10.4697C10.3539 10.7626 10.3539 11.2374 10.061 11.5303L7.50103 14.0903C7.20814 14.3832 6.73327 14.3832 6.44037 14.0903C6.14748 13.7974 6.14748 13.3226 6.44037 13.0297L8.47004 11L6.44037 8.97033C6.14748 8.67744 6.14748 8.20257 6.44037 7.90967Z" fill="#101010"/>
</svg>
