<svg width="16" height="22" viewBox="0 0 16 22" fill="none" xmlns="http://www.w3.org/2000/svg">
<path fill-rule="evenodd" clip-rule="evenodd" d="M3.41104 0.786962C3.84347 0.452175 4.38297 0.25 4.9602 0.25H13.2201C14.6016 0.25 15.7201 1.36297 15.7201 2.73999V6.23999C15.7201 7.6242 14.6044 8.73999 13.2201 8.73999H4.9602C4.40749 8.73999 3.85001 8.55666 3.40079 8.19495L1.21328 6.44694C1.21305 6.44676 1.2135 6.44712 1.21328 6.44694C-0.0432829 5.44672 -0.0439743 3.54386 1.21256 2.54362C1.2128 2.54343 1.21232 2.54382 1.21256 2.54362L3.41104 0.786962ZM4.3333 1.96996L2.14706 3.71696C1.64454 4.11669 1.64454 4.8733 2.14706 5.27303L2.14836 5.27407L4.33837 7.02407L4.34099 7.02618C4.51152 7.1637 4.73349 7.23999 4.9602 7.23999H13.2201C13.7759 7.23999 14.2201 6.79578 14.2201 6.23999V2.73999C14.2201 2.19701 13.7787 1.75 13.2201 1.75H4.9602C4.73901 1.75 4.52 1.82673 4.3333 1.96996Z" fill="#101010"/>
<path fill-rule="evenodd" clip-rule="evenodd" d="M2.80029 11.75C2.2417 11.75 1.80029 12.197 1.80029 12.74V16.24C1.80029 16.7958 2.24451 17.24 2.80029 17.24H11.0603C11.287 17.24 11.509 17.1637 11.6795 17.0262L11.6821 17.0241L11.6821 17.0241L13.8721 15.2741L13.8734 15.273C14.376 14.8733 14.376 14.1167 13.8734 13.717L13.8721 13.7159L11.6872 11.97C11.5005 11.8267 11.2815 11.75 11.0603 11.75H2.80029ZM0.300293 12.74C0.300293 11.363 1.41889 10.25 2.80029 10.25H11.0603C11.6375 10.25 12.177 10.4522 12.6095 10.787L12.6186 10.794L12.6185 10.7941L14.8072 12.5431C14.8075 12.5433 14.8078 12.5435 14.8082 12.5438C16.0644 13.544 16.0644 15.446 14.8081 16.4462C14.8078 16.4465 14.8075 16.4467 14.8072 16.4469L12.6211 18.1938C12.6207 18.1942 12.6202 18.1945 12.6197 18.1949C12.1705 18.5566 11.613 18.74 11.0603 18.74H2.80029C1.41608 18.74 0.300293 17.6242 0.300293 16.24V12.74Z" fill="#101010"/>
<path fill-rule="evenodd" clip-rule="evenodd" d="M8 7.25C8.41421 7.25 8.75 7.58579 8.75 8V11C8.75 11.4142 8.41421 11.75 8 11.75C7.58579 11.75 7.25 11.4142 7.25 11V8C7.25 7.58579 7.58579 7.25 8 7.25Z" fill="#101010"/>
<path fill-rule="evenodd" clip-rule="evenodd" d="M8 17.25C8.41421 17.25 8.75 17.5858 8.75 18V21C8.75 21.4142 8.41421 21.75 8 21.75C7.58579 21.75 7.25 21.4142 7.25 21V18C7.25 17.5858 7.58579 17.25 8 17.25Z" fill="#101010"/>
<path fill-rule="evenodd" clip-rule="evenodd" d="M4.25 21C4.25 20.5858 4.58579 20.25 5 20.25H11C11.4142 20.25 11.75 20.5858 11.75 21C11.75 21.4142 11.4142 21.75 11 21.75H5C4.58579 21.75 4.25 21.4142 4.25 21Z" fill="#101010"/>
</svg>
