<svg width="20" height="22" viewBox="0 0 20 22" fill="none" xmlns="http://www.w3.org/2000/svg">
<path fill-rule="evenodd" clip-rule="evenodd" d="M1.84467 1.85468C2.87925 0.820095 4.32956 0.26001 6 0.26001H10.93C12.4565 0.26001 13.918 0.8573 15.0003 1.93964L18.0703 5.00965C19.1413 6.08063 19.75 7.54157 19.75 9.08002V16.01C19.75 17.6804 19.1899 19.1308 18.1553 20.1653C17.1207 21.1999 15.6704 21.76 14 21.76H6C4.32956 21.76 2.87925 21.1999 1.84467 20.1653C0.810085 19.1308 0.25 17.6804 0.25 16.01V6.01001C0.25 4.33957 0.810085 2.88926 1.84467 1.85468ZM2.90533 2.91534C2.18991 3.63076 1.75 4.68045 1.75 6.01001V16.01C1.75 17.3396 2.18991 18.3893 2.90533 19.1047C3.62075 19.8201 4.67044 20.26 6 20.26H14C15.3296 20.26 16.3793 19.8201 17.0947 19.1047C17.8101 18.3893 18.25 17.3396 18.25 16.01V9.08002C18.25 7.93847 17.7987 6.85933 17.0097 6.07031L13.9397 3.0003C13.142 2.20264 12.0635 1.76001 10.93 1.76001H6C4.67044 1.76001 3.62075 2.19992 2.90533 2.91534Z" fill="#101010"/>
<path fill-rule="evenodd" clip-rule="evenodd" d="M8.03033 12.4697C8.32322 12.7626 8.32322 13.2374 8.03033 13.5303L6.56066 15L8.03033 16.4697C8.32322 16.7626 8.32322 17.2374 8.03033 17.5303C7.73744 17.8232 7.26256 17.8232 6.96967 17.5303L4.96967 15.5303C4.67678 15.2374 4.67678 14.7626 4.96967 14.4697L6.96967 12.4697C7.26256 12.1768 7.73744 12.1768 8.03033 12.4697Z" fill="#101010"/>
<path fill-rule="evenodd" clip-rule="evenodd" d="M11.9697 12.4697C12.2626 12.1768 12.7374 12.1768 13.0303 12.4697L15.0303 14.4697C15.3232 14.7626 15.3232 15.2374 15.0303 15.5303L13.0303 17.5303C12.7374 17.8232 12.2626 17.8232 11.9697 17.5303C11.6768 17.2374 11.6768 16.7626 11.9697 16.4697L13.4393 15L11.9697 13.5303C11.6768 13.2374 11.6768 12.7626 11.9697 12.4697Z" fill="#101010"/>
</svg>
