<svg width="20" height="22" viewBox="0 0 20 22" fill="none" xmlns="http://www.w3.org/2000/svg">
<path fill-rule="evenodd" clip-rule="evenodd" d="M1.84467 1.84467C2.87925 0.810085 4.32956 0.25 6 0.25H10.93C12.4604 0.25 13.9207 0.860056 15.0003 1.93967L18.0703 5.00967C19.1407 6.08008 19.75 7.54075 19.75 9.07V16C19.75 17.6704 19.1899 19.1207 18.1553 20.1553C17.1207 21.1899 15.6704 21.75 14 21.75H6C4.32956 21.75 2.87925 21.1899 1.84467 20.1553C0.810085 19.1207 0.25 17.6704 0.25 16V6C0.25 4.32956 0.810085 2.87925 1.84467 1.84467ZM2.90533 2.90533C2.18991 3.62075 1.75 4.67044 1.75 6V16C1.75 17.3296 2.18991 18.3793 2.90533 19.0947C3.62075 19.8101 4.67044 20.25 6 20.25H14C15.3296 20.25 16.3793 19.8101 17.0947 19.0947C17.8101 18.3793 18.25 17.3296 18.25 16V9.07C18.25 7.93925 17.7993 6.85992 17.0097 6.07033L13.9397 3.00033C13.1393 2.19994 12.0596 1.75 10.93 1.75H6C4.67044 1.75 3.62075 2.18991 2.90533 2.90533Z" fill="#101010"/>
<path fill-rule="evenodd" clip-rule="evenodd" d="M4.25 11.5C4.25 9.43579 5.93579 7.75 8 7.75H12C14.0642 7.75 15.75 9.43579 15.75 11.5V14.5C15.75 16.5642 14.0642 18.25 12 18.25H8C5.93579 18.25 4.25 16.5642 4.25 14.5V11.5ZM8 9.25C6.76421 9.25 5.75 10.2642 5.75 11.5V14.5C5.75 15.7358 6.76421 16.75 8 16.75H12C13.2358 16.75 14.25 15.7358 14.25 14.5V11.5C14.25 10.2642 13.2358 9.25 12 9.25H8Z" fill="#101010"/>
<path fill-rule="evenodd" clip-rule="evenodd" d="M10 7.75C10.4142 7.75 10.75 8.08579 10.75 8.5V17.5C10.75 17.9142 10.4142 18.25 10 18.25C9.58579 18.25 9.25 17.9142 9.25 17.5V8.5C9.25 8.08579 9.58579 7.75 10 7.75Z" fill="#101010"/>
<path fill-rule="evenodd" clip-rule="evenodd" d="M4.75 13C4.75 12.5858 5.08579 12.25 5.5 12.25H14.5C14.9142 12.25 15.25 12.5858 15.25 13C15.25 13.4142 14.9142 13.75 14.5 13.75H5.5C5.08579 13.75 4.75 13.4142 4.75 13Z" fill="#101010"/>
</svg>
