<svg width="22" height="22" viewBox="0 0 22 22" fill="none" xmlns="http://www.w3.org/2000/svg">
<path fill-rule="evenodd" clip-rule="evenodd" d="M6 5.75C5.39105 5.75 4.88302 5.77004 4.44607 5.83246C4.43813 5.8336 4.43017 5.8346 4.4222 5.83548C3.20657 5.96953 2.63894 6.29944 2.31013 6.79874C1.93687 7.36555 1.75 8.31741 1.75 10V12C1.75 13.6826 1.93687 14.6345 2.31013 15.2013C2.63894 15.7006 3.20657 16.0305 4.4222 16.1645C4.43017 16.1654 4.43813 16.1664 4.44607 16.1675C4.88302 16.23 5.39105 16.25 6 16.25H16C16.609 16.25 17.117 16.23 17.5539 16.1675C17.5619 16.1664 17.5698 16.1654 17.5778 16.1645C18.7934 16.0305 19.3611 15.7006 19.6899 15.2013C20.0631 14.6345 20.25 13.6826 20.25 12V10C20.25 8.31741 20.0631 7.36555 19.6899 6.79874C19.3611 6.29944 18.7934 5.96953 17.5778 5.83548C17.5698 5.8346 17.5619 5.8336 17.5539 5.83246C17.117 5.77004 16.609 5.75 16 5.75H6ZM4.24594 4.34583C4.7857 4.26967 5.3736 4.25 6 4.25H16C16.6264 4.25 17.2143 4.26967 17.7541 4.34583C19.1627 4.50291 20.2609 4.93847 20.9426 5.97376C21.5819 6.94445 21.75 8.30259 21.75 10V12C21.75 13.6974 21.5819 15.0555 20.9426 16.0262C20.2609 17.0615 19.1627 17.4971 17.7541 17.6542C17.2143 17.7303 16.6264 17.75 16 17.75H6C5.3736 17.75 4.78569 17.7303 4.24593 17.6542C2.83727 17.4971 1.73915 17.0615 1.05737 16.0262C0.418133 15.0555 0.25 13.6974 0.25 12V10C0.25 8.30259 0.418133 6.94445 1.05737 5.97376C1.73915 4.93847 2.83727 4.50291 4.24594 4.34583Z" fill="#101010"/>
<path fill-rule="evenodd" clip-rule="evenodd" d="M3.86919 16.3263C4.03116 16.1956 4.24014 16.1381 4.44615 16.1675C4.8831 16.23 5.39113 16.25 6.00008 16.25H16.0001C16.609 16.25 17.1171 16.23 17.554 16.1675C17.76 16.1381 17.969 16.1956 18.131 16.3263C18.2929 16.4569 18.3933 16.649 18.4082 16.8566C18.4201 17.0235 18.4201 17.1765 18.4201 17.3196V17.67C18.4201 18.9957 18.2711 20.1252 17.531 20.8635C16.7916 21.6011 15.6604 21.75 14.3301 21.75H7.67008C6.33977 21.75 5.20861 21.6011 4.46916 20.8635C3.72904 20.1252 3.58008 18.9957 3.58008 17.67V17.33C3.58008 17.3265 3.58008 17.3231 3.58008 17.3196C3.58007 17.1765 3.58006 17.0235 3.59199 16.8566C3.60681 16.649 3.70722 16.4569 3.86919 16.3263ZM5.08021 17.7301C5.08574 19.0205 5.2701 19.5438 5.5285 19.8015C5.79155 20.0639 6.33039 20.25 7.67008 20.25H14.3301C15.6698 20.25 16.2086 20.0639 16.4717 19.8015C16.7301 19.5438 16.9144 19.0205 16.92 17.7301C16.624 17.745 16.317 17.75 16.0001 17.75H6.00008C5.68319 17.75 5.37615 17.745 5.08021 17.7301Z" fill="#101010"/>
<path fill-rule="evenodd" clip-rule="evenodd" d="M5.08021 4.26987C5.37615 4.25504 5.68319 4.25 6.00008 4.25H16.0001C16.317 4.25 16.624 4.25504 16.92 4.26987C16.9144 2.97952 16.7301 2.45625 16.4717 2.19849C16.2086 1.93609 15.6698 1.75 14.3301 1.75H7.67008C6.33039 1.75 5.79155 1.93609 5.5285 2.19849C5.2701 2.45625 5.08574 2.97952 5.08021 4.26987ZM4.46916 1.13651C5.20861 0.398907 6.33977 0.25 7.67008 0.25H14.3301C15.6604 0.25 16.7916 0.398907 17.531 1.13651C18.2711 1.87479 18.4201 3.00431 18.4201 4.33V4.6804C18.4201 4.82348 18.4201 4.97653 18.4082 5.14344C18.3933 5.35101 18.2929 5.54309 18.131 5.67375C17.969 5.80441 17.76 5.86189 17.554 5.83246C17.1171 5.77004 16.609 5.75 16.0001 5.75H6.00008C5.39113 5.75 4.8831 5.77004 4.44615 5.83246C4.24014 5.86189 4.03116 5.80441 3.86919 5.67375C3.70722 5.54309 3.60681 5.35101 3.59199 5.14344C3.58006 4.97654 3.58007 4.82349 3.58008 4.68041L3.58008 4.33C3.58008 3.00431 3.72904 1.87479 4.46916 1.13651Z" fill="#101010"/>
</svg>
