<svg width="22" height="22" viewBox="0 0 22 22" fill="none" xmlns="http://www.w3.org/2000/svg">
<path fill-rule="evenodd" clip-rule="evenodd" d="M6.5 4.75C5.89105 4.75 5.38302 4.77004 4.94607 4.83246C4.93813 4.8336 4.93017 4.8346 4.9222 4.83548C3.70657 4.96953 3.13894 5.29944 2.81013 5.79874C2.43687 6.36555 2.25 7.31741 2.25 9V13C2.25 14.6826 2.43687 15.6345 2.81013 16.2013C3.13894 16.7006 3.70657 17.0305 4.9222 17.1645C4.93017 17.1654 4.93813 17.1664 4.94607 17.1675C5.38302 17.23 5.89105 17.25 6.5 17.25H15.5C16.109 17.25 16.617 17.23 17.0539 17.1675C17.0619 17.1664 17.0698 17.1654 17.0778 17.1645C18.2934 17.0305 18.8611 16.7006 19.1899 16.2013C19.5631 15.6345 19.75 14.6826 19.75 13V9C19.75 7.31741 19.5631 6.36555 19.1899 5.79874C18.8611 5.29944 18.2934 4.96953 17.0778 4.83548C17.0698 4.8346 17.0619 4.8336 17.0539 4.83246C16.617 4.77004 16.109 4.75 15.5 4.75H6.5ZM4.74594 3.34583C5.2857 3.26967 5.8736 3.25 6.5 3.25H15.5C16.1264 3.25 16.7143 3.26967 17.2541 3.34583C18.6627 3.50291 19.7609 3.93847 20.4426 4.97376C21.0819 5.94445 21.25 7.30259 21.25 9V13C21.25 14.6974 21.0819 16.0555 20.4426 17.0262C19.7609 18.0615 18.6627 18.4971 17.2541 18.6542C16.7143 18.7303 16.1264 18.75 15.5 18.75H6.5C5.8736 18.75 5.28569 18.7303 4.74593 18.6542C3.33727 18.4971 2.23915 18.0615 1.55737 17.0262C0.918133 16.0555 0.75 14.6974 0.75 13V9C0.75 7.30259 0.918133 5.94445 1.55737 4.97376C2.23915 3.93847 3.33727 3.50291 4.74594 3.34583Z" fill="#101010"/>
<path fill-rule="evenodd" clip-rule="evenodd" d="M2.75 1C2.75 0.585786 3.08579 0.25 3.5 0.25H18.5C18.9142 0.25 19.25 0.585786 19.25 1C19.25 1.41421 18.9142 1.75 18.5 1.75H3.5C3.08579 1.75 2.75 1.41421 2.75 1Z" fill="#101010"/>
<path fill-rule="evenodd" clip-rule="evenodd" d="M3.25 21C3.25 20.5858 3.58579 20.25 4 20.25H19C19.4142 20.25 19.75 20.5858 19.75 21C19.75 21.4142 19.4142 21.75 19 21.75H4C3.58579 21.75 3.25 21.4142 3.25 21Z" fill="#101010"/>
</svg>
