<svg width="23" height="22" viewBox="0 0 23 22" fill="none" xmlns="http://www.w3.org/2000/svg">
<path fill-rule="evenodd" clip-rule="evenodd" d="M14.4001 1.24543C14.4004 1.24563 14.3999 1.24522 14.4001 1.24543L21.3307 6.78588C21.8443 7.19946 22.2292 7.80516 22.4648 8.42272C22.7005 9.04047 22.8169 9.74905 22.7105 10.4009L22.71 10.4037L21.3801 18.3636L21.3797 18.3659C21.0785 20.1351 19.3972 21.5601 17.6003 21.5601H11.4003C10.9861 21.5601 10.6503 21.2243 10.6503 20.8101C10.6503 20.3959 10.9861 20.0601 11.4003 20.0601H17.6003C18.663 20.0601 19.7213 19.1656 19.9008 18.1153C19.9008 18.1149 19.9009 18.1146 19.9009 18.1142L21.2301 10.1592C21.2302 10.1588 21.2302 10.1583 21.2303 10.1579C21.2835 9.82994 21.2299 9.39408 21.0633 8.95741C20.8966 8.52043 20.6468 8.16142 20.3907 7.95489C20.3905 7.95467 20.3902 7.95444 20.3899 7.95422L13.462 2.41583L13.4604 2.41459C12.6634 1.77396 11.3239 1.77615 10.5395 2.40511L3.607 7.95717C3.34713 8.16374 3.09585 8.52214 2.92979 8.95741C2.76369 9.39278 2.71281 9.82645 2.76926 10.1519L2.77011 10.1568L3.05009 11.8367C3.11819 12.2453 2.84218 12.6317 2.4336 12.6998C2.02502 12.7679 1.6386 12.4919 1.5705 12.0833L1.29088 10.4056C1.1781 9.75181 1.29223 9.04154 1.52832 8.42272C1.76459 7.80345 2.15291 7.1973 2.67243 6.78389C2.67283 6.78357 2.67323 6.78325 2.67363 6.78293L9.60111 1.23489C10.9365 0.16435 13.0573 0.166776 14.4001 1.24543Z" fill="#101010"/>
<path fill-rule="evenodd" clip-rule="evenodd" d="M1.2502 17.983C1.25961 17.5689 1.60294 17.2408 2.01705 17.2502C3.06762 17.2741 3.9988 17.6481 4.67533 18.3247C5.35187 19.0012 5.72593 19.9324 5.74981 20.983C5.75922 21.3971 5.43115 21.7404 5.01705 21.7498C4.60294 21.7592 4.25961 21.4312 4.2502 21.017C4.23407 20.3076 3.98814 19.7588 3.61467 19.3853C3.24121 19.0119 2.69238 18.7659 1.98296 18.7498C1.56886 18.7404 1.24079 18.3971 1.2502 17.983Z" fill="#101010"/>
<path fill-rule="evenodd" clip-rule="evenodd" d="M1.25007 14.9901C1.25552 14.576 1.59569 14.2446 2.00987 14.2501C2.84999 14.2611 3.64129 14.405 4.37018 14.663L4.37117 14.6633C6.24219 15.3283 7.6711 16.7448 8.33717 18.6302C8.59501 19.359 8.73888 20.1501 8.74994 20.9901C8.75539 21.4043 8.42405 21.7445 8.00987 21.7499C7.59569 21.7554 7.25552 21.424 7.25007 21.0099C7.24112 20.33 7.12505 19.7013 6.92296 19.1302L6.92284 19.1298C6.40898 17.6753 5.31806 16.5919 3.86933 16.0769C3.29836 15.8749 2.66982 15.7589 1.99013 15.7499C1.57596 15.7445 1.24462 15.4043 1.25007 14.9901Z" fill="#101010"/>
<path fill-rule="evenodd" clip-rule="evenodd" d="M0.995605 21C0.995605 20.4477 1.44332 20 1.99561 20H2.00461C2.55689 20 3.00461 20.4477 3.00461 21C3.00461 21.5523 2.55689 22 2.00461 22H1.99561C1.44332 22 0.995605 21.5523 0.995605 21Z" fill="#101010"/>
</svg>
