<svg width="22" height="22" viewBox="0 0 22 22" fill="none" xmlns="http://www.w3.org/2000/svg">
<path fill-rule="evenodd" clip-rule="evenodd" d="M2.50533 2.50531C2.0398 2.97083 1.75 3.77392 1.75 5.19995V8.80005C1.75 10.2261 2.0398 11.0292 2.50533 11.4947C2.97086 11.9602 3.77397 12.25 5.2 12.25H8.29081C8.40179 11.1022 8.74154 10.1428 9.44217 9.44217C10.1428 8.74154 11.1022 8.40179 12.25 8.29081V5.19995C12.25 3.77392 11.9602 2.97083 11.4947 2.50531C11.0291 2.03979 10.226 1.75 8.8 1.75H5.2C3.77397 1.75 2.97086 2.03979 2.50533 2.50531ZM1.44468 1.44464C2.32915 0.560186 3.62604 0.25 5.2 0.25H8.8C10.374 0.25 11.6709 0.560186 12.5553 1.44464C13.4398 2.3291 13.75 3.62598 13.75 5.19995V9C13.75 9.40897 13.4223 9.74255 13.0134 9.74988C11.6994 9.77343 10.9471 10.0585 10.5028 10.5028C10.0585 10.9471 9.77343 11.6994 9.74988 13.0134C9.74255 13.4223 9.40897 13.75 9 13.75H5.2C3.62604 13.75 2.32915 13.4398 1.44468 12.5554C0.560201 11.6709 0.25 10.374 0.25 8.80005V5.19995C0.25 3.62598 0.560201 2.3291 1.44468 1.44464Z" fill="#101010"/>
<path fill-rule="evenodd" clip-rule="evenodd" d="M3.76275 4.28057C4.5528 3.71412 5.59564 3.71609 6.38117 4.24966C6.72382 4.4824 6.81291 4.94884 6.58018 5.29149C6.34744 5.63413 5.88099 5.72323 5.53835 5.49049C5.26389 5.30406 4.90673 5.30607 4.63678 5.49962C4.30015 5.74097 3.8316 5.66374 3.59024 5.32711C3.34888 4.99048 3.42612 4.52193 3.76275 4.28057Z" fill="#101010"/>
<path fill-rule="evenodd" clip-rule="evenodd" d="M7.76275 4.28057C8.5528 3.71412 9.59564 3.71609 10.3812 4.24966C10.7238 4.4824 10.8129 4.94884 10.5802 5.29149C10.3474 5.63413 9.88099 5.72323 9.53835 5.49049C9.26389 5.30406 8.90673 5.30607 8.63678 5.49962C8.30015 5.74097 7.8316 5.66374 7.59024 5.32711C7.34888 4.99048 7.42612 4.52193 7.76275 4.28057Z" fill="#101010"/>
<path fill-rule="evenodd" clip-rule="evenodd" d="M5.06101 9.67017C5.16596 8.69289 5.99493 7.93018 6.99981 7.93018C7.46604 7.93018 7.89078 8.08996 8.21974 8.35455C8.5425 8.61416 9.0146 8.56297 9.27421 8.24021C9.53383 7.91745 9.48263 7.44534 9.15987 7.18573C8.56883 6.71032 7.81357 6.43018 6.99981 6.43018C5.09561 6.43018 3.5498 7.9759 3.5498 9.88013C3.5498 10.5943 4.12552 11.1702 4.83981 11.1702H7.15981C7.57402 11.1702 7.90981 10.8344 7.90981 10.4202C7.90981 10.006 7.57402 9.67017 7.15981 9.67017H5.06101Z" fill="#101010"/>
<path fill-rule="evenodd" clip-rule="evenodd" d="M13 8.25H16.8C18.374 8.25 19.6709 8.56019 20.5553 9.44464C21.4398 10.3291 21.75 11.626 21.75 13.2V16.8C21.75 18.374 21.4398 19.6709 20.5553 20.5554C19.6709 21.4398 18.374 21.75 16.8 21.75H13.2C11.626 21.75 10.3291 21.4398 9.44468 20.5554C8.5602 19.6709 8.25 18.374 8.25 16.8V12.9866C8.27645 11.5106 8.59647 10.2879 9.44217 9.44217C10.2879 8.59647 11.5106 8.27657 12.9866 8.25012L13 8.25ZM13.0068 9.75C11.6969 9.77438 10.9464 10.0593 10.5028 10.5028C10.0593 10.9464 9.77438 11.6969 9.75 13.0068V16.8C9.75 18.2261 10.0398 19.0292 10.5053 19.4947C10.9709 19.9602 11.774 20.25 13.2 20.25H16.8C18.226 20.25 19.0291 19.9602 19.4947 19.4947C19.9602 19.0292 20.25 18.2261 20.25 16.8V13.2C20.25 11.7739 19.9602 10.9708 19.4947 10.5053C19.0291 10.0398 18.226 9.75 16.8 9.75H13.0068Z" fill="#101010"/>
<path fill-rule="evenodd" clip-rule="evenodd" d="M11.5902 12.1629C11.8316 11.8263 12.3002 11.749 12.6368 11.9904C12.9067 12.1839 13.2639 12.1859 13.5384 11.9995C13.881 11.7668 14.3474 11.8559 14.5802 12.1985C14.8129 12.5412 14.7238 13.0076 14.3812 13.2403C13.5956 13.7739 12.5528 13.7759 11.7627 13.2094C11.4261 12.9681 11.3489 12.4995 11.5902 12.1629Z" fill="#101010"/>
<path fill-rule="evenodd" clip-rule="evenodd" d="M15.5902 12.1629C15.8316 11.8263 16.3002 11.749 16.6368 11.9904C16.9067 12.1839 17.2639 12.1859 17.5384 11.9995C17.881 11.7668 18.3474 11.8559 18.5802 12.1985C18.8129 12.5412 18.7238 13.0076 18.3812 13.2403C17.5956 13.7739 16.5528 13.7759 15.7627 13.2094C15.4261 12.9681 15.3489 12.4995 15.5902 12.1629Z" fill="#101010"/>
<path fill-rule="evenodd" clip-rule="evenodd" d="M13.061 15.9302C13.166 16.9074 13.995 17.6702 14.9998 17.6702C16.0046 17.6702 16.8336 16.9074 16.9386 15.9302H13.061ZM11.5498 15.7201C11.5498 15.0057 12.1257 14.4302 12.8398 14.4302H17.1598C17.8739 14.4302 18.4498 15.0057 18.4498 15.7201C18.4498 17.6243 16.904 19.1702 14.9998 19.1702C13.0956 19.1702 11.5498 17.6243 11.5498 15.7201Z" fill="#101010"/>
</svg>
