<svg width="22" height="21" viewBox="0 0 22 21" fill="none" xmlns="http://www.w3.org/2000/svg">
<path fill-rule="evenodd" clip-rule="evenodd" d="M2.88534 4.2371C2.20538 4.86848 1.75 5.89295 1.75 7.5V14.5C1.75 16.107 2.20538 17.1315 2.88534 17.7629C3.57535 18.4036 4.61497 18.75 6 18.75H16C17.385 18.75 18.4246 18.4036 19.1147 17.7629C19.7946 17.1315 20.25 16.107 20.25 14.5V10.5C20.25 10.0858 20.5858 9.75 21 9.75C21.4142 9.75 21.75 10.0858 21.75 10.5V14.5C21.75 16.393 21.2054 17.8685 20.1353 18.8621C19.0754 19.8464 17.615 20.25 16 20.25H6C4.38503 20.25 2.92465 19.8464 1.86466 18.8621C0.794615 17.8685 0.25 16.393 0.25 14.5V7.5C0.25 5.60705 0.794615 4.13152 1.86466 3.1379C2.92465 2.15363 4.38503 1.75 6 1.75H11C11.4142 1.75 11.75 2.08579 11.75 2.5C11.75 2.91421 11.4142 3.25 11 3.25H6C4.61497 3.25 3.57535 3.59637 2.88534 4.2371Z" fill="#101010"/>
<path fill-rule="evenodd" clip-rule="evenodd" d="M5.41401 7.53193C5.67252 7.20829 6.14444 7.15548 6.46809 7.41398L9.59716 9.91324C9.59732 9.91336 9.597 9.91311 9.59716 9.91324C10.3538 10.5152 11.6565 10.5155 12.4129 9.91324C12.737 9.65525 13.2088 9.70881 13.4668 10.0329C13.7248 10.3569 13.6712 10.8288 13.3472 11.0868C12.0438 12.1244 9.96629 12.1244 8.6629 11.0868L5.53196 8.58601C5.20832 8.32751 5.15551 7.85558 5.41401 7.53193Z" fill="#101010"/>
<path fill-rule="evenodd" clip-rule="evenodd" d="M17.1928 2.15188L16.911 2.72541C16.7758 2.99582 16.5616 3.21769 16.3502 3.37624C16.14 3.5339 15.8651 3.67954 15.5635 3.7298L15.5572 3.73085L15.1806 3.79028C14.8588 3.8444 14.7667 3.94113 14.7466 3.96846C14.7469 4.00233 14.7641 4.13982 15.0023 4.38139L15.3505 4.72965L15.3617 4.74106C15.5832 4.97215 15.723 5.26677 15.7992 5.53526C15.8753 5.80321 15.9113 6.12766 15.8429 6.44027L15.8399 6.45369L15.7904 6.66141C15.7257 6.94102 15.7276 7.12476 15.7461 7.22683C15.7481 7.23751 15.7501 7.24679 15.752 7.2548C15.7587 7.25426 15.7662 7.25348 15.7746 7.25238C15.8741 7.23941 16.0472 7.18594 16.2928 7.03781L16.3054 7.03034L16.5636 6.8814C16.564 6.88117 16.5644 6.88094 16.5648 6.88071C16.8602 6.70952 17.2 6.64499 17.5002 6.64499C17.8004 6.64499 18.1402 6.70953 18.4357 6.88074C18.436 6.88096 18.4364 6.88118 18.4368 6.8814L18.7061 7.03677C18.9491 7.18257 19.1206 7.2353 19.2192 7.24804C19.2281 7.24919 19.236 7.24999 19.243 7.25052C19.2452 7.2422 19.2473 7.23247 19.2495 7.22116C19.2685 7.11973 19.2715 6.93721 19.2094 6.65879L19.1574 6.44029C19.089 6.12769 19.1252 5.80321 19.2012 5.53526C19.2774 5.26677 19.4173 4.97215 19.6387 4.74106L19.6499 4.72965L19.9982 4.38139C20.2363 4.13982 20.2535 4.00233 20.2539 3.96846C20.2337 3.94113 20.1416 3.8444 19.8198 3.79028L19.4432 3.73082C19.4347 3.72948 19.4262 3.72798 19.4177 3.72634C19.1275 3.67016 18.8598 3.53202 18.6473 3.37312C18.4355 3.21469 18.2242 2.99497 18.0894 2.7254L18.087 2.72068L17.8082 2.15294C17.808 2.15259 17.8078 2.15224 17.8076 2.15188C17.7065 1.94799 17.6106 1.83911 17.5478 1.78783C17.5257 1.76983 17.5099 1.76041 17.5002 1.75565C17.4905 1.76041 17.4747 1.76983 17.4527 1.78783C17.3899 1.83911 17.2939 1.94799 17.1928 2.15188ZM17.5002 0.252502C18.2762 0.252502 18.8301 0.836769 19.1523 1.48706L19.1534 1.48932L19.4313 2.05513C19.4316 2.05564 19.4321 2.05651 19.4328 2.05772C19.4341 2.05983 19.4359 2.0628 19.4386 2.06656C19.4439 2.07422 19.4515 2.08418 19.4619 2.09593C19.4832 2.11994 19.5116 2.14646 19.5456 2.17188C19.6141 2.2231 19.672 2.24578 19.6966 2.25225L20.0635 2.31018C20.7687 2.42771 21.4555 2.7925 21.6848 3.51238C21.9133 4.22974 21.568 4.92666 21.0637 5.43711L21.0605 5.44035L20.7201 5.78074C20.7186 5.7826 20.7159 5.78591 20.7124 5.79093C20.7064 5.79947 20.6989 5.81145 20.6906 5.8271C20.6736 5.85911 20.6571 5.89952 20.6442 5.94472C20.6314 5.98995 20.6244 6.03253 20.6221 6.06772C20.6202 6.097 20.6221 6.11366 20.6227 6.11839L20.672 6.32561C20.8411 7.07843 20.8185 7.98069 20.1394 8.47771C19.4585 8.97612 18.5964 8.71883 17.9402 8.32659L17.6854 8.17965L17.6836 8.17859C17.6693 8.1703 17.6046 8.14499 17.5002 8.14499C17.3958 8.14499 17.3311 8.1703 17.3168 8.17859L17.315 8.17965L17.061 8.32616C16.4008 8.72272 15.5343 8.98263 14.8518 8.48023C14.1717 7.97952 14.1552 7.07281 14.3296 6.32058L14.3306 6.31633L14.3777 6.11839C14.3784 6.11366 14.3802 6.097 14.3783 6.06772C14.376 6.03253 14.369 5.98995 14.3562 5.94472C14.3434 5.89952 14.3268 5.85911 14.3099 5.8271C14.3016 5.81145 14.294 5.79947 14.288 5.79093C14.2845 5.78591 14.2819 5.7826 14.2803 5.78074L13.9367 5.43711C13.4324 4.92667 13.0871 4.22974 13.3156 3.51238C13.5449 2.7925 14.2317 2.42774 14.9369 2.3102L14.9432 2.30915L15.3157 2.25037C15.3177 2.2498 15.3305 2.24639 15.3531 2.23577C15.3814 2.22246 15.4153 2.20245 15.4502 2.17626C15.4851 2.15011 15.5149 2.12232 15.5375 2.09691C15.5485 2.08449 15.5566 2.074 15.5621 2.06603C15.5664 2.05989 15.5685 2.05612 15.5692 2.05493L15.8481 1.48706C16.1703 0.836767 16.7242 0.252502 17.5002 0.252502Z" fill="#101010"/>
</svg>
