<svg width="20" height="20" viewBox="0 0 20 20" fill="none" xmlns="http://www.w3.org/2000/svg">
<path fill-rule="evenodd" clip-rule="evenodd" d="M1 5.5C1.41421 5.5 1.75 5.83579 1.75 6.25V13.75C1.75 14.1642 1.41421 14.5 1 14.5C0.585786 14.5 0.25 14.1642 0.25 13.75V6.25C0.25 5.83579 0.585786 5.5 1 5.5Z" fill="#101010"/>
<path fill-rule="evenodd" clip-rule="evenodd" d="M5.5 3C5.91421 3 6.25 3.33579 6.25 3.75V16.25C6.25 16.6642 5.91421 17 5.5 17C5.08579 17 4.75 16.6642 4.75 16.25V3.75C4.75 3.33579 5.08579 3 5.5 3Z" fill="#101010"/>
<path fill-rule="evenodd" clip-rule="evenodd" d="M10 0.5C10.4142 0.5 10.75 0.835786 10.75 1.25V18.75C10.75 19.1642 10.4142 19.5 10 19.5C9.58579 19.5 9.25 19.1642 9.25 18.75V1.25C9.25 0.835786 9.58579 0.5 10 0.5Z" fill="#101010"/>
<path fill-rule="evenodd" clip-rule="evenodd" d="M14.5 3C14.9142 3 15.25 3.33579 15.25 3.75V16.25C15.25 16.6642 14.9142 17 14.5 17C14.0858 17 13.75 16.6642 13.75 16.25V3.75C13.75 3.33579 14.0858 3 14.5 3Z" fill="#101010"/>
<path fill-rule="evenodd" clip-rule="evenodd" d="M19 5.5C19.4142 5.5 19.75 5.83579 19.75 6.25V13.75C19.75 14.1642 19.4142 14.5 19 14.5C18.5858 14.5 18.25 14.1642 18.25 13.75V6.25C18.25 5.83579 18.5858 5.5 19 5.5Z" fill="#101010"/>
</svg>
