<svg width="22" height="22" viewBox="0 0 22 22" fill="none" xmlns="http://www.w3.org/2000/svg">
<path fill-rule="evenodd" clip-rule="evenodd" d="M1.22666 13.2538C1.62218 13.1307 2.04255 13.3516 2.16557 13.7472C3.15535 16.9292 5.82067 19.3804 9.12927 20.055C9.53514 20.1378 9.79706 20.5339 9.7143 20.9398C9.63154 21.3456 9.23544 21.6076 8.82958 21.5248C4.97818 20.7395 1.88349 17.8906 0.733263 14.1927C0.610237 13.7972 0.831139 13.3768 1.22666 13.2538Z" fill="#101010"/>
<path fill-rule="evenodd" clip-rule="evenodd" d="M10.9999 1.75C6.20816 1.75 2.26771 5.38518 1.79607 10.0554C1.75445 10.4675 1.38662 10.7678 0.974502 10.7262C0.562385 10.6846 0.262038 10.3168 0.303657 9.90464C0.852016 4.47482 5.43156 0.25 10.9999 0.25C16.5688 0.25 21.1477 4.48538 21.696 9.90449C21.7377 10.3166 21.4375 10.6845 21.0254 10.7262C20.6133 10.7679 20.2454 10.4676 20.2037 10.0555C19.732 5.39462 15.791 1.75 10.9999 1.75Z" fill="#101010"/>
<path fill-rule="evenodd" clip-rule="evenodd" d="M20.7671 13.3052C21.1618 13.4306 21.3801 13.8524 21.2547 14.2471C20.0833 17.9333 16.9993 20.7497 13.1602 21.5348C12.7543 21.6178 12.3581 21.356 12.2751 20.9502C12.1921 20.5444 12.4538 20.1482 12.8597 20.0652C16.1605 19.3902 18.8165 16.9666 19.8251 13.7928C19.9506 13.3981 20.3723 13.1798 20.7671 13.3052Z" fill="#101010"/>
</svg>
