<svg width="22" height="22" viewBox="0 0 22 22" fill="none" xmlns="http://www.w3.org/2000/svg">
<path fill-rule="evenodd" clip-rule="evenodd" d="M1.84976 12.5779C0.803393 6.23466 6.20444 0.83364 12.5477 1.88005L1.84976 12.5779ZM0.369775 12.8221C-0.843816 5.4654 5.43513 -0.813542 12.7918 0.400048L12.7919 0.400059C17.227 1.13206 20.8053 4.68814 21.5591 9.11412L21.5596 9.11675C21.719 10.0732 21.7632 11.0086 21.6765 11.9303L21.6757 11.9386L21.6757 11.9386C21.6526 12.1574 21.6164 12.3803 21.5524 12.6108C21.484 12.8571 21.2948 13.0516 21.0506 13.1268C20.8063 13.2021 20.5405 13.1477 20.3453 12.9826C19.4364 12.2135 18.2568 11.75 16.9698 11.75C14.074 11.75 11.7198 14.1043 11.7198 17C11.7198 18.287 12.1832 19.4666 12.9523 20.3756C13.1174 20.5707 13.1718 20.8365 13.0965 21.0808C13.0213 21.3251 12.8268 21.5143 12.5805 21.5827C12.35 21.6467 12.1271 21.6829 11.9083 21.7059L11.9001 21.7068L11.9001 21.7067C10.9784 21.7935 10.043 21.7493 9.08647 21.5898L9.08385 21.5894C4.65787 20.8356 1.10178 17.2572 0.369785 12.8222L0.369775 12.8221ZM12.5477 1.88005C16.3521 2.50796 19.4335 5.57121 20.0802 9.36459L12.5477 1.88005ZM20.0802 9.36459C20.1786 9.95528 20.2255 10.5269 20.2197 11.0838C19.2556 10.5523 18.1463 10.25 16.9698 10.25C13.2456 10.25 10.2198 13.2758 10.2198 17C10.2198 18.1766 10.522 19.2859 11.0535 20.2499C10.4966 20.2558 9.92501 20.2088 9.33432 20.1105C5.54095 19.4638 2.47772 16.3824 1.84977 12.578" fill="#101010"/>
<path fill-rule="evenodd" clip-rule="evenodd" d="M16.9697 11.75C14.0739 11.75 11.7197 14.1042 11.7197 17C11.7197 18.0953 12.0554 19.1128 12.6294 19.9519C12.8164 19.8494 12.9904 19.7186 13.1494 19.5597L19.5294 13.1797C19.6884 13.0207 19.8191 12.8467 19.9216 12.6597C19.0825 12.0857 18.065 11.75 16.9697 11.75ZM10.2197 17C10.2197 13.2758 13.2455 10.25 16.9697 10.25C18.6227 10.25 20.1431 10.8466 21.3142 11.8375C21.5393 12.0279 21.6319 12.3326 21.5509 12.616C21.3751 13.2312 21.0482 13.7821 20.5901 14.2403L14.2101 20.6203C13.7519 21.0785 13.2009 21.4054 12.5858 21.5811C12.3023 21.6621 11.9976 21.5695 11.8072 21.3445C10.8163 20.1734 10.2197 18.653 10.2197 17Z" fill="#101010"/>
</svg>
