<svg width="20" height="22" viewBox="0 0 20 22" fill="none" xmlns="http://www.w3.org/2000/svg">
<path fill-rule="evenodd" clip-rule="evenodd" d="M6 0.25C6.41421 0.25 6.75 0.585786 6.75 1V4C6.75 4.41421 6.41421 4.75 6 4.75C5.58579 4.75 5.25 4.41421 5.25 4V1C5.25 0.585786 5.58579 0.25 6 0.25Z" fill="#101010"/>
<path fill-rule="evenodd" clip-rule="evenodd" d="M14 0.25C14.4142 0.25 14.75 0.585786 14.75 1V4C14.75 4.41421 14.4142 4.75 14 4.75C13.5858 4.75 13.25 4.41421 13.25 4V1C13.25 0.585786 13.5858 0.25 14 0.25Z" fill="#101010"/>
<path fill-rule="evenodd" clip-rule="evenodd" d="M4.25 10C4.25 9.58579 4.58579 9.25 5 9.25H13C13.4142 9.25 13.75 9.58579 13.75 10C13.75 10.4142 13.4142 10.75 13 10.75H5C4.58579 10.75 4.25 10.4142 4.25 10Z" fill="#101010"/>
<path fill-rule="evenodd" clip-rule="evenodd" d="M4.25 14C4.25 13.5858 4.58579 13.25 5 13.25H10C10.4142 13.25 10.75 13.5858 10.75 14C10.75 14.4142 10.4142 14.75 10 14.75H5C4.58579 14.75 4.25 14.4142 4.25 14Z" fill="#101010"/>
<path fill-rule="evenodd" clip-rule="evenodd" d="M5.95728 1.75122C5.9715 1.75041 5.98575 1.75 6 1.75H14C14.0135 1.75 14.027 1.75036 14.0405 1.75109C15.7683 1.84449 17.2706 2.22623 18.3065 3.37861C19.3291 4.51622 19.75 6.24345 19.75 8.65V15C19.75 15.4142 19.4142 15.75 19 15.75C18.5858 15.75 18.25 15.4142 18.25 15V8.65C18.25 6.35655 17.8359 5.09878 17.191 4.38139C16.562 3.68169 15.57 3.33837 13.9795 3.25H6.02167C4.43017 3.34331 3.43785 3.68654 2.80868 4.38551C2.16413 5.10158 1.75 6.35661 1.75 8.65V14.82C1.75 16.8692 2.01173 18.1632 2.69659 18.9694C3.35439 19.7438 4.57004 20.25 7 20.25H13C13.4142 20.25 13.75 20.5858 13.75 21C13.75 21.4142 13.4142 21.75 13 21.75H7C4.42996 21.75 2.64561 21.2262 1.55341 19.9406C0.488268 18.6868 0.25 16.8908 0.25 14.82V8.65C0.25 6.24339 0.670873 4.51842 1.69382 3.38198C2.72938 2.23153 4.23109 1.84971 5.95728 1.75122Z" fill="#101010"/>
<path fill-rule="evenodd" clip-rule="evenodd" d="M14.2803 16.2803C13.9706 16.5901 13.75 17.1156 13.75 18V19.1893L17.1893 15.75H16C15.1156 15.75 14.5901 15.9706 14.2803 16.2803ZM13.2197 15.2197C13.9099 14.5294 14.8844 14.25 16 14.25H19C19.3033 14.25 19.5768 14.4327 19.6929 14.713C19.809 14.9932 19.7448 15.3158 19.5303 15.5303L13.5303 21.5303C13.3158 21.7448 12.9932 21.809 12.713 21.6929C12.4327 21.5768 12.25 21.3033 12.25 21V18C12.25 16.8844 12.5294 15.9099 13.2197 15.2197Z" fill="#101010"/>
</svg>
