<svg width="22" height="22" viewBox="0 0 22 22" fill="none" xmlns="http://www.w3.org/2000/svg">
<path fill-rule="evenodd" clip-rule="evenodd" d="M10.9697 1.75C5.86109 1.75 1.71973 5.89137 1.71973 11C1.71973 16.1086 5.86109 20.25 10.9697 20.25C16.0784 20.25 20.2197 16.1086 20.2197 11C20.2197 5.89137 16.0784 1.75 10.9697 1.75ZM0.219727 11C0.219727 5.06294 5.03267 0.25 10.9697 0.25C16.9068 0.25 21.7197 5.06294 21.7197 11C21.7197 16.9371 16.9068 21.75 10.9697 21.75C5.03267 21.75 0.219727 16.9371 0.219727 11Z" fill="#101010"/>
<path fill-rule="evenodd" clip-rule="evenodd" d="M6.9235 6.92914C7.608 6.24284 8.59527 6.02002 9.72953 6.02002H12.2695C13.3978 6.02002 14.3845 6.23991 15.0704 6.92399C15.7567 7.60848 15.9795 8.59576 15.9795 9.73002V12.27C15.9795 13.3983 15.7596 14.385 15.0756 15.0709C14.3911 15.7572 13.4038 15.98 12.2695 15.98H9.72953C8.59927 15.98 7.61312 15.7568 6.92795 15.0716C6.24278 14.3864 6.01953 13.4003 6.01953 12.27V9.73002C6.01953 8.60177 6.23943 7.61502 6.9235 6.92914ZM7.98556 7.9884C7.71964 8.25502 7.51953 8.74827 7.51953 9.73002V12.27C7.51953 13.2498 7.72128 13.7436 7.98861 14.0109C8.25594 14.2783 8.7498 14.48 9.72953 14.48H12.2695C13.2553 14.48 13.748 14.2778 14.0135 14.0116C14.2794 13.745 14.4795 13.2518 14.4795 12.27V9.73002C14.4795 8.74428 14.2774 8.25155 14.0111 7.98605C13.7445 7.72012 13.2513 7.52002 12.2695 7.52002H9.72953C8.74379 7.52002 8.25107 7.7222 7.98556 7.9884Z" fill="#101010"/>
</svg>
