<svg width="22" height="22" viewBox="0 0 22 22" fill="none" xmlns="http://www.w3.org/2000/svg">
<path fill-rule="evenodd" clip-rule="evenodd" d="M2.09467 2.09467C3.42914 0.760201 5.42603 0.25 8 0.25H14C16.574 0.25 18.5709 0.760201 19.9053 2.09467C21.2398 3.42914 21.75 5.42603 21.75 8V14C21.75 16.574 21.2398 18.5709 19.9053 19.9053C18.5709 21.2398 16.574 21.75 14 21.75H8C5.42603 21.75 3.42914 21.2398 2.09467 19.9053C0.760201 18.5709 0.25 16.574 0.25 14V8C0.25 5.42603 0.760201 3.42914 2.09467 2.09467ZM3.15533 3.15533C2.2398 4.07086 1.75 5.57397 1.75 8V14C1.75 16.426 2.2398 17.9291 3.15533 18.8447C4.07086 19.7602 5.57397 20.25 8 20.25H14C16.426 20.25 17.9291 19.7602 18.8447 18.8447C19.7602 17.9291 20.25 16.426 20.25 14V8C20.25 5.57397 19.7602 4.07086 18.8447 3.15533C17.9291 2.2398 16.426 1.75 14 1.75H8C5.57397 1.75 4.07086 2.2398 3.15533 3.15533Z" fill="#101010"/>
<path fill-rule="evenodd" clip-rule="evenodd" d="M4.21967 4.21967C4.90993 3.52941 5.88439 3.25 7 3.25H15C16.1156 3.25 17.0901 3.52941 17.7803 4.21967C18.4706 4.90993 18.75 5.88439 18.75 7V15C18.75 16.1156 18.4706 17.0901 17.7803 17.7803C17.0901 18.4706 16.1156 18.75 15 18.75H7C5.88439 18.75 4.90993 18.4706 4.21967 17.7803C3.52941 17.0901 3.25 16.1156 3.25 15V7C3.25 5.88439 3.52941 4.90993 4.21967 4.21967ZM5.28033 5.28033C4.97059 5.59007 4.75 6.11561 4.75 7V15C4.75 15.8844 4.97059 16.4099 5.28033 16.7197C5.59007 17.0294 6.11561 17.25 7 17.25H15C15.8844 17.25 16.4099 17.0294 16.7197 16.7197C17.0294 16.4099 17.25 15.8844 17.25 15V7C17.25 6.11561 17.0294 5.59007 16.7197 5.28033C16.4099 4.97059 15.8844 4.75 15 4.75H7C6.11561 4.75 5.59007 4.97059 5.28033 5.28033Z" fill="#101010"/>
<path fill-rule="evenodd" clip-rule="evenodd" d="M3.25 8.5C3.25 8.08579 3.58579 7.75 4 7.75H6.48C8.27421 7.75 9.73 9.20579 9.73 11C9.73 12.7942 8.27421 14.25 6.48 14.25H4C3.58579 14.25 3.25 13.9142 3.25 13.5C3.25 13.0858 3.58579 12.75 4 12.75H6.48C7.44578 12.75 8.23 11.9658 8.23 11C8.23 10.0342 7.44578 9.25 6.48 9.25H4C3.58579 9.25 3.25 8.91421 3.25 8.5Z" fill="#101010"/>
<path fill-rule="evenodd" clip-rule="evenodd" d="M14.25 8.98999C14.25 8.57578 14.5858 8.23999 15 8.23999H18C18.4142 8.23999 18.75 8.57578 18.75 8.98999C18.75 9.4042 18.4142 9.73999 18 9.73999H15C14.5858 9.73999 14.25 9.4042 14.25 8.98999Z" fill="#101010"/>
<path fill-rule="evenodd" clip-rule="evenodd" d="M14.25 13C14.25 12.5858 14.5858 12.25 15 12.25H18C18.4142 12.25 18.75 12.5858 18.75 13C18.75 13.4142 18.4142 13.75 18 13.75H15C14.5858 13.75 14.25 13.4142 14.25 13Z" fill="#101010"/>
<path fill-rule="evenodd" clip-rule="evenodd" d="M5.2002 11C5.2002 10.4477 5.64791 10 6.2002 10H6.3002C6.85248 10 7.3002 10.4477 7.3002 11C7.3002 11.5523 6.85248 12 6.3002 12H6.2002C5.64791 12 5.2002 11.5523 5.2002 11Z" fill="#101010"/>
</svg>
