<svg width="22" height="22" viewBox="0 0 22 22" fill="none" xmlns="http://www.w3.org/2000/svg">
<path fill-rule="evenodd" clip-rule="evenodd" d="M2.09467 2.09467C3.42914 0.760201 5.42603 0.25 8 0.25H14C16.574 0.25 18.5709 0.760201 19.9053 2.09467C21.2398 3.42914 21.75 5.42603 21.75 8V14C21.75 16.574 21.2398 18.5709 19.9053 19.9053C18.5709 21.2398 16.574 21.75 14 21.75H8C5.42603 21.75 3.42914 21.2398 2.09467 19.9053C0.760201 18.5709 0.25 16.574 0.25 14V8C0.25 5.42603 0.760201 3.42914 2.09467 2.09467ZM3.15533 3.15533C2.2398 4.07086 1.75 5.57397 1.75 8V14C1.75 16.426 2.2398 17.9291 3.15533 18.8447C4.07086 19.7602 5.57397 20.25 8 20.25H14C16.426 20.25 17.9291 19.7602 18.8447 18.8447C19.7602 17.9291 20.25 16.426 20.25 14V8C20.25 5.57397 19.7602 4.07086 18.8447 3.15533C17.9291 2.2398 16.426 1.75 14 1.75H8C5.57397 1.75 4.07086 2.2398 3.15533 3.15533Z" fill="#101010"/>
<path fill-rule="evenodd" clip-rule="evenodd" d="M13.9004 16.08C13.9004 15.6657 14.2362 15.33 14.6504 15.33H16.5004C16.9146 15.33 17.2504 15.6657 17.2504 16.08C17.2504 16.4942 16.9146 16.83 16.5004 16.83H14.6504C14.2362 16.83 13.9004 16.4942 13.9004 16.08Z" fill="#101010"/>
<path fill-rule="evenodd" clip-rule="evenodd" d="M4.75 16.08C4.75 15.6657 5.08579 15.33 5.5 15.33H11.97C12.3842 15.33 12.72 15.6657 12.72 16.08C12.72 16.4942 12.3842 16.83 11.97 16.83H5.5C5.08579 16.83 4.75 16.4942 4.75 16.08Z" fill="#101010"/>
<path fill-rule="evenodd" clip-rule="evenodd" d="M10.2197 12.3199C10.2197 11.9057 10.5555 11.5699 10.9697 11.5699H16.4997C16.9139 11.5699 17.2497 11.9057 17.2497 12.3199C17.2497 12.7342 16.9139 13.0699 16.4997 13.0699H10.9697C10.5555 13.0699 10.2197 12.7342 10.2197 12.3199Z" fill="#101010"/>
<path fill-rule="evenodd" clip-rule="evenodd" d="M4.75 12.3199C4.75 11.9057 5.08579 11.5699 5.5 11.5699H8.27C8.68421 11.5699 9.02 11.9057 9.02 12.3199C9.02 12.7342 8.68421 13.0699 8.27 13.0699H5.5C5.08579 13.0699 4.75 12.7342 4.75 12.3199Z" fill="#101010"/>
</svg>
