<svg width="20" height="20" viewBox="0 0 20 20" fill="none" xmlns="http://www.w3.org/2000/svg">
<path fill-rule="evenodd" clip-rule="evenodd" d="M10 0.25C10.4142 0.25 10.75 0.585786 10.75 1V6.5C10.75 6.91421 10.4142 7.25 10 7.25C9.58579 7.25 9.25 6.91421 9.25 6.5V1C9.25 0.585786 9.58579 0.25 10 0.25Z" fill="#101010"/>
<path fill-rule="evenodd" clip-rule="evenodd" d="M10 12.75C10.4142 12.75 10.75 13.0858 10.75 13.5V19C10.75 19.4142 10.4142 19.75 10 19.75C9.58579 19.75 9.25 19.4142 9.25 19V13.5C9.25 13.0858 9.58579 12.75 10 12.75Z" fill="#101010"/>
<path fill-rule="evenodd" clip-rule="evenodd" d="M7.25 1C7.25 0.585786 7.58579 0.25 8 0.25H12C12.4142 0.25 12.75 0.585786 12.75 1C12.75 1.41421 12.4142 1.75 12 1.75H8C7.58579 1.75 7.25 1.41421 7.25 1Z" fill="#101010"/>
<path fill-rule="evenodd" clip-rule="evenodd" d="M7.25 19C7.25 18.5858 7.58579 18.25 8 18.25H12C12.4142 18.25 12.75 18.5858 12.75 19C12.75 19.4142 12.4142 19.75 12 19.75H8C7.58579 19.75 7.25 19.4142 7.25 19Z" fill="#101010"/>
<path fill-rule="evenodd" clip-rule="evenodd" d="M1.56067 5.12482C1.76788 4.76616 2.22661 4.64338 2.58527 4.85059L7.34527 7.60059C7.70393 7.8078 7.82671 8.26653 7.6195 8.62519C7.41229 8.98385 6.95356 9.10662 6.5949 8.89942L1.8349 6.14941C1.47624 5.94221 1.35346 5.48348 1.56067 5.12482Z" fill="#101010"/>
<path fill-rule="evenodd" clip-rule="evenodd" d="M12.381 11.3748C12.5882 11.0162 13.0469 10.8934 13.4056 11.1006L18.1656 13.8506C18.5242 14.0578 18.647 14.5165 18.4398 14.8752C18.2326 15.2338 17.7739 15.3566 17.4152 15.1494L12.6552 12.3994C12.2966 12.1922 12.1738 11.7335 12.381 11.3748Z" fill="#101010"/>
<path fill-rule="evenodd" clip-rule="evenodd" d="M3.58542 3.1207C3.94403 3.32799 4.0667 3.78674 3.85941 4.14536L1.85941 7.60535C1.65212 7.96396 1.19336 8.08663 0.834752 7.87934C0.476139 7.67205 0.353468 7.21329 0.56076 6.85468L2.56076 3.39469C2.76805 3.03608 3.22681 2.9134 3.58542 3.1207Z" fill="#101010"/>
<path fill-rule="evenodd" clip-rule="evenodd" d="M19.1655 12.1207C19.5241 12.328 19.6468 12.7867 19.4395 13.1454L17.4395 16.6053C17.2322 16.964 16.7734 17.0866 16.4148 16.8793C16.0562 16.672 15.9335 16.2133 16.1408 15.8547L18.1408 12.3947C18.3481 12.0361 18.8069 11.9134 19.1655 12.1207Z" fill="#101010"/>
<path fill-rule="evenodd" clip-rule="evenodd" d="M7.61906 8.6258C7.38238 9.03641 7.25 9.49745 7.25 10C7.25 10.5026 7.3824 10.9636 7.61909 11.3743C8.10083 12.2027 8.98907 12.75 10 12.75C11.0109 12.75 11.8992 12.2027 12.3809 11.3743C12.6176 10.9636 12.75 10.5026 12.75 10C12.75 9.49745 12.6176 9.03641 12.3809 8.6258C11.8992 7.79733 11.011 7.25 10 7.25C8.98905 7.25 8.10079 7.79733 7.61906 8.6258ZM6.3215 7.87325C7.05989 6.60225 8.43134 5.75 10 5.75C11.5687 5.75 12.9401 6.60225 13.6785 7.87325L13.6796 7.87521C14.0426 8.50434 14.25 9.22296 14.25 10C14.25 10.777 14.0426 11.4957 13.6796 12.1248L13.6785 12.1268C12.9401 13.3978 11.5687 14.25 10 14.25C8.43134 14.25 7.05989 13.3978 6.3215 12.1268L6.32036 12.1248C5.9574 11.4957 5.75 10.777 5.75 10C5.75 9.22296 5.9574 8.50434 6.32036 7.87521L6.32149 7.87325L6.3215 7.87325Z" fill="#101010"/>
<path fill-rule="evenodd" clip-rule="evenodd" d="M18.4398 5.12482C18.647 5.48348 18.5242 5.94221 18.1656 6.14941L13.4056 8.89942C13.0469 9.10662 12.5882 8.98385 12.381 8.62519C12.1738 8.26653 12.2966 7.8078 12.6552 7.60059L17.4152 4.85059C17.7739 4.64338 18.2326 4.76616 18.4398 5.12482Z" fill="#101010"/>
<path fill-rule="evenodd" clip-rule="evenodd" d="M7.6195 11.3748C7.82671 11.7335 7.70393 12.1922 7.34527 12.3994L2.58527 15.1494C2.22661 15.3566 1.76788 15.2338 1.56067 14.8752C1.35346 14.5165 1.47624 14.0578 1.8349 13.8506L6.5949 11.1006C6.95356 10.8934 7.41229 11.0162 7.6195 11.3748Z" fill="#101010"/>
<path fill-rule="evenodd" clip-rule="evenodd" d="M16.4148 3.1207C16.7734 2.9134 17.2322 3.03608 17.4395 3.39469L19.4395 6.85468C19.6468 7.21329 19.5241 7.67205 19.1655 7.87934C18.8069 8.08663 18.3481 7.96396 18.1408 7.60535L16.1408 4.14536C15.9335 3.78674 16.0562 3.32799 16.4148 3.1207Z" fill="#101010"/>
<path fill-rule="evenodd" clip-rule="evenodd" d="M0.834752 12.1207C1.19336 11.9134 1.65212 12.0361 1.85941 12.3947L3.85941 15.8547C4.0667 16.2133 3.94403 16.672 3.58542 16.8793C3.22681 17.0866 2.76805 16.964 2.56076 16.6053L0.56076 13.1454C0.353468 12.7867 0.476139 12.328 0.834752 12.1207Z" fill="#101010"/>
</svg>
