<svg width="22" height="21" viewBox="0 0 22 21" fill="none" xmlns="http://www.w3.org/2000/svg">
<path fill-rule="evenodd" clip-rule="evenodd" d="M3.75 11C3.75 6.99579 6.99579 3.75 11 3.75C15.0042 3.75 18.25 6.99579 18.25 11C18.25 11.4142 17.9142 11.75 17.5 11.75C17.0858 11.75 16.75 11.4142 16.75 11C16.75 7.82421 14.1758 5.25 11 5.25C7.82421 5.25 5.25 7.82421 5.25 11C5.25 11.4142 4.91421 11.75 4.5 11.75C4.08579 11.75 3.75 11.4142 3.75 11Z" fill="#101010"/>
<path fill-rule="evenodd" clip-rule="evenodd" d="M11 0C11.5523 0 12 0.447715 12 1V1.07999C12 1.63227 11.5523 2.07999 11 2.07999C10.4477 2.07999 10 1.63227 10 1.07999V1C10 0.447715 10.4477 0 11 0ZM3.15288 3.15288C3.5434 2.76235 4.17657 2.76235 4.56709 3.15288L4.6971 3.28288C5.08762 3.67341 5.08762 4.30657 4.6971 4.6971C4.30657 5.08762 3.67341 5.08762 3.28288 4.6971L3.15288 4.56709C2.76235 4.17657 2.76235 3.5434 3.15288 3.15288ZM18.8471 3.15288C19.2376 3.5434 19.2376 4.17657 18.8471 4.56709L18.7171 4.6971C18.3266 5.08762 17.6934 5.08762 17.3029 4.6971C16.9124 4.30657 16.9124 3.67341 17.3029 3.28288L17.4329 3.15288C17.8234 2.76235 18.4566 2.76235 18.8471 3.15288ZM0 11C0 10.4477 0.447715 10 1 10H1.08002C1.6323 10 2.08002 10.4477 2.08002 11C2.08002 11.5523 1.6323 12 1.08002 12H1C0.447715 12 0 11.5523 0 11ZM19.92 11C19.92 10.4477 20.3677 10 20.92 10H21C21.5523 10 22 10.4477 22 11C22 11.5523 21.5523 12 21 12H20.92C20.3677 12 19.92 11.5523 19.92 11Z" fill="#101010"/>
<path fill-rule="evenodd" clip-rule="evenodd" d="M2.25 14C2.25 13.5858 2.58579 13.25 3 13.25H19C19.4142 13.25 19.75 13.5858 19.75 14C19.75 14.4142 19.4142 14.75 19 14.75H3C2.58579 14.75 2.25 14.4142 2.25 14Z" fill="#101010"/>
<path fill-rule="evenodd" clip-rule="evenodd" d="M4.25 17C4.25 16.5858 4.58579 16.25 5 16.25H17C17.4142 16.25 17.75 16.5858 17.75 17C17.75 17.4142 17.4142 17.75 17 17.75H5C4.58579 17.75 4.25 17.4142 4.25 17Z" fill="#101010"/>
<path fill-rule="evenodd" clip-rule="evenodd" d="M7.25 20C7.25 19.5858 7.58579 19.25 8 19.25H14C14.4142 19.25 14.75 19.5858 14.75 20C14.75 20.4142 14.4142 20.75 14 20.75H8C7.58579 20.75 7.25 20.4142 7.25 20Z" fill="#101010"/>
</svg>
