<svg width="20" height="22" viewBox="0 0 20 22" fill="none" xmlns="http://www.w3.org/2000/svg">
<path fill-rule="evenodd" clip-rule="evenodd" d="M4 1.75C2.74765 1.75 1.75 2.75075 1.75 3.97V14.89C1.75 16.1093 2.74765 17.11 4 17.11H4.75C5.73269 17.11 6.69443 17.4946 7.39878 18.1981C7.3993 18.1986 7.39981 18.1992 7.40033 18.1997L9.10691 19.8863C9.59482 20.3679 10.3952 20.3679 10.8831 19.8863L12.5897 18.1997C12.5902 18.1991 12.5907 18.1986 12.5912 18.1981C13.2947 17.4955 14.246 17.11 15.24 17.11H16C17.2491 17.11 18.25 16.1025 18.25 14.88V3.97C18.25 2.75075 17.2523 1.75 16 1.75H4ZM0.25 3.97C0.25 1.90925 1.93235 0.25 4 0.25H16C18.0677 0.25 19.75 1.90925 19.75 3.97V14.88C19.75 16.9375 18.0709 18.61 16 18.61H15.24C14.6347 18.61 14.0667 18.8439 13.6503 19.2603L13.6472 19.2634L11.9372 20.9534L11.9369 20.9537C10.8648 22.0121 9.12521 22.0121 8.05312 20.9537L8.05282 20.9534L6.3428 19.2634L6.33966 19.2603C5.92416 18.8448 5.34659 18.61 4.75 18.61H4C1.93235 18.61 0.25 16.9507 0.25 14.89V3.97Z" fill="#101010"/>
<path fill-rule="evenodd" clip-rule="evenodd" d="M9.99005 4.80005C9.32426 4.80005 8.79004 5.33427 8.79004 6.00005C8.79004 6.64897 9.2911 7.16903 9.93598 7.20005H10.0575C10.6933 7.17693 11.1962 6.65667 11.1901 6.00712L11.19 6.00005C11.19 5.34176 10.6533 4.80005 9.99005 4.80005ZM7.29004 6.00005C7.29004 4.50583 8.49584 3.30005 9.99005 3.30005C11.4856 3.30005 12.6881 4.51639 12.6901 5.99651C12.702 7.46215 11.5501 8.65807 10.0915 8.69974C10.0844 8.69995 10.0772 8.70005 10.0701 8.70005H9.92034C9.91082 8.70005 9.90101 8.69987 9.89149 8.6995C8.44244 8.6443 7.29004 7.46691 7.29004 6.00005Z" fill="#101010"/>
<path fill-rule="evenodd" clip-rule="evenodd" d="M10.0042 9.46008C11.1134 9.46008 12.2609 9.73635 13.1645 10.3348L13.1675 10.3368L13.1675 10.3368C13.9879 10.8858 14.4979 11.6825 14.4979 12.5751C14.4979 13.4677 13.9879 14.2644 13.1675 14.8134L13.1674 14.8135C12.2631 15.4184 11.1118 15.6976 10.0004 15.6976C8.8891 15.6976 7.7378 15.4184 6.83345 14.8135L6.83332 14.8134C6.01292 14.2644 5.50293 13.4677 5.50293 12.5751C5.50293 11.6825 6.01292 10.8858 6.83332 10.3368L6.8382 10.3335L6.83822 10.3335C7.7458 9.73642 8.8948 9.46008 10.0042 9.46008ZM7.66512 11.585C7.15745 11.9256 7.00293 12.2981 7.00293 12.5751C7.00293 12.8524 7.15791 13.2257 7.66741 13.5667M7.66512 11.585C8.27733 11.1831 9.12225 10.9601 10.0042 10.9601C10.8868 10.9601 11.7285 11.1834 12.3348 11.5844C12.8432 11.9251 12.9979 12.298 12.9979 12.5751C12.9979 12.8524 12.8429 13.2257 12.3335 13.5667M12.3333 13.5668C11.7277 13.9718 10.884 14.1976 10.0004 14.1976L12.3333 13.5668ZM10.0004 14.1976C9.11682 14.1976 8.27318 13.9718 7.66754 13.5668L10.0004 14.1976Z" fill="#101010"/>
</svg>
