<svg width="22" height="18" viewBox="0 0 22 18" fill="none" xmlns="http://www.w3.org/2000/svg">
<path fill-rule="evenodd" clip-rule="evenodd" d="M5.02472 1.88603C6.11768 0.678468 7.6598 0 9.28016 0H16.0002C19.1744 0 21.7502 2.57579 21.7502 5.75V12.25C21.7502 15.4242 19.1744 18 16.0002 18H9.28016C7.65976 18 6.1176 17.3215 5.02463 16.1139C5.02442 16.1136 5.02484 16.1141 5.02463 16.1139L1.4954 12.2347C-0.174877 10.3986 -0.174909 7.60144 1.49537 5.76532L5.02401 1.88681C5.02424 1.88655 5.02448 1.88629 5.02472 1.88603ZM9.28016 1.5C8.08087 1.5 6.94331 2.00124 6.13631 2.89318L6.13492 2.89472L2.60495 6.77468C2.60494 6.77469 2.60496 6.77467 2.60495 6.77468C1.45527 8.03855 1.45524 9.96141 2.60492 11.2253C2.60493 11.2253 2.60491 11.2253 2.60492 11.2253L6.13631 15.1068C6.94331 15.9988 8.08087 16.5 9.28016 16.5H16.0002C18.3459 16.5 20.2502 14.5958 20.2502 12.25V5.75C20.2502 3.40421 18.3459 1.5 16.0002 1.5H9.28016Z" fill="#101010"/>
<path fill-rule="evenodd" clip-rule="evenodd" d="M9.52973 5.9997C9.82262 5.70681 10.2975 5.70681 10.5904 5.9997L15.5304 10.9397C15.8233 11.2326 15.8233 11.7075 15.5304 12.0004C15.2375 12.2933 14.7626 12.2933 14.4697 12.0004L9.52973 7.06036C9.23684 6.76747 9.23684 6.29259 9.52973 5.9997Z" fill="#101010"/>
<path fill-rule="evenodd" clip-rule="evenodd" d="M15.5304 5.9997C15.8233 6.29259 15.8233 6.76747 15.5304 7.06036L10.5904 12.0004C10.2975 12.2933 9.82262 12.2933 9.52973 12.0004C9.23684 11.7075 9.23684 11.2326 9.52973 10.9397L14.4697 5.9997C14.7626 5.70681 15.2375 5.70681 15.5304 5.9997Z" fill="#101010"/>
</svg>
