<svg width="20" height="20" viewBox="0 0 20 20" fill="none" xmlns="http://www.w3.org/2000/svg">
<path fill-rule="evenodd" clip-rule="evenodd" d="M13.8307 1.63972C13.8309 1.63992 13.8305 1.63951 13.8307 1.63972L18.3721 6.16113C20.5223 8.32292 20.5244 11.8167 18.3707 13.9704L13.9807 18.3604L13.9793 18.3618C11.8175 20.512 8.32373 20.5141 6.17005 18.3604L1.64005 13.8304C0.541073 12.7314 -0.0482149 11.2168 0.0211214 9.65674L0.0212443 9.65409L0.261325 4.65241C0.380659 2.27766 2.27885 0.378854 4.66548 0.270858C4.66588 0.27084 4.66627 0.270822 4.66667 0.270805L9.66126 0.0310677C9.6618 0.0310391 9.66235 0.0310106 9.6629 0.0309822C11.2171 -0.0497364 12.7329 0.542256 13.8307 1.63972ZM12.7701 2.70038C11.9683 1.89861 10.8644 1.47026 9.73951 1.52903L9.73634 1.52918L4.73634 1.76918L4.7341 1.76929C3.12155 1.84185 1.8405 3.12241 1.75948 4.72691C1.75946 4.72717 1.75949 4.72665 1.75948 4.72691L1.51964 9.72335C1.51962 9.72377 1.5196 9.72419 1.51959 9.72461C1.4693 10.8641 1.89999 11.969 2.70071 12.7697L7.23071 17.2997C8.79681 18.8658 11.3425 18.8681 12.9208 17.299C12.921 17.2987 12.9206 17.2992 12.9208 17.299L17.3101 12.9097C18.876 11.3438 18.8784 8.79849 17.3098 7.22017C17.3094 7.21977 17.309 7.21936 17.3086 7.21895L12.7712 2.70155L12.7701 2.70038Z" fill="#101010"/>
<path fill-rule="evenodd" clip-rule="evenodd" d="M7.50049 5.75006C6.53399 5.75006 5.75049 6.53356 5.75049 7.50006C5.75049 8.46656 6.53399 9.25006 7.50049 9.25006C8.46699 9.25006 9.25049 8.46656 9.25049 7.50006C9.25049 6.53356 8.46699 5.75006 7.50049 5.75006ZM4.25049 7.50006C4.25049 5.70514 5.70556 4.25006 7.50049 4.25006C9.29541 4.25006 10.7505 5.70514 10.7505 7.50006C10.7505 9.29499 9.29541 10.7501 7.50049 10.7501C5.70556 10.7501 4.25049 9.29499 4.25049 7.50006Z" fill="#101010"/>
</svg>
