<svg width="22" height="22" viewBox="0 0 22 22" fill="none" xmlns="http://www.w3.org/2000/svg">
<path fill-rule="evenodd" clip-rule="evenodd" d="M13.4031 0.914374C13.4039 0.914915 13.4047 0.915456 13.4056 0.915998L19.3909 4.84295C21.7623 6.39915 21.7624 9.87088 19.391 11.4271L13.4015 15.3567C13.4014 15.3568 13.4016 15.3567 13.4015 15.3567C12.7126 15.8095 11.8453 16.0125 11.0195 16.0125C10.194 16.0125 9.32734 15.8099 8.63853 15.3574C8.63819 15.3572 8.63786 15.357 8.63753 15.3567L2.61954 11.4281C0.236203 9.8721 0.236192 6.38798 2.61953 4.83202L8.63753 0.903333C8.63787 0.903109 8.63821 0.902884 8.63855 0.90266C9.3274 0.450166 10.1944 0.247342 11.0208 0.248787C11.8468 0.250231 12.714 0.455839 13.4031 0.914374ZM11.0182 1.74878C10.4151 1.74773 9.85251 1.8997 9.46152 2.15674L9.45951 2.15806L3.43952 6.08805C3.43952 6.08805 3.43953 6.08805 3.43952 6.08805C1.96287 7.05209 1.96286 9.20797 3.43951 10.172C3.43952 10.172 3.43951 10.172 3.43951 10.172L9.46153 14.1033C9.85255 14.3604 10.4155 14.5125 11.0195 14.5125C11.6236 14.5125 12.1865 14.3604 12.5775 14.1033L18.568 10.173C18.5681 10.173 18.568 10.173 18.568 10.173C20.0366 9.20919 20.0367 7.06093 18.5681 6.09712C18.5681 6.0971 18.5681 6.09713 18.5681 6.09712L12.5735 2.16409C12.183 1.90376 11.6213 1.74984 11.0182 1.74878Z" fill="#101010"/>
<path fill-rule="evenodd" clip-rule="evenodd" d="M4.63074 11.3301C5.04495 11.331 5.38002 11.6675 5.37914 12.0817L5.36914 16.7701C5.36914 16.7703 5.36914 16.7698 5.36914 16.7701C5.36933 17.2191 5.54666 17.727 5.86784 18.1732C6.18921 18.6196 6.61308 18.9474 7.03605 19.0885C7.03613 19.0885 7.03596 19.0884 7.03605 19.0885L10.2224 20.1473C10.2229 20.1474 10.2233 20.1476 10.2237 20.1477C10.3992 20.2049 10.6788 20.2451 10.9954 20.2451C11.3104 20.2451 11.5936 20.2053 11.7766 20.147L14.962 19.0886C14.962 19.0885 14.9619 19.0886 14.962 19.0886C15.385 18.9475 15.8091 18.6197 16.1304 18.1732C16.4518 17.7267 16.6291 17.2193 16.6291 16.7701V12.1301C16.6291 11.7159 16.9649 11.3801 17.3791 11.3801C17.7934 11.3801 18.1291 11.7159 18.1291 12.1301V16.7701C18.1291 17.5909 17.8165 18.3984 17.3478 19.0495C16.8793 19.7004 16.2133 20.2526 15.4363 20.5116L12.2387 21.5741C11.8616 21.6953 11.4112 21.7451 10.9954 21.7451C10.5803 21.7451 10.1304 21.6955 9.75586 21.5729L9.75264 21.5718L6.56264 20.5118C5.78569 20.2528 5.119 19.7004 4.65044 19.0495C4.18179 18.3984 3.86914 17.5909 3.86914 16.7701L3.86914 16.7685L3.87914 12.0785C3.88003 11.6643 4.21653 11.3292 4.63074 11.3301Z" fill="#101010"/>
<path fill-rule="evenodd" clip-rule="evenodd" d="M20.4004 7.25C20.8146 7.25 21.1504 7.58579 21.1504 8V14C21.1504 14.4142 20.8146 14.75 20.4004 14.75C19.9862 14.75 19.6504 14.4142 19.6504 14V8C19.6504 7.58579 19.9862 7.25 20.4004 7.25Z" fill="#101010"/>
</svg>
