<svg width="22" height="22" viewBox="0 0 22 22" fill="none" xmlns="http://www.w3.org/2000/svg">
<path fill-rule="evenodd" clip-rule="evenodd" d="M2.09662 2.09467C3.43109 0.760201 5.42798 0.25 8.00195 0.25H14.002C16.5759 0.25 18.5728 0.760201 19.9073 2.09467C21.2418 3.42914 21.752 5.42603 21.752 8V14C21.752 16.574 21.2418 18.5709 19.9073 19.9053C18.5728 21.2398 16.5759 21.75 14.002 21.75H8.00195C5.42798 21.75 3.43109 21.2398 2.09662 19.9053C0.762154 18.5709 0.251953 16.574 0.251953 14V8C0.251953 5.42603 0.762154 3.42914 2.09662 2.09467ZM3.15728 3.15533C2.24175 4.07086 1.75195 5.57397 1.75195 8V14C1.75195 16.426 2.24175 17.9291 3.15728 18.8447C4.07281 19.7602 5.57593 20.25 8.00195 20.25H14.002C16.428 20.25 17.9311 19.7602 18.8466 18.8447C19.7622 17.9291 20.252 16.426 20.252 14V8C20.252 5.57397 19.7622 4.07086 18.8466 3.15533C17.9311 2.2398 16.428 1.75 14.002 1.75H8.00195C5.57593 1.75 4.07281 2.2398 3.15728 3.15533Z" fill="#101010"/>
<path fill-rule="evenodd" clip-rule="evenodd" d="M15.6676 8.56127C12.7282 7.09628 9.276 7.09628 6.33668 8.56127C5.96596 8.74604 5.51564 8.5953 5.33087 8.22458C5.1461 7.85386 5.29684 7.40355 5.66756 7.21878C9.02824 5.54377 12.976 5.54377 16.3367 7.21878C16.7074 7.40355 16.8581 7.85386 16.6734 8.22458C16.4886 8.5953 16.0383 8.74604 15.6676 8.56127Z" fill="#101010"/>
<path fill-rule="evenodd" clip-rule="evenodd" d="M11.002 6.18005C11.4162 6.18005 11.752 6.51584 11.752 6.93005V15.3001C11.752 15.7143 11.4162 16.0501 11.002 16.0501C10.5877 16.0501 10.252 15.7143 10.252 15.3001V6.93005C10.252 6.51584 10.5877 6.18005 11.002 6.18005Z" fill="#101010"/>
</svg>
