<svg width="20" height="18" viewBox="0 0 20 18" fill="none" xmlns="http://www.w3.org/2000/svg">
<path fill-rule="evenodd" clip-rule="evenodd" d="M0.251953 1.5C0.251953 1.08579 0.58774 0.75 1.00195 0.75H19.002C19.4162 0.75 19.752 1.08579 19.752 1.5C19.752 1.91421 19.4162 2.25 19.002 2.25H1.00195C0.58774 2.25 0.251953 1.91421 0.251953 1.5Z" fill="#101010"/>
<path fill-rule="evenodd" clip-rule="evenodd" d="M8.78223 6.5C8.78223 6.08579 9.11801 5.75 9.53223 5.75H19.0022C19.4164 5.75 19.7522 6.08579 19.7522 6.5C19.7522 6.91421 19.4164 7.25 19.0022 7.25H9.53223C9.11801 7.25 8.78223 6.91421 8.78223 6.5Z" fill="#101010"/>
<path fill-rule="evenodd" clip-rule="evenodd" d="M0.251953 11.5C0.251953 11.0858 0.58774 10.75 1.00195 10.75H19.002C19.4162 10.75 19.752 11.0858 19.752 11.5C19.752 11.9142 19.4162 12.25 19.002 12.25H1.00195C0.58774 12.25 0.251953 11.9142 0.251953 11.5Z" fill="#101010"/>
<path fill-rule="evenodd" clip-rule="evenodd" d="M8.78223 16.5C8.78223 16.0858 9.11801 15.75 9.53223 15.75H19.0022C19.4164 15.75 19.7522 16.0858 19.7522 16.5C19.7522 16.9142 19.4164 17.25 19.0022 17.25H9.53223C9.11801 17.25 8.78223 16.9142 8.78223 16.5Z" fill="#101010"/>
</svg>
