<svg width="20" height="18" viewBox="0 0 20 18" fill="none" xmlns="http://www.w3.org/2000/svg">
<path fill-rule="evenodd" clip-rule="evenodd" d="M0.251953 1.5C0.251953 1.08579 0.58774 0.75 1.00195 0.75H19.002C19.4162 0.75 19.752 1.08579 19.752 1.5C19.752 1.91421 19.4162 2.25 19.002 2.25H1.00195C0.58774 2.25 0.251953 1.91421 0.251953 1.5Z" fill="#101010"/>
<path fill-rule="evenodd" clip-rule="evenodd" d="M4.51172 6.5C4.51172 6.08579 4.84751 5.75 5.26172 5.75H14.7417C15.1559 5.75 15.4917 6.08579 15.4917 6.5C15.4917 6.91421 15.1559 7.25 14.7417 7.25H5.26172C4.84751 7.25 4.51172 6.91421 4.51172 6.5Z" fill="#101010"/>
<path fill-rule="evenodd" clip-rule="evenodd" d="M0.251953 11.5C0.251953 11.0858 0.58774 10.75 1.00195 10.75H19.002C19.4162 10.75 19.752 11.0858 19.752 11.5C19.752 11.9142 19.4162 12.25 19.002 12.25H1.00195C0.58774 12.25 0.251953 11.9142 0.251953 11.5Z" fill="#101010"/>
<path fill-rule="evenodd" clip-rule="evenodd" d="M4.51172 16.5C4.51172 16.0858 4.84751 15.75 5.26172 15.75H14.7417C15.1559 15.75 15.4917 16.0858 15.4917 16.5C15.4917 16.9142 15.1559 17.25 14.7417 17.25H5.26172C4.84751 17.25 4.51172 16.9142 4.51172 16.5Z" fill="#101010"/>
</svg>
