<svg width="22" height="20" viewBox="0 0 22 20" fill="none" xmlns="http://www.w3.org/2000/svg">
<path fill-rule="evenodd" clip-rule="evenodd" d="M3.74187 2.03003C3.01373 2.03003 2.42188 2.6166 2.42188 3.35003V5.17003C2.42188 5.58424 2.08609 5.92003 1.67188 5.92003C1.25766 5.92003 0.921875 5.58424 0.921875 5.17003V3.35003C0.921875 1.78346 2.19002 0.530029 3.74187 0.530029H18.2619C19.8284 0.530029 21.0819 1.79818 21.0819 3.35003V5.17003C21.0819 5.58424 20.7461 5.92003 20.3319 5.92003C19.9177 5.92003 19.5819 5.58424 19.5819 5.17003V3.35003C19.5819 2.62188 18.9953 2.03003 18.2619 2.03003H3.74187Z" fill="#101010"/>
<path fill-rule="evenodd" clip-rule="evenodd" d="M11.002 1.35999C11.4162 1.35999 11.752 1.69577 11.752 2.10999V18.72C11.752 19.1342 11.4162 19.47 11.002 19.47C10.5877 19.47 10.252 19.1342 10.252 18.72V2.10999C10.252 1.69577 10.5877 1.35999 11.002 1.35999Z" fill="#101010"/>
<path fill-rule="evenodd" clip-rule="evenodd" d="M6.31152 18.72C6.31152 18.3058 6.64731 17.97 7.06152 17.97H14.9415C15.3557 17.97 15.6915 18.3058 15.6915 18.72C15.6915 19.1342 15.3557 19.47 14.9415 19.47H7.06152C6.64731 19.47 6.31152 19.1342 6.31152 18.72Z" fill="#101010"/>
</svg>
