<svg width="16" height="22" viewBox="0 0 16 22" fill="none" xmlns="http://www.w3.org/2000/svg">
<path fill-rule="evenodd" clip-rule="evenodd" d="M2.88184 2.25C2.19605 2.25 1.63184 2.81421 1.63184 3.5V10.25H8.00184C10.2076 10.25 12.0018 8.45579 12.0018 6.25C12.0018 4.04421 10.2076 2.25 8.00184 2.25H2.88184ZM0.131836 3.5C0.131836 1.98579 1.36762 0.75 2.88184 0.75H8.00184C11.036 0.75 13.5018 3.21579 13.5018 6.25C13.5018 9.28421 11.036 11.75 8.00184 11.75H0.881836C0.467622 11.75 0.131836 11.4142 0.131836 11V3.5Z" fill="#101010"/>
<path fill-rule="evenodd" clip-rule="evenodd" d="M0.131836 11C0.131836 10.5858 0.467622 10.25 0.881836 10.25H10.3818C13.416 10.25 15.8818 12.7158 15.8818 15.75C15.8818 18.7842 13.416 21.25 10.3818 21.25H2.88184C1.36762 21.25 0.131836 20.0142 0.131836 18.5V11ZM1.63184 11.75V18.5C1.63184 19.1858 2.19605 19.75 2.88184 19.75H10.3818C12.5876 19.75 14.3818 17.9558 14.3818 15.75C14.3818 13.5442 12.5876 11.75 10.3818 11.75H1.63184Z" fill="#101010"/>
</svg>
