<svg width="20" height="18" viewBox="0 0 20 18" fill="none" xmlns="http://www.w3.org/2000/svg">
<path fill-rule="evenodd" clip-rule="evenodd" d="M0.251953 1.5C0.251953 1.08579 0.58774 0.75 1.00195 0.75H19.002C19.4162 0.75 19.752 1.08579 19.752 1.5C19.752 1.91421 19.4162 2.25 19.002 2.25H1.00195C0.58774 2.25 0.251953 1.91421 0.251953 1.5Z" fill="#101010"/>
<path fill-rule="evenodd" clip-rule="evenodd" d="M0.251953 6.5C0.251953 6.08579 0.58774 5.75 1.00195 5.75H10.472C10.8862 5.75 11.222 6.08579 11.222 6.5C11.222 6.91421 10.8862 7.25 10.472 7.25H1.00195C0.58774 7.25 0.251953 6.91421 0.251953 6.5Z" fill="#101010"/>
<path fill-rule="evenodd" clip-rule="evenodd" d="M0.251953 11.5C0.251953 11.0858 0.58774 10.75 1.00195 10.75H19.002C19.4162 10.75 19.752 11.0858 19.752 11.5C19.752 11.9142 19.4162 12.25 19.002 12.25H1.00195C0.58774 12.25 0.251953 11.9142 0.251953 11.5Z" fill="#101010"/>
<path fill-rule="evenodd" clip-rule="evenodd" d="M0.251953 16.5C0.251953 16.0858 0.58774 15.75 1.00195 15.75H10.472C10.8862 15.75 11.222 16.0858 11.222 16.5C11.222 16.9142 10.8862 17.25 10.472 17.25H1.00195C0.58774 17.25 0.251953 16.9142 0.251953 16.5Z" fill="#101010"/>
</svg>
