<svg width="22" height="18" viewBox="0 0 22 18" fill="none" xmlns="http://www.w3.org/2000/svg">
<path fill-rule="evenodd" clip-rule="evenodd" d="M9.24234 2.08008C9.24234 1.66586 9.57813 1.33008 9.99234 1.33008H16.3723C18.2162 1.33008 19.6689 1.54098 20.6002 2.47225C21.5314 3.40351 21.7423 4.85626 21.7423 6.70008V7.62008C21.7423 8.03429 21.4066 8.37008 20.9923 8.37008C20.1308 8.37008 19.4323 9.07006 19.4323 9.94008C19.4323 10.798 20.1287 11.5001 20.9923 11.5001C21.4066 11.5001 21.7423 11.8359 21.7423 12.2501C21.7423 14.0939 21.5314 15.5466 20.6002 16.4779C19.6689 17.4092 18.2162 17.6201 16.3723 17.6201H9.90234C9.48813 17.6201 9.15234 17.2843 9.15234 16.8701C9.15234 16.4559 9.48813 16.1201 9.90234 16.1201H16.3723C18.2285 16.1201 19.0858 15.871 19.5395 15.4172C19.9362 15.0206 20.1764 14.3156 20.2306 12.9046C18.9057 12.5652 17.9323 11.3612 17.9323 9.94008C17.9323 8.50785 18.9102 7.29825 20.2423 6.96259V6.70008C20.2423 4.84389 19.9932 3.98664 19.5395 3.53291C19.0858 3.07917 18.2285 2.83008 16.3723 2.83008H10.7423V8.87008C10.7423 9.28429 10.4066 9.62008 9.99234 9.62008C9.57813 9.62008 9.24234 9.28429 9.24234 8.87008V2.08008Z" fill="#101010"/>
<path fill-rule="evenodd" clip-rule="evenodd" d="M6.68935 0.305852C7.07192 0.149347 7.50899 0.331873 7.66664 0.713973L10.6866 8.03397C10.7241 8.12469 10.7433 8.22188 10.7433 8.32001V10.87C10.7433 11.2842 10.4075 11.62 9.99332 11.62C9.57911 11.62 9.24332 11.2842 9.24332 10.87V8.46865L6.5652 1.9773L4.61899 2.77348C4.6187 2.7736 4.61842 2.77371 4.61814 2.77383C2.85288 3.50108 2.13149 4.075 1.87616 4.69097C1.629 5.2872 1.71761 6.16476 2.37396 7.81389C3.76254 7.60871 5.16487 8.35798 5.71649 9.71357C6.28466 11.0679 5.81144 12.6008 4.67683 13.4215C5.11994 14.4659 5.51371 15.1396 5.91352 15.5547C6.29752 15.9534 6.69123 16.12 7.22332 16.12H9.24332V13.87C9.24332 13.4558 9.57911 13.12 9.99332 13.12C10.4075 13.12 10.7433 13.4558 10.7433 13.87V16.87C10.7433 17.2842 10.4075 17.62 9.99332 17.62H7.22332C6.27542 17.62 5.49413 17.2816 4.83313 16.5953C4.20902 15.9473 3.70821 15.0059 3.22031 13.8268L3.21692 13.8186L3.21697 13.8186L3.03697 13.3686C2.96296 13.1835 2.96563 12.9766 3.04439 12.7936C3.12315 12.6105 3.27153 12.4663 3.45677 12.3929C4.27516 12.0682 4.67924 11.1147 4.33221 10.2913L4.32809 10.2816L4.32816 10.2815C3.99617 9.4617 3.04846 9.05944 2.20774 9.40399C2.02219 9.48004 1.81391 9.47861 1.62941 9.40002C1.44492 9.32144 1.29958 9.17224 1.22585 8.98576L1.05747 8.55985C0.341608 6.80907 -0.0229945 5.35527 0.490494 4.11656C1.00512 2.87512 2.29354 2.10913 4.04766 1.38654L4.04935 1.38585L4.04935 1.38585L6.68935 0.305852Z" fill="#101010"/>
<path fill-rule="evenodd" clip-rule="evenodd" d="M6.24219 16.8701C6.24219 16.4559 6.57797 16.1201 6.99219 16.1201H7.16219C7.5764 16.1201 7.91219 16.4559 7.91219 16.8701C7.91219 17.2843 7.5764 17.6201 7.16219 17.6201H6.99219C6.57797 17.6201 6.24219 17.2843 6.24219 16.8701Z" fill="#101010"/>
</svg>
