<svg width="22" height="18" viewBox="0 0 22 18" fill="none" xmlns="http://www.w3.org/2000/svg">
<path fill-rule="evenodd" clip-rule="evenodd" d="M1.59739 1.34847C2.58642 0.463901 4.08145 0.25 5.99488 0.25H15.9949C17.9895 0.25 19.5367 0.481164 20.5252 1.46967C21.5137 2.45818 21.7449 4.00536 21.7449 6V12C21.7449 13.9946 21.5137 15.5418 20.5252 16.5303C19.5367 17.5188 17.9895 17.75 15.9949 17.75H5.99488C4.08145 17.75 2.58642 17.5361 1.59739 16.6515C0.586481 15.7474 0.300588 14.3275 0.25512 12.5188C0.250056 12.3174 0.326265 12.1224 0.466576 11.9778C0.606886 11.8331 0.799493 11.7511 1.001 11.75C2.52057 11.7421 3.74488 10.515 3.74488 9C3.74488 7.48142 2.51788 6.25 1.00488 6.25C0.802703 6.25 0.609086 6.16837 0.46793 6.02362C0.326775 5.87888 0.250039 5.68327 0.25512 5.48115C0.300588 3.67254 0.586481 2.25262 1.59739 1.34847ZM1.78839 4.82235C3.75922 5.19117 5.24488 6.92574 5.24488 9C5.24488 11.0782 3.75601 12.8013 1.78819 13.1749C1.88615 14.4788 2.16425 15.1461 2.59737 15.5335C3.12335 16.0039 4.07831 16.25 5.99488 16.25H15.9949C18.0002 16.25 18.9531 15.9812 19.4646 15.4697C19.976 14.9582 20.2449 14.0054 20.2449 12V6C20.2449 3.99464 19.976 3.04182 19.4646 2.53033C18.9531 2.01884 18.0002 1.75 15.9949 1.75H5.99488C4.07831 1.75 3.12335 1.9961 2.59737 2.46653C2.16456 2.85363 1.88654 3.52031 1.78839 4.82235Z" fill="#101010"/>
<path fill-rule="evenodd" clip-rule="evenodd" d="M7.99316 0.25C8.40738 0.25 8.74316 0.585786 8.74316 1V4.5C8.74316 4.91421 8.40738 5.25 7.99316 5.25C7.57895 5.25 7.24316 4.91421 7.24316 4.5V1C7.24316 0.585786 7.57895 0.25 7.99316 0.25Z" fill="#101010"/>
<path fill-rule="evenodd" clip-rule="evenodd" d="M7.99316 12.75C8.40738 12.75 8.74316 13.0858 8.74316 13.5V17C8.74316 17.4142 8.40738 17.75 7.99316 17.75C7.57895 17.75 7.24316 17.4142 7.24316 17V13.5C7.24316 13.0858 7.57895 12.75 7.99316 12.75Z" fill="#101010"/>
<path fill-rule="evenodd" clip-rule="evenodd" d="M13.6627 7.28705L13.3619 7.90337C13.1922 8.26332 12.8656 8.49721 12.4823 8.55232L12.3752 7.81001L12.4812 8.55248M11.7709 8.65543L11.2901 8.1843L11.2846 8.17897C11.2864 8.18075 11.2883 8.18251 11.2901 8.1843C11.4936 8.38755 11.3634 8.71393 11.1043 8.75203L10.9952 8.01001L11.1027 8.75226L11.1043 8.75203L11.7709 8.65543ZM13.6627 7.28705L13.9733 7.91327L13.9743 7.91542C14.1381 8.24297 14.4598 8.49263 14.8411 8.55129L15.5552 8.65481L15.0504 9.14446C14.7397 9.43292 14.6554 9.83463 14.7027 10.1661C14.7038 10.1739 14.7051 10.1817 14.7064 10.1894L14.8285 10.8861L14.2056 10.5569L14.1906 10.5492C13.8594 10.3836 13.4609 10.3836 13.1298 10.5492L13.1147 10.5569L12.4919 10.8861M14.6983 5.99929C14.2847 5.15246 13.037 5.1049 12.6173 6.00901L12.0879 7.09381L10.8876 7.26777L10.886 7.26799C9.94612 7.40622 9.53578 8.57454 10.2424 9.25782L11.106 10.104L10.8966 11.2997C10.8966 11.2995 10.8965 11.2998 10.8966 11.2997M16.4237 11.2997L16.2145 10.1051L17.0863 9.25936C17.7952 8.5763 17.3849 7.40632 16.4443 7.26799L15.2411 7.09362L14.6983 5.99929M12.0042 7.26572C12.005 7.26387 12.0059 7.26201 12.0068 7.26013L12.0042 7.26572ZM12.2676 7.06777C12.2674 7.06779 12.2677 7.06775 12.2676 7.06777V7.06777Z" fill="#101010"/>
</svg>
