<svg width="20" height="22" viewBox="0 0 20 22" fill="none" xmlns="http://www.w3.org/2000/svg">
<path fill-rule="evenodd" clip-rule="evenodd" d="M10 4.25C5.58421 4.25 2 7.83421 2 12.25C2 16.6658 5.58421 20.25 10 20.25C10.4142 20.25 10.75 20.5858 10.75 21C10.75 21.4142 10.4142 21.75 10 21.75C4.75579 21.75 0.5 17.4942 0.5 12.25C0.5 7.00579 4.75579 2.75 10 2.75C15.2442 2.75 19.5 7.00579 19.5 12.25C19.5 12.6642 19.1642 13 18.75 13C18.3358 13 18 12.6642 18 12.25C18 7.83421 14.4158 4.25 10 4.25Z" fill="#101010"/>
<path fill-rule="evenodd" clip-rule="evenodd" d="M10 6.25C10.4142 6.25 10.75 6.58579 10.75 7V12C10.75 12.4142 10.4142 12.75 10 12.75C9.58579 12.75 9.25 12.4142 9.25 12V7C9.25 6.58579 9.58579 6.25 10 6.25Z" fill="#101010"/>
<path fill-rule="evenodd" clip-rule="evenodd" d="M6.25 1C6.25 0.585786 6.58579 0.25 7 0.25H13C13.4142 0.25 13.75 0.585786 13.75 1C13.75 1.41421 13.4142 1.75 13 1.75H7C6.58579 1.75 6.25 1.41421 6.25 1Z" fill="#101010"/>
<path fill-rule="evenodd" clip-rule="evenodd" d="M17 15.25C17.4142 15.25 17.75 15.5858 17.75 16V20C17.75 20.4142 17.4142 20.75 17 20.75C16.5858 20.75 16.25 20.4142 16.25 20V16C16.25 15.5858 16.5858 15.25 17 15.25Z" fill="#101010"/>
<path fill-rule="evenodd" clip-rule="evenodd" d="M14 15.25C14.4142 15.25 14.75 15.5858 14.75 16V20C14.75 20.4142 14.4142 20.75 14 20.75C13.5858 20.75 13.25 20.4142 13.25 20V16C13.25 15.5858 13.5858 15.25 14 15.25Z" fill="#101010"/>
</svg>
