<svg width="22" height="18" viewBox="0 0 22 18" fill="none" xmlns="http://www.w3.org/2000/svg">
<path fill-rule="evenodd" clip-rule="evenodd" d="M9 1.75C4.99421 1.75 1.75 4.99421 1.75 9C1.75 13.0058 4.99421 16.25 9 16.25H13C17.0058 16.25 20.25 13.0058 20.25 9C20.25 4.99421 17.0058 1.75 13 1.75H9ZM0.25 9C0.25 4.16579 4.16579 0.25 9 0.25H13C17.8342 0.25 21.75 4.16579 21.75 9C21.75 13.8342 17.8342 17.75 13 17.75H9C4.16579 17.75 0.25 13.8342 0.25 9Z" fill="#101010"/>
<path fill-rule="evenodd" clip-rule="evenodd" d="M13 5.75C11.2051 5.75 9.75 7.20507 9.75 9C9.75 10.7949 11.2051 12.25 13 12.25C14.7949 12.25 16.25 10.7949 16.25 9C16.25 7.20507 14.7949 5.75 13 5.75ZM8.25 9C8.25 6.37665 10.3766 4.25 13 4.25C15.6234 4.25 17.75 6.37665 17.75 9C17.75 11.6234 15.6234 13.75 13 13.75C10.3766 13.75 8.25 11.6234 8.25 9Z" fill="#101010"/>
</svg>
