<svg width="22" height="22" viewBox="0 0 22 22" fill="none" xmlns="http://www.w3.org/2000/svg">
<path fill-rule="evenodd" clip-rule="evenodd" d="M15.9224 12.65C16.2062 12.65 16.4657 12.8102 16.5929 13.064L18.7329 17.3339C18.9185 17.7043 18.7687 18.1549 18.3984 18.3405C18.0281 18.5261 17.5775 18.3763 17.3919 18.006L15.9224 15.0739L14.4529 18.006C14.2673 18.3763 13.8167 18.5261 13.4463 18.3405C13.076 18.1549 12.9263 17.7043 13.1119 17.3339L15.2519 13.064C15.3791 12.8102 15.6386 12.65 15.9224 12.65Z" fill="#101010"/>
<path fill-rule="evenodd" clip-rule="evenodd" d="M13.4219 16.91C13.4219 16.4958 13.7577 16.16 14.1719 16.16H17.6919C18.1061 16.16 18.4419 16.4958 18.4419 16.91C18.4419 17.3242 18.1061 17.66 17.6919 17.66H14.1719C13.7577 17.66 13.4219 17.3242 13.4219 16.91Z" fill="#101010"/>
<path fill-rule="evenodd" clip-rule="evenodd" d="M15.9218 11.59C13.527 11.59 11.5918 13.5332 11.5918 15.92C11.5918 18.3148 13.5351 20.25 15.9218 20.25C18.3176 20.25 20.2518 18.3158 20.2518 15.92C20.2518 13.5252 18.3086 11.59 15.9218 11.59ZM10.0918 15.92C10.0918 12.7067 12.6966 10.09 15.9218 10.09C19.135 10.09 21.7518 12.6948 21.7518 15.92C21.7518 19.1442 19.146 21.75 15.9218 21.75C12.7085 21.75 10.0918 19.1452 10.0918 15.92Z" fill="#101010"/>
<path fill-rule="evenodd" clip-rule="evenodd" d="M2.28413 2.28224C1.973 2.5926 1.75195 3.11967 1.75195 4.01001V7.92999C1.75195 8.85715 1.97638 9.39675 2.28545 9.70659C2.59129 10.0132 3.11317 10.2279 4.00711 10.2102L4.02196 10.21H7.94196L7.96007 10.2102C8.88497 10.2326 9.41496 10.0164 9.71663 9.71468C10.0183 9.41301 10.2345 8.88302 10.2122 7.95811L10.212 7.94V4.02002L10.2122 4.00146C10.2343 3.10807 10.0213 2.58751 9.71663 2.28284C9.40837 1.97458 8.86944 1.75 7.94196 1.75H4.02196C3.12568 1.75 2.5956 1.97155 2.28413 2.28224ZM1.22479 1.22027C1.91832 0.528459 2.89823 0.25 4.02196 0.25H7.94196C9.08447 0.25 10.0805 0.525433 10.7773 1.22218C11.4756 1.92054 11.7381 2.90637 11.712 4.02901V7.93119C11.738 9.07242 11.4787 10.0739 10.7773 10.7753C10.0759 11.4768 9.07438 11.7361 7.93314 11.71H4.02917C2.90628 11.731 1.92104 11.4652 1.22346 10.7659C0.527526 10.0682 0.251953 9.07283 0.251953 7.92999V4.01001C0.251953 2.89035 0.530908 1.91242 1.22479 1.22027Z" fill="#101010"/>
<path fill-rule="evenodd" clip-rule="evenodd" d="M3.20215 4.84998C3.20215 4.43576 3.53793 4.09998 3.95215 4.09998H8.01215C8.42636 4.09998 8.76215 4.43576 8.76215 4.84998C8.76215 5.26419 8.42636 5.59998 8.01215 5.59998H3.95215C3.53793 5.59998 3.20215 5.26419 3.20215 4.84998Z" fill="#101010"/>
<path fill-rule="evenodd" clip-rule="evenodd" d="M5.97266 3.41998C6.38687 3.41998 6.72266 3.75577 6.72266 4.16998V4.84998C6.72266 5.26419 6.38687 5.59998 5.97266 5.59998C5.55844 5.59998 5.22266 5.26419 5.22266 4.84998V4.16998C5.22266 3.75577 5.55844 3.41998 5.97266 3.41998Z" fill="#101010"/>
<path fill-rule="evenodd" clip-rule="evenodd" d="M6.99239 4.09003C7.4066 4.09003 7.74239 4.42581 7.74239 4.84003C7.74239 6.97732 6.06302 8.76001 3.94238 8.76001C3.52817 8.76001 3.19238 8.42422 3.19238 8.01001C3.19238 7.5958 3.52817 7.26001 3.94238 7.26001C5.18175 7.26001 6.24239 6.20274 6.24239 4.84003C6.24239 4.42581 6.57817 4.09003 6.99239 4.09003Z" fill="#101010"/>
<path fill-rule="evenodd" clip-rule="evenodd" d="M5.71527 6.39766C6.04793 6.15085 6.51767 6.22045 6.76448 6.5531C7.11259 7.02229 7.5652 7.26 8.01215 7.26C8.42636 7.26 8.76215 7.59578 8.76215 8.01C8.76215 8.42421 8.42636 8.76 8.01215 8.76C6.9991 8.76 6.13173 8.21769 5.55983 7.44687C5.31303 7.11422 5.38262 6.64447 5.71527 6.39766Z" fill="#101010"/>
<path fill-rule="evenodd" clip-rule="evenodd" d="M1.00195 13.25C1.41617 13.25 1.75195 13.5858 1.75195 14C1.75195 16.9666 3.81105 19.4456 6.58014 20.0881L6.30883 19.6359C6.09572 19.2807 6.21089 18.82 6.56608 18.6069C6.92126 18.3938 7.38196 18.5089 7.59507 18.8641L8.64507 20.6141C8.78409 20.8458 8.78773 21.1344 8.6546 21.3695C8.52147 21.6047 8.27216 21.75 8.00195 21.75C3.71774 21.75 0.251953 18.2842 0.251953 14C0.251953 13.5858 0.58774 13.25 1.00195 13.25Z" fill="#101010"/>
<path fill-rule="evenodd" clip-rule="evenodd" d="M13.3493 0.630476C13.4824 0.395345 13.7317 0.25 14.002 0.25C18.2862 0.25 21.752 3.71579 21.752 8C21.752 8.41421 21.4162 8.75 21.002 8.75C20.5877 8.75 20.252 8.41421 20.252 8C20.252 5.03342 18.1929 2.55437 15.4238 1.91194L15.6951 2.36413C15.9082 2.71931 15.793 3.18001 15.4378 3.39312C15.0826 3.60623 14.6219 3.49106 14.4088 3.13587L13.3588 1.38587C13.2198 1.15417 13.2162 0.865608 13.3493 0.630476Z" fill="#101010"/>
</svg>
