<svg width="20" height="22" viewBox="0 0 20 22" fill="none" xmlns="http://www.w3.org/2000/svg">
<path fill-rule="evenodd" clip-rule="evenodd" d="M2.96578 4.03367C4.97033 3.83122 6.97512 3.72998 8.98005 3.72998C12.3454 3.72998 15.7201 3.90127 19.074 4.23364C19.4862 4.27448 19.7872 4.64175 19.7464 5.05394C19.7055 5.46614 19.3383 5.76717 18.9261 5.72632C15.62 5.39869 12.2947 5.22998 8.98005 5.22998C7.02535 5.22998 5.07051 5.3287 3.11543 5.52618L3.11323 5.5264L1.07323 5.7264C0.660996 5.76682 0.294048 5.4654 0.253633 5.05316C0.213218 4.64092 0.514639 4.27397 0.926876 4.23356L2.96578 4.03367Z" fill="#101010"/>
<path fill-rule="evenodd" clip-rule="evenodd" d="M7.4597 2.78456L7.23976 4.09421C7.17116 4.50271 6.7844 4.77824 6.3759 4.70964C5.96741 4.64104 5.69187 4.25428 5.76048 3.84578L5.98048 2.53579C5.98432 2.51297 5.98828 2.48908 5.99228 2.46487C6.06114 2.04899 6.16216 1.43887 6.56885 0.977691C7.04291 0.440117 7.76621 0.25 8.69012 0.25H11.3101C12.2453 0.25 12.9678 0.455399 13.4391 0.998446C13.8463 1.46776 13.9448 2.08006 14.0106 2.48891C14.0138 2.5088 14.0169 2.52822 14.02 2.54711L14.2396 3.84486C14.3087 4.25326 14.0337 4.64037 13.6253 4.70949C13.2169 4.7786 12.8297 4.50355 12.7606 4.09514L12.5399 2.79069C12.4562 2.27767 12.4033 2.09352 12.3062 1.98155C12.2524 1.9196 12.065 1.75 11.3101 1.75H8.69012C7.92402 1.75 7.74232 1.91488 7.69389 1.96981C7.60177 2.07427 7.54978 2.24976 7.4597 2.78456Z" fill="#101010"/>
<path fill-rule="evenodd" clip-rule="evenodd" d="M16.8982 7.39148C17.3116 7.41816 17.6251 7.77488 17.5984 8.18823L16.9481 18.2623L16.9468 18.2813C16.9204 18.6576 16.8914 19.0713 16.8139 19.4563C16.7335 19.8554 16.5918 20.2767 16.3047 20.6505C15.7036 21.4332 14.6805 21.7499 13.2099 21.7499H6.78993C5.31937 21.7499 4.2963 21.4332 3.69513 20.6505C3.40803 20.2767 3.26633 19.8554 3.18594 19.4563C3.10841 19.0713 3.07944 18.6576 3.05309 18.2813L3.05148 18.2582L2.40149 8.18823C2.37481 7.77488 2.68827 7.41816 3.10162 7.39148C3.51497 7.3648 3.87169 7.67826 3.89837 8.09161L4.5481 18.1575C4.54814 18.1582 4.54819 18.1589 4.54824 18.1595C4.57646 18.5623 4.60035 18.8817 4.65642 19.1601C4.71102 19.4313 4.78683 19.6094 4.88473 19.7368C5.05356 19.9566 5.47049 20.2499 6.78993 20.2499H13.2099C14.5294 20.2499 14.9463 19.9566 15.1151 19.7368C15.213 19.6094 15.2888 19.4313 15.3434 19.1601C15.3995 18.8817 15.4234 18.5623 15.4516 18.1595C15.4517 18.1589 15.4517 18.1582 15.4518 18.1575L16.1015 8.09161C16.1282 7.67826 16.4849 7.3648 16.8982 7.39148Z" fill="#101010"/>
<path fill-rule="evenodd" clip-rule="evenodd" d="M7.58008 15.5C7.58008 15.0858 7.91586 14.75 8.33008 14.75H11.6601C12.0743 14.75 12.4101 15.0858 12.4101 15.5C12.4101 15.9142 12.0743 16.25 11.6601 16.25H8.33008C7.91586 16.25 7.58008 15.9142 7.58008 15.5Z" fill="#101010"/>
<path fill-rule="evenodd" clip-rule="evenodd" d="M6.75 11.5C6.75 11.0858 7.08579 10.75 7.5 10.75H12.5C12.9142 10.75 13.25 11.0858 13.25 11.5C13.25 11.9142 12.9142 12.25 12.5 12.25H7.5C7.08579 12.25 6.75 11.9142 6.75 11.5Z" fill="#101010"/>
</svg>
