<svg width="16" height="22" viewBox="0 0 16 22" fill="none" xmlns="http://www.w3.org/2000/svg">
<path fill-rule="evenodd" clip-rule="evenodd" d="M7.99855 1.69495C7.959 1.69495 7.84479 1.7135 7.71421 1.90004L7.71019 1.9058L3.53879 7.74767C3.33868 8.02609 3.3419 8.16561 3.34698 8.20035C3.37201 8.22453 3.48403 8.30994 3.82977 8.30994H12.1698C12.5104 8.30994 12.6234 8.22716 12.6499 8.20229C12.6545 8.16574 12.654 8.02635 12.4538 7.75182L12.4494 7.74579L8.27943 1.90578L8.27125 1.89409C8.14637 1.71197 8.03677 1.69495 7.99855 1.69495ZM9.5039 1.03934C9.14872 0.525149 8.61027 0.194946 7.99855 0.194946C7.38684 0.194946 6.847 0.525033 6.48758 1.0367L2.32077 6.87222C2.32051 6.87257 2.32026 6.87292 2.32001 6.87327C1.89784 7.46113 1.66274 8.2116 2.01195 8.88872C2.36064 9.5648 3.10771 9.80994 3.82977 9.80994H12.1698C12.8909 9.80994 13.6401 9.56523 13.9874 8.88664C14.335 8.20745 14.0943 7.45732 13.6681 6.87128L9.5039 1.03934Z" fill="#101010"/>
<path fill-rule="evenodd" clip-rule="evenodd" d="M4.60867 8.62525C4.74936 8.42743 4.9771 8.30994 5.21985 8.30994H10.7899C11.0326 8.30994 11.2603 8.42743 11.401 8.62525L15.389 14.2323C15.9286 14.9766 16.1954 15.8718 15.7937 16.6567C15.392 17.4415 14.5088 17.7499 13.5898 17.7499H2.41986C1.50092 17.7499 0.617698 17.4415 0.215983 16.6567C-0.185734 15.8718 0.081104 14.9766 0.620762 14.2323L4.60867 8.62525ZM5.60678 9.80994L1.83665 15.1108C1.44788 15.6459 1.52104 15.9142 1.55124 15.9732C1.58203 16.0334 1.75881 16.2499 2.41986 16.2499H13.5898C14.2509 16.2499 14.4277 16.0334 14.4585 15.9732C14.4887 15.9142 14.5619 15.6459 14.1731 15.1108L14.1686 15.1046L10.4029 9.80994H5.60678Z" fill="#101010"/>
<path fill-rule="evenodd" clip-rule="evenodd" d="M8 16.25C8.41421 16.25 8.75 16.5858 8.75 17V21C8.75 21.4142 8.41421 21.75 8 21.75C7.58579 21.75 7.25 21.4142 7.25 21V17C7.25 16.5858 7.58579 16.25 8 16.25Z" fill="#101010"/>
</svg>
