<svg width="22" height="22" viewBox="0 0 22 22" fill="none" xmlns="http://www.w3.org/2000/svg">
<path fill-rule="evenodd" clip-rule="evenodd" d="M5.96967 7.96967C6.26256 7.67678 6.73744 7.67678 7.03033 7.96967L9.58343 10.5228L10.676 8.88397C10.8006 8.69702 11.0025 8.57579 11.2261 8.55365C11.4497 8.53151 11.6714 8.61079 11.8303 8.76967L16.0303 12.9697C16.3232 13.2626 16.3232 13.7374 16.0303 14.0303C15.7374 14.3232 15.2626 14.3232 14.9697 14.0303L11.4166 10.4772L10.324 12.116C10.1994 12.303 9.9975 12.4242 9.7739 12.4463C9.5503 12.4685 9.32855 12.3892 9.16967 12.2303L5.96967 9.03033C5.67678 8.73744 5.67678 8.26256 5.96967 7.96967Z" fill="#101010"/>
<path fill-rule="evenodd" clip-rule="evenodd" d="M15.5 10.75C15.9142 10.75 16.25 11.0858 16.25 11.5V13.5C16.25 13.9142 15.9142 14.25 15.5 14.25H13.5C13.0858 14.25 12.75 13.9142 12.75 13.5C12.75 13.0858 13.0858 12.75 13.5 12.75H14.75V11.5C14.75 11.0858 15.0858 10.75 15.5 10.75Z" fill="#101010"/>
<path fill-rule="evenodd" clip-rule="evenodd" d="M2.09467 2.09467C3.42914 0.760201 5.42603 0.25 8 0.25H14C16.574 0.25 18.5709 0.760201 19.9053 2.09467C21.2398 3.42914 21.75 5.42603 21.75 8V14C21.75 16.574 21.2398 18.5709 19.9053 19.9053C18.5709 21.2398 16.574 21.75 14 21.75H8C5.42603 21.75 3.42914 21.2398 2.09467 19.9053C0.760201 18.5709 0.25 16.574 0.25 14V8C0.25 5.42603 0.760201 3.42914 2.09467 2.09467ZM3.15533 3.15533C2.2398 4.07086 1.75 5.57397 1.75 8V14C1.75 16.426 2.2398 17.9291 3.15533 18.8447C4.07086 19.7602 5.57397 20.25 8 20.25H14C16.426 20.25 17.9291 19.7602 18.8447 18.8447C19.7602 17.9291 20.25 16.426 20.25 14V8C20.25 5.57397 19.7602 4.07086 18.8447 3.15533C17.9291 2.2398 16.426 1.75 14 1.75H8C5.57397 1.75 4.07086 2.2398 3.15533 3.15533Z" fill="#101010"/>
</svg>
