<svg width="22" height="22" viewBox="0 0 22 22" fill="none" xmlns="http://www.w3.org/2000/svg">
<path fill-rule="evenodd" clip-rule="evenodd" d="M16.0303 7.96967C16.3232 8.26256 16.3232 8.73744 16.0303 9.03033L11.8303 13.2303C11.6714 13.3892 11.4497 13.4685 11.2261 13.4463C11.0025 13.4242 10.8006 13.303 10.676 13.116L9.58343 11.4772L7.03033 14.0303C6.73744 14.3232 6.26256 14.3232 5.96967 14.0303C5.67678 13.7374 5.67678 13.2626 5.96967 12.9697L9.16967 9.76967C9.32855 9.61079 9.5503 9.53151 9.7739 9.55365C9.9975 9.57579 10.1994 9.69702 10.324 9.88397L11.4166 11.5228L14.9697 7.96967C15.2626 7.67678 15.7374 7.67678 16.0303 7.96967Z" fill="#101010"/>
<path fill-rule="evenodd" clip-rule="evenodd" d="M12.75 8.5C12.75 8.08579 13.0858 7.75 13.5 7.75H15.5C15.9142 7.75 16.25 8.08579 16.25 8.5V10.5C16.25 10.9142 15.9142 11.25 15.5 11.25C15.0858 11.25 14.75 10.9142 14.75 10.5V9.25H13.5C13.0858 9.25 12.75 8.91421 12.75 8.5Z" fill="#101010"/>
<path fill-rule="evenodd" clip-rule="evenodd" d="M2.09467 2.09467C3.42914 0.760201 5.42603 0.25 8 0.25H14C16.574 0.25 18.5709 0.760201 19.9053 2.09467C21.2398 3.42914 21.75 5.42603 21.75 8V14C21.75 16.574 21.2398 18.5709 19.9053 19.9053C18.5709 21.2398 16.574 21.75 14 21.75H8C5.42603 21.75 3.42914 21.2398 2.09467 19.9053C0.760201 18.5709 0.25 16.574 0.25 14V8C0.25 5.42603 0.760201 3.42914 2.09467 2.09467ZM3.15533 3.15533C2.2398 4.07086 1.75 5.57397 1.75 8V14C1.75 16.426 2.2398 17.9291 3.15533 18.8447C4.07086 19.7602 5.57397 20.25 8 20.25H14C16.426 20.25 17.9291 19.7602 18.8447 18.8447C19.7602 17.9291 20.25 16.426 20.25 14V8C20.25 5.57397 19.7602 4.07086 18.8447 3.15533C17.9291 2.2398 16.426 1.75 14 1.75H8C5.57397 1.75 4.07086 2.2398 3.15533 3.15533Z" fill="#101010"/>
</svg>
