<svg width="23" height="23" viewBox="0 0 23 23" fill="none" xmlns="http://www.w3.org/2000/svg">
<path fill-rule="evenodd" clip-rule="evenodd" d="M6.93903 1.7359C7.04901 1.44357 7.32865 1.25 7.64099 1.25H15.001C15.4152 1.25 15.751 1.58579 15.751 2V12C15.751 13.5142 14.5152 14.75 13.001 14.75H2.00098C1.58676 14.75 1.25098 14.4142 1.25098 14V7.62C1.25098 7.30469 1.44818 7.02306 1.74447 6.91522C2.04075 6.80739 2.37285 6.89637 2.57552 7.13791C3.16153 7.83631 4.06486 8.27461 5.07286 8.25022L5.07615 8.25014L5.07615 8.25015C5.8978 8.23388 6.62825 7.91831 7.17274 7.39785C7.18448 7.38663 7.19658 7.37579 7.20902 7.36536C7.43942 7.17212 7.64359 6.91698 7.80538 6.62576L7.81509 6.6088C8.10622 6.1155 8.26735 5.53387 8.25124 4.92997L8.25122 4.9292C8.22678 3.97588 7.80485 3.14097 7.14662 2.564C6.91174 2.35812 6.82904 2.02823 6.93903 1.7359ZM9.1839 2.75C9.52777 3.38679 9.73072 4.11315 9.75072 4.89028C9.77446 5.78281 9.53757 6.63794 9.11186 7.36276C8.87808 7.78144 8.57016 8.17697 8.19179 8.49872C7.37859 9.26792 6.29668 9.72587 5.10748 9.74982C4.25543 9.77014 3.44876 9.56352 2.75098 9.18379V13.25H13.001C13.6868 13.25 14.251 12.6858 14.251 12V2.75H9.1839Z" fill="#101010"/>
<path fill-rule="evenodd" clip-rule="evenodd" d="M14.251 5C14.251 4.58579 14.5868 4.25 15.001 4.25H16.841C17.8349 4.25 18.7387 4.788 19.2296 5.63341L19.2321 5.63767L19.232 5.63768L20.942 8.62767C21.0748 8.85979 21.0739 9.14503 20.9397 9.37633C20.8055 9.60763 20.5584 9.75 20.291 9.75H19.001C18.8652 9.75 18.751 9.86421 18.751 10V13C18.751 13.1358 18.8652 13.25 19.001 13.25H22.001C22.4152 13.25 22.751 13.5858 22.751 14V17C22.751 19.0742 21.0752 20.75 19.001 20.75H18.001C17.5868 20.75 17.251 20.4142 17.251 20C17.251 19.3142 16.6868 18.75 16.001 18.75C15.3152 18.75 14.751 19.3142 14.751 20C14.751 20.4142 14.4152 20.75 14.001 20.75H10.001C9.58676 20.75 9.25098 20.4142 9.25098 20C9.25098 19.3142 8.68676 18.75 8.00098 18.75C7.31519 18.75 6.75098 19.3142 6.75098 20C6.75098 20.4142 6.41519 20.75 6.00098 20.75H5.00098C2.92676 20.75 1.25098 19.0742 1.25098 17V14C1.25098 13.5858 1.58676 13.25 2.00098 13.25H13.001C13.6868 13.25 14.251 12.6858 14.251 12V5ZM15.751 5.75V12C15.751 13.5142 14.5152 14.75 13.001 14.75H2.75098V17C2.75098 18.2458 3.75519 19.25 5.00098 19.25H5.35528C5.68325 18.0981 6.74657 17.25 8.00098 17.25C9.25538 17.25 10.3187 18.0981 10.6467 19.25H13.3553C13.6832 18.0981 14.7466 17.25 16.001 17.25C17.2554 17.25 18.3187 18.0981 18.6467 19.25H19.001C20.2468 19.25 21.251 18.2458 21.251 17V14.75H19.001C18.0368 14.75 17.251 13.9642 17.251 13V10C17.251 9.03676 18.0352 8.25159 18.998 8.25L17.9324 6.38661C17.932 6.38599 17.9317 6.38537 17.9313 6.38475C17.702 5.99126 17.2864 5.75 16.841 5.75H15.751Z" fill="#101010"/>
<path fill-rule="evenodd" clip-rule="evenodd" d="M8.00098 18.75C7.31062 18.75 6.75098 19.3096 6.75098 20C6.75098 20.6904 7.31062 21.25 8.00098 21.25C8.69133 21.25 9.25098 20.6904 9.25098 20C9.25098 19.3096 8.69133 18.75 8.00098 18.75ZM5.25098 20C5.25098 18.4812 6.48219 17.25 8.00098 17.25C9.51976 17.25 10.751 18.4812 10.751 20C10.751 21.5188 9.51976 22.75 8.00098 22.75C6.48219 22.75 5.25098 21.5188 5.25098 20Z" fill="#101010"/>
<path fill-rule="evenodd" clip-rule="evenodd" d="M16.001 18.75C15.3106 18.75 14.751 19.3096 14.751 20C14.751 20.6904 15.3106 21.25 16.001 21.25C16.6913 21.25 17.251 20.6904 17.251 20C17.251 19.3096 16.6913 18.75 16.001 18.75ZM13.251 20C13.251 18.4812 14.4822 17.25 16.001 17.25C17.5198 17.25 18.751 18.4812 18.751 20C18.751 21.5188 17.5198 22.75 16.001 22.75C14.4822 22.75 13.251 21.5188 13.251 20Z" fill="#101010"/>
<path fill-rule="evenodd" clip-rule="evenodd" d="M19.001 9.75C18.8652 9.75 18.751 9.86421 18.751 10V13C18.751 13.1358 18.8652 13.25 19.001 13.25H21.251V12.1987L19.8552 9.75H19.001ZM17.251 10C17.251 9.03579 18.0368 8.25 19.001 8.25H20.291C20.5604 8.25 20.8091 8.39452 20.9425 8.62859L22.6526 11.6286C22.7171 11.7418 22.751 11.8698 22.751 12V14C22.751 14.4142 22.4152 14.75 22.001 14.75H19.001C18.0368 14.75 17.251 13.9642 17.251 13V10Z" fill="#101010"/>
<path fill-rule="evenodd" clip-rule="evenodd" d="M5.00098 1.75C4.23944 1.75 3.53254 2.01685 2.96846 2.46648L2.96716 2.46752L2.96716 2.46752C2.22198 3.0588 1.75098 3.97454 1.75098 5C1.75098 6.79579 3.20519 8.25 5.00098 8.25C5.81765 8.25 6.56459 7.94386 7.14669 7.43593C7.82257 6.841 8.25098 5.97302 8.25098 5C8.25098 3.20421 6.79676 1.75 5.00098 1.75ZM2.03414 1.29301C2.84996 0.642947 3.88281 0.25 5.00098 0.25C7.62519 0.25 9.75098 2.37579 9.75098 5C9.75098 6.42649 9.11985 7.69813 8.13631 8.56317L8.13431 8.56493L8.13431 8.56493C7.29655 9.29649 6.20385 9.75 5.00098 9.75C2.37676 9.75 0.250977 7.62421 0.250977 5C0.250977 3.50575 0.9397 2.16174 2.03414 1.29301Z" fill="#101010"/>
<path fill-rule="evenodd" clip-rule="evenodd" d="M5.25109 3C5.6653 3 6.00109 3.33579 6.00109 3.75V5.25C6.00109 5.51345 5.86287 5.75758 5.63696 5.89312L4.38696 6.64312C4.03178 6.85623 3.57108 6.74106 3.35797 6.38587C3.14486 6.03069 3.26003 5.56999 3.61522 5.35688L4.50109 4.82536V3.75C4.50109 3.33579 4.83688 3 5.25109 3Z" fill="#101010"/>
</svg>
