<svg width="22" height="12" viewBox="0 0 22 12" fill="none" xmlns="http://www.w3.org/2000/svg">
<path fill-rule="evenodd" clip-rule="evenodd" d="M0.240234 5.99994C0.240234 3.07572 2.61605 0.699951 5.54025 0.699951C7.30566 0.699951 8.83531 1.56764 9.78725 2.87946C10.0305 3.2147 9.95597 3.68369 9.62073 3.92696C9.28548 4.17024 8.8165 4.09568 8.57322 3.76044C7.88516 2.81225 6.79485 2.19995 5.54025 2.19995C3.44446 2.19995 1.74023 3.90416 1.74023 5.99994C1.74023 8.09572 3.44446 9.79993 5.54025 9.79993C6.9664 9.79993 8.29247 9.04853 9.02714 7.82409L10.3564 5.61535L10.3576 5.61322L11.6771 3.40405C12.6825 1.72849 14.4964 0.699951 16.4503 0.699951C19.3745 0.699951 21.7502 3.07573 21.7502 5.99994C21.7502 8.92415 19.3745 11.2999 16.4503 11.2999C14.6933 11.2999 13.1659 10.4311 12.2058 9.12392C11.9606 8.79008 12.0324 8.32067 12.3663 8.07547C12.7001 7.83026 13.1695 7.90211 13.4147 8.23595C14.1146 9.18879 15.2072 9.79993 16.4503 9.79993C18.546 9.79993 20.2502 8.09573 20.2502 5.99994C20.2502 3.90415 18.546 2.19995 16.4503 2.19995C15.0243 2.19995 13.6984 2.95112 12.9637 4.17523C12.9636 4.17541 12.9638 4.17504 12.9637 4.17523L11.6441 6.38452L11.6429 6.38666L10.3134 8.59583C10.3133 8.596 10.3135 8.59567 10.3134 8.59583C9.30798 10.2711 7.49391 11.2999 5.54025 11.2999C2.61605 11.2999 0.240234 8.92416 0.240234 5.99994Z" fill="#101010"/>
</svg>
