<svg width="20" height="22" viewBox="0 0 20 22" fill="none" xmlns="http://www.w3.org/2000/svg">
<path fill-rule="evenodd" clip-rule="evenodd" d="M11.1967 2.07041C10.4463 1.64226 9.53147 1.64443 8.79514 2.06953L2.85787 5.49794C2.11595 5.93499 1.66016 6.72968 1.66016 7.58003V14.42C1.66016 15.2836 2.11854 16.0753 2.85514 16.5005L8.79226 19.9289C8.79274 19.9291 8.79321 19.9294 8.79369 19.9297C9.54402 20.3578 10.4588 20.3556 11.1951 19.9305C11.1951 19.9305 11.1951 19.9306 11.1951 19.9305L17.1302 16.5034C17.131 16.503 17.1317 16.5025 17.1325 16.5021C17.8744 16.065 18.3302 15.2703 18.3302 14.42V7.58003C18.3302 6.721 17.8755 5.93563 17.1324 5.49794C17.1317 5.4975 17.1309 5.49706 17.1302 5.49661L11.1981 2.07118C11.1976 2.07092 11.1971 2.07066 11.1967 2.07041ZM8.04517 0.770472C9.24839 0.075828 10.7329 0.0777421 11.9423 0.768818L11.9452 0.7705L17.8901 4.20335C19.0857 4.90592 19.8302 6.17994 19.8302 7.58003V14.42C19.8302 15.8088 19.0869 17.0934 17.8901 17.7967L17.8852 17.7996L11.9452 21.2295C10.742 21.9242 9.25743 21.9223 8.04805 21.2312L8.04511 21.2295L2.10517 17.7996C0.901776 17.1048 0.160156 15.8164 0.160156 14.42V7.58003C0.160156 6.19125 0.903439 4.90661 2.10018 4.20337L2.1051 4.20048L8.04517 0.770472Z" fill="#101010"/>
<path fill-rule="evenodd" clip-rule="evenodd" d="M9.99992 6.09009C9.12729 6.09009 8.41992 6.79745 8.41992 7.67004C8.41992 8.54266 9.12732 9.25006 9.99992 9.25006C10.8725 9.25006 11.5799 8.54266 11.5799 7.67004C11.5799 6.79745 10.8726 6.09009 9.99992 6.09009ZM6.91992 7.67004C6.91992 5.96899 8.2989 4.59009 9.99992 4.59009C11.7009 4.59009 13.0799 5.96899 13.0799 7.67004C13.0799 9.37107 11.701 10.7501 9.99992 10.7501C8.29888 10.7501 6.91992 9.37107 6.91992 7.67004Z" fill="#101010"/>
<path fill-rule="evenodd" clip-rule="evenodd" d="M5.25 15.6601C5.25 13.3099 7.52631 11.6501 10 11.6501C12.4737 11.6501 14.75 13.3099 14.75 15.6601C14.75 16.0743 14.4142 16.4101 14 16.4101C13.5858 16.4101 13.25 16.0743 13.25 15.6601C13.25 14.4103 11.9463 13.1501 10 13.1501C8.05369 13.1501 6.75 14.4103 6.75 15.6601C6.75 16.0743 6.41421 16.4101 6 16.4101C5.58579 16.4101 5.25 16.0743 5.25 15.6601Z" fill="#101010"/>
</svg>
