<svg width="21" height="22" viewBox="0 0 21 22" fill="none" xmlns="http://www.w3.org/2000/svg">
<path fill-rule="evenodd" clip-rule="evenodd" d="M10 1.75C7.65279 1.75 5.75 3.65279 5.75 6C5.75 8.34721 7.65279 10.25 10 10.25C12.3472 10.25 14.25 8.34721 14.25 6C14.25 3.65279 12.3472 1.75 10 1.75ZM4.25 6C4.25 2.82436 6.82436 0.25 10 0.25C13.1756 0.25 15.75 2.82436 15.75 6C15.75 9.17564 13.1756 11.75 10 11.75C6.82436 11.75 4.25 9.17564 4.25 6Z" fill="#101010"/>
<path fill-rule="evenodd" clip-rule="evenodd" d="M10.0002 14.75C5.52303 14.75 2.16016 17.6809 2.16016 21C2.16016 21.4142 1.82437 21.75 1.41016 21.75C0.995943 21.75 0.660156 21.4142 0.660156 21C0.660156 16.5791 4.99728 13.25 10.0002 13.25C11.0276 13.25 12.0247 13.3891 12.9596 13.647C13.3589 13.7572 13.5933 14.1701 13.4832 14.5694C13.373 14.9687 12.96 15.2031 12.5607 15.093C11.7556 14.8709 10.8927 14.75 10.0002 14.75Z" fill="#101010"/>
<path fill-rule="evenodd" clip-rule="evenodd" d="M13.6678 14.7328C14.2612 14.1233 15.0891 13.75 16 13.75L13.6678 14.7328ZM12.5926 13.6869C13.4591 12.7966 14.671 12.25 16 12.25C17.3965 12.25 18.6696 12.8533 19.5303 13.8315C20.2868 14.6724 20.75 15.7878 20.75 17C20.75 17.3782 20.7032 17.7485 20.6085 18.109C20.5001 18.583 20.311 19.0434 20.0614 19.4488C19.2405 20.8247 17.7319 21.75 16 21.75C14.7795 21.75 13.6736 21.288 12.8413 20.5302C12.4865 20.2214 12.1777 19.8535 11.9375 19.447C11.4979 18.7315 11.25 17.8879 11.25 17C11.25 15.7186 11.7605 14.5427 12.5923 13.6872L12.5926 13.6869ZM16 13.75C16.9617 13.75 17.8272 14.1652 18.4064 14.8249L16 13.75ZM13.6675 14.7331C13.0994 15.3176 12.75 16.1216 12.75 17C12.75 17.6094 12.9205 18.1833 13.2184 18.6663L13.2264 18.6797C13.384 18.9477 13.5911 19.1951 13.8312 19.4032L13.8461 19.4164C14.4129 19.9347 15.1641 20.25 16 20.25C17.1859 20.25 18.2156 19.6177 18.7754 18.6766L18.7818 18.6658L18.7819 18.6659C18.9482 18.3967 19.0766 18.0842 19.1483 17.7654C19.1505 17.7558 19.1528 17.7462 19.1553 17.7367C19.218 17.5017 19.25 17.2568 19.25 17C19.25 16.1739 18.9345 15.4108 18.4129 14.8322L18.4064 14.8249L18.4064 14.8249" fill="#101010"/>
<path fill-rule="evenodd" clip-rule="evenodd" d="M13.7598 16.98C13.7598 16.5658 14.0956 16.23 14.5098 16.23H17.4897C17.904 16.23 18.2397 16.5658 18.2397 16.98C18.2397 17.3942 17.904 17.73 17.4897 17.73H14.5098C14.0956 17.73 13.7598 17.3942 13.7598 16.98Z" fill="#101010"/>
<path fill-rule="evenodd" clip-rule="evenodd" d="M16 14.77C16.4142 14.77 16.75 15.1058 16.75 15.52V18.51C16.75 18.9242 16.4142 19.26 16 19.26C15.5858 19.26 15.25 18.9242 15.25 18.51V15.52C15.25 15.1058 15.5858 14.77 16 14.77Z" fill="#101010"/>
</svg>
