<svg width="23" height="23" viewBox="0 0 23 23" fill="none" xmlns="http://www.w3.org/2000/svg">
<path fill-rule="evenodd" clip-rule="evenodd" d="M3.15533 3.15533C2.2398 4.07086 1.75 5.57397 1.75 8V14C1.75 16.426 2.2398 17.9291 3.15533 18.8447C4.07086 19.7602 5.57397 20.25 8 20.25H13.0338C13.0253 20.2362 13.0168 20.2223 13.0084 20.2084L13.0077 20.2073C12.5308 19.4163 12.25 18.4832 12.25 17.5C12.25 16.0799 12.8096 14.7832 13.7331 13.8363C14.6891 12.857 16.0307 12.25 17.5 12.25C18.5049 12.25 19.4501 12.5301 20.25 13.0258V8C20.25 5.57397 19.7602 4.07086 18.8447 3.15533C17.9291 2.2398 16.426 1.75 14 1.75H8C5.57397 1.75 4.07086 2.2398 3.15533 3.15533ZM2.09467 2.09467C3.42914 0.760201 5.42603 0.25 8 0.25H14C16.574 0.25 18.5709 0.760201 19.9053 2.09467C21.2398 3.42914 21.75 5.42603 21.75 8V14.0141C21.75 14.2347 21.75 14.4837 21.7269 14.7379C21.6981 15.0546 21.4728 15.3187 21.1646 15.3969C20.8564 15.4752 20.5323 15.3506 20.356 15.086C20.3454 15.0702 20.3275 15.0482 20.3097 15.0303C20.2975 15.0182 20.2857 15.0056 20.2744 14.9926C19.6064 14.2256 18.6124 13.75 17.5 13.75C16.4494 13.75 15.4909 14.1831 14.8069 14.8836C14.1504 15.5568 13.75 16.4801 13.75 17.5C13.75 18.1965 13.949 18.8633 14.2919 19.4322C14.4836 19.7487 14.7225 20.0356 14.9967 20.2694C15.0118 20.2823 15.0263 20.2957 15.0403 20.3097C15.0567 20.3261 15.0699 20.337 15.1191 20.378C15.1281 20.3855 15.1384 20.394 15.1501 20.4038C15.3827 20.5976 15.476 20.9123 15.3865 21.2015C15.2971 21.4908 15.0425 21.6979 14.7411 21.7266C14.4951 21.75 14.2347 21.75 14.0161 21.75H8C5.42603 21.75 3.42914 21.2398 2.09467 19.9053C0.760201 18.5709 0.25 16.574 0.25 14V8C0.25 5.42603 0.760201 3.42914 2.09467 2.09467Z" fill="#101010"/>
<path fill-rule="evenodd" clip-rule="evenodd" d="M0.769531 6.10999C0.769531 5.69577 1.10532 5.35999 1.51953 5.35999H20.4795C20.8937 5.35999 21.2295 5.69577 21.2295 6.10999C21.2295 6.5242 20.8937 6.85999 20.4795 6.85999H1.51953C1.10532 6.85999 0.769531 6.5242 0.769531 6.10999Z" fill="#101010"/>
<path fill-rule="evenodd" clip-rule="evenodd" d="M7.51953 0.359985C7.93374 0.359985 8.26953 0.695772 8.26953 1.10999V5.96997C8.26953 6.38418 7.93374 6.71997 7.51953 6.71997C7.10532 6.71997 6.76953 6.38418 6.76953 5.96997V1.10999C6.76953 0.695772 7.10532 0.359985 7.51953 0.359985Z" fill="#101010"/>
<path fill-rule="evenodd" clip-rule="evenodd" d="M14.4795 0.359985C14.8937 0.359985 15.2295 0.695772 15.2295 1.10999V5.52002C15.2295 5.93423 14.8937 6.27002 14.4795 6.27002C14.0653 6.27002 13.7295 5.93423 13.7295 5.52002V1.10999C13.7295 0.695772 14.0653 0.359985 14.4795 0.359985Z" fill="#101010"/>
<path fill-rule="evenodd" clip-rule="evenodd" d="M14.8069 14.8836C15.4909 14.1831 16.4494 13.75 17.5 13.75L14.8069 14.8836ZM13.7333 13.8361C14.6893 12.8568 16.0307 12.25 17.5 12.25C19.0393 12.25 20.4384 12.9073 21.3901 13.9898C21.4561 14.0578 21.5213 14.1354 21.5793 14.2179C22.3145 15.1149 22.75 16.2627 22.75 17.5C22.75 17.9135 22.7043 18.3266 22.5969 18.735C22.4683 19.2579 22.2599 19.7535 21.996 20.201L21.9931 20.2059L21.9931 20.2059C21.0836 21.7218 19.4149 22.75 17.5 22.75C16.24 22.75 15.0896 22.3054 14.1969 21.5537L14.67 20.9918V20.98L14.1899 21.5561C14.1839 21.5512 14.1772 21.5457 14.1699 21.5396C14.1279 21.5049 14.0654 21.4534 14.003 21.3933C13.6062 21.0508 13.2722 20.6442 13.0084 20.2084L13.0077 20.2073C12.5308 19.4163 12.25 18.4832 12.25 17.5C12.25 16.0799 12.8096 14.7832 13.7331 13.8363L13.7333 13.8361ZM15.081 20.3462C15.0609 20.3293 15.0513 20.3207 15.0403 20.3097C15.0263 20.2957 15.0118 20.2823 14.9967 20.2694C14.7226 20.0356 14.4836 19.7488 14.292 19.4322C13.9491 18.8633 13.75 18.1966 13.75 17.5C13.75 16.4803 14.1503 15.557 14.8067 14.8839M15.081 20.3462C15.1096 20.3643 15.137 20.3843 15.1631 20.4063C15.7904 20.9345 16.6 21.25 17.5 21.25C18.8641 21.25 20.0547 20.5193 20.7055 19.4365C20.8997 19.1066 21.0501 18.7455 21.1414 18.3719L21.145 18.3581C21.2163 18.0887 21.25 17.8041 21.25 17.5C21.25 16.6099 20.9344 15.7885 20.4032 15.1494C20.3864 15.1291 20.3706 15.1079 20.356 15.086C20.3454 15.0702 20.3275 15.0482 20.3097 15.0303C20.2975 15.0182 20.2857 15.0056 20.2744 14.9926C19.6064 14.2256 18.6124 13.75 17.5 13.75" fill="#101010"/>
<path fill-rule="evenodd" clip-rule="evenodd" d="M15.789 15.7697C16.0819 15.4768 16.5568 15.4768 16.8497 15.7697L19.2297 18.1497C19.5225 18.4426 19.5225 18.9175 19.2297 19.2104C18.9368 19.5033 18.4619 19.5033 18.169 19.2104L15.789 16.8304C15.4961 16.5375 15.4961 16.0626 15.789 15.7697Z" fill="#101010"/>
<path fill-rule="evenodd" clip-rule="evenodd" d="M19.2101 15.7897C19.503 16.0826 19.503 16.5575 19.2101 16.8504L16.8301 19.2304C16.5372 19.5233 16.0624 19.5233 15.7695 19.2304C15.4766 18.9375 15.4766 18.4626 15.7695 18.1697L18.1495 15.7897C18.4424 15.4968 18.9172 15.4968 19.2101 15.7897Z" fill="#101010"/>
</svg>
