<svg width="23" height="23" viewBox="0 0 23 23" fill="none" xmlns="http://www.w3.org/2000/svg">
<path fill-rule="evenodd" clip-rule="evenodd" d="M3.15533 3.15533C2.2398 4.07086 1.75 5.57397 1.75 8V14C1.75 16.426 2.2398 17.9291 3.15533 18.8447C4.07086 19.7602 5.57397 20.25 8 20.25H13.0336C13.0247 20.2353 13.0157 20.2206 13.0069 20.2059C12.5305 19.4152 12.25 18.4827 12.25 17.5C12.25 15.8476 13.0072 14.3632 14.2226 13.4034C15.1208 12.6813 16.2644 12.25 17.5 12.25C18.5103 12.25 19.4519 12.5326 20.25 13.0246V8C20.25 5.57397 19.7602 4.07086 18.8447 3.15533C17.9291 2.2398 16.426 1.75 14 1.75H8C5.57397 1.75 4.07086 2.2398 3.15533 3.15533ZM2.09467 2.09467C3.42914 0.760201 5.42603 0.25 8 0.25H14C16.574 0.25 18.5709 0.760201 19.9053 2.09467C21.2398 3.42914 21.75 5.42603 21.75 8V14.0151C21.75 14.225 21.75 14.4753 21.7266 14.7211C21.6977 15.0243 21.4885 15.2799 21.197 15.368C20.9055 15.456 20.5897 15.3592 20.3977 15.1228C19.7156 14.2826 18.6769 13.75 17.5 13.75C16.617 13.75 15.8017 14.0577 15.1604 14.5742L15.1544 14.579C14.2915 15.2593 13.75 16.3138 13.75 17.5C13.75 18.1968 13.9492 18.8637 14.2923 19.4327L14.2931 19.4341C14.5181 19.8092 14.7995 20.1311 15.1285 20.3943C15.3671 20.5852 15.466 20.9016 15.3787 21.1944C15.2914 21.4871 15.0352 21.6976 14.7311 21.7266C14.4851 21.75 14.2345 21.75 14.0156 21.75H8C5.42603 21.75 3.42914 21.2398 2.09467 19.9053C0.760201 18.5709 0.25 16.574 0.25 14V8C0.25 5.42603 0.760201 3.42914 2.09467 2.09467Z" fill="#101010"/>
<path fill-rule="evenodd" clip-rule="evenodd" d="M0.769531 6.10999C0.769531 5.69577 1.10532 5.35999 1.51953 5.35999H20.4795C20.8937 5.35999 21.2295 5.69577 21.2295 6.10999C21.2295 6.5242 20.8937 6.85999 20.4795 6.85999H1.51953C1.10532 6.85999 0.769531 6.5242 0.769531 6.10999Z" fill="#101010"/>
<path fill-rule="evenodd" clip-rule="evenodd" d="M7.51953 0.359985C7.93374 0.359985 8.26953 0.695772 8.26953 1.10999V5.96997C8.26953 6.38418 7.93374 6.71997 7.51953 6.71997C7.10532 6.71997 6.76953 6.38418 6.76953 5.96997V1.10999C6.76953 0.695772 7.10532 0.359985 7.51953 0.359985Z" fill="#101010"/>
<path fill-rule="evenodd" clip-rule="evenodd" d="M14.4795 0.359985C14.8937 0.359985 15.2295 0.695772 15.2295 1.10999V5.52002C15.2295 5.93423 14.8937 6.27002 14.4795 6.27002C14.0653 6.27002 13.7295 5.93423 13.7295 5.52002V1.10999C13.7295 0.695772 14.0653 0.359985 14.4795 0.359985Z" fill="#101010"/>
<path fill-rule="evenodd" clip-rule="evenodd" d="M17.5 13.75C16.617 13.75 15.8017 14.0577 15.1604 14.5742L15.1544 14.579L15.1544 14.5789C14.2915 15.2593 13.75 16.3138 13.75 17.5C13.75 18.1968 13.9492 18.8637 14.2923 19.4327L14.2931 19.4341C14.5037 19.785 14.7635 20.0895 15.0657 20.3428C15.0948 20.3609 15.1228 20.3811 15.1494 20.4032C15.7885 20.9344 16.61 21.25 17.5 21.25C18.4506 21.25 19.3051 20.9013 19.9626 20.3187L19.9718 20.3105L19.9719 20.3106C20.2578 20.0655 20.5064 19.7683 20.7069 19.4341L20.7077 19.4327C21.0508 18.8637 21.25 18.1968 21.25 17.5C21.25 16.5973 20.9327 15.7664 20.4032 15.1294L20.3977 15.1228L20.3977 15.1228C19.7156 14.2826 18.6769 13.75 17.5 13.75ZM14.2226 13.4034C15.1208 12.6813 16.2644 12.25 17.5 12.25C19.1415 12.25 20.6016 12.9961 21.5596 14.174C22.3084 15.0765 22.75 16.2443 22.75 17.5C22.75 18.4829 22.4694 19.4156 21.9928 20.2064C21.7145 20.6702 21.3647 21.0914 20.9528 21.4454C20.0309 22.2604 18.8272 22.75 17.5 22.75C16.2844 22.75 15.1553 22.3297 14.2655 21.6179C14.2399 21.602 14.2152 21.5846 14.1915 21.5656C13.7206 21.1889 13.3219 20.7309 13.0069 20.2059L13.65 19.82L13.0077 20.2073C12.5308 19.4163 12.25 18.4832 12.25 17.5C12.25 15.8476 13.0072 14.3632 14.2226 13.4034Z" fill="#101010"/>
<path fill-rule="evenodd" clip-rule="evenodd" d="M19.8106 15.8807C20.0918 16.1848 20.0733 16.6593 19.7693 16.9406L17.3693 19.1606C17.0735 19.4341 16.6145 19.4252 16.3297 19.1403L15.2197 18.0303C14.9268 17.7374 14.9268 17.2626 15.2197 16.9697C15.5126 16.6768 15.9874 16.6768 16.2803 16.9697L16.8803 17.5696L18.7507 15.8394C19.0548 15.5582 19.5293 15.5767 19.8106 15.8807Z" fill="#101010"/>
</svg>
