<svg width="22" height="22" viewBox="0 0 22 22" fill="none" xmlns="http://www.w3.org/2000/svg">
<path fill-rule="evenodd" clip-rule="evenodd" d="M2.09467 2.09467C3.42914 0.760201 5.42603 0.25 8 0.25H14C16.574 0.25 18.5709 0.760201 19.9053 2.09467C21.2398 3.42914 21.75 5.42603 21.75 8V14C21.75 16.574 21.2398 18.5709 19.9053 19.9053C18.5709 21.2398 16.574 21.75 14 21.75H8C5.42603 21.75 3.42914 21.2398 2.09467 19.9053C0.760201 18.5709 0.25 16.574 0.25 14V8C0.25 5.42603 0.760201 3.42914 2.09467 2.09467ZM3.15533 3.15533C2.2398 4.07086 1.75 5.57397 1.75 8V14C1.75 16.426 2.2398 17.9291 3.15533 18.8447C4.07086 19.7602 5.57397 20.25 8 20.25H14C16.426 20.25 17.9291 19.7602 18.8447 18.8447C19.7602 17.9291 20.25 16.426 20.25 14V8C20.25 5.57397 19.7602 4.07086 18.8447 3.15533C17.9291 2.2398 16.426 1.75 14 1.75H8C5.57397 1.75 4.07086 2.2398 3.15533 3.15533Z" fill="#101010"/>
<path fill-rule="evenodd" clip-rule="evenodd" d="M5.88965 0.77002C6.30386 0.77002 6.63965 1.10581 6.63965 1.52002V20.48C6.63965 20.8942 6.30386 21.23 5.88965 21.23C5.47543 21.23 5.13965 20.8942 5.13965 20.48V1.52002C5.13965 1.10581 5.47543 0.77002 5.88965 0.77002Z" fill="#101010"/>
<path fill-rule="evenodd" clip-rule="evenodd" d="M15.8896 0.77002C16.3039 0.77002 16.6396 1.10581 16.6396 1.52002V20.48C16.6396 20.8942 16.3039 21.23 15.8896 21.23C15.4754 21.23 15.1396 20.8942 15.1396 20.48V1.52002C15.1396 1.10581 15.4754 0.77002 15.8896 0.77002Z" fill="#101010"/>
<path fill-rule="evenodd" clip-rule="evenodd" d="M0.790039 5.96997C0.790039 5.55576 1.12583 5.21997 1.54004 5.21997H5.89004C6.30425 5.21997 6.64004 5.55576 6.64004 5.96997C6.64004 6.38418 6.30425 6.71997 5.89004 6.71997H1.54004C1.12583 6.71997 0.790039 6.38418 0.790039 5.96997Z" fill="#101010"/>
<path fill-rule="evenodd" clip-rule="evenodd" d="M0.280273 11C0.280273 10.5858 0.61606 10.25 1.03027 10.25H5.89027C6.30449 10.25 6.64027 10.5858 6.64027 11C6.64027 11.4142 6.30449 11.75 5.89027 11.75H1.03027C0.61606 11.75 0.280273 11.4142 0.280273 11Z" fill="#101010"/>
<path fill-rule="evenodd" clip-rule="evenodd" d="M0.730469 15.97C0.730469 15.5558 1.06626 15.22 1.48047 15.22H5.89047C6.30468 15.22 6.64047 15.5558 6.64047 15.97C6.64047 16.3842 6.30468 16.72 5.89047 16.72H1.48047C1.06626 16.72 0.730469 16.3842 0.730469 15.97Z" fill="#101010"/>
<path fill-rule="evenodd" clip-rule="evenodd" d="M15.79 5.96997C15.79 5.55576 16.1258 5.21997 16.54 5.21997H20.89C21.3043 5.21997 21.64 5.55576 21.64 5.96997C21.64 6.38418 21.3043 6.71997 20.89 6.71997H16.54C16.1258 6.71997 15.79 6.38418 15.79 5.96997Z" fill="#101010"/>
<path fill-rule="evenodd" clip-rule="evenodd" d="M15.2803 11C15.2803 10.5858 15.6161 10.25 16.0303 10.25H20.8903C21.3045 10.25 21.6403 10.5858 21.6403 11C21.6403 11.4142 21.3045 11.75 20.8903 11.75H16.0303C15.6161 11.75 15.2803 11.4142 15.2803 11Z" fill="#101010"/>
<path fill-rule="evenodd" clip-rule="evenodd" d="M4.21973 11C4.21973 10.5858 4.55551 10.25 4.96973 10.25H15.9697C16.3839 10.25 16.7197 10.5858 16.7197 11C16.7197 11.4142 16.3839 11.75 15.9697 11.75H4.96973C4.55551 11.75 4.21973 11.4142 4.21973 11Z" fill="#101010"/>
<path fill-rule="evenodd" clip-rule="evenodd" d="M15.7305 15.97C15.7305 15.5558 16.0663 15.22 16.4805 15.22H20.8905C21.3047 15.22 21.6405 15.5558 21.6405 15.97C21.6405 16.3842 21.3047 16.72 20.8905 16.72H16.4805C16.0663 16.72 15.7305 16.3842 15.7305 15.97Z" fill="#101010"/>
</svg>
