<svg width="22" height="18" viewBox="0 0 22 18" fill="none" xmlns="http://www.w3.org/2000/svg">
<path fill-rule="evenodd" clip-rule="evenodd" d="M13.0127 0.773651C14.1746 1.41566 14.75 2.76902 14.75 4.4101V13.5901C14.75 15.2272 14.1741 16.5794 13.0135 17.2224C11.8526 17.8656 10.4007 17.6364 9.01172 16.7656C9.01168 16.7656 9.01176 16.7656 9.01172 16.7656L6.10012 14.9409C5.8875 14.8162 5.65132 14.7501 5.43 14.7501H4C2.88439 14.7501 1.90993 14.4707 1.21967 13.7804C0.52941 13.0902 0.25 12.1157 0.25 11.0001V7.0001C0.25 5.8845 0.52941 4.91003 1.21967 4.21977C1.90993 3.52951 2.88439 3.2501 4 3.2501H5.43C5.65133 3.2501 5.88751 3.18398 6.10014 3.05932L9.01159 1.23467C9.01164 1.23465 9.01155 1.2347 9.01159 1.23467C10.3994 0.364586 11.8512 0.131866 13.0127 0.773651ZM12.2873 2.08656C11.7838 1.80836 10.9406 1.79569 9.8084 2.50554L6.88065 4.3404L6.8729 4.345C6.44733 4.59768 5.94625 4.7501 5.43 4.7501H4C3.11561 4.7501 2.59007 4.97069 2.28033 5.28043C1.97059 5.59017 1.75 6.11571 1.75 7.0001V11.0001C1.75 11.8845 1.97059 12.41 2.28033 12.7198C2.59007 13.0295 3.11561 13.2501 4 13.2501H5.43C5.94625 13.2501 6.44733 13.4025 6.8729 13.6552L6.88065 13.6598L9.80828 15.4946C10.9393 16.2037 11.7825 16.1896 12.2865 15.9103C12.7909 15.6308 13.25 14.923 13.25 13.5901V4.4101C13.25 3.07119 12.7904 2.36455 12.2873 2.08656Z" fill="#101010"/>
<path fill-rule="evenodd" clip-rule="evenodd" d="M16.5496 4.40035C16.8808 4.1516 17.351 4.21844 17.5997 4.54964C19.5801 7.18647 19.5801 10.8136 17.5997 13.4504C17.351 13.7817 16.8808 13.8485 16.5496 13.5997C16.2184 13.351 16.1516 12.8808 16.4003 12.5496C17.9799 10.4465 17.9799 7.55362 16.4003 5.45045C16.1516 5.11925 16.2184 4.6491 16.5496 4.40035Z" fill="#101010"/>
<path fill-rule="evenodd" clip-rule="evenodd" d="M18.3799 1.90023C18.7111 1.65157 19.1813 1.71853 19.4299 2.04979C22.5202 6.16656 22.5202 11.8335 19.4299 15.9503C19.1813 16.2816 18.7111 16.3485 18.3799 16.0999C18.0486 15.8512 17.9816 15.3811 18.2303 15.0498C20.9201 11.4666 20.9201 6.53352 18.2303 2.95029C17.9816 2.61903 18.0486 2.1489 18.3799 1.90023Z" fill="#101010"/>
</svg>
