<svg width="22" height="18" viewBox="0 0 22 18" fill="none" xmlns="http://www.w3.org/2000/svg">
<path fill-rule="evenodd" clip-rule="evenodd" d="M13.0127 0.933075C14.1746 1.57508 14.75 2.92844 14.75 4.56953V13.7495C14.75 15.3866 14.1741 16.7388 13.0135 17.3818C11.8526 18.025 10.4007 17.7959 9.01172 16.925C9.01168 16.925 9.01176 16.9251 9.01172 16.925L6.10012 15.1003C5.8875 14.9756 5.65132 14.9095 5.43 14.9095H4C2.88439 14.9095 1.90993 14.6301 1.21967 13.9399C0.52941 13.2496 0.25 12.2751 0.25 11.1595V7.15953C0.25 6.04392 0.52941 5.06946 1.21967 4.3792C1.90993 3.68894 2.88439 3.40953 4 3.40953H5.43C5.65133 3.40953 5.88751 3.3434 6.10014 3.21874L9.01159 1.3941C9.01164 1.39407 9.01155 1.39412 9.01159 1.3941C10.3994 0.52401 11.8512 0.291289 13.0127 0.933075ZM12.2873 2.24598C11.7838 1.96779 10.9406 1.95511 9.8084 2.66496L6.88065 4.49982L6.8729 4.50442C6.44733 4.7571 5.94625 4.90953 5.43 4.90953H4C3.11561 4.90953 2.59007 5.13012 2.28033 5.43986C1.97059 5.7496 1.75 6.27514 1.75 7.15953V11.1595C1.75 12.0439 1.97059 12.5695 2.28033 12.8792C2.59007 13.1889 3.11561 13.4095 4 13.4095H5.43C5.94625 13.4095 6.44733 13.562 6.8729 13.8146L6.88065 13.8192L9.80828 15.654C10.9393 16.3631 11.7825 16.349 12.2865 16.0697C12.7909 15.7903 13.25 15.0825 13.25 13.7495V4.56953C13.25 3.23061 12.7904 2.52397 12.2873 2.24598Z" fill="#101010"/>
<path fill-rule="evenodd" clip-rule="evenodd" d="M16.5097 6.62909C16.8026 6.3362 17.2775 6.3362 17.5704 6.62909L21.5304 10.5891C21.8233 10.882 21.8233 11.3569 21.5304 11.6498C21.2375 11.9426 20.7626 11.9426 20.4697 11.6498L16.5097 7.68975C16.2168 7.39686 16.2168 6.92199 16.5097 6.62909Z" fill="#101010"/>
<path fill-rule="evenodd" clip-rule="evenodd" d="M21.4903 6.66913C21.7832 6.96203 21.7832 7.4369 21.4903 7.72979L17.5303 11.6898C17.2374 11.9827 16.7626 11.9827 16.4697 11.6898C16.1768 11.3969 16.1768 10.922 16.4697 10.6291L20.4297 6.66913C20.7226 6.37624 21.1974 6.37624 21.4903 6.66913Z" fill="#101010"/>
</svg>
