<svg width="22" height="22" viewBox="0 0 22 22" fill="none" xmlns="http://www.w3.org/2000/svg">
<path fill-rule="evenodd" clip-rule="evenodd" d="M13.0127 2.77365C14.1746 3.41566 14.75 4.76902 14.75 6.4101V7.3701C14.75 7.78432 14.4142 8.1201 14 8.1201C13.5858 8.1201 13.25 7.78432 13.25 7.3701V6.4101C13.25 5.07119 12.7904 4.36455 12.2873 4.08656C11.7838 3.80836 10.9406 3.79569 9.8084 4.50554L6.88828 6.33561L6.8729 6.345C6.44733 6.59768 5.94625 6.7501 5.43 6.7501H4C3.11561 6.7501 2.59007 6.97069 2.28033 7.28043C1.97059 7.59017 1.75 8.11571 1.75 9.0001V13.0001C1.75 13.8845 1.97059 14.41 2.28033 14.7198C2.59007 15.0295 3.11561 15.2501 4 15.2501H6C6.41421 15.2501 6.75 15.5859 6.75 16.0001C6.75 16.4143 6.41421 16.7501 6 16.7501H4C2.88439 16.7501 1.90993 16.4707 1.21967 15.7804C0.52941 15.0902 0.25 14.1157 0.25 13.0001V9.0001C0.25 7.8845 0.52941 6.91003 1.21967 6.21977C1.90993 5.52951 2.88439 5.2501 4 5.2501H5.43C5.65133 5.2501 5.88751 5.18398 6.10014 5.05932L9.01159 3.23467C9.01164 3.23465 9.01155 3.2347 9.01159 3.23467C10.3994 2.36459 11.8512 2.13187 13.0127 2.77365Z" fill="#101010"/>
<path fill-rule="evenodd" clip-rule="evenodd" d="M14.0003 11.2C14.4145 11.2 14.7503 11.5357 14.7503 11.95V15.59C14.7503 17.227 14.1743 18.5792 13.0137 19.2222C11.8528 19.8655 10.4009 19.6363 9.01185 18.7654C8.66091 18.5453 8.55479 18.0825 8.77482 17.7315C8.99486 17.3806 9.45772 17.2745 9.80866 17.4945C10.9396 18.2036 11.7827 18.1894 12.2868 17.9102C12.7912 17.6307 13.2503 16.9229 13.2503 15.59V11.95C13.2503 11.5357 13.586 11.2 14.0003 11.2Z" fill="#101010"/>
<path fill-rule="evenodd" clip-rule="evenodd" d="M17.5204 7.72829C17.9025 7.56834 18.3419 7.74843 18.5019 8.13051C19.5022 10.5203 19.2033 13.3125 17.6 15.4501C17.3515 15.7815 16.8814 15.8486 16.55 15.6001C16.2187 15.3516 16.1515 14.8815 16.4 14.5501C17.6768 12.8478 17.9179 10.62 17.1182 8.70972C16.9583 8.32763 17.1384 7.88823 17.5204 7.72829Z" fill="#101010"/>
<path fill-rule="evenodd" clip-rule="evenodd" d="M19.859 6.10881C20.2407 5.94802 20.6805 6.12713 20.8413 6.50887C22.413 10.2403 21.9429 14.6032 19.4299 17.9503C19.1812 18.2815 18.7111 18.3485 18.3798 18.0998C18.0486 17.8511 17.9817 17.3809 18.2304 17.0497C20.4173 14.1368 20.8273 10.3397 19.4589 7.09113C19.2981 6.7094 19.4773 6.2696 19.859 6.10881Z" fill="#101010"/>
<path fill-rule="evenodd" clip-rule="evenodd" d="M21.5303 0.46967C21.8232 0.762563 21.8232 1.23744 21.5303 1.53033L1.53033 21.5303C1.23744 21.8232 0.762563 21.8232 0.46967 21.5303C0.176777 21.2374 0.176777 20.7626 0.46967 20.4697L20.4697 0.46967C20.7626 0.176777 21.2374 0.176777 21.5303 0.46967Z" fill="#101010"/>
</svg>
