<svg width="22" height="21" viewBox="0 0 22 21" fill="none" xmlns="http://www.w3.org/2000/svg">
<path fill-rule="evenodd" clip-rule="evenodd" d="M2.60156 14.1104C3.01578 14.1104 3.35156 14.4461 3.35156 14.8604C3.35156 16.021 4.4539 17.0504 6.18158 17.0504C7.89596 17.0504 9.00159 16.0136 9.00159 14.8604C9.00159 14.4461 9.33737 14.1104 9.75159 14.1104C10.1658 14.1104 10.5016 14.4461 10.5016 14.8604V16.8904C10.5016 19.119 8.46465 20.7504 6.18158 20.7504C3.9014 20.7504 1.85156 19.1215 1.85156 16.8904V14.8604C1.85156 14.4461 2.18735 14.1104 2.60156 14.1104ZM3.60511 17.856C4.03545 18.6474 4.98028 19.2504 6.18158 19.2504C7.38358 19.2504 8.32568 18.6459 8.7524 17.8515C8.01279 18.3034 7.10857 18.5504 6.18158 18.5504C5.2522 18.5504 4.34616 18.3059 3.60511 17.856Z" fill="#101010"/>
<path fill-rule="evenodd" clip-rule="evenodd" d="M6.15979 9.76001C5.3414 9.76001 4.62994 10.0405 4.12431 10.4839L4.1237 10.4844C3.62368 10.9219 3.33984 11.4948 3.33984 12.11C3.33984 12.4644 3.43771 12.7908 3.61085 13.0807C4.0383 13.7729 4.97611 14.3 6.1698 14.3C7.3683 14.3 8.30252 13.7796 8.72786 13.0821C8.90158 12.7919 8.99982 12.465 8.99982 12.11C8.99982 11.493 8.71501 10.9173 8.20968 10.4961L8.20022 10.4883L8.20029 10.4882C7.68852 10.0473 6.97289 9.76001 6.15979 9.76001ZM3.13533 9.35609C3.92971 8.65948 4.99818 8.26001 6.15979 8.26001C7.3244 8.26001 8.38694 8.67107 9.17471 9.34778C9.98664 10.0265 10.4998 11.0091 10.4998 12.11C10.4998 12.7542 10.3185 13.3466 10.0129 13.8558L10.0106 13.8597L10.0106 13.8597C9.25538 15.1013 7.7702 15.8 6.1698 15.8C4.56544 15.8 3.08433 15.0887 2.33082 13.8627L2.32663 13.8559L2.32667 13.8558C2.02108 13.3465 1.83984 12.7541 1.83984 12.11C1.83984 11.0052 2.35597 10.038 3.13594 9.35555L3.62982 9.91998L3.13533 9.35609Z" fill="#101010"/>
<path fill-rule="evenodd" clip-rule="evenodd" d="M6.18158 9.75C4.51321 9.75 3.35156 10.8998 3.35156 12.11V14.86C3.35156 16.0109 4.46426 17.05 6.18158 17.05C7.89779 17.05 9.00159 16.0218 9.00159 14.86V12.11C9.00159 11.493 8.71628 10.9116 8.21991 10.4763C7.70829 10.0365 6.99354 9.75 6.18158 9.75ZM1.85156 12.11C1.85156 9.88014 3.88995 8.25 6.18158 8.25C7.34848 8.25 8.41291 8.66268 9.20114 9.34177L9.2055 9.34552L9.20549 9.34554C9.98777 10.03 10.5016 11.0079 10.5016 12.11V14.86C10.5016 17.1382 8.40537 18.55 6.18158 18.55C3.9589 18.55 1.85156 17.1291 1.85156 14.86V12.11Z" fill="#101010"/>
<path fill-rule="evenodd" clip-rule="evenodd" d="M17.9202 8.69995C17.5612 8.69995 17.2454 8.83917 17.0176 9.07314L17.0041 9.08661C16.7381 9.34632 16.5895 9.7161 16.6269 10.1088L16.6277 10.1176L16.6277 10.1176C16.6806 10.7526 17.2911 11.2999 18.0402 11.2999H19.983C20.1447 11.2895 20.2502 11.1631 20.2502 11.03V8.96991C20.2502 8.83679 20.1447 8.71038 19.983 8.69995H17.9202ZM15.9495 8.0199C16.4612 7.49809 17.1626 7.19995 17.9202 7.19995H20.0002C20.0092 7.19995 20.0181 7.20011 20.027 7.20043C20.98 7.23446 21.7502 8.00564 21.7502 8.96991V11.03C21.7502 11.9942 20.98 12.7654 20.027 12.7994C20.0181 12.7998 20.0092 12.7999 20.0002 12.7999H18.0402C16.6307 12.7999 15.2626 11.7692 15.1332 10.2466C15.0525 9.38445 15.3807 8.57899 15.9495 8.0199Z" fill="#101010"/>
<path fill-rule="evenodd" clip-rule="evenodd" d="M6 2.25C5.75575 2.25 5.52398 2.26744 5.30405 2.30128L5.28339 2.30416C4.17606 2.44312 3.30559 2.91721 2.70955 3.61651C2.11197 4.31761 1.75 5.29287 1.75 6.5V8.5C1.75 8.91421 1.41421 9.25 1 9.25C0.585786 9.25 0.25 8.91421 0.25 8.5V6.5C0.25 4.98713 0.708031 3.65239 1.56796 2.64349C2.42737 1.63519 3.64812 0.999902 5.08633 0.817133C5.38313 0.772038 5.68789 0.75 6 0.75H15C15.2697 0.75 15.5608 0.759753 15.8545 0.807109C17.305 0.979744 18.5395 1.6109 19.4103 2.62C20.2833 3.63163 20.75 4.9753 20.75 6.5V7.95001C20.75 8.36423 20.4142 8.70001 20 8.70001H17.92C17.5609 8.70001 17.2451 8.83923 17.0173 9.0732L17.0039 9.08667C16.7378 9.34638 16.5892 9.71616 16.6266 10.1089L16.6275 10.1177L16.6274 10.1177C16.6803 10.7527 17.2909 11.3 18.04 11.3H20C20.4142 11.3 20.75 11.6358 20.75 12.05V13.5C20.75 15.1704 20.1899 16.6207 19.1553 17.6553C18.1207 18.6899 16.6704 19.25 15 19.25H12.5C12.0858 19.25 11.75 18.9142 11.75 18.5C11.75 18.0858 12.0858 17.75 12.5 17.75H15C16.3296 17.75 17.3793 17.3101 18.0947 16.5947C18.8101 15.8793 19.25 14.8296 19.25 13.5V12.8H18.04C16.6304 12.8 15.2623 11.7693 15.133 10.2467C15.0522 9.3845 15.3805 8.57904 15.9493 8.01995C16.4609 7.49815 17.1623 7.20001 17.92 7.20001H19.25V6.5C19.25 5.2847 18.8817 4.30336 18.2747 3.59999C17.6691 2.89822 16.7851 2.42541 15.6634 2.29497C15.6511 2.29354 15.6389 2.29181 15.6267 2.28978C15.4468 2.2598 15.2446 2.25 15 2.25H6Z" fill="#101010"/>
</svg>
