<svg width="23" height="23" viewBox="0 0 23 23" fill="none" xmlns="http://www.w3.org/2000/svg">
<path fill-rule="evenodd" clip-rule="evenodd" d="M7 6.75C6.75575 6.75 6.52398 6.76744 6.30405 6.80128L6.28339 6.80416C5.17606 6.94312 4.30559 7.41721 3.70955 8.11651C3.11197 8.81761 2.75 9.79287 2.75 11V13.818C3.4178 13.4568 4.18354 13.25 5 13.25C7.62421 13.25 9.75 15.3758 9.75 18C9.75 18.8077 9.54482 19.5787 9.17686 20.25H17C18.3296 20.25 19.3793 19.8101 20.0947 19.0947C20.8101 18.3793 21.25 17.3296 21.25 16V11C21.25 9.7847 20.8817 8.80336 20.2747 8.09999C19.6691 7.39822 18.7851 6.92541 17.6634 6.79497C17.6511 6.79354 17.6389 6.79181 17.6267 6.78978C17.4468 6.7598 17.2446 6.75 17 6.75H7ZM6.08633 5.31713C6.38313 5.27204 6.68789 5.25 7 5.25H17C17.2697 5.25 17.5608 5.25975 17.8545 5.30711C19.305 5.47974 20.5395 6.1109 21.4103 7.12C22.2833 8.13163 22.75 9.4753 22.75 11V16C22.75 17.6704 22.1899 19.1207 21.1553 20.1553C20.1207 21.1899 18.6704 21.75 17 21.75H7.63C7.31467 21.75 7.03302 21.5528 6.92521 21.2564C6.81739 20.9601 6.90644 20.628 7.14805 20.4254C7.39098 20.2216 7.60513 19.9684 7.77215 19.6821L7.7816 19.6663C8.07947 19.1833 8.25 18.6094 8.25 18C8.25 16.2042 6.79579 14.75 5 14.75C4.02649 14.75 3.15813 15.1788 2.56317 15.8553C2.35705 16.0897 2.02733 16.1719 1.73531 16.0617C1.44329 15.9516 1.25 15.6721 1.25 15.36V11C1.25 9.48713 1.70803 8.15239 2.56796 7.14349C3.42737 6.13519 4.64812 5.4999 6.08633 5.31713Z" fill="#101010"/>
<path fill-rule="evenodd" clip-rule="evenodd" d="M10.5512 2.55094L7.8604 5.24998H16.8232C16.6906 4.91445 16.4853 4.60009 16.2052 4.32445L16.198 4.31733L14.4507 2.54995C13.3734 1.48302 11.628 1.48336 10.5512 2.55094ZM6.2411 4.74968L9.49304 1.48773C11.1555 -0.162581 13.8473 -0.162573 15.5098 1.48773L15.5147 1.49267L17.2613 3.25921C18.0351 4.02274 18.4517 4.99995 18.5005 6.01387C18.5115 6.24039 18.4193 6.45969 18.2498 6.6104C18.0804 6.76111 17.8518 6.82705 17.6281 6.78977C17.4482 6.75979 17.246 6.74998 17.0014 6.74998H7.00141C6.75715 6.74998 6.52538 6.76743 6.30545 6.80126C6.02831 6.8439 5.75052 6.72837 5.58534 6.50178C5.42017 6.27519 5.39519 5.97538 5.52059 5.72457C5.70467 5.35642 5.95869 5.03216 6.2411 4.74968C6.24096 4.74982 6.24123 4.74955 6.2411 4.74968Z" fill="#101010"/>
<path fill-rule="evenodd" clip-rule="evenodd" d="M16.25 13.5C16.25 11.9858 17.4858 10.75 19 10.75H22C22.4142 10.75 22.75 11.0858 22.75 11.5C22.75 11.9142 22.4142 12.25 22 12.25H19C18.3142 12.25 17.75 12.8142 17.75 13.5C17.75 14.1858 18.3142 14.75 19 14.75H22C22.4142 14.75 22.75 15.0858 22.75 15.5C22.75 15.9142 22.4142 16.25 22 16.25H19C17.4858 16.25 16.25 15.0142 16.25 13.5Z" fill="#101010"/>
<path fill-rule="evenodd" clip-rule="evenodd" d="M2.56404 15.8543C2.05613 16.4364 1.75 17.1833 1.75 18C1.75 18.6094 1.92053 19.1833 2.2184 19.6663L2.22469 19.6765L2.2246 19.6766C2.78441 20.6177 3.81413 21.25 5 21.25C5.82269 21.25 6.56449 20.9499 7.12828 20.4425C7.13477 20.4367 7.14136 20.431 7.14805 20.4254C7.39098 20.2216 7.60513 19.9684 7.77215 19.6821L7.7816 19.6663C8.07947 19.1833 8.25 18.6094 8.25 18C8.25 16.2042 6.79579 14.75 5 14.75C4.02696 14.75 3.15897 15.1784 2.56404 15.8543ZM1.43683 14.8647C2.30187 13.8811 3.57351 13.25 5 13.25C7.62421 13.25 9.75 15.3758 9.75 18C9.75 18.8874 9.5023 19.7306 9.06316 20.4459C8.81311 20.8725 8.49253 21.2534 8.12204 21.5662C7.28705 22.3134 6.19269 22.75 5 22.75C3.26803 22.75 1.75938 21.8246 0.938497 20.4486C0.498325 19.7327 0.25 18.8885 0.25 18C0.25 16.7971 0.703512 15.7044 1.43507 14.8667L1.43683 14.8647L1.43683 14.8647Z" fill="#101010"/>
<path fill-rule="evenodd" clip-rule="evenodd" d="M3.4311 16.3997C3.72399 16.1068 4.19886 16.1068 4.49176 16.3997L6.60174 18.5096C6.89463 18.8025 6.89463 19.2774 6.60174 19.5703C6.30885 19.8632 5.83397 19.8632 5.54108 19.5703L3.4311 17.4603C3.1382 17.1674 3.1382 16.6926 3.4311 16.3997Z" fill="#101010"/>
<path fill-rule="evenodd" clip-rule="evenodd" d="M6.57049 16.4297C6.86338 16.7226 6.86338 17.1975 6.57049 17.4904L4.46051 19.6003C4.16761 19.8932 3.69274 19.8932 3.39985 19.6003C3.10695 19.3074 3.10695 18.8326 3.39985 18.5397L5.50983 16.4297C5.80272 16.1368 6.2776 16.1368 6.57049 16.4297Z" fill="#101010"/>
</svg>
