<svg width="20" height="22" viewBox="0 0 20 22" fill="none" xmlns="http://www.w3.org/2000/svg">
<path fill-rule="evenodd" clip-rule="evenodd" d="M10 6C10.4142 6 10.75 6.33579 10.75 6.75V12C10.75 12.4142 10.4142 12.75 10 12.75C9.58579 12.75 9.25 12.4142 9.25 12V6.75C9.25 6.33579 9.58579 6 10 6Z" fill="#101010"/>
<path fill-rule="evenodd" clip-rule="evenodd" d="M11.1967 2.07041C10.4464 1.64226 9.53148 1.64443 8.79515 2.06953L2.85788 5.49794C2.11595 5.93498 1.66016 6.72968 1.66016 7.58003V14.42C1.66016 15.2836 2.11854 16.0753 2.85515 16.5005L8.79227 19.9289C8.79275 19.9291 8.79322 19.9294 8.7937 19.9297C9.54403 20.3578 10.4588 20.3556 11.1951 19.9305C11.1952 19.9305 11.1951 19.9306 11.1951 19.9305L17.1302 16.5034C17.131 16.503 17.1318 16.5025 17.1325 16.5021C17.8744 16.065 18.3302 15.2703 18.3302 14.42V7.58003C18.3302 6.721 17.8755 5.93563 17.1325 5.49794C17.1317 5.4975 17.131 5.49706 17.1302 5.49661L11.1981 2.07118C11.1976 2.07092 11.1972 2.07066 11.1967 2.07041ZM8.04518 0.770472C9.2484 0.075828 10.7329 0.0777421 11.9423 0.768818L11.9452 0.770499L17.8902 4.20335C19.0858 4.90592 19.8302 6.17993 19.8302 7.58003V14.42C19.8302 15.8088 19.0869 17.0934 17.8902 17.7967L17.8852 17.7996L11.9452 21.2295C10.742 21.9242 9.25744 21.9223 8.04806 21.2312L8.04512 21.2295L2.10518 17.7996C0.901787 17.1048 0.160156 15.8164 0.160156 14.42V7.58003C0.160156 6.19125 0.903449 4.90661 2.10019 4.20337L2.10511 4.20048L8.04518 0.770472Z" fill="#101010"/>
<path fill-rule="evenodd" clip-rule="evenodd" d="M10 14.2C10.5523 14.2 11 14.6477 11 15.2V15.2999C11 15.8522 10.5523 16.2999 10 16.2999C9.44772 16.2999 9 15.8522 9 15.2999V15.2C9 14.6477 9.44772 14.2 10 14.2Z" fill="#101010"/>
</svg>
