<svg width="24" height="14" viewBox="0 0 24 14" fill="none" xmlns="http://www.w3.org/2000/svg">
<path fill-rule="evenodd" clip-rule="evenodd" d="M14.2019 1.40307C14.8403 0.631635 15.84 0.25 17.1797 0.25C18.5194 0.25 19.5191 0.631635 20.1575 1.40307C20.7721 2.14568 20.9297 3.10784 20.9297 4V10C20.9297 10.8922 20.7721 11.8543 20.1575 12.5969C19.5191 13.3684 18.5194 13.75 17.1797 13.75C15.84 13.75 14.8403 13.3684 14.2019 12.5969C13.5873 11.8543 13.4297 10.8922 13.4297 10V4C13.4297 3.10784 13.5873 2.14568 14.2019 1.40307ZM15.3575 2.35943C15.0721 2.70432 14.9297 3.24216 14.9297 4V10C14.9297 10.7578 15.0721 11.2957 15.3575 11.6406C15.6191 11.9566 16.1194 12.25 17.1797 12.25C18.24 12.25 18.7403 11.9566 19.0019 11.6406C19.2873 11.2957 19.4297 10.7578 19.4297 10V4C19.4297 3.24216 19.2873 2.70432 19.0019 2.35943C18.7403 2.04336 18.24 1.75 17.1797 1.75C16.1194 1.75 15.6191 2.04336 15.3575 2.35943Z" fill="#101010"/>
<path fill-rule="evenodd" clip-rule="evenodd" d="M4.99811 2.35943C4.71268 2.70432 4.57031 3.24216 4.57031 4V10C4.57031 10.7578 4.71268 11.2957 4.99811 11.6406C5.25968 11.9566 5.76003 12.25 6.82031 12.25C7.8806 12.25 8.38095 11.9566 8.64252 11.6406C8.92795 11.2957 9.07031 10.7578 9.07031 10V4C9.07031 3.24216 8.92795 2.70432 8.64252 2.35943C8.38095 2.04336 7.8806 1.75 6.82031 1.75C5.76003 1.75 5.25968 2.04336 4.99811 2.35943ZM3.84252 1.40307C4.48095 0.631635 5.4806 0.25 6.82031 0.25C8.16003 0.25 9.15968 0.631635 9.79811 1.40307C10.4127 2.14568 10.5703 3.10784 10.5703 4V10C10.5703 10.8922 10.4127 11.8543 9.79811 12.5969C9.15968 13.3684 8.16003 13.75 6.82031 13.75C5.4806 13.75 4.48095 13.3684 3.84252 12.5969C3.22795 11.8543 3.07031 10.8922 3.07031 10V4C3.07031 3.10784 3.22795 2.14568 3.84252 1.40307Z" fill="#101010"/>
<path fill-rule="evenodd" clip-rule="evenodd" d="M9.07031 7C9.07031 6.58579 9.4061 6.25 9.82031 6.25H14.1803C14.5945 6.25 14.9303 6.58579 14.9303 7C14.9303 7.41421 14.5945 7.75 14.1803 7.75H9.82031C9.4061 7.75 9.07031 7.41421 9.07031 7Z" fill="#101010"/>
<path fill-rule="evenodd" clip-rule="evenodd" d="M22.5 3.75C22.9142 3.75 23.25 4.08579 23.25 4.5V9.5C23.25 9.91421 22.9142 10.25 22.5 10.25C22.0858 10.25 21.75 9.91421 21.75 9.5V4.5C21.75 4.08579 22.0858 3.75 22.5 3.75Z" fill="#101010"/>
<path fill-rule="evenodd" clip-rule="evenodd" d="M1.5 3.75C1.91421 3.75 2.25 4.08579 2.25 4.5V9.5C2.25 9.91421 1.91421 10.25 1.5 10.25C1.08579 10.25 0.75 9.91421 0.75 9.5V4.5C0.75 4.08579 1.08579 3.75 1.5 3.75Z" fill="#101010"/>
</svg>
