<svg width="22" height="16" viewBox="0 0 22 16" fill="none" xmlns="http://www.w3.org/2000/svg">
<path fill-rule="evenodd" clip-rule="evenodd" d="M17.6418 8.43374C13.6119 5.32222 8.39853 5.32222 4.36854 8.43374C4.04068 8.68688 3.56969 8.62631 3.31655 8.29845C3.06341 7.97059 3.12398 7.49959 3.45184 7.24645C8.02185 3.71798 13.9885 3.71798 18.5585 7.24645C18.8864 7.49959 18.947 7.97059 18.6938 8.29845C18.4407 8.62631 17.9697 8.68688 17.6418 8.43374Z" fill="#101010"/>
<path fill-rule="evenodd" clip-rule="evenodd" d="M20.5416 4.95369C14.7517 0.482233 7.24842 0.482233 1.45845 4.95369C1.13062 5.20687 0.659621 5.14635 0.406443 4.81852C0.153266 4.49068 0.213786 4.01968 0.541618 3.7665C6.87165 -1.12204 15.1284 -1.12204 21.4585 3.7665C21.7863 4.01968 21.8468 4.49068 21.5936 4.81852C21.3405 5.14635 20.8694 5.20687 20.5416 4.95369Z" fill="#101010"/>
<path fill-rule="evenodd" clip-rule="evenodd" d="M15.7408 12.0831C12.8612 9.85251 9.12898 9.85251 6.24936 12.0831C5.92189 12.3367 5.4508 12.2769 5.19715 11.9494C4.9435 11.622 5.00333 11.1509 5.33079 10.8972C8.75117 8.2478 13.239 8.2478 16.6594 10.8972C16.9868 11.1509 17.0467 11.622 16.793 11.9494C16.5393 12.2769 16.0683 12.3367 15.7408 12.0831Z" fill="#101010"/>
<path fill-rule="evenodd" clip-rule="evenodd" d="M13.1521 15.7437C11.8421 14.7322 10.1688 14.7322 8.8588 15.7437C8.53095 15.9969 8.05995 15.9363 7.8068 15.6085C7.55365 15.2806 7.6142 14.8096 7.94206 14.5565C9.79207 13.128 12.2188 13.128 14.0688 14.5565C14.3967 14.8096 14.4572 15.2806 14.2041 15.6085C13.9509 15.9363 13.4799 15.9969 13.1521 15.7437Z" fill="#101010"/>
</svg>
