<svg width="22" height="22" viewBox="0 0 22 22" fill="none" xmlns="http://www.w3.org/2000/svg">
<path fill-rule="evenodd" clip-rule="evenodd" d="M16.5409 9.55311C13.1812 6.95235 8.81883 6.95235 5.45913 9.55311C5.13159 9.80666 4.66052 9.74668 4.40697 9.41914C4.15342 9.09159 4.2134 8.62052 4.54094 8.36697C8.44124 5.34773 13.5588 5.34773 17.4591 8.36697C17.7867 8.62052 17.8467 9.09159 17.5931 9.41914C17.3396 9.74668 16.8685 9.80666 16.5409 9.55311Z" fill="#101010"/>
<path fill-rule="evenodd" clip-rule="evenodd" d="M14.9515 12.6439C12.5514 10.7922 9.45786 10.7922 7.05779 12.6439C6.72984 12.897 6.25886 12.8362 6.00584 12.5083C5.75281 12.1803 5.81355 11.7093 6.1415 11.4563C9.08143 9.18806 12.9279 9.18806 15.8678 11.4563C16.1957 11.7093 16.2565 12.1803 16.0035 12.5083C15.7504 12.8362 15.2795 12.897 14.9515 12.6439Z" fill="#101010"/>
<path fill-rule="evenodd" clip-rule="evenodd" d="M12.7406 15.7329C11.681 14.9123 10.3187 14.9123 9.25906 15.7329C8.93157 15.9865 8.46049 15.9266 8.20687 15.5992C7.95325 15.2717 8.01313 14.8006 8.34062 14.547C9.94097 13.3076 12.0587 13.3076 13.6591 14.547C13.9865 14.8006 14.0464 15.2717 13.7928 15.5992C13.5392 15.9266 13.0681 15.9865 12.7406 15.7329Z" fill="#101010"/>
<path fill-rule="evenodd" clip-rule="evenodd" d="M2.09467 2.09467C3.42914 0.760201 5.42603 0.25 8 0.25H14C16.574 0.25 18.5709 0.760201 19.9053 2.09467C21.2398 3.42914 21.75 5.42603 21.75 8V14C21.75 16.574 21.2398 18.5709 19.9053 19.9053C18.5709 21.2398 16.574 21.75 14 21.75H8C5.42603 21.75 3.42914 21.2398 2.09467 19.9053C0.760201 18.5709 0.25 16.574 0.25 14V8C0.25 5.42603 0.760201 3.42914 2.09467 2.09467ZM3.15533 3.15533C2.2398 4.07086 1.75 5.57397 1.75 8V14C1.75 16.426 2.2398 17.9291 3.15533 18.8447C4.07086 19.7602 5.57397 20.25 8 20.25H14C16.426 20.25 17.9291 19.7602 18.8447 18.8447C19.7602 17.9291 20.25 16.426 20.25 14V8C20.25 5.57397 19.7602 4.07086 18.8447 3.15533C17.9291 2.2398 16.426 1.75 14 1.75H8C5.57397 1.75 4.07086 2.2398 3.15533 3.15533Z" fill="#101010"/>
</svg>
