<svg width="22" height="21" viewBox="0 0 22 21" fill="none" xmlns="http://www.w3.org/2000/svg">
<path fill-rule="evenodd" clip-rule="evenodd" d="M0.25 13C0.25 12.5858 0.585786 12.25 1 12.25H17.5C19.8442 12.25 21.75 14.1558 21.75 16.5C21.75 18.8442 19.8442 20.75 17.5 20.75C15.1558 20.75 13.25 18.8442 13.25 16.5V16C13.25 15.5858 13.5858 15.25 14 15.25C14.4142 15.25 14.75 15.5858 14.75 16V16.5C14.75 18.0158 15.9842 19.25 17.5 19.25C19.0158 19.25 20.25 18.0158 20.25 16.5C20.25 14.9842 19.0158 13.75 17.5 13.75H1C0.585786 13.75 0.25 13.4142 0.25 13Z" fill="#101010"/>
<path fill-rule="evenodd" clip-rule="evenodd" d="M13.25 6.5C13.25 4.15439 15.1672 2.25 17.5 2.25C19.8342 2.25 21.75 4.16579 21.75 6.5C21.75 8.84561 19.8328 10.75 17.5 10.75H1C0.585786 10.75 0.25 10.4142 0.25 10C0.25 9.58579 0.585786 9.25 1 9.25H17.5C19.0072 9.25 20.25 8.01439 20.25 6.5C20.25 4.99421 19.0058 3.75 17.5 3.75C15.9928 3.75 14.75 4.98561 14.75 6.5V7C14.75 7.41421 14.4142 7.75 14 7.75C13.5858 7.75 13.25 7.41421 13.25 7V6.5Z" fill="#101010"/>
<path fill-rule="evenodd" clip-rule="evenodd" d="M4.87 4.31C4.87 2.4176 6.40397 0.869995 8.31 0.869995C10.2024 0.869995 11.75 2.40397 11.75 4.31C11.75 6.20239 10.216 7.75 8.31 7.75H1C0.585786 7.75 0.25 7.41421 0.25 7C0.25 6.58578 0.585786 6.25 1 6.25H8.31C9.38397 6.25 10.25 5.3776 10.25 4.31C10.25 3.23602 9.3776 2.37 8.31 2.37C7.23602 2.37 6.37 3.24239 6.37 4.31V4.69C6.37 5.10421 6.03421 5.44 5.62 5.44C5.20578 5.44 4.87 5.10421 4.87 4.69V4.31Z" fill="#101010"/>
</svg>
