<svg width="24" height="18" viewBox="0 0 24 18" fill="none" xmlns="http://www.w3.org/2000/svg">
<path fill-rule="evenodd" clip-rule="evenodd" d="M3 2.75C2.30964 2.75 1.75 3.30964 1.75 4C1.75 4.69036 2.30964 5.25 3 5.25C3.69036 5.25 4.25 4.69036 4.25 4C4.25 3.30964 3.69036 2.75 3 2.75ZM0.25 4C0.25 2.48122 1.48122 1.25 3 1.25C4.51878 1.25 5.75 2.48122 5.75 4C5.75 5.51878 4.51878 6.75 3 6.75C1.48122 6.75 0.25 5.51878 0.25 4Z" fill="#101010"/>
<path fill-rule="evenodd" clip-rule="evenodd" d="M21 2.75C20.3096 2.75 19.75 3.30964 19.75 4C19.75 4.69036 20.3096 5.25 21 5.25C21.6904 5.25 22.25 4.69036 22.25 4C22.25 3.30964 21.6904 2.75 21 2.75ZM18.25 4C18.25 2.48122 19.4812 1.25 21 1.25C22.5188 1.25 23.75 2.48122 23.75 4C23.75 5.51878 22.5188 6.75 21 6.75C19.4812 6.75 18.25 5.51878 18.25 4Z" fill="#101010"/>
<path fill-rule="evenodd" clip-rule="evenodd" d="M14.25 4C14.25 3.58579 14.5858 3.25 15 3.25H19C19.4142 3.25 19.75 3.58579 19.75 4C19.75 4.41421 19.4142 4.75 19 4.75H15C14.5858 4.75 14.25 4.41421 14.25 4Z" fill="#101010"/>
<path fill-rule="evenodd" clip-rule="evenodd" d="M4.25 4C4.25 3.58579 4.58579 3.25 5 3.25H9C9.41421 3.25 9.75 3.58579 9.75 4C9.75 4.41421 9.41421 4.75 9 4.75H5C4.58579 4.75 4.25 4.41421 4.25 4Z" fill="#101010"/>
<path fill-rule="evenodd" clip-rule="evenodd" d="M4 12.75C3.58421 12.75 3.25 13.0842 3.25 13.5V15.5C3.25 15.9158 3.58421 16.25 4 16.25H6C6.09967 16.25 6.19055 16.2288 6.28894 16.1822C6.29846 16.1777 6.30807 16.1734 6.31777 16.1693C6.56332 16.0654 6.75 15.8054 6.75 15.5V13.5C6.75 13.0842 6.41579 12.75 6 12.75H4ZM1.75 13.5C1.75 12.2558 2.75579 11.25 4 11.25H6C7.24421 11.25 8.25 12.2558 8.25 13.5V15.5C8.25 16.4089 7.70351 17.2047 6.91696 17.5444C6.63914 17.6738 6.33466 17.75 6 17.75H4C2.75579 17.75 1.75 16.7442 1.75 15.5V13.5Z" fill="#101010"/>
<path fill-rule="evenodd" clip-rule="evenodd" d="M18 12.75C17.5842 12.75 17.25 13.0842 17.25 13.5V15.5C17.25 15.8054 17.4367 16.0654 17.6822 16.1693C17.6919 16.1734 17.7015 16.1777 17.7111 16.1822C17.8095 16.2288 17.9003 16.25 18 16.25H20C20.4158 16.25 20.75 15.9158 20.75 15.5V13.5C20.75 13.0842 20.4158 12.75 20 12.75H18ZM15.75 13.5C15.75 12.2558 16.7558 11.25 18 11.25H20C21.2442 11.25 22.25 12.2558 22.25 13.5V15.5C22.25 16.7442 21.2442 17.75 20 17.75H18C17.6653 17.75 17.3609 17.6738 17.083 17.5444C16.2965 17.2047 15.75 16.4089 15.75 15.5V13.5Z" fill="#101010"/>
<path fill-rule="evenodd" clip-rule="evenodd" d="M10.5 1.75C10.0942 1.75 9.75 2.09421 9.75 2.5V5.5C9.75 5.90579 10.0942 6.25 10.5 6.25H13.5C13.9058 6.25 14.25 5.90579 14.25 5.5V2.5C14.25 2.09421 13.9058 1.75 13.5 1.75H10.5ZM8.25 2.5C8.25 1.26579 9.26579 0.25 10.5 0.25H13.5C14.7342 0.25 15.75 1.26579 15.75 2.5V5.5C15.75 6.73421 14.7342 7.75 13.5 7.75H10.5C9.26579 7.75 8.25 6.73421 8.25 5.5V2.5Z" fill="#101010"/>
<path fill-rule="evenodd" clip-rule="evenodd" d="M14.3304 4.39252C14.5167 4.0226 14.9677 3.87381 15.3376 4.06018C16.7937 4.7938 17.984 5.98889 18.7629 7.45885C18.9568 7.82486 18.8173 8.27878 18.4513 8.47271C18.0853 8.66664 17.6314 8.52715 17.4374 8.16114C16.7963 6.9511 15.8266 5.98615 14.6627 5.39977C14.2928 5.2134 14.144 4.76244 14.3304 4.39252Z" fill="#101010"/>
<path fill-rule="evenodd" clip-rule="evenodd" d="M9.66912 4.39118C9.85623 4.76072 9.70834 5.21198 9.33879 5.39909C7.23044 6.46661 5.75 8.782 5.75 11.5C5.75 11.6388 5.75805 11.7694 5.77486 11.9124C5.82326 12.3237 5.52901 12.6965 5.11763 12.7449C4.70625 12.7933 4.33353 12.499 4.28514 12.0876C4.26195 11.8905 4.25 11.7012 4.25 11.5C4.25 8.23799 6.02956 5.39333 8.66121 4.06086C9.03075 3.87375 9.48201 4.02164 9.66912 4.39118Z" fill="#101010"/>
</svg>
