<svg width="22" height="22" viewBox="0 0 22 22" fill="none" xmlns="http://www.w3.org/2000/svg">
<path fill-rule="evenodd" clip-rule="evenodd" d="M3.42669 13.7509C3.41248 13.7531 3.39821 13.7549 3.3839 13.7564C2.75032 13.8191 2.25 14.3629 2.25 15C2.25 15.3459 2.38693 15.6525 2.61302 15.8725L2.62754 15.887C2.84752 16.1131 3.15415 16.25 3.5 16.25H8.5C8.91421 16.25 9.25 16.5858 9.25 17V18.5C9.25 19.4658 10.0342 20.25 11 20.25C11.9658 20.25 12.75 19.4658 12.75 18.5V17C12.75 16.5858 13.0858 16.25 13.5 16.25H18.39C19.1133 16.25 19.6891 15.728 19.7426 15.118C19.7744 14.7168 19.6331 14.3676 19.3863 14.1268L19.3716 14.1121C19.1726 13.9069 18.9197 13.7817 18.6277 13.7574C18.6095 13.7559 18.5914 13.7537 18.5733 13.7509C18.5722 13.7508 18.5707 13.7507 18.5688 13.7507C18.5633 13.7504 18.5554 13.7502 18.5436 13.7501L18.5 13.75H3.5L3.45636 13.7501C3.44457 13.7502 3.43674 13.7504 3.43123 13.7507C3.42929 13.7507 3.42779 13.7508 3.42669 13.7509ZM3.4878 12.25C3.49214 12.25 3.49621 12.25 3.5 12.25H18.5C18.5038 12.25 18.5079 12.25 18.5122 12.25C18.568 12.2499 18.6684 12.2497 18.7784 12.2649C19.432 12.3257 20.0068 12.6158 20.4412 13.0605C21.0092 13.6189 21.3049 14.4059 21.2376 15.2403L21.2373 15.2441C21.1096 16.7332 19.7859 17.75 18.39 17.75H14.25V18.5C14.25 20.2942 12.7942 21.75 11 21.75C9.20579 21.75 7.75 20.2942 7.75 18.5V17.75H3.5C2.74945 17.75 2.05911 17.4498 1.55964 16.9404C1.05018 16.4409 0.75 15.7506 0.75 15C0.75 13.5843 1.83854 12.4129 3.21501 12.2658C3.3276 12.2497 3.43086 12.2499 3.4878 12.25Z" fill="#101010"/>
<path fill-rule="evenodd" clip-rule="evenodd" d="M5.81024 1.75C4.4834 1.75 3.44145 2.89712 3.5764 4.22412C3.57757 4.23563 3.57847 4.24717 3.57911 4.25873L4.0195 12.25H17.9807L18.0514 10.959C18.074 10.5454 18.4276 10.2285 18.8412 10.2511C19.2548 10.2738 19.5718 10.6274 19.5491 11.041L19.4391 13.051C19.4275 13.264 19.3257 13.4619 19.1592 13.5953C18.9945 13.7273 18.7819 13.7837 18.5736 13.7509C18.5725 13.7508 18.571 13.7507 18.569 13.7507C18.5635 13.7504 18.5557 13.7502 18.5439 13.7501L18.5002 13.75H3.50024L3.45661 13.7501C3.44482 13.7502 3.43699 13.7504 3.43147 13.7507C3.42954 13.7507 3.42804 13.7508 3.42694 13.7509C3.21869 13.7837 3.00611 13.7273 2.8414 13.5954C2.67494 13.4621 2.57312 13.2642 2.56138 13.0513L2.08228 4.35767C1.86858 2.1524 3.60317 0.25 5.81024 0.25H16.1902C18.3974 0.25 20.1319 2.15244 19.9182 4.35775L19.7691 7.05145C19.7462 7.46503 19.3924 7.78175 18.9788 7.75885C18.5652 7.73596 18.2485 7.38213 18.2714 6.96855L18.4214 4.25855C18.422 4.24705 18.4229 4.23557 18.4241 4.22412C18.559 2.89712 17.5171 1.75 16.1902 1.75H5.81024Z" fill="#101010"/>
<path fill-rule="evenodd" clip-rule="evenodd" d="M6.99023 0.25C7.40445 0.25 7.74023 0.585786 7.74023 1V6C7.74023 6.41421 7.40445 6.75 6.99023 6.75C6.57602 6.75 6.24023 6.41421 6.24023 6V1C6.24023 0.585786 6.57602 0.25 6.99023 0.25Z" fill="#101010"/>
<path fill-rule="evenodd" clip-rule="evenodd" d="M11 0.25C11.4142 0.25 11.75 0.585786 11.75 1V3C11.75 3.41421 11.4142 3.75 11 3.75C10.5858 3.75 10.25 3.41421 10.25 3V1C10.25 0.585786 10.5858 0.25 11 0.25Z" fill="#101010"/>
</svg>
