<svg width="22" height="22" viewBox="0 0 22 22" fill="none" xmlns="http://www.w3.org/2000/svg">
<path fill-rule="evenodd" clip-rule="evenodd" d="M19.2283 1.8007C18.652 2.02783 18.0214 2.32371 17.3757 2.67066C17.0109 2.86672 16.5561 2.72986 16.3601 2.36498C16.164 2.0001 16.3009 1.54538 16.6658 1.34932C17.3574 0.977692 18.0444 0.654575 18.6862 0.402068L18.6987 0.397144L18.6987 0.397257C19.5656 0.0740181 20.4473 0.302992 21.0147 0.883272C21.5764 1.44751 21.8626 2.3281 21.4962 3.23088C19.908 7.18969 15.9709 12.5142 12.6399 15.1851L10.67 16.7651C10.6599 16.7732 10.6495 16.7811 10.639 16.7886C10.3714 16.9813 10.0618 17.184 9.69499 17.3281C9.46412 17.4188 9.20333 17.3894 8.99836 17.2497C8.79339 17.11 8.67075 16.878 8.67075 16.63C8.67075 16.4745 8.66189 16.3161 8.63993 16.177L8.6371 16.1574C8.54953 15.4887 8.24894 14.8588 7.69042 14.3003C7.13111 13.741 6.46275 13.4204 5.79174 13.3274C5.74374 13.3249 5.70113 13.3224 5.66263 13.3202C5.51755 13.3117 5.43103 13.3067 5.33538 13.3163C5.07979 13.3418 4.82889 13.2348 4.67044 13.0326C4.51199 12.8305 4.46803 12.5613 4.55393 12.3192C4.69295 11.9274 4.90622 11.5602 5.17343 11.2509L6.72278 9.29439L6.72476 9.29189C8.13089 7.53163 10.2775 5.61689 12.5286 3.97415C12.8632 3.72998 13.3324 3.80329 13.5766 4.13789C13.8208 4.47249 13.7474 4.94167 13.4129 5.18584C11.2245 6.78271 9.1916 8.60747 7.89768 10.2269C7.89737 10.2273 7.89705 10.2277 7.89674 10.2281L6.53403 11.949C7.34347 12.1616 8.1089 12.5975 8.75108 13.2397C9.37821 13.8668 9.79793 14.5897 10.0077 15.3734L11.7015 14.0149L11.7016 14.0149C14.8302 11.5062 18.6124 6.39183 20.1046 2.67082L20.106 2.66739C20.2178 2.39269 20.146 2.13588 19.9504 1.94032L19.9432 1.93306L19.9432 1.93301C19.7914 1.77694 19.5371 1.68771 19.2283 1.8007Z" fill="#101010"/>
<path fill-rule="evenodd" clip-rule="evenodd" d="M5.81114 13.3174C5.62996 13.3081 5.46611 13.3016 5.31787 13.3091C5.31054 13.3094 5.30321 13.3097 5.29587 13.3098C3.69175 13.3429 2.21062 14.4953 2.01595 16.2717L1.7453 18.7376C1.64198 19.6159 2.38464 20.3512 3.24698 20.2546L3.24859 20.2545L5.70034 19.9854C6.5292 19.875 7.20178 19.5272 7.68842 19.0413C8.33676 18.3839 8.68041 17.5248 8.68041 16.62C8.68041 16.5175 8.67437 16.4334 8.66671 16.327C8.66243 16.2675 8.65766 16.2012 8.65315 16.1207C8.56113 15.4619 8.26116 14.8414 7.71008 14.2903L7.70621 14.2865C7.1518 13.7239 6.48659 13.4107 5.81114 13.3174ZM5.25412 11.8104C5.49413 11.7991 5.73577 11.8113 5.91983 11.821C5.93884 11.822 5.9578 11.8238 5.97667 11.8262C6.99115 11.9575 7.9748 12.4228 8.77266 13.2316C9.55297 14.0127 10.0117 14.9422 10.1441 15.9526C10.1466 15.9719 10.1484 15.9912 10.1494 16.0106C10.1514 16.0483 10.1547 16.0961 10.1584 16.15C10.168 16.2882 10.1804 16.4668 10.1804 16.62C10.1804 17.9145 9.68465 19.1546 8.75407 20.097L8.75075 20.1003C8.01901 20.8321 7.03478 21.323 5.88806 21.4736L5.87224 21.4755L3.41385 21.7453C3.41355 21.7454 3.41414 21.7453 3.41385 21.7453C1.5976 21.9481 0.0406633 20.4056 0.255185 18.5655L0.524876 16.1083C0.524881 16.1082 0.524872 16.1083 0.524876 16.1083C0.809804 13.5089 2.98221 11.8623 5.25412 11.8104Z" fill="#101010"/>
<path fill-rule="evenodd" clip-rule="evenodd" d="M7.76074 8.73999C7.76074 8.32578 8.09653 7.98999 8.51074 7.98999C11.535 7.98999 13.9907 10.4458 13.9907 13.47C13.9907 13.8842 13.655 14.22 13.2407 14.22C12.8265 14.22 12.4907 13.8842 12.4907 13.47C12.4907 11.2742 10.7065 9.48999 8.51074 9.48999C8.09653 9.48999 7.76074 9.1542 7.76074 8.73999Z" fill="#101010"/>
</svg>
