<svg width="22" height="22" viewBox="0 0 22 22" fill="none" xmlns="http://www.w3.org/2000/svg">
<path fill-rule="evenodd" clip-rule="evenodd" d="M19.2308 1.79977C18.6412 2.03799 18.0084 2.33514 17.3517 2.68283C16.9856 2.87664 16.5317 2.73699 16.3379 2.37091C16.1441 2.00483 16.2838 1.55096 16.6498 1.35715C17.3492 0.98689 18.0328 0.665482 18.6803 0.404411L18.6987 0.397257C19.5656 0.0740181 20.4473 0.302992 21.0147 0.883272C21.5764 1.44751 21.8626 2.3281 21.4962 3.23088C19.908 7.18969 15.9709 12.5142 12.6399 15.1851L10.67 16.7651C10.6599 16.7732 10.6495 16.7811 10.639 16.7886C10.3714 16.9813 10.0618 17.184 9.69499 17.3281C9.46412 17.4188 9.20333 17.3894 8.99836 17.2497C8.79339 17.11 8.67075 16.878 8.67075 16.63C8.67075 16.4745 8.66189 16.3161 8.63993 16.177L8.6371 16.1574C8.54953 15.4887 8.24894 14.8588 7.69042 14.3003C7.13111 13.741 6.46275 13.4204 5.79174 13.3274C5.74374 13.3249 5.70113 13.3224 5.66263 13.3202C5.51755 13.3117 5.43103 13.3067 5.33538 13.3163C5.07979 13.3418 4.82889 13.2348 4.67044 13.0326C4.51199 12.8305 4.46803 12.5613 4.55393 12.3192C4.69295 11.9274 4.90622 11.5602 5.17343 11.2509L6.72541 9.29107C8.23374 7.40825 10.5732 5.35205 12.9977 3.63762C13.3359 3.39847 13.804 3.47877 14.0431 3.81698C14.2823 4.15518 14.202 4.62322 13.8638 4.86236C11.509 6.52743 9.2891 8.49053 7.89736 10.2273C7.89693 10.2278 7.89651 10.2284 7.89609 10.2289L6.53403 11.949C7.34347 12.1616 8.1089 12.5975 8.75108 13.2397C9.37821 13.8668 9.79793 14.5897 10.0077 15.3734L11.7015 14.0149C14.8301 11.5062 18.6124 6.39183 20.1046 2.67082L20.106 2.66739C20.2178 2.39269 20.146 2.13588 19.9504 1.94032L19.9432 1.93306C19.7917 1.77742 19.5385 1.6882 19.2308 1.79977Z" fill="#101010"/>
<path fill-rule="evenodd" clip-rule="evenodd" d="M5.81114 13.3174C5.62996 13.3081 5.46611 13.3016 5.31787 13.3091C5.31054 13.3094 5.30321 13.3097 5.29587 13.3098C3.69175 13.3429 2.21062 14.4953 2.01595 16.2717L1.7453 18.7376C1.64198 19.6159 2.38464 20.3512 3.24698 20.2546L3.24859 20.2545L5.70034 19.9854C6.5292 19.875 7.20178 19.5272 7.68842 19.0413C8.33676 18.3839 8.68041 17.5248 8.68041 16.62C8.68041 16.5175 8.67437 16.4334 8.66671 16.327C8.66243 16.2675 8.65766 16.2012 8.65315 16.1207C8.56113 15.4619 8.26116 14.8414 7.71008 14.2903L7.70621 14.2865C7.1518 13.7239 6.48659 13.4107 5.81114 13.3174ZM5.25412 11.8104C5.49413 11.7991 5.73577 11.8113 5.91983 11.821C5.93884 11.822 5.9578 11.8238 5.97667 11.8262C6.99115 11.9575 7.9748 12.4228 8.77266 13.2316C9.55297 14.0127 10.0117 14.9422 10.1441 15.9526C10.1466 15.9719 10.1484 15.9912 10.1494 16.0106C10.1514 16.0483 10.1547 16.0961 10.1584 16.15C10.168 16.2882 10.1804 16.4668 10.1804 16.62C10.1804 17.9145 9.68465 19.1546 8.75407 20.097L8.75075 20.1003C8.01901 20.8321 7.03478 21.323 5.88806 21.4736L5.87224 21.4755L3.41385 21.7453C3.41355 21.7454 3.41414 21.7453 3.41385 21.7453C1.5976 21.9481 0.0406633 20.4056 0.255185 18.5655L0.524876 16.1083C0.524881 16.1082 0.524872 16.1083 0.524876 16.1083C0.809804 13.5089 2.98221 11.8623 5.25412 11.8104Z" fill="#101010"/>
<path fill-rule="evenodd" clip-rule="evenodd" d="M7.76074 8.73999C7.76074 8.32578 8.09653 7.98999 8.51074 7.98999C11.535 7.98999 13.9907 10.4458 13.9907 13.47C13.9907 13.8842 13.655 14.22 13.2407 14.22C12.8265 14.22 12.4907 13.8842 12.4907 13.47C12.4907 11.2742 10.7065 9.48999 8.51074 9.48999C8.09653 9.48999 7.76074 9.1542 7.76074 8.73999Z" fill="#101010"/>
<path fill-rule="evenodd" clip-rule="evenodd" d="M18.5868 11.2033C18.8777 10.9084 19.3525 10.9052 19.6474 11.1961L20.391 11.9297C21.216 12.7546 21.7282 13.6741 21.7282 14.685C21.7282 15.6959 21.216 16.6154 20.391 17.4403L17.431 20.4003C16.6125 21.2189 15.6929 21.7225 14.6857 21.7225C13.6785 21.7225 12.7589 21.2189 11.9404 20.4003C11.6475 20.1074 11.6475 19.6326 11.9404 19.3397C12.2333 19.0468 12.7081 19.0468 13.001 19.3397C13.6525 19.9911 14.2129 20.2225 14.6857 20.2225C15.1585 20.2225 15.7189 19.9911 16.3704 19.3397L19.3304 16.3797C19.9954 15.7146 20.2282 15.1541 20.2282 14.685C20.2282 14.2163 19.9958 13.6564 19.3321 12.9921L18.594 12.2639C18.2991 11.973 18.2959 11.4982 18.5868 11.2033Z" fill="#101010"/>
<path fill-rule="evenodd" clip-rule="evenodd" d="M7.28531 1.7475C6.81256 1.7475 6.25208 1.97889 5.60064 2.63033L2.64249 5.58848C1.98881 6.25163 1.75781 6.81256 1.75781 7.285C1.75781 7.75785 1.98921 8.31935 2.64421 8.98326C2.93512 9.27813 2.93191 9.75299 2.63705 10.0439C2.34218 10.3348 1.86732 10.3316 1.57641 10.0367C0.761414 9.21065 0.257812 8.29215 0.257812 7.285C0.257812 6.27785 0.761414 5.35935 1.57641 4.53326L1.57997 4.52966L1.57998 4.52967L4.53998 1.56967C5.35854 0.751106 6.27807 0.247498 7.28531 0.247498C8.29256 0.247498 9.21208 0.751106 10.0306 1.56967L10.7706 2.30967C11.0635 2.60256 11.0635 3.07743 10.7706 3.37033C10.4777 3.66322 10.0029 3.66322 9.70998 3.37033L8.96998 2.63033C8.31854 1.97889 7.75807 1.7475 7.28531 1.7475Z" fill="#101010"/>
<path fill-rule="evenodd" clip-rule="evenodd" d="M10.7811 2.31966C11.074 2.61255 11.074 3.08743 10.7811 3.38032L7.08111 7.08032C6.78822 7.37321 6.31334 7.37321 6.02045 7.08032C5.72756 6.78743 5.72756 6.31255 6.02045 6.01966L9.72045 2.31966C10.0133 2.02677 10.4882 2.02677 10.7811 2.31966Z" fill="#101010"/>
<path fill-rule="evenodd" clip-rule="evenodd" d="M19.6514 11.2006C19.9438 11.494 19.943 11.9688 19.6496 12.2612L16.6896 15.2112C16.3962 15.5036 15.9213 15.5028 15.6289 15.2094C15.3365 14.9161 15.3373 14.4412 15.6307 14.1488L18.5907 11.1988C18.8841 10.9064 19.359 10.9072 19.6514 11.2006Z" fill="#101010"/>
</svg>
