<svg width="20" height="22" viewBox="0 0 20 22" fill="none" xmlns="http://www.w3.org/2000/svg">
<path fill-rule="evenodd" clip-rule="evenodd" d="M9.80027 2.44501C9.42829 2.44501 9.09776 2.51005 8.88677 2.60452L8.88466 2.60547L2.983 5.2262C2.20835 5.56796 2.15527 5.87716 2.15527 5.91001C2.15527 5.94285 2.20835 6.25206 2.983 6.59382L2.98466 6.59455L8.88677 9.21549C9.09776 9.30997 9.42829 9.37501 9.80027 9.37501C10.1723 9.37501 10.5028 9.30997 10.7138 9.21549L10.7159 9.21455L16.6159 6.59455L16.6175 6.59382C17.3922 6.25206 17.4453 5.94285 17.4453 5.91001C17.4453 5.87716 17.3922 5.56796 16.6175 5.2262C16.2386 5.059 16.0669 4.61625 16.2341 4.23728C16.4013 3.85831 16.844 3.68663 17.223 3.85382C18.1483 4.26206 18.9453 4.94785 18.9453 5.91001C18.9453 6.87189 18.1488 7.55757 17.2238 7.96585C17.2235 7.96596 17.224 7.96573 17.2238 7.96585L11.3268 10.5845C11.3264 10.5847 11.326 10.5849 11.3256 10.5851C10.8668 10.7902 10.3128 10.875 9.80027 10.875C9.28771 10.875 8.73376 10.7902 8.27498 10.5851C8.27458 10.5849 8.27418 10.5847 8.27378 10.5845L2.37754 7.9662C2.37725 7.96606 2.37784 7.96633 2.37754 7.9662C1.45258 7.55791 0.655273 6.87185 0.655273 5.91001C0.655273 4.94813 1.45174 4.26245 2.37675 3.85417C2.37701 3.85405 2.37649 3.85429 2.37675 3.85417L8.27378 1.23549C8.27415 1.23533 8.27452 1.23516 8.27489 1.23499C8.73369 1.02983 9.28768 0.945007 9.80027 0.945007C10.3127 0.945007 10.8665 1.02977 11.3252 1.23477C11.3257 1.23501 11.3262 1.23525 11.3268 1.23549L13.2439 2.08421C13.6226 2.25189 13.7938 2.69486 13.6261 3.07362C13.4584 3.45237 13.0154 3.62349 12.6367 3.45581L10.7167 2.60581L10.7138 2.60452C10.5028 2.51005 10.1723 2.44501 9.80027 2.44501Z" fill="#101010"/>
<path fill-rule="evenodd" clip-rule="evenodd" d="M1 9.25C1.41421 9.25 1.75 9.58579 1.75 10C1.75 10.2434 1.84628 10.5559 2.0399 10.8535C2.23351 11.151 2.48007 11.3655 2.70295 11.4639L2.70479 11.4647L9.49338 14.4841C9.49363 14.4842 9.49313 14.484 9.49338 14.4841C9.82187 14.6291 10.1898 14.6269 10.5017 14.4863L10.5052 14.4847L17.2952 11.4647L17.2971 11.4639C17.5199 11.3655 17.7665 11.151 17.9601 10.8535C18.1537 10.5559 18.25 10.2434 18.25 10C18.25 9.58579 18.5858 9.25 19 9.25C19.4142 9.25 19.75 9.58579 19.75 10C19.75 10.5966 19.5313 11.1891 19.2174 11.6715C18.9037 12.1537 18.4505 12.5941 17.9038 12.8357C17.9035 12.8358 17.9041 12.8356 17.9038 12.8357L11.1183 15.8537C11.1177 15.854 11.117 15.8543 11.1163 15.8546C10.4089 16.1729 9.59727 16.1702 8.88662 15.8559L2.09705 12.8361C2.09671 12.8359 2.09637 12.8358 2.09603 12.8356C1.54937 12.594 1.0963 12.1537 0.782602 11.6715C0.468717 11.1891 0.25 10.5966 0.25 10C0.25 9.58579 0.585786 9.25 1 9.25Z" fill="#101010"/>
<path fill-rule="evenodd" clip-rule="evenodd" d="M1 14.25C1.41421 14.25 1.75 14.5858 1.75 15C1.75 15.6308 2.12295 16.2043 2.70554 16.4651C2.70572 16.4651 2.70535 16.465 2.70554 16.4651L9.49338 19.4841C9.49363 19.4842 9.49313 19.484 9.49338 19.4841C9.82187 19.6291 10.1898 19.6269 10.5017 19.4863L10.5052 19.4847L17.2939 16.4653C17.2941 16.4652 17.2937 16.4654 17.2939 16.4653C17.8765 16.2046 18.25 15.6308 18.25 15C18.25 14.5858 18.5858 14.25 19 14.25C19.4142 14.25 19.75 14.5858 19.75 15C19.75 16.229 19.0232 17.3353 17.9061 17.8347L17.9048 17.8353L11.1183 20.8537C11.1177 20.854 11.117 20.8543 11.1163 20.8546C10.4089 21.1729 9.59727 21.1702 8.88662 20.8559L2.0939 17.8347C0.976812 17.3353 0.25 16.229 0.25 15C0.25 14.5858 0.585786 14.25 1 14.25Z" fill="#101010"/>
</svg>
