<svg width="22" height="22" viewBox="0 0 22 22" fill="none" xmlns="http://www.w3.org/2000/svg">
<path fill-rule="evenodd" clip-rule="evenodd" d="M10.2197 1C10.2197 0.585786 10.5555 0.25 10.9697 0.25C16.9039 0.25 21.7197 5.06579 21.7197 11C21.7197 16.9342 16.9039 21.75 10.9697 21.75C5.03551 21.75 0.219727 16.9342 0.219727 11C0.219727 6.98922 2.41436 3.49555 5.66948 1.64776C6.0297 1.44328 6.48748 1.56953 6.69197 1.92975C6.89645 2.28997 6.7702 2.74776 6.40997 2.95224C3.60509 4.54445 1.71973 7.55078 1.71973 11C1.71973 16.1058 5.86394 20.25 10.9697 20.25C16.0755 20.25 20.2197 16.1058 20.2197 11C20.2197 5.89421 16.0755 1.75 10.9697 1.75C10.5555 1.75 10.2197 1.41421 10.2197 1Z" fill="#101010"/>
<path fill-rule="evenodd" clip-rule="evenodd" d="M11 7.25C8.92893 7.25 7.25 8.92893 7.25 11C7.25 13.0711 8.92893 14.75 11 14.75C13.0711 14.75 14.75 13.0711 14.75 11C14.75 8.92893 13.0711 7.25 11 7.25ZM5.75 11C5.75 8.1005 8.1005 5.75 11 5.75C13.8995 5.75 16.25 8.1005 16.25 11C16.25 13.8995 13.8995 16.25 11 16.25C8.1005 16.25 5.75 13.8995 5.75 11Z" fill="#101010"/>
<path fill-rule="evenodd" clip-rule="evenodd" d="M3.36833 3.40041C3.66081 3.10711 4.13569 3.10643 4.42899 3.39891L7.96899 6.92891C8.2623 7.22139 8.26297 7.69627 7.97049 7.98957C7.67801 8.28288 7.20314 8.28355 6.90983 7.99107L3.36983 4.46107C3.07653 4.16859 3.07586 3.69372 3.36833 3.40041Z" fill="#101010"/>
<path fill-rule="evenodd" clip-rule="evenodd" d="M7.97049 14.0104C8.26297 14.3037 8.2623 14.7786 7.96899 15.0711L4.42899 18.6011C4.13569 18.8936 3.66081 18.8929 3.36833 18.5996C3.07586 18.3063 3.07653 17.8314 3.36983 17.5389L6.90983 14.0089C7.20314 13.7165 7.67801 13.7171 7.97049 14.0104Z" fill="#101010"/>
<path fill-rule="evenodd" clip-rule="evenodd" d="M13.9787 14.0104C14.2712 13.7171 14.746 13.7165 15.0393 14.0089L18.5793 17.5389C18.8727 17.8314 18.8733 18.3063 18.5808 18.5996C18.2884 18.8929 17.8135 18.8936 17.5202 18.6011L13.9802 15.0711C13.6869 14.7786 13.6862 14.3037 13.9787 14.0104Z" fill="#101010"/>
<path fill-rule="evenodd" clip-rule="evenodd" d="M18.5808 3.40041C18.8733 3.69372 18.8727 4.16859 18.5793 4.46107L15.0393 7.99107C14.746 8.28355 14.2712 8.28288 13.9787 7.98957C13.6862 7.69627 13.6869 7.22139 13.9802 6.92891L17.5202 3.39891C17.8135 3.10643 18.2884 3.10711 18.5808 3.40041Z" fill="#101010"/>
</svg>
