<svg width="22" height="22" viewBox="0 0 22 22" fill="none" xmlns="http://www.w3.org/2000/svg">
<path fill-rule="evenodd" clip-rule="evenodd" d="M10.25 6C10.25 5.58579 10.5858 5.25 11 5.25C12.5177 5.25 13.8986 5.83748 14.9317 6.80171C15.2345 7.08434 15.2509 7.55893 14.9683 7.86174C14.6857 8.16456 14.2111 8.18092 13.9083 7.8983C13.3163 7.34577 12.574 6.96203 11.75 6.81572V15.1839C13.7386 14.8293 15.25 13.0899 15.25 11C15.25 10.5858 15.5858 10.25 16 10.25C16.4142 10.25 16.75 10.5858 16.75 11C16.75 14.1742 14.1742 16.75 11 16.75C10.5858 16.75 10.25 16.4142 10.25 16V6Z" fill="#101010"/>
<path fill-rule="evenodd" clip-rule="evenodd" d="M10.25 6.81608C8.26143 7.17069 6.75 8.9101 6.75 11C6.75 13.0899 8.26143 14.8293 10.25 15.1839V6.81608ZM5.25 11C5.25 7.82579 7.82579 5.25 11 5.25C11.4142 5.25 11.75 5.58579 11.75 6V16C11.75 16.4142 11.4142 16.75 11 16.75C7.82579 16.75 5.25 14.1742 5.25 11Z" fill="#101010"/>
<path fill-rule="evenodd" clip-rule="evenodd" d="M11 15.25C11.4142 15.25 11.75 15.5858 11.75 16V21C11.75 21.4142 11.4142 21.75 11 21.75C10.5858 21.75 10.25 21.4142 10.25 21V16C10.25 15.5858 10.5858 15.25 11 15.25Z" fill="#101010"/>
<path fill-rule="evenodd" clip-rule="evenodd" d="M11 0.25C11.4142 0.25 11.75 0.585786 11.75 1V6C11.75 6.41421 11.4142 6.75 11 6.75C10.5858 6.75 10.25 6.41421 10.25 6V1C10.25 0.585786 10.5858 0.25 11 0.25Z" fill="#101010"/>
<path fill-rule="evenodd" clip-rule="evenodd" d="M6.66385 1.16534C7.99055 0.572096 9.46491 0.25 11 0.25C16.9342 0.25 21.75 5.06579 21.75 11C21.75 16.9342 16.9342 21.75 11 21.75C5.06579 21.75 0.25 16.9342 0.25 11C0.25 8.5809 1.0568 6.34452 2.39957 4.55058C2.64778 4.21897 3.11782 4.15136 3.44942 4.39957C3.78103 4.64778 3.84864 5.11782 3.60043 5.44942C2.4432 6.99548 1.75 8.9191 1.75 11C1.75 16.1058 5.89421 20.25 11 20.25C16.1058 20.25 20.25 16.1058 20.25 11C20.25 5.89421 16.1058 1.75 11 1.75C9.67509 1.75 8.40945 2.02792 7.27615 2.53467C6.89802 2.70376 6.45442 2.53429 6.28533 2.15616C6.11625 1.77803 6.28572 1.33442 6.66385 1.16534Z" fill="#101010"/>
</svg>
