<svg width="22" height="22" viewBox="0 0 22 22" fill="none" xmlns="http://www.w3.org/2000/svg">
<path fill-rule="evenodd" clip-rule="evenodd" d="M7.11504 6.78476C8.15586 5.80176 9.55071 5.25 11 5.25C12.4577 5.25 13.8547 5.8008 14.888 6.78764C15.9217 7.77485 16.51 9.11899 16.51 10.53C16.51 11.8811 15.9975 13.1881 15.0778 14.2113L15.0761 14.2132L14.5903 14.75H16C16.4142 14.75 16.75 15.0858 16.75 15.5C16.75 15.9142 16.4142 16.25 16 16.25H12.9C12.6035 16.25 12.3348 16.0753 12.2145 15.8042C12.0942 15.5331 12.1449 15.2166 12.3439 14.9967L13.9622 13.2086C13.9625 13.2083 13.9628 13.2079 13.9631 13.2076C14.6428 12.451 15.01 11.4986 15.01 10.53C15.01 9.54107 14.5983 8.58518 13.852 7.8724C13.1053 7.15924 12.0823 6.75 11 6.75C9.93001 6.75 8.90553 7.15773 8.1465 7.87383C7.40112 8.58647 6.98999 9.54173 6.98999 10.53C6.98999 11.5105 7.35843 12.4613 8.03494 13.2055L8.03607 13.2067L9.65606 14.9967C9.85505 15.2166 9.9058 15.5331 9.78552 15.8042C9.66524 16.0753 9.39653 16.25 9.09998 16.25H6C5.58579 16.25 5.25 15.9142 5.25 15.5C5.25 15.0858 5.58579 14.75 6 14.75H7.40968L6.92503 14.2145C6.92479 14.2142 6.92455 14.2139 6.92431 14.2137C6.00127 13.1979 5.48999 11.8892 5.48999 10.53C5.48999 9.11899 6.07833 7.77485 7.112 6.78764L7.11503 6.78475L7.11504 6.78476Z" fill="#101010"/>
<path fill-rule="evenodd" clip-rule="evenodd" d="M6.66382 1.16531C7.99053 0.57206 9.46492 0.25 11 0.25C16.9342 0.25 21.75 5.06579 21.75 11C21.75 16.9342 16.9342 21.75 11 21.75C5.06579 21.75 0.25 16.9342 0.25 11C0.25 8.5809 1.0568 6.34452 2.39957 4.55058C2.64778 4.21897 3.11782 4.15136 3.44942 4.39957C3.78103 4.64778 3.84864 5.11782 3.60043 5.44942C2.4432 6.99548 1.75 8.9191 1.75 11C1.75 16.1058 5.89421 20.25 11 20.25C16.1058 20.25 20.25 16.1058 20.25 11C20.25 5.89421 16.1058 1.75 11 1.75C9.67508 1.75 8.40941 2.02789 7.27612 2.53464C6.89799 2.70373 6.45439 2.53426 6.2853 2.15613C6.11622 1.778 6.28569 1.33439 6.66382 1.16531Z" fill="#101010"/>
</svg>
