<svg width="22" height="21" viewBox="0 0 22 21" fill="none" xmlns="http://www.w3.org/2000/svg">
<path fill-rule="evenodd" clip-rule="evenodd" d="M10.8544 0.884661C12.0674 0.768543 13.2166 1.48628 14.53 2.79967C14.8228 3.09256 14.8228 3.56743 14.53 3.86033C14.2371 4.15322 13.7622 4.15322 13.4693 3.86033C12.1927 2.58372 11.4819 2.33145 10.9973 2.37783C10.7459 2.4019 10.4647 2.51246 10.1081 2.76188C9.7464 3.01496 9.35105 3.37923 8.86996 3.86033L3.29996 9.43033C2.70193 10.0283 2.28165 10.4796 2.00715 10.8633C1.73631 11.242 1.65768 11.4872 1.65175 11.6749C1.64594 11.8587 1.70617 12.1077 1.9664 12.501C2.23111 12.9012 2.65962 13.3868 3.30061 14.0303C3.30073 14.0304 3.30049 14.0302 3.30061 14.0303L6.75996 17.4897C7.35943 18.0891 7.82303 18.4976 8.21382 18.7547C8.59745 19.007 8.85921 19.0788 9.06625 19.0775C9.27423 19.0762 9.53613 19.0006 9.91874 18.7458C10.3079 18.4866 10.7669 18.0796 11.36 17.489C11.3601 17.4889 11.3598 17.4892 11.36 17.489L16.9293 11.9197C17.9057 10.9432 18.3106 10.3132 18.3502 9.751C18.3873 9.22579 18.1122 8.50327 16.9293 7.32033C16.6364 7.02743 16.6364 6.55256 16.9293 6.25967C17.2222 5.96677 17.6971 5.96677 17.99 6.25967C19.237 7.50672 19.932 8.6442 19.8465 9.85649C19.7637 11.0318 18.9535 12.0167 17.99 12.9803L12.4188 18.5514C11.8122 19.1556 11.2675 19.6497 10.7502 19.9942C10.2262 20.3432 9.67877 20.5738 9.0755 20.5775C8.4713 20.5812 7.91993 20.3568 7.3895 20.0078C6.86623 19.6637 6.31482 19.1659 5.6993 18.5503L2.23828 15.0893C1.58447 14.433 1.06684 13.86 0.715358 13.3286C0.359329 12.7904 0.133309 12.235 0.152501 11.6276C0.171569 11.0241 0.429198 10.4911 0.787105 9.99071C1.14135 9.49544 1.64232 8.96665 2.2393 8.36967L7.8093 2.79967C8.2982 2.31076 8.7716 1.86629 9.24829 1.5328C9.73021 1.19566 10.2571 0.941842 10.8544 0.884661Z" fill="#101010"/>
<path fill-rule="evenodd" clip-rule="evenodd" d="M20.721 15.4019L21.3823 16.4941C21.9279 17.4034 22.0904 18.4102 21.619 19.2413C21.1478 20.072 20.2003 20.45 19.1392 20.45C18.078 20.45 17.1305 20.072 16.6593 19.2413C16.1879 18.4102 16.3505 17.4034 16.896 16.4941L16.8976 16.4915L17.556 15.4042C17.8992 14.8273 18.4499 14.395 19.1354 14.395C19.8202 14.395 20.3732 14.8269 20.721 15.4019ZM19.0541 15.9282C19.0031 15.9625 18.9262 16.0344 18.8443 16.1725L18.8407 16.1785L18.1815 17.2671C17.798 17.9071 17.8555 18.3099 17.964 18.5012C18.0728 18.693 18.3903 18.95 19.1392 18.95C19.888 18.95 20.2055 18.693 20.3143 18.5012C20.4228 18.3099 20.4804 17.9071 20.0968 17.2671L19.4376 16.1785C19.3533 16.0391 19.2741 15.9653 19.2209 15.9297C19.1707 15.8961 19.1429 15.895 19.1354 15.895C19.1281 15.895 19.1019 15.896 19.0541 15.9282Z" fill="#101010"/>
<path fill-rule="evenodd" clip-rule="evenodd" d="M17.8117 11.8362C12.3585 10.4389 6.63086 10.4877 1.19578 11.9638C0.796044 12.0723 0.383989 11.8363 0.275428 11.4366C0.166867 11.0368 0.40291 10.6248 0.802644 10.5162C6.48713 8.97242 12.479 8.92109 18.1854 10.3835L18.1879 10.3841L18.6879 10.5141C19.0888 10.6184 19.3293 11.0278 19.2251 11.4287C19.1208 11.8296 18.7114 12.0701 18.3105 11.9659L17.813 11.8365C17.8126 11.8364 17.8122 11.8363 17.8117 11.8362Z" fill="#101010"/>
</svg>
