<svg width="18" height="22" viewBox="0 0 18 22" fill="none" xmlns="http://www.w3.org/2000/svg">
<path fill-rule="evenodd" clip-rule="evenodd" d="M4.46824 15.1861C4.54498 14.8435 4.84906 14.6 5.2001 14.6H12.8401C13.1911 14.6 13.4952 14.8435 13.572 15.1861L14.2615 18.264C14.2616 18.2643 14.2614 18.2637 14.2615 18.264C14.4747 19.2049 14.2242 20.1013 13.6239 20.7522C13.0317 21.3944 12.1476 21.75 11.1601 21.75H6.8701C4.97744 21.75 3.33642 20.1716 3.77889 18.2631L4.46824 15.1861ZM5.80067 16.1L5.24055 18.6003C5.06574 19.3502 5.70387 20.25 6.8701 20.25H11.1601C11.7926 20.25 12.2535 20.0256 12.5213 19.7353C12.7808 19.4539 12.9051 19.0648 12.7987 18.596L12.7982 18.594L12.2395 16.1H5.80067Z" fill="#101010"/>
<path fill-rule="evenodd" clip-rule="evenodd" d="M9.00893 0.244995C9.98056 0.244995 10.9067 0.714254 11.5787 1.56512L16.769 8.14552C17.4474 9.00654 17.9124 9.87243 17.8244 10.8158C17.7369 11.7556 17.1222 12.5405 16.2689 13.3002C15.9595 13.5756 15.4854 13.5481 15.21 13.2387C14.9346 12.9293 14.9621 12.4552 15.2715 12.1798C16.0582 11.4794 16.2985 11.0244 16.3309 10.6766C16.363 10.3326 16.2127 9.86313 15.5911 9.07415L10.4016 2.49487M9.00893 0.244995C8.03773 0.244995 7.11024 0.713763 6.4337 1.56251L9.00893 0.244995ZM7.60798 2.49582C7.60754 2.49637 7.6071 2.49693 7.60666 2.49748L2.42948 9.07391C1.80398 9.86783 1.63628 10.3531 1.66411 10.706C1.69082 11.0449 1.91861 11.4945 2.72732 12.1613C2.73435 12.1671 2.74128 12.1731 2.7481 12.1791L5.6881 14.7891C5.99786 15.0641 6.02605 15.5382 5.75105 15.8479C5.47606 16.1577 5.00202 16.1859 4.69226 15.9109L1.76229 13.3098C0.866764 12.5692 0.244236 11.7813 0.168752 10.8239C0.0940894 9.87701 0.576483 9.00209 1.25088 8.14608C1.25094 8.146 1.25082 8.14615 1.25088 8.14608L6.4337 1.56251" fill="#101010"/>
<path fill-rule="evenodd" clip-rule="evenodd" d="M9.00977 0.919998C9.42398 0.919998 9.75977 1.25578 9.75977 1.67V5.97C9.75977 6.38421 9.42398 6.72 9.00977 6.72C8.59555 6.72 8.25977 6.38421 8.25977 5.97V1.67C8.25977 1.25578 8.59555 0.919998 9.00977 0.919998Z" fill="#101010"/>
</svg>
