<svg width="20" height="20" viewBox="0 0 20 20" fill="none" xmlns="http://www.w3.org/2000/svg">
<path fill-rule="evenodd" clip-rule="evenodd" d="M12.843 0.668086C13.7163 0.633567 14.5916 1.01084 15.2904 1.70967L18.3204 4.73967C19.6595 6.07871 19.6983 8.34817 18.052 9.3932L15.3812 11.0837C15.0848 11.2714 14.6978 11.2284 14.4498 10.9803L9.04976 5.58033C8.80168 5.33225 8.75873 4.94533 8.94637 4.64888L10.6354 1.98035C11.1486 1.16173 11.957 0.703103 12.843 0.668086ZM12.9022 2.16692C12.5237 2.18187 12.1627 2.36764 11.9058 2.77796L11.9038 2.78113L10.5348 4.94403L15.0861 9.49531L17.2481 8.1268C17.2483 8.1267 17.248 8.1269 17.2481 8.1268C17.9015 7.7116 18.0805 6.62108 17.2598 5.80033L14.2298 2.77033C13.7786 2.31916 13.2939 2.15143 12.9022 2.16692Z" fill="#101010"/>
<path fill-rule="evenodd" clip-rule="evenodd" d="M2.83922 4.71573C3.56513 4.11234 4.55543 3.99371 5.69434 4.06131C6.10783 4.08586 6.42312 4.44095 6.39858 4.85444C6.37403 5.26792 6.01894 5.58322 5.60545 5.55868C4.55436 5.49628 4.06466 5.64765 3.79807 5.86926C3.53435 6.08847 3.30981 6.52575 3.195 7.52556L3.19475 7.52773L3.19475 7.52773L2.21475 15.8477L2.21455 15.8494C2.13419 16.519 2.3388 17.0353 2.66832 17.364C2.99818 17.6931 3.51487 17.8957 4.18003 17.8154L4.18216 17.8151L12.5008 16.8353C12.5012 16.8353 12.5015 16.8352 12.5019 16.8352C13.5068 16.7148 13.9708 16.4891 14.2014 16.2198C14.4213 15.9628 14.5774 15.4881 14.4737 14.455C14.4726 14.4446 14.4718 14.4342 14.4712 14.4238L14.2412 10.4938C14.217 10.0803 14.5326 9.72548 14.9461 9.70128C15.3596 9.67708 15.7144 9.99267 15.7386 10.4062L15.9677 14.3209C16.0813 15.4711 15.9656 16.4655 15.3409 17.1952C14.7241 17.9158 13.7633 18.195 12.679 18.3247L12.6776 18.3248L4.35976 19.3046C4.35931 19.3046 4.35886 19.3047 4.35841 19.3048C3.28409 19.434 2.29632 19.1116 1.60897 18.426C0.921182 17.7399 0.595774 16.7515 0.725136 15.6715C0.72517 15.6712 0.725205 15.6709 0.725239 15.6706L1.70479 7.35443C1.70484 7.35407 1.70488 7.3537 1.70492 7.35333C1.83017 6.2636 2.11069 5.32132 2.83922 4.71573Z" fill="#101010"/>
<path fill-rule="evenodd" clip-rule="evenodd" d="M6.16981 13.8488C6.46318 14.1412 6.46396 14.6161 6.17155 14.9095L3.14155 17.9495C2.84914 18.2428 2.37427 18.2436 2.0809 17.9512C1.78752 17.6588 1.78674 17.1839 2.07915 16.8906L5.10915 13.8505C5.40156 13.5572 5.87643 13.5564 6.16981 13.8488Z" fill="#101010"/>
</svg>
