<svg width="22" height="22" viewBox="0 0 22 22" fill="none" xmlns="http://www.w3.org/2000/svg">
<path fill-rule="evenodd" clip-rule="evenodd" d="M15.014 2.25182C15.9176 2.21608 16.8256 2.60504 17.5502 3.32964C17.8431 3.62254 17.8431 4.09741 17.5502 4.3903C17.2573 4.6832 16.7824 4.6832 16.4895 4.3903C16.0141 3.9149 15.4971 3.73388 15.0733 3.75065C14.6624 3.7669 14.2714 3.96865 13.995 4.40882L13.9938 4.41075L13.9938 4.41075L12.5443 6.70376L17.3661 11.5255L19.6591 10.076L19.6609 10.0749C20.3675 9.63112 20.5527 8.45573 19.6719 7.58264C19.3777 7.29104 19.3756 6.81617 19.6672 6.52199C19.9588 6.22781 20.4337 6.22571 20.7278 6.51731C22.1267 7.90394 22.1722 10.268 20.4598 11.3445C20.4595 11.3447 20.4591 11.3449 20.4588 11.3451L17.6606 13.1139C17.3642 13.3013 16.9775 13.2583 16.7295 13.0103L11.0595 7.34032C10.8116 7.09235 10.7685 6.70565 10.9559 6.40923L12.7247 3.61117C12.7249 3.61083 12.7251 3.61048 12.7253 3.61013C13.259 2.76095 14.0977 2.28807 15.014 2.25182Z" fill="#101010"/>
<path fill-rule="evenodd" clip-rule="evenodd" d="M4.14767 9.01522C4.55902 9.06391 4.85301 9.43683 4.80432 9.84817L3.82416 18.1296C3.73871 18.8404 3.95423 19.3916 4.30735 19.7447C4.66075 20.0981 5.21572 20.3166 5.93365 20.2349C5.93392 20.2349 5.93337 20.235 5.93365 20.2349L10.2023 19.7351C10.6137 19.6869 10.9863 19.9814 11.0344 20.3928C11.0826 20.8042 10.7881 21.1767 10.3767 21.2249L6.10676 21.7249L6.10457 21.7252C4.98291 21.8532 3.95817 21.5168 3.24671 20.8054C2.53498 20.0937 2.20048 19.0702 2.3348 17.9513C2.33483 17.951 2.33477 17.9515 2.3348 17.9513L3.31472 9.67187C3.36341 9.26053 3.73633 8.96654 4.14767 9.01522Z" fill="#101010"/>
<path fill-rule="evenodd" clip-rule="evenodd" d="M17.2057 11.7212C17.6192 11.6971 17.974 12.0128 17.9981 12.4263L18.2372 16.5311C18.3558 17.7367 18.2322 18.7676 17.5886 19.5218C16.952 20.2677 15.9589 20.5598 14.8282 20.6947C14.4169 20.7437 14.0437 20.4501 13.9946 20.0388C13.9456 19.6275 14.2392 19.2543 14.6505 19.2052C15.6997 19.0801 16.1966 18.8422 16.4476 18.5481C16.6886 18.2656 16.8518 17.7522 16.7431 16.6646C16.742 16.6543 16.7412 16.6439 16.7406 16.6336L16.5006 12.5136C16.4765 12.1001 16.7922 11.7453 17.2057 11.7212Z" fill="#101010"/>
<path fill-rule="evenodd" clip-rule="evenodd" d="M9.0806 6.65296C9.10659 6.23957 9.46277 5.9255 9.87617 5.95148L11.6262 6.06147C12.0396 6.08745 12.3536 6.44364 12.3277 6.85704C12.3017 7.27043 11.9455 7.5845 11.5321 7.55852L9.78208 7.44853C9.36869 7.42255 9.05462 7.06636 9.0806 6.65296Z" fill="#101010"/>
<path fill-rule="evenodd" clip-rule="evenodd" d="M7.9888 16.0588C8.28215 16.3512 8.2829 16.8261 7.99047 17.1195L4.81046 20.3095C4.51803 20.6029 4.04316 20.6036 3.7498 20.3112C3.45645 20.0188 3.4557 19.5439 3.74813 19.2505L6.92814 16.0605C7.22057 15.7671 7.69544 15.7664 7.9888 16.0588Z" fill="#101010"/>
<path fill-rule="evenodd" clip-rule="evenodd" d="M5.5 1.75C4.61698 1.75 3.80173 2.05774 3.16037 2.57416L3.15439 2.57897L3.15437 2.57894C2.29152 3.25926 1.75 4.31377 1.75 5.5C1.75 6.19677 1.94918 6.86371 2.29228 7.43275L2.29312 7.43413C2.74356 8.18488 3.45167 8.76667 4.29717 9.0485L4.31125 9.05335C4.67526 9.18277 5.06976 9.25 5.5 9.25C6.45055 9.25 7.3051 8.90127 7.96262 8.31866L7.97185 8.31049L7.97191 8.31056C8.25783 8.06549 8.50636 7.76834 8.70689 7.43414C8.88252 7.14141 9.01526 6.8342 9.10685 6.50114L9.10951 6.49145L9.10958 6.49147C9.20024 6.17827 9.25 5.83843 9.25 5.5C9.25 3.42421 7.57579 1.75 5.5 1.75ZM2.22262 1.40342C3.12081 0.681282 4.26439 0.25 5.5 0.25C8.40421 0.25 10.75 2.59579 10.75 5.5C10.75 5.97982 10.6803 6.45826 10.5518 6.90368C10.4235 7.36879 10.2367 7.8 9.99313 8.20588C9.71471 8.66991 9.36484 9.09132 8.95279 9.44542C8.0309 10.2604 6.82724 10.75 5.5 10.75C4.91282 10.75 4.34969 10.6581 3.81578 10.4692C2.62442 10.0701 1.63519 9.25307 1.00687 8.20588L1.64999 7.82001L1.00771 8.20727C0.530806 7.41631 0.25 6.48323 0.25 5.5C0.25 3.84759 1.00723 2.36317 2.22262 1.40342Z" fill="#101010"/>
<path fill-rule="evenodd" clip-rule="evenodd" d="M3.78901 3.76966C4.0819 3.47676 4.55678 3.47677 4.84967 3.76966L7.22966 6.14966C7.52255 6.44256 7.52255 6.91743 7.22965 7.21032C6.93676 7.50322 6.46189 7.50322 6.16899 7.21032L3.789 4.83032C3.49611 4.53742 3.49611 4.06255 3.78901 3.76966Z" fill="#101010"/>
<path fill-rule="evenodd" clip-rule="evenodd" d="M7.21012 3.78968C7.50302 4.08257 7.50302 4.55744 7.21013 4.85034L4.83014 7.23034C4.53724 7.52323 4.06237 7.52324 3.76948 7.23034C3.47658 6.93745 3.47658 6.46258 3.76947 6.16968L6.14946 3.78968C6.44235 3.49678 6.91723 3.49678 7.21012 3.78968Z" fill="#101010"/>
</svg>
