<svg width="22" height="23" viewBox="0 0 22 23" fill="none" xmlns="http://www.w3.org/2000/svg">
<path fill-rule="evenodd" clip-rule="evenodd" d="M8.02798 18.0144C8.10539 17.6726 8.40908 17.4301 8.75945 17.4301H13.2595C13.6098 17.4301 13.9135 17.6726 13.9909 18.0144L14.4025 19.831C14.5426 20.4773 14.3716 21.1058 13.9483 21.5647C13.5325 22.0154 12.9254 22.25 12.2695 22.25H9.74946C8.49393 22.25 7.30446 21.188 7.61829 19.823L8.02798 18.0144ZM9.35856 18.9301L9.08093 20.1557L9.08026 20.1586C9.0526 20.2785 9.08294 20.4075 9.19406 20.5272C9.30838 20.6503 9.50241 20.75 9.74946 20.75H12.2695C12.5735 20.75 12.7564 20.6445 12.8457 20.5477C12.927 20.4596 12.9758 20.3339 12.9371 20.1517L12.6603 18.9301H9.35856Z" fill="#101010"/>
<path fill-rule="evenodd" clip-rule="evenodd" d="M11.0048 8.98254C11.6793 8.98254 12.3107 9.30853 12.7583 9.87508L13.8085 11.2053C14.0652 11.5304 14.0097 12.0021 13.6846 12.2587C13.3595 12.5154 12.8879 12.4599 12.6312 12.1348L11.5814 10.805C11.5813 10.8049 11.5814 10.8051 11.5814 10.805C11.3891 10.5617 11.1753 10.4825 11.0048 10.4825C10.8344 10.4825 10.6208 10.5615 10.4285 10.8047C10.4285 10.8048 10.4286 10.8047 10.4285 10.8047L7.37727 14.6763C7.01677 15.1304 6.98347 15.3349 6.99005 15.4189C6.99554 15.4889 7.04691 15.6833 7.50603 16.0606C7.51366 16.0669 7.52116 16.0733 7.52853 16.0798L9.25853 17.6199C9.56791 17.8953 9.59545 18.3694 9.32004 18.6788C9.04462 18.9881 8.57055 19.0157 8.26116 18.7403L6.54187 17.2097C5.99633 16.7591 5.54876 16.2262 5.49464 15.5361C5.44126 14.8555 5.79244 14.2604 6.20157 13.7447C6.20186 13.7444 6.20214 13.744 6.20243 13.7437L9.2508 9.8758C9.69844 9.30926 10.3304 8.98254 11.0048 8.98254Z" fill="#101010"/>
<path fill-rule="evenodd" clip-rule="evenodd" d="M14.7635 13.6125C15.0879 13.355 15.5597 13.4092 15.8172 13.7336C16.2303 14.254 16.5719 14.8451 16.5091 15.5252C16.4466 16.2014 16.0055 16.7317 15.4879 17.1907C15.4877 17.1909 15.4881 17.1905 15.4879 17.1907L13.7585 18.7302C13.4491 19.0057 12.975 18.9781 12.6996 18.6687C12.4242 18.3593 12.4517 17.8853 12.7611 17.6098L14.4922 16.0688C14.9444 15.668 15.008 15.4684 15.0155 15.3872C15.0226 15.3098 14.9993 15.1159 14.6424 14.6663C14.3848 14.3418 14.439 13.8701 14.7635 13.6125Z" fill="#101010"/>
<path fill-rule="evenodd" clip-rule="evenodd" d="M11.0098 9.37C11.424 9.37 11.7598 9.70578 11.7598 10.12V12.65C11.7598 13.0642 11.424 13.4 11.0098 13.4C10.5956 13.4 10.2598 13.0642 10.2598 12.65V10.12C10.2598 9.70578 10.5956 9.37 11.0098 9.37Z" fill="#101010"/>
<path fill-rule="evenodd" clip-rule="evenodd" d="M10.5195 1.75C10.3837 1.75 10.2695 1.86421 10.2695 2V3C10.2695 3.13579 10.3837 3.25 10.5195 3.25H11.5195C11.6553 3.25 11.7695 3.13579 11.7695 3V2C11.7695 1.86421 11.6553 1.75 11.5195 1.75H10.5195ZM8.76953 2C8.76953 1.03579 9.55532 0.25 10.5195 0.25H11.5195C12.4837 0.25 13.2695 1.03579 13.2695 2V3C13.2695 3.96421 12.4837 4.75 11.5195 4.75H10.5195C9.55532 4.75 8.76953 3.96421 8.76953 3V2Z" fill="#101010"/>
<path fill-rule="evenodd" clip-rule="evenodd" d="M0.519531 11.17C0.519531 10.2059 1.30526 9.41998 2.26953 9.41998H3.26953C4.2338 9.41998 5.01953 10.2059 5.01953 11.17V12.17C5.01953 13.1343 4.23374 13.92 3.26953 13.92H2.26953C1.30532 13.92 0.519531 13.1343 0.519531 12.17V11.17ZM2.26953 10.92C2.1338 10.92 2.01953 11.0342 2.01953 11.17V12.17C2.01953 12.3058 2.13374 12.42 2.26953 12.42H3.26953C3.40532 12.42 3.51953 12.3058 3.51953 12.17V11.17C3.51953 11.0342 3.40526 10.92 3.26953 10.92H2.26953Z" fill="#101010"/>
<path fill-rule="evenodd" clip-rule="evenodd" d="M18.7295 10.92C18.5938 10.92 18.4795 11.0342 18.4795 11.17V12.17C18.4795 12.3058 18.5937 12.42 18.7295 12.42H19.7295C19.8653 12.42 19.9795 12.3058 19.9795 12.17V11.17C19.9795 11.0342 19.8652 10.92 19.7295 10.92H18.7295ZM16.9795 11.17C16.9795 10.2059 17.7652 9.41998 18.7295 9.41998H19.7295C20.6938 9.41998 21.4795 10.2059 21.4795 11.17V12.17C21.4795 13.1343 20.6937 13.92 19.7295 13.92H18.7295C17.7653 13.92 16.9795 13.1343 16.9795 12.17V11.17Z" fill="#101010"/>
<path fill-rule="evenodd" clip-rule="evenodd" d="M5.21082 4.49171C5.51916 4.7683 5.54489 5.24248 5.26829 5.55081C4.16675 6.77876 3.5 8.39218 3.5 10.17C3.5 10.5842 3.16421 10.92 2.75 10.92C2.33579 10.92 2 10.5842 2 10.17C2 8.0078 2.81326 6.04123 4.15172 4.54918C4.42831 4.24085 4.90249 4.21512 5.21082 4.49171Z" fill="#101010"/>
<path fill-rule="evenodd" clip-rule="evenodd" d="M10.2634 2.46697C10.3147 2.87799 10.0232 3.25283 9.61218 3.30421C9.02759 3.37728 8.46448 3.51389 7.93119 3.71275C7.54308 3.85747 7.11113 3.66016 6.96641 3.27205C6.82169 2.88394 7.019 2.452 7.40711 2.30728C8.05382 2.06613 8.73072 1.90272 9.42613 1.81579C9.83714 1.76441 10.212 2.05596 10.2634 2.46697Z" fill="#101010"/>
<path fill-rule="evenodd" clip-rule="evenodd" d="M11.7753 2.4677C11.8263 2.05663 12.2008 1.76472 12.6119 1.8157C16.7707 2.33143 19.9996 5.86459 19.9996 10.17C19.9996 10.5842 19.6638 10.92 19.2496 10.92C18.8354 10.92 18.4996 10.5842 18.4996 10.17C18.4996 6.63538 15.8485 3.72857 12.4273 3.3043C12.0162 3.25332 11.7243 2.87876 11.7753 2.4677Z" fill="#101010"/>
</svg>
