<svg width="22" height="24" viewBox="0 0 22 24" fill="none" xmlns="http://www.w3.org/2000/svg">
<path fill-rule="evenodd" clip-rule="evenodd" d="M10.6804 2.46034C10.6804 2.46035 10.6804 2.46034 10.6804 2.46034L9.90041 3.24036C9.72331 3.41747 9.7233 3.70256 9.9004 3.87966L10.6804 4.65969C10.6804 4.6597 10.6804 4.65969 10.6804 4.65969C10.8575 4.83679 11.1426 4.8368 11.3197 4.6597C11.3197 4.6597 11.3197 4.65971 11.3197 4.6597L12.0997 3.87968C12.2768 3.70257 12.2768 3.41748 12.0997 3.24037L11.3197 2.46034C11.3197 2.46034 11.3197 2.46035 11.3197 2.46034C11.1426 2.28325 10.8575 2.28325 10.6804 2.46034ZM9.61974 1.39968C10.3826 0.636791 11.6175 0.636791 12.3804 1.39968L13.1604 2.17971C13.1604 2.17972 13.1604 2.17971 13.1604 2.17971C13.9233 2.9426 13.9233 4.17742 13.1604 4.94031C13.1604 4.94032 13.1604 4.94031 13.1604 4.94031L12.3804 5.72034C11.6175 6.48324 10.3826 6.48325 9.61974 5.72035L8.83974 4.94033C8.83974 4.94032 8.83975 4.94033 8.83974 4.94033C8.07686 4.17743 8.07685 2.94261 8.83973 2.17972C8.83974 2.17972 8.83973 2.17973 8.83973 2.17972L9.61974 1.39968Z" fill="#101010"/>
<path fill-rule="evenodd" clip-rule="evenodd" d="M18.45 10.56C18.2042 10.56 18 10.7642 18 11.01V12.11C18 12.3558 18.2043 12.5601 18.45 12.5601H19.55C19.7957 12.5601 20 12.3558 20 12.11V11.01C20 10.7642 19.7958 10.56 19.55 10.56H18.45ZM16.5 11.01C16.5 9.93581 17.3758 9.06 18.45 9.06H19.55C20.6242 9.06 21.5 9.93581 21.5 11.01V12.11C21.5 13.1841 20.6243 14.0601 19.55 14.0601H18.45C17.3757 14.0601 16.5 13.1841 16.5 12.11V11.01Z" fill="#101010"/>
<path fill-rule="evenodd" clip-rule="evenodd" d="M0.5 11.01C0.5 9.93581 1.37577 9.06 2.45 9.06H3.55C4.62423 9.06 5.5 9.93581 5.5 11.01V12.11C5.5 13.1841 4.62428 14.0601 3.55 14.0601H2.45C1.37572 14.0601 0.5 13.1841 0.5 12.11V11.01ZM2.45 10.56C2.20422 10.56 2 10.7642 2 11.01V12.11C2 12.3558 2.20427 12.5601 2.45 12.5601H3.55C3.79573 12.5601 4 12.3558 4 12.11V11.01C4 10.7642 3.79578 10.56 3.55 10.56H2.45Z" fill="#101010"/>
<path fill-rule="evenodd" clip-rule="evenodd" d="M11.7099 4.26966C12.0028 3.97676 12.4777 3.97676 12.7706 4.26966L18.0706 9.56964C18.3635 9.86254 18.3635 10.3374 18.0706 10.6303C17.7777 10.9232 17.3028 10.9232 17.0099 10.6303L11.7099 5.33032C11.417 5.03743 11.417 4.56255 11.7099 4.26966Z" fill="#101010"/>
<path fill-rule="evenodd" clip-rule="evenodd" d="M7.6403 6.91969C7.93319 7.21258 7.93318 7.68745 7.64029 7.98035L4.99029 10.6303C4.69739 10.9232 4.22252 10.9232 3.92963 10.6303C3.63674 10.3374 3.63674 9.86253 3.92963 9.56964L6.57964 6.91968C6.87253 6.62679 7.34741 6.62679 7.6403 6.91969Z" fill="#101010"/>
<path fill-rule="evenodd" clip-rule="evenodd" d="M8.028 19.0144C8.10541 18.6726 8.4091 18.4301 8.75947 18.4301H13.2595C13.6098 18.4301 13.9135 18.6726 13.9909 19.0144L14.4025 20.831C14.5426 21.4773 14.3716 22.1058 13.9483 22.5647C13.5325 23.0154 12.9254 23.25 12.2695 23.25H9.74947C8.49394 23.25 7.30445 22.188 7.61829 20.823L8.028 19.0144ZM9.35857 19.9301L9.08093 21.1557L9.08026 21.1586C9.0526 21.2785 9.08294 21.4075 9.19406 21.5272C9.30838 21.6503 9.50241 21.75 9.74947 21.75H12.2695C12.5735 21.75 12.7564 21.6445 12.8457 21.5477C12.927 21.4596 12.9758 21.3339 12.9371 21.1517L12.6604 19.9301H9.35857Z" fill="#101010"/>
<path fill-rule="evenodd" clip-rule="evenodd" d="M11.0048 9.98254C11.6793 9.98254 12.3107 10.3085 12.7583 10.8751L13.8085 12.2053C14.0652 12.5304 14.0097 13.0021 13.6846 13.2587C13.3595 13.5154 12.8878 13.4599 12.6312 13.1348L11.5814 11.805C11.5813 11.8049 11.5814 11.8051 11.5814 11.805C11.3891 11.5617 11.1753 11.4825 11.0048 11.4825C10.8344 11.4825 10.6209 11.5615 10.4286 11.8046C10.4285 11.8047 10.4288 11.8045 10.4286 11.8046L7.37727 15.6763C7.01677 16.1304 6.98347 16.3349 6.99005 16.4189C6.99554 16.4889 7.0469 16.6833 7.50602 17.0606C7.51365 17.0669 7.52115 17.0733 7.52853 17.0798L9.25853 18.6199C9.56792 18.8953 9.59546 19.3694 9.32004 19.6788C9.04463 19.9881 8.57056 20.0157 8.26117 19.7403L6.54187 18.2098C5.99632 17.7591 5.54876 17.2262 5.49464 16.5361C5.44126 15.8555 5.79246 15.2603 6.20161 14.7447C6.20188 14.7444 6.20215 14.744 6.20243 14.7437L9.2508 10.8758C9.69844 10.3093 10.3304 9.98254 11.0048 9.98254Z" fill="#101010"/>
<path fill-rule="evenodd" clip-rule="evenodd" d="M14.7635 14.6125C15.0879 14.355 15.5597 14.4092 15.8172 14.7336C16.2303 15.254 16.5719 15.8451 16.5091 16.5252C16.4466 17.2014 16.0055 17.7317 15.4879 18.1907C15.4877 18.1909 15.4881 18.1905 15.4879 18.1907L13.7585 19.7302C13.4491 20.0057 12.975 19.9781 12.6996 19.6687C12.4242 19.3593 12.4517 18.8853 12.7611 18.6099L14.4922 17.0688C14.9443 16.6679 15.008 16.4684 15.0155 16.3872C15.0226 16.3098 14.9993 16.1159 14.6424 15.6663C14.3848 15.3418 14.439 14.8701 14.7635 14.6125Z" fill="#101010"/>
<path fill-rule="evenodd" clip-rule="evenodd" d="M11.0098 10.37C11.424 10.37 11.7598 10.7058 11.7598 11.12V13.65C11.7598 14.0642 11.424 14.4 11.0098 14.4C10.5956 14.4 10.2598 14.0642 10.2598 13.65V11.12C10.2598 10.7058 10.5956 10.37 11.0098 10.37Z" fill="#101010"/>
</svg>
