<svg width="22" height="22" viewBox="0 0 22 22" fill="none" xmlns="http://www.w3.org/2000/svg">
<path fill-rule="evenodd" clip-rule="evenodd" d="M10.6904 1.21967C11.3806 0.52941 12.3551 0.25 13.4707 0.25C13.8849 0.25 14.2207 0.585786 14.2207 1C14.2207 1.41421 13.8849 1.75 13.4707 1.75C12.5863 1.75 12.0608 1.97059 11.751 2.28033C11.4413 2.59007 11.2207 3.11561 11.2207 4V18C11.2207 18.8844 11.4413 19.4099 11.751 19.7197C12.0608 20.0294 12.5863 20.25 13.4707 20.25H17.4707C18.3551 20.25 18.8806 20.0294 19.1904 19.7197C19.5001 19.4099 19.7207 18.8844 19.7207 18V4C19.7207 3.11561 19.5001 2.59007 19.1904 2.28033C18.8806 1.97059 18.3551 1.75 17.4707 1.75C17.0565 1.75 16.7207 1.41421 16.7207 1C16.7207 0.585786 17.0565 0.25 17.4707 0.25C18.5863 0.25 19.5608 0.52941 20.251 1.21967C20.9413 1.90993 21.2207 2.88439 21.2207 4V18C21.2207 19.1156 20.9413 20.0901 20.251 20.7803C19.5608 21.4706 18.5863 21.75 17.4707 21.75H13.4707C12.3551 21.75 11.3806 21.4706 10.6904 20.7803C10.0001 20.0901 9.7207 19.1156 9.7207 18V4C9.7207 2.88439 10.0001 1.90993 10.6904 1.21967Z" fill="#101010"/>
<path fill-rule="evenodd" clip-rule="evenodd" d="M9.7207 5C9.7207 4.58579 10.0565 4.25 10.4707 4.25H15.4707C15.8849 4.25 16.2207 4.58579 16.2207 5C16.2207 5.41421 15.8849 5.75 15.4707 5.75H10.4707C10.0565 5.75 9.7207 5.41421 9.7207 5Z" fill="#101010"/>
<path fill-rule="evenodd" clip-rule="evenodd" d="M9.7207 17C9.7207 16.5858 10.0565 16.25 10.4707 16.25H14.4707C14.8849 16.25 15.2207 16.5858 15.2207 17C15.2207 17.4142 14.8849 17.75 14.4707 17.75H10.4707C10.0565 17.75 9.7207 17.4142 9.7207 17Z" fill="#101010"/>
<path fill-rule="evenodd" clip-rule="evenodd" d="M9.72074 12.9425C9.72488 12.5283 10.064 12.1959 10.4782 12.2001L15.4782 12.2501C15.8924 12.2542 16.2248 12.5933 16.2207 13.0075C16.2165 13.4217 15.8774 13.7541 15.4632 13.75L10.4632 13.7C10.049 13.6958 9.7166 13.3567 9.72074 12.9425Z" fill="#101010"/>
<path fill-rule="evenodd" clip-rule="evenodd" d="M9.7207 9C9.7207 8.58579 10.0565 8.25 10.4707 8.25H13.4707C13.8849 8.25 14.2207 8.58579 14.2207 9C14.2207 9.41421 13.8849 9.75 13.4707 9.75H10.4707C10.0565 9.75 9.7207 9.41421 9.7207 9Z" fill="#101010"/>
<path fill-rule="evenodd" clip-rule="evenodd" d="M4.49027 1.75C3.27284 1.75 2.28027 2.74586 2.28027 3.95V8.02C2.28027 8.43421 1.94449 8.77 1.53027 8.77C1.11606 8.77 0.780273 8.43421 0.780273 8.02V3.95C0.780273 1.91414 2.44771 0.25 4.49027 0.25C6.52449 0.25 8.19027 1.91579 8.19027 3.95V16.91C8.19027 17.225 8.1265 17.5783 8.03926 17.8929C7.95182 18.2083 7.82491 18.542 7.6663 18.811L7.66259 18.8173L6.84375 20.1753C6.84354 20.1756 6.84333 20.176 6.84312 20.1763C6.28537 21.1073 5.45232 21.7175 4.48527 21.7175C3.51824 21.7175 2.68521 21.1073 2.12745 20.1764C2.12723 20.176 2.12701 20.1756 2.12679 20.1753L1.30422 18.811C1.14561 18.5421 1.01873 18.2083 0.931291 17.8929C0.84405 17.5783 0.780273 17.225 0.780273 16.91V12.95C0.780273 12.5358 1.11606 12.2 1.53027 12.2C1.94449 12.2 2.28027 12.5358 2.28027 12.95V16.91C2.28027 17.045 2.3115 17.2567 2.37676 17.4921C2.44133 17.725 2.52368 17.925 2.59471 18.0463L3.41376 19.4047C3.796 20.0432 4.20769 20.2175 4.48527 20.2175C4.76286 20.2175 5.17455 20.0432 5.55679 19.4047L5.55799 19.4027L6.37585 18.0463C6.44688 17.925 6.52922 17.725 6.59379 17.4921C6.65905 17.2567 6.69027 17.045 6.69027 16.91V3.95C6.69027 2.74421 5.69606 1.75 4.49027 1.75Z" fill="#101010"/>
<path fill-rule="evenodd" clip-rule="evenodd" d="M0.780273 6C0.780273 5.58579 1.11606 5.25 1.53027 5.25H7.44027C7.85449 5.25 8.19027 5.58579 8.19027 6C8.19027 6.41421 7.85449 6.75 7.44027 6.75H1.53027C1.11606 6.75 0.780273 6.41421 0.780273 6Z" fill="#101010"/>
</svg>
