<svg width="22" height="12" viewBox="0 0 22 12" fill="none" xmlns="http://www.w3.org/2000/svg">
<path fill-rule="evenodd" clip-rule="evenodd" d="M1.21967 1.21967C1.90993 0.52941 2.88439 0.25 4 0.25H18C19.1156 0.25 20.0901 0.52941 20.7803 1.21967C21.4706 1.90993 21.75 2.88439 21.75 4C21.75 4.41421 21.4142 4.75 21 4.75C20.5858 4.75 20.25 4.41421 20.25 4C20.25 3.11561 20.0294 2.59007 19.7197 2.28033C19.4099 1.97059 18.8844 1.75 18 1.75H4C3.11561 1.75 2.59007 1.97059 2.28033 2.28033C1.97059 2.59007 1.75 3.11561 1.75 4V8C1.75 8.88439 1.97059 9.40993 2.28033 9.71967C2.59007 10.0294 3.11561 10.25 4 10.25H18C18.8844 10.25 19.4099 10.0294 19.7197 9.71967C20.0294 9.40993 20.25 8.88439 20.25 8C20.25 7.58579 20.5858 7.25 21 7.25C21.4142 7.25 21.75 7.58579 21.75 8C21.75 9.11561 21.4706 10.0901 20.7803 10.7803C20.0901 11.4706 19.1156 11.75 18 11.75H4C2.88439 11.75 1.90993 11.4706 1.21967 10.7803C0.52941 10.0901 0.25 9.11561 0.25 8V4C0.25 2.88439 0.52941 1.90993 1.21967 1.21967Z" fill="#101010"/>
<path fill-rule="evenodd" clip-rule="evenodd" d="M17 0.25C17.4142 0.25 17.75 0.585786 17.75 1V6C17.75 6.41421 17.4142 6.75 17 6.75C16.5858 6.75 16.25 6.41421 16.25 6V1C16.25 0.585786 16.5858 0.25 17 0.25Z" fill="#101010"/>
<path fill-rule="evenodd" clip-rule="evenodd" d="M5 0.25C5.41421 0.25 5.75 0.585786 5.75 1V5C5.75 5.41421 5.41421 5.75 5 5.75C4.58579 5.75 4.25 5.41421 4.25 5V1C4.25 0.585786 4.58579 0.25 5 0.25Z" fill="#101010"/>
<path fill-rule="evenodd" clip-rule="evenodd" d="M9.0575 0.250038C9.47169 0.25418 9.80411 0.593308 9.79996 1.0075L9.74996 6.0075C9.74582 6.42169 9.40669 6.75411 8.9925 6.74996C8.57831 6.74582 8.2459 6.40669 8.25004 5.9925L8.30004 0.992501C8.30418 0.578308 8.64331 0.245896 9.0575 0.250038Z" fill="#101010"/>
<path fill-rule="evenodd" clip-rule="evenodd" d="M13 0.25C13.4142 0.25 13.75 0.585786 13.75 1V4C13.75 4.41421 13.4142 4.75 13 4.75C12.5858 4.75 12.25 4.41421 12.25 4V1C12.25 0.585786 12.5858 0.25 13 0.25Z" fill="#101010"/>
</svg>
