<svg width="18" height="20" viewBox="0 0 18 20" fill="none" xmlns="http://www.w3.org/2000/svg">
<path d="M15 0H3C1.34 0 0 1.33 0 2.97V13.88C0 15.52 1.34 16.85 3 16.85H3.76C4.56 16.85 5.32 17.16 5.88 17.72L7.59 19.41C8.37 20.18 9.64 20.18 10.42 19.41L12.13 17.72C12.69 17.16 13.46 16.85 14.25 16.85H15C16.66 16.85 18 15.52 18 13.88V2.97C18 1.33 16.66 0 15 0ZM7.38 11.01C7.79 11.01 8.13 11.35 8.13 11.76C8.13 12.17 7.79 12.51 7.38 12.51H4.7C4.26 12.51 3.85 12.3 3.59 11.94C3.34 11.6 3.28 11.18 3.4 10.78C3.75 9.71 4.61 9.13 5.37 8.61C6.17 8.07 6.62 7.73 6.62 7.15C6.62 6.63 6.2 6.21 5.68 6.21C5.16 6.21 4.75 6.64 4.75 7.16C4.75 7.57 4.41 7.91 4 7.91C3.59 7.91 3.25 7.57 3.25 7.16C3.25 5.82 4.34 4.72 5.69 4.72C7.04 4.72 8.13 5.81 8.13 7.16C8.13 8.57 7.07 9.29 6.22 9.87C5.69 10.23 5.19 10.57 4.94 11.02H7.38V11.01ZM14 11.08H13.79V11.77C13.79 12.18 13.45 12.52 13.04 12.52C12.63 12.52 12.29 12.18 12.29 11.77V11.08H10.33C10.33 11.08 10.33 11.08 10.32 11.08C9.83 11.08 9.38 10.82 9.13 10.4C8.88 9.97 8.88 9.44 9.13 9.02C9.81 7.85 10.6 6.52 11.32 5.36C11.64 4.85 12.25 4.62 12.82 4.78C13.39 4.95 13.79 5.47 13.78 6.07V9.59H14C14.41 9.59 14.75 9.93 14.75 10.34C14.75 10.75 14.41 11.08 14 11.08Z" fill="#101010"/>
<path d="M12.29 9.57989V6.63989C11.7 7.59989 11.09 8.62989 10.54 9.56989H12.29V9.57989Z" fill="#101010"/>
</svg>
