<svg width="20" height="20" viewBox="0 0 20 20" fill="none" xmlns="http://www.w3.org/2000/svg">
<path d="M10 16.5V17.38C10 19.25 9.25 20 7.37 20H2.62C1.17 20 0 18.83 0 17.38V12.63C0 10.75 0.75 10 2.62 10H3.5V13.5C3.5 15.16 4.84 16.5 6.5 16.5H10Z" fill="#101010"/>
<path d="M15 11.5V12.37C15 13.82 13.82 15 12.37 15H7.62C5.75 15 5 14.25 5 12.37V7.62C5 6.17 6.17 5 7.62 5H8.5V8.5C8.5 10.16 9.84 11.5 11.5 11.5H15Z" fill="#101010"/>
<path d="M20 2.62V7.37C20 9.25 19.25 10 17.37 10H12.62C10.75 10 10 9.25 10 7.37V2.62C10 0.75 10.75 0 12.62 0H17.37C19.25 0 20 0.75 20 2.62Z" fill="#101010"/>
</svg>
