<svg width="20" height="20" viewBox="0 0 20 20" fill="none" xmlns="http://www.w3.org/2000/svg">
<path d="M17.3302 3.68003L11.0602 0.300029C10.4002 -0.0599707 9.60017 -0.0599707 8.94018 0.300029L2.67018 3.68003C2.21018 3.93003 1.93018 4.41003 1.93018 4.96003C1.93018 5.50003 2.21018 5.99003 2.67018 6.24003L8.94018 9.62003C9.27017 9.80003 9.64018 9.89003 10.0002 9.89003C10.3602 9.89003 10.7302 9.80003 11.0602 9.62003L17.3302 6.24003C17.7902 5.99003 18.0702 5.51003 18.0702 4.96003C18.0702 4.41003 17.7902 3.93003 17.3302 3.68003Z" fill="#101010"/>
<path d="M7.91 10.79L2.07 7.87C1.62 7.65 1.1 7.67 0.68 7.93C0.25 8.2 0 8.65 0 9.15V14.66C0 15.61 0.53 16.47 1.38 16.9L7.21 19.82C7.41 19.92 7.63 19.97 7.85 19.97C8.11 19.97 8.37 19.9 8.6 19.76C9.03 19.5 9.28 19.04 9.28 18.54V13.03C9.29 12.07 8.76 11.21 7.91 10.79Z" fill="#101010"/>
<path d="M19.3202 7.93014C18.8902 7.67014 18.3702 7.64014 17.9302 7.87014L12.1002 10.7901C11.2502 11.2201 10.7202 12.0701 10.7202 13.0301V18.5401C10.7202 19.0401 10.9702 19.5001 11.4002 19.7601C11.6302 19.9001 11.8902 19.9701 12.1502 19.9701C12.3702 19.9701 12.5902 19.9201 12.7902 19.8201L18.6202 16.9001C19.4702 16.4701 20.0002 15.6201 20.0002 14.6601V9.15014C20.0002 8.65014 19.7502 8.20014 19.3202 7.93014Z" fill="#101010"/>
</svg>
