<svg width="20" height="21" viewBox="0 0 20 21" fill="none" xmlns="http://www.w3.org/2000/svg">
<path d="M14.191 0.329956H5.81098C2.17098 0.329956 0.000976562 2.50996 0.000976562 6.14996V14.52C0.000976562 18.16 2.17098 20.33 5.81098 20.33H14.181C17.821 20.33 19.991 18.16 19.991 14.52V6.14996C20.001 2.50996 17.831 0.329956 14.191 0.329956ZM9.57098 15.12C9.57098 15.42 9.42098 15.69 9.16098 15.85C9.02098 15.94 8.87098 15.98 8.71098 15.98C8.58098 15.98 8.45098 15.95 8.32098 15.89L4.82098 14.14C4.32098 13.88 4.00098 13.37 4.00098 12.8V9.48996C4.00098 9.18996 4.15098 8.91996 4.41098 8.75996C4.67098 8.59996 4.98098 8.58996 5.25098 8.71996L8.75098 10.47C9.26098 10.73 9.58098 11.24 9.58098 11.81V15.12H9.57098ZM9.36098 9.76996L5.60098 7.73996C5.33098 7.58996 5.16098 7.29996 5.16098 6.96996C5.16098 6.64996 5.33098 6.34996 5.60098 6.19996L9.36098 4.16996C9.76098 3.95996 10.231 3.95996 10.631 4.16996L14.391 6.19996C14.661 6.34996 14.831 6.63996 14.831 6.96996C14.831 7.29996 14.661 7.58996 14.391 7.73996L10.631 9.76996C10.431 9.87996 10.211 9.92996 9.99098 9.92996C9.77098 9.92996 9.56098 9.87996 9.36098 9.76996ZM16.001 12.8C16.001 13.37 15.681 13.89 15.171 14.14L11.671 15.89C11.551 15.95 11.421 15.98 11.281 15.98C11.121 15.98 10.971 15.94 10.831 15.85C10.571 15.69 10.421 15.42 10.421 15.12V11.81C10.421 11.24 10.741 10.72 11.251 10.47L14.751 8.71996C15.021 8.58996 15.331 8.59996 15.591 8.75996C15.851 8.91996 16.001 9.18996 16.001 9.48996V12.8Z" fill="#101010"/>
</svg>
