<svg width="20" height="20" viewBox="0 0 20 20" fill="none" xmlns="http://www.w3.org/2000/svg">
<path d="M14.19 0H5.81C2.17 0 0 2.17 0 5.81V14.18C0 17.83 2.17 20 5.81 20H14.18C17.82 20 19.99 17.83 19.99 14.19V5.81C20 2.17 17.83 0 14.19 0ZM16 10.75H10.75V16C10.75 16.41 10.41 16.75 10 16.75C9.59 16.75 9.25 16.41 9.25 16V10.75H4C3.59 10.75 3.25 10.41 3.25 10C3.25 9.59 3.59 9.25 4 9.25H9.25V4C9.25 3.59 9.59 3.25 10 3.25C10.41 3.25 10.75 3.59 10.75 4V9.25H16C16.41 9.25 16.75 9.59 16.75 10C16.75 10.41 16.41 10.75 16 10.75Z" fill="#101010"/>
</svg>
