<svg width="20" height="21" viewBox="0 0 20 21" fill="none" xmlns="http://www.w3.org/2000/svg">
<path d="M18.0501 9.63006L13.3801 7.62006L12.3401 7.18006C12.1801 7.10006 12.0401 6.89006 12.0401 6.71006V3.65006C12.0401 2.69006 11.3301 1.55006 10.4701 1.11006C10.1701 0.960059 9.81006 0.960059 9.51006 1.11006C8.66006 1.55006 7.95006 2.70006 7.95006 3.66006V6.72006C7.95006 6.90006 7.81006 7.11006 7.65006 7.19006L1.95006 9.64006C1.32006 9.90006 0.810059 10.6901 0.810059 11.3701V12.6901C0.810059 13.5401 1.45006 13.9601 2.24006 13.6201L7.25006 11.4601C7.64006 11.2901 7.96006 11.5001 7.96006 11.9301V13.0401V14.8401C7.96006 15.0701 7.83006 15.4001 7.67006 15.5601L5.35006 17.8901C5.11006 18.1301 5.00006 18.6001 5.11006 18.9401L5.56006 20.3001C5.74006 20.8901 6.41006 21.1701 6.96006 20.8901L9.34006 18.8901C9.70006 18.5801 10.2901 18.5801 10.6501 18.8901L13.0301 20.8901C13.5801 21.1601 14.2501 20.8901 14.4501 20.3001L14.9001 18.9401C15.0101 18.6101 14.9001 18.1301 14.6601 17.8901L12.3401 15.5601C12.1701 15.4001 12.0401 15.0701 12.0401 14.8401V11.9301C12.0401 11.5001 12.3501 11.3001 12.7501 11.4601L17.7601 13.6201C18.5501 13.9601 19.1901 13.5401 19.1901 12.6901V11.3701C19.1901 10.6901 18.6801 9.90006 18.0501 9.63006Z" fill="#101010"/>
</svg>
