<svg width="22" height="22" viewBox="0 0 22 22" fill="none" xmlns="http://www.w3.org/2000/svg">
<path d="M21 20.25H20V14C20 9.03 15.97 5 11 5C6.03 5 2 9.03 2 14V20.25H1C0.59 20.25 0.25 20.59 0.25 21C0.25 21.41 0.59 21.75 1 21.75H21C21.41 21.75 21.75 21.41 21.75 21C21.75 20.59 21.41 20.25 21 20.25Z" fill="#101010"/>
<path d="M11 2.75C10.59 2.75 10.25 2.41 10.25 2V1C10.25 0.59 10.59 0.25 11 0.25C11.41 0.25 11.75 0.59 11.75 1V2C11.75 2.41 11.41 2.75 11 2.75Z" fill="#101010"/>
<path d="M3.99945 4.74994C3.80945 4.74994 3.61945 4.67994 3.46945 4.52994L2.46945 3.52994C2.17945 3.23994 2.17945 2.75994 2.46945 2.46994C2.75945 2.17994 3.23945 2.17994 3.52945 2.46994L4.52945 3.46994C4.81945 3.75994 4.81945 4.23994 4.52945 4.52994C4.37945 4.67994 4.18945 4.74994 3.99945 4.74994Z" fill="#101010"/>
<path d="M17.9995 4.74994C17.8095 4.74994 17.6195 4.67994 17.4695 4.52994C17.1795 4.23994 17.1795 3.75994 17.4695 3.46994L18.4695 2.46994C18.7595 2.17994 19.2395 2.17994 19.5295 2.46994C19.8195 2.75994 19.8195 3.23994 19.5295 3.52994L18.5295 4.52994C18.3795 4.67994 18.1895 4.74994 17.9995 4.74994Z" fill="#101010"/>
</svg>
