<svg width="20" height="16" viewBox="0 0 20 16" fill="none" xmlns="http://www.w3.org/2000/svg">
<path d="M13.98 15.38H15.02C16.61 15.38 17.25 14.78 17.25 13.26V1.38H11.75V13.26C11.76 14.78 12.4 15.38 13.98 15.38Z" fill="#101010"/>
<path d="M5.48 10.38H6.52C8.11 10.38 8.75 9.77001 8.75 8.26V1.38H3.25V8.26C3.26 9.77001 3.9 10.38 5.48 10.38Z" fill="#101010"/>
<path d="M19.25 2.12H0.75C0.34 2.12 0 1.79 0 1.38C0 0.970005 0.34 0.630005 0.75 0.630005H19.25C19.66 0.630005 20 0.970005 20 1.38C20 1.79 19.66 2.12 19.25 2.12Z" fill="#101010"/>
</svg>
