<svg width="16" height="20" viewBox="0 0 16 20" fill="none" xmlns="http://www.w3.org/2000/svg">
<path d="M0.620117 13.98V15.02C0.620117 16.61 1.22012 17.25 2.74012 17.25H14.6201V11.75H2.74012C1.22012 11.75 0.620117 12.39 0.620117 13.98Z" fill="#101010"/>
<path d="M5.62012 5.48V6.52C5.62012 8.11 6.23012 8.75 7.74012 8.75H14.6201V3.25H7.74012C6.23012 3.25 5.62012 3.89 5.62012 5.48Z" fill="#101010"/>
<path d="M14.6201 20C14.2101 20 13.8701 19.66 13.8701 19.25V0.75C13.8701 0.34 14.2101 0 14.6201 0C15.0301 0 15.3701 0.34 15.3701 0.75V19.25C15.3801 19.66 15.0401 20 14.6201 20Z" fill="#101010"/>
</svg>
