<svg width="18" height="20" viewBox="0 0 18 20" fill="none" xmlns="http://www.w3.org/2000/svg">
<path d="M11.9303 0.5V6.4C11.9303 6.84 11.4103 7.06 11.0903 6.77L9.34031 5.16C9.15031 4.98 8.85031 4.98 8.66031 5.16L6.91031 6.76C6.59031 7.06 6.07031 6.83 6.07031 6.4V0.5C6.07031 0.22 6.29031 0 6.57031 0H11.4303C11.7103 0 11.9303 0.22 11.9303 0.5Z" fill="#101010"/>
<path d="M13.98 0.06001C13.69 0.02001 13.43 0.27001 13.43 0.56001V6.58001C13.43 7.34001 12.98 8.03001 12.28 8.34001C11.58 8.64001 10.77 8.51001 10.21 7.99001L9.34 7.19001C9.15 7.01001 8.86 7.01001 8.66 7.19001L7.79 7.99001C7.43 8.33001 6.96 8.50001 6.49 8.50001C6.23 8.50001 5.97 8.45001 5.72 8.34001C5.02 8.03001 4.57 7.34001 4.57 6.58001V0.56001C4.57 0.27001 4.31 0.02001 4.02 0.06001C1.22 0.41001 0 2.30001 0 5.00001V15C0 18 1.5 20 5 20H13C16.5 20 18 18 18 15V5.00001C18 2.30001 16.78 0.41001 13.98 0.06001ZM14.5 16.75H6C5.59 16.75 5.25 16.41 5.25 16C5.25 15.59 5.59 15.25 6 15.25H14.5C14.91 15.25 15.25 15.59 15.25 16C15.25 16.41 14.91 16.75 14.5 16.75ZM14.5 12.75H10.25C9.84 12.75 9.5 12.41 9.5 12C9.5 11.59 9.84 11.25 10.25 11.25H14.5C14.91 11.25 15.25 11.59 15.25 12C15.25 12.41 14.91 12.75 14.5 12.75Z" fill="#101010"/>
</svg>
