<svg width="21" height="20" viewBox="0 0 21 20" fill="none" xmlns="http://www.w3.org/2000/svg">
<path d="M18.1203 1.88L1.39031 18.61C1.34031 18.41 1.32031 18.19 1.32031 17.95V3.86C1.32031 1.74 3.05031 0 5.18031 0H14.8203C16.2203 0 17.4503 0.75 18.1203 1.88Z" fill="#101010"/>
<path d="M19.7699 0.229883C19.4699 -0.0701172 18.9799 -0.0701172 18.6799 0.229883L0.229883 18.6899C-0.0701172 18.9899 -0.0701172 19.4799 0.229883 19.7799C0.379883 19.9199 0.569883 19.9999 0.769883 19.9999C0.969883 19.9999 1.15988 19.9199 1.30988 19.7699L19.7699 1.30988C20.0799 1.00988 20.0799 0.529883 19.7699 0.229883Z" fill="#101010"/>
<path d="M17.2902 5.71005L9.90015 13.1001C9.44015 13.5601 9.53015 14.3301 10.0901 14.6601L17.4801 19.0901C18.1501 19.4901 18.9901 19.0101 18.9901 18.2301V6.41005C19.0001 5.52005 17.9201 5.08005 17.2902 5.71005Z" fill="#101010"/>
</svg>
