<svg width="20" height="20" viewBox="0 0 20 20" fill="none" xmlns="http://www.w3.org/2000/svg">
<path d="M14.002 7.75H6.00195C5.31195 7.75 4.75195 8.31 4.75195 9V10.05C4.78195 10.04 4.80195 10.03 4.83195 10.02C4.95195 9.96 5.08195 9.92 5.21195 9.88C5.27195 9.86 5.33195 9.84 5.40195 9.82C5.60195 9.78 5.80195 9.75 6.01195 9.75H14.012C14.222 9.75 14.422 9.78 14.622 9.82C14.682 9.83 14.742 9.86 14.812 9.88C14.942 9.92 15.072 9.96 15.192 10.02C15.222 10.03 15.252 10.04 15.272 10.05V9C15.252 8.31 14.692 7.75 14.002 7.75Z" fill="#101010"/>
<path d="M14.002 11.25H6.00195C5.31195 11.25 4.75195 11.81 4.75195 12.5V13H7.50195C7.91195 13 8.25195 13.34 8.25195 13.75C8.25195 14.71 9.04195 15.5 10.002 15.5C10.962 15.5 11.752 14.71 11.752 13.75C11.752 13.34 12.092 13 12.502 13H15.252V12.5C15.252 11.81 14.692 11.25 14.002 11.25Z" fill="#101010"/>
<path d="M14.002 4.5H6.00195C5.31195 4.5 4.75195 5.06 4.75195 5.75V6.56C5.13195 6.37 5.55195 6.25 6.00195 6.25H14.002C14.452 6.25 14.872 6.37 15.252 6.56V5.75C15.252 5.06 14.692 4.5 14.002 4.5Z" fill="#101010"/>
<path d="M14.192 0H5.81195C2.17195 0 0.00195312 2.17 0.00195312 5.81V14.18C0.00195312 17.83 2.17195 20 5.81195 20H14.182C17.822 20 19.992 17.83 19.992 14.19V5.81C20.002 2.17 17.832 0 14.192 0ZM17.002 14.5H16.002H13.162C12.822 15.93 11.532 17 10.002 17C8.47195 17 7.18195 15.93 6.84195 14.5H4.00195H3.00195C2.59195 14.5 2.25195 14.16 2.25195 13.75C2.25195 13.34 2.59195 13 3.00195 13H3.25195V12.5V12V9V5.75C3.25195 4.23 4.48195 3 6.00195 3H14.002C15.522 3 16.752 4.23 16.752 5.75V9V12V12.5V13H17.002C17.412 13 17.752 13.34 17.752 13.75C17.752 14.16 17.412 14.5 17.002 14.5Z" fill="#101010"/>
</svg>
