<svg width="18" height="21" viewBox="0 0 18 21" fill="none" xmlns="http://www.w3.org/2000/svg">
<path d="M13.8203 0.909912H4.18031C2.06031 0.909912 0.320312 2.64991 0.320312 4.76991V18.8599C0.320312 20.6599 1.61031 21.4199 3.19031 20.5499L8.07031 17.8399C8.59031 17.5499 9.43031 17.5499 9.94031 17.8399L14.8203 20.5499C16.4003 21.4299 17.6903 20.6699 17.6903 18.8599V4.76991C17.6803 2.64991 15.9503 0.909912 13.8203 0.909912ZM12.6203 8.02991L8.62031 12.0299C8.47031 12.1799 8.28031 12.2499 8.09031 12.2499C7.90031 12.2499 7.71031 12.1799 7.56031 12.0299L6.06031 10.5299C5.77031 10.2399 5.77031 9.75991 6.06031 9.46991C6.35031 9.17991 6.83031 9.17991 7.12031 9.46991L8.09031 10.4399L11.5603 6.96991C11.8503 6.67991 12.3303 6.67991 12.6203 6.96991C12.9103 7.25991 12.9103 7.73991 12.6203 8.02991Z" fill="#101010"/>
</svg>
