<svg width="20" height="20" viewBox="0 0 20 20" fill="none" xmlns="http://www.w3.org/2000/svg">
<path d="M10 0C4.48 0 0 4.48 0 10C0 15.52 4.48 20 10 20C15.52 20 20 15.52 20 10C20 4.48 15.52 0 10 0ZM15.85 12.1C15.81 12.19 15.76 12.27 15.69 12.34L12.65 15.38C12.5 15.53 12.31 15.6 12.12 15.6C11.93 15.6 11.74 15.53 11.59 15.38C11.3 15.09 11.3 14.61 11.59 14.32L13.35 12.56H4.85C4.44 12.56 4.1 12.22 4.1 11.81C4.1 11.4 4.44 11.06 4.85 11.06H15.16C15.26 11.06 15.35 11.08 15.45 11.12C15.63 11.2 15.78 11.34 15.86 11.53C15.92 11.71 15.92 11.92 15.85 12.1ZM15.15 8.93H4.85C4.75 8.93 4.65 8.91 4.56 8.87C4.38 8.79 4.23 8.65 4.15 8.46C4.07 8.28 4.07 8.07 4.15 7.89C4.19 7.8 4.24 7.72 4.31 7.65L7.35 4.61C7.64 4.32 8.12 4.32 8.41 4.61C8.7 4.9 8.7 5.38 8.41 5.67L6.66 7.43H15.16C15.57 7.43 15.91 7.77 15.91 8.18C15.91 8.59 15.57 8.93 15.15 8.93Z" fill="#101010"/>
</svg>
