<svg width="22" height="22" viewBox="0 0 22 22" fill="none" xmlns="http://www.w3.org/2000/svg">
<path d="M11 21.75C10.59 21.75 10.25 21.41 10.25 21V19C10.25 18.59 10.59 18.25 11 18.25C11.41 18.25 11.75 18.59 11.75 19V21C11.75 21.41 11.41 21.75 11 21.75Z" fill="#101010"/>
<path d="M11 17.75C10.59 17.75 10.25 17.41 10.25 17V15C10.25 14.59 10.59 14.25 11 14.25C11.41 14.25 11.75 14.59 11.75 15V17C11.75 17.41 11.41 17.75 11 17.75Z" fill="#101010"/>
<path d="M11 13.75C10.59 13.75 10.25 13.41 10.25 13V10C10.25 5.73 13.73 2.25 18 2.25H21C21.41 2.25 21.75 2.59 21.75 3C21.75 3.41 21.41 3.75 21 3.75H18C14.55 3.75 11.75 6.55 11.75 10V13C11.75 13.41 11.41 13.75 11 13.75Z" fill="#101010"/>
<path d="M11 13.75C10.59 13.75 10.25 13.41 10.25 13V10C10.25 6.55 7.45 3.75 4 3.75H1C0.59 3.75 0.25 3.41 0.25 3C0.25 2.59 0.59 2.25 1 2.25H4C8.27 2.25 11.75 5.73 11.75 10V13C11.75 13.41 11.41 13.75 11 13.75Z" fill="#101010"/>
<path d="M3.00043 5.74994C2.81043 5.74994 2.62043 5.67994 2.47043 5.52994L0.47043 3.52994C0.18043 3.23994 0.18043 2.75994 0.47043 2.46994L2.47043 0.469941C2.76043 0.179941 3.24043 0.179941 3.53043 0.469941C3.82043 0.759941 3.82043 1.23994 3.53043 1.52994L2.06043 2.99994L3.53043 4.46994C3.82043 4.75994 3.82043 5.23994 3.53043 5.52994C3.38043 5.67994 3.19043 5.74994 3.00043 5.74994Z" fill="#101010"/>
<path d="M19.0004 5.74994C18.8104 5.74994 18.6204 5.67994 18.4704 5.52994C18.1804 5.23994 18.1804 4.75994 18.4704 4.46994L19.9404 2.99994L18.4704 1.52994C18.1804 1.23994 18.1804 0.759941 18.4704 0.469941C18.7604 0.179941 19.2404 0.179941 19.5304 0.469941L21.5304 2.46994C21.8204 2.75994 21.8204 3.23994 21.5304 3.52994L19.5304 5.52994C19.3804 5.67994 19.1904 5.74994 19.0004 5.74994Z" fill="#101010"/>
</svg>
