<svg width="20" height="20" viewBox="0 0 20 20" fill="none" xmlns="http://www.w3.org/2000/svg">
<path d="M10 0C4.48 0 0 4.48 0 10C0 15.52 4.48 20 10 20C15.52 20 20 15.52 20 10C20 4.48 15.52 0 10 0ZM13.53 10.03C13.38 10.18 13.19 10.25 13 10.25C12.81 10.25 12.62 10.18 12.47 10.03L10.75 8.31V13.5C10.75 13.91 10.41 14.25 10 14.25C9.59 14.25 9.25 13.91 9.25 13.5V8.31L7.53 10.03C7.24 10.32 6.76 10.32 6.47 10.03C6.18 9.74 6.18 9.26 6.47 8.97L9.47 5.97C9.76 5.68 10.24 5.68 10.53 5.97L13.53 8.97C13.82 9.26 13.82 9.74 13.53 10.03Z" fill="#101010"/>
</svg>
