<svg width="20" height="20" viewBox="0 0 20 20" fill="none" xmlns="http://www.w3.org/2000/svg">
<path d="M14.19 0H5.81C2.17 0 0 2.17 0 5.81V14.18C0 17.83 2.17 20 5.81 20H14.18C17.82 20 19.99 17.83 19.99 14.19V5.81C20 2.17 17.83 0 14.19 0ZM15.69 12.05C15.65 12.14 15.6 12.22 15.53 12.29L12.58 15.24C12.43 15.39 12.24 15.46 12.05 15.46C11.86 15.46 11.67 15.39 11.52 15.24C11.23 14.95 11.23 14.47 11.52 14.18L13.19 12.51H5C4.59 12.51 4.25 12.17 4.25 11.76C4.25 11.35 4.59 11.01 5 11.01H15C15.1 11.01 15.19 11.03 15.29 11.07C15.47 11.15 15.62 11.29 15.7 11.48C15.77 11.66 15.77 11.86 15.69 12.05ZM15 8.99H5C4.9 8.99 4.81 8.97 4.71 8.93C4.53 8.85 4.38 8.71 4.3 8.52C4.22 8.34 4.22 8.13 4.3 7.95C4.35 7.86 4.4 7.78 4.47 7.71L7.42 4.76C7.71 4.47 8.19 4.47 8.48 4.76C8.77 5.05 8.77 5.53 8.48 5.82L6.81 7.49H15C15.41 7.49 15.75 7.83 15.75 8.24C15.75 8.65 15.41 8.99 15 8.99Z" fill="#101010"/>
</svg>
