<svg width="20" height="20" viewBox="0 0 20 20" fill="none" xmlns="http://www.w3.org/2000/svg">
<path d="M14.19 0H5.81C2.17 0 0 2.17 0 5.81V14.18C0 17.83 2.17 20 5.81 20H14.18C17.82 20 19.99 17.83 19.99 14.19V5.81C20 2.17 17.83 0 14.19 0ZM12.79 10.53L9.26 14.06C9.11 14.21 8.92 14.28 8.73 14.28C8.54 14.28 8.35 14.21 8.2 14.06C7.91 13.77 7.91 13.29 8.2 13L11.2 10L8.2 7C7.91 6.71 7.91 6.23 8.2 5.94C8.49 5.65 8.97 5.65 9.26 5.94L12.79 9.47C13.09 9.76 13.09 10.24 12.79 10.53Z" fill="#101010"/>
</svg>
