<svg width="20" height="20" viewBox="0 0 20 20" fill="none" xmlns="http://www.w3.org/2000/svg">
<path d="M14.19 0H5.81C2.17 0 0 2.17 0 5.81V14.18C0 17.83 2.17 20 5.81 20H14.18C17.82 20 19.99 17.83 19.99 14.19V5.81C20 2.17 17.83 0 14.19 0ZM14.82 12.24L10.53 16.53C10.39 16.67 10.2 16.75 10 16.75C9.8 16.75 9.61 16.67 9.47 16.53L5.18 12.24C4.89 11.95 4.89 11.47 5.18 11.18C5.47 10.89 5.95 10.89 6.24 11.18L9.25 14.19V4C9.25 3.59 9.59 3.25 10 3.25C10.41 3.25 10.75 3.59 10.75 4V14.19L13.76 11.18C14.05 10.89 14.53 10.89 14.82 11.18C14.97 11.33 15.04 11.52 15.04 11.71C15.04 11.9 14.96 12.1 14.82 12.24Z" fill="#101010"/>
</svg>
