<svg width="20" height="20" viewBox="0 0 20 20" fill="none" xmlns="http://www.w3.org/2000/svg">
<path d="M14.19 0H5.81C2.17 0 0 2.17 0 5.81V14.18C0 17.83 2.17 20 5.81 20H14.18C17.82 20 19.99 17.83 19.99 14.19V5.81C20 2.17 17.83 0 14.19 0ZM16.53 10.53L12.24 14.82C12.09 14.97 11.9 15.04 11.71 15.04C11.52 15.04 11.33 14.97 11.18 14.82C10.89 14.53 10.89 14.05 11.18 13.76L14.19 10.75H4C3.59 10.75 3.25 10.41 3.25 10C3.25 9.59 3.59 9.25 4 9.25H14.19L11.18 6.24C10.89 5.95 10.89 5.47 11.18 5.18C11.47 4.89 11.95 4.89 12.24 5.18L16.53 9.47C16.67 9.61 16.75 9.8 16.75 10C16.75 10.2 16.67 10.39 16.53 10.53Z" fill="#101010"/>
</svg>
