<svg width="20" height="20" viewBox="0 0 20 20" fill="none" xmlns="http://www.w3.org/2000/svg">
<path d="M7.66984 11.92C6.92984 11.92 6.33984 12.52 6.33984 13.26C6.33984 14 6.93984 14.59 7.66984 14.59C8.40984 14.59 9.00984 13.99 9.00984 13.26C9.00984 12.52 8.40984 11.92 7.66984 11.92Z" fill="#101010"/>
<path d="M14.19 0H5.81C2.17 0 0 2.17 0 5.81V14.18C0 17.83 2.17 20 5.81 20H14.18C17.82 20 19.99 17.83 19.99 14.19V5.81C20 2.17 17.83 0 14.19 0ZM15.12 7.8C15.12 8.41 14.86 8.95 14.42 9.27C14.14 9.47 13.8 9.58 13.44 9.58C13.23 9.58 13.02 9.54 12.8 9.47L10.51 8.71C10.5 8.71 10.48 8.7 10.47 8.69V13.25C10.47 14.79 9.21 16.05 7.67 16.05C6.13 16.05 4.87 14.79 4.87 13.25C4.87 11.71 6.13 10.45 7.67 10.45C8.16 10.45 8.61 10.59 9.01 10.8V6.63V6.02C9.01 5.41 9.27 4.87 9.71 4.55C10.16 4.23 10.75 4.15 11.33 4.35L13.62 5.11C14.48 5.4 15.13 6.3 15.13 7.2V7.8H15.12Z" fill="#101010"/>
</svg>
