<svg width="20" height="20" viewBox="0 0 20 20" fill="none" xmlns="http://www.w3.org/2000/svg">
<path d="M19.5599 8.74008L18.2099 7.16008C17.9599 6.86008 17.7499 6.30008 17.7499 5.90008V4.20008C17.7499 3.14008 16.8799 2.27008 15.8199 2.27008H14.1199C13.7199 2.27008 13.1499 2.06008 12.8499 1.81008L11.2699 0.460078C10.5799 -0.129922 9.44988 -0.129922 8.75988 0.460078L7.15988 1.81008C6.85988 2.06008 6.29988 2.27008 5.89988 2.27008H4.16988C3.10988 2.27008 2.23988 3.14008 2.23988 4.20008V5.90008C2.23988 6.29008 2.03988 6.85008 1.78988 7.15008L0.439883 8.74008C-0.140117 9.44008 -0.140117 10.5601 0.439883 11.2401L1.78988 12.8301C2.03988 13.1201 2.23988 13.6901 2.23988 14.0801V15.7901C2.23988 16.8501 3.10988 17.7201 4.16988 17.7201H5.90988C6.29988 17.7201 6.86988 17.9301 7.16988 18.1801L8.74988 19.5301C9.43988 20.1201 10.5699 20.1201 11.2599 19.5301L12.8399 18.1801C13.1399 17.9301 13.6999 17.7201 14.0999 17.7201H15.7999C16.8599 17.7201 17.7299 16.8501 17.7299 15.7901V14.0901C17.7299 13.6901 17.9399 13.1301 18.1899 12.8301L19.5399 11.2501C20.1499 10.5701 20.1499 9.44008 19.5599 8.74008ZM12.8099 14.2401L11.8299 12.0401C11.7999 12.0401 11.7699 12.0601 11.7399 12.0601H8.23988C8.20988 12.0601 8.17988 12.0501 8.14988 12.0401L7.16988 14.2401L5.79988 13.6301L9.29988 5.75008H10.6699L14.1699 13.6301L12.8099 14.2401Z" fill="#101010"/>
<path d="M8.81982 10.5602H11.1798L9.99982 7.91016L8.81982 10.5602Z" fill="#101010"/>
</svg>
