<svg width="16" height="20" viewBox="0 0 16 20" fill="none" xmlns="http://www.w3.org/2000/svg">
<path d="M13.8104 3.49V4.23L10.2704 2.18C8.93043 1.41 7.06043 1.41 5.73043 2.18L2.19043 4.24V3.49C2.19043 1.24 3.42043 0 5.67043 0H10.3304C12.5804 0 13.8104 1.24 13.8104 3.49Z" fill="#101010"/>
<path d="M13.84 5.96999L13.7 5.89999L12.34 5.11999L9.52 3.48999C8.66 2.98999 7.34 2.98999 6.48 3.48999L3.66 5.10999L2.3 5.90999L2.12 5.99999C0.37 7.17999 0.25 7.39999 0.25 9.28999V13.81C0.25 15.7 0.37 15.92 2.16 17.13L6.48 19.62C6.91 19.88 7.45 19.99 8 19.99C8.54 19.99 9.09 19.87 9.52 19.62L13.88 17.1C15.64 15.92 15.75 15.71 15.75 13.81V9.28999C15.75 7.39999 15.63 7.17999 13.84 5.96999ZM10.79 11.5L10.18 12.25C10.08 12.36 10.01 12.57 10.02 12.72L10.08 13.68C10.12 14.27 9.7 14.57 9.15 14.36L8.26 14C8.12 13.95 7.89 13.95 7.75 14L6.86 14.35C6.31 14.57 5.89 14.26 5.93 13.67L5.99 12.71C6 12.56 5.93 12.35 5.83 12.24L5.21 11.5C4.83 11.05 5 10.55 5.57 10.4L6.5 10.16C6.65 10.12 6.82 9.97999 6.9 9.85999L7.42 9.05999C7.74 8.55999 8.25 8.55999 8.58 9.05999L9.1 9.85999C9.18 9.98999 9.36 10.12 9.5 10.16L10.43 10.4C11 10.55 11.17 11.05 10.79 11.5Z" fill="#101010"/>
</svg>
