<svg width="20" height="20" viewBox="0 0 20 20" fill="none" xmlns="http://www.w3.org/2000/svg">
<path d="M14.19 0H5.81C2.17 0 0 2.17 0 5.81V14.18C0 17.83 2.17 20 5.81 20H14.18C17.82 20 19.99 17.83 19.99 14.19V5.81C20 2.17 17.83 0 14.19 0ZM11.92 14.13H7C6.59 14.13 6.25 13.79 6.25 13.38C6.25 12.97 6.59 12.63 7 12.63H11.92C13.2 12.63 14.25 11.59 14.25 10.3C14.25 9.01 13.21 7.97 11.92 7.97H6.85L7.11 8.23C7.4 8.53 7.4 9 7.1 9.3C6.95 9.45 6.76 9.52 6.57 9.52C6.38 9.52 6.19 9.45 6.04 9.3L4.47 7.72C4.18 7.43 4.18 6.95 4.47 6.66L6.04 5.09C6.33 4.8 6.81 4.8 7.1 5.09C7.39 5.38 7.39 5.86 7.1 6.15L6.77 6.48H11.92C14.03 6.48 15.75 8.2 15.75 10.31C15.75 12.42 14.03 14.13 11.92 14.13Z" fill="#101010"/>
</svg>
