<svg width="20" height="21" viewBox="0 0 20 21" fill="none" xmlns="http://www.w3.org/2000/svg">
<path d="M17.24 4.58006H16.84L13.46 1.20006C13.19 0.930059 12.75 0.930059 12.47 1.20006C12.2 1.47006 12.2 1.91006 12.47 2.19006L14.86 4.58006H5.14L7.53 2.19006C7.8 1.92006 7.8 1.48006 7.53 1.20006C7.26 0.930059 6.82 0.930059 6.54 1.20006L3.17 4.58006H2.77C1.87 4.58006 0 4.58006 0 7.14006C0 8.11006 0.2 8.75006 0.62 9.17006C0.86 9.42006 1.15 9.55006 1.46 9.62006C1.75 9.69006 2.06 9.70006 2.36 9.70006H17.64C17.95 9.70006 18.24 9.68006 18.52 9.62006C19.36 9.42006 20 8.82006 20 7.14006C20 4.58006 18.13 4.58006 17.24 4.58006Z" fill="#101010"/>
<path d="M17.0497 11H2.86967C2.24967 11 1.77967 11.55 1.87967 12.16L2.71967 17.3C2.99967 19.02 3.74967 21 7.07967 21H12.6897C16.0597 21 16.6597 19.31 17.0197 17.42L18.0297 12.19C18.1497 11.57 17.6797 11 17.0497 11ZM9.99967 18.5C7.65967 18.5 5.74967 16.59 5.74967 14.25C5.74967 13.84 6.08967 13.5 6.49967 13.5C6.90967 13.5 7.24967 13.84 7.24967 14.25C7.24967 15.77 8.47967 17 9.99967 17C11.5197 17 12.7497 15.77 12.7497 14.25C12.7497 13.84 13.0897 13.5 13.4997 13.5C13.9097 13.5 14.2497 13.84 14.2497 14.25C14.2497 16.59 12.3397 18.5 9.99967 18.5Z" fill="#101010"/>
</svg>
