<svg width="18" height="21" viewBox="0 0 18 21" fill="none" xmlns="http://www.w3.org/2000/svg">
<path d="M16.9597 7.96002C16.2897 7.22002 15.2797 6.79002 13.8797 6.64002V5.88002C13.8797 4.51002 13.2997 3.19002 12.2797 2.27002C11.2497 1.33002 9.90975 0.890022 8.51975 1.02002C6.12975 1.25002 4.11975 3.56002 4.11975 6.06002V6.64002C2.71975 6.79002 1.70975 7.22002 1.03975 7.96002C0.0697457 9.04002 0.0997458 10.48 0.209746 11.48L0.909746 17.05C1.11975 19 1.90975 21 6.20975 21H11.7897C16.0897 21 16.8797 19 17.0897 17.06L17.7897 11.47C17.8997 10.48 17.9297 9.04002 16.9597 7.96002ZM8.65975 2.41002C9.65975 2.32002 10.6097 2.63002 11.3497 3.30002C12.0797 3.96002 12.4897 4.90002 12.4897 5.88002V6.58002H5.50975V6.06002C5.50975 4.28002 6.97975 2.57002 8.65975 2.41002ZM8.99975 17.58C6.90975 17.58 5.20975 15.88 5.20975 13.79C5.20975 11.7 6.90975 10 8.99975 10C11.0897 10 12.7897 11.7 12.7897 13.79C12.7897 15.88 11.0897 17.58 8.99975 17.58Z" fill="#101010"/>
<path d="M10.6001 14.31L10.0701 13.78L10.5701 13.28C10.8601 12.99 10.8601 12.51 10.5701 12.22C10.2801 11.93 9.80012 11.93 9.51012 12.22L9.01012 12.72L8.48012 12.19C8.19012 11.9 7.71012 11.9 7.42012 12.19C7.13012 12.48 7.13012 12.96 7.42012 13.25L7.95012 13.78L7.40012 14.33C7.11012 14.62 7.11012 15.1 7.40012 15.39C7.55012 15.54 7.74012 15.61 7.93012 15.61C8.12012 15.61 8.31012 15.54 8.46012 15.39L9.01012 14.84L9.54012 15.37C9.69012 15.52 9.88012 15.59 10.0701 15.59C10.2601 15.59 10.4501 15.52 10.6001 15.37C10.8901 15.08 10.8901 14.61 10.6001 14.31Z" fill="#101010"/>
</svg>
