<svg width="24" height="21" viewBox="0 0 24 21" fill="none" xmlns="http://www.w3.org/2000/svg">
<path d="M22 17V20H2V17C2 16.45 2.45 16 3 16H21C21.55 16 22 16.45 22 17Z" fill="#101010"/>
<path fill-rule="evenodd" clip-rule="evenodd" d="M3 16.75C2.86421 16.75 2.75 16.8642 2.75 17V19.25H21.25V17C21.25 16.8642 21.1358 16.75 21 16.75H3ZM1.25 17C1.25 16.0358 2.03579 15.25 3 15.25H21C21.9642 15.25 22.75 16.0358 22.75 17V20C22.75 20.4142 22.4142 20.75 22 20.75H2C1.58579 20.75 1.25 20.4142 1.25 20V17Z" fill="#101010"/>
<path d="M7 9H5V16H7V9Z" fill="#101010"/>
<path d="M11 9H9V16H11V9Z" fill="#101010"/>
<path d="M15 9H13V16H15V9Z" fill="#101010"/>
<path d="M19 9H17V16H19V9Z" fill="#101010"/>
<path d="M23 20.75H1C0.59 20.75 0.25 20.41 0.25 20C0.25 19.59 0.59 19.25 1 19.25H23C23.41 19.25 23.75 19.59 23.75 20C23.75 20.41 23.41 20.75 23 20.75Z" fill="#101010"/>
<path d="M21.37 3.74997L12.37 0.149966C12.17 0.0699658 11.83 0.0699658 11.63 0.149966L2.63 3.74997C2.28 3.88997 2 4.29997 2 4.67997V7.99997C2 8.54997 2.45 8.99997 3 8.99997H21C21.55 8.99997 22 8.54997 22 7.99997V4.67997C22 4.29997 21.72 3.88997 21.37 3.74997ZM12 6.49997C11.17 6.49997 10.5 5.82997 10.5 4.99997C10.5 4.16997 11.17 3.49997 12 3.49997C12.83 3.49997 13.5 4.16997 13.5 4.99997C13.5 5.82997 12.83 6.49997 12 6.49997Z" fill="#101010"/>
</svg>
