<svg width="20" height="18" viewBox="0 0 20 18" fill="none" xmlns="http://www.w3.org/2000/svg">
<path d="M15 0.5H5C2 0.5 0 2 0 5.5V12.5C0 16 2 17.5 5 17.5H15C18 17.5 20 16 20 12.5V5.5C20 2 18 0.5 15 0.5ZM4.75 13C4.75 13.41 4.41 13.75 4 13.75C3.59 13.75 3.25 13.41 3.25 13V5C3.25 4.59 3.59 4.25 4 4.25C4.41 4.25 4.75 4.59 4.75 5V13ZM7.75 13C7.75 13.41 7.41 13.75 7 13.75C6.59 13.75 6.25 13.41 6.25 13V12C6.25 11.59 6.59 11.25 7 11.25C7.41 11.25 7.75 11.59 7.75 12V13ZM7.75 9C7.75 9.41 7.41 9.75 7 9.75C6.59 9.75 6.25 9.41 6.25 9V5C6.25 4.59 6.59 4.25 7 4.25C7.41 4.25 7.75 4.59 7.75 5V9ZM10.75 13C10.75 13.41 10.41 13.75 10 13.75C9.59 13.75 9.25 13.41 9.25 13V5C9.25 4.59 9.59 4.25 10 4.25C10.41 4.25 10.75 4.59 10.75 5V13ZM13.75 13C13.75 13.41 13.41 13.75 13 13.75C12.59 13.75 12.25 13.41 12.25 13V9C12.25 8.59 12.59 8.25 13 8.25C13.41 8.25 13.75 8.59 13.75 9V13ZM13.75 6C13.75 6.41 13.41 6.75 13 6.75C12.59 6.75 12.25 6.41 12.25 6V5C12.25 4.59 12.59 4.25 13 4.25C13.41 4.25 13.75 4.59 13.75 5V6ZM16.75 13C16.75 13.41 16.41 13.75 16 13.75C15.59 13.75 15.25 13.41 15.25 13V5C15.25 4.59 15.59 4.25 16 4.25C16.41 4.25 16.75 4.59 16.75 5V13Z" fill="#101010"/>
</svg>
