<svg width="20" height="16" viewBox="0 0 20 16" fill="none" xmlns="http://www.w3.org/2000/svg">
<path d="M18.4202 4.99998C18.2802 4.98998 18.1002 4.97998 17.9002 4.97998C17.5102 4.97998 17.2002 5.28998 17.2002 5.67998V10.33C17.2002 10.72 17.5102 11.03 17.9002 11.03C18.1002 11.03 18.2702 11.02 18.4402 11.01C20.0002 10.83 20.0002 9.72998 20.0002 8.92998V7.06998C20.0002 6.26998 20.0002 5.16998 18.4202 4.99998Z" fill="#101010"/>
<path d="M10.93 0.790039H5.35C1.25 0.790039 0 2.04004 0 6.14004V9.86004C0 13.96 1.25 15.21 5.35 15.21H10.93C15.03 15.21 16.28 13.96 16.28 9.86004V6.14004C16.28 2.04004 15.03 0.790039 10.93 0.790039ZM10.53 9.68004C10.51 9.72004 10.48 9.76004 10.45 9.79004L8.58 11.98C8.43 12.15 8.22 12.24 8.01 12.24C7.84 12.24 7.66 12.18 7.52 12.06C7.21 11.79 7.17 11.32 7.44 11L9.24 8.89004C9.25 8.86004 9.24 8.83004 9.22 8.80004C9.2 8.76004 9.16 8.74004 9.11 8.74004H7.12C6.53 8.74004 6.01 8.44004 5.71 7.93004C5.42 7.42004 5.42 6.82004 5.71 6.31004L7.42 4.05004C7.67 3.72004 8.14 3.65004 8.47 3.90004C8.8 4.15004 8.87 4.62004 8.62 4.95004L6.97 7.14004C7 7.10004 7 7.14004 7.02 7.19004C7.04 7.23004 7.08 7.25004 7.13 7.25004H9.14C9.73 7.25004 10.25 7.55004 10.55 8.06004C10.82 8.57004 10.82 9.17004 10.53 9.68004Z" fill="#101010"/>
</svg>
