<svg width="20" height="16" viewBox="0 0 20 16" fill="none" xmlns="http://www.w3.org/2000/svg">
<path d="M10.93 0.790039H5.35C1.25 0.790039 0 2.04004 0 6.14004V9.86004C0 13.96 1.25 15.21 5.35 15.21H10.93C15.03 15.21 16.28 13.96 16.28 9.86004V6.14004C16.28 2.04004 15.03 0.790039 10.93 0.790039Z" fill="#101010"/>
<path d="M18.4202 4.99998C18.2802 4.98998 18.1002 4.97998 17.9002 4.97998C17.5102 4.97998 17.2002 5.28998 17.2002 5.67998V10.33C17.2002 10.72 17.5102 11.03 17.9002 11.03C18.1002 11.03 18.2702 11.02 18.4402 11.01C20.0002 10.83 20.0002 9.72998 20.0002 8.92998V7.06998C20.0002 6.26998 20.0002 5.16998 18.4202 4.99998Z" fill="#101010"/>
</svg>
