<svg width="20" height="22" viewBox="0 0 20 22" fill="none" xmlns="http://www.w3.org/2000/svg">
<path d="M18.4202 8.00023C18.2802 7.99023 18.1002 7.98022 17.9002 7.98022C17.5102 7.98022 17.2002 8.29023 17.2002 8.68023V13.3302C17.2002 13.7202 17.5102 14.0302 17.9002 14.0302C18.1002 14.0302 18.2702 14.0202 18.4402 14.0102C20.0002 13.8302 20.0002 12.7302 20.0002 11.9302V10.0702C20.0002 9.27022 20.0002 8.17023 18.4202 8.00023Z" fill="#101010"/>
<path d="M16.2799 9.14001V12.86C16.2799 15.81 13.8799 18.21 10.9299 18.21H7.25991C6.46991 18.21 5.98991 17.34 6.40991 16.68L13.6699 5.20001C14.0299 4.63001 14.8399 4.58001 15.2899 5.09001C16.0099 5.92001 16.2799 7.21001 16.2799 9.14001Z" fill="#101010"/>
<path d="M14.4 0.870117C14.05 0.650117 13.59 0.750116 13.37 1.10012L11.66 3.81012C11.43 3.80012 11.19 3.79012 10.93 3.79012H5.35C1.25 3.79012 0 5.04012 0 9.14012V12.8601C0 15.9101 0.7 17.3701 2.74 17.9201L1.37 20.1001C1.15 20.4501 1.25 20.9101 1.6 21.1301C1.72 21.2101 1.86 21.2501 2 21.2501C2.25 21.2501 2.49 21.1301 2.63 20.9001L14.63 1.90012C14.86 1.55012 14.75 1.09012 14.4 0.870117Z" fill="#101010"/>
</svg>
