<svg width="24" height="22" viewBox="0 0 24 22" fill="none" xmlns="http://www.w3.org/2000/svg">
<path d="M23.5293 11.05C23.2393 10.76 22.7593 10.76 22.4693 11.05L22.0093 11.51V11C22.0093 5.47999 17.5193 0.98999 11.9993 0.98999C8.94927 0.98999 6.09927 2.35999 4.18927 4.73999C3.92927 5.05999 3.97927 5.53999 4.30927 5.79999C4.62927 6.04999 5.09927 5.99999 5.35927 5.67999C6.98927 3.64999 9.40927 2.48999 11.9993 2.48999C16.6893 2.48999 20.5093 6.30999 20.5093 11V11.5L20.0493 11.04C19.7593 10.75 19.2793 10.75 18.9893 11.04C18.6993 11.33 18.6993 11.81 18.9893 12.1L20.7293 13.84C20.7993 13.91 20.8793 13.96 20.9693 14C21.0593 14.04 21.1593 14.06 21.2593 14.06C21.3593 14.06 21.4493 14.04 21.5493 14C21.6393 13.96 21.7193 13.91 21.7893 13.84L23.5293 12.1C23.8193 11.82 23.8193 11.34 23.5293 11.05Z" fill="#101010"/>
<path d="M19.6895 16.1999C19.3695 15.9399 18.8895 15.9899 18.6395 16.3199C17.0095 18.3499 14.5895 19.5099 11.9995 19.5099C7.30945 19.5099 3.48945 15.6899 3.48945 10.9999V10.4999L3.94945 10.9599C4.09945 11.1099 4.28945 11.1799 4.47945 11.1799C4.66945 11.1799 4.85945 11.0999 4.99945 10.9499C5.28945 10.6599 5.28945 10.1799 4.99945 9.88993L3.26945 8.14993C3.19945 8.08993 3.10945 8.02993 3.01945 7.98993C2.83945 7.90993 2.62945 7.90993 2.44945 7.98993C2.35945 8.02993 2.27945 8.08993 2.20945 8.14993L0.469453 9.88993C0.179453 10.1799 0.179453 10.6599 0.469453 10.9499C0.759453 11.2399 1.23945 11.2399 1.52945 10.9499L1.98945 10.4899V10.9999C1.98945 16.5199 6.47945 21.0099 11.9995 21.0099C15.0495 21.0099 17.8995 19.6399 19.8095 17.2599C20.0695 16.9399 20.0195 16.4599 19.6895 16.1999Z" fill="#101010"/>
<path d="M15.45 10.64C15.72 10.24 15.87 9.77 15.87 9.25C15.87 7.92 14.7 6.75 13.37 6.75H12.55V5.75C12.55 5.34 12.21 5 11.8 5C11.39 5 11.05 5.34 11.05 5.75V6.75H9C8.59 6.75 8.25 7.09 8.25 7.5V11V14.5C8.25 14.91 8.59 15.25 9 15.25H11.05V16.25C11.05 16.66 11.39 17 11.8 17C12.21 17 12.55 16.66 12.55 16.25V15.25H14C15.52 15.25 16.75 14.13 16.75 12.75C16.75 11.86 16.23 11.08 15.45 10.64ZM9.75 8.25H13.37C13.92 8.25 14.37 8.8 14.37 9.25C14.37 9.8 13.92 10.25 13.37 10.25H9.75V8.25ZM14 13.75H9.75V11.75H13.37H14C14.69 11.75 15.25 12.2 15.25 12.75C15.25 13.3 14.69 13.75 14 13.75Z" fill="#101010"/>
</svg>
