<svg width="24" height="24" viewBox="0 0 24 24" fill="none" xmlns="http://www.w3.org/2000/svg">
<path d="M23.0004 15.22C22.5904 15.22 22.2504 15.56 22.2504 15.97C22.2504 18.93 20.1904 21.41 17.4204 22.06L17.6904 21.61C17.9004 21.25 17.7904 20.79 17.4304 20.58C17.0804 20.37 16.6104 20.48 16.4004 20.84L15.3504 22.59C15.2104 22.82 15.2104 23.11 15.3404 23.34C15.4704 23.58 15.7204 23.72 15.9904 23.72C20.2604 23.72 23.7404 20.24 23.7404 15.97C23.7504 15.56 23.4104 15.22 23.0004 15.22Z" fill="#101010"/>
<path d="M8 0.219971C3.73 0.219971 0.25 3.69997 0.25 7.96997C0.25 8.37997 0.59 8.71997 1 8.71997C1.41 8.71997 1.75 8.37997 1.75 7.96997C1.75 5.00997 3.81 2.52997 6.58 1.87997L6.31 2.32997C6.1 2.68997 6.21 3.14997 6.57 3.35997C6.92 3.56997 7.39 3.45997 7.6 3.09997L8.65 1.34997C8.78 1.11997 8.79 0.839971 8.65 0.599971C8.52 0.369971 8.27 0.219971 8 0.219971Z" fill="#101010"/>
<path d="M21.5002 8.67C21.5002 11.75 19.2602 14.29 16.3302 14.76C16.3302 14.75 16.3302 14.75 16.3302 14.74C16.0402 11.01 13.0202 7.97 9.24023 7.67C9.71023 4.74 12.2502 2.5 15.3302 2.5C18.7402 2.5 21.5002 5.26 21.5002 8.67Z" fill="#101010"/>
<path d="M9.80914 14.1999C9.80914 14.0499 9.63914 13.8199 9.42914 13.8199H7.36914V14.5699H9.42914C9.63914 14.5799 9.80914 14.4099 9.80914 14.1999Z" fill="#101010"/>
<path d="M9.82914 16.08H9.42914H7.36914V16.83H9.83914C10.1591 16.83 10.3791 16.63 10.3791 16.45C10.3791 16.27 10.1491 16.08 9.82914 16.08Z" fill="#101010"/>
<path d="M14.83 14.85C14.6 11.82 12.18 9.40002 9.15 9.17002C8.99 9.16002 8.84 9.15002 8.67 9.15002C5.26 9.15002 2.5 11.91 2.5 15.33C2.5 18.74 5.26 21.5 8.67 21.5C12.08 21.5 14.85 18.74 14.85 15.33C14.85 15.16 14.84 15.01 14.83 14.85ZM9.83 18.33H9.17V18.71C9.17 19.12 8.83 19.46 8.42 19.46C8.01 19.46 7.67 19.12 7.67 18.71V18.33H6.62C6.21 18.33 5.87 17.99 5.87 17.58V15.33V13.08C5.87 12.67 6.21 12.33 6.62 12.33H7.67V11.95C7.67 11.54 8.01 11.2 8.42 11.2C8.83 11.2 9.17 11.54 9.17 11.95V12.33H9.43C10.43 12.33 11.31 13.21 11.31 14.21C11.31 14.5 11.24 14.77 11.12 15.02C11.58 15.36 11.87 15.88 11.87 16.46C11.87 17.49 10.96 18.33 9.83 18.33Z" fill="#101010"/>
</svg>
