<svg width="21" height="20" viewBox="0 0 21 20" fill="none" xmlns="http://www.w3.org/2000/svg">
<path d="M14.8997 6.07C14.4497 2.64 11.5197 0 7.96973 0C4.09973 0 0.969727 3.13 0.969727 7C0.969727 10.55 3.60973 13.48 7.03973 13.93C7.33973 13.98 7.64973 14 7.96973 14C8.0861 14 8.20097 13.997 8.31491 13.991C8.53529 13.9793 8.62577 13.716 8.46973 13.56C8.17973 13.26 8.17973 12.79 8.46973 12.5C8.75973 12.2 9.23973 12.2 9.52973 12.5L10.3092 13.2795C10.4493 13.4196 10.6597 13.4653 10.8407 13.3847C11.2231 13.2145 11.585 13.0103 11.9261 12.7743C12.1703 12.6053 12.1858 12.2581 11.9747 12.0493L11.4697 11.55C11.1797 11.26 11.1697 10.79 11.4697 10.49C11.7597 10.2 12.2297 10.19 12.5297 10.48L13.0383 10.9829C13.2481 11.1904 13.5927 11.1728 13.7606 10.9302C13.9914 10.5969 14.1922 10.2431 14.3572 9.86898C14.4366 9.68903 14.3903 9.48058 14.2512 9.34151L13.4697 8.56C13.1797 8.26 13.1797 7.79 13.4697 7.5C13.7597 7.2 14.2397 7.2 14.5297 7.5C14.6858 7.65604 14.9491 7.56556 14.9607 7.34519C14.9667 7.23124 14.9697 7.11637 14.9697 7C14.9697 6.68 14.9497 6.37 14.8997 6.07Z" fill="#101010"/>
<path d="M20.9697 13C20.9697 16.87 17.8397 20 13.9697 20C11.0395 20 8.52542 18.2 7.49129 15.6328C7.36608 15.322 7.63459 15 7.9697 15C8.3197 15 8.6497 14.98 8.9897 14.93L9.49478 14.8627C9.64915 14.8421 9.8043 14.8946 9.91442 15.0047L10.4397 15.53C10.5897 15.68 10.7797 15.75 10.9697 15.75C11.1697 15.75 11.3597 15.68 11.4997 15.53C11.7997 15.24 11.7997 14.76 11.4997 14.47C11.4034 14.3737 11.4336 14.2103 11.5555 14.1495C11.9545 13.9507 12.3633 13.6973 12.7313 13.4238C12.9391 13.2694 13.2308 13.2794 13.415 13.4613L13.8997 13.94C14.0497 14.08 14.2397 14.16 14.4297 14.16C14.6197 14.16 14.8197 14.08 14.9597 13.93C15.2497 13.64 15.2497 13.16 14.9497 12.87L14.4717 12.3979C14.2889 12.2174 14.2737 11.9286 14.4251 11.721C14.6885 11.3598 14.9359 10.9667 15.1325 10.5817C15.1917 10.4658 15.3477 10.438 15.4397 10.53C15.5897 10.68 15.7797 10.75 15.9697 10.75C16.1697 10.75 16.3597 10.68 16.4997 10.53C16.7997 10.24 16.7997 9.76 16.4997 9.47L15.9744 8.94472C15.8643 8.8346 15.8118 8.67945 15.8324 8.52508L15.8997 8.02C15.9497 7.68 15.9697 7.35 15.9697 7C15.9697 6.66504 16.2917 6.39678 16.6022 6.5223C19.1621 7.55686 20.9697 10.0705 20.9697 13Z" fill="#101010"/>
</svg>
