<svg width="20" height="20" viewBox="0 0 20 20" fill="none" xmlns="http://www.w3.org/2000/svg">
<path d="M10.9297 8.64002L13.2597 6.51002L10.9297 4.64001V8.64002Z" fill="#101010"/>
<path d="M14.19 0H5.81C2.17 0 0 2.17 0 5.81V14.18C0 17.83 2.17 20 5.81 20H14.18C17.82 20 19.99 17.83 19.99 14.19V5.81C20 2.17 17.83 0 14.19 0ZM14.27 12.39C14.58 12.68 14.76 13.08 14.75 13.49C14.74 13.9 14.55 14.29 14.22 14.57L11.8 16.59C11.38 16.94 11 17.04 10.71 17.04C10.48 17.04 10.3 16.98 10.2 16.93C9.97 16.82 9.43 16.46 9.43 15.48V12.06L6.51 14.74C6.21 15.02 5.73 15 5.45 14.69C5.17 14.38 5.19 13.91 5.5 13.63L9.43 10.03V9.95L5.49 6.38C5.19 6.1 5.17 5.62 5.45 5.32C5.73 5.02 6.21 4.99 6.51 5.27L9.43 7.95V4.53C9.43 3.55 9.97 3.19 10.2 3.08C10.43 2.97 11.05 2.79 11.8 3.42L14.22 5.44C14.55 5.71 14.74 6.11 14.75 6.52C14.76 6.93 14.59 7.33 14.27 7.62L11.67 10L14.27 12.39Z" fill="#101010"/>
<path d="M10.9297 15.36L13.2597 13.41L10.9297 11.3V15.36Z" fill="#101010"/>
</svg>
