<svg width="20" height="20" viewBox="0 0 20 20" fill="none" xmlns="http://www.w3.org/2000/svg">
<path d="M10.9004 8.59001L12.5704 7.06001L10.9004 5.67001V8.59001Z" fill="#101010"/>
<path d="M10.9004 14.33L12.5704 12.94L10.9004 11.41V14.33Z" fill="#101010"/>
<path d="M10 0C4.48 0 0 4.48 0 10C0 15.52 4.48 20 10 20C15.52 20 20 15.52 20 10C20 4.48 15.52 0 10 0ZM13.72 11.95C14.01 12.22 14.17 12.59 14.16 12.97C14.15 13.35 13.97 13.72 13.67 13.97L11.6 15.7C11.22 16.02 10.87 16.11 10.6 16.11C10.38 16.11 10.21 16.05 10.11 16.01C9.89 15.91 9.39 15.58 9.39 14.67V12L7.09 14.11C6.79 14.39 6.31 14.37 6.03 14.06C5.75 13.75 5.77 13.28 6.08 13L9.36 10L6.08 6.99C5.78 6.71 5.76 6.24 6.04 5.93C6.32 5.63 6.8 5.6 7.1 5.88L9.4 8V5.33C9.4 4.43 9.9 4.1 10.12 3.99C10.33 3.89 10.91 3.72 11.61 4.29L13.67 6.01C13.97 6.26 14.15 6.63 14.16 7.01C14.17 7.39 14.01 7.77 13.72 8.03L11.58 10L13.72 11.95Z" fill="#101010"/>
</svg>
