<svg width="16" height="20" viewBox="0 0 16 20" fill="none" xmlns="http://www.w3.org/2000/svg">
<path d="M8.90039 14.33L10.5704 12.94L8.90039 11.41V14.33Z" fill="#101010"/>
<path d="M8.90039 8.59001L10.5704 7.06001L8.90039 5.67001V8.59001Z" fill="#101010"/>
<path d="M11 0H5C2 0 0 2 0 5V15C0 18 2 20 5 20H11C14 20 16 18 16 15V5C16 2 14 0 11 0ZM11.72 11.95C12.01 12.22 12.17 12.59 12.16 12.97C12.15 13.35 11.97 13.72 11.67 13.97L9.6 15.7C9.22 16.02 8.87 16.11 8.6 16.11C8.38 16.11 8.21 16.05 8.11 16.01C7.89 15.91 7.39 15.58 7.39 14.67V12L5.09 14.11C4.79 14.39 4.31 14.37 4.03 14.06C3.75 13.75 3.77 13.28 4.08 13L7.36 10L4.08 6.99C3.78 6.71 3.76 6.24 4.04 5.93C4.32 5.63 4.8 5.6 5.1 5.88L7.4 8V5.33C7.4 4.43 7.9 4.1 8.12 3.99C8.33 3.89 8.91 3.71 9.61 4.29L11.67 6.01C11.97 6.26 12.15 6.63 12.16 7.01C12.17 7.39 12.01 7.77 11.72 8.03L9.58 10L11.72 11.95Z" fill="#101010"/>
</svg>
