<svg width="20" height="20" viewBox="0 0 20 20" fill="none" xmlns="http://www.w3.org/2000/svg">
<path d="M20 5.80995V14.19C20 17.4 17.4 20 14.19 20H5.81C2.6 20 0 17.4 0 14.19V5.80995C0 3.31995 1.02 1.50995 2.83 0.629953C3.49 0.309953 4.25 0.809953 4.25 1.53995V10.42C4.25 11.61 4.71 12.56 5.54 13.04C6.38 13.51 7.44 13.41 8.52 12.76L9.82 11.98C9.9 11.94 10.1 11.94 10.16 11.97L11.48 12.76C12.2 13.19 12.82 13.33 13.32 13.33C13.84 13.33 14.24 13.17 14.48 13.03C15.29 12.56 15.75 11.61 15.75 10.42V1.53995C15.75 0.809953 16.52 0.309953 17.17 0.629953C18.98 1.50995 20 3.31995 20 5.80995Z" fill="#101010"/>
<path d="M13.25 0C13.8 0 14.25 0.45 14.25 1V10.42C14.25 11.06 14.06 11.54 13.73 11.73C13.39 11.93 12.85 11.83 12.25 11.47L10.93 10.68C10.42 10.37 9.58 10.37 9.07 10.68L7.75 11.47C7.15 11.83 6.61 11.92 6.27 11.73C5.94 11.54 5.75 11.06 5.75 10.42V1C5.75 0.45 6.2 0 6.75 0H13.25Z" fill="#101010"/>
</svg>
