<svg width="20" height="22" viewBox="0 0 20 22" fill="none" xmlns="http://www.w3.org/2000/svg">
<path d="M3.33012 18.42C3.22012 18.42 3.10012 18.39 3.00012 18.34L0.780117 17.23C0.530117 17.1 0.370117 16.84 0.370117 16.56V13.78C0.370117 13.37 0.710117 13.03 1.12012 13.03C1.53012 13.03 1.87012 13.37 1.87012 13.78V16.09L3.67012 17C4.04012 17.18 4.19012 17.63 4.00012 18C3.87012 18.26 3.61012 18.42 3.33012 18.42Z" fill="#101010"/>
<path d="M10.0004 21.75C9.94045 21.75 9.88045 21.74 9.83045 21.73C9.77045 21.72 9.71045 21.69 9.65045 21.66L7.44045 20.56C7.07045 20.37 6.92045 19.92 7.10045 19.55C7.29045 19.18 7.74045 19.03 8.11045 19.21L9.25045 19.78V18.22C9.25045 17.81 9.59045 17.47 10.0004 17.47C10.4104 17.47 10.7504 17.81 10.7504 18.22V19.78L11.8904 19.21C12.2604 19.03 12.7104 19.18 12.9004 19.55C13.0904 19.92 12.9404 20.37 12.5604 20.56L10.3504 21.66C10.2904 21.69 10.2304 21.71 10.1704 21.73C10.1104 21.74 10.0604 21.75 10.0004 21.75Z" fill="#101010"/>
<path d="M16.6702 18.42C16.4002 18.42 16.1302 18.27 16.0002 18.01C15.8102 17.64 15.9602 17.19 16.3402 17L18.1502 16.1V13.79C18.1502 13.38 18.4902 13.04 18.9002 13.04C19.3102 13.04 19.6502 13.38 19.6502 13.79V16.57C19.6502 16.85 19.4902 17.11 19.2402 17.24L17.0002 18.34C16.8902 18.39 16.7802 18.42 16.6702 18.42Z" fill="#101010"/>
<path d="M10.0004 13.42C9.59045 13.42 9.25045 13.08 9.25045 12.67V10.36L7.44045 9.46005C7.07045 9.27005 6.92045 8.82004 7.10045 8.45005C7.29045 8.08005 7.74045 7.93004 8.11045 8.11004L10.0004 9.05005L11.8904 8.11004C12.2604 7.93004 12.7104 8.07005 12.9004 8.45005C13.0904 8.82004 12.9404 9.27005 12.5604 9.46005L10.7504 10.36V12.67C10.7504 13.08 10.4104 13.42 10.0004 13.42Z" fill="#101010"/>
<path d="M1.11035 8.97002C0.700352 8.97002 0.360352 8.63002 0.360352 8.22002V5.46002V5.45002C0.360352 5.39002 0.370352 5.33002 0.380352 5.28002C0.400352 5.19002 0.430352 5.12002 0.470352 5.05002C0.500352 5.00002 0.540352 4.96002 0.580352 4.92002C0.620352 4.88002 0.670352 4.84002 0.720352 4.81002C0.740352 4.80002 0.770352 4.78002 0.790352 4.77002L3.00035 3.66002C3.37035 3.48002 3.82035 3.63002 4.00035 4.00002C4.19035 4.37002 4.04035 4.82002 3.67035 5.00002L2.79035 5.44002L3.67035 5.88002C4.04035 6.07002 4.19035 6.52002 4.00035 6.89002C3.82035 7.26002 3.37035 7.41002 3.00035 7.23002L1.86035 6.66002V8.22002C1.86035 8.64002 1.53035 8.97002 1.11035 8.97002Z" fill="#101010"/>
<path d="M12.2208 2.86006C12.1108 2.86006 11.9908 2.83006 11.8908 2.78006L10.0008 1.84006L8.11079 2.78006C7.74079 2.97006 7.29079 2.82006 7.11079 2.45006C6.92079 2.08006 7.07079 1.63006 7.44079 1.44006L9.66079 0.330059C9.87079 0.220059 10.1208 0.220059 10.3308 0.330059L12.5508 1.44006C12.9208 1.63006 13.0708 2.08006 12.8908 2.45006C12.7608 2.71006 12.5008 2.86006 12.2208 2.86006Z" fill="#101010"/>
<path d="M18.8904 8.97002C18.4804 8.97002 18.1404 8.63002 18.1404 8.22002V6.66002L17.0004 7.23002C16.6304 7.41002 16.1804 7.26002 16.0004 6.89002C15.8104 6.52002 15.9604 6.07002 16.3404 5.88002L17.2204 5.44002L16.3304 5.00002C15.9604 4.82002 15.8104 4.37002 16.0004 4.00002C16.1904 3.63002 16.6304 3.48002 17.0004 3.66002L19.2104 4.76002C19.2304 4.77002 19.2604 4.78002 19.2804 4.80002C19.3404 4.83002 19.3904 4.88002 19.4404 4.93002C19.4704 4.97002 19.5004 5.01002 19.5304 5.05002C19.5704 5.12002 19.6004 5.19002 19.6204 5.27002C19.6304 5.33002 19.6404 5.39002 19.6404 5.44002V5.45002V8.21002C19.6404 8.64002 19.3004 8.97002 18.8904 8.97002Z" fill="#101010"/>
</svg>
