<svg width="21" height="21" viewBox="0 0 21 21" fill="none" xmlns="http://www.w3.org/2000/svg">
<path d="M15.6014 3.31003L9.95144 0.270029C9.35144 -0.0499707 8.64145 -0.0499707 8.04145 0.270029L2.40145 3.31003C1.99145 3.54003 1.73145 3.98003 1.73145 4.46003C1.73145 4.95003 1.98145 5.39003 2.40145 5.61003L8.05145 8.65003C8.35145 8.81003 8.68145 8.89003 9.00145 8.89003C9.32145 8.89003 9.66144 8.81003 9.95144 8.65003L15.6014 5.61003C16.0114 5.39003 16.2714 4.95003 16.2714 4.46003C16.2714 3.98003 16.0114 3.54003 15.6014 3.31003Z" fill="#101010"/>
<path d="M7.12098 9.71009L1.87098 7.09009C1.46098 6.88009 1.00098 6.91009 0.610976 7.14009C0.230976 7.38009 0.000976562 7.79009 0.000976562 8.24009V13.2001C0.000976562 14.0601 0.480977 14.8301 1.25098 15.2201L6.50098 17.8401C6.68098 17.9301 6.88098 17.9801 7.08098 17.9801C7.31098 17.9801 7.55098 17.9101 7.76098 17.7901C8.14098 17.5501 8.37098 17.1401 8.37098 16.6901V11.7301C8.36098 10.8701 7.88098 10.1001 7.12098 9.71009Z" fill="#101010"/>
<path d="M18.0006 8.24009V10.7001C17.5206 10.5601 17.0106 10.5001 16.5006 10.5001C15.1406 10.5001 13.8106 10.9701 12.7606 11.8101C11.3206 12.9401 10.5006 14.6501 10.5006 16.5001C10.5006 16.9901 10.5606 17.4801 10.6906 17.9501C10.5406 17.9301 10.3906 17.8701 10.2506 17.7801C9.87062 17.5501 9.64062 17.1401 9.64062 16.6901V11.7301C9.64062 10.8701 10.1206 10.1001 10.8806 9.71009L16.1306 7.09009C16.5406 6.88009 17.0006 6.91009 17.3906 7.14009C17.7706 7.38009 18.0006 7.79009 18.0006 8.24009Z" fill="#101010"/>
<path d="M20.001 13.7C20.001 13.69 19.991 13.68 19.981 13.67C19.941 13.61 19.891 13.55 19.841 13.5C19.831 13.49 19.821 13.47 19.811 13.46C19.001 12.56 17.811 12 16.501 12C15.241 12 14.091 12.52 13.271 13.36C12.481 14.17 12.001 15.28 12.001 16.5C12.001 17.34 12.241 18.14 12.651 18.82C12.871 19.19 13.151 19.53 13.471 19.81C13.491 19.82 13.501 19.83 13.511 19.84C13.561 19.89 13.611 19.93 13.671 19.98C13.671 19.98 13.671 19.98 13.681 19.98C13.691 19.99 13.701 20 13.711 20C14.461 20.63 15.431 21 16.501 21C18.141 21 19.571 20.12 20.351 18.82C20.581 18.43 20.761 18 20.871 17.55C20.961 17.21 21.001 16.86 21.001 16.5C21.001 15.44 20.631 14.46 20.001 13.7ZM18.181 17.23H17.251V18.2C17.251 18.61 16.911 18.95 16.501 18.95C16.091 18.95 15.751 18.61 15.751 18.2V17.23H14.821C14.411 17.23 14.071 16.89 14.071 16.48C14.071 16.07 14.411 15.73 14.821 15.73H15.751V14.84C15.751 14.43 16.091 14.09 16.501 14.09C16.911 14.09 17.251 14.43 17.251 14.84V15.73H18.181C18.591 15.73 18.931 16.07 18.931 16.48C18.931 16.89 18.601 17.23 18.181 17.23Z" fill="#101010"/>
</svg>
