<svg width="20" height="20" viewBox="0 0 20 20" fill="none" xmlns="http://www.w3.org/2000/svg">
<path d="M18.2112 5.81994L10.5112 10.2799C10.2012 10.4599 9.81119 10.4599 9.49119 10.2799L1.79119 5.81994C1.24119 5.49994 1.10119 4.74994 1.52119 4.27994C1.81119 3.94994 2.14119 3.67994 2.49119 3.48994L7.91119 0.489941C9.07119 -0.160059 10.9512 -0.160059 12.1112 0.489941L17.5312 3.48994C17.8812 3.67994 18.2112 3.95994 18.5012 4.27994C18.9012 4.74994 18.7612 5.49994 18.2112 5.81994Z" fill="#101010"/>
<path d="M9.43145 12.14V18.96C9.43145 19.72 8.66144 20.22 7.98144 19.89C5.92144 18.88 2.45145 16.99 2.45145 16.99C1.23145 16.3 0.231445 14.56 0.231445 13.13V7.97C0.231445 7.18 1.06145 6.68 1.74145 7.07L8.93145 11.24C9.23145 11.43 9.43145 11.77 9.43145 12.14Z" fill="#101010"/>
<path d="M10.5713 12.14V18.96C10.5713 19.72 11.3413 20.22 12.0213 19.89C14.0813 18.88 17.5513 16.99 17.5513 16.99C18.7713 16.3 19.7713 14.56 19.7713 13.13V7.97C19.7713 7.18 18.9413 6.68 18.2613 7.07L11.0713 11.24C10.7713 11.43 10.5713 11.77 10.5713 12.14Z" fill="#101010"/>
</svg>
