<svg width="18" height="22" viewBox="0 0 18 22" fill="none" xmlns="http://www.w3.org/2000/svg">
<path d="M5.82005 3.90003L4.54005 1.78003C4.06005 1.00003 3.11005 0.560035 2.22005 0.820035C0.88005 1.22003 0.360051 2.73003 1.03005 3.84003L2.35005 6.01003C2.50005 6.24003 2.81005 6.32003 3.04005 6.18003L5.65005 4.59003C5.89005 4.44003 5.97005 4.13003 5.82005 3.90003Z" fill="#101010"/>
<path d="M16.7399 13.2101L13.9299 9.41008C12.9499 8.09008 11.2499 7.47008 9.64988 7.90008C9.64988 7.89008 9.63988 7.89008 9.63988 7.88008L7.97988 5.15008C7.67988 4.68008 7.05988 4.53008 6.58988 4.82008L3.11988 6.93008C2.63988 7.21008 2.48988 7.84008 2.77988 8.32008L4.42988 11.0501C4.42988 11.0501 4.42988 11.0601 4.43988 11.0601C3.32988 12.2901 3.08988 14.0801 3.82988 15.5701L5.90988 19.8101C6.54988 21.1201 8.05988 21.6201 9.33988 20.9601C9.43988 20.9101 9.46988 20.7901 9.40988 20.6901L7.84988 18.1101C7.62988 17.7501 7.73988 17.2901 8.09988 17.0601C8.45988 16.8501 8.91988 16.9601 9.14988 17.3101L10.7199 19.8901C10.7799 19.9801 10.8999 20.0101 10.9899 19.9601L11.9499 19.3801C12.0399 19.3201 12.0699 19.2001 12.0199 19.1101L10.4499 16.5301C10.2399 16.1701 10.3499 15.7101 10.6999 15.4801C11.0699 15.2701 11.5299 15.3801 11.7499 15.7301L13.3199 18.3101C13.3799 18.4001 13.4999 18.4301 13.5899 18.3801L14.5499 17.8001C14.6399 17.7401 14.6699 17.6201 14.6199 17.5301L13.0499 14.9501C12.8399 14.5901 12.9499 14.1301 13.2999 13.9001C13.6699 13.6901 14.1299 13.8001 14.3499 14.1501L15.9299 16.7201C15.9899 16.8101 16.1099 16.8401 16.1999 16.7801C17.3599 15.9501 17.6199 14.3901 16.7399 13.2101Z" fill="#101010"/>
</svg>
