<svg width="18" height="20" viewBox="0 0 18 20" fill="none" xmlns="http://www.w3.org/2000/svg">
<path d="M13.6504 2.79H13.3704C13.2704 2 12.9804 1.37 12.5204 0.9C11.9204 0.3 11.0504 0 9.93035 0H4.35035C2.10035 0 0.860352 1.24 0.860352 3.49C0.860352 4.61 1.16035 5.48 1.76035 6.08C2.36035 6.68 3.23035 6.98 4.35035 6.98H9.93035C11.9304 6.98 13.1304 5.99 13.3704 4.19H13.6504C15.7404 4.19 15.7404 4.47 15.7404 6.28V8.14C15.7404 9.95 15.7404 10.23 13.6504 10.23H9.93035C6.94035 10.23 6.51035 11.65 6.45035 13.03C5.55035 13.09 4.58035 13.51 4.58035 15.11V17.9C4.58035 19.63 5.72035 19.99 6.67035 19.99H7.60035C8.55035 19.99 9.69035 19.63 9.69035 17.9V15.11C9.69035 13.53 8.74035 13.09 7.84035 13.03C7.89035 12.02 8.18035 11.62 9.92035 11.62H13.6404C16.8904 11.62 17.1304 10.3 17.1304 8.13V6.28C17.1404 4.11 16.9004 2.79 13.6504 2.79Z" fill="#101010"/>
</svg>
