<svg width="18" height="22" viewBox="0 0 18 22" fill="none" xmlns="http://www.w3.org/2000/svg">
<path d="M12.59 0.75C9.61996 0.75 7.20996 3.16 7.20996 6.13C7.20996 9.1 9.61996 11.51 12.59 11.51C15.56 11.51 17.97 9.1 17.97 6.13C17.97 3.16 15.56 0.75 12.59 0.75Z" fill="#101010"/>
<path d="M3.35979 12.03C1.52979 12.03 0.0297852 13.52 0.0297852 15.36C0.0297852 17.2 1.51979 18.69 3.35979 18.69C5.18979 18.69 6.68979 17.2 6.68979 15.36C6.68979 13.52 5.18979 12.03 3.35979 12.03Z" fill="#101010"/>
<path d="M13.6196 15.62C12.0696 15.62 10.8096 16.88 10.8096 18.43C10.8096 19.98 12.0696 21.24 13.6196 21.24C15.1696 21.24 16.4296 19.98 16.4296 18.43C16.4296 16.88 15.1696 15.62 13.6196 15.62Z" fill="#101010"/>
</svg>
