<svg width="20" height="20" viewBox="0 0 20 20" fill="none" xmlns="http://www.w3.org/2000/svg">
<path d="M14.19 0H5.81C2.17 0 0 2.17 0 5.81V14.18C0 17.83 2.17 20 5.81 20H14.18C17.82 20 19.99 17.83 19.99 14.19V5.81C20 2.17 17.83 0 14.19 0ZM7.06 14.25L4.5 11.68C4.06 11.24 3.85 10.8 3.86 10.35C3.87 9.93 4.09 9.52 4.5 9.11L8.1 5.51L7.54 4.96C7.35 4.77 7.35 4.47 7.54 4.28C7.73 4.09 8.03 4.09 8.22 4.28L8.77 4.83L13.47 9.53C13.57 9.63 13.64 9.78 13.64 9.92C13.65 10.09 13.6 10.26 13.47 10.39L9.62 14.24C8.78 15.1 7.92 15.1 7.06 14.25ZM14.64 15.86C13.81 15.86 13.14 15.19 13.14 14.36C13.14 13.52 14.13 12.41 14.33 12.19C14.49 12.01 14.8 12.01 14.97 12.19C15.17 12.4 16.16 13.52 16.16 14.36C16.14 15.19 15.47 15.86 14.64 15.86Z" fill="#101010"/>
</svg>
