<svg width="21" height="20" viewBox="0 0 21 20" fill="none" xmlns="http://www.w3.org/2000/svg">
<path d="M9.74973 2.63998L5.31973 0.449983C2.92973 -0.720017 0.969727 0.469983 0.969727 3.08998V17.93C0.969727 19.07 1.91973 20 3.07973 20H10.4997C11.0497 20 11.4997 19.55 11.4997 19V5.40998C11.4997 4.35998 10.7097 3.10998 9.74973 2.63998ZM7.96973 11.75H4.49973C4.08973 11.75 3.74973 11.41 3.74973 11C3.74973 10.59 4.08973 10.25 4.49973 10.25H7.96973C8.37973 10.25 8.71973 10.59 8.71973 11C8.71973 11.41 8.38973 11.75 7.96973 11.75ZM7.96973 7.74998H4.49973C4.08973 7.74998 3.74973 7.40998 3.74973 6.99998C3.74973 6.58998 4.08973 6.24998 4.49973 6.24998H7.96973C8.37973 6.24998 8.71973 6.58998 8.71973 6.99998C8.71973 7.40998 8.38973 7.74998 7.96973 7.74998Z" fill="#101010"/>
<path d="M21 16.04V17.5C21 18.88 19.88 20 18.5 20H13.97C13.43 20 13 19.57 13 19.03V16.87C14.07 17 15.2 16.69 16.01 16.04C16.69 16.59 17.56 16.92 18.51 16.92C19.44 16.92 20.31 16.59 21 16.04Z" fill="#101010"/>
<path d="M21 13.05V13.06C20.92 14.37 19.85 15.42 18.51 15.42C17.12 15.42 16.01 14.29 16.01 12.92C16.01 14.45 14.6 15.68 13 15.37V10C13 9.36002 13.59 8.88002 14.22 9.02002L16.01 9.42002L16.49 9.53002L18.53 9.99002C19.02 10.09 19.47 10.26 19.86 10.51C19.86 10.52 19.87 10.52 19.87 10.52C19.97 10.59 20.07 10.67 20.16 10.76C20.62 11.22 20.92 11.89 20.99 12.87C20.99 12.93 21 12.99 21 13.05Z" fill="#101010"/>
</svg>
