<svg width="24" height="20" viewBox="0 0 24 20" fill="none" xmlns="http://www.w3.org/2000/svg">
<path d="M11.3196 0H5.08961C3.09961 0 2.09961 1.01 2.09961 3.02V19H7.49961V15.25C7.49961 14.84 7.83961 14.5 8.24961 14.5C8.65961 14.5 8.99961 14.83 8.99961 15.25V19H14.2996V3.02C14.2996 1.01 13.3096 0 11.3196 0ZM10.7496 9.75H5.79961C5.38961 9.75 5.04961 9.41 5.04961 9C5.04961 8.59 5.38961 8.25 5.79961 8.25H10.7496C11.1596 8.25 11.4996 8.59 11.4996 9C11.4996 9.41 11.1596 9.75 10.7496 9.75ZM10.7496 6H5.79961C5.38961 6 5.04961 5.66 5.04961 5.25C5.04961 4.84 5.38961 4.5 5.79961 4.5H10.7496C11.1596 4.5 11.4996 4.84 11.4996 5.25C11.4996 5.66 11.1596 6 10.7496 6Z" fill="#101010"/>
<path d="M23 18.25H20.73V15.25C21.68 14.94 22.37 14.05 22.37 13V11C22.37 9.69 21.3 8.62 19.99 8.62C18.68 8.62 17.61 9.69 17.61 11V13C17.61 14.04 18.29 14.92 19.22 15.24V18.25H1C0.59 18.25 0.25 18.59 0.25 19C0.25 19.41 0.59 19.75 1 19.75H19.93C19.95 19.75 19.96 19.76 19.98 19.76C20 19.76 20.01 19.75 20.03 19.75H23C23.41 19.75 23.75 19.41 23.75 19C23.75 18.59 23.41 18.25 23 18.25Z" fill="#101010"/>
</svg>
