<svg width="20" height="20" viewBox="0 0 20 20" fill="none" xmlns="http://www.w3.org/2000/svg">
<path d="M8.6 2.15C8.6 2.34 8.44 2.5 8.25 2.5H7.12C4.96 2.5 3.2 4.26 3.2 6.42V15.65C3.2 15.84 3.04 16 2.85 16H2.15C0.96 16 0 15.04 0 13.85V2.15C0 0.96 0.96 0 2.15 0H6.45C7.64 0 8.6 0.96 8.6 2.15Z" fill="#101010"/>
<path d="M20.0004 2.15V13.85C20.0004 15.04 19.0404 16 17.8504 16H17.2204C17.0304 16 16.8704 15.84 16.8704 15.65V6.42C16.8704 4.26 15.1104 2.5 12.9504 2.5H11.7504C11.5604 2.5 11.4004 2.34 11.4004 2.15C11.4004 0.96 12.3604 0 13.5504 0H17.8504C19.0404 0 20.0004 0.96 20.0004 2.15Z" fill="#101010"/>
<path d="M12.9502 4H7.1202C5.7802 4 4.7002 5.08 4.7002 6.42V17.58C4.7002 18.92 5.7802 20 7.1202 20H8.7502C9.0302 20 9.2502 19.78 9.2502 19.5V17C9.2502 16.59 9.5902 16.25 10.0002 16.25C10.4102 16.25 10.7502 16.59 10.7502 17V19.5C10.7502 19.78 10.9702 20 11.2502 20H12.9602C14.2902 20 15.3702 18.92 15.3702 17.59V6.42C15.3702 5.08 14.2902 4 12.9502 4ZM12.0002 12.75H8.0002C7.5902 12.75 7.2502 12.41 7.2502 12C7.2502 11.59 7.5902 11.25 8.0002 11.25H12.0002C12.4102 11.25 12.7502 11.59 12.7502 12C12.7502 12.41 12.4102 12.75 12.0002 12.75ZM12.0002 9.75H8.0002C7.5902 9.75 7.2502 9.41 7.2502 9C7.2502 8.59 7.5902 8.25 8.0002 8.25H12.0002C12.4102 8.25 12.7502 8.59 12.7502 9C12.7502 9.41 12.4102 9.75 12.0002 9.75Z" fill="#101010"/>
</svg>
