<svg width="20" height="20" viewBox="0 0 20 20" fill="none" xmlns="http://www.w3.org/2000/svg">
<path d="M3 6C1.34 6 0 7.34 0 9V17C0 18.66 1.34 20 3 20H4.5C5.6 20 6.5 19.1 6.5 18V8C6.5 6.9 5.6 6 4.5 6H3ZM4 15C4 15.41 3.66 15.75 3.25 15.75C2.84 15.75 2.5 15.41 2.5 15V11C2.5 10.59 2.84 10.25 3.25 10.25C3.66 10.25 4 10.59 4 11V15Z" fill="#101010"/>
<path d="M17 0H11C9.34 0 8 1.34 8 3V17C8 18.66 9.34 20 11 20H11.5C11.78 20 12 19.78 12 19.5V16C12 15.45 12.45 15 13 15H15C15.55 15 16 15.45 16 16V19.5C16 19.78 16.22 20 16.5 20H17C18.66 20 20 18.66 20 17V3C20 1.34 18.66 0 17 0ZM12.75 11C12.75 11.41 12.41 11.75 12 11.75C11.59 11.75 11.25 11.41 11.25 11V6C11.25 5.59 11.59 5.25 12 5.25C12.41 5.25 12.75 5.59 12.75 6V11ZM16.75 11C16.75 11.41 16.41 11.75 16 11.75C15.59 11.75 15.25 11.41 15.25 11V6C15.25 5.59 15.59 5.25 16 5.25C16.41 5.25 16.75 5.59 16.75 6V11Z" fill="#101010"/>
</svg>
