<svg width="20" height="20" viewBox="0 0 20 20" fill="none" xmlns="http://www.w3.org/2000/svg">
<path d="M20.0001 6.5C20.0001 9.76 17.6001 12.45 14.4801 12.92V12.86C14.1701 8.98 11.0201 5.83 7.11008 5.52H7.08008C7.55008 2.4 10.2401 0 13.5001 0C17.0901 0 20.0001 2.91 20.0001 6.5Z" fill="#101010"/>
<path d="M12.98 12.98C12.73 9.81 10.19 7.27 7.02 7.02C6.85 7.01 6.67 7 6.5 7C2.91 7 0 9.91 0 13.5C0 17.09 2.91 20 6.5 20C10.09 20 13 17.09 13 13.5C13 13.33 12.99 13.15 12.98 12.98ZM7.38 14.38L6.5 16L5.62 14.38L4 13.5L5.62 12.62L6.5 11L7.38 12.62L9 13.5L7.38 14.38Z" fill="#101010"/>
</svg>
