<svg width="20" height="20" viewBox="0 0 20 20" fill="none" xmlns="http://www.w3.org/2000/svg">
<path d="M18.8904 11V12H18.0204C17.2804 12 16.6804 12.6 16.6804 13.35V13.65C16.6804 14.4 16.0804 15 15.3304 15C14.5904 15 13.9904 14.4 13.9904 13.65V13.35C13.9904 12.6 13.3804 12 12.6404 12C11.9004 12 11.3004 12.6 11.3004 13.35V13.65C11.3004 14.4 10.6904 15 9.95035 15C9.21035 15 8.60035 14.4 8.60035 13.65V13.35C8.60035 12.6 8.00035 12 7.26035 12C6.52035 12 5.91035 12.6 5.91035 13.35V13.65C5.91035 14.4 5.31035 15 4.57035 15C3.82035 15 3.22035 14.4 3.22035 13.65V13.33C3.22035 12.59 2.63035 11.99 1.90035 11.98H1.11035V11C1.11035 9.62 2.15035 8.45 3.56035 8.11C3.84035 8.04 4.13035 8 4.44035 8H15.5604C15.8704 8 16.1604 8.04 16.4404 8.11C17.8504 8.45 18.8904 9.62 18.8904 11Z" fill="#101010"/>
<path d="M16.4396 5.17V6.58C16.1496 6.52 15.8596 6.5 15.5596 6.5H4.43957C4.13957 6.5 3.84957 6.53 3.55957 6.59V5.17C3.55957 3.97 4.63957 3 5.97957 3H14.0196C15.3596 3 16.4396 3.97 16.4396 5.17Z" fill="#101010"/>
<path d="M6.75 1.5499V3.0099H5.98C5.72 3.0099 5.48 3.0399 5.25 3.0999V1.5499C5.25 1.1999 5.59 0.899902 6 0.899902C6.41 0.899902 6.75 1.1999 6.75 1.5499Z" fill="#101010"/>
<path d="M14.75 1.33008V3.10008C14.52 3.03008 14.28 3.00008 14.02 3.00008H13.25V1.33008C13.25 0.920078 13.59 0.580078 14 0.580078C14.41 0.580078 14.75 0.920078 14.75 1.33008Z" fill="#101010"/>
<path d="M10.75 0.82V3H9.25V0.82C9.25 0.37 9.59 0 10 0C10.41 0 10.75 0.37 10.75 0.82Z" fill="#101010"/>
<path d="M20 19.25C20 19.66 19.66 20 19.25 20H0.75C0.34 20 0 19.66 0 19.25C0 18.84 0.34 18.5 0.75 18.5H1.11V13.48H1.72V13.55C1.72 14.89 2.6 16.13 3.91 16.42C4.93 16.66 5.9 16.33 6.56 15.68C6.94 15.3 7.56 15.29 7.94 15.67C8.46 16.18 9.17 16.5 9.95 16.5C10.73 16.5 11.44 16.19 11.96 15.67C12.34 15.3 12.95 15.3 13.34 15.68C13.99 16.33 14.96 16.66 15.99 16.42C17.3 16.13 18.18 14.89 18.18 13.55V13.5H18.89V18.5H19.25C19.66 18.5 20 18.84 20 19.25Z" fill="#101010"/>
</svg>
