<svg width="20" height="20" viewBox="0 0 20 20" fill="none" xmlns="http://www.w3.org/2000/svg">
<path d="M10 0C4.48 0 0 4.48 0 10C0 15.52 4.48 20 10 20C15.52 20 20 15.52 20 10C20 4.48 15.52 0 10 0ZM4.85 7.44C5.27 6.47 6.06 5.72 7.15 5.38V4.58C7.15 4.17 7.49 3.83 7.9 3.83C8.31 3.83 8.65 4.17 8.65 4.58V5.17H11.36V4.58C11.36 4.17 11.7 3.83 12.11 3.83C12.52 3.83 12.86 4.17 12.86 4.58V5.37C13.95 5.71 14.74 6.46 15.16 7.43C15.3 7.76 15.06 8.14 14.7 8.14H5.31C4.95 8.14 4.71 7.77 4.85 7.44ZM15.5 12.17C15.5 14.37 14 16.17 11.5 16.17H8.5C6 16.17 4.5 14.37 4.5 12.17V9.64C4.5 9.36 4.72 9.14 5 9.14H15C15.28 9.14 15.5 9.36 15.5 9.64V12.17Z" fill="#101010"/>
</svg>
