<svg width="18" height="21" viewBox="0 0 18 21" fill="none" xmlns="http://www.w3.org/2000/svg">
<path d="M13.7502 2.56V1C13.7502 0.59 13.4102 0.25 13.0002 0.25C12.5902 0.25 12.2502 0.59 12.2502 1V2.5H5.75023V1C5.75023 0.59 5.41023 0.25 5.00023 0.25C4.59023 0.25 4.25023 0.59 4.25023 1V2.56C1.55023 2.81 0.240229 4.42 0.0402292 6.81C0.0202292 7.1 0.260229 7.34 0.540229 7.34H17.4602C17.7502 7.34 17.9902 7.09 17.9602 6.81C17.7602 4.42 16.4502 2.81 13.7502 2.56Z" fill="#101010"/>
<path d="M17 8.83997H1C0.45 8.83997 0 9.28997 0 9.83997V16C0 19 1.5 21 5 21H13C16.5 21 18 19 18 16V9.83997C18 9.28997 17.55 8.83997 17 8.83997ZM6.21 17.21C6.11 17.3 6 17.37 5.88 17.42C5.76 17.47 5.63 17.5 5.5 17.5C5.37 17.5 5.24 17.47 5.12 17.42C5 17.37 4.89 17.3 4.79 17.21C4.61 17.02 4.5 16.76 4.5 16.5C4.5 16.24 4.61 15.98 4.79 15.79C4.89 15.7 5 15.63 5.12 15.58C5.36 15.48 5.64 15.48 5.88 15.58C6 15.63 6.11 15.7 6.21 15.79C6.39 15.98 6.5 16.24 6.5 16.5C6.5 16.76 6.39 17.02 6.21 17.21ZM6.42 13.38C6.37 13.5 6.3 13.61 6.21 13.71C6.11 13.8 6 13.87 5.88 13.92C5.76 13.97 5.63 14 5.5 14C5.37 14 5.24 13.97 5.12 13.92C5 13.87 4.89 13.8 4.79 13.71C4.7 13.61 4.63 13.5 4.58 13.38C4.53 13.26 4.5 13.13 4.5 13C4.5 12.87 4.53 12.74 4.58 12.62C4.63 12.5 4.7 12.39 4.79 12.29C4.89 12.2 5 12.13 5.12 12.08C5.36 11.98 5.64 11.98 5.88 12.08C6 12.13 6.11 12.2 6.21 12.29C6.3 12.39 6.37 12.5 6.42 12.62C6.47 12.74 6.5 12.87 6.5 13C6.5 13.13 6.47 13.26 6.42 13.38ZM9.71 13.71C9.61 13.8 9.5 13.87 9.38 13.92C9.26 13.97 9.13 14 9 14C8.87 14 8.74 13.97 8.62 13.92C8.5 13.87 8.39 13.8 8.29 13.71C8.11 13.52 8 13.26 8 13C8 12.74 8.11 12.48 8.29 12.29C8.39 12.2 8.5 12.13 8.62 12.08C8.86 11.97 9.14 11.97 9.38 12.08C9.5 12.13 9.61 12.2 9.71 12.29C9.89 12.48 10 12.74 10 13C10 13.26 9.89 13.52 9.71 13.71Z" fill="#101010"/>
</svg>
