<svg width="18" height="21" viewBox="0 0 18 21" fill="none" xmlns="http://www.w3.org/2000/svg">
<path d="M13.7502 2.56V1C13.7502 0.59 13.4102 0.25 13.0002 0.25C12.5902 0.25 12.2502 0.59 12.2502 1V2.5H5.75023V1C5.75023 0.59 5.41023 0.25 5.00023 0.25C4.59023 0.25 4.25023 0.59 4.25023 1V2.56C1.55023 2.81 0.240229 4.42 0.0402292 6.81C0.0202292 7.1 0.260229 7.34 0.540229 7.34H17.4602C17.7502 7.34 17.9902 7.09 17.9602 6.81C17.7602 4.42 16.4502 2.81 13.7502 2.56Z" fill="#101010"/>
<path d="M17 8.83997H1C0.45 8.83997 0 9.28997 0 9.83997V16C0 19 1.5 21 5 21H13C16.5 21 18 19 18 16V9.83997C18 9.28997 17.55 8.83997 17 8.83997ZM11.84 13.99L11.34 14.5H11.33L8.3 17.53C8.17 17.66 7.9 17.8 7.71 17.82L6.36 18.02C5.87 18.09 5.53 17.74 5.6 17.26L5.79 15.9C5.82 15.71 5.95 15.45 6.08 15.31L9.12 12.28L9.62 11.77C9.95 11.44 10.32 11.2 10.72 11.2C11.06 11.2 11.43 11.36 11.84 11.77C12.74 12.67 12.45 13.38 11.84 13.99Z" fill="#101010"/>
</svg>
