<svg width="20" height="21" viewBox="0 0 20 21" fill="none" xmlns="http://www.w3.org/2000/svg">
<path d="M6.25 4.75C5.84 4.75 5.5 4.41 5.5 4V1C5.5 0.59 5.84 0.25 6.25 0.25C6.66 0.25 7 0.59 7 1V4C7 4.41 6.66 4.75 6.25 4.75Z" fill="#101010"/>
<path d="M13.75 4.75C13.34 4.75 13 4.41 13 4V1C13 0.59 13.34 0.25 13.75 0.25C14.16 0.25 14.5 0.59 14.5 1V4C14.5 4.41 14.16 4.75 13.75 4.75Z" fill="#101010"/>
<path d="M9.99961 13.09C10.5196 13.09 10.8996 12.78 10.8996 12.29C10.8996 11.79 10.5196 11.5 9.99961 11.5C9.47961 11.5 9.09961 11.79 9.09961 12.29C9.09961 12.78 9.47961 13.09 9.99961 13.09Z" fill="#101010"/>
<path d="M10.0004 16C10.63 16 11.1404 15.5836 11.1404 15.07C11.1404 14.5564 10.63 14.14 10.0004 14.14C9.37075 14.14 8.86035 14.5564 8.86035 15.07C8.86035 15.5836 9.37075 16 10.0004 16Z" fill="#101010"/>
<path d="M17.57 3.5C16.91 3.01 15.96 3.48 15.96 4.31V4.41C15.96 5.58 15.12 6.66 13.95 6.78C12.6 6.92 11.46 5.86 11.46 4.54V3.5C11.46 2.95 11.01 2.5 10.46 2.5H9.54C8.99 2.5 8.54 2.95 8.54 3.5V4.54C8.54 5.33 8.13 6.03 7.51 6.42C7.42 6.48 7.32 6.53 7.22 6.58C7.13 6.63 7.03 6.67 6.92 6.7C6.8 6.74 6.67 6.77 6.53 6.78C6.37 6.8 6.21 6.8 6.05 6.78C5.91 6.77 5.78 6.74 5.66 6.7C5.56 6.67 5.46 6.63 5.36 6.58C5.26 6.53 5.16 6.48 5.07 6.42C4.44 5.98 4.04 5.22 4.04 4.41V4.31C4.04 3.54 3.22 3.08 2.57 3.41C2.56 3.42 2.55 3.42 2.54 3.43C2.5 3.45 2.47 3.47 2.43 3.5C2.4 3.53 2.36 3.55 2.33 3.58C2.05 3.8 1.8 4.05 1.59 4.32C1.48 4.44 1.39 4.57 1.31 4.7C1.3 4.71 1.29 4.72 1.28 4.74C1.19 4.87 1.11 5.02 1.04 5.16C1.02 5.18 1.01 5.19 1.01 5.21C0.95 5.33 0.89 5.45 0.85 5.58C0.82 5.63 0.81 5.67 0.79 5.72C0.73 5.87 0.69 6.02 0.65 6.17C0.61 6.31 0.58 6.46 0.56 6.61C0.54 6.72 0.53 6.83 0.52 6.95C0.51 7.09 0.5 7.23 0.5 7.37V16.13C0.5 18.82 2.68 21 5.37 21H14.63C17.32 21 19.5 18.82 19.5 16.13V7.37C19.5 5.78 18.74 4.39 17.57 3.5ZM10 17.25C8.45 17.25 7.5 16.48 7.5 15.24C7.5 14.56 7.85 13.97 8.46 13.62C8.02 13.31 7.73 12.85 7.73 12.22C7.73 10.92 8.77 10.25 10 10.25C11.23 10.25 12.26 10.92 12.26 12.22C12.26 12.85 11.98 13.31 11.53 13.62C12.15 13.97 12.5 14.56 12.5 15.24C12.5 16.48 11.54 17.25 10 17.25Z" fill="#101010"/>
</svg>
