<svg width="20" height="22" viewBox="0 0 20 22" fill="none" xmlns="http://www.w3.org/2000/svg">
<path d="M13.7502 2.56V1C13.7502 0.59 13.4102 0.25 13.0002 0.25C12.5902 0.25 12.2502 0.59 12.2502 1V2.5H5.75023V1C5.75023 0.59 5.41023 0.25 5.00023 0.25C4.59023 0.25 4.25023 0.59 4.25023 1V2.56C1.55023 2.81 0.240229 4.42 0.0402292 6.81C0.0202292 7.1 0.260229 7.34 0.540229 7.34H17.4602C17.7502 7.34 17.9902 7.09 17.9602 6.81C17.7602 4.42 16.4502 2.81 13.7502 2.56Z" fill="#101010"/>
<path d="M17 8.83997H1C0.45 8.83997 0 9.28997 0 9.83997V16C0 19 1.5 21 5 21H9.93C10.62 21 11.1 20.33 10.88 19.68C10.68 19.1 10.51 18.46 10.51 18C10.51 14.97 12.98 12.5 16.01 12.5C16.3 12.5 16.59 12.52 16.87 12.57C17.47 12.66 18.01 12.19 18.01 11.59V9.84997C18 9.28997 17.55 8.83997 17 8.83997ZM6.21 16.71C6.02 16.89 5.76 17 5.5 17C5.37 17 5.24 16.97 5.12 16.92C5 16.87 4.89 16.8 4.79 16.71C4.61 16.52 4.5 16.27 4.5 16C4.5 15.87 4.53 15.74 4.58 15.62C4.63 15.49 4.7 15.39 4.79 15.29C4.89 15.2 5 15.13 5.12 15.08C5.48 14.92 5.93 15.01 6.21 15.29C6.3 15.39 6.37 15.49 6.42 15.62C6.47 15.74 6.5 15.87 6.5 16C6.5 16.27 6.39 16.52 6.21 16.71ZM6.21 13.21C6.02 13.39 5.76 13.5 5.5 13.5C5.37 13.5 5.24 13.48 5.12 13.42C5 13.37 4.89 13.3 4.79 13.21C4.61 13.02 4.5 12.76 4.5 12.5C4.5 12.37 4.53 12.24 4.58 12.12C4.63 12 4.7 11.89 4.79 11.79C4.89 11.7 5 11.63 5.12 11.58C5.48 11.43 5.93 11.51 6.21 11.79C6.3 11.89 6.37 12 6.42 12.12C6.47 12.24 6.5 12.37 6.5 12.5C6.5 12.76 6.39 13.02 6.21 13.21ZM9.92 12.88C9.87 13 9.8 13.11 9.71 13.21C9.61 13.3 9.5 13.37 9.38 13.42C9.26 13.48 9.13 13.5 9 13.5C8.74 13.5 8.48 13.39 8.29 13.21C8.2 13.11 8.13 13 8.08 12.88C8.03 12.76 8 12.63 8 12.5C8 12.24 8.11 11.98 8.29 11.79C8.57 11.51 9.01 11.42 9.38 11.58C9.5 11.63 9.61 11.7 9.71 11.79C9.89 11.98 10 12.24 10 12.5C10 12.63 9.98 12.76 9.92 12.88Z" fill="#101010"/>
<path d="M16 14C13.79 14 12 15.79 12 18C12 20.21 13.79 22 16 22C18.21 22 20 20.21 20 18C20 15.79 18.21 14 16 14ZM17.6 19.64C17.45 19.79 17.26 19.86 17.07 19.86C16.88 19.86 16.69 19.79 16.54 19.64L16.01 19.11L15.46 19.66C15.31 19.81 15.12 19.88 14.93 19.88C14.74 19.88 14.55 19.81 14.4 19.66C14.11 19.37 14.11 18.89 14.4 18.6L14.95 18.05L14.42 17.52C14.13 17.23 14.13 16.75 14.42 16.46C14.71 16.17 15.19 16.17 15.48 16.46L16.01 17L16.51 16.5C16.8 16.21 17.28 16.21 17.57 16.5C17.86 16.79 17.86 17.27 17.57 17.56L17.07 18.06L17.6 18.59C17.89 18.88 17.89 19.35 17.6 19.64Z" fill="#101010"/>
</svg>
