<svg width="20" height="20" viewBox="0 0 20 20" fill="none" xmlns="http://www.w3.org/2000/svg">
<path d="M19.0002 6.55H14.2002C13.7902 6.55 13.4502 6.21 13.4502 5.8V1C13.4502 0.59 13.7902 0.25 14.2002 0.25C14.6102 0.25 14.9502 0.59 14.9502 1V5.05H19.0002C19.4102 5.05 19.7502 5.39 19.7502 5.8C19.7502 6.21 19.4102 6.55 19.0002 6.55Z" fill="#101010"/>
<path d="M9.05 12.95L7.2 14.8C6.81 15.19 6.19 15.19 5.79 14.81C5.68 14.7 5.57 14.6 5.46 14.49C4.43 13.45 3.5 12.36 2.67 11.22C1.85 10.08 1.19 8.94 0.71 7.81C0.24 6.67 0 5.58 0 4.54C0 3.86 0.12 3.21 0.36 2.61C0.6 2 0.98 1.44 1.51 0.94C2.15 0.31 2.85 0 3.59 0C3.87 0 4.15 0.0600001 4.4 0.18C4.66 0.3 4.89 0.48 5.07 0.74L7.39 4.01C7.57 4.26 7.7 4.49 7.79 4.71C7.88 4.92 7.93 5.13 7.93 5.32C7.93 5.56 7.86 5.8 7.72 6.03C7.59 6.26 7.4 6.5 7.16 6.74L6.4 7.53C6.29 7.64 6.24 7.77 6.24 7.93C6.24 8.01 6.25 8.08 6.27 8.16C6.3 8.24 6.33 8.3 6.35 8.36C6.53 8.69 6.84 9.12 7.28 9.64C7.73 10.16 8.21 10.69 8.73 11.22C8.83 11.32 8.94 11.42 9.04 11.52C9.44 11.91 9.45 12.55 9.05 12.95Z" fill="#101010"/>
<path d="M19.9696 16.33C19.9696 16.61 19.9196 16.9 19.8196 17.18C19.7896 17.26 19.7596 17.34 19.7196 17.42C19.5496 17.78 19.3296 18.12 19.0396 18.44C18.5496 18.98 18.0096 19.37 17.3996 19.62C17.3896 19.62 17.3796 19.63 17.3696 19.63C16.7796 19.87 16.1396 20 15.4496 20C14.4296 20 13.3396 19.76 12.1896 19.27C11.0396 18.78 9.88961 18.12 8.74961 17.29C8.35961 17 7.96961 16.71 7.59961 16.4L10.8696 13.13C11.1496 13.34 11.3996 13.5 11.6096 13.61C11.6596 13.63 11.7196 13.66 11.7896 13.69C11.8696 13.72 11.9496 13.73 12.0396 13.73C12.2096 13.73 12.3396 13.67 12.4496 13.56L13.2096 12.81C13.4596 12.56 13.6996 12.37 13.9296 12.25C14.1596 12.11 14.3896 12.04 14.6396 12.04C14.8296 12.04 15.0296 12.08 15.2496 12.17C15.4696 12.26 15.6996 12.39 15.9496 12.56L19.2596 14.91C19.5196 15.09 19.6996 15.3 19.8096 15.55C19.9096 15.8 19.9696 16.05 19.9696 16.33Z" fill="#101010"/>
</svg>
