<svg width="21" height="20" viewBox="0 0 21 20" fill="none" xmlns="http://www.w3.org/2000/svg">
<path d="M19.9996 16.33C19.9996 16.69 19.9196 17.06 19.7496 17.42C19.5796 17.78 19.3596 18.12 19.0696 18.44C18.5796 18.98 18.0396 19.37 17.4296 19.62C16.8296 19.87 16.1696 20 15.4696 20C14.4496 20 13.3596 19.76 12.2096 19.27C11.0596 18.78 9.89957 18.12 8.75957 17.29C8.17957 16.86 7.60957 16.42 7.05957 15.94L10.3196 12.68C10.3296 12.68 10.3296 12.68 10.3396 12.69C10.8596 13.13 11.2896 13.43 11.6296 13.61C11.6796 13.63 11.7396 13.66 11.8096 13.69C11.8896 13.72 11.9696 13.73 12.0596 13.73C12.2296 13.73 12.3596 13.67 12.4696 13.56L13.2296 12.81C13.4796 12.56 13.7196 12.37 13.9496 12.25C14.1796 12.11 14.4096 12.04 14.6596 12.04C14.8496 12.04 15.0496 12.08 15.2696 12.17C15.4896 12.26 15.7196 12.39 15.9696 12.56L19.2896 14.91C19.5496 15.09 19.7296 15.3 19.8396 15.55C19.9396 15.8 19.9996 16.05 19.9996 16.33Z" fill="#101010"/>
<path d="M8.76 11.24L5.5 14.5C5.49 14.5 5.49 14.5 5.48 14.49C4.45 13.45 3.52 12.36 2.68 11.22C1.87 10.1 1.22 8.97 0.74 7.86C0.73 7.84 0.73 7.83 0.72 7.81C0.24 6.67 0 5.58 0 4.54C0 3.86 0.12 3.21 0.36 2.61C0.56 2.1 0.86 1.62 1.27 1.19C1.34 1.11 1.42 1.02 1.51 0.94C1.67 0.78 1.83 0.64 2 0.53C2.01 0.53 2.01 0.53 2.01 0.53C2.51 0.17 3.04 0 3.6 0C3.88 0 4.16 0.0600001 4.41 0.18C4.65 0.29 4.86 0.45 5.03 0.68C5.05 0.7 5.06 0.72 5.08 0.74L7.4 4.01C7.58 4.26 7.71 4.49 7.8 4.71C7.89 4.92 7.94 5.13 7.94 5.32C7.94 5.56 7.87 5.8 7.73 6.03C7.6 6.26 7.41 6.5 7.17 6.74L6.41 7.53C6.3 7.64 6.25 7.77 6.25 7.93C6.25 8.01 6.26 8.08 6.28 8.16C6.31 8.24 6.34 8.3 6.36 8.36C6.54 8.69 6.85 9.12 7.29 9.64C7.74 10.16 8.22 10.69 8.74 11.22C8.75 11.23 8.75 11.23 8.76 11.24Z" fill="#101010"/>
<path d="M19.7699 0.230005C19.4699 -0.0699951 18.9799 -0.0699951 18.6799 0.230005L0.229883 18.69C-0.0701172 18.99 -0.0701172 19.48 0.229883 19.78C0.379883 19.92 0.569883 20 0.769883 20C0.969883 20 1.15988 19.92 1.30988 19.77L19.7699 1.31C20.0799 1.01 20.0799 0.530005 19.7699 0.230005Z" fill="#101010"/>
</svg>
