<svg width="20" height="20" viewBox="0 0 20 20" fill="none" xmlns="http://www.w3.org/2000/svg">
<path d="M16.0002 4C15.3902 4 14.8302 3.65 14.5502 3.11L13.8302 1.66C13.3702 0.75 12.1702 0 11.1502 0H8.86017C7.83017 0 6.63017 0.75 6.17017 1.66L5.45017 3.11C5.17017 3.65 4.61017 4 4.00017 4C1.83017 4 0.110168 5.83 0.250168 7.99L0.770168 16.25C0.890168 18.31 2.00017 20 4.76017 20H15.2402C18.0002 20 19.1002 18.31 19.2302 16.25L19.7502 7.99C19.8902 5.83 18.1702 4 16.0002 4ZM8.50017 5.25H11.5002C11.9102 5.25 12.2502 5.59 12.2502 6C12.2502 6.41 11.9102 6.75 11.5002 6.75H8.50017C8.09017 6.75 7.75017 6.41 7.75017 6C7.75017 5.59 8.09017 5.25 8.50017 5.25ZM10.0002 16.12C8.14017 16.12 6.62017 14.61 6.62017 12.74C6.62017 10.87 8.13017 9.36 10.0002 9.36C11.8702 9.36 13.3802 10.87 13.3802 12.74C13.3802 14.61 11.8602 16.12 10.0002 16.12Z" fill="#101010"/>
</svg>
