<svg width="22" height="21" viewBox="0 0 22 21" fill="none" xmlns="http://www.w3.org/2000/svg">
<path d="M20.75 5.99996C20.75 6.40996 20.41 6.74996 20 6.74996H2C1.59 6.74996 1.25 6.40996 1.25 5.99996C1.25 5.58996 1.59 5.24996 2 5.24996H3.02L3.4 3.43996C3.76 1.68996 4.51 0.0799561 7.49 0.0799561H14.51C17.49 0.0799561 18.24 1.68996 18.6 3.43996L18.98 5.24996H20C20.41 5.24996 20.75 5.58996 20.75 5.99996Z" fill="#101010"/>
<path d="M21.1801 11.66C21.0301 10.01 20.5901 8.25 17.3801 8.25H4.62009C1.41009 8.25 0.980086 10.01 0.820086 11.66L0.260086 17.75C0.190086 18.51 0.440086 19.27 0.960086 19.84C1.49009 20.42 2.24009 20.75 3.04009 20.75H4.92009C6.54009 20.75 6.85009 19.82 7.05009 19.21L7.25009 18.61C7.48009 17.92 7.54009 17.75 8.44009 17.75H13.5601C14.4601 17.75 14.4901 17.85 14.7501 18.61L14.9501 19.21C15.1501 19.82 15.4601 20.75 17.0801 20.75H18.9601C19.7501 20.75 20.5101 20.42 21.0401 19.84C21.5601 19.27 21.8101 18.51 21.7401 17.75L21.1801 11.66ZM8.00009 13.75H5.00009C4.59009 13.75 4.25009 13.41 4.25009 13C4.25009 12.59 4.59009 12.25 5.00009 12.25H8.00009C8.41009 12.25 8.75009 12.59 8.75009 13C8.75009 13.41 8.41009 13.75 8.00009 13.75ZM17.0001 13.75H14.0001C13.5901 13.75 13.2501 13.41 13.2501 13C13.2501 12.59 13.5901 12.25 14.0001 12.25H17.0001C17.4101 12.25 17.7501 12.59 17.7501 13C17.7501 13.41 17.4101 13.75 17.0001 13.75Z" fill="#101010"/>
</svg>
