<svg width="21" height="20" viewBox="0 0 21 20" fill="none" xmlns="http://www.w3.org/2000/svg">
<path d="M11.502 3.61002V6.54002C11.502 7.21002 10.962 7.75002 10.292 7.75002H1.21195C0.531953 7.75002 0.00195312 7.19002 0.00195312 6.52002C0.0119531 5.39002 0.461953 4.36002 1.21195 3.61002C1.96195 2.86002 3.00195 2.40002 4.14195 2.40002H10.292C10.962 2.40002 11.502 2.94002 11.502 3.61002Z" fill="#101010"/>
<path d="M0.00195312 10.46V15.46C0.00195312 17.75 1.85195 19.6 4.14195 19.6H15.852C18.142 19.6 20.002 17.74 20.002 15.45V10.46C20.002 9.79 19.462 9.25 18.792 9.25H1.21195C0.541953 9.25 0.00195312 9.79 0.00195312 10.46ZM6.00195 16.25H4.00195C3.59195 16.25 3.25195 15.91 3.25195 15.5C3.25195 15.09 3.59195 14.75 4.00195 14.75H6.00195C6.41195 14.75 6.75195 15.09 6.75195 15.5C6.75195 15.91 6.41195 16.25 6.00195 16.25ZM12.502 16.25H8.50195C8.09195 16.25 7.75195 15.91 7.75195 15.5C7.75195 15.09 8.09195 14.75 8.50195 14.75H12.502C12.912 14.75 13.252 15.09 13.252 15.5C13.252 15.91 12.912 16.25 12.502 16.25Z" fill="#101010"/>
<path d="M17.972 0.75H15.032C13.762 0.75 13.002 1.51 13.002 2.78V5.72C13.002 6.99 13.762 7.75 15.032 7.75H17.972C19.242 7.75 20.002 6.99 20.002 5.72V2.78C20.002 1.51 19.242 0.75 17.972 0.75ZM16.012 6.32C15.982 6.35 15.912 6.39 15.862 6.39L14.822 6.54C14.792 6.55 14.752 6.55 14.722 6.55C14.572 6.55 14.442 6.5 14.352 6.4C14.232 6.28 14.182 6.11 14.212 5.93L14.362 4.89C14.372 4.84 14.402 4.77 14.432 4.74L16.132 3.04C16.162 3.11 16.192 3.19 16.222 3.27C16.262 3.35 16.302 3.42 16.342 3.49C16.372 3.55 16.412 3.61 16.452 3.65C16.492 3.71 16.532 3.77 16.562 3.8C16.582 3.83 16.592 3.84 16.602 3.85C16.692 3.96 16.792 4.06 16.882 4.13C16.902 4.15 16.922 4.17 16.932 4.17C16.982 4.21 17.042 4.26 17.082 4.29C17.142 4.33 17.192 4.37 17.252 4.4C17.322 4.44 17.402 4.48 17.482 4.52C17.562 4.56 17.642 4.59 17.712 4.61L16.012 6.32ZM18.402 3.93L18.072 4.26C18.062 4.28 18.032 4.29 18.002 4.29C17.992 4.29 17.982 4.29 17.972 4.29C17.252 4.08 16.682 3.51 16.472 2.79C16.462 2.75 16.472 2.71 16.502 2.68L16.832 2.35C17.372 1.81 17.882 1.82 18.412 2.35C18.682 2.62 18.812 2.88 18.812 3.14C18.802 3.4 18.672 3.66 18.402 3.93Z" fill="#101010"/>
</svg>
