<svg width="21" height="18" viewBox="0 0 21 18" fill="none" xmlns="http://www.w3.org/2000/svg">
<path d="M13.222 3.54993H3.78195C3.50195 3.54993 3.24195 3.55993 3.00195 3.56993C0.631953 3.70993 0.00195312 4.57993 0.00195312 7.27993V7.85993C0.00195312 8.40993 0.451953 8.85993 1.00195 8.85993H16.002C16.552 8.85993 17.002 8.40993 17.002 7.85993V7.27993C17.002 4.29993 16.242 3.54993 13.222 3.54993Z" fill="#101010"/>
<path d="M1.00195 10.36C0.451953 10.36 0.00195312 10.81 0.00195312 11.36V14.27C0.00195312 17.25 0.761953 18 3.78195 18H13.222C16.192 18 16.972 17.28 17.002 14.43V11.36C17.002 10.81 16.552 10.36 16.002 10.36H1.00195ZM4.96195 15.56H3.25195C2.84195 15.56 2.50195 15.22 2.50195 14.81C2.50195 14.4 2.84195 14.06 3.25195 14.06H4.97195C5.38195 14.06 5.72195 14.4 5.72195 14.81C5.72195 15.22 5.38195 15.56 4.96195 15.56ZM10.552 15.56H7.11195C6.70195 15.56 6.36195 15.22 6.36195 14.81C6.36195 14.4 6.70195 14.06 7.11195 14.06H10.552C10.962 14.06 11.302 14.4 11.302 14.81C11.302 15.22 10.972 15.56 10.552 15.56Z" fill="#101010"/>
<path d="M20.0016 10.33V5.08998C20.0016 1.95998 18.2116 0.599976 15.5116 0.599976H6.58157C5.82157 0.599976 5.14157 0.709976 4.54157 0.939976C4.07157 1.10998 3.65157 1.35998 3.31157 1.68998C3.13157 1.85998 3.27157 2.13998 3.53157 2.13998H14.4016C16.6516 2.13998 18.4716 3.95998 18.4716 6.20998V13.38C18.4716 13.63 18.7416 13.77 18.9216 13.59C19.6116 12.86 20.0016 11.79 20.0016 10.33Z" fill="#101010"/>
</svg>
