<svg width="21" height="21" viewBox="0 0 21 21" fill="none" xmlns="http://www.w3.org/2000/svg">
<path d="M16.9023 12.03C14.6923 12.03 12.9023 13.82 12.9023 16.03C12.9023 18.24 14.6923 20.03 16.9023 20.03C19.1123 20.03 20.9023 18.24 20.9023 16.03C20.9023 13.82 19.1123 12.03 16.9023 12.03ZM18.5023 17.68C18.3523 17.83 18.1623 17.9 17.9723 17.9C17.7823 17.9 17.5923 17.83 17.4423 17.68L16.9123 17.15L16.3623 17.7C16.2123 17.85 16.0223 17.92 15.8323 17.92C15.6423 17.92 15.4523 17.85 15.3023 17.7C15.0123 17.41 15.0123 16.93 15.3023 16.64L15.8523 16.09L15.3223 15.56C15.0323 15.27 15.0323 14.79 15.3223 14.5C15.6123 14.21 16.0923 14.21 16.3823 14.5L16.9123 15.03L17.4123 14.53C17.7023 14.24 18.1823 14.24 18.4723 14.53C18.7623 14.82 18.7623 15.3 18.4723 15.59L17.9723 16.09L18.5023 16.62C18.7923 16.91 18.7923 17.39 18.5023 17.68Z" fill="#101010"/>
<path d="M20.002 4.55002V5.00002C20.002 5.55002 19.552 6.00002 19.002 6.00002H1.00195C0.451953 6.00002 0.00195312 5.55002 0.00195312 5.00002V4.54002C0.00195312 2.25002 1.85195 0.400024 4.14195 0.400024H15.852C18.142 0.400024 20.002 2.26002 20.002 4.55002Z" fill="#101010"/>
<path d="M0.00195312 8.49999V13.46C0.00195312 15.75 1.85195 17.6 4.14195 17.6H10.402C10.982 17.6 11.482 17.11 11.432 16.53C11.292 15 11.782 13.34 13.142 12.02C13.702 11.47 14.392 11.05 15.142 10.81C16.392 10.41 17.602 10.46 18.672 10.82C19.322 11.04 20.002 10.57 20.002 9.87999V8.48999C20.002 7.93999 19.552 7.48999 19.002 7.48999H1.00195C0.451953 7.49999 0.00195312 7.94999 0.00195312 8.49999ZM6.00195 14.25H4.00195C3.59195 14.25 3.25195 13.91 3.25195 13.5C3.25195 13.09 3.59195 12.75 4.00195 12.75H6.00195C6.41195 12.75 6.75195 13.09 6.75195 13.5C6.75195 13.91 6.41195 14.25 6.00195 14.25Z" fill="#101010"/>
</svg>
