<svg width="20" height="20" viewBox="0 0 20 20" fill="none" xmlns="http://www.w3.org/2000/svg">
<path d="M10 0C4.48 0 0 4.48 0 10C0 15.52 4.48 20 10 20C15.52 20 20 15.52 20 10C20 4.48 15.52 0 10 0ZM10 6.75C9.59 6.75 9.25 6.41 9.25 6C9.25 5.59 9.59 5.25 10 5.25C12.62 5.25 14.75 7.38 14.75 10C14.75 12.62 12.62 14.75 10 14.75C9.59 14.75 9.25 14.41 9.25 14C9.25 13.59 9.59 13.25 10 13.25C11.79 13.25 13.25 11.79 13.25 10C13.25 8.21 11.79 6.75 10 6.75ZM10 17.75C5.73 17.75 2.25 14.27 2.25 10C2.25 9.59 2.59 9.25 3 9.25C3.41 9.25 3.75 9.59 3.75 10C3.75 13.45 6.55 16.25 10 16.25C13.45 16.25 16.25 13.45 16.25 10C16.25 6.55 13.45 3.75 10 3.75C9.59 3.75 9.25 3.41 9.25 3C9.25 2.59 9.59 2.25 10 2.25C14.27 2.25 17.75 5.73 17.75 10C17.75 14.27 14.27 17.75 10 17.75Z" fill="#101010"/>
</svg>
