<svg width="20" height="20" viewBox="0 0 20 20" fill="none" xmlns="http://www.w3.org/2000/svg">
<path d="M14.19 0H5.81C2.17 0 0 2.17 0 5.81V14.19C0 17.83 2.17 20 5.81 20H14.19C17.83 20 20 17.83 20 14.19V5.81C20 2.17 17.83 0 14.19 0ZM5.75 11.6C5.75 12.01 5.41 12.35 5 12.35C4.59 12.35 4.25 12.01 4.25 11.6V8.4C4.25 7.99 4.59 7.65 5 7.65C5.41 7.65 5.75 7.99 5.75 8.4V11.6ZM10.75 13.34C10.75 13.75 10.41 14.09 10 14.09C9.59 14.09 9.25 13.75 9.25 13.34V6.66C9.25 6.25 9.59 5.91 10 5.91C10.41 5.91 10.75 6.25 10.75 6.66V13.34ZM15.75 11.6C15.75 12.01 15.41 12.35 15 12.35C14.59 12.35 14.25 12.01 14.25 11.6V8.4C14.25 7.99 14.59 7.65 15 7.65C15.41 7.65 15.75 7.99 15.75 8.4V11.6Z" fill="#101010"/>
</svg>
