<svg width="21" height="21" viewBox="0 0 21 21" fill="none" xmlns="http://www.w3.org/2000/svg">
<path d="M19.97 5.21C19.69 2.48 17.52 0.31 14.79 0.03C14.59 0.00999997 14.39 0 14.19 0H5.81C5.61 0 5.41 0.00999997 5.21 0.03C2.48 0.31 0.31 2.48 0.03 5.21C0.00999997 5.41 0 5.61 0 5.81V14.19C0 14.39 0.00999997 14.59 0.03 14.79C0.31 17.52 2.48 19.69 5.21 19.97C5.41 19.99 5.61 20 5.81 20H12C12.55 20 13 19.55 13 19V16.03C13 14.36 14.36 13 16.03 13H19C19.55 13 20 12.55 20 12V5.81C20 5.61 19.99 5.41 19.97 5.21ZM5.75 11.5C5.75 11.91 5.41 12.25 5 12.25C4.59 12.25 4.25 11.91 4.25 11.5V8.5C4.25 8.09 4.59 7.75 5 7.75C5.41 7.75 5.75 8.09 5.75 8.5V11.5ZM10.75 11.5C10.75 11.91 10.41 12.25 10 12.25C9.59 12.25 9.25 11.91 9.25 11.5V8.5C9.25 8.09 9.59 7.75 10 7.75C10.41 7.75 10.75 8.09 10.75 8.5V11.5Z" fill="#101010"/>
<path d="M18.97 14H16.03C14.76 14 14 14.76 14 16.03V18.97C14 20.24 14.76 21 16.03 21H18.97C20.24 21 21 20.24 21 18.97V16.03C21 14.76 20.24 14 18.97 14ZM19.47 18.56C19.72 18.81 19.72 19.22 19.47 19.47C19.34 19.59 19.17 19.65 19.01 19.65C18.85 19.65 18.68 19.59 18.55 19.47L17.49 18.41L16.45 19.47C16.32 19.59 16.16 19.65 15.98 19.65C15.83 19.65 15.66 19.59 15.54 19.47C15.29 19.22 15.29 18.81 15.54 18.56L16.6 17.5L15.54 16.45C15.29 16.2 15.29 15.79 15.54 15.54C15.79 15.29 16.2 15.29 16.45 15.54L17.49 16.6L18.55 15.54C18.8 15.29 19.22 15.29 19.47 15.54C19.72 15.79 19.72 16.2 19.47 16.45L18.41 17.5L19.47 18.56Z" fill="#101010"/>
</svg>
