<svg width="22" height="20" viewBox="0 0 22 20" fill="none" xmlns="http://www.w3.org/2000/svg">
<path d="M21 20H1C0.59 20 0.25 19.66 0.25 19.25C0.25 18.84 0.59 18.5 1 18.5H21C21.41 18.5 21.75 18.84 21.75 19.25C21.75 19.66 21.41 20 21 20Z" fill="#101010"/>
<path d="M8.75 2V20H13.25V2C13.25 0.9 12.8 0 11.45 0H10.55C9.2 0 8.75 0.9 8.75 2Z" fill="#101010"/>
<path d="M2 8V20H6V8C6 6.9 5.6 6 4.4 6H3.6C2.4 6 2 6.9 2 8Z" fill="#101010"/>
<path d="M16 13V20H20V13C20 11.9 19.6 11 18.4 11H17.6C16.4 11 16 11.9 16 13Z" fill="#101010"/>
</svg>
