<svg width="20" height="21" viewBox="0 0 20 21" fill="none" xmlns="http://www.w3.org/2000/svg">
<path d="M19 20.75H1C0.59 20.75 0.25 20.41 0.25 20C0.25 19.59 0.59 19.25 1 19.25H19C19.41 19.25 19.75 19.59 19.75 20C19.75 20.41 19.41 20.75 19 20.75Z" fill="#101010"/>
<path d="M3.6 6.37988H2C1.45 6.37988 1 6.82988 1 7.37988V15.9999C1 16.5499 1.45 16.9999 2 16.9999H3.6C4.15 16.9999 4.6 16.5499 4.6 15.9999V7.37988C4.6 6.81988 4.15 6.37988 3.6 6.37988Z" fill="#101010"/>
<path d="M10.8002 3.18994H9.2002C8.6502 3.18994 8.2002 3.63994 8.2002 4.18994V15.9999C8.2002 16.5499 8.6502 16.9999 9.2002 16.9999H10.8002C11.3502 16.9999 11.8002 16.5499 11.8002 15.9999V4.18994C11.8002 3.63994 11.3502 3.18994 10.8002 3.18994Z" fill="#101010"/>
<path d="M18.0004 0H16.4004C15.8504 0 15.4004 0.45 15.4004 1V16C15.4004 16.55 15.8504 17 16.4004 17H18.0004C18.5504 17 19.0004 16.55 19.0004 16V1C19.0004 0.45 18.5504 0 18.0004 0Z" fill="#101010"/>
</svg>
