<svg width="20" height="20" viewBox="0 0 20 20" fill="none" xmlns="http://www.w3.org/2000/svg">
<path d="M14.192 0H5.81195C2.17195 0 0.00195312 2.17 0.00195312 5.81V14.18C0.00195312 17.83 2.17195 20 5.81195 20H14.182C17.822 20 19.992 17.83 19.992 14.19V5.81C20.002 2.17 17.832 0 14.192 0ZM7.11195 14.9C7.11195 15.18 6.89195 15.4 6.61195 15.4H3.82195C3.54195 15.4 3.32195 15.18 3.32195 14.9V10.28C3.32195 9.65 3.83195 9.14 4.46195 9.14H6.61195C6.89195 9.14 7.11195 9.36 7.11195 9.64V14.9ZM11.892 14.9C11.892 15.18 11.672 15.4 11.392 15.4H8.60195C8.32195 15.4 8.10195 15.18 8.10195 14.9V5.74C8.10195 5.11 8.61195 4.6 9.24195 4.6H10.762C11.392 4.6 11.902 5.11 11.902 5.74V14.9H11.892ZM16.682 14.9C16.682 15.18 16.462 15.4 16.182 15.4H13.392C13.112 15.4 12.892 15.18 12.892 14.9V11.35C12.892 11.07 13.112 10.85 13.392 10.85H15.542C16.172 10.85 16.682 11.36 16.682 11.99V14.9Z" fill="#101010"/>
</svg>
