<svg width="20" height="20" viewBox="0 0 20 20" fill="none" xmlns="http://www.w3.org/2000/svg">
<path d="M9.82002 4.9C12.68 4.28 15.58 4.19 18.45 4.66C16.68 1.86 13.56 0 10 0C6.89002 0 4.11002 1.42 2.27002 3.65C2.71002 4.95 3.27002 6.19 3.94002 7.37C4.32002 8.05 5.29002 8.02 5.68002 7.35C6.53002 5.92 8.06002 4.96 9.82002 4.9Z" fill="#101010"/>
<path d="M5.72002 12.7199C3.72002 10.5799 2.16002 8.13994 1.09002 5.43994C-0.409983 8.39994 -0.399983 12.0299 1.43002 15.0799C3.03002 17.7499 5.67002 19.4099 8.53002 19.8399C9.42002 18.7899 10.2 17.6699 10.87 16.4999C11.26 15.8199 10.73 15.0099 9.95002 15.0099C8.28002 15.0199 6.67002 14.1999 5.72002 12.7199Z" fill="#101010"/>
<path d="M6.56982 9.99988C6.56982 10.6099 6.71982 11.1799 7.02982 11.7199C7.63982 12.7699 8.76982 13.4299 9.98982 13.4299C11.2098 13.4299 12.3498 12.7699 12.9498 11.7199C13.2598 11.1799 13.4198 10.6099 13.4198 9.99988C13.4198 8.10988 11.8798 6.57988 9.98982 6.57988C8.10982 6.56988 6.56982 8.10988 6.56982 9.99988Z" fill="#101010"/>
<path d="M19.3402 6.42004C17.9702 6.13004 16.5802 5.97004 15.2002 5.95004C14.4102 5.94004 13.9602 6.80004 14.3502 7.49004C14.7502 8.20004 14.9802 9.02004 14.9802 9.89004C14.9802 10.73 14.7602 11.56 14.3502 12.3C13.4102 15.18 12.0102 17.74 10.1602 20C15.6102 19.91 20.0002 15.47 20.0002 10C20.0002 8.74004 19.7702 7.53004 19.3402 6.42004Z" fill="#101010"/>
</svg>
