<svg width="21" height="21" viewBox="0 0 21 21" fill="none" xmlns="http://www.w3.org/2000/svg">
<path d="M12.89 1.88002L8.19999 1.14002C4.28999 0.530019 2.47999 1.85002 1.85999 5.76002L1.11999 10.45C0.719991 13.01 1.13999 14.67 2.58999 15.68C3.34999 16.22 4.38999 16.58 5.73999 16.79L10.43 17.53C14.34 18.14 16.15 16.82 16.77 12.91L17.5 8.22002C17.62 7.45002 17.67 6.76002 17.63 6.15002C17.5 3.65002 16.03 2.37002 12.89 1.88002ZM7.23999 8.35002C6.06999 8.35002 5.11999 7.40002 5.11999 6.24002C5.11999 5.07002 6.06999 4.12002 7.23999 4.12002C8.39999 4.12002 9.34999 5.07002 9.34999 6.24002C9.34999 7.40002 8.39999 8.35002 7.23999 8.35002Z" fill="#101010"/>
<path d="M19.4996 12.4701L17.9996 16.9801C16.7496 20.7401 14.7496 21.7401 10.9896 20.4901L6.47965 18.9901C5.06965 18.5201 4.04965 17.9401 3.38965 17.2101C4.01965 17.4601 4.74965 17.6501 5.57965 17.7801L10.2796 18.5201C10.9196 18.6201 11.5196 18.6701 12.0796 18.6701C15.3796 18.6701 17.1496 16.8901 17.7596 13.0601L18.4896 8.37006C18.5896 7.79006 18.6296 7.28006 18.6296 6.81006C20.1496 8.06006 20.3696 9.84006 19.4996 12.4701Z" fill="#101010"/>
</svg>
