<svg width="18" height="20" viewBox="0 0 18 20" fill="none" xmlns="http://www.w3.org/2000/svg">
<path d="M11.3498 0H6.64977C5.60977 0 4.75977 0.84 4.75977 1.88V2.82C4.75977 3.86 5.59977 4.7 6.63977 4.7H11.3498C12.3898 4.7 13.2298 3.86 13.2298 2.82V1.88C13.2398 0.84 12.3898 0 11.3498 0Z" fill="#101010"/>
<path d="M14.2391 2.81998C14.2391 4.40998 12.9391 5.70998 11.3491 5.70998H6.64906C5.05906 5.70998 3.75906 4.40998 3.75906 2.81998C3.75906 2.25998 3.15906 1.90998 2.65906 2.16998C1.24906 2.91998 0.289062 4.40998 0.289062 6.11998V15.53C0.289062 17.99 2.29906 20 4.75906 20H13.2391C15.6991 20 17.7091 17.99 17.7091 15.53V6.11998C17.7091 4.40998 16.7491 2.91998 15.3391 2.16998C14.8391 1.90998 14.2391 2.25998 14.2391 2.81998ZM12.3391 10.73L8.33906 14.73C8.18906 14.88 7.99906 14.95 7.80906 14.95C7.61906 14.95 7.42906 14.88 7.27906 14.73L5.77906 13.23C5.48906 12.94 5.48906 12.46 5.77906 12.17C6.06906 11.88 6.54906 11.88 6.83906 12.17L7.80906 13.14L11.2791 9.66998C11.5691 9.37998 12.0491 9.37998 12.3391 9.66998C12.6291 9.95998 12.6291 10.44 12.3391 10.73Z" fill="#101010"/>
</svg>
