<svg width="14" height="20" viewBox="0 0 14 20" fill="none" xmlns="http://www.w3.org/2000/svg">
<path d="M9.71832 16.9977C10.1162 16.8426 10.5757 17.1816 10.4904 17.6C10.0004 19.5 8.90043 20 7.55043 20H6.46043C5.11043 20 4.00043 19.5 3.52043 17.59C3.43818 17.171 3.89545 16.8347 4.29308 16.9905C5.14772 17.3252 6.06122 17.5 7.00043 17.5C7.94413 17.5 8.86227 17.3313 9.71832 16.9977Z" fill="#101010"/>
<path d="M10.4901 2.4C10.5785 2.82271 10.1125 3.1669 9.71068 3.00871C8.87291 2.67891 7.95887 2.5 7.00011 2.5C6.04253 2.5 5.13023 2.68113 4.29176 3.01127C3.89388 3.16793 3.43476 2.82901 3.52011 2.41C4.00011 0.5 5.11011 0 6.46011 0H7.55011C8.90011 0 10.0001 0.5 10.4901 2.4Z" fill="#101010"/>
<path d="M7 3.5C3.41 3.5 0.5 6.41 0.5 10C0.5 12.1 1.49 13.96 3.03 15.15H3.04C4.14 16 5.51 16.5 7 16.5C8.51 16.5 9.89 15.99 10.99 15.13H11C12.52 13.94 13.5 12.08 13.5 10C13.5 6.41 10.59 3.5 7 3.5ZM8.93 12.38C8.78 12.53 8.59 12.6 8.4 12.6C8.21 12.6 8.02 12.53 7.87 12.38L6.47 10.98C6.33 10.84 6.25 10.65 6.25 10.45V7.66C6.25 7.25 6.59 6.91 7 6.91C7.41 6.91 7.75 7.25 7.75 7.66V10.14L8.93 11.32C9.22 11.61 9.22 12.09 8.93 12.38Z" fill="#101010"/>
</svg>
