<svg width="20" height="20" viewBox="0 0 20 20" fill="none" xmlns="http://www.w3.org/2000/svg">
<path d="M10 9.53C7.24 9.53 5 11.77 5 14.53C5 15.27 5.16 15.97 5.46 16.59C5.54 16.77 5.63 16.94 5.73 17.1C6.59 18.55 8.18 19.53 10 19.53C11.82 19.53 13.41 18.55 14.27 17.1C14.37 16.94 14.46 16.77 14.54 16.59C14.84 15.97 15 15.27 15 14.53C15 11.77 12.76 9.53 10 9.53ZM12.07 14.1L9.94 16.07C9.8 16.2 9.61 16.27 9.43 16.27C9.24 16.27 9.05 16.2 8.9 16.05L7.91 15.06C7.62 14.77 7.62 14.29 7.91 14C8.2 13.71 8.68 13.71 8.97 14L9.45 14.48L11.05 13C11.36 12.72 11.83 12.74 12.11 13.04C12.39 13.34 12.37 13.81 12.07 14.1Z" fill="#101010"/>
<path d="M18.2003 15.07C17.8403 15.39 17.4503 15.66 17.0303 15.88C16.6703 16.06 16.3103 15.71 16.3703 15.31C16.4103 15.02 16.4303 14.72 16.4303 14.41C16.4303 10.83 13.5103 7.91 9.93032 7.91C6.35032 7.91 3.43031 10.83 3.43031 14.41C3.43031 14.87 3.48031 15.31 3.57031 15.74C3.64031 16.09 3.37031 16.44 3.02031 16.35C-0.929686 15.39 -0.949686 9.31 3.47031 9H3.52031C0.310314 0.0699997 13.8503 -3.5 15.4003 5.88C19.7303 6.43 21.4803 12.2 18.2003 15.07Z" fill="#101010"/>
</svg>
