<svg width="21" height="18" viewBox="0 0 21 18" fill="none" xmlns="http://www.w3.org/2000/svg">
<path d="M19.74 9.90998C19.48 9.04998 19.05 8.29998 18.48 7.68998C17.75 6.85998 16.78 6.28998 15.69 6.03998C15.14 3.53998 13.6 1.73998 11.41 1.06998C9.03 0.329982 6.27 1.04998 4.54 2.85998C3.02 4.44998 2.52 6.63998 3.11 8.96998C1.11 9.45998 0.12 11.13 0.00999999 12.72C-9.31323e-09 12.83 0 12.93 0 13.03C0 14.91 1.23 17.02 3.97 17.22H14.35C15.77 17.22 17.13 16.69 18.17 15.74C19.8 14.31 20.4 12.08 19.74 9.90998Z" fill="#101010"/>
</svg>
