<svg width="21" height="20" viewBox="0 0 21 20" fill="none" xmlns="http://www.w3.org/2000/svg">
<path d="M18.17 15.5701C17.64 16.0601 17.03 16.4301 16.37 16.6801C15.71 16.9301 15 16.4501 15 15.7401V14.4201C15 12.4701 13.42 10.8901 11.47 10.8901H8.53C6.58 10.8901 5 12.4701 5 14.4201V16.0001C5 16.5501 4.55 17.0001 4 17.0001H3.55C1.1 16.6301 0 14.6401 0 12.8601C0 11.1801 0.98 9.32006 3.11 8.80006C2.52 6.47006 3.02 4.28006 4.54 2.69006C6.27 0.88006 9.03 0.16006 11.41 0.90006C13.6 1.57006 15.14 3.37006 15.69 5.87006C17.6 6.30006 19.13 7.74006 19.74 9.74006C20.4 11.9101 19.8 14.1401 18.17 15.5701Z" fill="#101010"/>
<path d="M11.47 12.39H8.53C7.26 12.39 6.5 13.15 6.5 14.42V17.36C6.5 18.63 7.26 19.39 8.53 19.39H11.47C12.74 19.39 13.5 18.63 13.5 17.36V14.42C13.5 13.15 12.74 12.39 11.47 12.39ZM8.5 15.63C8.08 15.63 7.75 15.29 7.75 14.88C7.75 14.47 8.08 14.13 8.5 14.13C8.92 14.13 9.25 14.47 9.25 14.88C9.25 15.29 8.91 15.63 8.5 15.63ZM10 17.88C9.59 17.88 9.25 17.54 9.25 17.13C9.25 16.72 9.59 16.38 10 16.38C10.41 16.38 10.75 16.72 10.75 17.13C10.75 17.54 10.42 17.88 10 17.88ZM11.51 15.63C11.09 15.63 10.76 15.29 10.76 14.88C10.76 14.47 11.09 14.13 11.51 14.13C11.93 14.13 12.26 14.47 12.26 14.88C12.26 15.29 11.92 15.63 11.51 15.63Z" fill="#101010"/>
</svg>
