<svg width="18" height="20" viewBox="0 0 18 20" fill="none" xmlns="http://www.w3.org/2000/svg">
<path d="M16.8 10H1.20005C0.980049 10 0.78005 9.85003 0.71005 9.64003C-2.03995 0.550035 11.8401 -2.93997 13.4501 6.82003C15.1101 7.03003 16.42 7.97003 17.23 9.23003C17.44 9.56003 17.19 10 16.8 10Z" fill="#101010"/>
<path d="M17 13.78H1C0.59 13.78 0.25 13.44 0.25 13.03C0.25 12.62 0.59 12.28 1 12.28H17C17.41 12.28 17.75 12.62 17.75 13.03C17.75 13.44 17.41 13.78 17 13.78Z" fill="#101010"/>
<path d="M15 16.78H3C2.59 16.78 2.25 16.44 2.25 16.03C2.25 15.62 2.59 15.28 3 15.28H15C15.41 15.28 15.75 15.62 15.75 16.03C15.75 16.44 15.41 16.78 15 16.78Z" fill="#101010"/>
<path d="M12 19.78H6C5.59 19.78 5.25 19.44 5.25 19.03C5.25 18.62 5.59 18.28 6 18.28H12C12.41 18.28 12.75 18.62 12.75 19.03C12.75 19.44 12.41 19.78 12 19.78Z" fill="#101010"/>
</svg>
