<svg width="22" height="22" viewBox="0 0 22 22" fill="none" xmlns="http://www.w3.org/2000/svg">
<path d="M7.11028 10.85C4.29028 11.05 4.30028 15.15 7.11028 15.35H13.7803C14.5903 15.36 15.3703 15.05 15.9703 14.51C17.9503 12.78 16.8903 9.31 14.2903 8.98001C13.3603 3.34001 5.21028 5.48001 7.14028 10.85" fill="#101010"/>
<path d="M8 21.75C3.73 21.75 0.25 18.27 0.25 14C0.25 13.59 0.59 13.25 1 13.25C1.41 13.25 1.75 13.59 1.75 14C1.75 16.96 3.81 19.44 6.58 20.09L6.31 19.64C6.1 19.28 6.21 18.82 6.57 18.61C6.92 18.4 7.39 18.51 7.6 18.87L8.65 20.62C8.79 20.85 8.79 21.14 8.66 21.37C8.52 21.6 8.27 21.75 8 21.75Z" fill="#101010"/>
<path d="M21.0004 8.75C20.5904 8.75 20.2504 8.41 20.2504 8C20.2504 5.04 18.1904 2.56 15.4204 1.91L15.6904 2.36C15.9004 2.72 15.7904 3.18 15.4304 3.39C15.0804 3.6 14.6104 3.49 14.4004 3.13L13.3504 1.38C13.2104 1.15 13.2104 0.86 13.3404 0.63C13.4804 0.4 13.7304 0.25 14.0004 0.25C18.2704 0.25 21.7504 3.73 21.7504 8C21.7504 8.41 21.4104 8.75 21.0004 8.75Z" fill="#101010"/>
</svg>
