<svg width="21" height="20" viewBox="0 0 21 20" fill="none" xmlns="http://www.w3.org/2000/svg">
<path d="M18.17 15.5701C17.64 16.0601 17.03 16.4301 16.37 16.6801C15.71 16.9301 15 16.4501 15 15.7401V14.4201C15 12.4701 13.42 10.8901 11.47 10.8901H8.53C6.58 10.8901 5 12.4701 5 14.4201V16.0001C5 16.5501 4.55 17.0001 4 17.0001H3.55C1.1 16.6301 0 14.6401 0 12.8601C0 11.1801 0.98 9.32006 3.11 8.80006C2.52 6.47006 3.02 4.28006 4.54 2.69006C6.27 0.88006 9.03 0.16006 11.41 0.90006C13.6 1.57006 15.14 3.37006 15.69 5.87006C17.6 6.30006 19.13 7.74006 19.74 9.74006C20.4 11.9101 19.8 14.1401 18.17 15.5701Z" fill="#101010"/>
<path d="M11.47 12.39H8.53C7.26 12.39 6.5 13.15 6.5 14.42V17.36C6.5 18.63 7.26 19.39 8.53 19.39H11.47C12.74 19.39 13.5 18.63 13.5 17.36V14.42C13.5 13.15 12.74 12.39 11.47 12.39ZM9.71 16.84L8.47 18.07C8.38 18.16 8.26 18.21 8.15 18.21C8.02 18.21 7.91 18.16 7.82 18.07C7.64 17.89 7.64 17.6 7.82 17.42L9.05 16.18C9.24 16 9.53 16 9.71 16.18C9.89 16.36 9.89 16.66 9.71 16.84ZM9.71 14.36L8.47 15.6C8.38 15.69 8.26 15.74 8.15 15.74C8.02 15.74 7.91 15.69 7.82 15.6C7.64 15.42 7.64 15.12 7.82 14.94L9.05 13.71C9.24 13.53 9.53 13.53 9.71 13.71C9.89 13.89 9.89 14.18 9.71 14.36ZM12.18 16.84L10.95 18.07C10.85 18.16 10.74 18.21 10.62 18.21C10.5 18.21 10.38 18.16 10.29 18.07C10.11 17.89 10.11 17.6 10.29 17.42L11.53 16.18C11.71 16 12 16 12.18 16.18C12.36 16.36 12.36 16.66 12.18 16.84ZM12.18 14.36L10.95 15.6C10.85 15.69 10.74 15.74 10.62 15.74C10.5 15.74 10.38 15.69 10.29 15.6C10.11 15.42 10.11 15.12 10.29 14.94L11.53 13.71C11.71 13.53 12 13.53 12.18 13.71C12.36 13.89 12.36 14.18 12.18 14.36Z" fill="#101010"/>
</svg>
