<svg width="20" height="20" viewBox="0 0 20 20" fill="none" xmlns="http://www.w3.org/2000/svg">
<path d="M19 8H1C0.45 8 0 8.45 0 9V14.19C0 14.39 0.00999997 14.59 0.03 14.79C0.23 17.87 2.13 19.77 5.21 19.97C5.41 19.99 5.61 20 5.81 20H14.19C14.39 20 14.59 19.99 14.79 19.97C17.87 19.77 19.77 17.87 19.97 14.79C19.99 14.59 20 14.39 20 14.19V9C20 8.45 19.55 8 19 8ZM6 14.15C6.34 14.65 6.8 15.06 7.33 15.33C7.71 15.51 7.86 15.96 7.67 16.34C7.54 16.6 7.27 16.75 7 16.75C6.89 16.75 6.77 16.72 6.67 16.67C5.89 16.29 5.23 15.7 4.76 14.99C4.36 14.39 4.36 13.61 4.76 13.01C5.23 12.3 5.89 11.71 6.67 11.33C7.04 11.14 7.49 11.29 7.67 11.66C7.86 12.04 7.71 12.49 7.33 12.67C6.8 12.94 6.34 13.35 6 13.85C5.94 13.94 5.94 14.06 6 14.15ZM15.45 14.99C14.97 15.7 14.31 16.29 13.54 16.67C13.43 16.72 13.32 16.75 13.21 16.75C12.93 16.75 12.67 16.6 12.54 16.34C12.35 15.96 12.5 15.51 12.87 15.33C13.41 15.06 13.87 14.65 14.2 14.15C14.27 14.06 14.27 13.94 14.2 13.85C13.87 13.35 13.41 12.94 12.87 12.67C12.5 12.49 12.35 12.04 12.54 11.66C12.72 11.29 13.17 11.14 13.54 11.33C14.31 11.71 14.97 12.3 15.45 13.01C15.85 13.61 15.85 14.39 15.45 14.99Z" fill="#101010"/>
<path d="M20 5.81V6C20 6.55 19.55 7 19 7L1 7.01C0.45 7.01 0 6.56 0 6.01V5.81C0 5.61 0.00999997 5.41 0.03 5.21C0.23 2.13 2.13 0.23 5.21 0.03C5.41 0.00999997 5.61 0 5.81 0H14.19C14.39 0 14.59 0.00999997 14.79 0.03C17.87 0.23 19.77 2.13 19.97 5.21C19.99 5.41 20 5.61 20 5.81Z" fill="#101010"/>
</svg>
