<svg width="20" height="20" viewBox="0 0 20 20" fill="none" xmlns="http://www.w3.org/2000/svg">
<path d="M19.9999 14.5V17.5C19.9999 18.88 18.8799 20 17.4999 20H10.3599C9.46992 20 9.02992 18.93 9.64992 18.3L15.5199 12.3C15.7099 12.11 15.9699 12 16.2299 12H17.4999C18.8799 12 19.9999 13.12 19.9999 14.5Z" fill="#101010"/>
<path d="M16.3702 9.28999L13.6602 12L11.2002 14.45C10.5702 15.08 9.49023 14.64 9.49023 13.75C9.49023 10.54 9.49023 5.25999 9.49023 5.25999C9.49023 4.98999 9.60023 4.73999 9.78023 4.54999L10.7002 3.62999C11.6802 2.64999 13.2602 2.64999 14.2402 3.62999L16.3602 5.74999C17.3502 6.72999 17.3502 8.30999 16.3702 9.28999Z" fill="#101010"/>
<path d="M5.5 0H2.5C1 0 0 1 0 2.5V16C0 16.27 0.0299999 16.54 0.0799999 16.8C0.11 16.93 0.14 17.06 0.18 17.19C0.23 17.34 0.28 17.49 0.34 17.63C0.35 17.64 0.35 17.65 0.35 17.65C0.36 17.65 0.36 17.65 0.35 17.66C0.49 17.94 0.65 18.21 0.84 18.46C0.95 18.59 1.06 18.71 1.17 18.83C1.28 18.95 1.4 19.05 1.53 19.15L1.54 19.16C1.79 19.35 2.06 19.51 2.34 19.65C2.35 19.64 2.35 19.64 2.35 19.65C2.5 19.72 2.65 19.77 2.81 19.82C2.94 19.86 3.07 19.89 3.2 19.92C3.46 19.97 3.73 20 4 20C4.41 20 4.83 19.94 5.22 19.81C5.33 19.77 5.44 19.73 5.55 19.68C5.9 19.54 6.24 19.34 6.54 19.08C6.63 19.01 6.73 18.92 6.82 18.83L6.86 18.79C7.56 18.07 8 17.08 8 16V2.5C8 1 7 0 5.5 0ZM4 17.5C3.17 17.5 2.5 16.83 2.5 16C2.5 15.17 3.17 14.5 4 14.5C4.83 14.5 5.5 15.17 5.5 16C5.5 16.83 4.83 17.5 4 17.5Z" fill="#101010"/>
</svg>
