<svg width="20" height="20" viewBox="0 0 20 20" fill="none" xmlns="http://www.w3.org/2000/svg">
<path d="M14.19 0H5.81C2.17 0 0 2.17 0 5.81V14.18C0 17.83 2.17 20 5.81 20H14.18C17.82 20 19.99 17.83 19.99 14.19V5.81C20 2.17 17.83 0 14.19 0ZM7.6 14.2C7.6 15.19 6.79 16 5.8 16C4.81 16 4 15.19 4 14.2C4 13.21 4.81 12.4 5.8 12.4H6.6C7.15 12.4 7.6 12.85 7.6 13.4V14.2ZM7.6 6.6C7.6 7.15 7.15 7.6 6.6 7.6H5.8C4.81 7.6 4 6.79 4 5.8C4 4.81 4.81 4 5.8 4C6.79 4 7.6 4.81 7.6 5.8V6.6ZM12.15 11.25C12.15 11.74 11.75 12.15 11.25 12.15H8.74C8.25 12.15 7.84 11.75 7.84 11.25V8.74C7.84 8.25 8.24 7.84 8.74 7.84H11.25C11.74 7.84 12.15 8.24 12.15 8.74V11.25ZM14.2 16C13.21 16 12.4 15.19 12.4 14.2V13.4C12.4 12.85 12.85 12.4 13.4 12.4H14.2C15.19 12.4 16 13.21 16 14.2C16 15.19 15.19 16 14.2 16ZM14.2 7.6H13.4C12.85 7.6 12.4 7.15 12.4 6.6V5.8C12.4 4.81 13.21 4 14.2 4C15.19 4 16 4.81 16 5.8C16 6.79 15.19 7.6 14.2 7.6Z" fill="#101010"/>
</svg>
