<svg width="20" height="20" viewBox="0 0 20 20" fill="none" xmlns="http://www.w3.org/2000/svg">
<path d="M20 3.15V6.85C20 9.1 19.1 10 16.85 10H14.15C11.9 10 11 9.1 11 6.85V3.15C11 0.9 11.9 0 14.15 0H16.85C19.1 0 20 0.9 20 3.15Z" fill="#101010"/>
<path d="M9 13.15V16.85C9 19.1 8.1 20 5.85 20H3.15C0.9 20 0 19.1 0 16.85V13.15C0 10.9 0.9 10 3.15 10H5.85C8.1 10 9 10.9 9 13.15Z" fill="#101010"/>
<path d="M12.7805 20C12.5105 20 12.2605 19.85 12.1305 19.62C12.0005 19.38 12.0005 19.1 12.1405 18.86L13.1105 17.24C13.3205 16.88 13.7805 16.77 14.1405 16.98C14.5005 17.19 14.6105 17.65 14.4005 18.01L14.2205 18.31C16.6905 17.67 18.5105 15.43 18.5105 12.77C18.5105 12.36 18.8505 12.02 19.2605 12.02C19.6705 12.02 20.0005 12.36 20.0005 12.78C20.0005 16.76 16.7605 20 12.7805 20Z" fill="#101010"/>
<path d="M0.75 7.97C0.34 7.97 0 7.64 0 7.22C0 3.24 3.24 0 7.22 0C7.5 0 7.74 0.15 7.88 0.38C8.01 0.62 8.01 0.9 7.87 1.14L6.9 2.75C6.68 3.11 6.22 3.23 5.87 3.01C5.51 2.8 5.4 2.34 5.61 1.98L5.79 1.68C3.33 2.32 1.5 4.56 1.5 7.22C1.5 7.64 1.16 7.97 0.75 7.97Z" fill="#101010"/>
</svg>
