<svg width="21" height="21" viewBox="0 0 21 21" fill="none" xmlns="http://www.w3.org/2000/svg">
<path d="M10.0312 0.03125C8.08125 0.03125 6.26125 0.59125 4.73125 1.55125L11.5913 8.42125L11.6013 5.68125C11.6013 5.27125 11.9413 4.93125 12.3513 4.93125C12.7713 4.93125 13.1013 5.27125 13.1013 5.68125L13.0913 10.2312C13.0913 10.5413 12.9012 10.8113 12.6213 10.9213C12.5312 10.9613 12.4313 10.9812 12.3413 10.9812C12.1413 10.9812 11.9513 10.9013 11.8113 10.7613L3.62125 2.56125C3.58125 2.52125 3.55125 2.48125 3.52125 2.44125C1.38125 4.28125 0.03125 7.00125 0.03125 10.0312C0.03125 15.5513 4.51125 20.0312 10.0312 20.0312C11.9812 20.0312 13.8013 19.4712 15.3313 18.5112L8.47125 11.6413L8.46125 14.3812C8.46125 14.7912 8.12125 15.1312 7.71125 15.1312C7.29125 15.1312 6.96125 14.7912 6.96125 14.3812L6.97125 9.83125C6.97125 9.52125 7.16125 9.25125 7.44125 9.14125C7.71125 9.02125 8.04125 9.08125 8.25125 9.30125L16.4412 17.5012C16.4813 17.5413 16.5112 17.5812 16.5413 17.6213C18.6812 15.7812 20.0312 13.0612 20.0312 10.0312C20.0312 4.51125 15.5513 0.03125 10.0312 0.03125Z" fill="#101010"/>
</svg>
