<svg width="22" height="22" viewBox="0 0 22 22" fill="none" xmlns="http://www.w3.org/2000/svg">
<path d="M14.0012 21.75C13.7312 21.75 13.4812 21.6 13.3512 21.37C13.2212 21.14 13.2212 20.85 13.3612 20.62L14.4112 18.87C14.6212 18.51 15.0812 18.4 15.4412 18.61C15.8012 18.82 15.9112 19.28 15.7012 19.64L15.4312 20.09C18.1912 19.44 20.2612 16.96 20.2612 14C20.2612 13.59 20.6012 13.25 21.0112 13.25C21.4212 13.25 21.7612 13.59 21.7612 14C21.7512 18.27 18.2712 21.75 14.0012 21.75Z" fill="#101010"/>
<path d="M1.00098 8.75C0.590977 8.75 0.250977 8.41 0.250977 8C0.250977 3.73 3.73098 0.25 8.00098 0.25C8.27098 0.25 8.52098 0.4 8.65098 0.63C8.78098 0.86 8.78098 1.15 8.64098 1.38L7.59098 3.14C7.38098 3.49 6.92098 3.61 6.56098 3.39C6.21098 3.18 6.09098 2.72 6.31098 2.36L6.58098 1.91C3.81098 2.56 1.75098 5.04 1.75098 8C1.75098 8.41 1.41098 8.75 1.00098 8.75Z" fill="#101010"/>
<path d="M9.67094 12.85L6.53094 11.16C6.20094 10.98 5.80094 10.98 5.47094 11.16L2.33094 12.85C2.10094 12.97 1.96094 13.22 1.96094 13.49C1.96094 13.76 2.10094 14.01 2.33094 14.13L5.47094 15.82C5.64094 15.91 5.82094 15.95 6.00094 15.95C6.18094 15.95 6.36094 15.91 6.53094 15.82L9.67094 14.13C9.90094 14.01 10.0409 13.76 10.0409 13.49C10.0409 13.22 9.89094 12.98 9.67094 12.85Z" fill="#101010"/>
<path d="M4.95098 16.41L2.03098 14.95C1.81098 14.84 1.55098 14.85 1.33098 14.98C1.13098 15.11 1.00098 15.34 1.00098 15.59V18.35C1.00098 18.83 1.26098 19.26 1.69098 19.47L4.61098 20.93C4.71098 20.97 4.82098 21 4.93098 21C5.06098 21 5.19098 20.96 5.31098 20.89C5.52098 20.76 5.65098 20.53 5.65098 20.28V17.52C5.65098 17.05 5.38098 16.62 4.95098 16.41Z" fill="#101010"/>
<path d="M10.6606 14.98C10.4506 14.85 10.1906 14.84 9.96059 14.95L7.04059 16.41C6.61059 16.62 6.35059 17.05 6.35059 17.53V20.29C6.35059 20.54 6.48059 20.77 6.69059 20.9C6.81059 20.96 6.94059 21 7.07059 21C7.18059 21 7.29059 20.97 7.39059 20.92L10.3106 19.46C10.7406 19.25 11.0006 18.82 11.0006 18.34V15.58C11.0006 15.34 10.8706 15.11 10.6606 14.98Z" fill="#101010"/>
<path d="M19.6709 2.83L16.5309 1.14C16.2009 0.960005 15.8009 0.960005 15.4709 1.14L12.3309 2.83C12.1009 2.95 11.9609 3.2 11.9609 3.47C11.9609 3.74 12.1009 3.99001 12.3309 4.11L15.4709 5.8C15.6409 5.89001 15.8209 5.93 16.0009 5.93C16.1809 5.93 16.3609 5.89001 16.5309 5.8L19.6709 4.11C19.9009 3.99001 20.0409 3.74 20.0409 3.47C20.0409 3.19 19.8909 2.95 19.6709 2.83Z" fill="#101010"/>
<path d="M14.951 6.37999L12.031 4.91999C11.811 4.80999 11.551 4.81999 11.331 4.94999C11.131 5.07999 11.001 5.30999 11.001 5.55999V8.31999C11.001 8.79999 11.261 9.22998 11.691 9.43998L14.611 10.9C14.711 10.95 14.821 10.98 14.931 10.98C15.061 10.98 15.191 10.94 15.311 10.87C15.521 10.74 15.651 10.51 15.651 10.26V7.49999C15.651 7.01999 15.381 6.58999 14.951 6.37999Z" fill="#101010"/>
<path d="M20.6606 4.94999C20.4506 4.81999 20.1906 4.80999 19.9606 4.91999L17.0406 6.37999C16.6106 6.58999 16.3506 7.01999 16.3506 7.49999V10.26C16.3506 10.51 16.4806 10.74 16.6906 10.87C16.8106 10.94 16.9406 10.98 17.0706 10.98C17.1806 10.98 17.2906 10.95 17.3906 10.9L20.3106 9.43998C20.7406 9.21999 21.0006 8.78999 21.0006 8.31999V5.55999C21.0006 5.30999 20.8706 5.07999 20.6606 4.94999Z" fill="#101010"/>
</svg>
