<svg width="20" height="21" viewBox="0 0 20 21" fill="none" xmlns="http://www.w3.org/2000/svg">
<path d="M2.09 6.08C2.04 6.38 2 6.68 2 7C2 6.69 2.04 6.38 2.09 6.08ZM2 13C2 13.32 2.04 13.62 2.09 13.92C2.04 13.62 2 13.31 2 13ZM6.09 17.91C6.38 17.96 6.69 18 7 18C6.69 18 6.39 17.96 6.09 17.91ZM6.09 2.09C6.39 2.04 6.69 2 7 2C6.69 2 6.38 2.04 6.09 2.09ZM13.92 2.09C13.62 2.04 13.32 2 13 2C13.31 2 13.62 2.04 13.92 2.09ZM17.91 6.08C17.96 6.38 18 6.69 18 7C18 6.68 17.96 6.38 17.91 6.08Z" fill="#101010"/>
<path d="M20 6.3C20 6.72 19.67 7.05 19.25 7.05H18V8.88707C18 9.22065 17.638 9.42836 17.35 9.26C16.92 9.01 16.42 8.93 15.94 9.06C15.6321 9.1339 15.26 8.93492 15.26 8.61829V7.74C15.26 6.09 13.91 4.74 12.26 4.74H7.74C6.09 4.74 4.74 6.09 4.74 7.74V12.26C4.74 13.91 6.09 15.26 7.74 15.26H8.19C8.30598 15.26 8.4 15.354 8.4 15.47C8.4 16.4335 9.09824 17.2436 10.0175 17.4298C10.1904 17.4648 10.3073 17.6716 10.25 17.8383C10.2172 17.9337 10.1302 18 10.0293 18H7.06V19.25C7.06 19.66 6.72 20 6.31 20C5.89 20 5.56 19.66 5.56 19.25V17.78C3.96 17.29 2.71 16.04 2.23 14.45H0.75C0.34 14.45 0 14.11 0 13.7C0 13.28 0.34 12.95 0.75 12.95H2V10.75H0.75C0.34 10.75 0 10.41 0 10C0 9.58 0.34 9.25 0.75 9.25H2V7.05H0.75C0.34 7.05 0 6.72 0 6.3C0 5.89 0.34 5.55 0.75 5.55H2.23C2.71 3.96 3.96 2.71 5.56 2.22V0.75C5.56 0.34 5.89 0 6.31 0C6.72 0 7.06 0.34 7.06 0.75V2H9.25V0.75C9.25 0.34 9.59 0 10 0C10.41 0 10.75 0.34 10.75 0.75V2H12.95V0.75C12.95 0.34 13.29 0 13.7 0C14.11 0 14.45 0.34 14.45 0.75V2.23C16.04 2.71 17.29 3.96 17.77 5.55H19.25C19.67 5.55 20 5.89 20 6.3Z" fill="#101010"/>
<path d="M18.9904 13.53C18.3104 13.53 17.9204 13.19 17.9204 12.69C17.9204 12.49 17.9804 12.26 18.1204 12.02C18.4004 11.54 18.2304 10.92 17.7504 10.65L16.8404 10.12C16.4204 9.87 15.8804 10.02 15.6304 10.44L15.5704 10.54C15.0904 11.37 14.3104 11.37 13.8304 10.54L13.7704 10.44C13.5304 10.02 12.9804 9.87 12.5704 10.12L11.6504 10.65C11.3304 10.83 11.1404 11.17 11.1404 11.52C11.1404 11.69 11.1904 11.86 11.2804 12.02C11.4204 12.26 11.4904 12.49 11.4904 12.69C11.4904 13.19 11.0904 13.53 10.4104 13.53C9.86039 13.53 9.40039 13.98 9.40039 14.53V15.47C9.40039 16.02 9.86039 16.47 10.4104 16.47C11.0904 16.47 11.4904 16.81 11.4904 17.31C11.4904 17.51 11.4204 17.74 11.2804 17.98C11.0004 18.46 11.1704 19.08 11.6504 19.35L12.5704 19.88C12.9804 20.13 13.5304 19.98 13.7704 19.56L13.8304 19.46C14.3104 18.63 15.0904 18.63 15.5704 19.46L15.6304 19.56C15.8804 19.98 16.4204 20.13 16.8404 19.88L17.7504 19.35C18.0704 19.17 18.2604 18.83 18.2604 18.48C18.2604 18.31 18.2104 18.14 18.1204 17.98C17.9804 17.74 17.9204 17.51 17.9204 17.31C17.9204 16.81 18.3104 16.47 18.9904 16.47C19.5504 16.47 20.0004 16.02 20.0004 15.47V14.53C20.0004 13.98 19.5504 13.53 18.9904 13.53ZM14.7004 16.72C13.7504 16.72 12.9804 15.95 12.9804 15C12.9804 14.05 13.7504 13.28 14.7004 13.28C15.6504 13.28 16.4204 14.05 16.4204 15C16.4204 15.95 15.6504 16.72 14.7004 16.72Z" fill="#101010"/>
<path d="M14.25 8.02V8.59254C14.25 8.92661 13.8047 9.13839 13.48 9.06C12.98 8.93 12.48 9 12.07 9.25L11.16 9.78C10.53 10.13 10.14 10.8 10.14 11.52C10.14 11.5796 10.1425 11.6396 10.1475 11.6996C10.1803 12.0858 9.91028 12.5545 9.55933 12.7191C9.07672 12.9454 8.69788 13.3577 8.51654 13.8624C8.4389 14.0785 8.2496 14.25 8.02 14.25C6.76 14.25 5.75 13.24 5.75 11.98V8.02C5.75 6.76 6.76 5.75 8.02 5.75H11.98C13.24 5.75 14.25 6.76 14.25 8.02Z" fill="#101010"/>
</svg>
