<svg width="20" height="20" viewBox="0 0 20 20" fill="none" xmlns="http://www.w3.org/2000/svg">
<path d="M19.25 10.75C19.67 10.75 20 10.41 20 10C20 9.58 19.67 9.25 19.25 9.25H18V7.05H19.25C19.67 7.05 20 6.72 20 6.3C20 5.89 19.67 5.55 19.25 5.55H17.77C17.29 3.96 16.04 2.71 14.45 2.23V0.75C14.45 0.34 14.11 0 13.7 0C13.29 0 12.95 0.34 12.95 0.75V2H10.75V0.75C10.75 0.34 10.41 0 10 0C9.59 0 9.25 0.34 9.25 0.75V2H7.06V0.75C7.06 0.34 6.72 0 6.31 0C5.89 0 5.56 0.34 5.56 0.75V2.23C3.96 2.71 2.71 3.96 2.23 5.55H0.75C0.34 5.55 0 5.89 0 6.3C0 6.72 0.34 7.05 0.75 7.05H2V9.25H0.75C0.34 9.25 0 9.58 0 10C0 10.41 0.34 10.75 0.75 10.75H2V12.95H0.75C0.34 12.95 0 13.28 0 13.7C0 14.11 0.34 14.45 0.75 14.45H2.23C2.7 16.04 3.96 17.29 5.56 17.77V19.25C5.56 19.66 5.89 20 6.31 20C6.72 20 7.06 19.66 7.06 19.25V18H9.26V19.25C9.26 19.66 9.59 20 10.01 20C10.42 20 10.76 19.66 10.76 19.25V18H12.95V19.25C12.95 19.66 13.29 20 13.7 20C14.11 20 14.45 19.66 14.45 19.25V17.77C16.04 17.29 17.29 16.04 17.77 14.45H19.25C19.67 14.45 20 14.11 20 13.7C20 13.28 19.67 12.95 19.25 12.95H18V10.75H19.25ZM15.26 12.26C15.26 13.91 13.91 15.26 12.26 15.26H7.74C6.09 15.26 4.74 13.91 4.74 12.26V7.74C4.74 6.09 6.09 4.74 7.74 4.74H12.26C13.91 4.74 15.26 6.09 15.26 7.74V12.26Z" fill="#101010"/>
<path d="M8.02 14.25H11.99C13.24 14.25 14.26 13.24 14.26 11.98V8.01C14.26 6.76 13.25 5.74 11.99 5.74H8.02C6.77 5.74 5.75 6.75 5.75 8.01V11.98C5.75 13.24 6.76 14.25 8.02 14.25Z" fill="#101010"/>
</svg>
