<svg width="20" height="20" viewBox="0 0 20 20" fill="none" xmlns="http://www.w3.org/2000/svg">
<path d="M18 4V4.24H12.87C9.9 4.24 8.52 5.62 8.52 8.59V13.7H7.75V17.25H8.52V18.75H2.95C2.54 18.75 2.2 18.41 2.2 18C2.2 17.59 2.54 17.25 2.95 17.25H6.25V13.7H4C0.87 13.7 0.03 12.93 0 9.9V4C0 0.8 0.8 0 4 0H14C17.2 0 18 0.8 18 4Z" fill="#101010"/>
<path d="M17.9995 5.79C17.7495 5.76 17.4595 5.74 17.1495 5.74H12.8695C10.7295 5.74 10.0195 6.45 10.0195 8.59V17.25C10.0295 17.87 10.0995 18.36 10.2495 18.75C10.5995 19.66 11.3895 20 12.8695 20H17.1495C19.2895 20 19.9995 19.29 19.9995 17.15V8.59C19.9995 6.76 19.4795 5.98 17.9995 5.79ZM15.0095 8.09C15.8795 8.09 16.5795 8.79 16.5795 9.66C16.5795 10.53 15.8795 11.23 15.0095 11.23C14.1395 11.23 13.4395 10.53 13.4395 9.66C13.4395 8.79 14.1395 8.09 15.0095 8.09ZM15.0095 17.15C13.8295 17.15 12.8695 16.19 12.8695 15.01C12.8695 14.52 13.0395 14.06 13.3195 13.7C13.7095 13.2 14.3195 12.87 15.0095 12.87C15.5495 12.87 16.0395 13.07 16.4095 13.39C16.8595 13.79 17.1495 14.37 17.1495 15.01C17.1495 16.19 16.1895 17.15 15.0095 17.15Z" fill="#101010"/>
<path d="M17.9995 5.79C17.7495 5.76 17.4595 5.74 17.1495 5.74H12.8695C10.7295 5.74 10.0195 6.45 10.0195 8.59V17.25C10.0295 17.87 10.0995 18.36 10.2495 18.75C10.5995 19.66 11.3895 20 12.8695 20H17.1495C19.2895 20 19.9995 19.29 19.9995 17.15V8.59C19.9995 6.76 19.4795 5.98 17.9995 5.79ZM15.0095 8.09C15.8795 8.09 16.5795 8.79 16.5795 9.66C16.5795 10.53 15.8795 11.23 15.0095 11.23C14.1395 11.23 13.4395 10.53 13.4395 9.66C13.4395 8.79 14.1395 8.09 15.0095 8.09ZM15.0095 17.15C13.8295 17.15 12.8695 16.19 12.8695 15.01C12.8695 14.52 13.0395 14.06 13.3195 13.7C13.7095 13.2 14.3195 12.87 15.0095 12.87C15.5495 12.87 16.0395 13.07 16.4095 13.39C16.8595 13.79 17.1495 14.37 17.1495 15.01C17.1495 16.19 16.1895 17.15 15.0095 17.15Z" fill="#101010"/>
</svg>
