<svg width="22" height="22" viewBox="0 0 22 22" fill="none" xmlns="http://www.w3.org/2000/svg">
<path d="M21 21.75H4C1.93 21.75 0.25 20.07 0.25 18V1C0.25 0.59 0.59 0.25 1 0.25C1.41 0.25 1.75 0.59 1.75 1V18C1.75 19.24 2.76 20.25 4 20.25H21C21.41 20.25 21.75 20.59 21.75 21C21.75 21.41 21.41 21.75 21 21.75Z" fill="#101010"/>
<path d="M3.99982 16.7501C3.82982 16.7501 3.64982 16.6901 3.50982 16.5701C3.19982 16.3001 3.15982 15.8301 3.42982 15.5101L8.01982 10.1501C8.51982 9.57007 9.23982 9.22007 9.99982 9.19007C10.7598 9.17007 11.5098 9.45007 12.0498 9.99007L12.9998 10.9401C13.2498 11.1901 13.5698 11.3101 13.9298 11.3101C14.2798 11.3001 14.5998 11.1401 14.8298 10.8701L19.4198 5.51007C19.6898 5.20007 20.1598 5.16007 20.4798 5.43007C20.7898 5.70007 20.8298 6.17007 20.5598 6.49007L15.9698 11.8501C15.4698 12.4301 14.7498 12.7801 13.9898 12.8101C13.2198 12.8301 12.4798 12.5501 11.9398 12.0101L10.9998 11.0601C10.7498 10.8101 10.4198 10.6801 10.0698 10.6901C9.71982 10.7001 9.39982 10.8601 9.16982 11.1301L4.57982 16.4901C4.41982 16.6601 4.20982 16.7501 3.99982 16.7501Z" fill="#101010"/>
</svg>
