<svg width="20" height="20" viewBox="0 0 20 20" fill="none" xmlns="http://www.w3.org/2000/svg">
<path d="M19.3 10.23H15.82C14.84 10.23 13.97 10.77 13.53 11.65L12.69 13.31C12.49 13.71 12.09 13.96 11.65 13.96H8.37C8.06 13.96 7.62 13.89 7.33 13.31L6.49 11.66C6.05 10.79 5.17 10.24 4.2 10.24H0.7C0.31 10.24 0 10.55 0 10.94V14.2C0 17.83 2.18 20 5.82 20H14.2C17.63 20 19.74 18.12 20 14.78V10.93C20 10.55 19.69 10.23 19.3 10.23Z" fill="#101010"/>
<path d="M20 5.81V8.85C19.78 8.77 19.54 8.73 19.3 8.73H15.82C14.27 8.73 12.88 9.59 12.19 10.97L11.44 12.45H8.58L7.83 10.98C7.14 9.59 5.75 8.73 4.2 8.73H0.7C0.46 8.73 0.22 8.77 0 8.85V5.81C0 2.17 2.17 0 5.81 0H14.19C17.83 0 20 2.17 20 5.81Z" fill="#101010"/>
</svg>
