<svg width="20" height="20" viewBox="0 0 20 20" fill="none" xmlns="http://www.w3.org/2000/svg">
<path d="M17 6C18.6569 6 20 4.65685 20 3C20 1.34315 18.6569 0 17 0C15.3431 0 14 1.34315 14 3C14 4.65685 15.3431 6 17 6Z" fill="#101010"/>
<path d="M18.34 10.72H15.03C14.1 10.72 13.27 11.24 12.85 12.06L12.05 13.64C11.86 14.02 11.48 14.25 11.06 14.25H7.95C7.66 14.25 7.23 14.19 6.96 13.63L6.17 12.06C5.75 11.23 4.92 10.71 3.99 10.71H0.66C0.3 10.72 0 11.02 0 11.38V14.47C0 17.94 2.07 20 5.53 20H13.49C16.75 20 18.76 18.21 19 15.04V11.38C19 11.02 18.7 10.72 18.34 10.72Z" fill="#101010"/>
<path d="M19 8.4V9.33C18.79 9.26 18.57 9.22 18.34 9.22H15.03C13.53 9.22 12.18 10.05 11.52 11.39L10.82 12.76H8.19L7.51 11.4C6.83 10.05 5.49 9.22 3.99 9.22H0.66C0.43 9.22 0.21 9.26 0 9.33V6.52C0 3.47 2.47 1 5.52 1H11.6C12.24 1 12.7 1.58 12.58 2.2C12.42 3 12.49 3.87 12.88 4.79C13.33 5.83 14.17 6.67 15.21 7.12C16.13 7.51 17 7.58 17.8 7.42C18.42 7.3 19 7.76 19 8.4Z" fill="#101010"/>
</svg>
