<svg width="21" height="20" viewBox="0 0 21 20" fill="none" xmlns="http://www.w3.org/2000/svg">
<path d="M16.0202 0.719956L12.5402 2.45996C11.5702 2.93996 10.4402 2.93996 9.47022 2.45996L5.98022 0.709956C3.00022 -0.780044 -0.149782 2.43996 1.41022 5.38996L2.23022 6.92996C2.34022 7.13996 2.52022 7.30996 2.74022 7.40996L15.3902 13.1C15.9102 13.33 16.5202 13.12 16.7802 12.62L20.5902 5.37996C22.1402 2.43996 19.0002 -0.780044 16.0202 0.719956Z" fill="#101010"/>
<path d="M14.6004 14.31L6.32045 10.58C5.39045 10.16 4.45045 11.16 4.93045 12.06L7.97045 17.83C9.26045 20.28 12.7604 20.28 14.0504 17.83L15.1204 15.79C15.4004 15.24 15.1604 14.57 14.6004 14.31Z" fill="#101010"/>
</svg>
