<svg width="20" height="20" viewBox="0 0 20 20" fill="none" xmlns="http://www.w3.org/2000/svg">
<path d="M16.6902 9.53C16.1202 9.38 15.4502 9.3 14.6502 9.3C13.5402 9.3 13.1302 9.57 12.5602 10C12.5302 10.02 12.5002 10.05 12.4702 10.08L11.5202 11.09C10.7202 11.93 9.28018 11.94 8.48018 11.08L7.53018 10.08C7.50017 10.05 7.47018 10.02 7.44018 10C6.87017 9.57 6.46018 9.3 5.35018 9.3C4.55018 9.3 3.88018 9.38 3.31018 9.53C0.930176 10.17 0.930176 12.06 0.930176 13.72V14.65C0.930176 17.16 0.930175 20 6.28018 20H13.7202C17.2702 20 19.0702 18.2 19.0702 14.65V13.72C19.0702 12.06 19.0702 10.17 16.6902 9.53ZM12.3302 16.4H7.67018C7.29018 16.4 6.98018 16.09 6.98018 15.7C6.98018 15.31 7.29018 15 7.67018 15H12.3302C12.7102 15 13.0202 15.31 13.0202 15.7C13.0202 16.09 12.7102 16.4 12.3302 16.4Z" fill="#101010"/>
<path d="M17.21 4.42V8.12C17.17 8.1 17.12 8.09 17.08 8.08C16.38 7.89 15.59 7.8 14.65 7.8C13.11 7.8 12.39 8.25 11.65 8.81C11.55 8.88 11.46 8.97 11.38 9.05L10.42 10.06C10.33 10.16 10.17 10.22 10 10.22C9.83004 10.22 9.67004 10.16 9.57004 10.05L8.63004 9.06C8.54004 8.96 8.44004 8.87 8.34004 8.8C7.62004 8.25 6.89004 7.8 5.35004 7.8C4.41004 7.8 3.62004 7.89 2.92004 8.08C2.88004 8.09 2.83004 8.1 2.79004 8.12V4.42C2.79004 2.35 2.79004 0 7.21004 0H12.79C17.21 0 17.21 2.35 17.21 4.42Z" fill="#101010"/>
</svg>
