<svg width="20" height="22" viewBox="0 0 20 22" fill="none" xmlns="http://www.w3.org/2000/svg">
<path d="M0.710083 16.02L2.45008 12.54C2.93008 11.57 2.93008 10.44 2.45008 9.46997L0.710083 5.97997C-0.779917 2.99997 2.43008 -0.150026 5.38008 1.40997L6.92008 2.22997C7.14008 2.33997 7.31008 2.51997 7.40008 2.73997L13.0901 15.39C13.3201 15.91 13.1101 16.52 12.6101 16.78L5.37008 20.59C2.43008 22.15 -0.779917 19 0.710083 16.02Z" fill="#101010"/>
<path d="M14.3102 14.6L10.5802 6.31996C10.1602 5.38996 11.1602 4.44996 12.0602 4.92996L17.8302 7.96996C20.2802 9.25996 20.2802 12.76 17.8302 14.05L15.7902 15.12C15.2402 15.4 14.5702 15.17 14.3102 14.6Z" fill="#101010"/>
</svg>
