<svg width="20" height="20" viewBox="0 0 20 20" fill="none" xmlns="http://www.w3.org/2000/svg">
<path d="M19.3 10.23H15.82C14.84 10.23 13.97 10.77 13.53 11.65L12.69 13.31C12.49 13.71 12.09 13.96 11.65 13.96H8.37C8.06 13.96 7.62 13.89 7.33 13.31L6.49 11.66C6.05 10.79 5.17 10.24 4.2 10.24H0.7C0.31 10.24 0 10.55 0 10.94V14.2C0 17.83 2.18 20 5.82 20H14.2C17.63 20 19.74 18.12 20 14.78V10.93C20 10.55 19.69 10.23 19.3 10.23Z" fill="#101010"/>
<path d="M14.19 0H5.81C2.17 0 0 2.17 0 5.81V8.85C0.22 8.77 0.46 8.73 0.7 8.73H4.2C5.75 8.73 7.14 9.59 7.83 10.98L8.58 12.45H11.44L12.19 10.97C12.88 9.59 14.27 8.73 15.82 8.73H19.3C19.54 8.73 19.78 8.77 20 8.85V5.81C20 2.17 17.83 0 14.19 0ZM8.45 3.41H11.55C11.93 3.41 12.25 3.72 12.25 4.1C12.25 4.49 11.93 4.8 11.55 4.8H8.45C8.07 4.8 7.75 4.49 7.75 4.1C7.75 3.72 8.07 3.41 8.45 3.41ZM12.33 7.59H7.67C7.29 7.59 6.98 7.28 6.98 6.9C6.98 6.51 7.29 6.2 7.67 6.2H12.33C12.71 6.2 13.02 6.51 13.02 6.9C13.02 7.28 12.71 7.59 12.33 7.59Z" fill="#101010"/>
</svg>
