<svg width="21" height="20" viewBox="0 0 21 20" fill="none" xmlns="http://www.w3.org/2000/svg">
<path d="M16.0202 19.2901L12.5402 17.5501C11.5702 17.0701 10.4402 17.0701 9.47016 17.5501L5.99016 19.2901C3.00016 20.7801 -0.149843 17.5701 1.41016 14.6201L2.23016 13.0801C2.34016 12.8701 2.52016 12.7001 2.74016 12.6001L15.3802 6.90005C15.9002 6.67005 16.5102 6.88005 16.7702 7.38005L20.5802 14.6201C22.1402 17.5701 19.0002 20.7801 16.0202 19.2901Z" fill="#101010"/>
<path d="M14.6 5.69002L6.31996 9.42002C5.38996 9.84002 4.44996 8.84002 4.92996 7.94002L7.96996 2.17002C9.25996 -0.27998 12.76 -0.27998 14.05 2.17002L15.12 4.21002C15.4 4.76002 15.16 5.44002 14.6 5.69002Z" fill="#101010"/>
</svg>
