<svg width="20" height="21" viewBox="0 0 20 21" fill="none" xmlns="http://www.w3.org/2000/svg">
<path d="M19.3 11.23H15.82C14.84 11.23 13.97 11.77 13.53 12.65L12.69 14.31C12.49 14.71 12.09 14.96 11.65 14.96H8.37C8.06 14.96 7.62 14.89 7.33 14.31L6.49 12.66C6.05 11.79 5.17 11.24 4.2 11.24H0.7C0.31 11.24 0 11.55 0 11.94V15.2C0 18.83 2.18 21 5.82 21H14.2C17.63 21 19.74 19.12 20 15.78V11.93C20 11.55 19.69 11.23 19.3 11.23Z" fill="#101010"/>
<path d="M10.75 1C10.75 0.59 10.41 0.25 10 0.25C9.59 0.25 9.25 0.59 9.25 1V3H10.75V1Z" fill="#101010"/>
<path d="M20 8.81V9.85C19.78 9.77 19.54 9.73 19.3 9.73H15.82C14.27 9.73 12.88 10.59 12.19 11.97L11.44 13.45H8.58L7.83 11.98C7.14 10.59 5.75 9.73 4.2 9.73H0.7C0.46 9.73 0.22 9.77 0 9.85V8.81C0 5.17 2.17 3 5.81 3H9.25V6.19L8.53 5.47C8.24 5.18 7.76 5.18 7.47 5.47C7.18 5.76 7.18 6.24 7.47 6.53L9.47 8.53C9.48 8.54 9.49 8.54 9.49 8.55C9.56 8.61 9.63 8.66 9.71 8.69C9.81 8.73 9.9 8.75 10 8.75C10.1 8.75 10.19 8.73 10.28 8.69C10.37 8.66 10.46 8.6 10.53 8.53L12.53 6.53C12.82 6.24 12.82 5.76 12.53 5.47C12.24 5.18 11.76 5.18 11.47 5.47L10.75 6.19V3H14.19C17.83 3 20 5.17 20 8.81Z" fill="#101010"/>
</svg>
