<svg width="20" height="21" viewBox="0 0 20 21" fill="none" xmlns="http://www.w3.org/2000/svg">
<path d="M19.2902 15.02L17.5502 11.54C17.0702 10.57 17.0702 9.43995 17.5502 8.46995L19.2902 4.98995C20.7802 1.99995 17.5702 -1.14005 14.6202 0.419951L13.0802 1.23995C12.8702 1.34995 12.7002 1.52995 12.6002 1.74995L6.90017 14.3899C6.67017 14.91 6.88017 15.52 7.38017 15.78L14.6202 19.59C17.5702 21.15 20.7802 18 19.2902 15.02Z" fill="#101010"/>
<path d="M5.69002 13.6L9.42002 5.31996C9.84002 4.38996 8.84002 3.44996 7.94002 3.92996L2.17002 6.95996C-0.27998 8.24996 -0.27998 11.75 2.17002 13.04L4.21002 14.11C4.76002 14.4 5.43002 14.17 5.69002 13.6Z" fill="#101010"/>
</svg>
