<svg width="20" height="20" viewBox="0 0 20 20" fill="none" xmlns="http://www.w3.org/2000/svg">
<path d="M18.5 8.19H15.61C13.24 8.19 11.31 6.26 11.31 3.89V1C11.31 0.45 10.86 0 10.31 0H6.07C2.99 0 0.5 2 0.5 5.57V14.43C0.5 18 2.99 20 6.07 20H13.93C17.01 20 19.5 18 19.5 14.43V9.19C19.5 8.64 19.05 8.19 18.5 8.19ZM10.4 13.58L8.54 15.44C8.31 15.67 7.99 15.8 7.65 15.8C7.31 15.8 7 15.67 6.76 15.44L4.9 13.58C4.49 13.17 4.42 12.48 4.75 12L5.6 10.72C5.81 10.39 6.25 10.16 6.64 10.16H8.65C9.04 10.16 9.47 10.39 9.69 10.72L10.55 12C10.86 12.48 10.8 13.17 10.4 13.58Z" fill="#101010"/>
<path d="M15.4297 6.80999C16.3797 6.81999 17.6997 6.81999 18.8297 6.81999C19.3997 6.81999 19.6997 6.14999 19.2997 5.74999C17.8597 4.29999 15.2797 1.68999 13.7997 0.209993C13.3897 -0.200007 12.6797 0.0799931 12.6797 0.649993V4.13999C12.6797 5.59999 13.9197 6.80999 15.4297 6.80999Z" fill="#101010"/>
</svg>
