<svg width="20" height="21" viewBox="0 0 20 21" fill="none" xmlns="http://www.w3.org/2000/svg">
<path d="M1.23 0H9.36C10.04 0 10.59 0.56 10.59 1.25V2.62C10.59 3.12 10.28 3.74 9.97 4.05L7.33 6.43C6.96 6.74 6.72 7.36 6.72 7.86V10.54C6.72 10.91 6.47 11.41 6.17 11.6L5.3 12.17C4.5 12.67 3.39 12.11 3.39 11.11V7.8C3.39 7.36 3.14 6.8 2.9 6.49L0.56 3.99C0.25 3.68 0 3.12 0 2.75V1.31C0 0.56 0.55 0 1.23 0Z" fill="#101010"/>
<path d="M15 1H12.6C12.32 1 12.1 1.22 12.1 1.5C12.1 1.98 12.1 2.62 12.1 2.62C12.1 3.61 11.57 4.58 11.05 5.11L8.33 7.54C8.3 7.61 8.25 7.71 8.22 7.79V10.54C8.22 11.45 7.68 12.44 6.94 12.89L6.12 13.42C5.66 13.71 5.15 13.85 4.64 13.85C4.18 13.85 3.72 13.73 3.3 13.5C2.78254 13.2134 2.39183 12.781 2.1531 12.2736C2.03113 12.0143 2 11.7245 2 11.438V9.21C2 9.08 1.95 8.95 1.85 8.86L0.85 7.86C0.54 7.54 0 7.76 0 8.21V16C0 18.76 2.24 21 5 21H15C17.76 21 20 18.76 20 16V6C20 3.24 17.76 1 15 1ZM16 16.75H9C8.59 16.75 8.25 16.41 8.25 16C8.25 15.59 8.59 15.25 9 15.25H16C16.41 15.25 16.75 15.59 16.75 16C16.75 16.41 16.41 16.75 16 16.75ZM16 12.75H11C10.59 12.75 10.25 12.41 10.25 12C10.25 11.59 10.59 11.25 11 11.25H16C16.41 11.25 16.75 11.59 16.75 12C16.75 12.41 16.41 12.75 16 12.75Z" fill="#101010"/>
</svg>
