<svg width="20" height="20" viewBox="0 0 20 20" fill="none" xmlns="http://www.w3.org/2000/svg">
<path d="M18.5 8.19H15.61C13.24 8.19 11.31 6.26 11.31 3.89V1C11.31 0.45 10.86 0 10.31 0H6.07C2.99 0 0.5 2 0.5 5.57V14.43C0.5 18 2.99 20 6.07 20H13.93C17.01 20 19.5 18 19.5 14.43V9.19C19.5 8.64 19.05 8.19 18.5 8.19ZM10.28 13.78L8.28 15.78C8.21 15.85 8.12 15.91 8.03 15.94C7.94 15.98 7.85 16 7.75 16C7.65 16 7.56 15.98 7.47 15.94C7.39 15.91 7.31 15.85 7.25 15.79C7.24 15.78 7.23 15.78 7.23 15.77L5.23 13.77C4.94 13.48 4.94 13 5.23 12.71C5.52 12.42 6 12.42 6.29 12.71L7 13.44V9.25C7 8.84 7.34 8.5 7.75 8.5C8.16 8.5 8.5 8.84 8.5 9.25V13.44L9.22 12.72C9.51 12.43 9.99 12.43 10.28 12.72C10.57 13.01 10.57 13.49 10.28 13.78Z" fill="#101010"/>
<path d="M15.4297 6.80999C16.3797 6.81999 17.6997 6.81999 18.8297 6.81999C19.3997 6.81999 19.6997 6.14999 19.2997 5.74999C17.8597 4.29999 15.2797 1.68999 13.7997 0.209993C13.3897 -0.200007 12.6797 0.0799931 12.6797 0.649993V4.13999C12.6797 5.59999 13.9197 6.80999 15.4297 6.80999Z" fill="#101010"/>
</svg>
