<svg width="20" height="20" viewBox="0 0 20 20" fill="none" xmlns="http://www.w3.org/2000/svg">
<path d="M18.5 8.19H15.61C13.24 8.19 11.31 6.26 11.31 3.89V1C11.31 0.45 10.86 0 10.31 0H6.07C2.99 0 0.5 2 0.5 5.57V14.43C0.5 18 2.99 20 6.07 20H13.93C17.01 20 19.5 18 19.5 14.43V9.19C19.5 8.64 19.05 8.19 18.5 8.19ZM11.75 12.94C11.75 12.99 11.75 13.05 11.75 13.1C11.73 13.24 11.67 13.37 11.57 13.49C11.56 13.5 11.54 13.52 11.53 13.53L9.53 15.53C9.38 15.68 9.19 15.75 9 15.75C8.81 15.75 8.62 15.68 8.47 15.53C8.18 15.24 8.18 14.76 8.47 14.47L9.19 13.75H5C4.59 13.75 4.25 13.41 4.25 13C4.25 12.59 4.59 12.25 5 12.25H9.19L8.47 11.53C8.32 11.38 8.25 11.19 8.25 11C8.25 10.81 8.32 10.62 8.47 10.47C8.76 10.18 9.24 10.18 9.53 10.47L11.53 12.47C11.66 12.61 11.73 12.77 11.75 12.94Z" fill="#101010"/>
<path d="M15.4297 6.80999C16.3797 6.81999 17.6997 6.81999 18.8297 6.81999C19.3997 6.81999 19.6997 6.14999 19.2997 5.74999C17.8597 4.29999 15.2797 1.68999 13.7997 0.209993C13.3897 -0.200007 12.6797 0.0799931 12.6797 0.649993V4.13999C12.6797 5.59999 13.9197 6.80999 15.4297 6.80999Z" fill="#101010"/>
</svg>
