<svg width="20" height="21" viewBox="0 0 20 21" fill="none" xmlns="http://www.w3.org/2000/svg">
<path d="M15 0H7C3.5 0 2 2 2 5V9.47C2 9.82 2.34 10.06 2.66 9.94C3.76 9.51 5.01 9.37 6.3 9.63C8.9 10.15 10.97 12.29 11.4 14.9C11.66 16.49 11.34 18 10.61 19.25C10.41 19.58 10.65 20 11.04 20H15C18.5 20 20 18 20 15V5C20 2 18.5 0 15 0ZM17.5 7.25H15.5C13.98 7.25 12.75 6.02 12.75 4.5V2.5C12.75 2.09 13.09 1.75 13.5 1.75C13.91 1.75 14.25 2.09 14.25 2.5V4.5C14.25 5.19 14.81 5.75 15.5 5.75H17.5C17.91 5.75 18.25 6.09 18.25 6.5C18.25 6.91 17.91 7.25 17.5 7.25Z" fill="#101010"/>
<path d="M5 11C2.24 11 0 13.24 0 16C0 18.76 2.24 21 5 21C7.76 21 10 18.76 10 16C10 13.24 7.76 11 5 11ZM4.16 17.27C4.41 17.52 4.41 17.93 4.16 18.19C4.03 18.32 3.87 18.38 3.7 18.38C3.53 18.38 3.37 18.32 3.24 18.19L1.51 16.46C1.26 16.21 1.26 15.8 1.51 15.54L3.24 13.81C3.49 13.56 3.9 13.56 4.16 13.81C4.41 14.06 4.41 14.47 4.16 14.73L2.89 16L4.16 17.27ZM8.48 16.46L6.75 18.19C6.62 18.32 6.46 18.38 6.29 18.38C6.12 18.38 5.96 18.32 5.83 18.19C5.58 17.94 5.58 17.53 5.83 17.27L7.11 16L5.84 14.73C5.59 14.48 5.59 14.07 5.84 13.81C6.09 13.56 6.5 13.56 6.76 13.81L8.49 15.54C8.73 15.8 8.73 16.2 8.48 16.46Z" fill="#101010"/>
</svg>
