<svg width="18" height="20" viewBox="0 0 18 20" fill="none" xmlns="http://www.w3.org/2000/svg">
<path d="M13 0H5C1.5 0 0 2 0 5V15C0 18 1.5 20 5 20H13C16.5 20 18 18 18 15V5C18 2 16.5 0 13 0ZM10.07 13.49C9.56 15.12 7.77 15.97 7.27 15.97C6.78 15.96 5.01 15.13 4.48 13.49C4.15 12.46 4.54 11.19 5.61 10.84C6.18 10.66 6.88 10.81 7.27 11.36C7.64 10.79 8.37 10.66 8.93 10.84C10.01 11.19 10.39 12.46 10.07 13.49ZM15.5 7.25H13.5C11.98 7.25 10.75 6.02 10.75 4.5V2.5C10.75 2.09 11.09 1.75 11.5 1.75C11.91 1.75 12.25 2.09 12.25 2.5V4.5C12.25 5.19 12.81 5.75 13.5 5.75H15.5C15.91 5.75 16.25 6.09 16.25 6.5C16.25 6.91 15.91 7.25 15.5 7.25Z" fill="#101010"/>
</svg>
