<svg width="18" height="20" viewBox="0 0 18 20" fill="none" xmlns="http://www.w3.org/2000/svg">
<path d="M13 0H5C1.5 0 0 2 0 5V15C0 18 1.5 20 5 20H13C16.5 20 18 18 18 15V5C18 2 16.5 0 13 0ZM7.53 14.47C7.82 14.76 7.82 15.24 7.53 15.53C7.38 15.68 7.19 15.75 7 15.75C6.81 15.75 6.62 15.68 6.47 15.53L4.47 13.53C4.18 13.24 4.18 12.76 4.47 12.47L6.47 10.47C6.76 10.18 7.24 10.18 7.53 10.47C7.82 10.76 7.82 11.24 7.53 11.53L6.06 13L7.53 14.47ZM13.53 13.53L11.53 15.53C11.38 15.68 11.19 15.75 11 15.75C10.81 15.75 10.62 15.68 10.47 15.53C10.18 15.24 10.18 14.76 10.47 14.47L11.94 13L10.47 11.53C10.18 11.24 10.18 10.76 10.47 10.47C10.76 10.18 11.24 10.18 11.53 10.47L13.53 12.47C13.82 12.76 13.82 13.24 13.53 13.53ZM15.5 7.25H13.5C11.98 7.25 10.75 6.02 10.75 4.5V2.5C10.75 2.09 11.09 1.75 11.5 1.75C11.91 1.75 12.25 2.09 12.25 2.5V4.5C12.25 5.19 12.81 5.75 13.5 5.75H15.5C15.91 5.75 16.25 6.09 16.25 6.5C16.25 6.91 15.91 7.25 15.5 7.25Z" fill="#101010"/>
</svg>
