<svg width="20" height="20" viewBox="0 0 20 20" fill="none" xmlns="http://www.w3.org/2000/svg">
<path d="M18.5 8.19H15.61C13.24 8.19 11.31 6.26 11.31 3.89V1C11.31 0.45 10.86 0 10.31 0H6.07C2.99 0 0.5 2 0.5 5.57V14.43C0.5 18 2.99 20 6.07 20H13.93C17.01 20 19.5 18 19.5 14.43V9.19C19.5 8.64 19.05 8.19 18.5 8.19Z" fill="#101010"/>
<path d="M13.7997 0.209993C13.3897 -0.200007 12.6797 0.0799931 12.6797 0.649993V4.13999C12.6797 5.59999 13.9197 6.80999 15.4297 6.80999C16.3797 6.81999 17.6997 6.81999 18.8297 6.81999C19.3997 6.81999 19.6997 6.14999 19.2997 5.74999C17.8597 4.29999 15.2797 1.68999 13.7997 0.209993Z" fill="#101010"/>
</svg>
