<svg width="20" height="20" viewBox="0 0 20 20" fill="none" xmlns="http://www.w3.org/2000/svg">
<path d="M13.7997 0.209993C13.3897 -0.200007 12.6797 0.0799931 12.6797 0.649993V4.13999C12.6797 5.59999 13.9197 6.80999 15.4297 6.80999C16.3797 6.81999 17.6997 6.81999 18.8297 6.81999C19.3997 6.81999 19.6997 6.14999 19.2997 5.74999C17.8597 4.29999 15.2797 1.68999 13.7997 0.209993Z" fill="#101010"/>
<path d="M18.5 8.19H15.61C13.24 8.19 11.31 6.26 11.31 3.89V1C11.31 0.45 10.86 0 10.31 0H6.07C2.99 0 0.5 2 0.5 5.57V14.43C0.5 18 2.99 20 6.07 20H13.93C17.01 20 19.5 18 19.5 14.43V9.19C19.5 8.64 19.05 8.19 18.5 8.19ZM11 13.75H6.81L7.53 14.47C7.82 14.76 7.82 15.24 7.53 15.53C7.38 15.68 7.19 15.75 7 15.75C6.81 15.75 6.62 15.68 6.47 15.53L4.47 13.53C4.4 13.46 4.36 13.39 4.32 13.31C4.31 13.29 4.3 13.26 4.29 13.24C4.27 13.18 4.26 13.12 4.25 13.06C4.25 13.03 4.25 13.01 4.25 12.98C4.25 12.9 4.27 12.82 4.3 12.74C4.3 12.73 4.3 12.73 4.31 12.72C4.34 12.64 4.4 12.56 4.46 12.5C4.47 12.49 4.47 12.48 4.48 12.48L6.48 10.48C6.77 10.19 7.25 10.19 7.54 10.48C7.83 10.77 7.83 11.25 7.54 11.54L6.82 12.26H11C11.41 12.26 11.75 12.6 11.75 13.01C11.75 13.42 11.41 13.75 11 13.75Z" fill="#101010"/>
</svg>
