<svg width="18" height="20" viewBox="0 0 18 20" fill="none" xmlns="http://www.w3.org/2000/svg">
<path d="M17.71 6.11998V15.53C17.71 17.99 15.7 20 13.24 20H4.76004C2.30004 20 0.290039 17.99 0.290039 15.53V6.11998C0.290039 4.40998 1.25004 2.91998 2.66004 2.16998C3.15004 1.90998 3.76004 2.25998 3.76004 2.81998C3.76004 4.40998 5.06004 5.70998 6.65004 5.70998H11.35C12.94 5.70998 14.24 4.40998 14.24 2.81998C14.24 2.25998 14.84 1.90998 15.34 2.16998C16.75 2.91998 17.71 4.40998 17.71 6.11998Z" fill="#101010"/>
<path d="M11.3498 0H6.64977C5.60977 0 4.75977 0.84 4.75977 1.88V2.82C4.75977 3.86 5.59977 4.7 6.63977 4.7H11.3498C12.3898 4.7 13.2298 3.86 13.2298 2.82V1.88C13.2398 0.84 12.3898 0 11.3498 0Z" fill="#101010"/>
</svg>
