<svg width="21" height="21" viewBox="0 0 21 21" fill="none" xmlns="http://www.w3.org/2000/svg">
<path d="M10.752 14.92H11.402C12.052 14.92 12.592 14.34 12.592 13.64C12.592 12.77 12.282 12.6 11.772 12.42L10.762 12.07V14.92H10.752Z" fill="#101010"/>
<path d="M9.97202 0.89998C4.45202 0.91998 -0.01798 5.40998 0.00201998 10.93C0.02202 16.45 4.51202 20.92 10.032 20.9C15.552 20.88 20.022 16.39 20.002 10.87C19.982 5.34998 15.492 0.88998 9.97202 0.89998ZM12.262 11C13.042 11.27 14.092 11.85 14.092 13.64C14.092 15.18 12.882 16.42 11.402 16.42H10.752V17C10.752 17.41 10.412 17.75 10.002 17.75C9.59202 17.75 9.25202 17.41 9.25202 17V16.42H8.89202C7.25202 16.42 5.92202 15.04 5.92202 13.34C5.92202 12.93 6.26202 12.59 6.67202 12.59C7.08202 12.59 7.42202 12.93 7.42202 13.34C7.42202 14.21 8.08202 14.92 8.89202 14.92H9.25202V11.54L7.74202 11C6.96202 10.73 5.91202 10.15 5.91202 8.35998C5.91202 6.81998 7.12202 5.57998 8.60202 5.57998H9.25202V4.99998C9.25202 4.58998 9.59202 4.24998 10.002 4.24998C10.412 4.24998 10.752 4.58998 10.752 4.99998V5.57998H11.112C12.752 5.57998 14.082 6.95998 14.082 8.65998C14.082 9.06998 13.742 9.40998 13.332 9.40998C12.922 9.40998 12.582 9.06998 12.582 8.65998C12.582 7.78998 11.922 7.07998 11.112 7.07998H10.752V10.46L12.262 11Z" fill="#101010"/>
<path d="M7.42188 8.36996C7.42188 9.23996 7.73187 9.40996 8.24187 9.58996L9.25187 9.93996V7.07996H8.60188C7.95188 7.07996 7.42188 7.65996 7.42188 8.36996Z" fill="#101010"/>
</svg>
