<svg width="20" height="20" viewBox="0 0 20 20" fill="none" xmlns="http://www.w3.org/2000/svg">
<path d="M14.19 0H5.81C2.6 0 0 2.6 0 5.81V8.25C0 8.8 0.45 9.25 1 9.25H19C19.55 9.25 20 8.8 20 8.25V5.81C20 2.6 17.4 0 14.19 0ZM4.75 6.25C4.75 6.66 4.41 7 4 7C3.59 7 3.25 6.66 3.25 6.25V4.25C3.25 3.84 3.59 3.5 4 3.5C4.41 3.5 4.75 3.84 4.75 4.25V6.25ZM8.75 6.25C8.75 6.66 8.41 7 8 7C7.59 7 7.25 6.66 7.25 6.25V4.25C7.25 3.84 7.59 3.5 8 3.5C8.41 3.5 8.75 3.84 8.75 4.25V6.25ZM16 6H12C11.59 6 11.25 5.66 11.25 5.25C11.25 4.84 11.59 4.5 12 4.5H16C16.41 4.5 16.75 4.84 16.75 5.25C16.75 5.66 16.41 6 16 6Z" fill="#101010"/>
<path d="M0 14.19C0 17.4 2.6 20 5.81 20H14.18C17.4 20 20 17.4 20 14.19V11.75C20 11.2 19.55 10.75 19 10.75H1C0.45 10.75 0 11.2 0 11.75V14.19ZM12 14.25H16C16.41 14.25 16.75 14.59 16.75 15C16.75 15.41 16.41 15.75 16 15.75H12C11.59 15.75 11.25 15.41 11.25 15C11.25 14.59 11.59 14.25 12 14.25ZM7.25 14C7.25 13.59 7.59 13.25 8 13.25C8.41 13.25 8.75 13.59 8.75 14V16C8.75 16.41 8.41 16.75 8 16.75C7.59 16.75 7.25 16.41 7.25 16V14ZM3.25 14C3.25 13.59 3.59 13.25 4 13.25C4.41 13.25 4.75 13.59 4.75 14V16C4.75 16.41 4.41 16.75 4 16.75C3.59 16.75 3.25 16.41 3.25 16V14Z" fill="#101010"/>
</svg>
