<svg width="18" height="20" viewBox="0 0 18 20" fill="none" xmlns="http://www.w3.org/2000/svg">
<path d="M13.5904 5.41L3.31044 15.69C2.83044 16.17 2.01044 16.06 1.72044 15.45C1.20044 14.38 0.900444 13.17 0.900444 11.9C0.880444 6.38 6.48044 1.66 8.38044 0.21C8.75044 -0.07 9.25044 -0.07 9.61044 0.21C10.4804 0.87 12.1104 2.24 13.6404 4.04C13.9804 4.44 13.9604 5.04 13.5904 5.41Z" fill="#101010"/>
<path d="M17.1 11.91C17.1 16.37 13.47 20 8.99996 20C7.20996 20 5.53996 19.42 4.18996 18.42C3.69996 18.06 3.65996 17.34 4.08996 16.91L14.16 6.84002C14.63 6.37002 15.42 6.47002 15.74 7.05002C16.56 8.56002 17.11 10.2 17.1 11.91Z" fill="#101010"/>
</svg>
