<svg width="20" height="20" viewBox="0 0 20 20" fill="none" xmlns="http://www.w3.org/2000/svg">
<path d="M19 20H1C0.59 20 0.25 19.66 0.25 19.25C0.25 18.84 0.59 18.5 1 18.5H19C19.41 18.5 19.75 18.84 19.75 19.25C19.75 19.66 19.41 20 19 20Z" fill="#101010"/>
<path d="M17.0196 1.47997C15.0796 -0.460026 13.1796 -0.510026 11.1896 1.47997L9.97959 2.68997C9.87959 2.78997 9.83959 2.94997 9.87959 3.08997C10.6396 5.73997 12.7596 7.85997 15.4096 8.61997C15.4496 8.62997 15.4896 8.63997 15.5296 8.63997C15.6396 8.63997 15.7396 8.59997 15.8196 8.51997L17.0196 7.30997C18.0096 6.32997 18.4896 5.37997 18.4896 4.41997C18.4996 3.42997 18.0196 2.46997 17.0196 1.47997Z" fill="#101010"/>
<path d="M13.6103 9.53C13.3203 9.39 13.0403 9.25 12.7703 9.09C12.5503 8.96 12.3403 8.82 12.1303 8.67C11.9603 8.56 11.7603 8.4 11.5703 8.24C11.5503 8.23 11.4803 8.17001 11.4003 8.09001C11.0703 7.81001 10.7003 7.45001 10.3703 7.05001C10.3403 7.03001 10.2903 6.96 10.2203 6.87C10.1203 6.75001 9.95032 6.55 9.80032 6.32C9.68032 6.17 9.54032 5.95 9.41032 5.73C9.25032 5.46 9.11032 5.19 8.97032 4.91C8.94913 4.86461 8.92864 4.81944 8.90876 4.77454C8.76119 4.44122 8.32655 4.34378 8.06879 4.60153L2.34032 10.33C2.21032 10.46 2.09032 10.71 2.06032 10.88L1.52032 14.71C1.42032 15.39 1.61032 16.03 2.03032 16.46C2.39032 16.81 2.89032 17 3.43032 17C3.55032 17 3.67032 16.99 3.79032 16.97L7.63032 16.43C7.81032 16.4 8.06032 16.28 8.18032 16.15L13.9016 10.4287C14.1612 10.1691 14.0633 9.72368 13.7257 9.57962C13.6877 9.5634 13.6492 9.54687 13.6103 9.53Z" fill="#101010"/>
</svg>
