<svg width="20" height="20" viewBox="0 0 20 20" fill="none" xmlns="http://www.w3.org/2000/svg">
<path d="M18.5 14.75H16.25V12.5C16.25 12.09 15.91 11.75 15.5 11.75C15.09 11.75 14.75 12.09 14.75 12.5V14.75H12.5C12.09 14.75 11.75 15.09 11.75 15.5C11.75 15.91 12.09 16.25 12.5 16.25H14.75V18.5C14.75 18.91 15.09 19.25 15.5 19.25C15.91 19.25 16.25 18.91 16.25 18.5V16.25H18.5C18.91 16.25 19.25 15.91 19.25 15.5C19.25 15.09 18.91 14.75 18.5 14.75Z" fill="#101010"/>
<path d="M20 6.52V1.98C20 0.57 19.36 0 17.77 0H13.73C12.14 0 11.5 0.57 11.5 1.98V6.51C11.5 7.93 12.14 8.49 13.73 8.49H17.77C19.36 8.5 20 7.93 20 6.52Z" fill="#101010"/>
<path d="M8.5 6.52V1.98C8.5 0.57 7.86 0 6.27 0H2.23C0.64 0 0 0.57 0 1.98V6.51C0 7.93 0.64 8.49 2.23 8.49H6.27C7.86 8.5 8.5 7.93 8.5 6.52Z" fill="#101010"/>
<path d="M8.5 17.77V13.73C8.5 12.14 7.86 11.5 6.27 11.5H2.23C0.64 11.5 0 12.14 0 13.73V17.77C0 19.36 0.64 20 2.23 20H6.27C7.86 20 8.5 19.36 8.5 17.77Z" fill="#101010"/>
</svg>
