<svg width="20" height="20" viewBox="0 0 20 20" fill="none" xmlns="http://www.w3.org/2000/svg">
<path d="M14.19 0H5.81C2.17 0 0 2.17 0 5.81V14.18C0 17.83 2.17 20 5.81 20H14.18C17.82 20 19.99 17.83 19.99 14.19V5.81C20 2.17 17.83 0 14.19 0ZM6.5 4.38C7.53 4.38 8.38 5.22 8.38 6.26C8.38 7.3 7.54 8.14 6.5 8.14C5.46 8.14 4.62 7.28 4.62 6.25C4.62 5.22 5.47 4.38 6.5 4.38ZM10 17.08C7.31 17.08 5.12 14.89 5.12 12.2C5.12 11.5 5.69 10.92 6.39 10.92H13.59C14.29 10.92 14.86 11.49 14.86 12.2C14.88 14.89 12.69 17.08 10 17.08ZM13.5 8.12C12.47 8.12 11.62 7.28 11.62 6.24C11.62 5.2 12.46 4.36 13.5 4.36C14.54 4.36 15.38 5.2 15.38 6.24C15.38 7.28 14.53 8.12 13.5 8.12Z" fill="#101010"/>
</svg>
