<svg width="22" height="23" viewBox="0 0 22 23" fill="none" xmlns="http://www.w3.org/2000/svg">
<path d="M8.25913 20.2458C8.9061 19.5988 9.27777 18.7729 9.37413 17.9194C9.5049 16.7838 9.12635 15.6068 8.25913 14.7396C7.74293 14.2234 7.10972 13.8793 6.4421 13.721C5.1688 13.3975 3.75785 13.7347 2.75297 14.7396C2.05782 15.4347 1.67927 16.3226 1.63109 17.238C1.59668 17.6303 1.63109 18.0364 1.73433 18.4287C1.89264 19.0963 2.23677 19.7296 2.75297 20.2458C4.27405 21.7668 6.73805 21.7668 8.25913 20.2458ZM6.96518 16.7769C7.36438 16.7769 7.69475 17.1072 7.69475 17.5064C7.68787 17.9125 7.36438 18.236 6.9583 18.2429L6.23562 18.236L6.2425 18.9312C6.23562 19.3372 5.91213 19.6607 5.50605 19.6676C5.09997 19.6607 4.77648 19.3372 4.7696 18.9312L4.77648 18.236L4.0538 18.2429C3.64772 18.236 3.32424 17.9125 3.31735 17.5064C3.32424 17.3068 3.40683 17.1279 3.5376 16.9971C3.66837 16.8663 3.84732 16.7838 4.04692 16.7769L4.77648 16.7769L4.77648 16.0198C4.77648 15.8133 4.85908 15.6343 4.98985 15.5036C5.12062 15.3728 5.29957 15.2902 5.50605 15.2902C5.90525 15.2902 6.23562 15.6206 6.23562 16.0198L6.23562 16.7769L6.96518 16.7769Z" fill="#101010"/>
<path d="M15.0952 2.84645V6.54522H13.6352V2.84645C13.6352 2.58365 13.4016 2.45711 13.2458 2.45711C13.1972 2.45711 13.1485 2.46684 13.0998 2.48631L5.38108 5.39666C4.8652 5.59133 4.53426 6.07801 4.53426 6.63283V7.28498C3.6485 7.94686 3.07422 9.00782 3.07422 10.2051V6.63283C3.07422 5.47453 3.78477 4.44277 4.8652 4.03395L12.5937 1.11387C12.8078 1.036 13.0317 0.99707 13.2458 0.99707C14.2192 0.99707 15.0952 1.78549 15.0952 2.84645Z" fill="#101010"/>
<path d="M21.5696 13.1162V14.0896C21.5696 14.3524 21.3651 14.5665 21.0926 14.5762H19.6715C19.1556 14.5762 18.6884 14.1966 18.6495 13.6905C18.6203 13.3887 18.7371 13.1065 18.9317 12.9118C19.107 12.7269 19.3503 12.6295 19.6131 12.6295H21.0829C21.3651 12.6393 21.5696 12.8534 21.5696 13.1162Z" fill="#101010"/>
<path d="M19.6019 11.6059H20.5947C21.1301 11.6059 21.5681 11.1679 21.5681 10.6325V10.2043C21.5681 8.18941 19.9231 6.54443 17.9082 6.54443H6.73405C5.9067 6.54443 5.14748 6.81697 4.53426 7.28419C3.6485 7.94607 3.07422 9.00704 3.07422 10.2043V11.9368C3.07422 12.3067 3.46356 12.5403 3.81397 12.4235C4.35905 12.2386 4.93334 12.1413 5.50762 12.1413C8.4569 12.1413 10.8611 14.5455 10.8611 17.4947C10.8611 18.1956 10.6762 18.9645 10.3842 19.6459C10.2284 19.9963 10.4718 20.4148 10.8514 20.4148H17.9082C19.9231 20.4148 21.5681 18.7698 21.5681 16.755V16.57C21.5681 16.0347 21.1301 15.5967 20.5947 15.5967H19.7479C18.8135 15.5967 17.918 15.0224 17.6746 14.1172C17.4799 13.3774 17.7136 12.6571 18.2002 12.1899C18.5604 11.82 19.0568 11.6059 19.6019 11.6059ZM14.2679 11.4112H9.40106C9.00198 11.4112 8.67104 11.0803 8.67104 10.6812C8.67104 10.2821 9.00198 9.95119 9.40106 9.95119H14.2679C14.6669 9.95119 14.9979 10.2821 14.9979 10.6812C14.9979 11.0803 14.6669 11.4112 14.2679 11.4112Z" fill="#101010"/>
</svg>
