<svg width="20" height="20" viewBox="0 0 20 20" fill="none" xmlns="http://www.w3.org/2000/svg">
<path d="M12.85 1.95005V5.75005H11.35V1.95005C11.35 1.68005 11.11 1.55005 10.95 1.55005C10.9 1.55005 10.85 1.56005 10.8 1.58005L2.87 4.57005C2.34 4.77005 2 5.27005 2 5.84005V6.51005C1.09 7.19005 0.5 8.28005 0.5 9.51005V5.84005C0.5 4.65005 1.23 3.59005 2.34 3.17005L10.28 0.170049C10.5 0.090049 10.73 0.0500488 10.95 0.0500488C11.95 0.0500488 12.85 0.860049 12.85 1.95005Z" fill="#101010"/>
<path d="M19.5002 12.5V13.5C19.5002 13.77 19.2902 13.99 19.0102 14H17.5502C17.0202 14 16.5402 13.61 16.5002 13.09C16.4702 12.78 16.5902 12.49 16.7902 12.29C16.9702 12.1 17.2202 12 17.4902 12H19.0002C19.2902 12.01 19.5002 12.23 19.5002 12.5Z" fill="#101010"/>
<path d="M17.48 10.95H18.5C19.05 10.95 19.5 10.5 19.5 9.95V9.51C19.5 7.44 17.81 5.75 15.74 5.75H4.26C3.41 5.75 2.63 6.03 2 6.51C1.09 7.19 0.5 8.28 0.5 9.51V16.24C0.5 18.31 2.19 20 4.26 20H15.74C17.81 20 19.5 18.31 19.5 16.24V16.05C19.5 15.5 19.05 15.05 18.5 15.05H17.63C16.67 15.05 15.75 14.46 15.5 13.53C15.29 12.77 15.54 12.04 16.04 11.55C16.41 11.17 16.92 10.95 17.48 10.95ZM12 10.75H5C4.59 10.75 4.25 10.41 4.25 10C4.25 9.59 4.59 9.25 5 9.25H12C12.41 9.25 12.75 9.59 12.75 10C12.75 10.41 12.41 10.75 12 10.75Z" fill="#101010"/>
</svg>
