<svg width="21" height="21" viewBox="0 0 21 21" fill="none" xmlns="http://www.w3.org/2000/svg">
<path d="M4.00879 13C3.06879 13 2.19879 13.33 1.50879 13.88C0.588789 14.61 0.00878906 15.74 0.00878906 17C0.00878906 19.21 1.79879 21 4.00879 21C5.01879 21 5.93879 20.62 6.64879 20C7.47879 19.27 8.00879 18.2 8.00879 17C8.00879 14.79 6.21879 13 4.00879 13ZM5.00879 17.25C5.00879 17.51 4.86879 17.76 4.64879 17.89L3.39879 18.64C3.27879 18.72 3.13879 18.75 3.00879 18.75C2.75879 18.75 2.50879 18.62 2.36879 18.39C2.15879 18.03 2.26879 17.57 2.62879 17.36L3.51879 16.83V15.75C3.50879 15.34 3.84879 15 4.25879 15C4.66879 15 5.00879 15.34 5.00879 15.75V17.25Z" fill="#101010"/>
<path d="M13.8588 1.95005V5.75005H12.3588V1.95005C12.3588 1.68005 12.1188 1.55005 11.9588 1.55005C11.9088 1.55005 11.8588 1.56005 11.8088 1.58005L3.87879 4.57005C3.34879 4.77005 3.00879 5.27005 3.00879 5.84005V6.51005C2.09879 7.19005 1.50879 8.28005 1.50879 9.51005V5.84005C1.50879 4.65005 2.23879 3.59005 3.34879 3.17005L11.2888 0.170049C11.5088 0.090049 11.7388 0.0500488 11.9588 0.0500488C12.9588 0.0500488 13.8588 0.860049 13.8588 1.95005Z" fill="#101010"/>
<path d="M20.509 12.5V13.5C20.509 13.77 20.299 13.99 20.019 14H18.559C18.029 14 17.549 13.61 17.509 13.09C17.479 12.78 17.599 12.49 17.799 12.29C17.979 12.1 18.229 12 18.499 12H20.009C20.299 12.01 20.509 12.23 20.509 12.5Z" fill="#101010"/>
<path d="M18.4888 10.95H19.5088C20.0588 10.95 20.5088 10.5 20.5088 9.95V9.51C20.5088 7.44 18.8188 5.75 16.7488 5.75H5.26879C4.41879 5.75 3.63879 6.03 3.00879 6.51C2.09879 7.19 1.50879 8.28 1.50879 9.51V11.29C1.50879 11.67 1.90879 11.91 2.26879 11.79C2.82879 11.6 3.41879 11.5 4.00879 11.5C7.03879 11.5 9.50879 13.97 9.50879 17C9.50879 17.72 9.31879 18.51 9.01879 19.21C8.85879 19.57 9.10879 20 9.49879 20H16.7488C18.8188 20 20.5088 18.31 20.5088 16.24V16.05C20.5088 15.5 20.0588 15.05 19.5088 15.05H18.6388C17.6788 15.05 16.7588 14.46 16.5088 13.53C16.3088 12.77 16.5488 12.03 17.0488 11.55C17.4188 11.17 17.9288 10.95 18.4888 10.95ZM13.0088 10.75H8.00879C7.59879 10.75 7.25879 10.41 7.25879 10C7.25879 9.59 7.59879 9.25 8.00879 9.25H13.0088C13.4188 9.25 13.7588 9.59 13.7588 10C13.7588 10.41 13.4188 10.75 13.0088 10.75Z" fill="#101010"/>
</svg>
