<svg width="20" height="18" viewBox="0 0 20 18" fill="none" xmlns="http://www.w3.org/2000/svg">
<path d="M19.14 6.89996H10.75V12.38C10.75 12.79 10.41 13.13 10 13.13C9.59 13.13 9.25 12.79 9.25 12.38V6.89996H0.86C0.38 6.89996 0 7.27996 0 7.75996C0 13.65 4.11 17.76 10 17.76C15.89 17.76 20 13.65 20 7.75996C20 7.27996 19.62 6.89996 19.14 6.89996Z" fill="#101010"/>
<path d="M10.7504 2.79999L12.3104 4.35999C12.6004 4.64999 13.0804 4.64999 13.3704 4.35999C13.6604 4.06999 13.6604 3.58999 13.3704 3.29999L10.5204 0.459993C10.2304 0.169993 9.75039 0.169993 9.46039 0.459993L6.62039 3.30999C6.48039 3.45999 6.40039 3.64999 6.40039 3.83999C6.40039 4.02999 6.47039 4.21999 6.62039 4.36999C6.91039 4.65999 7.39039 4.65999 7.68039 4.36999L9.24039 2.80999V6.89999H10.7404V2.79999H10.7504Z" fill="#101010"/>
</svg>
