<svg width="18" height="20" viewBox="0 0 18 20" fill="none" xmlns="http://www.w3.org/2000/svg">
<path d="M17.6009 2.1001V4.3001C17.6009 5.1001 17.1009 6.1001 16.6009 6.6001L12.3009 10.4001C11.7009 10.9001 11.3009 11.9001 11.3009 12.7001V17.0001C11.3009 17.6001 10.9009 18.4001 10.4009 18.7001L9.00086 19.6001C7.70086 20.4001 5.90086 19.5001 5.90086 17.9001V12.6001C5.90086 11.9001 5.50086 11.0001 5.10086 10.5001L4.63086 10.0101C4.32086 9.6801 4.26086 9.1801 4.51086 8.7901L9.63086 0.570098C9.81086 0.280098 10.1309 0.100098 10.4809 0.100098H15.6009C16.7009 0.100098 17.6009 1.0001 17.6009 2.1001Z" fill="#101010"/>
<path d="M7.35039 1.6301L3.80039 7.3201C3.46039 7.8701 2.68039 7.9501 2.23039 7.4801L1.30039 6.5001C0.800391 6.0001 0.400391 5.1001 0.400391 4.5001V2.2001C0.400391 1.0001 1.30039 0.100098 2.40039 0.100098H6.50039C7.28039 0.100098 7.76039 0.960098 7.35039 1.6301Z" fill="#101010"/>
</svg>
