<svg width="16" height="20" viewBox="0 0 16 20" fill="none" xmlns="http://www.w3.org/2000/svg">
<path d="M14.0204 10.33L12.8004 9.11C12.5104 8.86 12.3404 8.49 12.3304 8.08C12.3104 7.63 12.4904 7.18 12.8204 6.85L14.0204 5.65C15.0604 4.61 15.4504 3.61 15.1204 2.82C14.8004 2.04 13.8104 1.61 12.3504 1.61H1.90039V0.75C1.90039 0.34 1.56039 0 1.15039 0C0.740391 0 0.400391 0.34 0.400391 0.75V19.25C0.400391 19.66 0.740391 20 1.15039 20C1.56039 20 1.90039 19.66 1.90039 19.25V14.37H12.3504C13.7904 14.37 14.7604 13.93 15.0904 13.14C15.4204 12.35 15.0404 11.36 14.0204 10.33Z" fill="#101010"/>
</svg>
