<svg width="21" height="20" viewBox="0 0 21 20" fill="none" xmlns="http://www.w3.org/2000/svg">
<path d="M10.9697 0C5.44973 0 0.969727 4.48 0.969727 10C0.969727 15.52 5.44973 20 10.9697 20C16.4897 20 20.9697 15.52 20.9697 10C20.9697 4.48 16.4997 0 10.9697 0ZM14.7197 10.35L10.9997 14.58L10.5597 15.08C9.94973 15.77 9.44973 15.59 9.44973 14.66V10.7H7.74973C6.97973 10.7 6.76973 10.23 7.27973 9.65L10.9997 5.42L11.4397 4.92C12.0497 4.23 12.5497 4.41 12.5497 5.34V9.3H14.2497C15.0197 9.3 15.2297 9.77 14.7197 10.35Z" fill="#101010"/>
</svg>
