<svg width="20" height="20" viewBox="0 0 20 20" fill="none" xmlns="http://www.w3.org/2000/svg">
<path d="M19.0169 5.99175C19.4148 6.55833 18.9405 7.25 18.2482 7.25H1C0.447716 7.25 0 6.80228 0 6.25V4.42C0 1.98 1.98 0 4.42 0H6.74C8.37 0 8.88 0.53 9.53 1.4L10.93 3.26C11.24 3.67 11.28 3.72 11.86 3.72H14.65C16.4546 3.72 18.0516 4.61709 19.0169 5.99175Z" fill="#101010"/>
<path d="M19.9834 9.74624C19.9815 9.19528 19.5343 8.74962 18.9834 8.74963L0.999984 8.74994C0.447706 8.74995 0 9.19766 0 9.74994V14.65C0 17.6 2.4 20 5.35 20H14.65C17.6 20 20 17.6 20 14.65L19.9834 9.74624ZM12.34 16.28C12.19 16.42 12 16.5 11.81 16.5C11.62 16.5 11.42 16.42 11.28 16.28L10.04 15.04L8.76 16.32C8.62 16.46 8.42 16.54 8.23 16.54C8.04 16.54 7.85 16.46 7.7 16.32C7.41 16.03 7.41 15.55 7.7 15.26L8.98 13.98L7.74 12.74C7.45 12.45 7.45 11.97 7.74 11.68C8.04 11.39 8.51 11.39 8.8 11.68L10.04 12.92L11.24 11.72C11.53 11.43 12 11.43 12.3 11.72C12.59 12.02 12.59 12.49 12.3 12.78L11.1 13.98L12.34 15.22C12.63 15.51 12.63 15.99 12.34 16.28Z" fill="#101010"/>
</svg>
