<svg width="20" height="20" viewBox="0 0 20 20" fill="none" xmlns="http://www.w3.org/2000/svg">
<path d="M19.0169 5.99175C19.4148 6.55833 18.9405 7.25 18.2482 7.25H1C0.447716 7.25 0 6.80228 0 6.25V4.42C0 1.98 1.98 0 4.42 0H6.74C8.37 0 8.88 0.53 9.53 1.4L10.93 3.26C11.24 3.67 11.28 3.72 11.86 3.72H14.65C16.4546 3.72 18.0516 4.61709 19.0169 5.99175Z" fill="#101010"/>
<path d="M19.9834 9.74624C19.9815 9.19528 19.5343 8.74962 18.9834 8.74963L0.999984 8.74995C0.447706 8.74996 0 9.19767 0 9.74995V14.65C0 17.6 2.4 20 5.35 20H14.65C17.6 20 20 17.6 20 14.65L19.9834 9.74624ZM12.5 14.75H10.81V16.5C10.81 16.91 10.47 17.25 10.06 17.25C9.64 17.25 9.31 16.91 9.31 16.5V14.75H7.5C7.09 14.75 6.75 14.41 6.75 14C6.75 13.59 7.09 13.25 7.5 13.25H9.31V11.5C9.31 11.09 9.64 10.75 10.06 10.75C10.47 10.75 10.81 11.09 10.81 11.5V13.25H12.5C12.91 13.25 13.25 13.59 13.25 14C13.25 14.41 12.91 14.75 12.5 14.75Z" fill="#101010"/>
</svg>
