<svg width="20" height="20" viewBox="0 0 20 20" fill="none" xmlns="http://www.w3.org/2000/svg">
<path d="M19.0169 5.99175C19.4148 6.55833 18.9405 7.25 18.2482 7.25H1C0.447716 7.25 0 6.80228 0 6.25V4.42C0 1.98 1.98 0 4.42 0H6.74C8.37 0 8.88 0.53 9.53 1.4L10.93 3.26C11.24 3.67 11.28 3.72 11.86 3.72H14.65C16.4546 3.72 18.0516 4.61709 19.0169 5.99175Z" fill="#101010"/>
<path d="M19.9834 9.74663C19.9815 9.19567 19.5343 8.75002 18.9834 8.75002L1 8.75C0.447715 8.75 0 9.19771 0 9.75V14.65C0 17.6 2.4 20 5.35 20H14.65C17.6 20 20 17.6 20 14.65L19.9834 9.74663ZM12.54 14.97L10.39 16.85C10.28 16.95 10.14 17 10 17C9.86 17 9.72 16.95 9.61 16.85L7.46 14.97C6.78 14.37 6.69 13.35 7.26 12.64C7.83 11.92 8.86 11.79 9.6 12.34L10 12.64L10.4 12.34C11.14 11.79 12.17 11.92 12.74 12.64C13.31 13.35 13.22 14.37 12.54 14.97Z" fill="#101010"/>
</svg>
