<svg width="20" height="20" viewBox="0 0 20 20" fill="none" xmlns="http://www.w3.org/2000/svg">
<path d="M17.4344 2.03448C17.5667 2.2424 17.3401 2.48461 17.0998 2.43C16.6298 2.29 16.1098 2.22 15.5798 2.22H12.2795C12.1223 2.22 11.9743 2.14605 11.8798 2.02037L10.7298 0.49C10.589 0.290444 10.7221 0 10.9664 0H13.7198C15.2808 0 16.6559 0.810731 17.4344 2.03448Z" fill="#101010"/>
<path d="M18.14 4.54C17.71 4.23 17.22 4 16.69 3.87C16.33 3.77 15.96 3.72 15.58 3.72H11.86C11.28 3.72 11.24 3.67 10.93 3.26L9.53 1.4C8.88 0.53 8.37 0 6.74 0H4.42C1.98 0 0 1.98 0 4.42V15.58C0 18.02 1.98 20 4.42 20H15.58C18.02 20 20 18.02 20 15.58V8.14C20 6.65 19.27 5.34 18.14 4.54ZM12.39 14.34H7.6C7.21 14.34 6.91 14.03 6.91 13.64C6.91 13.26 7.21 12.94 7.6 12.94H12.39C12.78 12.94 13.09 13.26 13.09 13.64C13.09 14.03 12.78 14.34 12.39 14.34Z" fill="#101010"/>
</svg>
