<svg width="20" height="20" viewBox="0 0 20 20" fill="none" xmlns="http://www.w3.org/2000/svg">
<path d="M19.12 4.98L15.02 0.88C14.54 0.4 13.58 0 12.9 0H7.1C6.42 0 5.46 0.4 4.98 0.88L0.88 4.98C0.4 5.46 0 6.42 0 7.1V12.9C0 13.58 0.4 14.54 0.88 15.02L4.98 19.12C5.46 19.6 6.42 20 7.1 20H12.9C13.58 20 14.54 19.6 15.02 19.12L19.12 15.02C19.6 14.54 20 13.58 20 12.9V7.1C20 6.42 19.6 5.46 19.12 4.98ZM14.03 12.97C14.32 13.26 14.32 13.74 14.03 14.03C13.88 14.18 13.69 14.25 13.5 14.25C13.31 14.25 13.12 14.18 12.97 14.03L10 11.06L7.03 14.03C6.88 14.18 6.69 14.25 6.5 14.25C6.31 14.25 6.12 14.18 5.97 14.03C5.68 13.74 5.68 13.26 5.97 12.97L8.94 10L5.97 7.03C5.68 6.74 5.68 6.26 5.97 5.97C6.26 5.68 6.74 5.68 7.03 5.97L10 8.94L12.97 5.97C13.26 5.68 13.74 5.68 14.03 5.97C14.32 6.26 14.32 6.74 14.03 7.03L11.06 10L14.03 12.97Z" fill="#101010"/>
</svg>
