<svg width="20" height="20" viewBox="0 0 20 20" fill="none" xmlns="http://www.w3.org/2000/svg">
<path d="M14.19 0H5.81C2.17 0 0 2.17 0 5.81V14.18C0 17.83 2.17 20 5.81 20H14.18C17.82 20 19.99 17.83 19.99 14.19V5.81C20 2.17 17.83 0 14.19 0ZM15.53 7.72L13.96 9.29C13.81 9.44 13.62 9.51 13.43 9.51C13.24 9.51 13.05 9.44 12.9 9.29C12.61 9 12.61 8.52 12.9 8.23L13.16 7.97H8.08C6.8 7.97 5.75 9.01 5.75 10.3C5.75 11.59 6.79 12.63 8.08 12.63H13C13.41 12.63 13.75 12.97 13.75 13.38C13.75 13.79 13.41 14.13 13 14.13H8.08C5.97 14.13 4.25 12.41 4.25 10.3C4.25 8.19 5.97 6.47 8.08 6.47H13.23L12.9 6.15C12.61 5.86 12.61 5.38 12.9 5.09C13.19 4.8 13.67 4.8 13.96 5.09L15.53 6.66C15.82 6.96 15.82 7.43 15.53 7.72Z" fill="#101010"/>
</svg>
