<svg width="20" height="22" viewBox="0 0 20 22" fill="none" xmlns="http://www.w3.org/2000/svg">
<path d="M12.4294 15.9201H10.1394C9.72945 15.9201 9.38945 15.5801 9.38945 15.1701C9.38945 14.7601 9.72945 14.4201 10.1394 14.4201H12.4294C12.8594 14.4201 13.2094 14.0701 13.2094 13.6401C13.2094 13.2101 12.8594 12.8601 12.4294 12.8601H10.1394C9.89945 12.8601 9.66944 12.7401 9.52944 12.5501C9.38944 12.3601 9.34945 12.1001 9.42945 11.8701L10.1894 9.58007C10.2894 9.27007 10.5794 9.07007 10.8994 9.07007H13.9594C14.3694 9.07007 14.7094 9.41007 14.7094 9.82007C14.7094 10.2301 14.3694 10.5701 13.9594 10.5701H11.4394L11.1794 11.3601H12.4294C13.6894 11.3601 14.7094 12.3801 14.7094 13.6401C14.7094 14.9001 13.6794 15.9201 12.4294 15.9201Z" fill="#101010"/>
<path d="M7.53943 15.9201C7.12943 15.9201 6.78943 15.5801 6.78943 15.1701V11.7801L6.59943 12.0001C6.31943 12.3101 5.84943 12.3301 5.53943 12.0601C5.23943 11.7801 5.20943 11.3101 5.48943 11.0001L6.98943 9.33008C7.19943 9.10008 7.52943 9.02008 7.81943 9.13008C8.10943 9.24008 8.29943 9.52008 8.29943 9.83008V15.1801C8.28943 15.5901 7.95943 15.9201 7.53943 15.9201Z" fill="#101010"/>
<path d="M17.6896 6.35002C17.4396 6.02002 16.9696 5.95002 16.6396 6.20002C16.3096 6.45002 16.2396 6.92002 16.4896 7.25002C17.5696 8.69002 18.1396 10.37 18.1396 12.11C18.1396 16.6 14.4896 20.25 9.99961 20.25C5.50961 20.25 1.85961 16.6 1.85961 12.11C1.85961 7.62002 5.50961 3.98002 9.99961 3.98002C10.5796 3.98002 11.1696 4.05002 11.8096 4.20002C11.8396 4.21002 11.8696 4.20002 11.8996 4.20002C11.9296 4.20002 11.9496 4.22002 11.9696 4.22002C11.9996 4.22002 12.0196 4.21002 12.0496 4.21002C12.0796 4.21002 12.1096 4.20002 12.1496 4.19002C12.2096 4.18002 12.2596 4.15002 12.3096 4.13002C12.3396 4.11002 12.3696 4.10002 12.3996 4.08002C12.4096 4.07002 12.4296 4.07002 12.4396 4.06002C12.4696 4.04002 12.4796 4.01002 12.4996 3.99002C12.5396 3.95002 12.5696 3.92002 12.5996 3.87002C12.6296 3.83002 12.6396 3.78002 12.6596 3.73002C12.6696 3.70002 12.6896 3.67002 12.6996 3.64002C12.6996 3.62002 12.6996 3.61002 12.6996 3.59002C12.7096 3.54002 12.7096 3.49002 12.6996 3.44002C12.6996 3.39002 12.6996 3.35002 12.6896 3.30002C12.6796 3.26002 12.6596 3.22002 12.6396 3.17002C12.6196 3.12002 12.5996 3.07002 12.5696 3.03002C12.5696 3.02002 12.5696 3.01002 12.5596 3.00002L10.5796 0.530024C10.3196 0.210024 9.84961 0.150024 9.52961 0.410024C9.20961 0.670024 9.15961 1.14002 9.40961 1.46002L10.2296 2.48002C10.1496 2.48002 10.0696 2.47002 9.98961 2.47002C4.67961 2.47002 0.349609 6.79002 0.349609 12.11C0.349609 17.43 4.66961 21.75 9.98961 21.75C15.3096 21.75 19.6296 17.43 19.6296 12.11C19.6396 10.04 18.9596 8.05002 17.6896 6.35002Z" fill="#101010"/>
</svg>
