<svg width="20" height="22" viewBox="0 0 20 22" fill="none" xmlns="http://www.w3.org/2000/svg">
<path d="M17.6896 6.34996C17.4396 6.01996 16.9696 5.94996 16.6396 6.19996C16.3096 6.44996 16.2396 6.91996 16.4896 7.24996C17.5696 8.68996 18.1396 10.37 18.1396 12.11C18.1396 16.6 14.4896 20.25 9.99961 20.25C5.50961 20.25 1.85961 16.6 1.85961 12.11C1.85961 7.61996 5.50961 3.97996 9.99961 3.97996C10.5796 3.97996 11.1696 4.04996 11.8096 4.19996C11.8396 4.20996 11.8696 4.19996 11.9096 4.19996C11.9296 4.19996 11.9596 4.21996 11.9796 4.21996C12.0096 4.21996 12.0296 4.20996 12.0596 4.20996C12.0996 4.20996 12.1296 4.19996 12.1596 4.18996C12.2096 4.17996 12.2596 4.15996 12.3096 4.12996C12.3396 4.10996 12.3796 4.09996 12.4096 4.07996C12.4196 4.06996 12.4396 4.06996 12.4496 4.05996C12.4796 4.03996 12.4896 4.00996 12.5096 3.98996C12.5496 3.94996 12.5796 3.91996 12.6096 3.86996C12.6396 3.82996 12.6496 3.77996 12.6696 3.73996C12.6796 3.70996 12.6996 3.67996 12.7096 3.64996C12.7096 3.62996 12.7096 3.61996 12.7096 3.59996C12.7196 3.54996 12.7196 3.49996 12.7096 3.44996C12.7096 3.39996 12.7096 3.35996 12.6996 3.30996C12.6896 3.26996 12.6696 3.22996 12.6496 3.17996C12.6296 3.12996 12.6096 3.07996 12.5796 3.03996C12.5696 3.01996 12.5696 3.00996 12.5596 2.99996L10.5796 0.529956C10.3196 0.209956 9.84961 0.159956 9.52961 0.409956C9.20961 0.669956 9.15961 1.13996 9.40961 1.45996L10.2296 2.47996C10.1496 2.47996 10.0696 2.46996 9.98961 2.46996C4.67961 2.46996 0.349609 6.78996 0.349609 12.11C0.349609 17.43 4.66961 21.75 9.98961 21.75C15.3096 21.75 19.6296 17.43 19.6296 12.11C19.6396 10.04 18.9596 8.04996 17.6896 6.34996Z" fill="#101010"/>
<path d="M7.53955 15.6698C7.12955 15.6698 6.78955 15.3298 6.78955 14.9198V11.5298L6.59955 11.7498C6.31955 12.0598 5.84955 12.0798 5.53955 11.8098C5.22955 11.5298 5.20955 11.0598 5.47955 10.7498L6.97955 9.07984C7.18955 8.84984 7.51955 8.76984 7.80955 8.87984C8.09955 8.98984 8.28955 9.26984 8.28955 9.57984V14.9298C8.28955 15.3398 7.95955 15.6698 7.53955 15.6698Z" fill="#101010"/>
<path d="M12 15.6701C10.48 15.6701 9.25 14.4401 9.25 12.9201V11.5701C9.25 10.0501 10.48 8.82007 12 8.82007C13.52 8.82007 14.75 10.0501 14.75 11.5701V12.9201C14.75 14.4401 13.52 15.6701 12 15.6701ZM12 10.3301C11.31 10.3301 10.75 10.8901 10.75 11.5801V12.9301C10.75 13.6201 11.31 14.1801 12 14.1801C12.69 14.1801 13.25 13.6201 13.25 12.9301V11.5801C13.25 10.8901 12.69 10.3301 12 10.3301Z" fill="#101010"/>
</svg>
