<svg width="20" height="21" viewBox="0 0 20 21" fill="none" xmlns="http://www.w3.org/2000/svg">
<path d="M17 7C18.6569 7 20 5.65685 20 4C20 2.34315 18.6569 1 17 1C15.3431 1 14 2.34315 14 4C14 5.65685 15.3431 7 17 7Z" fill="#101010"/>
<path d="M15.7902 8.34C14.2802 7.94 13.0602 6.72 12.6602 5.21C12.4002 4.25 12.4602 3.33 12.7502 2.51C12.9502 1.95 12.6102 1.33 12.0302 1.21C10.5602 0.900002 8.97021 0.910002 7.31021 1.36C3.53021 2.42 0.640211 5.69 0.100211 9.58C-0.819789 16.2 4.79021 21.81 11.4102 20.9C15.3102 20.36 18.5702 17.47 19.6202 13.68C20.0802 12.03 20.0902 10.44 19.7802 8.96C19.6602 8.38 19.0402 8.05 18.4802 8.24C17.6702 8.53 16.7502 8.59 15.7902 8.34Z" fill="#101010"/>
</svg>
