<svg width="18" height="20" viewBox="0 0 18 20" fill="none" xmlns="http://www.w3.org/2000/svg">
<path d="M17.4098 4.95994V6.78994C17.4098 7.42994 17.1098 8.02994 16.5898 8.39994L5.58984 16.4599C4.87984 16.9799 3.90984 16.9799 3.20984 16.4499L1.76984 15.3699C1.11984 14.8799 0.589844 13.8199 0.589844 13.0099V4.95994C0.589844 3.83994 1.44984 2.59994 2.49984 2.20994L7.96984 0.159941C8.53984 -0.0500586 9.45984 -0.0500586 10.0298 0.159941L15.4998 2.20994C16.5498 2.59994 17.4098 3.83994 17.4098 4.95994Z" fill="#101010"/>
<path d="M15.8196 10.3399C16.4796 9.85993 17.4096 10.3299 17.4096 11.1499V13.0299C17.4096 13.8399 16.8796 14.8899 16.2296 15.3799L10.7596 19.4699C10.2796 19.8199 9.63962 19.9999 8.99962 19.9999C8.35962 19.9999 7.71962 19.8199 7.23962 19.4599L6.40962 18.8399C5.86962 18.4399 5.86962 17.6299 6.41962 17.2299L15.8196 10.3399Z" fill="#101010"/>
</svg>
