<svg width="21" height="21" viewBox="0 0 21 21" fill="none" xmlns="http://www.w3.org/2000/svg">
<path d="M18.97 7H16.03C14.76 7 14 6.24 14 4.97V2.03C14 0.76 14.76 0 16.03 0H18.97C20.24 0 21 0.76 21 2.03V4.97C21 6.24 20.24 7 18.97 7ZM19.19 3.69C19.07 3.57 18.91 3.51 18.75 3.51C18.59 3.51 18.43 3.57 18.31 3.69L18.13 3.87V1.63C18.13 1.28 17.85 1 17.5 1C17.15 1 16.87 1.28 16.87 1.63V3.87L16.69 3.69C16.45 3.45 16.05 3.45 15.81 3.69C15.57 3.93 15.57 4.33 15.81 4.57L17.06 5.82C17.11 5.87 17.18 5.91 17.25 5.94C17.27 5.95 17.29 5.95 17.31 5.96C17.36 5.98 17.41 5.99 17.47 5.99C17.49 5.99 17.51 5.99 17.53 5.99C17.6 5.99 17.66 5.98 17.73 5.95C17.74 5.95 17.74 5.95 17.75 5.95C17.82 5.92 17.88 5.88 17.93 5.83C17.94 5.82 17.94 5.82 17.95 5.82L19.2 4.57C19.44 4.33 19.44 3.93 19.19 3.69Z" fill="#101010"/>
<path d="M7.00012 9.38012C8.31456 9.38012 9.38012 8.31456 9.38012 7.00012C9.38012 5.68568 8.31456 4.62012 7.00012 4.62012C5.68568 4.62012 4.62012 5.68568 4.62012 7.00012C4.62012 8.31456 5.68568 9.38012 7.00012 9.38012Z" fill="#101010"/>
<path d="M18.97 7H18.5V11.61L18.37 11.5C17.59 10.83 16.33 10.83 15.55 11.5L11.39 15.07C10.61 15.74 9.35 15.74 8.57 15.07L8.23 14.79C7.52 14.17 6.39 14.11 5.59 14.65L1.85 17.16C1.63 16.6 1.5 15.95 1.5 15.19V6.81C1.5 3.99 2.99 2.5 5.81 2.5H14V2.03C14 1.63 14.07 1.29 14.23 1H5.81C2.17 1 0 3.17 0 6.81V15.19C0 16.28 0.19 17.23 0.56 18.03C1.42 19.93 3.26 21 5.81 21H14.19C17.83 21 20 18.83 20 15.19V6.77C19.71 6.93 19.37 7 18.97 7Z" fill="#101010"/>
</svg>
