<svg width="21" height="21" viewBox="0 0 21 21" fill="none" xmlns="http://www.w3.org/2000/svg">
<path d="M18.97 0H16.03C14.76 0 14 0.76 14 2.03V4.97C14 6.24 14.76 7 16.03 7H18.97C20.24 7 21 6.24 21 4.97V2.03C21 0.76 20.24 0 18.97 0ZM19.19 3.31C19.07 3.43 18.91 3.49 18.75 3.49C18.59 3.49 18.43 3.43 18.31 3.31L18.13 3.13V5.37C18.13 5.72 17.85 6 17.5 6C17.15 6 16.87 5.72 16.87 5.37V3.13L16.69 3.31C16.45 3.55 16.05 3.55 15.81 3.31C15.57 3.07 15.57 2.67 15.81 2.43L17.06 1.18C17.11 1.13 17.18 1.09 17.25 1.06C17.27 1.05 17.29 1.05 17.31 1.04C17.36 1.02 17.41 1.01 17.47 1.01C17.49 1.01 17.51 1.01 17.53 1.01C17.6 1.01 17.66 1.02 17.73 1.05C17.74 1.05 17.74 1.05 17.75 1.05C17.82 1.08 17.88 1.12 17.93 1.17C17.94 1.18 17.94 1.18 17.95 1.18L19.2 2.43C19.44 2.67 19.44 3.07 19.19 3.31Z" fill="#101010"/>
<path d="M7.00012 9.38012C8.31456 9.38012 9.38012 8.31456 9.38012 7.00012C9.38012 5.68568 8.31456 4.62012 7.00012 4.62012C5.68568 4.62012 4.62012 5.68568 4.62012 7.00012C4.62012 8.31456 5.68568 9.38012 7.00012 9.38012Z" fill="#101010"/>
<path d="M18.97 7H18.5V11.61L18.37 11.5C17.59 10.83 16.33 10.83 15.55 11.5L11.39 15.07C10.61 15.74 9.35 15.74 8.57 15.07L8.23 14.79C7.52 14.17 6.39 14.11 5.59 14.65L1.85 17.16C1.63 16.6 1.5 15.95 1.5 15.19V6.81C1.5 3.99 2.99 2.5 5.81 2.5H14V2.03C14 1.63 14.07 1.29 14.23 1H5.81C2.17 1 0 3.17 0 6.81V15.19C0 16.28 0.19 17.23 0.56 18.03C1.42 19.93 3.26 21 5.81 21H14.19C17.83 21 20 18.83 20 15.19V6.77C19.71 6.93 19.37 7 18.97 7Z" fill="#101010"/>
</svg>
