<svg width="21" height="21" viewBox="0 0 21 21" fill="none" xmlns="http://www.w3.org/2000/svg">
<path d="M7.00012 9.38012C8.31456 9.38012 9.38012 8.31456 9.38012 7.00012C9.38012 5.68568 8.31456 4.62012 7.00012 4.62012C5.68568 4.62012 4.62012 5.68568 4.62012 7.00012C4.62012 8.31456 5.68568 9.38012 7.00012 9.38012Z" fill="#101010"/>
<path d="M18.97 7H18.5V11.61L18.37 11.5C17.59 10.83 16.33 10.83 15.55 11.5L11.39 15.07C10.61 15.74 9.35 15.74 8.57 15.07L8.23 14.79C7.52 14.17 6.39 14.11 5.59 14.65L1.85 17.16C1.63 16.6 1.5 15.95 1.5 15.19V6.81C1.5 3.99 2.99 2.5 5.81 2.5H14V2.03C14 1.63 14.07 1.29 14.23 1H5.81C2.17 1 0 3.17 0 6.81V15.19C0 16.28 0.19 17.23 0.56 18.03C1.42 19.93 3.26 21 5.81 21H14.19C17.83 21 20 18.83 20 15.19V6.77C19.71 6.93 19.37 7 18.97 7Z" fill="#101010"/>
<path d="M18.97 0H16.03C15.16 0 14.52 0.36 14.23 1C14.07 1.29 14 1.63 14 2.03V2.5V4.97C14 6.24 14.76 7 16.03 7H18.5H18.97C19.37 7 19.71 6.93 20 6.77C20.64 6.48 21 5.84 21 4.97V2.03C21 0.76 20.24 0 18.97 0ZM18.3 5.21C17.98 5.4 17.67 5.5 17.5 5.5C17.05 5.5 15.77 4.88 15.39 3.68C15.33 3.5 15.3 3.3 15.3 3.11C15.3 2.94 15.32 2.77 15.37 2.61C15.5 2.14 15.81 1.73 16.33 1.56C16.53 1.5 16.74 1.48 16.93 1.52C17.13 1.55 17.32 1.63 17.49 1.76C17.81 1.51 18.25 1.43 18.67 1.56C19.58 1.86 19.87 2.89 19.61 3.68C19.57 3.8 19.52 3.92 19.46 4.03C19.19 4.57 18.73 4.97 18.3 5.21Z" fill="#101010"/>
</svg>
