<svg width="21" height="21" viewBox="0 0 21 21" fill="none" xmlns="http://www.w3.org/2000/svg">
<path d="M18.97 0H16.03C14.76 0 14 0.76 14 2.03V4.97C14 6.24 14.76 7 16.03 7H18.97C20.24 7 21 6.24 21 4.97V2.03C21 0.76 20.24 0 18.97 0ZM19.63 2.45L17.26 5.22C17.17 5.33 17.03 5.4 16.89 5.4C16.88 5.4 16.88 5.4 16.87 5.4C16.73 5.4 16.6 5.35 16.5 5.25L15.4 4.17C15.2 3.97 15.2 3.64 15.4 3.44C15.6 3.24 15.93 3.23 16.13 3.44L16.83 4.13L18.83 1.79C19.02 1.57 19.34 1.55 19.56 1.73C19.79 1.91 19.81 2.24 19.63 2.45Z" fill="#101010"/>
<path d="M7.00012 9.38012C8.31456 9.38012 9.38012 8.31456 9.38012 7.00012C9.38012 5.68568 8.31456 4.62012 7.00012 4.62012C5.68568 4.62012 4.62012 5.68568 4.62012 7.00012C4.62012 8.31456 5.68568 9.38012 7.00012 9.38012Z" fill="#101010"/>
<path d="M18.97 7H18.5V11.61L18.37 11.5C17.59 10.83 16.33 10.83 15.55 11.5L11.39 15.07C10.61 15.74 9.35 15.74 8.57 15.07L8.23 14.79C7.52 14.17 6.39 14.11 5.59 14.65L1.85 17.16C1.63 16.6 1.5 15.95 1.5 15.19V6.81C1.5 3.99 2.99 2.5 5.81 2.5H14V2.03C14 1.63 14.07 1.29 14.23 1H5.81C2.17 1 0 3.17 0 6.81V15.19C0 16.28 0.19 17.23 0.56 18.03C1.42 19.93 3.26 21 5.81 21H14.19C17.83 21 20 18.83 20 15.19V6.77C19.71 6.93 19.37 7 18.97 7Z" fill="#101010"/>
</svg>
