<svg width="22" height="21" viewBox="0 0 22 21" fill="none" xmlns="http://www.w3.org/2000/svg">
<path d="M21.34 7.33L19.34 6.33C18.97 6.15 18.51 6.29 18.33 6.66C18.14 7.04 18.29 7.49 18.66 7.67L20.25 8.46V13.25L16.5 13.26V3C16.5 1 15.16 0 13.5 0H5.5C3.84 0 2.5 1 2.5 3V19.25H1C0.59 19.25 0.25 19.59 0.25 20C0.25 20.41 0.59 20.75 1 20.75H18C18.41 20.75 18.75 20.41 18.75 20C18.75 19.59 18.41 19.25 18 19.25H16.5V14.76L21 14.75C21.42 14.75 21.75 14.41 21.75 14V8C21.75 7.72 21.59 7.46 21.34 7.33ZM5 4.89C5 3.5 5.85 3 6.89 3H12.12C13.15 3 14 3.5 14 4.89V6.12C14 7.5 13.15 8 12.11 8H6.89C5.85 8 5 7.5 5 6.11V4.89ZM5.5 10.25H8.5C8.91 10.25 9.25 10.59 9.25 11C9.25 11.41 8.91 11.75 8.5 11.75H5.5C5.09 11.75 4.75 11.41 4.75 11C4.75 10.59 5.09 10.25 5.5 10.25Z" fill="#101010"/>
</svg>
