<svg width="20" height="20" viewBox="0 0 20 20" fill="none" xmlns="http://www.w3.org/2000/svg">
<path d="M18 10V16C18 18.21 16.21 20 14 20H6C3.79 20 2 18.21 2 16V10C2 9.45 2.45 9 3 9H4.97C5.52 9 5.97 9.45 5.97 10V13.14C5.97 13.88 6.38 14.56 7.03 14.91C7.32 15.07 7.64 15.15 7.97 15.15C8.35 15.15 8.73 15.04 9.06 14.82L10.01 14.2L10.89 14.79C11.5 15.2 12.28 15.25 12.93 14.9C13.59 14.55 14 13.88 14 13.13V10C14 9.45 14.45 9 15 9H17C17.55 9 18 9.45 18 10Z" fill="#101010"/>
<path d="M19.5 5V6C19.5 7.1 18.97 8 17.5 8H2.5C0.97 8 0.5 7.1 0.5 6V5C0.5 3.9 0.97 3 2.5 3H17.5C18.97 3 19.5 3.9 19.5 5Z" fill="#101010"/>
<path d="M9.64076 2.99994H4.12076C3.78076 2.62994 3.79076 2.05994 4.15076 1.69994L5.57076 0.279941C5.94076 -0.0900586 6.55076 -0.0900586 6.92076 0.279941L9.64076 2.99994Z" fill="#101010"/>
<path d="M15.8696 2.99994H10.3496L13.0696 0.279941C13.4396 -0.0900586 14.0496 -0.0900586 14.4196 0.279941L15.8396 1.69994C16.1996 2.05994 16.2096 2.62994 15.8696 2.99994Z" fill="#101010"/>
<path d="M11.9695 9C12.5195 9 12.9695 9.45 12.9695 10V13.13C12.9695 13.93 12.0795 14.41 11.4195 13.96L10.5195 13.36C10.1895 13.14 9.75945 13.14 9.41945 13.36L8.47945 13.98C7.81945 14.42 6.93945 13.94 6.93945 13.15V10C6.93945 9.45 7.38945 9 7.93945 9H11.9695Z" fill="#101010"/>
</svg>
