<svg width="22" height="20" viewBox="0 0 22 20" fill="none" xmlns="http://www.w3.org/2000/svg">
<path d="M16.7098 0H15.7598C15.3698 0 15.0498 0.32 15.0498 0.71C15.0498 1.11 15.3698 1.43 15.7598 1.43H16.7098C18.4198 1.43 19.8098 2.82 19.8098 4.52V10.4C19.4498 10.21 19.0498 10.11 18.6198 10.11H14.8098C13.3698 10.11 12.1898 11.28 12.1898 12.73V14.29H9.80977V12.73C9.80977 11.28 8.62977 10.11 7.18976 10.11H3.37977C2.94977 10.11 2.54977 10.21 2.18977 10.4V4.52C2.18977 2.82 3.57977 1.43 5.28977 1.43H6.23977C6.62977 1.43 6.94977 1.11 6.94977 0.71C6.94977 0.32 6.62977 0 6.23977 0H5.28977C2.78977 0 0.759766 2.03 0.759766 4.52V12.73V17.38C0.759766 18.83 1.93977 20 3.37977 20H7.18976C8.62977 20 9.80977 18.83 9.80977 17.38V15.71H12.1898V17.38C12.1898 18.83 13.3698 20 14.8098 20H18.6198C20.0598 20 21.2398 18.83 21.2398 17.38V12.73V4.52C21.2398 2.03 19.2098 0 16.7098 0Z" fill="#101010"/>
</svg>
