<svg width="21" height="21" viewBox="0 0 21 21" fill="none" xmlns="http://www.w3.org/2000/svg">
<path d="M20.79 19.76L20.07 19.04C20.44 18.48 20.66 17.8 20.66 17.08C20.66 15.1 19.06 13.5 17.08 13.5C15.1 13.5 13.5 15.1 13.5 17.08C13.5 19.06 15.1 20.66 17.08 20.66C17.81 20.66 18.48 20.44 19.04 20.07L19.76 20.79C19.9 20.93 20.09 21 20.27 21C20.46 21 20.64 20.93 20.78 20.79C21.07 20.5 21.07 20.04 20.79 19.76Z" fill="#101010"/>
<path d="M1.02977 13.63C1.02977 13.66 1.00977 13.7 1.00977 13.73C1.92977 15.57 3.42977 17.08 5.26977 17.99C5.29977 17.99 5.33977 17.97 5.36977 17.97C5.02977 16.81 4.76977 15.62 4.57977 14.43C3.37977 14.23 2.18977 13.97 1.02977 13.63Z" fill="#101010"/>
<path d="M18.0701 5.42994C17.1301 3.45994 15.5401 1.86994 13.5801 0.939941C13.9401 2.12994 14.2401 3.34994 14.4401 4.56994C15.6601 4.76994 16.8801 5.05994 18.0701 5.42994Z" fill="#101010"/>
<path d="M0.930176 5.43002C2.13018 5.07002 3.35018 4.77002 4.57018 4.57002C4.77018 3.38002 5.02018 2.20002 5.36018 1.04002C5.33018 1.04002 5.29018 1.02002 5.26018 1.02002C3.38018 1.95002 1.85018 3.52002 0.930176 5.43002Z" fill="#101010"/>
<path d="M12.8202 4.36C12.5802 3.06 12.2802 1.76 11.8502 0.5C11.8302 0.43 11.8302 0.37 11.8202 0.29C11.0802 0.11 10.3002 0 9.50018 0C8.69018 0 7.92018 0.11 7.17018 0.3C7.16018 0.37 7.17018 0.43 7.15018 0.51C6.73018 1.77 6.42018 3.06 6.18018 4.36C8.39018 4.12 10.6102 4.12 12.8202 4.36Z" fill="#101010"/>
<path d="M4.36 6.18005C3.05 6.42005 1.77 6.73005 0.5 7.15005C0.43 7.17005 0.37 7.17005 0.3 7.18005C0.11 7.92005 0 8.70005 0 9.50005C0 10.3101 0.11 11.0801 0.3 11.8301C0.37 11.8401 0.43 11.8301 0.51 11.8501C1.77 12.2701 3.06 12.5801 4.37 12.8201C4.12 10.6101 4.12 8.39005 4.36 6.18005Z" fill="#101010"/>
<path d="M18.6999 7.18005C18.6299 7.18005 18.5699 7.17005 18.4899 7.15005C17.2299 6.73005 15.9299 6.42005 14.6299 6.18005C14.8799 8.39005 14.8799 10.6101 14.6299 12.8101C15.9299 12.5701 17.2299 12.2701 18.4899 11.8401C18.5599 11.8201 18.6199 11.8301 18.6999 11.8201C18.8799 11.0701 18.9999 10.3001 18.9999 9.49005C18.9999 8.70005 18.8899 7.93005 18.6999 7.18005Z" fill="#101010"/>
<path d="M6.18018 14.64C6.42018 15.95 6.72018 17.24 7.15018 18.5C7.17018 18.57 7.16018 18.63 7.17018 18.71C7.92018 18.89 8.69018 19 9.50018 19C10.3002 19 11.0802 18.89 11.8202 18.7C11.8302 18.63 11.8302 18.57 11.8502 18.49C12.2702 17.23 12.5802 15.94 12.8202 14.63C11.7202 14.75 10.6102 14.84 9.50018 14.84C8.39018 14.84 7.28018 14.76 6.18018 14.64Z" fill="#101010"/>
<path d="M5.9501 5.94998C5.6501 8.30998 5.6501 10.69 5.9501 13.06C8.3101 13.36 10.6901 13.36 13.0601 13.06C13.3601 10.7 13.3601 8.31998 13.0601 5.94998C10.6901 5.64998 8.3101 5.64998 5.9501 5.94998Z" fill="#101010"/>
</svg>
