<svg width="20" height="20" viewBox="0 0 20 20" fill="none" xmlns="http://www.w3.org/2000/svg">
<path d="M5.65006 18.91C5.62006 18.91 5.58006 18.93 5.55006 18.93C3.61006 17.97 2.03006 16.38 1.06006 14.44C1.06006 14.41 1.08006 14.37 1.08006 14.34C2.30006 14.7 3.56006 14.97 4.81006 15.18C5.03006 16.44 5.29006 17.69 5.65006 18.91Z" fill="#101010"/>
<path d="M18.94 14.45C17.95 16.44 16.3 18.05 14.29 19.02C14.67 17.75 14.99 16.47 15.2 15.18C16.46 14.97 17.7 14.7 18.92 14.34C18.91 14.38 18.94 14.42 18.94 14.45Z" fill="#101010"/>
<path d="M19.02 5.70998C17.76 5.32998 16.49 5.01998 15.2 4.79998C14.99 3.50998 14.68 2.22998 14.29 0.97998C16.36 1.96998 18.03 3.63998 19.02 5.70998Z" fill="#101010"/>
<path d="M5.64998 1.09006C5.28998 2.31006 5.02998 3.55006 4.81998 4.81006C3.52998 5.01006 2.24998 5.33006 0.97998 5.71006C1.94998 3.70006 3.55998 2.05006 5.54998 1.06006C5.57998 1.06006 5.61998 1.09006 5.64998 1.09006Z" fill="#101010"/>
<path d="M13.4898 4.59C11.1698 4.33 8.82977 4.33 6.50977 4.59C6.75977 3.22 7.07977 1.85 7.52977 0.53C7.54977 0.45 7.53977 0.39 7.54977 0.31C8.33977 0.12 9.14977 0 9.99977 0C10.8398 0 11.6598 0.12 12.4398 0.31C12.4498 0.39 12.4498 0.45 12.4698 0.53C12.9198 1.86 13.2398 3.22 13.4898 4.59Z" fill="#101010"/>
<path d="M4.59 13.49C3.21 13.24 1.85 12.92 0.53 12.47C0.45 12.45 0.39 12.46 0.31 12.45C0.12 11.66 0 10.85 0 10C0 9.16001 0.12 8.34001 0.31 7.56001C0.39 7.55001 0.45 7.55001 0.53 7.53001C1.86 7.09001 3.21 6.76001 4.59 6.51001C4.34 8.83001 4.34 11.17 4.59 13.49Z" fill="#101010"/>
<path d="M20.0002 10C20.0002 10.85 19.8802 11.66 19.6902 12.45C19.6102 12.46 19.5502 12.45 19.4702 12.47C18.1402 12.91 16.7802 13.24 15.4102 13.49C15.6702 11.17 15.6702 8.83001 15.4102 6.51001C16.7802 6.76001 18.1502 7.08001 19.4702 7.53001C19.5502 7.55001 19.6102 7.56001 19.6902 7.56001C19.8802 8.35001 20.0002 9.16001 20.0002 10Z" fill="#101010"/>
<path d="M13.4898 15.41C13.2398 16.79 12.9198 18.15 12.4698 19.47C12.4498 19.55 12.4498 19.61 12.4398 19.69C11.6598 19.88 10.8398 20 9.99977 20C9.14977 20 8.33977 19.88 7.54977 19.69C7.53977 19.61 7.54977 19.55 7.52977 19.47C7.08977 18.14 6.75977 16.79 6.50977 15.41C7.66977 15.54 8.82977 15.63 9.99977 15.63C11.1698 15.63 12.3398 15.54 13.4898 15.41Z" fill="#101010"/>
<path d="M13.7633 13.7633C11.2622 14.0789 8.73776 14.0789 6.23667 13.7633C5.92111 11.2622 5.92111 8.73776 6.23667 6.23667C8.73776 5.92111 11.2622 5.92111 13.7633 6.23667C14.0789 8.73776 14.0789 11.2622 13.7633 13.7633Z" fill="#101010"/>
</svg>
