<svg width="22" height="22" viewBox="0 0 22 22" fill="none" xmlns="http://www.w3.org/2000/svg">
<path d="M21 10.25H18.96C18.6 6.44 15.56 3.39 11.75 3.04V1C11.75 0.59 11.41 0.25 11 0.25C10.59 0.25 10.25 0.59 10.25 1V3.04C6.44 3.4 3.39 6.44 3.04 10.25H1C0.59 10.25 0.25 10.59 0.25 11C0.25 11.41 0.59 11.75 1 11.75H3.04C3.4 15.56 6.44 18.61 10.25 18.96V21C10.25 21.41 10.59 21.75 11 21.75C11.41 21.75 11.75 21.41 11.75 21V18.96C15.56 18.6 18.61 15.56 18.96 11.75H21C21.41 11.75 21.75 11.41 21.75 11C21.75 10.59 21.41 10.25 21 10.25ZM11 14.12C9.28 14.12 7.88 12.72 7.88 11C7.88 9.28 9.28 7.88 11 7.88C12.72 7.88 14.12 9.28 14.12 11C14.12 12.72 12.72 14.12 11 14.12Z" fill="#101010"/>
</svg>
