<svg width="21" height="21" viewBox="0 0 21 21" fill="none" xmlns="http://www.w3.org/2000/svg">
<path d="M17.1105 2.96009C13.2005 -0.949912 6.85045 -0.949912 2.94045 2.96009C-1.03955 6.94009 -0.969546 13.4301 3.14045 17.3301C6.94045 20.9201 13.1005 20.9201 16.9005 17.3301C21.0205 13.4301 21.0905 6.94009 17.1105 2.96009ZM14.3805 14.6501C13.1805 15.7901 11.6005 16.3601 10.0205 16.3601C8.44045 16.3601 6.86045 15.7901 5.66045 14.6501C5.36045 14.3601 5.35045 13.8901 5.63045 13.5901C5.92045 13.2901 6.39045 13.2801 6.69045 13.5601C8.52045 15.2901 11.5105 15.3001 13.3505 13.5601C13.6505 13.2801 14.1305 13.2901 14.4105 13.5901C14.7005 13.8901 14.6805 14.3601 14.3805 14.6501Z" fill="#101010"/>
</svg>
