<svg width="21" height="20" viewBox="0 0 21 20" fill="none" xmlns="http://www.w3.org/2000/svg">
<path d="M10.9702 0C5.45021 0 0.970215 4.48 0.970215 10C0.970215 15.52 5.45021 20 10.9702 20C16.4902 20 20.9702 15.52 20.9702 10C20.9702 4.48 16.5002 0 10.9702 0ZM16.4002 14.43C15.1702 16.2 13.1502 17.25 11.0002 17.25C8.85021 17.25 6.83021 16.2 5.60021 14.43C5.36022 14.09 5.45021 13.62 5.79021 13.39C6.13021 13.15 6.60021 13.24 6.83021 13.58C7.78021 14.94 9.34021 15.76 11.0002 15.76C12.6602 15.76 14.2202 14.95 15.1702 13.58C15.4102 13.24 15.8702 13.16 16.2102 13.39C16.5602 13.62 16.6402 14.09 16.4002 14.43Z" fill="#101010"/>
</svg>
