<svg width="20" height="20" viewBox="0 0 20 20" fill="none" xmlns="http://www.w3.org/2000/svg">
<path d="M6.0498 8.14005V9.30005H9.3098V6.05005H8.1498C6.9898 6.05005 6.0498 6.99005 6.0498 8.14005Z" fill="#101010"/>
<path d="M6.0498 11.86C6.0498 13.01 6.9898 13.95 8.1398 13.95H9.2998V10.7H6.0498V11.86Z" fill="#101010"/>
<path d="M10.7002 13.95H11.8602C13.0102 13.95 13.9502 13.01 13.9502 11.86V10.7H10.7002V13.95Z" fill="#101010"/>
<path d="M14.19 0H5.81C2.17 0 0 2.17 0 5.81V14.18C0 17.83 2.17 20 5.81 20H14.18C17.82 20 19.99 17.83 19.99 14.19V5.81C20 2.17 17.83 0 14.19 0ZM15.35 11.86C15.35 13.78 13.78 15.35 11.86 15.35H8.14C6.22 15.35 4.65 13.79 4.65 11.86V8.14C4.65 6.22 6.22 4.65 8.14 4.65H11.86C13.78 4.65 15.35 6.21 15.35 8.14V11.86Z" fill="#101010"/>
<path d="M11.8602 6.05005H10.7002V9.31005H13.9602V8.15005C13.9502 6.99005 13.0102 6.05005 11.8602 6.05005Z" fill="#101010"/>
</svg>
