<svg width="21" height="20" viewBox="0 0 21 20" fill="none" xmlns="http://www.w3.org/2000/svg">
<path d="M21 5.81V10.5H16.92C16.8 10.49 16.54 10.34 16.48 10.23L15.44 8.26C15.03 7.48 14.32 7.04 13.56 7.08C12.8 7.12 12.15 7.63 11.82 8.46L10.44 11.92L10.24 11.4C9.75 10.13 8.35 9.17 6.97 9.17L1 9.2V5.81C1 2.17 3.17 0 6.81 0H15.19C18.83 0 21 2.17 21 5.81Z" fill="#101010"/>
<path d="M21 14.1899V11.9999H16.92C16.25 11.9999 15.46 11.5199 15.15 10.9299L14.11 8.9599C13.83 8.4299 13.43 8.4599 13.21 9.0099L10.91 14.8199C10.66 15.4699 10.24 15.4699 9.98 14.8199L8.84 11.9399C8.57 11.2399 7.73 10.6699 6.98 10.6699L1 10.6999V14.1899C1 17.7699 3.1 19.9299 6.63 19.9899C6.74 19.9999 6.86 19.9999 6.97 19.9999H14.97C15.12 19.9999 15.27 19.9999 15.41 19.9899C18.92 19.9099 21 17.7599 21 14.1899Z" fill="#101010"/>
<path d="M0.999727 10.7V14.01C0.979727 13.69 0.969727 13.35 0.969727 13V10.7H0.999727Z" fill="#101010"/>
</svg>
