<svg width="22" height="22" viewBox="0 0 22 22" fill="none" xmlns="http://www.w3.org/2000/svg">
<path d="M20.9999 7.68983C20.9999 8.87983 20.8099 9.97984 20.4799 10.9998C18.8999 15.9998 14.0299 18.9898 11.6199 19.8098C11.2799 19.9298 10.7199 19.9298 10.3799 19.8098C9.73988 19.5898 8.92988 19.2198 8.05988 18.6998C7.49988 18.3698 7.40988 17.5898 7.86988 17.1298L19.1499 5.84983C19.6899 5.30983 20.6399 5.53984 20.8299 6.27984C20.9399 6.72984 20.9999 7.19983 20.9999 7.68983Z" fill="#101010"/>
<path d="M21.5299 0.469941C21.2399 0.179941 20.7599 0.179941 20.4699 0.469941L18.1299 2.80994C17.3399 2.35994 16.4199 2.09994 15.4399 2.09994C13.6299 2.09994 12.0099 2.97994 10.9999 4.32994C9.98994 2.97994 8.36994 2.09994 6.55994 2.09994C3.48994 2.09994 0.999941 4.59994 0.999941 7.68994C0.999941 8.87994 1.18994 9.97994 1.51994 10.9999C2.16994 13.0699 3.38994 14.7999 4.76994 16.1699L0.469941 20.4699C0.179941 20.7599 0.179941 21.2399 0.469941 21.5299C0.619941 21.6799 0.809941 21.7499 0.999941 21.7499C1.18994 21.7499 1.37994 21.6799 1.52994 21.5299L21.5299 1.52994C21.8199 1.23994 21.8199 0.759941 21.5299 0.469941Z" fill="#101010"/>
</svg>
