<svg width="20" height="19" viewBox="0 0 20 19" fill="none" xmlns="http://www.w3.org/2000/svg">
<path d="M18.6799 10.9099V10.8999C17.7999 9.9699 16.5699 9.3999 15.1999 9.3999C12.5499 9.3999 10.3999 11.5499 10.3999 14.1999C10.3999 15.4299 10.8699 16.5499 11.6299 17.3999C12.5099 18.3799 13.7799 18.9999 15.1999 18.9999C17.8499 18.9999 19.9999 16.8499 19.9999 14.1999C19.9999 12.9299 19.4999 11.7699 18.6799 10.9099ZM16.9899 15.0099H15.9499V16.0999C15.9499 16.5099 15.6099 16.8499 15.1999 16.8499C14.7899 16.8499 14.4499 16.5099 14.4499 16.0999V15.0099H13.4099C12.9899 15.0099 12.6599 14.6799 12.6599 14.2599C12.6599 13.8499 12.9799 13.5199 13.3999 13.5099H14.4499V12.5099C14.4499 12.4899 14.4499 12.4699 14.4599 12.4499C14.4799 12.0699 14.8099 11.7599 15.1999 11.7599C15.5999 11.7599 15.9299 12.0799 15.9499 12.4799V13.5099H16.9899C17.4099 13.5099 17.7399 13.8499 17.7399 14.2599C17.7399 14.6799 17.4099 15.0099 16.9899 15.0099Z" fill="#101010"/>
<path d="M20 5.72989C20 6.91989 19.81 8.01989 19.48 9.03989C19.42 9.24989 19.17 9.30989 18.99 9.17989C17.9 8.36989 16.57 7.93989 15.2 7.93989C11.73 7.93989 8.9 10.7699 8.9 14.2399C8.9 15.3199 9.18 16.3799 9.71 17.3199C9.87 17.5999 9.68 17.9599 9.38 17.8499C6.97 17.0299 2.1 14.0399 0.52 9.03989C0.19 8.01989 0 6.91989 0 5.72989C0 2.63989 2.49 0.139893 5.56 0.139893C7.37 0.139893 8.99 1.01989 10 2.36989C11.01 1.01989 12.63 0.139893 14.44 0.139893C17.51 0.139893 20 2.63989 20 5.72989Z" fill="#101010"/>
</svg>
