<svg width="20" height="20" viewBox="0 0 20 20" fill="none" xmlns="http://www.w3.org/2000/svg">
<path d="M16.75 20C18.5449 20 20 18.5449 20 16.75C20 14.9551 18.5449 13.5 16.75 13.5C14.9551 13.5 13.5 14.9551 13.5 16.75C13.5 18.5449 14.9551 20 16.75 20Z" fill="#101010"/>
<path d="M17 6C18.6569 6 20 4.65685 20 3C20 1.34315 18.6569 0 17 0C15.3431 0 14 1.34315 14 3C14 4.65685 15.3431 6 17 6Z" fill="#101010"/>
<path d="M3 6C4.65685 6 6 4.65685 6 3C6 1.34315 4.65685 0 3 0C1.34315 0 0 1.34315 0 3C0 4.65685 1.34315 6 3 6Z" fill="#101010"/>
<path d="M2.83049 6.02C3.80049 8.8 6.42049 10.67 9.37049 10.67C9.38049 10.67 9.39049 10.67 9.40049 10.67L12.9305 10.66C14.4505 10.64 15.8105 11.67 16.2205 13.15V15C16.2205 15.42 16.5605 15.76 16.9905 15.76C17.4105 15.76 17.7505 15.42 17.7505 15V3.76C17.7505 3.34 17.4105 3 16.9905 3C16.5705 3 16.2205 3.34 16.2205 3.76V10.38C15.3405 9.6 14.1905 9.12 12.9405 9.12C12.9305 9.12 12.9305 9.12 12.9205 9.12L9.39049 9.13C9.38049 9.13 9.38049 9.13 9.37049 9.13C7.08049 9.13 5.03049 7.68 4.28049 5.51C4.16049 5.2 3.87049 5 3.55049 5C3.47049 5 3.38049 5.02 3.30049 5.04C2.90049 5.18 2.69049 5.62 2.83049 6.02Z" fill="#101010"/>
</svg>
