<svg width="20" height="20" viewBox="0 0 20 20" fill="none" xmlns="http://www.w3.org/2000/svg">
<path d="M3 6C4.65685 6 6 4.65685 6 3C6 1.34315 4.65685 0 3 0C1.34315 0 0 1.34315 0 3C0 4.65685 1.34315 6 3 6Z" fill="#101010"/>
<path d="M17 13C18.6569 13 20 11.6569 20 10C20 8.34315 18.6569 7 17 7C15.3431 7 14 8.34315 14 10C14 11.6569 15.3431 13 17 13Z" fill="#101010"/>
<path d="M3 20C4.65685 20 6 18.6569 6 17C6 15.3431 4.65685 14 3 14C1.34315 14 0 15.3431 0 17C0 18.6569 1.34315 20 3 20Z" fill="#101010"/>
<path d="M3 14.75C2.59 14.75 2.25 14.41 2.25 14V6C2.25 5.59 2.59 5.25 3 5.25C3.41 5.25 3.75 5.59 3.75 6C3.75 8.19 4.81 9.25 7 9.25H14C14.41 9.25 14.75 9.59 14.75 10C14.75 10.41 14.41 10.75 14 10.75H7C5.64 10.75 4.55 10.4 3.75 9.74V14C3.75 14.41 3.41 14.75 3 14.75Z" fill="#101010"/>
</svg>
