<svg width="22" height="20" viewBox="0 0 22 20" fill="none" xmlns="http://www.w3.org/2000/svg">
<path d="M19.0402 4.81994L13.2802 0.789938C11.7102 -0.310062 9.30023 -0.250062 7.79023 0.919938L2.78023 4.82994C1.78023 5.60994 0.990234 7.20994 0.990234 8.46994V15.3699C0.990234 17.9199 3.06023 19.9999 5.61023 19.9999H16.3902C18.9402 19.9999 21.0102 17.9299 21.0102 15.3799V8.59994C21.0102 7.24994 20.1402 5.58994 19.0402 4.81994ZM15.8802 11.3999C15.8802 11.7899 15.5702 12.0999 15.1802 12.0999C14.7902 12.0999 14.4802 11.7899 14.4802 11.3999V11.2199L11.7602 13.9399C11.6102 14.0899 11.4102 14.1599 11.2002 14.1399C11.0002 14.1199 10.8102 13.9999 10.7002 13.8299L9.68023 12.3099L7.30023 14.6899C7.16023 14.8299 6.99023 14.8899 6.81023 14.8899C6.63023 14.8899 6.45023 14.8199 6.32023 14.6899C6.05023 14.4199 6.05023 13.9799 6.32023 13.6999L9.30023 10.7199C9.45023 10.5699 9.65023 10.4999 9.86023 10.5199C10.0702 10.5399 10.2602 10.6499 10.3702 10.8299L11.3902 12.3499L13.5002 10.2399H13.3202C12.9302 10.2399 12.6202 9.92994 12.6202 9.53994C12.6202 9.14994 12.9302 8.83994 13.3202 8.83994H15.1802C15.2702 8.83994 15.3602 8.85994 15.4502 8.88994C15.6202 8.95994 15.7602 9.09994 15.8302 9.26994C15.8702 9.35994 15.8802 9.44994 15.8802 9.53994V11.3999Z" fill="#101010"/>
</svg>
