<svg width="20" height="20" viewBox="0 0 20 20" fill="none" xmlns="http://www.w3.org/2000/svg">
<path d="M10.7002 14.8798H11.4002C12.5502 14.8798 13.4902 13.9398 13.4902 12.7898V12.0898H10.7002V14.8798Z" fill="#101010"/>
<path d="M6.50977 12.7898C6.50977 13.9398 7.44977 14.8798 8.59977 14.8798H9.29977V12.0898H6.50977V12.7898Z" fill="#101010"/>
<path d="M6.50977 9.99991V10.6999H9.29977V7.90991H8.59977C7.44977 7.90991 6.50977 8.84991 6.50977 9.99991Z" fill="#101010"/>
<path d="M18.03 4.81994L12.28 0.789938C10.71 -0.310062 8.31 -0.250062 6.8 0.919938L1.79 4.82994C0.78 5.60994 0 7.20994 0 8.46994V15.3699C0 17.9199 2.07 19.9999 4.61 19.9999H15.38C17.92 19.9999 19.99 17.9299 19.99 15.3799V8.59994C20 7.24994 19.13 5.58994 18.03 4.81994ZM14.88 12.7899C14.88 14.7099 13.31 16.2799 11.39 16.2799H8.6C6.68 16.2799 5.11 14.7199 5.11 12.7899V9.99994C5.11 8.07994 6.68 6.50994 8.6 6.50994H11.39C13.31 6.50994 14.88 8.06994 14.88 9.99994V12.7899Z" fill="#101010"/>
<path d="M11.4002 7.90991H10.7002V10.6999H13.4902V9.99991C13.4902 8.84991 12.5502 7.90991 11.4002 7.90991Z" fill="#101010"/>
</svg>
