<svg width="22" height="21" viewBox="0 0 22 21" fill="none" xmlns="http://www.w3.org/2000/svg">
<path d="M21 19.25H1C0.59 19.25 0.25 19.59 0.25 20C0.25 20.41 0.59 20.75 1 20.75H21C21.41 20.75 21.75 20.41 21.75 20C21.75 19.59 21.41 19.25 21 19.25Z" fill="#101010"/>
<path d="M16 0H6C3 0 2 1.79 2 4V20H8V13.94C8 13.42 8.42 13 8.94 13H13.07C13.58 13 14.01 13.42 14.01 13.94V20H20.01V4C20 1.79 19 0 16 0ZM13.5 7.25H11.75V9C11.75 9.41 11.41 9.75 11 9.75C10.59 9.75 10.25 9.41 10.25 9V7.25H8.5C8.09 7.25 7.75 6.91 7.75 6.5C7.75 6.09 8.09 5.75 8.5 5.75H10.25V4C10.25 3.59 10.59 3.25 11 3.25C11.41 3.25 11.75 3.59 11.75 4V5.75H13.5C13.91 5.75 14.25 6.09 14.25 6.5C14.25 6.91 13.91 7.25 13.5 7.25Z" fill="#101010"/>
</svg>
