<svg width="22" height="21" viewBox="0 0 22 21" fill="none" xmlns="http://www.w3.org/2000/svg">
<path d="M9 13.5C8.59 13.5 8.25 13.84 8.25 14.25V15.75C8.25 16.16 8.59 16.5 9 16.5C9.41 16.5 9.75 16.16 9.75 15.75V14.25C9.75 13.84 9.41 13.5 9 13.5Z" fill="#101010"/>
<path d="M21 19.25H20V7.97997C20 7.35997 19.72 6.77997 19.23 6.39997L12.23 0.959971C11.51 0.389971 10.49 0.389971 9.77 0.959971L2.77 6.39997C2.28 6.77997 2 7.35997 2 7.96997L1.95 19.25H1C0.59 19.25 0.25 19.58 0.25 20C0.25 20.41 0.59 20.75 1 20.75H21C21.41 20.75 21.75 20.41 21.75 20C21.75 19.58 21.41 19.25 21 19.25ZM9.5 4.74997H12.5C12.91 4.74997 13.25 5.08997 13.25 5.49997C13.25 5.90997 12.91 6.24997 12.5 6.24997H9.5C9.09 6.24997 8.75 5.90997 8.75 5.49997C8.75 5.08997 9.09 4.74997 9.5 4.74997ZM16 19.25H6V10.5C6 9.66997 6.67 8.99997 7.5 8.99997H14.5C15.33 8.99997 16 9.66997 16 10.5V19.25Z" fill="#101010"/>
</svg>
