<svg width="22" height="22" viewBox="0 0 22 22" fill="none" xmlns="http://www.w3.org/2000/svg">
<path d="M21.0196 15.82L17.8896 8.50002C17.3196 7.16002 16.4696 6.40002 15.4996 6.35002C14.5396 6.30002 13.6096 6.97002 12.8996 8.25002L10.9996 11.66C10.5996 12.38 10.0296 12.81 9.40965 12.86C8.77965 12.92 8.14965 12.59 7.63965 11.94L7.41965 11.66C6.70965 10.77 5.82965 10.34 4.92965 10.43C4.02965 10.52 3.25965 11.14 2.74965 12.15L1.01965 15.6C0.399649 16.85 0.459649 18.3 1.18965 19.48C1.91965 20.66 3.18965 21.37 4.57965 21.37H17.3396C18.6796 21.37 19.9296 20.7 20.6696 19.58C21.4296 18.46 21.5497 17.05 21.0196 15.82Z" fill="#101010"/>
<path d="M5.96984 7.38012C7.83657 7.38012 9.34984 5.86684 9.34984 4.00012C9.34984 2.13339 7.83657 0.620117 5.96984 0.620117C4.10312 0.620117 2.58984 2.13339 2.58984 4.00012C2.58984 5.86684 4.10312 7.38012 5.96984 7.38012Z" fill="#101010"/>
</svg>
