<svg width="20" height="20" viewBox="0 0 20 20" fill="none" xmlns="http://www.w3.org/2000/svg">
<path d="M14.8 7H10.75V11.44L12.82 9.37C12.97 9.22 13.16 9.15 13.35 9.15C13.54 9.15 13.73 9.22 13.88 9.37C14.17 9.66 14.17 10.14 13.88 10.43L10.53 13.78C10.24 14.07 9.76 14.07 9.47 13.78L6.12 10.43C5.83 10.14 5.83 9.66 6.12 9.37C6.41 9.08 6.89 9.08 7.18 9.37L9.25 11.44V7H5.2C2 7 0 9 0 12.2V14.79C0 18 2 20 5.2 20H14.79C17.99 20 19.99 18 19.99 14.8V12.2C20 9 18 7 14.8 7Z" fill="#101010"/>
<path d="M10.75 0.75C10.75 0.34 10.41 0 10 0C9.59 0 9.25 0.34 9.25 0.75V7H10.75V0.75Z" fill="#101010"/>
</svg>
