<svg width="20" height="18" viewBox="0 0 20 18" fill="none" xmlns="http://www.w3.org/2000/svg">
<path d="M19.14 6.89996H10.68V10.57L12.25 8.99996C12.54 8.70996 13.02 8.70996 13.31 8.99996C13.6 9.28996 13.6 9.76996 13.31 10.06L10.46 12.9C10.17 13.19 9.69 13.19 9.4 12.9L6.55 10.06C6.4 9.90996 6.33 9.71996 6.33 9.52996C6.33 9.33996 6.41 9.14996 6.56 8.99996C6.85 8.70996 7.33 8.70996 7.62 8.99996L9.18 10.56V6.89996H0.86C0.38 6.89996 0 7.27996 0 7.75996C0 13.65 4.11 17.76 10 17.76C15.89 17.76 20 13.65 20 7.75996C20 7.27996 19.62 6.89996 19.14 6.89996Z" fill="#101010"/>
<path d="M10.6797 0.98999C10.6797 0.57999 10.3397 0.23999 9.92969 0.23999C9.51969 0.23999 9.17969 0.57999 9.17969 0.98999V6.88999H10.6797V0.98999Z" fill="#101010"/>
</svg>
