<svg width="20" height="20" viewBox="0 0 20 20" fill="none" xmlns="http://www.w3.org/2000/svg">
<path d="M11.25 10C11.9404 10 12.5 9.44036 12.5 8.75C12.5 8.05964 11.9404 7.5 11.25 7.5C10.5596 7.5 10 8.05964 10 8.75C10 9.44036 10.5596 10 11.25 10Z" fill="#101010"/>
<path d="M14.19 0H5.81C2.17 0 0 2.17 0 5.81V14.18C0 17.83 2.17 20 5.81 20H14.18C17.82 20 19.99 17.83 19.99 14.19V5.81C20 2.17 17.83 0 14.19 0ZM13.89 11.47C12.86 12.49 11.39 12.81 10.09 12.4L9.03 13.45C8.94 13.54 8.78 13.54 8.68 13.45L7.71 12.48C7.57 12.34 7.33 12.34 7.18 12.48C7.03 12.62 7.04 12.86 7.18 13.01L8.15 13.98C8.25 14.08 8.25 14.24 8.15 14.33L7.74 14.74C7.57 14.92 7.24 15.03 7 15L5.91 14.85C5.55 14.8 5.22 14.46 5.16 14.1L5.01 13.01C4.97 12.77 5.09 12.44 5.25 12.27L7.6 9.92C7.2 8.62 7.51 7.15 8.54 6.12C10.01 4.65 12.41 4.65 13.89 6.12C15.37 7.59 15.37 9.99 13.89 11.47Z" fill="#101010"/>
</svg>
