<svg width="22" height="18" viewBox="0 0 22 18" fill="none" xmlns="http://www.w3.org/2000/svg">
<path d="M17.27 0.35C16.8 0.28 16.26 0.25 15.5 0.25H6.5C5.75 0.25 5.2 0.28 4.76 0.34C1.41 0.71 0.75 2.7 0.75 6V12C0.75 15.3 1.41 17.29 4.73 17.65C5.2 17.72 5.74 17.75 6.5 17.75H15.5C16.25 17.75 16.8 17.72 17.24 17.66C20.59 17.29 21.25 15.31 21.25 12V6C21.25 2.7 20.59 0.71 17.27 0.35ZM9.09 6C9.65 6 10.1 6.45 10.1 7C10.1 7.55 9.65 8 9.1 8C8.55 8 8.1 7.55 8.1 7C8.1 6.45 8.54 6 9.09 6ZM6.09 6C6.66 6 7.1 6.45 7.1 7C7.1 7.55 6.65 8 6.1 8C5.55 8 5.1 7.55 5.1 7C5.1 6.45 5.54 6 6.09 6ZM16 13.25H6.02C5.61 13.25 5.26 12.91 5.26 12.5C5.26 12.09 5.59 11.75 6 11.75H16C16.41 11.75 16.75 12.09 16.75 12.5C16.75 12.91 16.41 13.25 16 13.25ZM16 7.75H12.5C12.09 7.75 11.75 7.41 11.75 7C11.75 6.59 12.09 6.25 12.5 6.25H16C16.41 6.25 16.75 6.59 16.75 7C16.75 7.41 16.41 7.75 16 7.75Z" fill="#101010"/>
</svg>
