<svg width="18" height="22" viewBox="0 0 18 22" fill="none" xmlns="http://www.w3.org/2000/svg">
<path d="M9.49973 4.48003C9.57973 4.48003 9.65973 4.48003 9.74973 4.49003V1.53003C9.74973 1.12003 9.40973 0.780029 8.99973 0.780029C8.58973 0.780029 8.24973 1.12003 8.24973 1.53003V4.49003C8.32973 4.48003 8.40973 4.48003 8.49973 4.48003C3.88973 4.71003 0.219727 8.51003 0.219727 13.18V15.12C0.219727 16.22 1.11973 17.12 2.21973 17.12H15.7797C16.8797 17.12 17.7797 16.22 17.7797 15.12V13.18C17.7797 8.51003 14.1097 4.71003 9.49973 4.48003Z" fill="#101010"/>
<path d="M11.7301 18.11C12.0601 18.11 12.3001 18.42 12.2201 18.74C11.8401 20.17 10.5401 21.22 9.00013 21.22C7.46013 21.22 6.16013 20.17 5.78013 18.74C5.70013 18.42 5.94013 18.11 6.27013 18.11H11.7301Z" fill="#101010"/>
</svg>
