<svg width="18" height="20" viewBox="0 0 18 20" fill="none" xmlns="http://www.w3.org/2000/svg">
<path d="M17.4296 9.78L15.2296 1.7C14.9796 0.77 13.9696 0 13.0096 0H4.98962C4.02962 0 3.01962 0.77 2.76962 1.7L0.569624 9.78C0.129624 11.38 1.12962 12.69 2.78962 12.69H8.24962V18.5H4.99962C4.58962 18.5 4.24962 18.84 4.24962 19.25C4.24962 19.66 4.58962 20 4.99962 20H12.9996C13.4096 20 13.7496 19.66 13.7496 19.25C13.7496 18.84 13.4096 18.5 12.9996 18.5H9.74962V12.69H15.2096C16.8696 12.69 17.8696 11.38 17.4296 9.78Z" fill="#101010"/>
</svg>
