<svg width="18" height="21" viewBox="0 0 18 21" fill="none" xmlns="http://www.w3.org/2000/svg">
<path d="M12.6997 3.35007L3.39973 12.6501C2.92973 13.1201 2.10973 13.0201 1.80973 12.4201C1.26973 11.3501 0.969727 10.1801 0.969727 9.05007C0.969727 6.60007 2.05973 4.31007 3.96973 2.77007C5.87973 1.23007 8.37973 0.660066 10.8297 1.20007C11.3697 1.32007 11.8997 1.49007 12.3997 1.72007C13.0397 2.01007 13.1997 2.85007 12.6997 3.35007Z" fill="#101010"/>
<path d="M12.4504 19.63C10.1904 18.99 7.81039 18.99 5.55039 19.63C5.18039 19.74 4.96039 20.12 5.07039 20.49C5.18039 20.86 5.56039 21.07 5.93039 20.97C7.94039 20.4 10.0504 20.4 12.0604 20.97C12.1204 20.99 12.1904 21 12.2504 21C12.5504 21 12.8304 20.8 12.9204 20.49C13.0304 20.12 12.8204 19.74 12.4504 19.63Z" fill="#101010"/>
<path d="M17.5601 0.950044C17.2701 0.660044 16.7901 0.660044 16.5001 0.950044L0.650117 16.8C0.360117 17.09 0.360117 17.57 0.650117 17.86C0.800117 18.01 0.990117 18.08 1.18012 18.08C1.37012 18.08 1.56012 18.01 1.71012 17.86L4.17012 15.4C4.39012 15.58 4.62012 15.76 4.86012 15.92V16.75C4.85012 17.03 4.84012 17.46 5.17012 17.81C5.52012 18.16 6.04012 18.21 6.45012 18.21H11.5801C12.1201 18.21 12.5301 18.06 12.8101 17.78C13.2001 17.38 13.1801 16.88 13.1701 16.62V15.92C16.2801 13.83 18.2301 9.42004 16.2101 5.36004C15.9901 4.93004 15.7201 4.52004 15.4201 4.14004L17.5501 2.01004C17.8501 1.72004 17.8501 1.24004 17.5601 0.950044Z" fill="#101010"/>
</svg>
