<svg width="18" height="20" viewBox="0 0 18 20" fill="none" xmlns="http://www.w3.org/2000/svg">
<path d="M16.2097 4.36001C15.1697 2.26001 13.1597 0.710011 10.8297 0.200011C8.38973 -0.339989 5.88973 0.240011 3.97973 1.78001C2.05973 3.31001 0.969727 5.60001 0.969727 8.05001C0.969727 10.64 2.51973 13.35 4.85973 14.92V15.75C4.84973 16.03 4.83973 16.46 5.17973 16.81C5.52973 17.17 6.04973 17.21 6.45973 17.21H11.5897C12.1297 17.21 12.5397 17.06 12.8197 16.78C13.1997 16.39 13.1897 15.89 13.1797 15.62V14.92C16.2797 12.83 18.2297 8.42001 16.2097 4.36001Z" fill="#101010"/>
<path d="M12.2602 20C12.2002 20 12.1302 19.99 12.0702 19.97C10.0602 19.4 7.95015 19.4 5.94015 19.97C5.57015 20.07 5.18015 19.86 5.08015 19.49C4.97015 19.12 5.19015 18.73 5.56015 18.63C7.82015 17.99 10.2002 17.99 12.4602 18.63C12.8302 18.74 13.0502 19.12 12.9402 19.49C12.8402 19.8 12.5602 20 12.2602 20Z" fill="#101010"/>
</svg>
