<svg width="18" height="20" viewBox="0 0 18 20" fill="none" xmlns="http://www.w3.org/2000/svg">
<path d="M15 0H3C1.34 0 0 1.33 0 2.97V13.88C0 15.52 1.34 16.85 3 16.85H3.76C4.56 16.85 5.32 17.16 5.88 17.72L7.59 19.41C8.37 20.18 9.64 20.18 10.42 19.41L12.13 17.72C12.69 17.16 13.46 16.85 14.25 16.85H15C16.66 16.85 18 15.52 18 13.88V2.97C18 1.33 16.66 0 15 0ZM13.68 8.5L12.51 12.06C12.36 12.65 11.73 13.13 11.09 13.13H9.24C8.92 13.13 8.47 13.02 8.27 12.82L6.8 11.67C6.77 12.31 6.48 12.58 5.77 12.58H5.29C4.55 12.58 4.25 12.29 4.25 11.59V6.82C4.25 6.12 4.55 5.83 5.29 5.83H5.78C6.52 5.83 6.82 6.12 6.82 6.82V7.18L8.76 4.3C8.96 3.99 9.47 3.77 9.9 3.94C10.37 4.1 10.67 4.62 10.57 5.08L10.33 6.64C10.3 6.77 10.33 6.91 10.42 7C10.5 7.09 10.62 7.15 10.75 7.15H12.7C13.08 7.15 13.4 7.3 13.59 7.57C13.77 7.83 13.8 8.16 13.68 8.5Z" fill="#101010"/>
</svg>
