<svg width="21" height="21" viewBox="0 0 21 21" fill="none" xmlns="http://www.w3.org/2000/svg">
<path d="M11.15 14.3699C10.93 14.0499 10.54 13.8699 10.09 13.8699H7.76C7.61 13.8699 7.46 13.8099 7.37 13.6899C7.27 13.5699 7.23 13.4199 7.25 13.2499L7.54 11.3899C7.66 10.8399 7.29 10.2099 6.74 10.0199C6.22 9.82988 5.62 10.0899 5.37 10.4599L3.06 13.8999V13.4699C3.06 12.6299 2.7 12.2899 1.82 12.2899H1.24C0.36 12.2999 0 12.6399 0 13.4799V19.1899C0 20.0299 0.36 20.3699 1.24 20.3699H1.82C2.66 20.3699 3.01 20.0399 3.04 19.2799L4.79 20.6299C5.04 20.8699 5.57 20.9999 5.95 20.9999H8.16C8.92 20.9999 9.68 20.4299 9.86 19.7299L11.26 15.4799C11.41 15.0699 11.37 14.6799 11.15 14.3699Z" fill="#101010"/>
<path d="M19.1098 1.60998H18.5298C17.6898 1.60998 17.3398 1.93998 17.2998 2.69998L15.5498 1.34998C15.3098 1.10998 14.7698 0.97998 14.3898 0.97998H12.1798C11.4198 0.97998 10.6598 1.54998 10.4798 2.24998L9.07978 6.49998C8.92978 6.90998 8.97978 7.29998 9.18978 7.60998C9.40978 7.92998 9.79978 8.10998 10.2498 8.10998H12.5798C12.7298 8.10998 12.8798 8.16998 12.9698 8.28998C13.0698 8.40998 13.1098 8.55998 13.0898 8.72998L12.7998 10.59C12.6798 11.14 13.0498 11.77 13.5998 11.96C14.1198 12.15 14.7198 11.89 14.9698 11.52L17.2798 8.07998V8.50998C17.2798 9.34998 17.6398 9.68998 18.5198 9.68998H19.0998C19.9798 9.68998 20.3398 9.34998 20.3398 8.50998V2.77998C20.3498 1.94998 19.9898 1.60998 19.1098 1.60998Z" fill="#101010"/>
</svg>
