<svg width="22" height="20" viewBox="0 0 22 20" fill="none" xmlns="http://www.w3.org/2000/svg">
<path d="M11.502 12.75H9.00195C8.59195 12.75 8.25195 12.41 8.25195 12C8.25195 11.59 8.59195 11.25 9.00195 11.25H11.502C14.122 11.25 16.252 9.12 16.252 6.5C16.252 3.88 14.122 1.75 11.502 1.75H6.50195C3.88195 1.75 1.75195 3.88 1.75195 6.5C1.75195 7.6 2.14195 8.67 2.84195 9.52C3.10195 9.84 3.06195 10.31 2.74195 10.58C2.42195 10.84 1.95195 10.8 1.68195 10.48C0.761953 9.36 0.251953 7.95 0.251953 6.5C0.251953 3.05 3.05195 0.25 6.50195 0.25H11.502C14.952 0.25 17.752 3.05 17.752 6.5C17.752 9.95 14.952 12.75 11.502 12.75Z" fill="#101010"/>
<path d="M15.502 19.75H10.502C7.05195 19.75 4.25195 16.95 4.25195 13.5C4.25195 10.05 7.05195 7.25 10.502 7.25H13.002C13.412 7.25 13.752 7.59 13.752 8C13.752 8.41 13.412 8.75 13.002 8.75H10.502C7.88195 8.75 5.75195 10.88 5.75195 13.5C5.75195 16.12 7.88195 18.25 10.502 18.25H15.502C18.122 18.25 20.252 16.12 20.252 13.5C20.252 12.4 19.862 11.33 19.162 10.48C18.902 10.16 18.942 9.69 19.262 9.42C19.582 9.15 20.052 9.2 20.322 9.52C21.252 10.64 21.762 12.05 21.762 13.5C21.752 16.95 18.952 19.75 15.502 19.75Z" fill="#101010"/>
</svg>
