<svg width="20" height="20" viewBox="0 0 20 20" fill="none" xmlns="http://www.w3.org/2000/svg">
<path d="M14.192 0H5.81195C2.17195 0 0.00195312 2.17 0.00195312 5.81V14.18C0.00195312 17.83 2.17195 20 5.81195 20H14.182C17.822 20 19.992 17.83 19.992 14.19V5.81C20.002 2.17 17.832 0 14.192 0ZM6.18195 14.77C6.16195 14.77 6.13195 14.77 6.11195 14.77C5.14195 14.68 4.23195 14.23 3.55195 13.51C1.95195 11.83 1.95195 9.1 3.55195 7.42L5.74195 5.12C6.52195 4.3 7.57195 3.84 8.69195 3.84C9.81195 3.84 10.862 4.29 11.642 5.12C13.242 6.8 13.242 9.53 11.642 11.21L10.552 12.36C10.262 12.66 9.79195 12.67 9.49195 12.39C9.19195 12.1 9.18195 11.63 9.46195 11.33L10.552 10.18C11.612 9.07 11.612 7.26 10.552 6.16C9.56195 5.12 7.82195 5.12 6.82195 6.16L4.63195 8.46C3.57195 9.57 3.57195 11.38 4.63195 12.48C5.06195 12.94 5.64195 13.22 6.25195 13.28C6.66195 13.32 6.96195 13.69 6.92195 14.1C6.89195 14.48 6.56195 14.77 6.18195 14.77ZM16.452 12.59L14.262 14.89C13.482 15.71 12.432 16.17 11.312 16.17C10.192 16.17 9.14195 15.72 8.36195 14.89C6.76195 13.21 6.76195 10.48 8.36195 8.8L9.45195 7.65C9.74195 7.35 10.212 7.34 10.512 7.62C10.812 7.91 10.822 8.38 10.542 8.68L9.45195 9.83C8.39195 10.94 8.39195 12.75 9.45195 13.85C10.442 14.89 12.182 14.9 13.182 13.85L15.372 11.55C16.432 10.44 16.432 8.63 15.372 7.53C14.942 7.07 14.362 6.79 13.752 6.73C13.342 6.69 13.042 6.32 13.082 5.91C13.122 5.5 13.482 5.19 13.902 5.24C14.872 5.34 15.782 5.78 16.462 6.5C18.052 8.17 18.052 10.91 16.452 12.59Z" fill="#101010"/>
</svg>
