<svg width="21" height="12" viewBox="0 0 21 12" fill="none" xmlns="http://www.w3.org/2000/svg">
<path d="M6.25185 6C6.25185 5.59 6.59185 5.25 7.00185 5.25H10.0018V1.5C10.0018 0.95 9.55185 0.5 9.00185 0.5H6.77185C3.62185 0.5 0.881846 3.08 1.00185 6.22C1.06185 7.65 1.66185 8.94 2.61185 9.89C3.61185 10.88 4.98185 11.5 6.50185 11.5H9.00185C9.55185 11.5 10.0018 11.05 10.0018 10.5V6.75H7.00185C6.59185 6.75 6.25185 6.41 6.25185 6Z" fill="#101010"/>
<path d="M19.392 2.11C18.392 1.12 17.022 0.5 15.502 0.5H13.002C12.452 0.5 12.002 0.95 12.002 1.5V5.25H15.002C15.412 5.25 15.752 5.59 15.752 6C15.752 6.41 15.412 6.75 15.002 6.75H12.002V10.5C12.002 11.05 12.452 11.5 13.002 11.5H15.232C18.382 11.5 21.122 8.92 20.992 5.78C20.942 4.35 20.332 3.06 19.392 2.11Z" fill="#101010"/>
<path d="M12.002 5.25H10.002V6.75H12.002V5.25Z" fill="#101010"/>
</svg>
