<svg width="21" height="21" viewBox="0 0 21 21" fill="none" xmlns="http://www.w3.org/2000/svg">
<path d="M13.7796 18.98C12.7196 20 11.3596 20.51 9.99965 20.51C8.63965 20.51 7.27965 19.99 6.21965 18.97C5.85965 18.63 5.49965 18.25 5.13965 17.86L18.0396 4.95996C18.2896 5.49996 18.4796 6.06996 18.6196 6.69996C19.7896 11.86 16.6296 16.22 13.7796 18.98Z" fill="#101010"/>
<path d="M19.7699 0.230005C19.4699 -0.0699951 18.9799 -0.0699951 18.6799 0.230005L0.229883 18.69C-0.0701172 18.99 -0.0701172 19.48 0.229883 19.78C0.379883 19.92 0.569883 20 0.769883 20C0.969883 20 1.15988 19.92 1.30988 19.77L19.7699 1.31C20.0799 1.01 20.0799 0.530005 19.7699 0.230005Z" fill="#101010"/>
<path d="M6.85011 8.31C6.85011 6.57 8.26011 5.16 10.0001 5.16C11.3101 5.16 12.4301 5.96 12.9101 7.1L16.8901 3.12C15.1201 0.98 12.4401 0 10.0001 0C8.23011 0 6.34011 0.52 4.76011 1.61C3.18011 2.71 1.90011 4.38 1.38011 6.69C0.540114 10.36 1.90011 13.64 3.79011 16.21L8.79011 11.21C7.65011 10.74 6.85011 9.61 6.85011 8.31Z" fill="#101010"/>
</svg>
