<svg width="18" height="21" viewBox="0 0 18 21" fill="none" xmlns="http://www.w3.org/2000/svg">
<path d="M17.6202 6.7C16.5802 2.07 12.5402 0 9.00024 0C9.00024 0 9.00024 0 8.99024 0C5.46024 0 1.43024 2.07 0.380239 6.69C-0.799761 11.85 2.36024 16.22 5.22024 18.98C6.28024 20 7.64024 20.51 9.00024 20.51C10.3602 20.51 11.7202 20 12.7702 18.98C15.6302 16.22 18.7902 11.86 17.6202 6.7ZM11.5302 11.49C11.3802 11.64 11.1902 11.71 11.0002 11.71C10.8102 11.71 10.6202 11.64 10.4702 11.49L9.02024 10.04L7.53024 11.53C7.38024 11.68 7.19024 11.75 7.00024 11.75C6.81024 11.75 6.62024 11.68 6.47024 11.53C6.18024 11.24 6.18024 10.76 6.47024 10.47L7.96024 8.98L6.51024 7.53C6.22024 7.24 6.22024 6.76 6.51024 6.47C6.80024 6.18 7.28024 6.18 7.57024 6.47L9.02024 7.92L10.4202 6.52C10.7102 6.23 11.1902 6.23 11.4802 6.52C11.7702 6.81 11.7702 7.29 11.4802 7.58L10.0802 8.98L11.5302 10.43C11.8202 10.72 11.8202 11.19 11.5302 11.49Z" fill="#101010"/>
</svg>
