<svg width="18" height="20" viewBox="0 0 18 20" fill="none" xmlns="http://www.w3.org/2000/svg">
<path d="M4.88023 10.07C4.88023 9.66 5.22023 9.32 5.63023 9.32H11.1102V0.86C11.1002 0.38 10.7202 0 10.2402 0C4.35023 0 0.240234 4.11 0.240234 10C0.240234 15.89 4.35023 20 10.2402 20C10.7102 20 11.1002 19.62 11.1002 19.14V10.81H5.63023C5.21023 10.82 4.88023 10.48 4.88023 10.07Z" fill="#101010"/>
<path d="M17.5406 9.53997L14.7006 6.68997C14.4106 6.39997 13.9306 6.39997 13.6406 6.68997C13.3506 6.97997 13.3506 7.45997 13.6406 7.74997L15.2006 9.30997H11.1006V10.81H15.1906L13.6306 12.37C13.3406 12.66 13.3406 13.14 13.6306 13.43C13.7806 13.58 13.9706 13.65 14.1606 13.65C14.3506 13.65 14.5406 13.58 14.6906 13.43L17.5306 10.58C17.8306 10.3 17.8306 9.82997 17.5406 9.53997Z" fill="#101010"/>
</svg>
