<svg width="20" height="21" viewBox="0 0 20 21" fill="none" xmlns="http://www.w3.org/2000/svg">
<path d="M17.4998 6.5L16.0098 7.99L13.0098 4.99L14.4998 3.5C14.9198 3.08 15.4598 2.88 15.9998 2.88C16.5398 2.88 17.0798 3.08 17.4998 3.5C18.3298 4.33 18.3298 5.67 17.4998 6.5Z" fill="#101010"/>
<path d="M15.3095 8.7L4.49945 19.5C3.66945 20.33 2.32945 20.33 1.49945 19.5C0.669453 18.67 0.669453 17.33 1.49945 16.5L12.3095 5.7L15.3095 8.7Z" fill="#101010"/>
<path d="M7.94953 2.5L8.35953 1.11C8.39953 0.980002 8.35953 0.840002 8.26953 0.740002C8.17953 0.640002 8.01953 0.600002 7.88953 0.640002L6.49953 1.05L5.10953 0.640002C4.97953 0.600002 4.83953 0.640002 4.73953 0.730002C4.63953 0.830002 4.60953 0.970002 4.64953 1.1L5.04953 2.5L4.63953 3.89C4.59953 4.02 4.63953 4.16 4.72953 4.26C4.82953 4.36 4.96953 4.39 5.09953 4.35L6.49953 3.95L7.88953 4.36C7.92953 4.37 7.95953 4.38 7.99953 4.38C8.09953 4.38 8.18953 4.34 8.26953 4.27C8.36953 4.17 8.39953 4.03 8.35953 3.9L7.94953 2.5Z" fill="#101010"/>
<path d="M3.94953 8.5L4.35953 7.11C4.39953 6.98 4.35953 6.84 4.26953 6.74C4.16953 6.64 4.02953 6.61 3.89953 6.65L2.49953 7.05L1.10953 6.64C0.979528 6.6 0.839529 6.64 0.739529 6.73C0.639529 6.83 0.609529 6.97 0.649529 7.1L1.04953 8.5L0.639529 9.89C0.599529 10.02 0.639529 10.16 0.729529 10.26C0.829529 10.36 0.969528 10.39 1.09953 10.35L2.48953 9.94L3.87953 10.35C3.90953 10.36 3.94953 10.36 3.98953 10.36C4.08953 10.36 4.17953 10.32 4.25953 10.25C4.35953 10.15 4.38953 10.01 4.34953 9.88L3.94953 8.5Z" fill="#101010"/>
<path d="M18.9497 13.5L19.3597 12.11C19.3997 11.98 19.3597 11.84 19.2697 11.74C19.1697 11.64 19.0297 11.61 18.8997 11.65L17.5097 12.06L16.1197 11.65C15.9897 11.61 15.8497 11.65 15.7497 11.74C15.6497 11.84 15.6197 11.98 15.6597 12.11L16.0697 13.5L15.6597 14.89C15.6197 15.02 15.6597 15.16 15.7497 15.26C15.8497 15.36 15.9897 15.39 16.1197 15.35L17.5097 14.94L18.8997 15.35C18.9297 15.36 18.9697 15.36 19.0097 15.36C19.1097 15.36 19.1997 15.32 19.2797 15.25C19.3797 15.15 19.4097 15.01 19.3697 14.88L18.9497 13.5Z" fill="#101010"/>
</svg>
