<svg width="21" height="21" viewBox="0 0 21 21" fill="none" xmlns="http://www.w3.org/2000/svg">
<path d="M20.19 1.21C20.12 1.03 19.97 0.88 19.79 0.81C19.69 0.77 19.6 0.75 19.5 0.75H13C12.59 0.75 12.25 1.09 12.25 1.5C12.25 1.91 12.59 2.25 13 2.25H17.69L13.18 6.77H13.17C11.83 5.66 10.12 5 8.25 5C3.97 5 0.5 8.47 0.5 12.75C0.5 17.03 3.97 20.5 8.25 20.5C12.53 20.5 16 17.03 16 12.75C16 10.88 15.34 9.17 14.23 7.83L18.75 3.31V8C18.75 8.41 19.09 8.75 19.5 8.75C19.91 8.75 20.25 8.41 20.25 8V1.5C20.25 1.4 20.23 1.31 20.19 1.21Z" fill="#101010"/>
</svg>
