<svg width="20" height="20" viewBox="0 0 20 20" fill="none" xmlns="http://www.w3.org/2000/svg">
<path d="M16.6503 2.59C14.8903 0.989999 12.5603 0.0299988 10.0003 0.0299988C4.50027 0.0299988 0.0302734 4.5 0.0302734 10C0.0302734 15.5 4.50027 19.97 10.0003 19.97C12.5603 19.97 14.8903 19.01 16.6503 17.41C18.6903 15.6 19.9703 12.94 19.9703 10C19.9703 7.06 18.6903 4.4 16.6503 2.59ZM9.97027 14.39C9.95027 16.04 8.72027 16.44 7.57027 15.98C5.20027 15.03 3.53027 12.71 3.53027 10C3.53027 7.29 5.20027 4.97 7.57027 4.01C8.72027 3.55 9.95027 3.96 9.97027 5.6V14.39Z" fill="#101010"/>
</svg>
