<svg width="21" height="21" viewBox="0 0 21 21" fill="none" xmlns="http://www.w3.org/2000/svg">
<path d="M15.2402 8.52001L19.9502 13.23C20.2302 13.51 20.7202 13.36 20.8002 12.97C20.9302 12.33 21.0002 11.67 21.0002 11C21.0002 8.71001 20.2202 6.60001 18.9302 4.92001C18.7502 4.68001 18.3902 4.67001 18.1802 4.88001L15.2402 7.82001C15.0502 8.01001 15.0502 8.33001 15.2402 8.52001Z" fill="#101010"/>
<path d="M13.4796 9.58L11.7096 11.35C11.5096 11.55 11.5096 11.86 11.7096 12.06L17.5296 17.88C17.7296 18.08 18.0496 18.08 18.2396 17.88C18.8596 17.23 19.3896 16.5 19.8196 15.71C19.9196 15.52 19.8796 15.27 19.7296 15.12L14.1896 9.58C13.9896 9.39 13.6696 9.39 13.4796 9.58Z" fill="#101010"/>
<path d="M9.9393 13.12L8.1793 14.88C7.9793 15.08 7.9793 15.39 8.1793 15.59L13.0993 20.52C13.2293 20.65 13.4193 20.7 13.5893 20.65C14.5193 20.4 15.3993 20.02 16.1993 19.52C16.4693 19.35 16.5093 18.97 16.2793 18.74L10.6493 13.11C10.4493 12.93 10.1293 12.93 9.9393 13.12Z" fill="#101010"/>
<path d="M17.0797 3.07C15.0997 1.54 12.5297 0.740004 9.76967 1.07C5.25967 1.61 1.60967 5.27001 1.06967 9.77001C0.739669 12.53 1.53967 15.09 3.06967 17.08C3.24967 17.32 3.60967 17.33 3.81967 17.12L17.1197 3.82C17.3297 3.61 17.3197 3.25 17.0797 3.07Z" fill="#101010"/>
<path d="M6.39974 16.67L4.87974 18.19C4.66974 18.4 4.67974 18.76 4.91974 18.94C6.42974 20.11 8.27974 20.85 10.3097 20.99C10.7397 21.02 10.9497 20.51 10.6397 20.2L7.10974 16.67C6.91974 16.47 6.59974 16.47 6.39974 16.67Z" fill="#101010"/>
</svg>
