<svg width="20" height="20" viewBox="0 0 20 20" fill="none" xmlns="http://www.w3.org/2000/svg">
<path d="M9 14.15V16.85C9 19.1 8.1 20 5.85 20H3.15C0.9 20 0 19.1 0 16.85V14.15C0 11.9 0.9 11 3.15 11H5.85C8.1 11 9 11.9 9 14.15Z" fill="#101010"/>
<path d="M14.48 0H6.52C3.47 0 1 2.47 1 5.52V8.5C1 9.05 1.45 9.5 2 9.5H6.5C8.71 9.5 10.5 11.29 10.5 13.5V18C10.5 18.55 10.95 19 11.5 19H14.48C17.93 19 20 16.94 20 13.48V5.52C20 2.47 17.53 0 14.48 0ZM16.76 7.99C16.76 8.4 16.42 8.74 16.01 8.74C15.6 8.74 15.26 8.4 15.26 7.99V5.79L11.53 9.53C11.38 9.68 11.19 9.75 11 9.75C10.81 9.75 10.62 9.68 10.47 9.53C10.18 9.24 10.18 8.76 10.47 8.47L14.2 4.72H12C11.58 4.72 11.25 4.39 11.25 3.97C11.25 3.56 11.58 3.22 12 3.22H16.01C16.1 3.22 16.19 3.25 16.27 3.28C16.3 3.29 16.32 3.3 16.34 3.31C16.4 3.34 16.45 3.37 16.5 3.42C16.52 3.43 16.54 3.45 16.56 3.47C16.61 3.53 16.65 3.59 16.69 3.66C16.69 3.67 16.7 3.68 16.7 3.69C16.74 3.77 16.75 3.86 16.75 3.95C16.76 3.96 16.76 3.96 16.76 3.97V7.99Z" fill="#101010"/>
</svg>
