<svg width="21" height="20" viewBox="0 0 21 20" fill="none" xmlns="http://www.w3.org/2000/svg">
<path d="M18.952 2.13C18.662 1.71 18.292 1.34 17.872 1.05C16.922 0.36 15.682 0 14.192 0H5.81195C5.61195 0 5.41195 0.00999997 5.22195 0.03C1.94195 0.24 0.00195312 2.37 0.00195312 5.81V14.19C0.00195312 15.68 0.361953 16.92 1.05195 17.87C1.34195 18.29 1.71195 18.66 2.13195 18.95C2.95195 19.55 3.99195 19.9 5.22195 19.98C5.41195 19.99 5.61195 20 5.81195 20H14.192C17.832 20 20.002 17.83 20.002 14.19V5.81C20.002 4.32 19.642 3.08 18.952 2.13ZM16.752 8C16.752 8.41 16.412 8.75 16.002 8.75C15.592 8.75 15.252 8.41 15.252 8V5.81L11.062 10L15.252 14.19V12C15.252 11.59 15.592 11.25 16.002 11.25C16.412 11.25 16.752 11.59 16.752 12V16C16.752 16.1 16.732 16.19 16.692 16.29C16.612 16.47 16.472 16.62 16.282 16.7C16.192 16.74 16.092 16.76 15.992 16.76H11.992C11.582 16.76 11.242 16.42 11.242 16.01C11.242 15.6 11.582 15.26 11.992 15.26H14.182L10.002 11.06L5.81195 15.25H8.00195C8.41195 15.25 8.75195 15.59 8.75195 16C8.75195 16.41 8.41195 16.75 8.00195 16.75H4.00195C3.90195 16.75 3.80195 16.73 3.71195 16.69C3.53195 16.61 3.38195 16.47 3.30195 16.28C3.27195 16.19 3.25195 16.1 3.25195 16V12C3.25195 11.59 3.59195 11.25 4.00195 11.25C4.41195 11.25 4.75195 11.59 4.75195 12V14.19L8.94195 10L4.75195 5.81V8C4.75195 8.41 4.41195 8.75 4.00195 8.75C3.59195 8.75 3.25195 8.41 3.25195 8V4C3.25195 3.9 3.27195 3.81 3.31195 3.71C3.39195 3.53 3.53195 3.38 3.72195 3.3C3.81195 3.27 3.90195 3.25 4.00195 3.25H8.00195C8.41195 3.25 8.75195 3.59 8.75195 4C8.75195 4.41 8.41195 4.75 8.00195 4.75H5.81195L10.002 8.94L14.192 4.75H12.002C11.592 4.75 11.252 4.41 11.252 4C11.252 3.59 11.592 3.25 12.002 3.25H16.002C16.102 3.25 16.192 3.27 16.292 3.31C16.472 3.39 16.622 3.53 16.702 3.72C16.732 3.81 16.752 3.9 16.752 4V8Z" fill="#101010"/>
</svg>
