<svg width="22" height="22" viewBox="0 0 22 22" fill="none" xmlns="http://www.w3.org/2000/svg">
<path d="M20.6904 1.71C20.6104 1.53 20.4704 1.38 20.2804 1.3C20.1904 1.27 20.1004 1.25 20.0004 1.25H16.0004C15.5904 1.25 15.2504 1.59 15.2504 2C15.2504 2.41 15.5904 2.75 16.0004 2.75H18.1904L13.4704 7.47C13.1804 7.76 13.1804 8.24 13.4704 8.53C13.6204 8.68 13.8104 8.75 14.0004 8.75C14.1904 8.75 14.3804 8.68 14.5304 8.53L19.2504 3.81V6C19.2504 6.41 19.5904 6.75 20.0004 6.75C20.4104 6.75 20.7504 6.41 20.7504 6V2C20.7504 1.9 20.7304 1.81 20.6904 1.71Z" fill="#101010"/>
<path d="M7.47 13.4699L2.75 18.1899V15.9999C2.75 15.5899 2.41 15.2499 2 15.2499C1.59 15.2499 1.25 15.5899 1.25 15.9999V19.9999C1.25 20.0999 1.27 20.1899 1.31 20.2899C1.39 20.4699 1.53 20.6199 1.72 20.6999C1.8 20.7299 1.9 20.7499 2 20.7499H6C6.41 20.7499 6.75 20.4099 6.75 19.9999C6.75 19.5899 6.41 19.2499 6 19.2499H3.81L8.53 14.5299C8.82 14.2399 8.82 13.7599 8.53 13.4699C8.24 13.1799 7.76 13.1799 7.47 13.4699Z" fill="#101010"/>
<path d="M1.2 13.75C0.85 13.75 0.54 13.5 0.47 13.15C0.33 12.45 0.25 11.72 0.25 11C0.25 5.07 5.07 0.25 11 0.25C11.73 0.25 12.46 0.32 13.17 0.47C13.58 0.55 13.84 0.95 13.76 1.35C13.68 1.76 13.27 2.01 12.88 1.94C12.25 1.81 11.63 1.75 11 1.75C5.9 1.75 1.75 5.9 1.75 11C1.75 11.62 1.81 12.25 1.94 12.85C2.02 13.26 1.76 13.65 1.35 13.73C1.3 13.75 1.25 13.75 1.2 13.75Z" fill="#101010"/>
<path d="M11 21.7501C10.27 21.7501 9.54003 21.6801 8.83003 21.5301C8.42003 21.4501 8.16003 21.0501 8.24003 20.6501C8.32003 20.2401 8.73003 19.9901 9.12003 20.0601C9.73003 20.1801 10.36 20.2501 10.99 20.2501C16.09 20.2501 20.24 16.1001 20.24 11.0001C20.24 10.3801 20.18 9.76006 20.06 9.15006C19.98 8.74006 20.24 8.35006 20.65 8.27006C21.06 8.19006 21.45 8.45006 21.53 8.86006C21.67 9.56006 21.74 10.2801 21.74 11.0001C21.75 16.9301 16.93 21.7501 11 21.7501Z" fill="#101010"/>
</svg>
