<svg width="20" height="20" viewBox="0 0 20 20" fill="none" xmlns="http://www.w3.org/2000/svg">
<path d="M15 0.429993H5C2 0.429993 0 2.42999 0 5.42999V11.43C0 14.43 2 16.43 5 16.43H9L13.45 19.39C14.11 19.83 15 19.36 15 18.56V16.43C18 16.43 20 14.43 20 11.43V5.42999C20 2.42999 18 0.429993 15 0.429993ZM13.5 9.24999H6.5C6.09 9.24999 5.75 8.90999 5.75 8.49999C5.75 8.08999 6.09 7.74999 6.5 7.74999H13.5C13.91 7.74999 14.25 8.08999 14.25 8.49999C14.25 8.90999 13.91 9.24999 13.5 9.24999Z" fill="#101010"/>
</svg>
