<svg width="21" height="20" viewBox="0 0 21 20" fill="none" xmlns="http://www.w3.org/2000/svg">
<path d="M6.97 12.83C6.25 12.01 5.18 11.5 4 11.5C1.79 11.5 0 13.29 0 15.5C0 16.25 0.21 16.96 0.58 17.56C0.78 17.9 1.04 18.21 1.34 18.47C2.04 19.11 2.97 19.5 4 19.5C5.46 19.5 6.73 18.72 7.42 17.56C7.79 16.96 8 16.25 8 15.5C8 14.48 7.61 13.54 6.97 12.83ZM5.6 17.08C5.45 17.23 5.26 17.3 5.07 17.3C4.88 17.3 4.69 17.23 4.54 17.08L4.01 16.55L3.46 17.1C3.31 17.25 3.12 17.32 2.93 17.32C2.74 17.32 2.55 17.25 2.4 17.1C2.11 16.81 2.11 16.33 2.4 16.04L2.95 15.49L2.42 14.96C2.13 14.67 2.13 14.19 2.42 13.9C2.71 13.61 3.19 13.61 3.48 13.9L4.01 14.43L4.51 13.93C4.8 13.64 5.28 13.64 5.57 13.93C5.86 14.22 5.86 14.7 5.57 14.99L5.07 15.49L5.6 16.02C5.89 16.31 5.89 16.78 5.6 17.08Z" fill="#101010"/>
<path d="M16.25 0.429993H6.75C3.9 0.429993 2 2.32999 2 5.17999V9.63999C2 9.98999 2.36 10.24 2.7 10.15C3.12 10.05 3.55 9.99999 4 9.99999C6.86 9.99999 9.22 12.32 9.48 15.13C9.5 15.41 9.73 15.63 10 15.63H10.55L14.78 18.45C15.4 18.87 16.25 18.41 16.25 17.65V15.63C17.67 15.63 18.86 15.15 19.69 14.33C20.52 13.49 21 12.3 21 10.88V5.17999C21 2.32999 19.1 0.429993 16.25 0.429993ZM14.83 8.80999H8.17C7.78 8.80999 7.46 8.48999 7.46 8.09999C7.46 7.69999 7.78 7.37999 8.17 7.37999H14.83C15.22 7.37999 15.54 7.69999 15.54 8.09999C15.54 8.48999 15.22 8.80999 14.83 8.80999Z" fill="#101010"/>
</svg>
