<svg width="20" height="20" viewBox="0 0 20 20" fill="none" xmlns="http://www.w3.org/2000/svg">
<path d="M14 0H6C2 0 0 2 0 6V19C0 19.55 0.45 20 1 20H14C18 20 20 18 20 14V6C20 2 18 0 14 0ZM9.11 14.66C8.86 14.91 8.4 15.14 8.06 15.19L5.98 15.48C5.9 15.49 5.82 15.5 5.75 15.5C5.4 15.5 5.08 15.38 4.85 15.15C4.57 14.87 4.45 14.46 4.52 14.02L4.81 11.94C4.86 11.6 5.09 11.13 5.34 10.89L9.11 7.12C9.17 7.3 9.25 7.48 9.34 7.68C9.43 7.86 9.52 8.04 9.62 8.21C9.7 8.35 9.79 8.49 9.87 8.59C9.97 8.74 10.07 8.87 10.14 8.94C10.18 9 10.22 9.04 10.23 9.06C10.45 9.31 10.68 9.55 10.9 9.73C10.96 9.79 11 9.82 11.01 9.83C11.14 9.93 11.26 10.04 11.38 10.11C11.51 10.21 11.65 10.3 11.79 10.38C11.96 10.48 12.14 10.58 12.33 10.67C12.52 10.76 12.7 10.83 12.88 10.89L9.11 14.66ZM14.55 9.23L13.77 10.01C13.72 10.06 13.65 10.09 13.58 10.09C13.56 10.09 13.52 10.09 13.5 10.08C11.78 9.59 10.41 8.22 9.92 6.5C9.89 6.41 9.92 6.31 9.99 6.24L10.78 5.45C12.07 4.16 13.29 4.19 14.55 5.45C15.19 6.09 15.51 6.71 15.5 7.35C15.5 7.98 15.19 8.59 14.55 9.23Z" fill="#101010"/>
</svg>
