<svg width="20" height="20" viewBox="0 0 20 20" fill="none" xmlns="http://www.w3.org/2000/svg">
<path d="M15 0H5C2.24 0 0 2.23 0 4.98V10.96V11.96C0 14.71 2.24 16.94 5 16.94H6.5C6.77 16.94 7.13 17.12 7.3 17.34L8.8 19.33C9.46 20.21 10.54 20.21 11.2 19.33L12.7 17.34C12.89 17.09 13.19 16.94 13.5 16.94H15C17.76 16.94 20 14.71 20 11.96V4.98C20 2.23 17.76 0 15 0ZM13.66 12.53C13.51 12.68 13.32 12.75 13.13 12.75C12.94 12.75 12.75 12.68 12.6 12.53L11.86 11.79C11.28 12.17 10.58 12.4 9.83 12.4C7.79 12.4 6.13 10.74 6.13 8.7C6.13 6.66 7.78 5 9.83 5C11.88 5 13.53 6.66 13.53 8.7C13.53 9.45 13.3 10.15 12.92 10.73L13.66 11.47C13.95 11.76 13.95 12.24 13.66 12.53Z" fill="#101010"/>
</svg>
