<svg width="21" height="20" viewBox="0 0 21 20" fill="none" xmlns="http://www.w3.org/2000/svg">
<path d="M4.21 11.51C3.12 11.44 2 11.84 1.17 12.67C-0.39 14.23 -0.39 16.76 1.17 18.33C1.7 18.86 2.35 19.21 3.04 19.38C3.42 19.48 3.82 19.51 4.22 19.49C5.17 19.45 6.1 19.07 6.83 18.34C7.86 17.31 8.21 15.86 7.88 14.55C7.72 13.86 7.36 13.21 6.83 12.68C6.11 11.95 5.17 11.56 4.21 11.51ZM6.24 15.48C6.24 15.69 6.16 15.87 6.02 16.01C5.88 16.15 5.7 16.23 5.49 16.23H4.75V17.01C4.75 17.22 4.67 17.4 4.53 17.54C4.39 17.68 4.21 17.76 4 17.76C3.59 17.76 3.25 17.42 3.25 17.01V16.23H2.5C2.09 16.23 1.75 15.89 1.75 15.48C1.75 15.07 2.09 14.73 2.5 14.73H3.25V14.02C3.25 13.61 3.59 13.27 4 13.27C4.41 13.27 4.75 13.61 4.75 14.02V14.73H5.49C5.91 14.73 6.24 15.07 6.24 15.48Z" fill="#101010"/>
<path d="M16.25 0.429993H6.75C3.9 0.429993 2 2.32999 2 5.17999V9.63999C2 9.98999 2.36 10.24 2.7 10.15C3.12 10.05 3.55 9.99999 4 9.99999C6.86 9.99999 9.22 12.32 9.48 15.13C9.5 15.41 9.73 15.63 10 15.63H10.55L14.78 18.45C15.4 18.87 16.25 18.41 16.25 17.65V15.63C17.67 15.63 18.86 15.15 19.69 14.33C20.52 13.49 21 12.3 21 10.88V5.17999C21 2.32999 19.1 0.429993 16.25 0.429993ZM14.83 8.80999H8.17C7.78 8.80999 7.46 8.48999 7.46 8.09999C7.46 7.69999 7.78 7.37999 8.17 7.37999H14.83C15.22 7.37999 15.54 7.69999 15.54 8.09999C15.54 8.48999 15.22 8.80999 14.83 8.80999Z" fill="#101010"/>
</svg>
