<svg width="20" height="20" viewBox="0 0 20 20" fill="none" xmlns="http://www.w3.org/2000/svg">
<path d="M13.59 10.4V14.47C13.59 14.83 13.55 15.17 13.46 15.48C13.09 16.95 11.87 17.87 10.19 17.87H7.47L4.45 19.88C4 20.19 3.4 19.86 3.4 19.32V17.87C2.38 17.87 1.53 17.53 0.94 16.94C0.34 16.34 0 15.49 0 14.47V10.4C0 8.5 1.18 7.19 3 7.02C3.13 7.01 3.26 7 3.4 7H10.19C12.23 7 13.59 8.36 13.59 10.4Z" fill="#101010"/>
<path d="M15.75 13.6C17.02 13.6 18.09 13.18 18.83 12.43C19.58 11.69 20 10.62 20 9.35V4.25C20 1.9 18.1 0 15.75 0H7.25C4.9 0 3 1.9 3 4.25V5C3 5.28 3.22 5.5 3.5 5.5H10.19C12.9 5.5 15.09 7.69 15.09 10.4V13.1C15.09 13.38 15.31 13.6 15.59 13.6H15.75Z" fill="#101010"/>
</svg>
