<svg width="21" height="21" viewBox="0 0 21 21" fill="none" xmlns="http://www.w3.org/2000/svg">
<path d="M18 5.75C19.5188 5.75 20.75 4.51878 20.75 3C20.75 1.48122 19.5188 0.25 18 0.25C16.4812 0.25 15.25 1.48122 15.25 3C15.25 4.51878 16.4812 5.75 18 5.75Z" fill="#101010"/>
<path d="M17.04 7.15C15.47 6.81 14.19 5.53 13.85 3.96C13.72 3.35 13.71 2.76 13.82 2.2C13.95 1.58 13.49 1 12.85 1H5C2.24 1 0 3.24 0 6V12.95C0 15.71 2.24 17.95 5 17.95H6.5C6.78 17.95 7.14 18.13 7.3 18.35L8.8 20.34C9.46 21.22 10.54 21.22 11.2 20.34L12.7 18.35C12.89 18.1 13.18 17.95 13.5 17.95H15.01C17.77 17.95 20 15.72 20 12.96V8.15C20 7.52 19.42 7.06 18.8 7.18C18.24 7.28 17.65 7.28 17.04 7.15ZM6 11C5.44 11 5 10.55 5 10C5 9.45 5.44 9 6 9C6.55 9 7 9.45 7 10C7 10.55 6.56 11 6 11ZM10 11C9.44 11 9 10.55 9 10C9 9.45 9.44 9 10 9C10.55 9 11 9.45 11 10C11 10.55 10.56 11 10 11ZM14 11C13.44 11 13 10.55 13 10C13 9.45 13.44 9 14 9C14.55 9 15 9.45 15 10C15 10.55 14.56 11 14 11Z" fill="#101010"/>
</svg>
