<svg width="20" height="20" viewBox="0 0 20 20" fill="none" xmlns="http://www.w3.org/2000/svg">
<path d="M15 0H5C2.24 0 0 2.23 0 4.98V10.96V11.96C0 14.71 2.24 16.94 5 16.94H6.5C6.77 16.94 7.13 17.12 7.3 17.34L8.8 19.33C9.46 20.21 10.54 20.21 11.2 19.33L12.7 17.34C12.89 17.09 13.19 16.94 13.5 16.94H15C17.76 16.94 20 14.71 20 11.96V4.98C20 2.23 17.76 0 15 0ZM6 10C5.44 10 5 9.55 5 9C5 8.45 5.45 8 6 8C6.55 8 7 8.45 7 9C7 9.55 6.56 10 6 10ZM10 10C9.44 10 9 9.55 9 9C9 8.45 9.45 8 10 8C10.55 8 11 8.45 11 9C11 9.55 10.56 10 10 10ZM14 10C13.44 10 13 9.55 13 9C13 8.45 13.45 8 14 8C14.55 8 15 8.45 15 9C15 9.55 14.56 10 14 10Z" fill="#101010"/>
</svg>
