<svg width="16" height="20" viewBox="0 0 16 20" fill="none" xmlns="http://www.w3.org/2000/svg">
<path d="M15.1197 7.12011C14.7297 7.12011 14.4197 7.43011 14.4197 7.82011V9.40011C14.4197 12.9401 11.5397 15.8201 7.99969 15.8201C4.45969 15.8201 1.57969 12.9401 1.57969 9.40011V7.81011C1.57969 7.42011 1.26969 7.11011 0.879688 7.11011C0.489688 7.11011 0.179688 7.42011 0.179688 7.81011V9.39011C0.179688 13.4601 3.30969 16.8101 7.29969 17.1701V19.3001C7.29969 19.6901 7.60969 20.0001 7.99969 20.0001C8.38969 20.0001 8.69969 19.6901 8.69969 19.3001V17.1701C12.6797 16.8201 15.8197 13.4601 15.8197 9.39011V7.81011C15.8097 7.43011 15.4997 7.12011 15.1197 7.12011Z" fill="#101010"/>
<path d="M8.00008 0C5.56008 0 3.58008 1.98 3.58008 4.42V9.54C3.58008 11.98 5.56008 13.96 8.00008 13.96C10.4401 13.96 12.4201 11.98 12.4201 9.54V4.42C12.4201 1.98 10.4401 0 8.00008 0ZM9.31008 6.95C9.24008 7.21 9.01008 7.38 8.75008 7.38C8.70008 7.38 8.65008 7.37 8.60008 7.36C8.21008 7.25 7.80008 7.25 7.41008 7.36C7.09008 7.45 6.78008 7.26 6.70008 6.95C6.61008 6.64 6.80008 6.32 7.11008 6.24C7.70008 6.08 8.32008 6.08 8.91008 6.24C9.21008 6.32 9.39008 6.64 9.31008 6.95ZM9.84008 5.01C9.75008 5.25 9.53008 5.39 9.29008 5.39C9.22008 5.39 9.16008 5.38 9.09008 5.36C8.39008 5.1 7.61008 5.1 6.91008 5.36C6.61008 5.47 6.27008 5.31 6.16008 5.01C6.05008 4.71 6.21008 4.37 6.51008 4.27C7.47008 3.92 8.53008 3.92 9.49008 4.27C9.79008 4.38 9.95008 4.71 9.84008 5.01Z" fill="#101010"/>
</svg>
