<svg width="21" height="21" viewBox="0 0 21 21" fill="none" xmlns="http://www.w3.org/2000/svg">
<path d="M15.6199 3.72L5.00988 14.33C4.27988 13.34 3.87988 12.13 3.87988 10.82V6.11C3.87988 4.27 4.69988 2.62 5.99988 1.5V5.64C5.99988 6.03 6.31988 6.35 6.69988 6.35C7.08988 6.35 7.40988 6.03 7.40988 5.64V0.57C7.86988 0.34 8.35988 0.18 8.86988 0.0899999V3.75C8.86988 4.15 9.18988 4.46 9.57988 4.46C9.96988 4.46 10.2899 4.15 10.2899 3.75V0C12.6799 0.11 14.7399 1.61 15.6199 3.72Z" fill="#101010"/>
<path d="M16.1202 6.87988V10.8199C16.1202 14.1899 13.3702 16.9399 10.0002 16.9399C9.82016 16.9399 9.64016 16.9299 9.46016 16.9099C9.38016 16.9099 9.30016 16.8999 9.23016 16.8899C9.10016 16.8699 8.97016 16.8499 8.85016 16.8299C8.80016 16.8299 8.76016 16.8099 8.70016 16.7999C8.56016 16.7699 8.42016 16.7299 8.29016 16.6899C8.07016 16.6299 7.86016 16.5499 7.66016 16.4699C7.53016 16.4199 7.41016 16.3699 7.29016 16.2999C7.26016 16.2899 7.24016 16.2699 7.21016 16.2599C7.11016 16.2099 7.01016 16.1599 6.91016 16.0899L16.1202 6.87988Z" fill="#101010"/>
<path d="M19.7497 9V11C19.7497 16.38 15.3797 20.75 9.99969 20.75C7.87969 20.75 5.84969 20.07 4.17969 18.82L5.25969 17.74C6.63969 18.72 8.27969 19.25 9.99969 19.25C14.5497 19.25 18.2497 15.55 18.2497 11V9C18.2497 8.59 18.5897 8.25 18.9997 8.25C19.4097 8.25 19.7497 8.59 19.7497 9Z" fill="#101010"/>
<path d="M19.7699 0.229883C19.4699 -0.0701172 18.9799 -0.0701172 18.6799 0.229883L0.229883 18.6899C-0.0701172 18.9899 -0.0701172 19.4799 0.229883 19.7799C0.379883 19.9199 0.569883 19.9999 0.769883 19.9999C0.969883 19.9999 1.15988 19.9199 1.30988 19.7699L19.7699 1.30988C20.0799 1.00988 20.0799 0.529883 19.7699 0.229883Z" fill="#101010"/>
</svg>
