<svg width="22" height="20" viewBox="0 0 22 20" fill="none" xmlns="http://www.w3.org/2000/svg">
<path d="M15.4201 4.41989V5.57989L8.14008 12.8599C7.18008 11.9899 6.58008 10.7099 6.58008 9.33989V4.41989C6.58008 2.35989 7.98008 0.649893 9.88008 0.159893C10.0701 0.109893 10.2501 0.269893 10.2501 0.459893V1.99989C10.2501 2.40989 10.5901 2.74989 11.0001 2.74989C11.4101 2.74989 11.7501 2.40989 11.7501 1.99989V0.459893C11.7501 0.269893 11.9301 0.109893 12.1201 0.159893C14.0201 0.649893 15.4201 2.35989 15.4201 4.41989Z" fill="#101010"/>
<path d="M18.8098 7.80987V9.39987C18.8098 13.4699 15.6798 16.8199 11.6998 17.1699V19.2999C11.6998 19.6899 11.3898 19.9999 10.9998 19.9999C10.6098 19.9999 10.2998 19.6899 10.2998 19.2999V17.1699C9.20977 17.0699 8.17977 16.7499 7.25977 16.2399L8.28977 15.2099C9.10977 15.5899 10.0298 15.8099 10.9998 15.8099C14.5398 15.8099 17.4198 12.9299 17.4198 9.39987V7.80987C17.4198 7.42987 17.7298 7.11987 18.1198 7.11987C18.4998 7.11987 18.8098 7.42987 18.8098 7.80987Z" fill="#101010"/>
<path d="M15.4202 8.07983V9.52983C15.4202 12.1098 13.2002 14.1798 10.5602 13.9298C10.2802 13.8998 10.0002 13.8498 9.74023 13.7598L15.4202 8.07983Z" fill="#101010"/>
<path d="M20.7701 0.229883C20.4701 -0.0701172 19.9801 -0.0701172 19.6801 0.229883L6.23012 13.6799C5.20012 12.5499 4.58012 11.0499 4.58012 9.39988V7.80988C4.58012 7.42988 4.27012 7.11988 3.88012 7.11988C3.50012 7.11988 3.19012 7.42988 3.19012 7.80988V9.39988C3.19012 11.4299 3.97012 13.2799 5.24012 14.6699L1.22012 18.6899C0.920117 18.9899 0.920117 19.4799 1.22012 19.7799C1.38012 19.9199 1.57012 19.9999 1.77012 19.9999C1.97012 19.9999 2.16012 19.9199 2.31012 19.7699L20.7701 1.30988C21.0801 1.00988 21.0801 0.529883 20.7701 0.229883Z" fill="#101010"/>
</svg>
