<svg width="12" height="20" viewBox="0 0 12 20" fill="none" xmlns="http://www.w3.org/2000/svg">
<path d="M12 14V17C12 18.65 10.65 20 9 20H3C1.35 20 0 18.65 0 17V12.99C0 12.44 0.45 11.99 1.01 11.99L3.89 12C4.58 12 5.26 12.15 5.89 12.45C6.58 12.77 7.31 13 8.08 13H11C11.55 13 12 13.45 12 14Z" fill="#101010"/>
<path d="M11.41 7.41L9.29 5.29C9.1 5.1 9 4.85 9 4.59V2.91C9.58 2.71 10 2.15 10 1.5C10 0.67 9.33 0 8.5 0H3.5C2.67 0 2 0.67 2 1.5C2 2.15 2.42 2.71 3 2.91V4.59C3 4.85 2.9 5.1 2.71 5.29L0.59 7.41C0.27 7.73 0 8.38 0 8.83V9.48C0 10.03 0.44 10.48 0.99 10.48L3.9 10.5C4.88 10.5 5.87 10.74 6.75 11.2C7.17 11.42 7.65 11.5 8.12 11.5H11C11.55 11.5 12 11.05 12 10.5V8.83C12 8.38 11.73 7.73 11.41 7.41Z" fill="#101010"/>
</svg>
