<svg width="20" height="21" viewBox="0 0 20 21" fill="none" xmlns="http://www.w3.org/2000/svg">
<path d="M15 11C12.24 11 10 13.24 10 16C10 18.76 12.24 21 15 21C17.76 21 20 18.76 20 16C20 13.24 17.76 11 15 11ZM14.16 17.27C14.41 17.52 14.41 17.93 14.16 18.19C14.03 18.32 13.87 18.38 13.7 18.38C13.53 18.38 13.37 18.32 13.24 18.19L11.51 16.46C11.26 16.21 11.26 15.8 11.51 15.54L13.24 13.81C13.49 13.56 13.9 13.56 14.16 13.81C14.41 14.06 14.41 14.47 14.16 14.73L12.89 16L14.16 17.27ZM18.48 16.46L16.75 18.19C16.62 18.32 16.46 18.38 16.29 18.38C16.12 18.38 15.96 18.32 15.83 18.19C15.58 17.94 15.58 17.53 15.83 17.27L17.11 16L15.84 14.73C15.59 14.48 15.59 14.07 15.84 13.81C16.09 13.56 16.5 13.56 16.76 13.81L18.49 15.54C18.73 15.8 18.73 16.2 18.48 16.46Z" fill="#101010"/>
<path d="M18 5.00001V9.47001C18 9.82001 17.66 10.06 17.34 9.94001C16.23 9.51001 14.99 9.37001 13.69 9.63001C11.09 10.15 9.02 12.28 8.59 14.9C8.33 16.5 8.65 18.01 9.38 19.24C9.58 19.58 9.34 20 8.95 20H5C1.5 20 0 18 0 15V5.00001C0 2.34001 1.18 0.470013 3.89 0.0800128C4.18 0.0400128 4.44 0.270013 4.45 0.570013L4.48 1.58001C4.51 3.18001 5.86 4.50001 7.48 4.50001H10.5C12.15 4.50001 13.5 3.15001 13.5 1.50001V0.570013C13.5 0.270013 13.76 0.0300128 14.05 0.0700128C16.8 0.440013 18 2.32001 18 5.00001Z" fill="#101010"/>
<path d="M11.9996 1V1.5C11.9996 2.32 11.3196 3 10.4996 3H7.46963C6.65963 3 5.98963 2.35 5.96963 1.54L5.95963 1.03C5.93963 0.46 6.38963 0 6.95963 0H10.9996C11.5496 0 11.9996 0.45 11.9996 1Z" fill="#101010"/>
</svg>
