<svg width="22" height="18" viewBox="0 0 22 18" fill="none" xmlns="http://www.w3.org/2000/svg">
<path d="M0.701953 16.24C0.711953 16.23 0.711953 16.22 0.711953 16.22L6.21195 10.72C6.22195 10.71 6.23195 10.71 6.24195 10.7C5.61195 10.26 4.84195 10 4.00195 10C1.79195 10 0.00195312 11.79 0.00195312 14C0.00195312 14.75 0.211953 15.46 0.581953 16.06C0.621953 16.12 0.661953 16.18 0.701953 16.24Z" fill="#101010"/>
<path d="M7.30195 11.75C7.29195 11.76 7.29195 11.77 7.28195 11.78L1.78195 17.28C1.77195 17.29 1.76195 17.29 1.75195 17.3C2.39195 17.74 3.16195 18 4.00195 18C5.46195 18 6.73195 17.22 7.42195 16.06C7.79195 15.46 8.00195 14.75 8.00195 14C8.00195 13.16 7.74195 12.39 7.30195 11.75Z" fill="#101010"/>
<path d="M16.002 0H6.00195C3.00195 0 1.00195 1.5 1.00195 5V8.56C1.00195 8.93 1.38195 9.16 1.71195 9.01C2.69195 8.56 3.82195 8.39 5.01195 8.6C7.64195 9.07 9.57195 11.51 9.50195 14.18C9.49195 14.6 9.43195 15.01 9.32195 15.41C9.24195 15.72 9.49195 16.01 9.81195 16.01H16.002C19.002 16.01 21.002 14.51 21.002 11.01V5C21.002 1.5 19.002 0 16.002 0ZM11.002 10.5C9.62195 10.5 8.50195 9.38 8.50195 8C8.50195 6.62 9.62195 5.5 11.002 5.5C12.382 5.5 13.502 6.62 13.502 8C13.502 9.38 12.382 10.5 11.002 10.5ZM18.252 10C18.252 10.41 17.912 10.75 17.502 10.75C17.092 10.75 16.752 10.41 16.752 10V6C16.752 5.59 17.092 5.25 17.502 5.25C17.912 5.25 18.252 5.59 18.252 6V10Z" fill="#101010"/>
</svg>
