<svg width="21" height="21" viewBox="0 0 21 21" fill="none" xmlns="http://www.w3.org/2000/svg">
<path d="M8.25195 9.03C8.25195 9.57 8.40195 9.65 8.74195 9.77L9.25195 9.95V8.25H8.95195C8.57195 8.25 8.25195 8.6 8.25195 9.03Z" fill="#101010"/>
<path d="M10.752 13.75H11.052C11.442 13.75 11.752 13.4 11.752 12.97C11.752 12.43 11.602 12.35 11.262 12.23L10.752 12.05V13.75Z" fill="#101010"/>
<path d="M17.582 4.48L15.532 6.53C15.382 6.68 15.192 6.75 15.002 6.75C14.812 6.75 14.622 6.68 14.472 6.53C14.182 6.24 14.182 5.76 14.472 5.47L16.522 3.42C14.762 1.92 12.492 1 10.002 1C4.48195 1 0.00195312 5.48 0.00195312 11C0.00195312 16.52 4.48195 21 10.002 21C15.522 21 20.002 16.52 20.002 11C20.002 8.51 19.082 6.24 17.582 4.48ZM11.752 10.82C12.392 11.05 13.252 11.51 13.252 12.98C13.252 14.23 12.262 15.26 11.052 15.26H10.752V15.51C10.752 15.92 10.412 16.26 10.002 16.26C9.59195 16.26 9.25195 15.92 9.25195 15.51V15.26H9.17195C7.84195 15.26 6.75195 14.14 6.75195 12.76C6.75195 12.34 7.09195 12 7.50195 12C7.91195 12 8.25195 12.34 8.25195 12.75C8.25195 13.3 8.66195 13.75 9.17195 13.75H9.25195V11.53L8.25195 11.18C7.61195 10.95 6.75195 10.49 6.75195 9.02C6.75195 7.77 7.74195 6.74 8.95195 6.74H9.25195V6.5C9.25195 6.09 9.59195 5.75 10.002 5.75C10.412 5.75 10.752 6.09 10.752 6.5V6.75H10.832C12.162 6.75 13.252 7.87 13.252 9.25C13.252 9.66 12.912 10 12.502 10C12.092 10 11.752 9.66 11.752 9.25C11.752 8.7 11.342 8.25 10.832 8.25H10.752V10.47L11.752 10.82Z" fill="#101010"/>
<path d="M20.692 0.71C20.612 0.53 20.472 0.38 20.282 0.3C20.192 0.27 20.102 0.25 20.002 0.25H16.002C15.592 0.25 15.252 0.59 15.252 1C15.252 1.41 15.592 1.75 16.002 1.75H18.192L16.522 3.42C16.902 3.75 17.252 4.1 17.582 4.48L19.252 2.81V5C19.252 5.41 19.592 5.75 20.002 5.75C20.412 5.75 20.752 5.41 20.752 5V1C20.752 0.9 20.732 0.81 20.692 0.71Z" fill="#101010"/>
</svg>
