<svg width="21" height="21" viewBox="0 0 21 21" fill="none" xmlns="http://www.w3.org/2000/svg">
<path d="M18.97 9.37V12.56C18.97 14.88 17.09 16.76 14.77 16.76H11.21C10.66 16.76 10.21 17.2 10.21 17.76V18.58C10.21 19.13 10.66 19.58 11.21 19.58H13.47C13.86 19.58 14.18 19.89 14.18 20.29C14.18 20.68 13.86 21 13.47 21H5.53C5.14 21 4.82 20.68 4.82 20.29C4.82 19.89 5.14 19.58 5.53 19.58H7.79C8.34 19.58 8.79 19.13 8.79 18.58V17.76C8.79 17.2 8.34 16.76 7.79 16.76H4.19C1.88 16.76 0 14.88 0 12.56V6.19C0 3.88 1.88 2 4.19 2H8.5C9.05 2 9.5 2.45 9.5 3V5.15C9.5 7.08 10.79 8.37 12.71 8.37H17.97C18.52 8.37 18.97 8.82 18.97 9.37Z" fill="#101010"/>
<path d="M19.99 1.36L18.86 2.15V1.73C18.86 0.780001 18.09 0.0200011 17.15 0.0200011H12.87C11.84 0.0100011 11 0.850001 11 1.88V5.16C11 6.02 11.43 6.87 12.71 6.87H17.14C18.09 6.87 18.85 6.1 18.85 5.16V4.73L19.98 5.52C20.55 5.91 21 5.67 21 4.99V1.89C21 1.21 20.55 0.980001 19.99 1.36Z" fill="#101010"/>
</svg>
