<svg width="20" height="20" viewBox="0 0 20 20" fill="none" xmlns="http://www.w3.org/2000/svg">
<path d="M14.19 0H5.81C2.17 0 0 2.17 0 5.81V14.18C0 17.83 2.17 20 5.81 20H14.18C17.82 20 19.99 17.83 19.99 14.19V5.81C20 2.17 17.83 0 14.19 0ZM5 11.31C4.28 11.31 3.69 10.72 3.69 10C3.69 9.28 4.28 8.69 5 8.69C5.72 8.69 6.31 9.28 6.31 10C6.31 10.72 5.72 11.31 5 11.31ZM10 11.31C9.28 11.31 8.69 10.72 8.69 10C8.69 9.28 9.28 8.69 10 8.69C10.72 8.69 11.31 9.28 11.31 10C11.31 10.72 10.72 11.31 10 11.31ZM15 11.31C14.28 11.31 13.69 10.72 13.69 10C13.69 9.28 14.28 8.69 15 8.69C15.72 8.69 16.31 9.28 16.31 10C16.31 10.72 15.72 11.31 15 11.31Z" fill="#101010"/>
</svg>
