<svg width="21" height="22" viewBox="0 0 21 22" fill="none" xmlns="http://www.w3.org/2000/svg">
<path d="M19.9597 16.84L18.3297 17.39C17.8797 17.54 17.5197 17.89 17.3697 18.35L16.8197 19.98C16.3497 21.39 14.3697 21.36 13.9297 19.95L12.0797 14C11.7197 12.82 12.8097 11.72 13.9797 12.09L19.9397 13.94C21.3397 14.38 21.3597 16.37 19.9597 16.84Z" fill="#101010"/>
<path d="M19.9999 10.5C19.9999 10.93 19.9699 11.36 19.9199 11.78C19.8799 12.08 19.5699 12.26 19.2799 12.17L14.4299 10.66C13.3499 10.33 12.1999 10.61 11.3999 11.4C10.5999 12.2 10.3099 13.37 10.6499 14.45L12.1499 19.28C12.2399 19.57 12.0499 19.88 11.7499 19.92C11.3299 19.97 10.9199 20 10.4999 20C5.15991 20 0.859906 15.61 0.999906 10.23C1.13991 5.27003 5.26991 1.14003 10.2299 1.00003C15.6099 0.860028 19.9999 5.16003 19.9999 10.5Z" fill="#101010"/>
</svg>
