<svg width="21" height="21" viewBox="0 0 21 21" fill="none" xmlns="http://www.w3.org/2000/svg">
<path d="M17.21 13.01C16.12 12.94 15 13.34 14.17 14.17C12.61 15.73 12.61 18.26 14.17 19.83C14.7 20.36 15.35 20.71 16.04 20.88C16.42 20.98 16.82 21.01 17.22 20.99C18.17 20.95 19.1 20.57 19.83 19.84C20.86 18.81 21.21 17.36 20.88 16.05C20.72 15.36 20.36 14.71 19.83 14.18C19.11 13.45 18.17 13.06 17.21 13.01ZM19.24 16.98C19.24 17.19 19.16 17.37 19.02 17.51C18.88 17.65 18.7 17.73 18.49 17.73H17.75V18.51C17.75 18.72 17.67 18.9 17.53 19.04C17.39 19.18 17.21 19.26 17 19.26C16.59 19.26 16.25 18.92 16.25 18.51V17.73H15.5C15.09 17.73 14.75 17.39 14.75 16.98C14.75 16.57 15.09 16.23 15.5 16.23H16.25V15.52C16.25 15.11 16.59 14.77 17 14.77C17.41 14.77 17.75 15.11 17.75 15.52V16.23H18.49C18.91 16.23 19.24 16.57 19.24 16.98Z" fill="#101010"/>
<path d="M10.2302 10.0701C9.82023 10.0701 9.49023 10.4001 9.49023 10.8101C9.49023 11.2201 9.82023 11.5501 10.2302 11.5501C10.6402 11.5501 10.9702 11.2201 10.9702 10.8101C10.9702 10.4001 10.6402 10.0701 10.2302 10.0701Z" fill="#101010"/>
<path d="M4.75953 11.0601C4.34953 11.0601 4.01953 11.3901 4.01953 11.8001C4.01953 12.2101 4.34953 12.5401 4.75953 12.5401C5.16953 12.5401 5.49953 12.2101 5.49953 11.8001C5.49953 11.3901 5.16953 11.0601 4.75953 11.0601Z" fill="#101010"/>
<path d="M14.19 0H5.81C5.53 0 5.26 0.00999995 5 0.05C1.85 0.34 0 2.45 0 5.81V14.19C0 17.55 1.85 19.66 5 19.95C5.26 19.99 5.53 20 5.81 20H11.5C11.89 20 12.14 19.56 11.99 19.2C11.7 18.51 11.5 17.71 11.5 17C11.5 13.97 13.97 11.5 17 11.5C17.76 11.5 18.5 11.65 19.18 11.95C19.55 12.11 20 11.86 20 11.46V5.81C20 2.17 17.83 0 14.19 0ZM12.48 6.05V10.81C12.48 10.82 12.47 10.83 12.47 10.85C12.45 12.07 11.46 13.06 10.23 13.06C8.99 13.06 7.99 12.05 7.99 10.82C7.99 9.58 9 8.58 10.23 8.58C10.49 8.58 10.74 8.63 10.98 8.72V7.03L7.01 8.11V11.81C7.01 11.82 7 11.83 7 11.84C6.98 13.06 5.99 14.04 4.76 14.04C3.52 14.04 2.52 13.03 2.52 11.8C2.52 10.57 3.53 9.56 4.76 9.56C5.02 9.56 5.27 9.61 5.5 9.7V7.54V5.79C5.5 4.86 6.08 4.11 6.97 3.87L9.95 3.05C10.88 2.8 11.45 3.05 11.77 3.29C12.23 3.64 12.46 4.21 12.46 4.97V6.05H12.48Z" fill="#101010"/>
</svg>
