<svg width="18" height="20" viewBox="0 0 18 20" fill="none" xmlns="http://www.w3.org/2000/svg">
<path d="M17.8904 3.17995V14.4799C17.8904 16.4599 16.2804 18.0699 14.3004 18.0699C12.3304 18.0699 10.7104 16.4599 10.7104 14.4799C10.7104 12.5099 12.3304 10.8999 14.3004 10.8999C15.1404 10.8999 15.8904 11.1899 16.5004 11.6699V5.71995L7.29035 8.33995V16.4099C7.29035 18.3899 5.67035 19.9999 3.70035 19.9999C1.72035 19.9999 0.110352 18.3899 0.110352 16.4099C0.110352 14.4399 1.72035 12.8299 3.70035 12.8299C4.53035 12.8299 5.28035 13.1199 5.89035 13.5899V4.74995C5.89035 3.27995 6.78035 2.13995 8.19035 1.75995L13.9704 0.179947C15.1404 -0.140053 16.1304 -0.0300527 16.8304 0.509947C17.5403 1.03995 17.8904 1.93995 17.8904 3.17995Z" fill="#101010"/>
</svg>
