<svg width="21" height="21" viewBox="0 0 21 21" fill="none" xmlns="http://www.w3.org/2000/svg">
<path d="M19.97 14.33C19.25 13.51 18.18 13 17 13C14.79 13 13 14.79 13 17C13 17.75 13.21 18.46 13.58 19.06C13.78 19.4 14.04 19.71 14.34 19.97C15.04 20.61 15.97 21 17 21C18.46 21 19.73 20.22 20.42 19.06C20.79 18.46 21 17.75 21 17C21 15.98 20.61 15.04 19.97 14.33ZM18.6 18.58C18.45 18.73 18.26 18.8 18.07 18.8C17.88 18.8 17.69 18.73 17.54 18.58L17.01 18.05L16.46 18.6C16.31 18.75 16.12 18.82 15.93 18.82C15.74 18.82 15.55 18.75 15.4 18.6C15.11 18.31 15.11 17.83 15.4 17.54L15.95 16.99L15.42 16.46C15.13 16.17 15.13 15.69 15.42 15.4C15.71 15.11 16.19 15.11 16.48 15.4L17.01 15.93L17.51 15.43C17.8 15.14 18.28 15.14 18.57 15.43C18.86 15.72 18.86 16.2 18.57 16.49L18.07 16.99L18.6 17.52C18.89 17.81 18.89 18.28 18.6 18.58Z" fill="#101010"/>
<path d="M10.2302 10.0701C9.82023 10.0701 9.49023 10.4001 9.49023 10.8101C9.49023 11.2201 9.82023 11.5501 10.2302 11.5501C10.6402 11.5501 10.9702 11.2201 10.9702 10.8101C10.9702 10.4001 10.6402 10.0701 10.2302 10.0701Z" fill="#101010"/>
<path d="M4.75953 11.0601C4.34953 11.0601 4.01953 11.3901 4.01953 11.8001C4.01953 12.2101 4.34953 12.5401 4.75953 12.5401C5.16953 12.5401 5.49953 12.2101 5.49953 11.8001C5.49953 11.3901 5.16953 11.0601 4.75953 11.0601Z" fill="#101010"/>
<path d="M14.19 0H5.81C5.53 0 5.26 0.00999995 5 0.05C1.85 0.34 0 2.45 0 5.81V14.19C0 17.55 1.85 19.66 5 19.95C5.26 19.99 5.53 20 5.81 20H11.5C11.89 20 12.14 19.56 11.99 19.2C11.7 18.51 11.5 17.71 11.5 17C11.5 13.97 13.97 11.5 17 11.5C17.76 11.5 18.5 11.65 19.18 11.95C19.55 12.11 20 11.86 20 11.46V5.81C20 2.17 17.83 0 14.19 0ZM12.48 6.05V10.81C12.48 10.82 12.47 10.83 12.47 10.85C12.45 12.07 11.46 13.06 10.23 13.06C8.99 13.06 7.99 12.05 7.99 10.82C7.99 9.58 9 8.58 10.23 8.58C10.49 8.58 10.74 8.63 10.98 8.72V7.03L7.01 8.11V11.81C7.01 11.82 7 11.83 7 11.84C6.98 13.06 5.99 14.04 4.76 14.04C3.52 14.04 2.52 13.03 2.52 11.8C2.52 10.57 3.53 9.56 4.76 9.56C5.02 9.56 5.27 9.61 5.5 9.7V7.54V5.79C5.5 4.86 6.08 4.11 6.97 3.87L9.95 3.05C10.88 2.8 11.45 3.05 11.77 3.29C12.23 3.64 12.46 4.21 12.46 4.97V6.05H12.48Z" fill="#101010"/>
</svg>
