<svg width="19" height="22" viewBox="0 0 19 22" fill="none" xmlns="http://www.w3.org/2000/svg">
<path d="M18.7197 5.28001V6.45001C18.7197 7.43001 18.3297 8.27001 17.6397 8.76001C17.2097 9.08001 16.6797 9.23001 16.1297 9.23001C15.7897 9.23001 15.4497 9.18001 15.0997 9.06001L9.71973 7.27001V17C9.71973 19.62 7.58973 21.75 4.96973 21.75C2.34973 21.75 0.219727 19.62 0.219727 17C0.219727 14.38 2.34973 12.25 4.96973 12.25C6.22973 12.25 7.36973 12.75 8.21973 13.55V3.00001C8.21973 2.03001 8.61973 1.19001 9.30973 0.690011C9.99973 0.200011 10.9197 0.0900104 11.8397 0.39001L16.2597 1.87001C17.6197 2.32001 18.7197 3.85001 18.7197 5.28001Z" fill="#101010"/>
</svg>
