<svg width="22" height="22" viewBox="0 0 22 22" fill="none" xmlns="http://www.w3.org/2000/svg">
<path d="M19.6199 10.1L18.9999 9.88998L17.3299 9.33998C16.7499 9.14998 16.1599 9.21998 15.7099 9.53998C15.2699 9.86998 15.0099 10.4 15.0099 11.02V15.81C14.6099 15.59 14.1599 15.45 13.6699 15.45C12.1299 15.45 10.8799 16.71 10.8799 18.25C10.8799 18.51 10.9199 18.76 10.9799 19C11.3099 20.19 12.3899 21.05 13.6699 21.05C15.1999 21.05 16.4399 19.83 16.4699 18.31V13.7C16.4899 13.7 16.4999 13.71 16.5199 13.72L18.7999 14.48C18.8399 14.49 18.8899 14.51 18.9299 14.51C19.1099 14.56 19.2699 14.58 19.4399 14.58C19.7999 14.58 20.1399 14.48 20.4199 14.27C20.8699 13.95 21.1199 13.42 21.1199 12.8V12.2C21.1199 11.29 20.4799 10.39 19.6199 10.1ZM13.6699 19.59C13.2099 19.59 12.8099 19.36 12.5699 19C12.4199 18.79 12.3399 18.53 12.3399 18.25C12.3399 17.52 12.9399 16.92 13.6699 16.92C14.4099 16.92 15.0099 17.52 15.0099 18.25C15.0099 18.48 14.9499 18.69 14.8499 18.87C14.6299 19.3 14.1799 19.59 13.6699 19.59Z" fill="#101010"/>
<path d="M21.1199 12.2V12.8C21.1199 13.42 20.8699 13.95 20.4199 14.27C20.1399 14.48 19.7999 14.58 19.4399 14.58C19.2699 14.58 19.1099 14.56 18.9299 14.51C18.8899 14.51 18.8399 14.49 18.7999 14.48L16.5199 13.72C16.4999 13.71 16.4899 13.7 16.4699 13.7V18.31C16.4399 19.83 15.1999 21.05 13.6699 21.05C12.3899 21.05 11.3099 20.19 10.9799 19C10.9199 18.76 10.8799 18.51 10.8799 18.25C10.8799 16.71 12.1299 15.45 13.6699 15.45C14.1599 15.45 14.6099 15.59 15.0099 15.81V11.02C15.0099 10.4 15.2699 9.86998 15.7099 9.53998C16.1599 9.21998 16.7499 9.14998 17.3299 9.33998L18.9999 9.88998L19.6199 10.1C20.4799 10.39 21.1199 11.29 21.1199 12.2Z" fill="#101010"/>
<path d="M19 5.52V7.62C19 7.96 18.67 8.2 18.34 8.09L17.8 7.91C16.75 7.58 15.68 7.72 14.81 8.34C13.98 8.96 13.51 9.94 13.51 11.02V13.47C13.51 13.74 13.3 13.96 13.03 14C10.97 14.31 9.38 16.1 9.38 18.25C9.38 18.3 9.38 18.35 9.38 18.4C9.39 18.71 9.16 19 8.84 19H5.52C2.07 19 0 16.94 0 13.48V5.52C0 2.06 2.07 0 5.52 0H13.48C16.93 0 19 2.06 19 5.52Z" fill="#101010"/>
</svg>
