<svg width="21" height="20" viewBox="0 0 21 20" fill="none" xmlns="http://www.w3.org/2000/svg">
<path d="M12.5503 18.16C12.2903 18.27 12.0103 18.37 11.7103 18.47L10.1303 18.99C6.16034 20.27 4.07034 19.2 2.78034 15.23L1.50034 11.28C0.220341 7.31004 1.28034 5.21004 5.25034 3.93004L6.79034 3.42004C6.60034 3.90004 6.44034 4.45004 6.29034 5.07004L5.31034 9.26004C4.21034 13.97 5.82034 16.57 10.5303 17.69L12.2103 18.09C12.3203 18.12 12.4403 18.14 12.5503 18.16Z" fill="#101010"/>
<path d="M16.1702 1.21001L14.5002 0.820008C11.1602 0.0300081 9.17018 0.680008 8.00018 3.10001C7.70018 3.71001 7.46018 4.45001 7.26018 5.30001L6.28018 9.49001C5.30018 13.67 6.59018 15.73 10.7602 16.72L12.4402 17.12C13.0202 17.26 13.5602 17.35 14.0602 17.39C17.1802 17.69 18.8402 16.23 19.6802 12.62L20.6602 8.44001C21.6402 4.26001 20.3602 2.19001 16.1702 1.21001Z" fill="#101010"/>
</svg>
