<svg width="16" height="20" viewBox="0 0 16 20" fill="none" xmlns="http://www.w3.org/2000/svg">
<path d="M12 2.25C12 3.49 10.99 4.5 9.75 4.5H6.25C5.63 4.5 5.07 4.25 4.66 3.84C4.25 3.43 4 2.87 4 2.25C4 1.01 5.01 0 6.25 0H9.75C10.37 0 10.93 0.25 11.34 0.66C11.75 1.07 12 1.63 12 2.25Z" fill="#101010"/>
<path d="M14.83 3.02996C14.6 2.83996 14.34 2.68996 14.06 2.57996C13.77 2.46996 13.48 2.69996 13.42 2.99996C13.08 4.70996 11.57 5.99996 9.75 5.99996H6.25C5.25 5.99996 4.31 5.60996 3.6 4.89996C3.08 4.37996 2.72 3.71996 2.58 3.00996C2.52 2.70996 2.22 2.46996 1.93 2.58996C0.77 3.05996 0 4.11996 0 6.24996V16C0 19 1.79 20 4 20H12C14.21 20 16 19 16 16V6.24996C16 4.61996 15.55 3.61996 14.83 3.02996ZM4 10.25H8C8.41 10.25 8.75 10.59 8.75 11C8.75 11.41 8.41 11.75 8 11.75H4C3.59 11.75 3.25 11.41 3.25 11C3.25 10.59 3.59 10.25 4 10.25ZM12 15.75H4C3.59 15.75 3.25 15.41 3.25 15C3.25 14.59 3.59 14.25 4 14.25H12C12.41 14.25 12.75 14.59 12.75 15C12.75 15.41 12.41 15.75 12 15.75Z" fill="#101010"/>
</svg>
