<svg width="21" height="22" viewBox="0 0 21 22" fill="none" xmlns="http://www.w3.org/2000/svg">
<path d="M5.75 2.5V1C5.75 0.59 5.41 0.25 5 0.25C4.59 0.25 4.25 0.59 4.25 1V2.56C4.5 2.53 4.73 2.5 5 2.5H5.75Z" fill="#101010"/>
<path d="M13.75 2.56V1C13.75 0.59 13.41 0.25 13 0.25C12.59 0.25 12.25 0.59 12.25 1V2.5H13C13.27 2.5 13.5 2.53 13.75 2.56Z" fill="#101010"/>
<path d="M19.29 13.97C18.52 13.36 17.55 13 16.5 13C15.45 13 14.46 13.37 13.69 13.99C12.65 14.81 12 16.09 12 17.5C12 18.34 12.24 19.15 12.65 19.81C12.97 20.33 13.38 20.79 13.87 21.14C14.61 21.68 15.51 22 16.5 22C17.64 22 18.67 21.58 19.46 20.88C19.81 20.59 20.11 20.23 20.35 19.82C20.76 19.15 21 18.34 21 17.5C21 16.07 20.33 14.79 19.29 13.97ZM16.5 19.64C16.5 18.46 15.54 17.5 14.36 17.5C15.54 17.5 16.5 16.54 16.5 15.36C16.5 16.54 17.46 17.5 18.64 17.5C17.46 17.5 16.5 18.46 16.5 19.64Z" fill="#101010"/>
<path d="M13.75 2.56V4C13.75 4.41 13.41 4.75 13 4.75C12.59 4.75 12.25 4.41 12.25 4V2.5H5.75V4C5.75 4.41 5.41 4.75 5 4.75C4.59 4.75 4.25 4.41 4.25 4V2.56C1.3 2.83 0 4.73 0 7.5V16C0 19 1.5 21 5 21H9.13C9.89 21 10.4 20.15 10.21 19.41C10.07 18.87 10 18.31 10 17.75C10 15.67 10.93 13.75 12.54 12.48C13.71 11.53 15.21 11 16.75 11H16.79C17.42 11 18 10.54 18 9.91V7.5C18 4.73 16.7 2.83 13.75 2.56ZM7 15.75H5C4.59 15.75 4.25 15.41 4.25 15C4.25 14.59 4.59 14.25 5 14.25H7C7.41 14.25 7.75 14.59 7.75 15C7.75 15.41 7.41 15.75 7 15.75ZM10 10.75H5C4.59 10.75 4.25 10.41 4.25 10C4.25 9.59 4.59 9.25 5 9.25H10C10.41 9.25 10.75 9.59 10.75 10C10.75 10.41 10.41 10.75 10 10.75Z" fill="#101010"/>
</svg>
