<svg width="20" height="20" viewBox="0 0 20 20" fill="none" xmlns="http://www.w3.org/2000/svg">
<path d="M17 6C18.6569 6 20 4.65685 20 3C20 1.34315 18.6569 0 17 0C15.3431 0 14 1.34315 14 3C14 4.65685 15.3431 6 17 6Z" fill="#101010"/>
<path d="M17.8 7.42C17.77 7.43 17.74 7.43 17.71 7.44C17.63 7.45 17.56 7.46 17.47 7.47C17.32 7.49 17.16 7.5 17 7.5C16.57 7.5 16.16 7.44 15.77 7.32C15.6 7.28 15.44 7.23 15.29 7.16C15.14 7.1 14.98 7.02 14.84 6.94C14.09 6.53 13.47 5.91 13.06 5.16C12.98 5.02 12.9 4.86 12.84 4.71C12.77 4.56 12.72 4.4 12.68 4.23C12.56 3.84 12.5 3.43 12.5 3C12.5 2.84 12.51 2.68 12.53 2.53C12.54 2.44 12.55 2.37 12.56 2.29C12.57 2.26 12.57 2.23 12.58 2.2C12.7 1.58 12.24 1 11.6 1H5.52C5.38 1 5.24 1.01 5.11 1.02C4.99 1.03 4.88 1.04 4.76 1.06C4.64 1.07 4.52 1.09 4.41 1.11C2 1.46 0.46 2.99 0.11 5.41C0.0899999 5.52 0.0699999 5.64 0.0599999 5.76C0.0399999 5.88 0.03 5.99 0.02 6.11C0.00999998 6.24 0 6.38 0 6.52V14.48C0 14.62 0.00999998 14.76 0.02 14.89C0.03 15.01 0.0399999 15.12 0.0599999 15.24C0.0699999 15.36 0.0899999 15.48 0.11 15.59C0.46 18.01 2 19.54 4.41 19.89C4.52 19.91 4.64 19.93 4.76 19.94C4.88 19.96 4.99 19.97 5.11 19.98C5.24 19.99 5.38 20 5.52 20H13.48C13.62 20 13.76 19.99 13.89 19.98C14.01 19.97 14.12 19.96 14.24 19.94C14.36 19.93 14.48 19.91 14.59 19.89C17 19.54 18.54 18.01 18.89 15.59C18.91 15.48 18.93 15.36 18.94 15.24C18.96 15.12 18.97 15.01 18.98 14.89C18.99 14.76 19 14.62 19 14.48V8.4C19 7.76 18.42 7.3 17.8 7.42ZM10.28 13.25C9.75 14.92 7.93 15.82 7.3 15.82C6.66 15.82 4.87 14.94 4.33 13.25H4.32C3.97 12.14 4.37 10.69 5.64 10.28C6.22 10.09 6.84 10.2 7.29 10.55C7.74 10.2 8.37 10.09 8.96 10.28C10.23 10.69 10.63 12.14 10.28 13.25Z" fill="#101010"/>
</svg>
