<svg width="20" height="20" viewBox="0 0 20 20" fill="none" xmlns="http://www.w3.org/2000/svg">
<path d="M17 6C18.6569 6 20 4.65685 20 3C20 1.34315 18.6569 0 17 0C15.3431 0 14 1.34315 14 3C14 4.65685 15.3431 6 17 6Z" fill="#101010"/>
<path d="M19 8.4V14.48C19 14.62 18.99 14.76 18.98 14.89C18.97 15.01 18.96 15.12 18.94 15.24C18.93 15.36 18.91 15.48 18.89 15.59C18.54 18.01 17 19.54 14.59 19.89C14.48 19.91 14.36 19.93 14.24 19.94C14.12 19.96 14.01 19.97 13.89 19.98C13.76 19.99 13.62 20 13.48 20H5.52C5.38 20 5.24 19.99 5.11 19.98C4.99 19.97 4.88 19.96 4.76 19.94C4.64 19.93 4.52 19.91 4.41 19.89C2 19.54 0.46 18.01 0.11 15.59C0.0899999 15.48 0.0699999 15.36 0.0599999 15.24C0.0399999 15.12 0.03 15.01 0.02 14.89C0.00999998 14.76 0 14.62 0 14.48V6.52C0 6.38 0.00999998 6.24 0.02 6.11C0.03 5.99 0.0399999 5.88 0.0599999 5.76C0.0699999 5.64 0.0899999 5.52 0.11 5.41C0.46 2.99 2 1.46 4.41 1.11C4.52 1.09 4.64 1.07 4.76 1.06C4.88 1.04 4.99 1.03 5.11 1.02C5.24 1.01 5.38 1 5.52 1H11.6C12.24 1 12.7 1.58 12.58 2.2C12.58 2.22 12.57 2.24 12.57 2.26C12.55 2.36 12.54 2.46 12.52 2.57C12.48 2.99 12.5 3.44 12.59 3.9C12.62 4.02 12.64 4.12 12.68 4.23C12.76 4.56 12.89 4.87 13.06 5.16C13.12 5.28 13.2 5.4 13.27 5.51C13.6 5.99 14.01 6.4 14.49 6.73C14.6 6.8 14.72 6.88 14.84 6.94C15.13 7.11 15.44 7.24 15.77 7.32C15.88 7.36 15.98 7.38 16.1 7.41C16.56 7.5 17.01 7.52 17.43 7.48C17.54 7.46 17.64 7.45 17.74 7.43C17.76 7.43 17.78 7.42 17.8 7.42C18.42 7.3 19 7.76 19 8.4Z" fill="#101010"/>
</svg>
