<svg width="20" height="20" viewBox="0 0 20 20" fill="none" xmlns="http://www.w3.org/2000/svg">
<path d="M10 0C4.48 0 0 4.48 0 10C0 15.52 4.48 20 10 20C15.52 20 20 15.52 20 10C20 4.48 15.52 0 10 0ZM15 15.25H11.9C11.6 15.25 11.33 15.08 11.21 14.8C11.09 14.52 11.14 14.21 11.34 13.99L12.96 12.2C13.63 11.45 14.01 10.5 14.01 9.52C14.01 8.52 13.6 7.58 12.85 6.87C12.1 6.16 11.06 5.75 10 5.75C8.94 5.75 7.9 6.16 7.15 6.87C6.4 7.58 5.99 8.52 5.99 9.52C5.99 10.5 6.36 11.45 7.04 12.2L8.65 14C8.85 14.22 8.9 14.54 8.78 14.81C8.66 15.08 8.39 15.26 8.09 15.26H5C4.59 15.26 4.25 14.92 4.25 14.51C4.25 14.1 4.59 13.75 5 13.75H6.41L5.92 13.21C5 12.19 4.49 10.88 4.49 9.52C4.49 8.13 5.08 6.76 6.12 5.78C7.16 4.79 8.53 4.25 10 4.25C11.47 4.25 12.84 4.79 13.88 5.78C14.91 6.76 15.51 8.13 15.51 9.52C15.51 10.87 15 12.18 14.08 13.21L13.59 13.75H15C15.41 13.75 15.75 14.09 15.75 14.5C15.75 14.91 15.41 15.25 15 15.25Z" fill="#101010"/>
</svg>
