<svg width="21" height="21" viewBox="0 0 21 21" fill="none" xmlns="http://www.w3.org/2000/svg">
<path d="M18.11 6.47L14.59 2.95C11.43 -0.199998 9.77005 0.960002 7.77005 2.95L2.11005 8.61C0.960048 9.76 0.330048 10.5 0.100048 11.32C0.100048 11.33 0.0900479 11.33 0.0900479 11.33C0.0900479 11.34 0.0900479 11.34 0.0900479 11.34C0.0900479 11.35 0.0900479 11.35 0.0900479 11.35V11.38C-0.319952 12.84 0.760048 14.08 2.11005 15.43L5.64005 18.94C6.90005 20.21 7.92005 21 9.05005 21C10.18 21 11.15 20.24 12.45 18.94L18.11 13.29C18.6 12.79 18.96 12.38 19.24 11.99C19.24 11.98 19.24 11.98 19.24 11.98C19.24 11.98 19.24 11.98 19.25 11.98C20.53 10.19 20.19 8.54 18.11 6.47ZM17.08 10.37H17.07C16.77 10.3 16.46 10.24 16.15 10.18C16.13 10.18 16.11 10.17 16.08 10.17C15.38 10.04 14.67 9.93 13.95 9.84H13.91C13.19 9.75 12.46 9.68 11.73 9.64H11.65C11.01 9.6 10.36 9.58 9.72005 9.58C8.94005 9.58 8.16005 9.62 7.39005 9.67C7.26005 9.68 7.14005 9.69 7.02005 9.7C6.44005 9.74 5.86005 9.8 5.29005 9.87C5.13005 9.89 4.98005 9.91 4.83005 9.93C4.25005 10.02 3.68005 10.11 3.11005 10.22C2.98005 10.25 2.86005 10.27 2.73005 10.29C2.68005 10.3 2.62005 10.31 2.57005 10.32C2.75005 10.12 2.96005 9.91 3.19005 9.68L8.84005 4.03C10.66 2.23 11.28 1.8 13.52 4.03L17.03 7.55C17.57 8.08 17.93 8.53 18.15 8.92C18.15 8.92 18.15 8.93 18.16 8.93C18.58 9.66 17.9 10.53 17.08 10.37Z" fill="#101010"/>
<path d="M19.9499 15.87C19.5699 15.4 19.2399 15 18.4999 15C17.7599 15 17.4299 15.4 17.0599 15.87C16.2599 16.86 15.8999 17.94 16.0299 18.98C16.1799 20.17 17.1999 21 18.4999 21C19.7999 21 20.8199 20.17 20.9699 18.97C21.0999 17.93 20.7499 16.86 19.9499 15.87Z" fill="#101010"/>
</svg>
