<svg width="20" height="20" viewBox="0 0 20 20" fill="none" xmlns="http://www.w3.org/2000/svg">
<path d="M14.19 0H5.81C2.17 0 0 2.17 0 5.81V14.18C0 17.83 2.17 20 5.81 20H14.18C17.82 20 19.99 17.83 19.99 14.19V5.81C20 2.17 17.83 0 14.19 0ZM14.66 9.25L13.04 10.27L13.18 12.67C13.31 14.01 12.85 14.47 11.58 14.62L6.51 15.22C6.23176 15.2579 6.13732 14.9427 6.33589 14.7441L7.88 13.2C8.17 12.91 8.17 12.43 7.88 12.14C7.58 11.85 7.11 11.85 6.81 12.14L5.27478 13.683C5.07699 13.8818 4.76211 13.7879 4.8 13.51L5.39 8.44C5.55 7.17 6.01 6.76 7.35 6.84L9.74 6.98L10.77 5.35C11.24 4.61 12.2 4.57 12.9 5.27L14.75 7.12C15.41 7.77 15.37 8.8 14.66 9.25Z" fill="#101010"/>
</svg>
