<svg width="18" height="20" viewBox="0 0 18 20" fill="none" xmlns="http://www.w3.org/2000/svg">
<path d="M11.1495 20H6.82949C5.28949 20 4.14949 18.75 4.44949 17.42L4.96949 15.1C5.06949 14.64 5.47949 14.32 5.94949 14.32H12.0395C12.5095 14.32 12.9095 14.64 13.0195 15.1L13.5395 17.41C13.8595 18.84 12.7895 20 11.1495 20Z" fill="#101010"/>
<path d="M15.8198 11.69L14.7498 12.63C14.3798 12.95 13.9098 13.13 13.4298 13.13H4.58983C4.09983 13.13 3.61983 12.95 3.25983 12.62L2.20983 11.68C0.489831 10.27 0.479831 9.19 1.79983 7.53L7.02983 0.920001C7.06636 0.870943 7.10388 0.823737 7.14228 0.778361C7.58322 0.257346 8.26983 0.704869 8.26983 1.38743V4.86C8.25983 5.29 8.59983 5.63 9.01983 5.62C9.43983 5.63 9.76983 5.29 9.77983 4.86V1.38743C9.77983 0.704869 10.4562 0.267602 10.9088 0.77848C10.9463 0.820769 10.9833 0.864606 11.0198 0.910001L16.2298 7.53C17.5298 9.19 17.4798 10.22 15.8198 11.69Z" fill="#101010"/>
</svg>
