<svg width="22" height="21" viewBox="0 0 22 21" fill="none" xmlns="http://www.w3.org/2000/svg">
<path d="M19.9795 9.7C19.7595 5.8 16.8695 2.55 13.0095 1.89C12.9495 1.12 12.3095 0.5 11.5195 0.5H10.5195C9.72953 0.5 9.09953 1.11 9.02953 1.88C5.14953 2.52 2.23953 5.78 2.01953 9.7C1.30953 9.82 0.769531 10.43 0.769531 11.17V12.17C0.769531 13 1.43953 13.67 2.26953 13.67H3.26953C4.09953 13.67 4.76953 13 4.76953 12.17V11.17C4.76953 10.43 4.22953 9.82 3.51953 9.7C3.72953 6.58 6.01953 3.99 9.07953 3.39C9.24953 4.03 9.82953 4.5 10.5195 4.5H11.5195C12.2095 4.5 12.7795 4.03 12.9595 3.4C15.9995 4.01 18.2695 6.6 18.4795 9.7C17.7695 9.82 17.2295 10.43 17.2295 11.17V12.17C17.2295 13 17.8995 13.67 18.7295 13.67H19.7295C20.5595 13.67 21.2295 13 21.2295 12.17V11.17C21.2295 10.43 20.6895 9.81 19.9795 9.7Z" fill="#101010"/>
<path d="M14.7693 15.55L13.1293 17H8.87935L7.23935 15.55C6.28935 14.77 6.28935 14.17 7.00935 13.25L9.89935 9.59C10.0993 9.34 10.3293 9.17 10.5893 9.08C10.8593 8.99 11.1493 8.99 11.4293 9.08C11.6793 9.17 11.9093 9.34 12.1193 9.59L14.9993 13.24C15.7293 14.16 15.6893 14.73 14.7693 15.55Z" fill="#101010"/>
<path d="M12.3192 21H9.72919C8.80919 21 8.11919 20.25 8.29919 19.45L8.60919 18.06C8.66919 17.78 8.91919 17.59 9.19919 17.59H12.8492C13.1292 17.59 13.3692 17.78 13.4392 18.06L13.7492 19.45C13.9392 20.3 13.2992 21 12.3192 21Z" fill="#101010"/>
</svg>
