<svg width="21" height="21" viewBox="0 0 21 21" fill="none" xmlns="http://www.w3.org/2000/svg">
<path d="M14.0003 19.29L4.64034 20.39C3.99034 20.47 3.41034 20.37 2.92034 20.13C2.40034 19.87 1.99034 19.47 1.73034 18.94C1.49034 18.45 1.40034 17.88 1.47034 17.24L2.32034 10.09C2.40034 10.12 2.48034 10.15 2.56034 10.17C3.17034 10.39 3.82034 10.5 4.50034 10.5C5.96034 10.5 7.37034 9.97 8.44034 9.02C8.90034 8.62 9.31034 8.14 9.64034 7.59C9.92034 7.12 10.1303 6.62 10.2703 6.13C10.3403 5.87 10.4003 5.59 10.4403 5.31C10.4503 5.26 10.4503 5.21 10.4503 5.16L10.6203 5.17L16.7003 11.26L16.9603 15.68C17.2103 18.16 16.3503 19.02 14.0003 19.29Z" fill="#101010"/>
<path d="M4.5 0C3.44 0 2.46 0.37 1.69 0.99C0.65 1.81 0 3.08 0 4.5C0 5.34 0.24 6.14 0.65 6.82C1.09 7.55 1.73 8.15 2.51 8.53C2.68 8.62 2.87 8.7 3.06 8.76C3.51 8.92 3.99 9 4.5 9C5.64 9 6.67 8.58 7.46 7.88C7.81 7.58 8.11 7.22 8.35 6.82C8.56 6.47 8.72 6.1 8.83 5.7C8.89 5.5 8.93 5.29 8.96 5.07C8.99 4.88 9 4.69 9 4.5C9 2.01 6.99 0 4.5 0ZM6.23 6.21C6.09 6.35 5.89 6.43 5.7 6.43C5.51 6.43 5.32 6.35 5.17 6.21L4.51 5.55L3.83 6.23C3.68 6.38 3.49 6.45 3.3 6.45C3.11 6.45 2.91 6.38 2.77 6.23C2.48 5.94 2.48 5.46 2.77 5.17L3.46 4.48L2.79 3.83C2.5 3.54 2.5 3.06 2.79 2.77C3.08 2.48 3.56 2.48 3.85 2.77L4.51 3.43L5.14 2.8C5.43 2.51 5.91 2.51 6.2 2.8C6.49 3.09 6.49 3.57 6.2 3.86L5.57 4.49L6.23 5.15C6.53 5.44 6.53 5.91 6.23 6.21Z" fill="#101010"/>
<path d="M19.9996 8.28L17.9296 9.59C17.5396 9.83 17.0396 9.78 16.7196 9.45L12.2896 5.02C11.9696 4.7 11.9096 4.2 12.1496 3.81L13.4596 1.74C14.2596 0.48 15.8596 0.42 17.0496 1.59L20.1596 4.7C21.2496 5.81 21.1796 7.53 19.9996 8.28Z" fill="#101010"/>
</svg>
