<svg width="21" height="21" viewBox="0 0 21 21" fill="none" xmlns="http://www.w3.org/2000/svg">
<path d="M16.53 5.77C16.46 5.76 16.39 5.76 16.32 5.77C14.77 5.72 13.54 4.45 13.54 2.89C13.54 1.3 14.83 0 16.43 0C18.02 0 19.32 1.29 19.32 2.89C19.31 4.45 18.08 5.72 16.53 5.77Z" fill="#101010"/>
<path d="M19.7906 12.7C18.6706 13.45 17.1006 13.73 15.6506 13.54C16.0306 12.72 16.2306 11.81 16.2406 10.85C16.2406 9.85004 16.0206 8.90004 15.6006 8.07004C17.0806 7.87004 18.6506 8.15004 19.7806 8.90004C21.3606 9.94004 21.3606 11.65 19.7906 12.7Z" fill="#101010"/>
<path d="M5.44016 5.77C5.51016 5.76 5.58016 5.76 5.65016 5.77C7.20016 5.72 8.43016 4.45 8.43016 2.89C8.43016 1.29 7.14016 0 5.54016 0C3.95016 0 2.66016 1.29 2.66016 2.89C2.66016 4.45 3.89016 5.72 5.44016 5.77Z" fill="#101010"/>
<path d="M5.55012 10.85C5.55012 11.82 5.76012 12.74 6.14012 13.57C4.73012 13.72 3.26012 13.42 2.18012 12.71C0.600117 11.66 0.600117 9.94998 2.18012 8.89998C3.25012 8.17998 4.76012 7.88998 6.18012 8.04998C5.77012 8.88998 5.55012 9.83998 5.55012 10.85Z" fill="#101010"/>
<path d="M11.1198 13.87C11.0398 13.86 10.9498 13.86 10.8598 13.87C9.0198 13.81 7.5498 12.3 7.5498 10.44C7.5598 8.54 9.0898 7 10.9998 7C12.8998 7 14.4398 8.54 14.4398 10.44C14.4298 12.3 12.9698 13.81 11.1198 13.87Z" fill="#101010"/>
<path d="M7.8698 15.94C6.3598 16.95 6.3598 18.61 7.8698 19.61C9.5898 20.76 12.4098 20.76 14.1298 19.61C15.6398 18.6 15.6398 16.94 14.1298 15.94C12.4198 14.79 9.5998 14.79 7.8698 15.94Z" fill="#101010"/>
</svg>
