<svg width="21" height="20" viewBox="0 0 21 20" fill="none" xmlns="http://www.w3.org/2000/svg">
<path d="M14.2037 0H5.82367C2.18367 0 0.0136719 2.17 0.0136719 5.81V14.18C0.0136719 17.83 2.18367 20 5.82367 20H14.1937C17.8337 20 20.0037 17.83 20.0037 14.19V5.81C20.0137 2.17 17.8437 0 14.2037 0ZM5.76367 7.14C5.76367 6.33 6.42367 5.66 7.24367 5.66C8.05367 5.66 8.72367 6.32 8.72367 7.14C8.72367 7.95 8.06367 8.62 7.24367 8.62C6.42367 8.61 5.76367 7.95 5.76367 7.14ZM6.83367 14.02C6.64367 14.02 6.45367 13.95 6.30367 13.8C6.01367 13.51 6.01367 13.04 6.30367 12.74L12.8537 6.19C13.1437 5.9 13.6237 5.9 13.9137 6.19C14.2037 6.48 14.2037 6.96 13.9137 7.25L7.36367 13.8C7.21367 13.95 7.02367 14.02 6.83367 14.02ZM13.7837 14.34C12.9737 14.34 12.3037 13.68 12.3037 12.86C12.3037 12.05 12.9637 11.38 13.7837 11.38C14.5937 11.38 15.2637 12.04 15.2637 12.86C15.2637 13.68 14.6037 14.34 13.7837 14.34Z" fill="#101010"/>
</svg>
