<svg width="20" height="18" viewBox="0 0 20 18" fill="none" xmlns="http://www.w3.org/2000/svg">
<path d="M16 0H4C1.79 0 0 1.78 0 3.97V14.03C0 16.22 1.79 18 4 18H16C18.21 18 20 16.22 20 14.03V3.97C20 1.78 18.21 0 16 0ZM6.5 4.17C7.77 4.17 8.81 5.21 8.81 6.48C8.81 7.75 7.77 8.79 6.5 8.79C5.23 8.79 4.19 7.75 4.19 6.48C4.19 5.21 5.23 4.17 6.5 4.17ZM10.37 13.66C10.28 13.76 10.14 13.82 10 13.82H3C2.86 13.82 2.72 13.76 2.63 13.66C2.54 13.56 2.49 13.42 2.5 13.28C2.67 11.6 4.01 10.27 5.69 10.11C6.22 10.06 6.77 10.06 7.3 10.11C8.98 10.27 10.33 11.6 10.49 13.28C10.51 13.42 10.46 13.56 10.37 13.66ZM17 13.75H15C14.59 13.75 14.25 13.41 14.25 13C14.25 12.59 14.59 12.25 15 12.25H17C17.41 12.25 17.75 12.59 17.75 13C17.75 13.41 17.41 13.75 17 13.75ZM17 9.75H13C12.59 9.75 12.25 9.41 12.25 9C12.25 8.59 12.59 8.25 13 8.25H17C17.41 8.25 17.75 8.59 17.75 9C17.75 9.41 17.41 9.75 17 9.75ZM17 5.75H12C11.59 5.75 11.25 5.41 11.25 5C11.25 4.59 11.59 4.25 12 4.25H17C17.41 4.25 17.75 4.59 17.75 5C17.75 5.41 17.41 5.75 17 5.75Z" fill="#101010"/>
</svg>
