<svg width="22" height="20" viewBox="0 0 22 20" fill="none" xmlns="http://www.w3.org/2000/svg">
<path d="M18.0798 13.7201C17.4898 10.1901 14.0998 7.32007 10.5198 7.32007C6.62979 7.32007 3.20979 10.4701 2.87979 14.3501C2.74979 15.8501 3.22979 17.2701 4.21979 18.3401C5.19979 19.4101 6.57979 20.0001 8.07979 20.0001H12.7598C14.4498 20.0001 15.9298 19.3401 16.9398 18.1501C17.9498 16.9601 18.3498 15.3801 18.0798 13.7201Z" fill="#101010"/>
<path d="M9.2801 5.86C10.8983 5.86 12.2101 4.54819 12.2101 2.93C12.2101 1.31181 10.8983 0 9.2801 0C7.6619 0 6.3501 1.31181 6.3501 2.93C6.3501 4.54819 7.6619 5.86 9.2801 5.86Z" fill="#101010"/>
<path d="M15.94 7.0299C17.2876 7.0299 18.38 5.93748 18.38 4.5899C18.38 3.24233 17.2876 2.1499 15.94 2.1499C14.5924 2.1499 13.5 3.24233 13.5 4.5899C13.5 5.93748 14.5924 7.0299 15.94 7.0299Z" fill="#101010"/>
<path d="M19.5501 10.93C20.6271 10.93 21.5001 10.057 21.5001 8.98003C21.5001 7.90307 20.6271 7.03003 19.5501 7.03003C18.4731 7.03003 17.6001 7.90307 17.6001 8.98003C17.6001 10.057 18.4731 10.93 19.5501 10.93Z" fill="#101010"/>
<path d="M2.94 8.9801C4.28757 8.9801 5.38 7.88767 5.38 6.5401C5.38 5.19252 4.28757 4.1001 2.94 4.1001C1.59243 4.1001 0.5 5.19252 0.5 6.5401C0.5 7.88767 1.59243 8.9801 2.94 8.9801Z" fill="#101010"/>
</svg>
