<svg width="20" height="20" viewBox="0 0 20 20" fill="none" xmlns="http://www.w3.org/2000/svg">
<path d="M8.51 9.22L6.31 0.39C6.26 0.16 6.05 0 5.81 0C2.6 0 0 2.6 0 5.81V11.51C0 11.85 0.33 12.1 0.66 12L8.16 9.83C8.42 9.76 8.58 9.49 8.51 9.22Z" fill="#101010"/>
<path d="M9.12 11.68C9.05 11.4 8.76 11.23 8.48 11.31L0.37 13.67C0.15 13.74 0 13.94 0 14.17V14.19C0 17.4 2.6 20 5.81 20H10.53C10.86 20 11.11 19.69 11.03 19.36L9.12 11.68Z" fill="#101010"/>
<path d="M14.1898 0H8.43983C8.10983 0 7.85983 0.31 7.93983 0.64L12.6798 19.61C12.7398 19.84 12.9398 20 13.1798 20H14.1798C17.3998 20 19.9998 17.4 19.9998 14.19V5.81C19.9998 2.6 17.3998 0 14.1898 0Z" fill="#101010"/>
</svg>
