<svg width="17" height="18" viewBox="0 0 17 18" fill="none" xmlns="http://www.w3.org/2000/svg">
<path d="M13.49 6.60001L1.6 13.77C0.9 14.19 0 13.69 0 12.87V4.87001C0 1.38001 3.77 -0.799987 6.8 0.940013L11.39 3.58001L13.48 4.78001C14.17 5.19001 14.18 6.19001 13.49 6.60001Z" fill="#101010"/>
<path d="M14.0898 12.46L10.0398 14.8L5.99981 17.13C4.54981 17.96 2.90981 17.79 1.71981 16.95C1.13981 16.55 1.20981 15.66 1.81981 15.3L14.5298 7.68001C15.1298 7.32001 15.9198 7.66002 16.0298 8.35002C16.2798 9.90001 15.6398 11.57 14.0898 12.46Z" fill="#101010"/>
</svg>
