<svg width="22" height="22" viewBox="0 0 22 22" fill="none" xmlns="http://www.w3.org/2000/svg">
<path d="M18.0707 18.8201C17.8807 18.8201 17.6907 18.7501 17.5407 18.6001C17.2507 18.3101 17.2507 17.8301 17.5407 17.5401C21.1507 13.9301 21.1507 8.06012 17.5407 4.46012C17.2507 4.17012 17.2507 3.69012 17.5407 3.40012C17.8307 3.11012 18.3107 3.11012 18.6007 3.40012C22.7907 7.59012 22.7907 14.4101 18.6007 18.6001C18.4507 18.7501 18.2607 18.8201 18.0707 18.8201Z" fill="#101010"/>
<path d="M3.93031 18.8201C3.74031 18.8201 3.55031 18.7501 3.40031 18.6001C-0.789688 14.4101 -0.789688 7.59012 3.40031 3.40012C3.69031 3.11012 4.17031 3.11012 4.46031 3.40012C4.75031 3.69012 4.75031 4.17012 4.46031 4.46012C0.850312 8.07012 0.850312 13.9401 4.46031 17.5401C4.75031 17.8301 4.75031 18.3101 4.46031 18.6001C4.31031 18.7501 4.12031 18.8201 3.93031 18.8201Z" fill="#101010"/>
<path d="M11.0007 21.71C9.75074 21.7 8.56074 21.5 7.45074 21.11C7.06074 20.97 6.85074 20.54 6.99074 20.15C7.13074 19.76 7.55074 19.55 7.95074 19.69C8.91074 20.02 9.93074 20.2 11.0107 20.2C12.0807 20.2 13.1107 20.02 14.0607 19.69C14.4507 19.56 14.8807 19.76 15.0207 20.15C15.1607 20.54 14.9507 20.97 14.5607 21.11C13.4407 21.5 12.2507 21.71 11.0007 21.71Z" fill="#101010"/>
<path d="M14.3007 2.34004C14.2207 2.34004 14.1307 2.33004 14.0507 2.30004C13.1007 1.96004 12.0707 1.79004 11.0007 1.79004C9.93074 1.79004 8.91074 1.97004 7.95074 2.30004C7.55074 2.43004 7.13074 2.23004 6.99074 1.84004C6.85074 1.45004 7.06074 1.02004 7.45074 0.880039C8.57074 0.490039 9.76074 0.290039 11.0007 0.290039C12.2407 0.290039 13.4407 0.490039 14.5507 0.880039C14.9407 1.02004 15.1507 1.45004 15.0107 1.84004C14.9007 2.15004 14.6107 2.34004 14.3007 2.34004Z" fill="#101010"/>
<path d="M7.74023 11.0001V9.33014C7.74023 7.25014 9.21023 6.40014 11.0102 7.44014L12.4602 8.28014L13.9102 9.12014C15.7102 10.1601 15.7102 11.8601 13.9102 12.9001L12.4602 13.7401L11.0102 14.5801C9.21023 15.6201 7.74023 14.7701 7.74023 12.6901V11.0001Z" fill="#101010"/>
</svg>
