<svg width="21" height="20" viewBox="0 0 21 20" fill="none" xmlns="http://www.w3.org/2000/svg">
<path d="M10.9697 0C5.44973 0 0.969727 4.48 0.969727 10C0.969727 15.52 5.44973 20 10.9697 20C16.4897 20 20.9697 15.52 20.9697 10C20.9697 4.48 16.4997 0 10.9697 0ZM13.9697 12.23L11.0697 13.9C10.7097 14.11 10.3097 14.21 9.91973 14.21C9.51973 14.21 9.12973 14.11 8.76973 13.9C8.04973 13.48 7.61973 12.74 7.61973 11.9V8.55C7.61973 7.72 8.04973 6.97 8.76973 6.55C9.48973 6.13 10.3497 6.13 11.0797 6.55L13.9797 8.22C14.6997 8.64 15.1297 9.38 15.1297 10.22C15.1297 11.06 14.6997 11.81 13.9697 12.23Z" fill="#101010"/>
</svg>
