<svg width="21" height="21" viewBox="0 0 21 21" fill="none" xmlns="http://www.w3.org/2000/svg">
<path d="M19.8497 8.24992C19.0697 3.79992 15.2397 0.349915 10.7297 0.0299155C4.62972 -0.410085 -0.410281 4.63991 0.0297192 10.7299C0.349719 15.2399 3.79972 19.0599 8.24972 19.8399C9.39972 20.0399 10.5197 20.0399 11.5897 19.8599C11.8997 19.8099 12.0797 19.4699 11.9597 19.1899C11.6597 18.5099 11.4997 17.7599 11.4997 16.9899C11.4997 15.2999 12.2497 13.7399 13.5697 12.6999C14.5397 11.9199 15.7597 11.4899 16.9997 11.4899C17.7797 11.4899 18.5197 11.6499 19.1897 11.9499C19.4797 12.0799 19.8097 11.8899 19.8697 11.5799C20.0497 10.5199 20.0497 9.39991 19.8497 8.24992ZM12.4997 11.5699L11.2997 12.2599L10.0997 12.9499C8.60972 13.8099 7.38972 13.1099 7.38972 11.3799V9.99992V8.60991C7.38972 6.88991 8.60972 6.17992 10.0997 7.03992L11.2997 7.72992L12.4997 8.41992C13.9897 9.29992 13.9897 10.6999 12.4997 11.5699Z" fill="#101010"/>
<path d="M17 13C16.06 13 15.19 13.33 14.5 13.88C13.58 14.61 13 15.74 13 17C13 17.75 13.21 18.46 13.58 19.06C14.27 20.22 15.54 21 17 21C18.01 21 18.93 20.63 19.63 20C19.94 19.74 20.21 19.42 20.42 19.06C20.79 18.46 21 17.75 21 17C21 14.79 19.21 13 17 13ZM18.5 17.73H17.75V18.51C17.75 18.92 17.41 19.26 17 19.26C16.59 19.26 16.25 18.92 16.25 18.51V17.73H15.5C15.09 17.73 14.75 17.39 14.75 16.98C14.75 16.57 15.09 16.23 15.5 16.23H16.25V15.52C16.25 15.11 16.59 14.77 17 14.77C17.41 14.77 17.75 15.11 17.75 15.52V16.23H18.5C18.91 16.23 19.25 16.57 19.25 16.98C19.25 17.39 18.91 17.73 18.5 17.73Z" fill="#101010"/>
</svg>
