<svg width="22" height="22" viewBox="0 0 22 22" fill="none" xmlns="http://www.w3.org/2000/svg">
<path d="M5 6C3 6 2 7 2 9V14C2 16 3 17 5 17L7 15V14H8L16 6H5ZM6 10.75C5.59 10.75 5.25 10.41 5.25 10C5.25 9.59 5.59 9.25 6 9.25H8C8.41 9.25 8.75 9.59 8.75 10C8.75 10.41 8.41 10.75 8 10.75H6Z" fill="#101010"/>
<path d="M8 14L7 15V14H8Z" fill="#101010"/>
<path d="M16 4V6H6V4C6 2.34 7.34 1 9 1H13C14.66 1 16 2.34 16 4Z" fill="#101010"/>
<path d="M21.5304 0.469999C21.2404 0.179999 20.7604 0.179999 20.4704 0.469999L0.47043 20.47C0.18043 20.76 0.18043 21.24 0.47043 21.53C0.62043 21.68 0.81043 21.75 1.00043 21.75C1.19043 21.75 1.38043 21.68 1.53043 21.53L21.5304 1.53C21.8204 1.24 21.8204 0.759999 21.5304 0.469999Z" fill="#101010"/>
<path d="M16.0001 13.25H11.9572C11.8246 13.25 11.6974 13.3027 11.6037 13.3964L11.0001 14L10.2501 14.75L7.80011 17.2C7.16011 17.84 7.03011 19 7.55011 19.74C8.09011 20.5 8.99011 21 10.0001 21H12.0001C13.6601 21 15.0001 19.66 15.0001 18V14.75H16.0001C16.4101 14.75 16.7501 14.41 16.7501 14C16.7501 13.59 16.4101 13.25 16.0001 13.25Z" fill="#101010"/>
<path d="M18.02 6.98L14.46 10.54C13.83 11.17 14.28 12.25 15.17 12.25H15.91C16.78 12.25 17.59 12.84 17.73 13.7C17.8812 14.6153 17.313 15.439 16.4934 15.6795C16.2284 15.7572 16 15.9739 16 16.25V16.5C16 16.7761 16.2239 17 16.5 17H17C18.66 17 20 15.66 20 14V9C20 8.21 19.84 7.57 19.53 7.09C19.19 6.58 18.45 6.55 18.02 6.98Z" fill="#101010"/>
</svg>
