<svg width="21" height="20" viewBox="0 0 21 20" fill="none" xmlns="http://www.w3.org/2000/svg">
<path d="M7.98542 0C5.37077 0 3.24512 2.13 3.24512 4.75C3.24512 7.32 5.25101 9.4 7.86567 9.49C7.9455 9.48 8.02534 9.48 8.08522 9.49C8.10518 9.49 8.11516 9.49 8.13512 9.49C8.14509 9.49 8.14509 9.49 8.15507 9.49C10.7098 9.4 12.7157 7.32 12.7257 4.75C12.7257 2.13 10.6001 0 7.98542 0Z" fill="#101010"/>
<path d="M13.0552 12.15C10.2709 10.29 5.7302 10.29 2.92594 12.15C1.65853 13 0.959961 14.15 0.959961 15.38C0.959961 16.61 1.65853 17.75 2.91596 18.59C4.3131 19.53 6.14935 20 7.98559 20C9.82183 20 11.6581 19.53 13.0552 18.59C14.3126 17.74 15.0112 16.6 15.0112 15.36C15.0012 14.13 14.3126 12.99 13.0552 12.15Z" fill="#101010"/>
<path d="M18.953 5.3401C19.1126 7.2801 17.7354 8.9801 15.8293 9.2101C15.8194 9.2101 15.8194 9.2101 15.8094 9.2101H15.7794C15.7196 9.2101 15.6597 9.2101 15.6098 9.2301C14.6418 9.2801 13.7536 8.9701 13.085 8.4001C14.1129 7.4801 14.7017 6.1001 14.5819 4.6001C14.512 3.7901 14.2326 3.0501 13.8135 2.4201C14.1927 2.2301 14.6318 2.1101 15.0809 2.0701C17.0369 1.9001 18.7833 3.3601 18.953 5.3401Z" fill="#101010"/>
<path d="M20.9495 14.5899C20.8697 15.5599 20.2509 16.3999 19.213 16.9699C18.2151 17.5199 16.9577 17.7799 15.7102 17.7499C16.4287 17.0999 16.8479 16.2899 16.9277 15.4299C17.0275 14.1899 16.4387 12.9999 15.2611 12.0499C14.5925 11.5199 13.8141 11.0999 12.9658 10.7899C15.1713 10.1499 17.9456 10.5799 19.6521 11.9599C20.5703 12.6999 21.0393 13.6299 20.9495 14.5899Z" fill="#101010"/>
</svg>
