<svg width="20" height="22" viewBox="0 0 20 22" fill="none" xmlns="http://www.w3.org/2000/svg">
<path d="M17.73 15.1C17.73 15.07 17.75 15.04 17.75 15V5.5C17.75 3.98 16.52 2.75 15 2.75H11.07L12.48 1.58C12.8 1.31 12.84 0.84 12.58 0.52C12.31 0.2 11.84 0.16 11.52 0.42L8.52 2.92C8.35 3.06 8.25 3.27 8.25 3.5C8.25 3.73 8.35 3.93 8.52 4.08L11.52 6.58C11.66 6.7 11.83 6.75 12 6.75C12.21 6.75 12.43 6.66 12.58 6.48C12.85 6.16 12.8 5.69 12.48 5.42L11.07 4.25H15C15.69 4.25 16.25 4.81 16.25 5.5V15C16.25 15.04 16.27 15.07 16.27 15.1C14.97 15.43 14 16.6 14 18C14 19.66 15.34 21 17 21C18.66 21 20 19.66 20 18C20 16.6 19.03 15.43 17.73 15.1Z" fill="#101010"/>
<path d="M11.48 17.92L8.48 15.42C8.16 15.15 7.69 15.2 7.42 15.52C7.15 15.84 7.2 16.31 7.52 16.58L8.93 17.75H5C4.31 17.75 3.75 17.19 3.75 16.5V7C3.75 6.96 3.73 6.93 3.73 6.9C5.03 6.57 6 5.4 6 4C6 2.34 4.66 1 3 1C1.34 1 0 2.34 0 4C0 5.4 0.97 6.57 2.27 6.9C2.27 6.93 2.25 6.96 2.25 7V16.5C2.25 18.02 3.48 19.25 5 19.25H8.93L7.52 20.42C7.2 20.69 7.16 21.16 7.42 21.48C7.57 21.66 7.78 21.75 8 21.75C8.17 21.75 8.34 21.69 8.48 21.58L11.48 19.08C11.65 18.94 11.75 18.73 11.75 18.5C11.75 18.27 11.65 18.07 11.48 17.92Z" fill="#101010"/>
</svg>
