<svg width="21" height="18" viewBox="0 0 21 18" fill="none" xmlns="http://www.w3.org/2000/svg">
<path d="M13.9121 9.37H18.6021C18.5221 14.04 17.6021 14.81 14.7321 16.51C14.4021 16.71 14.2921 17.13 14.4921 17.47C14.6921 17.8 15.1121 17.91 15.4521 17.71C18.8321 15.71 20.0121 14.49 20.0121 8.67V3.28C20.0121 1.57 18.6221 0.190002 16.9221 0.190002H13.9221C12.1621 0.190002 10.8321 1.52 10.8321 3.28V6.28C10.8221 8.04 12.1521 9.37 13.9121 9.37Z" fill="#101010"/>
<path d="M3.09195 9.37H7.78195C7.70195 14.04 6.78195 14.81 3.91195 16.51C3.58195 16.71 3.47195 17.13 3.67195 17.47C3.87195 17.8 4.29195 17.91 4.63195 17.71C8.01195 15.71 9.19195 14.49 9.19195 8.67V3.28C9.19195 1.57 7.80195 0.190002 6.10195 0.190002H3.10195C1.33195 0.190002 0.00195312 1.52 0.00195312 3.28V6.28C0.00195312 8.04 1.33195 9.37 3.09195 9.37Z" fill="#101010"/>
</svg>
