<svg width="20" height="21" viewBox="0 0 20 21" fill="none" xmlns="http://www.w3.org/2000/svg">
<path d="M5.75 1V4H5C4.74 4 4.49 4.01 4.25 4.05V1C4.25 0.59 4.59 0.25 5 0.25C5.41 0.25 5.75 0.59 5.75 1Z" fill="#101010"/>
<path d="M15 4H5C4.74 4 4.49 4.01 4.25 4.05C1.67 4.35 0 6.26 0 9V16C0 19 2 21 5 21H15C18 21 20 19 20 16V9C20 6 18 4 15 4ZM5.88 15C4.5 15 3.38 13.88 3.38 12.5C3.38 11.12 4.5 10 5.88 10C7.26 10 8.38 11.12 8.38 12.5C8.38 13.88 7.26 15 5.88 15ZM12.38 15.25H11.88C11.47 15.25 11.13 14.91 11.13 14.5C11.13 14.09 11.47 13.75 11.88 13.75H12.38C12.79 13.75 13.13 14.09 13.13 14.5C13.13 14.91 12.79 15.25 12.38 15.25ZM15.88 15.25H15.38C14.97 15.25 14.63 14.91 14.63 14.5C14.63 14.09 14.97 13.75 15.38 13.75H15.88C16.29 13.75 16.63 14.09 16.63 14.5C16.63 14.91 16.29 15.25 15.88 15.25ZM15.88 11.25H11.88C11.47 11.25 11.13 10.91 11.13 10.5C11.13 10.09 11.47 9.75 11.88 9.75H15.88C16.29 9.75 16.63 10.09 16.63 10.5C16.63 10.91 16.29 11.25 15.88 11.25Z" fill="#101010"/>
</svg>
