<svg width="18" height="20" viewBox="0 0 18 20" fill="none" xmlns="http://www.w3.org/2000/svg">
<path d="M13.0103 18.97C13.0159 19.5261 12.5666 19.98 12.0104 19.98H5.99374C5.44406 19.98 4.99743 19.5364 4.99376 18.9867L4.98047 17C4.98047 15.9 5.87047 15 6.98047 15H10.9905C12.0905 15 12.9805 15.89 12.9905 16.99L13.0103 18.97Z" fill="#101010"/>
<path d="M15.5 7.99999V10.17C15.5 10.7 15.71 11.21 16.09 11.59L16.91 12.41C17.29 12.79 17.5 13.3 17.5 13.83V15C17.5 17.3012 16.5911 18.9936 14.6057 19.6662C14.3045 19.7682 14.0089 19.5304 14.0078 19.2123L14 16.98C13.98 15.34 12.63 14 11 14H6.99C5.33 14 3.99 15.35 3.99 17V19.2242C3.99 19.5416 3.69629 19.7804 3.3949 19.6807C1.386 19.0159 0.5 17.313 0.5 15V4.99999C0.5 2.59396 1.45179 0.833779 3.64523 0.236505C3.94579 0.154663 4.2259 0.396215 4.22143 0.707681L4.19 2.89999C4.18 3.36999 4.35 3.81999 4.67 4.15999C5 4.49999 5.43 4.68999 5.94 4.69999C6.45417 4.69999 6.91203 4.48724 7.22448 4.14094C7.33669 4.01656 7.55155 4.01155 7.67 4.12999C7.99 4.47 8.43 4.66999 8.94 4.67999C9.45434 4.67999 9.92348 4.45394 10.2436 4.09007C10.3488 3.97049 10.5642 3.96096 10.67 4.07999C10.99 4.41999 11.43 4.61999 11.94 4.62999C12.9 4.62999 13.67 3.87999 13.69 2.90999L13.7297 0.686642C13.7351 0.382335 14.0106 0.151366 14.3047 0.229546C16.5087 0.815318 17.5 2.58718 17.5 4.99999V5.99999C17.5 6.54999 17.05 6.99999 16.5 6.99999C15.95 6.99999 15.5 7.44999 15.5 7.99999Z" fill="#101010"/>
<path d="M6.22788 0.00330654C6.50858 0.00149554 6.73577 0.23107 6.73103 0.511741L6.68967 2.96C6.67967 3.37 6.34967 3.7 5.93967 3.7H5.92968C5.50968 3.69 5.17967 3.35 5.18967 2.93V0.50679C5.18967 0.231906 5.41157 0.00857302 5.68645 0.00679962L6.22788 0.00330654Z" fill="#101010"/>
<path d="M9.23113 0C9.51059 0 9.73579 0.229056 9.73106 0.508473L9.68967 2.95C9.67967 3.35 9.34967 3.68 8.93967 3.68H8.92968C8.50968 3.67 8.17967 3.33 8.18967 2.92L8.18967 0.5C8.18967 0.223858 8.41353 0 8.68967 0H9.23113Z" fill="#101010"/>
<path d="M12.2341 0.00680799C12.5124 0.00856139 12.7357 0.237215 12.7309 0.515477L12.6897 2.88999C12.6797 3.29999 12.3497 3.62999 11.9397 3.62999H11.9297C11.5097 3.61999 11.1797 3.27999 11.1897 2.86999V0.503388C11.1897 0.226014 11.4155 0.00165006 11.6928 0.00339759L12.2341 0.00680799Z" fill="#101010"/>
</svg>
