<svg width="20" height="20" viewBox="0 0 20 20" fill="none" xmlns="http://www.w3.org/2000/svg">
<path d="M14.19 0H5.81C2.17 0 0 2.17 0 5.81V14.18C0 17.83 2.17 20 5.81 20H14.18C17.82 20 19.99 17.83 19.99 14.19V5.81C20 2.17 17.83 0 14.19 0ZM6.47 8.98C6.76 8.69 7.24 8.69 7.53 8.98L9.25 10.7V4.51C9.25 4.1 9.59 3.76 10 3.76C10.41 3.76 10.75 4.1 10.75 4.51V10.7L12.47 8.98C12.76 8.69 13.24 8.69 13.53 8.98C13.82 9.27 13.82 9.75 13.53 10.04L10.53 13.04C10.46 13.11 10.38 13.16 10.29 13.2C10.2 13.24 10.1 13.26 10 13.26C9.9 13.26 9.81 13.24 9.71 13.2C9.62 13.16 9.54 13.11 9.47 13.04L6.47 10.04C6.18 9.75 6.18 9.28 6.47 8.98ZM16.24 15.22C14.23 15.89 12.12 16.23 10 16.23C7.88 16.23 5.77 15.89 3.76 15.22C3.37 15.09 3.16 14.66 3.29 14.27C3.42 13.88 3.84 13.66 4.24 13.8C7.96 15.04 12.05 15.04 15.77 13.8C16.16 13.67 16.59 13.88 16.72 14.27C16.84 14.67 16.63 15.09 16.24 15.22Z" fill="#101010"/>
</svg>
