<svg width="18" height="20" viewBox="0 0 18 20" fill="none" xmlns="http://www.w3.org/2000/svg">
<path d="M12.782 0H5.22195C1.44195 0 0.501953 1.01 0.501953 5.04V16.3C0.501953 18.96 1.96195 19.59 3.73195 17.69L3.74195 17.68C4.56195 16.81 5.81195 16.88 6.52195 17.83L7.53195 19.18C8.34195 20.25 9.65195 20.25 10.462 19.18L11.472 17.83C12.192 16.87 13.442 16.8 14.262 17.68C16.042 19.58 17.492 18.95 17.492 16.29V5.04C17.502 1.01 16.562 0 12.782 0ZM12.002 9.75H6.00195C5.59195 9.75 5.25195 9.41 5.25195 9C5.25195 8.59 5.59195 8.25 6.00195 8.25H12.002C12.412 8.25 12.752 8.59 12.752 9C12.752 9.41 12.412 9.75 12.002 9.75ZM13.002 5.75H5.00195C4.59195 5.75 4.25195 5.41 4.25195 5C4.25195 4.59 4.59195 4.25 5.00195 4.25H13.002C13.412 4.25 13.752 4.59 13.752 5C13.752 5.41 13.412 5.75 13.002 5.75Z" fill="#101010"/>
</svg>
