<svg width="20" height="20" viewBox="0 0 20 20" fill="none" xmlns="http://www.w3.org/2000/svg">
<path d="M14.19 0H5.81C2.17 0 0 2.17 0 5.81V14.18C0 17.83 2.17 20 5.81 20H14.18C17.82 20 19.99 17.83 19.99 14.19V5.81C20 2.17 17.83 0 14.19 0ZM15 13.71C15 15.28 14.14 15.65 13.1 14.53C12.62 14.02 11.88 14.06 11.46 14.62L10.87 15.41C10.4 16.04 9.62 16.04 9.15 15.41L8.55 14.61C8.13 14.05 7.39 14.01 6.91 14.52C5.86 15.64 5 15.27 5 13.71V7.08C5 4.71 5.56 4.12 7.78 4.12H12.22C14.44 4.12 15 4.71 15 7.08V13.71Z" fill="#101010"/>
</svg>
