<svg width="18" height="20" viewBox="0 0 18 20" fill="none" xmlns="http://www.w3.org/2000/svg">
<path d="M12.782 0H5.22195C1.44195 0 0.501953 1.01 0.501953 5.04V16.3C0.501953 18.96 1.96195 19.59 3.73195 17.69L3.74195 17.68C4.56195 16.81 5.81195 16.88 6.52195 17.83L7.53195 19.18C8.34195 20.25 9.65195 20.25 10.462 19.18L11.472 17.83C12.192 16.87 13.442 16.8 14.262 17.68C16.042 19.58 17.492 18.95 17.492 16.29V5.04C17.502 1.01 16.562 0 12.782 0ZM12.662 12.53C12.512 12.68 12.322 12.75 12.132 12.75C11.942 12.75 11.752 12.68 11.602 12.53L10.862 11.79C10.282 12.17 9.58195 12.4 8.83195 12.4C6.79195 12.4 5.13195 10.74 5.13195 8.7C5.13195 6.66 6.78195 5 8.83195 5C10.882 5 12.532 6.66 12.532 8.7C12.532 9.45 12.302 10.15 11.922 10.73L12.662 11.47C12.952 11.76 12.952 12.24 12.662 12.53Z" fill="#101010"/>
</svg>
