<svg width="20" height="21" viewBox="0 0 20 21" fill="none" xmlns="http://www.w3.org/2000/svg">
<path d="M5 0H4C1 0 0 1.79 0 4V5V19C0 19.83 0.94 20.3 1.6 19.8L3.31 18.52C3.71 18.22 4.27 18.26 4.63 18.62L6.29 20.29C6.68 20.68 7.32 20.68 7.71 20.29L9.39 18.61C9.74 18.26 10.3 18.22 10.69 18.52L12.4 19.8C13.06 20.29 14 19.82 14 19V2C14 0.9 14.9 0 16 0H5ZM4.57 6.03C5.12 6.03 5.57 6.48 5.57 7.03C5.57 7.58 5.12 8.03 4.57 8.03C4.02 8.03 3.57 7.58 3.57 7.03C3.57 6.48 4.02 6.03 4.57 6.03ZM9.43 12.08C8.87 12.08 8.43 11.63 8.43 11.08C8.43 10.53 8.88 10.08 9.43 10.08C9.98 10.08 10.43 10.53 10.43 11.08C10.43 11.63 9.98 12.08 9.43 12.08ZM10.26 6.8L4.8 12.26C4.65 12.41 4.46 12.48 4.27 12.48C4.08 12.48 3.89 12.41 3.74 12.26C3.45 11.97 3.45 11.49 3.74 11.2L9.2 5.74C9.49 5.45 9.97 5.45 10.26 5.74C10.55 6.03 10.55 6.51 10.26 6.8Z" fill="#101010"/>
<path d="M16.01 0V1.5C16.67 1.5 17.3 1.77 17.76 2.22C18.24 2.71 18.5 3.34 18.5 4V6.42C18.5 7.16 18.17 7.5 17.42 7.5H15.5V2.01C15.5 1.73 15.73 1.5 16.01 1.5V0ZM16.01 0C14.9 0 14 0.9 14 2.01V9H17.42C19 9 20 8 20 6.42V4C20 2.9 19.55 1.9 18.83 1.17C18.1 0.45 17.11 0.01 16.01 0C16.01 0 16.02 0 16.01 0Z" fill="#101010"/>
</svg>
