<svg width="18" height="20" viewBox="0 0 18 20" fill="none" xmlns="http://www.w3.org/2000/svg">
<path d="M12.782 0H5.22195C1.44195 0 0.501953 1.01 0.501953 5.04V16.3C0.501953 18.96 1.96195 19.59 3.73195 17.69L3.74195 17.68C4.56195 16.81 5.81195 16.88 6.52195 17.83L7.53195 19.18C8.34195 20.25 9.65195 20.25 10.462 19.18L11.472 17.83C12.192 16.87 13.442 16.8 14.262 17.68C16.042 19.58 17.492 18.95 17.492 16.29V5.04C17.502 1.01 16.562 0 12.782 0ZM4.78195 10C4.23195 10 3.78195 9.55 3.78195 9C3.78195 8.45 4.23195 8 4.78195 8C5.33195 8 5.78195 8.45 5.78195 9C5.78195 9.55 5.33195 10 4.78195 10ZM4.78195 6C4.23195 6 3.78195 5.55 3.78195 5C3.78195 4.45 4.23195 4 4.78195 4C5.33195 4 5.78195 4.45 5.78195 5C5.78195 5.55 5.33195 6 4.78195 6ZM13.232 9.75H7.73195C7.32195 9.75 6.98195 9.41 6.98195 9C6.98195 8.59 7.32195 8.25 7.73195 8.25H13.232C13.642 8.25 13.982 8.59 13.982 9C13.982 9.41 13.642 9.75 13.232 9.75ZM13.232 5.75H7.73195C7.32195 5.75 6.98195 5.41 6.98195 5C6.98195 4.59 7.32195 4.25 7.73195 4.25H13.232C13.642 4.25 13.982 4.59 13.982 5C13.982 5.41 13.642 5.75 13.232 5.75Z" fill="#101010"/>
</svg>
