<svg width="21" height="21" viewBox="0 0 21 21" fill="none" xmlns="http://www.w3.org/2000/svg">
<path d="M0.00195312 5V19C0.00195312 19.83 0.941953 20.3 1.60195 19.8L3.31195 18.52C3.71195 18.22 4.27195 18.26 4.63195 18.62L6.29195 20.29C6.68195 20.68 7.32195 20.68 7.71195 20.29L9.39195 18.61C9.74195 18.26 10.302 18.22 10.692 18.52L12.402 19.8C13.062 20.29 14.002 19.82 14.002 19V2C14.002 0.9 14.902 0 16.002 0H5.00195H4.00195C1.00195 0 0.00195312 1.79 0.00195312 4V5Z" fill="#101010"/>
<path d="M16.012 0V1.5C16.672 1.5 17.302 1.77 17.762 2.22C18.242 2.71 18.502 3.34 18.502 4V6.42C18.502 7.16 18.172 7.5 17.422 7.5H15.502V2.01C15.502 1.73 15.732 1.5 16.012 1.5V0ZM16.012 0C14.902 0 14.002 0.9 14.002 2.01V9H17.422C19.002 9 20.002 8 20.002 6.42V4C20.002 2.9 19.552 1.9 18.832 1.17C18.102 0.45 17.112 0.01 16.012 0C16.012 0 16.022 0 16.012 0Z" fill="#101010"/>
</svg>
