<svg width="19" height="20" viewBox="0 0 19 20" fill="none" xmlns="http://www.w3.org/2000/svg">
<path d="M16.6297 5.24003C16.9297 5.71003 16.7697 6.34003 16.2897 6.63003L15.6997 6.98003L2.58967 14.84C2.10967 15.13 1.47967 14.97 1.19967 14.48C0.199669 12.74 -0.250331 10.62 0.139669 8.40003C0.799669 4.63003 3.89967 1.63003 7.68967 1.09003C11.4397 0.560028 14.8297 2.36003 16.6297 5.24003Z" fill="#101010"/>
<path d="M17.8902 11.4301C17.2101 15.6801 13.4502 18.9301 9.14015 19.0001C7.24015 19.0301 5.48015 18.4801 4.02015 17.4901C3.40015 17.0801 3.42015 16.1601 4.06015 15.7801L16.4701 8.49005C17.1201 8.11005 17.9201 8.55005 17.9802 9.30005C18.0302 10.0001 18.0001 10.7101 17.8902 11.4301Z" fill="#101010"/>
</svg>
