<svg width="20" height="20" viewBox="0 0 20 20" fill="none" xmlns="http://www.w3.org/2000/svg">
<path d="M10 0C4.48 0 0 4.48 0 10C0 15.52 4.48 20 10 20C15.52 20 20 15.52 20 10C20 4.48 15.52 0 10 0ZM4.6 9.23C4.77 8.04 5.3 6.97 6.13 6.13C8.13 4.14 11.28 4.03 13.42 5.77V4.82C13.42 4.41 13.76 4.07 14.17 4.07C14.58 4.07 14.92 4.41 14.92 4.82V7.49C14.92 7.9 14.58 8.24 14.17 8.24H11.5C11.09 8.24 10.75 7.9 10.75 7.49C10.75 7.08 11.09 6.74 11.5 6.74H12.25C10.7 5.66 8.56 5.81 7.18 7.19C6.58 7.79 6.2 8.57 6.07 9.44C6.02 9.81 5.7 10.08 5.33 10.08C5.29 10.08 5.26 10.08 5.22 10.07C4.83 10.02 4.54 9.64 4.6 9.23ZM13.87 13.87C12.8 14.94 11.4 15.47 10 15.47C8.78 15.47 7.57 15.04 6.57 14.23V15.17C6.57 15.58 6.23 15.92 5.82 15.92C5.41 15.92 5.07 15.58 5.07 15.17V12.5C5.07 12.09 5.41 11.75 5.82 11.75H8.49C8.9 11.75 9.24 12.09 9.24 12.5C9.24 12.91 8.9 13.25 8.49 13.25H7.74C9.29 14.33 11.43 14.18 12.81 12.8C13.41 12.2 13.79 11.42 13.92 10.55C13.98 10.14 14.35 9.85 14.77 9.91C15.18 9.97 15.46 10.35 15.41 10.76C15.23 11.97 14.7 13.04 13.87 13.87Z" fill="#101010"/>
</svg>
