<svg width="20" height="22" viewBox="0 0 20 22" fill="none" xmlns="http://www.w3.org/2000/svg">
<path d="M15.4201 3.41H3.39008L5.27008 1.53C5.56008 1.24 5.56008 0.760002 5.27008 0.470002C4.98008 0.180002 4.50008 0.180002 4.21008 0.470002L1.05008 3.63C0.980078 3.7 0.930078 3.78 0.890078 3.87C0.850078 3.96 0.830078 4.06 0.830078 4.16C0.830078 4.26 0.850078 4.36 0.890078 4.45C0.930078 4.54 0.980078 4.62 1.05008 4.69L4.21008 7.85C4.36008 8 4.55008 8.07 4.74008 8.07C4.93008 8.07 5.12008 8 5.27008 7.85C5.56008 7.56 5.56008 7.08 5.27008 6.79L3.39008 4.91H15.4201C16.6601 4.91 17.6701 5.92 17.6701 7.16V10.48C17.6701 10.89 18.0101 11.23 18.4201 11.23C18.8301 11.23 19.1701 10.89 19.1701 10.48V7.16C19.1701 5.09 17.4901 3.41 15.4201 3.41Z" fill="#101010"/>
<path d="M19.1701 17.84C19.1701 17.74 19.1501 17.64 19.1101 17.55C19.0701 17.46 19.0201 17.38 18.9501 17.31L15.7901 14.15C15.5001 13.86 15.0201 13.86 14.7301 14.15C14.4401 14.44 14.4401 14.92 14.7301 15.21L16.6101 17.09H4.58008C3.34008 17.09 2.33008 16.08 2.33008 14.84V11.52C2.33008 11.11 1.99008 10.77 1.58008 10.77C1.17008 10.77 0.830078 11.11 0.830078 11.52V14.84C0.830078 16.91 2.51008 18.59 4.58008 18.59H16.6101L14.7301 20.47C14.4401 20.76 14.4401 21.24 14.7301 21.53C14.8801 21.68 15.0701 21.75 15.2601 21.75C15.4501 21.75 15.6401 21.68 15.7901 21.53L18.9501 18.37C19.0201 18.3 19.0701 18.22 19.1101 18.13C19.1501 18.04 19.1701 17.94 19.1701 17.84Z" fill="#101010"/>
</svg>
