<svg width="21" height="20" viewBox="0 0 21 20" fill="none" xmlns="http://www.w3.org/2000/svg">
<path d="M10.9985 17.75H8.31848C7.15848 17.75 6.14848 17.05 5.74848 15.97C5.33848 14.89 5.63848 13.7 6.50848 12.93L14.4985 5.94C14.9785 5.52 14.9885 4.95 14.8485 4.56C14.6985 4.17 14.3185 3.75 13.6785 3.75H10.9985C10.5885 3.75 10.2485 3.41 10.2485 3C10.2485 2.59 10.5885 2.25 10.9985 2.25H13.6785C14.8385 2.25 15.8485 2.95 16.2485 4.03C16.6585 5.11 16.3585 6.3 15.4885 7.07L7.49848 14.06C7.01848 14.48 7.00848 15.05 7.14848 15.44C7.29848 15.83 7.67848 16.25 8.31848 16.25H10.9985C11.4085 16.25 11.7485 16.59 11.7485 17C11.7485 17.41 11.4085 17.75 10.9985 17.75Z" fill="#101010"/>
<path d="M18.999 13H15.999C14.899 13 13.999 13.9 13.999 15V18C13.999 19.1 14.899 20 15.999 20H18.999C20.099 20 20.999 19.1 20.999 18V15C20.999 13.9 20.099 13 18.999 13ZM17.509 17.5C16.959 17.5 16.509 17.05 16.509 16.5C16.509 15.95 16.949 15.5 17.509 15.5H17.519C18.069 15.5 18.519 15.95 18.519 16.5C18.519 17.05 18.069 17.5 17.509 17.5Z" fill="#101010"/>
<path d="M4.46875 0C2.53875 0 0.96875 1.57 0.96875 3.5C0.96875 5.43 2.53875 7 4.46875 7C6.39875 7 7.96875 5.43 7.96875 3.5C7.96875 1.57 6.40875 0 4.46875 0ZM4.50875 4.5C3.95875 4.5 3.50875 4.05 3.50875 3.5C3.50875 2.95 3.94875 2.5 4.50875 2.5H4.51875C5.06875 2.5 5.51875 2.95 5.51875 3.5C5.51875 4.05 5.06875 4.5 4.50875 4.5Z" fill="#101010"/>
</svg>
