<svg width="20" height="20" viewBox="0 0 20 20" fill="none" xmlns="http://www.w3.org/2000/svg">
<path d="M16.4707 0H12.4707C10.9779 0 9.74391 1.28581 9.51045 2.75204C9.46703 3.02475 9.69456 3.25 9.9707 3.25H14.4707C14.8807 3.25 15.2207 3.59 15.2207 4C15.2207 4.41 14.8807 4.75 14.4707 4.75H9.9707C9.69456 4.75 9.4707 4.97386 9.4707 5.25V6.75C9.4707 7.02614 9.69456 7.25 9.9707 7.25H12.2807C12.6907 7.25 13.0307 7.59 13.0307 8C13.0307 8.41 12.6907 8.75 12.2807 8.75H9.9707C9.69456 8.75 9.4707 8.97386 9.4707 9.25V10.705C9.4707 10.9792 9.69153 11.2022 9.9657 11.2049L14.4707 11.25C14.8907 11.25 15.2207 11.59 15.2207 12.01C15.2107 12.42 14.8807 12.75 14.4707 12.75C14.4607 12.75 14.4607 12.75 14.4607 12.75L9.97571 12.7051C9.69763 12.7023 9.4707 12.9269 9.4707 13.205V14.75C9.4707 15.0261 9.69456 15.25 9.9707 15.25H13.3707C13.7907 15.25 14.1207 15.59 14.1207 16C14.1207 16.41 13.7907 16.75 13.3707 16.75H9.9707C9.69456 16.75 9.46703 16.9753 9.51045 17.248C9.74391 18.7142 10.9779 20 12.4707 20H16.4707C18.1207 20 19.4707 18.66 19.4707 17V3C19.4707 1.34 18.1207 0 16.4707 0Z" fill="#101010"/>
<path d="M6.44027 2.95V3.75C6.44027 4.02614 6.21642 4.25 5.94027 4.25H1.03027C0.754131 4.25 0.530273 4.02614 0.530273 3.75V2.95C0.530273 1.33 1.86027 0 3.49027 0C5.11027 0 6.44027 1.33 6.44027 2.95Z" fill="#101010"/>
<path d="M0.530273 15.91C0.530273 16.36 0.720274 17.05 0.960274 17.43L1.77027 18.79C2.72027 20.37 4.26027 20.37 5.20027 18.79L6.02027 17.43C6.25027 17.05 6.44027 16.36 6.44027 15.91V6.25C6.44027 5.97386 6.21642 5.75 5.94027 5.75H1.03027C0.754131 5.75 0.530273 5.97386 0.530273 6.25V15.91Z" fill="#101010"/>
</svg>
