<svg width="20" height="20" viewBox="0 0 20 20" fill="none" xmlns="http://www.w3.org/2000/svg">
<path d="M19.9998 3.11V14.47C19.9998 15.92 18.9598 16.53 17.6898 15.83L15.7598 14.75C15.5998 14.66 15.4998 14.49 15.4998 14.31V6.99C15.4998 4.45 13.4298 2.38 10.8898 2.38H6.81984C6.44984 2.38 6.18984 1.99 6.35984 1.67C6.87984 0.68 7.91984 0 9.10984 0H16.8898C18.5998 0 19.9998 1.4 19.9998 3.11Z" fill="#101010"/>
<path d="M10.89 3.87988H3.11C1.4 3.87988 0 5.27988 0 6.98988V18.3499C0 19.7999 1.04 20.4099 2.31 19.7099L6.24 17.5199C6.66 17.2899 7.34 17.2899 7.76 17.5199L11.69 19.7099C12.96 20.4099 14 19.7999 14 18.3499V6.98988C14 5.27988 12.6 3.87988 10.89 3.87988ZM8.94 10.8799C9.23 11.1699 9.23 11.6499 8.94 11.9399C8.79 12.0899 8.6 12.1599 8.41 12.1599C8.22 12.1599 8.03 12.0899 7.88 11.9399L7 11.0599L6.12 11.9399C5.97 12.0899 5.78 12.1599 5.59 12.1599C5.4 12.1599 5.21 12.0899 5.06 11.9399C4.77 11.6499 4.77 11.1699 5.06 10.8799L5.94 9.99988L5.06 9.11988C4.77 8.82988 4.77 8.34988 5.06 8.05988C5.35 7.76988 5.83 7.76988 6.12 8.05988L7 8.93988L7.88 8.05988C8.17 7.76988 8.65 7.76988 8.94 8.05988C9.23 8.34988 9.23 8.82988 8.94 9.11988L8.06 9.99988L8.94 10.8799Z" fill="#101010"/>
</svg>
