<svg width="21" height="20" viewBox="0 0 21 20" fill="none" xmlns="http://www.w3.org/2000/svg">
<path d="M19.2996 20.0001C19.1196 20.0001 18.9396 19.9301 18.8096 19.8001L16.9496 17.9401C16.6796 17.6701 16.6796 17.2301 16.9496 16.9501C17.2196 16.6801 17.6596 16.6801 17.9396 16.9501L19.7996 18.8101C20.0696 19.0801 20.0696 19.5201 19.7996 19.8001C19.6596 19.9301 19.4796 20.0001 19.2996 20.0001Z" fill="#101010"/>
<path d="M9.5 0C4.26 0 0 4.26 0 9.5C0 14.74 4.26 19 9.5 19C14.74 19 19 14.74 19 9.5C19 4.26 14.74 0 9.5 0ZM12.2 10.45H10.45V12.2C10.45 12.61 10.11 12.95 9.7 12.95C9.29 12.95 8.95 12.61 8.95 12.2V10.45H7.2C6.79 10.45 6.45 10.11 6.45 9.7C6.45 9.29 6.79 8.95 7.2 8.95H8.95V7.2C8.95 6.79 9.29 6.45 9.7 6.45C10.11 6.45 10.45 6.79 10.45 7.2V8.95H12.2C12.61 8.95 12.95 9.29 12.95 9.7C12.95 10.11 12.61 10.45 12.2 10.45Z" fill="#101010"/>
</svg>
