<svg width="21" height="20" viewBox="0 0 21 20" fill="none" xmlns="http://www.w3.org/2000/svg">
<path d="M19.2996 20.0001C19.1196 20.0001 18.9396 19.9301 18.8096 19.8001L16.9496 17.9401C16.6796 17.6701 16.6796 17.2301 16.9496 16.9501C17.2196 16.6801 17.6596 16.6801 17.9396 16.9501L19.7996 18.8101C20.0696 19.0801 20.0696 19.5201 19.7996 19.8001C19.6596 19.9301 19.4796 20.0001 19.2996 20.0001Z" fill="#101010"/>
<path d="M9.5 0C4.26 0 0 4.26 0 9.5C0 14.74 4.26 19 9.5 19C14.74 19 19 14.74 19 9.5C19 4.26 14.74 0 9.5 0ZM12.68 10.06C12.12 11.84 10.17 12.81 9.5 12.81C8.81 12.81 6.9 11.88 6.32 10.06C5.94 8.87 6.37 7.32 7.73 6.89C8.35 6.69 9.01 6.81 9.5 7.18C9.98 6.81 10.65 6.69 11.28 6.89C12.63 7.33 13.06 8.88 12.68 10.06Z" fill="#101010"/>
</svg>
