<svg width="21" height="20" viewBox="0 0 21 20" fill="none" xmlns="http://www.w3.org/2000/svg">
<path d="M9.5 19C14.7467 19 19 14.7467 19 9.5C19 4.25329 14.7467 0 9.5 0C4.25329 0 0 4.25329 0 9.5C0 14.7467 4.25329 19 9.5 19Z" fill="#101010"/>
<path d="M19.2996 20.0001C19.1196 20.0001 18.9396 19.9301 18.8096 19.8001L16.9496 17.9401C16.6796 17.6701 16.6796 17.2301 16.9496 16.9501C17.2196 16.6801 17.6596 16.6801 17.9396 16.9501L19.7996 18.8101C20.0696 19.0801 20.0696 19.5201 19.7996 19.8001C19.6596 19.9301 19.4796 20.0001 19.2996 20.0001Z" fill="#101010"/>
</svg>
