<svg width="22" height="22" viewBox="0 0 22 22" fill="none" xmlns="http://www.w3.org/2000/svg">
<path d="M10.0002 0.98999C5.03023 0.98999 0.990234 5.02999 0.990234 9.99999C0.990234 14.97 5.03023 19.01 10.0002 19.01C14.9702 19.01 19.0102 14.97 19.0102 9.99999C19.0102 5.02999 14.9702 0.98999 10.0002 0.98999ZM13.1802 10.56C12.6202 12.34 10.6702 13.31 10.0002 13.31C9.31024 13.31 7.40023 12.38 6.82023 10.56C6.44023 9.36999 6.87023 7.81999 8.23023 7.38999C8.85023 7.18999 9.51023 7.30999 10.0002 7.67999C10.4802 7.30999 11.1502 7.18999 11.7802 7.38999C13.1302 7.82999 13.5602 9.37999 13.1802 10.56Z" fill="#101010"/>
<path d="M20.9901 17.95C20.6601 17.34 19.9601 17 19.0201 17C18.3101 17 17.7001 17.29 17.3401 17.79C16.9801 18.29 16.9001 18.96 17.1201 19.63C17.5501 20.93 18.3001 21.22 18.7101 21.27C18.7701 21.28 18.8301 21.28 18.9001 21.28C19.3401 21.28 20.0201 21.09 20.6801 20.1C21.2101 19.33 21.3101 18.56 20.9901 17.95Z" fill="#101010"/>
</svg>
