<svg width="18" height="20" viewBox="0 0 18 20" fill="none" xmlns="http://www.w3.org/2000/svg">
<path d="M15.3301 3.67L3.59008 15.41C3.15008 15.85 2.41008 15.79 2.05008 15.27C0.810078 13.46 0.0800781 11.32 0.0800781 9.12V4.73C0.0800781 3.91 0.700078 2.98 1.46008 2.67L7.03008 0.39C8.29008 -0.13 9.69008 -0.13 10.9501 0.39L15.0001 2.04C15.6601 2.31 15.8301 3.17 15.3301 3.67Z" fill="#101010"/>
<path d="M16.27 5.04012C16.92 4.49012 17.91 4.96012 17.91 5.81012V9.12012C17.91 14.0101 14.36 18.5901 9.51001 19.9301C9.18001 20.0201 8.82001 20.0201 8.48001 19.9301C7.06001 19.5301 5.74001 18.8601 4.61001 17.9801C4.13001 17.6101 4.08001 16.9101 4.50001 16.4801C6.68001 14.2501 13.06 7.75012 16.27 5.04012Z" fill="#101010"/>
</svg>
