<svg width="18" height="20" viewBox="0 0 18 20" fill="none" xmlns="http://www.w3.org/2000/svg">
<path d="M17.9098 9.12007V4.73007C17.9098 3.91007 17.2898 2.98007 16.5198 2.67007L10.9498 0.390068C9.69984 -0.119932 8.28984 -0.119932 7.03984 0.390068L1.46984 2.67007C0.709844 2.98007 0.0898438 3.91007 0.0898438 4.73007V9.12007C0.0898438 14.0101 3.63984 18.5901 8.48984 19.9301C8.81984 20.0201 9.17984 20.0201 9.50984 19.9301C14.3598 18.5901 17.9098 14.0101 17.9098 9.12007ZM9.74984 10.8701V13.5001C9.74984 13.9101 9.40984 14.2501 8.99984 14.2501C8.58984 14.2501 8.24984 13.9101 8.24984 13.5001V10.8701C7.23984 10.5501 6.49984 9.61007 6.49984 8.50007C6.49984 7.12007 7.61984 6.00007 8.99984 6.00007C10.3798 6.00007 11.4998 7.12007 11.4998 8.50007C11.4998 9.62007 10.7598 10.5501 9.74984 10.8701Z" fill="#101010"/>
</svg>
