<svg width="18" height="22" viewBox="0 0 18 22" fill="none" xmlns="http://www.w3.org/2000/svg">
<path d="M9 7.25C7.21 7.25 5.75 8.71 5.75 10.5C5.75 12.29 7.21 13.75 9 13.75C10.79 13.75 12.25 12.29 12.25 10.5C12.25 8.71 10.79 7.25 9 7.25ZM10 10.18C10 10.79 9.67 11.37 9.15 11.68L8.38 12.14C8.26 12.21 8.13 12.25 7.99 12.25C7.74 12.25 7.49 12.12 7.35 11.89C7.14 11.53 7.25 11.07 7.61 10.86L8.37 10.4C8.45 10.35 8.49 10.27 8.49 10.19V9.26C8.49 8.85 8.83 8.51 9.24 8.51C9.65 8.51 10 8.84 10 9.25V10.18Z" fill="#101010"/>
<path d="M15.5398 3.17001L10.0398 1.11001C9.4698 0.900015 8.5398 0.900015 7.9698 1.11001L2.4698 3.17001C1.4098 3.57001 0.549805 4.81001 0.549805 5.94001V14.04C0.549805 14.85 1.0798 15.92 1.7298 16.4L7.2298 20.51C8.1998 21.24 9.7898 21.24 10.7598 20.51L16.2598 16.4C16.9098 15.91 17.4398 14.85 17.4398 14.04V5.94001C17.4498 4.81001 16.5898 3.57001 15.5398 3.17001ZM8.9998 15.25C6.3798 15.25 4.2498 13.12 4.2498 10.5C4.2498 7.88001 6.3798 5.75001 8.9998 5.75001C11.6198 5.75001 13.7498 7.88001 13.7498 10.5C13.7498 13.12 11.6198 15.25 8.9998 15.25Z" fill="#101010"/>
</svg>
