<svg width="20" height="20" viewBox="0 0 20 20" fill="none" xmlns="http://www.w3.org/2000/svg">
<path d="M14.19 0H5.81C2.17 0 0 2.17 0 5.81V14.18C0 17.83 2.17 20 5.81 20H14.18C17.82 20 19.99 17.83 19.99 14.19V5.81C20 2.17 17.83 0 14.19 0ZM6.64 10.81L11.02 6.43H8.59C8.18 6.43 7.84 6.09 7.84 5.68C7.84 5.27 8.18 4.93 8.59 4.93H12.83C12.93 4.93 13.02 4.95 13.12 4.99C13.3 5.07 13.45 5.21 13.53 5.4C13.57 5.49 13.59 5.59 13.59 5.69V9.93C13.59 10.34 13.25 10.68 12.84 10.68C12.43 10.68 12.09 10.34 12.09 9.93V7.5L7.7 11.87C7.55 12.02 7.36 12.09 7.17 12.09C6.98 12.09 6.79 12.02 6.64 11.87C6.35 11.58 6.35 11.1 6.64 10.81ZM16.24 15.22C14.23 15.89 12.12 16.23 10 16.23C7.88 16.23 5.77 15.89 3.76 15.22C3.37 15.09 3.16 14.66 3.29 14.27C3.42 13.88 3.84 13.66 4.24 13.8C7.96 15.04 12.05 15.04 15.77 13.8C16.16 13.67 16.59 13.88 16.72 14.27C16.84 14.67 16.63 15.09 16.24 15.22Z" fill="#101010"/>
</svg>
