<svg width="18" height="18" viewBox="0 0 18 18" fill="none" xmlns="http://www.w3.org/2000/svg">
<path d="M15.0703 5.50989L6.51026 1.22989C0.760264 -1.65011 -1.59974 0.70989 1.28026 6.45989L2.15026 8.19989C2.40026 8.70989 2.40026 9.29989 2.15026 9.80989L1.28026 11.5399C-1.59974 17.2899 0.750264 19.6499 6.51026 16.7699L15.0703 12.4899C18.9103 10.5699 18.9103 7.42989 15.0703 5.50989ZM11.8403 9.74989H6.44026C6.03026 9.74989 5.69026 9.40989 5.69026 8.99989C5.69026 8.58989 6.03026 8.24989 6.44026 8.24989H11.8403C12.2503 8.24989 12.5903 8.58989 12.5903 8.99989C12.5903 9.40989 12.2503 9.74989 11.8403 9.74989Z" fill="#101010"/>
</svg>
