<svg width="22" height="10" viewBox="0 0 22 10" fill="none" xmlns="http://www.w3.org/2000/svg">
<path d="M11 9.5C13.4853 9.5 15.5 7.48528 15.5 5C15.5 2.51472 13.4853 0.5 11 0.5C8.51472 0.5 6.5 2.51472 6.5 5C6.5 7.48528 8.51472 9.5 11 9.5Z" fill="#101010"/>
<path d="M9 5.75H1C0.59 5.75 0.25 5.41 0.25 5C0.25 4.59 0.59 4.25 1 4.25H9C9.41 4.25 9.75 4.59 9.75 5C9.75 5.41 9.41 5.75 9 5.75Z" fill="#101010"/>
<path d="M21 5.75H13C12.59 5.75 12.25 5.41 12.25 5C12.25 4.59 12.59 4.25 13 4.25H21C21.41 4.25 21.75 4.59 21.75 5C21.75 5.41 21.41 5.75 21 5.75Z" fill="#101010"/>
</svg>
