<svg width="20" height="20" viewBox="0 0 20 20" fill="none" xmlns="http://www.w3.org/2000/svg">
<path d="M14.19 0H5.81C2.17 0 0 2.17 0 5.81V14.18C0 17.83 2.17 20 5.81 20H14.18C17.82 20 19.99 17.83 19.99 14.19V5.81C20 2.17 17.83 0 14.19 0ZM5.67 3.5C5.67 3.09 6.01 2.75 6.42 2.75C6.83 2.75 7.17 3.09 7.17 3.5V7.4C7.17 7.81 6.83 8.15 6.42 8.15C6.01 8.15 5.67 7.81 5.67 7.4V3.5ZM7.52282 14.4313C7.31938 14.5216 7.17 14.7132 7.17 14.9358V16.5C7.17 16.91 6.83 17.25 6.42 17.25C6.01 17.25 5.67 16.91 5.67 16.5V14.9358C5.67 14.7132 5.5206 14.5216 5.31723 14.4311C4.36275 14.0064 3.7 13.058 3.7 11.95C3.7 10.45 4.92 9.22 6.42 9.22C7.92 9.22 9.15 10.44 9.15 11.95C9.15 13.0582 8.47913 14.0066 7.52282 14.4313ZM14.33 16.5C14.33 16.91 13.99 17.25 13.58 17.25C13.17 17.25 12.83 16.91 12.83 16.5V12.6C12.83 12.19 13.17 11.85 13.58 11.85C13.99 11.85 14.33 12.19 14.33 12.6V16.5ZM13.58 10.77C12.08 10.77 10.85 9.55 10.85 8.04C10.85 6.93185 11.5209 5.98342 12.4772 5.55873C12.6806 5.46839 12.83 5.27681 12.83 5.05421V3.5C12.83 3.09 13.17 2.75 13.58 2.75C13.99 2.75 14.33 3.09 14.33 3.5V5.06421C14.33 5.28681 14.4794 5.47835 14.6828 5.56885C15.6372 5.9936 16.3 6.94195 16.3 8.05C16.3 9.55 15.08 10.77 13.58 10.77Z" fill="#101010"/>
</svg>
