<svg width="18" height="22" viewBox="0 0 18 22" fill="none" xmlns="http://www.w3.org/2000/svg">
<path d="M15.5398 3.16989L10.0398 1.10989C9.4698 0.899893 8.5398 0.899893 7.9698 1.10989L2.4698 3.16989C1.4098 3.56989 0.549805 4.80989 0.549805 5.93989V14.0399C0.549805 14.8499 1.0798 15.9199 1.7298 16.3999L7.2298 20.5099C8.1998 21.2399 9.7898 21.2399 10.7598 20.5099L16.2598 16.3999C16.9098 15.9099 17.4398 14.8499 17.4398 14.0399V5.93989C17.4498 4.80989 16.5898 3.56989 15.5398 3.16989ZM9.7498 11.8699V14.4999C9.7498 14.9099 9.4098 15.2499 8.9998 15.2499C8.5898 15.2499 8.2498 14.9099 8.2498 14.4999V11.8699C7.2398 11.5499 6.4998 10.6099 6.4998 9.49989C6.4998 8.11989 7.6198 6.99989 8.9998 6.99989C10.3798 6.99989 11.4998 8.11989 11.4998 9.49989C11.4998 10.6199 10.7598 11.5499 9.7498 11.8699Z" fill="#101010"/>
</svg>
