<svg width="20" height="21" viewBox="0 0 20 21" fill="none" xmlns="http://www.w3.org/2000/svg">
<path d="M17.45 5.93989V8.44989C17.45 9.15989 16.73 9.61989 16.06 9.36989C15.22 9.05989 14.29 8.93989 13.31 9.03989C10.93 9.29989 8.49004 11.5899 8.09004 13.9599C7.76004 15.9299 8.39004 17.7699 9.60004 19.0699C10.15 19.6699 9.78004 20.6399 8.97004 20.7299C8.28004 20.8099 7.60004 20.7899 7.22004 20.5099L1.72004 16.3999C1.07004 15.9099 0.540039 14.8499 0.540039 14.0299V5.93989C0.540039 4.80989 1.40004 3.56989 2.45004 3.16989L7.95004 1.10989C8.52004 0.899893 9.46004 0.899893 10.03 1.10989L15.53 3.16989C16.59 3.56989 17.45 4.80989 17.45 5.93989Z" fill="#101010"/>
<path d="M14 10.51C11.52 10.51 9.5 12.53 9.5 15.01C9.5 17.49 11.52 19.51 14 19.51C16.48 19.51 18.5 17.49 18.5 15.01C18.5 12.52 16.48 10.51 14 10.51Z" fill="#101010"/>
<path d="M19 20.9999C18.73 20.9999 18.48 20.8899 18.29 20.7099C18.25 20.6599 18.2 20.6099 18.17 20.5499C18.13 20.4999 18.1 20.4399 18.08 20.3799C18.05 20.3199 18.03 20.2599 18.02 20.1999C18.01 20.1299 18 20.0699 18 19.9999C18 19.8699 18.03 19.7399 18.08 19.6199C18.13 19.4899 18.2 19.3899 18.29 19.2899C18.52 19.0599 18.87 18.9499 19.19 19.0199C19.26 19.0299 19.32 19.0499 19.38 19.0799C19.44 19.0999 19.5 19.1299 19.55 19.1699C19.61 19.1999 19.66 19.2499 19.71 19.2899C19.8 19.3899 19.87 19.4899 19.92 19.6199C19.97 19.7399 20 19.8699 20 19.9999C20 20.2599 19.89 20.5199 19.71 20.7099C19.66 20.7499 19.61 20.7899 19.55 20.8299C19.5 20.8699 19.44 20.8999 19.38 20.9199C19.32 20.9499 19.26 20.9699 19.19 20.9799C19.13 20.9899 19.06 20.9999 19 20.9999Z" fill="#101010"/>
</svg>
