<svg width="18" height="22" viewBox="0 0 18 22" fill="none" xmlns="http://www.w3.org/2000/svg">
<path d="M15.5398 3.12009L10.0398 1.06009C9.4698 0.850088 8.5398 0.850088 7.9698 1.06009L2.4698 3.12009C1.4098 3.52009 0.549805 4.76009 0.549805 5.89009V13.9901C0.549805 14.8001 1.0798 15.8701 1.7298 16.3501L7.2298 20.4601C8.1998 21.1901 9.7898 21.1901 10.7598 20.4601L16.2598 16.3501C16.9098 15.8601 17.4398 14.8001 17.4398 13.9901V5.89009C17.4498 4.76009 16.5898 3.52009 15.5398 3.12009ZM12.4798 8.72009L8.1798 13.0201C8.0298 13.1701 7.8398 13.2401 7.6498 13.2401C7.4598 13.2401 7.2698 13.1701 7.1198 13.0201L5.5198 11.4001C5.2298 11.1101 5.2298 10.6301 5.5198 10.3401C5.8098 10.0501 6.2898 10.0501 6.5798 10.3401L7.6598 11.4201L11.4298 7.65009C11.7198 7.36009 12.1998 7.36009 12.4898 7.65009C12.7798 7.94009 12.7798 8.43009 12.4798 8.72009Z" fill="#101010"/>
</svg>
