<svg width="18" height="22" viewBox="0 0 18 22" fill="none" xmlns="http://www.w3.org/2000/svg">
<path d="M15.5398 3.12009L10.0398 1.06009C9.4698 0.850088 8.5398 0.850088 7.9698 1.06009L2.4698 3.12009C1.4098 3.52009 0.549805 4.76009 0.549805 5.89009V13.9901C0.549805 14.8001 1.0798 15.8701 1.7298 16.3501L7.2298 20.4601C8.1998 21.1901 9.7898 21.1901 10.7598 20.4601L16.2598 16.3501C16.9098 15.8601 17.4398 14.8001 17.4398 13.9901V5.89009C17.4498 4.76009 16.5898 3.52009 15.5398 3.12009ZM11.6798 12.9701C11.5298 13.1201 11.3398 13.1901 11.1498 13.1901C10.9598 13.1901 10.7698 13.1201 10.6198 12.9701L9.0298 11.3801L7.3898 13.0201C7.2398 13.1701 7.0498 13.2401 6.8598 13.2401C6.6698 13.2401 6.4798 13.1701 6.3298 13.0201C6.0398 12.7301 6.0398 12.2501 6.3298 11.9601L7.9698 10.3201L6.3698 8.72009C6.0798 8.43009 6.0798 7.95009 6.3698 7.66009C6.6598 7.37009 7.1398 7.37009 7.4298 7.66009L9.0198 9.25009L10.5698 7.70009C10.8598 7.41009 11.3398 7.41009 11.6298 7.70009C11.9198 7.99009 11.9198 8.47009 11.6298 8.76009L10.0798 10.3101L11.6698 11.9001C11.9698 12.2001 11.9698 12.6701 11.6798 12.9701Z" fill="#101010"/>
</svg>
