<svg width="21" height="21" viewBox="0 0 21 21" fill="none" xmlns="http://www.w3.org/2000/svg">
<path d="M17.3598 3.64009L3.8298 17.1701L2.7298 16.3501C2.0798 15.8601 1.5498 14.8001 1.5498 13.9801V5.89009C1.5498 4.76009 2.4098 3.52009 3.4598 3.12009L8.9598 1.06009C9.5298 0.850088 10.4698 0.850088 11.0398 1.06009L16.5398 3.12009C16.8298 3.23009 17.1098 3.41009 17.3598 3.64009Z" fill="#101010"/>
<path d="M18.45 13.9801C18.45 14.8001 17.92 15.8601 17.27 16.3501L11.77 20.4601C10.79 21.1801 9.20999 21.1801 8.22999 20.4601L6.46999 19.1501C5.97999 18.7901 5.92999 18.0701 6.35999 17.6401L16.74 7.26008C17.37 6.63008 18.45 7.08008 18.45 7.97008V13.9801Z" fill="#101010"/>
<path d="M19.7699 1.23013C19.4699 0.930127 18.9799 0.930127 18.6799 1.23013L0.229883 19.6901C-0.0701172 19.9901 -0.0701172 20.4801 0.229883 20.7801C0.379883 20.9201 0.569883 21.0001 0.769883 21.0001C0.969883 21.0001 1.15988 20.9201 1.30988 20.7701L19.7699 2.31013C20.0799 2.01013 20.0799 1.53013 19.7699 1.23013Z" fill="#101010"/>
</svg>
