<svg width="20" height="20" viewBox="0 0 20 20" fill="none" xmlns="http://www.w3.org/2000/svg">
<path d="M19.6302 12.66L19.2202 14.52C18.5102 17.72 16.0002 20 12.3802 20H7.62023C4.00023 20 1.49023 17.72 0.780227 14.52L0.370227 12.66C0.170227 11.75 0.710227 10.72 1.58023 10.37L3.00023 9.80005L8.51023 7.59005C8.99023 7.40005 9.50023 7.30005 10.0002 7.30005C10.5002 7.30005 11.0102 7.40005 11.4902 7.59005L17.0002 9.80005L18.4202 10.37C19.2902 10.72 19.8302 11.75 19.6302 12.66Z" fill="#101010"/>
<path d="M17 6V7.44C17 7.79 16.64 8.04 16.31 7.9L12.04 6.19C10.73 5.68 9.27 5.68 7.95 6.2L3.69 7.91C3.36 8.05 3 7.8 3 7.45V6C3 4.35 4.35 3 6 3H14C15.65 3 17 4.35 17 6Z" fill="#101010"/>
<path d="M12.5 3H7.5V1C7.5 0.45 7.95 0 8.5 0H11.5C12.05 0 12.5 0.45 12.5 1V3Z" fill="#101010"/>
</svg>
