<svg width="18" height="21" viewBox="0 0 18 21" fill="none" xmlns="http://www.w3.org/2000/svg">
<path d="M13 7.75C12.59 7.75 12.25 7.41 12.25 7V3.5C12.25 2.42 11.58 1.75 10.5 1.75H7.5C6.42 1.75 5.75 2.42 5.75 3.5V7C5.75 7.41 5.41 7.75 5 7.75C4.59 7.75 4.25 7.41 4.25 7V3.5C4.25 1.59 5.59 0.25 7.5 0.25H10.5C12.41 0.25 13.75 1.59 13.75 3.5V7C13.75 7.41 13.41 7.75 13 7.75Z" fill="#101010"/>
<path d="M4.99984 16.78C4.58984 16.78 4.24984 16.44 4.24984 16.03C4.24984 15.61 4.58984 15.28 4.99984 15.28H16.7598C17.0598 15.28 17.2898 15.02 17.2598 14.72L16.5798 9.03C16.3398 7.09 15.9998 5.5 12.5998 5.5H5.39984C1.99984 5.5 1.65984 7.09 1.42984 9.03L0.529844 16.53C0.239844 18.99 0.999844 21 4.50984 21H13.4898C16.6498 21 17.5798 19.37 17.5298 17.25C17.5198 16.98 17.2998 16.78 17.0298 16.78H4.99984Z" fill="#101010"/>
</svg>
