<svg width="22" height="22" viewBox="0 0 22 22" fill="none" xmlns="http://www.w3.org/2000/svg">
<path d="M21.3596 7.27L21.0696 4.5C20.6496 1.48 19.2796 0.25 16.3497 0.25H13.9896H12.5097H9.46965H7.98965H5.58965C2.64965 0.25 1.28965 1.48 0.85965 4.53L0.58965 7.28C0.48965 8.35 0.77965 9.39 1.40965 10.2C2.16965 11.19 3.33965 11.75 4.63965 11.75C5.89965 11.75 7.10965 11.12 7.86965 10.11C8.54965 11.12 9.70965 11.75 10.9997 11.75C12.2896 11.75 13.4197 11.15 14.1096 10.15C14.8797 11.14 16.0696 11.75 17.3096 11.75C18.6396 11.75 19.8396 11.16 20.5896 10.12C21.1896 9.32 21.4597 8.31 21.3596 7.27Z" fill="#101010"/>
<path d="M10.3501 15.66C9.08012 15.79 8.12012 16.87 8.12012 18.15V20.89C8.12012 21.16 8.34012 21.38 8.61012 21.38H13.3801C13.6501 21.38 13.8701 21.16 13.8701 20.89V18.5C13.8801 16.41 12.6501 15.42 10.3501 15.66Z" fill="#101010"/>
<path d="M20.3699 13.4V16.38C20.3699 19.14 18.1299 21.38 15.3699 21.38C15.0999 21.38 14.8799 21.16 14.8799 20.89V18.5C14.8799 17.22 14.4899 16.22 13.7299 15.54C13.0599 14.93 12.1499 14.63 11.0199 14.63C10.7699 14.63 10.5199 14.64 10.2499 14.67C8.46988 14.85 7.11988 16.35 7.11988 18.15V20.89C7.11988 21.16 6.89988 21.38 6.62988 21.38C3.86988 21.38 1.62988 19.14 1.62988 16.38V13.42C1.62988 12.72 2.31988 12.25 2.96988 12.48C3.23988 12.57 3.50988 12.64 3.78988 12.68C3.90988 12.7 4.03988 12.72 4.15988 12.72C4.31988 12.74 4.47988 12.75 4.63988 12.75C5.79988 12.75 6.93988 12.32 7.83988 11.58C8.69988 12.32 9.81988 12.75 10.9999 12.75C12.1899 12.75 13.2899 12.34 14.1499 11.6C15.0499 12.33 16.1699 12.75 17.3099 12.75C17.4899 12.75 17.6699 12.74 17.8399 12.72C17.9599 12.71 18.0699 12.7 18.1799 12.68C18.4899 12.64 18.7699 12.55 19.0499 12.46C19.6999 12.24 20.3699 12.72 20.3699 13.4Z" fill="#101010"/>
</svg>
