<svg width="21" height="22" viewBox="0 0 21 22" fill="none" xmlns="http://www.w3.org/2000/svg">
<path d="M15.25 21.5C16.2165 21.5 17 20.7165 17 19.75C17 18.7835 16.2165 18 15.25 18C14.2835 18 13.5 18.7835 13.5 19.75C13.5 20.7165 14.2835 21.5 15.25 21.5Z" fill="#101010"/>
<path d="M7.25 21.5C8.2165 21.5 9 20.7165 9 19.75C9 18.7835 8.2165 18 7.25 18C6.2835 18 5.5 18.7835 5.5 19.75C5.5 20.7165 6.2835 21.5 7.25 21.5Z" fill="#101010"/>
<path d="M3.84 2.94L3.64 5.39C3.6 5.86 3.97 6.25 4.44 6.25H19.75C20.17 6.25 20.52 5.93 20.55 5.51C20.68 3.74 19.33 2.3 17.56 2.3H5.27C5.17 1.86 4.97 1.44 4.66 1.09C4.16 0.56 3.46 0.25 2.74 0.25H1C0.59 0.25 0.25 0.59 0.25 1C0.25 1.41 0.59 1.75 1 1.75H2.74C3.05 1.75 3.34 1.88 3.55 2.1C3.76 2.33 3.86 2.63 3.84 2.94Z" fill="#101010"/>
<path d="M19.5101 7.75H4.17005C3.75005 7.75 3.41005 8.07 3.37005 8.48L3.01005 12.83C2.87005 14.54 4.21005 16 5.92005 16H17.0401C18.5401 16 19.8601 14.77 19.9701 13.27L20.3001 8.6C20.3401 8.14 19.9801 7.75 19.5101 7.75Z" fill="#101010"/>
</svg>
