<svg width="20" height="18" viewBox="0 0 20 18" fill="none" xmlns="http://www.w3.org/2000/svg">
<path d="M19.7497 14.98C19.7497 14.96 19.7397 14.94 19.7397 14.92C19.7297 14.84 19.7197 14.76 19.6897 14.69C19.6497 14.6 19.5997 14.53 19.5397 14.46C19.5397 14.46 19.5397 14.45 19.5297 14.45C19.4597 14.38 19.3797 14.33 19.2897 14.29C19.1997 14.25 19.0997 14.23 18.9997 14.23L14.3297 14.25C14.3297 14.25 14.3297 14.25 14.3197 14.25C13.7197 14.25 13.1397 13.97 12.7797 13.49L11.5597 11.92C11.3097 11.59 10.8397 11.53 10.5097 11.79C10.1797 12.05 10.1197 12.51 10.3797 12.84L11.5997 14.41C12.2497 15.25 13.2697 15.75 14.3297 15.75H14.3397L17.1897 15.74L16.4797 16.45C16.1897 16.74 16.1897 17.22 16.4797 17.51C16.6297 17.66 16.8197 17.73 17.0097 17.73C17.1997 17.73 17.3897 17.66 17.5397 17.51L19.5397 15.51C19.6097 15.44 19.6597 15.36 19.6997 15.27C19.7297 15.17 19.7497 15.07 19.7497 14.98Z" fill="#101010"/>
<path d="M6.42 3.69001C5.77 2.79001 4.73 2.26001 3.62 2.26001C3.61 2.26001 3.61 2.26001 3.6 2.26001L1 2.27001C0.59 2.27001 0.25 2.61001 0.25 3.02001C0.25 3.43001 0.59 3.77001 1 3.77001L3.61 3.76001H3.62C4.25 3.76001 4.84 4.06001 5.2 4.57001L6.28 6.07001C6.43 6.27001 6.66 6.38001 6.89 6.38001C7.04 6.38001 7.2 6.33001 7.33 6.24001C7.67 5.99001 7.74 5.52001 7.5 5.19001L6.42 3.69001Z" fill="#101010"/>
<path d="M19.74 3.07997C19.74 3.05997 19.75 3.03997 19.75 3.02997C19.75 2.92997 19.73 2.82997 19.69 2.73997C19.65 2.64997 19.6 2.56997 19.53 2.49997L17.53 0.499971C17.24 0.209971 16.76 0.209971 16.47 0.499971C16.18 0.789971 16.18 1.26997 16.47 1.55997L17.18 2.26997L14.45 2.25997C14.44 2.25997 14.44 2.25997 14.43 2.25997C13.28 2.25997 12.2 2.82997 11.56 3.79997L5.17 13.38C4.81 13.92 4.2 14.25 3.55 14.25H3.54L1 14.23C0.59 14.23 0.25 14.56 0.25 14.98C0.25 15.39 0.58 15.73 1 15.73L3.55 15.74C3.56 15.74 3.56 15.74 3.57 15.74C4.73 15.74 5.8 15.17 6.44 14.2L12.83 4.61997C13.19 4.07997 13.8 3.74997 14.45 3.74997H14.46L19 3.76997C19.1 3.76997 19.19 3.74997 19.29 3.70997C19.38 3.66997 19.46 3.61997 19.53 3.54997C19.53 3.54997 19.53 3.53997 19.54 3.53997C19.6 3.46997 19.66 3.39997 19.69 3.30997C19.72 3.23997 19.73 3.15997 19.74 3.07997Z" fill="#101010"/>
</svg>
