<svg width="20" height="20" viewBox="0 0 20 20" fill="none" xmlns="http://www.w3.org/2000/svg">
<path d="M0 5.81V14.19C0 15.68 0.36 16.92 1.05 17.87C1.34 18.29 1.71 18.66 2.13 18.95C2.95 19.55 3.99 19.9 5.22 19.98V0.0299988C1.94 0.239999 0 2.37 0 5.81Z" fill="#101010"/>
<path d="M18.9507 2.13C18.6607 1.71 18.2907 1.34 17.8707 1.05C16.9207 0.36 15.6807 0 14.1907 0H6.7207V20H14.1907C17.8307 20 20.0007 17.83 20.0007 14.19V5.81C20.0007 4.32 19.6407 3.08 18.9507 2.13ZM13.5007 12.03C13.7907 12.32 13.7907 12.8 13.5007 13.09C13.3507 13.24 13.1607 13.31 12.9707 13.31C12.7807 13.31 12.5907 13.24 12.4407 13.09L9.8807 10.53C9.5907 10.24 9.5907 9.76 9.8807 9.47L12.4407 6.91C12.7307 6.62 13.2107 6.62 13.5007 6.91C13.7907 7.2 13.7907 7.68 13.5007 7.97L11.4807 10L13.5007 12.03Z" fill="#101010"/>
</svg>
