<svg width="20" height="20" viewBox="0 0 20 20" fill="none" xmlns="http://www.w3.org/2000/svg">
<path d="M5.81 0C4.32 0 3.08 0.36 2.13 1.05C1.71 1.34 1.34 1.71 1.05 2.13C0.36 3.08 0 4.32 0 5.81V14.19C0 17.83 2.17 20 5.81 20H13.28V0H5.81ZM10.12 10.53L7.56 13.09C7.41 13.24 7.22 13.31 7.03 13.31C6.84 13.31 6.65 13.24 6.5 13.09C6.21 12.8 6.21 12.32 6.5 12.03L8.52 10L6.5 7.97C6.2 7.68 6.2 7.2 6.5 6.91C6.8 6.62 7.27 6.62 7.56 6.91L10.12 9.47C10.41 9.76 10.41 10.24 10.12 10.53Z" fill="#101010"/>
<path d="M14.7793 0.0299988V19.98C16.0093 19.9 17.0493 19.55 17.8693 18.95C18.2893 18.66 18.6593 18.29 18.9493 17.87C19.6393 16.92 19.9993 15.68 19.9993 14.19V5.81C19.9993 2.37 18.0593 0.239999 14.7793 0.0299988Z" fill="#101010"/>
</svg>
