<svg width="14" height="21" viewBox="0 0 14 21" fill="none" xmlns="http://www.w3.org/2000/svg">
<path d="M13.3398 12.13L11.1598 10.38C10.8498 10.14 10.4598 10 10.0598 10H7.74984V7H12.2198C13.1898 7 13.9698 6.22 13.9698 5.25V1.75C13.9698 0.78 13.1898 0 12.2198 0H3.95984C3.56984 0 3.17984 0.14 2.86984 0.38L0.679844 2.13C-0.190156 2.83 -0.190156 4.17 0.679844 4.87L2.86984 6.62C3.17984 6.86 3.56984 7 3.95984 7H6.24984V10H1.79984C0.829844 10 0.0498441 10.78 0.0498441 11.75V15.25C0.0498441 16.22 0.829844 17 1.79984 17H6.24984V19.25H3.99984C3.58984 19.25 3.24984 19.59 3.24984 20C3.24984 20.41 3.58984 20.75 3.99984 20.75H9.99984C10.4098 20.75 10.7498 20.41 10.7498 20C10.7498 19.59 10.4098 19.25 9.99984 19.25H7.74984V17H10.0598C10.4598 17 10.8498 16.86 11.1598 16.62L13.3398 14.87C14.2198 14.17 14.2198 12.83 13.3398 12.13Z" fill="#101010"/>
</svg>
