<svg width="18" height="20" viewBox="0 0 18 20" fill="none" xmlns="http://www.w3.org/2000/svg">
<path d="M16.54 4.54L13.47 1.47C12.53 0.53 11.26 0 9.93 0H5C2 0 0 2 0 5V15C0 18 2 20 5 20H13C16 20 18 18 18 15V8.07C18 6.74 17.47 5.47 16.54 4.54ZM8.5 16C8.5 16.2761 8.27614 16.5 8 16.5H7C5.35 16.5 4 15.15 4 13.5V13C4 12.7239 4.22386 12.5 4.5 12.5H8.25C8.39 12.5 8.5 12.61 8.5 12.75V16ZM8.5 11.25C8.5 11.39 8.39 11.5 8.25 11.5H4.5C4.22386 11.5 4 11.2761 4 11V10.5C4 8.85 5.35 7.5 7 7.5H8C8.27614 7.5 8.5 7.72386 8.5 8V11.25ZM14 13.5C14 15.15 12.65 16.5 11 16.5H10C9.72386 16.5 9.5 16.2761 9.5 16V12.75C9.5 12.61 9.61 12.5 9.75 12.5H13.5C13.7761 12.5 14 12.7239 14 13V13.5ZM14 11C14 11.2761 13.7761 11.5 13.5 11.5H9.75C9.61 11.5 9.5 11.39 9.5 11.25V8C9.5 7.72386 9.72386 7.5 10 7.5H11C12.65 7.5 14 8.85 14 10.5V11Z" fill="#101010"/>
</svg>
