<svg width="21" height="20" viewBox="0 0 21 20" fill="none" xmlns="http://www.w3.org/2000/svg">
<path d="M20.97 3.5V7.5C20.97 9.26154 19.6704 10.7232 17.9685 10.9649C17.6951 11.0038 17.47 10.7761 17.47 10.5V10.25C17.47 6.53 14.45 3.5 10.72 3.5H10.47C10.1938 3.5 9.96623 3.27486 10.0054 3.0015C10.248 1.30678 11.7092 0 13.47 0H17.47C19.41 0 20.97 1.57 20.97 3.5Z" fill="#101010"/>
<path d="M10.7197 5H9.96973H5.96973C3.20973 5 0.969727 7.24 0.969727 10V15C0.969727 17.76 3.20973 20 5.96973 20H10.9697C13.7297 20 15.9697 17.76 15.9697 15V11V10.25C15.9697 7.35 13.6197 5 10.7197 5Z" fill="#101010"/>
</svg>
