<svg width="20" height="20" viewBox="0 0 20 20" fill="none" xmlns="http://www.w3.org/2000/svg">
<path d="M16 14.01C16.55 14.01 17 14.46 17 15.01V16C17 18.2 15.5 20 13 20H7C4.5 20 3 18.2 3 16V15.01C3 14.46 3.45 14.01 4 14.01H16Z" fill="#101010"/>
<path d="M17 4V11.5C17 12.05 16.55 12.5 16 12.5H4C3.45 12.5 3 12.05 3 11.5V4C3 1.8 4.5 0 7 0H13C15.5 0 17 1.8 17 4Z" fill="#101010"/>
<path d="M1 18.75C0.59 18.75 0.25 18.41 0.25 18V2C0.25 1.59 0.59 1.25 1 1.25C1.41 1.25 1.75 1.59 1.75 2V18C1.75 18.41 1.41 18.75 1 18.75Z" fill="#101010"/>
<path d="M19 18.75C18.59 18.75 18.25 18.41 18.25 18V2C18.25 1.59 18.59 1.25 19 1.25C19.41 1.25 19.75 1.59 19.75 2V18C19.75 18.41 19.41 18.75 19 18.75Z" fill="#101010"/>
</svg>
