<svg width="20" height="20" viewBox="0 0 20 20" fill="none" xmlns="http://www.w3.org/2000/svg">
<path d="M20 13V7C20 5.34 18.66 4 17 4H3C1.34 4 0 5.34 0 7V13C0 14.66 1.34 16 3 16H17C18.66 16 20 14.66 20 13Z" fill="#101010"/>
<path d="M3.93021 17.5H16.0702C16.3902 17.5 16.6202 17.79 16.5602 18.1C16.2902 19.58 15.4202 20 13.3302 20H6.67021C4.57021 20 3.71021 19.58 3.44021 18.1C3.38021 17.79 3.61021 17.5 3.93021 17.5Z" fill="#101010"/>
<path d="M6.67021 0H13.3302C15.4302 0 16.2902 0.42 16.5602 1.9C16.6202 2.21 16.3802 2.5 16.0702 2.5H3.93021C3.61021 2.5 3.38021 2.21 3.44021 1.9C3.71021 0.42 4.57021 0 6.67021 0Z" fill="#101010"/>
</svg>
