<svg width="21" height="22" viewBox="0 0 21 22" fill="none" xmlns="http://www.w3.org/2000/svg">
<path d="M16.7099 8.49C16.6099 8.49 16.5099 8.47001 16.4099 8.43001C16.0299 8.26 15.8599 7.82 16.0199 7.44C16.2099 7.01 16.0999 6.38 15.7499 5.86C15.3999 5.33 14.8699 4.97 14.3899 5C13.9499 5 13.6399 4.67 13.6299 4.26C13.6299 3.84 13.9599 3.51 14.3699 3.5C15.3999 3.48 16.3699 4.07 16.9999 5.02C17.6399 5.98 17.7899 7.13 17.3999 8.03C17.2799 8.32 16.9999 8.49 16.7099 8.49Z" fill="#101010"/>
<path d="M19.8201 9.47998C19.7501 9.47998 19.6901 9.46998 19.6201 9.44998C19.2201 9.33998 18.9901 8.92998 19.1001 8.52998C19.4801 7.16998 19.1601 5.54998 18.2501 4.18998C17.3401 2.82998 15.9601 1.91998 14.5501 1.74998C14.1401 1.69998 13.8501 1.32998 13.9001 0.91998C13.9501 0.50998 14.3301 0.20998 14.7301 0.26998C16.5601 0.48998 18.3401 1.64998 19.4901 3.36998C20.6401 5.08998 21.0301 7.16998 20.5401 8.94998C20.4501 9.25998 20.1501 9.47998 19.8201 9.47998Z" fill="#101010"/>
<path d="M15.1199 10.78C15.1199 11.08 14.8699 11.33 14.5699 11.33H1.42988C1.12988 11.33 0.879883 11.08 0.879883 10.78C0.879883 10.48 1.12988 10.23 1.42988 10.23H2.16988L2.44988 8.90996C2.70988 7.62996 3.25988 6.45996 5.43988 6.45996H10.5699C12.7499 6.45996 13.2899 7.63996 13.5599 8.90996L13.8399 10.23H14.5799C14.8699 10.23 15.1199 10.48 15.1199 10.78Z" fill="#101010"/>
<path d="M15.43 14.9099C15.32 13.7099 15 12.4199 12.66 12.4199H3.34005C1.00005 12.4199 0.680046 13.7099 0.570046 14.9099L0.160047 19.3599C0.110047 19.9099 0.290047 20.4699 0.670047 20.8899C1.06005 21.3099 1.60005 21.5499 2.19005 21.5499H3.56005C4.74005 21.5499 4.97005 20.8699 5.12005 20.4299L5.27005 19.9899C5.44005 19.4899 5.48005 19.3599 6.14005 19.3599H9.88005C10.54 19.3599 10.56 19.4299 10.75 19.9899L10.9 20.4299C11.05 20.8799 11.27 21.5499 12.46 21.5499H13.83C14.41 21.5499 14.96 21.3099 15.35 20.8899C15.73 20.4699 15.91 19.9199 15.86 19.3599L15.43 14.9099ZM5.81005 16.4299H3.62005C3.32005 16.4299 3.07005 16.1799 3.07005 15.8799C3.07005 15.5799 3.32005 15.3299 3.62005 15.3299H5.81005C6.11005 15.3299 6.36005 15.5799 6.36005 15.8799C6.36005 16.1799 6.11005 16.4299 5.81005 16.4299ZM12.38 16.4299H10.19C9.89005 16.4299 9.64005 16.1799 9.64005 15.8799C9.64005 15.5799 9.89005 15.3299 10.19 15.3299H12.38C12.68 15.3299 12.93 15.5799 12.93 15.8799C12.93 16.1799 12.68 16.4299 12.38 16.4299Z" fill="#101010"/>
</svg>
