<svg width="21" height="21" viewBox="0 0 21 21" fill="none" xmlns="http://www.w3.org/2000/svg">
<path d="M9 0H3C1.34 0 0 1.34 0 3V9C0 10.66 1.34 12 3 12H7.5C7.5 9.52 9.52 7.5 12 7.5V3C12 1.34 10.66 0 9 0ZM2.77 3.27C3.54 2.72 4.59 2.71 5.38 3.25C5.72 3.48 5.81 3.95 5.58 4.29C5.35 4.63 4.88 4.72 4.54 4.49C4.27 4.3 3.9 4.3 3.63 4.5C3.5 4.59 3.35 4.63 3.2 4.63C2.97 4.63 2.73 4.52 2.59 4.32C2.35 3.98 2.43 3.51 2.77 3.27ZM8.27 7.24C8.01 7.57 7.54 7.62 7.22 7.36C6.87 7.08 6.45 6.93 6 6.93C5 6.93 4.17 7.69 4.06 8.67H6.16C6.57 8.67 6.91 9.01 6.91 9.42C6.91 9.83 6.57 10.17 6.16 10.17H3.84C3.13 10.17 2.55 9.59 2.55 8.88C2.55 6.98 4.1 5.43 6 5.43C6.78 5.43 7.55 5.7 8.16 6.19C8.48 6.45 8.53 6.92 8.27 7.24ZM9.58 4.29C9.35 4.63 8.88 4.72 8.54 4.49C8.27 4.3 7.9 4.3 7.63 4.5C7.5 4.59 7.35 4.63 7.2 4.63C6.97 4.63 6.73 4.52 6.59 4.32C6.35 3.98 6.43 3.51 6.77 3.27C7.54 2.72 8.59 2.71 9.38 3.25C9.72 3.48 9.81 3.95 9.58 4.29Z" fill="#101010"/>
<path d="M17.2202 15.6801C17.1502 15.6001 17.0502 15.5601 16.9402 15.5601H13.0602C12.9502 15.5601 12.8502 15.6001 12.7802 15.6801C12.7102 15.7601 12.6702 15.8701 12.6902 15.9701C12.8202 17.1501 13.8102 18.0501 15.0002 18.0501C16.1902 18.0501 17.1802 17.1601 17.3102 15.9701C17.3202 15.8601 17.2902 15.7601 17.2202 15.6801Z" fill="#101010"/>
<path d="M18 9H12C10.35 9 9 10.35 9 12V18C9 19.65 10.35 21 12 21H18C19.65 21 21 19.65 21 18V12C21 10.35 19.65 9 18 9ZM11.59 12.17C11.83 11.83 12.3 11.75 12.64 11.99C12.91 12.18 13.27 12.18 13.54 12C13.88 11.76 14.35 11.85 14.58 12.2C14.81 12.54 14.73 13.01 14.38 13.24C13.99 13.5 13.54 13.64 13.09 13.64C12.62 13.64 12.16 13.5 11.77 13.22C11.43 12.97 11.35 12.5 11.59 12.17ZM15 19.17C13.1 19.17 11.55 17.62 11.55 15.72C11.55 15.01 12.13 14.43 12.84 14.43H17.16C17.87 14.43 18.45 15.01 18.45 15.72C18.45 17.62 16.9 19.17 15 19.17ZM18.38 13.23C17.99 13.49 17.54 13.63 17.09 13.63C16.62 13.63 16.16 13.49 15.77 13.21C15.43 12.97 15.35 12.5 15.59 12.16C15.83 11.82 16.3 11.74 16.64 11.98C16.91 12.17 17.27 12.17 17.54 11.99C17.88 11.75 18.35 11.84 18.58 12.19C18.81 12.54 18.72 13 18.38 13.23Z" fill="#101010"/>
</svg>
