<svg width="21" height="19" viewBox="0 0 21 19" fill="none" xmlns="http://www.w3.org/2000/svg">
<path d="M17.4802 0.820006L17.7602 1.39001C17.9002 1.67001 18.2502 1.93001 18.5602 1.99001L18.9402 2.05001C20.0802 2.24001 20.3502 3.08001 19.5302 3.91001L19.1802 4.26001C18.9502 4.50001 18.8202 4.96001 18.8902 5.28001L18.9402 5.49001C19.2502 6.87001 18.5202 7.40001 17.3202 6.68001L17.0602 6.53001C16.7502 6.35001 16.2502 6.35001 15.9402 6.53001L15.6802 6.68001C14.4702 7.41001 13.7402 6.87001 14.0602 5.49001L14.1102 5.28001C14.1802 4.96001 14.0502 4.50001 13.8202 4.26001L13.4702 3.90001C12.6502 3.07001 12.9202 2.23001 14.0602 2.04001L14.4402 1.98001C14.7402 1.93001 15.1002 1.66001 15.2402 1.38001L15.5202 0.810006C16.0602 -0.269994 16.9402 -0.269994 17.4802 0.820006Z" fill="#101010"/>
<path d="M19.57 8.09C19.21 8.35 18.2 8.83 16.76 8.09C16.6 8.01 16.4 8 16.24 8.09C15.67 8.38 15.15 8.5 14.74 8.5C14.1 8.5 13.65 8.25 13.43 8.09C13.06 7.82 12.28 7.05 12.55 5.42C12.58 5.25 12.53 5.08 12.42 4.95C11.73 4.16 11.35 3.1 11.62 2.27C11.72 1.94 11.51 1.5 11.17 1.5H5C2 1.5 0 3 0 6.5V13.5C0 17 2 18.5 5 18.5H15C18 18.5 20 17 20 13.5V8.27C20 8.08 19.73 7.98 19.57 8.09ZM12.34 10.09C11.68 10.62 10.84 10.88 10 10.88C9.16 10.88 8.31 10.62 7.66 10.09L4.53 7.59C4.21 7.33 4.16 6.85 4.41 6.53C4.67 6.21 5.14 6.15 5.46 6.41L8.59 8.91C9.35 9.52 10.64 9.52 11.4 8.91C11.72 8.65 12.19 8.7 12.45 9.03C12.72 9.35 12.67 9.83 12.34 10.09Z" fill="#101010"/>
</svg>
