<svg width="21" height="20" viewBox="0 0 21 20" fill="none" xmlns="http://www.w3.org/2000/svg">
<path d="M15 0H5C2 0 0 1.5 0 5V12C0 15.5 2 17 5 17H8.57C9.16 17 9.64 16.48 9.56 15.89C9.46 15.18 9.48 14.44 9.63 13.68C10.16 11.08 12.3 9.01 14.92 8.58C16.23 8.37 17.48 8.55 18.58 9.03C19.25 9.32 20 8.86 20 8.13V5C20 1.5 18 0 15 0ZM15.47 5.59L12.34 8.09C11.68 8.62 10.84 8.88 10 8.88C9.16 8.88 8.31 8.62 7.66 8.09L4.53 5.59C4.21 5.33 4.16 4.86 4.41 4.53C4.67 4.21 5.14 4.15 5.46 4.41L8.59 6.91C9.35 7.52 10.64 7.52 11.4 6.91L14.53 4.41C14.85 4.15 15.33 4.2 15.58 4.53C15.84 4.86 15.79 5.33 15.47 5.59Z" fill="#101010"/>
<path d="M16 10C13.24 10 11 12.23 11 15C11 17.76 13.24 20 16 20C18.77 20 21 17.76 21 15C21 12.23 18.77 10 16 10ZM18.05 14.55L17.68 14.91L15.5 17.1C15.4 17.19 15.21 17.29 15.07 17.31L14.09 17.45C13.74 17.5 13.49 17.25 13.54 16.9L13.68 15.92C13.7 15.78 13.79 15.59 13.89 15.49L16.07 13.32L16.43 12.95C16.67 12.71 16.94 12.55 17.22 12.55C17.46 12.55 17.73 12.66 18.03 12.95C18.7 13.6 18.49 14.11 18.05 14.55Z" fill="#101010"/>
</svg>
