<svg width="21" height="20" viewBox="0 0 21 20" fill="none" xmlns="http://www.w3.org/2000/svg">
<path d="M5 10C2.24 10 0 12.23 0 15C0 17.77 2.24 20 5 20C7.76 20 10 17.76 10 15C10 12.24 7.77 10 5 10ZM2.96 12.96H5C5.38 12.96 5.68 13.27 5.68 13.64C5.68 14.01 5.38 14.32 5 14.32H2.96C2.58 14.32 2.28 14.01 2.28 13.64C2.28 13.27 2.58 12.96 2.96 12.96ZM7.04 17.04H2.96C2.58 17.04 2.28 16.73 2.28 16.36C2.28 15.99 2.59 15.68 2.96 15.68H7.05C7.43 15.68 7.73 15.99 7.73 16.36C7.73 16.73 7.42 17.04 7.04 17.04Z" fill="#101010"/>
<path d="M16 0H6C3 0 1 1.5 1 5V8.14C1 8.87 1.75 9.33 2.42 9.04C3.52 8.56 4.77 8.38 6.08 8.59C8.7 9.02 10.84 11.09 11.37 13.69C11.52 14.45 11.54 15.19 11.44 15.9C11.36 16.49 11.84 17.01 12.43 17.01H16C19 17.01 21 15.51 21 12.01V5C21 1.5 19 0 16 0ZM16.47 5.59L13.34 8.09C12.68 8.62 11.84 8.88 11 8.88C10.16 8.88 9.31 8.62 8.66 8.09L5.53 5.59C5.21 5.33 5.16 4.85 5.41 4.53C5.67 4.21 6.14 4.15 6.46 4.41L9.59 6.91C10.35 7.52 11.64 7.52 12.4 6.91L15.53 4.41C15.85 4.15 16.33 4.2 16.58 4.53C16.84 4.85 16.79 5.33 16.47 5.59Z" fill="#101010"/>
</svg>
