<svg width="21" height="20" viewBox="0 0 21 20" fill="none" xmlns="http://www.w3.org/2000/svg">
<path d="M15 0H5C2 0 0 1.5 0 5V12.96C0 15.25 1.85 17.1 4.14 17.1H10.4C10.98 17.1 11.48 16.61 11.42 16.03C11.28 14.5 11.78 12.85 13.14 11.52C13.7 10.97 14.39 10.55 15.14 10.31C16.39 9.91 17.6 9.96 18.67 10.33C19.32 10.55 20 10.08 20 9.39V5C20 1.5 18 0 15 0ZM15.47 5.59L12.34 8.09C11.68 8.62 10.84 8.88 10 8.88C9.16 8.88 8.31 8.62 7.66 8.09L4.53 5.59C4.21 5.33 4.16 4.86 4.41 4.53C4.67 4.21 5.14 4.15 5.46 4.41L8.59 6.91C9.35 7.52 10.64 7.52 11.4 6.91L14.53 4.41C14.85 4.15 15.33 4.2 15.58 4.53C15.84 4.86 15.79 5.33 15.47 5.59Z" fill="#101010"/>
<path d="M20.65 18.45L19.9 17.7C20.29 17.11 20.52 16.4 20.52 15.64C20.52 13.56 18.84 11.88 16.76 11.88C14.68 11.88 13 13.56 13 15.63C13 17.7 14.68 19.39 16.76 19.39C17.52 19.39 18.23 19.16 18.82 18.77L19.57 19.52C19.72 19.67 19.91 19.74 20.11 19.74C20.31 19.74 20.5 19.67 20.65 19.52C20.95 19.23 20.95 18.75 20.65 18.45Z" fill="#101010"/>
</svg>
