<svg width="21" height="16" viewBox="0 0 21 16" fill="none" xmlns="http://www.w3.org/2000/svg">
<path d="M14.3899 1.21003L15.7999 4.03003C15.9899 4.42003 16.4999 4.79003 16.9299 4.87003L19.4799 5.29003C21.1099 5.56003 21.4899 6.74003 20.3199 7.92003L18.3299 9.91003C17.9999 10.24 17.8099 10.89 17.9199 11.36L18.4899 13.82C18.9399 15.76 17.8999 16.52 16.1899 15.5L13.7999 14.08C13.3699 13.82 12.6499 13.82 12.2199 14.08L9.82994 15.5C8.11994 16.51 7.07994 15.76 7.52994 13.82L8.09994 11.36C8.18994 10.88 7.99994 10.23 7.66994 9.90003L5.67994 7.91003C4.50994 6.74003 4.88994 5.56003 6.51994 5.28003L9.06994 4.86003C9.49994 4.79003 10.0099 4.41003 10.1999 4.02003L11.6099 1.20003C12.3799 -0.319968 13.6199 -0.319968 14.3899 1.21003Z" fill="#101010"/>
<path d="M7 1.75H1C0.59 1.75 0.25 1.41 0.25 1C0.25 0.59 0.59 0.25 1 0.25H7C7.41 0.25 7.75 0.59 7.75 1C7.75 1.41 7.41 1.75 7 1.75Z" fill="#101010"/>
<path d="M4 15.75H1C0.59 15.75 0.25 15.41 0.25 15C0.25 14.59 0.59 14.25 1 14.25H4C4.41 14.25 4.75 14.59 4.75 15C4.75 15.41 4.41 15.75 4 15.75Z" fill="#101010"/>
<path d="M2 8.75H1C0.59 8.75 0.25 8.41 0.25 8C0.25 7.59 0.59 7.25 1 7.25H2C2.41 7.25 2.75 7.59 2.75 8C2.75 8.41 2.41 8.75 2 8.75Z" fill="#101010"/>
</svg>
