<svg width="22" height="20" viewBox="0 0 22 20" fill="none" xmlns="http://www.w3.org/2000/svg">
<path d="M17.6997 12.46C17.3497 12.81 17.1497 13.51 17.2597 13.99L17.9497 17.01C18.2397 18.26 18.0597 19.2 17.4397 19.65C17.1897 19.83 16.8897 19.92 16.5397 19.92C16.0297 19.92 15.4297 19.73 14.7697 19.34L11.8397 17.6C11.3797 17.33 10.6197 17.33 10.1597 17.6L7.22971 19.34C6.11971 19.99 5.16971 20.1 4.55971 19.65C4.51971 19.62 4.47971 19.59 4.44971 19.55L17.0697 6.93003C17.5297 6.47003 18.1797 6.26003 18.8197 6.37003L18.9697 6.40003C20.0297 6.58003 20.7397 7.06003 20.9697 7.76003C21.1897 8.46003 20.8897 9.27003 20.1297 10.03L17.6997 12.46Z" fill="#101010"/>
<path d="M4.73986 14C4.84986 13.52 4.64986 12.81 4.29986 12.46L1.86986 10.03C1.10986 9.27 0.809859 8.46 1.02986 7.76C1.25986 7.06 1.96986 6.58 3.02986 6.4L6.14986 5.88C6.59986 5.8 7.14986 5.4 7.35986 4.99L9.07986 1.54C9.57986 0.55 10.2599 0 10.9999 0C11.7399 0 12.4199 0.55 12.9199 1.54L14.6399 4.99C14.7699 5.25 15.0399 5.5 15.3299 5.67L4.06986 16.93L4.73986 14Z" fill="#101010"/>
<path d="M20.7699 0.229883C20.4699 -0.0701172 19.9799 -0.0701172 19.6799 0.229883L1.22988 18.6899C0.929883 18.9899 0.929883 19.4799 1.22988 19.7799C1.37988 19.9199 1.56988 19.9999 1.76988 19.9999C1.96988 19.9999 2.15988 19.9199 2.30988 19.7699L20.7699 1.30988C21.0799 1.00988 21.0799 0.529883 20.7699 0.229883Z" fill="#101010"/>
</svg>
