<svg width="20" height="20" viewBox="0 0 20 20" fill="none" xmlns="http://www.w3.org/2000/svg">
<path d="M6.29004 4.29C5.87004 4.29 5.54004 3.95 5.54004 3.54V0.75C5.54004 0.34 5.87004 0 6.29004 0C6.71004 0 7.04004 0.34 7.04004 0.75V3.53C7.04004 3.95 6.71004 4.29 6.29004 4.29Z" fill="#101010"/>
<path d="M13.71 4.29C13.29 4.29 12.96 3.95 12.96 3.54V0.75C12.96 0.33 13.3 0 13.71 0C14.13 0 14.46 0.34 14.46 0.75V3.53C14.46 3.95 14.13 4.29 13.71 4.29Z" fill="#101010"/>
<path d="M19.5004 13.82C19.5004 13.97 19.4504 14.12 19.3204 14.25C17.8704 15.71 15.2904 18.31 13.8104 19.8C13.6804 19.94 13.5104 20 13.3404 20C13.0104 20 12.6904 19.74 12.6904 19.36V15.86C12.6904 14.4 13.9304 13.19 15.4504 13.19C16.4004 13.18 17.7204 13.18 18.8504 13.18C19.2404 13.18 19.5004 13.49 19.5004 13.82Z" fill="#101010"/>
<path d="M19.5004 13.82C19.5004 13.97 19.4504 14.12 19.3204 14.25C17.8704 15.71 15.2904 18.31 13.8104 19.8C13.6804 19.94 13.5104 20 13.3404 20C13.0104 20 12.6904 19.74 12.6904 19.36V15.86C12.6904 14.4 13.9304 13.19 15.4504 13.19C16.4004 13.18 17.7204 13.18 18.8504 13.18C19.2404 13.18 19.5004 13.49 19.5004 13.82Z" fill="#101010"/>
<path d="M17.57 2.5C16.91 2.01 15.96 2.48 15.96 3.31V3.41C15.96 4.58 15.12 5.66 13.95 5.78C12.6 5.92 11.46 4.86 11.46 3.54V2.5C11.46 1.95 11.01 1.5 10.46 1.5H9.54C8.99 1.5 8.54 1.95 8.54 2.5V3.41C8.54 4.29 8.07 5.11 7.34 5.51C7.3 5.54 7.26 5.56 7.22 5.58C7.21 5.58 7.21 5.59 7.2 5.59C7.13 5.62 7.06 5.65 6.98 5.68C6.96 5.69 6.94 5.69 6.92 5.7C6.8 5.74 6.67 5.77 6.53 5.78H6.52C6.37 5.8 6.21 5.8 6.06 5.78H6.05C5.91 5.77 5.78 5.74 5.66 5.7C5.56 5.67 5.46 5.63 5.36 5.58C4.58 5.23 4.04 4.45 4.04 3.54V3.31C4.04 2.54 3.22 2.08 2.57 2.41C2.56 2.42 2.55 2.42 2.54 2.43H2.53C2.46 2.48 2.4 2.53 2.33 2.58C2.22 2.67 2.11 2.76 2.01 2.86C1.94 2.93 1.87 3 1.81 3.07C1.73 3.15 1.66 3.23 1.59 3.32C1.54 3.38 1.48 3.44 1.44 3.51C1.39 3.57 1.35 3.64 1.31 3.7C1.3 3.71 1.29 3.72 1.28 3.74C1.19 3.87 1.11 4.02 1.04 4.16C1.02 4.18 1.01 4.19 1.01 4.21C0.95 4.33 0.89 4.45 0.85 4.58C0.82 4.63 0.81 4.67 0.79 4.72C0.77 4.76 0.76 4.81 0.74 4.85C0.71 4.95 0.68 5.06 0.65 5.17C0.61 5.31 0.58 5.46 0.56 5.61C0.54 5.72 0.53 5.83 0.52 5.95C0.51 6.09 0.5 6.23 0.5 6.37V15.13C0.5 17.82 2.68 20 5.37 20H10.19C10.74 20 11.19 19.55 11.19 19V15.86C11.19 13.56 13.1 11.69 15.45 11.69C15.98 11.68 17.27 11.68 18.5 11.68C19.05 11.68 19.5 11.23 19.5 10.68V6.37C19.5 4.78 18.74 3.39 17.57 2.5ZM9.13 13.91C9.04 14.21 8.76 14.42 8.43 14.42H4.79C4.74 14.42 4.7 14.42 4.66 14.4C4.3 14.35 4.04 14.04 4.04 13.67C4.04 13.25 4.37 12.91 4.79 12.91H8.43C8.84 12.91 9.18 13.25 9.18 13.67C9.18 13.75 9.17 13.84 9.13 13.91ZM11.91 10.2C11.82 10.5 11.54 10.71 11.21 10.71H4.79C4.74 10.71 4.7 10.71 4.66 10.69C4.3 10.64 4.04 10.33 4.04 9.96C4.04 9.54 4.37 9.2 4.79 9.2H11.21C11.63 9.2 11.96 9.54 11.96 9.96C11.96 10.04 11.95 10.13 11.91 10.2Z" fill="#101010"/>
</svg>
