<svg width="18" height="18" viewBox="0 0 18 18" fill="none" xmlns="http://www.w3.org/2000/svg">
<path d="M17.36 4.78L1.54 14.28C0.93 14.65 0.11 14.28 0.03 13.57C0.00999997 13.38 0 13.19 0 13V5C0 2 2 0 5 0H13C16 0 17.23 1.54 17.81 3.65C17.93 4.09 17.74 4.55 17.36 4.78Z" fill="#101010"/>
<path d="M18.0004 8.09001V13C18.0004 16 16.0004 18 13.0004 18H5.0004C4.0804 18 3.2104 17.75 2.4704 17.31C1.8304 16.94 1.8704 16 2.5004 15.62L16.4804 7.23001C17.1504 6.83001 18.0004 7.31001 18.0004 8.09001Z" fill="#101010"/>
</svg>
