<svg width="22" height="22" viewBox="0 0 22 22" fill="none" xmlns="http://www.w3.org/2000/svg">
<path d="M15.42 6.95012C17.86 9.39012 17.86 13.3501 15.42 15.7901C12.98 18.2301 9.02 18.2301 6.58 15.7901C4.14 13.3501 4.14 9.39012 6.58 6.95012C9.02 4.51012 12.98 4.51012 15.42 6.95012Z" fill="#101010"/>
<path d="M7.25003 21.3901C7.16003 21.3901 7.06003 21.3701 6.97003 21.3401C4.72003 20.4401 2.90003 18.8501 1.68003 16.7501C0.500031 14.7001 0.0300309 12.3801 0.340031 10.0201C0.390031 9.61011 0.780031 9.32011 1.18003 9.37011C1.59003 9.42011 1.88003 9.80011 1.83003 10.2101C1.57003 12.2401 1.97003 14.2401 2.98003 16.0001C4.02003 17.8001 5.59003 19.1701 7.52003 19.9401C7.90003 20.1001 8.09003 20.5301 7.94003 20.9201C7.83003 21.2101 7.54003 21.3901 7.25003 21.3901Z" fill="#101010"/>
<path d="M4.84962 4.23011C4.62962 4.23011 4.40962 4.13011 4.25962 3.94011C3.99962 3.62011 4.05962 3.15011 4.38962 2.89011C6.28962 1.40011 8.57962 0.610107 10.9996 0.610107C13.3596 0.610107 15.6096 1.37011 17.4996 2.81011C17.8296 3.06011 17.8896 3.53011 17.6396 3.86011C17.3896 4.19011 16.9196 4.25011 16.5896 4.00011C14.9596 2.76011 13.0296 2.11011 10.9996 2.11011C8.91962 2.11011 6.94962 2.79011 5.30962 4.07011C5.16962 4.18011 5.00962 4.23011 4.84962 4.23011Z" fill="#101010"/>
<path d="M14.7497 21.3901C14.4497 21.3901 14.1697 21.2101 14.0497 20.9201C13.8997 20.5401 14.0797 20.1001 14.4697 19.9401C16.3997 19.1601 17.9697 17.8001 19.0097 16.0001C20.0297 14.2401 20.4297 12.2401 20.1597 10.2201C20.1097 9.81012 20.3997 9.43012 20.8097 9.38012C21.2097 9.33012 21.5997 9.62012 21.6497 10.0301C21.9497 12.3801 21.4897 14.7101 20.3097 16.7601C19.0997 18.8601 17.2697 20.4401 15.0197 21.3501C14.9397 21.3701 14.8497 21.3901 14.7497 21.3901Z" fill="#101010"/>
</svg>
