<svg width="20" height="20" viewBox="0 0 20 20" fill="none" xmlns="http://www.w3.org/2000/svg">
<path d="M14.1915 0H5.81146C2.17146 0 0.00146484 2.17 0.00146484 5.81V14.18C0.00146484 17.83 2.17146 20 5.81146 20H14.1815C17.8215 20 19.9915 17.83 19.9915 14.19V5.81C20.0015 2.17 17.8315 0 14.1915 0ZM17.0015 6.24C17.0015 6.79 16.5515 7.24 16.0015 7.24H14.0015C13.5915 7.24 13.2515 7.58 13.2515 7.99C13.2515 8.41 13.5915 8.74 14.0015 8.74H16.0015C16.5515 8.74 17.0015 9.19 17.0015 9.74V10.25C17.0015 10.8 16.5515 11.25 16.0015 11.25H14.0015C13.5915 11.25 13.2515 11.59 13.2515 12C13.2515 12.41 13.5915 12.75 14.0015 12.75H16.0015C16.5515 12.75 17.0015 13.2 17.0015 13.75V14C17.0015 15.66 15.6615 17 14.0015 17H6.00146C4.34146 17 3.00146 15.66 3.00146 14V13.5C3.00146 12.95 3.45146 12.5 4.00146 12.5H5.48146C6.95146 12.5 8.12146 11.24 7.97147 9.74C7.84146 8.44 6.65146 7.5 5.34146 7.5H4.00146C3.45146 7.5 3.00146 7.05 3.00146 6.5V6C3.00146 4.34 4.34146 3 6.00146 3H14.0015C15.6615 3 17.0015 4.34 17.0015 6V6.24ZM3.00146 10C3.00146 9.45 3.45146 9 4.00146 9H5.00146C5.55147 9 6.00146 9.45 6.00146 10C6.00146 10.55 5.55147 11 5.00146 11H4.00146C3.45146 11 3.00146 10.55 3.00146 10Z" fill="#101010"/>
</svg>
