<svg width="21" height="20" viewBox="0 0 21 20" fill="none" xmlns="http://www.w3.org/2000/svg">
<path d="M11.252 10.58V12.56C11.252 13.25 10.692 13.81 10.002 13.81C9.31195 13.81 8.75195 13.25 8.75195 12.56V10.58C8.39195 10.36 8.11195 10.04 7.91195 9.65997H1.00195C0.451953 9.65997 0.00195312 10.11 0.00195312 10.66V14.19C0.00195312 17.4 2.60195 20 5.81195 20H14.182C17.402 20 20.002 17.4 20.002 14.19V10.66C20.002 10.11 19.552 9.65997 19.002 9.65997H12.092C11.892 10.04 11.612 10.36 11.252 10.58Z" fill="#101010"/>
<path d="M14.192 0H5.81195C2.60195 0 0.00195312 2.6 0.00195312 5.81V7.16C0.00195312 7.71 0.451953 8.16 1.00195 8.16H7.67195C7.90195 6.84 9.21195 5.9 10.642 6.28C11.442 6.49 12.092 7.14 12.302 7.94C12.322 8.01 12.322 8.09 12.332 8.16H19.002C19.552 8.16 20.002 7.71 20.002 7.16V5.81C20.002 2.6 17.402 0 14.192 0Z" fill="#101010"/>
</svg>
