<svg width="22" height="21" viewBox="0 0 22 21" fill="none" xmlns="http://www.w3.org/2000/svg">
<path d="M17.4797 11.25C17.7597 11.25 17.9997 11.01 17.9797 10.73C17.7097 7.1 14.6897 4.25 10.9997 4.25C7.30972 4.25 4.28972 7.1 4.01972 10.73C3.99972 11.01 4.23972 11.25 4.51972 11.25H17.4797Z" fill="#101010"/>
<path d="M21 12H20.92C20.37 12 19.92 11.55 19.92 11C19.92 10.45 20.37 10 20.92 10C21.47 10 21.96 10.45 21.96 11C21.96 11.55 21.55 12 21 12ZM1.08 12H1C0.45 12 0 11.55 0 11C0 10.45 0.45 10 1 10C1.55 10 2.04 10.45 2.04 11C2.04 11.55 1.63 12 1.08 12ZM18.01 4.99C17.75 4.99 17.5 4.89 17.3 4.7C16.91 4.31 16.91 3.68 17.3 3.29L17.43 3.16C17.82 2.77 18.45 2.77 18.84 3.16C19.23 3.55 19.23 4.18 18.84 4.57L18.71 4.7C18.52 4.89 18.27 4.99 18.01 4.99ZM3.99 4.99C3.73 4.99 3.48 4.89 3.28 4.7L3.15 4.56C2.76 4.17 2.76 3.54 3.15 3.15C3.54 2.76 4.17 2.76 4.56 3.15L4.69 3.28C5.08 3.67 5.08 4.3 4.69 4.69C4.5 4.89 4.24 4.99 3.99 4.99ZM11 2.04C10.45 2.04 10 1.63 10 1.08V1C10 0.45 10.45 0 11 0C11.55 0 12 0.45 12 1C12 1.55 11.55 2.04 11 2.04Z" fill="#101010"/>
<path d="M19 14.75H3C2.59 14.75 2.25 14.41 2.25 14C2.25 13.59 2.59 13.25 3 13.25H19C19.41 13.25 19.75 13.59 19.75 14C19.75 14.41 19.41 14.75 19 14.75Z" fill="#101010"/>
<path d="M17 17.75H5C4.59 17.75 4.25 17.41 4.25 17C4.25 16.59 4.59 16.25 5 16.25H17C17.41 16.25 17.75 16.59 17.75 17C17.75 17.41 17.41 17.75 17 17.75Z" fill="#101010"/>
<path d="M14 20.75H8C7.59 20.75 7.25 20.41 7.25 20C7.25 19.59 7.59 19.25 8 19.25H14C14.41 19.25 14.75 19.59 14.75 20C14.75 20.41 14.41 20.75 14 20.75Z" fill="#101010"/>
</svg>
