<svg width="22" height="18" viewBox="0 0 22 18" fill="none" xmlns="http://www.w3.org/2000/svg">
<path d="M16.8801 3.11998L2.92009 17.08C2.49009 17.51 1.77009 17.47 1.42009 16.98C0.920088 16.29 0.820088 15.33 1.34009 14.5L4.10009 10.07C4.47009 9.47997 4.47009 8.51998 4.10009 7.92998L1.34009 3.49998C0.410088 2.01998 1.48009 0.0999756 3.22009 0.0999756H14.6701C15.3501 0.0999756 16.1901 0.569976 16.5501 1.13998L17.0201 1.87998C17.2601 2.27998 17.2101 2.78998 16.8801 3.11998Z" fill="#101010"/>
<path d="M20.6299 10.11L15.4499 17.01C15.0899 17.5 14.2899 17.9 13.6699 17.9H6.50987C5.61987 17.9 5.16987 16.82 5.79987 16.19L17.3199 4.67999C17.7699 4.22999 18.5399 4.30999 18.8799 4.85999L20.7299 7.82999C21.1299 8.46999 21.0899 9.49999 20.6299 10.11Z" fill="#101010"/>
</svg>
