<svg width="21" height="18" viewBox="0 0 21 18" fill="none" xmlns="http://www.w3.org/2000/svg">
<path d="M16.0002 0.75H9.28018C7.87018 0.75 6.53018 1.34 5.58018 2.39L2.05018 6.27C0.640176 7.82 0.640176 10.18 2.05018 11.73L5.58018 15.61C6.53018 16.65 7.87018 17.25 9.28018 17.25H16.0002C18.7602 17.25 21.0002 15.01 21.0002 12.25V5.75C21.0002 2.99 18.7602 0.75 16.0002 0.75ZM15.5302 10.94C15.8202 11.23 15.8202 11.71 15.5302 12C15.3802 12.15 15.1902 12.22 15.0002 12.22C14.8102 12.22 14.6202 12.15 14.4702 12L12.5302 10.06L10.5902 12C10.4402 12.15 10.2502 12.22 10.0602 12.22C9.87018 12.22 9.68017 12.15 9.53018 12C9.24018 11.71 9.24018 11.23 9.53018 10.94L11.4702 9L9.53018 7.06C9.24018 6.77 9.24018 6.29 9.53018 6C9.82018 5.71 10.3002 5.71 10.5902 6L12.5302 7.94L14.4702 6C14.7602 5.71 15.2402 5.71 15.5302 6C15.8202 6.29 15.8202 6.77 15.5302 7.06L13.5902 9L15.5302 10.94Z" fill="#101010"/>
</svg>
