<svg width="20" height="20" viewBox="0 0 20 20" fill="none" xmlns="http://www.w3.org/2000/svg">
<path d="M17.8319 6.69999L13.3019 2.16999C12.3519 1.21999 11.0419 0.709988 9.70193 0.779988L4.70193 1.01999C2.70193 1.10999 1.11193 2.69999 1.01193 4.68999L0.771928 9.68999C0.711928 11.03 1.21193 12.34 2.16193 13.29L6.69193 17.82C8.55193 19.68 11.5719 19.68 13.4419 17.82L17.8319 13.43C19.7019 11.58 19.7019 8.55999 17.8319 6.69999ZM7.50193 10.38C5.91193 10.38 4.62193 9.08999 4.62193 7.49999C4.62193 5.90999 5.91193 4.61999 7.50193 4.61999C9.09193 4.61999 10.3819 5.90999 10.3819 7.49999C10.3819 9.08999 9.09193 10.38 7.50193 10.38Z" fill="#101010"/>
</svg>
