<svg width="20" height="22" viewBox="0 0 20 22" fill="none" xmlns="http://www.w3.org/2000/svg">
<path d="M14.8291 14.64C15.4991 14.2 16.3791 14.68 16.3791 15.48V16.77C16.3791 18.04 15.3891 19.4 14.1991 19.8L11.0091 20.86C10.4491 21.05 9.53914 21.05 8.98914 20.86L5.79914 19.8C4.59914 19.4 3.61914 18.04 3.61914 16.77V15.47C3.61914 14.68 4.49914 14.2 5.15914 14.63L7.21914 15.97C8.00914 16.5 9.00914 16.76 10.0091 16.76C11.0091 16.76 12.0091 16.5 12.7991 15.97L14.8291 14.64Z" fill="#101010"/>
<path d="M17.9795 5.46006L11.9895 1.53006C10.9095 0.820059 9.12953 0.820059 8.04953 1.53006L2.02953 5.46006C0.0995313 6.71006 0.0995313 9.54006 2.02953 10.8001L3.62953 11.8401L8.04953 14.7201C9.12953 15.4301 10.9095 15.4301 11.9895 14.7201L16.3795 11.8401L17.7495 10.9401V14.0001C17.7495 14.4101 18.0895 14.7501 18.4995 14.7501C18.9095 14.7501 19.2495 14.4101 19.2495 14.0001V9.08006C19.6495 7.79006 19.2395 6.29006 17.9795 5.46006Z" fill="#101010"/>
</svg>
