<svg width="20" height="20" viewBox="0 0 20 20" fill="none" xmlns="http://www.w3.org/2000/svg">
<path d="M15.1917 2.96C15.1917 2.97 15.1917 2.97 15.1917 2.98C14.9417 2.97 14.6917 2.96 14.4217 2.96H6.72168L7.79168 1.9C8.77168 0.91 9.85168 0 11.1017 0C12.3617 0 13.4417 0.91 14.4217 1.9L14.9817 2.46C15.1217 2.59 15.1917 2.77 15.1917 2.96Z" fill="#101010"/>
<path d="M18.8419 11.17C19.2319 11.17 19.5419 10.85 19.5419 10.45V9.57001C19.5419 5.64001 18.3419 4.45001 14.4219 4.45001H8.12191H5.58191C1.66191 4.45001 0.461914 5.65001 0.461914 9.57001V10C0.461914 10.4 0.771914 10.71 1.16191 10.71C2.00191 10.71 2.67191 11.39 2.67191 12.22C2.67191 13.05 2.00191 13.74 1.16191 13.74C0.771914 13.74 0.461914 14.05 0.461914 14.45V14.88C0.461914 18.81 1.66191 20 5.58191 20H8.11191H14.4119C18.3319 20 19.5319 18.8 19.5319 14.88C19.5319 14.49 19.2219 14.17 18.8319 14.17C17.9919 14.17 17.3219 13.5 17.3219 12.67C17.3319 11.84 18.0019 11.17 18.8419 11.17ZM8.82191 16.86C8.82191 17.25 8.50191 17.57 8.11191 17.57C7.72191 17.57 7.40191 17.25 7.40191 16.86V14.18C7.40191 13.79 7.72191 13.47 8.11191 13.47C8.50191 13.47 8.82191 13.79 8.82191 14.18V16.86ZM8.82191 10.27C8.82191 10.66 8.50191 10.98 8.11191 10.98C7.72191 10.98 7.40191 10.66 7.40191 10.27V7.59001C7.40191 7.20001 7.72191 6.88001 8.11191 6.88001C8.50191 6.88001 8.82191 7.20001 8.82191 7.59001V10.27Z" fill="#101010"/>
</svg>
