<svg width="14" height="20" viewBox="0 0 14 20" fill="none" xmlns="http://www.w3.org/2000/svg">
<path d="M12.3905 13.67L8.35047 10H5.64047L1.60047 13.67C0.470466 14.69 0.100466 16.26 0.650466 17.68C1.20047 19.09 2.54047 20 4.05047 20H9.94047C11.4605 20 12.7905 19.09 13.3405 17.68C13.8905 16.26 13.5205 14.69 12.3905 13.67ZM8.82047 16.14H5.18047C4.80047 16.14 4.50047 15.83 4.50047 15.46C4.50047 15.09 4.81047 14.78 5.18047 14.78H8.82047C9.20047 14.78 9.50047 15.09 9.50047 15.46C9.50047 15.83 9.19047 16.14 8.82047 16.14Z" fill="#101010"/>
<path d="M13.3506 2.32C12.8006 0.91 11.4606 0 9.95065 0H4.05065C2.54065 0 1.20065 0.91 0.650649 2.32C0.110649 3.74 0.480649 5.31 1.61065 6.33L5.65065 10H8.36065L12.4006 6.33C13.5206 5.31 13.8906 3.74 13.3506 2.32ZM8.82065 5.23H5.18065C4.80065 5.23 4.50065 4.92 4.50065 4.55C4.50065 4.18 4.81065 3.87 5.18065 3.87H8.82065C9.20065 3.87 9.50065 4.18 9.50065 4.55C9.50065 4.92 9.19065 5.23 8.82065 5.23Z" fill="#101010"/>
</svg>
