<svg width="18" height="20" viewBox="0 0 18 20" fill="none" xmlns="http://www.w3.org/2000/svg">
<path d="M9.00008 2.65002C4.22008 2.65002 0.330078 6.54002 0.330078 11.32C0.330078 16.1 4.22008 20 9.00008 20C13.7801 20 17.6701 16.11 17.6701 11.33C17.6701 6.55002 13.7801 2.65002 9.00008 2.65002ZM9.75008 11C9.75008 11.41 9.41008 11.75 9.00008 11.75C8.59008 11.75 8.25008 11.41 8.25008 11V6.00002C8.25008 5.59002 8.59008 5.25002 9.00008 5.25002C9.41008 5.25002 9.75008 5.59002 9.75008 6.00002V11Z" fill="#101010"/>
<path d="M11.8896 1.45H6.10965C5.70965 1.45 5.38965 1.13 5.38965 0.73C5.38965 0.33 5.70965 0 6.10965 0H11.8896C12.2896 0 12.6096 0.32 12.6096 0.72C12.6096 1.12 12.2896 1.45 11.8896 1.45Z" fill="#101010"/>
</svg>
