<svg width="20" height="18" viewBox="0 0 20 18" fill="none" xmlns="http://www.w3.org/2000/svg">
<path d="M14.65 0.860107H5.35C1.25 0.860107 0 2.11011 0 6.21011V11.7901C0 15.8901 1.25 17.1401 5.35 17.1401H14.65C18.75 17.1401 20 15.8901 20 11.7901V6.21011C20 2.11011 18.75 0.860107 14.65 0.860107ZM16.74 10.1201C16.74 12.3701 15.69 13.4201 13.44 13.4201H11.21C8.96 13.4201 7.91 12.3701 7.91 10.1201V7.89011C7.91 5.64011 8.96 4.59011 11.21 4.59011H13.44C15.69 4.59011 16.74 5.64011 16.74 7.89011V10.1201Z" fill="#101010"/>
</svg>
