<svg width="20" height="18" viewBox="0 0 20 18" fill="none" xmlns="http://www.w3.org/2000/svg">
<path d="M14.65 0.860107H5.35C1.25 0.860107 0 2.11011 0 6.21011V11.7901C0 15.8901 1.25 17.1401 5.35 17.1401H14.65C18.75 17.1401 20 15.8901 20 11.7901V6.21011C20 2.11011 18.75 0.860107 14.65 0.860107ZM12.09 10.1201C12.09 12.3701 11.04 13.4201 8.79 13.4201H6.56C4.31 13.4201 3.26 12.3701 3.26 10.1201V7.89011C3.26 5.64011 4.31 4.59011 6.56 4.59011H8.79C11.04 4.59011 12.09 5.64011 12.09 7.89011V10.1201Z" fill="#101010"/>
</svg>
