<svg width="20" height="20" viewBox="0 0 20 20" fill="none" xmlns="http://www.w3.org/2000/svg">
<path d="M13 13.5C13 17.09 10.09 20 6.5 20C2.91 20 0 17.09 0 13.5C0 9.91 2.91 7 6.5 7C6.67 7 6.85 7.01 7.02 7.02C10.19 7.27 12.73 9.81 12.98 12.98C12.99 13.15 13 13.33 13 13.5Z" fill="#101010"/>
<path d="M20.0001 6.5C20.0001 9.76 17.6001 12.45 14.4801 12.92V12.86C14.1701 8.98 11.0201 5.83 7.11008 5.52H7.08008C7.55008 2.4 10.2401 0 13.5001 0C17.0901 0 20.0001 2.91 20.0001 6.5Z" fill="#101010"/>
<path d="M3.59 0H1C0.45 0 0 0.45 0 1V3.59C0 4.48 1.08 4.93 1.71 4.3L4.3 1.71C4.92 1.08 4.48 0 3.59 0Z" fill="#101010"/>
<path d="M16.4097 20H18.9997C19.5497 20 19.9997 19.55 19.9997 19V16.41C19.9997 15.52 18.9197 15.07 18.2897 15.7L15.6997 18.29C15.0797 18.92 15.5197 20 16.4097 20Z" fill="#101010"/>
</svg>
