<svg width="22" height="22" viewBox="0 0 22 22" fill="none" xmlns="http://www.w3.org/2000/svg">
<path d="M7.93195 1H4.02195C2.00195 1 1.00195 2 1.00195 4.02V7.94C1.00195 10 2.00195 11 4.02195 10.95H7.94195C10.002 11 11.002 10 10.952 7.93V4.02C11.002 2 10.002 1 7.93195 1ZM8.01195 8.76C7.33195 8.76 6.67195 8.5 6.12195 8.04C5.50195 8.49 4.75195 8.76 3.94195 8.76C3.53195 8.76 3.19195 8.42 3.19195 8.01C3.19195 7.6 3.53195 7.26 3.94195 7.26C4.96195 7.26 5.81195 6.56 6.12195 5.6H3.94195C3.53195 5.6 3.19195 5.26 3.19195 4.85C3.19195 4.44 3.53195 4.1 3.94195 4.1H5.23195C5.27195 3.72 5.58195 3.42 5.97195 3.42C6.36195 3.42 6.67195 3.72 6.71195 4.1H6.97195C6.98195 4.1 6.99195 4.1 6.99195 4.1H7.01195H8.00195C8.41195 4.1 8.75195 4.44 8.75195 4.85C8.75195 5.26 8.42195 5.6 8.00195 5.6H7.67195C7.58195 6.08 7.39195 6.53 7.14195 6.94C7.41195 7.14 7.70195 7.26 8.01195 7.26C8.42195 7.26 8.76195 7.6 8.76195 8.01C8.76195 8.42 8.42195 8.76 8.01195 8.76Z" fill="#101010"/>
<path d="M8.00195 21.75C3.73195 21.75 0.251953 18.27 0.251953 14C0.251953 13.59 0.591953 13.25 1.00195 13.25C1.41195 13.25 1.75195 13.59 1.75195 14C1.75195 16.96 3.81195 19.44 6.58195 20.09L6.31195 19.64C6.10195 19.28 6.21195 18.82 6.57195 18.61C6.92195 18.4 7.39195 18.51 7.60195 18.87L8.65195 20.62C8.79195 20.85 8.79195 21.14 8.66195 21.37C8.52195 21.6 8.27195 21.75 8.00195 21.75Z" fill="#101010"/>
<path d="M21.0024 8.75C20.5924 8.75 20.2524 8.41 20.2524 8C20.2524 5.04 18.1924 2.56 15.4224 1.91L15.6924 2.36C15.9024 2.72 15.7924 3.18 15.4324 3.39C15.0824 3.6 14.6124 3.49 14.4024 3.13L13.3524 1.38C13.2124 1.15 13.2124 0.86 13.3424 0.63C13.4824 0.4 13.7324 0.25 14.0024 0.25C18.2724 0.25 21.7524 3.73 21.7524 8C21.7524 8.41 21.4124 8.75 21.0024 8.75Z" fill="#101010"/>
<path d="M15.9218 10.85C13.1218 10.85 10.8418 13.12 10.8418 15.93C10.8418 18.73 13.1118 21.01 15.9218 21.01C18.7218 21.01 21.0018 18.74 21.0018 15.93C21.0018 13.12 18.7318 10.85 15.9218 10.85ZM18.4018 18.34C18.0318 18.52 17.5818 18.38 17.3918 18L17.2218 17.66H14.6318L14.4618 18C14.3318 18.26 14.0618 18.41 13.7918 18.41C13.6818 18.41 13.5618 18.38 13.4618 18.33C13.0918 18.14 12.9418 17.69 13.1218 17.32L15.2618 13.05C15.3918 12.8 15.6518 12.64 15.9318 12.64C16.2118 12.64 16.4718 12.8 16.6018 13.06L18.7418 17.33C18.9218 17.7 18.7718 18.15 18.4018 18.34Z" fill="#101010"/>
<path d="M15.3818 16.16H16.4718L15.9218 15.07L15.3818 16.16Z" fill="#101010"/>
</svg>
