<svg width="16" height="22" viewBox="0 0 16 22" fill="none" xmlns="http://www.w3.org/2000/svg">
<path d="M12.1693 9.05995H3.82934C2.64934 9.05995 2.23934 8.26995 2.92934 7.30995L7.09934 1.46995C7.58934 0.769946 8.40934 0.769946 8.89934 1.46995L13.0693 7.30995C13.7593 8.26995 13.3493 9.05995 12.1693 9.05995Z" fill="#101010"/>
<path d="M13.5896 16.9999H2.4096C0.829601 16.9999 0.289601 15.9499 1.2196 14.6699L5.2096 9.05994H10.7896L14.7796 14.6699C15.7096 15.9499 15.1696 16.9999 13.5896 16.9999Z" fill="#101010"/>
<path d="M8.75 17V21C8.75 21.41 8.41 21.75 8 21.75C7.59 21.75 7.25 21.41 7.25 21V17H8.75Z" fill="#101010"/>
</svg>
