<svg width="20" height="20" viewBox="0 0 20 20" fill="none" xmlns="http://www.w3.org/2000/svg">
<path d="M14.19 0H5.81C2.17 0 0 2.17 0 5.81V14.18C0 17.83 2.17 20 5.81 20H14.18C17.82 20 19.99 17.83 19.99 14.19V5.81C20 2.17 17.83 0 14.19 0ZM14.88 12.33C14.88 12.42 14.86 12.51 14.83 12.6C14.76 12.77 14.62 12.91 14.45 12.98C14.36 13.02 14.27 13.03 14.18 13.03H12.32C11.93 13.03 11.62 12.72 11.62 12.33C11.62 11.94 11.93 11.63 12.32 11.63H12.5L10.39 9.52L9.37 11.04C9.25 11.21 9.07 11.33 8.86 11.35C8.65 11.37 8.45 11.3 8.3 11.15L5.32 8.17C5.05 7.9 5.05 7.46 5.32 7.18C5.59 6.9 6.03 6.91 6.31 7.18L8.69 9.56L9.71 8.04C9.83 7.87 10.01 7.75 10.22 7.73C10.44 7.71 10.63 7.78 10.78 7.93L13.5 10.65V10.47C13.5 10.08 13.81 9.77 14.2 9.77C14.59 9.77 14.9 10.08 14.9 10.47V12.33H14.88Z" fill="#101010"/>
</svg>
