<svg width="20" height="20" viewBox="0 0 20 20" fill="none" xmlns="http://www.w3.org/2000/svg">
<path d="M19.501 13.5C19.781 13.5 20.001 13.72 20.001 14V15C20.001 16.66 18.661 18 17.001 18C17.001 16.35 15.651 15 14.001 15C12.351 15 11.001 16.35 11.001 18H9.00098C9.00098 16.35 7.65098 15 6.00098 15C4.35098 15 3.00098 16.35 3.00098 18C1.34098 18 0.000976562 16.66 0.000976562 15V13C0.000976562 12.45 0.450977 12 1.00098 12H10.501C11.881 12 13.001 10.88 13.001 9.5V4C13.001 3.45 13.451 3 14.001 3H14.841C15.561 3 16.221 3.39 16.581 4.01L17.221 5.13C17.311 5.29 17.191 5.5 17.001 5.5C15.621 5.5 14.501 6.62 14.501 8V11C14.501 12.38 15.621 13.5 17.001 13.5H19.501Z" fill="#101010"/>
<path d="M6.00098 20C7.10555 20 8.00098 19.1046 8.00098 18C8.00098 16.8954 7.10555 16 6.00098 16C4.89641 16 4.00098 16.8954 4.00098 18C4.00098 19.1046 4.89641 20 6.00098 20Z" fill="#101010"/>
<path d="M14.001 20C15.1055 20 16.001 19.1046 16.001 18C16.001 16.8954 15.1055 16 14.001 16C12.8964 16 12.001 16.8954 12.001 18C12.001 19.1046 12.8964 20 14.001 20Z" fill="#101010"/>
<path d="M20.001 10.53V12H17.001C16.451 12 16.001 11.55 16.001 11V8C16.001 7.45 16.451 7 17.001 7H18.291L19.741 9.54C19.911 9.84 20.001 10.18 20.001 10.53Z" fill="#101010"/>
<path d="M11.081 0H3.69098C1.65098 0 0.000976562 1.65 0.000976562 3.69V10.07C0.000976562 10.62 0.450977 11.07 1.00098 11.07H10.151C11.171 11.07 12.001 10.24 12.001 9.22V0.92C12.001 0.41 11.591 0 11.081 0ZM8.07098 5.07L5.98098 7.09C5.83098 7.23 5.64098 7.3 5.46098 7.3C5.27098 7.3 5.08098 7.23 4.94098 7.09L3.93098 6.13C3.63098 5.84 3.62098 5.36 3.91098 5.06C4.19098 4.76 4.67098 4.76 4.97098 5.04L5.46098 5.51L7.03098 3.99C7.33098 3.7 7.80098 3.71 8.09098 4.01C8.38098 4.31 8.37098 4.78 8.07098 5.07Z" fill="#101010"/>
</svg>
