<svg width="20" height="21" viewBox="0 0 20 21" fill="none" xmlns="http://www.w3.org/2000/svg">
<path d="M19.501 14.5C19.781 14.5 20.001 14.72 20.001 15V16C20.001 17.66 18.661 19 17.001 19C17.001 17.35 15.651 16 14.001 16C12.351 16 11.001 17.35 11.001 19H9.00098C9.00098 17.35 7.65098 16 6.00098 16C4.35098 16 3.00098 17.35 3.00098 19C1.34098 19 0.000976562 17.66 0.000976562 16V14C0.000976562 13.45 0.450977 13 1.00098 13H10.501C11.881 13 13.001 11.88 13.001 10.5V5C13.001 4.45 13.451 4 14.001 4H14.841C15.561 4 16.221 4.39 16.581 5.01L17.221 6.13C17.311 6.29 17.191 6.5 17.001 6.5C15.621 6.5 14.501 7.62 14.501 9V12C14.501 13.38 15.621 14.5 17.001 14.5H19.501Z" fill="#101010"/>
<path d="M6.00098 21C7.10555 21 8.00098 20.1046 8.00098 19C8.00098 17.8954 7.10555 17 6.00098 17C4.89641 17 4.00098 17.8954 4.00098 19C4.00098 20.1046 4.89641 21 6.00098 21Z" fill="#101010"/>
<path d="M14.001 21C15.1055 21 16.001 20.1046 16.001 19C16.001 17.8954 15.1055 17 14.001 17C12.8964 17 12.001 17.8954 12.001 19C12.001 20.1046 12.8964 21 14.001 21Z" fill="#101010"/>
<path d="M20.001 11.53V13H17.001C16.451 13 16.001 12.55 16.001 12V9C16.001 8.45 16.451 8 17.001 8H18.291L19.741 10.54C19.911 10.84 20.001 11.18 20.001 11.53Z" fill="#101010"/>
<path d="M11.081 0.97998H3.69098C1.65098 0.97998 0.000976562 2.62998 0.000976562 4.66998V11.06C0.000976562 11.61 0.450977 12.06 1.00098 12.06H10.151C11.171 12.06 12.001 11.23 12.001 10.21V1.89998C12.001 1.38998 11.591 0.97998 11.081 0.97998ZM7.60098 8.09998C7.45098 8.23998 7.26098 8.30998 7.07098 8.30998C6.88098 8.30998 6.69098 8.23998 6.54098 8.09998L6.01098 7.56998L5.46098 8.11998C5.31098 8.26998 5.12098 8.33998 4.93098 8.33998C4.74098 8.33998 4.55098 8.26998 4.40098 8.11998C4.11098 7.82998 4.11098 7.34998 4.40098 7.05998L4.95098 6.50998L4.42098 5.97998C4.13098 5.68998 4.13098 5.20998 4.42098 4.91998C4.72098 4.62998 5.19098 4.62998 5.49098 4.91998L6.01098 5.44998L6.51098 4.93998C6.81098 4.64998 7.28098 4.64998 7.58098 4.93998C7.87098 5.23998 7.87098 5.70998 7.58098 6.00998L7.07098 6.50998L7.60098 7.02998C7.89098 7.32998 7.89098 7.79998 7.60098 8.09998Z" fill="#101010"/>
</svg>
