<svg width="20" height="20" viewBox="0 0 20 20" fill="none" xmlns="http://www.w3.org/2000/svg">
<path d="M14.19 0H5.81C2.17 0 0 2.17 0 5.81V14.18C0 17.83 2.17 20 5.81 20H14.18C17.82 20 19.99 17.83 19.99 14.19V5.81C20 2.17 17.83 0 14.19 0ZM11.92 14.63H7C6.59 14.63 6.25 14.29 6.25 13.88C6.25 13.47 6.59 13.13 7 13.13H11.92C13.2 13.13 14.25 12.09 14.25 10.8C14.25 9.51 13.21 8.47 11.92 8.47H6.85L7.11 8.73C7.4 9.02 7.4 9.5 7.11 9.79C6.96 9.94 6.77 10.01 6.58 10.01C6.39 10.01 6.2 9.94 6.05 9.79L4.48 8.22C4.19 7.93 4.19 7.45 4.48 7.16L6.05 5.59C6.34 5.3 6.82 5.3 7.11 5.59C7.4 5.88 7.4 6.36 7.11 6.65L6.77 6.98H11.92C14.03 6.98 15.75 8.7 15.75 10.81C15.75 12.92 14.03 14.63 11.92 14.63Z" fill="#101010"/>
</svg>
