<svg width="22" height="12" viewBox="0 0 22 12" fill="none" xmlns="http://www.w3.org/2000/svg">
<path d="M16.4502 11.2999C14.7702 11.2999 13.2202 10.5099 12.2102 9.11992C11.9702 8.78992 12.0402 8.31992 12.3702 8.06992C12.7002 7.81992 13.1702 7.89992 13.4202 8.22992C14.1502 9.21992 15.2502 9.78992 16.4502 9.78992C18.5402 9.78992 20.2502 8.08992 20.2502 5.98992C20.2502 3.88992 18.5502 2.18992 16.4502 2.18992C15.0302 2.18992 13.6902 2.94992 12.9602 4.15992L10.3102 8.56992C9.31024 10.2399 7.48023 11.2699 5.54023 11.2699C2.62023 11.2699 0.240234 8.88992 0.240234 5.96992C0.240234 3.04992 2.62023 0.669922 5.54023 0.669922C7.22023 0.669922 8.77023 1.45992 9.78023 2.84992C10.0202 3.17992 9.95023 3.64992 9.62023 3.89992C9.28023 4.14992 8.82023 4.06992 8.57023 3.73992C7.85023 2.76992 6.75023 2.19992 5.55023 2.19992C3.46023 2.19992 1.75023 3.89992 1.75023 5.99992C1.75023 8.09992 3.45023 9.79992 5.55023 9.79992C6.97023 9.79992 8.31023 9.03992 9.04023 7.82992L11.6902 3.41992C12.6902 1.74992 14.5202 0.719922 16.4602 0.719922C19.3802 0.719922 21.7602 3.09992 21.7602 6.01992C21.7602 8.93992 19.3702 11.2999 16.4502 11.2999Z" fill="#101010"/>
<path d="M5.5 8C6.60457 8 7.5 7.10457 7.5 6C7.5 4.89543 6.60457 4 5.5 4C4.39543 4 3.5 4.89543 3.5 6C3.5 7.10457 4.39543 8 5.5 8Z" fill="#101010"/>
<path d="M16.5 8C17.6046 8 18.5 7.10457 18.5 6C18.5 4.89543 17.6046 4 16.5 4C15.3954 4 14.5 4.89543 14.5 6C14.5 7.10457 15.3954 8 16.5 8Z" fill="#101010"/>
</svg>
