<svg width="20" height="20" viewBox="0 0 20 20" fill="none" xmlns="http://www.w3.org/2000/svg">
<path d="M10.0001 15.3501C10.9003 15.3501 11.6301 14.6203 11.6301 13.7201C11.6301 12.8199 10.9003 12.0901 10.0001 12.0901C9.09989 12.0901 8.37012 12.8199 8.37012 13.7201C8.37012 14.6203 9.09989 15.3501 10.0001 15.3501Z" fill="#101010"/>
<path d="M14.65 7.44H5.35C5.27 7.44 5.2 7.44 5.12 7.44V6.28C5.12 3.35 5.95 1.4 10 1.4C14.33 1.4 14.88 3.51 14.88 5.35C14.88 5.74 15.19 6.05 15.58 6.05C15.97 6.05 16.28 5.74 16.28 5.35C16.28 1.8 14.17 0 10 0C4.37 0 3.72 3.58 3.72 6.28V7.53C0.92 7.88 0 9.3 0 12.79V14.65C0 18.75 1.25 20 5.35 20H14.65C18.75 20 20 18.75 20 14.65V12.79C20 8.69 18.75 7.44 14.65 7.44ZM10 16.74C8.33 16.74 6.98 15.38 6.98 13.72C6.98 12.05 8.34 10.7 10 10.7C11.66 10.7 13.02 12.06 13.02 13.72C13.02 15.39 11.67 16.74 10 16.74Z" fill="#101010"/>
</svg>
