<svg width="20" height="20" viewBox="0 0 20 20" fill="none" xmlns="http://www.w3.org/2000/svg">
<path d="M10.0002 12C4.99016 12 0.910156 15.36 0.910156 19.5C0.910156 19.78 1.13016 20 1.41016 20H18.5902C18.8702 20 19.0902 19.78 19.0902 19.5C19.0902 15.36 15.0102 12 10.0002 12Z" fill="#101010"/>
<path d="M13.71 1.66C12.81 0.64 11.47 0 10 0C8.6 0 7.32 0.57 6.41 1.51C5.54 2.41 5 3.65 5 5C5 5.94 5.26 6.82 5.73 7.57C5.98 8 6.3 8.39 6.68 8.71C7.55 9.51 8.71 10 10 10C11.83 10 13.41 9.02 14.28 7.57C14.54 7.14 14.74 6.66 14.85 6.16C14.95 5.79 15 5.4 15 5C15 3.72 14.51 2.55 13.71 1.66ZM11.87 5.92H8.13C7.61 5.92 7.19 5.5 7.19 4.98C7.19 4.46 7.61 4.04 8.13 4.04H11.87C12.39 4.04 12.81 4.46 12.81 4.98C12.81 5.5 12.39 5.92 11.87 5.92Z" fill="#101010"/>
</svg>
