<svg width="20" height="20" viewBox="0 0 20 20" fill="none" xmlns="http://www.w3.org/2000/svg">
<path d="M14.19 0H5.81C2.17 0 0 2.17 0 5.81V14.19C0 17 1.29 18.93 3.56 19.66C4.22 19.89 4.98 20 5.81 20H14.19C15.02 20 15.78 19.89 16.44 19.66C18.71 18.93 20 17 20 14.19V5.81C20 2.17 17.83 0 14.19 0ZM18.5 14.19C18.5 16.33 17.66 17.68 15.97 18.24C15 16.33 12.7 14.97 10 14.97C7.3 14.97 5.01 16.32 4.03 18.24H4.02C2.35 17.7 1.5 16.34 1.5 14.2V5.81C1.5 2.99 2.99 1.5 5.81 1.5H14.19C17.01 1.5 18.5 2.99 18.5 5.81V14.19Z" fill="#101010"/>
<path d="M9.99992 6C8.01992 6 6.41992 7.6 6.41992 9.58C6.41992 11.56 8.01992 13.17 9.99992 13.17C11.9799 13.17 13.5799 11.56 13.5799 9.58C13.5799 7.6 11.9799 6 9.99992 6Z" fill="#101010"/>
</svg>
