<svg width="20" height="20" viewBox="0 0 20 20" fill="none" xmlns="http://www.w3.org/2000/svg">
<path d="M10.0002 12C4.99016 12 0.910156 15.36 0.910156 19.5C0.910156 19.78 1.13016 20 1.41016 20H18.5902C18.8702 20 19.0902 19.78 19.0902 19.5C19.0902 15.36 15.0102 12 10.0002 12Z" fill="#101010"/>
<path d="M14.72 8.35L13.76 7.39C14.26 6.64 14.55 5.74 14.55 4.77C14.55 2.13 12.41 0 9.78 0C7.15 0 5 2.14 5 4.77C5 7.4 7.14 9.54 9.77 9.54C10.74 9.54 11.64 9.25 12.39 8.75L13.35 9.71C13.54 9.9 13.79 9.99 14.03 9.99C14.28 9.99 14.53 9.9 14.71 9.71C15.09 9.34 15.09 8.73 14.72 8.35Z" fill="#101010"/>
</svg>
