<svg width="21" height="21" viewBox="0 0 21 21" fill="none" xmlns="http://www.w3.org/2000/svg">
<path d="M19.97 1.33C19.25 0.51 18.18 0 17 0C15.88 0 14.86 0.46 14.13 1.21C13.71 1.64 13.39 2.16 13.2 2.74C13.07 3.14 13 3.56 13 4C13 4.75 13.21 5.46 13.58 6.06C13.78 6.4 14.04 6.71 14.34 6.97C15.04 7.61 15.97 8 17 8C17.44 8 17.86 7.93 18.25 7.79C19.17 7.5 19.94 6.87 20.42 6.06C20.63 5.72 20.79 5.33 20.88 4.93C20.96 4.63 21 4.32 21 4C21 2.98 20.61 2.04 19.97 1.33ZM18.49 4.73H17.75V5.51C17.75 5.92 17.41 6.26 17 6.26C16.59 6.26 16.25 5.92 16.25 5.51V4.73H15.51C15.1 4.73 14.76 4.39 14.76 3.98C14.76 3.57 15.1 3.23 15.51 3.23H16.25V2.52C16.25 2.11 16.59 1.77 17 1.77C17.41 1.77 17.75 2.11 17.75 2.52V3.23H18.49C18.9 3.23 19.24 3.57 19.24 3.98C19.24 4.39 18.91 4.73 18.49 4.73Z" fill="#101010"/>
<path d="M20 11C20 9.69 19.75 8.43 19.28 7.28C18.97 7.5 18.62 7.67 18.25 7.79C18.14 7.83 18.03 7.86 17.91 7.89C18.29 8.85 18.5 9.9 18.5 11C18.5 13.32 17.56 15.43 16.04 16.97C15.75 16.6 15.38 16.26 14.94 15.97C12.23 14.15 7.79 14.15 5.06 15.97C4.62 16.26 4.26 16.6 3.96 16.97C2.44 15.43 1.5 13.32 1.5 11C1.5 6.31 5.31 2.5 10 2.5C11.09 2.5 12.14 2.71 13.1 3.09C13.13 2.97 13.16 2.86 13.2 2.74C13.32 2.37 13.49 2.03 13.72 1.72C12.57 1.25 11.31 1 10 1C4.49 1 0 5.49 0 11C0 13.9 1.25 16.51 3.23 18.34C3.23 18.35 3.23 18.35 3.22 18.36C3.32 18.46 3.44 18.54 3.54 18.63C3.6 18.68 3.65 18.73 3.71 18.77C3.89 18.92 4.09 19.06 4.28 19.2C4.35 19.25 4.41 19.29 4.48 19.34C4.67 19.47 4.87 19.59 5.08 19.7C5.15 19.74 5.23 19.79 5.3 19.83C5.5 19.94 5.71 20.04 5.93 20.13C6.01 20.17 6.09 20.21 6.17 20.24C6.39 20.33 6.61 20.41 6.83 20.48C6.91 20.51 6.99 20.54 7.07 20.56C7.31 20.63 7.55 20.69 7.79 20.75C7.86 20.77 7.93 20.79 8.01 20.8C8.29 20.86 8.57 20.9 8.86 20.93C8.9 20.93 8.94 20.94 8.98 20.95C9.32 20.98 9.66 21 10 21C10.34 21 10.68 20.98 11.01 20.95C11.05 20.95 11.09 20.94 11.13 20.93C11.42 20.9 11.7 20.86 11.98 20.8C12.05 20.79 12.12 20.76 12.2 20.75C12.44 20.69 12.69 20.64 12.92 20.56C13 20.53 13.08 20.5 13.16 20.48C13.38 20.4 13.61 20.33 13.82 20.24C13.9 20.21 13.98 20.17 14.06 20.13C14.27 20.04 14.48 19.94 14.69 19.83C14.77 19.79 14.84 19.74 14.91 19.7C15.11 19.58 15.31 19.47 15.51 19.34C15.58 19.3 15.64 19.25 15.71 19.2C15.91 19.06 16.1 18.92 16.28 18.77C16.34 18.72 16.39 18.67 16.45 18.63C16.56 18.54 16.67 18.45 16.77 18.36C16.77 18.35 16.77 18.35 16.76 18.34C18.75 16.51 20 13.9 20 11Z" fill="#101010"/>
<path d="M10 5.93005C7.93 5.93005 6.25 7.61005 6.25 9.68005C6.25 11.7101 7.84 13.3601 9.95 13.4201C9.98 13.4201 10.02 13.4201 10.04 13.4201C10.06 13.4201 10.09 13.4201 10.11 13.4201C10.12 13.4201 10.13 13.4201 10.13 13.4201C12.15 13.3501 13.74 11.7101 13.75 9.68005C13.75 7.61005 12.07 5.93005 10 5.93005Z" fill="#101010"/>
</svg>
