<svg width="22" height="20" viewBox="0 0 22 20" fill="none" xmlns="http://www.w3.org/2000/svg">
<path opacity="0.4" d="M16.7405 5.56982C16.7505 5.63982 16.7505 5.71982 16.7405 5.78982C16.7405 5.71982 16.7305 5.64982 16.7305 5.57982L16.7405 5.56982Z" fill="#101010"/>
<path d="M16.2799 4.56L2.82988 18.01C1.42988 17.12 0.879883 15.53 0.879883 14V6C0.879883 2.58 2.20988 1.25 5.62988 1.25H11.6299C14.5199 1.25 15.9099 2.2 16.2799 4.56Z" fill="#101010"/>
<path d="M20.4 0.229883C20.1 -0.0701172 19.61 -0.0701172 19.31 0.229883L0.85 18.6899C0.55 18.9899 0.55 19.4799 0.85 19.7799C1 19.9199 1.2 19.9999 1.39 19.9999C1.59 19.9999 1.78 19.9199 1.93 19.7699L20.4 1.30988C20.7 1.00988 20.7 0.529883 20.4 0.229883Z" fill="#101010"/>
<path d="M21.3802 6.37998V13.62C21.3802 15.05 20.6802 15.62 20.2802 15.83C20.0902 15.93 19.7902 16.04 19.4202 16.04C18.9902 16.04 18.4602 15.9 17.8402 15.46L16.3602 14.42C16.2902 16.63 15.5902 17.89 14.0002 18.42C13.3602 18.65 12.5702 18.75 11.6202 18.75H5.62016C5.38016 18.75 5.15016 18.74 4.91016 18.71L14.0002 9.62998L19.6502 3.97998C19.9102 3.99998 20.1202 4.07998 20.2802 4.16998C20.6802 4.37998 21.3802 4.94998 21.3802 6.37998Z" fill="#101010"/>
</svg>
