<svg width="21" height="21" viewBox="0 0 21 21" fill="none" xmlns="http://www.w3.org/2000/svg">
<path d="M12.7295 3.86V0.5C12.7295 0.22 12.5095 0 12.2295 0H7.76953C7.48953 0 7.26953 0.22 7.26953 0.5V3.86C7.26953 4.14 7.48953 4.36 7.76953 4.36H12.2295C12.5095 4.36 12.7295 4.14 12.7295 3.86Z" fill="#101010"/>
<path d="M5.25047 0.0199655C2.69047 0.179965 0.940467 1.49997 0.290467 3.69997C0.190467 4.02997 0.430467 4.35997 0.770467 4.35997H5.27047C5.55047 4.35997 5.77047 4.13997 5.77047 3.85997V0.519966C5.77047 0.239966 5.53047 -3.44925e-05 5.25047 0.0199655Z" fill="#101010"/>
<path d="M14.7505 0.00995574C17.3105 0.169956 19.0605 1.48996 19.7105 3.68996C19.8105 4.01996 19.5705 4.34996 19.2305 4.34996H14.7305C14.4505 4.34996 14.2305 4.12996 14.2305 3.84996V0.509956C14.2305 0.229956 14.4705 -0.0100443 14.7505 0.00995574Z" fill="#101010"/>
<path d="M20 13.7C20 13.69 19.99 13.68 19.98 13.67C19.94 13.61 19.89 13.55 19.84 13.5C19.83 13.49 19.82 13.47 19.81 13.46C19 12.56 17.81 12 16.5 12C15.24 12 14.09 12.52 13.27 13.36C12.48 14.17 12 15.28 12 16.5C12 17.34 12.24 18.14 12.65 18.82C12.87 19.19 13.15 19.53 13.47 19.81C13.49 19.82 13.5 19.83 13.51 19.84C13.56 19.89 13.61 19.93 13.67 19.98C13.67 19.98 13.67 19.98 13.68 19.98C13.69 19.99 13.7 20 13.71 20C14.46 20.63 15.43 21 16.5 21C18.14 21 19.57 20.12 20.35 18.82C20.58 18.43 20.76 18 20.87 17.55C20.96 17.21 21 16.86 21 16.5C21 15.44 20.63 14.46 20 13.7ZM18.18 17.23H17.25V18.2C17.25 18.61 16.91 18.95 16.5 18.95C16.09 18.95 15.75 18.61 15.75 18.2V17.23H14.82C14.41 17.23 14.07 16.89 14.07 16.48C14.07 16.07 14.41 15.73 14.82 15.73H15.75V14.84C15.75 14.43 16.09 14.09 16.5 14.09C16.91 14.09 17.25 14.43 17.25 14.84V15.73H18.18C18.59 15.73 18.93 16.07 18.93 16.48C18.93 16.89 18.6 17.23 18.18 17.23Z" fill="#101010"/>
<path d="M20 6.35998V10.74C20 11.11 19.61 11.35 19.28 11.18C18.44 10.74 17.48 10.5 16.5 10.5C14.89 10.5 13.32 11.16 12.2 12.31C11.1 13.43 10.5 14.92 10.5 16.5C10.5 17.31 10.82 18.35 11.22 19.22C11.38 19.57 11.14 20 10.75 20H5.81C2.6 20 0 17.4 0 14.19V6.35998C0 6.07998 0.22 5.85999 0.5 5.85999H19.5C19.78 5.85999 20 6.07998 20 6.35998Z" fill="#101010"/>
</svg>
