<svg width="20" height="20" viewBox="0 0 20 20" fill="none" xmlns="http://www.w3.org/2000/svg">
<path d="M12.7295 0H7.26953V4.36H12.7295V0Z" fill="#101010"/>
<path d="M14.2305 0V4.36H19.8705C19.3605 1.61 17.3305 0.01 14.2305 0Z" fill="#101010"/>
<path d="M0 5.85999V14.19C0 17.83 2.17 20 5.81 20H14.19C17.83 20 20 17.83 20 14.19V5.85999H0ZM12.44 14.18L10.36 15.38C9.92 15.63 9.49 15.76 9.09 15.76C8.79 15.76 8.52 15.69 8.27 15.55C7.69 15.22 7.37 14.54 7.37 13.66V11.26C7.37 10.38 7.69 9.69999 8.27 9.36999C8.85 9.02999 9.59 9.08999 10.36 9.53999L12.44 10.74C13.21 11.18 13.63 11.8 13.63 12.47C13.63 13.14 13.2 13.73 12.44 14.18Z" fill="#101010"/>
<path d="M5.76988 0C2.66988 0.01 0.639883 1.61 0.129883 4.36H5.76988V0Z" fill="#101010"/>
</svg>
