<svg width="22" height="18" viewBox="0 0 22 18" fill="none" xmlns="http://www.w3.org/2000/svg">
<path d="M21.5304 10.4199L20.0804 8.96993L21.4804 7.56993C21.7704 7.27993 21.7704 6.79993 21.4804 6.50993C21.1904 6.21993 20.7104 6.21993 20.4204 6.50993L19.0204 7.90993L17.5704 6.45993C17.2804 6.16993 16.8004 6.16993 16.5104 6.45993C16.2204 6.74993 16.2204 7.22993 16.5104 7.51993L17.9604 8.96993L16.4704 10.4599C16.1804 10.7499 16.1804 11.2299 16.4704 11.5199C16.6204 11.6699 16.8104 11.7399 17.0004 11.7399C17.1904 11.7399 17.3804 11.6699 17.5304 11.5199L19.0204 10.0299L20.4704 11.4799C20.6204 11.6299 20.8104 11.6999 21.0004 11.6999C21.1904 11.6999 21.3804 11.6299 21.5304 11.4799C21.8204 11.1899 21.8204 10.7199 21.5304 10.4199Z" fill="#101010"/>
<path d="M13.02 0.779968C11.9 0.159968 10.47 0.319968 9.01 1.22997L6.09 3.05997C5.89 3.17997 5.66 3.24997 5.43 3.24997H4.5H4C1.58 3.24997 0.25 4.57997 0.25 6.99997V11C0.25 13.42 1.58 14.75 4 14.75H4.5H5.43C5.66 14.75 5.89 14.82 6.09 14.94L9.01 16.77C9.89 17.32 10.75 17.59 11.55 17.59C12.07 17.59 12.57 17.47 13.02 17.22C14.13 16.6 14.75 15.31 14.75 13.59V4.40997C14.75 2.68997 14.13 1.39997 13.02 0.779968Z" fill="#101010"/>
</svg>
