<svg width="20" height="18" viewBox="0 0 20 18" fill="none" xmlns="http://www.w3.org/2000/svg">
<path d="M17.3304 13.75C17.1704 13.75 17.0204 13.7 16.8804 13.6C16.5504 13.35 16.4804 12.88 16.7304 12.55C18.3004 10.46 18.3004 7.54003 16.7304 5.45003C16.4804 5.12003 16.5504 4.65003 16.8804 4.40003C17.2104 4.15003 17.6804 4.22003 17.9304 4.55003C19.9004 7.17003 19.9004 10.83 17.9304 13.45C17.7904 13.65 17.5604 13.75 17.3304 13.75Z" fill="#101010"/>
<path d="M13.3501 0.779968C12.2301 0.159968 10.8001 0.319968 9.34008 1.22997L6.42008 3.05997C6.22008 3.17997 5.99008 3.24997 5.76008 3.24997H4.83008H4.33008C1.91008 3.24997 0.580078 4.57997 0.580078 6.99997V11C0.580078 13.42 1.91008 14.75 4.33008 14.75H4.83008H5.76008C5.99008 14.75 6.22008 14.82 6.42008 14.94L9.34008 16.77C10.2201 17.32 11.0801 17.59 11.8801 17.59C12.4001 17.59 12.9001 17.47 13.3501 17.22C14.4601 16.6 15.0801 15.31 15.0801 13.59V4.40997C15.0801 2.68997 14.4601 1.39997 13.3501 0.779968Z" fill="#101010"/>
</svg>
