<svg width="22" height="20" viewBox="0 0 22 20" fill="none" xmlns="http://www.w3.org/2000/svg">
<path d="M17.0003 14.7498C16.8403 14.7498 16.6903 14.6998 16.5503 14.5998C16.2203 14.3498 16.1503 13.8798 16.4003 13.5498C17.6603 11.8698 17.9303 9.63983 17.1203 7.70983C16.9603 7.32983 17.1403 6.88983 17.5203 6.72983C17.9003 6.56983 18.3403 6.74983 18.5003 7.12983C19.5203 9.54983 19.1703 12.3598 17.6003 14.4598C17.4503 14.6498 17.2303 14.7498 17.0003 14.7498Z" fill="#101010"/>
<path d="M18.8304 17.25C18.6704 17.25 18.5204 17.2 18.3804 17.1C18.0504 16.85 17.9804 16.38 18.2304 16.05C20.3704 13.2 20.8404 9.37995 19.4604 6.08995C19.3004 5.70995 19.4804 5.26995 19.8604 5.10995C20.2404 4.94996 20.6804 5.12996 20.8404 5.50996C22.4304 9.28996 21.8904 13.67 19.4304 16.95C19.2904 17.15 19.0604 17.25 18.8304 17.25Z" fill="#101010"/>
<path d="M13.0405 10.9598C13.6705 10.3298 14.7505 10.7798 14.7505 11.6698V14.5998C14.7505 16.3198 14.1305 17.6098 13.0205 18.2298C12.5705 18.4798 12.0705 18.5998 11.5505 18.5998C10.7505 18.5998 9.89047 18.3298 9.01047 17.7798L8.37047 17.3798C7.83047 17.0398 7.74047 16.2798 8.19047 15.8298L13.0405 10.9598Z" fill="#101010"/>
<path d="M20.77 0.229883C20.47 -0.0701172 19.98 -0.0701172 19.68 0.229883L14.73 5.17988C14.67 3.57988 14.07 2.37988 13.01 1.78988C11.89 1.16988 10.46 1.32988 9 2.23988L6.09 4.05988C5.89 4.17988 5.66 4.24988 5.43 4.24988H4.5H4C1.58 4.24988 0.25 5.57988 0.25 7.99988V11.9999C0.25 14.4199 1.58 15.7499 4 15.7499H4.16L1.22 18.6899C0.92 18.9899 0.92 19.4799 1.22 19.7799C1.38 19.9199 1.57 19.9999 1.77 19.9999C1.97 19.9999 2.16 19.9199 2.31 19.7699L20.77 1.30988C21.08 1.00988 21.08 0.529883 20.77 0.229883Z" fill="#101010"/>
</svg>
