<svg width="22" height="18" viewBox="0 0 22 18" fill="none" xmlns="http://www.w3.org/2000/svg">
<path d="M21 8.25H19.75V7C19.75 6.59 19.41 6.25 19 6.25C18.59 6.25 18.25 6.59 18.25 7V8.25H17C16.59 8.25 16.25 8.59 16.25 9C16.25 9.41 16.59 9.75 17 9.75H18.25V11C18.25 11.41 18.59 11.75 19 11.75C19.41 11.75 19.75 11.41 19.75 11V9.75H21C21.41 9.75 21.75 9.41 21.75 9C21.75 8.59 21.41 8.25 21 8.25Z" fill="#101010"/>
<path d="M13.02 0.779968C11.9 0.159968 10.47 0.319968 9.01 1.22997L6.09 3.05997C5.89 3.17997 5.66 3.24997 5.43 3.24997H4.5H4C1.58 3.24997 0.25 4.57997 0.25 6.99997V11C0.25 13.42 1.58 14.75 4 14.75H4.5H5.43C5.66 14.75 5.89 14.82 6.09 14.94L9.01 16.77C9.89 17.32 10.75 17.59 11.55 17.59C12.07 17.59 12.57 17.47 13.02 17.22C14.13 16.6 14.75 15.31 14.75 13.59V4.40997C14.75 2.68997 14.13 1.39997 13.02 0.779968Z" fill="#101010"/>
</svg>
