<svg width="20" height="20" viewBox="0 0 20 20" fill="none" xmlns="http://www.w3.org/2000/svg">
<path d="M9.94215 0.210014L7.53215 5.82001H5.12215C4.72215 5.82001 4.33215 5.85001 3.95215 5.93001L4.95215 3.53001L4.99215 3.44001L5.05215 3.28001C5.08215 3.21001 5.10215 3.15001 5.13215 3.10001C6.29215 0.410014 7.59215 -0.429986 9.94215 0.210014Z" fill="#101010"/>
<path d="M16.7321 6.09002L16.7121 6.08002C16.1121 5.91002 15.5021 5.82002 14.8821 5.82002H8.62207L10.8721 0.590019L10.9021 0.52002C11.0421 0.57002 11.1921 0.64002 11.3421 0.69002L13.5521 1.62002C14.7821 2.13002 15.6421 2.66002 16.1721 3.30002C16.2621 3.42002 16.3421 3.53002 16.4221 3.66002C16.5121 3.80002 16.5821 3.94002 16.6221 4.09002C16.6621 4.18002 16.6921 4.26002 16.7121 4.35002C16.8621 4.86002 16.8721 5.44002 16.7321 6.09002Z" fill="#101010"/>
<path d="M16.2922 7.52001C15.8422 7.39001 15.3722 7.32001 14.8822 7.32001H5.12219C4.44219 7.32001 3.80219 7.45001 3.20219 7.71001C1.46219 8.46001 0.242188 10.19 0.242188 12.2V14.15C0.242188 14.39 0.262187 14.62 0.292187 14.86C0.512187 18.04 2.21219 19.74 5.39219 19.95C5.62219 19.98 5.85219 20 6.10219 20H13.9022C17.6022 20 19.5522 18.24 19.7422 14.74C19.7522 14.55 19.7622 14.35 19.7622 14.15V12.2C19.7622 9.99001 18.2922 8.13001 16.2922 7.52001ZM12.5022 14.19H10.7522V16C10.7522 16.41 10.4122 16.75 10.0022 16.75C9.59219 16.75 9.25219 16.41 9.25219 16V14.19H7.50219C7.09219 14.19 6.75219 13.86 6.75219 13.44C6.75219 13.03 7.09219 12.69 7.50219 12.69H9.25219V11C9.25219 10.59 9.59219 10.25 10.0022 10.25C10.4122 10.25 10.7522 10.59 10.7522 11V12.69H12.5022C12.9122 12.69 13.2522 13.03 13.2522 13.44C13.2522 13.86 12.9122 14.19 12.5022 14.19Z" fill="#101010"/>
</svg>
