<svg width="22" height="21" viewBox="0 0 22 21" fill="none" xmlns="http://www.w3.org/2000/svg">
<path d="M20.502 10.5H18.002C16.902 10.5 16.002 11.4 16.002 12.5C16.002 13.6 16.902 14.5 18.002 14.5H20.502C20.782 14.5 21.002 14.28 21.002 14V11C21.002 10.72 20.782 10.5 20.502 10.5Z" fill="#101010"/>
<path d="M4.00195 13C2.80195 13 1.73195 13.53 1.00195 14.36C0.381953 15.07 0.00195312 15.99 0.00195312 17C0.00195312 17.75 0.211953 18.46 0.581953 19.06C1.27195 20.22 2.54195 21 4.00195 21C5.01195 21 5.93195 20.63 6.63195 20C6.94195 19.74 7.21195 19.42 7.42195 19.06C7.79195 18.46 8.00195 17.75 8.00195 17C8.00195 14.79 6.21195 13 4.00195 13ZM5.60195 18.58C5.45195 18.73 5.26195 18.8 5.07195 18.8C4.88195 18.8 4.69195 18.73 4.54195 18.58L4.01195 18.05L3.46195 18.6C3.31195 18.75 3.12195 18.82 2.93195 18.82C2.74195 18.82 2.55195 18.75 2.40195 18.6C2.11195 18.31 2.11195 17.83 2.40195 17.54L2.95195 16.99L2.42195 16.46C2.13195 16.17 2.13195 15.69 2.42195 15.4C2.71195 15.11 3.19195 15.11 3.48195 15.4L4.01195 15.93L4.51195 15.43C4.80195 15.14 5.28195 15.14 5.57195 15.43C5.86195 15.72 5.86195 16.2 5.57195 16.49L5.07195 16.99L5.60195 17.52C5.89195 17.81 5.89195 18.28 5.60195 18.58Z" fill="#101010"/>
<path d="M15.5322 3.39997C15.8322 3.68997 15.5822 4.13997 15.1622 4.13997L6.88216 4.12997C6.40216 4.12997 6.16216 3.54997 6.50216 3.20997L8.25216 1.44997C9.73216 -0.0200269 12.1222 -0.0200269 13.6022 1.44997L15.4922 3.35997C15.5022 3.36997 15.5222 3.38997 15.5322 3.39997Z" fill="#101010"/>
<path d="M20.8718 16.66C20.2618 18.72 18.5018 20 16.1018 20H9.60182C9.21182 20 8.96182 19.57 9.12182 19.21C9.42182 18.51 9.61182 17.72 9.61182 17C9.61182 13.97 7.14182 11.5 4.11182 11.5C3.35182 11.5 2.61182 11.66 1.93182 11.96C1.56182 12.12 1.11182 11.87 1.11182 11.47V10C1.11182 7.28 2.75182 5.38 5.30182 5.06C5.55182 5.02 5.82182 5 6.10182 5H16.1018C16.3618 5 16.6118 5.01 16.8518 5.05C18.8718 5.28 20.3318 6.51 20.8718 8.34C20.9718 8.67 20.7318 9 20.3918 9H18.1018C15.9318 9 14.2118 10.98 14.6818 13.23C15.0118 14.87 16.5318 16 18.2018 16H20.3918C20.7418 16 20.9718 16.34 20.8718 16.66Z" fill="#101010"/>
</svg>
