<svg width="20" height="20" viewBox="0 0 20 20" fill="none" xmlns="http://www.w3.org/2000/svg">
<path d="M9.94215 0.210014L7.53215 5.82001H5.12215C4.72215 5.82001 4.33215 5.85001 3.95215 5.93001L4.95215 3.53001L4.99215 3.44001L5.05215 3.28001C5.08215 3.21001 5.10215 3.15001 5.13215 3.10001C6.29215 0.410014 7.59215 -0.429986 9.94215 0.210014Z" fill="#101010"/>
<path d="M16.7321 6.09002L16.7121 6.08002C16.1121 5.91002 15.5021 5.82002 14.8821 5.82002H8.62207L10.8721 0.590019L10.9021 0.52002C11.0421 0.57002 11.1921 0.64002 11.3421 0.69002L13.5521 1.62002C14.7821 2.13002 15.6421 2.66002 16.1721 3.30002C16.2621 3.42002 16.3421 3.53002 16.4221 3.66002C16.5121 3.80002 16.5821 3.94002 16.6221 4.09002C16.6621 4.18002 16.6921 4.26002 16.7121 4.35002C16.8621 4.86002 16.8721 5.44002 16.7321 6.09002Z" fill="#101010"/>
<path d="M10.522 15.66H10.772C11.072 15.66 11.322 15.39 11.322 15.06C11.322 14.64 11.202 14.58 10.942 14.48L10.522 14.33V15.66Z" fill="#101010"/>
<path d="M16.2922 7.52001C15.8422 7.39001 15.3722 7.32001 14.8822 7.32001H5.12219C4.44219 7.32001 3.80219 7.45001 3.20219 7.71001C1.46219 8.46001 0.242188 10.19 0.242188 12.2V14.15C0.242188 14.39 0.262187 14.62 0.292187 14.86C0.512187 18.04 2.21219 19.74 5.39219 19.95C5.62219 19.98 5.85219 20 6.10219 20H13.9022C17.6022 20 19.5522 18.24 19.7422 14.74C19.7522 14.55 19.7622 14.35 19.7622 14.15V12.2C19.7622 9.99001 18.2922 8.13001 16.2922 7.52001ZM11.2822 13.5C11.7422 13.66 12.3622 14 12.3622 15.06C12.3622 15.97 11.6522 16.7 10.7722 16.7H10.5222V16.92C10.5222 17.21 10.2922 17.44 10.0022 17.44C9.71219 17.44 9.48219 17.21 9.48219 16.92V16.7H9.39219C8.43219 16.7 7.64219 15.89 7.64219 14.89C7.64219 14.6 7.87219 14.37 8.16219 14.37C8.45219 14.37 8.68219 14.6 8.68219 14.89C8.68219 15.31 9.00219 15.66 9.39219 15.66H9.48219V13.97L8.72219 13.7C8.26219 13.54 7.64219 13.2 7.64219 12.14C7.64219 11.23 8.35219 10.5 9.23219 10.5H9.48219V10.28C9.48219 9.99001 9.71219 9.76001 10.0022 9.76001C10.2922 9.76001 10.5222 9.99001 10.5222 10.28V10.5H10.6122C11.5722 10.5 12.3622 11.31 12.3622 12.31C12.3622 12.6 12.1322 12.83 11.8422 12.83C11.5522 12.83 11.3222 12.6 11.3222 12.31C11.3222 11.89 11.0022 11.54 10.6122 11.54H10.5222V13.23L11.2822 13.5Z" fill="#101010"/>
<path d="M8.68213 12.14C8.68213 12.56 8.80213 12.62 9.06213 12.72L9.48213 12.87V11.54H9.23213C8.92213 11.54 8.68213 11.81 8.68213 12.14Z" fill="#101010"/>
</svg>
