<svg width="21" height="21" viewBox="0 0 21 21" fill="none" xmlns="http://www.w3.org/2000/svg">
<path d="M4 13C1.79 13 0 14.79 0 17C0 17.75 0.21 18.46 0.58 19.06C1.27 20.22 2.54 21 4 21C5.46 21 6.73 20.22 7.42 19.06C7.79 18.46 8 17.75 8 17C8 14.79 6.21 13 4 13ZM5.97 16.67L3.84 18.64C3.7 18.77 3.51 18.84 3.33 18.84C3.14 18.84 2.95 18.77 2.8 18.62L1.81 17.63C1.52 17.34 1.52 16.86 1.81 16.57C2.1 16.28 2.58 16.28 2.87 16.57L3.35 17.05L4.95 15.57C5.25 15.29 5.73 15.31 6.01 15.61C6.29 15.91 6.27 16.39 5.97 16.67Z" fill="#101010"/>
<path d="M20.5 10.5H18C16.9 10.5 16 11.4 16 12.5C16 13.6 16.9 14.5 18 14.5H20.5C20.78 14.5 21 14.28 21 14V11C21 10.72 20.78 10.5 20.5 10.5Z" fill="#101010"/>
<path d="M15.5302 3.40003C15.8302 3.69003 15.5802 4.14003 15.1602 4.14003L6.88021 4.13003C6.40021 4.13003 6.16021 3.55003 6.50021 3.21003L8.25021 1.45003C9.73021 -0.0199659 12.1202 -0.0199659 13.6002 1.45003L15.4902 3.36003C15.5002 3.37003 15.5202 3.39003 15.5302 3.40003Z" fill="#101010"/>
<path d="M20.8699 16.66C20.2599 18.72 18.4999 20 16.0999 20H9.59986C9.20986 20 8.95986 19.57 9.11986 19.21C9.41986 18.51 9.60986 17.72 9.60986 17C9.60986 13.97 7.13986 11.5 4.10986 11.5C3.34986 11.5 2.60986 11.66 1.92986 11.96C1.55986 12.12 1.10986 11.87 1.10986 11.47V10C1.10986 7.28 2.74986 5.38 5.29986 5.06C5.54986 5.02 5.81986 5 6.09986 5H16.0999C16.3599 5 16.6099 5.01 16.8499 5.05C18.8699 5.28 20.3299 6.51 20.8699 8.34C20.9699 8.67 20.7299 9 20.3899 9H18.0999C15.9299 9 14.2099 10.98 14.6799 13.23C15.0099 14.87 16.5299 16 18.1999 16H20.3899C20.7399 16 20.9699 16.34 20.8699 16.66Z" fill="#101010"/>
</svg>
