<svg width="20" height="20" viewBox="0 0 20 20" fill="none" xmlns="http://www.w3.org/2000/svg">
<path d="M17.5099 3.85L11.5699 0.42C10.5999 -0.14 9.39992 -0.14 8.41992 0.42L2.48992 3.85C1.51992 4.41 0.919922 5.45 0.919922 6.58V13.42C0.919922 14.54 1.51992 15.58 2.48992 16.15L8.42992 19.58C9.39992 20.14 10.5999 20.14 11.5799 19.58L17.5199 16.15C18.4899 15.59 19.0899 14.55 19.0899 13.42V6.58C19.0799 5.45 18.4799 4.42 17.5099 3.85ZM9.24992 5.75C9.24992 5.34 9.58992 5 9.99992 5C10.4099 5 10.7499 5.34 10.7499 5.75V11C10.7499 11.41 10.4099 11.75 9.99992 11.75C9.58992 11.75 9.24992 11.41 9.24992 11V5.75ZM10.9199 14.63C10.8699 14.75 10.7999 14.86 10.7099 14.96C10.5199 15.15 10.2699 15.25 9.99992 15.25C9.86992 15.25 9.73992 15.22 9.61992 15.17C9.48992 15.12 9.38992 15.05 9.28992 14.96C9.19992 14.86 9.12992 14.75 9.06992 14.63C9.01992 14.51 8.99992 14.38 8.99992 14.25C8.99992 13.99 9.09992 13.73 9.28992 13.54C9.38992 13.45 9.48992 13.38 9.61992 13.33C9.98992 13.17 10.4299 13.26 10.7099 13.54C10.7999 13.64 10.8699 13.74 10.9199 13.87C10.9699 13.99 10.9999 14.12 10.9999 14.25C10.9999 14.38 10.9699 14.51 10.9199 14.63Z" fill="#101010"/>
</svg>
