<svg width="14" height="20" viewBox="0 0 14 20" fill="none" xmlns="http://www.w3.org/2000/svg">
<path d="M11 1.75H3C2.59 1.75 2.25 1.41 2.25 1C2.25 0.59 2.59 0.25 3 0.25H11C11.41 0.25 11.75 0.59 11.75 1C11.75 1.41 11.41 1.75 11 1.75Z" fill="#101010"/>
<path d="M11 19.75H3C2.59 19.75 2.25 19.41 2.25 19C2.25 18.59 2.59 18.25 3 18.25H11C11.41 18.25 11.75 18.59 11.75 19C11.75 19.41 11.41 19.75 11 19.75Z" fill="#101010"/>
<path d="M10.5 3H3.5C1.17 3 0 4.17 0 6.5V13.5C0 15.83 1.17 17 3.5 17H10.5C12.83 17 14 15.83 14 13.5V6.5C14 4.17 12.83 3 10.5 3ZM9.5 11.25H6.5C6.09 11.25 5.75 10.91 5.75 10.5V7.5C5.75 7.09 6.09 6.75 6.5 6.75C6.91 6.75 7.25 7.09 7.25 7.5V9.75H9.5C9.91 9.75 10.25 10.09 10.25 10.5C10.25 10.91 9.91 11.25 9.5 11.25Z" fill="#101010"/>
</svg>
