<svg width="18" height="20" viewBox="0 0 18 20" fill="none" xmlns="http://www.w3.org/2000/svg">
<path d="M13 0H5C2 0 0 2 0 5V15C0 18 2 20 5 20H13C16 20 18 18 18 15V5C18 2 16 0 13 0ZM14.57 6.48L12.39 9.98C12.33 10.07 12.23 10.14 12.13 10.15C12.11 10.15 12.09 10.15 12.08 10.15C11.99 10.15 11.9 10.12 11.83 10.06C10.22 8.63 7.8 8.63 6.19 10.06C6.11 10.13 6 10.17 5.89 10.15C5.78 10.13 5.68 10.07 5.63 9.98L3.45 6.48C3.33 6.33 3.36 6.13 3.5 6C6.63 3.21 11.36 3.21 14.5 6C14.64 6.13 14.67 6.33 14.57 6.48Z" fill="#101010"/>
</svg>
