<svg width="22" height="18" viewBox="0 0 22 18" fill="none" xmlns="http://www.w3.org/2000/svg">
<path d="M20.9999 10.8501C20.8699 10.8501 20.7399 10.8201 20.6199 10.7401L18.1199 9.24008C16.8199 8.46008 15.1999 8.46008 13.8899 9.24008C12.1099 10.3101 9.89988 10.3101 8.11988 9.24008C6.81988 8.46008 5.19988 8.46008 3.88988 9.24008L1.38988 10.7401C1.02988 10.9501 0.569882 10.8401 0.359882 10.4801C0.149882 10.1301 0.259882 9.66008 0.619882 9.45008L3.11988 7.95008C4.89988 6.88008 7.10988 6.88008 8.88988 7.95008C10.1899 8.73008 11.8099 8.73008 13.1199 7.95008C14.8999 6.88008 17.1099 6.88008 18.8899 7.95008L21.3899 9.45008C21.7499 9.66008 21.8599 10.1201 21.6499 10.4801C21.4999 10.7201 21.2499 10.8501 20.9999 10.8501Z" fill="#101010"/>
<path d="M5.99984 3.85003C4.99984 3.85003 3.99984 3.58003 3.10984 3.05003L0.609841 1.55003C0.259841 1.33003 0.139841 0.870029 0.359841 0.520029C0.569841 0.160029 1.02984 0.0500286 1.38984 0.260029L3.88984 1.76003C5.18984 2.54003 6.80984 2.54003 8.11984 1.76003C9.89984 0.690029 12.1098 0.690029 13.8898 1.76003C15.1898 2.54003 16.8098 2.54003 18.1198 1.76003L20.6198 0.260029C20.9798 0.0500286 21.4398 0.160029 21.6498 0.520029C21.8598 0.870029 21.7498 1.34003 21.3898 1.55003L18.8898 3.05003C17.1098 4.12003 14.8998 4.12003 13.1198 3.05003C11.8198 2.27003 10.1998 2.27003 8.88984 3.05003C7.99984 3.58003 6.99984 3.85003 5.99984 3.85003Z" fill="#101010"/>
<path d="M20.9999 17.8501C20.8699 17.8501 20.7399 17.8201 20.6199 17.7401L18.1199 16.2401C16.8199 15.4601 15.1999 15.4601 13.8899 16.2401C12.1099 17.3101 9.89988 17.3101 8.11988 16.2401C6.81988 15.4601 5.19988 15.4601 3.88988 16.2401L1.38988 17.7401C1.02988 17.9501 0.569882 17.8401 0.359882 17.4801C0.149882 17.1301 0.259882 16.6601 0.619882 16.4501L3.11988 14.9501C4.89988 13.8801 7.10988 13.8801 8.88988 14.9501C10.1899 15.7301 11.8099 15.7301 13.1199 14.9501C14.8999 13.8801 17.1099 13.8801 18.8899 14.9501L21.3899 16.4501C21.7499 16.6601 21.8599 17.1201 21.6499 17.4801C21.4999 17.7201 21.2499 17.8501 20.9999 17.8501Z" fill="#101010"/>
</svg>
