<svg width="22" height="22" viewBox="0 0 22 22" fill="none" xmlns="http://www.w3.org/2000/svg">
<path d="M7 15.75H4.43C1.74 15.75 0.25 14.27 0.25 11.57V4.43C0.25 1.74 1.73 0.25 4.43 0.25H9C11.69 0.25 13.18 1.73 13.18 4.43C13.18 4.84 12.84 5.18 12.43 5.18C12.02 5.18 11.68 4.84 11.68 4.43C11.68 2.55 10.88 1.75 9 1.75H4.43C2.55 1.75 1.75 2.55 1.75 4.43V11.57C1.75 13.45 2.55 14.25 4.43 14.25H7C7.41 14.25 7.75 14.59 7.75 15C7.75 15.41 7.41 15.75 7 15.75Z" fill="#101010"/>
<path d="M17.5703 21.75H13.0003C10.3103 21.75 8.82031 20.27 8.82031 17.57V10.43C8.82031 7.74 10.3003 6.25 13.0003 6.25H17.5703C20.2603 6.25 21.7503 7.73 21.7503 10.43V17.57C21.7503 20.27 20.2703 21.75 17.5703 21.75ZM13.0003 7.75C11.1203 7.75 10.3203 8.55 10.3203 10.43V17.57C10.3203 19.45 11.1203 20.25 13.0003 20.25H17.5703C19.4503 20.25 20.2503 19.45 20.2503 17.57V10.43C20.2503 8.55 19.4503 7.75 17.5703 7.75H13.0003Z" fill="#101010"/>
<path d="M17.1299 14.75H13.8799C13.4699 14.75 13.1299 14.41 13.1299 14C13.1299 13.59 13.4699 13.25 13.8799 13.25H17.1299C17.5399 13.25 17.8799 13.59 17.8799 14C17.8799 14.41 17.5399 14.75 17.1299 14.75Z" fill="#101010"/>
<path d="M15.5 16.38C15.09 16.38 14.75 16.04 14.75 15.63V12.38C14.75 11.97 15.09 11.63 15.5 11.63C15.91 11.63 16.25 11.97 16.25 12.38V15.63C16.25 16.04 15.91 16.38 15.5 16.38Z" fill="#101010"/>
</svg>
