<svg width="22" height="22" viewBox="0 0 22 22" fill="none" xmlns="http://www.w3.org/2000/svg">
<path d="M11.2017 16.38C10.5017 16.38 9.79172 16.11 9.26172 15.58C8.74172 15.06 8.45172 14.37 8.45172 13.64C8.45172 12.91 8.74172 12.21 9.26172 11.7L10.6717 10.29C10.9617 10 11.4417 10 11.7317 10.29C12.0217 10.58 12.0217 11.06 11.7317 11.35L10.3217 12.76C10.0817 13 9.95172 13.31 9.95172 13.64C9.95172 13.97 10.0817 14.29 10.3217 14.52C10.8117 15.01 11.6017 15.01 12.0917 14.52L14.3117 12.3C15.5817 11.03 15.5817 8.97 14.3117 7.7C13.0417 6.43 10.9817 6.43 9.71173 7.7L7.29169 10.12C6.78169 10.63 6.50171 11.3 6.50171 12.01C6.50171 12.72 6.78169 13.4 7.29169 13.9C7.58169 14.19 7.58169 14.67 7.29169 14.96C7.00169 15.25 6.52169 15.25 6.23169 14.96C5.44169 14.17 5.01172 13.12 5.01172 12C5.01172 10.88 5.44169 9.83 6.23169 9.04L8.65173 6.61998C10.5017 4.76998 13.5217 4.76998 15.3717 6.61998C17.2217 8.46998 17.2217 11.49 15.3717 13.34L13.1517 15.56C12.6117 16.11 11.9117 16.38 11.2017 16.38Z" fill="#101010"/>
<path d="M11.002 21.75C5.07195 21.75 0.251953 16.93 0.251953 11C0.251953 5.07 5.07195 0.25 11.002 0.25C16.932 0.25 21.752 5.07 21.752 11C21.752 16.93 16.932 21.75 11.002 21.75ZM11.002 1.75C5.90195 1.75 1.75195 5.9 1.75195 11C1.75195 16.1 5.90195 20.25 11.002 20.25C16.102 20.25 20.252 16.1 20.252 11C20.252 5.9 16.102 1.75 11.002 1.75Z" fill="#101010"/>
</svg>
