<svg width="22" height="14" viewBox="0 0 22 14" fill="none" xmlns="http://www.w3.org/2000/svg">
<path d="M14.9697 13.75C13.2997 13.75 11.6997 13.13 10.4697 12.02C10.3097 11.88 10.2197 11.67 10.2197 11.46C10.2197 11.25 10.3097 11.04 10.4697 10.9C11.5797 9.92 12.2197 8.5 12.2197 7C12.2197 5.5 11.5797 4.08 10.4697 3.1C10.3097 2.96 10.2197 2.76 10.2197 2.54C10.2197 2.33 10.3097 2.12 10.4697 1.98C11.7097 0.86 13.2997 0.25 14.9697 0.25C18.6897 0.25 21.7197 3.28 21.7197 7C21.7197 10.72 18.6997 13.75 14.9697 13.75ZM12.0997 11.39C12.9497 11.95 13.9397 12.25 14.9797 12.25C17.8697 12.25 20.2297 9.89 20.2297 7C20.2297 4.11 17.8697 1.75 14.9797 1.75C13.9497 1.75 12.9497 2.05 12.0997 2.61C13.1397 3.82 13.7297 5.37 13.7297 7C13.7297 8.63 13.1397 10.18 12.0997 11.39Z" fill="#101010"/>
<path d="M6.96973 13.75C3.24973 13.75 0.219727 10.72 0.219727 7C0.219727 3.28 3.24973 0.25 6.96973 0.25C8.63973 0.25 10.2397 0.87 11.4697 1.98C12.8897 3.24 13.7197 5.07 13.7197 7C13.7197 8.93 12.8997 10.75 11.4697 12.02C10.2397 13.13 8.63973 13.75 6.96973 13.75ZM6.96973 1.75C4.07973 1.75 1.71973 4.11 1.71973 7C1.71973 9.89 4.07973 12.25 6.96973 12.25C8.26973 12.25 9.50973 11.77 10.4697 10.9C11.5897 9.91 12.2197 8.49 12.2197 7C12.2197 5.51 11.5797 4.08 10.4697 3.1C9.50973 2.23 8.26973 1.75 6.96973 1.75Z" fill="#101010"/>
</svg>
