<svg width="22" height="22" viewBox="0 0 22 22" fill="none" xmlns="http://www.w3.org/2000/svg">
<path d="M11 21.75C9.21 21.75 7.75 20.29 7.75 18.5V17.75H3.5C2.76 17.75 2.07 17.46 1.55 16.93C1.04 16.43 0.75 15.74 0.75 15C0.75 13.6 1.84 12.4 3.24 12.26C3.29 12.25 3.39 12.25 3.5 12.25H18.5C18.61 12.25 18.71 12.25 18.81 12.27C19.4 12.32 19.99 12.6 20.45 13.07C21.02 13.62 21.31 14.42 21.24 15.24C21.12 16.65 19.87 17.75 18.39 17.75H14.25V18.5C14.25 20.29 12.79 21.75 11 21.75ZM3.5 13.75C3.48 13.75 3.4 13.75 3.38 13.76C2.75 13.82 2.25 14.37 2.25 15C2.25 15.33 2.38 15.64 2.61 15.87C2.85 16.12 3.16 16.25 3.5 16.25H8.5C8.91 16.25 9.25 16.59 9.25 17V18.5C9.25 19.46 10.04 20.25 11 20.25C11.96 20.25 12.75 19.46 12.75 18.5V17C12.75 16.59 13.09 16.25 13.5 16.25H18.39C19.08 16.25 19.69 15.74 19.75 15.11C19.78 14.73 19.65 14.38 19.39 14.12C19.17 13.9 18.91 13.77 18.63 13.75L18.5 13.74H3.5V13.75Z" fill="#101010"/>
<path d="M18.6896 13.76C18.6496 13.76 18.6096 13.76 18.5696 13.75H3.49965C3.28965 13.79 3.03965 13.73 2.87965 13.59C2.70965 13.46 2.57965 13.26 2.56965 13.05L2.07965 4.34C1.97965 3.32 2.31965 2.27 3.02965 1.48C3.73965 0.7 4.74965 0.25 5.80965 0.25H16.1897C17.2497 0.25 18.2596 0.7 18.9696 1.49C19.6696 2.27 20.0196 3.32 19.9196 4.36L19.4396 13.05C19.4296 13.26 19.3296 13.46 19.1596 13.59C19.0296 13.7 18.8596 13.76 18.6896 13.76ZM4.01965 12.25H17.9796L18.4196 4.26C18.4196 4.25 18.4196 4.24 18.4196 4.22C18.4796 3.58 18.2796 2.96 17.8497 2.49C17.4197 2.02 16.8197 1.75 16.1797 1.75H5.80965C5.17965 1.75 4.56965 2.02 4.13965 2.49C3.70965 2.97 3.50965 3.58 3.57965 4.22L4.01965 12.25Z" fill="#101010"/>
<path d="M6.99023 6.75C6.58023 6.75 6.24023 6.41 6.24023 6V1C6.24023 0.59 6.58023 0.25 6.99023 0.25C7.40023 0.25 7.74023 0.59 7.74023 1V6C7.74023 6.41 7.40023 6.75 6.99023 6.75Z" fill="#101010"/>
<path d="M11 3.75C10.59 3.75 10.25 3.41 10.25 3V1C10.25 0.59 10.59 0.25 11 0.25C11.41 0.25 11.75 0.59 11.75 1V3C11.75 3.41 11.41 3.75 11 3.75Z" fill="#101010"/>
</svg>
