<svg width="22" height="22" viewBox="0 0 22 22" fill="none" xmlns="http://www.w3.org/2000/svg">
<path d="M9.42991 17.37C9.27991 17.37 9.13991 17.33 9.00991 17.24C8.79991 17.1 8.67991 16.87 8.67991 16.62C8.67991 16.47 8.66991 16.31 8.64991 16.15C8.55991 15.44 8.23991 14.82 7.69991 14.28C7.15991 13.74 6.48991 13.4 5.76991 13.31C5.64991 13.3 5.47991 13.29 5.31991 13.3C5.05991 13.32 4.81991 13.21 4.66991 13C4.51991 12.8 4.47991 12.53 4.55991 12.29C4.70991 11.88 4.92991 11.51 5.18991 11.21L6.72991 9.27C9.37991 5.96 14.7499 1.98 18.6799 0.399998C19.5099 0.079998 20.3999 0.269998 21.0099 0.869998C21.6399 1.5 21.8299 2.4 21.4999 3.22C19.9199 7.16 15.9499 12.52 12.6399 15.17L10.6699 16.75C10.2999 17.02 9.99991 17.19 9.69991 17.31C9.61991 17.35 9.51991 17.37 9.42991 17.37ZM6.53991 11.94C7.37991 12.16 8.12991 12.6 8.75991 13.23C9.38991 13.85 9.80991 14.57 10.0199 15.37L11.7099 14.01C14.8499 11.5 18.6199 6.41 20.1099 2.67C20.2599 2.3 20.0499 2.04 19.9499 1.95C19.8799 1.88 19.6199 1.66 19.2199 1.81C15.4999 3.31 10.4099 7.08 7.88991 10.22L6.53991 11.94Z" fill="#101010"/>
<path d="M3.08035 21.75C2.33035 21.75 1.61035 21.45 1.07035 20.91C0.450355 20.29 0.150355 19.43 0.250355 18.55L0.520355 16.09C0.780354 13.65 2.78035 11.84 5.26035 11.79C5.45036 11.78 5.70035 11.79 5.93035 11.81C7.02035 11.95 7.99036 12.44 8.77036 13.22C9.54036 13.99 10.0004 14.91 10.1404 15.94C10.1704 16.16 10.1904 16.4 10.1904 16.61C10.1904 17.93 9.68036 19.16 8.76035 20.09C7.99036 20.85 7.00035 21.32 5.88035 21.46L3.41035 21.73C3.30035 21.74 3.19035 21.75 3.08035 21.75ZM5.45035 13.3C5.41035 13.3 5.36035 13.3 5.32035 13.3C3.81035 13.33 2.21035 14.36 2.01035 16.26L1.74035 18.72C1.69035 19.14 1.84035 19.55 2.13035 19.85C2.42035 20.14 2.83035 20.29 3.24035 20.24L5.70035 19.97C6.47035 19.87 7.16036 19.55 7.68036 19.03C8.32036 18.39 8.68036 17.53 8.68036 16.61C8.68036 16.46 8.67035 16.3 8.65035 16.14C8.56035 15.43 8.24035 14.81 7.70035 14.27C7.16035 13.73 6.49035 13.39 5.77035 13.3C5.69035 13.3 5.57035 13.3 5.45035 13.3Z" fill="#101010"/>
<path d="M13.2407 14.22C12.8307 14.22 12.4907 13.88 12.4907 13.47C12.4907 11.27 10.7007 9.49 8.51074 9.49C8.10074 9.49 7.76074 9.15 7.76074 8.74C7.76074 8.33 8.09074 7.99 8.50074 7.99C11.5207 7.99 13.9807 10.45 13.9807 13.47C13.9907 13.89 13.6507 14.22 13.2407 14.22Z" fill="#101010"/>
</svg>
