<svg width="22" height="22" viewBox="0 0 22 22" fill="none" xmlns="http://www.w3.org/2000/svg">
<path d="M13.9697 21.75H7.96973C2.53973 21.75 0.219727 19.43 0.219727 14V8C0.219727 2.57 2.53973 0.25 7.96973 0.25H9.96973C10.3797 0.25 10.7197 0.59 10.7197 1C10.7197 1.41 10.3797 1.75 9.96973 1.75H7.96973C3.35973 1.75 1.71973 3.39 1.71973 8V14C1.71973 18.61 3.35973 20.25 7.96973 20.25H13.9697C18.5797 20.25 20.2197 18.61 20.2197 14V12C20.2197 11.59 20.5597 11.25 20.9697 11.25C21.3797 11.25 21.7197 11.59 21.7197 12V14C21.7197 19.43 19.4097 21.75 13.9697 21.75Z" fill="#101010"/>
<path d="M11.7796 14.24C11.6296 14.24 11.4896 14.2 11.3596 14.11C11.1496 13.97 11.0296 13.74 11.0296 13.49C11.0296 13.38 11.0196 13.26 10.9996 13.14C10.9296 12.61 10.6896 12.14 10.2896 11.73C9.8796 11.32 9.3796 11.06 8.8296 10.99C8.7496 10.98 8.6196 10.97 8.4996 10.98C8.2496 11 7.9996 10.89 7.8496 10.69C7.6996 10.49 7.6596 10.22 7.7396 9.98C7.8596 9.64 8.0496 9.32 8.2696 9.07L9.4996 7.53C11.6396 4.86 15.9496 1.66 19.1296 0.390002C19.8596 0.110002 20.6296 0.270002 21.1596 0.800002C21.7096 1.35 21.8696 2.13 21.5796 2.84C20.3096 6.01 17.1096 10.33 14.4496 12.46L12.8796 13.72C12.5696 13.94 12.3196 14.09 12.0596 14.19C11.9696 14.22 11.8696 14.24 11.7796 14.24ZM9.7196 9.67C10.3296 9.87 10.8796 10.21 11.3496 10.67C11.8096 11.13 12.1396 11.66 12.3296 12.23L13.5096 11.28C15.9996 9.28 18.9996 5.24 20.1896 2.27C20.2696 2.08 20.1796 1.94 20.0996 1.85C20.0496 1.8 19.9096 1.69 19.6796 1.78C16.7196 2.97 12.6796 5.97 10.6796 8.46L9.7196 9.67Z" fill="#101010"/>
<path d="M6.69999 17.75C6.05999 17.75 5.44999 17.5 4.98999 17.04C4.45999 16.51 4.19999 15.78 4.28999 15.03L4.49999 13.07C4.71999 11.04 6.36999 9.54 8.43999 9.5C8.59999 9.49 8.79999 9.5 8.98999 9.51C9.89999 9.63 10.71 10.03 11.35 10.68C11.99 11.32 12.38 12.08 12.49 12.94C12.52 13.13 12.53 13.32 12.53 13.5C12.53 14.59 12.11 15.62 11.34 16.39C10.71 17.02 9.88999 17.41 8.95999 17.53L6.97999 17.74C6.87999 17.75 6.78999 17.75 6.69999 17.75ZM8.59999 10.99C8.56999 10.99 8.52999 10.99 8.49999 10.99C7.34999 11.02 6.13999 11.79 5.98999 13.23L5.77999 15.2C5.74999 15.49 5.84999 15.78 6.04999 15.98C6.24999 16.18 6.52999 16.28 6.80999 16.25L8.77999 16.04C9.35999 15.97 9.87999 15.72 10.27 15.33C10.75 14.84 11.02 14.2 11.02 13.5C11.02 13.39 11.01 13.27 10.99 13.15C10.92 12.62 10.68 12.15 10.28 11.74C9.86999 11.33 9.36999 11.07 8.81999 11C8.76999 10.99 8.68999 10.99 8.59999 10.99Z" fill="#101010"/>
<path d="M14.8193 11.73C14.4093 11.73 14.0693 11.39 14.0693 10.98C14.0693 9.31 12.7093 7.94 11.0293 7.94C10.6193 7.94 10.2793 7.6 10.2793 7.19C10.2793 6.78 10.6193 6.44 11.0293 6.44C13.5293 6.44 15.5693 8.47 15.5693 10.98C15.5693 11.39 15.2393 11.73 14.8193 11.73Z" fill="#101010"/>
</svg>
