<svg width="22" height="22" viewBox="0 0 22 22" fill="none" xmlns="http://www.w3.org/2000/svg">
<path d="M9.35062 17.39C8.67062 17.39 8.02061 17.0799 7.40061 16.4599L4.57063 13.63C3.33062 12.39 3.33062 10.97 4.57063 9.73996L9.29063 5.01999C9.58063 4.72999 10.0606 4.72999 10.3506 5.01999L15.5406 10.21C15.8106 10.48 15.9506 10.8299 15.9506 11.2099C15.9506 11.5899 15.8006 11.9499 15.5406 12.2099L11.2906 16.4599C10.6906 17.0799 10.0306 17.39 9.35062 17.39ZM9.8306 6.59995L5.64063 10.7899C5.32063 11.1099 5.15061 11.41 5.15061 11.68C5.15061 11.94 5.31063 12.2399 5.64063 12.5699L8.47062 15.4C9.12062 16.05 9.59061 16.05 10.2406 15.4L14.4306 11.2099L9.8306 6.59995Z" fill="#101010"/>
<path d="M9.83008 6.29001C9.64008 6.29001 9.45008 6.22004 9.30008 6.07004L8.36008 5.13004C8.07008 4.84004 8.07008 4.36004 8.36008 4.07004C8.65008 3.78004 9.13011 3.78004 9.42011 4.07004L10.3601 5.01004C10.6501 5.30004 10.6501 5.78004 10.3601 6.07004C10.2101 6.22004 10.0201 6.29001 9.83008 6.29001Z" fill="#101010"/>
<path d="M4.44034 12.3901C4.04034 12.3901 3.71034 12.0801 3.69034 11.6701C3.67034 11.2601 3.99034 10.9101 4.41034 10.8901L15.0903 10.4201C15.5003 10.3801 15.8503 10.7201 15.8703 11.1401C15.8903 11.5501 15.5703 11.9001 15.1503 11.9201L4.47034 12.3901C4.46034 12.3901 4.45034 12.3901 4.44034 12.3901Z" fill="#101010"/>
<path d="M16.3002 18.1501C15.1702 18.1501 14.2402 17.23 14.2402 16.09C14.2402 15.01 15.3902 13.6801 15.7402 13.3001C16.0202 12.9901 16.5602 12.9901 16.8402 13.3001C17.1902 13.6801 18.3402 15.02 18.3402 16.09C18.3502 17.23 17.4302 18.1501 16.3002 18.1501ZM16.3002 15.0001C15.9902 15.4401 15.7402 15.88 15.7402 16.09C15.7402 16.39 15.9902 16.6501 16.3002 16.6501C16.6102 16.6501 16.8602 16.4 16.8602 16.09C16.8502 15.88 16.6102 15.4401 16.3002 15.0001Z" fill="#101010"/>
<path d="M14 21.75H8C2.57 21.75 0.25 19.43 0.25 14V8C0.25 2.57 2.57 0.25 8 0.25H14C19.43 0.25 21.75 2.57 21.75 8V14C21.75 19.43 19.43 21.75 14 21.75ZM8 1.75C3.39 1.75 1.75 3.39 1.75 8V14C1.75 18.61 3.39 20.25 8 20.25H14C18.61 20.25 20.25 18.61 20.25 14V8C20.25 3.39 18.61 1.75 14 1.75H8Z" fill="#101010"/>
</svg>
