<svg width="22" height="22" viewBox="0 0 22 22" fill="none" xmlns="http://www.w3.org/2000/svg">
<path d="M8.59998 17.75C6.19998 17.75 4.25 15.8 4.25 13.4C4.25 11.44 5.57002 9.70997 7.46002 9.19997C7.83002 9.09997 8.20998 9.28998 8.34998 9.64998C8.67998 10.48 9.39 11.12 10.25 11.35C10.72 11.48 11.28 11.48 11.75 11.35C12.12 11.25 12.51 11.44 12.65 11.79C12.85 12.3 12.95 12.84 12.95 13.39C12.95 14.63 12.42 15.81 11.5 16.63C10.71 17.35 9.67998 17.75 8.59998 17.75ZM7.28998 10.87C6.35998 11.35 5.75 12.32 5.75 13.4C5.75 14.97 7.02998 16.25 8.59998 16.25C9.29998 16.25 9.98 15.99 10.5 15.52C11.11 14.98 11.45 14.21 11.45 13.4C11.45 13.24 11.44 13.09 11.41 12.93C10.88 12.98 10.34 12.93 9.84998 12.79C8.77998 12.5 7.85998 11.8 7.28998 10.87Z" fill="#101010"/>
<path d="M11.0002 12.95C10.6002 12.95 10.2102 12.9 9.85016 12.8C8.54016 12.44 7.46021 11.47 6.96021 10.21C6.76021 9.70001 6.66016 9.16001 6.66016 8.61001C6.66016 6.21001 8.61019 4.26001 11.0102 4.26001C13.4102 4.26001 15.3602 6.21001 15.3602 8.61001C15.3602 9.16001 15.2602 9.70001 15.0602 10.21C14.5602 11.48 13.4702 12.45 12.1602 12.8C11.7902 12.9 11.4002 12.95 11.0002 12.95ZM11.0002 5.75001C9.43018 5.75001 8.15021 7.03001 8.15021 8.60001C8.15021 8.96001 8.22016 9.32001 8.35016 9.65001C8.68016 10.48 9.39018 11.12 10.2502 11.35C10.7202 11.48 11.2802 11.48 11.7502 11.35C12.6202 11.11 13.3302 10.48 13.6502 9.65001C13.7802 9.32001 13.8502 8.96001 13.8502 8.60001C13.8502 7.03001 12.5702 5.75001 11.0002 5.75001Z" fill="#101010"/>
<path d="M13.4 17.75C12.32 17.75 11.29 17.35 10.5 16.63C10.34 16.49 10.25 16.28 10.25 16.07C10.25 15.86 10.34 15.65 10.5 15.51C11.1 14.98 11.45 14.21 11.45 13.4C11.45 13.04 11.38 12.68 11.25 12.35C11.17 12.15 11.18 11.93 11.28 11.74C11.37 11.55 11.55 11.41 11.75 11.35C12.61 11.11 13.32 10.48 13.65 9.65C13.79 9.3 14.17 9.1 14.54 9.2C16.43 9.71 17.75 11.44 17.75 13.4C17.75 15.8 15.8 17.75 13.4 17.75ZM12.12 15.95C12.51 16.15 12.95 16.25 13.4 16.25C14.97 16.25 16.25 14.97 16.25 13.4C16.25 12.32 15.64 11.35 14.71 10.87C14.27 11.59 13.62 12.17 12.86 12.53C12.92 12.81 12.95 13.1 12.95 13.4C12.95 14.32 12.66 15.21 12.12 15.95Z" fill="#101010"/>
<path d="M14 21.75H8C2.57 21.75 0.25 19.43 0.25 14V8C0.25 2.57 2.57 0.25 8 0.25H14C19.43 0.25 21.75 2.57 21.75 8V14C21.75 19.43 19.43 21.75 14 21.75ZM8 1.75C3.39 1.75 1.75 3.39 1.75 8V14C1.75 18.61 3.39 20.25 8 20.25H14C18.61 20.25 20.25 18.61 20.25 14V8C20.25 3.39 18.61 1.75 14 1.75H8Z" fill="#101010"/>
</svg>
