<svg width="22" height="22" viewBox="0 0 22 22" fill="none" xmlns="http://www.w3.org/2000/svg">
<path d="M7 21.75C3.28 21.75 0.25 18.72 0.25 15C0.25 11.96 2.29 9.28001 5.22 8.49001C5.59 8.39001 5.97 8.58001 6.11 8.94001C6.72 10.47 8.02 11.64 9.61 12.07C10.49 12.31 11.51 12.31 12.37 12.07C12.74 11.97 13.13 12.16 13.27 12.52C13.58 13.31 13.74 14.15 13.74 15.01C13.74 16.93 12.92 18.76 11.49 20.03C10.27 21.13 8.67 21.75 7 21.75ZM5.02 10.13C3.07 10.93 1.75 12.85 1.75 15C1.75 17.89 4.11 20.25 7 20.25C8.3 20.25 9.54 19.77 10.5 18.9C11.62 17.91 12.25 16.49 12.25 15C12.25 14.54 12.19 14.1 12.08 13.67C11.14 13.82 10.12 13.77 9.22 13.52C7.41 13.02 5.89 11.78 5.02 10.13Z" fill="#101010"/>
<path d="M11 13.75C10.38 13.75 9.78 13.67 9.22 13.51C7.19 12.95 5.5 11.45 4.72 9.48C4.41 8.7 4.25 7.86 4.25 7C4.25 3.28 7.28 0.25 11 0.25C14.72 0.25 17.75 3.28 17.75 7C17.75 7.86 17.59 8.7 17.28 9.49C16.5 11.45 14.82 12.96 12.78 13.52C12.22 13.67 11.62 13.75 11 13.75ZM11 1.75C8.11 1.75 5.75 4.11 5.75 7C5.75 7.67 5.87 8.32 6.12 8.93C6.73 10.46 8.03 11.63 9.62 12.06C10.5 12.3 11.52 12.3 12.38 12.06C13.97 11.63 15.28 10.45 15.88 8.93C16.12 8.32 16.25 7.67 16.25 7C16.25 4.11 13.89 1.75 11 1.75Z" fill="#101010"/>
<path d="M15 21.75C13.33 21.75 11.73 21.13 10.5 20.02C10.34 19.88 10.25 19.67 10.25 19.46C10.25 19.25 10.34 19.04 10.5 18.9C11.61 17.92 12.25 16.5 12.25 15C12.25 14.33 12.13 13.68 11.88 13.07C11.8 12.87 11.81 12.65 11.91 12.46C12.01 12.27 12.18 12.13 12.38 12.07C13.97 11.64 15.27 10.47 15.88 8.94001C16.02 8.58001 16.41 8.40001 16.77 8.49001C19.7 9.29001 21.74 11.96 21.74 15C21.75 18.72 18.72 21.75 15 21.75ZM12.12 19.39C12.97 19.95 13.96 20.25 15 20.25C17.89 20.25 20.25 17.89 20.25 15C20.25 12.85 18.93 10.93 16.98 10.13C16.24 11.54 15 12.66 13.52 13.26C13.67 13.82 13.75 14.41 13.75 15C13.75 16.62 13.17 18.18 12.12 19.39Z" fill="#101010"/>
</svg>
