<svg width="22" height="22" viewBox="0 0 22 22" fill="none" xmlns="http://www.w3.org/2000/svg">
<path d="M10.1 21.75H5.9C1.99 21.75 0.25 20.01 0.25 16.1V11.9C0.25 7.99 1.99 6.25 5.9 6.25H10.1C14.01 6.25 15.75 7.99 15.75 11.9V16.1C15.75 20.01 14.01 21.75 10.1 21.75ZM5.9 7.75C2.8 7.75 1.75 8.8 1.75 11.9V16.1C1.75 19.2 2.8 20.25 5.9 20.25H10.1C13.2 20.25 14.25 19.2 14.25 16.1V11.9C14.25 8.8 13.2 7.75 10.1 7.75H5.9Z" fill="#101010"/>
<path d="M16.1 15.75H15C14.59 15.75 14.25 15.41 14.25 15V11.9C14.25 8.8 13.2 7.75 10.1 7.75H7C6.59 7.75 6.25 7.41 6.25 7V5.9C6.25 1.99 7.99 0.25 11.9 0.25H16.1C20.01 0.25 21.75 1.99 21.75 5.9V10.1C21.75 14.01 20.01 15.75 16.1 15.75ZM15.75 14.25H16.1C19.2 14.25 20.25 13.2 20.25 10.1V5.9C20.25 2.8 19.2 1.75 16.1 1.75H11.9C8.8 1.75 7.75 2.8 7.75 5.9V6.25H10.1C14.01 6.25 15.75 7.99 15.75 11.9V14.25Z" fill="#101010"/>
</svg>
