<svg width="22" height="22" viewBox="0 0 22 22" fill="none" xmlns="http://www.w3.org/2000/svg">
<path d="M16.1 0.25H11.9C7.99 0.25 6.25 1.99 6.25 5.9V7C6.25 7.41 6.59 7.75 7 7.75H10.1C13.2 7.75 14.25 8.8 14.25 11.9V15C14.25 15.41 14.59 15.75 15 15.75H16.1C20.01 15.75 21.75 14.01 21.75 10.1V5.9C21.75 1.99 20.01 0.25 16.1 0.25ZM7.75 6.25V5.9C7.75 2.8 8.8 1.75 11.9 1.75H16.1C19.2 1.75 20.25 2.8 20.25 5.9V10.1C20.25 13.2 19.2 14.25 16.1 14.25H15.75V11.9C15.75 7.99 14.01 6.25 10.1 6.25H7.75Z" fill="#101010"/>
<path d="M10.1 6.25H5.9C1.99 6.25 0.25 7.99 0.25 11.9V16.1C0.25 20.01 1.99 21.75 5.9 21.75H10.1C14.01 21.75 15.75 20.01 15.75 16.1V11.9C15.75 7.99 14.01 6.25 10.1 6.25ZM5.9 20.25C2.8 20.25 1.75 19.2 1.75 16.1V11.9C1.75 8.8 2.8 7.75 5.9 7.75H10.1C13.2 7.75 14.25 8.8 14.25 11.9V16.1C14.25 19.2 13.2 20.25 10.1 20.25H5.9Z" fill="#101010"/>
<path d="M7.02953 16.7C6.83953 16.7 6.64953 16.63 6.49953 16.48L4.54953 14.53C4.25953 14.24 4.25953 13.76 4.54953 13.47C4.83953 13.18 5.31953 13.18 5.60953 13.47L7.02953 14.89L10.3895 11.53C10.6795 11.24 11.1595 11.24 11.4495 11.53C11.7395 11.82 11.7395 12.3 11.4495 12.59L7.54953 16.48C7.40953 16.62 7.21953 16.7 7.02953 16.7Z" fill="#101010"/>
</svg>
