<svg width="20" height="18" viewBox="0 0 20 18" fill="none" xmlns="http://www.w3.org/2000/svg">
<path d="M19.002 2.25H12.002C11.592 2.25 11.252 1.91 11.252 1.5C11.252 1.09 11.592 0.75 12.002 0.75H19.002C19.412 0.75 19.752 1.09 19.752 1.5C19.752 1.91 19.412 2.25 19.002 2.25Z" fill="#101010"/>
<path d="M19.002 7.25H12.002C11.592 7.25 11.252 6.91 11.252 6.5C11.252 6.09 11.592 5.75 12.002 5.75H19.002C19.412 5.75 19.752 6.09 19.752 6.5C19.752 6.91 19.412 7.25 19.002 7.25Z" fill="#101010"/>
<path d="M19.002 12.25H1.00195C0.591953 12.25 0.251953 11.91 0.251953 11.5C0.251953 11.09 0.591953 10.75 1.00195 10.75H19.002C19.412 10.75 19.752 11.09 19.752 11.5C19.752 11.91 19.412 12.25 19.002 12.25Z" fill="#101010"/>
<path d="M19.002 17.25H1.00195C0.591953 17.25 0.251953 16.91 0.251953 16.5C0.251953 16.09 0.591953 15.75 1.00195 15.75H19.002C19.412 15.75 19.752 16.09 19.752 16.5C19.752 16.91 19.412 17.25 19.002 17.25Z" fill="#101010"/>
<path d="M5.92195 7.75H3.08195C1.54195 7.75 0.751953 6.97 0.751953 5.42V2.58C0.751953 1.04 1.53195 0.25 3.08195 0.25H5.93195C7.47195 0.25 8.26195 1.03 8.26195 2.58V5.43C8.25195 6.97 7.47195 7.75 5.92195 7.75ZM3.08195 1.75C2.37195 1.75 2.25195 1.87 2.25195 2.58V5.43C2.25195 6.14 2.37195 6.26 3.08195 6.26H5.93195C6.64195 6.26 6.76195 6.14 6.76195 5.43V2.58C6.76195 1.87 6.64195 1.75 5.93195 1.75H3.08195Z" fill="#101010"/>
</svg>
