<svg width="22" height="22" viewBox="0 0 22 22" fill="none" xmlns="http://www.w3.org/2000/svg">
<path d="M15.9917 8.70996H6.01172C5.60172 8.70996 5.26172 8.36996 5.26172 7.95996C5.26172 7.54996 5.60172 7.20996 6.01172 7.20996H15.9917C16.4017 7.20996 16.7417 7.54996 16.7417 7.95996C16.7417 8.36996 16.4017 8.70996 15.9917 8.70996Z" fill="#101010"/>
<path d="M11.002 8.71002C10.592 8.71002 10.252 8.37002 10.252 7.96002V6.28003C10.252 5.87003 10.592 5.53003 11.002 5.53003C11.412 5.53003 11.752 5.87003 11.752 6.28003V7.96002C11.752 8.37002 11.412 8.71002 11.002 8.71002Z" fill="#101010"/>
<path d="M6.00195 16.4699C5.59195 16.4699 5.25195 16.1299 5.25195 15.7199C5.25195 15.3099 5.59195 14.9699 6.00195 14.9699C9.72195 14.9699 12.752 11.8199 12.752 7.93994C12.752 7.52994 13.092 7.18994 13.502 7.18994C13.912 7.18994 14.252 7.52994 14.252 7.93994C14.252 12.6499 10.552 16.4699 6.00195 16.4699Z" fill="#101010"/>
<path d="M16.0022 16.47C14.0322 16.47 12.2022 15.49 10.8622 13.7C10.6122 13.37 10.6822 12.9 11.0122 12.65C11.3422 12.4 11.8122 12.47 12.0622 12.8C13.1222 14.2 14.5222 14.97 16.0122 14.97C16.4222 14.97 16.7622 15.31 16.7622 15.72C16.7622 16.13 16.4122 16.47 16.0022 16.47Z" fill="#101010"/>
<path d="M11.002 21.75C5.07195 21.75 0.251953 16.93 0.251953 11C0.251953 5.07 5.07195 0.25 11.002 0.25C16.932 0.25 21.752 5.07 21.752 11C21.752 16.93 16.932 21.75 11.002 21.75ZM11.002 1.75C5.90195 1.75 1.75195 5.9 1.75195 11C1.75195 16.1 5.90195 20.25 11.002 20.25C16.102 20.25 20.252 16.1 20.252 11C20.252 5.9 16.102 1.75 11.002 1.75Z" fill="#101010"/>
</svg>
