<svg width="22" height="22" viewBox="0 0 22 22" fill="none" xmlns="http://www.w3.org/2000/svg">
<path d="M10.9697 21.75C5.04973 21.75 0.219727 16.93 0.219727 11C0.219727 5.07 5.04973 0.25 10.9697 0.25C16.8897 0.25 21.7197 5.07 21.7197 11C21.7197 16.93 16.8997 21.75 10.9697 21.75ZM10.9697 1.75C5.86973 1.75 1.71973 5.9 1.71973 11C1.71973 16.1 5.86973 20.25 10.9697 20.25C16.0697 20.25 20.2197 16.1 20.2197 11C20.2197 5.9 16.0697 1.75 10.9697 1.75Z" fill="#101010"/>
<path d="M11 16.25C8.1 16.25 5.75 13.89 5.75 11C5.75 8.11 8.1 5.75 11 5.75C13.9 5.75 16.25 8.11 16.25 11C16.25 13.89 13.9 16.25 11 16.25ZM11 7.25C8.93 7.25 7.25 8.93 7.25 11C7.25 13.07 8.93 14.75 11 14.75C13.07 14.75 14.75 13.07 14.75 11C14.75 8.93 13.07 7.25 11 7.25Z" fill="#101010"/>
<path d="M7.43984 8.21C7.24984 8.21 7.04984 8.14 6.90984 8L3.36984 4.46C3.07984 4.17 3.07984 3.69 3.36984 3.4C3.65984 3.11 4.13984 3.11 4.42984 3.4L7.96984 6.94C8.25984 7.23 8.25984 7.7 7.96984 8C7.81984 8.14 7.62984 8.21 7.43984 8.21Z" fill="#101010"/>
<path d="M3.89984 18.82C3.70984 18.82 3.51984 18.75 3.36984 18.6C3.07984 18.31 3.07984 17.83 3.36984 17.54L6.90984 14C7.19984 13.71 7.67984 13.71 7.96984 14C8.25984 14.29 8.25984 14.77 7.96984 15.06L4.42984 18.6C4.28984 18.75 4.08984 18.82 3.89984 18.82Z" fill="#101010"/>
<path d="M18.0395 18.82C17.8495 18.82 17.6595 18.75 17.5095 18.6L13.9695 15.06C13.6795 14.77 13.6795 14.29 13.9695 14C14.2595 13.71 14.7395 13.71 15.0295 14L18.5695 17.54C18.8595 17.83 18.8595 18.31 18.5695 18.6C18.4295 18.75 18.2395 18.82 18.0395 18.82Z" fill="#101010"/>
<path d="M14.5102 8.21C14.3202 8.21 14.1302 8.14 13.9802 7.99C13.6902 7.7 13.6902 7.22 13.9802 6.93L17.5202 3.39C17.8102 3.1 18.2902 3.1 18.5802 3.39C18.8702 3.68 18.8702 4.16 18.5802 4.45L15.0402 8C14.8902 8.14 14.7002 8.21 14.5102 8.21Z" fill="#101010"/>
</svg>
