<svg width="22" height="14" viewBox="0 0 22 14" fill="none" xmlns="http://www.w3.org/2000/svg">
<path d="M6.75195 13.5C3.17195 13.5 0.251953 10.58 0.251953 7C0.251953 3.42 3.17195 0.5 6.75195 0.5C7.16195 0.5 7.50195 0.84 7.50195 1.25C7.50195 1.66 7.16195 2 6.75195 2C3.99195 2 1.75195 4.24 1.75195 7C1.75195 9.76 3.99195 12 6.75195 12C9.51195 12 11.752 9.76 11.752 7C11.752 6.59 12.092 6.25 12.502 6.25C12.912 6.25 13.252 6.59 13.252 7C13.252 10.58 10.332 13.5 6.75195 13.5Z" fill="#101010"/>
<path d="M15.002 13.75C14.592 13.75 14.252 13.41 14.252 13C14.252 12.59 14.592 12.25 15.002 12.25C17.892 12.25 20.252 9.89 20.252 7C20.252 4.11 17.892 1.75 15.002 1.75C12.112 1.75 9.75195 4.11 9.75195 7C9.75195 7.41 9.41195 7.75 9.00195 7.75C8.59195 7.75 8.25195 7.41 8.25195 7C8.25195 3.28 11.282 0.25 15.002 0.25C18.722 0.25 21.752 3.28 21.752 7C21.752 10.72 18.722 13.75 15.002 13.75Z" fill="#101010"/>
</svg>
