<svg width="22" height="22" viewBox="0 0 22 22" fill="none" xmlns="http://www.w3.org/2000/svg">
<path d="M6.94169 14.26C6.85169 14.26 6.77168 14.25 6.68168 14.21C5.87168 13.91 5.19168 13.32 4.76168 12.55C3.76168 10.75 4.3817 8.39998 6.1317 7.30998L8.47169 5.85997C9.33169 5.32997 10.3417 5.17 11.3017 5.42C12.2617 5.67 13.0717 6.29998 13.5617 7.17998C14.5617 8.97998 13.9417 11.33 12.1917 12.42L11.9317 12.61C11.5917 12.85 11.1217 12.77 10.8817 12.44C10.6417 12.1 10.7217 11.63 11.0517 11.39L11.3617 11.17C12.4817 10.47 12.8617 9.01999 12.2517 7.90999C11.9617 7.38999 11.4917 7.01998 10.9317 6.86998C10.3717 6.71998 9.78169 6.81999 9.27169 7.12999L6.93168 8.57997C5.85168 9.24997 5.47169 10.7 6.08169 11.82C6.33169 12.27 6.7317 12.62 7.2117 12.8C7.6017 12.94 7.80168 13.37 7.65168 13.76C7.54168 14.07 7.25169 14.26 6.94169 14.26Z" fill="#101010"/>
<path d="M11.6619 16.65C11.3619 16.65 11.0519 16.61 10.7519 16.53C9.79192 16.28 8.98192 15.65 8.50192 14.77C7.50192 12.97 8.12192 10.62 9.87192 9.52999L10.1319 9.33999C10.4719 9.09999 10.9419 9.18 11.1819 9.51C11.4219 9.85 11.3419 10.32 11.0119 10.56L10.7019 10.78C9.58192 11.48 9.20192 12.93 9.81192 14.04C10.1019 14.56 10.5719 14.93 11.1319 15.08C11.6919 15.23 12.2819 15.13 12.7919 14.82L15.1319 13.37C16.2119 12.7 16.5919 11.25 15.9819 10.13C15.7319 9.67999 15.3319 9.32998 14.8519 9.14998C14.4619 9.00998 14.2619 8.57999 14.4119 8.18999C14.5519 7.79999 14.9819 7.59999 15.3719 7.74999C16.1819 8.04999 16.8619 8.63999 17.2919 9.40999C18.2919 11.21 17.6719 13.56 15.9219 14.65L13.5819 16.1C12.9919 16.46 12.3319 16.65 11.6619 16.65Z" fill="#101010"/>
<path d="M11.002 21.75C5.07195 21.75 0.251953 16.93 0.251953 11C0.251953 5.07 5.07195 0.25 11.002 0.25C16.932 0.25 21.752 5.07 21.752 11C21.752 16.93 16.932 21.75 11.002 21.75ZM11.002 1.75C5.90195 1.75 1.75195 5.9 1.75195 11C1.75195 16.1 5.90195 20.25 11.002 20.25C16.102 20.25 20.252 16.1 20.252 11C20.252 5.9 16.102 1.75 11.002 1.75Z" fill="#101010"/>
</svg>
