<svg width="22" height="14" viewBox="0 0 22 14" fill="none" xmlns="http://www.w3.org/2000/svg">
<path d="M15.5022 13.25H13.9922C13.5822 13.25 13.2422 12.91 13.2422 12.5C13.2422 12.09 13.5822 11.75 13.9922 11.75H15.5022C18.1222 11.75 20.2522 9.62 20.2522 7C20.2522 4.38 18.1222 2.25 15.5022 2.25H14.0022C13.5922 2.25 13.2522 1.91 13.2522 1.5C13.2522 1.09 13.5822 0.75 14.0022 0.75H15.5022C18.9522 0.75 21.7522 3.55 21.7522 7C21.7522 10.45 18.9522 13.25 15.5022 13.25Z" fill="#101010"/>
<path d="M8.00195 13.25H6.50195C3.05195 13.25 0.251953 10.45 0.251953 7C0.251953 3.55 3.05195 0.75 6.50195 0.75H8.00195C8.41195 0.75 8.75195 1.09 8.75195 1.5C8.75195 1.91 8.41195 2.25 8.00195 2.25H6.50195C3.88195 2.25 1.75195 4.38 1.75195 7C1.75195 9.62 3.88195 11.75 6.50195 11.75H8.00195C8.41195 11.75 8.75195 12.09 8.75195 12.5C8.75195 12.91 8.41195 13.25 8.00195 13.25Z" fill="#101010"/>
<path d="M15.002 7.75H7.00195C6.59195 7.75 6.25195 7.41 6.25195 7C6.25195 6.59 6.59195 6.25 7.00195 6.25H15.002C15.412 6.25 15.752 6.59 15.752 7C15.752 7.41 15.412 7.75 15.002 7.75Z" fill="#101010"/>
</svg>
