<svg width="20" height="21" viewBox="0 0 20 21" fill="none" xmlns="http://www.w3.org/2000/svg">
<path d="M2.99988 20.87C2.25988 20.87 1.52988 20.59 0.969883 20.03C0.429883 19.49 0.129883 18.77 0.129883 18C0.129883 17.23 0.429883 16.51 0.969883 15.97L13.9699 2.97C15.0899 1.85 16.9099 1.85 18.0299 2.97C18.5699 3.51 18.8699 4.23 18.8699 5C18.8699 5.77 18.5699 6.49 18.0299 7.03L5.02988 20.03C4.46988 20.59 3.73988 20.87 2.99988 20.87ZM15.9999 3.63C15.6499 3.63 15.2999 3.76 15.0299 4.03L2.02988 17.03C1.76988 17.29 1.62988 17.63 1.62988 18C1.62988 18.37 1.76988 18.71 2.02988 18.97C2.55988 19.5 3.43988 19.5 3.96988 18.97L16.9699 5.97C17.2299 5.71 17.3699 5.37 17.3699 5C17.3699 4.63 17.2299 4.29 16.9699 4.03C16.6999 3.76 16.3499 3.63 15.9999 3.63Z" fill="#101010"/>
<path d="M16.0102 8.74C15.8202 8.74 15.6302 8.67 15.4802 8.52L12.4802 5.52C12.1902 5.23 12.1902 4.75 12.4802 4.46C12.7702 4.17 13.2502 4.17 13.5402 4.46L16.5402 7.46C16.8302 7.75 16.8302 8.23 16.5402 8.52C16.3902 8.67 16.2002 8.74 16.0102 8.74Z" fill="#101010"/>
<path d="M8.00005 4.5C7.95005 4.5 7.91005 4.49 7.86005 4.48L6.50005 4.08L5.14005 4.48C4.96005 4.53 4.77005 4.48 4.65005 4.35C4.52005 4.22 4.47005 4.04 4.52005 3.86L4.92005 2.5L4.52005 1.14C4.47005 0.959998 4.52005 0.769998 4.65005 0.649998C4.78005 0.519998 4.97005 0.469998 5.14005 0.519998L6.50005 0.919998L7.86005 0.519998C8.04005 0.469998 8.22005 0.519998 8.35005 0.649998C8.48005 0.779998 8.53005 0.969998 8.48005 1.14L8.08005 2.5L8.48005 3.86C8.53005 4.04 8.48005 4.23 8.35005 4.35C8.26005 4.45 8.13005 4.5 8.00005 4.5ZM6.50005 3.06C6.55005 3.06 6.59005 3.07 6.64005 3.08L7.26005 3.26L7.08005 2.64C7.05005 2.55 7.05005 2.45 7.08005 2.36L7.26005 1.74L6.64005 1.92C6.55005 1.95 6.45005 1.95 6.36005 1.92L5.74005 1.74L5.92005 2.36C5.95005 2.45 5.95005 2.55 5.92005 2.64L5.74005 3.26L6.36005 3.08C6.41005 3.07 6.45005 3.06 6.50005 3.06Z" fill="#101010"/>
<path d="M4.00005 10.5C3.95005 10.5 3.91005 10.49 3.86005 10.48L2.50005 10.08L1.14005 10.48C0.960051 10.53 0.780051 10.48 0.650052 10.35C0.520052 10.22 0.470051 10.03 0.520051 9.86L0.920051 8.5L0.520051 7.14C0.470051 6.96 0.520052 6.77 0.650052 6.65C0.780051 6.53 0.970051 6.47 1.14005 6.52L2.50005 6.92L3.86005 6.52C4.03005 6.47 4.22005 6.52 4.35005 6.65C4.48005 6.78 4.53005 6.97 4.48005 7.14L4.08005 8.5L4.48005 9.86C4.53005 10.04 4.48005 10.23 4.35005 10.35C4.26005 10.45 4.13005 10.5 4.00005 10.5ZM2.50005 9.06C2.55005 9.06 2.59005 9.07 2.64005 9.08L3.26005 9.26L3.08005 8.64C3.05005 8.55 3.05005 8.45 3.08005 8.36L3.26005 7.74L2.64005 7.92C2.55005 7.95 2.45005 7.95 2.36005 7.92L1.74005 7.74L1.92005 8.36C1.95005 8.45 1.95005 8.55 1.92005 8.64L1.74005 9.26L2.36005 9.08C2.41005 9.07 2.45005 9.06 2.50005 9.06Z" fill="#101010"/>
<path d="M19.0001 15.5C18.9501 15.5 18.9101 15.49 18.8601 15.48L17.5001 15.08L16.1401 15.48C15.9601 15.53 15.7801 15.48 15.6501 15.35C15.5201 15.22 15.4701 15.03 15.5201 14.86L15.9201 13.5L15.5201 12.14C15.4701 11.96 15.5201 11.77 15.6501 11.65C15.7801 11.53 15.9701 11.47 16.1401 11.52L17.5001 11.92L18.8601 11.52C19.0301 11.47 19.2201 11.52 19.3501 11.65C19.4801 11.78 19.5301 11.97 19.4801 12.14L19.0801 13.5L19.4801 14.86C19.5301 15.04 19.4801 15.23 19.3501 15.35C19.2601 15.45 19.1301 15.5 19.0001 15.5ZM17.5001 14.06C17.5501 14.06 17.5901 14.07 17.6401 14.08L18.2601 14.26L18.0801 13.64C18.0501 13.55 18.0501 13.45 18.0801 13.36L18.2601 12.74L17.6401 12.92C17.5501 12.95 17.4501 12.95 17.3601 12.92L16.7401 12.74L16.9201 13.36C16.9501 13.45 16.9501 13.55 16.9201 13.64L16.7401 14.26L17.3601 14.08C17.4101 14.07 17.4501 14.06 17.5001 14.06Z" fill="#101010"/>
</svg>
