<svg width="22" height="22" viewBox="0 0 22 22" fill="none" xmlns="http://www.w3.org/2000/svg">
<path d="M11 21.75C5.07 21.75 0.25 16.93 0.25 11C0.25 5.07 5.07 0.25 11 0.25C16.93 0.25 21.75 5.07 21.75 11C21.75 16.93 16.93 21.75 11 21.75ZM11 1.75C5.9 1.75 1.75 5.9 1.75 11C1.75 16.1 5.9 20.25 11 20.25C16.1 20.25 20.25 16.1 20.25 11C20.25 5.9 16.1 1.75 11 1.75Z" fill="#101010"/>
<path d="M16 16.25H12.9C12.6 16.25 12.33 16.08 12.21 15.8C12.09 15.52 12.14 15.21 12.34 14.99L13.96 13.2C14.63 12.45 15.01 11.5 15.01 10.52C15.01 9.52002 14.6 8.58 13.85 7.87C13.1 7.16 12.06 6.75 11 6.75C9.94 6.75 8.90002 7.16 8.15002 7.87C7.40002 8.58 6.98999 9.52002 6.98999 10.52C6.98999 11.5 7.35998 12.45 8.03998 13.2L9.65997 14.99C9.85997 15.21 9.90998 15.53 9.78998 15.8C9.66998 16.07 9.39998 16.25 9.09998 16.25H6C5.59 16.25 5.25 15.91 5.25 15.5C5.25 15.09 5.59 14.75 6 14.75H7.40997L6.91998 14.21C5.99998 13.19 5.48999 11.88 5.48999 10.52C5.48999 9.13002 6.08 7.76003 7.12 6.78003C8.16 5.79003 9.54 5.25 11 5.25C12.46 5.25 13.84 5.79003 14.88 6.78003C15.91 7.76003 16.51 9.13002 16.51 10.52C16.51 11.87 16 13.18 15.08 14.21L14.59 14.75H16C16.41 14.75 16.75 15.09 16.75 15.5C16.75 15.91 16.41 16.25 16 16.25Z" fill="#101010"/>
</svg>
