<svg width="16" height="21" viewBox="0 0 16 21" fill="none" xmlns="http://www.w3.org/2000/svg">
<path d="M6.97168 20.75C3.25168 20.75 0.22168 17.72 0.22168 14V8C0.22168 3.73 3.70168 0.25 7.97168 0.25C12.2417 0.25 15.7217 3.73 15.7217 8V13.5C15.7217 15.84 13.8117 17.75 11.4717 17.75C9.13168 17.75 7.22168 15.84 7.22168 13.5V10C7.22168 9.59 7.56168 9.25 7.97168 9.25C8.38168 9.25 8.72168 9.59 8.72168 10V13.5C8.72168 15.02 9.95168 16.25 11.4717 16.25C12.9917 16.25 14.2217 15.02 14.2217 13.5V8C14.2217 4.55 11.4217 1.75 7.97168 1.75C4.52168 1.75 1.72168 4.55 1.72168 8V14C1.72168 16.89 4.07168 19.25 6.97168 19.25C7.38168 19.25 7.72168 19.59 7.72168 20C7.72168 20.41 7.39168 20.75 6.97168 20.75Z" fill="#101010"/>
</svg>
