<svg width="22" height="22" viewBox="0 0 22 22" fill="none" xmlns="http://www.w3.org/2000/svg">
<path d="M14.0401 12.02C13.8501 12.02 13.6501 11.94 13.5101 11.8L10.2201 8.50999C9.97014 8.25999 9.93014 7.87999 10.1201 7.57999L11.1501 5.94999C11.4801 5.41999 12.0001 5.08999 12.5901 5.02999C13.2401 4.95999 13.9201 5.21999 14.4401 5.73999L16.2901 7.58999C16.7901 8.08999 17.0401 8.76999 16.9701 9.43999C16.9001 10.04 16.5801 10.56 16.0801 10.88L14.4501 11.91C14.3101 11.99 14.1701 12.02 14.0401 12.02ZM11.7001 7.86999L14.1501 10.32L15.2701 9.60999C15.4101 9.51999 15.4601 9.37999 15.4701 9.26999C15.4901 9.05999 15.4001 8.81999 15.2201 8.63999L13.3701 6.79999C13.1701 6.59999 12.9401 6.49999 12.7501 6.51999C12.6101 6.53999 12.5001 6.60999 12.4101 6.74999L11.7001 7.86999Z" fill="#101010"/>
<path d="M7.2902 16.98C6.6702 16.98 6.0902 16.75 5.6802 16.34C5.2002 15.86 4.9702 15.16 5.0602 14.42L5.6602 9.35C5.8602 7.66 6.6802 6.98 8.4002 7.09L10.7902 7.23C11.2002 7.26 11.5202 7.61 11.4902 8.02C11.4602 8.43 11.1102 8.75 10.7002 8.72L8.3002 8.59C7.3302 8.53 7.2402 8.68 7.1402 9.53L6.5402 14.6C6.5102 14.88 6.5802 15.13 6.7302 15.28C6.8902 15.44 7.1302 15.51 7.4102 15.47L12.4802 14.87C13.4002 14.76 13.5102 14.62 13.4302 13.74L13.2802 11.32C13.2602 10.91 13.5702 10.55 13.9802 10.53C14.3902 10.5 14.7502 10.82 14.7702 11.23L14.9102 13.62C15.0802 15.3 14.3802 16.16 12.6502 16.36L7.5802 16.96C7.4902 16.98 7.3902 16.98 7.2902 16.98Z" fill="#101010"/>
<path d="M6.48969 16.27C6.29969 16.27 6.10969 16.2 5.95969 16.05C5.66969 15.76 5.66969 15.28 5.95969 14.99L7.80969 13.14C8.09969 12.85 8.57969 12.85 8.86969 13.14C9.15969 13.43 9.15969 13.91 8.86969 14.2L7.01969 16.05C6.87969 16.2 6.68969 16.27 6.48969 16.27Z" fill="#101010"/>
<path d="M14 21.75H8C2.57 21.75 0.25 19.43 0.25 14V8C0.25 2.57 2.57 0.25 8 0.25H14C19.43 0.25 21.75 2.57 21.75 8V14C21.75 19.43 19.43 21.75 14 21.75ZM8 1.75C3.39 1.75 1.75 3.39 1.75 8V14C1.75 18.61 3.39 20.25 8 20.25H14C18.61 20.25 20.25 18.61 20.25 14V8C20.25 3.39 18.61 1.75 14 1.75H8Z" fill="#101010"/>
</svg>
