<svg width="22" height="23" viewBox="0 0 22 23" fill="none" xmlns="http://www.w3.org/2000/svg">
<path d="M12.2698 22.25H9.74979C9.04979 22.25 8.41979 21.9499 7.99979 21.4399C7.62979 20.9799 7.48978 20.39 7.61978 19.83L8.02979 18.02C8.10979 17.68 8.40978 17.4399 8.75978 17.4399H13.2598C13.6098 17.4399 13.9098 17.68 13.9898 18.02L14.3998 19.83C14.5298 20.43 14.4098 21.01 14.0398 21.47C13.6298 21.96 12.9898 22.25 12.2698 22.25ZM9.35979 18.92L9.07979 20.15C9.04979 20.3 9.10979 20.42 9.16979 20.49C9.29979 20.65 9.50979 20.74 9.74979 20.74H12.2698C12.5298 20.74 12.7498 20.66 12.8698 20.51C12.9498 20.41 12.9698 20.29 12.9398 20.14L12.6598 18.91H9.35979V18.92Z" fill="#101010"/>
<path d="M13.2595 18.92C13.0495 18.92 12.8495 18.84 12.6995 18.67C12.4295 18.36 12.4495 17.89 12.7595 17.61L14.4895 16.0699C15.1795 15.4599 15.1495 15.31 14.6395 14.67L11.5895 10.8C11.4195 10.59 11.2195 10.47 11.0095 10.47C10.7995 10.47 10.5995 10.59 10.4295 10.8L7.37954 14.67C6.83954 15.36 6.84953 15.51 7.50953 16.05L9.25953 17.61C9.56953 17.88 9.59954 18.36 9.31954 18.67C9.03954 18.98 8.56953 19.01 8.25953 18.73L6.52953 17.1899C5.26953 16.1599 5.15953 15.06 6.19953 13.74L9.24953 9.87C9.69953 9.3 10.3395 8.96997 11.0095 8.96997C11.6795 8.96997 12.3195 9.3 12.7695 9.87L15.8195 13.74C16.8495 15.04 16.7495 16.0799 15.4895 17.1899L13.7595 18.73C13.6095 18.86 13.4295 18.92 13.2595 18.92Z" fill="#101010"/>
<path d="M11.0098 13.4C10.5998 13.4 10.2598 13.06 10.2598 12.65V10.12C10.2598 9.71 10.5998 9.37 11.0098 9.37C11.4198 9.37 11.7598 9.71 11.7598 10.12V12.65C11.7598 13.07 11.4198 13.4 11.0098 13.4Z" fill="#101010"/>
<path d="M11.5195 4.75H10.5195C9.55953 4.75 8.76953 3.96 8.76953 3V2C8.76953 1.04 9.55953 0.25 10.5195 0.25H11.5195C12.4795 0.25 13.2695 1.04 13.2695 2V3C13.2695 3.96 12.4895 4.75 11.5195 4.75ZM10.5195 1.75C10.3795 1.75 10.2695 1.86 10.2695 2V3C10.2695 3.14 10.3795 3.25 10.5195 3.25H11.5195C11.6595 3.25 11.7695 3.14 11.7695 3V2C11.7695 1.86 11.6595 1.75 11.5195 1.75H10.5195Z" fill="#101010"/>
<path d="M3.26953 13.92H2.26953C1.30953 13.92 0.519531 13.13 0.519531 12.17V11.17C0.519531 10.21 1.30953 9.41992 2.26953 9.41992H3.26953C4.22953 9.41992 5.01953 10.21 5.01953 11.17V12.17C5.01953 13.13 4.22953 13.92 3.26953 13.92ZM2.26953 10.9199C2.12953 10.9199 2.01953 11.03 2.01953 11.17V12.17C2.01953 12.31 2.12953 12.42 2.26953 12.42H3.26953C3.40953 12.42 3.51953 12.31 3.51953 12.17V11.17C3.51953 11.03 3.40953 10.9199 3.26953 10.9199H2.26953Z" fill="#101010"/>
<path d="M19.7295 13.92H18.7295C17.7695 13.92 16.9795 13.13 16.9795 12.17V11.17C16.9795 10.21 17.7695 9.41992 18.7295 9.41992H19.7295C20.6895 9.41992 21.4795 10.21 21.4795 11.17V12.17C21.4795 13.13 20.6995 13.92 19.7295 13.92ZM18.7295 10.9199C18.5895 10.9199 18.4795 11.03 18.4795 11.17V12.17C18.4795 12.31 18.5895 12.42 18.7295 12.42H19.7295C19.8695 12.42 19.9795 12.31 19.9795 12.17V11.17C19.9795 11.03 19.8695 10.9199 19.7295 10.9199H18.7295Z" fill="#101010"/>
<path d="M2.75 10.9201C2.34 10.9201 2 10.5801 2 10.1701C2 5.90007 5.2 2.31008 9.44 1.81008C9.85 1.77008 10.22 2.06005 10.27 2.47005C10.32 2.88005 10.02 3.25007 9.61 3.30007C6.13 3.71007 3.5 6.66007 3.5 10.1701C3.5 10.5801 3.16 10.9201 2.75 10.9201Z" fill="#101010"/>
<path d="M19.249 10.92C18.839 10.92 18.499 10.58 18.499 10.17C18.499 6.68001 15.889 3.73002 12.429 3.31002C12.019 3.26002 11.729 2.89 11.779 2.48C11.829 2.07 12.199 1.77004 12.619 1.83004C16.829 2.34004 20.009 5.93002 20.009 10.18C19.999 10.58 19.669 10.92 19.249 10.92Z" fill="#101010"/>
</svg>
