<svg width="22" height="22" viewBox="0 0 22 22" fill="none" xmlns="http://www.w3.org/2000/svg">
<path d="M17.2502 13.22C17.0602 13.22 16.8602 13.14 16.7202 13L11.0502 7.33001C10.8002 7.08001 10.7602 6.70001 10.9502 6.40001L12.7202 3.59996C13.2002 2.82996 13.9502 2.36 14.8102 2.26C15.7602 2.15 16.7702 2.54 17.5502 3.32L20.7302 6.49999C21.4802 7.24999 21.8502 8.24999 21.7402 9.24999C21.6402 10.12 21.1802 10.8699 20.4602 11.3299L17.6602 13.1C17.5302 13.18 17.3902 13.22 17.2502 13.22ZM12.5402 6.7L17.3602 11.52L19.6502 10.07C19.9902 9.86 20.2002 9.51002 20.2402 9.09002C20.3002 8.56002 20.0802 7.99 19.6602 7.57L16.4802 4.39C16.0202 3.93 15.4702 3.7 14.9702 3.76C14.5702 3.8 14.2302 4.02996 13.9902 4.40996L12.5402 6.7Z" fill="#101010"/>
<path d="M5.6301 21.75C4.69009 21.75 3.86008 21.4201 3.24008 20.8001C2.52008 20.0801 2.20008 19.07 2.33008 17.95L3.31009 9.67001C3.36009 9.26001 3.7301 8.97003 4.1401 9.01003C4.5501 9.06003 4.85008 9.43005 4.80008 9.84005L3.8201 18.12C3.7401 18.77 3.91008 19.34 4.30008 19.73C4.69008 20.12 5.27008 20.3 5.93008 20.22L14.6501 19.19C16.5101 18.97 16.9201 18.47 16.7401 16.65L16.5001 12.5C16.4801 12.09 16.7901 11.73 17.2101 11.71C17.6201 11.69 17.9801 12.0001 18.0001 12.4201L18.2401 16.5401C18.5001 19.1201 17.4801 20.37 14.8301 20.69L6.11008 21.72C5.95008 21.74 5.7901 21.75 5.6301 21.75Z" fill="#101010"/>
<path d="M11.5801 7.55999C11.5601 7.55999 11.5501 7.55999 11.5301 7.55999L9.78009 7.45C9.37009 7.42 9.05007 7.07002 9.08007 6.65002C9.11007 6.23002 9.46009 5.92 9.88009 5.95L11.6301 6.05999C12.0401 6.08999 12.3601 6.43998 12.3301 6.85998C12.3001 7.24998 11.9701 7.55999 11.5801 7.55999Z" fill="#101010"/>
<path d="M4.2807 20.53C4.0907 20.53 3.9007 20.46 3.7507 20.31C3.4607 20.02 3.4607 19.54 3.7507 19.25L6.9307 16.0699C7.2207 15.7799 7.70069 15.7799 7.99069 16.0699C8.28069 16.3599 8.28069 16.84 7.99069 17.13L4.8107 20.31C4.6607 20.46 4.4707 20.53 4.2807 20.53Z" fill="#101010"/>
<path d="M5.5 10.75C4.91 10.75 4.34 10.65 3.81 10.47C2.65 10.08 1.65001 9.28002 1.01001 8.21002C0.51001 7.39002 0.25 6.45 0.25 5.5C0.25 3.88 0.970011 2.39002 2.23001 1.40002C3.15001 0.660024 4.31 0.25 5.5 0.25C8.4 0.25 10.75 2.61 10.75 5.5C10.75 5.97 10.68 6.45997 10.55 6.90997C10.42 7.36997 10.24 7.79002 9.98999 8.21002C9.69999 8.69002 9.35 9.10001 8.94 9.45001C8 10.29 6.78 10.75 5.5 10.75ZM5.5 1.75C4.65 1.75 3.82 2.04001 3.16 2.57001C2.26 3.28001 1.75 4.34 1.75 5.5C1.75 6.17 1.94001 6.83999 2.29001 7.42999C2.75001 8.18999 3.46001 8.76998 4.29001 9.03998C5.51001 9.46998 6.94999 9.2 7.95999 8.31C8.24999 8.06 8.49999 7.75999 8.70999 7.42999C8.88999 7.12999 9.01999 6.83 9.10999 6.5C9.19999 6.17 9.25 5.83 9.25 5.5C9.25 3.43 7.57 1.75 5.5 1.75Z" fill="#101010"/>
<path d="M7.15982 6.25H3.7998C3.3898 6.25 3.0498 5.91 3.0498 5.5C3.0498 5.09 3.3898 4.75 3.7998 4.75H7.15982C7.56982 4.75 7.90982 5.09 7.90982 5.5C7.90982 5.91 7.57982 6.25 7.15982 6.25Z" fill="#101010"/>
</svg>
