<svg width="20" height="22" viewBox="0 0 20 22" fill="none" xmlns="http://www.w3.org/2000/svg">
<path d="M19.002 21.75H1.00195C0.591953 21.75 0.251953 21.41 0.251953 21C0.251953 20.59 0.591953 20.25 1.00195 20.25H19.002C19.412 20.25 19.752 20.59 19.752 21C19.752 21.41 19.412 21.75 19.002 21.75Z" fill="#101010"/>
<path d="M19.002 1.75H1.00195C0.591953 1.75 0.251953 1.41 0.251953 1C0.251953 0.59 0.591953 0.25 1.00195 0.25H19.002C19.412 0.25 19.752 0.59 19.752 1C19.752 1.41 19.412 1.75 19.002 1.75Z" fill="#101010"/>
<path d="M10.002 17.75C9.59195 17.75 9.25195 17.41 9.25195 17V5C9.25195 4.59 9.59195 4.25 10.002 4.25C10.412 4.25 10.752 4.59 10.752 5V17C10.752 17.41 10.412 17.75 10.002 17.75Z" fill="#101010"/>
<path d="M12.8323 7.47002C12.6423 7.47002 12.4523 7.40002 12.3023 7.25002L10.0023 4.95002L7.7023 7.25002C7.4123 7.54002 6.9323 7.54002 6.6423 7.25002C6.3523 6.96002 6.3523 6.48002 6.6423 6.19002L9.4723 3.36002C9.7523 3.08002 10.2523 3.08002 10.5323 3.36002L13.3623 6.19002C13.6523 6.48002 13.6523 6.96002 13.3623 7.25002C13.2123 7.40002 13.0223 7.47002 12.8323 7.47002Z" fill="#101010"/>
<path d="M10.0023 18.47C9.8023 18.47 9.6123 18.39 9.4723 18.25L6.6423 15.42C6.3523 15.13 6.3523 14.65 6.6423 14.36C6.9323 14.07 7.4123 14.07 7.7023 14.36L10.0023 16.66L12.3023 14.36C12.5923 14.07 13.0723 14.07 13.3623 14.36C13.6523 14.65 13.6523 15.13 13.3623 15.42L10.5323 18.25C10.3923 18.39 10.2023 18.47 10.0023 18.47Z" fill="#101010"/>
</svg>
