<svg width="22" height="20" viewBox="0 0 22 20" fill="none" xmlns="http://www.w3.org/2000/svg">
<path d="M6.80194 19.47H3.58197C1.75197 19.47 0.251953 17.9801 0.251953 16.1401V10.3401C0.251953 9.93009 0.591953 9.59009 1.00195 9.59009H6.80194C8.70194 9.59009 10.132 11.02 10.132 12.92V16.1401C10.122 18.0401 8.69194 19.47 6.80194 19.47ZM1.75195 11.1V16.1501C1.75195 17.1601 2.57197 17.98 3.58197 17.98H6.80194C7.86194 17.98 8.63196 17.2101 8.63196 16.1501V12.9301C8.63196 11.8701 7.86194 11.1 6.80194 11.1H1.75195Z" fill="#101010"/>
<path d="M1.00195 11.1C0.591953 11.1 0.251953 10.76 0.251953 10.35C0.251953 4.10004 1.52198 2.79008 5.15198 0.640081C5.51198 0.430081 5.97195 0.550091 6.18195 0.900091C6.39195 1.26009 6.27194 1.72006 5.92194 1.93006C2.68194 3.85006 1.75195 4.65004 1.75195 10.35C1.75195 10.76 1.41195 11.1 1.00195 11.1Z" fill="#101010"/>
<path d="M18.4221 19.47H15.2021C13.3721 19.47 11.8721 17.9801 11.8721 16.1401V10.3401C11.8721 9.93009 12.2121 9.59009 12.6221 9.59009H18.4221C20.3221 9.59009 21.7521 11.02 21.7521 12.92V16.1401C21.7521 18.0401 20.3221 19.47 18.4221 19.47ZM13.3821 11.1V16.1501C13.3821 17.1601 14.2021 17.98 15.2121 17.98H18.4321C19.4921 17.98 20.2621 17.2101 20.2621 16.1501V12.9301C20.2621 11.8701 19.4921 11.1 18.4321 11.1H13.3821Z" fill="#101010"/>
<path d="M12.6318 11.1C12.2218 11.1 11.8818 10.76 11.8818 10.35C11.8818 4.10004 13.1519 2.79008 16.7819 0.640081C17.1419 0.430081 17.6018 0.550091 17.8118 0.900091C18.0218 1.26009 17.9018 1.72006 17.5518 1.93006C14.3118 3.85006 13.3818 4.65004 13.3818 10.35C13.3818 10.76 13.0418 11.1 12.6318 11.1Z" fill="#101010"/>
</svg>
