<svg width="22" height="22" viewBox="0 0 22 22" fill="none" xmlns="http://www.w3.org/2000/svg">
<path d="M16.0018 11.59H13.3218C12.2318 11.59 11.3818 10.74 11.3818 9.65002V8.15997C11.3818 7.06997 12.2318 6.21997 13.3218 6.21997H14.8118C15.8818 6.21997 16.7518 7.08997 16.7518 8.15997V10.83C16.7518 11.25 16.4118 11.59 16.0018 11.59ZM13.3218 7.71997C13.0018 7.71997 12.8818 7.95997 12.8818 8.15997V9.65002C12.8818 9.85002 12.9918 10.09 13.3218 10.09H15.2518V8.16998C15.2518 7.92998 15.0518 7.72998 14.8118 7.72998H13.3218V7.71997Z" fill="#101010"/>
<path d="M13.9119 15.7801C13.6519 15.7801 13.4019 15.65 13.2619 15.41C13.0519 15.05 13.1719 14.5901 13.5219 14.3801C14.8819 13.5701 15.2519 13.3601 15.2519 10.8401C15.2519 10.4301 15.5919 10.0901 16.0019 10.0901C16.4119 10.0901 16.7519 10.4301 16.7519 10.8401C16.7519 13.9201 16.0819 14.61 14.2919 15.67C14.1719 15.74 14.0419 15.7801 13.9119 15.7801Z" fill="#101010"/>
<path d="M9.86218 11.59H7.18217C6.09217 11.59 5.24219 10.74 5.24219 9.65002V8.15997C5.24219 7.06997 6.09217 6.21997 7.18217 6.21997H8.67218C9.74218 6.21997 10.6122 7.08997 10.6122 8.15997V10.83C10.6122 11.25 10.2822 11.59 9.86218 11.59ZM7.19218 7.71997C6.87218 7.71997 6.75218 7.95997 6.75218 8.15997V9.65002C6.75218 9.85002 6.86218 10.09 7.19218 10.09H9.12218V8.16998C9.12218 7.92998 8.92217 7.72998 8.68217 7.72998H7.19218V7.71997Z" fill="#101010"/>
<path d="M7.77129 15.7801C7.51129 15.7801 7.26128 15.65 7.12128 15.41C6.91128 15.05 7.03129 14.5901 7.38129 14.3801C8.74129 13.5701 9.11129 13.3601 9.11129 10.8401C9.11129 10.4301 9.45129 10.0901 9.86129 10.0901C10.2713 10.0901 10.6113 10.4301 10.6113 10.8401C10.6113 13.9201 9.94128 14.61 8.15128 15.67C8.03128 15.74 7.90129 15.7801 7.77129 15.7801Z" fill="#101010"/>
<path d="M11.002 21.75C5.07195 21.75 0.251953 16.93 0.251953 11C0.251953 5.07 5.07195 0.25 11.002 0.25C16.932 0.25 21.752 5.07 21.752 11C21.752 16.93 16.932 21.75 11.002 21.75ZM11.002 1.75C5.90195 1.75 1.75195 5.9 1.75195 11C1.75195 16.1 5.90195 20.25 11.002 20.25C16.102 20.25 20.252 16.1 20.252 11C20.252 5.9 16.102 1.75 11.002 1.75Z" fill="#101010"/>
</svg>
