<svg width="22" height="22" viewBox="0 0 22 22" fill="none" xmlns="http://www.w3.org/2000/svg">
<path d="M12.4297 14.75H3.39971C2.27971 14.75 1.25971 14.17 0.68971 13.2C0.11971 12.23 0.099711 11.07 0.639711 10.08L5.14971 1.87C5.70971 0.849995 6.73971 0.23999 7.90971 0.23999C9.07971 0.23999 10.1097 0.849995 10.6697 1.87L15.1897 10.08C15.7297 11.06 15.7097 12.23 15.1397 13.2C14.5697 14.17 13.5497 14.75 12.4297 14.75ZM7.90971 1.75C7.29971 1.75 6.75971 2.07001 6.46971 2.60001L1.95971 10.81C1.67971 11.33 1.68971 11.93 1.97971 12.44C2.27971 12.95 2.80971 13.25 3.39971 13.25H12.4297C13.0197 13.25 13.5497 12.95 13.8497 12.44C14.1497 11.93 14.1597 11.33 13.8697 10.81L9.34971 2.60001C9.05971 2.07001 8.51971 1.75 7.90971 1.75Z" fill="#101010"/>
<path d="M14.5 21.75C10.5 21.75 7.25 18.5 7.25 14.5C7.25 14.32 7.26 14.14 7.27 13.96C7.29 13.56 7.62 13.25 8.02 13.25H12.43C13.02 13.25 13.55 12.95 13.85 12.44C14.15 11.93 14.16 11.33 13.87 10.81L12.59 8.48001C12.47 8.27001 12.47 8.01999 12.57 7.79999C12.67 7.57999 12.87 7.43 13.1 7.38C13.55 7.29 14.02 7.25 14.5 7.25C18.5 7.25 21.75 10.5 21.75 14.5C21.75 18.5 18.5 21.75 14.5 21.75ZM8.76 14.75C8.89 17.81 11.42 20.25 14.5 20.25C17.67 20.25 20.25 17.67 20.25 14.5C20.25 11.33 17.67 8.75 14.5 8.75C14.48 8.75 14.47 8.75 14.45 8.75L15.19 10.09C15.73 11.07 15.71 12.24 15.14 13.21C14.57 14.18 13.56 14.76 12.43 14.76H8.76V14.75Z" fill="#101010"/>
</svg>
