<svg width="22" height="22" viewBox="0 0 22 22" fill="none" xmlns="http://www.w3.org/2000/svg">
<path d="M10.7197 21.75H6.21973C2.06973 21.75 0.219727 19.9 0.219727 15.75V11.25C0.219727 7.1 2.06973 5.25 6.21973 5.25H10.7197C14.8697 5.25 16.7197 7.1 16.7197 11.25V15.75C16.7197 19.9 14.8697 21.75 10.7197 21.75ZM6.21973 6.75C2.89973 6.75 1.71973 7.93 1.71973 11.25V15.75C1.71973 19.07 2.89973 20.25 6.21973 20.25H10.7197C14.0397 20.25 15.2197 19.07 15.2197 15.75V11.25C15.2197 7.93 14.0397 6.75 10.7197 6.75H6.21973Z" fill="#101010"/>
<path d="M17.1197 12.75H15.9697C15.5597 12.75 15.2197 12.41 15.2197 12V11.25C15.2197 7.93 14.0397 6.75 10.7197 6.75H9.96973C9.55973 6.75 9.21973 6.41 9.21973 6V4.85C9.21973 1.67 10.6397 0.25 13.8197 0.25H17.1197C20.2997 0.25 21.7197 1.67 21.7197 4.85V8.15C21.7197 11.33 20.2997 12.75 17.1197 12.75ZM16.7197 11.25H17.1197C19.4697 11.25 20.2197 10.5 20.2197 8.15V4.85C20.2197 2.5 19.4697 1.75 17.1197 1.75H13.8197C11.4697 1.75 10.7197 2.5 10.7197 4.85V5.25C14.8697 5.25 16.7197 7.1 16.7197 11.25Z" fill="#101010"/>
</svg>
