<svg width="22" height="22" viewBox="0 0 22 22" fill="none" xmlns="http://www.w3.org/2000/svg">
<path d="M17.6122 5.68001C17.2022 5.68001 16.8622 5.34001 16.8622 4.93001V3.42001C16.8622 2.82001 16.3722 2.32001 15.7622 2.32001H2.83219C2.23219 2.32001 1.73219 2.81001 1.73219 3.42001V4.93001C1.73219 5.34001 1.39219 5.68001 0.982188 5.68001C0.572188 5.68001 0.242188 5.34001 0.242188 4.93001V3.42001C0.242188 1.99001 1.41219 0.820007 2.84219 0.820007H15.7622C17.1922 0.820007 18.3622 1.98001 18.3622 3.42001V4.93001C18.3622 5.34001 18.0222 5.68001 17.6122 5.68001Z" fill="#101010"/>
<path d="M9.30176 17.85C8.89176 17.85 8.55176 17.51 8.55176 17.1V2.32001C8.55176 1.91001 8.89176 1.57001 9.30176 1.57001C9.71176 1.57001 10.0518 1.91001 10.0518 2.32001V17.1C10.0518 17.52 9.71176 17.85 9.30176 17.85Z" fill="#101010"/>
<path d="M11.4823 17.85H5.90234C5.49234 17.85 5.15234 17.51 5.15234 17.1C5.15234 16.69 5.49234 16.35 5.90234 16.35H11.4823C11.8923 16.35 12.2323 16.69 12.2323 17.1C12.2323 17.51 11.8923 17.85 11.4823 17.85Z" fill="#101010"/>
<path d="M21.0126 12.2C20.6026 12.2 20.2626 11.86 20.2626 11.45V10.65C20.2626 10.34 20.0026 10.08 19.6926 10.08H12.6826C12.2726 10.08 11.9326 9.74002 11.9326 9.33002C11.9326 8.92002 12.2726 8.58002 12.6826 8.58002H19.6926C20.8326 8.58002 21.7626 9.51002 21.7626 10.65V11.45C21.7626 11.87 21.4326 12.2 21.0126 12.2Z" fill="#101010"/>
<path d="M15.082 21.18C14.672 21.18 14.332 20.84 14.332 20.43V9.87C14.332 9.46 14.672 9.12 15.082 9.12C15.492 9.12 15.832 9.46 15.832 9.87V20.43C15.832 20.84 15.492 21.18 15.082 21.18Z" fill="#101010"/>
<path d="M17.2224 21.18H12.9424C12.5324 21.18 12.1924 20.84 12.1924 20.43C12.1924 20.02 12.5324 19.68 12.9424 19.68H17.2224C17.6324 19.68 17.9724 20.02 17.9724 20.43C17.9724 20.84 17.6324 21.18 17.2224 21.18Z" fill="#101010"/>
</svg>
