<svg width="22" height="20" viewBox="0 0 22 20" fill="none" xmlns="http://www.w3.org/2000/svg">
<path d="M20.3319 5.92003C19.9219 5.92003 19.5819 5.58003 19.5819 5.17003V3.35003C19.5819 2.62003 18.9919 2.03003 18.2619 2.03003H3.74187C3.01187 2.03003 2.42188 2.62003 2.42188 3.35003V5.18003C2.42188 5.59003 2.08188 5.93003 1.67188 5.93003C1.26188 5.93003 0.921875 5.59003 0.921875 5.17003V3.35003C0.921875 1.79003 2.19187 0.530029 3.74187 0.530029H18.2619C19.8219 0.530029 21.0819 1.80003 21.0819 3.35003V5.18003C21.0819 5.59003 20.7519 5.92003 20.3319 5.92003Z" fill="#101010"/>
<path d="M11.002 19.47C10.592 19.47 10.252 19.13 10.252 18.72V2.11005C10.252 1.70005 10.592 1.36005 11.002 1.36005C11.412 1.36005 11.752 1.70005 11.752 2.11005V18.72C11.752 19.14 11.412 19.47 11.002 19.47Z" fill="#101010"/>
<path d="M14.9415 19.47H7.06152C6.65152 19.47 6.31152 19.13 6.31152 18.72C6.31152 18.31 6.65152 17.97 7.06152 17.97H14.9415C15.3515 17.97 15.6915 18.31 15.6915 18.72C15.6915 19.13 15.3515 19.47 14.9415 19.47Z" fill="#101010"/>
</svg>
