<svg width="16" height="22" viewBox="0 0 16 22" fill="none" xmlns="http://www.w3.org/2000/svg">
<path d="M8.00184 11.75H0.881836C0.471836 11.75 0.131836 11.41 0.131836 11V3.5C0.131836 1.98 1.36184 0.75 2.88184 0.75H8.00184C11.0318 0.75 13.5018 3.22 13.5018 6.25C13.5018 9.28 11.0318 11.75 8.00184 11.75ZM1.62184 10.25H8.00184C10.2118 10.25 12.0018 8.46 12.0018 6.25C12.0018 4.04 10.2118 2.25 8.00184 2.25H2.88184C2.19184 2.25 1.63184 2.81 1.63184 3.5V10.25H1.62184Z" fill="#101010"/>
<path d="M10.3818 21.25H2.88184C1.36184 21.25 0.131836 20.02 0.131836 18.5V11C0.131836 10.59 0.471836 10.25 0.881836 10.25H10.3818C13.4118 10.25 15.8818 12.72 15.8818 15.75C15.8818 18.78 13.4118 21.25 10.3818 21.25ZM1.62184 11.75V18.5C1.62184 19.19 2.18184 19.75 2.87184 19.75H10.3718C12.5818 19.75 14.3718 17.96 14.3718 15.75C14.3718 13.54 12.5818 11.75 10.3718 11.75H1.62184Z" fill="#101010"/>
</svg>
