<svg width="22" height="22" viewBox="0 0 22 22" fill="none" xmlns="http://www.w3.org/2000/svg">
<path d="M14.002 21.75H8.00195C2.57195 21.75 0.251953 19.43 0.251953 14V8C0.251953 2.57 2.57195 0.25 8.00195 0.25H14.002C19.432 0.25 21.752 2.57 21.752 8V14C21.752 19.43 19.432 21.75 14.002 21.75ZM8.00195 1.75C3.39195 1.75 1.75195 3.39 1.75195 8V14C1.75195 18.61 3.39195 20.25 8.00195 20.25H14.002C18.612 20.25 20.252 18.61 20.252 14V8C20.252 3.39 18.612 1.75 14.002 1.75H8.00195Z" fill="#101010"/>
<path d="M6.00149 8.63002C5.73149 8.63002 5.46149 8.48002 5.33149 8.22002C5.14149 7.85002 5.29149 7.40002 5.66149 7.21002C9.00149 5.54002 12.9915 5.54002 16.3315 7.21002C16.7015 7.40002 16.8515 7.85002 16.6715 8.22002C16.4815 8.59002 16.0415 8.74002 15.6615 8.56002C12.7415 7.10002 9.25149 7.10002 6.33149 8.56002C6.23149 8.61002 6.11149 8.63002 6.00149 8.63002Z" fill="#101010"/>
<path d="M11.002 16.04C10.592 16.04 10.252 15.7 10.252 15.29V6.92999C10.252 6.51999 10.592 6.17999 11.002 6.17999C11.412 6.17999 11.752 6.51999 11.752 6.92999V15.3C11.752 15.71 11.412 16.04 11.002 16.04Z" fill="#101010"/>
</svg>
