<svg width="16" height="20" viewBox="0 0 16 20" fill="none" xmlns="http://www.w3.org/2000/svg">
<path d="M14.8818 1.75H5.62184C5.21184 1.75 4.88184 1.41 4.88184 1C4.88184 0.59 5.22184 0.25 5.63184 0.25H14.8818C15.2918 0.25 15.6318 0.59 15.6318 1C15.6318 1.41 15.2918 1.75 14.8818 1.75Z" fill="#101010"/>
<path d="M10.3821 19.75H1.12207C0.71207 19.75 0.37207 19.41 0.37207 19C0.37207 18.59 0.71207 18.25 1.12207 18.25H10.3721C10.7821 18.25 11.1221 18.59 11.1221 19C11.1221 19.41 10.7921 19.75 10.3821 19.75Z" fill="#101010"/>
<path d="M5.75205 19.75C5.69205 19.75 5.63205 19.74 5.57205 19.73C5.17205 19.63 4.92205 19.22 5.02205 18.82L9.52205 0.819975C9.62205 0.419975 10.0221 0.169975 10.4321 0.269975C10.8321 0.369975 11.082 0.779976 10.982 1.17998L6.48205 19.18C6.39205 19.52 6.09205 19.75 5.75205 19.75Z" fill="#101010"/>
</svg>
