<svg width="22" height="22" viewBox="0 0 22 22" fill="none" xmlns="http://www.w3.org/2000/svg">
<path d="M13.7919 18.42C13.6819 18.42 13.5619 18.39 13.4619 18.34C13.0919 18.15 12.9419 17.7 13.1219 17.33L15.2619 13.06C15.3919 12.81 15.6519 12.65 15.9319 12.65C16.2119 12.65 16.4719 12.81 16.6019 13.07L18.7419 17.34C18.9319 17.71 18.7819 18.16 18.4019 18.35C18.0319 18.54 17.5819 18.39 17.3919 18.01L15.9319 15.08L14.4719 18.01C14.3319 18.27 14.0619 18.42 13.7919 18.42Z" fill="#101010"/>
<path d="M17.6821 17.6599H14.1621C13.7521 17.6599 13.4121 17.3199 13.4121 16.9099C13.4121 16.4999 13.7521 16.1599 14.1621 16.1599H17.6821C18.0921 16.1599 18.4321 16.4999 18.4321 16.9099C18.4321 17.3199 18.1021 17.6599 17.6821 17.6599Z" fill="#101010"/>
<path d="M15.9218 21.7501C12.7118 21.7501 10.0918 19.14 10.0918 15.92C10.0918 12.7 12.7018 10.0901 15.9218 10.0901C19.1318 10.0901 21.7518 12.7 21.7518 15.92C21.7518 19.14 19.1418 21.7501 15.9218 21.7501ZM15.9218 11.6C13.5318 11.6 11.5918 13.5401 11.5918 15.9301C11.5918 18.3201 13.5318 20.2601 15.9218 20.2601C18.3018 20.2601 20.2518 18.3201 20.2518 15.9301C20.2518 13.5401 18.3118 11.6 15.9218 11.6Z" fill="#101010"/>
<path d="M3.86195 11.7C2.75195 11.7 1.87195 11.39 1.25195 10.79C0.591953 10.15 0.251953 9.17999 0.251953 7.92999V4.01001C0.251953 1.58001 1.59196 0.23999 4.02196 0.23999H7.94196C9.19196 0.23999 10.152 0.56999 10.802 1.23999C11.432 1.88999 11.742 2.83003 11.712 4.03003V7.92999C11.742 9.14999 11.432 10.11 10.782 10.76C10.132 11.41 9.17195 11.71 7.93195 11.69H4.03195C3.96195 11.7 3.91195 11.7 3.86195 11.7ZM4.02196 1.75C2.41196 1.75 1.75195 2.41002 1.75195 4.02002V7.94C1.75195 8.77 1.93195 9.36997 2.29195 9.71997C2.64195 10.06 3.20196 10.21 3.99196 10.2H7.93195C8.77195 10.22 9.35195 10.05 9.70195 9.70001C10.052 9.35001 10.212 8.76001 10.192 7.95001V4.01001C10.212 3.21001 10.052 2.63998 9.71196 2.28998C9.36196 1.92998 8.76195 1.75 7.93195 1.75H4.02196Z" fill="#101010"/>
<path d="M8.0014 5.59985H3.94141C3.53141 5.59985 3.19141 5.25985 3.19141 4.84985C3.19141 4.43985 3.53141 4.09985 3.94141 4.09985H8.0014C8.4114 4.09985 8.7514 4.43985 8.7514 4.84985C8.7514 5.25985 8.4214 5.59985 8.0014 5.59985Z" fill="#101010"/>
<path d="M5.98242 5.59991C5.57242 5.59991 5.23242 5.25991 5.23242 4.84991V4.16992C5.23242 3.75992 5.57242 3.41992 5.98242 3.41992C6.39242 3.41992 6.73242 3.75992 6.73242 4.16992V4.84991C6.73242 5.25991 6.39242 5.59991 5.98242 5.59991Z" fill="#101010"/>
<path d="M3.94141 8.75995C3.53141 8.75995 3.19141 8.41995 3.19141 8.00995C3.19141 7.59995 3.53141 7.25995 3.94141 7.25995C5.21141 7.25995 6.24141 6.17997 6.24141 4.83997C6.24141 4.42997 6.58141 4.08997 6.99141 4.08997C7.40141 4.08997 7.74141 4.42997 7.74141 4.83997C7.74141 6.99997 6.04141 8.75995 3.94141 8.75995Z" fill="#101010"/>
<path d="M8.01238 8.75994C7.08238 8.75994 6.19238 8.28996 5.56238 7.45996C5.31238 7.12996 5.38239 6.65991 5.71239 6.40991C6.04239 6.15991 6.51238 6.22993 6.76238 6.55993C7.10238 7.01993 7.55238 7.26995 8.01238 7.26995C8.42238 7.26995 8.76238 7.60995 8.76238 8.01995C8.76238 8.42995 8.42238 8.75994 8.01238 8.75994Z" fill="#101010"/>
<path d="M8.00195 21.75C3.73195 21.75 0.251953 18.27 0.251953 14C0.251953 13.59 0.591953 13.25 1.00195 13.25C1.41195 13.25 1.75195 13.59 1.75195 14C1.75195 16.96 3.81195 19.44 6.58195 20.09L6.31195 19.64C6.10195 19.28 6.21196 18.82 6.57196 18.61C6.92196 18.4 7.39196 18.51 7.60196 18.87L8.65195 20.62C8.79195 20.85 8.79196 21.14 8.66196 21.37C8.52196 21.6 8.27195 21.75 8.00195 21.75Z" fill="#101010"/>
<path d="M21.0024 8.75C20.5924 8.75 20.2524 8.41 20.2524 8C20.2524 5.04 18.1924 2.55997 15.4224 1.90997L15.6924 2.35999C15.9024 2.71999 15.7924 3.18001 15.4324 3.39001C15.0824 3.60001 14.6124 3.49001 14.4024 3.13L13.3524 1.38C13.2124 1.15 13.2124 0.860005 13.3424 0.630005C13.4724 0.390005 13.7224 0.25 13.9924 0.25C18.2624 0.25 21.7424 3.73 21.7424 8C21.7524 8.41 21.4124 8.75 21.0024 8.75Z" fill="#101010"/>
</svg>
