<svg xmlns="http://www.w3.org/2000/svg" width="200" height="196">
    <path fill="#000" fill-rule="nonzero"
          d="M100 0C44.75 0 0 44.75 0 100c0 44.25 28.625 81.625 68.375 94.875 5 .875 6.875-2.125 6.875-4.75 0-2.375-.125-10.25-.125-18.625C50 176.125 43.5 165.375 41.5 159.75c-1.125-2.875-6-11.75-10.25-14.125-3.5-1.875-8.5-6.5-.125-6.625 7.875-.125 13.5 7.25 15.375 10.25 9 15.125 23.375 10.875 29.125 8.25.875-6.5 3.5-10.875 6.375-13.375-22.25-2.5-45.5-11.125-45.5-49.375 0-10.875 3.875-19.875 10.25-26.875-1-2.5-4.5-12.75 1-26.5 0 0 8.375-2.625 27.5 10.25 8-2.25 16.5-3.375 25-3.375s17 1.125 25 3.375c19.125-13 27.5-10.25 27.5-10.25 5.5 13.75 2 24 1 26.5 6.375 7 10.25 15.875 10.25 26.875 0 38.375-23.375 46.875-45.625 49.375 3.625 3.125 6.75 9.125 6.75 18.5 0 13.375-.125 24.125-.125 27.5 0 2.625 1.875 5.75 6.875 4.75C171.375 181.625 200 144.125 200 100 200 44.75 155.25 0 100 0Z"/>
</svg>