<svg width="22" height="22" viewBox="0 0 22 22" fill="none" xmlns="http://www.w3.org/2000/svg">
<path d="M21.001 8.75C20.591 8.75 20.251 8.41 20.251 8V6C20.251 3.42 18.581 1.75 16.001 1.75H6.00098C3.42098 1.75 1.75098 3.42 1.75098 6V8C1.75098 8.41 1.41098 8.75 1.00098 8.75C0.590977 8.75 0.250977 8.41 0.250977 8V6C0.250977 2.56 2.56098 0.25 6.00098 0.25H16.001C19.441 0.25 21.751 2.56 21.751 6V8C21.751 8.41 21.411 8.75 21.001 8.75Z" fill="#101010"/>
<path d="M16.001 21.75H6.00098C2.56098 21.75 0.250977 19.44 0.250977 16V14C0.250977 13.59 0.590977 13.25 1.00098 13.25C1.41098 13.25 1.75098 13.59 1.75098 14V16C1.75098 18.58 3.42098 20.25 6.00098 20.25H16.001C18.581 20.25 20.251 18.58 20.251 16V14C20.251 13.59 20.591 13.25 21.001 13.25C21.411 13.25 21.751 13.59 21.751 14V16C21.751 19.44 19.441 21.75 16.001 21.75Z" fill="#101010"/>
<path d="M15.4011 7.20996L11.6411 5.17996C11.2411 4.96996 10.7711 4.96996 10.3711 5.17996L6.60113 7.20996C6.33113 7.35996 6.16113 7.64996 6.16113 7.96996C6.16113 8.29996 6.33113 8.58996 6.60113 8.73996L10.3611 10.77C10.5611 10.88 10.7811 10.93 11.0011 10.93C11.2211 10.93 11.4411 10.88 11.6411 10.77L15.4011 8.73996C15.6711 8.58996 15.8411 8.29996 15.8411 7.96996C15.8411 7.64996 15.6711 7.35996 15.4011 7.20996Z" fill="#101010"/>
<path d="M9.74098 11.4701L6.24098 9.72005C5.97098 9.59005 5.66098 9.60005 5.40098 9.76005C5.15098 9.92005 5.00098 10.1901 5.00098 10.4901V13.8001C5.00098 14.3701 5.32098 14.8901 5.83098 15.1401L9.33098 16.8901C9.45098 16.9501 9.58098 16.9801 9.72098 16.9801C9.88098 16.9801 10.031 16.9401 10.171 16.8501C10.431 16.6901 10.581 16.4201 10.581 16.1201V12.8101C10.571 12.2401 10.261 11.7301 9.74098 11.4701Z" fill="#101010"/>
<path d="M16.5909 9.76005C16.3309 9.60005 16.0209 9.59005 15.7509 9.72005L12.2509 11.4701C11.7409 11.7301 11.4209 12.2401 11.4209 12.8101V16.1201C11.4209 16.4201 11.5709 16.6901 11.8309 16.8501C11.9709 16.9401 12.1209 16.9801 12.2809 16.9801C12.4109 16.9801 12.5409 16.9501 12.6709 16.8901L16.1709 15.1401C16.6809 14.8801 17.0009 14.3701 17.0009 13.8001V10.4901C17.0009 10.1901 16.8509 9.92005 16.5909 9.76005Z" fill="#101010"/>
</svg>
