<svg width="22" height="22" viewBox="0 0 22 22" fill="none" xmlns="http://www.w3.org/2000/svg">
<path d="M14.0012 21.75C13.7312 21.75 13.4812 21.6 13.3512 21.37C13.2212 21.13 13.2212 20.85 13.3612 20.61L14.4112 18.86C14.6212 18.51 15.0812 18.39 15.4412 18.6C15.8012 18.81 15.9112 19.27 15.7012 19.63L15.4312 20.08C18.1912 19.43 20.2612 16.95 20.2612 13.99C20.2612 13.58 20.6012 13.24 21.0112 13.24C21.4212 13.24 21.7612 13.58 21.7612 13.99C21.7512 18.27 18.2712 21.75 14.0012 21.75Z" fill="#101010"/>
<path d="M1.00098 8.75C0.590977 8.75 0.250977 8.41 0.250977 8C0.250977 3.73 3.73098 0.25 8.00098 0.25C8.27098 0.25 8.52098 0.4 8.65098 0.63C8.78098 0.87 8.78098 1.15 8.64098 1.39L7.59098 3.14C7.38098 3.49 6.92098 3.61 6.56098 3.39C6.21098 3.18 6.09098 2.72 6.31098 2.36L6.58098 1.91C3.81098 2.56 1.75098 5.04 1.75098 8C1.75098 8.41 1.41098 8.75 1.00098 8.75Z" fill="#101010"/>
<path d="M15.4011 7.20996L11.6411 5.17996C11.2411 4.96996 10.7711 4.96996 10.3711 5.17996L6.60113 7.20996C6.33113 7.35996 6.16113 7.64996 6.16113 7.96996C6.16113 8.29996 6.33113 8.58996 6.60113 8.73996L10.3611 10.77C10.5611 10.88 10.7811 10.93 11.0011 10.93C11.2211 10.93 11.4411 10.88 11.6411 10.77L15.4011 8.73996C15.6711 8.58996 15.8411 8.29996 15.8411 7.96996C15.8411 7.64996 15.6711 7.35996 15.4011 7.20996Z" fill="#101010"/>
<path d="M9.74098 11.4701L6.24098 9.72005C5.97098 9.59005 5.66098 9.60005 5.40098 9.76005C5.15098 9.92005 5.00098 10.1901 5.00098 10.4901V13.8001C5.00098 14.3701 5.32098 14.8901 5.83098 15.1401L9.33098 16.8901C9.45098 16.9501 9.58098 16.9801 9.72098 16.9801C9.88098 16.9801 10.031 16.9401 10.171 16.8501C10.431 16.6901 10.581 16.4201 10.581 16.1201V12.8101C10.571 12.2401 10.261 11.7301 9.74098 11.4701Z" fill="#101010"/>
<path d="M16.5909 9.76005C16.3309 9.60005 16.0209 9.59005 15.7509 9.72005L12.2509 11.4701C11.7409 11.7301 11.4209 12.2401 11.4209 12.8101V16.1201C11.4209 16.4201 11.5709 16.6901 11.8309 16.8501C11.9709 16.9401 12.1209 16.9801 12.2809 16.9801C12.4109 16.9801 12.5409 16.9501 12.6709 16.8901L16.1709 15.1401C16.6809 14.8801 17.0009 14.3701 17.0009 13.8001V10.4901C17.0009 10.1901 16.8509 9.92005 16.5909 9.76005Z" fill="#101010"/>
</svg>
