<svg width="20" height="20" viewBox="0 0 20 20" fill="none" xmlns="http://www.w3.org/2000/svg">
<path fill-rule="evenodd" clip-rule="evenodd" d="M5.81 0H14.19C17.83 0 20 2.17 19.99 5.81V14.19C19.99 17.83 17.82 20 14.18 20H5.81C2.17 20 0 17.83 0 14.18V5.81C0 2.17 2.17 0 5.81 0ZM13.7123 14.7729L10 11.0606L6.28769 14.7729C5.99778 15.0628 5.51694 15.0628 5.22703 14.7729C4.93711 14.483 4.93711 14.0021 5.22703 13.7122L8.93934 9.99992L5.22703 6.28761C4.93712 5.9977 4.93712 5.51686 5.22703 5.22695C5.51694 4.93704 5.99778 4.93704 6.28769 5.22695L10 8.93926L13.7123 5.22695C14.0022 4.93704 14.4831 4.93704 14.773 5.22695C15.0629 5.51686 15.0629 5.9977 14.773 6.28761L11.0607 9.99992L14.773 13.7122C15.0629 14.0021 15.0629 14.483 14.773 14.7729C14.4831 15.0628 14.0022 15.0628 13.7123 14.7729Z" fill="#101010"/>
</svg>
