<svg width="20" height="20" viewBox="0 0 20 20" fill="none" xmlns="http://www.w3.org/2000/svg">
<path d="M11.43 3.43V4.77C8.81 4.98 7.32 6.66 7.32 9.43V14H3.43C1.14 14 0 12.86 0 10.57V3.43C0 1.14 1.14 0 3.43 0H8C10.29 0 11.43 1.14 11.43 3.43Z" fill="#101010"/>
<path d="M16.5703 6H12.0003C9.71031 6 8.57031 7.14 8.57031 9.43V16.57C8.57031 18.86 9.71031 20 12.0003 20H16.5703C18.8603 20 20.0003 18.86 20.0003 16.57V9.43C20.0003 7.14 18.8603 6 16.5703 6ZM16.1303 13.75H15.2503V14.63C15.2503 15.04 14.9103 15.38 14.5003 15.38C14.0903 15.38 13.7503 15.04 13.7503 14.63V13.75H12.8703C12.4603 13.75 12.1203 13.41 12.1203 13C12.1203 12.59 12.4603 12.25 12.8703 12.25H13.7503V11.37C13.7503 10.96 14.0903 10.62 14.5003 10.62C14.9103 10.62 15.2503 10.96 15.2503 11.37V12.25H16.1303C16.5403 12.25 16.8803 12.59 16.8803 13C16.8803 13.41 16.5403 13.75 16.1303 13.75Z" fill="#101010"/>
</svg>
