<svg width="20" height="21" viewBox="0 0 20 21" fill="none" xmlns="http://www.w3.org/2000/svg">
<path d="M12.1297 10.34C12.5197 8.7 11.0897 7.27 9.44974 7.66C8.67974 7.85 8.04974 8.48 7.85974 9.25C7.46974 10.89 8.89974 12.32 10.5397 11.93C11.3197 11.74 11.9497 11.11 12.1297 10.34Z" fill="#101010"/>
<path d="M4.01996 16.97C3.83996 16.97 3.64996 16.9 3.50996 16.77C1.56996 14.97 0.459961 12.43 0.459961 9.79C0.459961 4.53 4.73996 0.25 9.99996 0.25C15.26 0.25 19.54 4.53 19.54 9.79C19.54 12.45 18.47 14.91 16.53 16.74C16.23 17.02 15.75 17.01 15.47 16.71C15.19 16.41 15.2 15.93 15.5 15.65C17.14 14.11 18.04 12.04 18.04 9.8C18.04 5.37 14.43 1.76 9.99996 1.76C5.56996 1.76 1.95996 5.37 1.95996 9.8C1.95996 12.06 2.86996 14.14 4.52996 15.68C4.82996 15.96 4.84996 16.44 4.56996 16.74C4.41996 16.89 4.21996 16.97 4.01996 16.97Z" fill="#101010"/>
<path d="M13.9995 14.3C13.8195 14.3 13.6295 14.23 13.4895 14.1C13.1895 13.82 13.1695 13.34 13.4595 13.04C14.2895 12.16 14.7495 11 14.7495 9.8C14.7495 7.18 12.6195 5.06 10.0095 5.06C7.39953 5.06 5.26953 7.19 5.26953 9.8C5.26953 11.01 5.72953 12.16 6.55953 13.04C6.83953 13.34 6.82953 13.82 6.52953 14.1C6.22953 14.39 5.74953 14.37 5.46953 14.07C4.37953 12.91 3.76953 11.39 3.76953 9.8C3.76953 6.36 6.56953 3.56 10.0095 3.56C13.4495 3.56 16.2495 6.36 16.2495 9.8C16.2495 11.39 15.6495 12.91 14.5495 14.07C14.3995 14.22 14.1995 14.3 13.9995 14.3Z" fill="#101010"/>
<path d="M8.29989 15.66L6.85988 17.45C5.71988 18.88 6.73989 21 8.55989 21H11.4299C13.2599 21 14.2799 18.88 13.1299 17.46L11.6899 15.67C10.8299 14.57 9.16989 14.57 8.29989 15.66Z" fill="#101010"/>
</svg>
