<svg width="20" height="20" viewBox="0 0 20 20" fill="none" xmlns="http://www.w3.org/2000/svg">
<path d="M13.08 9.34H6.92C6.28 9.34 5.65 9.08 5.2 8.62C5.06 8.48 4.94 8.33 4.84 8.16C4.66 7.86 4.34 7.67 3.99 7.67H1.5C0.95 7.67 0.5 8.12 0.5 8.67V15.5C0.5 17.99 2.51 20 5 20H15C17.49 20 19.5 17.99 19.5 15.5V8.67C19.5 8.12 19.05 7.67 18.5 7.67H16C15.64 7.67 15.32 7.87 15.14 8.18C14.72 8.87 13.95 9.34 13.08 9.34Z" fill="#101010"/>
<path d="M15 0H5C2.51 0 0.5 2.01 0.5 4.5V5.17C0.5 5.72 0.95 6.17 1.5 6.17H4C4.36 6.17 4.68 5.97 4.86 5.66C5.28 4.97 6.05 4.5 6.92 4.5H12.91C13.52 4.5 14.4 4.82 14.82 5.25C14.95 5.38 15.05 5.52 15.15 5.67C15.33 5.97 15.65 6.17 16.01 6.17H18.51C19.06 6.17 19.51 5.72 19.51 5.17V4.5C19.5 2.01 17.49 0 15 0Z" fill="#101010"/>
</svg>
