<svg width="20" height="21" viewBox="0 0 20 21" fill="none" xmlns="http://www.w3.org/2000/svg">
<path d="M5.67 0H3.78C2.74 0 1.8 0.42 1.11 1.11C0.42 1.8 0 2.74 0 3.78C0 5.86 1.7 7.56 3.78 7.56H4.72V15.11C4.72 15.84 5.14 16.47 5.75 16.78C6 16.92 6.3 17 6.61 17C6.83 17 7.05 16.96 7.25 16.88C7.98 16.62 8.5 15.93 8.5 15.11V2.83C8.5 1.28 7.22 0 5.67 0ZM3.78 3.97C4.19 3.97 4.53 4.31 4.53 4.72C4.53 5.13 4.19 5.47 3.78 5.47C2.85 5.47 2.09 4.71 2.09 3.77C2.09 2.83 2.85 2.08 3.78 2.08C4.19 2.08 4.53 2.42 4.53 2.83C4.53 3.24 4.19 3.58 3.78 3.58C3.67 3.58 3.59 3.67 3.59 3.77C3.59 3.87 3.67 3.97 3.78 3.97Z" fill="#101010"/>
<path d="M18.89 1.11C18.2 0.42 17.26 0 16.22 0H14.33C12.77 0 11.5 1.28 11.5 2.83V15.11C11.5 15.93 12.02 16.62 12.75 16.88C12.95 16.96 13.17 17 13.39 17C13.7 17 14 16.92 14.25 16.78C14.86 16.47 15.28 15.84 15.28 15.11V7.56H16.22C18.3 7.56 20 5.86 20 3.78C20 2.74 19.58 1.8 18.89 1.11ZM16.22 5.47C15.81 5.47 15.47 5.13 15.47 4.72C15.47 4.31 15.81 3.97 16.22 3.97C16.33 3.97 16.41 3.88 16.41 3.77C16.41 3.66 16.32 3.58 16.22 3.58C15.81 3.58 15.47 3.24 15.47 2.83C15.47 2.42 15.81 2.08 16.22 2.08C17.15 2.08 17.91 2.84 17.91 3.77C17.91 4.7 17.16 5.47 16.22 5.47Z" fill="#101010"/>
<path d="M7.25 16.88V20C7.25 20.41 6.91 20.75 6.5 20.75C6.09 20.75 5.75 20.41 5.75 20V16.78C6 16.92 6.3 17 6.61 17C6.83 17 7.05 16.96 7.25 16.88Z" fill="#101010"/>
<path d="M14.25 16.78V20C14.25 20.41 13.91 20.75 13.5 20.75C13.09 20.75 12.75 20.41 12.75 20V16.88C12.95 16.96 13.17 17 13.39 17C13.7 17 14 16.92 14.25 16.78Z" fill="#101010"/>
</svg>
