<svg width="20" height="20" viewBox="0 0 20 20" fill="none" xmlns="http://www.w3.org/2000/svg">
<path d="M14.19 0H5.81C2.17 0 0 2.17 0 5.81V14.18C0 17.83 2.17 20 5.81 20H14.18C17.82 20 19.99 17.83 19.99 14.19V5.81C20 2.17 17.83 0 14.19 0ZM16.51 11.19C16.51 11.79 16.05 12.09 15.5 11.85L12.15 10.41C11.76 10.25 11.45 10.45 11.45 10.87V12.72C11.45 12.88 11.54 13.11 11.66 13.23L13.3 14.88C13.47 15.05 13.55 15.39 13.47 15.62L13.15 16.58C13.01 17 12.53 17.2 12.14 17L10.47 15.58C10.21 15.37 9.79 15.37 9.54 15.58L7.86 17C7.46 17.2 6.99 17 6.85 16.57L6.53 15.61C6.45 15.38 6.53 15.04 6.7 14.87L8.37 13.23C8.48 13.12 8.58 12.89 8.58 12.72V10.87C8.58 10.45 8.26 10.24 7.88 10.41L4.53 11.85C3.97 12.09 3.52 11.79 3.52 11.19V10.26C3.52 9.78 3.89 9.22 4.33 9.03L8.27 7.33C8.43 7.26 8.57 7.05 8.57 6.87V4.8C8.57 4.12 9.06 3.31 9.67 3.01C9.89 2.9 10.14 2.9 10.36 3.01C10.96 3.32 11.46 4.12 11.46 4.8V6.87C11.46 7.05 11.59 7.26 11.76 7.33L15.7 9.03C16.15 9.22 16.51 9.78 16.51 10.26V11.19Z" fill="#101010"/>
</svg>
