<svg width="16" height="20" viewBox="0 0 16 20" fill="none" xmlns="http://www.w3.org/2000/svg">
<path d="M15.3799 13.98V15.02C15.3799 16.61 14.7799 17.25 13.2599 17.25H1.37988V11.75H13.2599C14.7799 11.75 15.3799 12.39 15.3799 13.98Z" fill="#101010"/>
<path d="M10.3799 5.48V6.52C10.3799 8.11 9.76988 8.75 8.25988 8.75H1.37988V3.25H8.25988C9.76988 3.25 10.3799 3.89 10.3799 5.48Z" fill="#101010"/>
<path d="M1.3801 20C0.970098 20 0.630098 19.66 0.630098 19.25V0.75C0.620098 0.33 0.960098 0 1.3801 0C1.8001 0 2.1301 0.34 2.1301 0.75V19.25C2.1201 19.66 1.7901 20 1.3801 20Z" fill="#101010"/>
</svg>
