<svg width="16" height="20" viewBox="0 0 16 20" fill="none" xmlns="http://www.w3.org/2000/svg">
<path d="M13.4 17.25H2.6C1.1 17.25 0.5 16.61 0.5 15.02V13.98C0.5 12.39 1.1 11.75 2.6 11.75H13.4C14.9 11.75 15.5 12.39 15.5 13.98V15.02C15.5 16.61 14.9 17.25 13.4 17.25Z" fill="#101010"/>
<path d="M8.75 17.25V19.25C8.75 19.66 8.41 20 8 20C7.59 20 7.25 19.66 7.25 19.25V17.25H8.75Z" fill="#101010"/>
<path d="M8.75 8.75H7.25V11.75H8.75V8.75Z" fill="#101010"/>
<path d="M8.75 0.75V3.25H7.25V0.75C7.25 0.34 7.59 0 8 0C8.41 0 8.75 0.34 8.75 0.75Z" fill="#101010"/>
<path d="M11.4 8.75H4.6C3.1 8.75 2.5 8.11 2.5 6.52V5.48C2.5 3.89 3.1 3.25 4.6 3.25H11.4C12.9 3.25 13.5 3.89 13.5 5.48V6.52C13.5 8.11 12.9 8.75 11.4 8.75Z" fill="#101010"/>
</svg>
