<svg width="20" height="16" viewBox="0 0 20 16" fill="none" xmlns="http://www.w3.org/2000/svg">
<path d="M2.75 13.4V2.6C2.75 1.1 3.39 0.5 4.98 0.5H6.02C7.61 0.5 8.25 1.1 8.25 2.6V13.4C8.25 14.9 7.61 15.5 6.02 15.5H4.98C3.39 15.5 2.75 14.9 2.75 13.4Z" fill="#101010"/>
<path d="M2.75 8.75H0.75C0.34 8.75 0 8.41 0 8C0 7.59 0.34 7.25 0.75 7.25H2.75V8.75Z" fill="#101010"/>
<path d="M11.25 7.25H8.25V8.75H11.25V7.25Z" fill="#101010"/>
<path d="M19.25 8.75H16.75V7.25H19.25C19.66 7.25 20 7.59 20 8C20 8.41 19.66 8.75 19.25 8.75Z" fill="#101010"/>
<path d="M11.25 11.4V4.6C11.25 3.1 11.89 2.5 13.48 2.5H14.52C16.11 2.5 16.75 3.1 16.75 4.6V11.4C16.75 12.9 16.11 13.5 14.52 13.5H13.48C11.89 13.5 11.25 12.9 11.25 11.4Z" fill="#101010"/>
</svg>
