<svg width="20" height="20" viewBox="0 0 20 20" fill="none" xmlns="http://www.w3.org/2000/svg">
<path d="M20 3V5C20 6.83 19.17 7.82 17.5 7.97C17.34 7.99 17.17 8 17 8H3C2.83 8 2.66 7.99 2.5 7.97C0.83 7.82 0 6.83 0 5V3C0 1 1 0 3 0H17C19 0 20 1 20 3Z" fill="#101010"/>
<path d="M3.5 9.25C2.95 9.25 2.5 9.7 2.5 10.25V17C2.5 19 3 20 5.5 20H14.5C17 20 17.5 19 17.5 17V10.25C17.5 9.7 17.05 9.25 16.5 9.25H3.5ZM11.82 13.75H8.18C7.77 13.75 7.43 13.41 7.43 13C7.43 12.59 7.77 12.25 8.18 12.25H11.82C12.23 12.25 12.57 12.59 12.57 13C12.57 13.41 12.23 13.75 11.82 13.75Z" fill="#101010"/>
</svg>
