<svg width="20" height="20" viewBox="0 0 20 20" fill="none" xmlns="http://www.w3.org/2000/svg">
<path d="M14.19 0H5.81C2.17 0 0 2.17 0 5.81V14.18C0 17.83 2.17 20 5.81 20H14.18C17.82 20 19.99 17.83 19.99 14.19V5.81C20 2.17 17.83 0 14.19 0ZM17.35 6.84C17.31 6.93 17.26 7.01 17.19 7.08L15.39 8.88C15.24 9.03 15.05 9.1 14.86 9.1C14.67 9.1 14.48 9.03 14.33 8.88C14.04 8.59 14.04 8.11 14.33 7.82L14.85 7.3H14.7C12.6 7.3 10.88 9.01 10.88 11.11V13.07V15.24C10.88 15.65 10.54 15.99 10.13 15.99C9.72 15.99 9.38 15.65 9.38 15.24V13.07V11.11C9.38 9.01 7.67 7.3 5.57 7.3H5.15L5.67 7.82C5.96 8.11 5.96 8.59 5.67 8.88C5.52 9.03 5.33 9.1 5.14 9.1C4.95 9.1 4.76 9.03 4.61 8.88L2.81 7.08C2.52 6.79 2.52 6.31 2.81 6.02L4.61 4.22C4.9 3.93 5.38 3.93 5.67 4.22C5.96 4.51 5.96 4.99 5.67 5.28L5.15 5.8H5.58C7.53 5.8 9.22 6.87 10.14 8.44C11.06 6.87 12.75 5.8 14.71 5.8H14.86L14.34 5.28C14.05 4.99 14.05 4.51 14.34 4.22C14.63 3.93 15.11 3.93 15.4 4.22L17.2 6.02C17.27 6.09 17.32 6.17 17.36 6.26C17.43 6.45 17.43 6.66 17.35 6.84Z" fill="#101010"/>
</svg>
