<svg width="20" height="20" viewBox="0 0 20 20" fill="none" xmlns="http://www.w3.org/2000/svg">
<path d="M14.19 0H5.81C2.17 0 0 2.17 0 5.81V14.18C0 17.83 2.17 20 5.81 20H14.18C17.82 20 19.99 17.83 19.99 14.19V5.81C20 2.17 17.83 0 14.19 0ZM14.82 8.82C14.53 9.11 14.05 9.11 13.76 8.82L10.75 5.81V16C10.75 16.41 10.41 16.75 10 16.75C9.59 16.75 9.25 16.41 9.25 16V5.81L6.24 8.82C5.95 9.11 5.47 9.11 5.18 8.82C5.03 8.67 4.96 8.48 4.96 8.29C4.96 8.1 5.04 7.9 5.18 7.76L9.47 3.47C9.61 3.33 9.8 3.25 10 3.25C10.2 3.25 10.39 3.33 10.53 3.47L14.82 7.76C15.11 8.05 15.11 8.52 14.82 8.82Z" fill="#101010"/>
</svg>
