<svg width="20" height="20" viewBox="0 0 20 20" fill="none" xmlns="http://www.w3.org/2000/svg">
<path d="M10 0C4.48 0 0 4.48 0 10C0 15.52 4.48 20 10 20C15.52 20 20 15.52 20 10C20 4.48 15.52 0 10 0ZM13.53 11.03L10.53 14.03C10.38 14.18 10.19 14.25 10 14.25C9.81 14.25 9.62 14.18 9.47 14.03L6.47 11.03C6.18 10.74 6.18 10.26 6.47 9.97C6.76 9.68 7.24 9.68 7.53 9.97L9.25 11.69V6.5C9.25 6.09 9.59 5.75 10 5.75C10.41 5.75 10.75 6.09 10.75 6.5V11.69L12.47 9.97C12.76 9.68 13.24 9.68 13.53 9.97C13.82 10.26 13.82 10.74 13.53 11.03Z" fill="#101010"/>
</svg>
