<svg width="20" height="20" viewBox="0 0 20 20" fill="none" xmlns="http://www.w3.org/2000/svg">
<path d="M19.75 4.72995C19.75 4.52995 19.67 4.33995 19.53 4.19995L15.81 0.479951C15.52 0.189951 15.04 0.189951 14.75 0.479951C14.46 0.769951 14.46 1.24995 14.75 1.53995L17.2 3.98995H1C0.59 3.98995 0.25 4.32995 0.25 4.73995C0.25 5.14995 0.59 5.47995 1 5.47995H17.19L14.75 7.91995C14.46 8.20995 14.46 8.68995 14.75 8.97995C14.9 9.12995 15.09 9.19995 15.28 9.19995C15.47 9.19995 15.66 9.12995 15.81 8.97995L19.52 5.26995C19.59 5.19995 19.65 5.10995 19.69 5.00995C19.69 4.99995 19.69 4.98995 19.7 4.97995C19.73 4.89995 19.75 4.81995 19.75 4.72995Z" fill="#101010"/>
<path d="M19 14.52H2.81L5.25 12.08C5.54 11.79 5.54 11.31 5.25 11.02C4.96 10.73 4.48 10.73 4.19 11.02L0.48 14.73C0.41 14.8 0.35 14.89 0.31 14.99C0.31 15 0.31 15.01 0.3 15.02C0.27 15.1 0.25 15.19 0.25 15.28C0.25 15.48 0.33 15.67 0.47 15.81L4.19 19.53C4.34 19.68 4.53 19.75 4.72 19.75C4.91 19.75 5.1 19.68 5.25 19.53C5.54 19.24 5.54 18.76 5.25 18.47L2.8 16.02H19C19.41 16.02 19.75 15.68 19.75 15.27C19.75 14.86 19.41 14.52 19 14.52Z" fill="#101010"/>
</svg>
