<svg width="20" height="20" viewBox="0 0 20 20" fill="none" xmlns="http://www.w3.org/2000/svg">
<path d="M14.19 0H5.81C2.17 0 0 2.17 0 5.81V14.18C0 17.83 2.17 20 5.81 20H14.18C17.82 20 19.99 17.83 19.99 14.19V5.81C20 2.17 17.83 0 14.19 0ZM8.99 15C8.99 15.1 8.97 15.19 8.93 15.29C8.85 15.47 8.71 15.62 8.52 15.7C8.43 15.74 8.33 15.76 8.23 15.76C8.13 15.76 8.04 15.74 7.94 15.7C7.85 15.66 7.77 15.61 7.7 15.54L4.75 12.59C4.46 12.3 4.46 11.82 4.75 11.53C5.04 11.24 5.52 11.24 5.81 11.53L7.48 13.2V5C7.48 4.59 7.82 4.25 8.23 4.25C8.64 4.25 8.99 4.59 8.99 5V15ZM15.24 8.48C15.09 8.63 14.9 8.7 14.71 8.7C14.52 8.7 14.33 8.63 14.18 8.48L12.51 6.81V15C12.51 15.41 12.17 15.75 11.76 15.75C11.35 15.75 11.01 15.41 11.01 15V5C11.01 4.9 11.03 4.81 11.07 4.71C11.15 4.53 11.29 4.38 11.48 4.3C11.66 4.22 11.87 4.22 12.05 4.3C12.14 4.34 12.22 4.39 12.29 4.46L15.24 7.41C15.53 7.71 15.53 8.19 15.24 8.48Z" fill="#101010"/>
</svg>
