<svg width="20" height="20" viewBox="0 0 20 20" fill="none" xmlns="http://www.w3.org/2000/svg">
<path d="M8.98043 4.19L5.27043 0.48C5.20043 0.41 5.11043 0.35 5.01043 0.31C5.00043 0.31 4.99043 0.31 4.98043 0.3C4.90043 0.27 4.82043 0.25 4.73043 0.25C4.53043 0.25 4.34043 0.33 4.20043 0.47L0.47043 4.19C0.18043 4.48 0.18043 4.96 0.47043 5.25C0.76043 5.54 1.24043 5.54 1.53043 5.25L3.98043 2.8V19C3.98043 19.41 4.32043 19.75 4.73043 19.75C5.14043 19.75 5.48043 19.41 5.48043 19V2.81L7.92043 5.25C8.07043 5.4 8.26043 5.47 8.45043 5.47C8.64043 5.47 8.83043 5.4 8.98043 5.25C9.27043 4.96 9.27043 4.49 8.98043 4.19Z" fill="#101010"/>
<path d="M19.5302 14.75C19.2402 14.46 18.7602 14.46 18.4702 14.75L16.0202 17.2V1C16.0202 0.59 15.6802 0.25 15.2702 0.25C14.8602 0.25 14.5202 0.59 14.5202 1V17.19L12.0802 14.75C11.7902 14.46 11.3102 14.46 11.0202 14.75C10.7302 15.04 10.7302 15.52 11.0202 15.81L14.7302 19.52C14.8002 19.59 14.8902 19.65 14.9902 19.69C15.0002 19.69 15.0102 19.69 15.0202 19.7C15.1002 19.73 15.1902 19.75 15.2802 19.75C15.4802 19.75 15.6702 19.67 15.8102 19.53L19.5302 15.81C19.8202 15.51 19.8202 15.04 19.5302 14.75Z" fill="#101010"/>
</svg>
