<svg width="21" height="20" viewBox="0 0 21 20" fill="none" xmlns="http://www.w3.org/2000/svg">
<path opacity="0.93" d="M10.002 0C4.48195 0 0.00195312 4.48 0.00195312 10C0.00195312 15.52 4.48195 20 10.002 20C15.522 20 20.002 15.52 20.002 10C20.002 4.48 15.522 0 10.002 0ZM14.372 12.35L12.152 14.57C11.612 15.11 10.912 15.37 10.212 15.37C9.51195 15.37 8.80195 15.1 8.27195 14.57C7.75195 14.05 7.46195 13.36 7.46195 12.63C7.46195 11.9 7.75195 11.2 8.27195 10.69L9.68195 9.28C9.97195 8.99 10.452 8.99 10.742 9.28C11.032 9.57 11.032 10.05 10.742 10.34L9.33195 11.75C9.09195 11.99 8.96195 12.3 8.96195 12.63C8.96195 12.96 9.09195 13.28 9.33195 13.51C9.82195 14 10.612 14 11.102 13.51L13.322 11.29C14.592 10.02 14.592 7.96 13.322 6.69C12.052 5.42 9.99195 5.42 8.72195 6.69L6.30195 9.11C5.79195 9.62 5.51195 10.29 5.51195 11C5.51195 11.71 5.79195 12.39 6.30195 12.89C6.59195 13.18 6.59195 13.66 6.30195 13.95C6.01195 14.24 5.53195 14.24 5.24195 13.95C4.44195 13.18 4.00195 12.13 4.00195 11.01C4.00195 9.89 4.43195 8.84 5.22195 8.05L7.64195 5.63C9.49195 3.78 12.512 3.78 14.362 5.63C16.222 7.48 16.222 10.5 14.372 12.35Z" fill="#101010"/>
</svg>
