<svg width="20" height="22" viewBox="0 0 20 22" fill="none" xmlns="http://www.w3.org/2000/svg">
<path d="M7.54053 15.6701C7.13053 15.6701 6.79053 15.3301 6.79053 14.9201V11.5301L6.60053 11.7501C6.32053 12.0601 5.85053 12.0801 5.54053 11.8101C5.23053 11.5301 5.21053 11.0601 5.48053 10.7501L6.98053 9.08008C7.19053 8.85008 7.52053 8.77008 7.81053 8.88008C8.10053 8.99008 8.29053 9.27008 8.29053 9.58008V14.9301C8.29053 15.3401 7.96053 15.6701 7.54053 15.6701Z" fill="#101010"/>
<path d="M10.0001 2.47998C9.92012 2.47998 9.84012 2.48998 9.76012 2.48998L10.5801 1.46998C10.8401 1.14998 10.7901 0.669981 10.4601 0.419981C10.1401 0.159981 9.67012 0.209981 9.41012 0.539981L7.44012 2.99998C7.43012 3.00998 7.43012 3.01998 7.42012 3.03998C7.39012 3.07998 7.37012 3.12998 7.35012 3.16998C7.33012 3.21998 7.31012 3.25998 7.30012 3.29998C7.29012 3.34998 7.29012 3.38998 7.29012 3.43998C7.29012 3.48998 7.29012 3.53998 7.29012 3.58998C7.29012 3.60998 7.29012 3.61998 7.29012 3.63998C7.30012 3.66998 7.32012 3.68998 7.33012 3.72998C7.35012 3.77998 7.36012 3.81998 7.39012 3.85998C7.42012 3.89998 7.45012 3.93998 7.49012 3.97998C7.51012 3.99998 7.53012 4.02998 7.55012 4.04998C7.56012 4.05998 7.58012 4.05998 7.59012 4.06998C7.62012 4.08998 7.65012 4.10998 7.69012 4.11998C7.74012 4.14998 7.79012 4.16998 7.84012 4.17998C7.88012 4.19998 7.91012 4.19998 7.95012 4.19998C7.98012 4.19998 8.00012 4.20998 8.03012 4.20998C8.05012 4.20998 8.08012 4.19998 8.10012 4.18998C8.13012 4.18998 8.16012 4.18998 8.20012 4.18998C8.84012 4.03998 9.44012 3.96998 10.0101 3.96998C14.5001 3.96998 18.1501 7.61998 18.1501 12.11C18.1501 16.6 14.5001 20.25 10.0101 20.25C5.52012 20.25 1.87012 16.6 1.87012 12.11C1.87012 10.37 2.44012 8.68998 3.52012 7.24998C3.77012 6.91998 3.70012 6.44998 3.37012 6.19998C3.04012 5.94998 2.57012 6.01998 2.32012 6.34998C1.04012 8.04998 0.370117 10.04 0.370117 12.11C0.370117 17.42 4.69012 21.75 10.0101 21.75C15.3301 21.75 19.6501 17.43 19.6501 12.11C19.6501 6.78998 15.3101 2.47998 10.0001 2.47998Z" fill="#101010"/>
<path d="M12 15.6701C10.48 15.6701 9.25 14.4401 9.25 12.9201V11.5701C9.25 10.0501 10.48 8.82007 12 8.82007C13.52 8.82007 14.75 10.0501 14.75 11.5701V12.9201C14.75 14.4401 13.52 15.6701 12 15.6701ZM12 10.3301C11.31 10.3301 10.75 10.8901 10.75 11.5801V12.9301C10.75 13.6201 11.31 14.1801 12 14.1801C12.69 14.1801 13.25 13.6201 13.25 12.9301V11.5801C13.25 10.8901 12.69 10.3301 12 10.3301Z" fill="#101010"/>
</svg>
