<svg width="20" height="22" viewBox="0 0 20 22" fill="none" xmlns="http://www.w3.org/2000/svg">
<path d="M12.4294 15.9198H10.1394C9.72945 15.9198 9.38945 15.5798 9.38945 15.1698C9.38945 14.7598 9.72945 14.4198 10.1394 14.4198H12.4294C12.8594 14.4198 13.2094 14.0698 13.2094 13.6398C13.2094 13.2098 12.8594 12.8598 12.4294 12.8598H10.1394C9.89945 12.8598 9.66944 12.7398 9.52944 12.5498C9.38944 12.3598 9.34945 12.0998 9.42945 11.8698L10.1894 9.57982C10.2894 9.26982 10.5794 9.06982 10.8994 9.06982H13.9594C14.3694 9.06982 14.7094 9.40982 14.7094 9.81982C14.7094 10.2298 14.3694 10.5698 13.9594 10.5698H11.4394L11.1794 11.3598H12.4294C13.6894 11.3598 14.7094 12.3798 14.7094 13.6398C14.7094 14.8998 13.6794 15.9198 12.4294 15.9198Z" fill="#101010"/>
<path d="M7.53943 15.9198C7.12943 15.9198 6.78943 15.5798 6.78943 15.1698V11.7798L6.59943 11.9998C6.31943 12.3098 5.84943 12.3298 5.53943 12.0598C5.23943 11.7798 5.20943 11.3098 5.48943 10.9998L6.98943 9.32984C7.19943 9.09984 7.52943 9.01984 7.81943 9.12984C8.10943 9.23984 8.29943 9.51984 8.29943 9.82984V15.1798C8.28943 15.5898 7.95943 15.9198 7.53943 15.9198Z" fill="#101010"/>
<path d="M9.99961 2.47994C9.91961 2.47994 9.83961 2.48994 9.75961 2.48994L10.5796 1.46994C10.8396 1.14994 10.7896 0.669939 10.4596 0.419939C10.1296 0.169939 9.66961 0.209939 9.40961 0.539939L7.43961 2.99994C7.42961 3.00994 7.42961 3.01994 7.41961 3.03994C7.38961 3.07994 7.36961 3.12994 7.34961 3.16994C7.32961 3.21994 7.30961 3.25994 7.29961 3.29994C7.28961 3.34994 7.28961 3.38994 7.28961 3.43994C7.28961 3.48994 7.28961 3.53994 7.28961 3.58994C7.28961 3.60994 7.28961 3.61994 7.28961 3.63994C7.29961 3.66994 7.31961 3.68994 7.32961 3.71994C7.34961 3.76994 7.36961 3.80994 7.38961 3.85994C7.41961 3.89994 7.44961 3.93994 7.48961 3.96994C7.50961 3.99994 7.51961 4.02994 7.54961 4.04994C7.56961 4.05994 7.57961 4.06994 7.59961 4.07994C7.61961 4.09994 7.64961 4.10994 7.67961 4.11994C7.72961 4.14994 7.78961 4.16994 7.83961 4.17994C7.87961 4.19994 7.90961 4.19994 7.93961 4.19994C7.96961 4.19994 7.98961 4.20994 8.01961 4.20994C8.04961 4.20994 8.06961 4.19994 8.08961 4.18994C8.11961 4.18994 8.14961 4.19994 8.17961 4.18994C8.81961 4.03994 9.41961 3.96994 9.98961 3.96994C14.4796 3.96994 18.1296 7.61994 18.1296 12.1099C18.1296 16.5999 14.4796 20.2499 9.98961 20.2499C5.49961 20.2499 1.84961 16.5999 1.84961 12.1099C1.84961 10.3699 2.41961 8.68994 3.49961 7.24994C3.74961 6.91994 3.67961 6.44994 3.34961 6.19994C3.01961 5.94994 2.54961 6.01994 2.29961 6.34994C1.01961 8.04994 0.349609 10.0399 0.349609 12.1099C0.349609 17.4199 4.66961 21.7499 9.98961 21.7499C15.3096 21.7499 19.6296 17.4299 19.6296 12.1099C19.6296 6.78994 15.3096 2.47994 9.99961 2.47994Z" fill="#101010"/>
</svg>
