<svg width="20" height="20" viewBox="0 0 20 20" fill="none" xmlns="http://www.w3.org/2000/svg">
<path d="M19.25 3.15V5.85C19.25 7.69 18.69 8.25 16.85 8.25H14.15C12.31 8.25 11.75 7.69 11.75 5.85V3.15C11.75 1.31 12.31 0.75 14.15 0.75H16.85C18.69 0.75 19.25 1.31 19.25 3.15Z" fill="#101010"/>
<path d="M8.25 14.15V16.85C8.25 18.69 7.69 19.25 5.85 19.25H3.15C1.31 19.25 0.75 18.69 0.75 16.85V14.15C0.75 12.31 1.31 11.75 3.15 11.75H5.85C7.69 11.75 8.25 12.31 8.25 14.15Z" fill="#101010"/>
<path d="M14.1501 9.75C14.4152 9.75 14.6301 9.9649 14.6301 10.23V11.62C14.6301 13.9 13.9001 14.63 11.6201 14.63H10.2301C9.96502 14.63 9.75012 14.4151 9.75012 14.15C9.75012 11.49 8.51012 10.25 5.85012 10.25C5.58502 10.25 5.37012 10.0351 5.37012 9.77V8.38C5.37012 6.1 6.10012 5.37 8.38012 5.37H9.77012C10.0352 5.37 10.2501 5.5849 10.2501 5.85C10.2501 8.51 11.4901 9.75 14.1501 9.75Z" fill="#101010"/>
</svg>
