<svg width="20" height="22" viewBox="0 0 20 22" fill="none" xmlns="http://www.w3.org/2000/svg">
<path d="M10.3796 15.9198H8.08964C7.67964 15.9198 7.33964 15.5798 7.33964 15.1698C7.33964 14.7598 7.67964 14.4198 8.08964 14.4198H10.3796C10.8096 14.4198 11.1596 14.0698 11.1596 13.6398C11.1596 13.2098 10.8096 12.8598 10.3796 12.8598H8.08964C7.84964 12.8598 7.61964 12.7398 7.47964 12.5498C7.33964 12.3598 7.29964 12.0998 7.37964 11.8698L8.13964 9.57982C8.23964 9.26982 8.52964 9.06982 8.84964 9.06982H11.9096C12.3196 9.06982 12.6596 9.40982 12.6596 9.81982C12.6596 10.2298 12.3196 10.5698 11.9096 10.5698H9.38964L9.12964 11.3598H10.3796C11.6396 11.3598 12.6596 12.3798 12.6596 13.6398C12.6596 14.8998 11.6396 15.9198 10.3796 15.9198Z" fill="#101010"/>
<path d="M9.99961 2.47994C9.91961 2.47994 9.83961 2.48994 9.75961 2.48994L10.5796 1.46994C10.8396 1.14994 10.7896 0.669939 10.4596 0.419939C10.1296 0.169939 9.66961 0.209939 9.40961 0.539939L7.43961 2.99994C7.42961 3.00994 7.42961 3.01994 7.41961 3.03994C7.38961 3.07994 7.36961 3.12994 7.34961 3.16994C7.32961 3.21994 7.30961 3.25994 7.29961 3.29994C7.28961 3.34994 7.28961 3.38994 7.28961 3.43994C7.28961 3.48994 7.28961 3.53994 7.28961 3.58994C7.28961 3.60994 7.28961 3.61994 7.28961 3.63994C7.29961 3.66994 7.31961 3.68994 7.32961 3.71994C7.34961 3.76994 7.36961 3.80994 7.38961 3.85994C7.41961 3.89994 7.44961 3.93994 7.48961 3.96994C7.50961 3.99994 7.51961 4.02994 7.54961 4.04994C7.56961 4.05994 7.57961 4.06994 7.59961 4.07994C7.62961 4.09994 7.64961 4.10994 7.67961 4.11994C7.72961 4.14994 7.78961 4.16994 7.84961 4.17994C7.87961 4.19994 7.90961 4.19994 7.93961 4.19994C7.96961 4.19994 7.98961 4.20994 8.01961 4.20994C8.04961 4.20994 8.06961 4.19994 8.08961 4.18994C8.11961 4.18994 8.14961 4.19994 8.17961 4.18994C8.81961 4.03994 9.41961 3.96994 9.98961 3.96994C14.4796 3.96994 18.1296 7.61994 18.1296 12.1099C18.1296 16.5999 14.4796 20.2499 9.98961 20.2499C5.49961 20.2499 1.84961 16.5999 1.84961 12.1099C1.84961 10.3699 2.41961 8.68994 3.49961 7.24994C3.74961 6.91994 3.67961 6.44994 3.34961 6.19994C3.01961 5.94994 2.54961 6.01994 2.29961 6.34994C1.01961 8.04994 0.349609 10.0399 0.349609 12.1099C0.349609 17.4199 4.66961 21.7499 9.98961 21.7499C15.3096 21.7499 19.6296 17.4299 19.6296 12.1099C19.6296 6.78994 15.3096 2.47994 9.99961 2.47994Z" fill="#101010"/>
</svg>
