<svg width="18" height="21" viewBox="0 0 18 21" fill="none" xmlns="http://www.w3.org/2000/svg">
<path d="M16.9597 7.96002C16.2897 7.22002 15.2797 6.79002 13.8797 6.64002V5.88002C13.8797 4.51002 13.2997 3.19002 12.2797 2.27002C11.2497 1.33002 9.90975 0.890022 8.51975 1.02002C6.12975 1.25002 4.11975 3.56002 4.11975 6.06002V6.64002C2.71975 6.79002 1.70975 7.22002 1.03975 7.96002C0.0697457 9.04002 0.0997458 10.48 0.209746 11.48L0.909746 17.05C1.11975 19 1.90975 21 6.20975 21H11.7897C16.0897 21 16.8797 19 17.0897 17.06L17.7897 11.47C17.8997 10.48 17.9197 9.04002 16.9597 7.96002ZM8.65975 2.41002C9.65975 2.32002 10.6097 2.63002 11.3497 3.30002C12.0797 3.96002 12.4897 4.90002 12.4897 5.88002V6.58002H5.50975V6.06002C5.50975 4.28002 6.97975 2.57002 8.65975 2.41002ZM5.41975 12.15H5.40975C4.85975 12.15 4.40975 11.7 4.40975 11.15C4.40975 10.6 4.85975 10.15 5.40975 10.15C5.96975 10.15 6.41975 10.6 6.41975 11.15C6.41975 11.7 5.96975 12.15 5.41975 12.15ZM12.4197 12.15H12.4097C11.8597 12.15 11.4097 11.7 11.4097 11.15C11.4097 10.6 11.8597 10.15 12.4097 10.15C12.9697 10.15 13.4197 10.6 13.4197 11.15C13.4197 11.7 12.9697 12.15 12.4197 12.15Z" fill="#101010"/>
</svg>
