<svg width="20" height="21" viewBox="0 0 20 21" fill="none" xmlns="http://www.w3.org/2000/svg">
<path d="M17.24 4.58006H16.84L13.46 1.20006C13.19 0.930059 12.75 0.930059 12.47 1.20006C12.2 1.47006 12.2 1.91006 12.47 2.19006L14.86 4.58006H5.14L7.53 2.19006C7.8 1.92006 7.8 1.48006 7.53 1.20006C7.26 0.930059 6.82 0.930059 6.54 1.20006L3.17 4.58006H2.77C1.87 4.58006 0 4.58006 0 7.14006C0 8.11006 0.2 8.75006 0.62 9.17006C0.86 9.42006 1.15 9.55006 1.46 9.62006C1.75 9.69006 2.06 9.70006 2.36 9.70006H17.64C17.95 9.70006 18.24 9.68006 18.52 9.62006C19.36 9.42006 20 8.82006 20 7.14006C20 4.58006 18.13 4.58006 17.24 4.58006Z" fill="#101010"/>
<path d="M17.0897 11H2.90971C2.28971 11 1.81971 11.55 1.91971 12.16L2.75971 17.3C3.03971 19.02 3.78971 21 7.11971 21H12.7297C16.0997 21 16.6997 19.31 17.0597 17.42L18.0697 12.19C18.1897 11.57 17.7197 11 17.0897 11ZM12.8797 15.05L9.62971 18.05C9.48971 18.18 9.30971 18.25 9.11971 18.25C8.92971 18.25 8.73971 18.18 8.58971 18.03L7.08971 16.53C6.79971 16.24 6.79971 15.76 7.08971 15.47C7.38971 15.18 7.85971 15.18 8.15971 15.47L9.14971 16.46L11.8697 13.95C12.1697 13.67 12.6497 13.69 12.9297 13.99C13.2097 14.3 13.1897 14.77 12.8797 15.05Z" fill="#101010"/>
</svg>
