<svg width="20" height="21" viewBox="0 0 20 21" fill="none" xmlns="http://www.w3.org/2000/svg">
<path d="M17.24 4.58006H16.84L13.46 1.20006C13.19 0.930059 12.75 0.930059 12.47 1.20006C12.2 1.47006 12.2 1.91006 12.47 2.19006L14.86 4.58006H5.14L7.53 2.19006C7.8 1.92006 7.8 1.48006 7.53 1.20006C7.26 0.930059 6.82 0.930059 6.54 1.20006L3.17 4.58006H2.77C1.87 4.58006 0 4.58006 0 7.14006C0 8.11006 0.2 8.75006 0.62 9.17006C0.86 9.42006 1.15 9.55006 1.46 9.62006C1.75 9.69006 2.06 9.70006 2.36 9.70006H17.64C17.95 9.70006 18.24 9.68006 18.52 9.62006C19.36 9.42006 20 8.82006 20 7.14006C20 4.58006 18.13 4.58006 17.24 4.58006Z" fill="#101010"/>
<path d="M17.0897 11H2.90971C2.28971 11 1.81971 11.55 1.91971 12.16L2.75971 17.3C3.03971 19.02 3.78971 21 7.11971 21H12.7297C16.0997 21 16.6997 19.31 17.0597 17.42L18.0697 12.19C18.1897 11.57 17.7197 11 17.0897 11ZM11.9197 17.89C11.7797 18.04 11.5897 18.11 11.3897 18.11C11.1997 18.11 11.0097 18.04 10.8597 17.89L10.0197 17.04L9.13971 17.92C8.98971 18.07 8.79971 18.14 8.60971 18.14C8.40971 18.14 8.21971 18.07 8.07971 17.92C7.77971 17.63 7.77971 17.16 8.07971 16.86L8.95971 15.98L8.10971 15.14C7.80971 14.84 7.80971 14.37 8.10971 14.08C8.39971 13.78 8.86971 13.78 9.16971 14.08L10.0197 14.92L10.8297 14.11C11.1297 13.81 11.5997 13.81 11.8897 14.11C12.1897 14.4 12.1897 14.87 11.8897 15.17L11.0797 15.98L11.9197 16.83C12.2197 17.13 12.2197 17.6 11.9197 17.89Z" fill="#101010"/>
</svg>
