<svg width="18" height="21" viewBox="0 0 18 21" fill="none" xmlns="http://www.w3.org/2000/svg">
<path d="M16.9597 7.96002C16.2897 7.22002 15.2797 6.79002 13.8797 6.64002V5.88002C13.8797 4.51002 13.2997 3.19002 12.2797 2.27002C11.2497 1.33002 9.90975 0.890022 8.51975 1.02002C6.12975 1.25002 4.11975 3.56002 4.11975 6.06002V6.64002C2.71975 6.79002 1.70975 7.22002 1.03975 7.96002C0.0697457 9.04002 0.0997458 10.48 0.209746 11.48L0.909746 17.05C1.11975 19 1.90975 21 6.20975 21H11.7897C16.0897 21 16.8797 19 17.0897 17.06L17.7897 11.47C17.8997 10.48 17.9297 9.04002 16.9597 7.96002ZM8.65975 2.41002C9.65975 2.32002 10.6097 2.63002 11.3497 3.30002C12.0797 3.96002 12.4897 4.90002 12.4897 5.88002V6.58002H5.50975V6.06002C5.50975 4.28002 6.97975 2.57002 8.65975 2.41002ZM8.99975 17.58C6.90975 17.58 5.20975 15.88 5.20975 13.79C5.20975 11.7 6.90975 10 8.99975 10C11.0897 10 12.7897 11.7 12.7897 13.79C12.7897 15.88 11.0897 17.58 8.99975 17.58Z" fill="#101010"/>
<path d="M8.42988 15.6401C8.23988 15.6401 8.04988 15.5701 7.89988 15.4201L6.90988 14.4301C6.61988 14.1401 6.61988 13.6601 6.90988 13.3701C7.19988 13.0801 7.67988 13.0801 7.96988 13.3701L8.44988 13.8501L10.0499 12.3701C10.3499 12.0901 10.8299 12.1101 11.1099 12.4101C11.3899 12.7101 11.3699 13.1901 11.0699 13.4701L8.93988 15.4401C8.78988 15.5701 8.60988 15.6401 8.42988 15.6401Z" fill="#101010"/>
</svg>
