<svg width="22" height="16" viewBox="0 0 22 16" fill="none" xmlns="http://www.w3.org/2000/svg">
<path d="M18.14 3.72C18.43 4.47 19.15 5 20 5C21.1 5 22 4.1 22 3C22 1.9 21.1 1 20 1C19.15 1 18.43 1.53 18.14 2.28C18.09 2.27 18.05 2.25 18 2.25H14V1.5C14 0.68 13.32 0 12.5 0H9.5C8.68 0 8 0.68 8 1.5V2.25H4C3.95 2.25 3.91 2.27 3.86 2.28C3.57 1.53 2.85 1 2 1C0.9 1 0 1.9 0 3C0 4.1 0.9 5 2 5C2.85 5 3.57 4.47 3.86 3.72C3.91 3.73 3.95 3.75 4 3.75H6.57C4.52 5.27 3.25 7.79 3.25 10.5C3.25 10.67 3.26 10.83 3.28 11H3C2.17 11 1.5 11.67 1.5 12.5V14.5C1.5 15.33 2.17 16 3 16H5C5.22 16 5.42 15.95 5.61 15.86C6.13 15.64 6.5 15.11 6.5 14.5V12.5C6.5 11.67 5.83 11 5 11H4.77C4.77 10.97 4.78 10.94 4.78 10.91C4.76 10.77 4.76 10.64 4.76 10.5C4.76 8.03 6.03 5.77 8.02 4.6C8.06 5.37 8.71 6 9.5 6H12.5C13.29 6 13.94 5.37 13.99 4.6C15.98 5.77 17.25 8.04 17.25 10.5C17.25 10.64 17.24 10.77 17.23 10.91C17.23 10.94 17.24 10.97 17.24 11H17C16.17 11 15.5 11.67 15.5 12.5V14.5C15.5 15.11 15.87 15.64 16.39 15.86C16.58 15.95 16.78 16 17 16H19C19.83 16 20.5 15.33 20.5 14.5V12.5C20.5 11.67 19.83 11 19 11H18.72C18.74 10.83 18.75 10.67 18.75 10.5C18.75 7.79 17.48 5.27 15.43 3.75H18C18.05 3.75 18.09 3.73 18.14 3.72Z" fill="#101010"/>
</svg>
