<svg width="22" height="21" viewBox="0 0 22 21" fill="none" xmlns="http://www.w3.org/2000/svg">
<path d="M21 2.25H1C0.59 2.25 0.25 1.91 0.25 1.5C0.25 1.09 0.59 0.75 1 0.75H21C21.41 0.75 21.75 1.09 21.75 1.5C21.75 1.91 21.41 2.25 21 2.25Z" fill="#101010"/>
<path d="M2.66992 1.5V13.47C2.66992 14.45 3.12992 15.38 3.91992 15.97L9.12992 19.87C10.2399 20.7 11.7699 20.7 12.8799 19.87L18.0899 15.97C18.8799 15.38 19.3399 14.45 19.3399 13.47V1.5H2.66992ZM14.9999 12.75H6.99992C6.58992 12.75 6.24992 12.41 6.24992 12C6.24992 11.59 6.58992 11.25 6.99992 11.25H14.9999C15.4099 11.25 15.7499 11.59 15.7499 12C15.7499 12.41 15.4099 12.75 14.9999 12.75ZM14.9999 7.75H6.99992C6.58992 7.75 6.24992 7.41 6.24992 7C6.24992 6.59 6.58992 6.25 6.99992 6.25H14.9999C15.4099 6.25 15.7499 6.59 15.7499 7C15.7499 7.41 15.4099 7.75 14.9999 7.75Z" fill="#101010"/>
</svg>
