<svg width="20" height="18" viewBox="0 0 20 18" fill="none" xmlns="http://www.w3.org/2000/svg">
<path d="M15.38 7.75C15.38 7.53 15.14 7.25 14.88 7.25H12.94H12.5V8.25H14.88C15.15 8.25 15.38 8.03 15.38 7.75Z" fill="#101010"/>
<path d="M15.32 9.75H14.87H12.5V10.75H12.94H15.32C15.69 10.75 16 10.52 16 10.25C16 9.98 15.69 9.75 15.32 9.75Z" fill="#101010"/>
<path d="M15.85 0.400024H4.15C1.86 0.400024 0 2.25002 0 4.54002V13.46C0 15.75 1.86 17.6 4.15 17.6H15.85C18.14 17.6 20 15.75 20 13.46V4.54002C20 2.25002 18.14 0.400024 15.85 0.400024ZM7.25 9.75002H3.25C2.84 9.75002 2.5 9.41002 2.5 9.00002C2.5 8.59002 2.84 8.25002 3.25 8.25002H7.25C7.66 8.25002 8 8.59002 8 9.00002C8 9.41002 7.66 9.75002 7.25 9.75002ZM15.32 12.25H14.26V12.75C14.26 13.16 13.92 13.5 13.51 13.5C13.1 13.5 12.76 13.16 12.76 12.75V12.25H11.75H10.75C10.34 12.25 10 11.91 10 11.5C10 11.09 10.34 10.75 10.75 10.75H11V9.00002V7.25002H10.75C10.34 7.25002 10 6.91002 10 6.50002C10 6.09002 10.34 5.75002 10.75 5.75002H11.75H12.76V5.25002C12.76 4.84002 13.1 4.50002 13.51 4.50002C13.92 4.50002 14.26 4.84002 14.26 5.25002V5.75002H14.87C15.94 5.75002 16.87 6.68002 16.87 7.75002C16.87 8.08002 16.78 8.39002 16.64 8.67002C17.16 9.04002 17.5 9.61002 17.5 10.25C17.5 11.35 16.52 12.25 15.32 12.25Z" fill="#101010"/>
</svg>
