<svg width="21" height="12" viewBox="0 0 21 12" fill="none" xmlns="http://www.w3.org/2000/svg">
<path d="M20.9693 6C20.9693 9.31 18.2793 12 14.9693 12C14.2248 12 13.5086 11.8643 12.8504 11.6141C12.5317 11.4929 12.4723 11.0851 12.6941 10.8262C13.8361 9.49377 14.4693 7.78597 14.4693 6C14.4693 4.20821 13.8305 2.49432 12.6972 1.17467C12.4745 0.915425 12.5335 0.506213 12.853 0.384942C13.5104 0.135375 14.2258 0 14.9693 0C18.2793 0 20.9693 2.69 20.9693 6Z" fill="#101010"/>
<path d="M12.9697 6C12.9697 7.77 12.1997 9.37 10.9697 10.46C9.90973 11.42 8.50973 12 6.96973 12C3.65973 12 0.969727 9.31 0.969727 6C0.969727 2.69 3.65973 0 6.96973 0C8.50973 0 9.90973 0.58 10.9697 1.54C12.1997 2.63 12.9697 4.23 12.9697 6Z" fill="#101010"/>
</svg>
