<svg width="20" height="20" viewBox="0 0 20 20" fill="none" xmlns="http://www.w3.org/2000/svg">
<path d="M10.2998 15.32L12.6098 13.39L10.2998 11.3V15.32Z" fill="#101010"/>
<path d="M10.2998 4.67999V8.63999L12.6098 6.51999L10.2998 4.67999Z" fill="#101010"/>
<path d="M14.19 0H5.81C2.17 0 0 2.17 0 5.81V14.18C0 17.83 2.17 20 5.81 20H14.18C17.82 20 19.99 17.83 19.99 14.19V5.81C20 2.17 17.83 0 14.19 0ZM3.25 10C3.25 9.24 3.87 8.62 4.63 8.62C5.39 8.62 6 9.24 6 10C6 10.76 5.38 11.38 4.62 11.38C3.86 11.38 3.25 10.76 3.25 10ZM13.57 14.54L11.16 16.55C10.75 16.9 10.37 17 10.08 17C9.85 17 9.67 16.94 9.57 16.89C9.34 16.78 8.8 16.43 8.8 15.45V12.06L5.9 14.71C5.6 14.99 5.12 14.97 4.84 14.66C4.56 14.35 4.58 13.88 4.89 13.6L8.8 10.02V9.94L4.89 6.4C4.58 6.12 4.56 5.65 4.84 5.34C5.12 5.04 5.6 5.01 5.9 5.29L8.8 7.94V4.56C8.8 3.58 9.34 3.22 9.57 3.12C9.8 3.01 10.42 2.83 11.17 3.46L13.58 5.47C13.91 5.74 14.1 6.13 14.11 6.54C14.12 6.95 13.95 7.35 13.64 7.64L11.04 10L13.63 12.37C13.94 12.66 14.12 13.06 14.11 13.47C14.09 13.88 13.9 14.27 13.57 14.54ZM15.38 11.38C14.62 11.38 14 10.76 14 10C14 9.24 14.62 8.62 15.38 8.62C16.14 8.62 16.76 9.24 16.76 10C16.76 10.76 16.13 11.38 15.38 11.38Z" fill="#101010"/>
</svg>
