<svg width="18" height="20" viewBox="0 0 18 20" fill="none" xmlns="http://www.w3.org/2000/svg">
<path d="M10.47 5.41L12.93 4.2C13.23 4.05 13.31 3.66 13.08 3.42C12.19 2.44 11.29 1.62 10.57 0.999996C10.24 0.719996 9.75 0.949996 9.75 1.38V4.96C9.75 5.33 10.14 5.57 10.47 5.41Z" fill="#101010"/>
<path d="M9.75 17.74V19.39C9.75 19.69 10.02 19.94 10.32 19.89C13.05 19.44 15.33 17.61 16.41 15.15C16.6 14.73 16.14 14.31 15.72 14.51L10.03 17.3C9.86 17.38 9.75 17.55 9.75 17.74Z" fill="#101010"/>
<path d="M8.25046 1.36C8.25046 0.929998 7.76046 0.699998 7.43046 0.969998C5.07046 2.95 0.880462 7.12 0.900462 11.9C0.900462 15.92 3.84046 19.25 7.68046 19.89C7.98046 19.94 8.25046 19.69 8.25046 19.39V1.36Z" fill="#101010"/>
<path d="M10.4402 10.47L15.7302 8.25001C16.0002 8.13001 16.1302 7.82001 16.0002 7.56001C15.6302 6.83001 15.2002 6.12001 14.7302 5.46001C14.5902 5.26001 14.3302 5.20001 14.1102 5.30001L10.0202 7.29001C9.85024 7.37001 9.74023 7.55001 9.74023 7.74001V10.01C9.75023 10.36 10.1102 10.61 10.4402 10.47Z" fill="#101010"/>
<path d="M16.83 12.31C16.99 12.23 17.09 12.08 17.09 11.91C17.09 11.27 17.01 10.64 16.87 10.02C16.8 9.72 16.47 9.56 16.19 9.68L10.05 12.3C9.87 12.38 9.75 12.56 9.75 12.76V14.96C9.75 15.33 10.14 15.57 10.47 15.41L16.37 12.54L16.83 12.31Z" fill="#101010"/>
</svg>
