<svg width="21" height="19" viewBox="0 0 21 19" fill="none" xmlns="http://www.w3.org/2000/svg">
<path d="M21 2.85005V14.7401C21 15.7101 20.21 16.6001 19.24 16.7201L18.93 16.7601C17.29 16.9801 14.98 17.6601 13.12 18.4401C12.47 18.7101 11.75 18.2201 11.75 17.5101V3.60005C11.75 3.23005 11.96 2.89005 12.29 2.71005C14.12 1.72005 16.89 0.840054 18.77 0.680054H18.83C20.03 0.680054 21 1.65005 21 2.85005Z" fill="#101010"/>
<path d="M9.71023 2.71005C7.88023 1.72005 5.11023 0.840054 3.23023 0.680054H3.16023C1.96023 0.680054 0.990234 1.65005 0.990234 2.85005V14.7401C0.990234 15.7101 1.78023 16.6001 2.75023 16.7201L3.06023 16.7601C4.70023 16.9801 7.01023 17.6601 8.87023 18.4401C9.52023 18.7101 10.2402 18.2201 10.2402 17.5101V3.60005C10.2402 3.22005 10.0402 2.89005 9.71023 2.71005ZM4.00023 5.74005H6.25023C6.66023 5.74005 7.00023 6.08005 7.00023 6.49005C7.00023 6.91005 6.66023 7.24005 6.25023 7.24005H4.00023C3.59023 7.24005 3.25023 6.91005 3.25023 6.49005C3.25023 6.08005 3.59023 5.74005 4.00023 5.74005ZM7.00023 10.2401H4.00023C3.59023 10.2401 3.25023 9.91005 3.25023 9.49005C3.25023 9.08005 3.59023 8.74005 4.00023 8.74005H7.00023C7.41023 8.74005 7.75023 9.08005 7.75023 9.49005C7.75023 9.91005 7.41023 10.2401 7.00023 10.2401Z" fill="#101010"/>
</svg>
