<svg width="20" height="20" viewBox="0 0 20 20" fill="none" xmlns="http://www.w3.org/2000/svg">
<path d="M14.19 0H5.81C2.17 0 0 2.17 0 5.81V14.18C0 17.83 2.17 20 5.81 20H14.18C17.82 20 19.99 17.83 19.99 14.19V5.81C20 2.17 17.83 0 14.19 0ZM9.5 15.25C9.5 15.61 9.14 15.85 8.81 15.71C7.6 15.19 6.02 14.71 4.92 14.57L4.73 14.55C4.12 14.47 3.62 13.9 3.62 13.28V5.58C3.62 4.81 4.24 4.24 5 4.3C6.25 4.4 8.1 5 9.26 5.66C9.42 5.75 9.5 5.92 9.5 6.09V15.25ZM16.38 13.27C16.38 13.89 15.88 14.46 15.27 14.54L15.06 14.56C13.97 14.71 12.4 15.18 11.19 15.69C10.86 15.83 10.5 15.59 10.5 15.23V6.08C10.5 5.9 10.59 5.73 10.75 5.64C11.91 4.99 13.72 4.41 14.95 4.3H14.99C15.76 4.3 16.38 4.92 16.38 5.69V13.27Z" fill="#101010"/>
</svg>
