<svg width="20" height="20" viewBox="0 0 20 20" fill="none" xmlns="http://www.w3.org/2000/svg">
<path d="M15 2.96V10.08C15 12.07 13.59 12.84 11.86 11.8L10.54 11C10.24 10.82 9.76 10.82 9.46 11L8.14 11.8C6.41 12.84 5 12.07 5 10.08V2.99C5.01 1 6.01 0 8 0H12C13.98 0 14.98 0.99 15 2.96Z" fill="#101010"/>
<path d="M20 9.89998V12.93C20 17.98 18 20 13 20H7C2 20 0 17.98 0 12.93V9.89998C0 7.20998 0.57 5.37998 1.85 4.25998C2.5 3.70998 3.5 4.18998 3.5 5.03998V10.08C3.5 11.57 4.11 12.77 5.17 13.37C6.24 13.98 7.6 13.87 8.92 13.08L10 12.43L11.09 13.08C11.83 13.53 12.6 13.76 13.32 13.76C13.86 13.76 14.37 13.63 14.83 13.37C15.89 12.77 16.5 11.57 16.5 10.08V5.02998C16.5 4.17998 17.51 3.69998 18.15 4.25998C19.43 5.37998 20 7.20998 20 9.89998Z" fill="#101010"/>
</svg>
