<svg width="20" height="18" viewBox="0 0 20 18" fill="none" xmlns="http://www.w3.org/2000/svg">
<path d="M9.25 3.00008V16.9101C9.25 17.6201 8.53 18.1101 7.88 17.8401C6.02 17.0601 3.71 16.3801 2.07 16.1601L1.76 16.1201C0.79 16.0001 0 15.1101 0 14.1401V2.25008C0 1.05008 0.97 0.0800781 2.17 0.0800781H2.24C4.12 0.240078 6.89 1.12008 8.72 2.11008C9.05 2.29008 9.25 2.62008 9.25 3.00008Z" fill="#101010"/>
<path d="M17.83 0.0800781H17.77C17.53 0.100078 17.27 0.130078 17 0.180078C15.77 0.380078 14.31 0.800078 13 1.32008C12.38 1.57008 11.8 1.84008 11.29 2.11008C10.96 2.29008 10.75 2.63008 10.75 3.00008V16.9101C10.75 17.6201 11.47 18.1101 12.12 17.8401C13.98 17.0601 16.29 16.3801 17.93 16.1601L18.24 16.1201C19.21 16.0001 20 15.1101 20 14.1401V2.25008C20 1.05008 19.03 0.0800781 17.83 0.0800781ZM17.27 10.7301C17.27 11.1201 16.99 11.2901 16.65 11.1001L15.59 10.5101C15.48 10.4501 15.3 10.4501 15.18 10.5101L14.12 11.1001C13.78 11.2901 13.5 11.1201 13.5 10.7301V7.66008C13.5 7.20008 13.88 6.82008 14.34 6.82008H16.44C16.9 6.82008 17.28 7.20008 17.28 7.66008V10.7301H17.27Z" fill="#101010"/>
</svg>
