<svg width="21" height="21" viewBox="0 0 21 21" fill="none" xmlns="http://www.w3.org/2000/svg">
<path d="M15.6014 3.31003L9.95144 0.270029C9.35144 -0.0499707 8.64145 -0.0499707 8.04145 0.270029L2.40145 3.31003C1.99145 3.54003 1.73145 3.98003 1.73145 4.46003C1.73145 4.95003 1.98145 5.39003 2.40145 5.61003L8.05145 8.65003C8.35145 8.81003 8.68145 8.89003 9.00145 8.89003C9.32145 8.89003 9.66144 8.81003 9.95144 8.65003L15.6014 5.61003C16.0114 5.39003 16.2714 4.95003 16.2714 4.46003C16.2714 3.98003 16.0114 3.54003 15.6014 3.31003Z" fill="#101010"/>
<path d="M7.12098 9.71009L1.87098 7.09009C1.46098 6.88009 1.00098 6.91009 0.610976 7.14009C0.230976 7.38009 0.000976562 7.79009 0.000976562 8.24009V13.2001C0.000976562 14.0601 0.480977 14.8301 1.25098 15.2201L6.50098 17.8401C6.68098 17.9301 6.88098 17.9801 7.08098 17.9801C7.31098 17.9801 7.55098 17.9101 7.76098 17.7901C8.14098 17.5501 8.37098 17.1401 8.37098 16.6901V11.7301C8.36098 10.8701 7.88098 10.1001 7.12098 9.71009Z" fill="#101010"/>
<path d="M18.0006 8.24009V10.7001C17.5206 10.5601 17.0106 10.5001 16.5006 10.5001C15.1406 10.5001 13.8106 10.9701 12.7606 11.8101C11.3206 12.9401 10.5006 14.6501 10.5006 16.5001C10.5006 16.9901 10.5606 17.4801 10.6906 17.9501C10.5406 17.9301 10.3906 17.8701 10.2506 17.7801C9.87062 17.5501 9.64062 17.1401 9.64062 16.6901V11.7301C9.64062 10.8701 10.1206 10.1001 10.8806 9.71009L16.1306 7.09009C16.5406 6.88009 17.0006 6.91009 17.3906 7.14009C17.7706 7.38009 18.0006 7.79009 18.0006 8.24009Z" fill="#101010"/>
<path d="M19.6814 13.32C18.7914 12.43 17.6114 11.98 16.4414 12C15.3114 12.01 14.1814 12.46 13.3214 13.32C12.7214 13.91 12.3314 14.65 12.1414 15.42C12.0314 15.84 11.9914 16.27 12.0214 16.7V16.75C12.0214 16.82 12.0314 16.88 12.0414 16.96C12.0414 16.96 12.0414 16.96 12.0514 16.97V17C12.1414 17.98 12.5614 18.93 13.3214 19.68C14.4814 20.84 16.1114 21.23 17.5814 20.86C18.0214 20.75 18.4514 20.57 18.8514 20.33C19.1514 20.16 19.4314 19.94 19.6814 19.68C20.4314 18.93 20.8614 17.98 20.9514 16.99C20.9614 16.99 20.9614 16.97 20.9614 16.96C20.9814 16.89 20.9814 16.81 20.9814 16.74C20.9814 16.73 20.9914 16.71 20.9914 16.69C21.0514 15.48 20.6114 14.24 19.6814 13.32ZM18.2314 18.21C17.9414 18.5 17.4714 18.5 17.1714 18.21L16.5114 17.55L15.8314 18.23C15.5314 18.53 15.0614 18.53 14.7714 18.23C14.4714 17.94 14.4714 17.47 14.7714 17.17L15.4514 16.49L14.7914 15.83C14.5014 15.53 14.5014 15.06 14.7914 14.77C15.0914 14.47 15.5614 14.47 15.8614 14.77L16.5114 15.43L17.1414 14.79C17.4414 14.5 17.9114 14.5 18.2114 14.79C18.5014 15.09 18.5014 15.56 18.2114 15.86L17.5714 16.49L18.2314 17.14C18.5314 17.44 18.5314 17.91 18.2314 18.21Z" fill="#101010"/>
</svg>
