<svg width="21" height="21" viewBox="0 0 21 21" fill="none" xmlns="http://www.w3.org/2000/svg">
<path d="M15.6014 3.31003L9.95144 0.270029C9.35144 -0.0499707 8.64145 -0.0499707 8.04145 0.270029L2.40145 3.31003C1.99145 3.54003 1.73145 3.98003 1.73145 4.46003C1.73145 4.95003 1.98145 5.39003 2.40145 5.61003L8.05145 8.65003C8.35145 8.81003 8.68145 8.89003 9.00145 8.89003C9.32145 8.89003 9.66144 8.81003 9.95144 8.65003L15.6014 5.61003C16.0114 5.39003 16.2714 4.95003 16.2714 4.46003C16.2714 3.98003 16.0114 3.54003 15.6014 3.31003Z" fill="#101010"/>
<path d="M7.12098 9.71009L1.87098 7.09009C1.46098 6.88009 1.00098 6.91009 0.610976 7.14009C0.230976 7.38009 0.000976562 7.79009 0.000976562 8.24009V13.2001C0.000976562 14.0601 0.480977 14.8301 1.25098 15.2201L6.50098 17.8401C6.68098 17.9301 6.88098 17.9801 7.08098 17.9801C7.31098 17.9801 7.55098 17.9101 7.76098 17.7901C8.14098 17.5501 8.37098 17.1401 8.37098 16.6901V11.7301C8.36098 10.8701 7.88098 10.1001 7.12098 9.71009Z" fill="#101010"/>
<path d="M18.0006 8.24009V10.7001C17.5206 10.5601 17.0106 10.5001 16.5006 10.5001C15.1406 10.5001 13.8106 10.9701 12.7606 11.8101C11.3206 12.9401 10.5006 14.6501 10.5006 16.5001C10.5006 16.9901 10.5606 17.4801 10.6906 17.9501C10.5406 17.9301 10.3906 17.8701 10.2506 17.7801C9.87062 17.5501 9.64062 17.1401 9.64062 16.6901V11.7301C9.64062 10.8701 10.1206 10.1001 10.8806 9.71009L16.1306 7.09009C16.5406 6.88009 17.0006 6.91009 17.3906 7.14009C17.7706 7.38009 18.0006 7.79009 18.0006 8.24009Z" fill="#101010"/>
<path d="M19.981 13.65C19.161 12.64 17.911 12 16.501 12C15.441 12 14.461 12.37 13.691 12.99C12.651 13.81 12.001 15.08 12.001 16.5C12.001 17.91 12.641 19.16 13.651 19.98C14.421 20.62 15.421 21 16.501 21C17.641 21 18.671 20.57 19.471 19.88C20.401 19.05 21.001 17.85 21.001 16.5C21.001 15.42 20.621 14.42 19.981 13.65ZM17.531 16.78C17.531 17.04 17.391 17.29 17.171 17.42L15.761 18.26C15.641 18.33 15.511 18.37 15.371 18.37C15.121 18.37 14.871 18.24 14.731 18.01C14.521 17.65 14.631 17.19 14.991 16.98L16.031 16.36V15.1C16.031 14.69 16.371 14.35 16.781 14.35C17.191 14.35 17.531 14.69 17.531 15.1V16.78Z" fill="#101010"/>
</svg>
