<svg width="22" height="20" viewBox="0 0 22 20" fill="none" xmlns="http://www.w3.org/2000/svg">
<path d="M19.1004 4.94C19.1004 5.48 18.8104 5.97 18.3504 6.22L16.6104 7.16L15.1304 7.95L12.0604 9.61C11.7304 9.79 11.3704 9.88 11.0004 9.88C10.6304 9.88 10.2704 9.79 9.94039 9.61L3.65039 6.22C3.19039 5.97 2.90039 5.48 2.90039 4.94C2.90039 4.4 3.19039 3.91 3.65039 3.66L5.62039 2.6L7.19039 1.75L9.94039 0.27C10.6004 -0.09 11.4004 -0.09 12.0604 0.27L18.3504 3.66C18.8104 3.91 19.1004 4.4 19.1004 4.94Z" fill="#101010"/>
<path d="M8.9007 10.79L3.0507 7.87002C2.6007 7.64002 2.0807 7.67002 1.6507 7.93002C1.2207 8.19002 0.970703 8.65002 0.970703 9.15002V14.68C0.970703 15.64 1.5007 16.5 2.3607 16.93L8.2107 19.85C8.4107 19.95 8.6307 20 8.8507 20C9.1107 20 9.3707 19.93 9.6007 19.78C10.0307 19.52 10.2807 19.06 10.2807 18.56V13.03C10.2907 12.08 9.7607 11.22 8.9007 10.79Z" fill="#101010"/>
<path d="M21.0309 9.15V14.68C21.0309 15.63 20.5009 16.49 19.6409 16.92L13.7909 19.85C13.5909 19.95 13.3709 20 13.1509 20C12.8909 20 12.6309 19.93 12.3909 19.78C11.9709 19.52 11.7109 19.06 11.7109 18.56V13.04C11.7109 12.08 12.2409 11.22 13.1009 10.79L15.2509 9.72L16.7509 8.97L18.9509 7.87C19.4009 7.64 19.9209 7.66 20.3509 7.93C20.7709 8.19 21.0309 8.65 21.0309 9.15Z" fill="#101010"/>
<path d="M16.6111 7.16L15.1311 7.95L5.62109 2.6L7.19109 1.75L16.3711 6.93C16.4711 6.99 16.5511 7.07 16.6111 7.16Z" fill="#101010"/>
<path d="M16.751 8.96997V11.24C16.751 11.65 16.411 11.99 16.001 11.99C15.591 11.99 15.251 11.65 15.251 11.24V9.71997L16.751 8.96997Z" fill="#101010"/>
</svg>
