<svg width="20" height="21" viewBox="0 0 20 21" fill="none" xmlns="http://www.w3.org/2000/svg">
<path d="M11.6001 13.51L11.0701 12.98L11.5701 12.48C11.8601 12.19 11.8601 11.71 11.5701 11.42C11.2801 11.13 10.8001 11.13 10.5101 11.42L10.0101 11.92L9.48012 11.39C9.19012 11.1 8.71012 11.1 8.42012 11.39C8.13012 11.68 8.13012 12.16 8.42012 12.45L8.95012 12.98L8.40012 13.53C8.11012 13.82 8.11012 14.3 8.40012 14.59C8.55012 14.74 8.74012 14.81 8.93012 14.81C9.12012 14.81 9.31012 14.74 9.46012 14.59L10.0101 14.04L10.5401 14.57C10.6901 14.72 10.8801 14.79 11.0701 14.79C11.2601 14.79 11.4501 14.72 11.6001 14.57C11.8901 14.28 11.8901 13.81 11.6001 13.51Z" fill="#101010"/>
<path d="M19.09 5.98002C18.24 5.04002 16.83 4.57002 14.76 4.57002H14.52V4.53002C14.52 2.85002 14.52 0.77002 10.76 0.77002H9.24004C5.48004 0.77002 5.48004 2.85002 5.48004 4.53002V4.57002H5.24004C3.17004 4.57002 1.75004 5.04002 0.910038 5.98002C-0.0799625 7.09002 -0.0499626 8.56002 0.0500374 9.57002L0.0600374 9.64002L0.129121 10.446C0.142316 10.5999 0.225857 10.7392 0.355577 10.8232C0.639266 11.0068 0.941094 11.1995 1.23004 11.36C1.37004 11.45 1.52004 11.53 1.67004 11.61C2.80004 12.23 4.01004 12.72 5.25004 13.06C5.28004 15.65 7.40004 17.75 10 17.75C12.62 17.75 14.75 15.62 14.75 13V12.96C16.01 12.58 17.22 12.05 18.35 11.39C18.41 11.36 18.45 11.33 18.5 11.3C18.8949 11.0854 19.3045 10.8045 19.6782 10.5395C19.7941 10.4573 19.869 10.3293 19.8847 10.1881L19.9 10.05L19.95 9.58002C19.96 9.52002 19.96 9.47002 19.97 9.40002C20.05 8.40002 20.03 7.02002 19.09 5.98002ZM6.91004 4.53002C6.91004 2.83002 6.91004 2.19002 9.24004 2.19002H10.76C13.09 2.19002 13.09 2.83002 13.09 4.53002V4.57002H6.91004V4.53002ZM10 16.25C8.35004 16.25 6.98004 15.01 6.78004 13.41C6.76004 13.28 6.75004 13.14 6.75004 13C6.75004 11.21 8.21004 9.75002 10 9.75002C11.79 9.75002 13.25 11.21 13.25 13C13.25 13.12 13.24 13.23 13.23 13.34V13.35C13.05 14.98 11.67 16.25 10 16.25Z" fill="#101010"/>
<path d="M19.0416 12.7311C19.2903 12.5929 19.613 12.7931 19.587 13.0764L19.2316 16.9611C19.0216 18.9611 18.2016 21.0011 13.8016 21.0011H6.18157C1.78157 21.0011 0.961574 18.9611 0.761574 16.9711L0.415706 13.2677C0.388853 12.9802 0.69636 12.786 0.951575 12.9211C1.73157 13.3511 2.54157 13.7311 3.37157 14.0311C3.68157 14.1411 3.90157 14.4011 3.99157 14.7211C4.74157 17.3211 7.16157 19.2511 10.0016 19.2511C12.8916 19.2511 15.3316 17.2811 16.0416 14.5811C16.1216 14.2611 16.3416 14.0011 16.6516 13.8811C17.4916 13.5511 18.2916 13.1611 19.0416 12.7311Z" fill="#101010"/>
</svg>
