<svg width="20" height="21" viewBox="0 0 20 21" fill="none" xmlns="http://www.w3.org/2000/svg">
<path d="M9.12977 14.88C8.87977 14.88 8.62976 14.75 8.48976 14.52C8.27976 14.17 8.38977 13.7 8.74977 13.49L9.63977 12.96V11.88C9.63977 11.47 9.97977 11.13 10.3898 11.13C10.7998 11.13 11.1398 11.47 11.1398 11.88V13.38C11.1398 13.64 10.9998 13.89 10.7798 14.02L9.52976 14.77C9.38976 14.84 9.25977 14.88 9.12977 14.88Z" fill="#101010"/>
<path d="M19.09 5.98002C18.24 5.04002 16.83 4.57002 14.76 4.57002H14.52V4.53002C14.52 2.85002 14.52 0.77002 10.76 0.77002H9.24004C5.48004 0.77002 5.48004 2.85002 5.48004 4.53002V4.57002H5.24004C3.17004 4.57002 1.75004 5.04002 0.910038 5.98002C-0.0799625 7.09002 -0.0499626 8.56002 0.0500374 9.57002L0.0600374 9.64002L0.129121 10.446C0.142316 10.5999 0.225857 10.7392 0.355577 10.8232C0.639266 11.0068 0.941094 11.1995 1.23004 11.36C1.37004 11.45 1.52004 11.53 1.67004 11.61C2.80004 12.23 4.01004 12.72 5.25004 13.06C5.28004 15.65 7.40004 17.75 10 17.75C12.62 17.75 14.75 15.62 14.75 13V12.96C16.01 12.58 17.22 12.05 18.35 11.39C18.41 11.36 18.45 11.33 18.5 11.3C18.8949 11.0854 19.3045 10.8045 19.6782 10.5395C19.7941 10.4573 19.869 10.3293 19.8847 10.1881L19.9 10.05L19.95 9.58002C19.96 9.52002 19.96 9.47002 19.97 9.40002C20.05 8.40002 20.03 7.02002 19.09 5.98002ZM6.91004 4.53002C6.91004 2.83002 6.91004 2.19002 9.24004 2.19002H10.76C13.09 2.19002 13.09 2.83002 13.09 4.53002V4.57002H6.91004V4.53002ZM10 16.25C8.35004 16.25 6.98004 15.01 6.78004 13.41C6.76004 13.28 6.75004 13.14 6.75004 13C6.75004 11.21 8.21004 9.75002 10 9.75002C11.79 9.75002 13.25 11.21 13.25 13C13.25 13.12 13.24 13.23 13.23 13.34V13.35C13.05 14.98 11.67 16.25 10 16.25Z" fill="#101010"/>
<path d="M19.0396 12.73C19.2883 12.5918 19.611 12.792 19.5851 13.0753L19.2296 16.96C19.0196 18.96 18.1996 21 13.7996 21H6.17962C1.77962 21 0.959621 18.96 0.759621 16.97L0.413753 13.2666C0.3869 12.9791 0.694407 12.7849 0.949621 12.92C1.72962 13.35 2.53962 13.73 3.36962 14.03C3.67962 14.14 3.89962 14.4 3.98962 14.72C4.73962 17.32 7.15962 19.25 9.99962 19.25C12.8896 19.25 15.3296 17.28 16.0396 14.58C16.1196 14.26 16.3396 14 16.6496 13.88C17.4896 13.55 18.2896 13.16 19.0396 12.73Z" fill="#101010"/>
</svg>
