<svg width="20" height="20" viewBox="0 0 20 20" fill="none" xmlns="http://www.w3.org/2000/svg">
<path d="M7.5 17.5V16H2.5C1.95 16 1.45 15.78 1.09 15.41C0.72 15.05 0.5 14.55 0.5 14C0.5 12.97 1.3 12.11 2.31 12.01C2.37 12 2.43 12 2.5 12H17.5C17.57 12 17.63 12 17.69 12.01C18.17 12.05 18.59 12.26 18.91 12.59C19.32 12.99 19.54 13.56 19.49 14.18C19.4 15.23 18.45 16 17.39 16H12.5V17.5C12.5 18.88 11.38 20 10 20C8.62 20 7.5 18.88 7.5 17.5Z" fill="#101010"/>
<path d="M15.1896 0H11.2496C10.9696 0 10.7496 0.22 10.7496 0.5V2C10.7496 2.41 10.4096 2.75 9.9996 2.75C9.9096 2.75 9.8296 2.73 9.7496 2.7C9.4596 2.6 9.2496 2.32 9.2496 2V0.5C9.2496 0.22 9.0296 0 8.7496 0H7.2396C6.9596 0 6.7396 0.22 6.7396 0.5V5C6.7396 5.41 6.3996 5.75 5.9896 5.75C5.5796 5.75 5.2396 5.41 5.2396 5V2.75V0.5C5.2396 0.23 5.0396 0.02 4.7696 0H4.7396C2.9996 0.04 1.6496 1.55 1.8296 3.3L2.1996 10.05C2.2296 10.58 2.6696 11 3.1996 11H16.7996C17.3296 11 17.7696 10.58 17.7996 10.05L18.1696 3.3C18.3496 1.53 16.9596 0 15.1896 0Z" fill="#101010"/>
</svg>
