<svg width="21" height="21" viewBox="0 0 21 21" fill="none" xmlns="http://www.w3.org/2000/svg">
<path d="M20.8098 1.94C19.4998 5.21 16.5098 9.48 13.6598 12.27C13.2498 9.69 11.1898 7.67 8.58984 7.31C11.3898 4.45 15.6898 1.42 18.9698 0.0999979C19.5498 -0.120002 20.1298 0.0499981 20.4898 0.409998C20.8698 0.789998 21.0498 1.36 20.8098 1.94Z" fill="#101010"/>
<path d="M12.7801 13.09C12.5801 13.26 12.3801 13.43 12.1801 13.59L10.3901 15.02C10.3901 14.99 10.3801 14.95 10.3801 14.91C10.2401 13.84 9.74012 12.85 8.93012 12.04C8.11012 11.22 7.09012 10.72 5.97012 10.58C5.94012 10.58 5.90012 10.57 5.87012 10.57L7.32012 8.74C7.46012 8.56 7.61012 8.39 7.77012 8.21L8.45012 8.3C10.6001 8.6 12.3301 10.29 12.6701 12.43L12.7801 13.09Z" fill="#101010"/>
<path d="M9.42976 15.62C9.42976 16.72 9.00976 17.77 8.20976 18.56C7.59976 19.18 6.77977 19.6 5.77977 19.72L3.32976 19.99C1.98976 20.14 0.839765 18.99 0.989765 17.64L1.25976 15.18C1.49976 12.99 3.32976 11.59 5.26976 11.55C5.45976 11.54 5.66976 11.55 5.86976 11.57C6.71976 11.68 7.53976 12.07 8.22976 12.75C8.89976 13.42 9.27977 14.21 9.38976 15.04C9.40977 15.24 9.42976 15.43 9.42976 15.62Z" fill="#101010"/>
</svg>
