<svg width="20" height="20" viewBox="0 0 20 20" fill="none" xmlns="http://www.w3.org/2000/svg">
<path d="M14.19 0H5.81C2.17 0 0 2.17 0 5.81V14.18C0 17.83 2.17 20 5.81 20H14.18C17.82 20 19.99 17.83 19.99 14.19V5.81C20 2.17 17.83 0 14.19 0ZM8.49 14.72C8.15 15.06 7.7 15.29 7.15 15.36L5.8 15.51C5.06 15.59 4.43 14.96 4.51 14.21L4.66 12.85C4.79 11.64 5.8 10.87 6.87 10.85C6.97 10.84 7.09 10.85 7.2 10.86C7.67 10.92 8.12 11.14 8.5 11.51C8.87 11.88 9.08 12.32 9.14 12.77C9.15 12.88 9.16 12.99 9.16 13.09C9.16 13.71 8.93 14.28 8.49 14.72ZM15.44 5.55C14.72 7.35 13.07 9.71 11.5 11.25C11.27 9.83 10.14 8.71 8.7 8.51C10.24 6.93 12.62 5.26 14.43 4.53C14.75 4.41 15.07 4.5 15.27 4.7C15.47 4.92 15.57 5.23 15.44 5.55Z" fill="#101010"/>
</svg>
