<svg width="17" height="20" viewBox="0 0 17 20" fill="none" xmlns="http://www.w3.org/2000/svg">
<path d="M2 0H14C15.1 0 16 0.9 16 2V5.32C16 5.87 15.55 6.32 15 6.32H1C0.45 6.32 0 5.87 0 5.32V2C0 0.9 0.9 0 2 0Z" fill="#101010"/>
<path d="M0 8.32001V9.88001C0 10.96 0.58 11.96 1.53 12.49L4.49 14.16C5.12 14.51 5.51 15.18 5.51 15.9V18C5.51 19.1 6.41 20 7.51 20H8.51C9.61 20 10.51 19.1 10.51 18V15.9C10.51 15.18 10.9 14.51 11.53 14.16L14.49 12.49C15.43 11.96 16.02 10.96 16.02 9.88001V8.32001C16.02 7.77001 15.57 7.32001 15.02 7.32001H1C0.45 7.32001 0 7.76001 0 8.32001Z" fill="#101010"/>
</svg>
