<svg width="20" height="21" viewBox="0 0 20 21" fill="none" xmlns="http://www.w3.org/2000/svg">
<path d="M15.0399 8.64L7.68986 1.29L6.81986 0.419999C6.52986 0.129999 6.04986 0.129999 5.75986 0.419999C5.46986 0.709999 5.46986 1.19 5.75986 1.48L6.62986 2.35L0.999857 7.98C0.359857 8.62 0.0198572 9.27 -0.0001428 9.92C-0.0201428 10.61 0.319857 11.3 0.999857 11.99L5.00986 16C6.34986 17.33 7.68986 17.33 9.01986 16L15.0399 9.98C15.2399 9.78 15.3299 9.51 15.3099 9.25C15.2999 9.03 15.1999 8.8 15.0399 8.64Z" fill="#101010"/>
<path d="M14 20.75H1C0.59 20.75 0.25 20.41 0.25 20C0.25 19.59 0.59 19.25 1 19.25H14C14.41 19.25 14.75 19.59 14.75 20C14.75 20.41 14.41 20.75 14 20.75Z" fill="#101010"/>
<path d="M17.35 12.78C17.09 12.5 16.61 12.5 16.35 12.78C16.04 13.12 14.5 14.85 14.5 16.17C14.5 17.47 15.55 18.52 16.85 18.52C18.15 18.52 19.2 17.47 19.2 16.17C19.2 14.86 17.66 13.12 17.35 12.78Z" fill="#101010"/>
</svg>
