<svg width="22" height="21" viewBox="0 0 22 21" fill="none" xmlns="http://www.w3.org/2000/svg">
<path d="M14 5.06997C14 4.39997 13.67 3.77997 13.11 3.40997L9.11 0.739966C8.44 0.289966 7.56 0.289966 6.89 0.739966L2.89 3.40997C2.34 3.77997 2 4.39997 2 5.06997V10.75C2 11.03 2.22 11.25 2.5 11.25H13.5C13.78 11.25 14 11.03 14 10.75V5.06997ZM8 8.74997C7.04 8.74997 6.25 7.95997 6.25 6.99997C6.25 6.03997 7.04 5.24997 8 5.24997C8.96 5.24997 9.75 6.03997 9.75 6.99997C9.75 7.95997 8.96 8.74997 8 8.74997Z" fill="#101010"/>
<path d="M21 19.25H19.73V16.25C20.68 15.94 21.37 15.05 21.37 14V12C21.37 10.69 20.3 9.62 18.99 9.62C17.68 9.62 16.61 10.69 16.61 12V14C16.61 15.04 17.29 15.92 18.22 16.24V19.25H14V13.25C14 12.97 13.78 12.75 13.5 12.75H2.5C2.22 12.75 2 12.97 2 13.25V19.25H1C0.59 19.25 0.25 19.59 0.25 20C0.25 20.41 0.59 20.75 1 20.75H18.93C18.95 20.75 18.96 20.76 18.98 20.76C19 20.76 19.01 20.75 19.03 20.75H21C21.41 20.75 21.75 20.41 21.75 20C21.75 19.59 21.41 19.25 21 19.25ZM7.25 16.25C7.25 15.84 7.59 15.5 8 15.5C8.41 15.5 8.75 15.84 8.75 16.25V19.25H7.25V16.25Z" fill="#101010"/>
</svg>
