<svg width="22" height="21" viewBox="0 0 22 21" fill="none" xmlns="http://www.w3.org/2000/svg">
<path d="M21 19.25H1C0.59 19.25 0.25 19.59 0.25 20C0.25 20.41 0.59 20.75 1 20.75H21C21.41 20.75 21.75 20.41 21.75 20C21.75 19.59 21.41 19.25 21 19.25Z" fill="#101010"/>
<path d="M16 0H6C3 0 2 1.79 2 4V20H20V4C20 1.79 19 0 16 0ZM9 15.25H6C5.59 15.25 5.25 14.91 5.25 14.5C5.25 14.09 5.59 13.75 6 13.75H9C9.41 13.75 9.75 14.09 9.75 14.5C9.75 14.91 9.41 15.25 9 15.25ZM9 10.75H6C5.59 10.75 5.25 10.41 5.25 10C5.25 9.59 5.59 9.25 6 9.25H9C9.41 9.25 9.75 9.59 9.75 10C9.75 10.41 9.41 10.75 9 10.75ZM9 6.25H6C5.59 6.25 5.25 5.91 5.25 5.5C5.25 5.09 5.59 4.75 6 4.75H9C9.41 4.75 9.75 5.09 9.75 5.5C9.75 5.91 9.41 6.25 9 6.25ZM16 15.25H13C12.59 15.25 12.25 14.91 12.25 14.5C12.25 14.09 12.59 13.75 13 13.75H16C16.41 13.75 16.75 14.09 16.75 14.5C16.75 14.91 16.41 15.25 16 15.25ZM16 10.75H13C12.59 10.75 12.25 10.41 12.25 10C12.25 9.59 12.59 9.25 13 9.25H16C16.41 9.25 16.75 9.59 16.75 10C16.75 10.41 16.41 10.75 16 10.75ZM16 6.25H13C12.59 6.25 12.25 5.91 12.25 5.5C12.25 5.09 12.59 4.75 13 4.75H16C16.41 4.75 16.75 5.09 16.75 5.5C16.75 5.91 16.41 6.25 16 6.25Z" fill="#101010"/>
</svg>
