<svg width="18" height="20" viewBox="0 0 18 20" fill="none" xmlns="http://www.w3.org/2000/svg">
<path d="M13 0H5C2.24 0 0 2.24 0 5V15C0 17.76 2.24 20 5 20H13C15.76 20 18 17.76 18 15V5C18 2.24 15.76 0 13 0ZM5.86 16.63C5.67 16.82 5.42 16.92 5.16 16.92C4.89 16.92 4.64 16.82 4.45 16.63C4.26 16.44 4.15 16.19 4.15 15.92C4.15 15.66 4.26 15.4 4.45 15.21C4.54 15.12 4.65 15.05 4.77 15C5.02 14.9 5.29 14.9 5.54 15C5.6 15.02 5.66 15.05 5.71 15.09C5.77 15.12 5.82 15.17 5.86 15.21C6.05 15.4 6.16 15.66 6.16 15.92C6.16 16.19 6.05 16.44 5.86 16.63ZM4.15 11.92C4.15 11.79 4.18 11.66 4.23 11.54C4.28 11.41 4.35 11.31 4.45 11.21C4.68 10.98 5.03 10.87 5.35 10.94C5.41 10.95 5.48 10.97 5.54 11C5.6 11.02 5.66 11.05 5.71 11.09C5.77 11.12 5.82 11.17 5.86 11.21C5.95 11.31 6.03 11.41 6.08 11.54C6.13 11.66 6.15 11.79 6.15 11.92C6.15 12.19 6.05 12.44 5.86 12.63C5.67 12.82 5.42 12.92 5.16 12.92C5.02 12.92 4.89 12.89 4.77 12.84C4.65 12.79 4.54 12.72 4.45 12.63C4.26 12.44 4.15 12.19 4.15 11.92ZM9.86 16.63C9.77 16.72 9.66 16.79 9.54 16.84C9.42 16.89 9.29 16.92 9.15 16.92C8.89 16.92 8.64 16.82 8.45 16.63C8.26 16.44 8.15 16.19 8.15 15.92C8.15 15.85 8.16 15.79 8.17 15.72C8.19 15.66 8.21 15.6 8.23 15.54C8.26 15.48 8.29 15.42 8.32 15.36C8.36 15.31 8.4 15.26 8.45 15.21C8.54 15.12 8.65 15.05 8.77 15C9.14 14.85 9.58 14.93 9.86 15.21C10.05 15.4 10.15 15.66 10.15 15.92C10.15 16.19 10.05 16.44 9.86 16.63ZM9.86 12.63C9.67 12.82 9.42 12.92 9.15 12.92C8.89 12.92 8.64 12.82 8.45 12.63C8.26 12.44 8.15 12.19 8.15 11.92C8.15 11.66 8.26 11.4 8.45 11.21C8.82 10.84 9.49 10.84 9.86 11.21C9.95 11.31 10.03 11.41 10.08 11.54C10.13 11.66 10.15 11.79 10.15 11.92C10.15 12.19 10.05 12.44 9.86 12.63ZM6 8.46C4.97 8.46 4.12 7.62 4.12 6.58V5.58C4.12 4.55 4.96 3.7 6 3.7H12C13.03 3.7 13.88 4.54 13.88 5.58V6.58C13.88 7.61 13.04 8.46 12 8.46H6ZM13.86 16.63C13.67 16.82 13.42 16.92 13.15 16.92C13.02 16.92 12.89 16.89 12.77 16.84C12.65 16.79 12.54 16.72 12.45 16.63C12.26 16.44 12.16 16.19 12.16 15.92C12.16 15.66 12.26 15.4 12.45 15.21C12.72 14.93 13.17 14.85 13.54 15C13.66 15.05 13.77 15.12 13.86 15.21C14.05 15.4 14.15 15.66 14.15 15.92C14.15 16.19 14.05 16.44 13.86 16.63ZM14.08 12.3C14.03 12.42 13.96 12.53 13.86 12.63C13.67 12.82 13.42 12.92 13.15 12.92C12.89 12.92 12.64 12.82 12.45 12.63C12.26 12.44 12.15 12.19 12.15 11.92C12.15 11.66 12.26 11.4 12.45 11.21C12.82 10.84 13.49 10.84 13.86 11.21C14.05 11.4 14.16 11.66 14.16 11.92C14.16 12.05 14.13 12.18 14.08 12.3Z" fill="#101010"/>
</svg>
