<svg width="18" height="21" viewBox="0 0 18 21" fill="none" xmlns="http://www.w3.org/2000/svg">
<path d="M13.7502 2.56V1C13.7502 0.59 13.4102 0.25 13.0002 0.25C12.5902 0.25 12.2502 0.59 12.2502 1V2.5H5.75023V1C5.75023 0.59 5.41023 0.25 5.00023 0.25C4.59023 0.25 4.25023 0.59 4.25023 1V2.56C1.55023 2.81 0.240229 4.42 0.0402292 6.81C0.0202292 7.1 0.260229 7.34 0.540229 7.34H17.4602C17.7502 7.34 17.9902 7.09 17.9602 6.81C17.7602 4.42 16.4502 2.81 13.7502 2.56Z" fill="#101010"/>
<path d="M17 8.83997H1C0.45 8.83997 0 9.28997 0 9.83997V16C0 19 1.5 21 5 21H13C16.5 21 18 19 18 16V9.83997C18 9.28997 17.55 8.83997 17 8.83997ZM12.66 18.53C12.51 18.68 12.32 18.75 12.13 18.75C11.94 18.75 11.75 18.68 11.6 18.53L10.86 17.79C10.28 18.17 9.58 18.4 8.83 18.4C6.79 18.4 5.13 16.74 5.13 14.7C5.13 12.66 6.79 11 8.83 11C10.87 11 12.53 12.66 12.53 14.7C12.53 15.45 12.3 16.15 11.92 16.73L12.66 17.47C12.95 17.76 12.95 18.24 12.66 18.53Z" fill="#101010"/>
</svg>
