<svg width="18" height="21" viewBox="0 0 18 21" fill="none" xmlns="http://www.w3.org/2000/svg">
<path d="M13.7502 2.56V1C13.7502 0.59 13.4102 0.25 13.0002 0.25C12.5902 0.25 12.2502 0.59 12.2502 1V2.5H5.75023V1C5.75023 0.59 5.41023 0.25 5.00023 0.25C4.59023 0.25 4.25023 0.59 4.25023 1V2.56C1.55023 2.81 0.240229 4.42 0.0402292 6.81C0.0202292 7.1 0.260229 7.34 0.540229 7.34H17.4602C17.7502 7.34 17.9902 7.09 17.9602 6.81C17.7602 4.42 16.4502 2.81 13.7502 2.56Z" fill="#101010"/>
<path d="M17 8.83997H1C0.45 8.83997 0 9.28997 0 9.83997V16C0 19 1.5 21 5 21H13C16.5 21 18 19 18 16V9.83997C18 9.28997 17.55 8.83997 17 8.83997ZM6.21 17.21C6.16 17.25 6.11 17.3 6.06 17.33C6 17.37 5.94 17.4 5.88 17.42C5.82 17.45 5.76 17.47 5.7 17.48C5.63 17.49 5.57 17.5 5.5 17.5C5.37 17.5 5.24 17.47 5.12 17.42C4.99 17.37 4.89 17.3 4.79 17.21C4.61 17.02 4.5 16.76 4.5 16.5C4.5 16.24 4.61 15.98 4.79 15.79C4.89 15.7 4.99 15.63 5.12 15.58C5.3 15.5 5.5 15.48 5.7 15.52C5.76 15.53 5.82 15.55 5.88 15.58C5.94 15.6 6 15.63 6.06 15.67C6.11 15.71 6.16 15.75 6.21 15.79C6.39 15.98 6.5 16.24 6.5 16.5C6.5 16.76 6.39 17.02 6.21 17.21ZM6.21 13.71C6.02 13.89 5.76 14 5.5 14C5.24 14 4.98 13.89 4.79 13.71C4.61 13.52 4.5 13.26 4.5 13C4.5 12.74 4.61 12.48 4.79 12.29C5.07 12.01 5.51 11.92 5.88 12.08C6.01 12.13 6.12 12.2 6.21 12.29C6.39 12.48 6.5 12.74 6.5 13C6.5 13.26 6.39 13.52 6.21 13.71ZM9.71 17.21C9.52 17.39 9.26 17.5 9 17.5C8.74 17.5 8.48 17.39 8.29 17.21C8.11 17.02 8 16.76 8 16.5C8 16.24 8.11 15.98 8.29 15.79C8.66 15.42 9.34 15.42 9.71 15.79C9.89 15.98 10 16.24 10 16.5C10 16.76 9.89 17.02 9.71 17.21ZM9.71 13.71C9.66 13.75 9.61 13.79 9.56 13.83C9.5 13.87 9.44 13.9 9.38 13.92C9.32 13.95 9.26 13.97 9.2 13.98C9.13 13.99 9.07 14 9 14C8.74 14 8.48 13.89 8.29 13.71C8.11 13.52 8 13.26 8 13C8 12.74 8.11 12.48 8.29 12.29C8.38 12.2 8.49 12.13 8.62 12.08C8.99 11.92 9.43 12.01 9.71 12.29C9.89 12.48 10 12.74 10 13C10 13.26 9.89 13.52 9.71 13.71ZM13.21 17.21C13.02 17.39 12.76 17.5 12.5 17.5C12.24 17.5 11.98 17.39 11.79 17.21C11.61 17.02 11.5 16.76 11.5 16.5C11.5 16.24 11.61 15.98 11.79 15.79C12.16 15.42 12.84 15.42 13.21 15.79C13.39 15.98 13.5 16.24 13.5 16.5C13.5 16.76 13.39 17.02 13.21 17.21ZM13.21 13.71C13.16 13.75 13.11 13.79 13.06 13.83C13 13.87 12.94 13.9 12.88 13.92C12.82 13.95 12.76 13.97 12.7 13.98C12.63 13.99 12.56 14 12.5 14C12.24 14 11.98 13.89 11.79 13.71C11.61 13.52 11.5 13.26 11.5 13C11.5 12.74 11.61 12.48 11.79 12.29C11.89 12.2 11.99 12.13 12.12 12.08C12.3 12 12.5 11.98 12.7 12.02C12.76 12.03 12.82 12.05 12.88 12.08C12.94 12.1 13 12.13 13.06 12.17C13.11 12.21 13.16 12.25 13.21 12.29C13.39 12.48 13.5 12.74 13.5 13C13.5 13.26 13.39 13.52 13.21 13.71Z" fill="#101010"/>
</svg>
