<svg width="20" height="22" viewBox="0 0 20 22" fill="none" xmlns="http://www.w3.org/2000/svg">
<path d="M13.7502 2.56V1C13.7502 0.59 13.4102 0.25 13.0002 0.25C12.5902 0.25 12.2502 0.59 12.2502 1V2.5H5.75023V1C5.75023 0.59 5.41023 0.25 5.00023 0.25C4.59023 0.25 4.25023 0.59 4.25023 1V2.56C1.55023 2.81 0.240229 4.42 0.0402292 6.81C0.0202292 7.1 0.260229 7.34 0.540229 7.34H17.4602C17.7502 7.34 17.9902 7.09 17.9602 6.81C17.7602 4.42 16.4502 2.81 13.7502 2.56Z" fill="#101010"/>
<path d="M17 8.83997H1C0.45 8.83997 0 9.28997 0 9.83997V16C0 19 1.5 21 5 21H9.93C10.62 21 11.1 20.33 10.88 19.68C10.68 19.1 10.51 18.46 10.51 18C10.51 14.97 12.98 12.5 16.01 12.5C16.3 12.5 16.59 12.52 16.87 12.57C17.47 12.66 18.01 12.19 18.01 11.59V9.84997C18 9.28997 17.55 8.83997 17 8.83997ZM6.21 16.71C6.11 16.8 6 16.87 5.88 16.92C5.76 16.97 5.63 17 5.5 17C5.37 17 5.24 16.97 5.12 16.92C5 16.87 4.89 16.8 4.79 16.71C4.61 16.52 4.5 16.26 4.5 16C4.5 15.94 4.51 15.87 4.52 15.81C4.53 15.74 4.55 15.68 4.58 15.62C4.6 15.56 4.63 15.5 4.67 15.44C4.7 15.39 4.75 15.34 4.79 15.29C4.89 15.2 5 15.13 5.12 15.08C5.36 14.98 5.64 14.98 5.88 15.08C6 15.13 6.11 15.2 6.21 15.29C6.25 15.34 6.3 15.39 6.33 15.44C6.37 15.5 6.4 15.56 6.42 15.62C6.45 15.68 6.47 15.74 6.48 15.81C6.49 15.87 6.5 15.94 6.5 16C6.5 16.26 6.39 16.52 6.21 16.71ZM6.21 13.21C6.11 13.3 6 13.37 5.88 13.42C5.76 13.47 5.63 13.5 5.5 13.5C5.37 13.5 5.24 13.47 5.12 13.42C4.99 13.37 4.89 13.3 4.79 13.21C4.61 13.02 4.5 12.76 4.5 12.5C4.5 12.24 4.61 11.98 4.79 11.79C4.89 11.7 5 11.63 5.12 11.58C5.36 11.48 5.64 11.48 5.88 11.58C6 11.63 6.11 11.7 6.21 11.79C6.25 11.84 6.3 11.89 6.33 11.94C6.37 12 6.4 12.06 6.42 12.12C6.45 12.18 6.47 12.24 6.48 12.3C6.49 12.37 6.5 12.44 6.5 12.5C6.5 12.76 6.39 13.02 6.21 13.21ZM9.71 13.21C9.52 13.39 9.27 13.5 9 13.5C8.87 13.5 8.74 13.47 8.62 13.42C8.49 13.37 8.39 13.3 8.29 13.21C8.11 13.02 8 12.76 8 12.5C8 12.44 8.01 12.37 8.02 12.3C8.03 12.24 8.05 12.18 8.08 12.12C8.1 12.06 8.13 12 8.17 11.94C8.21 11.89 8.25 11.84 8.29 11.79C8.66 11.42 9.33 11.42 9.71 11.79C9.75 11.84 9.79 11.89 9.83 11.94C9.87 12 9.9 12.06 9.92 12.12C9.95 12.18 9.97 12.24 9.98 12.3C9.99 12.37 10 12.44 10 12.5C10 12.76 9.89 13.02 9.71 13.21Z" fill="#101010"/>
<path d="M18.83 15.17C17.27 13.61 14.73 13.61 13.17 15.17C11.61 16.73 11.61 19.27 13.17 20.83C14.73 22.39 17.27 22.39 18.83 20.83C20.39 19.27 20.39 16.73 18.83 15.17ZM18.07 18.56C17.94 18.7 17.75 18.78 17.54 18.78H16.8V19.56C16.8 19.77 16.72 19.95 16.58 20.09C16.44 20.23 16.26 20.31 16.05 20.31C15.64 20.31 15.3 19.97 15.3 19.56V18.78H14.55C14.14 18.78 13.8 18.45 13.8 18.03C13.8 17.62 14.14 17.28 14.55 17.28H15.3V16.57C15.3 16.16 15.63 15.82 16.05 15.82C16.46 15.82 16.8 16.16 16.8 16.57V17.28H17.54C17.96 17.28 18.29 17.62 18.29 18.03C18.29 18.24 18.21 18.43 18.07 18.56Z" fill="#101010"/>
</svg>
