<svg width="20" height="22" viewBox="0 0 20 22" fill="none" xmlns="http://www.w3.org/2000/svg">
<path d="M13.7502 2.56V1C13.7502 0.59 13.4102 0.25 13.0002 0.25C12.5902 0.25 12.2502 0.59 12.2502 1V2.5H5.75023V1C5.75023 0.59 5.41023 0.25 5.00023 0.25C4.59023 0.25 4.25023 0.59 4.25023 1V2.56C1.55023 2.81 0.240229 4.42 0.0402292 6.81C0.0202292 7.1 0.260229 7.34 0.540229 7.34H17.4602C17.7502 7.34 17.9902 7.09 17.9602 6.81C17.7602 4.42 16.4502 2.81 13.7502 2.56Z" fill="#101010"/>
<path d="M16 14C13.79 14 12 15.79 12 18C12 18.75 12.21 19.46 12.58 20.06C13.27 21.22 14.54 22 16 22C17.46 22 18.73 21.22 19.42 20.06C19.79 19.46 20 18.75 20 18C20 15.79 18.21 14 16 14ZM18.07 17.57L15.94 19.54C15.8 19.67 15.61 19.74 15.43 19.74C15.24 19.74 15.05 19.67 14.9 19.52L13.91 18.53C13.62 18.24 13.62 17.76 13.91 17.47C14.2 17.18 14.68 17.18 14.97 17.47L15.45 17.95L17.05 16.47C17.35 16.19 17.83 16.21 18.11 16.51C18.39 16.81 18.37 17.28 18.07 17.57Z" fill="#101010"/>
<path d="M17 8.83997H1C0.45 8.83997 0 9.28997 0 9.83997V16C0 19 1.5 21 5 21H9.93C10.62 21 11.1 20.33 10.88 19.68C10.68 19.1 10.51 18.46 10.51 18C10.51 14.97 12.98 12.5 16.01 12.5C16.3 12.5 16.59 12.52 16.87 12.57C17.47 12.66 18.01 12.19 18.01 11.59V9.84997C18 9.28997 17.55 8.83997 17 8.83997ZM6.21 17.21C6.02 17.39 5.76 17.5 5.5 17.5C5.24 17.5 4.98 17.39 4.79 17.21C4.61 17.02 4.5 16.76 4.5 16.5C4.5 16.24 4.61 15.98 4.79 15.79C4.89 15.7 4.99 15.63 5.12 15.58C5.49 15.42 5.93 15.51 6.21 15.79C6.39 15.98 6.5 16.24 6.5 16.5C6.5 16.76 6.39 17.02 6.21 17.21ZM6.21 13.71C6.16 13.75 6.11 13.79 6.06 13.83C6 13.87 5.94 13.9 5.88 13.92C5.82 13.95 5.76 13.97 5.7 13.98C5.63 13.99 5.56 14 5.5 14C5.24 14 4.98 13.89 4.79 13.71C4.61 13.52 4.5 13.26 4.5 13C4.5 12.74 4.61 12.48 4.79 12.29C5.02 12.06 5.37 11.95 5.7 12.02C5.76 12.03 5.82 12.05 5.88 12.08C5.94 12.1 6 12.13 6.06 12.17C6.11 12.21 6.16 12.25 6.21 12.29C6.39 12.48 6.5 12.74 6.5 13C6.5 13.26 6.39 13.52 6.21 13.71ZM9.71 13.71C9.52 13.89 9.26 14 9 14C8.74 14 8.48 13.89 8.29 13.71C8.11 13.52 8 13.26 8 13C8 12.74 8.11 12.48 8.29 12.29C8.67 11.92 9.34 11.92 9.71 12.29C9.89 12.48 10 12.74 10 13C10 13.26 9.89 13.52 9.71 13.71Z" fill="#101010"/>
</svg>
