<svg width="21" height="20" viewBox="0 0 21 20" fill="none" xmlns="http://www.w3.org/2000/svg">
<path d="M19.7699 0.230005C19.4699 -0.0699951 18.9799 -0.0699951 18.6799 0.230005L0.229883 18.69C-0.0701172 18.99 -0.0701172 19.48 0.229883 19.78C0.379883 19.92 0.569883 20 0.769883 20C0.969883 20 1.15988 19.92 1.30988 19.77L19.7699 1.31C20.0799 1.01 20.0799 0.530005 19.7699 0.230005Z" fill="#101010"/>
<path d="M14.5502 3.11L13.8302 1.66C13.3702 0.75 12.1702 0 11.1502 0H8.86017C7.83017 0 6.63017 0.75 6.17017 1.66L5.45017 3.11C5.17017 3.65 4.61017 4 4.00017 4C1.83017 4 0.110168 5.83 0.250168 7.99L0.770168 16.25C0.820168 17.1 1.03017 17.89 1.48017 18.52L16.0002 4C15.3902 4 14.8302 3.65 14.5502 3.11ZM7.50017 8.75H4.50017C4.09017 8.75 3.75017 8.41 3.75017 8C3.75017 7.59 4.09017 7.25 4.50017 7.25H7.50017C7.91017 7.25 8.25017 7.59 8.25017 8C8.25017 8.41 7.91017 8.75 7.50017 8.75Z" fill="#101010"/>
<path d="M19.7503 7.99006L19.2303 16.2501C19.1003 18.3101 18.0003 20.0001 15.2403 20.0001H5.41026C4.52026 20.0001 4.07026 18.9201 4.70026 18.2901L7.17026 15.8201C7.48026 15.5101 7.96026 15.4701 8.35026 15.6901C9.04026 16.0801 9.87026 16.2301 10.7503 16.0401C12.0203 15.7701 13.0503 14.7301 13.3003 13.4501C13.4703 12.5901 13.3203 11.7801 12.9403 11.1101C12.7203 10.7201 12.7503 10.2301 13.0703 9.92006L17.5703 5.42006C17.9803 5.01006 18.6703 5.06006 19.0203 5.53006C19.5403 6.21006 19.8103 7.07006 19.7503 7.99006Z" fill="#101010"/>
</svg>
