<svg width="18" height="22" viewBox="0 0 18 22" fill="none" xmlns="http://www.w3.org/2000/svg">
<path d="M4.5 3.5H4.25V1C4.25 0.59 3.91 0.25 3.5 0.25C3.09 0.25 2.75 0.59 2.75 1V3.5H2.5C0.91 3.5 0 4.41 0 6V12C0 13.59 0.91 14.5 2.5 14.5H2.75V21C2.75 21.41 3.09 21.75 3.5 21.75C3.91 21.75 4.25 21.41 4.25 21V14.5H4.5C6.09 14.5 7 13.59 7 12V6C7 4.41 6.09 3.5 4.5 3.5Z" fill="#101010"/>
<path d="M15.5 7.5H15.25V1C15.25 0.59 14.91 0.25 14.5 0.25C14.09 0.25 13.75 0.59 13.75 1V7.5H13.5C11.91 7.5 11 8.41 11 10V16C11 17.59 11.91 18.5 13.5 18.5H13.75V21C13.75 21.41 14.09 21.75 14.5 21.75C14.91 21.75 15.25 21.41 15.25 21V18.5H15.5C17.09 18.5 18 17.59 18 16V10C18 8.41 17.09 7.5 15.5 7.5Z" fill="#101010"/>
</svg>
