<svg width="22" height="18" viewBox="0 0 22 18" fill="none" xmlns="http://www.w3.org/2000/svg">
<path d="M21.75 14.5C21.75 14.91 21.41 15.25 21 15.25H14V15.5C14 17 13.1 17.5 12 17.5H6C4.9 17.5 4 17 4 15.5V15.25H1C0.59 15.25 0.25 14.91 0.25 14.5C0.25 14.09 0.59 13.75 1 13.75H4V13.5C4 12 4.9 11.5 6 11.5H12C13.1 11.5 14 12 14 13.5V13.75H21C21.41 13.75 21.75 14.09 21.75 14.5Z" fill="#101010"/>
<path d="M21.75 3.5C21.75 3.91 21.41 4.25 21 4.25H18V4.5C18 6 17.1 6.5 16 6.5H10C8.9 6.5 8 6 8 4.5V4.25H1C0.59 4.25 0.25 3.91 0.25 3.5C0.25 3.09 0.59 2.75 1 2.75H8V2.5C8 1 8.9 0.5 10 0.5H16C17.1 0.5 18 1 18 2.5V2.75H21C21.41 2.75 21.75 3.09 21.75 3.5Z" fill="#101010"/>
</svg>
