<svg width="21" height="19" viewBox="0 0 21 19" fill="none" xmlns="http://www.w3.org/2000/svg">
<path d="M0.00195312 9.46V14.46C0.00195312 16.75 1.85195 18.6 4.14195 18.6H15.852C18.142 18.6 20.002 16.74 20.002 14.45V9.46C20.002 8.79 19.462 8.25 18.792 8.25H1.21195C0.541953 8.25 0.00195312 8.79 0.00195312 9.46ZM6.00195 15.25H4.00195C3.59195 15.25 3.25195 14.91 3.25195 14.5C3.25195 14.09 3.59195 13.75 4.00195 13.75H6.00195C6.41195 13.75 6.75195 14.09 6.75195 14.5C6.75195 14.91 6.41195 15.25 6.00195 15.25ZM12.502 15.25H8.50195C8.09195 15.25 7.75195 14.91 7.75195 14.5C7.75195 14.09 8.09195 13.75 8.50195 13.75H12.502C12.912 13.75 13.252 14.09 13.252 14.5C13.252 14.91 12.912 15.25 12.502 15.25Z" fill="#101010"/>
<path d="M11.502 2.61002V5.54002C11.502 6.21002 10.962 6.75002 10.292 6.75002H1.21195C0.531953 6.75002 0.00195312 6.19002 0.00195312 5.52002C0.0119531 4.39002 0.461953 3.36002 1.21195 2.61002C1.96195 1.86002 3.00195 1.40002 4.14195 1.40002H10.292C10.962 1.40002 11.502 1.94002 11.502 2.61002Z" fill="#101010"/>
<path d="M17.972 0H15.032C13.762 0 13.002 0.76 13.002 2.03V4.97C13.002 6.24 13.762 7 15.032 7H17.972C19.242 7 20.002 6.24 20.002 4.97V2.03C20.002 0.76 19.242 0 17.972 0ZM18.342 4.49C18.452 4.62 18.512 4.76 18.512 4.93C18.512 5.07 18.452 5.23 18.342 5.34C18.112 5.57 17.722 5.57 17.492 5.34L16.502 4.35L15.522 5.35C15.292 5.58 14.902 5.58 14.662 5.34C14.432 5.11 14.432 4.72 14.662 4.49L15.662 3.51L14.672 2.52C14.442 2.29 14.432 1.9 14.662 1.66C14.892 1.42 15.282 1.43 15.522 1.67L16.502 2.66L17.502 1.66C17.732 1.43 18.122 1.43 18.352 1.66C18.462 1.79 18.512 1.94 18.522 2.1C18.522 2.24 18.462 2.4 18.362 2.52L17.362 3.52L18.342 4.49Z" fill="#101010"/>
</svg>
