<svg width="21" height="18" viewBox="0 0 21 18" fill="none" xmlns="http://www.w3.org/2000/svg">
<path d="M20.002 4.55002C20.002 5.21002 19.462 5.75002 18.802 5.75002H1.20195C0.541953 5.75002 0.00195312 5.21002 0.00195312 4.55002V4.54002C0.00195312 2.25002 1.85195 0.400024 4.14195 0.400024H15.852C18.142 0.400024 20.002 2.26002 20.002 4.55002Z" fill="#101010"/>
<path d="M0.00195312 8.45V13.46C0.00195312 15.75 1.85195 17.6 4.14195 17.6H15.852C18.142 17.6 20.002 15.74 20.002 13.45V8.45C20.002 7.79 19.462 7.25 18.802 7.25H1.20195C0.541953 7.25 0.00195312 7.79 0.00195312 8.45ZM6.00195 14.25H4.00195C3.59195 14.25 3.25195 13.91 3.25195 13.5C3.25195 13.09 3.59195 12.75 4.00195 12.75H6.00195C6.41195 12.75 6.75195 13.09 6.75195 13.5C6.75195 13.91 6.41195 14.25 6.00195 14.25ZM12.502 14.25H8.50195C8.09195 14.25 7.75195 13.91 7.75195 13.5C7.75195 13.09 8.09195 12.75 8.50195 12.75H12.502C12.912 12.75 13.252 13.09 13.252 13.5C13.252 13.91 12.912 14.25 12.502 14.25Z" fill="#101010"/>
</svg>
