<svg width="22" height="20" viewBox="0 0 22 20" fill="none" xmlns="http://www.w3.org/2000/svg">
<path d="M17.002 12C14.792 12 13.002 13.79 13.002 16C13.002 16.75 13.212 17.46 13.582 18.06C14.272 19.22 15.542 20 17.002 20C18.462 20 19.732 19.22 20.422 18.06C20.792 17.46 21.002 16.75 21.002 16C21.002 13.79 19.212 12 17.002 12ZM19.072 15.57L16.942 17.54C16.802 17.67 16.612 17.74 16.432 17.74C16.242 17.74 16.052 17.67 15.902 17.52L14.912 16.53C14.622 16.24 14.622 15.76 14.912 15.47C15.202 15.18 15.682 15.18 15.972 15.47L16.452 15.95L18.052 14.47C18.352 14.19 18.832 14.21 19.112 14.51C19.392 14.81 19.372 15.28 19.072 15.57Z" fill="#101010"/>
<path d="M20.002 4.55002V5.00002C20.002 5.55002 19.552 6.00002 19.002 6.00002H1.00195C0.451953 6.00002 0.00195312 5.55002 0.00195312 5.00002V4.54002C0.00195312 2.25002 1.85195 0.400024 4.14195 0.400024H15.852C18.142 0.400024 20.002 2.26002 20.002 4.55002Z" fill="#101010"/>
<path d="M0.00195312 8.49999V13.46C0.00195312 15.75 1.85195 17.6 4.14195 17.6H10.402C10.982 17.6 11.482 17.11 11.432 16.53C11.292 15 11.782 13.34 13.142 12.02C13.702 11.47 14.392 11.05 15.142 10.81C16.392 10.41 17.602 10.46 18.672 10.82C19.322 11.04 20.002 10.57 20.002 9.87999V8.48999C20.002 7.93999 19.552 7.48999 19.002 7.48999H1.00195C0.451953 7.49999 0.00195312 7.94999 0.00195312 8.49999ZM6.00195 14.25H4.00195C3.59195 14.25 3.25195 13.91 3.25195 13.5C3.25195 13.09 3.59195 12.75 4.00195 12.75H6.00195C6.41195 12.75 6.75195 13.09 6.75195 13.5C6.75195 13.91 6.41195 14.25 6.00195 14.25Z" fill="#101010"/>
</svg>
