<svg width="22" height="22" viewBox="0 0 22 22" fill="none" xmlns="http://www.w3.org/2000/svg">
<path d="M11 14.7V14.81C11 15.09 10.78 15.31 10.5 15.31H1.5C1.22 15.31 1 15.09 1 14.81V14.7C1 12.94 1.44 12.5 3.22 12.5H8.78C10.56 12.5 11 12.94 11 14.7Z" fill="#101010"/>
<path d="M1.5 16.3101C1.22 16.3101 1 16.5301 1 16.8101V17.8101V18.8001C1 20.5601 1.44 21.0001 3.22 21.0001H8.78C10.56 21.0001 11 20.5601 11 18.8001V17.8101V16.8101C11 16.5301 10.78 16.3101 10.5 16.3101H1.5Z" fill="#101010"/>
<path fill-rule="evenodd" clip-rule="evenodd" d="M21 13.25C21.4142 13.25 21.75 13.5858 21.75 14C21.75 18.2842 18.2842 21.75 14 21.75C13.7298 21.75 13.4805 21.6047 13.3474 21.3695C13.2142 21.1344 13.2179 20.8458 13.3569 20.6141L14.4069 18.8641C14.62 18.5089 15.0807 18.3938 15.4359 18.6069C15.7911 18.82 15.9062 19.2807 15.6931 19.6359L15.4218 20.0881C18.1909 19.4456 20.25 16.9666 20.25 14C20.25 13.5858 20.5858 13.25 21 13.25Z" fill="#101010"/>
<path fill-rule="evenodd" clip-rule="evenodd" d="M6.57819 1.91194C3.8091 2.55437 1.75 5.03342 1.75 8C1.75 8.41421 1.41421 8.75 1 8.75C0.585786 8.75 0.25 8.41421 0.25 8C0.25 3.71579 3.71579 0.25 8 0.25C8.2702 0.25 8.51952 0.395344 8.65265 0.630476C8.78578 0.865607 8.78214 1.15417 8.64312 1.38587L7.59312 3.13587C7.38001 3.49106 6.91931 3.60623 6.56413 3.39312C6.20894 3.18001 6.09377 2.71931 6.30688 2.36413L6.57819 1.91194Z" fill="#101010"/>
<path d="M17.5 10C19.9853 10 22 7.98528 22 5.5C22 3.01472 19.9853 1 17.5 1C15.0147 1 13 3.01472 13 5.5C13 7.98528 15.0147 10 17.5 10Z" fill="#101010"/>
</svg>
