<svg width="21" height="20" viewBox="0 0 21 20" fill="none" xmlns="http://www.w3.org/2000/svg">
<path d="M20.002 19.25C20.002 19.66 19.662 20 19.252 20H0.751953C0.341953 20 0.00195312 19.66 0.00195312 19.25C0.00195312 18.84 0.341953 18.5 0.751953 18.5H19.252C19.662 18.5 20.002 18.84 20.002 19.25Z" fill="#101010"/>
<path d="M13.3919 2.52001L2.65189 13.26C2.24189 13.67 1.58189 13.67 1.18189 13.26H1.17189C-0.218105 11.86 -0.218105 9.60001 1.17189 8.21001L8.32189 1.06001C9.72189 -0.33999 11.9819 -0.33999 13.3819 1.06001C13.7919 1.45001 13.7919 2.12001 13.3919 2.52001Z" fill="#101010"/>
<path d="M18.8219 6.49001L15.7719 3.44001C15.3619 3.03001 14.7019 3.03001 14.3019 3.44001L3.56189 14.18C3.15189 14.58 3.15189 15.24 3.56189 15.65L6.61189 18.71C8.01189 20.1 10.2719 20.1 11.6719 18.71L18.8119 11.56C20.2319 10.16 20.2319 7.89001 18.8219 6.49001ZM10.7619 15.52L9.55189 16.74C9.30189 16.99 8.89189 16.99 8.63189 16.74C8.38189 16.49 8.38189 16.08 8.63189 15.82L9.85189 14.6C10.0919 14.36 10.5119 14.36 10.7619 14.6C11.0119 14.85 11.0119 15.28 10.7619 15.52ZM14.7319 11.55L12.2919 14C12.0419 14.24 11.6319 14.24 11.3719 14C11.1219 13.75 11.1219 13.34 11.3719 13.08L13.8219 10.63C14.0619 10.39 14.4819 10.39 14.7319 10.63C14.9819 10.89 14.9819 11.3 14.7319 11.55Z" fill="#101010"/>
</svg>
