<svg width="21" height="21" viewBox="0 0 21 21" fill="none" xmlns="http://www.w3.org/2000/svg">
<path d="M17.272 2.65002L12.172 7.75002H1.20195C0.541953 7.75002 0.00195312 7.21002 0.00195312 6.55002V6.54002C0.00195312 4.25002 1.85195 2.40002 4.14195 2.40002H15.852C16.352 2.40002 16.832 2.49002 17.272 2.65002Z" fill="#101010"/>
<path d="M10.672 9.25L5.17195 14.75H4.00195C3.59195 14.75 3.25195 15.09 3.25195 15.5C3.25195 15.81 3.45195 16.09 3.73195 16.19L1.38195 18.54C0.531953 17.79 0.00195312 16.69 0.00195312 15.46V10.45C0.00195312 9.79 0.541953 9.25 1.20195 9.25H10.672Z" fill="#101010"/>
<path d="M20.0021 10V15.46C20.0021 17.75 18.1521 19.6 15.8621 19.6H6.81212C5.92212 19.6 5.47212 18.52 6.10212 17.89L7.45212 16.54C7.64212 16.35 7.89212 16.25 8.16212 16.25H12.5021C12.9121 16.25 13.2521 15.91 13.2521 15.5C13.2521 15.09 12.9121 14.75 12.5021 14.75H11.6621C10.7721 14.75 10.3221 13.67 10.9521 13.04L14.4121 9.58C14.7921 9.21 15.3021 9 15.8321 9H19.0021C19.5521 9 20.0021 9.45 20.0021 10Z" fill="#101010"/>
<path d="M19.7718 1.23C19.4718 0.930005 18.9818 0.930005 18.6818 1.23L0.231836 19.69C-0.0681641 19.99 -0.0681641 20.48 0.231836 20.78C0.381836 20.92 0.571836 21 0.771836 21C0.971836 21 1.16184 20.92 1.31184 20.77L19.7718 2.31C20.0818 2.01 20.0818 1.53 19.7718 1.23Z" fill="#101010"/>
<path d="M19.772 2.31L18.612 3.47L14.332 7.75L1.31201 20.77C1.16201 20.92 0.972012 21 0.772012 21C0.572012 21 0.382012 20.92 0.232012 20.77C-0.0779883 20.47 -0.0779883 19.99 0.232012 19.69L1.38201 18.54L3.73201 16.19L17.272 2.65L18.692 1.23C18.992 0.919998 19.472 0.919998 19.772 1.23C20.082 1.53 20.082 2.01 19.772 2.31Z" fill="#101010"/>
<path d="M20.002 6.41002C20.002 5.52002 18.922 5.07002 18.292 5.70002L18.002 6.00002L17.712 6.29002C17.082 6.92002 17.522 8.00002 18.412 8.00002H19.002C19.552 8.00002 20.002 7.55002 20.002 7.00002V6.41002Z" fill="#101010"/>
</svg>
