<svg width="20" height="20" viewBox="0 0 20 20" fill="none" xmlns="http://www.w3.org/2000/svg">
<path d="M16.6704 0H14.7704C12.5904 0 11.4404 1.15 11.4404 3.33V5.23C11.4404 7.41 12.5904 8.56 14.7704 8.56H16.6704C18.8504 8.56 20.0004 7.41 20.0004 5.23V3.33C20.0004 1.15 18.8504 0 16.6704 0Z" fill="#101010"/>
<path d="M5.24 11.4299H3.34C1.15 11.4299 0 12.5799 0 14.7599V16.6599C0 18.8499 1.15 19.9999 3.33 19.9999H5.23C7.41 19.9999 8.56 18.8499 8.56 16.6699V14.7699C8.57 12.5799 7.42 11.4299 5.24 11.4299Z" fill="#101010"/>
<path d="M4.29 8.58C6.6593 8.58 8.58 6.6593 8.58 4.29C8.58 1.9207 6.6593 0 4.29 0C1.9207 0 0 1.9207 0 4.29C0 6.6593 1.9207 8.58 4.29 8.58Z" fill="#101010"/>
<path d="M15.7099 19.9999C18.0792 19.9999 19.9999 18.0792 19.9999 15.7099C19.9999 13.3406 18.0792 11.4199 15.7099 11.4199C13.3406 11.4199 11.4199 13.3406 11.4199 15.7099C11.4199 18.0792 13.3406 19.9999 15.7099 19.9999Z" fill="#101010"/>
</svg>
