<svg width="20" height="20" viewBox="0 0 20 20" fill="none" xmlns="http://www.w3.org/2000/svg">
<path d="M13 20C12.59 20 12.25 19.66 12.25 19.25V0.75C12.25 0.34 12.59 0 13 0C13.41 0 13.75 0.34 13.75 0.75V19.25C13.75 19.66 13.41 20 13 20Z" fill="#101010"/>
<path d="M16 18H13V2H16C18.21 2 20 3.79 20 6V14C20 16.21 18.21 18 16 18Z" fill="#101010"/>
<path d="M4 2C1.79 2 0 3.79 0 6V14C0 16.21 1.79 18 4 18H9C9.55 18 10 17.55 10 17V3C10 2.45 9.55 2 9 2H4ZM5.75 13.5C5.75 13.91 5.41 14.25 5 14.25C4.59 14.25 4.25 13.91 4.25 13.5V6.5C4.25 6.09 4.59 5.75 5 5.75C5.41 5.75 5.75 6.09 5.75 6.5V13.5Z" fill="#101010"/>
</svg>
