<svg width="18" height="20" viewBox="0 0 18 20" fill="none" xmlns="http://www.w3.org/2000/svg">
<path d="M11.3498 0H6.64977C5.60977 0 4.75977 0.84 4.75977 1.88V2.82C4.75977 3.86 5.59977 4.7 6.63977 4.7H11.3498C12.3898 4.7 13.2298 3.86 13.2298 2.82V1.88C13.2398 0.84 12.3898 0 11.3498 0Z" fill="#101010"/>
<path d="M14.2391 2.81998C14.2391 4.40998 12.9391 5.70998 11.3491 5.70998H6.64906C5.05906 5.70998 3.75906 4.40998 3.75906 2.81998C3.75906 2.25998 3.15906 1.90998 2.65906 2.16998C1.24906 2.91998 0.289062 4.40998 0.289062 6.11998V15.53C0.289062 17.99 2.29906 20 4.75906 20H13.2391C15.6991 20 17.7091 17.99 17.7091 15.53V6.11998C17.7091 4.40998 16.7491 2.91998 15.3391 2.16998C14.8391 1.90998 14.2391 2.25998 14.2391 2.81998ZM11.5291 14.69C11.3791 14.84 11.1891 14.91 10.9991 14.91C10.8091 14.91 10.6191 14.84 10.4691 14.69L9.01906 13.24L7.52906 14.73C7.37906 14.88 7.18906 14.95 6.99906 14.95C6.80906 14.95 6.61906 14.88 6.46906 14.73C6.17906 14.44 6.17906 13.96 6.46906 13.67L7.95906 12.18L6.50906 10.73C6.21906 10.44 6.21906 9.95998 6.50906 9.66998C6.79906 9.37998 7.27906 9.37998 7.56906 9.66998L9.01906 11.12L10.4191 9.71998C10.7091 9.42998 11.1891 9.42998 11.4791 9.71998C11.7691 10.01 11.7691 10.49 11.4791 10.78L10.0791 12.18L11.5291 13.63C11.8191 13.92 11.8191 14.39 11.5291 14.69Z" fill="#101010"/>
</svg>
