<svg width="18" height="20" viewBox="0 0 18 20" fill="none" xmlns="http://www.w3.org/2000/svg">
<path d="M11.3498 0H6.64977C5.60977 0 4.75977 0.84 4.75977 1.88V2.82C4.75977 3.86 5.59977 4.7 6.63977 4.7H11.3498C12.3898 4.7 13.2298 3.86 13.2298 2.82V1.88C13.2398 0.84 12.3898 0 11.3498 0Z" fill="#101010"/>
<path d="M14.2391 2.81998C14.2391 4.40998 12.9391 5.70998 11.3491 5.70998H6.64906C5.05906 5.70998 3.75906 4.40998 3.75906 2.81998C3.75906 2.25998 3.15906 1.90998 2.65906 2.16998C1.24906 2.91998 0.289062 4.40998 0.289062 6.11998V15.53C0.289062 17.99 2.29906 20 4.75906 20H13.2391C15.6991 20 17.7091 17.99 17.7091 15.53V6.11998C17.7091 4.40998 16.7491 2.91998 15.3391 2.16998C14.8391 1.90998 14.2391 2.25998 14.2391 2.81998ZM12.7491 15C12.7491 15.41 12.4091 15.75 11.9991 15.75H8.99906C8.58906 15.75 8.24906 15.41 8.24906 15C8.24906 14.59 8.58906 14.25 8.99906 14.25H10.1891L5.46906 9.52998C5.17906 9.23998 5.17906 8.75998 5.46906 8.46998C5.75906 8.17998 6.23906 8.17998 6.52906 8.46998L11.2491 13.19V12C11.2491 11.59 11.5891 11.25 11.9991 11.25C12.4091 11.25 12.7491 11.59 12.7491 12V15Z" fill="#101010"/>
</svg>
