<svg width="18" height="20" viewBox="0 0 18 20" fill="none" xmlns="http://www.w3.org/2000/svg">
<path d="M11.3498 0H6.64977C5.60977 0 4.75977 0.84 4.75977 1.88V2.82C4.75977 3.86 5.59977 4.7 6.63977 4.7H11.3498C12.3898 4.7 13.2298 3.86 13.2298 2.82V1.88C13.2398 0.84 12.3898 0 11.3498 0Z" fill="#101010"/>
<path d="M14.2391 2.81998C14.2391 4.40998 12.9391 5.70998 11.3491 5.70998H6.64906C5.05906 5.70998 3.75906 4.40998 3.75906 2.81998C3.75906 2.25998 3.15906 1.90998 2.65906 2.16998C1.24906 2.91998 0.289062 4.40998 0.289062 6.11998V15.53C0.289062 17.99 2.29906 20 4.75906 20H13.2391C15.6991 20 17.7091 17.99 17.7091 15.53V6.11998C17.7091 4.40998 16.7491 2.91998 15.3391 2.16998C14.8391 1.90998 14.2391 2.25998 14.2391 2.81998ZM12.5291 15.53C12.3791 15.68 12.1891 15.75 11.9991 15.75C11.8091 15.75 11.6191 15.68 11.4691 15.53L6.74906 10.81V12C6.74906 12.41 6.40906 12.75 5.99906 12.75C5.58906 12.75 5.24906 12.41 5.24906 12V8.99998C5.24906 8.58998 5.58906 8.24998 5.99906 8.24998H8.99906C9.40906 8.24998 9.74906 8.58998 9.74906 8.99998C9.74906 9.40998 9.40906 9.74998 8.99906 9.74998H7.80906L12.5291 14.47C12.8191 14.76 12.8191 15.24 12.5291 15.53Z" fill="#101010"/>
</svg>
