<svg width="20" height="20" viewBox="0 0 20 20" fill="none" xmlns="http://www.w3.org/2000/svg">
<path d="M14.19 0H5.81C2.17 0 0 2.17 0 5.81V14.18C0 17.83 2.17 20 5.81 20H14.18C17.82 20 19.99 17.83 19.99 14.19V5.81C20 2.17 17.83 0 14.19 0ZM13.36 12.3C13.65 12.59 13.65 13.07 13.36 13.36C13.21 13.51 13.02 13.58 12.83 13.58C12.64 13.58 12.45 13.51 12.3 13.36L10 11.06L7.7 13.36C7.55 13.51 7.36 13.58 7.17 13.58C6.98 13.58 6.79 13.51 6.64 13.36C6.35 13.07 6.35 12.59 6.64 12.3L8.94 10L6.64 7.7C6.35 7.41 6.35 6.93 6.64 6.64C6.93 6.35 7.41 6.35 7.7 6.64L10 8.94L12.3 6.64C12.59 6.35 13.07 6.35 13.36 6.64C13.65 6.93 13.65 7.41 13.36 7.7L11.06 10L13.36 12.3Z" fill="#101010"/>
</svg>
