<svg width="18" height="22" viewBox="0 0 18 22" fill="none" xmlns="http://www.w3.org/2000/svg">
<path d="M16.1997 13.78C15.3397 14.57 14.1997 15.01 13.0297 15H3.36973C-0.700272 14.71 -0.710272 8.8 3.36973 8.51H3.40973C0.619728 0.749999 12.4097 -2.34 13.7597 5.8C17.5297 6.28 19.0597 11.29 16.1997 13.78Z" fill="#101010"/>
<path d="M15.75 20C15.75 20.41 15.41 20.75 15 20.75H11C10.95 20.75 10.91 20.75 10.86 20.73C10.57 21.47 9.84 22 9 22C8.16 22 7.43 21.47 7.14 20.73C7.09 20.75 7.05 20.75 7 20.75H3C2.59 20.75 2.25 20.41 2.25 20C2.25 19.59 2.59 19.25 3 19.25H7C7.05 19.25 7.09 19.25 7.14 19.27C7.34 18.75 7.75 18.34 8.27 18.14C8.25 18.09 8.25 18.05 8.25 18V15H9.75V18C9.75 18.05 9.75 18.09 9.73 18.14C10.25 18.34 10.66 18.75 10.86 19.27C10.91 19.25 10.95 19.25 11 19.25H15C15.41 19.25 15.75 19.59 15.75 20Z" fill="#101010"/>
</svg>
