<svg width="20" height="18" viewBox="0 0 20 18" fill="none" xmlns="http://www.w3.org/2000/svg">
<path d="M18.6098 7.82996C17.8398 6.90996 16.8498 6.30996 15.6998 6.04996C15.4398 4.88996 14.9898 3.88996 14.3298 3.05996C14.3098 3.02996 14.2898 2.99996 14.2698 2.97996C12.0698 0.319962 8.46977 0.329962 6.03977 1.70996C3.95977 2.89996 2.18977 5.40996 3.11977 8.98996C0.989765 9.50996 0.00976562 11.37 0.00976562 13.05C0.00976562 14.93 1.23977 17.04 3.97977 17.24H14.3198C14.3298 17.24 14.3498 17.24 14.3598 17.24C15.7798 17.24 17.1398 16.71 18.1898 15.75C20.6998 13.53 20.3698 9.90996 18.6098 7.82996Z" fill="#101010"/>
<path d="M19.7602 5.74001C19.7602 6.08001 19.7202 6.41001 19.6202 6.73001C18.8902 5.88001 17.9602 5.25001 16.9302 4.86001C16.6102 3.86001 16.1502 2.97001 15.5502 2.19001C15.5202 2.15001 15.4902 2.11001 15.4502 2.06001C15.6402 2.02001 15.8402 2.01001 16.0302 2.01001C18.0902 2.01001 19.7602 3.68001 19.7602 5.74001Z" fill="#101010"/>
</svg>
