<svg width="20" height="18" viewBox="0 0 20 18" fill="none" xmlns="http://www.w3.org/2000/svg">
<path d="M19.2698 5.76001C19.2698 6.78001 18.7998 7.70001 18.0398 8.30001C17.4898 8.75001 16.7798 9.02001 16.0098 9.02001C14.2198 9.02001 12.7598 7.56001 12.7598 5.77001C12.7598 4.88001 13.1198 4.07001 13.7198 3.48001V3.47001C14.3098 2.88001 15.1198 2.51001 16.0098 2.51001C17.8098 2.51001 19.2698 3.97001 19.2698 5.76001Z" fill="#101010"/>
<path d="M18.1798 15.73C17.1298 16.69 15.7798 17.22 14.3498 17.22H3.96977C1.22977 17.02 0.00976562 14.91 0.00976562 13.03C0.00976562 11.35 0.979766 9.48997 3.10977 8.96997C2.17977 5.38997 3.95977 2.88997 6.03977 1.69997C8.09977 0.52997 10.9998 0.33997 13.1798 1.94997C12.9898 2.08997 12.8198 2.23997 12.6498 2.40997L12.2198 2.85997V2.91997C11.5998 3.72997 11.2598 4.71997 11.2598 5.75997C11.2598 8.37997 13.3998 10.51 16.0198 10.51C17.0998 10.51 18.1498 10.14 18.9698 9.46997C19.1198 9.34997 19.2698 9.21997 19.3998 9.07997C20.3898 11.16 20.2498 13.92 18.1798 15.73Z" fill="#101010"/>
</svg>
