<svg width="20" height="20" viewBox="0 0 20 20" fill="none" xmlns="http://www.w3.org/2000/svg">
<path d="M10 9.53C7.24 9.53 5 11.77 5 14.53C5 15.27 5.16 15.97 5.46 16.59C5.54 16.77 5.63 16.94 5.73 17.1C6.59 18.55 8.18 19.53 10 19.53C11.82 19.53 13.41 18.55 14.27 17.1C14.37 16.94 14.46 16.77 14.54 16.59C14.84 15.97 15 15.27 15 14.53C15 11.77 12.76 9.53 10 9.53ZM11.5 16.14C11.35 16.29 11.16 16.36 10.97 16.36C10.78 16.36 10.59 16.29 10.44 16.14L9.91 15.61L9.36 16.16C9.21 16.31 9.02 16.38 8.83 16.38C8.64 16.38 8.45 16.31 8.3 16.16C8.01 15.87 8.01 15.39 8.3 15.1L8.85 14.55L8.32 14.02C8.03 13.73 8.03 13.25 8.32 12.96C8.61 12.67 9.09 12.67 9.38 12.96L9.91 13.49L10.41 12.99C10.7 12.7 11.18 12.7 11.47 12.99C11.76 13.28 11.76 13.76 11.47 14.05L10.97 14.55L11.5 15.08C11.79 15.38 11.79 15.85 11.5 16.14Z" fill="#101010"/>
<path d="M18.2003 15.29C17.8403 15.61 17.4503 15.88 17.0303 16.1C16.6703 16.28 16.3103 15.93 16.3703 15.53C16.4103 15.24 16.4303 14.94 16.4303 14.63C16.4303 11.05 13.5103 8.13 9.93032 8.13C6.35032 8.13 3.43031 11.05 3.43031 14.63C3.43031 15.09 3.48031 15.53 3.57031 15.96C3.64031 16.31 3.37031 16.66 3.02031 16.57C-0.929686 15.61 -0.949686 9.53 3.47031 9.21H3.52031C0.310314 0.290002 13.8503 -3.28 15.4003 6.1C19.7303 6.65 21.4803 12.42 18.2003 15.29Z" fill="#101010"/>
</svg>
