<svg width="20" height="20" viewBox="0 0 20 20" fill="none" xmlns="http://www.w3.org/2000/svg">
<path d="M14.19 0H5.81C2.17 0 0 2.17 0 5.81V14.18C0 17.83 2.17 20 5.81 20H14.18C17.82 20 19.99 17.83 19.99 14.19V5.81C20 2.17 17.83 0 14.19 0ZM7.94 11.27C7.26 12.29 6.32 13.12 5.22 13.67C5.12 13.72 5 13.75 4.89 13.75C4.61 13.75 4.35 13.6 4.22 13.34C4.03 12.97 4.18 12.52 4.56 12.33C5.43 11.9 6.17 11.24 6.7 10.44C6.88 10.17 6.88 9.83 6.7 9.56C6.16 8.76 5.42 8.1 4.56 7.67C4.18 7.49 4.03 7.04 4.22 6.66C4.4 6.29 4.85 6.14 5.22 6.33C6.32 6.88 7.26 7.71 7.94 8.73C8.46 9.5 8.46 10.5 7.94 11.27ZM15 13.75H11C10.59 13.75 10.25 13.41 10.25 13C10.25 12.59 10.59 12.25 11 12.25H15C15.41 12.25 15.75 12.59 15.75 13C15.75 13.41 15.41 13.75 15 13.75Z" fill="#101010"/>
</svg>
