<svg width="21" height="21" viewBox="0 0 21 21" fill="none" xmlns="http://www.w3.org/2000/svg">
<path d="M4 4.12012C3.59 4.12012 3.25 3.78012 3.25 3.37012V1.62012C3.25 1.21012 3.59 0.870117 4 0.870117C4.41 0.870117 4.75 1.21012 4.75 1.62012V3.37012C4.75 3.79012 4.41 4.12012 4 4.12012Z" fill="#101010"/>
<path d="M8 4.12012C7.59 4.12012 7.25 3.78012 7.25 3.37012V1.62012C7.25 1.21012 7.59 0.870117 8 0.870117C8.41 0.870117 8.75 1.21012 8.75 1.62012V3.37012C8.75 3.79012 8.41 4.12012 8 4.12012Z" fill="#101010"/>
<path d="M12 4.12012C11.59 4.12012 11.25 3.78012 11.25 3.37012V1.62012C11.25 1.21012 11.59 0.870117 12 0.870117C12.41 0.870117 12.75 1.21012 12.75 1.62012V3.37012C12.75 3.79012 12.41 4.12012 12 4.12012Z" fill="#101010"/>
<path d="M20.25 12.25C20.25 9.63001 18.22 7.51001 15.66 7.29001C14.92 6.08001 13.6 5.26001 12.08 5.26001H4.71C2.39 5.26001 0.5 7.15001 0.5 9.47001V10H16.29V9.47001C16.29 9.28001 16.26 9.09001 16.23 8.91001C17.68 9.34001 18.75 10.66 18.75 12.25C18.75 13.82 17.71 15.13 16.29 15.57V11H0.5V16.79C0.5 19.11 2.39 21 4.71 21H12.08C14.28 21 16.07 19.3 16.25 17.14C18.53 16.68 20.25 14.66 20.25 12.25Z" fill="#101010"/>
</svg>
