<svg width="20" height="20" viewBox="0 0 20 20" fill="none" xmlns="http://www.w3.org/2000/svg">
<path d="M19.9218 14.75C19.5918 17.41 17.4118 19.59 14.7518 19.92C13.1418 20.12 11.6418 19.68 10.4718 18.82C9.80182 18.33 9.96181 17.29 10.7618 17.05C13.7718 16.14 16.1418 13.76 17.0618 10.75C17.3018 9.95997 18.3418 9.79997 18.8318 10.46C19.6818 11.64 20.1218 13.14 19.9218 14.75Z" fill="#101010"/>
<path d="M7.99195 0C3.58195 0 0.00195312 3.58 0.00195312 7.99C0.00195312 12.4 3.58195 15.98 7.99195 15.98C12.402 15.98 15.982 12.4 15.982 7.99C15.972 3.58 12.402 0 7.99195 0ZM7.05195 6.87L9.46195 7.71C10.332 8.02 10.752 8.63 10.752 9.57C10.752 10.65 9.89195 11.54 8.84195 11.54H8.75195V11.59C8.75195 12 8.41195 12.34 8.00195 12.34C7.59195 12.34 7.25195 12 7.25195 11.59V11.53C6.14195 11.48 5.25195 10.55 5.25195 9.39C5.25195 8.98 5.59195 8.64 6.00195 8.64C6.41195 8.64 6.75195 8.98 6.75195 9.39C6.75195 9.75 7.01195 10.04 7.33195 10.04H8.83195C9.06195 10.04 9.24195 9.83 9.24195 9.57C9.24195 9.22 9.18195 9.2 8.95195 9.12L6.54195 8.28C5.68195 7.98 5.25195 7.37 5.25195 6.42C5.25195 5.34 6.11195 4.45 7.16195 4.45H7.25195V4.41C7.25195 4 7.59195 3.66 8.00195 3.66C8.41195 3.66 8.75195 4 8.75195 4.41V4.47C9.86195 4.52 10.752 5.45 10.752 6.61C10.752 7.02 10.412 7.36 10.002 7.36C9.59195 7.36 9.25195 7.02 9.25195 6.61C9.25195 6.25 8.99195 5.96 8.67195 5.96H7.17195C6.94195 5.96 6.76195 6.17 6.76195 6.43C6.75195 6.77 6.81195 6.79 7.05195 6.87Z" fill="#101010"/>
</svg>
