<svg width="16" height="22" viewBox="0 0 16 22" fill="none" xmlns="http://www.w3.org/2000/svg">
<path d="M8.00195 21.75C4.00195 21.75 0.751953 18.88 0.751953 15.35V11.65C0.751953 11.24 1.09195 10.9 1.50195 10.9C1.91195 10.9 2.25195 11.24 2.25195 11.65C2.25195 14.27 4.72195 16.25 8.00195 16.25C11.282 16.25 13.752 14.27 13.752 11.65C13.752 11.24 14.092 10.9 14.502 10.9C14.912 10.9 15.252 11.24 15.252 11.65V15.35C15.252 18.88 12.002 21.75 8.00195 21.75ZM2.25195 15.46C2.32195 18.11 4.87195 20.25 8.00195 20.25C11.132 20.25 13.682 18.11 13.752 15.46C12.452 16.87 10.392 17.75 8.00195 17.75C5.61195 17.75 3.56195 16.87 2.25195 15.46Z" fill="#101010"/>
<path d="M8.00195 12.75C5.24195 12.75 2.76194 11.51 1.55194 9.51C1.03194 8.66 0.751953 7.67 0.751953 6.65C0.751953 4.93 1.52196 3.31 2.91196 2.09C4.27196 0.9 6.08195 0.25 8.00195 0.25C9.92195 0.25 11.7219 0.900002 13.0919 2.08C14.4819 3.31 15.252 4.93 15.252 6.65C15.252 7.67 14.972 8.65 14.452 9.51C13.242 11.51 10.762 12.75 8.00195 12.75ZM8.00195 1.75C6.44195 1.75 4.98197 2.27 3.89197 3.23C2.83197 4.15 2.25195 5.37 2.25195 6.65C2.25195 7.4 2.45194 8.1 2.83194 8.73C3.78194 10.29 5.76195 11.25 8.00195 11.25C10.242 11.25 12.222 10.28 13.172 8.73C13.562 8.1 13.752 7.4 13.752 6.65C13.752 5.37 13.172 4.15 12.102 3.21C11.012 2.27 9.56195 1.75 8.00195 1.75Z" fill="#101010"/>
<path d="M8.00195 17.75C3.87195 17.75 0.751953 15.13 0.751953 11.65V6.65C0.751953 3.12 4.00195 0.25 8.00195 0.25C9.92195 0.25 11.7219 0.900002 13.0919 2.08C14.4819 3.31 15.252 4.93 15.252 6.65V11.65C15.252 15.13 12.132 17.75 8.00195 17.75ZM8.00195 1.75C4.83195 1.75 2.25195 3.95 2.25195 6.65V7.65C2.25195 10.27 4.72195 12.25 8.00195 12.25C11.282 12.25 13.752 10.27 13.752 7.65V6.65C13.752 5.37 13.172 4.15 12.102 3.21C11.012 2.27 9.56195 1.75 8.00195 1.75Z" fill="#101010"/>
</svg>
