<svg width="20" height="20" viewBox="0 0 20 20" fill="none" xmlns="http://www.w3.org/2000/svg">
<path d="M14.19 0H5.81C2.17 0 0 2.17 0 5.81V14.18C0 17.83 2.17 20 5.81 20H14.18C17.82 20 19.99 17.83 19.99 14.19V5.81C20 2.17 17.83 0 14.19 0ZM10 4C11.99 4 13.6 5.61 13.6 7.6C13.6 8.07 13.51 8.52 13.35 8.93C12.94 9.97 12.05 10.78 10.95 11.08C10.65 11.16 10.33 11.21 10 11.21C9.67 11.21 9.35 11.17 9.05 11.08C7.95 10.78 7.06 9.98 6.65 8.93C6.49 8.52 6.4 8.07 6.4 7.6C6.4 5.61 8.01 4 10 4ZM7.6 16C5.61 16 4 14.39 4 12.4C4 11.2675 4.52861 10.2563 5.34433 9.5961C5.58105 9.40449 5.91916 9.52518 6.06744 9.79119C6.65221 10.8402 7.64554 11.6195 8.81 11.93C9.19 12.04 9.58 12.09 10 12.09C10.2489 12.09 10.4868 12.0716 10.7181 12.0347C10.9554 11.9969 11.2 12.1497 11.2 12.39C11.2 13.45 10.74 14.41 10 15.07C9.36 15.65 8.52 16 7.6 16ZM12.4 16C12.0515 16 11.71 15.9512 11.3878 15.8576C11.0613 15.7628 11.0015 15.3559 11.2059 15.0843C11.781 14.3202 12.1 13.3764 12.1 12.4C12.1 12.2 12.08 11.99 12.05 11.8C12.0321 11.6868 12.0898 11.5756 12.1899 11.5197C12.914 11.1155 13.5205 10.5224 13.9242 9.79418C14.0723 9.52721 14.4106 9.40421 14.6487 9.59532C15.471 10.2555 16 11.267 16 12.4C16 14.39 14.39 16 12.4 16Z" fill="#101010"/>
</svg>
