<svg width="20" height="20" viewBox="0 0 20 20" fill="none" xmlns="http://www.w3.org/2000/svg">
<path d="M12 14C12 15.77 11.23 17.37 10 18.46C8.94 19.42 7.54 20 6 20C2.69 20 0 17.31 0 14C0 11.9753 1.01397 10.1814 2.5554 9.09733C2.80358 8.92279 3.1393 9.04219 3.27324 9.31445C4.21715 11.2332 5.95419 12.6699 8.02 13.23C8.65 13.41 9.31 13.5 10 13.5C10.4872 13.5 10.9539 13.4538 11.4074 13.3687C11.6958 13.3147 11.9828 13.4995 11.9955 13.7926C11.9985 13.862 12 13.9314 12 14Z" fill="#101010"/>
<path d="M16 6C16 6.78 15.85 7.53 15.58 8.21C14.89 9.95 13.41 11.29 11.58 11.79C11.08 11.93 10.55 12 10 12C9.45 12 8.92 11.93 8.42 11.79C6.59 11.29 5.11 9.95 4.42 8.21C4.15 7.53 4 6.78 4 6C4 2.69 6.69 0 10 0C13.31 0 16 2.69 16 6Z" fill="#101010"/>
<path d="M19.9996 14C19.9996 17.31 17.3096 20 13.9996 20C13.2551 20 12.5389 19.8643 11.8807 19.6141C11.562 19.4929 11.5026 19.0851 11.7244 18.8262C12.8664 17.4938 13.4996 15.786 13.4996 14C13.4996 13.66 13.4696 13.32 13.4196 13C13.3898 12.8155 13.484 12.6342 13.6474 12.5437C14.9715 11.8107 16.0527 10.6875 16.7266 9.31529C16.8604 9.04271 17.1964 8.92302 17.4448 9.09773C18.9859 10.1818 19.9996 11.9755 19.9996 14Z" fill="#101010"/>
</svg>
