<svg width="20" height="20" viewBox="0 0 20 20" fill="none" xmlns="http://www.w3.org/2000/svg">
<path d="M14 6H6V14H14V6Z" fill="#101010"/>
<path d="M0 17C0 18.65 1.35 20 3 20C4.65 20 6 18.65 6 17V14H3C1.35 14 0 15.35 0 17Z" fill="#101010"/>
<path d="M3 0C1.35 0 0 1.35 0 3C0 4.65 1.35 6 3 6H6V3C6 1.35 4.65 0 3 0Z" fill="#101010"/>
<path d="M20 3C20 1.35 18.65 0 17 0C15.35 0 14 1.35 14 3V6H17C18.65 6 20 4.65 20 3Z" fill="#101010"/>
<path d="M17 14H14V17C14 18.65 15.35 20 17 20C18.65 20 20 18.65 20 17C20 15.35 18.65 14 17 14Z" fill="#101010"/>
</svg>
