<svg width="20" height="20" viewBox="0 0 20 20" fill="none" xmlns="http://www.w3.org/2000/svg">
<path d="M18.9499 2.12988L2.12988 18.9499C3.07988 19.6399 4.31988 19.9999 5.80988 19.9999H14.1899C17.8299 19.9999 19.9999 17.8299 19.9999 14.1899V5.80988C19.9999 4.31988 19.6399 3.07988 18.9499 2.12988ZM16.4999 14.2499H14.8099V15.9999C14.8099 16.4099 14.4699 16.7499 14.0599 16.7499C13.6499 16.7499 13.3099 16.4099 13.3099 15.9999V14.2499H11.4999C11.0899 14.2499 10.7499 13.9099 10.7499 13.4999C10.7499 13.0899 11.0899 12.7499 11.4999 12.7499H13.3099V10.9999C13.3099 10.5899 13.6499 10.2499 14.0599 10.2499C14.4699 10.2499 14.8099 10.5899 14.8099 10.9999V12.7499H16.4999C16.9099 12.7499 17.2499 13.0899 17.2499 13.4999C17.2499 13.9099 16.9099 14.2499 16.4999 14.2499Z" fill="#101010"/>
<path d="M14.19 0H5.81C2.17 0 0 2.17 0 5.81V14.19C0 15.68 0.36 16.92 1.05 17.87L17.87 1.05C16.92 0.36 15.68 0 14.19 0ZM8.5 6.25H3.5C3.09 6.25 2.75 5.91 2.75 5.5C2.75 5.09 3.09 4.75 3.5 4.75H8.5C8.91 4.75 9.25 5.09 9.25 5.5C9.25 5.91 8.91 6.25 8.5 6.25Z" fill="#101010"/>
</svg>
