<svg width="22" height="22" viewBox="0 0 22 22" fill="none" xmlns="http://www.w3.org/2000/svg">
<path fill-rule="evenodd" clip-rule="evenodd" d="M21.002 13.25C21.4162 13.25 21.752 13.5858 21.752 14C21.752 18.2842 18.2862 21.75 14.002 21.75C13.7317 21.75 13.4824 21.6047 13.3493 21.3695C13.2162 21.1344 13.2198 20.8458 13.3588 20.6141L14.4088 18.8641C14.6219 18.5089 15.0826 18.3938 15.4378 18.6069C15.793 18.82 15.9082 19.2807 15.6951 19.6359L15.4238 20.0881C18.1929 19.4456 20.252 16.9666 20.252 14C20.252 13.5858 20.5877 13.25 21.002 13.25Z" fill="#101010"/>
<path fill-rule="evenodd" clip-rule="evenodd" d="M6.58015 1.91194C3.81105 2.55437 1.75195 5.03342 1.75195 8C1.75195 8.41421 1.41617 8.75 1.00195 8.75C0.58774 8.75 0.251953 8.41421 0.251953 8C0.251953 3.71579 3.71774 0.25 8.00195 0.25C8.27216 0.25 8.52147 0.395344 8.6546 0.630476C8.78773 0.865607 8.78409 1.15417 8.64507 1.38587L7.59507 3.13587C7.38196 3.49106 6.92127 3.60623 6.56608 3.39312C6.2109 3.18001 6.09572 2.71931 6.30883 2.36413L6.58015 1.91194Z" fill="#101010"/>
<path d="M21.002 3.2V3.31C21.002 3.59 20.782 3.81 20.502 3.81H11.502C11.222 3.81 11.002 3.59 11.002 3.31V3.2C11.002 1.44 11.442 1 13.222 1H18.782C20.562 1 21.002 1.44 21.002 3.2Z" fill="#101010"/>
<path d="M11.502 4.81006C11.222 4.81006 11.002 5.03006 11.002 5.31006V6.31006V7.30006C11.002 9.06006 11.442 9.50006 13.222 9.50006H18.782C20.562 9.50006 21.002 9.06006 21.002 7.30006V6.31006V5.31006C21.002 5.03006 20.782 4.81006 20.502 4.81006H11.502Z" fill="#101010"/>
<path d="M11.002 14.7V14.81C11.002 15.09 10.782 15.31 10.502 15.31H1.50195C1.22195 15.31 1.00195 15.09 1.00195 14.81V14.7C1.00195 12.94 1.44195 12.5 3.22195 12.5H8.78195C10.562 12.5 11.002 12.94 11.002 14.7Z" fill="#101010"/>
<path d="M1.50195 16.3101C1.22195 16.3101 1.00195 16.5301 1.00195 16.8101V17.8101V18.8001C1.00195 20.5601 1.44195 21.0001 3.22195 21.0001H8.78195C10.562 21.0001 11.002 20.5601 11.002 18.8001V17.8101V16.8101C11.002 16.5301 10.782 16.3101 10.502 16.3101H1.50195Z" fill="#101010"/>
</svg>
