<svg width="20" height="20" viewBox="0 0 20 20" fill="none" xmlns="http://www.w3.org/2000/svg">
<path d="M14 10.9V15.1C14 18.6 12.6 20 9.1 20H4.9C1.4 20 0 18.6 0 15.1V10.9C0 7.4 1.4 6 4.9 6H9.1C12.6 6 14 7.4 14 10.9Z" fill="#101010"/>
<path d="M15.0995 0H10.8995C7.81646 0 6.37052 1.09409 6.06929 3.73901C6.00627 4.29235 6.46454 4.75 7.02145 4.75H9.09955C13.2995 4.75 15.2495 6.7 15.2495 10.9V12.9781C15.2495 13.535 15.7072 13.9933 16.2605 13.9303C18.9055 13.629 19.9995 12.1831 19.9995 9.1V4.9C19.9995 1.4 18.5995 0 15.0995 0Z" fill="#101010"/>
</svg>
