<svg width="20" height="20" viewBox="0 0 20 20" fill="none" xmlns="http://www.w3.org/2000/svg">
<path d="M15.0995 0H10.8995C7.81646 0 6.37052 1.09409 6.06929 3.73901C6.00627 4.29235 6.46454 4.75 7.02145 4.75H9.09955C13.2995 4.75 15.2495 6.7 15.2495 10.9V12.9781C15.2495 13.535 15.7072 13.9933 16.2605 13.9303C18.9055 13.629 19.9995 12.1831 19.9995 9.1V4.9C19.9995 1.4 18.5995 0 15.0995 0Z" fill="#101010"/>
<path d="M9.1 6H4.9C1.4 6 0 7.4 0 10.9V15.1C0 18.6 1.4 20 4.9 20H9.1C12.6 20 14 18.6 14 15.1V10.9C14 7.4 12.6 6 9.1 6ZM10.29 11.65L6.58 15.36C6.44 15.5 6.26 15.57 6.07 15.57C5.88 15.57 5.7 15.5 5.56 15.36L3.7 13.5C3.42 13.22 3.42 12.77 3.7 12.49C3.98 12.21 4.43 12.21 4.71 12.49L6.06 13.84L9.27 10.63C9.55 10.35 10 10.35 10.28 10.63C10.56 10.91 10.57 11.37 10.29 11.65Z" fill="#101010"/>
</svg>
