<svg width="20" height="20" viewBox="0 0 20 20" fill="none" xmlns="http://www.w3.org/2000/svg">
<path d="M10 0C4.48 0 0 4.48 0 10C0 15.52 4.48 20 10 20C15.52 20 20 15.52 20 10C20 4.48 15.52 0 10 0ZM10.24 13.25C11.02 13.25 11.79 12.96 12.38 12.44C12.69 12.17 13.17 12.2 13.44 12.51C13.71 12.82 13.68 13.3 13.37 13.57C12.5 14.34 11.39 14.76 10.24 14.76C7.62 14.76 5.49 12.63 5.49 10.01C5.49 7.39 7.62 5.26 10.24 5.26C11.39 5.26 12.51 5.68 13.37 6.45C13.68 6.72 13.71 7.2 13.44 7.51C13.16 7.82 12.69 7.85 12.38 7.58C11.79 7.06 11.03 6.77 10.24 6.77C8.45 6.77 6.99 8.23 6.99 10.02C6.99 11.81 8.45 13.25 10.24 13.25Z" fill="#101010"/>
</svg>
