<svg width="22" height="22" viewBox="0 0 22 22" fill="none" xmlns="http://www.w3.org/2000/svg">
<path d="M21 20.2499H19.75V9.99994C19.75 7.57994 18.42 6.24994 16 6.24994H11.75V5.01994C12.33 5.15994 12.91 5.23994 13.5 5.23994C14.44 5.23994 15.38 5.05994 16.28 4.69994C16.56 4.58994 16.75 4.30994 16.75 3.99994V0.999944C16.75 0.749944 16.63 0.519944 16.42 0.379944C16.21 0.239944 15.95 0.209944 15.72 0.299944C14.29 0.869944 12.71 0.869944 11.28 0.299944C11.05 0.209944 10.79 0.239944 10.58 0.379944C10.37 0.519944 10.25 0.749944 10.25 0.999944V3.99994V6.24994H6C3.58 6.24994 2.25 7.57994 2.25 9.99994V20.2499H1C0.59 20.2499 0.25 20.5899 0.25 20.9999C0.25 21.4099 0.59 21.7499 1 21.7499H3H19H21C21.41 21.7499 21.75 21.4099 21.75 20.9999C21.75 20.5899 21.41 20.2499 21 20.2499ZM6.24 20.2499H3.75V11.7499H6.24V20.2499ZM10.24 20.2499H7.74V11.7499H10.24V20.2499ZM14.24 20.2499H11.74V11.7499H14.24V20.2499ZM18.25 20.2499H15.74V11.7499H18.25V20.2499Z" fill="#101010"/>
</svg>
