<svg width="20" height="20" viewBox="0 0 20 20" fill="none" xmlns="http://www.w3.org/2000/svg">
<path d="M10 0C4.48 0 0 4.48 0 10C0 15.52 4.48 20 10 20C15.52 20 20 15.52 20 10C20 4.48 15.52 0 10 0ZM6.99 12.12C7.5 12.12 8 11.93 8.39 11.59C8.7 11.32 9.18 11.35 9.45 11.66C9.72 11.97 9.69 12.45 9.38 12.72C8.72 13.3 7.87 13.62 6.99 13.62C4.99 13.62 3.37 12 3.37 10C3.37 8 4.99 6.38 6.99 6.38C7.87 6.38 8.71 6.7 9.38 7.28C9.69 7.55 9.72 8.03 9.45 8.34C9.18 8.65 8.7 8.68 8.39 8.41C8 8.07 7.5 7.88 6.99 7.88C5.82 7.88 4.87 8.83 4.87 10C4.87 11.17 5.82 12.12 6.99 12.12ZM13.99 12.12C14.5 12.12 15 11.93 15.39 11.59C15.7 11.32 16.18 11.35 16.45 11.66C16.72 11.97 16.69 12.45 16.38 12.72C15.72 13.3 14.87 13.62 13.99 13.62C11.99 13.62 10.37 12 10.37 10C10.37 8 11.99 6.38 13.99 6.38C14.87 6.38 15.71 6.7 16.38 7.28C16.69 7.55 16.72 8.03 16.45 8.34C16.18 8.65 15.7 8.68 15.39 8.41C15 8.07 14.51 7.88 13.99 7.88C12.82 7.88 11.87 8.83 11.87 10C11.87 11.17 12.82 12.12 13.99 12.12Z" fill="#101010"/>
</svg>
