<svg width="20" height="20" viewBox="0 0 20 20" fill="none" xmlns="http://www.w3.org/2000/svg">
<path d="M3.53 0C3.11 0 2.78 0.34 2.78 0.75V2.78H0.75C0.34 2.78 0 3.11 0 3.53C0 3.95 0.34 4.28 0.75 4.28H3.53C3.94 4.28 4.28 3.94 4.28 3.53V0.75C4.28 0.34 3.94 0 3.53 0Z" fill="#101010"/>
<path d="M19.2497 15.72H16.4697C16.0597 15.72 15.7197 16.06 15.7197 16.47V19.25C15.7197 19.66 16.0597 20 16.4697 20C16.8797 20 17.2197 19.66 17.2197 19.25V17.22H19.2497C19.6597 17.22 19.9997 16.88 19.9997 16.47C19.9997 16.06 19.6597 15.72 19.2497 15.72Z" fill="#101010"/>
<path d="M14.7201 16.47C14.7201 15.51 15.5101 14.72 16.4701 14.72H17.1601V8.05001C17.1601 5.16001 14.8201 2.82001 11.9301 2.82001H5.28008V3.51001C5.28008 4.47001 4.49008 5.26001 3.53008 5.26001H2.83008V11.93C2.83008 14.82 5.17008 17.16 8.06008 17.16H14.7301V16.47H14.7201Z" fill="#101010"/>
</svg>
