<svg width="20" height="18" viewBox="0 0 20 18" fill="none" xmlns="http://www.w3.org/2000/svg">
<path d="M20.0003 2.71V12.29C20.0003 15.05 17.7603 17.29 15.0003 17.29H5.00031C4.54031 17.29 4.10031 17.23 3.67031 17.11C3.05031 16.94 2.85031 16.15 3.31031 15.69L13.9403 5.06C14.1603 4.84 14.4903 4.79 14.8003 4.85C15.1203 4.91 15.4703 4.82 15.7203 4.58L18.2903 2C19.2303 1.06 20.0003 1.37 20.0003 2.71Z" fill="#101010"/>
<path d="M12.64 4.36002L2.17 14.83C1.69 15.31 0.89 15.19 0.57 14.59C0.2 13.91 0 13.12 0 12.29V2.71002C0 1.37002 0.77 1.06002 1.71 2.00002L4.29 4.59002C4.68 4.97002 5.32 4.97002 5.71 4.59002L9.29 1.00002C9.68 0.61002 10.32 0.61002 10.71 1.00002L12.65 2.94002C13.03 3.33002 13.03 3.97002 12.64 4.36002Z" fill="#101010"/>
</svg>
