<svg width="20" height="20" viewBox="0 0 20 20" fill="none" xmlns="http://www.w3.org/2000/svg">
<path d="M15 20H5C4.59 20 4.25 19.66 4.25 19.25C4.25 18.84 4.59 18.5 5 18.5H15C15.41 18.5 15.75 18.84 15.75 19.25C15.75 19.66 15.41 20 15 20Z" fill="#101010"/>
<path d="M18.3502 3.52004L14.3502 6.38004C13.8202 6.76004 13.0602 6.53004 12.8302 5.92004L10.9402 0.880039C10.6202 0.0100391 9.39022 0.0100391 9.07022 0.880039L7.17022 5.91004C6.94022 6.53004 6.19022 6.76004 5.66022 6.37004L1.66022 3.51004C0.860219 2.95004 -0.199781 3.74004 0.130219 4.67004L4.29022 16.32C4.43022 16.72 4.81022 16.98 5.23022 16.98H14.7602C15.1802 16.98 15.5602 16.71 15.7002 16.32L19.8602 4.67004C20.2002 3.74004 19.1402 2.95004 18.3502 3.52004ZM12.5002 12.75H7.50022C7.09022 12.75 6.75022 12.41 6.75022 12C6.75022 11.59 7.09022 11.25 7.50022 11.25H12.5002C12.9102 11.25 13.2502 11.59 13.2502 12C13.2502 12.41 12.9102 12.75 12.5002 12.75Z" fill="#101010"/>
</svg>
