<svg width="20" height="20" viewBox="0 0 20 20" fill="none" xmlns="http://www.w3.org/2000/svg">
<path d="M9.25 16.25H7C5.9 16.25 5 17.15 5 18.25V18.5H4C3.59 18.5 3.25 18.84 3.25 19.25C3.25 19.66 3.59 20 4 20H16C16.41 20 16.75 19.66 16.75 19.25C16.75 18.84 16.41 18.5 16 18.5H15V18.25C15 17.15 14.1 16.25 13 16.25H10.75V13.96C10.5 13.99 10.25 14 10 14C9.75 14 9.5 13.99 9.25 13.96V16.25Z" fill="#101010"/>
<path d="M16.4803 9.64C17.1403 9.39 17.7203 8.98 18.1803 8.52C19.1103 7.49 19.7203 6.26 19.7203 4.82C19.7203 3.38 18.5903 2.25 17.1503 2.25H16.5903C15.9403 0.92 14.5803 0 13.0003 0H7.00027C5.42027 0 4.06027 0.92 3.41027 2.25H2.85027C1.41027 2.25 0.280273 3.38 0.280273 4.82C0.280273 6.26 0.890273 7.49 1.82027 8.52C2.28027 8.98 2.86027 9.39 3.52027 9.64C4.56027 12.2 7.06027 14 10.0003 14C12.9403 14 15.4403 12.2 16.4803 9.64ZM12.8403 6.45L12.2203 7.21C12.1203 7.32 12.0503 7.54 12.0603 7.69L12.1203 8.67C12.1603 9.27 11.7303 9.58 11.1703 9.36L10.2603 9C10.1203 8.95 9.88027 8.95 9.74027 9L8.83027 9.36C8.27027 9.58 7.84027 9.27 7.88027 8.67L7.94027 7.69C7.95027 7.54 7.88027 7.32 7.78027 7.21L7.16027 6.45C6.77027 5.99 6.94027 5.48 7.52027 5.33L8.47027 5.09C8.62027 5.05 8.80027 4.91 8.88027 4.78L9.41027 3.96C9.74027 3.45 10.2603 3.45 10.5903 3.96L11.1203 4.78C11.2003 4.91 11.3803 5.05 11.5303 5.09L12.4803 5.33C13.0603 5.48 13.2303 5.99 12.8403 6.45Z" fill="#101010"/>
</svg>
