<svg width="20" height="20" viewBox="0 0 20 20" fill="none" xmlns="http://www.w3.org/2000/svg">
<path d="M5 6H2C0.9 6 0 5.1 0 4V2C0 0.9 0.9 0 2 0H5C6.1 0 7 0.9 7 2V4C7 5.1 6.1 6 5 6Z" fill="#101010"/>
<path d="M18.8 5H15.2C14.54 5 14 4.46 14 3.8V2.2C14 1.54 14.54 1 15.2 1H18.8C19.46 1 20 1.54 20 2.2V3.8C20 4.46 19.46 5 18.8 5Z" fill="#101010"/>
<path d="M18.8 12.5H15.2C14.54 12.5 14 11.96 14 11.3V9.7C14 9.04 14.54 8.5 15.2 8.5H18.8C19.46 8.5 20 9.04 20 9.7V11.3C20 11.96 19.46 12.5 18.8 12.5Z" fill="#101010"/>
<path opacity="0.96" d="M14 11.25C14.41 11.25 14.75 10.91 14.75 10.5C14.75 10.09 14.41 9.75 14 9.75H11.25V3.75H14C14.41 3.75 14.75 3.41 14.75 3C14.75 2.59 14.41 2.25 14 2.25H7C6.59 2.25 6.25 2.59 6.25 3C6.25 3.41 6.59 3.75 7 3.75H9.75V16C9.75 17.52 10.98 18.75 12.5 18.75H14C14.41 18.75 14.75 18.41 14.75 18C14.75 17.59 14.41 17.25 14 17.25H12.5C11.81 17.25 11.25 16.69 11.25 16V11.25H14Z" fill="#101010"/>
<path d="M18.8 20H15.2C14.54 20 14 19.46 14 18.8V17.2C14 16.54 14.54 16 15.2 16H18.8C19.46 16 20 16.54 20 17.2V18.8C20 19.46 19.46 20 18.8 20Z" fill="#101010"/>
</svg>
