<svg width="22" height="22" viewBox="0 0 22 22" fill="none" xmlns="http://www.w3.org/2000/svg">
<path d="M19 13.25C20.2426 13.25 21.25 12.2426 21.25 11C21.25 9.75736 20.2426 8.75 19 8.75C17.7574 8.75 16.75 9.75736 16.75 11C16.75 12.2426 17.7574 13.25 19 13.25Z" fill="#101010"/>
<path d="M19 5.25C20.2426 5.25 21.25 4.24264 21.25 3C21.25 1.75736 20.2426 0.75 19 0.75C17.7574 0.75 16.75 1.75736 16.75 3C16.75 4.24264 17.7574 5.25 19 5.25Z" fill="#101010"/>
<path d="M19 21.25C20.2426 21.25 21.25 20.2426 21.25 19C21.25 17.7574 20.2426 16.75 19 16.75C17.7574 16.75 16.75 17.7574 16.75 19C16.75 20.2426 17.7574 21.25 19 21.25Z" fill="#101010"/>
<path d="M3 13.25C4.24264 13.25 5.25 12.2426 5.25 11C5.25 9.75736 4.24264 8.75 3 8.75C1.75736 8.75 0.75 9.75736 0.75 11C0.75 12.2426 1.75736 13.25 3 13.25Z" fill="#101010"/>
<path d="M18 11.75C18.41 11.75 18.75 11.41 18.75 11C18.75 10.59 18.41 10.25 18 10.25H10.75V6C10.75 4.42 11.42 3.75 13 3.75H18C18.41 3.75 18.75 3.41 18.75 3C18.75 2.59 18.41 2.25 18 2.25H13C10.58 2.25 9.25 3.58 9.25 6V10.25H4C3.59 10.25 3.25 10.59 3.25 11C3.25 11.41 3.59 11.75 4 11.75H9.25V16C9.25 18.42 10.58 19.75 13 19.75H18C18.41 19.75 18.75 19.41 18.75 19C18.75 18.59 18.41 18.25 18 18.25H13C11.42 18.25 10.75 17.58 10.75 16V11.75H18Z" fill="#101010"/>
</svg>
