<svg width="22" height="22" viewBox="0 0 22 22" fill="none" xmlns="http://www.w3.org/2000/svg">
<path d="M20.0401 12.28L19.1201 11.38L11.3701 19.12L12.3001 20.05C13.0801 20.83 13.8901 21.22 14.6901 21.22C15.4901 21.22 16.3001 20.83 17.0801 20.05L20.0401 17.09C21.6301 15.49 21.6301 13.88 20.0401 12.28Z" fill="#101010"/>
<path d="M9.68976 1.93C8.11976 0.359999 6.46977 0.359999 4.89977 1.93L1.92977 4.89C0.369766 6.46 0.369766 8.11 1.92977 9.68L2.84977 10.6L10.5998 2.85L9.68976 1.93Z" fill="#101010"/>
<path d="M20.8098 2.94C19.4998 6.21 16.5098 10.48 13.6598 13.27C13.2498 10.69 11.1898 8.67 8.58984 8.31C11.3898 5.45 15.6898 2.42 18.9698 1.1C19.5498 0.879998 20.1298 1.05 20.4898 1.41C20.8698 1.79 21.0498 2.36 20.8098 2.94Z" fill="#101010"/>
<path d="M12.7801 14.09C12.5801 14.26 12.3801 14.43 12.1801 14.59L10.3901 16.02C10.3901 15.99 10.3801 15.95 10.3801 15.91C10.2401 14.84 9.74012 13.85 8.93012 13.04C8.11012 12.22 7.09012 11.72 5.97012 11.58C5.94012 11.58 5.90012 11.57 5.87012 11.57L7.32012 9.74C7.46012 9.56 7.61012 9.39 7.77012 9.21L8.45012 9.3C10.6001 9.6 12.3301 11.29 12.6701 13.43L12.7801 14.09Z" fill="#101010"/>
<path d="M9.42976 16.62C9.42976 17.72 9.00976 18.77 8.20976 19.56C7.59976 20.18 6.77977 20.6 5.77977 20.72L3.32976 20.99C1.98976 21.14 0.839765 19.99 0.989765 18.64L1.25976 16.18C1.49976 13.99 3.32976 12.59 5.26976 12.55C5.45976 12.54 5.66976 12.55 5.86976 12.57C6.71976 12.68 7.53976 13.07 8.22976 13.75C8.89976 14.42 9.27977 15.21 9.38976 16.04C9.40977 16.24 9.42976 16.43 9.42976 16.62Z" fill="#101010"/>
</svg>
