<svg width="20" height="21" viewBox="0 0 20 21" fill="none" xmlns="http://www.w3.org/2000/svg">
<path d="M16.75 11.9H14.9038C14.7057 11.9 14.5121 11.9588 14.3476 12.069L12.09 13.58C11.73 13.82 11.31 13.93 10.9 13.93C10.55 13.93 10.2 13.85 9.88 13.67C9.39821 13.4153 9.04432 12.9475 8.87051 12.423C8.7313 12.0029 8.45372 11.6136 8.05367 11.4244C7.59444 11.2073 7.18043 10.9204 6.83 10.57C5.97 9.71 5.5 8.5 5.5 7.15V3.25V3C5.5 2.44772 5.05228 2 4.5 2C1.8 2 0 3.35 0 6.5V11.9C0 15.05 1.8 16.4 4.5 16.4H8.25V19.25H5.4C4.99 19.25 4.65 19.59 4.65 20C4.65 20.41 4.99 20.75 5.4 20.75H12.6C13.01 20.75 13.35 20.41 13.35 20C13.35 19.59 13.01 19.25 12.6 19.25H9.75V16.4H13.5C15.8954 16.4 17.5824 15.3374 17.9326 12.898C18.011 12.3513 17.5523 11.9 17 11.9H16.75Z" fill="#101010"/>
<path d="M16.75 0H10.25C8.76 0 7.64 0.76 7.2 2C7.07 2.38 7 2.8 7 3.25V7.15C7 8.12 7.32 8.94 7.89 9.51C8.46 10.08 9.28 10.4 10.25 10.4V11.79C10.25 12.3 10.83 12.61 11.26 12.33L14.15 10.4H16.75C17.2 10.4 17.62 10.33 18 10.2C19.24 9.76 20 8.64 20 7.15V3.25C20 1.3 18.7 0 16.75 0ZM10.62 6C10.2 6 9.87 5.66 9.87 5.25C9.87 4.84 10.2 4.5 10.62 4.5C11.04 4.5 11.37 4.84 11.37 5.25C11.37 5.66 11.04 6 10.62 6ZM13.44 6C13.02 6 12.69 5.66 12.69 5.25C12.69 4.84 13.03 4.5 13.44 4.5C13.85 4.5 14.19 4.84 14.19 5.25C14.19 5.66 13.85 6 13.44 6ZM16.25 6C15.83 6 15.5 5.66 15.5 5.25C15.5 4.84 15.84 4.5 16.25 4.5C16.66 4.5 17 4.84 17 5.25C17 5.66 16.66 6 16.25 6Z" fill="#101010"/>
<path d="M20 3.25V7.15C20 8.64 19.24 9.76 18 10.2C17.62 10.33 17.2 10.4 16.75 10.4H14.15L11.26 12.33C10.83 12.61 10.25 12.3 10.25 11.79V10.4C9.28 10.4 8.46 10.08 7.89 9.51C7.32 8.94 7 8.12 7 7.15V3.25C7 2.8 7.07 2.38 7.2 2C7.64 0.76 8.76 0 10.25 0H16.75C18.7 0 20 1.3 20 3.25Z" fill="#101010"/>
</svg>
