<svg width="22" height="20" viewBox="0 0 22 20" fill="none" xmlns="http://www.w3.org/2000/svg">
<path d="M14.7204 7.69002C12.6704 5.63002 9.33035 5.63002 7.28035 7.69002C5.22035 9.75002 5.22035 13.08 7.28035 15.13C9.34035 17.19 12.6704 17.19 14.7204 15.13C16.7804 13.07 16.7804 9.74002 14.7204 7.69002ZM11.5304 11.94L9.94035 13.53C9.79035 13.68 9.60035 13.75 9.41035 13.75C9.22035 13.75 9.02035 13.68 8.88035 13.53C8.59035 13.24 8.59035 12.76 8.88035 12.46L10.4704 10.87C10.7604 10.58 11.2404 10.58 11.5404 10.87C11.8304 11.17 11.8304 11.65 11.5304 11.94Z" fill="#101010"/>
<path d="M18.6001 3.80997C18.3801 3.58997 18.1001 3.46997 17.7901 3.46997C17.4801 3.46997 17.2001 3.58997 16.9801 3.79997C16.5301 4.24997 16.5301 4.96997 16.9801 5.41997C17.2001 5.63997 17.4801 5.75997 17.7901 5.75997C18.1001 5.75997 18.3801 5.63997 18.6001 5.42997C18.8201 5.20997 18.9401 4.92997 18.9401 4.61997C18.9401 4.30997 18.8201 4.01997 18.6001 3.80997Z" fill="#101010"/>
<path d="M5.02055 17.3899C4.80055 17.1699 4.52055 17.0499 4.21055 17.0499C3.90055 17.0499 3.62055 17.1699 3.40055 17.3799C3.18055 17.5999 3.06055 17.8799 3.06055 18.1899C3.06055 18.4999 3.18055 18.7799 3.40055 18.9999C3.62055 19.2199 3.92055 19.3299 4.21055 19.3299C4.50055 19.3299 4.80055 19.2199 5.02055 18.9899C5.46055 18.5599 5.46055 17.8299 5.02055 17.3899Z" fill="#101010"/>
<path d="M21.4106 10.6C21.2006 10.38 20.9106 10.27 20.6006 10.26C20.2906 10.26 20.0106 10.38 19.7906 10.6C19.3406 11.05 19.3406 11.77 19.7906 12.22C20.0106 12.44 20.3106 12.55 20.6006 12.55C20.8906 12.55 21.1906 12.44 21.4106 12.22C21.8606 11.77 21.8606 11.04 21.4106 10.6Z" fill="#101010"/>
<path d="M2.21043 10.6C1.77043 10.16 1.04043 10.15 0.59043 10.6C0.14043 11.05 0.14043 11.77 0.59043 12.22C0.81043 12.44 1.11043 12.55 1.40043 12.55C1.69043 12.55 1.99043 12.44 2.21043 12.22C2.65043 11.77 2.65043 11.04 2.21043 10.6Z" fill="#101010"/>
<path d="M18.6001 17.39C18.1501 16.94 17.4301 16.94 16.9801 17.39C16.5301 17.84 16.5301 18.56 16.9801 19.01C17.2001 19.23 17.5001 19.34 17.7901 19.34C18.0801 19.34 18.3801 19.23 18.6001 19.01C18.8201 18.79 18.9401 18.5 18.9401 18.2C18.9401 17.89 18.8201 17.6 18.6001 17.39Z" fill="#101010"/>
<path d="M5.02055 3.80997C4.80055 3.58997 4.52055 3.46997 4.21055 3.46997C3.90055 3.46997 3.62055 3.58997 3.40055 3.79997C3.18055 4.01997 3.06055 4.29997 3.06055 4.60997C3.06055 4.91997 3.18055 5.20997 3.40055 5.41997C3.62055 5.63997 3.90055 5.75997 4.21055 5.75997C4.52055 5.75997 4.80055 5.63997 5.02055 5.42997C5.46055 4.97997 5.46055 4.24997 5.02055 3.80997Z" fill="#101010"/>
<path d="M11.8106 0.999976C11.8106 0.989976 11.8106 0.989976 11.8106 0.999976C11.3606 0.549976 10.6406 0.549976 10.1906 0.999976C9.97059 1.21998 9.85059 1.50998 9.85059 1.80998C9.85059 2.11998 9.97059 2.39998 10.1806 2.61998C10.4006 2.83998 10.6806 2.95998 10.9906 2.95998C11.3006 2.95998 11.5806 2.83998 11.8006 2.61998C12.2606 2.16998 12.2606 1.43998 11.8106 0.999976Z" fill="#101010"/>
</svg>
