<svg width="20" height="20" viewBox="0 0 20 20" fill="none" xmlns="http://www.w3.org/2000/svg">
<path d="M16.6902 9.53C16.1202 9.38 15.4502 9.3 14.6502 9.3C13.5402 9.3 13.1302 9.57 12.5602 10C12.5302 10.02 12.5002 10.05 12.4702 10.08L11.5202 11.09C10.7302 11.94 9.28018 11.94 8.48018 11.09L7.53018 10.09C7.50017 10.05 7.47018 10.02 7.44018 10C6.86018 9.57 6.45018 9.3 5.35018 9.3C4.55018 9.3 3.88018 9.37 3.31018 9.53C0.930176 10.17 0.930176 12.06 0.930176 13.72V14.65C0.930176 17.16 0.930175 20 6.28018 20H13.7202C17.2702 20 19.0702 18.2 19.0702 14.65V13.72C19.0702 12.06 19.0702 10.17 16.6902 9.53Z" fill="#101010"/>
<path d="M12.79 0H7.21004C2.79004 0 2.79004 2.35 2.79004 4.42V8.12C2.83004 8.1 2.88004 8.09 2.92004 8.08C3.62004 7.89 4.41004 7.8 5.35004 7.8C6.89004 7.8 7.62004 8.25 8.34004 8.8C8.44004 8.87 8.54004 8.96 8.63004 9.06L9.57004 10.05C9.67004 10.16 9.83004 10.22 10 10.22C10.17 10.22 10.33 10.16 10.42 10.06L11.38 9.05C11.46 8.97 11.55 8.88 11.65 8.81C12.39 8.25 13.11 7.8 14.65 7.8C15.59 7.8 16.38 7.89 17.08 8.08C17.12 8.09 17.17 8.1 17.21 8.12V4.42C17.21 2.35 17.21 0 12.79 0ZM11.55 6.5H8.45004C8.07004 6.5 7.75004 6.18 7.75004 5.8C7.75004 5.41 8.07004 5.1 8.45004 5.1H11.55C11.93 5.1 12.25 5.41 12.25 5.8C12.25 6.18 11.93 6.5 11.55 6.5ZM12.33 3.71H7.67004C7.29004 3.71 6.98004 3.39 6.98004 3.01C6.98004 2.62 7.29004 2.31 7.67004 2.31H12.33C12.71 2.31 13.02 2.62 13.02 3.01C13.02 3.39 12.71 3.71 12.33 3.71Z" fill="#101010"/>
</svg>
