<svg width="20" height="21" viewBox="0 0 20 21" fill="none" xmlns="http://www.w3.org/2000/svg">
<path d="M19.3 11.23H15.82C14.84 11.23 13.97 11.77 13.53 12.65L12.69 14.31C12.49 14.71 12.09 14.96 11.65 14.96H8.37C8.06 14.96 7.62 14.89 7.33 14.31L6.49 12.66C6.05 11.79 5.17 11.24 4.2 11.24H0.7C0.31 11.24 0 11.55 0 11.94V15.2C0 18.83 2.18 21 5.82 21H14.2C17.63 21 19.74 19.12 20 15.78V11.93C20 11.55 19.69 11.23 19.3 11.23Z" fill="#101010"/>
<path d="M10.7502 2.81L11.4702 3.53C11.6202 3.68 11.8102 3.75 12.0002 3.75C12.1902 3.75 12.3802 3.68 12.5302 3.53C12.8202 3.24 12.8202 2.76 12.5302 2.47L10.5302 0.470002C10.5202 0.460002 10.5102 0.460002 10.5102 0.450002C10.4502 0.390002 10.3702 0.340002 10.2902 0.300002C10.2802 0.300002 10.2802 0.300002 10.2702 0.290002C10.1902 0.260002 10.1102 0.250002 10.0302 0.240002C10.0002 0.240002 9.9802 0.240002 9.9502 0.240002C9.8902 0.240002 9.8302 0.260002 9.7702 0.280002C9.7402 0.290002 9.7202 0.300002 9.7002 0.310002C9.6202 0.350002 9.5402 0.390002 9.4802 0.460002L7.4802 2.46C7.1902 2.75 7.1902 3.23 7.4802 3.52C7.7702 3.81 8.2502 3.81 8.5402 3.52L9.2602 2.8V4H10.7602V2.81H10.7502Z" fill="#101010"/>
<path d="M20 9.81V9.85C19.78 9.77 19.54 9.73 19.3 9.73H15.82C14.27 9.73 12.88 10.59 12.19 11.97L11.44 13.45H8.58L7.83 11.98C7.14 10.59 5.75 9.73 4.2 9.73H0.7C0.46 9.73 0.22 9.77 0 9.85V9.81C0 6.17 2.17 4 5.81 4H9.25V8C9.25 8.41 9.59 8.75 10 8.75C10.41 8.75 10.75 8.41 10.75 8V4H14.19C17.83 4 20 6.17 20 9.81Z" fill="#101010"/>
</svg>
