<svg width="21" height="20" viewBox="0 0 21 20" fill="none" xmlns="http://www.w3.org/2000/svg">
<path d="M10.002 0C4.48195 0 0.00195312 4.48 0.00195312 10C0.00195312 15.52 4.48195 20 10.002 20C15.522 20 20.002 15.52 20.002 10C20.002 4.48 15.522 0 10.002 0ZM7.00195 6C7.55195 6 8.00195 6.45 8.00195 7C8.00195 7.55 7.56195 8 7.00195 8C6.45195 8 6.00195 7.55 6.00195 7C6.00195 6.45 6.45195 6 7.00195 6ZM7.53195 13.53C7.38195 13.68 7.19195 13.75 7.00195 13.75C6.81195 13.75 6.62195 13.68 6.47195 13.53C6.18195 13.24 6.18195 12.76 6.47195 12.47L12.472 6.47C12.762 6.18 13.242 6.18 13.532 6.47C13.822 6.76 13.822 7.24 13.532 7.53L7.53195 13.53ZM13.002 14C12.442 14 11.992 13.55 11.992 13C11.992 12.45 12.442 12 12.992 12C13.542 12 13.992 12.45 13.992 13C13.992 13.55 13.552 14 13.002 14Z" fill="#101010"/>
</svg>
