<svg width="21" height="20" viewBox="0 0 21 20" fill="none" xmlns="http://www.w3.org/2000/svg">
<path d="M19.5318 8.87L18.0118 7.35001C17.7518 7.09 17.5418 6.58001 17.5418 6.22001V4.06C17.5418 3.18 16.8218 2.46 15.9418 2.46H13.7918C13.4318 2.46 12.9218 2.25 12.6618 1.99L11.1418 0.470005C10.5218 -0.149995 9.50184 -0.149995 8.88184 0.470005L7.34184 1.99C7.09184 2.25 6.58184 2.46 6.21184 2.46H4.06184C3.18184 2.46 2.46184 3.18 2.46184 4.06V6.21C2.46184 6.57 2.25184 7.08 1.99184 7.34L0.471836 8.86C-0.148164 9.48 -0.148164 10.5 0.471836 11.12L1.99184 12.64C2.25184 12.9 2.46184 13.41 2.46184 13.77V15.92C2.46184 16.8 3.18184 17.52 4.06184 17.52H6.21184C6.57184 17.52 7.08184 17.73 7.34184 17.99L8.86184 19.51C9.48184 20.13 10.5018 20.13 11.1218 19.51L12.6418 17.99C12.9018 17.73 13.4118 17.52 13.7718 17.52H15.9218C16.8018 17.52 17.5218 16.8 17.5218 15.92V13.77C17.5218 13.41 17.7318 12.9 17.9918 12.64L19.5118 11.12C20.1618 10.51 20.1618 9.49 19.5318 8.87ZM6.00184 7C6.00184 6.45 6.45184 6 7.00184 6C7.55184 6 8.00184 6.45 8.00184 7C8.00184 7.55 7.56184 8 7.00184 8C6.45184 8 6.00184 7.55 6.00184 7ZM7.53184 13.53C7.38184 13.68 7.19184 13.75 7.00184 13.75C6.81184 13.75 6.62184 13.68 6.47184 13.53C6.18184 13.24 6.18184 12.76 6.47184 12.47L12.4718 6.47001C12.7618 6.18001 13.2418 6.18001 13.5318 6.47001C13.8218 6.76 13.8218 7.24 13.5318 7.53L7.53184 13.53ZM13.0018 14C12.4418 14 11.9918 13.55 11.9918 13C11.9918 12.45 12.4418 12 12.9918 12C13.5418 12 13.9918 12.45 13.9918 13C13.9918 13.55 13.5518 14 13.0018 14Z" fill="#101010"/>
</svg>
