<svg width="20" height="20" viewBox="0 0 20 20" fill="none" xmlns="http://www.w3.org/2000/svg">
<path d="M18.9799 1.0201C18.1099 0.150103 16.8799 -0.189897 15.6899 0.110103L5.88986 2.5601C4.23986 2.9701 2.96986 4.2501 2.55986 5.8901L0.109859 15.7001C-0.190141 16.8901 0.149859 18.1201 1.01986 18.9901C1.67986 19.6401 2.54986 20.0001 3.44986 20.0001C3.72986 20.0001 4.01986 19.9701 4.29986 19.8901L14.1099 17.4401C15.7499 17.0301 17.0299 15.7601 17.4399 14.1101L19.8899 4.3001C20.1899 3.1101 19.8499 1.8801 18.9799 1.0201ZM9.99986 13.8801C7.85986 13.8801 6.11986 12.1401 6.11986 10.0001C6.11986 7.8601 7.85986 6.1201 9.99986 6.1201C12.1399 6.1201 13.8799 7.8601 13.8799 10.0001C13.8799 12.1401 12.1399 13.8801 9.99986 13.8801Z" fill="#101010"/>
</svg>
