<svg width="20" height="20" viewBox="0 0 20 20" fill="none" xmlns="http://www.w3.org/2000/svg">
<path d="M13.61 3.50002V13.66C13.61 14.06 13.49 14.45 13.27 14.78L10.54 18.84C10.11 19.49 9.04002 19.95 8.13002 19.61C7.15002 19.28 6.50002 18.18 6.71002 17.2L7.23002 13.93C7.27002 13.63 7.19002 13.36 7.02002 13.15C6.85002 12.96 6.60002 12.84 6.33002 12.84H2.22002C1.43002 12.84 0.750015 12.52 0.350016 11.96C-0.0299845 11.42 -0.0999843 10.72 0.150016 10.01L2.61002 2.52002C2.92002 1.28002 4.27002 0.27002 5.61002 0.27002H9.51002C10.18 0.27002 11.12 0.50002 11.55 0.93002L12.83 1.92002C13.32 2.30002 13.61 2.88002 13.61 3.50002Z" fill="#101010"/>
<path d="M16.7899 15.6099H17.8199C19.3699 15.6099 19.9999 15.0099 19.9999 13.5299V3.4799C19.9999 1.9999 19.3699 1.3999 17.8199 1.3999H16.7899C15.2399 1.3999 14.6099 1.9999 14.6099 3.4799V13.5399C14.6099 15.0099 15.2399 15.6099 16.7899 15.6099Z" fill="#101010"/>
</svg>
