<svg width="21" height="21" viewBox="0 0 21 21" fill="none" xmlns="http://www.w3.org/2000/svg">
<path d="M13.7997 0.209993C13.3897 -0.200007 12.6797 0.0799931 12.6797 0.649993V4.13999C12.6797 5.59999 13.9197 6.80999 15.4297 6.80999C16.3797 6.81999 17.6997 6.81999 18.8297 6.81999C19.3997 6.81999 19.6997 6.14999 19.2997 5.74999C17.8597 4.29999 15.2797 1.68999 13.7997 0.209993Z" fill="#101010"/>
<path d="M12.7596 17.2599C10.4096 17.4299 10.4096 20.8299 12.7596 20.9999H18.3196C18.9896 20.9999 19.6496 20.7499 20.1396 20.2999C21.7896 18.8599 20.9096 15.9799 18.7396 15.7099C17.9596 11.0199 11.1796 12.7999 12.7796 17.2699" fill="#101010"/>
<path d="M19.5 9.19V12.44C19.5 12.74 19.06 12.88 18.84 12.67C18.36 12.2 17.77 11.84 17.09 11.63C15.41 11.11 13.46 11.62 12.25 12.9C11.44 13.74 11.03 14.81 11.04 15.97C11.04 16.16 10.95 16.33 10.8 16.44C10 17.05 9.5 18.01 9.5 19.12C9.5 19.2 9.5 19.28 9.51 19.36C9.53 19.68 9.3 19.99 8.97 19.99H6.07C2.99 19.99 0.5 17.99 0.5 14.42V5.57C0.5 2 2.99 0 6.07 0H10.31C10.86 0 11.31 0.45 11.31 1V3.89C11.31 6.27 13.23 8.19 15.61 8.19H18.5C19.05 8.19 19.5 8.64 19.5 9.19Z" fill="#101010"/>
</svg>
