<svg width="20" height="20" viewBox="0 0 20 20" fill="none" xmlns="http://www.w3.org/2000/svg">
<path d="M13.5 11.15H11.33C9.55 11.15 8.1 9.71 8.1 7.92V5.75C8.1 5.34 7.77 5 7.35 5H4.18C1.87 5 0 6.5 0 9.18V15.82C0 18.5 1.87 20 4.18 20H10.07C12.38 20 14.25 18.5 14.25 15.82V11.9C14.25 11.48 13.91 11.15 13.5 11.15Z" fill="#101010"/>
<path d="M15.8198 0H13.8498H12.7598H9.92977C7.66977 0 5.83977 1.44 5.75977 4.01C5.81977 4.01 5.86977 4 5.92977 4H8.75977H9.84977H11.8198C14.1298 4 15.9998 5.5 15.9998 8.18V10.15V12.86V14.83C15.9998 14.89 15.9898 14.94 15.9898 14.99C18.2198 14.92 19.9998 13.44 19.9998 10.83V8.86V6.15V4.18C19.9998 1.5 18.1298 0 15.8198 0Z" fill="#101010"/>
<path d="M9.97965 5.14999C9.66965 4.83999 9.13965 5.04999 9.13965 5.47999V8.1C9.13965 9.2 10.0696 10.1 11.2096 10.1C11.9196 10.11 12.9096 10.11 13.7596 10.11C14.1896 10.11 14.4096 9.61 14.1096 9.31C13.0196 8.22 11.0796 6.26999 9.97965 5.14999Z" fill="#101010"/>
</svg>
