<svg width="20" height="20" viewBox="0 0 20 20" fill="none" xmlns="http://www.w3.org/2000/svg">
<path d="M18.5 8.19H15.61C13.24 8.19 11.31 6.26 11.31 3.89V1C11.31 0.45 10.86 0 10.31 0H6.07C2.99 0 0.5 2 0.5 5.57V14.43C0.5 18 2.99 20 6.07 20H13.93C17.01 20 19.5 18 19.5 14.43V9.19C19.5 8.64 19.05 8.19 18.5 8.19ZM9.53 11.53C9.38 11.68 9.19 11.75 9 11.75C8.81 11.75 8.62 11.68 8.47 11.53L7.75 10.81V15C7.75 15.41 7.41 15.75 7 15.75C6.59 15.75 6.25 15.41 6.25 15V10.81L5.53 11.53C5.24 11.82 4.76 11.82 4.47 11.53C4.18 11.24 4.18 10.76 4.47 10.47L6.47 8.47C6.54 8.41 6.61 8.36 6.69 8.32C6.71 8.31 6.74 8.3 6.76 8.29C6.82 8.27 6.88 8.26 6.95 8.25C6.98 8.25 7 8.25 7.03 8.25C7.11 8.25 7.19 8.27 7.27 8.3C7.28 8.3 7.28 8.3 7.29 8.3C7.37 8.33 7.45 8.39 7.51 8.45C7.52 8.46 7.53 8.46 7.53 8.47L9.53 10.47C9.82 10.76 9.82 11.24 9.53 11.53Z" fill="#101010"/>
<path d="M15.4297 6.80999C16.3797 6.81999 17.6997 6.81999 18.8297 6.81999C19.3997 6.81999 19.6997 6.14999 19.2997 5.74999C17.8597 4.29999 15.2797 1.68999 13.7997 0.209993C13.3897 -0.200007 12.6797 0.0799931 12.6797 0.649993V4.13999C12.6797 5.59999 13.9197 6.80999 15.4297 6.80999Z" fill="#101010"/>
</svg>
