<svg width="20" height="20" viewBox="0 0 20 20" fill="none" xmlns="http://www.w3.org/2000/svg">
<path d="M14.192 0H5.81195C2.17195 0 0.00195312 2.17 0.00195312 5.81V14.18C0.00195312 17.83 2.17195 20 5.81195 20H14.182C17.822 20 19.992 17.83 19.992 14.19V5.81C20.002 2.17 17.832 0 14.192 0ZM13.752 13.75H6.25195C5.84195 13.75 5.50195 13.41 5.50195 13C5.50195 12.59 5.84195 12.25 6.25195 12.25H13.752C14.162 12.25 14.502 12.59 14.502 13C14.502 13.41 14.162 13.75 13.752 13.75ZM13.752 7.75H6.25195C5.84195 7.75 5.50195 7.41 5.50195 7C5.50195 6.59 5.84195 6.25 6.25195 6.25H13.752C14.162 6.25 14.502 6.59 14.502 7C14.502 7.41 14.162 7.75 13.752 7.75Z" fill="#101010"/>
</svg>
