<svg width="21" height="20" viewBox="0 0 21 20" fill="none" xmlns="http://www.w3.org/2000/svg">
<path d="M9.25187 6.08002V8.94002L8.24187 8.59002C7.73187 8.41002 7.42188 8.24002 7.42188 7.37002C7.42188 6.66002 7.95188 6.08002 8.60188 6.08002H9.25187Z" fill="#101010"/>
<path d="M12.582 12.63C12.582 13.34 12.052 13.92 11.402 13.92H10.752V11.06L11.762 11.41C12.272 11.59 12.582 11.76 12.582 12.63Z" fill="#101010"/>
<path d="M14.192 0H5.81195C2.17195 0 0.00195312 2.17 0.00195312 5.81V14.19C0.00195312 17.83 2.17195 20 5.81195 20H14.192C17.832 20 20.002 17.83 20.002 14.19V5.81C20.002 2.17 17.832 0 14.192 0ZM12.262 10C13.042 10.27 14.082 10.84 14.082 12.63C14.082 14.17 12.882 15.42 11.402 15.42H10.752V16C10.752 16.41 10.412 16.75 10.002 16.75C9.59195 16.75 9.25195 16.41 9.25195 16V15.42H8.89195C7.25195 15.42 5.92195 14.03 5.92195 12.33C5.92195 11.92 6.25195 11.58 6.67195 11.58C7.08195 11.58 7.42195 11.92 7.42195 12.33C7.42195 13.21 8.08195 13.92 8.89195 13.92H9.25195V10.53L7.74195 10C6.96195 9.73 5.92195 9.16 5.92195 7.37C5.92195 5.83 7.12195 4.58 8.60195 4.58H9.25195V4C9.25195 3.59 9.59195 3.25 10.002 3.25C10.412 3.25 10.752 3.59 10.752 4V4.58H11.112C12.752 4.58 14.082 5.97 14.082 7.67C14.082 8.08 13.752 8.42 13.332 8.42C12.922 8.42 12.582 8.08 12.582 7.67C12.582 6.79 11.922 6.08 11.112 6.08H10.752V9.47L12.262 10Z" fill="#101010"/>
</svg>
