<svg width="21" height="21" viewBox="0 0 21 21" fill="none" xmlns="http://www.w3.org/2000/svg">
<path d="M7.93 10.75H1C0.45 10.75 0 11.2 0 11.75V14.19C0 17.4 2.6 20 5.81 20H7.51C8.28 20 8.75 19.18 8.38 18.5C7.59 17.03 7.28 15.26 7.67 13.4C7.81 12.72 8.05 12.08 8.37 11.48C8.54 11.15 8.31 10.75 7.93 10.75ZM4.75 16C4.75 16.41 4.41 16.75 4 16.75C3.59 16.75 3.25 16.41 3.25 16V14C3.25 13.59 3.59 13.25 4 13.25C4.41 13.25 4.75 13.59 4.75 14V16Z" fill="#101010"/>
<path d="M14.19 0H5.81C2.6 0 0 2.6 0 5.81V8.25C0 8.8 0.45 9.25 1 9.25H9.84C10.06 9.25 10.27 9.17 10.45 9.03C11.31 8.37 12.32 7.89 13.4 7.67C15.26 7.28 17.03 7.59 18.5 8.38C19.18 8.74 20 8.28 20 7.51V5.81C20 2.6 17.4 0 14.19 0ZM4.75 6.25C4.75 6.66 4.41 7 4 7C3.59 7 3.25 6.66 3.25 6.25V4.25C3.25 3.84 3.59 3.5 4 3.5C4.41 3.5 4.75 3.84 4.75 4.25V6.25ZM8.75 6.25C8.75 6.66 8.41 7 8 7C7.59 7 7.25 6.66 7.25 6.25V4.25C7.25 3.84 7.59 3.5 8 3.5C8.41 3.5 8.75 3.84 8.75 4.25V6.25ZM16 6H12C11.59 6 11.25 5.66 11.25 5.25C11.25 4.84 11.59 4.5 12 4.5H16C16.41 4.5 16.75 4.84 16.75 5.25C16.75 5.66 16.41 6 16 6Z" fill="#101010"/>
<path d="M15 9C11.69 9 9 11.69 9 15C9 18.31 11.69 21 15 21C18.31 21 21 18.31 21 15C21 11.69 18.31 9 15 9ZM17.93 16.2C17.77 16.59 17.54 16.94 17.24 17.24C16.64 17.84 15.85 18.17 15 18.17C14.32 18.17 13.68 17.95 13.14 17.55V17.69C13.14 18 12.89 18.26 12.57 18.26C12.25 18.25 12 18 12 17.68V16.24C12 15.93 12.25 15.67 12.57 15.67H14.01C14.32 15.67 14.58 15.92 14.58 16.24C14.58 16.53 14.37 16.75 14.09 16.79C14.85 17.16 15.82 17.04 16.43 16.43C16.62 16.24 16.77 16.01 16.87 15.76C16.99 15.47 17.32 15.33 17.61 15.45C17.91 15.57 18.05 15.91 17.93 16.2ZM18 13.76C18 14.07 17.75 14.33 17.43 14.33H15.99C15.68 14.33 15.42 14.08 15.42 13.76C15.42 13.47 15.63 13.25 15.91 13.21C15.15 12.84 14.18 12.96 13.56 13.57C13.39 13.74 13.26 13.93 13.16 14.14C13.06 14.35 12.86 14.47 12.65 14.47C12.57 14.47 12.49 14.45 12.41 14.42C12.13 14.29 12 13.95 12.14 13.66C12.3 13.33 12.51 13.03 12.76 12.77C13.36 12.17 14.15 11.84 15 11.84C15.68 11.84 16.32 12.06 16.86 12.46V12.33C16.86 12.02 17.11 11.76 17.43 11.76C17.75 11.76 18 12 18 12.32V13.76Z" fill="#101010"/>
</svg>
