<svg width="20" height="20" viewBox="0 0 20 20" fill="none" xmlns="http://www.w3.org/2000/svg">
<path d="M17.32 0H2.68C1.21 0 0 1.21 0 2.68V5.31C0 6.79 1.21 8 2.68 8H17.31C18.79 8 20 6.79 20 5.32V2.68C20 1.21 18.79 0 17.32 0ZM4.75 5C4.75 5.41 4.41 5.75 4 5.75C3.59 5.75 3.25 5.41 3.25 5V3C3.25 2.59 3.59 2.25 4 2.25C4.41 2.25 4.75 2.59 4.75 3V5ZM8.75 5C8.75 5.41 8.41 5.75 8 5.75C7.59 5.75 7.25 5.41 7.25 5V3C7.25 2.59 7.59 2.25 8 2.25C8.41 2.25 8.75 2.59 8.75 3V5ZM16 4.75H12C11.59 4.75 11.25 4.41 11.25 4C11.25 3.59 11.59 3.25 12 3.25H16C16.41 3.25 16.75 3.59 16.75 4C16.75 4.41 16.41 4.75 16 4.75Z" fill="#101010"/>
<path d="M17.32 12H2.68C1.21 12 0 13.21 0 14.68V17.31C0 18.79 1.21 20 2.68 20H17.31C18.79 20 19.99 18.79 19.99 17.32V14.69C20 13.21 18.79 12 17.32 12ZM4.75 17C4.75 17.41 4.41 17.75 4 17.75C3.59 17.75 3.25 17.41 3.25 17V15C3.25 14.59 3.59 14.25 4 14.25C4.41 14.25 4.75 14.59 4.75 15V17ZM8.75 17C8.75 17.41 8.41 17.75 8 17.75C7.59 17.75 7.25 17.41 7.25 17V15C7.25 14.59 7.59 14.25 8 14.25C8.41 14.25 8.75 14.59 8.75 15V17ZM16 16.75H12C11.59 16.75 11.25 16.41 11.25 16C11.25 15.59 11.59 15.25 12 15.25H16C16.41 15.25 16.75 15.59 16.75 16C16.75 16.41 16.41 16.75 16 16.75Z" fill="#101010"/>
</svg>
