<svg width="22" height="22" viewBox="0 0 22 22" fill="none" xmlns="http://www.w3.org/2000/svg">
<path d="M11 17.75C10.59 17.75 10.25 17.41 10.25 17V16C10.25 15.59 10.59 15.25 11 15.25C11.41 15.25 11.75 15.59 11.75 16V17C11.75 17.41 11.41 17.75 11 17.75Z" fill="#101010"/>
<path d="M11 21.75C10.59 21.75 10.25 21.41 10.25 21V20C10.25 19.59 10.59 19.25 11 19.25C11.41 19.25 11.75 19.59 11.75 20V21C11.75 21.41 11.41 21.75 11 21.75Z" fill="#101010"/>
<path d="M1.0001 21.75C0.940097 21.75 0.880098 21.74 0.820098 21.73C0.420098 21.63 0.170097 21.22 0.270097 20.82L1.2701 16.82C1.3701 16.42 1.7701 16.17 2.1801 16.27C2.5801 16.37 2.8301 16.78 2.7301 17.18L1.7301 21.18C1.6401 21.52 1.3401 21.75 1.0001 21.75Z" fill="#101010"/>
<path d="M20.7526 21.5026C20.4126 21.5026 20.1126 21.2726 20.0226 20.9326L19.0226 16.9326C18.9226 16.5326 19.1626 16.1226 19.5726 16.0226C19.9726 15.9226 20.3826 16.1626 20.4826 16.5726L21.4826 20.5726C21.5826 20.9726 21.3426 21.3826 20.9326 21.4826C20.8726 21.4926 20.8126 21.5026 20.7526 21.5026Z" fill="#101010"/>
<path d="M18.1402 4.3C18.1402 4.6 17.8902 4.84 17.6002 4.84H4.53023C4.23023 4.84 3.99023 4.59 3.99023 4.3C3.99023 4 4.24023 3.76 4.53023 3.76H5.27023L5.55023 2.45C5.81023 1.17 6.35023 0 8.51023 0H13.6002C15.7602 0 16.3102 1.17 16.5702 2.44L16.8502 3.75H17.5902C17.8902 3.75 18.1402 4 18.1402 4.3Z" fill="#101010"/>
<path d="M18.4501 8.40005C18.3401 7.20005 18.0201 5.93005 15.6901 5.93005H6.43014C4.10014 5.93005 3.79014 7.21005 3.67014 8.40005L3.26014 12.8201C3.21014 13.3701 3.39014 13.9201 3.77014 14.3401C4.16014 14.7601 4.70014 15.0001 5.28014 15.0001H6.64014C7.82014 15.0001 8.04014 14.3301 8.19014 13.8801L8.34014 13.4401C8.51014 12.9401 8.55014 12.8201 9.20014 12.8201H12.9201C13.5701 12.8201 13.5901 12.8901 13.7801 13.4401L13.9301 13.8801C14.0701 14.3301 14.3001 15.0001 15.4701 15.0001H16.8301C17.4001 15.0001 17.9501 14.7601 18.3401 14.3401C18.7201 13.9301 18.9001 13.3701 18.8501 12.8201L18.4501 8.40005ZM8.88014 9.92005H6.71014C6.41014 9.92005 6.17014 9.67005 6.17014 9.38005C6.17014 9.09005 6.42014 8.84005 6.71014 8.84005H8.89014C9.19014 8.84005 9.43014 9.09005 9.43014 9.38005C9.43014 9.67005 9.18014 9.92005 8.88014 9.92005ZM15.4101 9.92005H13.2301C12.9301 9.92005 12.6901 9.67005 12.6901 9.38005C12.6901 9.09005 12.9401 8.84005 13.2301 8.84005H15.4101C15.7101 8.84005 15.9501 9.09005 15.9501 9.38005C15.9501 9.67005 15.7101 9.92005 15.4101 9.92005Z" fill="#101010"/>
</svg>
