<svg width="20" height="20" viewBox="0 0 20 20" fill="none" xmlns="http://www.w3.org/2000/svg">
<path d="M14.19 0H5.81C2.17 0 0 2.17 0 5.81V14.18C0 17.83 2.17 20 5.81 20H14.18C17.82 20 19.99 17.83 19.99 14.19V5.81C20 2.17 17.83 0 14.19 0ZM8.95 15.51C8.66 15.8 8.11 16.08 7.71 16.14L5.25 16.49C5.16 16.5 5.07 16.51 4.98 16.51C4.57 16.51 4.19 16.37 3.92 16.1C3.59 15.77 3.45 15.29 3.53 14.76L3.88 12.3C3.94 11.89 4.21 11.35 4.51 11.06L8.97 6.6C9.05 6.81 9.13 7.02 9.24 7.26C9.34 7.47 9.45 7.69 9.57 7.89C9.67 8.06 9.78 8.22 9.87 8.34C9.98 8.51 10.11 8.67 10.19 8.76C10.24 8.83 10.28 8.88 10.3 8.9C10.55 9.2 10.84 9.48 11.09 9.69C11.16 9.76 11.2 9.8 11.22 9.81C11.37 9.93 11.52 10.05 11.65 10.14C11.81 10.26 11.97 10.37 12.14 10.46C12.34 10.58 12.56 10.69 12.78 10.8C13.01 10.9 13.22 10.99 13.43 11.06L8.95 15.51ZM15.37 9.09L14.45 10.02C14.39 10.08 14.31 10.11 14.23 10.11C14.2 10.11 14.16 10.11 14.14 10.1C12.11 9.52 10.49 7.9 9.91 5.87C9.88 5.76 9.91 5.64 9.99 5.57L10.92 4.64C12.44 3.12 13.89 3.15 15.38 4.64C16.14 5.4 16.51 6.13 16.51 6.89C16.5 7.61 16.13 8.33 15.37 9.09Z" fill="#101010"/>
</svg>
