<svg width="20" height="20" viewBox="0 0 20 20" fill="none" xmlns="http://www.w3.org/2000/svg">
<path d="M19 14.25H13C12.59 14.25 12.25 13.91 12.25 13.5C12.25 13.09 12.59 12.75 13 12.75H19C19.41 12.75 19.75 13.09 19.75 13.5C19.75 13.91 19.41 14.25 19 14.25Z" fill="#101010"/>
<path d="M19 18.25H13C12.59 18.25 12.25 17.91 12.25 17.5C12.25 17.09 12.59 16.75 13 16.75H19C19.41 16.75 19.75 17.09 19.75 17.5C19.75 17.91 19.41 18.25 19 18.25Z" fill="#101010"/>
<path d="M20 6.52V1.98C20 0.57 19.36 0 17.77 0H13.73C12.14 0 11.5 0.57 11.5 1.98V6.51C11.5 7.93 12.14 8.49 13.73 8.49H17.77C19.36 8.5 20 7.93 20 6.52Z" fill="#101010"/>
<path d="M8.5 6.52V1.98C8.5 0.57 7.86 0 6.27 0H2.23C0.64 0 0 0.57 0 1.98V6.51C0 7.93 0.64 8.49 2.23 8.49H6.27C7.86 8.5 8.5 7.93 8.5 6.52Z" fill="#101010"/>
<path d="M8.5 17.77V13.73C8.5 12.14 7.86 11.5 6.27 11.5H2.23C0.64 11.5 0 12.14 0 13.73V17.77C0 19.36 0.64 20 2.23 20H6.27C7.86 20 8.5 19.36 8.5 17.77Z" fill="#101010"/>
</svg>
