<svg width="20" height="20" viewBox="0 0 20 20" fill="none" xmlns="http://www.w3.org/2000/svg">
<path d="M14.19 0H5.81C2.17 0 0 2.17 0 5.81V14.18C0 17.83 2.17 20 5.81 20H14.18C17.82 20 19.99 17.83 19.99 14.19V5.81C20 2.17 17.83 0 14.19 0ZM4.47 5.72C4.76 5.43 5.24 5.43 5.53 5.72C6.24 6.43 7.4 6.43 8.11 5.72C8.4 5.43 8.88 5.43 9.17 5.72C9.46 6.01 9.46 6.49 9.17 6.78C8.52 7.43 7.67 7.75 6.82 7.75C5.97 7.75 5.12 7.43 4.47 6.78C4.18 6.48 4.18 6.01 4.47 5.72ZM10 16.78C7.31 16.78 5.12 14.59 5.12 11.9C5.12 11.2 5.69 10.62 6.39 10.62H13.59C14.29 10.62 14.86 11.19 14.86 11.9C14.88 14.59 12.69 16.78 10 16.78ZM15.53 6.78C14.88 7.43 14.03 7.75 13.18 7.75C12.33 7.75 11.48 7.43 10.83 6.78C10.54 6.49 10.54 6.01 10.83 5.72C11.12 5.43 11.6 5.43 11.89 5.72C12.6 6.43 13.76 6.43 14.47 5.72C14.76 5.43 15.24 5.43 15.53 5.72C15.82 6.01 15.82 6.48 15.53 6.78Z" fill="#101010"/>
</svg>
