<svg width="20" height="20" viewBox="0 0 20 20" fill="none" xmlns="http://www.w3.org/2000/svg">
<path d="M14.19 0H5.81C2.17 0 0 2.17 0 5.81V14.18C0 17.83 2.17 20 5.81 20H14.18C17.82 20 19.99 17.83 19.99 14.19V5.81C20 2.17 17.83 0 14.19 0ZM4.47 7.28C4.18 6.99 4.18 6.51 4.47 6.22C5.76 4.93 7.87 4.93 9.17 6.22C9.46 6.51 9.46 6.99 9.17 7.28C9.02 7.43 8.83 7.5 8.64 7.5C8.45 7.5 8.26 7.43 8.11 7.28C7.4 6.57 6.24 6.57 5.53 7.28C5.24 7.58 4.76 7.58 4.47 7.28ZM13.6 16.08H6.4C5.7 16.08 5.13 15.51 5.13 14.8C5.13 12.11 7.32 9.92 10.01 9.92C12.7 9.92 14.89 12.11 14.89 14.8C14.88 15.5 14.3 16.08 13.6 16.08ZM15.53 7.28C15.24 7.57 14.76 7.57 14.47 7.28C13.76 6.57 12.6 6.57 11.89 7.28C11.74 7.43 11.55 7.5 11.36 7.5C11.17 7.5 10.98 7.43 10.83 7.28C10.54 6.99 10.54 6.51 10.83 6.22C12.12 4.93 14.23 4.93 15.53 6.22C15.82 6.52 15.82 6.99 15.53 7.28Z" fill="#101010"/>
</svg>
