<svg width="21" height="21" viewBox="0 0 21 21" fill="none" xmlns="http://www.w3.org/2000/svg">
<path d="M4.00195 13C3.06195 13 2.19195 13.33 1.50195 13.88C0.581953 14.61 0.00195312 15.74 0.00195312 17C0.00195312 17.75 0.211953 18.46 0.581953 19.06C1.27195 20.22 2.54195 21 4.00195 21C5.01195 21 5.93195 20.63 6.63195 20C6.94195 19.74 7.21195 19.42 7.42195 19.06C7.79195 18.46 8.00195 17.75 8.00195 17C8.00195 14.79 6.21195 13 4.00195 13ZM6.07195 16.57L3.94195 18.54C3.80195 18.67 3.61195 18.74 3.43195 18.74C3.24195 18.74 3.05195 18.67 2.90195 18.52L1.91195 17.53C1.62195 17.24 1.62195 16.76 1.91195 16.47C2.20195 16.18 2.68195 16.18 2.97195 16.47L3.45195 16.95L5.05195 15.47C5.35195 15.19 5.83195 15.21 6.11195 15.51C6.39195 15.81 6.37195 16.29 6.07195 16.57Z" fill="#101010"/>
<path d="M13.852 1.95005V5.75005H12.352V1.95005C12.352 1.68005 12.112 1.55005 11.952 1.55005C11.902 1.55005 11.852 1.56005 11.802 1.58005L3.87195 4.57005C3.34195 4.77005 3.00195 5.27005 3.00195 5.84005V6.51005C2.09195 7.19005 1.50195 8.28005 1.50195 9.51005V5.84005C1.50195 4.65005 2.23195 3.59005 3.34195 3.17005L11.282 0.170049C11.502 0.090049 11.732 0.0500488 11.952 0.0500488C12.952 0.0500488 13.852 0.860049 13.852 1.95005Z" fill="#101010"/>
<path d="M20.5021 12.5V13.5C20.5021 13.77 20.2921 13.99 20.0121 14H18.5521C18.0221 14 17.5421 13.61 17.5021 13.09C17.4721 12.78 17.5921 12.49 17.7921 12.29C17.9721 12.1 18.2221 12 18.4921 12H20.0021C20.2921 12.01 20.5021 12.23 20.5021 12.5Z" fill="#101010"/>
<path d="M18.482 10.95H19.502C20.052 10.95 20.502 10.5 20.502 9.95V9.51C20.502 7.44 18.812 5.75 16.742 5.75H5.26195C4.41195 5.75 3.63195 6.03 3.00195 6.51C2.09195 7.19 1.50195 8.28 1.50195 9.51V11.29C1.50195 11.67 1.90195 11.91 2.26195 11.79C2.82195 11.6 3.41195 11.5 4.00195 11.5C7.03195 11.5 9.50195 13.97 9.50195 17C9.50195 17.72 9.31195 18.51 9.01195 19.21C8.85195 19.57 9.10195 20 9.49195 20H16.742C18.812 20 20.502 18.31 20.502 16.24V16.05C20.502 15.5 20.052 15.05 19.502 15.05H18.632C17.672 15.05 16.752 14.46 16.502 13.53C16.302 12.77 16.542 12.03 17.042 11.55C17.412 11.17 17.922 10.95 18.482 10.95ZM13.002 10.75H8.00195C7.59195 10.75 7.25195 10.41 7.25195 10C7.25195 9.59 7.59195 9.25 8.00195 9.25H13.002C13.412 9.25 13.752 9.59 13.752 10C13.752 10.41 13.412 10.75 13.002 10.75Z" fill="#101010"/>
</svg>
