<svg width="21" height="21" viewBox="0 0 21 21" fill="none" xmlns="http://www.w3.org/2000/svg">
<path d="M13.85 1.95005V5.75005H12.35V1.95005C12.35 1.68005 12.11 1.55005 11.95 1.55005C11.9 1.55005 11.85 1.56005 11.8 1.58005L3.87 4.57005C3.34 4.77005 3 5.27005 3 5.84005V6.51005C2.09 7.19005 1.5 8.28005 1.5 9.51005V5.84005C1.5 4.65005 2.23 3.59005 3.34 3.17005L11.28 0.170049C11.5 0.090049 11.73 0.0500488 11.95 0.0500488C12.95 0.0500488 13.85 0.860049 13.85 1.95005Z" fill="#101010"/>
<path d="M20.5002 12.5V13.5C20.5002 13.77 20.2902 13.99 20.0102 14H18.5502C18.0202 14 17.5402 13.61 17.5002 13.09C17.4702 12.78 17.5902 12.49 17.7902 12.29C17.9702 12.1 18.2202 12 18.4902 12H20.0002C20.2902 12.01 20.5002 12.23 20.5002 12.5Z" fill="#101010"/>
<path d="M4 13C3.06 13 2.19 13.33 1.5 13.88C0.58 14.61 0 15.74 0 17C0 17.75 0.21 18.46 0.58 19.06C1.27 20.22 2.54 21 4 21C5.01 21 5.93 20.63 6.63 20C6.94 19.74 7.21 19.42 7.42 19.06C7.79 18.46 8 17.75 8 17C8 14.79 6.21 13 4 13ZM2.42 16.46C2.13 16.17 2.13 15.69 2.42 15.4C2.72 15.11 3.19 15.11 3.49 15.4L4.01 15.93L4.51 15.42C4.81 15.13 5.28 15.13 5.58 15.42C5.87 15.72 5.87 16.19 5.58 16.49L5.07 16.99L5.6 17.51C5.89 17.81 5.89 18.28 5.6 18.58C5.45 18.72 5.26 18.79 5.07 18.79C4.88 18.79 4.69 18.72 4.54 18.58L4.01 18.05L3.46 18.6C3.31 18.75 3.12 18.82 2.93 18.82C2.74 18.82 2.55 18.75 2.4 18.6C2.11 18.31 2.11 17.83 2.4 17.54L2.95 16.99L2.42 16.46Z" fill="#101010"/>
<path d="M18.48 10.95H19.5C20.05 10.95 20.5 10.5 20.5 9.95V9.51C20.5 7.44 18.81 5.75 16.74 5.75H5.26C4.41 5.75 3.63 6.03 3 6.51C2.09 7.19 1.5 8.28 1.5 9.51V11.29C1.5 11.67 1.9 11.91 2.26 11.79C2.82 11.6 3.41 11.5 4 11.5C7.03 11.5 9.5 13.97 9.5 17C9.5 17.72 9.31 18.51 9.01 19.21C8.85 19.57 9.1 20 9.49 20H16.74C18.81 20 20.5 18.31 20.5 16.24V16.05C20.5 15.5 20.05 15.05 19.5 15.05H18.63C17.67 15.05 16.75 14.46 16.5 13.53C16.3 12.77 16.54 12.03 17.04 11.55C17.41 11.17 17.92 10.95 18.48 10.95ZM13 10.75H8C7.59 10.75 7.25 10.41 7.25 10C7.25 9.59 7.59 9.25 8 9.25H13C13.41 9.25 13.75 9.59 13.75 10C13.75 10.41 13.41 10.75 13 10.75Z" fill="#101010"/>
</svg>
