<svg width="21" height="21" viewBox="0 0 21 21" fill="none" xmlns="http://www.w3.org/2000/svg">
<path d="M4.01172 13C2.99172 13 2.05172 13.39 1.34172 14.03C1.18172 14.17 1.03172 14.32 0.901719 14.49C0.341719 15.18 0.0117188 16.05 0.0117188 17C0.0117188 19.21 1.81172 21 4.01172 21C4.97172 21 5.84172 20.66 6.53172 20.11C7.09172 19.64 7.53172 19.03 7.77172 18.33C7.93172 17.92 8.01172 17.47 8.01172 17C8.01172 14.8 6.22172 13 4.01172 13ZM6.41172 16.23C6.41172 16.51 6.19172 16.72 5.92172 16.72C5.65172 16.72 5.43172 16.51 5.43172 16.23V16.13C5.43172 16.02 5.35172 15.93 5.24172 15.93H3.24172C3.34172 16.12 3.32172 16.35 3.16172 16.51C3.07172 16.6 2.95172 16.65 2.81172 16.65C2.69172 16.65 2.56172 16.6 2.47172 16.51L1.75172 15.79C1.71172 15.75 1.67172 15.69 1.64172 15.63C1.60172 15.51 1.60172 15.38 1.64172 15.26C1.67172 15.21 1.70172 15.14 1.75172 15.1L2.47172 14.39C2.66172 14.19 2.97172 14.19 3.15172 14.39C3.31172 14.54 3.33172 14.78 3.23172 14.96H5.24172C5.88172 14.96 6.40172 15.48 6.40172 16.13V16.23H6.41172ZM5.21172 19.76C5.08172 19.76 4.95172 19.72 4.86172 19.62C4.70172 19.47 4.68172 19.23 4.78172 19.05H2.77172C2.13172 19.05 1.61172 18.53 1.61172 17.88V17.78C1.61172 17.5 1.83172 17.29 2.10172 17.29C2.37172 17.29 2.59172 17.5 2.59172 17.78V17.88C2.59172 17.99 2.67172 18.08 2.78172 18.08H4.79172C4.69172 17.89 4.71172 17.66 4.87172 17.5C5.06172 17.31 5.37172 17.31 5.55172 17.5L6.27172 18.22C6.31172 18.26 6.35172 18.32 6.38172 18.38C6.42172 18.5 6.42172 18.63 6.38172 18.75C6.35172 18.8 6.31172 18.86 6.27172 18.9L5.55172 19.61C5.46172 19.71 5.33172 19.76 5.21172 19.76Z" fill="#101010"/>
<path d="M13.8617 1.95005V5.75005H12.3617V1.95005C12.3617 1.68005 12.1217 1.55005 11.9617 1.55005C11.9117 1.55005 11.8617 1.56005 11.8117 1.58005L3.88172 4.57005C3.35172 4.77005 3.01172 5.27005 3.01172 5.84005V6.51005C2.10172 7.19005 1.51172 8.28005 1.51172 9.51005V5.84005C1.51172 4.65005 2.24172 3.59005 3.35172 3.17005L11.2917 0.170049C11.5117 0.090049 11.7417 0.0500488 11.9617 0.0500488C12.9617 0.0500488 13.8617 0.860049 13.8617 1.95005Z" fill="#101010"/>
<path d="M20.5119 12.5V13.5C20.5119 13.77 20.3019 13.99 20.0219 14H18.5619C18.0319 14 17.5519 13.61 17.5119 13.09C17.4819 12.78 17.6019 12.49 17.8019 12.29C17.9819 12.1 18.2319 12 18.5019 12H20.0119C20.3019 12.01 20.5119 12.23 20.5119 12.5Z" fill="#101010"/>
<path d="M18.4917 10.95H19.5117C20.0617 10.95 20.5117 10.5 20.5117 9.95V9.51C20.5117 7.44 18.8217 5.75 16.7517 5.75H5.27172C4.42172 5.75 3.64172 6.03 3.01172 6.51C2.10172 7.19 1.51172 8.28 1.51172 9.51V11.29C1.51172 11.67 1.91172 11.91 2.27172 11.79C2.83172 11.6 3.42172 11.5 4.01172 11.5C7.04172 11.5 9.51172 13.97 9.51172 17C9.51172 17.72 9.32172 18.51 9.02172 19.21C8.86172 19.57 9.11172 20 9.50172 20H16.7517C18.8217 20 20.5117 18.31 20.5117 16.24V16.05C20.5117 15.5 20.0617 15.05 19.5117 15.05H18.6417C17.6817 15.05 16.7617 14.46 16.5117 13.53C16.3117 12.77 16.5517 12.03 17.0517 11.55C17.4217 11.17 17.9317 10.95 18.4917 10.95ZM13.0117 10.75H8.01172C7.60172 10.75 7.26172 10.41 7.26172 10C7.26172 9.59 7.60172 9.25 8.01172 9.25H13.0117C13.4217 9.25 13.7617 9.59 13.7617 10C13.7617 10.41 13.4217 10.75 13.0117 10.75Z" fill="#101010"/>
</svg>
