<svg width="20" height="20" viewBox="0 0 20 20" fill="none" xmlns="http://www.w3.org/2000/svg">
<path d="M14.192 0H5.81195C2.17195 0 0.00195312 2.17 0.00195312 5.81V14.18C0.00195312 17.83 2.17195 20 5.81195 20H14.182C17.822 20 19.992 17.83 19.992 14.19V5.81C20.002 2.17 17.832 0 14.192 0ZM10.522 13.75L9.26195 15.01C8.62195 15.66 7.57195 15.66 6.92195 15.01L4.99195 13.08C4.34195 12.43 4.35195 11.39 4.99195 10.74L6.26195 9.48C6.46195 9.29 6.77195 9.29 6.97195 9.48L10.532 13.04C10.722 13.24 10.722 13.56 10.522 13.75ZM15.012 9.26L11.932 12.34C11.732 12.54 11.422 12.54 11.222 12.34L7.66195 8.78C7.46195 8.58 7.46195 8.27 7.66195 8.07L10.742 4.99C11.382 4.34 12.432 4.34 13.082 4.99L15.012 6.92C15.662 7.57 15.662 8.62 15.012 9.26Z" fill="#101010"/>
</svg>
