<svg width="20" height="20" viewBox="0 0 20 20" fill="none" xmlns="http://www.w3.org/2000/svg">
<path d="M19.0302 20H11.9902C11.5702 20 11.2402 19.66 11.2402 19.25C11.2402 18.84 11.5802 18.5 11.9902 18.5H19.0302C19.4502 18.5 19.7802 18.84 19.7802 19.25C19.7802 19.66 19.4502 20 19.0302 20Z" fill="#101010"/>
<path d="M11.64 14.69C12.03 15.08 12.03 15.71 11.64 16.11L8.66 19.09C7.55 20.2 5.77 20.26 4.59 19.27C4.52 19.21 4.46 19.15 4.4 19.09L3.53 18.22L1.74 16.43L0.879999 15.57C0.809999 15.5 0.749999 15.43 0.689999 15.36C-0.290001 14.18 -0.220001 12.42 0.879999 11.32L3.86 8.34002C4.25 7.95002 4.88 7.95002 5.27 8.34002L11.64 14.69Z" fill="#101010"/>
<path d="M19.1204 8.64L14.1204 13.64C13.7304 14.03 13.1004 14.03 12.7104 13.64L6.34035 7.29C5.95035 6.9 5.95035 6.27 6.34035 5.87L11.3404 0.880002C12.5104 -0.289998 14.4304 -0.289998 15.6004 0.880002L19.1204 4.39C20.2904 5.56 20.2904 7.47 19.1204 8.64Z" fill="#101010"/>
</svg>
