<svg width="20" height="20" viewBox="0 0 20 20" fill="none" xmlns="http://www.w3.org/2000/svg">
<path d="M14.8 7H10.75V13.25C10.75 13.66 10.41 14 10 14C9.59 14 9.25 13.66 9.25 13.25V7H5.2C2 7 0 9 0 12.2V14.79C0 18 2 20 5.2 20H14.79C17.99 20 19.99 18 19.99 14.8V12.2C20 9 18 7 14.8 7Z" fill="#101010"/>
<path d="M10.7498 2.56L12.8198 4.63C12.9698 4.78 13.1598 4.85 13.3498 4.85C13.5398 4.85 13.7298 4.78 13.8798 4.63C14.1698 4.34 14.1698 3.86 13.8798 3.57L10.5298 0.220002C10.2398 -0.0699975 9.75984 -0.0699975 9.46984 0.220002L6.11984 3.57C5.82984 3.86 5.82984 4.34 6.11984 4.63C6.40984 4.92 6.88984 4.92 7.17984 4.63L9.24984 2.56V7H10.7498V2.56Z" fill="#101010"/>
</svg>
