<svg width="20" height="20" viewBox="0 0 20 20" fill="none" xmlns="http://www.w3.org/2000/svg">
<path d="M10 0C4.48 0 0 4.48 0 10C0 15.52 4.48 20 10 20C15.52 20 20 15.52 20 10C20 4.48 15.52 0 10 0ZM15.25 10.33C15.25 10.74 14.91 11.08 14.5 11.08C14.09 11.08 13.75 10.74 13.75 10.33V7.31L6.03 15.03C5.88 15.18 5.69 15.25 5.5 15.25C5.31 15.25 5.12 15.18 4.97 15.03C4.68 14.74 4.68 14.26 4.97 13.97L12.69 6.25H9.67C9.26 6.25 8.92 5.91 8.92 5.5C8.92 5.09 9.26 4.75 9.67 4.75H14.5C14.91 4.75 15.25 5.09 15.25 5.5V10.33Z" fill="#101010"/>
</svg>
