<svg width="17" height="20" viewBox="0 0 17 20" fill="none" xmlns="http://www.w3.org/2000/svg">
<path d="M13 0H4C1.79 0 0 1.79 0 4V11.25C0 11.8 0.45 12.25 1 12.25H16C16.55 12.25 17 11.8 17 11.25V4C17 1.79 15.21 0 13 0ZM4 10.75H3C2.59 10.75 2.25 10.41 2.25 10C2.25 9.59 2.59 9.25 3 9.25H4C4.41 9.25 4.75 9.59 4.75 10C4.75 10.41 4.41 10.75 4 10.75ZM4 8.25H3C2.59 8.25 2.25 7.91 2.25 7.5C2.25 7.09 2.59 6.75 3 6.75H4C4.41 6.75 4.75 7.09 4.75 7.5C4.75 7.91 4.41 8.25 4 8.25ZM4 5.75H3C2.59 5.75 2.25 5.41 2.25 5C2.25 4.59 2.59 4.25 3 4.25H4C4.41 4.25 4.75 4.59 4.75 5C4.75 5.41 4.41 5.75 4 5.75Z" fill="#101010"/>
<path d="M0 14.75V16C0 18.21 1.79 20 4 20H13C15.21 20 17 18.21 17 16V14.75C17 14.2 16.55 13.75 16 13.75H1C0.45 13.75 0 14.2 0 14.75ZM13.71 17.46C13.52 17.64 13.26 17.75 13 17.75C12.74 17.75 12.48 17.64 12.29 17.46C12.11 17.27 12 17.01 12 16.75C12 16.49 12.11 16.23 12.29 16.04C12.66 15.67 13.33 15.67 13.71 16.04C13.89 16.23 14 16.49 14 16.75C14 17.01 13.89 17.27 13.71 17.46Z" fill="#101010"/>
</svg>
