<svg width="21" height="20" viewBox="0 0 21 20" fill="none" xmlns="http://www.w3.org/2000/svg">
<path d="M19.2704 7.17981C18.9804 6.71981 18.6704 6.28981 18.3504 5.88981C17.9804 5.41981 17.2804 5.37981 16.8604 5.79981L13.8604 8.79981C14.0804 9.45981 14.1204 10.2198 13.9204 11.0098C13.5704 12.4198 12.4304 13.5598 11.0204 13.9098C10.2304 14.1098 9.47044 14.0698 8.81044 13.8498C8.81044 13.8498 7.38044 15.2798 6.35044 16.3098C5.85044 16.8098 6.01044 17.6898 6.68044 17.9498C7.75044 18.3598 8.86044 18.5698 10.0004 18.5698C11.7804 18.5698 13.5104 18.0498 15.0904 17.0798C16.7004 16.0798 18.1504 14.6098 19.3204 12.7398C20.2704 11.2298 20.2204 8.68981 19.2704 7.17981Z" fill="#101010"/>
<path d="M12.0196 7.97989L7.97965 12.0199C7.46965 11.4999 7.13965 10.7799 7.13965 9.99989C7.13965 8.42989 8.41965 7.13989 9.99965 7.13989C10.7796 7.13989 11.4996 7.46989 12.0196 7.97989Z" fill="#101010"/>
<path d="M16.25 3.74993L12.86 7.13993C12.13 6.39993 11.12 5.95993 10 5.95993C7.76 5.95993 5.96 7.76993 5.96 9.99993C5.96 11.1199 6.41 12.1299 7.14 12.8599L3.76 16.2499H3.75C2.64 15.3499 1.62 14.1999 0.75 12.8399C-0.25 11.2699 -0.25 8.71993 0.75 7.14993C1.91 5.32993 3.33 3.89993 4.91 2.91993C6.49 1.95993 8.22 1.42993 10 1.42993C12.23 1.42993 14.39 2.24993 16.25 3.74993Z" fill="#101010"/>
<path d="M12.8601 9.99983C12.8601 11.5698 11.5801 12.8598 10.0001 12.8598C9.94008 12.8598 9.89008 12.8598 9.83008 12.8398L12.8401 9.82983C12.8601 9.88983 12.8601 9.93983 12.8601 9.99983Z" fill="#101010"/>
<path d="M19.7699 0.229883C19.4699 -0.0701172 18.9799 -0.0701172 18.6799 0.229883L0.229883 18.6899C-0.0701172 18.9899 -0.0701172 19.4799 0.229883 19.7799C0.379883 19.9199 0.569883 19.9999 0.769883 19.9999C0.969883 19.9999 1.15988 19.9199 1.30988 19.7699L19.7699 1.30988C20.0799 1.00988 20.0799 0.529883 19.7699 0.229883Z" fill="#101010"/>
</svg>
