<svg width="20" height="20" viewBox="0 0 20 20" fill="none" xmlns="http://www.w3.org/2000/svg">
<path d="M17.1199 12.9399L17.4399 13.5899C17.5999 13.9099 18.0099 14.2099 18.3499 14.2699L18.7799 14.3399C20.0899 14.5599 20.3899 15.5199 19.4599 16.4599L19.0599 16.8599C18.7899 17.1299 18.6499 17.6499 18.7299 18.0299L18.7799 18.2699C19.1399 19.8499 18.2999 20.4599 16.9299 19.6299L16.6399 19.4499C16.2899 19.2399 15.7099 19.2399 15.3599 19.4499L15.0699 19.6299C13.6899 20.4599 12.8599 19.8499 13.2199 18.2699L13.2699 18.0299C13.3499 17.6599 13.2099 17.1299 12.9399 16.8599L12.5399 16.4599C11.6099 15.5099 11.9099 14.5599 13.2199 14.3399L13.6499 14.2699C13.9999 14.2099 14.3999 13.9099 14.5599 13.5899L14.8799 12.9399C15.4999 11.6899 16.4999 11.6899 17.1199 12.9399Z" fill="#101010"/>
<path d="M14.19 0H5.81C2.17 0 0 2.17 0 5.81V14.19C0 17.83 2.17 20 5.81 20H11.09C11.44 20 11.69 19.64 11.65 19.29C11.61 18.91 11.63 18.46 11.75 17.94C11.77 17.87 11.75 17.79 11.69 17.73L11.47 17.51C10.62 16.65 10.31 15.61 10.61 14.66C10.92 13.72 11.78 13.06 12.97 12.86L13.27 12.81L13.54 12.27C14.09 11.15 14.99 10.5 16 10.5C17.01 10.5 17.91 11.15 18.46 12.27L18.61 12.58C18.68 12.73 18.82 12.83 18.98 12.86C19.07 12.88 19.16 12.9 19.25 12.92C19.6 13.01 20 12.73 20 12.36V5.81C20 2.17 17.83 0 14.19 0ZM14.26 6.96L11.95 9.94C11.66 10.31 11.25 10.55 10.78 10.6C10.32 10.66 9.85 10.53 9.49 10.24L7.66 8.82C7.59 8.76 7.51 8.76 7.47 8.77C7.43 8.77 7.36 8.79 7.3 8.87L4.92 11.96C4.77 12.15 4.55 12.25 4.32 12.25C4.16 12.25 4 12.2 3.86 12.09C3.53 11.84 3.47 11.37 3.72 11.04L6.1 7.95C6.39 7.58 6.8 7.34 7.27 7.28C7.74 7.22 8.2 7.35 8.57 7.64L10.4 9.08C10.47 9.14 10.54 9.13 10.59 9.13C10.63 9.13 10.7 9.11 10.76 9.03L13.07 6.05C13.32 5.72 13.79 5.66 14.12 5.92C14.46 6.17 14.51 6.64 14.26 6.96Z" fill="#101010"/>
</svg>
