<svg width="19" height="20" viewBox="0 0 19 20" fill="none" xmlns="http://www.w3.org/2000/svg">
<path d="M14.9199 8.12C14.5899 8.04 14.2399 8 13.8799 8C11.2599 8 9.12988 10.13 9.12988 12.75C9.12988 13.64 9.37988 14.48 9.81988 15.2C10.1899 15.82 10.6999 16.35 11.3199 16.73C12.0599 17.22 12.9399 17.5 13.8799 17.5C15.6199 17.5 17.1299 16.57 17.9499 15.2C18.3899 14.48 18.6299 13.64 18.6299 12.75C18.6299 10.49 17.0499 8.59 14.9199 8.12ZM16.2499 12.13L13.7099 14.47C13.5699 14.6 13.3799 14.67 13.1999 14.67C13.0099 14.67 12.8199 14.6 12.6699 14.45L11.4999 13.28C11.2099 12.99 11.2099 12.51 11.4999 12.22C11.7899 11.93 12.2699 11.93 12.5599 12.22L13.2199 12.88L15.2299 11.03C15.5399 10.75 16.0099 10.77 16.2899 11.07C16.5699 11.38 16.5499 11.85 16.2499 12.13Z" fill="#101010"/>
<path d="M17.5799 2.02V4.24C17.5799 5.05 17.0799 6.06 16.5799 6.57L16.3999 6.73C16.2599 6.86 16.0499 6.89 15.8699 6.83C15.6699 6.76 15.4699 6.71 15.2699 6.66C14.8299 6.55 14.3599 6.5 13.8799 6.5C10.4299 6.5 7.62992 9.3 7.62992 12.75C7.62992 13.89 7.93992 15.01 8.52992 15.97C9.02992 16.81 9.72992 17.51 10.4899 17.98C10.7199 18.13 10.8099 18.45 10.6099 18.63C10.5399 18.69 10.4699 18.74 10.3999 18.79L8.99992 19.7C7.69992 20.51 5.90992 19.6 5.90992 17.98V12.63C5.90992 11.92 5.50992 11.01 5.10992 10.51L1.31992 6.47C0.819922 5.96 0.419922 5.05 0.419922 4.45V2.12C0.419922 0.91 1.31992 0 2.40992 0H15.5899C16.6799 0 17.5799 0.91 17.5799 2.02Z" fill="#101010"/>
</svg>
