<svg width="19" height="20" viewBox="0 0 19 20" fill="none" xmlns="http://www.w3.org/2000/svg">
<path d="M13.8799 8C11.2599 8 9.12988 10.13 9.12988 12.75C9.12988 13.64 9.37988 14.48 9.81988 15.2C10.6399 16.58 12.1499 17.5 13.8799 17.5C15.6099 17.5 17.1199 16.57 17.9399 15.2C18.3799 14.49 18.6299 13.64 18.6299 12.75C18.6299 10.13 16.5099 8 13.8799 8ZM15.6599 13.48H14.6299V14.55C14.6299 14.96 14.2899 15.3 13.8799 15.3C13.4699 15.3 13.1299 14.96 13.1299 14.55V13.48H12.1099C11.6999 13.48 11.3599 13.14 11.3599 12.73C11.3599 12.32 11.6999 11.98 12.1099 11.98H13.1299V11C13.1299 10.59 13.4699 10.25 13.8799 10.25C14.2899 10.25 14.6299 10.59 14.6299 11V11.98H15.6599C16.0699 11.98 16.4099 12.32 16.4099 12.73C16.4099 13.14 16.0699 13.48 15.6599 13.48Z" fill="#101010"/>
<path d="M17.5799 2.02V4.24C17.5799 5.05 17.0799 6.06 16.5799 6.57L16.3999 6.73C16.2599 6.86 16.0499 6.89 15.8699 6.83C15.6699 6.76 15.4699 6.71 15.2699 6.66C14.8299 6.55 14.3599 6.5 13.8799 6.5C10.4299 6.5 7.62992 9.3 7.62992 12.75C7.62992 13.89 7.93992 15.01 8.52992 15.97C9.02992 16.81 9.72992 17.51 10.4899 17.98C10.7199 18.13 10.8099 18.45 10.6099 18.63C10.5399 18.69 10.4699 18.74 10.3999 18.79L8.99992 19.7C7.69992 20.51 5.90992 19.6 5.90992 17.98V12.63C5.90992 11.92 5.50992 11.01 5.10992 10.51L1.31992 6.47C0.819922 5.96 0.419922 5.05 0.419922 4.45V2.12C0.419922 0.91 1.31992 0 2.40992 0H15.5899C16.6799 0 17.5799 0.91 17.5799 2.02Z" fill="#101010"/>
</svg>
