<svg width="19" height="20" viewBox="0 0 19 20" fill="none" xmlns="http://www.w3.org/2000/svg">
<path d="M14.9199 4.37C14.5899 4.29 14.2399 4.25 13.8799 4.25C11.2599 4.25 9.12988 6.38 9.12988 9C9.12988 9.89 9.37988 10.73 9.81988 11.45C10.1899 12.07 10.6999 12.6 11.3199 12.98C12.0599 13.47 12.9399 13.75 13.8799 13.75C15.6199 13.75 17.1299 12.82 17.9499 11.45C18.3899 10.73 18.6299 9.89 18.6299 9C18.6299 6.74 17.0499 4.84 14.9199 4.37ZM15.8299 8.57L13.3999 11C13.3099 11.09 13.1199 11.18 12.9899 11.2L12.0599 11.33C11.7199 11.38 11.4899 11.14 11.5399 10.81L11.6699 9.88C11.6899 9.75 11.7799 9.57 11.8699 9.47L13.9499 7.39L14.2999 7.04C14.7199 6.62 15.2099 6.42 15.8199 7.04C16.4299 7.66 16.2499 8.15 15.8299 8.57Z" fill="#101010"/>
<path d="M17.5799 2.02V2.98C17.5799 3.39 17.1099 3.64 16.7399 3.45C16.2799 3.21 15.7899 3.03 15.2699 2.91C14.8299 2.8 14.3599 2.75 13.8799 2.75C10.4299 2.75 7.62992 5.55 7.62992 9C7.62992 10.14 7.93992 11.26 8.52992 12.22C9.02992 13.06 9.72992 13.76 10.4899 14.23C10.6599 14.34 10.8399 14.44 11.0099 14.54C11.1799 14.63 11.2999 14.81 11.2999 15V17.07C11.2999 17.68 10.8999 18.49 10.3999 18.79L8.99992 19.7C7.69992 20.51 5.90992 19.6 5.90992 17.98V12.63C5.90992 11.92 5.50992 11.01 5.10992 10.51L1.31992 6.47C0.819922 5.96 0.419922 5.05 0.419922 4.45V2.12C0.419922 0.91 1.31992 0 2.40992 0H15.5899C16.6799 0 17.5799 0.91 17.5799 2.02Z" fill="#101010"/>
</svg>
