<svg width="20" height="20" viewBox="0 0 20 20" fill="none" xmlns="http://www.w3.org/2000/svg">
<path d="M18.95 2.13C18.66 1.71 18.29 1.34 17.87 1.05C16.92 0.36 15.68 0 14.19 0H5.81C5.61 0 5.41 0.00999997 5.22 0.03C1.94 0.24 0 2.37 0 5.81V14.19C0 15.68 0.36 16.92 1.05 17.87C1.34 18.29 1.71 18.66 2.13 18.95C2.95 19.55 3.99 19.9 5.22 19.98C5.41 19.99 5.61 20 5.81 20H14.19C17.83 20 20 17.83 20 14.19V5.81C20 4.32 19.64 3.08 18.95 2.13ZM6.46 8.68L5.97 8.17C5.71 7.91 5.5 7.44 5.5 7.12V5.92C5.5 5.29 5.97 4.82 6.55 4.82H8.69C9.1 4.82 9.35 5.27 9.13 5.62L7.28 8.6C7.1 8.89 6.69 8.93 6.46 8.68ZM14.5 7.02C14.5 7.44 14.24 7.96 13.98 8.22L11.73 10.21C11.42 10.47 11.21 10.99 11.21 11.41V13.66C11.21 13.97 11 14.39 10.74 14.55L10 15.02C9.32 15.44 8.38 14.97 8.38 14.13V11.36C8.38 10.99 8.17 10.52 7.96 10.26L7.72 10C7.56 9.83 7.53 9.57 7.65 9.36L10.33 5.06C10.43 4.91 10.59 4.81 10.77 4.81H13.45C14.03 4.81 14.5 5.28 14.5 5.86V7.02Z" fill="#101010"/>
</svg>
