<svg width="20" height="20" viewBox="0 0 20 20" fill="none" xmlns="http://www.w3.org/2000/svg">
<path d="M10 5.94995C8.21 5.94995 6.75 7.40995 6.75 9.19995V10.8C6.75 12.59 8.21 14.05 10 14.05C11.79 14.05 13.25 12.59 13.25 10.8V9.19995C13.25 7.40995 11.79 5.94995 10 5.94995ZM10.9 11.24C10.9 11.74 10.5 12.14 10 12.14C9.5 12.14 9.1 11.74 9.1 11.24V8.76995C9.1 8.27995 9.5 7.86995 10 7.86995C10.5 7.86995 10.9 8.26995 10.9 8.76995V11.24Z" fill="#101010"/>
<path d="M10 0C4.48 0 0 4.48 0 10C0 15.52 4.48 20 10 20C15.52 20 20 15.52 20 10C20 4.48 15.52 0 10 0ZM14.75 10.8C14.75 13.42 12.62 15.55 10 15.55C7.38 15.55 5.25 13.42 5.25 10.8V9.2C5.25 6.58 7.38 4.45 10 4.45C12.62 4.45 14.75 6.58 14.75 9.2V10.8Z" fill="#101010"/>
</svg>
