<svg width="22" height="22" viewBox="0 0 22 22" fill="none" xmlns="http://www.w3.org/2000/svg">
<path d="M21 8.75C20.59 8.75 20.25 8.41 20.25 8V6C20.25 3.42 18.58 1.75 16 1.75H14C13.59 1.75 13.25 1.41 13.25 1C13.25 0.59 13.59 0.25 14 0.25H16C19.44 0.25 21.75 2.56 21.75 6V8C21.75 8.41 21.41 8.75 21 8.75Z" fill="#101010"/>
<path d="M1 8.75C0.59 8.75 0.25 8.41 0.25 8V6C0.25 2.56 2.56 0.25 6 0.25H8C8.41 0.25 8.75 0.59 8.75 1C8.75 1.41 8.41 1.75 8 1.75H6C3.42 1.75 1.75 3.42 1.75 6V8C1.75 8.41 1.41 8.75 1 8.75Z" fill="#101010"/>
<path d="M16 21.75H14C13.59 21.75 13.25 21.41 13.25 21C13.25 20.59 13.59 20.25 14 20.25H16C18.58 20.25 20.25 18.58 20.25 16V14C20.25 13.59 20.59 13.25 21 13.25C21.41 13.25 21.75 13.59 21.75 14V16C21.75 19.44 19.44 21.75 16 21.75Z" fill="#101010"/>
<path d="M8 21.75H6C2.56 21.75 0.25 19.44 0.25 16V14C0.25 13.59 0.59 13.25 1 13.25C1.41 13.25 1.75 13.59 1.75 14V16C1.75 18.58 3.42 20.25 6 20.25H8C8.41 20.25 8.75 20.59 8.75 21C8.75 21.41 8.41 21.75 8 21.75Z" fill="#101010"/>
<path d="M10.9996 8.87012C10.5096 8.87012 10.0996 9.27012 10.0996 9.77012V12.2401C10.0996 12.7401 10.4996 13.1401 10.9996 13.1401C11.4996 13.1401 11.8996 12.7401 11.8996 12.2401V9.77012C11.8996 9.27012 11.4896 8.87012 10.9996 8.87012Z" fill="#101010"/>
<path d="M14.5298 6.39993C14.1898 6.05993 13.7998 5.76993 13.3798 5.52993C13.2398 5.45993 13.0898 5.38993 12.9398 5.31993C12.7898 5.25993 12.6398 5.19993 12.4798 5.15993C12.3198 5.10993 12.1598 5.06993 11.9998 5.02993C11.9898 5.02993 11.9698 5.02993 11.9598 5.01993C11.6498 4.95993 11.3298 4.92993 11.0098 4.92993H10.9898C10.6698 4.92993 10.3598 4.95993 10.0498 5.01993C10.0098 5.02993 9.96976 5.02993 9.93976 5.04993C9.79976 5.07993 9.65977 5.10993 9.51977 5.15993C9.34977 5.19993 9.17977 5.26993 9.00977 5.33993C8.87977 5.39993 8.74977 5.46993 8.62977 5.52993C8.47977 5.60993 8.34977 5.69993 8.20977 5.78993C7.94977 5.96993 7.69977 6.16993 7.46977 6.39993C7.35977 6.50993 7.24977 6.62993 7.14977 6.74993C7.04976 6.87993 6.94977 6.99993 6.85977 7.13993C6.76977 7.26993 6.68977 7.40993 6.60977 7.54993C6.22977 8.25993 6.00977 9.06993 6.00977 9.92993V12.0699C6.00977 13.7999 6.88977 15.3199 8.20977 16.2099C8.32977 16.2999 8.45977 16.3699 8.58977 16.4499L9.13977 16.7099C9.41977 16.8199 9.70977 16.9099 9.99977 16.9699C10.3198 17.0299 10.6498 17.0699 10.9898 17.0699C10.9998 17.0699 10.9998 17.0699 11.0098 17.0699C11.3498 17.0699 11.6798 17.0299 11.9998 16.9699C12.2998 16.9099 12.5898 16.8199 12.8698 16.7099C13.0598 16.6299 13.2398 16.5399 13.4098 16.4499C14.9498 15.5999 15.9898 13.9499 15.9898 12.0699V9.92993C15.9898 8.54993 15.4298 7.29993 14.5298 6.39993ZM13.3998 12.2399C13.3998 13.5599 12.3198 14.6399 10.9998 14.6399C9.67977 14.6399 8.59977 13.5599 8.59977 12.2399V9.76993C8.59977 8.44993 9.67977 7.36993 10.9998 7.36993C12.3198 7.36993 13.3998 8.44993 13.3998 9.76993V12.2399Z" fill="#101010"/>
</svg>
