<svg width="21" height="20" viewBox="0 0 21 20" fill="none" xmlns="http://www.w3.org/2000/svg">
<path d="M19.7699 0.229883C19.4699 -0.0701172 18.9799 -0.0701172 18.6799 0.229883L0.229883 18.6899C-0.0701172 18.9899 -0.0701172 19.4799 0.229883 19.7799C0.379883 19.9199 0.569883 19.9999 0.769883 19.9999C0.969883 19.9999 1.15988 19.9199 1.30988 19.7699L19.7699 1.30988C20.0799 1.00988 20.0799 0.529883 19.7699 0.229883Z" fill="#101010"/>
<path d="M12.8195 1.5199V7.1799L7.17952 12.8199V11.2799H4.08952C2.68952 11.2799 2.29952 10.4199 3.22952 9.3699L9.99952 1.6699L10.7995 0.759897C11.9095 -0.500103 12.8195 -0.160102 12.8195 1.5199Z" fill="#101010"/>
<path d="M16.7697 10.63L9.99969 18.33L9.19969 19.24C8.08969 20.5 7.17969 20.16 7.17969 18.48V15.82L14.2797 8.71997H15.9097C17.3097 8.71997 17.6997 9.57997 16.7697 10.63Z" fill="#101010"/>
</svg>
