<svg width="23" height="20" viewBox="0 0 23 20" fill="none" xmlns="http://www.w3.org/2000/svg">
<path d="M9.31994 11.28H12.4099V18.48C12.4099 19.54 13.7299 20.04 14.4299 19.24L21.9999 10.64C22.6599 9.88997 22.1299 8.71997 21.1299 8.71997H18.0399V1.51997C18.0399 0.459969 16.7199 -0.0400307 16.0199 0.759969L8.44994 9.35997C7.79994 10.11 8.32994 11.28 9.31994 11.28Z" fill="#101010"/>
<path d="M8.5 2.75H1.5C1.09 2.75 0.75 2.41 0.75 2C0.75 1.59 1.09 1.25 1.5 1.25H8.5C8.91 1.25 9.25 1.59 9.25 2C9.25 2.41 8.91 2.75 8.5 2.75Z" fill="#101010"/>
<path d="M7.5 18.75H1.5C1.09 18.75 0.75 18.41 0.75 18C0.75 17.59 1.09 17.25 1.5 17.25H7.5C7.91 17.25 8.25 17.59 8.25 18C8.25 18.41 7.91 18.75 7.5 18.75Z" fill="#101010"/>
<path d="M4.5 10.75H1.5C1.09 10.75 0.75 10.41 0.75 10C0.75 9.59 1.09 9.25 1.5 9.25H4.5C4.91 9.25 5.25 9.59 5.25 10C5.25 10.41 4.91 10.75 4.5 10.75Z" fill="#101010"/>
</svg>
