<svg width="20" height="20" viewBox="0 0 20 20" fill="none" xmlns="http://www.w3.org/2000/svg">
<path d="M19.0169 5.99175C19.4148 6.55833 18.9405 7.25 18.2482 7.25H1C0.447716 7.25 0 6.80228 0 6.25V4.42C0 1.98 1.98 0 4.42 0H6.74C8.37 0 8.88 0.53 9.53 1.4L10.93 3.26C11.24 3.67 11.28 3.72 11.86 3.72H14.65C16.4546 3.72 18.0516 4.61709 19.0169 5.99175Z" fill="#101010"/>
<path d="M18.9834 8.74976C19.5343 8.74975 19.9815 9.1954 19.9834 9.74637L20 14.65C20 17.6 17.6 20 14.65 20H5.35C2.4 20 0 17.6 0 14.65V9.75C0 9.19772 0.447707 8.75 0.999987 8.75L18.9834 8.74976Z" fill="#101010"/>
</svg>
