<svg width="20" height="20" viewBox="0 0 20 20" fill="none" xmlns="http://www.w3.org/2000/svg">
<path d="M19.0169 5.99175C19.4148 6.55833 18.9405 7.25 18.2482 7.25H1C0.447716 7.25 0 6.80228 0 6.25V4.42C0 1.98 1.98 0 4.42 0H6.74C8.37 0 8.88 0.53 9.53 1.4L10.93 3.26C11.24 3.67 11.28 3.72 11.86 3.72H14.65C16.4546 3.72 18.0516 4.61709 19.0169 5.99175Z" fill="#101010"/>
<path d="M19.9834 9.74588C19.9815 9.19491 19.5343 8.74925 18.9833 8.74927L0.999965 8.74992C0.447694 8.74994 0 9.19765 0 9.74992V14.65C0 17.6 2.4 20 5.35 20H14.65C17.6 20 20 17.6 20 14.65L19.9834 9.74588ZM12.43 14.75H7.43C7.01 14.75 6.68 14.42 6.68 14C6.68 13.59 7.01 13.25 7.43 13.25H12.43C12.84 13.25 13.18 13.59 13.18 14C13.18 14.42 12.84 14.75 12.43 14.75Z" fill="#101010"/>
</svg>
