<svg width="14" height="21" viewBox="0 0 14 21" fill="none" xmlns="http://www.w3.org/2000/svg">
<path d="M7.75 14H10.5C13.3 14 14 13.3 14 10.5V6.3C14 3.5 13.3 2.8 10.5 2.8H8.4C7.7 2.8 7.55 2.59 7.28 2.24L6.23 0.84C5.83 0.31 5.6 0 4.55 0H3.5C0.7 0 0 0.7 0 3.5V10.5C0 13.3 0.7 14 3.5 14H6.25V17C6.25 17.05 6.27 17.09 6.28 17.14C5.76 17.34 5.34 17.76 5.14 18.28C5.09 18.27 5.05 18.25 5 18.25H1C0.59 18.25 0.25 18.59 0.25 19C0.25 19.41 0.59 19.75 1 19.75H5C5.05 19.75 5.09 19.73 5.14 19.72C5.43 20.47 6.15 21 7 21C7.85 21 8.57 20.47 8.86 19.72C8.91 19.73 8.95 19.75 9 19.75H13C13.41 19.75 13.75 19.41 13.75 19C13.75 18.59 13.41 18.25 13 18.25H9C8.95 18.25 8.91 18.27 8.86 18.28C8.66 17.76 8.24 17.34 7.72 17.14C7.73 17.09 7.75 17.05 7.75 17V14Z" fill="#101010"/>
</svg>
