<svg width="20" height="20" viewBox="0 0 20 20" fill="none" xmlns="http://www.w3.org/2000/svg">
<path d="M19.0602 9.81997L18.9002 9.59998C18.6202 9.25998 18.2902 8.98998 17.9102 8.78998C17.4002 8.49998 16.8202 8.34998 16.2202 8.34998H3.7702C3.1702 8.34998 2.6002 8.49998 2.0802 8.78998C1.6902 8.99998 1.3402 9.28997 1.0502 9.64997C0.480197 10.38 0.210197 11.28 0.300197 12.18L0.670197 16.85C0.800197 18.26 0.970197 20 4.1402 20H15.8602C19.0302 20 19.1902 18.26 19.3302 16.84L19.7002 12.19C19.7902 11.35 19.5702 10.51 19.0602 9.81997ZM12.3902 15.34H7.6002C7.2102 15.34 6.9002 15.02 6.9002 14.64C6.9002 14.26 7.2102 13.94 7.6002 13.94H12.3902C12.7802 13.94 13.0902 14.26 13.0902 14.64C13.0902 15.03 12.7802 15.34 12.3902 15.34Z" fill="#101010"/>
<path d="M18.5615 6.59643C18.599 6.97928 18.1837 7.23561 17.8189 7.11348C17.3142 6.94449 16.7829 6.86 16.2304 6.86H3.77037C3.21353 6.86 2.66527 6.95012 2.15371 7.12194C1.79331 7.24298 1.38037 6.99507 1.38037 6.61489V4.66C1.38037 1.09 2.47037 0 6.04037 0H7.22037C8.65037 0 9.10037 0.46 9.68037 1.21L10.8804 2.81C11.1304 3.15 11.1404 3.17 11.5804 3.17H13.9604C17.086 3.17 18.3074 4.00724 18.5615 6.59643Z" fill="#101010"/>
</svg>
