<svg width="21" height="22" viewBox="0 0 21 22" fill="none" xmlns="http://www.w3.org/2000/svg">
<path d="M13.5801 17.7C11.4701 17.85 11.4701 20.91 13.5801 21.06H18.5901C19.2001 21.06 19.7801 20.84 20.2301 20.43C21.7101 19.14 20.9201 16.54 18.9701 16.3C18.2701 12.08 12.1601 13.68 13.6101 17.7" fill="#101010"/>
<path d="M13.5801 17.7C11.4701 17.85 11.4701 20.91 13.5801 21.06H18.5901C19.2001 21.06 19.7801 20.84 20.2301 20.43C21.7101 19.14 20.9201 16.54 18.9701 16.3C18.2701 12.08 12.1601 13.68 13.6101 17.7" fill="#101010"/>
<path d="M20 9.07V13.34C20 13.66 19.49 13.8 19.27 13.57C18.8 13.08 18.21 12.71 17.53 12.5C15.96 12.01 14.15 12.49 13.01 13.67C12.29 14.44 11.9 15.4 11.88 16.44C11.88 16.62 11.79 16.78 11.65 16.89C10.93 17.46 10.49 18.35 10.49 19.37V19.38C10.49 19.7 10.26 19.99 9.94 19.99H5.34C2.4 20 0 17.6 0 14.65V4.42C0 1.98 1.98 0 4.42 0H6.74C8.37 0 8.88 0.53 9.53 1.4L10.93 3.26C11.24 3.67 11.28 3.72 11.86 3.72H14.65C17.03 3.72 19.05 5.28 19.74 7.44C19.89 7.89 19.97 8.35 19.99 8.84C20 8.91 20 9 20 9.07Z" fill="#101010"/>
</svg>
