<svg width="20" height="20" viewBox="0 0 20 20" fill="none" xmlns="http://www.w3.org/2000/svg">
<path d="M15.02 0.88C14.54 0.4 13.58 0 12.9 0H7.1C6.42 0 5.46 0.4 4.98 0.88L0.88 4.98C0.4 5.46 0 6.42 0 7.1V12.9C0 13.58 0.4 14.54 0.88 15.02L2.41 16.55L16.55 2.41L15.02 0.88Z" fill="#101010"/>
<path d="M19.1202 4.97997L17.6102 3.46997L3.47021 17.61L4.98022 19.12C5.46022 19.6 6.42022 20 7.10022 20H12.9002C13.5802 20 14.5402 19.6 15.0202 19.12L19.1202 15.02C19.6002 14.54 20.0002 13.58 20.0002 12.9V7.09997C20.0002 6.41997 19.6002 5.45997 19.1202 4.97997Z" fill="#101010"/>
<path d="M0.489961 18.47C0.199961 18.76 0.199961 19.2401 0.489961 19.5301C0.639961 19.6801 0.829961 19.75 1.01996 19.75C1.20996 19.75 1.39996 19.6801 1.54996 19.5301L3.46996 17.6101L2.40996 16.55L0.489961 18.47Z" fill="#101010"/>
<path d="M19.5298 1.54996C19.8198 1.25996 19.8198 0.779961 19.5298 0.489961C19.2398 0.199961 18.7598 0.199961 18.4698 0.489961L16.5498 2.40996L17.6098 3.46996L19.5298 1.54996Z" fill="#101010"/>
</svg>
