<svg width="20" height="20" viewBox="0 0 20 20" fill="none" xmlns="http://www.w3.org/2000/svg">
<path d="M19.1 5.87C19.68 5.23 20 4.4 20 3.53C20 1.58 18.42 0 16.47 0C15.6 0 14.78 0.32 14.14 0.9C12.85 0.3 11.46 0 10 0C8.57 0 7.15 0.31 5.87 0.9C5.23 0.32 4.4 0 3.53 0C1.58 0 0 1.58 0 3.53C0 4.4 0.32 5.23 0.9 5.87C0.31 7.15 0 8.57 0 10C0 11.46 0.3 12.85 0.9 14.14C0.32 14.78 0 15.6 0 16.47C0 18.42 1.58 20 3.53 20C4.4 20 5.23 19.68 5.87 19.1C7.15 19.69 8.57 20 10 20C11.46 20 12.85 19.7 14.14 19.1C14.78 19.68 15.6 20 16.47 20C18.42 20 20 18.42 20 16.47C20 15.6 19.68 14.78 19.1 14.14C19.7 12.85 20 11.46 20 10C20 8.57 19.69 7.15 19.1 5.87ZM17.68 13.17C17.57 13.13 17.46 13.09 17.35 13.06C17.18 13.02 17 12.99 16.83 12.97C16.71 12.96 16.59 12.95 16.47 12.95C14.53 12.95 12.95 14.53 12.95 16.47C12.95 16.59 12.96 16.71 12.97 16.83C12.99 17 13.02 17.18 13.06 17.35C13.09 17.46 13.13 17.57 13.17 17.68C13.17 17.71 13.18 17.74 13.2 17.77C13.21 17.8 13.22 17.83 13.23 17.86C11.22 18.7 8.82 18.71 6.77 17.86C6.78 17.83 6.79 17.8 6.8 17.77C6.82 17.74 6.83 17.71 6.83 17.68C6.87 17.57 6.91 17.46 6.94 17.35C6.98 17.18 7.01 17 7.03 16.83C7.04 16.71 7.05 16.59 7.05 16.47C7.05 14.53 5.47 12.95 3.53 12.95C3.41 12.95 3.29 12.96 3.17 12.97C3 12.99 2.82 13.02 2.65 13.06C2.54 13.09 2.43 13.13 2.32 13.17C2.29 13.17 2.26 13.18 2.23 13.2C2.2 13.21 2.17 13.22 2.14 13.23C1.71 12.22 1.5 11.13 1.5 10C1.5 8.89 1.72 7.78 2.14 6.77C2.15 6.77 2.17 6.78 2.18 6.78C2.06 6.73 1.93 6.67 1.82 6.61C1.66 6.52 1.5 6.42 1.35 6.3C1.65 6.53 1.97 6.71 2.32 6.83C2.44 6.88 2.57 6.92 2.69 6.95C2.77 6.97 2.84 6.98 2.91 6.99C3 7.01 3.08 7.02 3.17 7.03C3.29 7.04 3.41 7.05 3.53 7.05C5.47 7.05 7.05 5.47 7.05 3.53C7.05 3.41 7.04 3.29 7.03 3.17C7.02 3.08 7.01 3 6.99 2.91C6.98 2.84 6.97 2.77 6.95 2.69C6.92 2.57 6.88 2.44 6.83 2.32C6.71 1.97 6.53 1.65 6.3 1.35C6.42 1.5 6.52 1.66 6.61 1.82C6.67 1.93 6.73 2.06 6.78 2.18C6.78 2.17 6.77 2.15 6.77 2.14C8.81 1.29 11.22 1.3 13.23 2.14C13.22 2.17 13.21 2.2 13.2 2.23C13.18 2.26 13.17 2.29 13.17 2.32C13.13 2.43 13.09 2.54 13.06 2.65C13.02 2.82 12.99 3 12.97 3.17C12.96 3.29 12.95 3.41 12.95 3.53C12.95 5.47 14.53 7.05 16.47 7.05C16.59 7.05 16.71 7.04 16.83 7.03C17 7.01 17.18 6.98 17.35 6.94C17.46 6.91 17.57 6.87 17.68 6.83C17.71 6.83 17.74 6.82 17.77 6.8C17.8 6.79 17.83 6.78 17.86 6.77C18.28 7.78 18.5 8.89 18.5 10C18.5 11.13 18.29 12.22 17.86 13.23C17.83 13.22 17.8 13.21 17.77 13.2C17.74 13.18 17.71 13.17 17.68 13.17Z" fill="#101010"/>
</svg>
