<svg width="22" height="22" viewBox="0 0 22 22" fill="none" xmlns="http://www.w3.org/2000/svg">
<path d="M19.75 15.5V6.5C20.94 6 21.75 4.83 21.75 3.5C21.75 1.71 20.29 0.25 18.5 0.25C17.18 0.25 16 1.06 15.5 2.25H6.5C6 1.06 4.83 0.25 3.5 0.25C1.71 0.25 0.25 1.71 0.25 3.5C0.25 4.82 1.06 6 2.25 6.5V15.5C1.06 16 0.25 17.17 0.25 18.5C0.25 20.29 1.71 21.75 3.5 21.75C4.82 21.75 6 20.94 6.5 19.75H15.5C16 20.94 17.17 21.75 18.5 21.75C20.29 21.75 21.75 20.29 21.75 18.5C21.75 17.18 20.94 16 19.75 15.5ZM18.16 15.27C18.05 15.28 17.95 15.3 17.84 15.32C17.57 15.37 17.31 15.46 17.06 15.59C17 15.62 16.94 15.65 16.88 15.69C16.38 15.97 15.97 16.38 15.69 16.88C15.65 16.94 15.62 17 15.59 17.06C15.46 17.31 15.37 17.57 15.32 17.84C15.3 17.95 15.28 18.05 15.27 18.16C15.26 18.19 15.26 18.22 15.26 18.25H6.74C6.72 18 6.67 17.76 6.6 17.53C6.58 17.45 6.55 17.36 6.51 17.28C6.48 17.21 6.45 17.14 6.41 17.06C6.38 17 6.35 16.94 6.31 16.88C6.03 16.38 5.62 15.97 5.12 15.69C5.06 15.65 5 15.62 4.94 15.59C4.86 15.55 4.79 15.52 4.72 15.49C4.64 15.45 4.55 15.42 4.47 15.4C4.24 15.33 4 15.28 3.75 15.26V6.74C4.01 6.72 4.25 6.67 4.49 6.59C4.58 6.57 4.68 6.53 4.77 6.49C4.82 6.47 4.88 6.44 4.94 6.41C5 6.38 5.06 6.35 5.12 6.31C5.62 6.03 6.03 5.62 6.31 5.12C6.35 5.06 6.38 5 6.41 4.94C6.44 4.88 6.47 4.82 6.49 4.77C6.53 4.68 6.57 4.58 6.59 4.49C6.67 4.25 6.72 4.01 6.74 3.75H15.26C15.28 4.02 15.33 4.27 15.42 4.52C15.44 4.6 15.47 4.69 15.51 4.77C15.53 4.83 15.56 4.88 15.59 4.94C15.62 5 15.65 5.06 15.69 5.12C15.97 5.62 16.38 6.03 16.88 6.31C16.94 6.35 17 6.38 17.06 6.41C17.12 6.44 17.17 6.47 17.23 6.49C17.31 6.53 17.4 6.56 17.48 6.58C17.73 6.67 17.98 6.72 18.25 6.74V15.26C18.22 15.26 18.19 15.26 18.16 15.27Z" fill="#101010"/>
</svg>
