<svg width="20" height="22" viewBox="0 0 20 22" fill="none" xmlns="http://www.w3.org/2000/svg">
<path d="M17.48 6.09003C17.22 5.77003 16.75 5.72003 16.43 5.98003C16.11 6.24003 16.06 6.71003 16.32 7.03003C17.45 8.43003 18.08 10.09 18.14 11.83C18.3 16.31 14.78 20.09 10.29 20.24C5.80003 20.4 2.03003 16.88 1.87003 12.4C1.71003 7.92003 5.23003 4.14003 9.72003 3.99003C10.29 3.97003 10.89 4.02003 11.54 4.15003C11.58 4.16003 11.62 4.15003 11.66 4.15003C11.76 4.20003 11.88 4.23003 11.99 4.23003C12.16 4.23003 12.32 4.18003 12.46 4.06003C12.78 3.80003 12.83 3.33003 12.58 3.01003L10.6 0.540034C10.34 0.220034 9.87003 0.160034 9.55003 0.420034C9.23003 0.680034 9.18003 1.15003 9.43003 1.47003L10.26 2.50003C10.07 2.49003 9.87003 2.48003 9.68003 2.49003C4.37003 2.67003 0.200033 7.15003 0.390033 12.46C0.580033 17.77 5.05003 21.94 10.36 21.75C15.67 21.56 19.84 17.09 19.65 11.78C19.56 9.71003 18.82 7.74003 17.48 6.09003Z" fill="#101010"/>
<path d="M10.3796 15.9201H8.08964C7.67964 15.9201 7.33964 15.5801 7.33964 15.1701C7.33964 14.7601 7.67964 14.4201 8.08964 14.4201H10.3796C10.8096 14.4201 11.1596 14.0701 11.1596 13.6401C11.1596 13.2101 10.8096 12.8601 10.3796 12.8601H8.08964C7.84964 12.8601 7.61964 12.7401 7.47964 12.5501C7.33964 12.3601 7.29964 12.1001 7.37964 11.8701L8.13964 9.58007C8.23964 9.27007 8.52964 9.07007 8.84964 9.07007H11.9096C12.3196 9.07007 12.6596 9.41007 12.6596 9.82007C12.6596 10.2301 12.3196 10.5701 11.9096 10.5701H9.38964L9.12964 11.3601H10.3796C11.6396 11.3601 12.6596 12.3801 12.6596 13.6401C12.6596 14.9001 11.6396 15.9201 10.3796 15.9201Z" fill="#101010"/>
</svg>
