<svg width="20" height="20" viewBox="0 0 20 20" fill="none" xmlns="http://www.w3.org/2000/svg">
<path d="M19.2497 3.77V7C19.2497 9.11461 18.542 9.89903 16.6305 10.0068C16.3548 10.0223 16.1297 9.79614 16.1297 9.52V8.38C16.1297 5.26 14.7397 3.87 11.6197 3.87H10.4797C10.2036 3.87 9.9774 3.64494 9.99294 3.36924C10.1007 1.45773 10.8851 0.75 12.9997 0.75H16.2297C18.5197 0.75 19.2497 1.48 19.2497 3.77Z" fill="#101010"/>
<path d="M14.6301 8.38V11.62C14.6301 13.9 13.9001 14.63 11.6201 14.63H8.38012C6.10012 14.63 5.37012 13.9 5.37012 11.62V8.38C5.37012 6.1 6.10012 5.37 8.38012 5.37H11.6201C13.9001 5.37 14.6301 6.1 14.6301 8.38Z" fill="#101010"/>
<path d="M9.52 16.13C9.79614 16.13 10.0223 16.3551 10.0068 16.6308C9.89903 18.5423 9.11461 19.25 7 19.25H3.77C1.48 19.25 0.75 18.52 0.75 16.23V13C0.75 10.8854 1.45773 10.101 3.36924 9.99322C3.64494 9.97768 3.87 10.2039 3.87 10.48V11.62C3.87 14.74 5.26 16.13 8.38 16.13H9.52Z" fill="#101010"/>
</svg>
