<svg width="20" height="16" viewBox="0 0 20 16" fill="none" xmlns="http://www.w3.org/2000/svg">
<path d="M6.02 0.619995H4.98C3.39 0.619995 2.75 1.22 2.75 2.74V14.62H8.25V2.74C8.24 1.22 7.6 0.619995 6.02 0.619995Z" fill="#101010"/>
<path d="M14.52 5.62H13.48C11.89 5.62 11.25 6.23 11.25 7.74V14.62H16.75V7.74C16.75 6.23 16.1 5.62 14.52 5.62Z" fill="#101010"/>
<path d="M0.75 13.88H19.25C19.66 13.88 20 14.22 20 14.63C20 15.04 19.66 15.38 19.25 15.38H0.75C0.34 15.38 0 15.04 0 14.62C0 14.2 0.34 13.88 0.75 13.88Z" fill="#101010"/>
</svg>
