<svg width="20" height="20" viewBox="0 0 20 20" fill="none" xmlns="http://www.w3.org/2000/svg">
<path d="M9 17.9V2.1C9 0.6 8.36 0 6.77 0H2.73C1.14 0 0.5 0.6 0.5 2.1V17.9C0.5 19.4 1.14 20 2.73 20H6.77C8.36 20 9 19.4 9 17.9Z" fill="#101010"/>
<path d="M19.5 17.64V13.36C19.5 12.06 18.5 11 17.27 11H13.23C12 11 11 12.06 11 13.36V17.64C11 18.94 12 20 13.23 20H17.27C18.5 20 19.5 18.94 19.5 17.64Z" fill="#101010"/>
<path d="M19.5 6.64V2.36C19.5 1.06 18.5 0 17.27 0H13.23C12 0 11 1.06 11 2.36V6.64C11 7.94 12 9 13.23 9H17.27C18.5 9 19.5 7.94 19.5 6.64Z" fill="#101010"/>
</svg>
