<svg width="16" height="20" viewBox="0 0 16 20" fill="none" xmlns="http://www.w3.org/2000/svg">
<path d="M8 0C5.38 0 3.25 2.13 3.25 4.75C3.25 7.32 5.26 9.4 7.88 9.49C7.96 9.48 8.04 9.48 8.1 9.49C8.12 9.49 8.13 9.49 8.15 9.49C8.16 9.49 8.16 9.49 8.17 9.49C10.73 9.4 12.74 7.32 12.75 4.75C12.75 2.13 10.62 0 8 0Z" fill="#101010"/>
<path d="M13.08 12.15C10.29 10.29 5.73996 10.29 2.92996 12.15C1.65996 13 0.959961 14.15 0.959961 15.38C0.959961 16.61 1.65996 17.75 2.91996 18.59C4.31996 19.53 6.15996 20 7.99996 20C9.83996 20 11.68 19.53 13.08 18.59C14.34 17.74 15.04 16.6 15.04 15.36C15.03 14.13 14.34 12.99 13.08 12.15Z" fill="#101010"/>
</svg>
