<svg width="21" height="21" viewBox="0 0 21 21" fill="none" xmlns="http://www.w3.org/2000/svg">
<path d="M18.97 0H16.03C14.76 0 14 0.76 14 2.03V4.97C14 6.24 14.76 7 16.03 7H18.97C20.24 7 21 6.24 21 4.97V2.03C21 0.76 20.24 0 18.97 0ZM19.47 4.56C19.72 4.81 19.72 5.22 19.47 5.47C19.34 5.59 19.18 5.65 19.01 5.65C18.85 5.65 18.69 5.59 18.56 5.47L17.5 4.41L16.45 5.47C16.32 5.59 16.16 5.65 15.99 5.65C15.83 5.65 15.67 5.59 15.54 5.47C15.29 5.22 15.29 4.81 15.54 4.56L16.6 3.5L15.54 2.45C15.29 2.2 15.29 1.79 15.54 1.54C15.79 1.29 16.2 1.29 16.45 1.54L17.5 2.6L18.56 1.54C18.81 1.29 19.22 1.29 19.47 1.54C19.72 1.79 19.72 2.2 19.47 2.45L18.41 3.5L19.47 4.56Z" fill="#101010"/>
<path d="M7.00012 9.38012C8.31456 9.38012 9.38012 8.31456 9.38012 7.00012C9.38012 5.68568 8.31456 4.62012 7.00012 4.62012C5.68568 4.62012 4.62012 5.68568 4.62012 7.00012C4.62012 8.31456 5.68568 9.38012 7.00012 9.38012Z" fill="#101010"/>
<path d="M18.97 7H18.5V11.61L18.37 11.5C17.59 10.83 16.33 10.83 15.55 11.5L11.39 15.07C10.61 15.74 9.35 15.74 8.57 15.07L8.23 14.79C7.52 14.17 6.39 14.11 5.59 14.65L1.85 17.16C1.63 16.6 1.5 15.95 1.5 15.19V6.81C1.5 3.99 2.99 2.5 5.81 2.5H14V2.03C14 1.63 14.07 1.29 14.23 1H5.81C2.17 1 0 3.17 0 6.81V15.19C0 16.28 0.19 17.23 0.56 18.03C1.42 19.93 3.26 21 5.81 21H14.19C17.83 21 20 18.83 20 15.19V6.77C19.71 6.93 19.37 7 18.97 7Z" fill="#101010"/>
</svg>
