<svg width="21" height="20" viewBox="0 0 21 20" fill="none" xmlns="http://www.w3.org/2000/svg">
<path d="M19.7699 0.229883C19.4699 -0.0701172 18.9799 -0.0701172 18.6799 0.229883L0.229883 18.6899C-0.0701172 18.9899 -0.0701172 19.4799 0.229883 19.7799C0.379883 19.9199 0.569883 19.9999 0.769883 19.9999C0.969883 19.9999 1.15988 19.9199 1.30988 19.7699L19.7699 1.30988C20.0799 1.00988 20.0799 0.529883 19.7699 0.229883Z" fill="#101010"/>
<path d="M7.00012 8.38012C8.31456 8.38012 9.38012 7.31456 9.38012 6.00012C9.38012 4.68568 8.31456 3.62012 7.00012 3.62012C5.68568 3.62012 4.62012 4.68568 4.62012 6.00012C4.62012 7.31456 5.68568 8.38012 7.00012 8.38012Z" fill="#101010"/>
<path d="M19.6104 3.38989L18.3904 4.60989C18.4704 4.97989 18.5004 5.37989 18.5004 5.80989V10.6099L18.3704 10.4999C17.5904 9.82989 16.3304 9.82989 15.5504 10.4999L11.3904 14.0699C10.6804 14.6799 9.56039 14.7399 8.78039 14.2199L3.40039 19.5999C3.44039 19.6199 3.48039 19.6299 3.52039 19.6399C3.79039 19.7299 4.06039 19.7999 4.35039 19.8599C4.45039 19.8799 4.55039 19.8999 4.66039 19.9099C5.03039 19.9599 5.41039 19.9999 5.81039 19.9999H14.1904C17.8304 19.9999 20.0004 17.8299 20.0004 14.1899V5.80989C20.0004 4.90989 19.8704 4.09989 19.6104 3.38989Z" fill="#101010"/>
<path d="M19.6096 3.38989L18.3896 4.60989C18.4696 4.97989 18.4996 5.37989 18.4996 5.80989V10.6099L18.3696 10.4999C17.5897 9.82989 16.3296 9.82989 15.5496 10.4999L11.3896 14.0699C10.6796 14.6799 9.55965 14.7399 8.77965 14.2199L3.38965 19.6099C4.09965 19.8699 4.90965 19.9999 5.80965 19.9999H14.1896C17.8296 19.9999 19.9996 17.8299 19.9996 14.1899V5.80989C19.9996 4.90989 19.8696 4.09989 19.6096 3.38989Z" fill="#101010"/>
<path d="M18.46 1.54L17.4 2.6C16.68 1.87 15.6 1.5 14.19 1.5H5.81C2.99 1.5 1.5 2.99 1.5 5.81V14.19C1.5 14.95 1.63 15.6 1.85 16.16L5.59 13.65C5.93 13.42 6.32 13.3 6.71 13.29L1.54 18.46C1.14 18.06 0.81 17.58 0.56 17.03C0.19 16.23 0 15.28 0 14.19V5.81C0 2.17 2.17 0 5.81 0H14.19C16.01 0 17.46 0.54 18.46 1.54Z" fill="#101010"/>
</svg>
