<svg width="21" height="21" viewBox="0 0 21 21" fill="none" xmlns="http://www.w3.org/2000/svg">
<path d="M18.97 0H16.03C15.16 0 14.52 0.36 14.23 1C14.07 1.29 14 1.63 14 2.03V4.97C14 6.24 14.76 7 16.03 7H18.97C19.37 7 19.71 6.93 20 6.77C20.64 6.48 21 5.84 21 4.97V2.03C21 0.76 20.24 0 18.97 0ZM19.91 3.93C19.81 4.03 19.66 4.1 19.5 4.11H18.09V4.62L18.1 5.5C18.09 5.67 18.03 5.81 17.91 5.93C17.81 6.03 17.66 6.1 17.5 6.1C17.17 6.1 16.9 5.83 16.9 5.5V4.1L15.5 4.11C15.17 4.11 14.9 3.83 14.9 3.5C14.9 3.17 15.17 2.9 15.5 2.9L16.38 2.91H16.9V1.51C16.9 1.18 17.17 0.9 17.5 0.9C17.83 0.9 18.1 1.18 18.1 1.51L18.09 2.22V2.9H19.5C19.83 2.9 20.1 3.17 20.1 3.5C20.09 3.67 20.02 3.81 19.91 3.93Z" fill="#101010"/>
<path d="M7.00012 9.38012C8.31456 9.38012 9.38012 8.31456 9.38012 7.00012C9.38012 5.68568 8.31456 4.62012 7.00012 4.62012C5.68568 4.62012 4.62012 5.68568 4.62012 7.00012C4.62012 8.31456 5.68568 9.38012 7.00012 9.38012Z" fill="#101010"/>
<path d="M18.97 7H18.5V11.61L18.37 11.5C17.59 10.83 16.33 10.83 15.55 11.5L11.39 15.07C10.61 15.74 9.35 15.74 8.57 15.07L8.23 14.79C7.52 14.17 6.39 14.11 5.59 14.65L1.85 17.16C1.63 16.6 1.5 15.95 1.5 15.19V6.81C1.5 3.99 2.99 2.5 5.81 2.5H14V2.03C14 1.63 14.07 1.29 14.23 1H5.81C2.17 1 0 3.17 0 6.81V15.19C0 16.28 0.19 17.23 0.56 18.03C1.42 19.93 3.26 21 5.81 21H14.19C17.83 21 20 18.83 20 15.19V6.77C19.71 6.93 19.37 7 18.97 7Z" fill="#101010"/>
</svg>
