<svg width="21" height="21" viewBox="0 0 21 21" fill="none" xmlns="http://www.w3.org/2000/svg">
<path d="M18.97 0H16.03C14.76 0 14 0.76 14 2.03V4.97C14 6.24 14.76 7 16.03 7H18.97C20.24 7 21 6.24 21 4.97V2.03C21 0.76 20.24 0 18.97 0ZM17.01 5.57C16.98 5.6 16.91 5.64 16.86 5.64L15.82 5.79C15.79 5.8 15.75 5.8 15.72 5.8C15.57 5.8 15.44 5.75 15.35 5.65C15.23 5.53 15.18 5.36 15.21 5.18L15.36 4.14C15.37 4.09 15.4 4.02 15.43 3.99L17.13 2.29C17.16 2.36 17.19 2.44 17.22 2.52C17.26 2.6 17.3 2.67 17.34 2.74C17.37 2.8 17.41 2.86 17.45 2.9C17.49 2.96 17.53 3.02 17.56 3.05C17.58 3.08 17.59 3.09 17.6 3.1C17.69 3.21 17.79 3.31 17.88 3.38C17.9 3.4 17.92 3.42 17.93 3.42C17.98 3.46 18.04 3.51 18.08 3.54C18.14 3.58 18.19 3.62 18.25 3.65C18.32 3.69 18.4 3.73 18.48 3.77C18.56 3.81 18.64 3.84 18.71 3.86L17.01 5.57ZM19.4 3.18L19.08 3.5C19.06 3.53 19.03 3.54 19 3.54C18.99 3.54 18.98 3.54 18.97 3.54C18.25 3.33 17.68 2.76 17.47 2.04C17.46 2 17.47 1.96 17.5 1.93L17.83 1.6C18.37 1.06 18.88 1.07 19.41 1.6C19.68 1.87 19.81 2.13 19.81 2.39C19.8 2.65 19.67 2.91 19.4 3.18Z" fill="#101010"/>
<path d="M7.00012 9.38012C8.31456 9.38012 9.38012 8.31456 9.38012 7.00012C9.38012 5.68568 8.31456 4.62012 7.00012 4.62012C5.68568 4.62012 4.62012 5.68568 4.62012 7.00012C4.62012 8.31456 5.68568 9.38012 7.00012 9.38012Z" fill="#101010"/>
<path d="M18.97 7H18.5V11.61L18.37 11.5C17.59 10.83 16.33 10.83 15.55 11.5L11.39 15.07C10.61 15.74 9.35 15.74 8.57 15.07L8.23 14.79C7.52 14.17 6.39 14.11 5.59 14.65L1.85 17.16C1.63 16.6 1.5 15.95 1.5 15.19V6.81C1.5 3.99 2.99 2.5 5.81 2.5H14V2.03C14 1.63 14.07 1.29 14.23 1H5.81C2.17 1 0 3.17 0 6.81V15.19C0 16.28 0.19 17.23 0.56 18.03C1.42 19.93 3.26 21 5.81 21H14.19C17.83 21 20 18.83 20 15.19V6.77C19.71 6.93 19.37 7 18.97 7Z" fill="#101010"/>
</svg>
