<svg width="20" height="20" viewBox="0 0 20 20" fill="none" xmlns="http://www.w3.org/2000/svg">
<path d="M14.65 3.72H5.35C2.4 3.72 0 6.12 0 9.07V14.65C0 17.6 2.4 20 5.35 20H14.65C17.6 20 20 17.6 20 14.65V9.07C20 6.12 17.6 3.72 14.65 3.72ZM12.5 10.02C12.5 9.47 12.95 9.02 13.5 9.02C14.05 9.02 14.5 9.47 14.5 10.02C14.5 10.57 14.05 11.03 13.5 11.03C12.95 11.03 12.5 10.59 12.5 10.04V10.02ZM8.13 14.07C7.98 14.22 7.79 14.29 7.6 14.29C7.41 14.29 7.22 14.22 7.07 14.07L6.04 13.04L5.05 14.03C4.9 14.18 4.71 14.25 4.52 14.25C4.33 14.25 4.14 14.18 3.99 14.03C3.7 13.74 3.7 13.26 3.99 12.97L4.98 11.98L4.02 11.02C3.73 10.73 3.73 10.25 4.02 9.96C4.31 9.67 4.79 9.67 5.08 9.96L6.04 10.92L7.03 9.93C7.32 9.64 7.8 9.64 8.09 9.93C8.38 10.22 8.38 10.7 8.09 10.99L7.1 11.98L8.13 13.01C8.42 13.3 8.42 13.78 8.13 14.07ZM11.54 13C10.99 13 10.53 12.55 10.53 12C10.53 11.45 10.97 11 11.52 11H11.54C12.09 11 12.54 11.45 12.54 12C12.54 12.55 12.1 13 11.54 13ZM13.5 14.97C12.95 14.97 12.5 14.53 12.5 13.98V13.96C12.5 13.41 12.95 12.96 13.5 12.96C14.05 12.96 14.5 13.41 14.5 13.96C14.5 14.51 14.06 14.97 13.5 14.97ZM15.48 13C14.93 13 14.47 12.55 14.47 12C14.47 11.45 14.91 11 15.46 11H15.48C16.03 11 16.48 11.45 16.48 12C16.48 12.55 16.04 13 15.48 13Z" fill="#101010"/>
<path d="M11.6404 0.71L11.6304 1.65C11.6204 2.53 10.8904 3.26 10.0004 3.26C9.85035 3.26 9.76035 3.36 9.76035 3.49C9.76035 3.62 9.86035 3.72 9.99035 3.72H8.38035C8.37035 3.65 8.36035 3.57 8.36035 3.49C8.36035 2.59 9.09035 1.86 9.98035 1.86C10.1304 1.86 10.2304 1.76 10.2304 1.63L10.2404 0.69C10.2504 0.31 10.5604 0 10.9404 0H10.9504C11.3404 0 11.6404 0.32 11.6404 0.71Z" fill="#101010"/>
</svg>
