<svg width="18" height="20" viewBox="0 0 18 20" fill="none" xmlns="http://www.w3.org/2000/svg">
<path d="M14 0H4C1.8 0 0 1.8 0 4V16C0 18.2 1.8 20 4 20H14C16.2 20 18 18.2 18 16V4C18 1.8 16.2 0 14 0ZM7.86 16.14C7.71 16.29 7.52 16.36 7.33 16.36C7.14 16.36 6.95 16.29 6.8 16.14L6.15 15.49L5.53 16.11C5.38 16.26 5.19 16.33 5 16.33C4.81 16.33 4.62 16.26 4.47 16.11C4.18 15.82 4.18 15.34 4.47 15.05L5.09 14.43L4.5 13.84C4.21 13.55 4.21 13.07 4.5 12.78C4.79 12.49 5.27 12.49 5.56 12.78L6.15 13.37L6.77 12.75C7.06 12.46 7.54 12.46 7.83 12.75C8.12 13.04 8.12 13.52 7.83 13.81L7.21 14.43L7.86 15.08C8.15 15.37 8.15 15.85 7.86 16.14ZM11.49 16.49C10.94 16.49 10.49 16.05 10.49 15.5V15.48C10.49 14.93 10.94 14.48 11.49 14.48C12.04 14.48 12.49 14.93 12.49 15.48C12.49 16.03 12.04 16.49 11.49 16.49ZM13.51 14.33C12.96 14.33 12.5 13.88 12.5 13.33C12.5 12.78 12.94 12.33 13.49 12.33H13.51C14.06 12.33 14.51 12.78 14.51 13.33C14.51 13.88 14.06 14.33 13.51 14.33ZM15 7.25C15 8.21 14.21 9 13.25 9H4.75C3.79 9 3 8.21 3 7.25V4.75C3 3.79 3.79 3 4.75 3H13.25C14.21 3 15 3.79 15 4.75V7.25Z" fill="#101010"/>
</svg>
