<svg width="21" height="21" viewBox="0 0 21 21" fill="none" xmlns="http://www.w3.org/2000/svg">
<path d="M10 0C4.5 0 0 4.58 0 10.18V18.07C0 19.33 0.75 19.67 1.67 18.83L2.67 17.92C3.04 17.58 3.64 17.58 4.01 17.92L6.01 19.75C6.38 20.09 6.98 20.09 7.35 19.75L9.35 17.92C9.72 17.58 10.32 17.58 10.69 17.92L12.69 19.75C13.06 20.09 13.66 20.09 14.03 19.75L16.03 17.92C16.4 17.58 17 17.58 17.37 17.92L18.37 18.83C19.29 19.67 20.04 19.33 20.04 18.07V10.18C20 4.58 15.5 0 10 0ZM10 4.62C11.31 4.62 12.38 5.69 12.38 7C12.38 8.31 11.31 9.38 10 9.38C8.69 9.38 7.62 8.31 7.62 7C7.62 5.69 8.69 4.62 10 4.62ZM14.45 12.6C13.14 13.58 11.57 14.07 10 14.07C8.43 14.07 6.86 13.58 5.55 12.6C5.22 12.35 5.15 11.88 5.4 11.55C5.65 11.22 6.12 11.15 6.45 11.4C8.54 12.97 11.46 12.97 13.55 11.4C13.88 11.15 14.35 11.22 14.6 11.55C14.85 11.88 14.78 12.35 14.45 12.6Z" fill="#101010"/>
</svg>
