<svg width="18" height="20" viewBox="0 0 18 20" fill="none" xmlns="http://www.w3.org/2000/svg">
<path d="M12.8396 20H5.15961C0.969611 20 0.139611 17.47 1.49961 14.39L2.93961 11.12C2.93961 11.12 5.99961 11 8.99961 12C11.9996 13 14.8296 11.11 14.8296 11.11L15.0196 10.99L16.5096 14.4C17.8496 17.48 16.9696 20 12.8396 20Z" fill="#101010"/>
<path d="M12.4393 4.74H12.2793L14.4093 9.6L13.9993 9.86C13.9793 9.87 11.7193 11.32 9.46934 10.58C7.11934 9.79 4.75934 9.65 3.59934 9.63L5.73934 4.74H5.43934C4.78934 4.74 4.18934 4.48 3.75934 4.05C3.32934 3.62 3.06934 3.02 3.06934 2.37C3.06934 1.07 4.12934 0 5.43934 0H12.5493C13.2093 0 13.7993 0.27 14.2293 0.7C14.7893 1.26 15.0793 2.08 14.8593 2.95C14.5993 4.03 13.5593 4.74 12.4393 4.74Z" fill="#101010"/>
</svg>
