<svg width="22" height="22" viewBox="0 0 22 22" fill="none" xmlns="http://www.w3.org/2000/svg">
<path d="M21.7499 11C21.7499 11.41 21.4099 11.75 20.9999 11.75H18.9599C18.6099 15.56 15.5599 18.6099 11.7499 18.9599V21C11.7499 21.41 11.4099 21.75 10.9999 21.75C10.5899 21.75 10.2499 21.41 10.2499 21V18.9599C9.63994 18.9099 9.03994 18.78 8.46994 18.59C7.75994 18.35 7.53994 17.45 8.06994 16.92L10.8799 14.11C10.9199 14.12 10.9499 14.12 10.9899 14.12C12.7199 14.12 14.1099 12.73 14.1099 11C14.1099 10.96 14.1099 10.93 14.0999 10.89L16.9099 8.07995C17.4399 7.54995 18.3399 7.76995 18.5799 8.47995C18.7699 9.04995 18.8999 9.63995 18.9499 10.26H20.9999C21.4099 10.25 21.7499 10.59 21.7499 11Z" fill="#101010"/>
<path d="M20.77 1.23C20.47 0.93 19.98 0.93 19.68 1.23L16.07 4.84C14.87 3.85 13.37 3.2 11.74 3.05V1C11.74 0.59 11.4 0.25 10.99 0.25C10.58 0.25 10.24 0.59 10.24 1V3.04C6.43 3.4 3.38 6.44 3.03 10.25H1C0.59 10.25 0.25 10.59 0.25 11C0.25 11.41 0.59 11.75 1 11.75H3.04C3.19 13.38 3.84 14.88 4.83 16.08L1.22 19.69C0.92 19.99 0.92 20.48 1.22 20.78C1.38 20.92 1.57 21 1.77 21C1.97 21 2.16 20.92 2.31 20.77L20.77 2.31C21.08 2.01 21.08 1.53 20.77 1.23ZM7.88 11C7.88 9.28 9.28 7.88 11 7.88C11.58 7.88 12.12 8.05 12.58 8.33L8.33 12.58C8.05 12.12 7.88 11.58 7.88 11Z" fill="#101010"/>
</svg>
