<svg width="21" height="20" viewBox="0 0 21 20" fill="none" xmlns="http://www.w3.org/2000/svg">
<path d="M19.6702 4.9499C19.0302 2.7799 17.2202 0.969904 15.0502 0.329904C13.4002 -0.150096 12.2602 -0.110096 11.4702 0.479904C10.5202 1.1899 10.4102 2.4699 10.4102 3.3799V5.8699C10.4102 8.3299 11.5302 9.5799 13.7302 9.5799H16.6002C17.5002 9.5799 18.7902 9.4699 19.5002 8.5199C20.1102 7.7399 20.1602 6.5999 19.6702 4.9499Z" fill="#101010"/>
<path d="M16.9104 11.3599C16.6504 11.0599 16.2704 10.8899 15.8804 10.8899H12.3004C10.5404 10.8899 9.11039 9.45991 9.11039 7.69991V4.11991C9.11039 3.72991 8.94039 3.34991 8.64039 3.08991C8.35039 2.82991 7.95039 2.70991 7.57039 2.75991C5.22039 3.05991 3.06039 4.34991 1.65039 6.28991C0.230387 8.23991 -0.289613 10.6199 0.160387 12.9999C0.810387 16.4399 3.56039 19.1899 7.01039 19.8399C7.56039 19.9499 8.11039 19.9999 8.66039 19.9999C10.4704 19.9999 12.2204 19.4399 13.7104 18.3499C15.6504 16.9399 16.9404 14.7799 17.2404 12.4299C17.2904 12.0399 17.1704 11.6499 16.9104 11.3599Z" fill="#101010"/>
</svg>
