<svg width="20" height="21" viewBox="0 0 20 21" fill="none" xmlns="http://www.w3.org/2000/svg">
<path d="M19.3304 12.67C18.2804 11.62 17.4504 11.96 16.7304 12.67L12.5804 16.82C12.4204 16.98 12.2704 17.29 12.2304 17.51L12.0004 19.1C11.9204 19.67 12.3204 20.08 12.8904 19.99L14.4804 19.76C14.7004 19.73 15.0104 19.57 15.1704 19.41L19.3204 15.26C20.0504 14.55 20.3804 13.72 19.3304 12.67Z" fill="#101010"/>
<path d="M4.74645 0.0654811C5.29631 -0.00575732 5.74962 0.451108 5.74962 1.00556V4.79999C5.74962 5.35228 5.30191 5.79999 4.74962 5.79999H0.99962C0.447336 5.79999 -0.00857484 5.35026 0.0582877 4.80204C0.385948 2.11547 2.07149 0.412042 4.74645 0.0654811Z" fill="#101010"/>
<path d="M18.93 5.80001H15.25C14.6977 5.80001 14.25 5.3523 14.25 4.80001V1.00626C14.25 0.451542 14.7041 -0.00539455 15.2542 0.0663394C17.8878 0.409796 19.5645 2.06811 19.93 4.68001C20.01 5.27001 19.53 5.80001 18.93 5.80001Z" fill="#101010"/>
<path d="M4.75002 14.3C5.3023 14.3 5.75002 14.7477 5.75002 15.3V18.92C5.75002 19.52 5.22002 20 4.62002 19.92C2.0509 19.5377 0.430097 17.891 0.07375 15.3101C-0.00246428 14.7581 0.455523 14.3 1.01276 14.3H4.75002Z" fill="#101010"/>
<path d="M5.75 8.29999C5.75 7.7477 5.30228 7.29999 4.75 7.29999H1C0.447715 7.29999 0 7.7477 0 8.29999V11.8C0 12.3523 0.447715 12.8 1 12.8H4.75C5.30228 12.8 5.75 12.3523 5.75 11.8V8.29999Z" fill="#101010"/>
<path d="M12.75 8.29999C12.75 7.7477 12.3023 7.29999 11.75 7.29999H8.25C7.69772 7.29999 7.25 7.7477 7.25 8.29999V11.8C7.25 12.3523 7.69772 12.8 8.25 12.8H11.75C12.3 12.8 12.75 12.35 12.75 11.8V8.29999Z" fill="#101010"/>
<path d="M12.75 1C12.75 0.447715 12.3023 0 11.75 0H8.25C7.69772 0 7.25 0.447715 7.25 1V4.8C7.25 5.35229 7.69772 5.8 8.25 5.8H11.75C12.3023 5.8 12.75 5.35228 12.75 4.8V1Z" fill="#101010"/>
</svg>
