<svg width="21" height="21" viewBox="0 0 21 21" fill="none" xmlns="http://www.w3.org/2000/svg">
<path d="M19.5298 15.31V15.15C19.5298 13.22 18.5498 12.25 16.6298 12.25C14.7098 12.25 13.7298 13.23 13.7298 15.15V15.31C12.6798 15.57 12.2598 16.29 12.2598 17.73V18.47C12.2598 20.32 12.9498 21 14.7898 21H18.4698C20.3198 21 20.9998 20.31 20.9998 18.47V17.73C20.9998 16.3 20.5798 15.57 19.5298 15.31ZM16.6198 13.63C17.9098 13.63 18.1398 14.12 18.1398 15.15V15.2H15.0998V15.15C15.0998 14.12 15.3298 13.63 16.6198 13.63Z" fill="#101010"/>
<path d="M4.74645 0.0654811C5.29631 -0.00575732 5.74962 0.451108 5.74962 1.00556V4.79999C5.74962 5.35228 5.30191 5.79999 4.74962 5.79999H0.99962C0.447336 5.79999 -0.00857484 5.35026 0.0582877 4.80204C0.385948 2.11547 2.07149 0.412042 4.74645 0.0654811Z" fill="#101010"/>
<path d="M18.93 5.80001H15.25C14.6977 5.80001 14.25 5.3523 14.25 4.80001V1.00626C14.25 0.451542 14.7041 -0.00539455 15.2542 0.0663394C17.8878 0.409796 19.5645 2.06811 19.93 4.68001C20.01 5.27001 19.53 5.80001 18.93 5.80001Z" fill="#101010"/>
<path d="M4.75002 14.3C5.3023 14.3 5.75002 14.7477 5.75002 15.3V18.92C5.75002 19.52 5.22002 20 4.62002 19.92C2.0509 19.5377 0.430097 17.891 0.07375 15.3101C-0.00246428 14.7581 0.455523 14.3 1.01276 14.3H4.75002Z" fill="#101010"/>
<path d="M5.75 8.29999C5.75 7.7477 5.30228 7.29999 4.75 7.29999H1C0.447715 7.29999 0 7.7477 0 8.29999V11.8C0 12.3523 0.447715 12.8 1 12.8H4.75C5.30228 12.8 5.75 12.3523 5.75 11.8V8.29999Z" fill="#101010"/>
<path d="M12.75 8.29999C12.75 7.7477 12.3023 7.29999 11.75 7.29999H8.25C7.69772 7.29999 7.25 7.7477 7.25 8.29999V11.8C7.25 12.3523 7.69772 12.8 8.25 12.8H11.75C12.3 12.8 12.75 12.35 12.75 11.8V8.29999Z" fill="#101010"/>
<path d="M12.75 1C12.75 0.447715 12.3023 0 11.75 0H8.25C7.69772 0 7.25 0.447715 7.25 1V4.8C7.25 5.35229 7.69772 5.8 8.25 5.8H11.75C12.3023 5.8 12.75 5.35228 12.75 4.8V1Z" fill="#101010"/>
</svg>
