<svg width="20" height="20" viewBox="0 0 20 20" fill="none" xmlns="http://www.w3.org/2000/svg">
<path d="M5.75 0V5.8H0C0 2.19 2.15 0.02 5.75 0Z" fill="#101010"/>
<path d="M20 5.8H14.25V0C17.85 0.02 20 2.19 20 5.8Z" fill="#101010"/>
<path d="M20 14.3C19.96 17.85 17.82 19.98 14.25 20V14.3H20Z" fill="#101010"/>
<path d="M5.75 14.3V20C2.18 19.98 0.04 17.85 0 14.3H5.75Z" fill="#101010"/>
<path d="M5.75 7.3H0V12.8H5.75V7.3Z" fill="#101010"/>
<path d="M20 7.3H14.25V12.8H20V7.3Z" fill="#101010"/>
<path d="M12.75 7.3H7.25V12.8H12.75V7.3Z" fill="#101010"/>
<path d="M12.75 0H7.25V5.8H12.75V0Z" fill="#101010"/>
<path d="M12.75 14.3H7.25V20H12.75V14.3Z" fill="#101010"/>
</svg>
