<svg width="21" height="21" viewBox="0 0 21 21" fill="none" xmlns="http://www.w3.org/2000/svg">
<path d="M8.08008 9.83001H9.73008L9.92008 8.17001H8.27008L8.08008 9.83001Z" fill="#101010"/>
<path d="M19.97 5.21C19.77 2.13 17.87 0.23 14.79 0.03C14.59 0.00999997 14.39 0 14.19 0H5.81C5.61 0 5.41 0.00999997 5.21 0.03C2.13 0.23 0.23 2.13 0.03 5.21C0.00999997 5.41 0 5.61 0 5.81V14.19C0 14.39 0.00999997 14.59 0.03 14.79C0.23 17.87 2.13 19.77 5.21 19.97C5.41 19.99 5.61 20 5.81 20H11.5C12.05 20 12.5 19.55 12.5 19V16.03C12.5 14.08 14.08 12.5 16.03 12.5H19C19.55 12.5 20 12.05 20 11.5V5.81C20 5.61 19.99 5.41 19.97 5.21ZM14 8.17H11.43L11.24 9.83H13.47C13.89 9.83 14.22 10.17 14.22 10.58C14.22 10.99 13.89 11.33 13.47 11.33H11.08L10.8 13.82C10.76 14.2 10.43 14.49 10.05 14.49C10.03 14.49 10 14.49 9.97 14.48C9.56 14.44 9.26 14.07 9.31 13.65L9.57 11.33H7.92L7.64 13.82C7.6 14.2 7.27 14.49 6.9 14.49C6.87 14.49 6.84 14.49 6.81 14.48C6.4 14.44 6.1 14.07 6.15 13.65L6.41 11.33H4C3.59 11.33 3.25 10.99 3.25 10.58C3.25 10.17 3.59 9.83 4 9.83H6.57L6.76 8.17H4.53C4.11 8.17 3.78 7.83 3.78 7.42C3.78 7.01 4.11 6.67 4.53 6.67H6.92L7.2 4.18C7.25 3.77 7.62 3.47 8.03 3.52C8.44 3.56 8.74 3.93 8.69 4.35L8.43 6.67H10.08L10.36 4.18C10.41 3.77 10.78 3.47 11.19 3.52C11.6 3.56 11.9 3.93 11.85 4.35L11.59 6.67H14C14.41 6.67 14.75 7.01 14.75 7.42C14.75 7.83 14.41 8.17 14 8.17Z" fill="#101010"/>
<path d="M18.97 21H16.03C14.76 21 14 20.24 14 18.97V16.03C14 14.76 14.76 14 16.03 14H18.97C20.24 14 21 14.76 21 16.03V18.97C21 20.24 20.24 21 18.97 21ZM19.19 17.69C19.07 17.57 18.91 17.51 18.75 17.51C18.59 17.51 18.43 17.57 18.31 17.69L18.13 17.87V15.63C18.13 15.28 17.85 15 17.5 15C17.15 15 16.87 15.28 16.87 15.63V17.87L16.69 17.69C16.45 17.45 16.05 17.45 15.81 17.69C15.57 17.93 15.57 18.33 15.81 18.57L17.06 19.82C17.11 19.87 17.18 19.91 17.25 19.94C17.27 19.95 17.29 19.95 17.31 19.96C17.36 19.98 17.41 19.99 17.47 19.99C17.49 19.99 17.51 19.99 17.53 19.99C17.6 19.99 17.66 19.98 17.73 19.95C17.74 19.95 17.74 19.95 17.75 19.95C17.82 19.92 17.88 19.88 17.93 19.83C17.94 19.82 17.94 19.82 17.95 19.82L19.2 18.57C19.44 18.33 19.44 17.93 19.19 17.69Z" fill="#101010"/>
</svg>
