<svg width="20" height="20" viewBox="0 0 20 20" fill="none" xmlns="http://www.w3.org/2000/svg">
<path d="M8.41992 11.42H11.2599L11.5799 8.57999H8.73992L8.41992 11.42Z" fill="#101010"/>
<path d="M14.19 0H5.81C2.17 0 0 2.17 0 5.81V14.18C0 17.83 2.17 20 5.81 20H14.18C17.82 20 19.99 17.83 19.99 14.19V5.81C20 2.17 17.83 0 14.19 0ZM16.82 8.58H13.05L12.73 11.43H16.1C16.5 11.43 16.83 11.76 16.83 12.16C16.83 12.56 16.5 12.89 16.1 12.89H12.57L12.16 16.55C12.12 16.92 11.8 17.2 11.43 17.2C11.4 17.2 11.38 17.2 11.35 17.2C10.95 17.16 10.66 16.79 10.7 16.39L11.09 12.89H8.25L7.84 16.55C7.8 16.92 7.48 17.2 7.11 17.2C7.08 17.2 7.06 17.2 7.03 17.2C6.63 17.16 6.34 16.79 6.38 16.39L6.77 12.89H3.18C2.78 12.89 2.45 12.56 2.45 12.16C2.45 11.76 2.78 11.43 3.18 11.43H6.95L7.27 8.58H3.9C3.5 8.58 3.17 8.25 3.17 7.85C3.17 7.45 3.5 7.12 3.9 7.12H7.43L7.84 3.46C7.88 3.06 8.25 2.77 8.65 2.81C9.05 2.85 9.34 3.22 9.3 3.62L8.91 7.12H11.75L12.16 3.46C12.21 3.06 12.57 2.77 12.97 2.81C13.37 2.85 13.66 3.22 13.62 3.62L13.23 7.12H16.84C17.24 7.12 17.57 7.45 17.57 7.85C17.57 8.25 17.22 8.58 16.82 8.58Z" fill="#101010"/>
</svg>
