<svg width="21" height="20" viewBox="0 0 21 20" fill="none" xmlns="http://www.w3.org/2000/svg">
<path d="M1.74982 16.65C1.33982 16.65 0.999818 16.31 0.999818 15.9V10.2C0.949818 7.49 1.95982 4.93 3.83982 3.01C5.71982 1.1 8.23982 0.0499992 10.9498 0.0499992C16.4898 0.0499992 20.9998 4.56 20.9998 10.1V15.8C20.9998 16.21 20.6598 16.55 20.2498 16.55C19.8398 16.55 19.4998 16.21 19.4998 15.8V10.1C19.4998 5.39 15.6698 1.55 10.9498 1.55C8.63982 1.55 6.49982 2.44 4.90982 4.06C3.30982 5.69 2.45982 7.86 2.49982 10.18V15.89C2.49982 16.31 2.16982 16.65 1.74982 16.65Z" fill="#101010"/>
<path d="M4.94 10.45H4.81C2.71 10.45 1 12.16 1 14.26V16.14C1 18.24 2.71 19.95 4.81 19.95H4.94C7.04 19.95 8.75 18.24 8.75 16.14V14.26C8.75 12.16 7.04 10.45 4.94 10.45Z" fill="#101010"/>
<path d="M17.19 10.45H17.06C14.96 10.45 13.25 12.16 13.25 14.26V16.14C13.25 18.24 14.96 19.95 17.06 19.95H17.19C19.29 19.95 21 18.24 21 16.14V14.26C21 12.16 19.29 10.45 17.19 10.45Z" fill="#101010"/>
</svg>
