<svg width="20" height="21" viewBox="0 0 20 21" fill="none" xmlns="http://www.w3.org/2000/svg">
<path d="M6.5 10.75C6.09 10.75 5.75 10.41 5.75 10V4C5.75 3.59 6.09 3.25 6.5 3.25C6.91 3.25 7.25 3.59 7.25 4V10C7.25 10.41 6.91 10.75 6.5 10.75Z" fill="#101010"/>
<path d="M6.5 20.75C6.09 20.75 5.75 20.41 5.75 20V16C5.75 15.59 6.09 15.25 6.5 15.25C6.91 15.25 7.25 15.59 7.25 16V20C7.25 20.41 6.91 20.75 6.5 20.75Z" fill="#101010"/>
<path d="M13.5 20.75C13.09 20.75 12.75 20.41 12.75 20V4C12.75 3.59 13.09 3.25 13.5 3.25C13.91 3.25 14.25 3.59 14.25 4V20C14.25 20.41 13.91 20.75 13.5 20.75Z" fill="#101010"/>
<path d="M8.0998 3.3C8.0998 3.79 7.8998 4.24 7.5698 4.57C7.2398 4.9 6.7898 5.1 6.2998 5.1H4.0498C4.3298 4.73 4.4998 4.25 4.4998 3.75V2.85C4.4998 2.35 4.3298 1.87 4.0498 1.5H6.2998C7.2898 1.5 8.0998 2.31 8.0998 3.3Z" fill="#101010"/>
<path d="M4.5 2.85V3.75C4.5 4.25 4.33 4.73 4.05 5.1C3.29 6.11 1.73 6.45 0.28 5.16C0.12 5.02 0 4.72 0 4.51V2.17C0 1.97 0.1 1.7 0.23 1.56C1.49 0.240001 3.01 0.430001 3.84 1.26C3.91 1.33 3.99 1.41 4.05 1.5C4.33 1.87 4.5 2.35 4.5 2.85Z" fill="#101010"/>
<path d="M11.9004 3.3C11.9004 3.79 12.1004 4.24 12.4304 4.57C12.7604 4.9 13.2104 5.1 13.7004 5.1H15.9504C15.6704 4.73 15.5004 4.25 15.5004 3.75V2.85C15.5004 2.35 15.6704 1.87 15.9504 1.5H13.7004C12.7104 1.5 11.9004 2.31 11.9004 3.3Z" fill="#101010"/>
<path d="M15.5 2.85V3.75C15.5 4.25 15.67 4.73 15.95 5.1C16.71 6.11 18.27 6.45 19.72 5.16C19.88 5.02 20 4.72 20 4.51V2.17C20 1.98 19.9 1.7 19.77 1.56C18.51 0.240001 16.99 0.430001 16.16 1.26C16.09 1.33 16.02 1.41 15.95 1.5C15.67 1.87 15.5 2.35 15.5 2.85Z" fill="#101010"/>
<path d="M8 11.5V15.5C8 16.33 7.33 17 6.5 17C5.67 17 5 16.33 5 15.5V11.5C5 10.67 5.67 10 6.5 10C7.33 10 8 10.67 8 11.5Z" fill="#101010"/>
</svg>
