<svg width="21" height="20" viewBox="0 0 21 20" fill="none" xmlns="http://www.w3.org/2000/svg">
<path d="M19.74 17.51L18.88 16.65C19.33 15.97 19.59 15.16 19.59 14.29C19.59 11.92 17.67 9.98999 15.29 9.98999C12.91 9.98999 11 11.92 11 14.3C11 16.68 12.92 18.6 15.3 18.6C16.17 18.6 16.98 18.34 17.66 17.89L18.52 18.75C18.69 18.92 18.91 19.01 19.14 19.01C19.37 19.01 19.59 18.92 19.76 18.75C20.09 18.4 20.09 17.85 19.74 17.51Z" fill="#101010"/>
<path d="M20 5.72989C20 6.91989 19.81 8.01989 19.48 9.03989C19.42 9.24989 19.17 9.30989 18.99 9.17989C17.9 8.36989 16.57 7.93989 15.2 7.93989C11.73 7.93989 8.9 10.7699 8.9 14.2399C8.9 15.3199 9.18 16.3799 9.71 17.3199C9.87 17.5999 9.68 17.9599 9.38 17.8499C6.97 17.0299 2.1 14.0399 0.52 9.03989C0.19 8.01989 0 6.91989 0 5.72989C0 2.63989 2.49 0.139893 5.56 0.139893C7.37 0.139893 8.99 1.01989 10 2.36989C11.01 1.01989 12.63 0.139893 14.44 0.139893C17.51 0.139893 20 2.63989 20 5.72989Z" fill="#101010"/>
</svg>
