<svg width="20" height="19" viewBox="0 0 20 19" fill="none" xmlns="http://www.w3.org/2000/svg">
<path d="M15.1999 9.3999C12.5499 9.3999 10.3999 11.5499 10.3999 14.1999C10.3999 15.0999 10.6499 15.9499 11.0999 16.6699C11.9299 18.0599 13.4499 18.9999 15.1999 18.9999C16.9499 18.9999 18.4799 18.0599 19.2999 16.6699C19.7399 15.9499 19.9999 15.0999 19.9999 14.1999C19.9999 11.5499 17.8499 9.3999 15.1999 9.3999ZM17.5799 13.5699L15.0199 15.9299C14.8799 16.0599 14.6899 16.1299 14.5099 16.1299C14.3199 16.1299 14.1299 16.0599 13.9799 15.9099L12.7999 14.7299C12.5099 14.4399 12.5099 13.9599 12.7999 13.6699C13.0899 13.3799 13.5699 13.3799 13.8599 13.6699L14.5299 14.3399L16.5599 12.4599C16.8599 12.1799 17.3399 12.1999 17.6199 12.4999C17.8999 12.8099 17.8799 13.2899 17.5799 13.5699Z" fill="#101010"/>
<path d="M20 5.72989C20 6.91989 19.81 8.01989 19.48 9.03989C19.42 9.24989 19.17 9.30989 18.99 9.17989C17.9 8.36989 16.57 7.93989 15.2 7.93989C11.73 7.93989 8.9 10.7699 8.9 14.2399C8.9 15.3199 9.18 16.3799 9.71 17.3199C9.87 17.5999 9.68 17.9599 9.38 17.8499C6.97 17.0299 2.1 14.0399 0.52 9.03989C0.19 8.01989 0 6.91989 0 5.72989C0 2.63989 2.49 0.139893 5.56 0.139893C7.37 0.139893 8.99 1.01989 10 2.36989C11.01 1.01989 12.63 0.139893 14.44 0.139893C17.51 0.139893 20 2.63989 20 5.72989Z" fill="#101010"/>
</svg>
