<svg width="20" height="19" viewBox="0 0 20 19" fill="none" xmlns="http://www.w3.org/2000/svg">
<path d="M18.6899 10.9199C18.6799 10.9199 18.6799 10.9099 18.6799 10.9099V10.8999C17.7999 9.9799 16.5699 9.3999 15.1999 9.3999C12.5499 9.3999 10.3999 11.5499 10.3999 14.1999C10.3999 15.4299 10.8699 16.5499 11.6299 17.3999C12.5099 18.3799 13.7799 18.9999 15.1999 18.9999C17.8499 18.9999 19.9999 16.8499 19.9999 14.1999C19.9999 12.9299 19.4999 11.7799 18.6899 10.9199ZM17.0099 16.0699C16.8699 16.2099 16.6699 16.2899 16.4799 16.2899C16.2899 16.2899 16.0999 16.2099 15.9499 16.0699L15.2099 15.3299L14.4499 16.0999C14.2999 16.2399 14.1099 16.3199 13.9199 16.3199C13.8199 16.3199 13.7299 16.2999 13.6399 16.2599C13.5499 16.2299 13.4599 16.1699 13.3899 16.0999C13.0899 15.7999 13.0899 15.3299 13.3899 15.0399L14.1499 14.2699L13.4199 13.5299C13.1199 13.2399 13.1199 12.7599 13.4199 12.4699C13.7099 12.1799 14.1799 12.1799 14.4799 12.4699L15.2099 13.2099L15.9199 12.4999C16.2199 12.2099 16.6899 12.2099 16.9799 12.4999C17.1499 12.6699 17.2199 12.8899 17.1899 13.1099C17.1799 13.2799 17.1099 13.4399 16.9799 13.5599L16.2699 14.2699L17.0099 15.0099C17.3099 15.2999 17.3099 15.7699 17.0099 16.0699Z" fill="#101010"/>
<path d="M20 5.72989C20 6.91989 19.81 8.01989 19.48 9.03989C19.42 9.24989 19.17 9.30989 18.99 9.17989C17.9 8.36989 16.57 7.93989 15.2 7.93989C11.73 7.93989 8.9 10.7699 8.9 14.2399C8.9 15.3199 9.18 16.3799 9.71 17.3199C9.87 17.5999 9.68 17.9599 9.38 17.8499C6.97 17.0299 2.1 14.0399 0.52 9.03989C0.19 8.01989 0 6.91989 0 5.72989C0 2.63989 2.49 0.139893 5.56 0.139893C7.37 0.139893 8.99 1.01989 10 2.36989C11.01 1.01989 12.63 0.139893 14.44 0.139893C17.51 0.139893 20 2.63989 20 5.72989Z" fill="#101010"/>
</svg>
