<svg width="20" height="20" viewBox="0 0 20 20" fill="none" xmlns="http://www.w3.org/2000/svg">
<path d="M14.19 0H5.81C2.17 0 0 2.17 0 5.81V14.18C0 17.83 2.17 20 5.81 20H14.18C17.82 20 19.99 17.83 19.99 14.19V5.81C20 2.17 17.83 0 14.19 0ZM14.41 7.83C13.8 9.57 12.16 10.74 10.32 10.74C10.31 10.74 10.31 10.74 10.3 10.74L8.24 10.73C8.24 10.73 8.24 10.73 8.23 10.73C7.47 10.73 6.81 11.24 6.61 11.97C7.5 12.25 8.15 13.08 8.15 14.06C8.15 15.27 7.16 16.26 5.95 16.26C4.74 16.26 3.75 15.27 3.75 14.06C3.75 13.17 4.29 12.4 5.05 12.06V7.7C4.29 7.4 3.75 6.66 3.75 5.8C3.75 4.67 4.67 3.75 5.8 3.75C6.93 3.75 7.85 4.67 7.85 5.8C7.85 6.67 7.31 7.4 6.55 7.7V9.72C7.04 9.41 7.62 9.23 8.23 9.23H8.24L10.3 9.24C11.48 9.28 12.53 8.52 12.95 7.42C12.46 7.04 12.14 6.46 12.14 5.8C12.14 4.67 13.06 3.75 14.19 3.75C15.32 3.75 16.24 4.67 16.24 5.8C16.25 6.86 15.44 7.72 14.41 7.83Z" fill="#101010"/>
</svg>
