<svg width="20" height="20" viewBox="0 0 20 20" fill="none" xmlns="http://www.w3.org/2000/svg">
<path d="M14.19 0H5.81C2.17 0 0 2.17 0 5.81V14.18C0 17.83 2.17 20 5.81 20H14.18C17.82 20 19.99 17.83 19.99 14.19V5.81C20 2.17 17.83 0 14.19 0ZM7.85 14.45C7.85 15.58 6.93 16.5 5.8 16.5C4.67 16.5 3.75 15.58 3.75 14.45C3.75 13.58 4.29 12.85 5.05 12.55V8.26C4.21 7.95 3.6 7.15 3.6 6.2C3.6 4.99 4.59 4 5.8 4C7.01 4 8 4.99 8 6.2C8 7.15 7.39 7.95 6.55 8.26V12.55C7.31 12.85 7.85 13.59 7.85 14.45ZM14.75 16.5C13.62 16.5 12.7 15.58 12.7 14.45C12.7 13.58 13.24 12.85 14 12.55V6.75C14 6.61 13.89 6.5 13.75 6.5H12.62L12.83 6.67C13.15 6.94 13.19 7.41 12.93 7.73C12.78 7.91 12.56 8 12.35 8C12.18 8 12.01 7.94 11.87 7.83L10.07 6.33C9.9 6.18 9.8 5.97 9.8 5.75C9.8 5.53 9.9 5.32 10.07 5.17L11.87 3.67C12.19 3.41 12.66 3.45 12.93 3.77C13.2 4.09 13.15 4.56 12.83 4.83L12.62 5H13.75C14.71 5 15.5 5.79 15.5 6.75V12.55C16.26 12.85 16.8 13.59 16.8 14.45C16.8 15.58 15.88 16.5 14.75 16.5Z" fill="#101010"/>
</svg>
