<svg width="22" height="20" viewBox="0 0 22 20" fill="none" xmlns="http://www.w3.org/2000/svg">
<path d="M19.0402 4.81994L13.2802 0.789938C11.7102 -0.310062 9.30023 -0.250062 7.79023 0.919938L2.78023 4.82994C1.78023 5.60994 0.990234 7.20994 0.990234 8.46994V15.3699C0.990234 17.9199 3.06023 19.9999 5.61023 19.9999H16.3902C18.9402 19.9999 21.0102 17.9299 21.0102 15.3799V8.59994C21.0102 7.24994 20.1402 5.58994 19.0402 4.81994ZM11.7502 15.9999C11.7502 16.4099 11.4102 16.7499 11.0002 16.7499C10.5902 16.7499 10.2502 16.4099 10.2502 15.9999V12.9999C10.2502 12.5899 10.5902 12.2499 11.0002 12.2499C11.4102 12.2499 11.7502 12.5899 11.7502 12.9999V15.9999Z" fill="#101010"/>
</svg>
