<svg width="22" height="20" viewBox="0 0 22 20" fill="none" xmlns="http://www.w3.org/2000/svg">
<path d="M19.0402 4.81994L13.2802 0.789938C11.7102 -0.310062 9.30023 -0.250062 7.79023 0.919938L2.78023 4.82994C1.78023 5.60994 0.990234 7.20994 0.990234 8.46994V15.3699C0.990234 17.9199 3.06023 19.9999 5.61023 19.9999H16.3902C18.9402 19.9999 21.0102 17.9299 21.0102 15.3799V8.59994C21.0102 7.24994 20.1402 5.58994 19.0402 4.81994ZM15.8802 14.1899C15.8802 14.2799 15.8602 14.3699 15.8302 14.4599C15.7602 14.6299 15.6202 14.7699 15.4502 14.8399C15.3602 14.8799 15.2702 14.8899 15.1802 14.8899H13.3202C12.9302 14.8899 12.6202 14.5799 12.6202 14.1899C12.6202 13.7999 12.9302 13.4899 13.3202 13.4899H13.5002L11.3902 11.3799L10.3702 12.8999C10.2502 13.0699 10.0702 13.1899 9.86023 13.2099C9.64023 13.2299 9.45023 13.1599 9.30023 13.0099L6.32023 10.0299C6.05023 9.75994 6.05023 9.31994 6.32023 9.03994C6.59023 8.75994 7.03023 8.76994 7.31024 9.03994L9.69023 11.4199L10.7102 9.89994C10.8302 9.72994 11.0102 9.60994 11.2202 9.58994C11.4402 9.56994 11.6302 9.63994 11.7802 9.78994L14.5002 12.5099V12.3299C14.5002 11.9399 14.8102 11.6299 15.2002 11.6299C15.5902 11.6299 15.9002 11.9399 15.9002 12.3299V14.1899H15.8802Z" fill="#101010"/>
</svg>
