<svg width="21" height="20" viewBox="0 0 21 20" fill="none" xmlns="http://www.w3.org/2000/svg">
<path d="M19.8603 6.36997L12.9303 0.829971C11.8603 -0.0300287 10.1303 -0.0300287 9.07026 0.819971L2.14027 6.36997C1.36027 6.98997 0.860265 8.29997 1.03027 9.27997L2.36027 17.24C2.60027 18.66 3.96027 19.81 5.40027 19.81H16.6003C18.0303 19.81 19.4003 18.65 19.6403 17.24L20.9703 9.27997C21.1303 8.29997 20.6303 6.98997 19.8603 6.36997ZM11.7103 15.2C11.5103 15.4 11.2603 15.5 11.0003 15.5C10.7403 15.5 10.4903 15.4 10.2903 15.21C9.90026 14.82 9.90026 14.19 10.2903 13.8C10.6803 13.41 11.3203 13.41 11.7103 13.8C12.1003 14.18 12.1003 14.81 11.7103 15.2ZM13.6603 12.9C13.5103 13.05 13.3203 13.13 13.1203 13.13C12.9303 13.13 12.7503 13.06 12.6003 12.92C11.6303 11.99 10.3703 11.99 9.39027 12.92C9.09027 13.21 8.62027 13.2 8.33027 12.9C8.04027 12.6 8.05027 12.13 8.35027 11.84C9.90027 10.35 12.0703 10.35 13.6303 11.84C13.9403 12.12 13.9503 12.6 13.6603 12.9ZM15.7803 10.78C15.6303 10.93 15.4403 11.01 15.2403 11.01C15.0503 11.01 14.8603 10.94 14.7203 10.8C14.2503 10.34 13.7203 9.96997 13.1603 9.69997C11.7603 9.02997 10.2303 9.02997 8.84027 9.69997C8.28027 9.96997 7.76026 10.34 7.28026 10.8C6.99026 11.09 6.51026 11.09 6.22026 10.79C5.93026 10.49 5.94027 10.02 6.23027 9.72997C6.82027 9.14997 7.48026 8.68997 8.19026 8.34997C10.0003 7.47997 12.0003 7.47997 13.8003 8.34997C14.5103 8.68997 15.1703 9.14997 15.7603 9.72997C16.0603 10.01 16.0703 10.49 15.7803 10.78Z" fill="#101010"/>
</svg>
