<svg width="22" height="21" viewBox="0 0 22 21" fill="none" xmlns="http://www.w3.org/2000/svg">
<path d="M21 19.25H20V7.97997C20 7.35997 19.72 6.77997 19.23 6.39997L18 5.43997L17.98 2.98997C17.98 2.43997 17.53 1.99997 16.98 1.99997H13.57L12.23 0.959971C11.51 0.389971 10.49 0.389971 9.77 0.959971L2.77 6.39997C2.28 6.77997 2 7.35997 2 7.96997L1.95 19.25H1C0.59 19.25 0.25 19.59 0.25 20C0.25 20.41 0.59 20.75 1 20.75H21C21.41 20.75 21.75 20.41 21.75 20C21.75 19.59 21.41 19.25 21 19.25ZM5.5 10.75V9.24997C5.5 8.69997 5.95 8.24997 6.5 8.24997H8.5C9.05 8.24997 9.5 8.69997 9.5 9.24997V10.75C9.5 11.3 9.05 11.75 8.5 11.75H6.5C5.95 11.75 5.5 11.3 5.5 10.75ZM13.5 19.25H8.5V16.5C8.5 15.67 9.17 15 10 15H12C12.83 15 13.5 15.67 13.5 16.5V19.25ZM16.5 10.75C16.5 11.3 16.05 11.75 15.5 11.75H13.5C12.95 11.75 12.5 11.3 12.5 10.75V9.24997C12.5 8.69997 12.95 8.24997 13.5 8.24997H15.5C16.05 8.24997 16.5 8.69997 16.5 9.24997V10.75Z" fill="#101010"/>
</svg>
