<svg width="20" height="20" viewBox="0 0 20 20" fill="none" xmlns="http://www.w3.org/2000/svg">
<path d="M10 0C4.48 0 0 4.48 0 10C0 15.52 4.48 20 10 20C15.52 20 20 15.52 20 10C20 4.48 15.52 0 10 0ZM15.53 5.53L7.81 13.25H10.83C11.24 13.25 11.58 13.59 11.58 14C11.58 14.41 11.24 14.75 10.83 14.75H6C5.59 14.75 5.25 14.41 5.25 14V9.17C5.25 8.76 5.59 8.42 6 8.42C6.41 8.42 6.75 8.76 6.75 9.17V12.19L14.47 4.47C14.62 4.32 14.81 4.25 15 4.25C15.19 4.25 15.38 4.32 15.53 4.47C15.82 4.76 15.82 5.24 15.53 5.53Z" fill="#101010"/>
</svg>
