<svg width="20" height="20" viewBox="0 0 20 20" fill="none" xmlns="http://www.w3.org/2000/svg">
<path d="M14.19 0H5.81C2.17 0 0 2.17 0 5.81V14.18C0 17.83 2.17 20 5.81 20H14.18C17.82 20 19.99 17.83 19.99 14.19V5.81C20 2.17 17.83 0 14.19 0ZM10 13.88C7.86 13.88 6.12 12.14 6.12 10C6.12 7.86 7.86 6.12 10 6.12C12.14 6.12 13.88 7.86 13.88 10C13.88 12.14 12.14 13.88 10 13.88ZM15.92 4.88C15.87 5 15.8 5.11 15.71 5.21C15.61 5.3 15.5 5.37 15.38 5.42C15.26 5.47 15.13 5.5 15 5.5C14.73 5.5 14.48 5.4 14.29 5.21C14.2 5.11 14.13 5 14.08 4.88C14.03 4.76 14 4.63 14 4.5C14 4.37 14.03 4.24 14.08 4.12C14.13 3.99 14.2 3.89 14.29 3.79C14.52 3.56 14.87 3.45 15.19 3.52C15.26 3.53 15.32 3.55 15.38 3.58C15.44 3.6 15.5 3.63 15.56 3.67C15.61 3.7 15.66 3.75 15.71 3.79C15.8 3.89 15.87 3.99 15.92 4.12C15.97 4.24 16 4.37 16 4.5C16 4.63 15.97 4.76 15.92 4.88Z" fill="#101010"/>
</svg>
