<svg width="20" height="20" viewBox="0 0 20 20" fill="none" xmlns="http://www.w3.org/2000/svg">
<path d="M19.5403 17.04C19.3903 17.19 19.2003 17.26 19.0103 17.26C18.8203 17.26 18.6303 17.19 18.4803 17.04L13.5303 12.09L14.0603 11.56L14.5903 11.03L19.5403 15.98C19.8303 16.27 19.8303 16.75 19.5403 17.04Z" fill="#101010"/>
<path d="M5.47035 7.28009L11.2704 13.0801C11.6604 13.4701 11.6604 14.1001 11.2704 14.4901L10.3704 15.4001C9.56035 16.2001 8.28035 16.2001 7.48035 15.4001L3.14035 11.0601C2.35035 10.2701 2.35035 8.98009 3.14035 8.18009L4.05035 7.27009C4.44035 6.89009 5.08035 6.89009 5.47035 7.28009Z" fill="#101010"/>
<path d="M17.5898 8.19005L13.7798 11.9901C13.3798 12.3901 12.7398 12.3901 12.3398 11.9901L6.55977 6.21005C6.15977 5.81005 6.15977 5.17005 6.55977 4.77005L10.3698 0.960054C11.1598 0.170054 12.4498 0.170054 13.2498 0.960054L17.5898 5.30005C18.3798 6.10005 18.3798 7.38005 17.5898 8.19005Z" fill="#101010"/>
<path d="M7 19.75H1C0.59 19.75 0.25 19.41 0.25 19C0.25 18.59 0.59 18.25 1 18.25H7C7.41 18.25 7.75 18.59 7.75 19C7.75 19.41 7.41 19.75 7 19.75Z" fill="#101010"/>
</svg>
