<svg width="22" height="21" viewBox="0 0 22 21" fill="none" xmlns="http://www.w3.org/2000/svg">
<path d="M18.7897 2.22007C15.8297 -0.729932 11.0297 -0.729932 8.08966 2.22007C6.01966 4.27007 5.39966 7.22007 6.19966 9.82007L1.49966 14.5201C1.16966 14.8601 0.939658 15.5301 1.00966 16.0101L1.30966 18.1901C1.41966 18.9101 2.08966 19.5901 2.80966 19.6901L4.98966 19.9901C5.46966 20.0601 6.13966 19.8401 6.47966 19.4901L7.29966 18.6701C7.49966 18.4801 7.49966 18.1601 7.29966 17.9601L5.35966 16.0201C5.06966 15.7301 5.06966 15.2501 5.35966 14.9601C5.64966 14.6701 6.12966 14.6701 6.41966 14.9601L8.36966 16.9101C8.55966 17.1001 8.87966 17.1001 9.06966 16.9101L11.1897 14.8001C13.7797 15.6101 16.7297 14.9801 18.7897 12.9301C21.7397 9.98007 21.7397 5.17007 18.7897 2.22007ZM13.4997 10.0001C12.1197 10.0001 10.9997 8.88007 10.9997 7.50007C10.9997 6.12007 12.1197 5.00007 13.4997 5.00007C14.8797 5.00007 15.9997 6.12007 15.9997 7.50007C15.9997 8.88007 14.8797 10.0001 13.4997 10.0001Z" fill="#101010"/>
</svg>
