<svg width="20" height="21" viewBox="0 0 20 21" fill="none" xmlns="http://www.w3.org/2000/svg">
<path d="M15 20.75H5C4.59 20.75 4.25 20.41 4.25 20C4.25 19.59 4.59 19.25 5 19.25H15C15.41 19.25 15.75 19.59 15.75 20C15.75 20.41 15.41 20.75 15 20.75Z" fill="#101010"/>
<path d="M16 0H4C1.79 0 0 1.79 0 4V13C0 15.21 1.79 17 4 17H16C18.21 17 20 15.21 20 13V4C20 1.79 18.21 0 16 0ZM7.99 5.32C8.55 5.32 9 5.77 9 6.32C9 6.87 8.55 7.32 8 7.32C7.45 7.32 7 6.87 7 6.32C7 5.77 7.44 5.32 7.99 5.32ZM4.84 5.32C5.4 5.32 5.85 5.77 5.85 6.32C5.85 6.87 5.4 7.32 4.85 7.32C4.3 7.32 3.85 6.87 3.85 6.32C3.85 5.77 4.28 5.32 4.84 5.32ZM15.26 12.86H4.76C4.34 12.86 4 12.52 4 12.11C4 11.7 4.33 11.36 4.74 11.36H15.27C15.68 11.36 16.02 11.7 16.02 12.11C16.02 12.52 15.68 12.86 15.26 12.86ZM15.26 7.07H11.58C11.17 7.07 10.83 6.73 10.83 6.32C10.83 5.91 11.17 5.57 11.58 5.57H15.26C15.67 5.57 16.01 5.91 16.01 6.32C16.01 6.73 15.68 7.07 15.26 7.07Z" fill="#101010"/>
</svg>
