<svg width="20" height="20" viewBox="0 0 20 20" fill="none" xmlns="http://www.w3.org/2000/svg">
<path d="M14.192 0H5.81195C2.17195 0 0.00195312 2.17 0.00195312 5.81V14.18C0.00195312 17.83 2.17195 20 5.81195 20H14.182C17.822 20 19.992 17.83 19.992 14.19V5.81C20.002 2.17 17.832 0 14.192 0ZM15.002 15.47C13.292 15.47 11.692 14.73 10.412 13.36C8.96195 14.67 7.07195 15.47 5.00195 15.47C4.59195 15.47 4.25195 15.13 4.25195 14.72C4.25195 14.31 4.59195 13.97 5.00195 13.97C8.47195 13.97 11.342 11.22 11.712 7.7H10.002H5.01195C4.60195 7.7 4.26195 7.36 4.26195 6.95C4.26195 6.54 4.60195 6.21 5.01195 6.21H9.25195V5.28C9.25195 4.87 9.59195 4.53 10.002 4.53C10.412 4.53 10.752 4.87 10.752 5.28V6.21H12.442C12.462 6.21 12.482 6.2 12.502 6.2C12.522 6.2 12.542 6.21 12.562 6.21H14.992C15.402 6.21 15.742 6.55 15.742 6.96C15.742 7.37 15.402 7.71 14.992 7.71H13.212C13.062 9.42 12.422 10.99 11.442 12.27C12.442 13.38 13.692 13.98 15.002 13.98C15.412 13.98 15.752 14.32 15.752 14.73C15.752 15.14 15.412 15.47 15.002 15.47Z" fill="#101010"/>
</svg>
