<svg width="20" height="21" viewBox="0 0 20 21" fill="none" xmlns="http://www.w3.org/2000/svg">
<path d="M17.3707 3.89L11.5107 1.28C10.6507 0.899995 9.35066 0.899995 8.49066 1.28L2.63066 3.89C1.15066 4.55 0.930664 5.45 0.930664 5.93C0.930664 6.41 1.15066 7.31 2.63066 7.97L8.49066 10.58C8.92066 10.77 9.46066 10.87 10.0007 10.87C10.5407 10.87 11.0807 10.77 11.5107 10.58L17.3707 7.97C18.8507 7.31 19.0707 6.41 19.0707 5.93C19.0707 5.45 18.8607 4.55 17.3707 3.89Z" fill="#101010"/>
<path d="M10.0003 16.04C9.62031 16.04 9.24031 15.96 8.89031 15.81L2.15031 12.81C1.12031 12.35 0.320312 11.12 0.320312 9.99C0.320312 9.58 0.650313 9.25 1.06031 9.25C1.47031 9.25 1.80031 9.58 1.80031 9.99C1.80031 10.53 2.25031 11.23 2.75031 11.45L9.49031 14.45C9.81031 14.59 10.1803 14.59 10.5003 14.45L17.2403 11.45C17.7403 11.23 18.1903 10.54 18.1903 9.99C18.1903 9.58 18.5203 9.25 18.9303 9.25C19.3403 9.25 19.6703 9.58 19.6703 9.99C19.6703 11.11 18.8703 12.35 17.8403 12.81L11.1003 15.81C10.7603 15.96 10.3803 16.04 10.0003 16.04Z" fill="#101010"/>
<path d="M10.0003 21C9.62031 21 9.24031 20.92 8.89031 20.77L2.15031 17.77C1.04031 17.28 0.320312 16.17 0.320312 14.95C0.320312 14.54 0.650313 14.21 1.06031 14.21C1.47031 14.21 1.80031 14.54 1.80031 14.95C1.80031 15.58 2.17031 16.15 2.75031 16.41L9.49031 19.41C9.81031 19.55 10.1803 19.55 10.5003 19.41L17.2403 16.41C17.8103 16.16 18.1903 15.58 18.1903 14.95C18.1903 14.54 18.5203 14.21 18.9303 14.21C19.3403 14.21 19.6703 14.54 19.6703 14.95C19.6703 16.17 18.9503 17.27 17.8403 17.77L11.1003 20.77C10.7603 20.92 10.3803 21 10.0003 21Z" fill="#101010"/>
</svg>
