<svg width="20" height="20" viewBox="0 0 20 20" fill="none" xmlns="http://www.w3.org/2000/svg">
<path d="M10 0C4.48 0 0 4.48 0 10C0 15.52 4.48 20 10 20C15.52 20 20 15.52 20 10C20 4.48 15.52 0 10 0ZM5 10.75H3C2.59 10.75 2.25 10.41 2.25 10C2.25 9.59 2.59 9.25 3 9.25H5C5.41 9.25 5.75 9.59 5.75 10C5.75 10.41 5.41 10.75 5 10.75ZM10 12.25C8.76 12.25 7.75 11.24 7.75 10C7.75 8.76 8.76 7.75 10 7.75C11.24 7.75 12.25 8.76 12.25 10C12.25 11.24 11.24 12.25 10 12.25ZM17 10.75H15C14.59 10.75 14.25 10.41 14.25 10C14.25 9.59 14.59 9.25 15 9.25H17C17.41 9.25 17.75 9.59 17.75 10C17.75 10.41 17.41 10.75 17 10.75Z" fill="#101010"/>
</svg>
