<svg width="21" height="20" viewBox="0 0 21 20" fill="none" xmlns="http://www.w3.org/2000/svg">
<path d="M6.49973 10C6.49973 9.33688 6.64764 8.70716 6.9105 8.13721C7.11401 7.69595 7.07899 7.15926 6.73538 6.81566L4.15832 4.23859C3.74826 3.82853 3.07214 3.85006 2.74115 4.32624C1.62071 5.93819 0.969727 7.89398 0.969727 10C0.969727 12.1044 1.61969 14.0588 2.7325 15.67C3.0625 16.1478 3.73966 16.171 4.1508 15.7609L6.73386 13.1844C7.07824 12.8408 7.11365 12.3035 6.91005 11.8618C6.64747 11.2921 6.49973 10.6627 6.49973 10Z" fill="#101010"/>
<path d="M10.9995 5.5C11.6626 5.5 12.2923 5.64791 12.8623 5.91078C13.3035 6.11428 13.8402 6.07926 14.1838 5.73566L16.7331 3.18643C17.1423 2.77717 17.1218 2.10256 16.6471 1.77141C15.041 0.650973 13.084 0 10.9695 0C8.8653 0 6.91821 0.649852 5.30927 1.76248C4.83165 2.09277 4.80853 2.76993 5.21863 3.18107L7.7797 5.74868C8.1256 6.09546 8.66756 6.12873 9.11116 5.92105C9.68497 5.6524 10.3232 5.5 10.9995 5.5Z" fill="#101010"/>
<path d="M18.8902 3.90609C18.7125 3.67647 18.3751 3.66452 18.1696 3.86956L14.9508 7.0801C14.7774 7.25305 14.7575 7.52475 14.8814 7.73599C15.2718 8.40143 15.5001 9.17217 15.5001 10C15.5001 10.828 15.2717 11.5989 14.8811 12.2645C14.7573 12.4755 14.777 12.7469 14.95 12.9199L18.1696 16.1395C18.375 16.3449 18.7128 16.3332 18.8905 16.1033C20.1958 14.415 20.9701 12.2968 20.9701 10C20.9701 7.70297 20.1957 5.59316 18.8902 3.90609Z" fill="#101010"/>
<path d="M10.9997 14.5C10.1717 14.5 9.40077 14.2716 8.73523 13.881C8.52421 13.7572 8.25283 13.7769 8.07982 13.9499L4.83026 17.1995C4.62477 17.405 4.63651 17.7427 4.86642 17.9205C6.55474 19.2257 8.67289 20 10.9697 20C13.2769 20 15.3966 19.225 17.0775 17.9108C17.3055 17.7325 17.3161 17.3964 17.1115 17.1918L13.8869 13.9672C13.7151 13.7954 13.446 13.7746 13.2356 13.896C12.5725 14.2785 11.8111 14.5 10.9997 14.5Z" fill="#101010"/>
</svg>
