<svg width="20" height="20" viewBox="0 0 20 20" fill="none" xmlns="http://www.w3.org/2000/svg">
<path d="M6.39014 16.49V6.32998C6.39014 5.92998 6.51014 5.53998 6.73014 5.20998L9.46014 1.14998C9.89014 0.499975 10.9601 0.0399752 11.8701 0.379975C12.8501 0.709975 13.5001 1.80997 13.2901 2.78997L12.7701 6.05998C12.7301 6.35998 12.8101 6.62998 12.9801 6.83998C13.1501 7.02998 13.4001 7.14997 13.6701 7.14997H17.7801C18.5701 7.14997 19.2501 7.46997 19.6501 8.02997C20.0301 8.56997 20.1001 9.26997 19.8501 9.97997L17.3901 17.47C17.0801 18.71 15.7301 19.72 14.3901 19.72H10.4901C9.82014 19.72 8.88014 19.49 8.45014 19.06L7.17014 18.07C6.68014 17.7 6.39014 17.11 6.39014 16.49Z" fill="#101010"/>
<path d="M3.21 4.37988H2.18C0.63 4.37988 0 4.97988 0 6.45988V16.5199C0 17.9999 0.63 18.5999 2.18 18.5999H3.21C4.76 18.5999 5.39 17.9999 5.39 16.5199V6.45988C5.39 4.97988 4.76 4.37988 3.21 4.37988Z" fill="#101010"/>
</svg>
