<svg width="21" height="22" viewBox="0 0 21 22" fill="none" xmlns="http://www.w3.org/2000/svg">
<path d="M19.5599 9.74006L18.1999 8.16006C17.9399 7.86006 17.7299 7.30006 17.7299 6.90006V5.20006C17.7299 4.14006 16.8599 3.27006 15.7999 3.27006H14.0999C13.7099 3.27006 13.1399 3.06006 12.8399 2.80006L11.2599 1.44006C10.5699 0.850059 9.43988 0.850059 8.73988 1.44006L7.16988 2.81006C6.86988 3.06006 6.29988 3.27006 5.90988 3.27006H4.17988C3.11988 3.27006 2.24988 4.14006 2.24988 5.20006V6.91006C2.24988 7.30006 2.03988 7.86006 1.78988 8.16006L0.439883 9.75006C-0.140117 10.4401 -0.140117 11.5601 0.439883 12.2501L1.78988 13.8401C2.03988 14.1401 2.24988 14.7001 2.24988 15.0901V16.8001C2.24988 17.8601 3.11988 18.7301 4.17988 18.7301H5.90988C6.29988 18.7301 6.86988 18.9401 7.16988 19.2001L8.74988 20.5601C9.43988 21.1501 10.5699 21.1501 11.2699 20.5601L12.8499 19.2001C13.1499 18.9401 13.7099 18.7301 14.1099 18.7301H15.8099C16.8699 18.7301 17.7399 17.8601 17.7399 16.8001V15.1001C17.7399 14.7101 17.9499 14.1401 18.2099 13.8401L19.5699 12.2601C20.1499 11.5701 20.1499 10.4301 19.5599 9.74006ZM14.6799 11.0001L13.5099 14.5601C13.3599 15.1501 12.7299 15.6301 12.0899 15.6301H10.2399C9.91988 15.6301 9.46988 15.5201 9.26988 15.3201L7.79988 14.1701C7.76988 14.8101 7.47988 15.0801 6.76988 15.0801H6.28988C5.54988 15.0801 5.24988 14.7901 5.24988 14.0901V9.31006C5.24988 8.61006 5.54988 8.32006 6.28988 8.32006H6.77988C7.51988 8.32006 7.81988 8.61006 7.81988 9.31006V9.67006L9.75988 6.79006C9.95988 6.48006 10.4699 6.26006 10.8999 6.43006C11.3699 6.59006 11.6699 7.11006 11.5699 7.57006L11.3299 9.13006C11.3099 9.27006 11.3399 9.40006 11.4299 9.50006C11.5099 9.59006 11.6299 9.65006 11.7599 9.65006H13.7099C14.0899 9.65006 14.4099 9.80006 14.5999 10.0701C14.7699 10.3301 14.7999 10.6601 14.6799 11.0001Z" fill="#101010"/>
</svg>
