<svg width="18" height="20" viewBox="0 0 18 20" fill="none" xmlns="http://www.w3.org/2000/svg">
<path d="M15 0H3C1.34 0 0 1.33 0 2.97V13.88C0 15.52 1.34 16.85 3 16.85H3.76C4.56 16.85 5.32 17.16 5.88 17.72L7.59 19.41C8.37 20.18 9.64 20.18 10.42 19.41L12.13 17.72C12.69 17.16 13.46 16.85 14.25 16.85H15C16.66 16.85 18 15.52 18 13.88V2.97C18 1.33 16.66 0 15 0ZM9.28 12.96C9.13 13.01 8.88 13.01 8.72 12.96C7.42 12.51 4.5 10.66 4.5 7.51C4.51 6.12 5.62 5 7 5C7.82 5 8.54 5.39 9 6C9.46 5.39 10.18 5 11 5C12.38 5 13.5 6.12 13.5 7.51C13.49 10.66 10.58 12.51 9.28 12.96Z" fill="#101010"/>
</svg>
