<svg width="21" height="20" viewBox="0 0 21 20" fill="none" xmlns="http://www.w3.org/2000/svg">
<path d="M10.002 0C4.48195 0 0.00195312 4.48 0.00195312 10C0.00195312 15.52 4.48195 20 10.002 20C15.522 20 20.002 15.52 20.002 10C20.002 4.48 15.522 0 10.002 0ZM6.65195 12.77C6.54195 13.07 6.25195 13.26 5.95195 13.26C5.86195 13.26 5.78195 13.25 5.69195 13.21C4.88195 12.91 4.20195 12.32 3.77195 11.55C2.77195 9.75 3.39195 7.4 5.14195 6.31L7.48195 4.86C8.34195 4.33 9.35195 4.17 10.312 4.42C11.272 4.67 12.082 5.3 12.572 6.18C13.572 7.98 12.952 10.33 11.202 11.42L10.942 11.61C10.602 11.85 10.132 11.77 9.89195 11.44C9.65195 11.1 9.73195 10.63 10.062 10.39L10.372 10.17C11.492 9.47 11.872 8.02 11.262 6.91C10.972 6.39 10.502 6.02 9.94195 5.87C9.38195 5.72 8.79195 5.81 8.28195 6.13L5.92195 7.59C4.84195 8.26 4.46195 9.71 5.07195 10.83C5.32195 11.28 5.72195 11.63 6.20195 11.81C6.59195 11.95 6.79195 12.38 6.65195 12.77ZM14.922 13.65L12.582 15.1C11.992 15.47 11.332 15.65 10.662 15.65C10.362 15.65 10.052 15.61 9.75195 15.53C8.79195 15.28 7.98195 14.65 7.50195 13.77C6.50195 11.97 7.12195 9.62 8.87195 8.53L9.13195 8.34C9.47195 8.1 9.94195 8.18 10.182 8.51C10.422 8.85 10.342 9.32 10.012 9.56L9.70195 9.78C8.58195 10.48 8.20195 11.93 8.81195 13.04C9.10195 13.56 9.57195 13.93 10.132 14.08C10.692 14.23 11.282 14.14 11.792 13.82L14.132 12.37C15.212 11.7 15.592 10.25 14.982 9.13C14.732 8.68 14.332 8.33 13.852 8.15C13.462 8.01 13.262 7.58 13.412 7.19C13.552 6.8 13.992 6.6 14.372 6.75C15.182 7.05 15.862 7.64 16.292 8.41C17.282 10.21 16.672 12.56 14.922 13.65Z" fill="#101010"/>
</svg>
