<svg width="18" height="18" viewBox="0 0 18 18" fill="none" xmlns="http://www.w3.org/2000/svg">
<path d="M16.0712 11.24C15.7812 11.53 15.3212 11.53 15.0413 11.24C14.7513 10.95 14.7513 10.49 15.0413 10.21C17.0413 8.20998 17.0413 4.95998 15.0413 2.96998C13.0413 0.979977 9.79125 0.969977 7.80125 2.96998C5.81125 4.96998 5.80125 8.21998 7.80125 10.21C8.09125 10.5 8.09125 10.96 7.80125 11.24C7.51125 11.53 7.05125 11.53 6.77125 11.24C4.20125 8.66998 4.20125 4.48998 6.77125 1.92998C9.34125 -0.630023 13.5212 -0.640023 16.0812 1.92998C18.6412 4.49998 18.6412 8.66998 16.0712 11.24Z" fill="#101010"/>
<path d="M1.93168 6.75998C2.22168 6.46998 2.68168 6.46998 2.96168 6.75998C3.25168 7.04998 3.25168 7.50998 2.96168 7.78998C0.961682 9.78998 0.961682 13.04 2.96168 15.03C4.96168 17.02 8.21168 17.03 10.2017 15.03C12.1917 13.03 12.2017 9.77998 10.2017 7.78998C9.91168 7.49998 9.91168 7.03998 10.2017 6.75998C10.4917 6.46998 10.9517 6.46998 11.2317 6.75998C13.8017 9.32998 13.8017 13.51 11.2317 16.07C8.66168 18.63 4.48168 18.64 1.92168 16.07C-0.638318 13.5 -0.638319 9.32998 1.93168 6.75998Z" fill="#101010"/>
</svg>
