<svg width="21" height="14" viewBox="0 0 21 14" fill="none" xmlns="http://www.w3.org/2000/svg">
<path d="M13.412 13.59C13.012 13.59 12.682 13.26 12.682 12.86C12.682 12.46 13.012 12.13 13.412 12.13C16.232 12.13 18.532 9.83004 18.532 7.01004C18.532 4.19004 16.232 1.89004 13.412 1.89004C10.592 1.89004 8.29203 4.19004 8.29203 7.01004C8.29203 7.41004 7.96203 7.74004 7.56203 7.74004C7.16203 7.74004 6.83203 7.41004 6.83203 7.01004C6.83203 3.38004 9.78203 0.420044 13.422 0.420044C17.062 0.420044 20.002 3.37004 20.002 7.00004C20.002 10.63 17.052 13.59 13.412 13.59Z" fill="#101010"/>
<path d="M6.59195 0.410034C6.99195 0.410034 7.32195 0.740034 7.32195 1.14003C7.32195 1.54003 6.99195 1.87003 6.59195 1.87003C3.77195 1.87003 1.47195 4.17003 1.47195 6.99003C1.47195 9.81003 3.77195 12.11 6.59195 12.11C9.41195 12.11 11.712 9.81003 11.712 6.99003C11.712 6.59003 12.042 6.26003 12.442 6.26003C12.842 6.26003 13.172 6.59003 13.172 6.99003C13.172 10.62 10.222 13.58 6.58195 13.58C2.94195 13.58 0.00195312 10.63 0.00195312 7.00003C0.00195312 3.37003 2.95195 0.410034 6.59195 0.410034Z" fill="#101010"/>
</svg>
