<svg width="18" height="21" viewBox="0 0 18 21" fill="none" xmlns="http://www.w3.org/2000/svg">
<path d="M17.6202 6.7C16.5802 2.07 12.5402 0 9.00024 0C9.00024 0 9.00024 0 8.99024 0C5.46024 0 1.43024 2.07 0.380239 6.69C-0.799761 11.85 2.36024 16.22 5.22024 18.98C6.28024 20 7.64024 20.51 9.00024 20.51C10.3602 20.51 11.7202 20 12.7702 18.98C15.6302 16.22 18.7902 11.86 17.6202 6.7ZM11.7502 9.75H6.25024C5.84024 9.75 5.50024 9.41 5.50024 9C5.50024 8.59 5.84024 8.25 6.25024 8.25H11.7502C12.1602 8.25 12.5002 8.59 12.5002 9C12.5002 9.41 12.1602 9.75 11.7502 9.75Z" fill="#101010"/>
</svg>
