<svg width="18" height="21" viewBox="0 0 18 21" fill="none" xmlns="http://www.w3.org/2000/svg">
<path d="M17.6202 6.7C16.5802 2.07 12.5402 0 9.00024 0C9.00024 0 9.00024 0 8.99024 0C5.46024 0 1.43024 2.07 0.380239 6.69C-0.799761 11.85 2.36024 16.22 5.22024 18.98C6.28024 20 7.64024 20.51 9.00024 20.51C10.3602 20.51 11.7202 20 12.7702 18.98C15.6302 16.22 18.7902 11.86 17.6202 6.7ZM12.2802 7.53L8.28024 11.53C8.13024 11.68 7.94024 11.75 7.75024 11.75C7.56024 11.75 7.37024 11.68 7.22024 11.53L5.72024 10.03C5.43024 9.74 5.43024 9.26 5.72024 8.97C6.01024 8.68 6.49024 8.68 6.78024 8.97L7.75024 9.94L11.2202 6.47C11.5102 6.18 11.9902 6.18 12.2802 6.47C12.5702 6.76 12.5702 7.24 12.2802 7.53Z" fill="#101010"/>
</svg>
