<svg width="20" height="20" viewBox="0 0 20 20" fill="none" xmlns="http://www.w3.org/2000/svg">
<path d="M10 5.75C8.11 5.75 7.75 6.54 7.75 8V8.62H12.25V8C12.25 6.54 11.89 5.75 10 5.75Z" fill="#101010"/>
<path d="M10.0004 13.0999C10.6079 13.0999 11.1004 12.6074 11.1004 11.9999C11.1004 11.3924 10.6079 10.8999 10.0004 10.8999C9.39288 10.8999 8.90039 11.3924 8.90039 11.9999C8.90039 12.6074 9.39288 13.0999 10.0004 13.0999Z" fill="#101010"/>
<path d="M10 0C4.48 0 0 4.48 0 10C0 15.52 4.48 20 10 20C15.52 20 20 15.52 20 10C20 4.48 15.52 0 10 0ZM15.38 12.5C15.38 14.7 14.7 15.38 12.5 15.38H7.5C5.3 15.38 4.62 14.7 4.62 12.5V11.5C4.62 9.79 5.03 9 6.25 8.73V8C6.25 7.07 6.25 4.25 10 4.25C13.75 4.25 13.75 7.07 13.75 8V8.73C14.97 9 15.38 9.79 15.38 11.5V12.5Z" fill="#101010"/>
</svg>
