<svg width="22" height="20" viewBox="0 0 22 20" fill="none" xmlns="http://www.w3.org/2000/svg">
<path d="M12.6298 13.72C12.6298 14.62 11.8998 15.35 10.9998 15.35C10.3598 15.35 9.8098 14.98 9.5498 14.45L11.7298 12.27C12.2598 12.53 12.6298 13.08 12.6298 13.72Z" fill="#101010"/>
<path d="M20.7701 0.23C20.4701 -0.07 19.9801 -0.07 19.6801 0.23L16.8701 3.04C16.1001 1.02 14.1301 0 11.0001 0C5.37012 0 4.72012 3.58 4.72012 6.28V7.53C4.73012 7.53 4.74012 7.53 4.75012 7.53C1.92012 7.87 1.00012 9.28 1.00012 12.79V14.65C1.00012 16.25 1.19012 17.41 1.67012 18.24L1.22012 18.69C0.920117 18.99 0.920117 19.48 1.22012 19.78C1.38012 19.92 1.57012 20 1.77012 20C1.97012 20 2.16012 19.92 2.31012 19.77L20.7701 1.31C21.0801 1.01 21.0801 0.53 20.7701 0.23ZM6.35012 7.44C6.27012 7.44 6.20012 7.44 6.12012 7.44V6.28C6.12012 3.35 6.95012 1.4 11.0001 1.4C14.4001 1.4 15.4701 2.7 15.7701 4.15L12.4801 7.44H6.35012Z" fill="#101010"/>
<path d="M21.0005 12.79V14.65C21.0005 18.75 19.7505 20 15.6505 20H6.41054C5.52054 20 5.08054 18.92 5.71054 18.29L8.53054 15.47C8.60054 15.57 8.68054 15.66 8.76054 15.75C9.46054 16.51 10.5005 16.91 11.6505 16.67C11.7405 16.65 11.8305 16.63 11.9205 16.59C12.0105 16.57 12.0905 16.54 12.1705 16.5C12.3705 16.43 12.5605 16.32 12.7405 16.19C12.8105 16.15 12.8705 16.1 12.9205 16.05C13.0705 15.93 13.2105 15.79 13.3305 15.64C13.3805 15.59 13.4305 15.53 13.4705 15.46C13.6005 15.28 13.7105 15.09 13.7805 14.89C13.8205 14.81 13.8505 14.73 13.8705 14.64C13.9105 14.55 13.9305 14.46 13.9505 14.37C14.1905 13.22 13.7905 12.18 13.0305 11.48C12.9505 11.4 12.8505 11.32 12.7505 11.25L15.8705 8.12998C15.9205 8.07998 15.9605 8.03998 16.0105 7.99998C16.4105 7.66998 16.9205 7.50998 17.4305 7.54998C17.5205 7.55998 17.6205 7.56998 17.7105 7.58998C17.8805 7.61998 18.0505 7.65998 18.2105 7.69998C18.3705 7.73998 18.5205 7.78998 18.6705 7.83998C18.9605 7.94998 19.2105 8.07998 19.4405 8.22997C19.6705 8.37997 19.8605 8.55998 20.0405 8.76998C20.1305 8.87998 20.2205 8.99998 20.2905 9.12998C20.3605 9.23998 20.4205 9.35998 20.4805 9.48998C20.5405 9.61998 20.5905 9.75997 20.6405 9.89998C20.7005 10.07 20.7505 10.26 20.7905 10.46C20.8305 10.6 20.8505 10.75 20.8805 10.91C20.9005 11.06 20.9205 11.22 20.9405 11.39C20.9805 11.81 21.0005 12.28 21.0005 12.79Z" fill="#101010"/>
</svg>
