<svg width="18" height="21" viewBox="0 0 18 21" fill="none" xmlns="http://www.w3.org/2000/svg">
<path d="M7.76039 0C7.28039 0 6.90039 0.38 6.90039 0.86V9.32H10.5704L9.00039 7.75C8.71039 7.46 8.71039 6.98 9.00039 6.69C9.29039 6.4 9.77039 6.4 10.0604 6.69L12.9004 9.54C13.1904 9.83 13.1904 10.31 12.9004 10.6L10.0604 13.45C9.91039 13.6 9.72039 13.67 9.53039 13.67C9.34039 13.67 9.15039 13.6 9.00039 13.45C8.71039 13.16 8.71039 12.68 9.00039 12.39L10.5604 10.83H6.90039V19.16C6.90039 19.63 7.28039 20.02 7.76039 20.02C13.6504 20.02 17.7604 15.91 17.7604 10.02C17.7604 4.13 13.6404 0 7.76039 0Z" fill="#101010"/>
<path d="M0.990234 9.32001C0.580234 9.32001 0.240234 9.66001 0.240234 10.07C0.240234 10.48 0.580234 10.82 0.990234 10.82H6.89023V9.32001H0.990234Z" fill="#101010"/>
</svg>
