<svg width="20" height="20" viewBox="0 0 20 20" fill="none" xmlns="http://www.w3.org/2000/svg">
<path d="M14.8 0H12.2C9 0 7 2 7 5.2V9.25H13.25C13.66 9.25 14 9.59 14 10C14 10.41 13.66 10.75 13.25 10.75H7V14.8C7 18 9 20 12.2 20H14.79C17.99 20 19.99 18 19.99 14.8V5.2C20 2 18 0 14.8 0Z" fill="#101010"/>
<path d="M2.56043 9.25003L4.63043 7.18003C4.78043 7.03003 4.85043 6.84003 4.85043 6.65003C4.85043 6.46003 4.78043 6.26003 4.63043 6.12003C4.34043 5.83003 3.86043 5.83003 3.57043 6.12003L0.22043 9.47003C-0.0695703 9.76003 -0.0695703 10.24 0.22043 10.53L3.57043 13.88C3.86043 14.17 4.34043 14.17 4.63043 13.88C4.92043 13.59 4.92043 13.11 4.63043 12.82L2.56043 10.75H7.00043V9.25003H2.56043Z" fill="#101010"/>
</svg>
