<svg width="21" height="18" viewBox="0 0 21 18" fill="none" xmlns="http://www.w3.org/2000/svg">
<path d="M16.7998 6.91016C15.6698 6.91016 14.6598 7.46016 14.0298 8.30016C13.3998 7.46016 12.3898 6.91016 11.2598 6.91016C9.3498 6.91016 7.7998 8.47016 7.7998 10.3902C7.7998 11.1302 7.9198 11.8202 8.1198 12.4502C9.0998 15.5602 12.1398 17.4302 13.6398 17.9402C13.8498 18.0102 14.1998 18.0102 14.4098 17.9402C15.9098 17.4302 18.9498 15.5702 19.9298 12.4502C20.1398 11.8102 20.2498 11.1302 20.2498 10.3902C20.2598 8.47016 18.7098 6.91016 16.7998 6.91016Z" fill="#101010"/>
<path d="M18.75 5.3401C18.75 5.5701 18.52 5.7201 18.3 5.6601C16.95 5.3101 15.47 5.6001 14.35 6.4001C14.13 6.5601 13.83 6.5601 13.62 6.4001C12.83 5.8201 11.87 5.5001 10.86 5.5001C8.28 5.5001 6.18 7.6101 6.18 10.2101C6.18 13.0301 7.53 15.1401 8.89 16.5501C8.96 16.6201 8.9 16.7401 8.81 16.7001C6.08 15.7701 0 11.9101 0 5.3401C0 2.4401 2.33 0.100098 5.21 0.100098C6.92 0.100098 8.43 0.920098 9.38 2.1901C10.34 0.920098 11.85 0.100098 13.55 0.100098C16.42 0.100098 18.75 2.4401 18.75 5.3401Z" fill="#101010"/>
</svg>
