<svg width="20" height="20" viewBox="0 0 20 20" fill="none" xmlns="http://www.w3.org/2000/svg">
<path d="M15.2898 2.14004L15.2198 5.93004C15.2098 6.45004 15.5398 7.14004 15.9598 7.45004L18.4398 9.33004C20.0298 10.53 19.7698 12 17.8698 12.6L14.6398 13.61C14.0998 13.78 13.5298 14.37 13.3898 14.92L12.6198 17.86C12.0098 20.18 10.4898 20.41 9.22978 18.37L7.46978 15.52C7.14978 15 6.38978 14.61 5.78978 14.64L2.44978 14.81C0.059782 14.93 -0.620218 13.55 0.939782 11.73L2.91978 9.43004C3.28978 9.00004 3.45978 8.20004 3.28978 7.66004L2.26978 4.42004C1.67978 2.52004 2.73978 1.47004 4.62978 2.09004L7.57978 3.06004C8.07978 3.22004 8.82978 3.11004 9.24978 2.80004L12.3298 0.580044C13.9998 -0.609956 15.3298 0.0900438 15.2898 2.14004Z" fill="#101010"/>
<path d="M19.4398 18.4702L16.4098 15.4402C16.1198 15.1502 15.6398 15.1502 15.3498 15.4402C15.0598 15.7302 15.0598 16.2102 15.3498 16.5002L18.3798 19.5302C18.5298 19.6802 18.7198 19.7502 18.9098 19.7502C19.0998 19.7502 19.2898 19.6802 19.4398 19.5302C19.7298 19.2402 19.7298 18.7602 19.4398 18.4702Z" fill="#101010"/>
</svg>
