<svg width="20" height="20" viewBox="0 0 20 20" fill="none" xmlns="http://www.w3.org/2000/svg">
<path d="M14.5098 3.01L12.5498 1.05C11.1498 -0.35 8.84977 -0.35 7.44977 1.05L5.48977 3.01C5.09977 3.4 5.09977 4.04 5.48977 4.43L9.29977 8.24C9.68977 8.63 10.3198 8.63 10.7098 8.24L14.5198 4.43C14.8998 4.04 14.8998 3.4 14.5098 3.01Z" fill="#101010"/>
<path d="M3.01 5.49001L1.05 7.45001C-0.35 8.85001 -0.35 11.15 1.05 12.55L3.01 14.51C3.4 14.9 4.03 14.9 4.42 14.51L8.23 10.7C8.62 10.31 8.62 9.68001 8.23 9.29001L4.43 5.49001C4.04 5.10001 3.4 5.10001 3.01 5.49001Z" fill="#101010"/>
<path d="M18.95 7.45001L16.99 5.49001C16.6 5.10001 15.97 5.10001 15.58 5.49001L11.77 9.30001C11.38 9.69001 11.38 10.32 11.77 10.71L15.58 14.52C15.97 14.91 16.6 14.91 16.99 14.52L18.95 12.56C20.35 11.15 20.35 8.85001 18.95 7.45001Z" fill="#101010"/>
<path d="M5.49005 16.99L7.45005 18.95C8.85005 20.35 11.1501 20.35 12.5501 18.95L14.5101 16.99C14.9001 16.6 14.9001 15.97 14.5101 15.58L10.7001 11.77C10.3101 11.38 9.68005 11.38 9.29005 11.77L5.48005 15.58C5.10005 15.96 5.10005 16.6 5.49005 16.99Z" fill="#101010"/>
</svg>
