<svg width="20" height="20" viewBox="0 0 20 20" fill="none" xmlns="http://www.w3.org/2000/svg">
<path d="M7.1499 5.48999C6.5899 5.48999 6.1499 5.93999 6.1499 6.48999C6.1499 7.03999 6.5999 7.48999 7.1499 7.48999C7.6999 7.48999 8.1499 7.03999 8.1499 6.48999C8.1499 5.93999 7.6999 5.48999 7.1499 5.48999Z" fill="#101010"/>
<path d="M19.46 3.04C18.62 1.09 16.77 0 14.19 0H5.81C2.6 0 0 2.6 0 5.81V14.19C0 16.77 1.09 18.62 3.04 19.46C3.23 19.54 3.45 19.49 3.59 19.35L19.35 3.59C19.5 3.44 19.55 3.22 19.46 3.04ZM8.53 10.24C8.14 10.62 7.63 10.8 7.12 10.8C6.61 10.8 6.1 10.61 5.71 10.24C4.69 9.28 3.57 7.75 4 5.93C4.38 4.28 5.84 3.54 7.12 3.54C8.4 3.54 9.86 4.28 10.24 5.94C10.66 7.75 9.54 9.28 8.53 10.24Z" fill="#101010"/>
<path d="M17.4699 18.53C17.6899 18.75 17.6599 19.11 17.3899 19.26C16.5099 19.75 15.4399 20 14.1899 20H5.8099C5.5199 20 5.3999 19.66 5.5999 19.46L11.6399 13.42C11.8399 13.22 12.1499 13.22 12.3499 13.42L17.4699 18.53Z" fill="#101010"/>
<path d="M19.9998 5.81002V14.19C19.9998 15.44 19.7498 16.52 19.2598 17.39C19.1098 17.66 18.7498 17.68 18.5298 17.47L13.4098 12.35C13.2098 12.15 13.2098 11.84 13.4098 11.64L19.4498 5.60002C19.6598 5.40002 19.9998 5.52002 19.9998 5.81002Z" fill="#101010"/>
</svg>
