<svg width="20" height="18" viewBox="0 0 20 18" fill="none" xmlns="http://www.w3.org/2000/svg">
<path d="M5.63004 0.57003C5.80942 0.472184 6.00004 0.622711 6.00004 0.827044V14.3829C6.00004 14.6061 5.84762 14.7949 5.65024 14.8992C5.64347 14.9028 5.63673 14.9064 5.63004 14.91L3.28004 16.25C1.64004 17.19 0.290039 16.41 0.290039 14.51V4.78003C0.290039 4.15003 0.740039 3.37003 1.30004 3.05003L5.63004 0.57003Z" fill="#101010"/>
<path d="M12.7219 3.10228C12.8922 3.18664 13 3.36027 13 3.55035V16.7035C13 17.072 12.615 17.3139 12.283 17.1539L8.03298 15.1063C7.85998 15.023 7.75 14.8479 7.75 14.6559V1.44559C7.75 1.07473 8.13956 0.832935 8.4719 0.997521L12.7219 3.10228Z" fill="#101010"/>
<path d="M20 3.49006V13.2201C20 13.8501 19.55 14.6301 18.99 14.9501L15.4986 16.951C15.1653 17.1421 14.75 16.9014 14.75 16.5172V3.33038C14.75 3.15087 14.8462 2.98513 15.0021 2.89615L17.01 1.75006C18.65 0.810065 20 1.59006 20 3.49006Z" fill="#101010"/>
</svg>
