<svg width="20" height="20" viewBox="0 0 20 20" fill="none" xmlns="http://www.w3.org/2000/svg">
<path d="M14.192 0H5.81195C2.17195 0 0.00195312 2.17 0.00195312 5.81V14.18C0.00195312 17.83 2.17195 20 5.81195 20H14.182C17.822 20 19.992 17.83 19.992 14.19V5.81C20.002 2.17 17.832 0 14.192 0ZM9.03195 15.66C9.32195 15.95 9.32195 16.43 9.03195 16.72C8.88195 16.87 8.69195 16.94 8.50195 16.94C8.31195 16.94 8.12195 16.87 7.97195 16.72L6.25195 15L4.53195 16.72C4.38195 16.86 4.19195 16.94 4.00195 16.94C3.81195 16.94 3.62195 16.87 3.47195 16.72C3.18195 16.43 3.18195 15.95 3.47195 15.66L5.19195 13.94L3.47195 12.22C3.18195 11.93 3.18195 11.45 3.47195 11.16C3.76195 10.87 4.24195 10.87 4.53195 11.16L6.25195 12.88L7.97195 11.16C8.26195 10.87 8.74195 10.87 9.03195 11.16C9.32195 11.45 9.32195 11.93 9.03195 12.22L7.31195 13.94L9.03195 15.66ZM8.50195 6.81H4.00195C3.59195 6.81 3.25195 6.47 3.25195 6.06C3.25195 5.65 3.59195 5.31 4.00195 5.31H8.50195C8.91195 5.31 9.25195 5.65 9.25195 6.06C9.25195 6.47 8.91195 6.81 8.50195 6.81ZM16.002 16.56H11.502C11.092 16.56 10.752 16.22 10.752 15.81C10.752 15.4 11.092 15.06 11.502 15.06H16.002C16.412 15.06 16.752 15.4 16.752 15.81C16.752 16.22 16.412 16.56 16.002 16.56ZM16.002 12.81H11.502C11.092 12.81 10.752 12.47 10.752 12.06C10.752 11.65 11.092 11.31 11.502 11.31H16.002C16.412 11.31 16.752 11.65 16.752 12.06C16.752 12.47 16.412 12.81 16.002 12.81ZM16.002 6.81H14.522V8.31C14.522 8.72 14.182 9.06 13.772 9.06C13.362 9.06 13.022 8.72 13.022 8.31V6.81H11.502C11.092 6.81 10.752 6.47 10.752 6.06C10.752 5.65 11.092 5.31 11.502 5.31H13.022V3.81C13.022 3.4 13.362 3.06 13.772 3.06C14.182 3.06 14.522 3.4 14.522 3.81V5.31H16.002C16.412 5.31 16.752 5.65 16.752 6.06C16.752 6.47 16.412 6.81 16.002 6.81Z" fill="#101010"/>
</svg>
