<svg width="20" height="20" viewBox="0 0 20 20" fill="none" xmlns="http://www.w3.org/2000/svg">
<path d="M14.19 0H5.81C2.17 0 0 2.17 0 5.81V14.18C0 17.83 2.17 20 5.81 20H14.18C17.82 20 19.99 17.83 19.99 14.19V5.81C20 2.17 17.83 0 14.19 0ZM16.75 12C16.75 12.41 16.41 12.75 16 12.75C15.59 12.75 15.25 12.41 15.25 12V10.75H10.75V15.25H12C12.41 15.25 12.75 15.59 12.75 16C12.75 16.41 12.41 16.75 12 16.75H8C7.59 16.75 7.25 16.41 7.25 16C7.25 15.59 7.59 15.25 8 15.25H9.25V10.75H4.75V12C4.75 12.41 4.41 12.75 4 12.75C3.59 12.75 3.25 12.41 3.25 12V8C3.25 7.59 3.59 7.25 4 7.25C4.41 7.25 4.75 7.59 4.75 8V9.25H9.25V4.75H8C7.59 4.75 7.25 4.41 7.25 4C7.25 3.59 7.59 3.25 8 3.25H12C12.41 3.25 12.75 3.59 12.75 4C12.75 4.41 12.41 4.75 12 4.75H10.75V9.25H15.25V8C15.25 7.59 15.59 7.25 16 7.25C16.41 7.25 16.75 7.59 16.75 8V12Z" fill="#101010"/>
</svg>
