<svg width="20" height="20" viewBox="0 0 20 20" fill="none" xmlns="http://www.w3.org/2000/svg">
<path d="M14.19 0H5.81C2.17 0 0 2.17 0 5.81V14.18C0 17.83 2.17 20 5.81 20H14.18C17.82 20 19.99 17.83 19.99 14.19V5.81C20 2.17 17.83 0 14.19 0ZM16.75 8C16.75 8.41 16.41 8.75 16 8.75C15.59 8.75 15.25 8.41 15.25 8V5.81L5.81 15.25H8C8.41 15.25 8.75 15.59 8.75 16C8.75 16.41 8.41 16.75 8 16.75H4C3.9 16.75 3.8 16.73 3.71 16.69C3.53 16.61 3.38 16.47 3.3 16.28C3.27 16.19 3.25 16.1 3.25 16V12C3.25 11.59 3.59 11.25 4 11.25C4.41 11.25 4.75 11.59 4.75 12V14.19L14.19 4.75H12C11.59 4.75 11.25 4.41 11.25 4C11.25 3.59 11.59 3.25 12 3.25H16C16.1 3.25 16.19 3.27 16.29 3.31C16.47 3.39 16.62 3.53 16.7 3.72C16.73 3.81 16.75 3.9 16.75 4V8Z" fill="#101010"/>
</svg>
