<svg width="20" height="20" viewBox="0 0 20 20" fill="none" xmlns="http://www.w3.org/2000/svg">
<path d="M14.19 0H5.81C2.17 0 0 2.17 0 5.81V14.18C0 17.83 2.17 20 5.81 20H14.18C17.82 20 19.99 17.83 19.99 14.19V5.81C20 2.17 17.83 0 14.19 0ZM8.22 19H5.91C3.2 19 1 16.8 1 14.09V11.78C1 11.37 1.34 11.03 1.75 11.03C2.16 11.03 2.5 11.37 2.5 11.78V14.09C2.5 15.97 4.03 17.5 5.91 17.5H8.22C8.63 17.5 8.97 17.84 8.97 18.25C8.97 18.66 8.64 19 8.22 19ZM8.22 2.5H5.91C4.03 2.5 2.5 4.03 2.5 5.91V8.22C2.5 8.63 2.16 8.97 1.75 8.97C1.34 8.97 1 8.64 1 8.22V5.91C1 3.2 3.2 1 5.91 1H8.22C8.63 1 8.97 1.34 8.97 1.75C8.97 2.16 8.64 2.5 8.22 2.5ZM19 14.09C19 16.8 16.8 19 14.09 19H12.7C12.29 19 11.95 18.66 11.95 18.25C11.95 17.84 12.29 17.5 12.7 17.5H14.09C15.97 17.5 17.5 15.97 17.5 14.09V12.7C17.5 12.29 17.84 11.95 18.25 11.95C18.66 11.95 19 12.29 19 12.7V14.09ZM19 8.22C19 8.63 18.66 8.97 18.25 8.97C17.84 8.97 17.5 8.63 17.5 8.22V5.91C17.5 4.03 15.97 2.5 14.09 2.5H11.78C11.37 2.5 11.03 2.16 11.03 1.75C11.03 1.34 11.36 1 11.78 1H14.09C16.8 1 19 3.2 19 5.91V8.22Z" fill="#101010"/>
</svg>
