<svg width="14" height="21" viewBox="0 0 14 21" fill="none" xmlns="http://www.w3.org/2000/svg">
<path d="M7 13C10.7279 13 13.75 10.0899 13.75 6.5C13.75 2.91015 10.7279 0 7 0C3.27208 0 0.25 2.91015 0.25 6.5C0.25 10.0899 3.27208 13 7 13Z" fill="#101010"/>
<path d="M10.79 13.6101C11.12 13.4401 11.5 13.6901 11.5 14.0601V18.9101C11.5 19.8101 10.87 20.2501 10.09 19.8801L7.41 18.6101C7.18 18.5101 6.82 18.5101 6.59 18.6101L3.91 19.8801C3.13 20.2401 2.5 19.8001 2.5 18.9001L2.52 14.0601C2.52 13.6901 2.91 13.4501 3.23 13.6101C4.36 14.1801 5.64 14.5001 7 14.5001C8.36 14.5001 9.65 14.1801 10.79 13.6101Z" fill="#101010"/>
</svg>
