<svg width="21" height="20" viewBox="0 0 21 20" fill="none" xmlns="http://www.w3.org/2000/svg">
<path d="M20.2502 16.4701L18.6002 16.8601C18.2302 16.9501 17.9402 17.2301 17.8602 17.6001L17.5102 19.0701C17.3202 19.8701 16.3002 20.1201 15.7702 19.4901L12.7802 16.0501C12.5402 15.7701 12.6702 15.3301 13.0302 15.2401C14.8002 14.8101 16.3902 13.8201 17.5602 12.4101C17.7502 12.1801 18.0902 12.1501 18.3002 12.3601L20.5202 14.5801C21.2802 15.3401 21.0102 16.2901 20.2502 16.4701Z" fill="#101010"/>
<path d="M1.70016 16.4701L3.35016 16.8601C3.72016 16.9501 4.01016 17.2301 4.09016 17.6001L4.44016 19.0701C4.63016 19.8701 5.65016 20.1201 6.18016 19.4901L9.17016 16.0501C9.41016 15.7701 9.28016 15.3301 8.92016 15.2401C7.15016 14.8101 5.56016 13.8201 4.39016 12.4101C4.20016 12.1801 3.86016 12.1501 3.65016 12.3601L1.43016 14.5801C0.670163 15.3401 0.940163 16.2901 1.70016 16.4701Z" fill="#101010"/>
<path d="M11 0C7.13 0 4 3.13 4 7C4 8.45 4.43 9.78 5.17 10.89C6.25 12.49 7.96 13.62 9.95 13.91C10.29 13.97 10.64 14 11 14C11.36 14 11.71 13.97 12.05 13.91C14.04 13.62 15.75 12.49 16.83 10.89C17.57 9.78 18 8.45 18 7C18 3.13 14.87 0 11 0ZM14.06 6.78L13.23 7.61C13.09 7.75 13.01 8.02 13.06 8.22L13.3 9.25C13.49 10.06 13.06 10.38 12.34 9.95L11.34 9.36C11.16 9.25 10.86 9.25 10.68 9.36L9.68 9.95C8.96 10.37 8.53 10.06 8.72 9.25L8.96 8.22C9 8.03 8.93 7.75 8.79 7.61L7.94 6.78C7.45 6.29 7.61 5.8 8.29 5.69L9.36 5.51C9.54 5.48 9.75 5.32 9.83 5.16L10.42 3.98C10.74 3.34 11.26 3.34 11.58 3.98L12.17 5.16C12.25 5.32 12.46 5.48 12.65 5.51L13.72 5.69C14.39 5.8 14.55 6.29 14.06 6.78Z" fill="#101010"/>
</svg>
