<svg width="18" height="20" viewBox="0 0 18 20" fill="none" xmlns="http://www.w3.org/2000/svg">
<path d="M14.5401 6.80989C16.1748 6.80989 17.5001 5.48466 17.5001 3.84989C17.5001 2.21513 16.1748 0.889893 14.5401 0.889893C12.9053 0.889893 11.5801 2.21513 11.5801 3.84989C11.5801 5.48466 12.9053 6.80989 14.5401 6.80989Z" fill="#101010"/>
<path d="M3.46 6.80989C5.09476 6.80989 6.42 5.48466 6.42 3.84989C6.42 2.21513 5.09476 0.889893 3.46 0.889893C1.82524 0.889893 0.5 2.21513 0.5 3.84989C0.5 5.48466 1.82524 6.80989 3.46 6.80989Z" fill="#101010"/>
<path d="M14.5401 19.1099C16.1748 19.1099 17.5001 17.7847 17.5001 16.1499C17.5001 14.5152 16.1748 13.1899 14.5401 13.1899C12.9053 13.1899 11.5801 14.5152 11.5801 16.1499C11.5801 17.7847 12.9053 19.1099 14.5401 19.1099Z" fill="#101010"/>
<path d="M3.46 19.1099C5.09476 19.1099 6.42 17.7847 6.42 16.1499C6.42 14.5152 5.09476 13.1899 3.46 13.1899C1.82524 13.1899 0.5 14.5152 0.5 16.1499C0.5 17.7847 1.82524 19.1099 3.46 19.1099Z" fill="#101010"/>
</svg>
