<svg width="22" height="21" viewBox="0 0 22 21" fill="none" xmlns="http://www.w3.org/2000/svg">
<path d="M19.8989 8.85L20.4889 18.74C20.5089 19.01 20.3789 19.19 20.3089 19.27C20.2289 19.36 20.0589 19.5 19.7789 19.5H17.0489L19.2089 8.85H19.8989ZM20.9989 5L20.9889 5.02C21.0089 5.26 20.9889 5.51 20.9289 5.76L13.5589 19.29C13.3189 20.3 12.4189 21 11.3789 21H19.7789C21.0689 21 22.0889 19.91 21.9889 18.62L20.9989 5Z" fill="#101010"/>
<path d="M10.4502 1.24002C10.5502 0.840022 10.3002 0.430022 9.90023 0.330022C9.50023 0.240022 9.09023 0.480022 8.99023 0.880022L8.49023 2.95002H10.0302L10.4502 1.24002Z" fill="#101010"/>
<path d="M17.0489 1.20999C17.1389 0.799993 16.8789 0.409993 16.4689 0.319993C16.0689 0.229993 15.6689 0.489993 15.5789 0.899993L15.1289 2.96999H16.6689L17.0489 1.20999Z" fill="#101010"/>
<path d="M20.8198 4.33C20.4898 3.53 19.7098 2.96 18.7498 2.96H16.6698L16.1098 5.55C16.0298 5.9 15.7198 6.14 15.3798 6.14C15.3298 6.14 15.2698 6.14 15.2198 6.12C14.8198 6.03 14.5598 5.63 14.6398 5.23L15.1298 2.95H10.0298L9.39975 5.55C9.31975 5.89 9.00976 6.12 8.66975 6.12C8.60975 6.12 8.54976 6.11 8.48975 6.1C8.08976 6 7.83975 5.6 7.93975 5.19L8.47975 2.94H6.44975C5.46975 2.94 4.59975 3.58 4.30975 4.52L0.0997545 18.07C-0.340246 19.52 0.729754 21 2.23975 21H15.3798C16.4198 21 17.3198 20.3 17.5598 19.29L20.9298 5.76C20.9898 5.51 21.0098 5.26 20.9898 5.02C20.9698 4.78 20.9198 4.54 20.8198 4.33ZM13.6998 15.75H5.69975C5.28975 15.75 4.94975 15.41 4.94975 15C4.94975 14.59 5.28975 14.25 5.69975 14.25H13.6998C14.1098 14.25 14.4498 14.59 14.4498 15C14.4498 15.41 14.1098 15.75 13.6998 15.75ZM14.6998 11.75H6.69975C6.28975 11.75 5.94975 11.41 5.94975 11C5.94975 10.59 6.28975 10.25 6.69975 10.25H14.6998C15.1098 10.25 15.4498 10.59 15.4498 11C15.4498 11.41 15.1098 11.75 14.6998 11.75Z" fill="#101010"/>
</svg>
