<svg width="20" height="20" viewBox="0 0 20 20" fill="none" xmlns="http://www.w3.org/2000/svg">
<path d="M16.4699 14.83L16.8599 17.99C16.9599 18.82 16.0699 19.4 15.3599 18.97L11.8999 16.91C11.6599 16.77 11.5999 16.47 11.7299 16.23C12.2299 15.31 12.4999 14.27 12.4999 13.23C12.4999 9.57 9.35989 6.59 5.49989 6.59C4.70989 6.59 3.93989 6.71 3.21989 6.95C2.84989 7.07 2.48989 6.73 2.57989 6.35C3.48989 2.71 6.98989 0 11.1699 0C16.0499 0 19.9999 3.69 19.9999 8.24C19.9999 10.94 18.6099 13.33 16.4699 14.83Z" fill="#101010"/>
<path d="M11 13.23C11 14.42 10.56 15.52 9.82 16.39C8.83 17.59 7.26 18.36 5.5 18.36L2.89 19.91C2.45 20.18 1.89 19.81 1.95 19.3L2.2 17.33C0.86 16.4 0 14.91 0 13.23C0 11.47 0.94 9.92 2.38 9C3.27 8.42 4.34 8.09 5.5 8.09C8.54 8.09 11 10.39 11 13.23Z" fill="#101010"/>
</svg>
