<svg width="20" height="22" viewBox="0 0 20 22" fill="none" xmlns="http://www.w3.org/2000/svg">
<path d="M14 0.970001H6C2 0.970001 0 2.97 0 6.97V11.97C0 16.97 2 17.97 6 17.97H6.5C6.78 17.97 7.14 18.15 7.3 18.37L8.8 20.37C9.46 21.25 10.54 21.25 11.2 20.37L12.7 18.37C12.89 18.12 13.19 17.97 13.5 17.97H14C18 17.97 20 15.97 20 11.97V6.97C20 2.97 18 0.970001 14 0.970001ZM6.53 11.17C6.82 11.46 6.82 11.94 6.53 12.23C6.38 12.38 6.19 12.45 6 12.45C5.81 12.45 5.62 12.38 5.47 12.23L3.47 10.23C3.18 9.94 3.18 9.46 3.47 9.17L5.47 7.17C5.76 6.88 6.24 6.88 6.53 7.17C6.82 7.46 6.82 7.94 6.53 8.23L5.06 9.7L6.53 11.17ZM11.69 7.66L9.69 12.33C9.57 12.61 9.29 12.78 9 12.78C8.9 12.78 8.8 12.76 8.7 12.72C8.32 12.56 8.14 12.12 8.31 11.73L10.31 7.06C10.47 6.68 10.91 6.5 11.3 6.67C11.68 6.84 11.85 7.28 11.69 7.66ZM16.53 10.23L14.53 12.23C14.38 12.38 14.19 12.45 14 12.45C13.81 12.45 13.62 12.38 13.47 12.23C13.18 11.94 13.18 11.46 13.47 11.17L14.94 9.7L13.47 8.23C13.18 7.94 13.18 7.46 13.47 7.17C13.76 6.88 14.24 6.88 14.53 7.17L16.53 9.17C16.82 9.46 16.82 9.94 16.53 10.23Z" fill="#101010"/>
</svg>
