<svg width="20" height="20" viewBox="0 0 20 20" fill="none" xmlns="http://www.w3.org/2000/svg">
<path d="M14.19 0H5.81C2.17 0 0 2.17 0 5.81V14.18C0 17.83 2.17 20 5.81 20H14.18C17.82 20 19.99 17.83 19.99 14.19V5.81C20 2.17 17.83 0 14.19 0ZM16.28 10.91C16.28 11.11 16.27 11.31 16.25 11.5C16.07 13.62 14.82 14.68 12.52 14.68H12.2C12 14.68 11.81 14.77 11.7 14.93L10.76 16.19C10.34 16.75 9.67 16.75 9.25 16.19L8.31 14.93C8.21 14.8 7.98 14.68 7.81 14.68H7.49C4.98 14.68 3.73 14.06 3.73 10.92V7.76C3.73 5.46 4.79 4.21 6.91 4.03C7.08 4.01 7.28 4 7.49 4H12.52C15.03 4 16.28 5.26 16.28 7.76V10.91Z" fill="#101010"/>
</svg>
