<svg width="20" height="20" viewBox="0 0 20 20" fill="none" xmlns="http://www.w3.org/2000/svg">
<path d="M10 0C4.48 0 0 4.48 0 10C0 15.52 4.48 20 10 20C15.52 20 20 15.52 20 10C20 4.48 15.52 0 10 0ZM15.25 10.81C15.25 10.98 15.24 11.14 15.22 11.3C15.07 13.07 14.02 13.95 12.1 13.95H11.84C11.68 13.95 11.52 14.03 11.42 14.16L10.63 15.21C10.28 15.68 9.72 15.68 9.37 15.21L8.58 14.16C8.49 14.05 8.3 13.95 8.16 13.95H7.9C5.81 13.95 4.75 13.43 4.75 10.8V8.17C4.75 6.25 5.64 5.2 7.4 5.05C7.56 5.04 7.73 5.04 7.9 5.04H12.1C14.19 5.04 15.25 6.09 15.25 8.19V10.81Z" fill="#101010"/>
</svg>
