<svg width="21" height="20" viewBox="0 0 21 20" fill="none" xmlns="http://www.w3.org/2000/svg">
<path d="M4 11.5C1.79 11.5 0 13.29 0 15.5C0 16.25 0.21 16.96 0.58 17.56C1.27 18.72 2.54 19.5 4 19.5C5.46 19.5 6.73 18.72 7.42 17.56C7.79 16.96 8 16.25 8 15.5C8 13.29 6.21 11.5 4 11.5ZM5.97 15.17L3.84 17.14C3.7 17.27 3.51 17.34 3.33 17.34C3.14 17.34 2.95 17.27 2.8 17.12L1.81 16.13C1.52 15.84 1.52 15.36 1.81 15.07C2.1 14.78 2.58 14.78 2.87 15.07L3.35 15.55L4.95 14.07C5.25 13.79 5.73 13.81 6.01 14.11C6.29 14.41 6.27 14.89 5.97 15.17Z" fill="#101010"/>
<path d="M16.25 0.429993H6.75C3.9 0.429993 2 2.32999 2 5.17999V9.63999C2 9.98999 2.36 10.24 2.7 10.15C3.12 10.05 3.55 9.99999 4 9.99999C6.86 9.99999 9.22 12.32 9.48 15.13C9.5 15.41 9.73 15.63 10 15.63H10.55L14.78 18.45C15.4 18.87 16.25 18.41 16.25 17.65V15.63C17.67 15.63 18.86 15.15 19.69 14.33C20.52 13.49 21 12.3 21 10.88V5.17999C21 2.32999 19.1 0.429993 16.25 0.429993ZM14.83 8.80999H8.17C7.78 8.80999 7.46 8.48999 7.46 8.09999C7.46 7.69999 7.78 7.37999 8.17 7.37999H14.83C15.22 7.37999 15.54 7.69999 15.54 8.09999C15.54 8.48999 15.22 8.80999 14.83 8.80999Z" fill="#101010"/>
</svg>
