<svg width="21" height="21" viewBox="0 0 21 21" fill="none" xmlns="http://www.w3.org/2000/svg">
<path d="M18.97 0H16.03C14.76 0 14 0.76 14 2.03V4.97C14 6.24 14.76 7 16.03 7H18.97C20.24 7 21 6.24 21 4.97V2.03C21 0.76 20.24 0 18.97 0ZM19.61 3.68C19.24 4.86 17.95 5.5 17.5 5.5C17.05 5.5 15.77 4.88 15.39 3.68C15.33 3.5 15.3 3.3 15.3 3.11C15.3 2.46 15.63 1.79 16.32 1.57C16.73 1.44 17.17 1.51 17.48 1.77C17.8 1.52 18.24 1.44 18.66 1.57C19.58 1.86 19.87 2.89 19.61 3.68Z" fill="#101010"/>
<path d="M16.03 8.5C14.08 8.5 12.5 6.92 12.5 4.97V2C12.5 1.45 12.05 1 11.5 1H5C2.24 1 0 3.23 0 5.98V12.95C0 15.71 2.24 17.95 5 17.95H6.5C6.78 17.95 7.14 18.13 7.3 18.35L8.8 20.34C9.46 21.22 10.54 21.22 11.2 20.34L12.7 18.35C12.89 18.1 13.19 17.95 13.5 17.95H15.01C17.77 17.95 20 15.72 20 12.96V9.5C20 8.95 19.55 8.5 19 8.5H16.03ZM6 11C5.44 11 5 10.55 5 10C5 9.45 5.44 9 6 9C6.55 9 7 9.45 7 10C7 10.55 6.56 11 6 11ZM10 11C9.44 11 9 10.55 9 10C9 9.45 9.44 9 10 9C10.55 9 11 9.45 11 10C11 10.55 10.56 11 10 11Z" fill="#101010"/>
</svg>
