<svg width="20" height="20" viewBox="0 0 20 20" fill="none" xmlns="http://www.w3.org/2000/svg">
<path d="M14 0H6C2 0 0 2 0 6V19C0 19.55 0.45 20 1 20H14C18 20 20 18 20 14V6C20 2 18 0 14 0ZM13.5 10.75H10.75V13.5C10.75 13.91 10.41 14.25 10 14.25C9.59 14.25 9.25 13.91 9.25 13.5V10.75H6.5C6.09 10.75 5.75 10.41 5.75 10C5.75 9.59 6.09 9.25 6.5 9.25H9.25V6.5C9.25 6.09 9.59 5.75 10 5.75C10.41 5.75 10.75 6.09 10.75 6.5V9.25H13.5C13.91 9.25 14.25 9.59 14.25 10C14.25 10.41 13.91 10.75 13.5 10.75Z" fill="#101010"/>
</svg>
