<svg width="20" height="20" viewBox="0 0 20 20" fill="none" xmlns="http://www.w3.org/2000/svg">
<path d="M19.9999 10.86C19.9999 13.15 18.8199 15.18 16.9999 16.46L15.6599 19.41C15.3499 20.08 14.4499 20.21 13.9799 19.64L12.4999 17.86C10.6399 17.86 8.92988 17.23 7.62988 16.18L8.22988 15.47C12.8499 15.12 16.4999 11.46 16.4999 7C16.4999 6.24 16.3899 5.49 16.1899 4.77C18.4599 5.97 19.9999 8.25 19.9999 10.86Z" fill="#101010"/>
<path d="M14.3 4.07C13.13 1.67 10.52 0 7.5 0C3.36 0 0 3.13 0 7C0 9.29 1.18 11.32 3 12.6L4.34 15.55C4.65 16.22 5.55 16.34 6.02 15.78L6.57 15.12L7.5 14C11.64 14 15 10.87 15 7C15 5.95 14.75 4.96 14.3 4.07ZM10 7.75H5C4.59 7.75 4.25 7.41 4.25 7C4.25 6.59 4.59 6.25 5 6.25H10C10.41 6.25 10.75 6.59 10.75 7C10.75 7.41 10.41 7.75 10 7.75Z" fill="#101010"/>
</svg>
