<svg width="20" height="20" viewBox="0 0 20 20" fill="none" xmlns="http://www.w3.org/2000/svg">
<path d="M15 0H5C2.24 0 0 2.23 0 4.98V10.96V11.96C0 14.71 2.24 16.94 5 16.94H6.5C6.77 16.94 7.13 17.12 7.3 17.34L8.8 19.33C9.46 20.21 10.54 20.21 11.2 19.33L12.7 17.34C12.89 17.09 13.19 16.94 13.5 16.94H15C17.76 16.94 20 14.71 20 11.96V4.98C20 2.23 17.76 0 15 0ZM11 11.75H5C4.59 11.75 4.25 11.41 4.25 11C4.25 10.59 4.59 10.25 5 10.25H11C11.41 10.25 11.75 10.59 11.75 11C11.75 11.41 11.41 11.75 11 11.75ZM15 6.75H5C4.59 6.75 4.25 6.41 4.25 6C4.25 5.59 4.59 5.25 5 5.25H15C15.41 5.25 15.75 5.59 15.75 6C15.75 6.41 15.41 6.75 15 6.75Z" fill="#101010"/>
</svg>
