<svg width="21" height="20" viewBox="0 0 21 20" fill="none" xmlns="http://www.w3.org/2000/svg">
<path d="M4 11.5C3.06 11.5 2.19 11.83 1.5 12.38C0.58 13.11 0 14.24 0 15.5C0 17.71 1.79 19.5 4 19.5C5.01 19.5 5.93 19.12 6.64 18.5C7.47 17.77 8 16.7 8 15.5C8 13.29 6.21 11.5 4 11.5ZM5 15.75C5 16.01 4.86 16.26 4.64 16.39L3.39 17.14C3.27 17.22 3.13 17.25 3 17.25C2.75 17.25 2.5 17.12 2.36 16.89C2.15 16.53 2.26 16.07 2.62 15.86L3.51 15.33V14.25C3.51 13.84 3.85 13.5 4.26 13.5C4.67 13.5 5 13.84 5 14.25V15.75Z" fill="#101010"/>
<path d="M16.25 0.429993H6.75C3.9 0.429993 2 2.32999 2 5.17999V9.63999C2 9.98999 2.36 10.24 2.7 10.15C3.12 10.05 3.55 9.99999 4 9.99999C6.86 9.99999 9.22 12.32 9.48 15.13C9.5 15.41 9.73 15.63 10 15.63H10.55L14.78 18.45C15.4 18.87 16.25 18.41 16.25 17.65V15.63C17.67 15.63 18.86 15.15 19.69 14.33C20.52 13.49 21 12.3 21 10.88V5.17999C21 2.32999 19.1 0.429993 16.25 0.429993ZM14.83 8.80999H8.17C7.78 8.80999 7.46 8.48999 7.46 8.09999C7.46 7.69999 7.78 7.37999 8.17 7.37999H14.83C15.22 7.37999 15.54 7.69999 15.54 8.09999C15.54 8.48999 15.22 8.80999 14.83 8.80999Z" fill="#101010"/>
</svg>
