<svg width="20" height="21" viewBox="0 0 20 21" fill="none" xmlns="http://www.w3.org/2000/svg">
<path d="M11.19 4H4.79C4.53 4 4.28 4.01 4.04 4.04C1.35 4.27 0 5.86 0 8.79V12.79C0 16.79 1.6 17.58 4.79 17.58H5.19C5.41 17.58 5.7 17.73 5.83 17.9L7.03 19.5C7.56 20.21 8.42 20.21 8.95 19.5L10.15 17.9C10.3 17.7 10.54 17.58 10.79 17.58H11.19C14.12 17.58 15.71 16.24 15.94 13.54C15.97 13.3 15.98 13.05 15.98 12.79V8.79C15.98 5.6 14.38 4 11.19 4ZM4.5 12C3.94 12 3.5 11.55 3.5 11C3.5 10.45 3.95 10 4.5 10C5.05 10 5.5 10.45 5.5 11C5.5 11.55 5.05 12 4.5 12ZM7.99 12C7.43 12 6.99 11.55 6.99 11C6.99 10.45 7.44 10 7.99 10C8.54 10 8.99 10.45 8.99 11C8.99 11.55 8.55 12 7.99 12ZM11.49 12C10.93 12 10.49 11.55 10.49 11C10.49 10.45 10.94 10 11.49 10C12.04 10 12.49 10.45 12.49 11C12.49 11.55 12.04 12 11.49 12Z" fill="#101010"/>
<path d="M19.9798 4.79V8.79C19.9798 10.79 19.3598 12.15 18.1198 12.9C17.8198 13.08 17.4698 12.84 17.4698 12.49L17.4798 8.79C17.4798 4.79 15.1898 2.5 11.1898 2.5L5.09976 2.51C4.74976 2.51 4.50976 2.16 4.68976 1.86C5.43976 0.62 6.79976 0 8.78976 0H15.1898C18.3798 0 19.9798 1.6 19.9798 4.79Z" fill="#101010"/>
</svg>
