<svg width="20" height="20" viewBox="0 0 20 20" fill="none" xmlns="http://www.w3.org/2000/svg">
<path d="M12.8396 8.89999L18.4996 5.10999C19.0696 4.72999 19.2196 3.94999 18.8396 3.38999L17.0196 0.679993C16.6396 0.109993 15.8596 -0.0400071 15.2996 0.339993L9.63965 4.12999L12.8396 8.89999Z" fill="#101010"/>
<path d="M12.5197 8.42001L10.7597 9.60001L8.08969 11.39L7.73969 11.62L7.57969 11.38L5.33969 8.04001L5.17969 7.80001L9.95969 4.60001L12.5197 8.42001Z" fill="#101010"/>
<path d="M3.6401 14.02L7.5901 11.38L5.3501 8.03998L1.4001 10.68C0.940098 10.99 0.820098 11.61 1.1301 12.07L2.2601 13.75C2.5601 14.21 3.1801 14.33 3.6401 14.02Z" fill="#101010"/>
<path d="M14.5604 19.81C14.4604 19.85 14.3504 19.88 14.2504 19.88C13.9604 19.88 13.6904 19.71 13.5604 19.43L9.83038 11.19L6.05038 19.44C5.92038 19.71 5.65038 19.88 5.36038 19.88C5.26038 19.88 5.15038 19.85 5.05038 19.81C4.68038 19.63 4.51038 19.19 4.68038 18.81L8.09038 11.39L10.7604 9.60001L14.9304 18.82C15.1004 19.19 14.9304 19.64 14.5604 19.81Z" fill="#101010"/>
</svg>
