<svg width="20" height="20" viewBox="0 0 20 20" fill="none" xmlns="http://www.w3.org/2000/svg">
<path d="M9.99961 19.93C4.95961 19.93 0.849609 15.83 0.849609 10.78V8.89995C0.849609 8.50995 1.16961 8.19995 1.54961 8.19995C1.92961 8.19995 2.24961 8.51995 2.24961 8.89995V10.78C2.24961 15.05 5.71961 18.52 9.98961 18.52C14.2596 18.52 17.7296 15.05 17.7296 10.78V8.89995C17.7296 8.50995 18.0496 8.19995 18.4296 8.19995C18.8096 8.19995 19.1296 8.51995 19.1296 8.89995V10.78C19.1496 15.83 15.0396 19.93 9.99961 19.93Z" fill="#101010"/>
<path d="M9.99941 0C6.63941 0 3.89941 2.74 3.89941 6.1V10.79C3.89941 14.15 6.63941 16.89 9.99941 16.89C13.3594 16.89 16.0994 14.15 16.0994 10.79V6.1C16.0994 2.74 13.3594 0 9.99941 0ZM12.1794 8.59C12.1094 8.86 11.8594 9.04 11.5894 9.04C11.5394 9.04 11.4794 9.03 11.4294 9.02C10.4094 8.74 9.32941 8.74 8.30941 9.02C7.97941 9.11 7.64941 8.92 7.55941 8.59C7.46941 8.27 7.65941 7.93 7.98941 7.84C9.21941 7.5 10.5194 7.5 11.7494 7.84C12.0794 7.93 12.2694 8.26 12.1794 8.59ZM13.0294 5.82C12.9394 6.07 12.7094 6.22 12.4594 6.22C12.3894 6.22 12.3194 6.21 12.2494 6.18C10.7194 5.62 9.03941 5.62 7.50941 6.18C7.18941 6.3 6.83941 6.14 6.71941 5.82C6.60941 5.51 6.76941 5.16 7.08941 5.04C8.88941 4.39 10.8694 4.39 12.6594 5.04C12.9794 5.16 13.1394 5.51 13.0294 5.82Z" fill="#101010"/>
</svg>
