<svg width="21" height="21" viewBox="0 0 21 21" fill="none" xmlns="http://www.w3.org/2000/svg">
<path opacity="0.4" d="M18.7098 15.52C18.3398 16.74 17.6098 17.68 16.5698 18.26C16.5298 18.1 16.5098 17.93 16.5098 17.76C16.5098 16.54 17.4998 15.54 18.7098 15.52Z" fill="#101010"/>
<path d="M19 5.52V7.48397C19 8.00651 18.586 8.42943 18.08 8.56L15.13 9.38C13.57 9.78 12.53 11.13 12.53 12.74V14.2849C12.53 14.7595 12.1873 15.1556 11.7612 15.3644C10.7457 15.8619 9.96982 16.8714 9.67701 18.0107C9.53953 18.5456 9.10228 19 8.55 19H5.52C2.07 19 0 16.94 0 13.48V5.52C0 2.06 2.07 0 5.52 0H13.48C16.93 0 19 2.06 19 5.52Z" fill="#101010"/>
<path d="M20.31 10.25C20.05 10.06 19.63 9.86002 19 9.92002C18.84 9.93002 18.67 9.96002 18.48 10.01L15.5 10.83C14.61 11.06 14.03 11.81 14.03 12.74V16.65C13.8 16.57 13.55 16.52 13.29 16.52C12.05 16.52 11.04 17.52 11.04 18.76C11.04 18.84 11.04 18.92 11.05 19C11.17 20.12 12.13 21 13.29 21C14.51 21 15.5 20.01 15.52 18.8C15.52 18.78 15.53 18.77 15.53 18.76V15.07L18.98 14.12L19.5 13.98V15.66C19.27 15.58 19.02 15.52 18.75 15.52H18.71C17.5 15.54 16.51 16.54 16.51 17.76C16.51 17.93 16.53 18.1 16.57 18.26C16.8 19.26 17.69 20.01 18.75 20.01C19.98 20.01 20.97 19.02 20.99 17.8C20.99 17.79 21 17.78 21 17.76V11.93C21 11.17 20.77 10.61 20.31 10.25ZM13.29 19.5C12.96 19.5 12.68 19.29 12.59 19C12.55 18.93 12.54 18.84 12.54 18.76C12.54 18.35 12.88 18.02 13.29 18.02C13.69 18.02 14.03 18.35 14.03 18.76C14.03 18.84 14.02 18.91 13.99 18.98C13.9 19.28 13.62 19.5 13.29 19.5ZM18.75 18.51C18.35 18.51 18.01 18.17 18.01 17.76C18.01 17.36 18.35 17.02 18.75 17.02C19.16 17.02 19.5 17.36 19.5 17.76C19.5 18.17 19.16 18.51 18.75 18.51Z" fill="#101010"/>
</svg>
