<svg width="20" height="18" viewBox="0 0 20 18" fill="none" xmlns="http://www.w3.org/2000/svg">
<path d="M15 0H5C2.24 0 0 2.24 0 5V6V13C0 15.76 2.24 18 5 18H14H15C17.76 18 20 15.76 20 13V5C20 2.24 17.76 0 15 0ZM8.49 13.81C8.46 13.81 8.43 13.82 8.39 13.82C8.02 13.82 7.7 13.54 7.65 13.17C7.52 12.15 6.78 11.41 5.76 11.28C5.35 11.23 5.06 10.85 5.11 10.44C5.16 10.03 5.54 9.74 5.95 9.79C7.64 10.01 8.92 11.29 9.14 12.98C9.19 13.38 8.9 13.76 8.49 13.81ZM11.54 13.3C11.51 13.3 11.48 13.31 11.44 13.31C11.07 13.31 10.75 13.03 10.7 12.66C10.39 10.28 8.66 8.54 6.27 8.23C5.86 8.18 5.57 7.8 5.62 7.39C5.67 6.98 6.05 6.69 6.46 6.74C9.54 7.14 11.79 9.38 12.19 12.47C12.24 12.87 11.95 13.24 11.54 13.3ZM14.24 12.43C14.21 12.43 14.18 12.44 14.14 12.44C13.77 12.44 13.45 12.16 13.4 11.79C12.97 8.41 10.51 5.95 7.13 5.52C6.72 5.47 6.43 5.09 6.48 4.68C6.53 4.27 6.91 3.98 7.32 4.03C11.39 4.55 14.36 7.52 14.89 11.6C14.94 12.01 14.65 12.38 14.24 12.43Z" fill="#101010"/>
</svg>
