<svg width="21" height="18" viewBox="0 0 21 18" fill="none" xmlns="http://www.w3.org/2000/svg">
<path d="M15.002 0.5H5.00195C2.00195 0.5 0.00195312 2 0.00195312 5.5V12.5C0.00195312 16 2.00195 17.5 5.00195 17.5H15.002C18.002 17.5 20.002 16 20.002 12.5V5.5C20.002 2 18.002 0.5 15.002 0.5ZM4.25195 11.5C4.25195 11.91 3.91195 12.25 3.50195 12.25C3.09195 12.25 2.75195 11.91 2.75195 11.5V6.5C2.75195 6.09 3.09195 5.75 3.50195 5.75C3.91195 5.75 4.25195 6.09 4.25195 6.5V11.5ZM10.002 12C8.34195 12 7.00195 10.66 7.00195 9C7.00195 7.34 8.34195 6 10.002 6C11.662 6 13.002 7.34 13.002 9C13.002 10.66 11.662 12 10.002 12ZM17.252 11.5C17.252 11.91 16.912 12.25 16.502 12.25C16.092 12.25 15.752 11.91 15.752 11.5V6.5C15.752 6.09 16.092 5.75 16.502 5.75C16.912 5.75 17.252 6.09 17.252 6.5V11.5Z" fill="#101010"/>
</svg>
