<svg width="22" height="18" viewBox="0 0 22 18" fill="none" xmlns="http://www.w3.org/2000/svg">
<path d="M16.002 0H6.00195C3.00195 0 1.00195 1.5 1.00195 5V8.56C1.00195 8.93 1.38195 9.16 1.71195 9.01C2.69195 8.56 3.82195 8.39 5.01195 8.6C7.64195 9.07 9.57195 11.51 9.50195 14.18C9.49195 14.6 9.43195 15.01 9.32195 15.41C9.24195 15.72 9.49195 16.01 9.81195 16.01H16.002C19.002 16.01 21.002 14.51 21.002 11.01V5C21.002 1.5 19.002 0 16.002 0ZM11.002 10.5C9.62195 10.5 8.50195 9.38 8.50195 8C8.50195 6.62 9.62195 5.5 11.002 5.5C12.382 5.5 13.502 6.62 13.502 8C13.502 9.38 12.382 10.5 11.002 10.5ZM18.252 10C18.252 10.41 17.912 10.75 17.502 10.75C17.092 10.75 16.752 10.41 16.752 10V6C16.752 5.59 17.092 5.25 17.502 5.25C17.912 5.25 18.252 5.59 18.252 6V10Z" fill="#101010"/>
<path d="M4.00195 10C2.80195 10 1.73195 10.53 1.00195 11.36C0.381953 12.07 0.00195312 12.99 0.00195312 14C0.00195312 14.75 0.211953 15.46 0.581953 16.06C1.27195 17.22 2.54195 18 4.00195 18C5.01195 18 5.93195 17.63 6.63195 17C6.94195 16.74 7.21195 16.42 7.42195 16.06C7.79195 15.46 8.00195 14.75 8.00195 14C8.00195 11.79 6.21195 10 4.00195 10ZM5.60195 15.58C5.45195 15.73 5.26195 15.8 5.07195 15.8C4.88195 15.8 4.69195 15.73 4.54195 15.58L4.01195 15.05L3.46195 15.6C3.31195 15.75 3.12195 15.82 2.93195 15.82C2.74195 15.82 2.55195 15.75 2.40195 15.6C2.11195 15.31 2.11195 14.83 2.40195 14.54L2.95195 13.99L2.42195 13.46C2.13195 13.17 2.13195 12.69 2.42195 12.4C2.71195 12.11 3.19195 12.11 3.48195 12.4L4.01195 12.93L4.51195 12.43C4.80195 12.14 5.28195 12.14 5.57195 12.43C5.86195 12.72 5.86195 13.2 5.57195 13.49L5.07195 13.99L5.60195 14.52C5.89195 14.81 5.89195 15.28 5.60195 15.58Z" fill="#101010"/>
</svg>
