<svg width="22" height="18" viewBox="0 0 22 18" fill="none" xmlns="http://www.w3.org/2000/svg">
<path d="M16.002 0H6.00195C3.00195 0 1.00195 1.5 1.00195 5V8.56C1.00195 8.93 1.38195 9.16 1.71195 9.01C2.69195 8.56 3.82195 8.39 5.01195 8.6C7.64195 9.07 9.57195 11.51 9.50195 14.18C9.49195 14.6 9.43195 15.01 9.32195 15.41C9.24195 15.72 9.49195 16.01 9.81195 16.01H16.002C19.002 16.01 21.002 14.51 21.002 11.01V5C21.002 1.5 19.002 0 16.002 0ZM11.002 10.5C9.62195 10.5 8.50195 9.38 8.50195 8C8.50195 6.62 9.62195 5.5 11.002 5.5C12.382 5.5 13.502 6.62 13.502 8C13.502 9.38 12.382 10.5 11.002 10.5ZM18.252 10C18.252 10.41 17.912 10.75 17.502 10.75C17.092 10.75 16.752 10.41 16.752 10V6C16.752 5.59 17.092 5.25 17.502 5.25C17.912 5.25 18.252 5.59 18.252 6V10Z" fill="#101010"/>
<path d="M4.00195 10C1.79195 10 0.00195312 11.79 0.00195312 14C0.00195312 14.75 0.211953 15.46 0.581953 16.06C1.27195 17.22 2.54195 18 4.00195 18C5.46195 18 6.73195 17.22 7.42195 16.06C7.79195 15.46 8.00195 14.75 8.00195 14C8.00195 11.79 6.21195 10 4.00195 10ZM5.49195 14.73H4.75195V15.51C4.75195 15.92 4.41195 16.26 4.00195 16.26C3.59195 16.26 3.25195 15.92 3.25195 15.51V14.73H2.51195C2.10195 14.73 1.76195 14.39 1.76195 13.98C1.76195 13.57 2.10195 13.23 2.51195 13.23H3.25195V12.52C3.25195 12.11 3.59195 11.77 4.00195 11.77C4.41195 11.77 4.75195 12.11 4.75195 12.52V13.23H5.49195C5.90195 13.23 6.24195 13.57 6.24195 13.98C6.24195 14.39 5.91195 14.73 5.49195 14.73Z" fill="#101010"/>
</svg>
