<svg width="21" height="18" viewBox="0 0 21 18" fill="none" xmlns="http://www.w3.org/2000/svg">
<path d="M10.0029 12C11.6598 12 13.0029 10.6569 13.0029 9C13.0029 7.34315 11.6598 6 10.0029 6C8.34608 6 7.00293 7.34315 7.00293 9C7.00293 10.6569 8.34608 12 10.0029 12Z" fill="#101010"/>
<path d="M15.0029 0.5H5.00293C2.00293 0.5 0.00292969 2 0.00292969 5.5V6V12V12.5C0.00292969 16 2.00293 17.5 5.00293 17.5H15.0029C18.0029 17.5 20.0029 16 20.0029 12.5V12V6V5.5C20.0029 2 18.0029 0.5 15.0029 0.5ZM5.00293 16C5.00293 13.18 4.09293 12.14 1.50293 12.02V12V6V5.98C4.09293 5.86 5.00293 4.82 5.00293 2H15.0029C15.0029 4.82 15.9129 5.86 18.5029 5.98V6V12V12.02C15.9129 12.14 15.0029 13.18 15.0029 16H5.00293Z" fill="#101010"/>
</svg>
