<svg width="21" height="18" viewBox="0 0 21 18" fill="none" xmlns="http://www.w3.org/2000/svg">
<path d="M15.0049 0.5H5.00488C2.00488 0.5 0.00488281 2 0.00488281 5.5V12.5C0.00488281 16 2.00488 17.5 5.00488 17.5H15.0049C18.0049 17.5 20.0049 16 20.0049 12.5V5.5C20.0049 2 18.0049 0.5 15.0049 0.5ZM1.75488 5.5C1.75488 3.71 3.21488 2.25 5.00488 2.25H6.50488C6.91488 2.25 7.25488 2.59 7.25488 3C7.25488 3.41 6.91488 3.75 6.50488 3.75H5.00488C4.04488 3.75 3.25488 4.54 3.25488 5.5V7C3.25488 7.41 2.91488 7.75 2.50488 7.75C2.09488 7.75 1.75488 7.41 1.75488 7V5.5ZM6.50488 15.75H5.00488C3.21488 15.75 1.75488 14.29 1.75488 12.5V11C1.75488 10.59 2.09488 10.25 2.50488 10.25C2.91488 10.25 3.25488 10.59 3.25488 11V12.5C3.25488 13.46 4.04488 14.25 5.00488 14.25H6.50488C6.91488 14.25 7.25488 14.59 7.25488 15C7.25488 15.41 6.91488 15.75 6.50488 15.75ZM10.0049 12C8.34488 12 7.00488 10.66 7.00488 9C7.00488 7.34 8.34488 6 10.0049 6C11.6649 6 13.0049 7.34 13.0049 9C13.0049 10.66 11.6649 12 10.0049 12ZM18.2549 12.5C18.2549 14.29 16.7949 15.75 15.0049 15.75H13.5049C13.0949 15.75 12.7549 15.41 12.7549 15C12.7549 14.59 13.0949 14.25 13.5049 14.25H15.0049C15.9649 14.25 16.7549 13.46 16.7549 12.5V11C16.7549 10.59 17.0949 10.25 17.5049 10.25C17.9149 10.25 18.2549 10.59 18.2549 11V12.5ZM18.2549 7C18.2549 7.41 17.9149 7.75 17.5049 7.75C17.0949 7.75 16.7549 7.41 16.7549 7V5.5C16.7549 4.54 15.9649 3.75 15.0049 3.75H13.5049C13.0949 3.75 12.7549 3.41 12.7549 3C12.7549 2.59 13.0949 2.25 13.5049 2.25H15.0049C16.7949 2.25 18.2549 3.71 18.2549 5.5V7Z" fill="#101010"/>
</svg>
