<svg width="21" height="18" viewBox="0 0 21 18" fill="none" xmlns="http://www.w3.org/2000/svg">
<path d="M15.0068 0.5H5.00684C2.00684 0.5 0.00683594 2 0.00683594 5.5V12.5C0.00683594 16 2.00684 17.5 5.00684 17.5H15.0068C18.0068 17.5 20.0068 16 20.0068 12.5V5.5C20.0068 2 18.0068 0.5 15.0068 0.5ZM6.00684 14.75H3.00684C2.59684 14.75 2.25684 14.41 2.25684 14C2.25684 13.59 2.59684 13.25 3.00684 13.25H6.00684C6.41684 13.25 6.75684 13.59 6.75684 14C6.75684 14.41 6.41684 14.75 6.00684 14.75ZM10.0068 12C8.34684 12 7.00684 10.66 7.00684 9C7.00684 7.34 8.34684 6 10.0068 6C11.6668 6 13.0068 7.34 13.0068 9C13.0068 10.66 11.6668 12 10.0068 12ZM17.0068 4.75H14.0068C13.5968 4.75 13.2568 4.41 13.2568 4C13.2568 3.59 13.5968 3.25 14.0068 3.25H17.0068C17.4168 3.25 17.7568 3.59 17.7568 4C17.7568 4.41 17.4168 4.75 17.0068 4.75Z" fill="#101010"/>
</svg>
