<svg width="22" height="18" viewBox="0 0 22 18" fill="none" xmlns="http://www.w3.org/2000/svg">
<path d="M4.00195 10C1.79195 10 0.00195312 11.79 0.00195312 14C0.00195312 16.21 1.79195 18 4.00195 18C6.21195 18 8.00195 16.21 8.00195 14C8.00195 11.79 6.21195 10 4.00195 10ZM5.00195 13.68C5.00195 14.29 4.67195 14.87 4.15195 15.18L3.39195 15.64C3.27195 15.72 3.13195 15.75 3.00195 15.75C2.75195 15.75 2.50195 15.62 2.36195 15.39C2.15195 15.04 2.26195 14.57 2.62195 14.36L3.38195 13.9C3.45195 13.86 3.50195 13.77 3.50195 13.69V12.76C3.50195 12.34 3.84195 12 4.25195 12C4.66195 12 5.00195 12.34 5.00195 12.75V13.68Z" fill="#101010"/>
<path d="M16.002 0H6.00195C3.00195 0 1.00195 1.5 1.00195 5V8.56C1.00195 8.93 1.38195 9.16 1.71195 9.01C2.69195 8.56 3.82195 8.39 5.01195 8.6C7.64195 9.07 9.57195 11.51 9.50195 14.18C9.49195 14.6 9.43195 15.01 9.32195 15.41C9.24195 15.72 9.49195 16.01 9.81195 16.01H16.002C19.002 16.01 21.002 14.51 21.002 11.01V5C21.002 1.5 19.002 0 16.002 0ZM11.002 10.5C9.62195 10.5 8.50195 9.38 8.50195 8C8.50195 6.62 9.62195 5.5 11.002 5.5C12.382 5.5 13.502 6.62 13.502 8C13.502 9.38 12.382 10.5 11.002 10.5ZM18.252 10C18.252 10.41 17.912 10.75 17.502 10.75C17.092 10.75 16.752 10.41 16.752 10V6C16.752 5.59 17.092 5.25 17.502 5.25C17.912 5.25 18.252 5.59 18.252 6V10Z" fill="#101010"/>
</svg>
