<svg width="22" height="18" viewBox="0 0 22 18" fill="none" xmlns="http://www.w3.org/2000/svg">
<path d="M16.002 0H6.00195C3.00195 0 1.00195 1.5 1.00195 5V8.56C1.00195 8.93 1.38195 9.16 1.71195 9.01C2.69195 8.56 3.82195 8.39 5.01195 8.6C7.64195 9.07 9.57195 11.51 9.50195 14.18C9.49195 14.6 9.43195 15.01 9.32195 15.41C9.24195 15.72 9.49195 16.01 9.81195 16.01H16.002C19.002 16.01 21.002 14.51 21.002 11.01V5C21.002 1.5 19.002 0 16.002 0ZM11.002 10.5C9.62195 10.5 8.50195 9.38 8.50195 8C8.50195 6.62 9.62195 5.5 11.002 5.5C12.382 5.5 13.502 6.62 13.502 8C13.502 9.38 12.382 10.5 11.002 10.5ZM18.252 10C18.252 10.41 17.912 10.75 17.502 10.75C17.092 10.75 16.752 10.41 16.752 10V6C16.752 5.59 17.092 5.25 17.502 5.25C17.912 5.25 18.252 5.59 18.252 6V10Z" fill="#101010"/>
<path d="M4.00195 10C2.75195 10 1.62195 10.59 0.891953 11.49C0.331953 12.18 0.00195312 13.05 0.00195312 14C0.00195312 16.21 1.80195 18 4.00195 18C5.74195 18 7.23195 16.89 7.77195 15.33C7.92195 14.92 8.00195 14.47 8.00195 14C8.00195 11.8 6.21195 10 4.00195 10ZM6.36195 15.74C6.34195 15.8 6.30195 15.86 6.26195 15.9L5.54195 16.61C5.45195 16.71 5.33195 16.75 5.20195 16.75C5.07195 16.75 4.94195 16.71 4.85195 16.61C4.69195 16.46 4.67195 16.22 4.77195 16.04H2.76195C2.12195 16.04 1.60195 15.52 1.60195 14.87V14.77C1.60195 14.49 1.82195 14.28 2.09195 14.28C2.36195 14.28 2.58195 14.49 2.58195 14.77V14.87C2.58195 14.98 2.66195 15.07 2.77195 15.07H4.78195C4.68195 14.88 4.70195 14.65 4.86195 14.49C5.05195 14.3 5.36195 14.3 5.54195 14.49L6.26195 15.21C6.30195 15.25 6.34195 15.31 6.37195 15.37C6.41195 15.48 6.41195 15.62 6.36195 15.74ZM6.40195 13.23C6.40195 13.51 6.18195 13.72 5.91195 13.72C5.64195 13.72 5.42195 13.51 5.42195 13.23V13.13C5.42195 13.02 5.34195 12.93 5.23195 12.93H3.23195C3.33195 13.12 3.31195 13.35 3.15195 13.51C3.06195 13.6 2.94195 13.65 2.80195 13.65C2.68195 13.65 2.55195 13.6 2.46195 13.51L1.74195 12.79C1.70195 12.75 1.66195 12.69 1.63195 12.63C1.59195 12.51 1.59195 12.38 1.63195 12.26C1.66195 12.21 1.69195 12.14 1.74195 12.1L2.46195 11.39C2.65195 11.19 2.96195 11.19 3.14195 11.39C3.30195 11.54 3.32195 11.78 3.22195 11.96H5.23195C5.87195 11.96 6.39195 12.48 6.39195 13.13V13.23H6.40195Z" fill="#101010"/>
</svg>
