<svg width="22" height="18" viewBox="0 0 22 18" fill="none" xmlns="http://www.w3.org/2000/svg">
<path d="M18.1719 3.64002C17.7419 1.47002 16.1319 0.52002 13.8919 0.52002H5.11191C2.47191 0.52002 0.711914 1.84002 0.711914 4.92002V10.07C0.711914 12.29 1.62191 13.59 3.12191 14.15C3.34191 14.23 3.58191 14.3 3.83191 14.34C4.23191 14.43 4.66191 14.47 5.11191 14.47H13.9019C16.5419 14.47 18.3019 13.15 18.3019 10.07V4.92002C18.3019 4.45002 18.2619 4.03002 18.1719 3.64002ZM4.53191 9.00002C4.53191 9.41002 4.19191 9.75002 3.78191 9.75002C3.37191 9.75002 3.03191 9.41002 3.03191 9.00002V6.00002C3.03191 5.59002 3.37191 5.25002 3.78191 5.25002C4.19191 5.25002 4.53191 5.59002 4.53191 6.00002V9.00002ZM9.50191 10.14C8.04191 10.14 6.86191 8.96002 6.86191 7.50002C6.86191 6.04002 8.04191 4.86002 9.50191 4.86002C10.9619 4.86002 12.1419 6.04002 12.1419 7.50002C12.1419 8.96002 10.9619 10.14 9.50191 10.14ZM15.9619 9.00002C15.9619 9.41002 15.6219 9.75002 15.2119 9.75002C14.8019 9.75002 14.4619 9.41002 14.4619 9.00002V6.00002C14.4619 5.59002 14.8019 5.25002 15.2119 5.25002C15.6219 5.25002 15.9619 5.59002 15.9619 6.00002V9.00002Z" fill="#101010"/>
<path d="M21.3017 7.92003V13.07C21.3017 16.15 19.5417 17.48 16.8917 17.48H8.11172C7.36172 17.48 6.69172 17.37 6.11172 17.15C5.64172 16.98 5.23172 16.73 4.90172 16.41C4.72172 16.24 4.86172 15.97 5.11172 15.97H13.8917C17.5917 15.97 19.7917 13.77 19.7917 10.08V4.92003C19.7917 4.68003 20.0617 4.53003 20.2317 4.71003C20.9117 5.43003 21.3017 6.48003 21.3017 7.92003Z" fill="#101010"/>
</svg>
