<svg width="20" height="20" viewBox="0 0 20 20" fill="none" xmlns="http://www.w3.org/2000/svg">
<path d="M18.99 7.71C18.65 7.57 18.2 7.5 17.64 7.5H12.36C10.62 7.5 10 8.12 10 9.88V17.62C10 18.2 10.07 18.65 10.22 19C10.53 19.72 11.19 20 12.36 20H17.64C19.38 20 20 19.37 20 17.62V9.88C20 8.69 19.72 8.02 18.99 7.71ZM16 17.75H14C13.98 17.75 13.95 17.75 13.93 17.74C13.78 17.73 13.65 17.68 13.54 17.58C13.36 17.45 13.25 17.24 13.25 17C13.25 16.59 13.59 16.25 14 16.25H16C16.41 16.25 16.75 16.59 16.75 17C16.75 17.41 16.41 17.75 16 17.75Z" fill="#101010"/>
<path d="M18.9898 4.19V5C18.9898 5.55 18.5398 6 17.9898 6H12.3598C9.79976 6 8.49977 7.31 8.49977 9.88V19C8.49977 19.55 8.04977 20 7.49977 20H5.54977C5.14977 20 4.82977 19.68 4.82977 19.29C4.82977 18.89 5.14977 18.58 5.54977 18.58H7.49977V14.75H3.99977C1.77977 14.64 0.00976562 12.81 0.00976562 10.56V4.19C0.00976562 1.88 1.88977 0 4.20977 0H14.7998C17.1098 0 18.9898 1.88 18.9898 4.19Z" fill="#101010"/>
</svg>
