<svg width="20" height="20" viewBox="0 0 20 20" fill="none" xmlns="http://www.w3.org/2000/svg">
<path d="M15.56 0H4.41C1.98 0 0 1.98 0 4.41V10.91V11.11C0 13.55 1.98 15.52 4.41 15.52H8.25C8.8 15.52 9.25 15.97 9.25 16.52V17.49C9.25 18.04 8.8 18.49 8.25 18.49H5.83C5.42 18.49 5.08 18.83 5.08 19.24C5.08 19.65 5.41 20 5.83 20H14.18C14.59 20 14.93 19.66 14.93 19.25C14.93 18.84 14.59 18.5 14.18 18.5H11.76C11.21 18.5 10.76 18.05 10.76 17.5V16.53C10.76 15.98 11.21 15.53 11.76 15.53H15.57C18.01 15.53 19.98 13.55 19.98 11.12V10.92V4.42C19.97 1.98 17.99 0 15.56 0Z" fill="#101010"/>
</svg>
