<svg width="20" height="20" viewBox="0 0 20 20" fill="none" xmlns="http://www.w3.org/2000/svg">
<path d="M19.5297 13.93C19.3697 13.66 18.9197 13.24 17.7997 13.44C17.1797 13.55 16.5497 13.6 15.9197 13.57C13.5897 13.47 11.4797 12.4 10.0097 10.75C8.70971 9.29999 7.90971 7.40999 7.89971 5.36999C7.89971 4.22999 8.11971 3.12999 8.56971 2.08999C9.00971 1.07999 8.69971 0.549994 8.47971 0.329994C8.24971 0.0999944 7.70971 -0.220006 6.64971 0.219994C2.55971 1.93999 0.0297082 6.03999 0.329708 10.43C0.629708 14.56 3.52971 18.09 7.36971 19.42C8.28971 19.74 9.25971 19.93 10.2597 19.97C10.4197 19.98 10.5797 19.99 10.7397 19.99C14.0897 19.99 17.2297 18.41 19.2097 15.72C19.8797 14.79 19.6997 14.2 19.5297 13.93Z" fill="#101010"/>
</svg>
