<svg width="20" height="20" viewBox="0 0 20 20" fill="none" xmlns="http://www.w3.org/2000/svg">
<path opacity="0.97" d="M14.19 0H5.81C2.17 0 0 2.17 0 5.81V14.18C0 17.83 2.17 20 5.81 20H14.18C17.82 20 19.99 17.83 19.99 14.19V5.81C20 2.17 17.83 0 14.19 0ZM6.31 14.31C5.59 14.31 5 13.72 5 13C5 12.28 5.59 11.69 6.31 11.69C7.03 11.69 7.62 12.28 7.62 13C7.62 13.72 7.03 14.31 6.31 14.31ZM10 8.31C9.28 8.31 8.69 7.72 8.69 7C8.69 6.28 9.28 5.69 10 5.69C10.72 5.69 11.31 6.28 11.31 7C11.31 7.72 10.72 8.31 10 8.31ZM13.69 14.31C12.97 14.31 12.38 13.72 12.38 13C12.38 12.28 12.97 11.69 13.69 11.69C14.41 11.69 15 12.28 15 13C15 13.72 14.41 14.31 13.69 14.31Z" fill="#101010"/>
</svg>
