<svg width="21" height="22" viewBox="0 0 21 22" fill="none" xmlns="http://www.w3.org/2000/svg">
<path d="M19 5.52V11.4C19 11.74 18.67 11.98 18.35 11.88L14.42 10.66C13.34 10.33 12.18 10.61 11.39 11.4C10.59 12.2 10.3 13.37 10.64 14.45L11.85 18.35C11.95 18.67 11.71 19 11.37 19H5.52C2.07 19 0 16.94 0 13.48V5.52C0 2.06 2.07 0 5.52 0H13.48C16.93 0 19 2.06 19 5.52Z" fill="#101010"/>
<path d="M19.9602 16.84L18.3302 17.39C17.8802 17.54 17.5202 17.89 17.3702 18.35L16.8202 19.98C16.3502 21.39 14.3702 21.36 13.9302 19.95L12.0802 14C11.7202 12.82 12.8102 11.72 13.9802 12.09L19.9402 13.94C21.3402 14.38 21.3602 16.37 19.9602 16.84Z" fill="#101010"/>
</svg>
