<svg width="16" height="20" viewBox="0 0 16 20" fill="none" xmlns="http://www.w3.org/2000/svg">
<path d="M9.29783 0.115612C9.00639 0.0643255 8.75 0.296868 8.75 0.592783V3.45356C8.75 3.65192 8.87095 3.82658 9.03588 3.93677C9.53908 4.27295 9.87 4.84691 9.87 5.5V7.5C9.87 8.53 9.03 9.38 8 9.38C6.96 9.38 6.12 8.53 6.12 7.5V5.5C6.12 4.84672 6.45831 4.27261 6.96394 3.93647C7.12913 3.82666 7.25 3.65192 7.25 3.45356V0.593425C7.25 0.297279 6.99352 0.0646369 6.70188 0.116063C5.15243 0.389277 3.76579 1.13421 2.7 2.2C1.34 3.56 0.5 5.44 0.5 7.5V12.5C0.5 16.63 3.87 20 8 20C12.13 20 15.5 16.63 15.5 12.5V7.5C15.5 3.80951 12.813 0.734215 9.29783 0.115612Z" fill="#101010"/>
</svg>
