<svg width="22" height="21" viewBox="0 0 22 21" fill="none" xmlns="http://www.w3.org/2000/svg">
<path d="M21 1.75H1C0.59 1.75 0.25 1.41 0.25 1C0.25 0.59 0.59 0.25 1 0.25H21C21.41 0.25 21.75 0.59 21.75 1C21.75 1.41 21.41 1.75 21 1.75Z" fill="#101010"/>
<path d="M10 7.75H1C0.59 7.75 0.25 7.41 0.25 7C0.25 6.59 0.59 6.25 1 6.25H10C10.41 6.25 10.75 6.59 10.75 7C10.75 7.41 10.41 7.75 10 7.75Z" fill="#101010"/>
<path d="M7 13.75H1C0.59 13.75 0.25 13.41 0.25 13C0.25 12.59 0.59 12.25 1 12.25H7C7.41 12.25 7.75 12.59 7.75 13C7.75 13.41 7.41 13.75 7 13.75Z" fill="#101010"/>
<path d="M5 19.75H1C0.59 19.75 0.25 19.41 0.25 19C0.25 18.59 0.59 18.25 1 18.25H5C5.41 18.25 5.75 18.59 5.75 19C5.75 19.41 5.41 19.75 5 19.75Z" fill="#101010"/>
<path d="M20.8602 5.67996C20.2702 5.22996 19.4602 5.13996 18.5102 5.39996L14.1602 6.57996C12.9902 6.89996 12.2702 7.84996 12.2702 9.04996V11.6V15.28C11.8502 15.04 11.3602 14.89 10.8402 14.89C9.23016 14.89 7.91016 16.2 7.91016 17.82C7.91016 19.43 9.22016 20.75 10.8402 20.75C12.4602 20.75 13.7702 19.44 13.7702 17.82V12.17L20.2502 10.4V13.83C19.8302 13.59 19.3402 13.44 18.8202 13.44C17.2102 13.44 15.8902 14.75 15.8902 16.37C15.8902 17.98 17.2002 19.3 18.8202 19.3C20.4402 19.3 21.7502 17.99 21.7502 16.37V9.41996V7.86996C21.7502 6.85996 21.4502 6.11996 20.8602 5.67996ZM10.8402 19.25C10.0502 19.25 9.41016 18.61 9.41016 17.82C9.41016 17.03 10.0502 16.39 10.8402 16.39C11.6302 16.39 12.2702 17.03 12.2702 17.82C12.2702 18.61 11.6302 19.25 10.8402 19.25ZM18.8202 17.8C18.0302 17.8 17.3902 17.16 17.3902 16.37C17.3902 15.58 18.0302 14.94 18.8202 14.94C19.6102 14.94 20.2502 15.58 20.2502 16.37C20.2502 17.16 19.6102 17.8 18.8202 17.8Z" fill="#101010"/>
</svg>
