<svg width="20" height="20" viewBox="0 0 20 20" fill="none" xmlns="http://www.w3.org/2000/svg">
<path d="M12.5396 11.67C12.1796 11.67 11.8896 11.96 11.8896 12.32C11.8896 12.68 12.1796 12.97 12.5396 12.97C12.8996 12.97 13.1896 12.68 13.1896 12.32C13.1796 11.96 12.8896 11.67 12.5396 11.67Z" fill="#101010"/>
<path d="M7.06016 12.66C6.70016 12.66 6.41016 12.95 6.41016 13.31C6.41016 13.67 6.70016 13.96 7.06016 13.96C7.42016 13.96 7.71016 13.67 7.71016 13.31C7.71016 12.95 7.42016 12.66 7.06016 12.66Z" fill="#101010"/>
<path d="M14.19 0H5.81C2.17 0 0 2.17 0 5.81V14.18C0 17.83 2.17 20 5.81 20H14.18C17.82 20 19.99 17.83 19.99 14.19V5.81C20 2.17 17.83 0 14.19 0ZM14.88 7.55V12.31C14.88 13.6 13.83 14.65 12.54 14.65C11.25 14.65 10.2 13.6 10.2 12.31C10.2 11.02 11.25 9.97 12.54 9.97C12.77 9.97 12.98 10.01 13.19 10.07V8.65L9.41 9.68V13.3C9.41 13.31 9.4 13.32 9.4 13.33C9.39 14.61 8.34 15.64 7.06 15.64C5.77 15.64 4.72 14.59 4.72 13.3C4.72 12.01 5.77 10.96 7.06 10.96C7.29 10.96 7.5 11 7.71 11.06V9.03V7.29C7.71 6.32 8.31 5.53 9.25 5.28L12.24 4.46C13.2 4.2 13.8 4.45 14.14 4.71C14.47 4.97 14.88 5.48 14.88 6.48V7.55Z" fill="#101010"/>
</svg>
