<svg width="20" height="20" viewBox="0 0 20 20" fill="none" xmlns="http://www.w3.org/2000/svg">
<path d="M5 1.25007V18.7501C5 19.3901 4.39 19.9001 3.77 19.7301C1.37 19.0501 0 17.0901 0 14.1901V5.81007C0 2.91007 1.37 0.950072 3.77 0.270072C4.39 0.100072 5 0.600072 5 1.25007Z" fill="#101010"/>
<path d="M10.47 12.3701C10.09 12.3701 9.79004 12.6801 9.79004 13.0501C9.79004 13.4201 10.1 13.7301 10.47 13.7301C10.85 13.7301 11.16 13.4201 11.16 13.0501C11.16 12.6801 10.85 12.3701 10.47 12.3701Z" fill="#101010"/>
<path d="M15.5201 11.45C15.1401 11.45 14.8301 11.76 14.8301 12.14C14.8301 12.52 15.1401 12.82 15.5201 12.82C15.9001 12.82 16.2101 12.51 16.2101 12.14C16.2101 11.77 15.9001 11.45 15.5201 11.45Z" fill="#101010"/>
<path d="M14.19 0H7.5C6.95 0 6.5 0.45 6.5 1V19C6.5 19.55 6.95 20 7.5 20H14.19C17.4 20 20 17.4 20 14.19V5.81C20 2.6 17.4 0 14.19 0ZM17.6 7.74V12.14C17.6 12.15 17.59 12.16 17.59 12.17C17.57 13.3 16.65 14.21 15.52 14.21C14.38 14.21 13.45 13.28 13.45 12.14C13.45 11 14.38 10.07 15.52 10.07C15.76 10.07 15.99 10.12 16.21 10.2V8.65L12.54 9.65V13.07C12.54 13.08 12.53 13.09 12.53 13.1C12.51 14.23 11.59 15.14 10.46 15.14C9.32 15.14 8.39 14.21 8.39 13.07C8.39 11.93 9.32 11 10.46 11C10.7 11 10.93 11.05 11.15 11.13V9.13V7.5C11.15 6.64 11.68 5.94 12.51 5.73L15.26 4.97C16.12 4.74 16.65 4.97 16.95 5.2C17.38 5.53 17.59 6.05 17.59 6.75V7.74H17.6Z" fill="#101010"/>
</svg>
