<svg width="20" height="22" viewBox="0 0 20 22" fill="none" xmlns="http://www.w3.org/2000/svg">
<path d="M15 3.75H14V2.26C14 1.43 13.32 0.75 12.49 0.75H7.51C6.68 0.75 6 1.43 6 2.26V3.75H5C3.9 3.75 3 4.65 3 5.75V5.88C3.32 5.79 3.65 5.75 4 5.75H16C16.35 5.75 16.68 5.79 17 5.88V5.75C17 4.65 16.1 3.75 15 3.75Z" fill="#101010"/>
<path d="M11.9304 15.9301C11.6104 15.9301 11.3604 16.1901 11.3604 16.5001C11.3604 16.8101 11.6204 17.0701 11.9304 17.0701C12.2404 17.0701 12.5004 16.8101 12.5004 16.5001C12.5004 16.1901 12.2404 15.9301 11.9304 15.9301Z" fill="#101010"/>
<path d="M7.07 16.8101C6.75 16.8101 6.5 17.0701 6.5 17.3801C6.5 17.6901 6.76 17.9501 7.07 17.9501C7.38 17.9501 7.64 17.6901 7.64 17.3801C7.64 17.0701 7.39 16.8101 7.07 16.8101Z" fill="#101010"/>
<path d="M17 7.38C16.68 7.29 16.35 7.25 16 7.25H4C3.65 7.25 3.32 7.29 3 7.38C1.28 7.83 0 9.4 0 11.25V17.25C0 19.45 1.8 21.25 4 21.25H16C18.2 21.25 20 19.45 20 17.25V11.25C20 9.4 18.72 7.83 17 7.38ZM14 12.28V16.5C14 17.64 13.07 18.57 11.93 18.57C10.79 18.57 9.86 17.64 9.86 16.5C9.86 15.36 10.79 14.43 11.93 14.43C12.13 14.43 12.32 14.47 12.5 14.52V13.26L9.15 14.17V17.38C9.15 17.39 9.15 17.4 9.14 17.41C9.13 18.54 8.2 19.46 7.07 19.46C5.93 19.46 5 18.53 5 17.38C5 16.23 5.93 15.31 7.07 15.31C7.27 15.31 7.46 15.35 7.65 15.4V13.6V12.05C7.65 11.19 8.19 10.49 9.01 10.27L11.66 9.54C12.51 9.31 13.05 9.53 13.35 9.76C13.65 9.99 14 10.44 14 11.33V12.28Z" fill="#101010"/>
</svg>
