<svg width="20" height="21" viewBox="0 0 20 21" fill="none" xmlns="http://www.w3.org/2000/svg">
<path d="M16 4.25H4C3.59 4.25 3.25 3.91 3.25 3.5C3.25 3.09 3.59 2.75 4 2.75H16C16.41 2.75 16.75 3.09 16.75 3.5C16.75 3.91 16.41 4.25 16 4.25Z" fill="#101010"/>
<path d="M13 1.75H7C6.59 1.75 6.25 1.41 6.25 1C6.25 0.59 6.59 0.25 7 0.25H13C13.41 0.25 13.75 0.59 13.75 1C13.75 1.41 13.41 1.75 13 1.75Z" fill="#101010"/>
<path d="M11.91 15.21C11.57 15.21 11.29 15.49 11.29 15.83C11.29 16.17 11.57 16.45 11.91 16.45C12.25 16.45 12.53 16.17 12.53 15.83C12.53 15.49 12.25 15.21 11.91 15.21Z" fill="#101010"/>
<path d="M7.50953 16.7399C7.50953 16.3999 7.22953 16.1299 6.88953 16.1299C6.54953 16.1299 6.26953 16.4099 6.26953 16.7499C6.26953 17.0899 6.54953 17.3699 6.88953 17.3699C7.22953 17.3599 7.50953 17.0799 7.50953 16.7399Z" fill="#101010"/>
<path d="M16 6H4C1.8 6 0 7.8 0 10V17C0 19.2 1.8 21 4 21H16C18.2 21 20 19.2 20 17V10C20 7.8 18.2 6 16 6ZM14.03 11.46V15.83C14.03 15.85 14.02 15.86 14.02 15.88C13.99 17.02 13.06 17.95 11.91 17.95C10.74 17.95 9.79 17 9.79 15.83C9.79 14.66 10.74 13.71 11.91 13.71C12.13 13.71 12.33 13.75 12.53 13.81V12.44L9.01 13.4V16.73V16.74C9.01 17.91 8.06 18.86 6.89 18.86C5.72 18.86 4.77 17.91 4.77 16.74C4.77 15.57 5.72 14.62 6.89 14.62C7.11 14.62 7.31 14.66 7.51 14.72V12.82V11.22C7.51 10.33 8.06 9.61 8.91 9.39L11.64 8.64C12.52 8.41 13.06 8.64 13.37 8.88C13.67 9.11 14.03 9.58 14.03 10.47V11.46Z" fill="#101010"/>
</svg>
