<svg width="22" height="22" viewBox="0 0 22 22" fill="none" xmlns="http://www.w3.org/2000/svg">
<path d="M1.57963 8.42001C1.49963 8.42001 1.40963 8.41001 1.32963 8.38001C0.93963 8.24001 0.73963 7.81001 0.86963 7.42001C1.53963 5.54001 2.69963 3.89001 4.24963 2.64001C4.56963 2.38001 5.03963 2.43001 5.29963 2.75001C5.55963 3.07001 5.50963 3.54001 5.18963 3.81001C3.86963 4.88001 2.85963 6.30001 2.28963 7.92001C2.17963 8.23001 1.88963 8.42001 1.57963 8.42001Z" fill="#101010"/>
<path d="M1.58 15.08C1.27 15.08 0.98 14.89 0.87 14.58C0.46 13.42 0.25 12.21 0.25 11C0.25 10.59 0.59 10.25 1 10.25C1.41 10.25 1.75 10.59 1.75 11C1.75 12.04 1.93 13.08 2.29 14.08C2.43 14.47 2.22 14.9 1.83 15.04C1.75 15.07 1.66 15.08 1.58 15.08Z" fill="#101010"/>
<path d="M10.9996 21.75C9.93962 21.75 8.88962 21.59 7.86962 21.28C7.46962 21.16 7.24962 20.74 7.36962 20.34C7.48962 19.94 7.90962 19.72 8.30962 19.84C9.17962 20.11 10.0896 20.24 10.9996 20.24C16.0996 20.24 20.2496 16.09 20.2496 10.99C20.2496 10.47 20.1996 9.93004 20.0996 9.36004C20.0296 8.95004 20.2996 8.56004 20.7096 8.49004C21.1096 8.42004 21.5096 8.69004 21.5796 9.10004C21.6996 9.76004 21.7596 10.38 21.7596 11C21.7496 16.93 16.9296 21.75 10.9996 21.75Z" fill="#101010"/>
<path d="M4.72021 19.5001C4.55021 19.5001 4.39021 19.4501 4.25021 19.3301C3.68021 18.8701 3.22021 18.4301 2.83021 17.9801C2.56021 17.6701 2.60021 17.1901 2.91021 16.9201C3.23021 16.6501 3.70021 16.6901 3.97021 17.0001C4.30021 17.3801 4.70021 17.7601 5.19021 18.1601C5.51021 18.4201 5.56021 18.8901 5.30021 19.2101C5.16021 19.4001 4.94021 19.5001 4.72021 19.5001Z" fill="#101010"/>
<path d="M19.2404 6.09C19.0004 6.09 18.7704 5.98 18.6204 5.76C16.9004 3.25 14.0404 1.75 11.0004 1.75C10.0904 1.75 9.1804 1.88 8.3104 2.15C7.9204 2.27 7.5004 2.05 7.3704 1.65C7.2404 1.25 7.4704 0.83 7.8704 0.71C8.8904 0.41 9.9404 0.25 11.0004 0.25C14.5404 0.25 17.8504 2 19.8604 4.92C20.0904 5.26 20.0104 5.73 19.6704 5.96C19.5404 6.05 19.3904 6.09 19.2404 6.09Z" fill="#101010"/>
<path d="M15.03 5.49997C14.7 5.24997 14.1 4.99997 13.14 5.25997L9.95 6.11997C9.03 6.37997 8.43 7.15997 8.43 8.11997V9.75997V12.34C8.17 12.24 7.89 12.18 7.59 12.18C6.3 12.18 5.25 13.23 5.25 14.52C5.25 15.81 6.3 16.86 7.59 16.86C8.87 16.86 9.9 15.83 9.92 14.56C9.92 14.55 9.93 14.54 9.93 14.52V10.33L14.25 9.14997V11.28C13.99 11.18 13.71 11.12 13.41 11.12C12.12 11.12 11.07 12.17 11.07 13.46C11.07 14.75 12.12 15.8 13.41 15.8C14.7 15.8 15.75 14.75 15.75 13.46V8.16997V7.24997C15.75 6.44997 15.51 5.85997 15.03 5.49997ZM7.59 15.36C7.13 15.36 6.75 14.98 6.75 14.52C6.75 14.06 7.13 13.68 7.59 13.68C8.05 13.68 8.43 14.06 8.43 14.52C8.43 14.98 8.05 15.36 7.59 15.36ZM13.41 14.3C12.95 14.3 12.57 13.92 12.57 13.46C12.57 13 12.95 12.62 13.41 12.62C13.87 12.62 14.25 13 14.25 13.46C14.25 13.92 13.87 14.3 13.41 14.3Z" fill="#101010"/>
</svg>
