<svg width="21" height="21" viewBox="0 0 21 21" fill="none" xmlns="http://www.w3.org/2000/svg">
<path d="M4.97 0H2.03C0.76 0 0 0.76 0 2.03V4.97C0 6.24 0.76 7 2.03 7H4.97C6.24 7 7 6.24 7 4.97V2.03C7 0.76 6.24 0 4.97 0ZM5.47 4.56C5.72 4.81 5.72 5.22 5.47 5.47C5.34 5.59 5.17 5.65 5.01 5.65C4.85 5.65 4.69 5.59 4.56 5.47L3.49 4.41L2.45 5.47C2.32 5.59 2.16 5.65 1.98 5.65C1.82 5.65 1.66 5.59 1.53 5.47C1.28 5.22 1.28 4.81 1.53 4.56L2.6 3.5L1.54 2.45C1.29 2.2 1.29 1.79 1.54 1.54C1.79 1.29 2.2 1.29 2.45 1.54L3.49 2.6L4.55 1.54C4.8 1.29 5.21 1.29 5.46 1.54C5.71 1.79 5.71 2.2 5.46 2.45L4.41 3.5L5.47 4.56Z" fill="#101010"/>
<path d="M20.5004 14.82C20.5004 14.97 20.4504 15.12 20.3204 15.25C18.8704 16.71 16.2904 19.31 14.8104 20.8C14.6804 20.94 14.5104 21 14.3404 21C14.0104 21 13.6904 20.74 13.6904 20.36V16.86C13.6904 15.4 14.9304 14.19 16.4504 14.19C17.4004 14.18 18.7204 14.18 19.8504 14.18C20.2404 14.18 20.5004 14.49 20.5004 14.82Z" fill="#101010"/>
<path d="M20.5004 14.82C20.5004 14.97 20.4504 15.12 20.3204 15.25C18.8704 16.71 16.2904 19.31 14.8104 20.8C14.6804 20.94 14.5104 21 14.3404 21C14.0104 21 13.6904 20.74 13.6904 20.36V16.86C13.6904 15.4 14.9304 14.19 16.4504 14.19C17.4004 14.18 18.7204 14.18 19.8504 14.18C20.2404 14.18 20.5004 14.49 20.5004 14.82Z" fill="#101010"/>
<path d="M15.63 1H9.5C8.95 1 8.5 1.45 8.5 2V5.5C8.5 7.16 7.16 8.5 5.5 8.5H2.5C1.95 8.5 1.5 8.95 1.5 9.5V16.13C1.5 18.82 3.68 21 6.37 21H11.19C11.74 21 12.19 20.55 12.19 20V16.86C12.19 14.56 14.1 12.69 16.45 12.69C16.98 12.68 18.27 12.68 19.5 12.68C20.05 12.68 20.5 12.24 20.5 11.68V5.87C20.5 3.18 18.32 1 15.63 1ZM7.72 16.01H5.08C4.67 16.01 4.33 15.67 4.33 15.26C4.33 14.84 4.67 14.5 5.08 14.5H7.72C8.15 14.5 8.47 14.84 8.47 15.26C8.47 15.67 8.15 16.01 7.72 16.01ZM10.51 12.3H5.08C4.67 12.3 4.33 11.96 4.33 11.55C4.33 11.13 4.67 10.79 5.08 10.79H10.51C10.92 10.79 11.27 11.13 11.27 11.55C11.27 11.96 10.92 12.3 10.51 12.3Z" fill="#101010"/>
</svg>
