<svg width="18" height="21" viewBox="0 0 18 21" fill="none" xmlns="http://www.w3.org/2000/svg">
<path d="M5.75 2.5V1C5.75 0.59 5.41 0.25 5 0.25C4.59 0.25 4.25 0.59 4.25 1V2.56C4.5 2.53 4.73 2.5 5 2.5H5.75Z" fill="#101010"/>
<path d="M13.75 2.56V1C13.75 0.59 13.41 0.25 13 0.25C12.59 0.25 12.25 0.59 12.25 1V2.5H13C13.27 2.5 13.5 2.53 13.75 2.56Z" fill="#101010"/>
<path d="M13.75 2.56V4C13.75 4.41 13.41 4.75 13 4.75C12.59 4.75 12.25 4.41 12.25 4V2.5H5.75V4C5.75 4.41 5.41 4.75 5 4.75C4.59 4.75 4.25 4.41 4.25 4V2.56C1.3 2.83 0 4.73 0 7.5V16C0 19 1.5 21 5 21H13C16.5 21 18 19 18 16V7.5C18 4.73 16.7 2.83 13.75 2.56ZM9 15.75H5C4.59 15.75 4.25 15.41 4.25 15C4.25 14.59 4.59 14.25 5 14.25H9C9.41 14.25 9.75 14.59 9.75 15C9.75 15.41 9.41 15.75 9 15.75ZM13 10.75H5C4.59 10.75 4.25 10.41 4.25 10C4.25 9.59 4.59 9.25 5 9.25H13C13.41 9.25 13.75 9.59 13.75 10C13.75 10.41 13.41 10.75 13 10.75Z" fill="#101010"/>
</svg>
