<svg width="21" height="20" viewBox="0 0 21 20" fill="none" xmlns="http://www.w3.org/2000/svg">
<path d="M11.678 17.957C11.9528 18.0209 11.9779 18.3808 11.7103 18.47L10.1303 18.99C6.16034 20.27 4.07034 19.2 2.78034 15.23L1.50034 11.28C0.220341 7.30996 1.28034 5.20996 5.25034 3.92996L5.77434 3.75643C6.1772 3.62302 6.56927 4.02708 6.45487 4.43575C6.39817 4.63832 6.34362 4.84973 6.29034 5.06996L5.31034 9.25996C4.21034 13.97 5.82034 16.57 10.5303 17.69L11.678 17.957Z" fill="#101010"/>
<path d="M16.1702 1.21001L14.5002 0.820008C11.1602 0.0300081 9.17018 0.680008 8.00018 3.10001C7.70018 3.71001 7.46018 4.45001 7.26018 5.30001L6.28018 9.49001C5.30018 13.67 6.59018 15.73 10.7602 16.72L12.4402 17.12C13.0202 17.26 13.5602 17.35 14.0602 17.39C17.1802 17.69 18.8402 16.23 19.6802 12.62L20.6602 8.44001C21.6402 4.26001 20.3602 2.19001 16.1702 1.21001ZM14.2902 11.33C14.2002 11.67 13.9002 11.89 13.5602 11.89C13.5002 11.89 13.4402 11.88 13.3702 11.87L10.4602 11.13C10.0602 11.03 9.82018 10.62 9.92018 10.22C10.0202 9.82001 10.4302 9.58001 10.8302 9.68001L13.7402 10.42C14.1502 10.52 14.3902 10.93 14.2902 11.33ZM17.2202 7.95001C17.1302 8.29001 16.8302 8.51001 16.4902 8.51001C16.4302 8.51001 16.3702 8.50001 16.3002 8.49001L11.4502 7.26001C11.0502 7.16001 10.8102 6.75001 10.9102 6.35001C11.0102 5.95001 11.4202 5.71001 11.8202 5.81001L16.6702 7.04001C17.0802 7.13001 17.3202 7.54001 17.2202 7.95001Z" fill="#101010"/>
</svg>
