<svg width="20" height="20" viewBox="0 0 20 20" fill="none" xmlns="http://www.w3.org/2000/svg">
<path d="M6.29004 4.29C5.87004 4.29 5.54004 3.95 5.54004 3.54V0.75C5.54004 0.34 5.87004 0 6.29004 0C6.71004 0 7.04004 0.34 7.04004 0.75V3.53C7.04004 3.95 6.71004 4.29 6.29004 4.29Z" fill="#101010"/>
<path d="M13.71 4.29C13.29 4.29 12.96 3.95 12.96 3.54V0.75C12.96 0.33 13.3 0 13.71 0C14.13 0 14.46 0.34 14.46 0.75V3.53C14.46 3.95 14.13 4.29 13.71 4.29Z" fill="#101010"/>
<path d="M17.57 2.5C16.91 2.01 15.96 2.48 15.96 3.31V3.41C15.96 4.58 15.12 5.66 13.95 5.78C12.6 5.92 11.46 4.86 11.46 3.54V2.5C11.46 1.95 11.01 1.5 10.46 1.5H9.54C8.99 1.5 8.54 1.95 8.54 2.5V3.54C8.54 4.33 8.13 5.03 7.51 5.42C7.42 5.48 7.32 5.53 7.22 5.58C7.13 5.63 7.03 5.67 6.92 5.7C6.8 5.74 6.67 5.77 6.53 5.78C6.37 5.8 6.21 5.8 6.05 5.78C5.91 5.77 5.78 5.74 5.66 5.7C5.56 5.67 5.46 5.63 5.36 5.58C5.26 5.53 5.16 5.48 5.07 5.42C4.44 4.98 4.04 4.22 4.04 3.41V3.31C4.04 2.54 3.22 2.08 2.57 2.41C2.56 2.42 2.55 2.42 2.54 2.43C2.5 2.45 2.47 2.47 2.43 2.5C2.4 2.53 2.36 2.55 2.33 2.58C2.05 2.8 1.8 3.05 1.59 3.32C1.48 3.44 1.39 3.57 1.31 3.7C1.3 3.71 1.29 3.72 1.28 3.74C1.19 3.87 1.11 4.02 1.04 4.16C1.02 4.18 1.01 4.19 1.01 4.21C0.95 4.33 0.89 4.45 0.85 4.58C0.82 4.63 0.81 4.67 0.79 4.72C0.73 4.87 0.69 5.02 0.65 5.17C0.61 5.31 0.58 5.46 0.56 5.61C0.54 5.72 0.53 5.83 0.52 5.95C0.51 6.09 0.5 6.23 0.5 6.37V15.13C0.5 17.82 2.68 20 5.37 20H14.63C17.32 20 19.5 17.82 19.5 15.13V6.37C19.5 4.78 18.74 3.39 17.57 2.5ZM10 15.42H5.36C4.95 15.42 4.61 15.08 4.61 14.67C4.61 14.25 4.95 13.91 5.36 13.91H10C10.42 13.91 10.75 14.25 10.75 14.67C10.75 15.08 10.42 15.42 10 15.42ZM12.78 11.71H5.36C4.95 11.71 4.61 11.37 4.61 10.96C4.61 10.54 4.95 10.2 5.36 10.2H12.78C13.2 10.2 13.54 10.54 13.54 10.96C13.54 11.37 13.2 11.71 12.78 11.71Z" fill="#101010"/>
</svg>
