<svg width="16" height="20" viewBox="0 0 16 20" fill="none" xmlns="http://www.w3.org/2000/svg">
<path d="M15.3399 12.49L14.3399 10.83C14.1299 10.46 13.9399 9.76 13.9399 9.35V6.82C13.9399 4.47 12.5599 2.44 10.5699 1.49C10.0499 0.57 9.08994 0 7.98994 0C6.89994 0 5.91994 0.59 5.39994 1.52C3.44994 2.49 2.09994 4.5 2.09994 6.82V9.35C2.09994 9.76 1.90994 10.46 1.69994 10.82L0.689943 12.49C0.289943 13.16 0.199943 13.9 0.449943 14.58C0.689943 15.25 1.25994 15.77 1.99994 16.02C3.93994 16.68 5.97994 17 8.01994 17C10.0599 17 12.0999 16.68 14.0399 16.03C14.7399 15.8 15.2799 15.27 15.5399 14.58C15.7999 13.89 15.7299 13.13 15.3399 12.49Z" fill="#101010"/>
<path d="M10.8297 18.01C10.4097 19.17 9.29969 20 7.99969 20C7.20969 20 6.42969 19.68 5.87969 19.11C5.55969 18.81 5.31969 18.41 5.17969 18C5.30969 18.02 5.43969 18.03 5.57969 18.05C5.80969 18.08 6.04969 18.11 6.28969 18.13C6.85969 18.18 7.43969 18.21 8.01969 18.21C8.58969 18.21 9.15969 18.18 9.71969 18.13C9.92969 18.11 10.1397 18.1 10.3397 18.07C10.4997 18.05 10.6597 18.03 10.8297 18.01Z" fill="#101010"/>
</svg>
