<svg width="18" height="20" viewBox="0 0 18 20" fill="none" xmlns="http://www.w3.org/2000/svg">
<path d="M17.1902 12.06L16.0602 10.18C15.8102 9.77005 15.5902 8.98005 15.5902 8.50005V6.63005C15.5902 3.00005 12.6402 0.0500488 9.0202 0.0500488C5.3902 0.0600488 2.4402 3.00005 2.4402 6.63005V8.49005C2.4402 8.97005 2.2202 9.76005 1.9802 10.17L0.850203 12.05C0.420203 12.78 0.320203 13.61 0.590203 14.33C0.860203 15.06 1.4702 15.64 2.2702 15.9C3.3502 16.26 4.4402 16.52 5.5502 16.71C5.6602 16.73 5.7702 16.74 5.8802 16.76C6.0202 16.7801 6.1702 16.8 6.3202 16.82C6.5802 16.8601 6.8402 16.89 7.1102 16.91C7.7402 16.97 8.3802 17 9.0202 17C9.6502 17 10.2802 16.97 10.9002 16.91C11.1302 16.89 11.3602 16.8701 11.5802 16.84C11.7602 16.82 11.9402 16.8001 12.1202 16.7701C12.2302 16.76 12.3402 16.74 12.4502 16.72C13.5702 16.54 14.6802 16.26 15.7602 15.9C16.5302 15.64 17.1202 15.06 17.4002 14.32C17.6802 13.57 17.6002 12.75 17.1902 12.06ZM9.7502 8.00005C9.7502 8.42005 9.4102 8.76005 8.9902 8.76005C8.5702 8.76005 8.2302 8.42005 8.2302 8.00005V4.90005C8.2302 4.48005 8.5702 4.14005 8.9902 4.14005C9.4102 4.14005 9.7502 4.48005 9.7502 4.90005V8.00005Z" fill="#101010"/>
<path d="M11.8307 18.01C11.4107 19.17 10.3007 20 9.00066 20C8.21066 20 7.43066 19.68 6.88066 19.11C6.56066 18.81 6.32066 18.41 6.18066 18C6.31066 18.02 6.44066 18.03 6.58066 18.05C6.81066 18.08 7.05066 18.11 7.29066 18.13C7.86066 18.18 8.44066 18.21 9.02066 18.21C9.59066 18.21 10.1607 18.18 10.7207 18.13C10.9307 18.11 11.1407 18.1 11.3407 18.07C11.5007 18.05 11.6607 18.03 11.8307 18.01Z" fill="#101010"/>
</svg>
