<svg width="20" height="20" viewBox="0 0 20 20" fill="none" xmlns="http://www.w3.org/2000/svg">
<path d="M17 6C18.6569 6 20 4.65685 20 3C20 1.34315 18.6569 0 17 0C15.3431 0 14 1.34315 14 3C14 4.65685 15.3431 6 17 6Z" fill="#101010"/>
<path d="M17.8 7.42C17.78 7.42 17.76 7.43 17.74 7.43C17.64 7.45 17.54 7.46 17.43 7.48C17.01 7.52 16.56 7.5 16.1 7.41C15.98 7.38 15.88 7.36 15.77 7.32C15.44 7.24 15.13 7.11 14.84 6.94C14.72 6.88 14.6 6.8 14.49 6.73C14.01 6.4 13.6 5.99 13.27 5.51C13.2 5.4 13.12 5.28 13.06 5.16C12.89 4.87 12.76 4.56 12.68 4.23C12.64 4.12 12.62 4.02 12.59 3.9C12.5 3.44 12.48 2.99 12.52 2.57C12.54 2.46 12.55 2.36 12.57 2.26C12.57 2.24 12.58 2.22 12.58 2.2C12.7 1.58 12.24 1 11.6 1H5.52C5.38 1 5.24 1.01 5.11 1.02C4.99 1.03 4.88 1.04 4.76 1.06C4.64 1.07 4.52 1.09 4.41 1.11C2 1.46 0.46 2.99 0.11 5.41C0.0899999 5.52 0.0699999 5.64 0.0599999 5.76C0.0399999 5.88 0.03 5.99 0.02 6.11C0.00999998 6.24 0 6.38 0 6.52V14.48C0 14.62 0.00999998 14.76 0.02 14.89C0.03 15.01 0.0399999 15.12 0.0599999 15.24C0.0699999 15.36 0.0899999 15.48 0.11 15.59C0.46 18.01 2 19.54 4.41 19.89C4.52 19.91 4.64 19.93 4.76 19.94C4.88 19.96 4.99 19.97 5.11 19.98C5.24 19.99 5.38 20 5.52 20H13.48C13.62 20 13.76 19.99 13.89 19.98C14.01 19.97 14.12 19.96 14.24 19.94C14.36 19.93 14.48 19.91 14.59 19.89C17 19.54 18.54 18.01 18.89 15.59C18.91 15.48 18.93 15.36 18.94 15.24C18.96 15.12 18.97 15.01 18.98 14.89C18.99 14.76 19 14.62 19 14.48V8.4C19 7.76 18.42 7.3 17.8 7.42ZM4.75 10.5H9.75C10.16 10.5 10.5 10.84 10.5 11.25C10.5 11.66 10.16 12 9.75 12H4.75C4.34 12 4 11.66 4 11.25C4 10.84 4.34 10.5 4.75 10.5ZM13.75 16H4.75C4.34 16 4 15.66 4 15.25C4 14.84 4.34 14.5 4.75 14.5H13.75C14.16 14.5 14.5 14.84 14.5 15.25C14.5 15.66 14.16 16 13.75 16Z" fill="#101010"/>
</svg>
