<svg width="20" height="20" viewBox="0 0 20 20" fill="none" xmlns="http://www.w3.org/2000/svg">
<path d="M14.19 0H5.81C2.17 0 0 2.17 0 5.81V14.18C0 17.83 2.17 20 5.81 20H14.18C17.82 20 19.99 17.83 19.99 14.19V5.81C20 2.17 17.83 0 14.19 0ZM15 15.5H11.9C11.6 15.5 11.33 15.33 11.21 15.05C11.09 14.77 11.14 14.46 11.34 14.24L12.96 12.45C13.63 11.7 14.01 10.75 14.01 9.77C14.01 8.77 13.6 7.83 12.85 7.12C12.1 6.41 11.06 6 10 6C8.94 6 7.9 6.41 7.15 7.12C6.4 7.83 5.99 8.77 5.99 9.77C5.99 10.75 6.36 11.7 7.04 12.45L8.66 14.24C8.86 14.46 8.91 14.78 8.79 15.05C8.67 15.32 8.4 15.5 8.1 15.5H5C4.59 15.5 4.25 15.16 4.25 14.75C4.25 14.34 4.59 14 5 14H6.41L5.92 13.46C5 12.44 4.49 11.13 4.49 9.77C4.49 8.38 5.08 7.01 6.12 6.03C7.16 5.04 8.53 4.5 10 4.5C11.47 4.5 12.84 5.04 13.88 6.03C14.91 7.01 15.51 8.38 15.51 9.77C15.51 11.12 15 12.43 14.08 13.46L13.59 14H15C15.41 14 15.75 14.34 15.75 14.75C15.75 15.16 15.41 15.5 15 15.5Z" fill="#101010"/>
</svg>
