<svg width="20" height="20" viewBox="0 0 20 20" fill="none" xmlns="http://www.w3.org/2000/svg">
<path d="M14.192 0H5.81195C2.17195 0 0.00195312 2.17 0.00195312 5.81V14.18C0.00195312 17.83 2.17195 20 5.81195 20H14.182C17.822 20 19.992 17.83 19.992 14.19V5.81C20.002 2.17 17.832 0 14.192 0ZM14.752 11.71C14.752 13.23 13.522 14.46 12.002 14.46C10.482 14.46 9.25195 13.23 9.25195 11.71V9.71C9.25195 9.3 9.59195 8.96 10.002 8.96C10.412 8.96 10.752 9.3 10.752 9.71V11.71C10.752 12.4 11.312 12.96 12.002 12.96C12.692 12.96 13.252 12.4 13.252 11.71V8.57C13.252 6.78 11.792 5.32 10.002 5.32C8.21195 5.32 6.75195 6.78 6.75195 8.57V12C6.75195 13.48 7.95195 14.68 9.43195 14.68C9.84195 14.68 10.182 15.02 10.182 15.43C10.182 15.84 9.84195 16.18 9.43195 16.18C7.13195 16.18 5.25195 14.3 5.25195 12V8.57C5.25195 5.95 7.38195 3.82 10.002 3.82C12.622 3.82 14.752 5.95 14.752 8.57V11.71Z" fill="#101010"/>
</svg>
