<svg width="20" height="20" viewBox="0 0 20 20" fill="none" xmlns="http://www.w3.org/2000/svg">
<path d="M14.192 0H5.81195C2.17195 0 0.00195312 2.17 0.00195312 5.81V14.18C0.00195312 17.83 2.17195 20 5.81195 20H14.182C17.822 20 19.992 17.83 19.992 14.19V5.81C20.002 2.17 17.832 0 14.192 0ZM14.372 12.63L12.152 14.85C11.612 15.39 10.912 15.65 10.212 15.65C9.51195 15.65 8.80195 15.38 8.27195 14.85C7.20195 13.78 7.20195 12.03 8.27195 10.96L9.68195 9.55C9.97195 9.26 10.452 9.26 10.742 9.55C11.032 9.84 11.032 10.32 10.742 10.61L9.33195 12.02C8.84195 12.51 8.84195 13.3 9.33195 13.79C9.82195 14.28 10.612 14.28 11.102 13.79L13.322 11.57C13.932 10.96 14.272 10.14 14.272 9.27C14.272 8.4 13.932 7.59 13.322 6.97C12.092 5.74 9.95195 5.74 8.72195 6.97L6.29195 9.4C5.25195 10.44 5.25195 12.14 6.29195 13.19C6.58195 13.48 6.58195 13.96 6.29195 14.25C6.00195 14.54 5.52195 14.54 5.23195 14.25C3.60195 12.62 3.60195 9.97 5.23195 8.34L7.65195 5.92C8.55195 5.02 9.74195 4.53 11.012 4.53C12.282 4.53 13.472 5.02 14.372 5.92C15.272 6.82 15.762 8.01 15.762 9.28C15.762 10.55 15.272 11.74 14.372 12.63Z" fill="#101010"/>
</svg>
