<svg width="20" height="20" viewBox="0 0 20 20" fill="none" xmlns="http://www.w3.org/2000/svg">
<path d="M16 2H13.75V0.75C13.75 0.34 13.41 0 13 0C12.59 0 12.25 0.34 12.25 0.75V19.25C12.25 19.66 12.59 20 13 20C13.41 20 13.75 19.66 13.75 19.25V18H16C18.21 18 20 16.21 20 14V6C20 3.79 18.21 2 16 2Z" fill="#101010"/>
<path d="M4.5 2C2.29 2 0.5 3.79 0.5 6V14C0.5 16.21 2.29 18 4.5 18H9.5C10.05 18 10.5 17.55 10.5 17V3C10.5 2.45 10.05 2 9.5 2H4.5ZM4.67 10.38C4.62 10.5 4.55 10.61 4.46 10.71C4.36 10.8 4.25 10.87 4.13 10.92C4.01 10.97 3.88 11 3.75 11C3.62 11 3.49 10.97 3.37 10.92C3.25 10.87 3.14 10.8 3.04 10.71C2.95 10.61 2.88 10.5 2.82 10.38C2.77 10.26 2.75 10.13 2.75 10C2.75 9.74 2.86 9.48 3.04 9.29C3.09 9.25 3.14 9.21 3.19 9.17C3.25 9.13 3.31 9.1 3.37 9.08C3.43 9.05 3.49 9.03 3.55 9.02C3.89 8.95 4.23 9.06 4.46 9.29C4.64 9.48 4.75 9.74 4.75 10C4.75 10.13 4.72 10.26 4.67 10.38ZM8.17 10.38C8.12 10.5 8.05 10.61 7.96 10.71C7.86 10.8 7.75 10.87 7.63 10.92C7.51 10.97 7.38 11 7.25 11C7.12 11 6.99 10.97 6.87 10.92C6.75 10.87 6.64 10.8 6.54 10.71C6.35 10.52 6.25 10.27 6.25 10C6.25 9.87 6.28 9.74 6.33 9.62C6.38 9.49 6.45 9.39 6.54 9.29C6.91 8.92 7.58 8.92 7.96 9.29C8.14 9.48 8.25 9.74 8.25 10C8.25 10.13 8.22 10.26 8.17 10.38Z" fill="#101010"/>
</svg>
