<svg width="18" height="18" viewBox="0 0 18 18" fill="none" xmlns="http://www.w3.org/2000/svg">
<path d="M17.0199 7.7L14.8999 9.04C14.4999 9.29 13.9899 9.23 13.6599 8.9L9.12988 4.37C8.79988 4.04 8.73988 3.53 8.98988 3.13L10.3299 1.01C11.1499 -0.280002 12.7899 -0.340002 13.9999 0.859998L17.1799 4.04C18.2999 5.17 18.2299 6.93 17.0199 7.7Z" fill="#101010"/>
<path d="M11.7101 16.95L2.99014 17.97C2.91246 17.9804 2.83579 17.9877 2.76019 17.9921C2.07506 18.0325 1.90519 17.2249 2.39049 16.7396L4.98014 14.15C5.30014 13.84 5.30014 13.35 4.98014 13.04C4.68014 12.73 4.19014 12.73 3.87014 13.04L1.28049 15.6297C0.79519 16.115 -0.00493712 15.9444 0.0314742 15.259C0.0352953 15.1871 0.0414987 15.1141 0.0501408 15.04L1.08014 6.32C1.34014 4.14 2.14014 3.42 4.44014 3.56L5.94014 3.65C6.43014 3.68 6.89014 3.89 7.24014 4.24L13.7901 10.79C14.1401 11.14 14.3501 11.6 14.3701 12.09L14.4601 13.59C14.6901 15.9 13.9001 16.7 11.7101 16.95Z" fill="#101010"/>
</svg>
