<svg width="21" height="20" viewBox="0 0 21 20" fill="none" xmlns="http://www.w3.org/2000/svg">
<path d="M10.9697 0C5.44973 0 0.969727 4.48 0.969727 10C0.969727 15.52 5.44973 20 10.9697 20C16.4897 20 20.9697 15.52 20.9697 10C20.9697 4.48 16.4997 0 10.9697 0ZM9.71973 13.03C9.71973 13.51 9.51973 13.7 9.00973 13.7H7.70973C7.19973 13.7 6.99973 13.51 6.99973 13.03V6.97C6.99973 6.49 7.19973 6.3 7.70973 6.3H8.99973C9.50973 6.3 9.70973 6.49 9.70973 6.97V13.03H9.71973ZM14.9997 13.03C14.9997 13.51 14.7997 13.7 14.2897 13.7H12.9997C12.4897 13.7 12.2897 13.51 12.2897 13.03V6.97C12.2897 6.49 12.4897 6.3 12.9997 6.3H14.2897C14.7997 6.3 14.9997 6.49 14.9997 6.97V13.03Z" fill="#101010"/>
</svg>
