<svg width="22" height="21" viewBox="0 0 22 21" fill="none" xmlns="http://www.w3.org/2000/svg">
<path d="M19.5501 8.44H18.4501C18.3001 8.44 18.1501 8.47 18.0101 8.51L13.0201 3.52C13.5001 2.9 13.4601 2.01 12.8901 1.45L12.1101 0.670001C11.5201 0.0800009 10.4801 0.0800009 9.88012 0.670001L9.10012 1.45C8.54012 2.01 8.50012 2.9 8.98012 3.52L3.99012 8.51C3.85012 8.47 3.70012 8.44 3.55012 8.44H2.45012C1.58012 8.44 0.870117 9.15 0.870117 10.02V11.12C0.870117 11.99 1.58012 12.7 2.45012 12.7H3.55012C4.42012 12.7 5.13012 11.99 5.13012 11.12V10.02C5.13012 9.87 5.10012 9.72 5.06012 9.58L10.0501 4.59C10.3201 4.8 10.6601 4.91 11.0001 4.91C11.3401 4.91 11.6801 4.79 11.9601 4.58L16.9501 9.57C16.9101 9.71 16.8801 9.86 16.8801 10.01V11.11C16.8801 11.98 17.5901 12.69 18.4601 12.69H19.5601C20.4301 12.69 21.1401 11.98 21.1401 11.11V10.01C21.1201 9.14 20.4201 8.44 19.5501 8.44Z" fill="#101010"/>
<path d="M14.75 15.55L13.11 17H8.85005L7.21005 15.55C6.26005 14.77 6.26005 14.17 6.98005 13.25L9.87005 9.59C10.07 9.34 10.3001 9.17 10.5601 9.08C10.83 8.99 11.12 8.99 11.4 9.08C11.65 9.17 11.88 9.34 12.09 9.59L14.98 13.25C15.7 14.16 15.67 14.73 14.75 15.55Z" fill="#101010"/>
<path d="M12.2899 21H9.69989C8.77989 21 8.08989 20.25 8.26989 19.45L8.57989 18.06C8.63989 17.78 8.88989 17.59 9.16989 17.59H12.8199C13.0999 17.59 13.3399 17.78 13.4099 18.06L13.7199 19.45C13.9199 20.3 13.2699 21 12.2899 21Z" fill="#101010"/>
</svg>
