<svg width="21" height="20" viewBox="0 0 21 20" fill="none" xmlns="http://www.w3.org/2000/svg">
<path d="M10.0156 0C4.49563 0 0.015625 4.48 0.015625 10C0.015625 15.52 4.49563 20 10.0156 20C15.5356 20 20.0156 15.52 20.0156 10C20.0156 4.48 15.5356 0 10.0156 0ZM6.74562 5.66C7.55562 5.66 8.22563 6.32 8.22563 7.14C8.22563 7.95 7.56562 8.62 6.74562 8.62C5.93562 8.62 5.26562 7.96 5.26562 7.14C5.26562 6.32 5.92562 5.66 6.74562 5.66ZM6.86563 13.8C6.71563 13.95 6.52562 14.02 6.33562 14.02C6.14562 14.02 5.95563 13.95 5.80562 13.8C5.51562 13.51 5.51562 13.03 5.80562 12.74L12.3556 6.19C12.6456 5.9 13.1256 5.9 13.4156 6.19C13.7056 6.48 13.7056 6.96 13.4156 7.25L6.86563 13.8ZM13.2856 14.34C12.4756 14.34 11.8056 13.68 11.8056 12.86C11.8056 12.05 12.4656 11.38 13.2856 11.38C14.0956 11.38 14.7656 12.04 14.7656 12.86C14.7656 13.68 14.1056 14.34 13.2856 14.34Z" fill="#101010"/>
</svg>
