<svg width="22" height="22" viewBox="0 0 22 22" fill="none" xmlns="http://www.w3.org/2000/svg">
<path d="M21 1.75H1C0.59 1.75 0.25 1.41 0.25 1C0.25 0.59 0.59 0.25 1 0.25H21C21.41 0.25 21.75 0.59 21.75 1C21.75 1.41 21.41 1.75 21 1.75Z" fill="#101010"/>
<path d="M15.6703 21.34C15.5403 21.6 15.2703 21.75 15.0003 21.75C14.8903 21.75 14.7703 21.72 14.6703 21.67L11.0003 19.84L7.33026 21.67C7.23026 21.72 7.11026 21.75 7.00026 21.75C6.73026 21.75 6.46026 21.6 6.33026 21.34C6.14026 20.96 6.29026 20.51 6.67026 20.33L10.2503 18.54V16H11.7503V18.54L15.3303 20.33C15.7103 20.51 15.8603 20.96 15.6703 21.34Z" fill="#101010"/>
<path d="M2 1V13.1C2 15 3 16 4.9 16H17.1C19 16 20 15 20 13.1V1H2ZM15.98 7.58L12.83 10.21C12.54 10.45 12.17 10.55 11.82 10.49C11.46 10.43 11.15 10.21 10.96 9.89L9.91 8.14L6.98 10.58C6.84 10.7 6.67 10.75 6.5 10.75C6.29 10.75 6.07 10.66 5.92 10.48C5.65 10.16 5.7 9.69 6.02 9.42L9.17 6.79C9.46 6.55 9.83 6.45 10.18 6.51C10.54 6.57 10.85 6.79 11.04 7.11L12.09 8.86L15.02 6.42C15.34 6.15 15.81 6.2 16.08 6.52C16.34 6.84 16.3 7.31 15.98 7.58Z" fill="#101010"/>
</svg>
