<svg width="18" height="20" viewBox="0 0 18 20" fill="none" xmlns="http://www.w3.org/2000/svg">
<path d="M4 3C4 1.34 5.34 0 7 0H11C12.66 0 14 1.34 14 3C14 3.55 13.55 4 13 4H5C4.45 4 4 3.55 4 3Z" fill="#101010"/>
<path d="M14.75 13C14.75 13.41 14.41 13.75 14 13.75H13V17C13 18.66 11.66 20 10 20H8C6.34 20 5 18.66 5 17V13.75H4C3.59 13.75 3.25 13.41 3.25 13C3.25 12.59 3.59 12.25 4 12.25H14C14.41 12.25 14.75 12.59 14.75 13Z" fill="#101010"/>
<path d="M15 5H3C1 5 0 6 0 8V13C0 15 1 16 3 16H3.375C3.72018 16 4 15.7202 4 15.375C4 15.0298 3.71131 14.7604 3.38841 14.6384C2.72619 14.3882 2.25 13.7453 2.25 13C2.25 12.04 3.04 11.25 4 11.25H14C14.96 11.25 15.75 12.04 15.75 13C15.75 13.7453 15.2738 14.3882 14.6116 14.6384C14.2887 14.7604 14 15.0298 14 15.375C14 15.7202 14.2798 16 14.625 16H15C17 16 18 15 18 13V8C18 6 17 5 15 5ZM7 9.75H4C3.59 9.75 3.25 9.41 3.25 9C3.25 8.59 3.59 8.25 4 8.25H7C7.41 8.25 7.75 8.59 7.75 9C7.75 9.41 7.41 9.75 7 9.75Z" fill="#101010"/>
</svg>
