<svg width="20" height="21" viewBox="0 0 20 21" fill="none" xmlns="http://www.w3.org/2000/svg">
<path d="M3.75 15.11V6.89C5.04 6.56 6 5.4 6 4C6 2.34 4.66 1 3 1C1.34 1 0 2.34 0 4C0 5.4 0.96 6.56 2.25 6.89V15.1C0.96 15.44 0 16.6 0 18C0 19.66 1.34 21 3 21C4.66 21 6 19.66 6 18C6 16.6 5.04 15.44 3.75 15.11Z" fill="#101010"/>
<path d="M17.75 15.11V5.5C17.75 3.98 16.52 2.75 15 2.75H12.07L13.48 1.58C13.8 1.31 13.84 0.84 13.58 0.52C13.31 0.2 12.84 0.16 12.52 0.42L9.52 2.92C9.35 3.06 9.25 3.27 9.25 3.5C9.25 3.73 9.35 3.93 9.52 4.08L12.52 6.58C12.66 6.7 12.83 6.75 13 6.75C13.21 6.75 13.43 6.66 13.58 6.48C13.85 6.16 13.8 5.69 13.48 5.42L12.07 4.25H15C15.69 4.25 16.25 4.81 16.25 5.5V15.11C14.96 15.44 14 16.6 14 18C14 19.66 15.34 21 17 21C18.66 21 20 19.66 20 18C20 16.6 19.04 15.44 17.75 15.11Z" fill="#101010"/>
</svg>
