<svg width="20" height="18" viewBox="0 0 20 18" fill="none" xmlns="http://www.w3.org/2000/svg">
<path d="M6.09195 8.62997H1.40195C1.48195 3.95997 2.40195 3.18997 5.27195 1.48997C5.60195 1.28997 5.71195 0.869971 5.51195 0.529971C5.32195 0.199971 4.89195 0.0899712 4.56195 0.289971C1.18195 2.28997 0.00195312 3.50997 0.00195312 9.31997V14.71C0.00195312 16.42 1.39195 17.8 3.09195 17.8H6.09195C7.85195 17.8 9.18195 16.47 9.18195 14.71V11.71C9.18195 9.95997 7.85195 8.62997 6.09195 8.62997Z" fill="#101010"/>
<path d="M16.9115 8.62997H12.2215C12.3015 3.95997 13.2215 3.18997 16.0915 1.48997C16.4215 1.28997 16.5315 0.869971 16.3315 0.529971C16.1315 0.199971 15.7115 0.0899712 15.3715 0.289971C11.9915 2.28997 10.8115 3.50997 10.8115 9.32997V14.72C10.8115 16.43 12.2015 17.81 13.9015 17.81H16.9015C18.6615 17.81 19.9915 16.48 19.9915 14.72V11.72C20.0015 9.95997 18.6715 8.62997 16.9115 8.62997Z" fill="#101010"/>
</svg>
