<svg width="21" height="20" viewBox="0 0 21 20" fill="none" xmlns="http://www.w3.org/2000/svg">
<path d="M10.002 0C4.48195 0 0.00195312 4.48 0.00195312 10C0.00195312 15.52 4.48195 20 10.002 20C15.522 20 20.002 15.52 20.002 10C20.002 4.48 15.522 0 10.002 0ZM9.61195 12.84C9.61195 13.93 8.76195 14.78 7.67195 14.78H6.19195C5.12195 14.78 4.25195 13.91 4.25195 12.84V10.17C4.25195 7.09 4.92195 6.4 6.71195 5.34C6.83195 5.27 6.96195 5.24 7.09195 5.24C7.35195 5.24 7.60195 5.37 7.74195 5.61C7.95195 5.97 7.83195 6.43 7.48195 6.64C6.27195 7.34 5.85195 7.6 5.77195 9.41H7.68195C8.77195 9.41 9.62195 10.26 9.62195 11.35V12.84H9.61195ZM15.752 12.84C15.752 13.93 14.902 14.78 13.812 14.78H12.322C11.252 14.78 10.382 13.91 10.382 12.84V10.17C10.382 7.09 11.052 6.4 12.842 5.34C12.962 5.27 13.092 5.24 13.222 5.24C13.482 5.24 13.732 5.37 13.872 5.61C14.082 5.97 13.962 6.43 13.612 6.64C12.402 7.36 11.982 7.62 11.902 9.43H13.812C14.902 9.43 15.752 10.28 15.752 11.37V12.84Z" fill="#101010"/>
</svg>
