<svg width="21" height="20" viewBox="0 0 21 20" fill="none" xmlns="http://www.w3.org/2000/svg">
<path d="M10.002 0C4.48195 0 0.00195312 4.48 0.00195312 10C0.00195312 15.52 4.48195 20 10.002 20C15.522 20 20.002 15.52 20.002 10C20.002 4.48 15.522 0 10.002 0ZM9.61195 9.84C9.61195 12.92 8.94195 13.61 7.15195 14.67C7.03195 14.74 6.90195 14.77 6.77195 14.77C6.51195 14.77 6.26195 14.64 6.12195 14.4C5.91195 14.04 6.03195 13.58 6.38195 13.37C7.59195 12.65 8.01195 12.39 8.09195 10.58H6.19195C5.10195 10.58 4.25195 9.73 4.25195 8.64V7.16C4.25195 6.07 5.10195 5.22 6.19195 5.22H7.68195C8.75195 5.22 9.62195 6.09 9.62195 7.16V9.84H9.61195ZM15.752 9.84C15.752 12.92 15.082 13.61 13.292 14.67C13.172 14.74 13.042 14.77 12.912 14.77C12.652 14.77 12.402 14.64 12.262 14.4C12.052 14.04 12.172 13.58 12.522 13.37C13.732 12.65 14.152 12.39 14.232 10.58H12.322C11.232 10.58 10.382 9.73 10.382 8.64V7.16C10.382 6.07 11.232 5.22 12.322 5.22H13.812C14.882 5.22 15.752 6.09 15.752 7.16V9.84Z" fill="#101010"/>
</svg>
