<svg width="22" height="14" viewBox="0 0 22 14" fill="none" xmlns="http://www.w3.org/2000/svg">
<path d="M10.9991 9.38012C12.3136 9.38012 13.3791 8.31456 13.3791 7.00012C13.3791 5.68568 12.3136 4.62012 10.9991 4.62012C9.6847 4.62012 8.61914 5.68568 8.61914 7.00012C8.61914 8.31456 9.6847 9.38012 10.9991 9.38012Z" fill="#101010"/>
<path d="M19.0003 13.75C18.8403 13.75 18.6903 13.7 18.5503 13.6C18.2203 13.35 18.1503 12.88 18.4003 12.55C19.6103 10.94 20.2503 9.02003 20.2503 7.00003C20.2503 4.98003 19.6103 3.06003 18.4003 1.45003C18.1503 1.12003 18.2203 0.650029 18.5503 0.400029C18.8803 0.150029 19.3503 0.220029 19.6003 0.550029C21.0103 2.42003 21.7503 4.65003 21.7503 7.00003C21.7503 9.35003 21.0103 11.58 19.6003 13.45C19.4503 13.65 19.2303 13.75 19.0003 13.75Z" fill="#101010"/>
<path d="M3 13.75C2.77 13.75 2.55 13.65 2.4 13.45C0.99 11.58 0.25 9.35003 0.25 7.00003C0.25 4.65003 0.99 2.42003 2.4 0.550029C2.65 0.220029 3.12 0.150029 3.45 0.400029C3.78 0.650029 3.85 1.12003 3.6 1.45003C2.39 3.06003 1.75 4.98003 1.75 7.00003C1.75 9.02003 2.39 10.94 3.6 12.55C3.85 12.88 3.78 13.35 3.45 13.6C3.32 13.7 3.16 13.75 3 13.75Z" fill="#101010"/>
<path d="M15.7991 11.3499C15.6391 11.3499 15.4891 11.2999 15.3491 11.1999C15.0191 10.9499 14.9491 10.4799 15.1991 10.1499C15.8891 9.23993 16.2491 8.14993 16.2491 6.99993C16.2491 5.84993 15.8891 4.75993 15.1991 3.84993C14.9491 3.51993 15.0191 3.04993 15.3491 2.79993C15.6791 2.54993 16.1491 2.61993 16.3991 2.94993C17.2791 4.12993 17.7491 5.52993 17.7491 6.99993C17.7491 8.46993 17.2791 9.87993 16.3991 11.0499C16.2491 11.2499 16.0291 11.3499 15.7991 11.3499Z" fill="#101010"/>
<path d="M6.2 11.3499C5.97 11.3499 5.75 11.2499 5.6 11.0499C4.72 9.87993 4.25 8.46993 4.25 6.99993C4.25 5.52993 4.72 4.11993 5.6 2.94993C5.85 2.61993 6.32 2.54993 6.65 2.79993C6.98 3.04993 7.05 3.51993 6.8 3.84993C6.11 4.75993 5.75 5.84993 5.75 6.99993C5.75 8.14993 6.11 9.23993 6.8 10.1499C7.05 10.4799 6.98 10.9499 6.65 11.1999C6.52 11.2999 6.36 11.3499 6.2 11.3499Z" fill="#101010"/>
</svg>
