<svg width="20" height="20" viewBox="0 0 20 20" fill="none" xmlns="http://www.w3.org/2000/svg">
<path d="M10 0C4.48 0 0 4.48 0 10C0 15.52 4.48 20 10 20C15.52 20 20 15.52 20 10C20 4.48 15.52 0 10 0ZM10 17.75C5.73 17.75 2.25 14.27 2.25 10C2.25 8.64 2.61 7.31 3.28 6.14C3.48 5.78 3.94 5.66 4.3 5.86L10.37 9.35C10.73 9.56 10.85 10.01 10.65 10.37C10.44 10.73 9.99 10.85 9.63 10.65L4.24 7.56C3.92 8.33 3.75 9.16 3.75 10C3.75 13.45 6.55 16.25 10 16.25C13.45 16.25 16.25 13.45 16.25 10C16.25 6.55 13.45 3.75 10 3.75C8.64 3.75 7.34 4.18 6.25 5C5.92 5.25 5.45 5.18 5.2 4.85C4.95 4.52 5.02 4.05 5.35 3.8C6.7 2.79 8.31 2.25 10 2.25C14.27 2.25 17.75 5.73 17.75 10C17.75 14.27 14.27 17.75 10 17.75Z" fill="#101010"/>
</svg>
