<svg width="18" height="20" viewBox="0 0 18 20" fill="none" xmlns="http://www.w3.org/2000/svg">
<path d="M16.5 7C17.05 7 17.5 6.55 17.5 6V5C17.5 2 15.97 0 12.5 0H5.5C1.97 0 0.5 2 0.5 5V15C0.5 17.3139 1.37827 19.0255 3.39493 19.6836C3.69648 19.782 3.98895 19.5422 3.98783 19.2249L3.98 17C3.98 15.34 5.33 14 6.98 14H10.99C12.63 14 13.98 15.34 13.99 16.98L14.0057 19.227C14.0079 19.5435 14.3017 19.7801 14.6018 19.6794C16.5899 19.0126 17.5 17.3027 17.5 15V13.83C17.5 13.3 17.29 12.79 16.91 12.41L16.09 11.59C15.71 11.21 15.5 10.7 15.5 10.17V8C15.5 7.45 15.95 7 16.5 7ZM10.97 6.53H4.97C4.56 6.53 4.22 6.19 4.22 5.78C4.22 5.37 4.56 5.03 4.97 5.03H10.97C11.38 5.03 11.72 5.37 11.72 5.78C11.72 6.19 11.39 6.53 10.97 6.53Z" fill="#101010"/>
<path d="M13.0103 18.97C13.0159 19.5261 12.5666 19.98 12.0104 19.98H5.99374C5.44406 19.98 4.99743 19.5364 4.99376 18.9867L4.98047 17C4.98047 15.9 5.87047 15 6.98047 15H10.9905C12.0905 15 12.9805 15.89 12.9905 16.99L13.0103 18.97Z" fill="#101010"/>
</svg>
