<svg width="16" height="21" viewBox="0 0 16 21" fill="none" xmlns="http://www.w3.org/2000/svg">
<path d="M9.29997 7.11007L10.62 9.75007C10.8 10.1101 11.28 10.4701 11.68 10.5301L14.07 10.9301C15.6 11.1901 15.96 12.2901 14.86 13.3901L13 15.2601C12.69 15.5701 12.51 16.1801 12.61 16.6201L13.14 18.9301C13.56 20.7501 12.59 21.4601 10.98 20.5101L8.73997 19.1801C8.32997 18.9401 7.66997 18.9401 7.25997 19.1801L5.00997 20.5001C3.39997 21.4501 2.42997 20.7401 2.84997 18.9201L3.37997 16.6101C3.47997 16.1801 3.29997 15.5701 2.98997 15.2501L1.13997 13.4001C0.0399733 12.3001 0.399973 11.1901 1.92997 10.9401L4.31997 10.5401C4.71997 10.4701 5.19997 10.1201 5.37997 9.76007L6.69997 7.12007C7.40997 5.68007 8.58997 5.68007 9.29997 7.11007Z" fill="#101010"/>
<path d="M2 8.75C1.59 8.75 1.25 8.41 1.25 8V1C1.25 0.59 1.59 0.25 2 0.25C2.41 0.25 2.75 0.59 2.75 1V8C2.75 8.41 2.41 8.75 2 8.75Z" fill="#101010"/>
<path d="M14 8.75C13.59 8.75 13.25 8.41 13.25 8V1C13.25 0.59 13.59 0.25 14 0.25C14.41 0.25 14.75 0.59 14.75 1V8C14.75 8.41 14.41 8.75 14 8.75Z" fill="#101010"/>
<path d="M8 3.75C7.59 3.75 7.25 3.41 7.25 3V1C7.25 0.59 7.59 0.25 8 0.25C8.41 0.25 8.75 0.59 8.75 1V3C8.75 3.41 8.41 3.75 8 3.75Z" fill="#101010"/>
</svg>
