<svg width="20" height="21" viewBox="0 0 20 21" fill="none" xmlns="http://www.w3.org/2000/svg">
<path d="M4.67 13H2C0.9 13 0 13.9 0 15V20C0 20.55 0.45 21 1 21H4.67C5.22 21 5.67 20.55 5.67 20V14C5.67 13.45 5.22 13 4.67 13Z" fill="#101010"/>
<path d="M11.3302 9H8.66016C7.56016 9 6.66016 9.9 6.66016 11V20C6.66016 20.55 7.11016 21 7.66016 21H12.3302C12.8802 21 13.3302 20.55 13.3302 20V11C13.3302 9.9 12.4402 9 11.3302 9Z" fill="#101010"/>
<path d="M18.0001 16H15.3301C14.7801 16 14.3301 16.45 14.3301 17V20C14.3301 20.55 14.7801 21 15.3301 21H19.0001C19.5501 21 20.0001 20.55 20.0001 20V18C20.0001 16.9 19.1001 16 18.0001 16Z" fill="#101010"/>
<path d="M13.0099 3.84998C13.3199 3.53998 13.4399 3.16998 13.3399 2.84998C13.2399 2.52998 12.9299 2.29998 12.4899 2.22998L11.5299 2.06998C11.4899 2.06998 11.3999 1.99998 11.3799 1.95998L10.8499 0.89998C10.4499 0.0899805 9.53994 0.0899805 9.13994 0.89998L8.60994 1.95998C8.59994 1.99998 8.50994 2.06998 8.46994 2.06998L7.50994 2.22998C7.06994 2.29998 6.76994 2.52998 6.65994 2.84998C6.55994 3.16998 6.67994 3.53998 6.98994 3.84998L7.72994 4.59998C7.76994 4.62998 7.79994 4.74998 7.78994 4.78998L7.57994 5.70998C7.41994 6.39998 7.67994 6.70998 7.84994 6.82998C8.01994 6.94998 8.38994 7.10998 8.99994 6.74998L9.89994 6.21998C9.93994 6.18998 10.0699 6.18998 10.1099 6.21998L10.9999 6.74998C11.2799 6.91998 11.5099 6.96998 11.6899 6.96998C11.8999 6.96998 12.0499 6.88998 12.1399 6.82998C12.3099 6.70998 12.5699 6.39998 12.4099 5.70998L12.1999 4.78998C12.1899 4.73998 12.2199 4.62998 12.2599 4.59998L13.0099 3.84998Z" fill="#101010"/>
</svg>
