<svg width="18" height="20" viewBox="0 0 18 20" fill="none" xmlns="http://www.w3.org/2000/svg">
<path d="M16.502 1.67C16.502 1.66 16.502 1.65 16.482 1.64C16.262 1.36 15.972 1.21 15.632 1.21C15.102 1.21 14.462 1.56 13.772 2.3C12.952 3.18 11.692 3.11 10.972 2.15L9.96195 0.81C9.56195 0.27 9.03195 0 8.50195 0C7.97195 0 7.44195 0.27 7.04195 0.81L6.02195 2.16C5.31195 3.11 4.06195 3.18 3.24195 2.31L3.23195 2.3C2.10195 1.09 1.09195 0.91 0.521953 1.64C0.501953 1.65 0.501953 1.66 0.501953 1.67C0.141953 2.44 0.00195312 3.52 0.00195312 5.04V14.96C0.00195312 16.48 0.141953 17.56 0.501953 18.33C0.501953 18.34 0.511953 18.36 0.521953 18.37C1.10195 19.09 2.10195 18.91 3.23195 17.7L3.24195 17.69C4.06195 16.82 5.31195 16.89 6.02195 17.84L7.04195 19.19C7.44195 19.73 7.97195 20 8.50195 20C9.03195 20 9.56195 19.73 9.96195 19.19L10.972 17.85C11.692 16.89 12.952 16.82 13.772 17.7C14.462 18.44 15.102 18.79 15.632 18.79C15.972 18.79 16.262 18.65 16.482 18.37C16.492 18.36 16.502 18.34 16.502 18.33C16.862 17.56 17.002 16.48 17.002 14.96V5.04C17.002 3.52 16.862 2.44 16.502 1.67ZM11.002 12.5H5.00195C4.59195 12.5 4.25195 12.16 4.25195 11.75C4.25195 11.34 4.59195 11 5.00195 11H11.002C11.412 11 11.752 11.34 11.752 11.75C11.752 12.16 11.412 12.5 11.002 12.5ZM13.002 9H5.00195C4.59195 9 4.25195 8.66 4.25195 8.25C4.25195 7.84 4.59195 7.5 5.00195 7.5H13.002C13.412 7.5 13.752 7.84 13.752 8.25C13.752 8.66 13.412 9 13.002 9Z" fill="#101010"/>
</svg>
