<svg width="20" height="21" viewBox="0 0 20 21" fill="none" xmlns="http://www.w3.org/2000/svg">
<path d="M5 0H4C1 0 0 1.79 0 4V5V19C0 19.83 0.94 20.3 1.6 19.8L3.31 18.52C3.71 18.22 4.27 18.26 4.63 18.62L6.29 20.29C6.68 20.68 7.32 20.68 7.71 20.29L9.39 18.61C9.74 18.26 10.3 18.22 10.69 18.52L12.4 19.8C13.06 20.29 14 19.82 14 19V2C14 0.9 14.9 0 16 0H5ZM3.97 12.01C3.42 12.01 2.97 11.56 2.97 11.01C2.97 10.46 3.42 10.01 3.97 10.01C4.52 10.01 4.97 10.46 4.97 11.01C4.97 11.56 4.52 12.01 3.97 12.01ZM3.97 8.01C3.42 8.01 2.97 7.56 2.97 7.01C2.97 6.46 3.42 6.01 3.97 6.01C4.52 6.01 4.97 6.46 4.97 7.01C4.97 7.56 4.52 8.01 3.97 8.01ZM10 11.76H7C6.59 11.76 6.25 11.42 6.25 11.01C6.25 10.6 6.59 10.26 7 10.26H10C10.41 10.26 10.75 10.6 10.75 11.01C10.75 11.42 10.41 11.76 10 11.76ZM10 7.76H7C6.59 7.76 6.25 7.42 6.25 7.01C6.25 6.6 6.59 6.26 7 6.26H10C10.41 6.26 10.75 6.6 10.75 7.01C10.75 7.42 10.41 7.76 10 7.76Z" fill="#101010"/>
<path d="M16.01 0V1.5C16.67 1.5 17.3 1.77 17.76 2.22C18.24 2.71 18.5 3.34 18.5 4V6.42C18.5 7.16 18.17 7.5 17.42 7.5H15.5V2.01C15.5 1.73 15.73 1.5 16.01 1.5V0ZM16.01 0C14.9 0 14 0.9 14 2.01V9H17.42C19 9 20 8 20 6.42V4C20 2.9 19.55 1.9 18.83 1.17C18.1 0.45 17.11 0.01 16.01 0C16.01 0 16.02 0 16.01 0Z" fill="#101010"/>
</svg>
