<svg width="20" height="21" viewBox="0 0 20 21" fill="none" xmlns="http://www.w3.org/2000/svg">
<path d="M2.71 16.1899C2.81 16.2299 2.9 16.2499 3 16.2499H13.27C13.68 16.2499 14.02 15.9099 14.02 15.4999C14.02 15.0899 13.68 14.7499 13.27 14.7499H4.81L17.53 2.02994C17.82 1.73994 17.82 1.25994 17.53 0.969941C17.24 0.679941 16.76 0.679941 16.47 0.969941L3.75 13.6899V5.22994C3.75 4.81994 3.41 4.47994 3 4.47994C2.59 4.47994 2.25 4.81994 2.25 5.22994V15.4999C2.25 15.5999 2.27 15.6899 2.31 15.7899C2.38 15.9699 2.53 16.1199 2.71 16.1899Z" fill="#101010"/>
<path d="M18.5 19.25H1.5C1.09 19.25 0.75 19.59 0.75 20C0.75 20.41 1.09 20.75 1.5 20.75H18.5C18.91 20.75 19.25 20.41 19.25 20C19.25 19.59 18.91 19.25 18.5 19.25Z" fill="#101010"/>
</svg>
