<svg width="18" height="20" viewBox="0 0 18 20" fill="none" xmlns="http://www.w3.org/2000/svg">
<path d="M12.782 0H5.22195C1.44195 0 0.501953 1.01 0.501953 5.04V16.3C0.501953 18.96 1.96195 19.59 3.73195 17.69L3.74195 17.68C4.56195 16.81 5.81195 16.88 6.52195 17.83L7.53195 19.18C8.34195 20.25 9.65195 20.25 10.462 19.18L11.472 17.83C12.192 16.87 13.442 16.8 14.262 17.68C16.042 19.58 17.492 18.95 17.492 16.29V5.04C17.502 1.01 16.562 0 12.782 0ZM6.00195 5C6.55195 5 7.00195 5.45 7.00195 6C7.00195 6.55 6.56195 7 6.00195 7C5.44195 7 5.00195 6.55 5.00195 6C5.00195 5.45 5.44195 5 6.00195 5ZM12.002 12C11.442 12 11.002 11.55 11.002 11C11.002 10.45 11.452 10 12.002 10C12.552 10 13.002 10.45 13.002 11C13.002 11.55 12.562 12 12.002 12ZM12.902 5.59L6.17195 12.32C6.02195 12.47 5.83195 12.54 5.64195 12.54C5.45195 12.54 5.26195 12.47 5.11195 12.32C4.82195 12.03 4.82195 11.55 5.11195 11.26L11.842 4.53C12.132 4.24 12.612 4.24 12.902 4.53C13.192 4.82 13.192 5.3 12.902 5.59Z" fill="#101010"/>
</svg>
