<svg width="21" height="21" viewBox="0 0 21 21" fill="none" xmlns="http://www.w3.org/2000/svg">
<path d="M5.00146 0H4.00146C1.00146 0 0.00146484 1.79 0.00146484 4V5V19C0.00146484 19.83 0.941465 20.3 1.60146 19.8L3.31146 18.52C3.71146 18.22 4.27146 18.26 4.63146 18.62L6.29146 20.29C6.68146 20.68 7.32147 20.68 7.71146 20.29L9.39147 18.61C9.74147 18.26 10.3015 18.22 10.6915 18.52L12.4015 19.8C13.0615 20.29 14.0015 19.82 14.0015 19V2C14.0015 0.9 14.9015 0 16.0015 0H5.00146ZM9.75146 8.75H4.25146C3.84146 8.75 3.50146 8.41 3.50146 8C3.50146 7.59 3.84146 7.25 4.25146 7.25H9.75146C10.1615 7.25 10.5015 7.59 10.5015 8C10.5015 8.41 10.1615 8.75 9.75146 8.75Z" fill="#101010"/>
<path d="M16.0115 0V1.5C16.6715 1.5 17.3015 1.77 17.7615 2.22C18.2415 2.71 18.5015 3.34 18.5015 4V6.42C18.5015 7.16 18.1715 7.5 17.4215 7.5H15.5015V2.01C15.5015 1.73 15.7315 1.5 16.0115 1.5V0ZM16.0115 0C14.9015 0 14.0015 0.9 14.0015 2.01V9H17.4215C19.0015 9 20.0015 8 20.0015 6.42V4C20.0015 2.9 19.5515 1.9 18.8315 1.17C18.1015 0.45 17.1115 0.01 16.0115 0C16.0115 0 16.0215 0 16.0115 0Z" fill="#101010"/>
</svg>
