<svg width="18" height="20" viewBox="0 0 18 20" fill="none" xmlns="http://www.w3.org/2000/svg">
<path d="M12.782 0H5.22195C1.44195 0 0.501953 1.01 0.501953 5.04V16.3C0.501953 18.96 1.96195 19.59 3.73195 17.69L3.74195 17.68C4.56195 16.81 5.81195 16.88 6.52195 17.83L7.53195 19.18C8.34195 20.25 9.65195 20.25 10.462 19.18L11.472 17.83C12.192 16.87 13.442 16.8 14.262 17.68C16.042 19.58 17.492 18.95 17.492 16.29V5.04C17.502 1.01 16.562 0 12.782 0ZM11.842 7.99L11.342 8.5H11.332L8.30195 11.53C8.17195 11.66 7.90195 11.8 7.71195 11.82L6.36195 12.02C5.87195 12.09 5.53195 11.74 5.60195 11.26L5.79195 9.9C5.82195 9.71 5.95195 9.45 6.08195 9.31L9.12195 6.28L9.62195 5.77C9.95195 5.44 10.322 5.2 10.722 5.2C11.062 5.2 11.432 5.36 11.842 5.77C12.742 6.67 12.452 7.38 11.842 7.99Z" fill="#101010"/>
</svg>
