<svg width="22" height="22" viewBox="0 0 22 22" fill="none" xmlns="http://www.w3.org/2000/svg">
<path d="M14.0002 21.75C13.7302 21.75 13.4802 21.6 13.3502 21.37C13.2202 21.13 13.2202 20.85 13.3602 20.61L14.4102 18.86C14.6202 18.5 15.0902 18.39 15.4402 18.6C15.8002 18.81 15.9102 19.27 15.7002 19.63L15.4302 20.08C18.1902 19.43 20.2602 16.95 20.2602 13.99C20.2602 13.58 20.6002 13.24 21.0102 13.24C21.4202 13.24 21.7602 13.58 21.7602 13.99C21.7502 18.27 18.2702 21.75 14.0002 21.75Z" fill="#101010"/>
<path d="M1 8.75C0.59 8.75 0.25 8.41 0.25 8C0.25 3.73 3.73 0.25 8 0.25C8.27 0.25 8.52 0.4 8.65 0.63C8.78 0.87 8.78 1.15 8.64 1.39L7.59 3.14C7.38 3.49 6.92 3.61 6.56 3.39C6.21 3.18 6.09 2.72 6.31 2.36L6.58 1.91C3.81 2.56 1.75 5.04 1.75 8C1.75 8.41 1.41 8.75 1 8.75Z" fill="#101010"/>
<path d="M13.8 11.63V14.57C13.8 17.02 12.82 18 10.37 18H7.43C4.98 18 4 17.02 4 14.57V11.63C4 9.18001 4.98 8.20001 7.43 8.20001H10.37C12.82 8.20001 13.8 9.18001 13.8 11.63Z" fill="#101010"/>
<path d="M14.57 4H11.63C9.21996 4 8.23996 4.96 8.20996 7.32H10.37C13.31 7.32 14.67 8.69 14.67 11.62V13.78C17.04 13.75 17.99 12.77 17.99 10.36V7.43C18 4.98 17.02 4 14.57 4Z" fill="#101010"/>
</svg>
