<svg width="20" height="20" viewBox="0 0 20 20" fill="none" xmlns="http://www.w3.org/2000/svg">
<path d="M14.19 0H5.81C2.17 0 0 2.17 0 5.81V14.18C0 17.83 2.17 20 5.81 20H14.18C17.82 20 19.99 17.83 19.99 14.19V5.81C20 2.17 17.83 0 14.19 0ZM15.53 8.22L13.96 9.79C13.81 9.94 13.62 10.01 13.43 10.01C13.24 10.01 13.05 9.94 12.9 9.79C12.61 9.5 12.61 9.02 12.9 8.73L13.16 8.47H8.08C6.8 8.47 5.75 9.51 5.75 10.8C5.75 12.09 6.79 13.13 8.08 13.13H13C13.41 13.13 13.75 13.47 13.75 13.88C13.75 14.29 13.41 14.63 13 14.63H8.08C5.97 14.63 4.25 12.91 4.25 10.8C4.25 8.69 5.97 6.97 8.08 6.97H13.23L12.9 6.65C12.61 6.36 12.61 5.88 12.9 5.59C13.19 5.3 13.67 5.3 13.96 5.59L15.53 7.16C15.82 7.46 15.82 7.93 15.53 8.22Z" fill="#101010"/>
</svg>
