<svg width="20" height="20" viewBox="0 0 20 20" fill="none" xmlns="http://www.w3.org/2000/svg">
<path d="M14.19 0H5.81C2.17 0 0 2.17 0 5.81V14.18C0 17.83 2.17 20 5.81 20H14.18C17.82 20 19.99 17.83 19.99 14.19V5.81C20 2.17 17.83 0 14.19 0ZM10 16.25C8.21 16.25 6.81 15.36 5.86 14.48V15.19C5.86 15.6 5.52 15.94 5.11 15.94C4.7 15.94 4.36 15.6 4.36 15.19V12.44C4.36 12.03 4.7 11.69 5.11 11.69H7.59C8 11.69 8.34 12.03 8.34 12.44C8.34 12.85 8 13.19 7.59 13.19H6.69C7.43 13.93 8.58 14.75 10 14.75C12.62 14.75 14.75 12.62 14.75 10C14.75 9.59 15.09 9.25 15.5 9.25C15.91 9.25 16.25 9.59 16.25 10C16.25 13.45 13.45 16.25 10 16.25ZM16.25 7.54C16.25 7.57 16.25 7.6 16.25 7.62C16.24 7.73 16.21 7.83 16.16 7.92C16.11 8.01 16.04 8.09 15.95 8.16C15.88 8.21 15.8 8.25 15.71 8.28C15.64 8.3 15.57 8.31 15.5 8.31H13.07C12.66 8.31 12.32 7.97 12.32 7.56C12.32 7.15 12.66 6.81 13.07 6.81H13.9C13.1 6.07 11.81 5.25 10.02 5.25C7.4 5.25 5.27 7.38 5.27 10C5.27 10.41 4.93 10.75 4.52 10.75C4.11 10.75 3.75 10.41 3.75 10C3.75 6.55 6.55 3.75 10 3.75C12.15 3.75 13.73 4.68 14.75 5.57V4.81C14.75 4.4 15.09 4.06 15.5 4.06C15.91 4.06 16.25 4.4 16.25 4.81V7.54Z" fill="#101010"/>
</svg>
