<svg width="20" height="20" viewBox="0 0 20 20" fill="none" xmlns="http://www.w3.org/2000/svg">
<path d="M14.19 0H5.81C2.17 0 0 2.17 0 5.81V14.18C0 17.83 2.17 20 5.81 20H14.18C17.82 20 19.99 17.83 19.99 14.19V5.81C20 2.17 17.83 0 14.19 0ZM10 16.01C6.83 16.01 4.25 13.43 4.25 10.26C4.25 7.09 6.83 4.51 10 4.51C10.14 4.51 10.29 4.53 10.43 4.54L10.15 4.22C9.88 3.91 9.91 3.43 10.22 3.16C10.53 2.89 11.01 2.92 11.28 3.23L12.95 5.14C12.96 5.15 12.96 5.16 12.97 5.17C12.98 5.18 12.99 5.18 12.99 5.19C13.01 5.22 13.02 5.26 13.04 5.3C13.06 5.35 13.09 5.39 13.1 5.44C13.11 5.49 13.11 5.53 13.12 5.58C13.12 5.63 13.13 5.67 13.13 5.72C13.13 5.77 13.11 5.81 13.09 5.86C13.07 5.91 13.06 5.96 13.04 6C13.02 6.04 12.98 6.08 12.95 6.12C12.92 6.15 12.91 6.19 12.88 6.21C12.87 6.22 12.86 6.22 12.85 6.23C12.84 6.24 12.84 6.25 12.83 6.25L10.89 7.67C10.76 7.77 10.6 7.81 10.45 7.81C10.22 7.81 9.99 7.7 9.84 7.5C9.6 7.17 9.67 6.7 10 6.45L10.56 6.04C10.37 6.03 10.19 6.01 10 6.01C7.66 6.01 5.75 7.92 5.75 10.26C5.75 12.6 7.66 14.51 10 14.51C12.34 14.51 14.25 12.6 14.25 10.26C14.25 9.41 14 8.6 13.54 7.9C13.31 7.56 13.4 7.09 13.75 6.86C14.09 6.63 14.56 6.72 14.79 7.07C15.42 8.02 15.76 9.12 15.76 10.26C15.75 13.44 13.17 16.01 10 16.01Z" fill="#101010"/>
</svg>
