<svg width="20" height="20" viewBox="0 0 20 20" fill="none" xmlns="http://www.w3.org/2000/svg">
<path d="M14.19 0H5.81C2.17 0 0 2.17 0 5.81V14.18C0 17.83 2.17 20 5.81 20H14.18C17.82 20 19.99 17.83 19.99 14.19V5.81C20 2.17 17.83 0 14.19 0ZM10 16.01C6.83 16.01 4.25 13.43 4.25 10.26C4.25 9.12 4.58 8.01 5.22 7.07C5.45 6.72 5.92 6.63 6.26 6.86C6.6 7.09 6.7 7.56 6.46 7.9C6 8.6 5.75 9.42 5.75 10.26C5.75 12.6 7.66 14.51 10 14.51C12.34 14.51 14.25 12.6 14.25 10.26C14.25 7.92 12.34 6.01 10 6.01C9.81 6.01 9.63 6.03 9.44 6.05L10 6.46C10.33 6.7 10.41 7.17 10.16 7.51C10.01 7.71 9.78 7.82 9.55 7.82C9.4 7.82 9.24 7.77 9.11 7.68L7.17 6.25C7.17 6.25 7.16 6.24 7.15 6.23C7.14 6.22 7.13 6.22 7.12 6.21C7.09 6.19 7.08 6.15 7.05 6.12C7.02 6.08 6.99 6.05 6.96 6C6.94 5.96 6.93 5.91 6.91 5.87C6.9 5.82 6.88 5.78 6.88 5.73C6.88 5.68 6.88 5.64 6.89 5.59C6.89 5.54 6.89 5.5 6.91 5.45C6.91 5.4 6.94 5.36 6.96 5.31C6.98 5.28 6.98 5.24 7.01 5.2C7.02 5.2 7.03 5.19 7.04 5.18C7.05 5.17 7.05 5.16 7.06 5.15L8.73 3.24C9 2.93 9.48 2.89 9.79 3.17C10.1 3.44 10.13 3.92 9.86 4.23L9.58 4.55C9.72 4.54 9.86 4.52 10.01 4.52C13.18 4.52 15.76 7.1 15.76 10.27C15.76 13.44 13.17 16.01 10 16.01Z" fill="#101010"/>
</svg>
