<svg width="20" height="20" viewBox="0 0 20 20" fill="none" xmlns="http://www.w3.org/2000/svg">
<path d="M14.19 0H5.81C2.17 0 0 2.17 0 5.81V14.18C0 17.83 2.17 20 5.81 20H14.18C17.82 20 19.99 17.83 19.99 14.19V5.81C20 2.17 17.83 0 14.19 0ZM3.25 9.89C3.28 8.13 3.98 6.47 5.22 5.23C6.5 3.95 8.2 3.25 10 3.25C11.8 3.25 13.5 3.95 14.77 5.23C14.8 5.26 14.83 5.3 14.86 5.34V4.48C14.86 4.07 15.2 3.73 15.61 3.73C16.02 3.73 16.36 4.07 16.36 4.48V7.13C16.36 7.54 16.02 7.88 15.61 7.88H12.96C12.55 7.88 12.21 7.54 12.21 7.13C12.21 6.72 12.55 6.38 12.96 6.38H13.79C13.76 6.35 13.74 6.32 13.71 6.29C12.72 5.3 11.4 4.75 10 4.75C8.6 4.75 7.28 5.3 6.29 6.29C5.32 7.26 4.78 8.55 4.76 9.92C4.75 10.32 4.41 10.65 4 10.65H3.99C3.58 10.65 3.25 10.3 3.25 9.89ZM14.77 14.77C13.5 16.04 11.8 16.75 10 16.75C8.2 16.75 6.5 16.05 5.23 14.77C5.2 14.74 5.17 14.7 5.14 14.66V15.51C5.14 15.92 4.8 16.26 4.39 16.26C3.98 16.26 3.64 15.92 3.64 15.51V12.86C3.64 12.45 3.98 12.11 4.39 12.11H7.04C7.45 12.11 7.79 12.45 7.79 12.86C7.79 13.27 7.45 13.61 7.04 13.61H6.21C6.24 13.64 6.26 13.67 6.29 13.7C7.28 14.69 8.6 15.24 10 15.24C11.4 15.24 12.72 14.69 13.71 13.7C14.69 12.72 15.24 11.41 15.24 10.01C15.24 9.6 15.58 9.26 15.99 9.26C16.4 9.26 16.74 9.6 16.74 10.01C16.74 11.82 16.04 13.51 14.77 14.77Z" fill="#101010"/>
</svg>
