<svg width="22" height="20" viewBox="0 0 22 20" fill="none" xmlns="http://www.w3.org/2000/svg">
<path d="M2.91 15.1799C2.72 15.1799 2.53 15.1099 2.38 14.9599C1.01 13.5799 0.25 11.7599 0.25 9.82993C0.25 5.81993 3.5 2.55993 7.5 2.55993L13.57 2.57993L12.48 1.53993C12.18 1.24993 12.17 0.779928 12.46 0.479928C12.75 0.179928 13.22 0.169928 13.52 0.459928L15.96 2.79993C16.18 3.00993 16.25 3.33993 16.14 3.61993C16.03 3.89993 15.75 4.08993 15.44 4.08993L7.5 4.06993C4.33 4.06993 1.75 6.65993 1.75 9.83993C1.75 11.3699 2.35 12.8199 3.44 13.9099C3.73 14.1999 3.73 14.6799 3.44 14.9699C3.29 15.1099 3.1 15.1799 2.91 15.1799Z" fill="#101010"/>
<path d="M8.9999 19.75C8.8099 19.75 8.6299 19.68 8.4799 19.54L6.0399 17.2C5.8199 16.99 5.7499 16.66 5.8599 16.38C5.9799 16.1 6.2599 15.95 6.5599 15.91L14.5099 15.93C17.6799 15.93 20.2599 13.34 20.2599 10.16C20.2599 8.63 19.6599 7.18 18.5699 6.09C18.2799 5.8 18.2799 5.32 18.5699 5.03C18.8599 4.74 19.3399 4.74 19.6299 5.03C20.9999 6.41 21.7599 8.23 21.7599 10.16C21.7599 14.17 18.5099 17.43 14.5099 17.43L8.4399 17.41L9.5299 18.45C9.8299 18.74 9.8399 19.21 9.5499 19.51C9.3899 19.67 9.1999 19.75 8.9999 19.75Z" fill="#101010"/>
<path d="M11.2505 13.4198C10.8405 13.4198 10.5005 13.0798 10.5005 12.6698V9.27983L10.3105 9.48983C10.0305 9.79983 9.56049 9.81983 9.25049 9.54983C8.94049 9.27983 8.92049 8.79983 9.19049 8.48983L10.6905 6.81983C10.9005 6.58983 11.2305 6.50983 11.5205 6.61983C11.8105 6.73983 12.0005 7.00983 12.0005 7.32983V12.6798C12.0005 13.0898 11.6605 13.4198 11.2505 13.4198Z" fill="#101010"/>
</svg>
