<svg width="21" height="20" viewBox="0 0 21 20" fill="none" xmlns="http://www.w3.org/2000/svg">
<path d="M20.9702 16V17C20.9702 18.65 20.9702 20 17.9702 20H3.97021C0.970215 20 0.970215 18.65 0.970215 17V16C0.970215 15.45 1.42021 15 1.97021 15H19.9702C20.5202 15 20.9702 15.45 20.9702 16Z" fill="#101010"/>
<path d="M13.41 3.18002C13.46 2.98002 13.49 2.79002 13.5 2.58002C13.53 1.42002 12.82 0.400016 11.7 0.100016C10.02 -0.359984 8.50002 0.900016 8.50002 2.50002C8.50002 2.74002 8.53002 2.96002 8.59002 3.18002C4.98002 3.95002 2.27002 7.16002 2.27002 11V12.5C2.27002 13.05 2.72002 13.5 3.27002 13.5H18.72C19.27 13.5 19.72 13.05 19.72 12.5V11C19.72 7.16002 17.02 3.96002 13.41 3.18002ZM14 9.75002H8.00002C7.59002 9.75002 7.25002 9.41002 7.25002 9.00002C7.25002 8.59002 7.59002 8.25002 8.00002 8.25002H14C14.41 8.25002 14.75 8.59002 14.75 9.00002C14.75 9.41002 14.41 9.75002 14 9.75002Z" fill="#101010"/>
</svg>
