<svg width="20" height="20" viewBox="0 0 20 20" fill="none" xmlns="http://www.w3.org/2000/svg">
<path d="M14.19 0H5.81C2.17 0 0 2.17 0 5.81V14.18C0 17.83 2.17 20 5.81 20H14.18C17.82 20 19.99 17.83 19.99 14.19V5.81C20 2.17 17.83 0 14.19 0ZM10 16.58C6.83 16.58 4.25 14 4.25 10.83C4.25 9.69 4.58 8.58 5.22 7.64C5.45 7.3 5.92 7.2 6.26 7.43C6.6 7.66 6.7 8.13 6.47 8.47C6 9.17 5.76 9.99 5.76 10.83C5.76 13.17 7.67 15.08 10.01 15.08C12.35 15.08 14.26 13.17 14.26 10.83C14.26 8.59 12.52 6.75 10.32 6.59L10.73 6.89C11.06 7.13 11.14 7.6 10.89 7.94C10.65 8.27 10.18 8.35 9.84 8.1L7.9 6.69C7.83 6.64 7.77 6.58 7.72 6.51C7.71 6.5 7.7 6.49 7.69 6.47C7.65 6.4 7.62 6.32 7.6 6.24C7.58 6.14 7.58 6.05 7.59 5.95C7.6 5.91 7.61 5.87 7.62 5.83C7.64 5.76 7.68 5.7 7.72 5.63C7.74 5.62 7.76 5.6 7.78 5.58L9.44 3.68C9.71 3.37 10.19 3.34 10.5 3.61C10.81 3.88 10.84 4.36 10.57 4.67L10.2 5.1C13.28 5.2 15.76 7.74 15.76 10.85C15.75 14 13.17 16.58 10 16.58Z" fill="#101010"/>
</svg>
