<svg width="20" height="20" viewBox="0 0 20 20" fill="none" xmlns="http://www.w3.org/2000/svg">
<path d="M14.75 20H10.25C6.5 20 5 18.5 5 14.75V10.25C5 6.5 6.5 5 10.25 5H14.75C18.5 5 20 6.5 20 10.25V14.75C20 18.5 18.5 20 14.75 20Z" fill="#101010"/>
<path d="M0.75 8.5C1.16 8.5 1.5 8.16 1.5 7.75C1.5 4.79 3.56 2.31 6.33 1.66L6.06 2.11C5.85 2.47 5.96 2.93 6.32 3.14C6.68 3.35 7.14 3.24 7.35 2.88L8.4 1.13C8.54 0.9 8.54 0.61 8.41 0.38C8.27 0.15 8.02 0 7.75 0C3.48 0 0 3.48 0 7.75C0 8.16 0.34 8.5 0.75 8.5Z" fill="#101010"/>
</svg>
