<svg width="20" height="20" viewBox="0 0 20 20" fill="none" xmlns="http://www.w3.org/2000/svg">
<path d="M5.25 20H9.75C13.5 20 15 18.5 15 14.75V10.25C15 6.5 13.5 5 9.75 5H5.25C1.5 5 0 6.5 0 10.25V14.75C0 18.5 1.5 20 5.25 20Z" fill="#101010"/>
<path d="M19.2504 8.5C18.8404 8.5 18.5004 8.16 18.5004 7.75C18.5004 4.79 16.4404 2.31 13.6704 1.66L13.9404 2.11C14.1504 2.47 14.0404 2.93 13.6804 3.14C13.3204 3.35 12.8604 3.24 12.6504 2.88L11.6004 1.13C11.4604 0.9 11.4604 0.61 11.5904 0.38C11.7304 0.15 11.9804 0 12.2504 0C16.5204 0 20.0004 3.48 20.0004 7.75C20.0004 8.16 19.6604 8.5 19.2504 8.5Z" fill="#101010"/>
</svg>
