<svg width="20" height="20" viewBox="0 0 20 20" fill="none" xmlns="http://www.w3.org/2000/svg">
<path d="M14.19 0H5.81C2.17 0 0 2.17 0 5.81V14.18C0 17.83 2.17 20 5.81 20H14.18C17.82 20 19.99 17.83 19.99 14.19V5.81C20 2.17 17.83 0 14.19 0ZM10 16.58C6.83 16.58 4.25 14 4.25 10.83C4.25 7.72 6.73 5.19 9.81 5.08L9.44 4.65C9.17 4.34 9.2 3.86 9.51 3.59C9.82 3.32 10.3 3.35 10.57 3.66L12.23 5.56C12.25 5.58 12.26 5.6 12.28 5.62C12.32 5.68 12.36 5.75 12.38 5.82C12.39 5.86 12.4 5.9 12.41 5.94C12.43 6.03 12.42 6.13 12.4 6.22C12.38 6.3 12.35 6.38 12.31 6.46C12.3 6.48 12.28 6.5 12.27 6.52C12.23 6.58 12.17 6.63 12.11 6.67C12.11 6.67 12.1 6.67 12.1 6.68L10.16 8.1C9.82 8.34 9.36 8.27 9.11 7.94C8.87 7.61 8.94 7.14 9.27 6.89L9.68 6.59C7.48 6.75 5.74 8.59 5.74 10.83C5.74 13.17 7.65 15.08 9.99 15.08C12.33 15.08 14.24 13.17 14.24 10.83C14.24 9.99 13.99 9.17 13.53 8.47C13.3 8.13 13.39 7.66 13.74 7.43C14.09 7.2 14.55 7.29 14.78 7.64C15.41 8.59 15.75 9.69 15.75 10.83C15.75 14 13.17 16.58 10 16.58Z" fill="#101010"/>
</svg>
