<svg width="22" height="20" viewBox="0 0 22 20" fill="none" xmlns="http://www.w3.org/2000/svg">
<path d="M7.88003 2.59997C7.08003 -0.860028 1.87002 -0.870028 1.07002 2.59997C0.600025 4.62997 1.89003 6.34997 3.01003 7.41997C3.83003 8.18997 5.12003 8.18997 5.94003 7.41997C7.06003 6.34997 8.34003 4.62997 7.88003 2.59997ZM4.51003 4.19997C3.96003 4.19997 3.51003 3.74997 3.51003 3.19997C3.51003 2.64997 3.95003 2.19997 4.50003 2.19997H4.51003C5.07003 2.19997 5.51003 2.64997 5.51003 3.19997C5.51003 3.74997 5.07003 4.19997 4.51003 4.19997Z" fill="#101010"/>
<path d="M20.91 14.6C20.11 11.14 14.88 11.13 14.07 14.6C13.6 16.63 14.89 18.35 16.02 19.42C16.84 20.19 18.14 20.19 18.96 19.42C20.09 18.35 21.38 16.63 20.91 14.6ZM17.53 16.2C16.98 16.2 16.53 15.75 16.53 15.2C16.53 14.65 16.97 14.2 17.52 14.2H17.53C18.08 14.2 18.53 14.65 18.53 15.2C18.53 15.75 18.08 16.2 17.53 16.2Z" fill="#101010"/>
<path d="M11.0004 17.75H8.32043C7.16043 17.75 6.15043 17.05 5.75043 15.97C5.34043 14.89 5.64043 13.7 6.51043 12.93L14.5004 5.94C14.9804 5.52 14.9904 4.95 14.8504 4.56C14.7004 4.17 14.3204 3.75 13.6804 3.75H11.0004C10.5904 3.75 10.2504 3.41 10.2504 3C10.2504 2.59 10.5904 2.25 11.0004 2.25H13.6804C14.8404 2.25 15.8504 2.95 16.2504 4.03C16.6604 5.11 16.3604 6.3 15.4904 7.07L7.50043 14.06C7.02043 14.48 7.01043 15.05 7.15043 15.44C7.30043 15.83 7.68043 16.25 8.32043 16.25H11.0004C11.4104 16.25 11.7504 16.59 11.7504 17C11.7504 17.41 11.4104 17.75 11.0004 17.75Z" fill="#101010"/>
</svg>
