<svg width="20" height="10" viewBox="0 0 20 10" fill="none" xmlns="http://www.w3.org/2000/svg">
<path d="M17 0C16.86 0 16.75 0.11 16.75 0.25V5C16.75 5.41 16.41 5.75 16 5.75C15.59 5.75 15.25 5.41 15.25 5V0.25C15.25 0.11 15.14 0 15 0H13C12.86 0 12.75 0.11 12.75 0.25V2.6C12.75 3.01 12.41 3.35 12 3.35C11.59 3.35 11.25 3.01 11.25 2.6V0.25C11.25 0.11 11.14 0 11 0H9.04C8.9 0 8.79 0.11 8.79 0.25L8.75 5.01C8.75 5.42 8.41 5.75 8 5.75C8 5.75 8 5.75 7.99 5.75C7.58 5.75 7.25 5.41 7.25 4.99L7.29 0.25C7.29 0.11 7.18 0 7.04 0H5C4.86 0 4.75 0.11 4.75 0.25V3.8C4.75 4.21 4.41 4.55 4 4.55C3.59 4.55 3.25 4.21 3.25 3.8V0.25C3.25 0.11 3.14 0 3 0C1.34 0 0 1.34 0 3V7C0 8.66 1.34 10 3 10H17C18.66 10 20 8.66 20 7V3C20 1.34 18.66 0 17 0Z" fill="#101010"/>
</svg>
