<svg width="21" height="21" viewBox="0 0 21 21" fill="none" xmlns="http://www.w3.org/2000/svg">
<path d="M20.9998 13.3701V15.5601C20.9998 18.0001 19.2198 20.3001 16.7998 20.9701C16.6298 21.0101 16.4498 21.0101 16.2898 20.9701C15.1098 20.6501 14.0698 19.9301 13.3398 19.0001C12.5498 18.0201 12.0898 16.8101 12.0898 15.5601V13.3701C12.0898 12.9501 12.3998 12.4901 12.7798 12.3301L15.5598 11.1901C16.1898 10.9401 16.8898 10.9401 17.5198 11.1901L18.5198 11.6001L20.3098 12.3301C20.6898 12.4901 20.9998 12.9501 20.9998 13.3701Z" fill="#101010"/>
<path d="M18.9503 9.01004L18.7703 10.08L18.0703 9.80004C17.0803 9.40004 16.0003 9.40004 14.9903 9.80004L12.2003 10.95C11.2503 11.35 10.5903 12.34 10.5903 13.37V15.56C10.5903 16.75 10.9203 17.94 11.5303 19H4.18028C2.81028 19 1.52028 17.91 1.29028 16.56L0.0302801 9.01004C-0.12972 8.08004 0.34028 6.83003 1.08028 6.24003L7.66028 0.980035C8.67028 0.170035 10.3103 0.170035 11.3203 0.990035L17.9003 6.24003C18.6303 6.83003 19.1103 8.08004 18.9503 9.01004Z" fill="#101010"/>
</svg>
