<svg width="20" height="21" viewBox="0 0 20 21" fill="none" xmlns="http://www.w3.org/2000/svg">
<path d="M10.89 3.87988H3.11C1.4 3.87988 0 5.27988 0 6.98988V18.3499C0 19.7999 1.04 20.4199 2.31 19.7099L6.24 17.5199C6.66 17.2899 7.34 17.2899 7.75 17.5199L11.68 19.7099C12.96 20.4099 14 19.7999 14 18.3499V6.98988C14 5.27988 12.6 3.87988 10.89 3.87988Z" fill="#101010"/>
<path d="M19.9998 3.11V14.47C19.9998 15.92 18.9598 16.53 17.6898 15.83L15.7598 14.75C15.5998 14.66 15.4998 14.49 15.4998 14.31V6.99C15.4998 4.45 13.4298 2.38 10.8898 2.38H6.81984C6.44984 2.38 6.18984 1.99 6.35984 1.67C6.87984 0.68 7.91984 0 9.10984 0H16.8898C18.5998 0 19.9998 1.4 19.9998 3.11Z" fill="#101010"/>
</svg>
