<svg width="20" height="20" viewBox="0 0 20 20" fill="none" xmlns="http://www.w3.org/2000/svg">
<path d="M0.77 8C0.34 8 0 7.66 0 7.23V4.92C0 2.21 2.21 0 4.92 0H7.23C7.66 0 8 0.34 8 0.77C8 1.2 7.66 1.54 7.23 1.54H4.92C3.05 1.54 1.54 3.06 1.54 4.92V7.23C1.54 7.66 1.19 8 0.77 8Z" fill="#101010"/>
<path d="M19.23 8C18.81 8 18.46 7.66 18.46 7.23V4.92C18.46 3.05 16.94 1.54 15.08 1.54H12.77C12.34 1.54 12 1.19 12 0.77C12 0.35 12.34 0 12.77 0H15.08C17.79 0 20 2.21 20 4.92V7.23C20 7.66 19.66 8 19.23 8Z" fill="#101010"/>
<path d="M15.0799 19.9999H13.6899C13.2699 19.9999 12.9199 19.6599 12.9199 19.2299C12.9199 18.8099 13.2599 18.4599 13.6899 18.4599H15.0799C16.9499 18.4599 18.4599 16.9399 18.4599 15.0799V13.6999C18.4599 13.2799 18.7999 12.9299 19.2299 12.9299C19.6499 12.9299 19.9999 13.2699 19.9999 13.6999V15.0799C19.9999 17.7899 17.7899 19.9999 15.0799 19.9999Z" fill="#101010"/>
<path d="M7.23 20H4.92C2.21 20 0 17.79 0 15.08V12.77C0 12.34 0.34 12 0.77 12C1.2 12 1.54 12.34 1.54 12.77V15.08C1.54 16.95 3.06 18.46 4.92 18.46H7.23C7.65 18.46 8 18.8 8 19.23C8 19.66 7.66 20 7.23 20Z" fill="#101010"/>
<path d="M16.4595 9.22998H15.0995H4.89953H3.53953C3.10953 9.22998 2.76953 9.57998 2.76953 9.99998C2.76953 10.42 3.10953 10.77 3.53953 10.77H4.89953H15.0995H16.4595C16.8895 10.77 17.2295 10.42 17.2295 9.99998C17.2295 9.57998 16.8895 9.22998 16.4595 9.22998Z" fill="#101010"/>
<path d="M4.90039 11.94V12.27C4.90039 13.93 6.24039 15.27 7.90039 15.27H12.1004C13.7604 15.27 15.1004 13.93 15.1004 12.27V11.94C15.1004 11.82 15.0104 11.73 14.8904 11.73H5.11039C4.99039 11.73 4.90039 11.82 4.90039 11.94Z" fill="#101010"/>
<path d="M4.90039 8.05998V7.72998C4.90039 6.06998 6.24039 4.72998 7.90039 4.72998H12.1004C13.7604 4.72998 15.1004 6.06998 15.1004 7.72998V8.05998C15.1004 8.17998 15.0104 8.26998 14.8904 8.26998H5.11039C4.99039 8.26998 4.90039 8.17998 4.90039 8.05998Z" fill="#101010"/>
</svg>
