<svg width="22" height="22" viewBox="0 0 22 22" fill="none" xmlns="http://www.w3.org/2000/svg">
<path d="M1 8.75C0.59 8.75 0.25 8.41 0.25 8V5.5C0.25 2.6 2.61 0.25 5.5 0.25H8C8.41 0.25 8.75 0.59 8.75 1C8.75 1.41 8.41 1.75 8 1.75H5.5C3.43 1.75 1.75 3.43 1.75 5.5V8C1.75 8.41 1.41 8.75 1 8.75Z" fill="#101010"/>
<path d="M21 8.75C20.59 8.75 20.25 8.41 20.25 8V5.5C20.25 3.43 18.57 1.75 16.5 1.75H14C13.59 1.75 13.25 1.41 13.25 1C13.25 0.59 13.59 0.25 14 0.25H16.5C19.39 0.25 21.75 2.6 21.75 5.5V8C21.75 8.41 21.41 8.75 21 8.75Z" fill="#101010"/>
<path d="M16.5 21.75H15C14.59 21.75 14.25 21.41 14.25 21C14.25 20.59 14.59 20.25 15 20.25H16.5C18.57 20.25 20.25 18.57 20.25 16.5V15C20.25 14.59 20.59 14.25 21 14.25C21.41 14.25 21.75 14.59 21.75 15V16.5C21.75 19.4 19.39 21.75 16.5 21.75Z" fill="#101010"/>
<path d="M8 21.75H5.5C2.61 21.75 0.25 19.4 0.25 16.5V14C0.25 13.59 0.59 13.25 1 13.25C1.41 13.25 1.75 13.59 1.75 14V16.5C1.75 18.57 3.43 20.25 5.5 20.25H8C8.41 20.25 8.75 20.59 8.75 21C8.75 21.41 8.41 21.75 8 21.75Z" fill="#101010"/>
<path d="M7.50012 10.3801C9.0907 10.3801 10.3801 9.0907 10.3801 7.50012C10.3801 5.90954 9.0907 4.62012 7.50012 4.62012C5.90954 4.62012 4.62012 5.90954 4.62012 7.50012C4.62012 9.0907 5.90954 10.3801 7.50012 10.3801Z" fill="#101010"/>
<path d="M6.50012 17.3801C7.53841 17.3801 8.38012 16.5384 8.38012 15.5001C8.38012 14.4618 7.53841 13.6201 6.50012 13.6201C5.46182 13.6201 4.62012 14.4618 4.62012 15.5001C4.62012 16.5384 5.46182 17.3801 6.50012 17.3801Z" fill="#101010"/>
<path d="M15.5001 8.38012C16.5384 8.38012 17.3801 7.53841 17.3801 6.50012C17.3801 5.46182 16.5384 4.62012 15.5001 4.62012C14.4618 4.62012 13.6201 5.46182 13.6201 6.50012C13.6201 7.53841 14.4618 8.38012 15.5001 8.38012Z" fill="#101010"/>
<path d="M14.5001 17.3801C16.0907 17.3801 17.3801 16.0907 17.3801 14.5001C17.3801 12.9095 16.0907 11.6201 14.5001 11.6201C12.9095 11.6201 11.6201 12.9095 11.6201 14.5001C11.6201 16.0907 12.9095 17.3801 14.5001 17.3801Z" fill="#101010"/>
</svg>
