<svg width="22" height="22" viewBox="0 0 22 22" fill="none" xmlns="http://www.w3.org/2000/svg">
<path d="M21 8.75C20.59 8.75 20.25 8.41 20.25 8V6C20.25 3.42 18.58 1.75 16 1.75H6C3.42 1.75 1.75 3.42 1.75 6V8C1.75 8.41 1.41 8.75 1 8.75C0.59 8.75 0.25 8.41 0.25 8V6C0.25 2.56 2.56 0.25 6 0.25H16C19.44 0.25 21.75 2.56 21.75 6V8C21.75 8.41 21.41 8.75 21 8.75Z" fill="#101010"/>
<path d="M16 21.75H6C2.56 21.75 0.25 19.44 0.25 16V14C0.25 13.59 0.59 13.25 1 13.25C1.41 13.25 1.75 13.59 1.75 14V16C1.75 18.58 3.42 20.25 6 20.25H16C18.58 20.25 20.25 18.58 20.25 16V14C20.25 13.59 20.59 13.25 21 13.25C21.41 13.25 21.75 13.59 21.75 14V16C21.75 19.44 19.44 21.75 16 21.75Z" fill="#101010"/>
<path d="M21 11.75H1C0.59 11.75 0.25 11.41 0.25 11C0.25 10.59 0.59 10.25 1 10.25H21C21.41 10.25 21.75 10.59 21.75 11C21.75 11.41 21.41 11.75 21 11.75Z" fill="#101010"/>
<path d="M15.5 8H6.5C6.22 8 6 7.78 6 7.5V5.5C6 4.67 6.67 4 7.5 4H14.5C15.33 4 16 4.67 16 5.5V7.5C16 7.78 15.78 8 15.5 8Z" fill="#101010"/>
<path d="M15.5 14H6.5C6.22 14 6 14.22 6 14.5V16.5C6 17.33 6.67 18 7.5 18H14.5C15.32 18 16 17.33 16 16.5V14.5C16 14.22 15.78 14 15.5 14Z" fill="#101010"/>
</svg>
