<svg width="22" height="22" viewBox="0 0 22 22" fill="none" xmlns="http://www.w3.org/2000/svg">
<path d="M1 8.75C0.59 8.75 0.25 8.41 0.25 8V5.5C0.25 2.6 2.61 0.25 5.5 0.25H8C8.41 0.25 8.75 0.59 8.75 1C8.75 1.41 8.41 1.75 8 1.75H5.5C3.43 1.75 1.75 3.43 1.75 5.5V8C1.75 8.41 1.41 8.75 1 8.75Z" fill="#101010"/>
<path d="M21 8.75C20.59 8.75 20.25 8.41 20.25 8V5.5C20.25 3.43 18.57 1.75 16.5 1.75H14C13.59 1.75 13.25 1.41 13.25 1C13.25 0.59 13.59 0.25 14 0.25H16.5C19.39 0.25 21.75 2.6 21.75 5.5V8C21.75 8.41 21.41 8.75 21 8.75Z" fill="#101010"/>
<path d="M16.5 21.75H15C14.59 21.75 14.25 21.41 14.25 21C14.25 20.59 14.59 20.25 15 20.25H16.5C18.57 20.25 20.25 18.57 20.25 16.5V15C20.25 14.59 20.59 14.25 21 14.25C21.41 14.25 21.75 14.59 21.75 15V16.5C21.75 19.4 19.39 21.75 16.5 21.75Z" fill="#101010"/>
<path d="M8 21.75H5.5C2.61 21.75 0.25 19.4 0.25 16.5V14C0.25 13.59 0.59 13.25 1 13.25C1.41 13.25 1.75 13.59 1.75 14V16.5C1.75 18.57 3.43 20.25 5.5 20.25H8C8.41 20.25 8.75 20.59 8.75 21C8.75 21.41 8.41 21.75 8 21.75Z" fill="#101010"/>
<path d="M8 4.25H6C4.86 4.25 4.25 4.85 4.25 6V8C4.25 9.15 4.86 9.75 6 9.75H8C9.14 9.75 9.75 9.15 9.75 8V6C9.75 4.85 9.14 4.25 8 4.25Z" fill="#101010"/>
<path d="M16 4.25H14C12.86 4.25 12.25 4.85 12.25 6V8C12.25 9.15 12.86 9.75 14 9.75H16C17.14 9.75 17.75 9.15 17.75 8V6C17.75 4.85 17.14 4.25 16 4.25Z" fill="#101010"/>
<path d="M8 12.25H6C4.86 12.25 4.25 12.85 4.25 14V16C4.25 17.15 4.86 17.75 6 17.75H8C9.14 17.75 9.75 17.15 9.75 16V14C9.75 12.85 9.14 12.25 8 12.25Z" fill="#101010"/>
<path d="M16 12.25H14C12.86 12.25 12.25 12.85 12.25 14V16C12.25 17.15 12.86 17.75 14 17.75H16C17.14 17.75 17.75 17.15 17.75 16V14C17.75 12.85 17.14 12.25 16 12.25Z" fill="#101010"/>
</svg>
