<svg width="21" height="18" viewBox="0 0 21 18" fill="none" xmlns="http://www.w3.org/2000/svg">
<path d="M3.5 7C5.433 7 7 5.433 7 3.5C7 1.567 5.433 0 3.5 0C1.567 0 0 1.567 0 3.5C0 5.433 1.567 7 3.5 7Z" fill="#101010"/>
<path d="M3.5 18C5.433 18 7 16.433 7 14.5C7 12.567 5.433 11 3.5 11C1.567 11 0 12.567 0 14.5C0 16.433 1.567 18 3.5 18Z" fill="#101010"/>
<path d="M13.2501 8.98L20.4501 3.6C20.7801 3.35 20.8501 2.88 20.6001 2.55C20.3501 2.22 19.8801 2.15 19.5501 2.4L12.0001 8.05L6.45008 3.89C6.12008 3.65 5.65008 3.71 5.40008 4.04C5.15008 4.37 5.22008 4.84 5.55008 5.09L10.7501 8.98L4.85008 13.4C4.52008 13.65 4.45008 14.12 4.70008 14.45C4.85008 14.65 5.07008 14.75 5.30008 14.75C5.46008 14.75 5.61008 14.7 5.75008 14.6L12.0001 9.92L19.5501 15.57C19.6801 15.67 19.8401 15.72 20.0001 15.72C20.2301 15.72 20.4501 15.62 20.6001 15.42C20.8501 15.09 20.7801 14.62 20.4501 14.37L13.2501 8.98Z" fill="#101010"/>
</svg>
