<svg width="20" height="20" viewBox="0 0 20 20" fill="none" xmlns="http://www.w3.org/2000/svg">
<path d="M14.19 0H5.81C2.17 0 0 2.17 0 5.81V14.18C0 17.83 2.17 20 5.81 20H14.18C17.82 20 19.99 17.83 19.99 14.19V5.81C20 2.17 17.83 0 14.19 0ZM15.76 12.68C16.09 12.93 16.16 13.4 15.91 13.73C15.76 13.93 15.54 14.03 15.31 14.03C15.15 14.03 15 13.98 14.86 13.88L10.91 10.93L8.5 12.73C8.51 12.83 8.53 12.93 8.53 13.03C8.53 14.3 7.5 15.33 6.23 15.33C4.96 15.33 3.93 14.3 3.93 13.03C3.93 11.76 4.96 10.73 6.23 10.73C6.85 10.73 7.4 10.98 7.81 11.37L9.65 9.99L7.82 8.62C7.41 9.02 6.84 9.27 6.22 9.27C4.95 9.27 3.92 8.24 3.92 6.97C3.92 5.7 4.95 4.67 6.22 4.67C7.49 4.67 8.52 5.7 8.52 6.97C8.52 7.07 8.5 7.16 8.49 7.25L10.89 9.05L14.84 6.1C15.17 5.85 15.64 5.92 15.89 6.25C16.14 6.58 16.07 7.05 15.74 7.3L12.14 9.99L15.76 12.68Z" fill="#101010"/>
</svg>
