<svg width="20" height="20" viewBox="0 0 20 20" fill="none" xmlns="http://www.w3.org/2000/svg">
<path d="M14.19 0H5.81C2.17 0 0 2.17 0 5.81V14.18C0 17.83 2.17 20 5.81 20H14.18C17.82 20 19.99 17.83 19.99 14.19V5.81C20 2.17 17.83 0 14.19 0ZM8.13 12.5C8.42 12.79 8.42 13.27 8.13 13.56C7.98 13.71 7.79 13.78 7.6 13.78C7.41 13.78 7.22 13.71 7.07 13.56L4.58 11.07C3.99 10.48 3.99 9.53 4.58 8.94L7.07 6.45C7.36 6.16 7.84 6.16 8.13 6.45C8.42 6.74 8.42 7.22 8.13 7.51L5.64 10L8.13 12.5ZM15.42 11.06L12.93 13.55C12.78 13.7 12.59 13.77 12.4 13.77C12.21 13.77 12.02 13.7 11.87 13.55C11.58 13.26 11.58 12.78 11.87 12.49L14.36 10L11.87 7.5C11.58 7.21 11.58 6.73 11.87 6.44C12.16 6.15 12.64 6.15 12.93 6.44L15.42 8.93C16.01 9.52 16.01 10.48 15.42 11.06Z" fill="#101010"/>
</svg>
