<svg width="22" height="22" viewBox="0 0 22 22" fill="none" xmlns="http://www.w3.org/2000/svg">
<path d="M10.0002 0.98999C5.03023 0.98999 0.990234 5.02999 0.990234 9.99999C0.990234 14.97 5.03023 19.01 10.0002 19.01C14.9702 19.01 19.0102 14.97 19.0102 9.99999C19.0102 5.02999 14.9702 0.98999 10.0002 0.98999ZM10.0002 12.25H7.00023C6.59023 12.25 6.25023 11.91 6.25023 11.5C6.25023 11.09 6.59023 10.75 7.00023 10.75H10.0002C10.4102 10.75 10.7502 11.09 10.7502 11.5C10.7502 11.91 10.4102 12.25 10.0002 12.25ZM13.0002 9.24999H7.00023C6.59023 9.24999 6.25023 8.90999 6.25023 8.49999C6.25023 8.08999 6.59023 7.74999 7.00023 7.74999H13.0002C13.4102 7.74999 13.7502 8.08999 13.7502 8.49999C13.7502 8.90999 13.4102 9.24999 13.0002 9.24999Z" fill="#101010"/>
<path d="M20.9901 17.95C20.6601 17.34 19.9601 17 19.0201 17C18.3101 17 17.7001 17.29 17.3401 17.79C16.9801 18.29 16.9001 18.96 17.1201 19.63C17.5501 20.93 18.3001 21.22 18.7101 21.27C18.7701 21.28 18.8301 21.28 18.9001 21.28C19.3401 21.28 20.0201 21.09 20.6801 20.1C21.2101 19.33 21.3101 18.56 20.9901 17.95Z" fill="#101010"/>
</svg>
