<svg width="21" height="20" viewBox="0 0 21 20" fill="none" xmlns="http://www.w3.org/2000/svg">
<path d="M9.5 0C4.26 0 0 4.26 0 9.5C0 14.74 4.26 19 9.5 19C14.74 19 19 14.74 19 9.5C19 4.26 14.74 0 9.5 0ZM9.5 11.75H6.5C6.09 11.75 5.75 11.41 5.75 11C5.75 10.59 6.09 10.25 6.5 10.25H9.5C9.91 10.25 10.25 10.59 10.25 11C10.25 11.41 9.91 11.75 9.5 11.75ZM12.5 8.75H6.5C6.09 8.75 5.75 8.41 5.75 8C5.75 7.59 6.09 7.25 6.5 7.25H12.5C12.91 7.25 13.25 7.59 13.25 8C13.25 8.41 12.91 8.75 12.5 8.75Z" fill="#101010"/>
<path d="M19.3005 19.9986C19.1205 19.9986 18.9405 19.9286 18.8105 19.7986L16.9505 17.9386C16.6805 17.6686 16.6805 17.2286 16.9505 16.9486C17.2205 16.6786 17.6605 16.6786 17.9405 16.9486L19.8005 18.8086C20.0705 19.0786 20.0705 19.5186 19.8005 19.7986C19.6605 19.9286 19.4805 19.9986 19.3005 19.9986Z" fill="#101010"/>
</svg>
