<svg width="21" height="21" viewBox="0 0 21 21" fill="none" xmlns="http://www.w3.org/2000/svg">
<path d="M9.01 0C4.04 0 0 4.04 0 9.01C0 13.98 4.04 18.02 9.01 18.02C13.98 18.02 18.02 13.98 18.02 9.01C18.02 4.04 13.98 0 9.01 0ZM11.5 9.75H6.5C6.09 9.75 5.75 9.41 5.75 9C5.75 8.59 6.09 8.25 6.5 8.25H11.5C11.91 8.25 12.25 8.59 12.25 9C12.25 9.41 11.91 9.75 11.5 9.75Z" fill="#101010"/>
<path d="M19.9901 16.95C19.6601 16.34 18.9601 16 18.0201 16C17.3101 16 16.7001 16.29 16.3401 16.79C15.9801 17.29 15.9001 17.96 16.1201 18.63C16.5501 19.93 17.3001 20.22 17.7101 20.27C17.7701 20.28 17.8301 20.28 17.9001 20.28C18.3401 20.28 19.0201 20.09 19.6801 19.1C20.2101 18.33 20.3101 17.56 19.9901 16.95Z" fill="#101010"/>
</svg>
