<svg width="18" height="21" viewBox="0 0 18 21" fill="none" xmlns="http://www.w3.org/2000/svg">
<path d="M10.4919 11.38H8.00191C7.70191 11.38 7.46191 11.62 7.46191 11.92C7.46191 12.22 7.70191 12.46 8.00191 12.46H10.4919C10.7919 12.46 11.0319 12.22 11.0319 11.92C11.0319 11.62 10.7919 11.38 10.4919 11.38Z" fill="#101010"/>
<path d="M6.44185 11.38H5.19185C4.89185 11.38 4.65186 11.62 4.65186 11.92C4.65186 12.22 4.89185 12.46 5.19185 12.46H6.44185C6.74185 12.46 6.98185 12.22 6.98185 11.92C6.98185 11.62 6.74185 11.38 6.44185 11.38Z" fill="#101010"/>
<path d="M15.5418 2.22L10.0418 0.160002C9.47176 -0.0499976 8.54176 -0.0499976 7.97176 0.160002L2.47176 2.22C1.41176 2.62 0.551758 3.86 0.551758 4.99V13.09C0.551758 13.9 1.08176 14.97 1.73176 15.45L7.23176 19.56C8.20176 20.29 9.79176 20.29 10.7618 19.56L16.2618 15.45C16.9118 14.96 17.4418 13.9 17.4418 13.09V4.99C17.4518 3.86 16.5918 2.62 15.5418 2.22ZM15.1718 11.65C15.1518 13.72 14.5818 14.24 12.4318 14.24H5.58176C3.39176 14.24 2.84176 13.7 2.84176 11.53V9.2C2.84176 8.92 3.06176 8.7 3.34176 8.7H14.6718C14.9518 8.7 15.1718 8.92 15.1718 9.2V11.65ZM15.1718 7.11C15.1718 7.39 14.9518 7.61 14.6718 7.61H3.34176C3.06176 7.61 2.84176 7.39 2.84176 7.11V6.47C2.84176 4.51 3.30176 3.88 5.01176 3.77C5.19176 3.77 5.38176 3.76 5.58176 3.76H12.4318C14.6218 3.76 15.1718 4.3 15.1718 6.47V7.11Z" fill="#101010"/>
</svg>
