<svg width="18" height="20" viewBox="0 0 18 20" fill="none" xmlns="http://www.w3.org/2000/svg">
<path d="M15.5002 2.11007L10.5102 0.240068C9.68016 -0.0699316 8.32016 -0.0699316 7.49016 0.240068L2.50016 2.11007C1.35016 2.54007 0.410156 3.90007 0.410156 5.12007V12.5501C0.410156 13.7301 1.19016 15.2801 2.14016 15.9901L6.44016 19.2001C7.85016 20.2601 10.1702 20.2601 11.5802 19.2001L15.8802 15.9901C16.8302 15.2801 17.6102 13.7301 17.6102 12.5501V5.12007C17.5902 3.90007 16.6502 2.54007 15.5002 2.11007ZM8.93016 5.03007C10.1102 5.03007 11.0702 5.99007 11.0702 7.17007C11.0702 8.33007 10.1602 9.26007 9.01016 9.30007H8.99016H8.97016C8.95016 9.30007 8.93016 9.30007 8.91016 9.30007C7.71016 9.26007 6.81016 8.33007 6.81016 7.17007C6.80016 5.99007 7.76016 5.03007 8.93016 5.03007ZM11.1902 14.3601C10.5802 14.7601 9.79016 14.9701 9.00016 14.9701C8.21016 14.9701 7.41016 14.7701 6.81016 14.3601C6.24016 13.9801 5.93016 13.4601 5.92016 12.8901C5.92016 12.3301 6.24016 11.7901 6.81016 11.4101C8.02016 10.6101 9.99016 10.6101 11.2002 11.4101C11.7702 11.7901 12.0902 12.3101 12.0902 12.8801C12.0802 13.4401 11.7602 13.9801 11.1902 14.3601Z" fill="#101010"/>
</svg>
