<svg width="20" height="21" viewBox="0 0 20 21" fill="none" xmlns="http://www.w3.org/2000/svg">
<path d="M18.5 19.25H1.5C1.09 19.25 0.75 19.59 0.75 20C0.75 20.41 1.09 20.75 1.5 20.75H18.5C18.91 20.75 19.25 20.41 19.25 20C19.25 19.59 18.91 19.25 18.5 19.25Z" fill="#101010"/>
<path d="M3 12.52C3.41 12.52 3.75 12.18 3.75 11.77V3.31L16.47 16.03C16.62 16.18 16.81 16.25 17 16.25C17.19 16.25 17.38 16.18 17.53 16.03C17.82 15.74 17.82 15.26 17.53 14.97L4.81 2.25H13.27C13.68 2.25 14.02 1.91 14.02 1.5C14.02 1.09 13.68 0.75 13.27 0.75H3C2.9 0.75 2.81 0.77 2.71 0.81C2.53 0.88 2.38 1.03 2.31 1.21C2.27 1.31 2.25 1.4 2.25 1.5V11.77C2.25 12.18 2.59 12.52 3 12.52Z" fill="#101010"/>
</svg>
