<svg width="20" height="20" viewBox="0 0 20 20" fill="none" xmlns="http://www.w3.org/2000/svg">
<path d="M14.19 0H5.81C2.17 0 0 2.17 0 5.81V14.18C0 17.83 2.17 20 5.81 20H14.18C17.82 20 19.99 17.83 19.99 14.19V5.81C20 2.17 17.83 0 14.19 0ZM6.47 6.98L9.47 3.98C9.54 3.91 9.62 3.86 9.71 3.82C9.89 3.74 10.1 3.74 10.28 3.82C10.37 3.86 10.45 3.91 10.52 3.98L13.52 6.98C13.81 7.27 13.81 7.75 13.52 8.04C13.37 8.19 13.18 8.26 12.99 8.26C12.8 8.26 12.61 8.19 12.46 8.04L10.74 6.32V12.51C10.74 12.92 10.4 13.26 9.99 13.26C9.58 13.26 9.24 12.92 9.24 12.51V6.32L7.52 8.04C7.23 8.33 6.75 8.33 6.46 8.04C6.17 7.75 6.18 7.28 6.47 6.98ZM16.24 15.22C14.23 15.89 12.12 16.23 10 16.23C7.88 16.23 5.77 15.89 3.76 15.22C3.37 15.09 3.16 14.66 3.29 14.27C3.42 13.88 3.85 13.66 4.24 13.8C7.96 15.04 12.05 15.04 15.77 13.8C16.16 13.67 16.59 13.88 16.72 14.27C16.84 14.67 16.63 15.09 16.24 15.22Z" fill="#101010"/>
</svg>
