<svg width="20" height="22" viewBox="0 0 20 22" fill="none" xmlns="http://www.w3.org/2000/svg">
<path d="M16.5104 7.25005C17.0104 7.25005 17.4104 6.85005 17.4104 6.35005V1.70005C17.4104 1.20005 17.0104 0.800049 16.5104 0.800049C16.0104 0.800049 15.6104 1.20005 15.6104 1.70005V6.35005C15.6104 6.84005 16.0204 7.25005 16.5104 7.25005Z" fill="#101010"/>
<path d="M10.0006 14.75C9.50059 14.75 9.10059 15.15 9.10059 15.65V20.3C9.10059 20.8 9.50059 21.2 10.0006 21.2C10.5006 21.2 10.9006 20.8 10.9006 20.3V15.65C10.9006 15.16 10.5006 14.75 10.0006 14.75Z" fill="#101010"/>
<path d="M3.49082 7.25005C3.99082 7.25005 4.39082 6.85005 4.39082 6.35005V1.70005C4.39082 1.20005 3.99082 0.800049 3.49082 0.800049C2.99082 0.800049 2.59082 1.20005 2.59082 1.70005V6.35005C2.59082 6.84005 2.99082 7.25005 3.49082 7.25005Z" fill="#101010"/>
<path d="M5.35047 9.17017H1.63047C1.13047 9.17017 0.730469 9.57017 0.730469 10.0702C0.730469 10.5702 1.13047 10.9702 1.63047 10.9702H2.59047V20.3002C2.59047 20.8002 2.99047 21.2002 3.49047 21.2002C3.99047 21.2002 4.39047 20.8002 4.39047 20.3002V10.9702H5.35047C5.85047 10.9702 6.25047 10.5702 6.25047 10.0702C6.25047 9.57017 5.84047 9.17017 5.35047 9.17017Z" fill="#101010"/>
<path d="M18.37 9.17017H14.65C14.15 9.17017 13.75 9.57017 13.75 10.0702C13.75 10.5702 14.15 10.9702 14.65 10.9702H15.61V20.3002C15.61 20.8002 16.01 21.2002 16.51 21.2002C17.01 21.2002 17.41 20.8002 17.41 20.3002V10.9702H18.37C18.87 10.9702 19.27 10.5702 19.27 10.0702C19.27 9.57017 18.87 9.17017 18.37 9.17017Z" fill="#101010"/>
<path d="M11.8602 11.03H10.9002V1.70005C10.9002 1.20005 10.5002 0.800049 10.0002 0.800049C9.50023 0.800049 9.10023 1.20005 9.10023 1.70005V11.03H8.14023C7.64023 11.03 7.24023 11.43 7.24023 11.93C7.24023 12.43 7.64023 12.83 8.14023 12.83H11.8602C12.3602 12.83 12.7602 12.43 12.7602 11.93C12.7602 11.43 12.3602 11.03 11.8602 11.03Z" fill="#101010"/>
</svg>
