<svg width="20" height="20" viewBox="0 0 20 20" fill="none" xmlns="http://www.w3.org/2000/svg">
<path d="M16.9401 3.41994L11.7701 0.429941C10.7801 -0.140059 9.23008 -0.140059 8.24008 0.429941L3.02008 3.43994C0.950078 4.83994 0.830078 5.04994 0.830078 7.27994V12.7099C0.830078 14.9399 0.950078 15.1599 3.06008 16.5799L8.23008 19.5699C8.73008 19.8599 9.37008 19.9999 10.0001 19.9999C10.6301 19.9999 11.2701 19.8599 11.7601 19.5699L16.9801 16.5599C19.0501 15.1599 19.1701 14.9499 19.1701 12.7199V7.27994C19.1701 5.04994 19.0501 4.83994 16.9401 3.41994ZM10.0001 13.2499C8.21008 13.2499 6.75008 11.7899 6.75008 9.99994C6.75008 8.20994 8.21008 6.74994 10.0001 6.74994C11.7901 6.74994 13.2501 8.20994 13.2501 9.99994C13.2501 11.7899 11.7901 13.2499 10.0001 13.2499Z" fill="#101010"/>
</svg>
