<svg width="20" height="20" viewBox="0 0 20 20" fill="none" xmlns="http://www.w3.org/2000/svg">
<path d="M19.2995 5.57993H13.7195C13.3295 5.57993 13.0195 5.26993 13.0195 4.87993C13.0195 4.48993 13.3295 4.17993 13.7195 4.17993H19.2995C19.6895 4.17993 19.9995 4.48993 19.9995 4.87993C19.9995 5.26993 19.6895 5.57993 19.2995 5.57993Z" fill="#101010"/>
<path d="M4.42 5.57993H0.7C0.31 5.57993 0 5.26993 0 4.87993C0 4.48993 0.31 4.17993 0.7 4.17993H4.42C4.81 4.17993 5.12 4.48993 5.12 4.87993C5.12 5.26993 4.8 5.57993 4.42 5.57993Z" fill="#101010"/>
<path d="M8.14043 8.82993C10.322 8.82993 12.0904 7.06146 12.0904 4.87993C12.0904 2.69841 10.322 0.929932 8.14043 0.929932C5.95891 0.929932 4.19043 2.69841 4.19043 4.87993C4.19043 7.06146 5.95891 8.82993 8.14043 8.82993Z" fill="#101010"/>
<path d="M19.2999 15.8099H15.5799C15.1899 15.8099 14.8799 15.4999 14.8799 15.1099C14.8799 14.7199 15.1899 14.4099 15.5799 14.4099H19.2999C19.6899 14.4099 19.9999 14.7199 19.9999 15.1099C19.9999 15.4999 19.6899 15.8099 19.2999 15.8099Z" fill="#101010"/>
<path d="M6.28 15.8099H0.7C0.31 15.8099 0 15.4999 0 15.1099C0 14.7199 0.31 14.4099 0.7 14.4099H6.28C6.67 14.4099 6.98 14.7199 6.98 15.1099C6.98 15.4999 6.66 15.8099 6.28 15.8099Z" fill="#101010"/>
<path d="M11.8602 19.0699C14.0417 19.0699 15.8102 17.3014 15.8102 15.1199C15.8102 12.9384 14.0417 11.1699 11.8602 11.1699C9.67863 11.1699 7.91016 12.9384 7.91016 15.1199C7.91016 17.3014 9.67863 19.0699 11.8602 19.0699Z" fill="#101010"/>
</svg>
