<svg width="21" height="21" viewBox="0 0 21 21" fill="none" xmlns="http://www.w3.org/2000/svg">
<path d="M11.4303 13H2.40034C0.580335 13 -0.579665 11.05 0.300335 9.45L2.63034 5.21L4.81034 1.24C5.72034 -0.410001 8.10034 -0.410001 9.01034 1.24L11.2003 5.21L12.2503 7.12L13.5303 9.45C14.4103 11.05 13.2503 13 11.4303 13Z" fill="#101010"/>
<path d="M20.6507 14C20.6507 17.59 17.7407 20.5 14.1507 20.5C11.1007 20.5 8.55075 18.41 7.84075 15.57C7.77075 15.27 8.00075 15 8.31075 15H12.0807C13.4707 15 14.7307 14.28 15.4407 13.09C16.1407 11.89 16.1707 10.45 15.4907 9.23L14.9907 8.31C14.8007 7.97 15.0707 7.56 15.4507 7.63C18.4107 8.23 20.6507 10.85 20.6507 14Z" fill="#101010"/>
</svg>
