<svg width="20" height="20" viewBox="0 0 20 20" fill="none" xmlns="http://www.w3.org/2000/svg">
<path d="M9.75 5H9H5C2.24 5 0 7.24 0 10V15C0 17.76 2.24 20 5 20H10C12.76 20 15 17.76 15 15V11V10.25C15 7.35 12.65 5 9.75 5Z" fill="#101010"/>
<path d="M19.8802 4.32999C20.4047 6.88958 19.1624 9.21194 17.1593 10.3057C16.8517 10.4736 16.5002 10.234 16.5002 9.88351V9.74999C16.5002 6.30999 13.6902 3.49999 10.2502 3.49999H10.1166C9.76617 3.49999 9.52654 3.14845 9.6945 2.84085C10.7882 0.837768 13.1106 -0.404591 15.6702 0.119989C17.7602 0.549989 19.4502 2.23999 19.8802 4.32999Z" fill="#101010"/>
</svg>
