<svg width="20" height="20" viewBox="0 0 20 20" fill="none" xmlns="http://www.w3.org/2000/svg">
<path d="M18.3601 10.7301C17.9901 10.7301 17.6801 10.4501 17.6401 10.0801C17.4001 7.88007 16.2201 5.90007 14.4001 4.64007C14.0701 4.41007 13.9901 3.96007 14.2201 3.63007C14.4501 3.30007 14.9001 3.22007 15.2301 3.45007C17.4001 4.96007 18.8001 7.32007 19.0901 9.93007C19.1301 10.3301 18.8401 10.6901 18.4401 10.7301C18.4101 10.7301 18.3901 10.7301 18.3601 10.7301Z" fill="#101010"/>
<path d="M1.74029 10.78C1.72029 10.78 1.69029 10.78 1.67029 10.78C1.27029 10.74 0.980288 10.38 1.02029 9.97996C1.29029 7.36996 2.67029 5.00996 4.82029 3.48996C5.14029 3.25996 5.60029 3.33996 5.83029 3.65996C6.06029 3.98996 5.98029 4.43996 5.66029 4.66996C3.86029 5.94996 2.69029 7.92996 2.47029 10.12C2.43029 10.5 2.11029 10.78 1.74029 10.78Z" fill="#101010"/>
<path d="M13.9906 19.1001C12.7606 19.6901 11.4406 19.9901 10.0606 19.9901C8.62059 19.9901 7.25059 19.6701 5.97059 19.0201C5.61059 18.8501 5.47059 18.4101 5.65059 18.0501C5.82059 17.6901 6.26059 17.5501 6.62059 17.7201C7.25059 18.0401 7.92059 18.2601 8.60059 18.3901C9.52059 18.5701 10.4606 18.5801 11.3806 18.4201C12.0606 18.3001 12.7306 18.0901 13.3506 17.7901C13.7206 17.6201 14.1606 17.7601 14.3206 18.1301C14.5006 18.4901 14.3606 18.9301 13.9906 19.1001Z" fill="#101010"/>
<path d="M10.0505 0.0100098C8.50047 0.0100098 7.23047 1.27001 7.23047 2.83001C7.23047 4.39001 8.49047 5.65001 10.0505 5.65001C11.6105 5.65001 12.8705 4.39001 12.8705 2.83001C12.8705 1.27001 11.6105 0.0100098 10.0505 0.0100098Z" fill="#101010"/>
<path d="M3.05047 11.8701C1.50047 11.8701 0.230469 13.1301 0.230469 14.6901C0.230469 16.2501 1.49047 17.5101 3.05047 17.5101C4.61047 17.5101 5.87047 16.2501 5.87047 14.6901C5.87047 13.1301 4.60047 11.8701 3.05047 11.8701Z" fill="#101010"/>
<path d="M16.9509 11.8701C15.4009 11.8701 14.1309 13.1301 14.1309 14.6901C14.1309 16.2501 15.3909 17.5101 16.9509 17.5101C18.5109 17.5101 19.7709 16.2501 19.7709 14.6901C19.7709 13.1301 18.5109 11.8701 16.9509 11.8701Z" fill="#101010"/>
</svg>
