<svg width="20" height="22" viewBox="0 0 20 22" fill="none" xmlns="http://www.w3.org/2000/svg">
<path d="M5.80023 21.15C3.15023 21.15 0.990234 19 0.990234 16.34V13.5C0.990234 12.83 1.65023 12.38 2.28023 12.6C2.54023 12.69 2.80023 12.75 3.07023 12.79C3.19023 12.81 3.31023 12.83 3.43023 12.83C3.58023 12.85 3.74023 12.86 3.89023 12.86C5.00023 12.86 6.10023 12.45 6.97023 11.74C7.80023 12.45 8.87023 12.86 10.0102 12.86C11.1502 12.86 12.2102 12.47 13.0402 11.75C13.9002 12.45 14.9802 12.86 16.0802 12.86C16.2502 12.86 16.4302 12.85 16.5902 12.83C16.7102 12.82 16.8102 12.81 16.9202 12.79C17.2202 12.75 17.4902 12.67 17.7602 12.58C18.3802 12.37 19.0302 12.83 19.0302 13.48V16.34C19.0302 18.99 16.8802 21.15 14.2202 21.15H5.80023Z" fill="#101010"/>
<path d="M19.9799 7.58998L19.6999 4.92998C19.2999 2.02998 17.9799 0.849976 15.1599 0.849976H12.8999H11.4799H8.55985H7.12985H4.81985C1.99985 0.849976 0.689852 2.02998 0.279852 4.95998L0.0198523 7.59998C-0.0801478 8.62998 0.199852 9.62998 0.809852 10.41C1.53985 11.36 2.65985 11.9 3.90985 11.9C5.11985 11.9 6.27985 11.29 7.00985 10.32C7.65985 11.29 8.77985 11.9 10.0199 11.9C11.2599 11.9 12.3499 11.32 13.0099 10.36C13.7499 11.31 14.8899 11.9 16.0899 11.9C17.3699 11.9 18.5199 11.33 19.2399 10.33C19.8199 9.55997 20.0799 8.58998 19.9799 7.58998ZM11.4999 6.72998H10.7499V7.50998C10.7499 7.92998 10.4099 8.25998 9.99985 8.25998C9.58985 8.25998 9.24985 7.92998 9.24985 7.50998V6.72998H8.49985C8.08985 6.72998 7.74985 6.39998 7.74985 5.97998C7.74985 5.56998 8.08985 5.22998 8.49985 5.22998H9.24985V4.51998C9.24985 4.10998 9.58985 3.76998 9.99985 3.76998C10.4099 3.76998 10.7499 4.10998 10.7499 4.51998V5.22998H11.4999C11.9099 5.22998 12.2499 5.56998 12.2499 5.97998C12.2499 6.39998 11.9099 6.72998 11.4999 6.72998Z" fill="#101010"/>
</svg>
