<svg width="20" height="20" viewBox="0 0 20 20" fill="none" xmlns="http://www.w3.org/2000/svg">
<path d="M18.9493 2.13C18.6593 1.71 18.2893 1.34 17.8693 1.05C16.9193 0.36 15.6793 0 14.1893 0H5.8093C2.3693 0 0.239297 1.94 0.0292969 5.22H19.9793C19.8993 3.99 19.5493 2.95 18.9493 2.13Z" fill="#101010"/>
<path d="M0 14.19C0 15.68 0.36 16.92 1.05 17.87C1.34 18.29 1.71 18.66 2.13 18.95C3.08 19.64 4.32 20 5.81 20H14.19C17.83 20 20 17.83 20 14.19V6.72H0V14.19ZM6.91 12.44L9.47 9.88C9.76 9.59 10.24 9.59 10.53 9.88L13.09 12.44C13.24 12.59 13.31 12.78 13.31 12.97C13.31 13.16 13.24 13.35 13.09 13.5C12.8 13.79 12.32 13.79 12.03 13.5L10 11.48L7.97 13.5C7.68 13.79 7.2 13.79 6.91 13.5C6.62 13.21 6.62 12.74 6.91 12.44Z" fill="#101010"/>
</svg>
