<svg width="20" height="20" viewBox="0 0 20 20" fill="none" xmlns="http://www.w3.org/2000/svg">
<path d="M1.04953 17.87C1.33953 18.29 1.70953 18.66 2.12953 18.95C3.07953 19.64 4.31953 20 5.80953 20H14.1895C17.6295 20 19.7595 18.06 19.9695 14.78H0.0195312C0.0995312 16.01 0.449531 17.05 1.04953 17.87Z" fill="#101010"/>
<path d="M18.95 2.13C18.66 1.71 18.29 1.34 17.87 1.05C16.92 0.36 15.68 0 14.19 0H5.81C2.17 0 0 2.17 0 5.81V13.28H20V5.81C20 4.32 19.64 3.08 18.95 2.13ZM13.09 7.56L10.53 10.12C10.24 10.41 9.76 10.41 9.47 10.12L6.91 7.56C6.76 7.41 6.69 7.22 6.69 7.03C6.69 6.84 6.76 6.64 6.91 6.5C7.2 6.2 7.68 6.2 7.97 6.5L10 8.52L12.03 6.49C12.32 6.2 12.8 6.2 13.09 6.49C13.38 6.78 13.38 7.26 13.09 7.56Z" fill="#101010"/>
</svg>
