<svg width="20" height="21" viewBox="0 0 20 21" fill="none" xmlns="http://www.w3.org/2000/svg">
<path d="M14 11.69V17.08C14 19.42 12.44 20.97 10.11 20.97H3.89C1.56 20.97 0 19.42 0 17.08V9.31001C0 6.97001 1.56 5.42001 3.89 5.42001H7.72C8.75 5.42001 9.74 5.83001 10.47 6.56001L12.86 8.94001C13.59 9.67001 14 10.66 14 11.69Z" fill="#101010"/>
<path d="M19.9995 7.25V12.64C19.9995 14.97 18.4395 16.53 16.1095 16.53H14.9995V11.69C14.9995 10.4 14.4795 9.14 13.5695 8.23L11.1795 5.85C10.2695 4.94 9.00953 4.42 7.71953 4.42H6.01953C6.19953 2.34 7.70953 0.970001 9.88953 0.970001H13.7195C14.7495 0.970001 15.7395 1.38 16.4695 2.11L18.8595 4.5C19.5895 5.23 19.9995 6.22 19.9995 7.25Z" fill="#101010"/>
</svg>
