<svg width="18" height="20" viewBox="0 0 18 20" fill="none" xmlns="http://www.w3.org/2000/svg">
<path d="M16.54 4.54L13.47 1.47C12.53 0.53 11.26 0 9.93 0H5C2 0 0 2 0 5V15C0 18 2 20 5 20H13C16 20 18 18 18 15V8.07C18 6.74 17.47 5.47 16.54 4.54ZM7.03 15.47C7.32 15.76 7.32 16.24 7.03 16.53C6.88 16.68 6.69 16.75 6.5 16.75C6.31 16.75 6.12 16.68 5.97 16.53L3.97 14.53C3.68 14.24 3.68 13.76 3.97 13.47L5.97 11.47C6.26 11.18 6.74 11.18 7.03 11.47C7.32 11.76 7.32 12.24 7.03 12.53L5.56 14L7.03 15.47ZM14.03 14.53L12.03 16.53C11.88 16.68 11.69 16.75 11.5 16.75C11.31 16.75 11.12 16.68 10.97 16.53C10.68 16.24 10.68 15.76 10.97 15.47L12.44 14L10.97 12.53C10.68 12.24 10.68 11.76 10.97 11.47C11.26 11.18 11.74 11.18 12.03 11.47L14.03 13.47C14.32 13.76 14.32 14.24 14.03 14.53Z" fill="#101010"/>
</svg>
