<svg width="21" height="20" viewBox="0 0 21 20" fill="none" xmlns="http://www.w3.org/2000/svg">
<path d="M17.53 3.53L3.53 17.53C3.51 17.55 3.5 17.56 3.48 17.57C3.1 17.25 2.75 16.9 2.43 16.52C0.91 14.77 0 12.49 0 10C0 4.48 4.48 0 10 0C12.49 0 14.77 0.91 16.52 2.43C16.9 2.75 17.25 3.1 17.57 3.48C17.56 3.5 17.55 3.51 17.53 3.53Z" fill="#101010"/>
<path d="M19.9999 10.0001C19.9999 15.4901 15.4899 20.0001 9.99986 20.0001C8.49986 20.0001 7.07986 19.6701 5.79986 19.0701C5.17986 18.7801 5.05986 17.9501 5.53986 17.4601L17.4599 5.5401C17.9399 5.0601 18.7799 5.1801 19.0699 5.8001C19.6699 7.0701 19.9999 8.5001 19.9999 10.0001Z" fill="#101010"/>
<path d="M19.7699 0.229883C19.4699 -0.0701172 18.9799 -0.0701172 18.6799 0.229883L0.229883 18.6899C-0.0701172 18.9899 -0.0701172 19.4799 0.229883 19.7799C0.379883 19.9199 0.569883 19.9999 0.769883 19.9999C0.969883 19.9999 1.15988 19.9199 1.30988 19.7699L19.7699 1.30988C20.0799 1.00988 20.0799 0.529883 19.7699 0.229883Z" fill="#101010"/>
</svg>
