<svg width="20" height="20" viewBox="0 0 20 20" fill="none" xmlns="http://www.w3.org/2000/svg">
<path d="M16.9396 1.5H3.05957C2.64957 1.5 2.30957 1.16 2.30957 0.75C2.30957 0.34 2.64957 0 3.05957 0H16.9396C17.3496 0 17.6896 0.34 17.6896 0.75C17.6896 1.16 17.3496 1.5 16.9396 1.5Z" fill="#101010"/>
<path d="M16.9396 20H3.05957C2.64957 20 2.30957 19.66 2.30957 19.25C2.30957 18.84 2.64957 18.5 3.05957 18.5H16.9396C17.3496 18.5 17.6896 18.84 17.6896 19.25C17.6896 19.66 17.3496 20 16.9396 20Z" fill="#101010"/>
<path d="M0.75 6V14C0.75 15.66 2.09 17 3.75 17H16.25C17.91 17 19.25 15.66 19.25 14V6C19.25 4.34 17.91 3 16.25 3H3.75C2.09 3 0.75 4.34 0.75 6Z" fill="#101010"/>
</svg>
