<svg width="20" height="20" viewBox="0 0 20 20" fill="none" xmlns="http://www.w3.org/2000/svg">
<path d="M7 20H13C14.66 20 16 18.66 16 17V3C16 1.34 14.66 0 13 0H7C5.34 0 4 1.34 4 3V17C4 18.66 5.34 20 7 20Z" fill="#101010"/>
<path d="M2.5 3.93V16.07C2.5 16.39 2.21 16.62 1.9 16.56C0.42 16.29 0 15.43 0 13.33V6.67C0 4.57 0.42 3.71 1.9 3.44C2.21 3.38 2.5 3.61 2.5 3.93Z" fill="#101010"/>
<path d="M20 6.67V13.33C20 15.43 19.58 16.29 18.1 16.56C17.79 16.62 17.5 16.38 17.5 16.07V3.93C17.5 3.61 17.79 3.38 18.1 3.44C19.58 3.71 20 4.57 20 6.67Z" fill="#101010"/>
</svg>
