<svg width="20" height="20" viewBox="0 0 20 20" fill="none" xmlns="http://www.w3.org/2000/svg">
<path d="M1.5 3.06V16.94C1.5 17.35 1.16 17.69 0.75 17.69C0.34 17.69 0 17.35 0 16.94V3.06C0 2.65 0.34 2.31 0.75 2.31C1.16 2.31 1.5 2.65 1.5 3.06Z" fill="#101010"/>
<path d="M20 3.06V16.94C20 17.35 19.66 17.69 19.25 17.69C18.84 17.69 18.5 17.35 18.5 16.94V3.06C18.5 2.65 18.84 2.31 19.25 2.31C19.66 2.31 20 2.65 20 3.06Z" fill="#101010"/>
<path d="M6 19.25H14C15.66 19.25 17 17.91 17 16.25V3.75C17 2.09 15.66 0.75 14 0.75H6C4.34 0.75 3 2.09 3 3.75V16.25C3 17.91 4.34 19.25 6 19.25Z" fill="#101010"/>
</svg>
