<svg width="21" height="20" viewBox="0 0 21 20" fill="none" xmlns="http://www.w3.org/2000/svg">
<path d="M18.952 2.13C18.662 1.71 18.292 1.34 17.872 1.05C16.922 0.36 15.682 0 14.192 0H5.81195C5.61195 0 5.41195 0.00999997 5.22195 0.03C1.94195 0.24 0.00195312 2.37 0.00195312 5.81V14.19C0.00195312 15.68 0.361953 16.92 1.05195 17.87C1.34195 18.29 1.71195 18.66 2.13195 18.95C2.95195 19.55 3.99195 19.9 5.22195 19.98C5.41195 19.99 5.61195 20 5.81195 20H14.192C17.832 20 20.002 17.83 20.002 14.19V5.81C20.002 4.32 19.642 3.08 18.952 2.13ZM9.39195 13.88H6.52195C6.11195 13.88 5.77195 13.54 5.77195 13.13C5.77195 12.72 6.11195 12.38 6.52195 12.38H7.52195V5.91H4.95195C4.84195 5.91 4.75195 6 4.75195 6.11V6.89C4.75195 7.3 4.41195 7.63 4.00195 7.63C3.59195 7.63 3.25195 7.3 3.25195 6.88V6.1C3.25195 5.16 4.01195 4.4 4.95195 4.4H11.592C12.532 4.4 13.292 5.16 13.292 6.1V6.88C13.292 7.29 12.952 7.63 12.542 7.63C12.132 7.63 11.792 7.29 11.792 6.88V6.1C11.792 5.99 11.702 5.9 11.592 5.9H9.02195V12.38H9.39195C9.80195 12.38 10.142 12.72 10.142 13.13C10.142 13.54 9.80195 13.88 9.39195 13.88ZM16.752 10.23C16.752 10.64 16.412 10.98 16.002 10.98C15.592 10.98 15.252 10.64 15.252 10.23V9.9H13.702V14.1H14.052C14.462 14.1 14.802 14.44 14.802 14.85C14.802 15.26 14.462 15.6 14.052 15.6H11.852C11.442 15.6 11.102 15.26 11.102 14.85C11.102 14.44 11.442 14.1 11.852 14.1H12.202V9.9H11.722C11.312 9.9 10.972 9.56 10.972 9.15C10.972 8.74 11.312 8.4 11.722 8.4H15.322C16.112 8.4 16.752 9.04 16.752 9.83V10.23Z" fill="#101010"/>
</svg>
