<svg width="21" height="20" viewBox="0 0 21 20" fill="none" xmlns="http://www.w3.org/2000/svg">
<path d="M19.8598 6.56004L12.9298 1.02003C11.8598 0.160035 10.1298 0.160035 9.06978 1.01003L2.13978 6.56004C1.35978 7.18004 0.859777 8.49003 1.02978 9.47003L2.35978 17.43C2.59978 18.85 3.95978 20 5.39978 20H16.5998C18.0298 20 19.3998 18.84 19.6398 17.43L20.9698 9.47003C21.1298 8.49003 20.6298 7.18004 19.8598 6.56004ZM8.37978 15.38C7.81978 15.38 7.37978 14.93 7.37978 14.38C7.37978 13.83 7.82978 13.38 8.37978 13.38C8.92978 13.38 9.37978 13.83 9.37978 14.38C9.37978 14.93 8.92978 15.38 8.37978 15.38ZM11.3898 15.12C11.3798 15.12 11.3798 15.12 11.3698 15.12C10.9598 15.12 10.6298 14.79 10.6198 14.39C10.5898 13.04 9.69978 12.15 8.34978 12.12C7.93978 12.11 7.60978 11.77 7.61978 11.35C7.62978 10.94 7.95978 10.62 8.36978 10.62C8.37978 10.62 8.37978 10.62 8.38978 10.62C10.5398 10.67 12.0798 12.2 12.1198 14.35C12.1298 14.77 11.8098 15.12 11.3898 15.12ZM14.3798 15.12C13.9598 15.12 13.6298 14.79 13.6198 14.38C13.6098 13.72 13.4998 13.09 13.2998 12.5C12.7898 11.04 11.6998 9.96003 10.2398 9.44003C9.64978 9.23003 9.01978 9.12003 8.35978 9.12003C7.94978 9.12003 7.60978 8.78003 7.61978 8.36003C7.61978 7.95003 7.95978 7.62003 8.36978 7.62003H8.37978C9.20978 7.63003 9.99978 7.77003 10.7398 8.03003C12.6298 8.70003 14.0398 10.11 14.7098 12C14.9698 12.74 15.1098 13.54 15.1198 14.36C15.1298 14.78 14.7998 15.12 14.3798 15.12Z" fill="#101010"/>
</svg>
