<svg width="20" height="18" viewBox="0 0 20 18" fill="none" xmlns="http://www.w3.org/2000/svg">
<path d="M17.5 5C18.8807 5 20 3.88071 20 2.5C20 1.11929 18.8807 0 17.5 0C16.1193 0 15 1.11929 15 2.5C15 3.88071 16.1193 5 17.5 5Z" fill="#101010"/>
<path d="M17.5 5C18.8807 5 20 3.88071 20 2.5C20 1.11929 18.8807 0 17.5 0C16.1193 0 15 1.11929 15 2.5C15 3.88071 16.1193 5 17.5 5Z" fill="#101010"/>
<path d="M18.72 6.31C18.02 6.53 17.25 6.57 16.45 6.37C15.11 6.02 14.02 4.95 13.65 3.61C13.47 2.96 13.46 2.32 13.57 1.74C13.7 1.1 13.25 0.5 12.61 0.5H5C2 0.5 0 2 0 5.5V12.5C0 16 2 17.5 5 17.5H15C18 17.5 20 16 20 12.5V7.26C20 6.6 19.36 6.1 18.72 6.31ZM13.52 8.15L12.34 9.09C11.68 9.62 10.84 9.88 10 9.88C9.16 9.88 8.31 9.62 7.66 9.09L4.53 6.59C4.21 6.33 4.16 5.85 4.41 5.53C4.67 5.21 5.14 5.15 5.46 5.41L8.59 7.91C9.35 8.52 10.64 8.52 11.4 7.91L12.58 6.97C12.9 6.71 13.38 6.76 13.63 7.09C13.89 7.41 13.84 7.89 13.52 8.15Z" fill="#101010"/>
</svg>
