<svg width="20" height="20" viewBox="0 0 20 20" fill="none" xmlns="http://www.w3.org/2000/svg">
<path d="M14.19 0H5.81C2.17 0 0 2.17 0 5.81V14.18C0 17.83 2.17 20 5.81 20H14.18C17.82 20 19.99 17.83 19.99 14.19V5.81C20 2.17 17.83 0 14.19 0ZM11.33 15H8.66C8.25 15 7.91 14.66 7.91 14.25C7.91 13.84 8.25 13.5 8.66 13.5H11.33C11.74 13.5 12.08 13.84 12.08 14.25C12.08 14.66 11.75 15 11.33 15ZM14 10.75H6C5.59 10.75 5.25 10.41 5.25 10C5.25 9.59 5.59 9.25 6 9.25H14C14.41 9.25 14.75 9.59 14.75 10C14.75 10.41 14.41 10.75 14 10.75ZM16 6.5H4C3.59 6.5 3.25 6.16 3.25 5.75C3.25 5.34 3.59 5 4 5H16C16.41 5 16.75 5.34 16.75 5.75C16.75 6.16 16.41 6.5 16 6.5Z" fill="#101010"/>
</svg>
