<svg width="20" height="20" viewBox="0 0 20 20" fill="none" xmlns="http://www.w3.org/2000/svg">
<path d="M1 14.5C0.59 14.5 0.25 14.16 0.25 13.75V6.25C0.25 5.84 0.59 5.5 1 5.5C1.41 5.5 1.75 5.84 1.75 6.25V13.75C1.75 14.16 1.41 14.5 1 14.5Z" fill="#101010"/>
<path d="M5.5 17C5.09 17 4.75 16.66 4.75 16.25V3.75C4.75 3.34 5.09 3 5.5 3C5.91 3 6.25 3.34 6.25 3.75V16.25C6.25 16.66 5.91 17 5.5 17Z" fill="#101010"/>
<path d="M10 19.5C9.59 19.5 9.25 19.16 9.25 18.75V1.25C9.25 0.84 9.59 0.5 10 0.5C10.41 0.5 10.75 0.84 10.75 1.25V18.75C10.75 19.16 10.41 19.5 10 19.5Z" fill="#101010"/>
<path d="M14.5 17C14.09 17 13.75 16.66 13.75 16.25V3.75C13.75 3.34 14.09 3 14.5 3C14.91 3 15.25 3.34 15.25 3.75V16.25C15.25 16.66 14.91 17 14.5 17Z" fill="#101010"/>
<path d="M19 14.5C18.59 14.5 18.25 14.16 18.25 13.75V6.25C18.25 5.84 18.59 5.5 19 5.5C19.41 5.5 19.75 5.84 19.75 6.25V13.75C19.75 14.16 19.41 14.5 19 14.5Z" fill="#101010"/>
</svg>
