<svg width="16" height="22" viewBox="0 0 16 22" fill="none" xmlns="http://www.w3.org/2000/svg">
<path d="M11.0001 0.619999H5.00012C1.81012 0.619999 0.620117 1.81 0.620117 5V17C0.620117 20.19 1.81012 21.38 5.00012 21.38H11.0001C14.1901 21.38 15.3801 20.19 15.3801 17V5C15.3801 1.81 14.1901 0.619999 11.0001 0.619999ZM8.00012 5C8.83012 5 9.50012 5.67 9.50012 6.5C9.50012 7.33 8.83012 8 8.00012 8C7.17012 8 6.50012 7.33 6.50012 6.5C6.50012 5.67 7.17012 5 8.00012 5ZM8.00012 17C6.34012 17 5.00012 15.66 5.00012 14C5.00012 12.34 6.34012 11 8.00012 11C9.66012 11 11.0001 12.34 11.0001 14C11.0001 15.66 9.66012 17 8.00012 17Z" fill="#101010"/>
</svg>
