<svg width="22" height="21" viewBox="0 0 22 21" fill="none" xmlns="http://www.w3.org/2000/svg">
<path d="M18.14 19.25C17.95 19.25 17.76 19.18 17.61 19.04C17.31 18.75 17.31 18.28 17.6 17.98C19.31 16.24 20.25 13.94 20.25 11.5C20.25 6.4 16.1 2.25 11 2.25C5.9 2.25 1.75 6.4 1.75 11.5C1.75 13.93 2.68 16.22 4.38 17.96C4.67 18.26 4.66 18.73 4.37 19.02C4.07 19.31 3.6 19.3 3.31 19.01C1.34 16.99 0.25 14.32 0.25 11.5C0.25 5.57 5.07 0.75 11 0.75C16.93 0.75 21.75 5.57 21.75 11.5C21.75 14.33 20.66 17.01 18.67 19.03C18.53 19.18 18.33 19.25 18.14 19.25Z" fill="#101010"/>
<path d="M11.0001 21C13.143 21 14.8801 19.2629 14.8801 17.12C14.8801 14.9771 13.143 13.24 11.0001 13.24C8.85725 13.24 7.12012 14.9771 7.12012 17.12C7.12012 19.2629 8.85725 21 11.0001 21Z" fill="#101010"/>
<path d="M15 7.5C13.9 7.5 13 8.4 13 9.5V10.25C13 10.94 13.56 11.5 14.25 11.5H15C16.1 11.5 17 10.6 17 9.5C17 8.4 16.1 7.5 15 7.5Z" fill="#101010"/>
</svg>
