<svg width="21" height="20" viewBox="0 0 21 20" fill="none" xmlns="http://www.w3.org/2000/svg">
<path d="M11.7299 1.51014L13.4899 5.03014C13.7299 5.52014 14.3699 5.99014 14.9099 6.08014L18.0999 6.61014C20.1399 6.95014 20.6199 8.43014 19.1499 9.89014L16.6699 12.3701C16.2499 12.7901 16.0199 13.6001 16.1499 14.1801L16.8599 17.2501C17.4199 19.6801 16.1299 20.6201 13.9799 19.3501L10.9899 17.5801C10.4499 17.2601 9.55991 17.2601 9.00991 17.5801L6.01991 19.3501C3.87991 20.6201 2.57991 19.6701 3.13991 17.2501L3.84991 14.1801C3.97991 13.6001 3.74991 12.7901 3.32991 12.3701L0.849909 9.89014C-0.610091 8.43014 -0.140091 6.95014 1.89991 6.61014L5.08991 6.08014C5.61991 5.99014 6.25991 5.52014 6.49991 5.03014L8.25991 1.51014C9.21991 -0.399863 10.7799 -0.399863 11.7299 1.51014Z" fill="#101010"/>
</svg>
