<svg width="22" height="22" viewBox="0 0 22 22" fill="none" xmlns="http://www.w3.org/2000/svg">
<path d="M7.99987 13.22H2.91987C2.30987 13.22 1.74987 13.53 1.42987 14.05C1.10987 14.56 1.07987 15.17 1.33987 15.71C2.56987 18.23 4.78987 20.21 7.42987 21.14C7.60987 21.2 7.80987 21.24 7.99987 21.24C8.34987 21.24 8.69987 21.13 8.99987 20.92C9.46987 20.59 9.74987 20.05 9.74987 19.48L9.75987 14.98C9.75987 14.51 9.57987 14.07 9.24987 13.74C8.90987 13.41 8.46987 13.22 7.99987 13.22Z" fill="#101010"/>
<path d="M21.4799 8.6C20.3599 3.68 16.0499 0.25 10.9999 0.25C5.94993 0.25 1.63993 3.68 0.519927 8.6C0.399927 9.12 0.519927 9.65 0.859927 10.07C1.19993 10.49 1.69993 10.73 2.23993 10.73H19.7699C20.3099 10.73 20.8099 10.49 21.1499 10.07C21.4799 9.65 21.5999 9.11 21.4799 8.6Z" fill="#101010"/>
<path d="M19.06 13.27L14 13.26C13.53 13.26 13.09 13.44 12.76 13.77C12.43 14.1 12.25 14.54 12.25 15.01L12.26 19.49C12.26 20.06 12.54 20.6 13.01 20.93C13.31 21.14 13.66 21.25 14.01 21.25C14.2 21.25 14.39 21.22 14.57 21.15C17.19 20.23 19.41 18.26 20.64 15.77C20.9 15.24 20.87 14.62 20.56 14.12C20.23 13.58 19.67 13.27 19.06 13.27Z" fill="#101010"/>
</svg>
