<svg width="21" height="20" viewBox="0 0 21 20" fill="none" xmlns="http://www.w3.org/2000/svg">
<path d="M20.96 9.66002C19.77 8.91002 18.39 8.50002 16.97 8.50002C12.83 8.50002 9.46999 11.86 9.46999 16C9.46999 17.42 9.86999 18.79 10.62 19.98C10.16 19.97 9.68999 19.92 9.20999 19.85C5.09999 19.15 1.78999 15.82 1.10999 11.7C-0.0200101 4.85002 5.81999 -0.989981 12.67 0.140019C16.79 0.820019 20.12 4.13002 20.82 8.24002C20.9 8.72002 20.95 9.20002 20.96 9.66002Z" fill="#101010"/>
<path d="M12.3802 19.86C11.5002 18.82 10.9702 17.47 10.9702 16C10.9702 12.69 13.6602 10 16.9702 10C18.4402 10 19.7902 10.53 20.8302 11.41" fill="#101010"/>
</svg>
