<svg width="20" height="20" viewBox="0 0 20 20" fill="none" xmlns="http://www.w3.org/2000/svg">
<path d="M14.19 0H5.81C2.17 0 0 2.17 0 5.81V14.18C0 17.83 2.17 20 5.81 20H14.18C17.82 20 19.99 17.83 19.99 14.19V5.81C20 2.17 17.83 0 14.19 0ZM4.5 10.57H7.27C7.68 10.57 8.02 10.91 8.02 11.32C8.02 11.73 7.68 12.07 7.27 12.07H4.5C4.09 12.07 3.75 11.73 3.75 11.32C3.75 10.91 4.09 10.57 4.5 10.57ZM10.97 15.83H4.5C4.09 15.83 3.75 15.49 3.75 15.08C3.75 14.67 4.09 14.33 4.5 14.33H10.97C11.38 14.33 11.72 14.67 11.72 15.08C11.72 15.49 11.39 15.83 10.97 15.83ZM15.5 15.83H13.65C13.24 15.83 12.9 15.49 12.9 15.08C12.9 14.67 13.24 14.33 13.65 14.33H15.5C15.91 14.33 16.25 14.67 16.25 15.08C16.25 15.49 15.91 15.83 15.5 15.83ZM15.5 12.07H9.97C9.56 12.07 9.22 11.73 9.22 11.32C9.22 10.91 9.56 10.57 9.97 10.57H15.5C15.91 10.57 16.25 10.91 16.25 11.32C16.25 11.73 15.91 12.07 15.5 12.07Z" fill="#101010"/>
</svg>
