<svg width="20" height="20" viewBox="0 0 20 20" fill="none" xmlns="http://www.w3.org/2000/svg">
<path d="M8 1.75H9.25V6.5C9.25 6.91 9.59 7.25 10 7.25C10.41 7.25 10.75 6.91 10.75 6.5V1.75H12C12.41 1.75 12.75 1.41 12.75 1C12.75 0.59 12.41 0.25 12 0.25H8C7.59 0.25 7.25 0.59 7.25 1C7.25 1.41 7.59 1.75 8 1.75Z" fill="#101010"/>
<path d="M12 18.25H10.75V13.5C10.75 13.09 10.41 12.75 10 12.75C9.59 12.75 9.25 13.09 9.25 13.5V18.25H8C7.59 18.25 7.25 18.59 7.25 19C7.25 19.41 7.59 19.75 8 19.75H12C12.41 19.75 12.75 19.41 12.75 19C12.75 18.59 12.41 18.25 12 18.25Z" fill="#101010"/>
<path d="M0.830365 7.88006C0.950365 7.95006 1.08036 7.98006 1.20036 7.98006C1.46036 7.98006 1.71036 7.85006 1.85036 7.60006L2.48036 6.52006L6.60037 8.90006C6.71037 8.97006 6.84036 9.00006 6.97037 9.00006C7.23036 9.00006 7.48036 8.87006 7.62036 8.62006C7.83036 8.27006 7.70037 7.81006 7.35037 7.60006L3.23036 5.22006L3.85036 4.14006C4.06036 3.78006 3.93036 3.32006 3.58036 3.12006C3.22036 2.91006 2.76036 3.03006 2.56036 3.39006L0.560365 6.85006C0.350365 7.22006 0.470365 7.67006 0.830365 7.88006Z" fill="#101010"/>
<path d="M19.1704 12.12C18.8104 11.91 18.3504 12.03 18.1504 12.39L17.5204 13.47L13.4004 11.1C13.0404 10.89 12.5804 11.02 12.3804 11.37C12.1704 11.73 12.3004 12.19 12.6504 12.39L16.7604 14.77L16.1404 15.85C15.9304 16.21 16.0604 16.67 16.4104 16.87C16.5304 16.94 16.6604 16.97 16.7804 16.97C17.0404 16.97 17.2904 16.84 17.4304 16.59L19.4304 13.13C19.6504 12.78 19.5304 12.33 19.1704 12.12Z" fill="#101010"/>
<path d="M16.7707 5.21994L12.6507 7.59995C12.2907 7.80995 12.1707 8.26994 12.3807 8.61994C12.5207 8.85994 12.7707 8.99994 13.0307 8.99994C13.1607 8.99994 13.2907 8.96994 13.4007 8.89994L17.5107 6.51994L18.1407 7.59995C18.2807 7.83994 18.5307 7.97994 18.7907 7.97994C18.9207 7.97994 19.0507 7.94994 19.1607 7.87994C19.5207 7.66994 19.6407 7.20994 19.4307 6.85994L17.4307 3.39994C17.2207 3.03994 16.7607 2.91994 16.4107 3.12994C16.0507 3.33994 15.9307 3.79994 16.1407 4.14994L16.7707 5.21994Z" fill="#101010"/>
<path d="M3.23036 14.78L7.34036 12.4C7.70037 12.19 7.82036 11.73 7.61036 11.38C7.40036 11.02 6.94036 10.9 6.59036 11.11L2.48036 13.49L1.85036 12.41C1.64036 12.05 1.18036 11.93 0.830365 12.14C0.470365 12.35 0.350365 12.81 0.560365 13.16L2.56036 16.62C2.70036 16.86 2.95036 17 3.21036 17C3.34036 17 3.47036 16.97 3.58036 16.9C3.94036 16.69 4.06036 16.23 3.85036 15.88L3.23036 14.78Z" fill="#101010"/>
<path d="M13.5 10C13.5 10.64 13.33 11.23 13.03 11.75C12.42 12.8 11.29 13.5 10 13.5C8.71 13.5 7.58 12.8 6.97 11.75C6.67 11.23 6.5 10.64 6.5 10C6.5 9.36 6.67 8.77 6.97 8.25C7.58 7.2 8.71 6.5 10 6.5C11.29 6.5 12.42 7.2 13.03 8.25C13.33 8.77 13.5 9.36 13.5 10Z" fill="#101010"/>
</svg>
