<svg width="20" height="20" viewBox="0 0 20 20" fill="none" xmlns="http://www.w3.org/2000/svg">
<path d="M17.8319 6.69999L13.3019 2.16999C12.3519 1.21999 11.0419 0.709988 9.70193 0.779988L4.70193 1.01999C2.70193 1.10999 1.11193 2.69999 1.01193 4.68999L0.771928 9.68999C0.711928 11.03 1.21193 12.34 2.16193 13.29L6.69193 17.82C8.55193 19.68 11.5719 19.68 13.4419 17.82L17.8319 13.43C19.7019 11.58 19.7019 8.55999 17.8319 6.69999ZM7.50193 10.38C5.92193 10.38 4.62193 9.08999 4.62193 7.49999C4.62193 5.90999 5.92193 4.61999 7.50193 4.61999C9.08193 4.61999 10.3819 5.90999 10.3819 7.49999C10.3819 9.08999 9.08193 10.38 7.50193 10.38ZM15.5319 11.53L11.5319 15.53C11.3819 15.68 11.1919 15.75 11.0019 15.75C10.8119 15.75 10.6219 15.68 10.4719 15.53C10.1819 15.24 10.1819 14.76 10.4719 14.47L14.4719 10.47C14.7619 10.18 15.2419 10.18 15.5319 10.47C15.8219 10.76 15.8219 11.24 15.5319 11.53Z" fill="#101010"/>
</svg>
