<svg width="18" height="20" viewBox="0 0 18 20" fill="none" xmlns="http://www.w3.org/2000/svg">
<path d="M15 0H3C1.34 0 0 1.33 0 2.97V13.88C0 15.52 1.34 16.86 3 16.86H3.76C4.55 16.86 5.32 17.17 5.88 17.73L7.59 19.42C8.37 20.19 9.63 20.19 10.41 19.42L12.12 17.73C12.68 17.17 13.45 16.86 14.24 16.86H15C16.66 16.86 18 15.52 18 13.88V2.97C18 1.33 16.66 0 15 0ZM9 3.55C10.08 3.55 10.95 4.43 10.95 5.5C10.95 6.56 10.11 7.41 9.07 7.45C9.03 7.45 8.97 7.45 8.92 7.45C7.87 7.41 7.04 6.56 7.04 5.5C7.05 4.43 7.92 3.55 9 3.55ZM11.75 12.69C10.24 13.7 7.76 13.7 6.25 12.69C4.92 11.81 4.92 10.35 6.25 9.46C7.77 8.45 10.25 8.45 11.75 9.46C13.08 10.35 13.08 11.8 11.75 12.69Z" fill="#101010"/>
</svg>
