<svg width="18" height="18" viewBox="0 0 18 18" fill="none" xmlns="http://www.w3.org/2000/svg">
<path d="M16.9994 16.26H7.92938C7.47938 16.26 7.10938 15.89 7.10938 15.44C7.10938 14.99 7.47938 14.62 7.92938 14.62H16.9994C17.4494 14.62 17.8194 14.99 17.8194 15.44C17.8194 15.9 17.4494 16.26 16.9994 16.26Z" fill="#101010"/>
<path d="M16.9994 9.96996H7.92938C7.47938 9.96996 7.10938 9.59996 7.10938 9.14996C7.10938 8.69996 7.47938 8.32996 7.92938 8.32996H16.9994C17.4494 8.32996 17.8194 8.69996 17.8194 9.14996C17.8194 9.59996 17.4494 9.96996 16.9994 9.96996Z" fill="#101010"/>
<path d="M16.9994 3.66997H7.92938C7.47938 3.66997 7.10938 3.29997 7.10938 2.84997C7.10938 2.39997 7.47938 2.02997 7.92938 2.02997H16.9994C17.4494 2.02997 17.8194 2.39997 17.8194 2.84997C17.8194 3.29997 17.4494 3.66997 16.9994 3.66997Z" fill="#101010"/>
<path d="M1.90969 5.02998C1.68969 5.02998 1.47969 4.93998 1.32969 4.78998L0.419687 3.87998C0.0996875 3.55998 0.0996875 3.03998 0.419687 2.71998C0.739688 2.39998 1.25969 2.39998 1.57969 2.71998L1.90969 3.04998L4.04969 0.909983C4.36969 0.589983 4.88969 0.589983 5.20969 0.909983C5.52969 1.22998 5.52969 1.74998 5.20969 2.06998L2.48969 4.78998C2.32969 4.93998 2.12969 5.02998 1.90969 5.02998Z" fill="#101010"/>
<path d="M1.90969 11.33C1.69969 11.33 1.48969 11.25 1.32969 11.09L0.419687 10.18C0.0996875 9.85997 0.0996875 9.33997 0.419687 9.01997C0.739688 8.69997 1.25969 8.69997 1.57969 9.01997L1.90969 9.34997L4.04969 7.20997C4.36969 6.88997 4.88969 6.88997 5.20969 7.20997C5.52969 7.52997 5.52969 8.04997 5.20969 8.36997L2.48969 11.09C2.32969 11.25 2.11969 11.33 1.90969 11.33Z" fill="#101010"/>
<path d="M1.90969 17.33C1.69969 17.33 1.48969 17.25 1.32969 17.09L0.419687 16.18C0.0996875 15.86 0.0996875 15.34 0.419687 15.02C0.739688 14.7 1.25969 14.7 1.57969 15.02L1.90969 15.35L4.04969 13.21C4.36969 12.89 4.88969 12.89 5.20969 13.21C5.52969 13.53 5.52969 14.05 5.20969 14.37L2.48969 17.09C2.32969 17.25 2.11969 17.33 1.90969 17.33Z" fill="#101010"/>
</svg>
