<svg width="21" height="20" viewBox="0 0 21 20" fill="none" xmlns="http://www.w3.org/2000/svg">
<path d="M11.752 10.75H10.252H6.50195V14.74C6.50195 15.02 6.73195 15.25 7.01195 15.25H11.752C12.992 15.25 14.002 14.24 14.002 13C14.002 11.76 12.992 10.75 11.752 10.75Z" fill="#101010"/>
<path d="M12.502 7C12.502 5.76 11.492 4.75 10.252 4.75H7.01195C6.73195 4.75 6.50195 4.98 6.50195 5.26V9.25H10.252C11.492 9.25 12.502 8.24 12.502 7Z" fill="#101010"/>
<path d="M18.952 2.13C18.662 1.71 18.292 1.34 17.872 1.05C16.922 0.36 15.682 0 14.192 0H5.81195C5.61195 0 5.41195 0.00999997 5.22195 0.03C1.94195 0.24 0.00195312 2.37 0.00195312 5.81V14.19C0.00195312 15.68 0.361953 16.92 1.05195 17.87C1.34195 18.29 1.71195 18.66 2.13195 18.95C2.95195 19.55 3.99195 19.9 5.22195 19.98C5.41195 19.99 5.61195 20 5.81195 20H14.192C17.832 20 20.002 17.83 20.002 14.19V5.81C20.002 4.32 19.642 3.08 18.952 2.13ZM11.752 16.75H7.01195C5.90195 16.75 5.00195 15.85 5.00195 14.74V10V5.26C5.00195 4.15 5.90195 3.25 7.01195 3.25H10.252C12.322 3.25 14.002 4.93 14.002 7C14.002 7.96 13.632 8.83 13.032 9.49C14.462 10.02 15.502 11.38 15.502 13C15.502 15.07 13.822 16.75 11.752 16.75Z" fill="#101010"/>
</svg>
