<svg width="20" height="20" viewBox="0 0 20 20" fill="none" xmlns="http://www.w3.org/2000/svg">
<path d="M14.192 0H5.81195C2.17195 0 0.00195312 2.17 0.00195312 5.81V14.18C0.00195312 17.83 2.17195 20 5.81195 20H14.182C17.822 20 19.992 17.83 19.992 14.19V5.81C20.002 2.17 17.832 0 14.192 0ZM15.672 7.22C15.482 7.59 15.042 7.74 14.662 7.56C13.432 6.94 12.102 6.6 10.752 6.5V14.29C10.752 14.7 10.412 15.04 10.002 15.04C9.59195 15.04 9.25195 14.7 9.25195 14.29V6.5C7.90195 6.6 6.57195 6.94 5.34195 7.56C5.23195 7.61 5.11195 7.63 5.00195 7.63C4.73195 7.63 4.46195 7.48 4.33195 7.22C4.14195 6.85 4.29195 6.4 4.66195 6.21C8.00195 4.54 11.992 4.54 15.332 6.21C15.712 6.4 15.862 6.85 15.672 7.22Z" fill="#101010"/>
</svg>
