<svg width="21" height="20" viewBox="0 0 21 20" fill="none" xmlns="http://www.w3.org/2000/svg">
<path d="M18.952 2.13C18.662 1.71 18.292 1.34 17.872 1.05C16.922 0.36 15.682 0 14.192 0H5.81195C5.61195 0 5.41195 0.00999997 5.22195 0.03C1.94195 0.24 0.00195312 2.37 0.00195312 5.81V14.19C0.00195312 15.68 0.361953 16.92 1.05195 17.87C1.34195 18.29 1.71195 18.66 2.13195 18.95C2.95195 19.55 3.99195 19.9 5.22195 19.98C5.41195 19.99 5.61195 20 5.81195 20H14.192C17.832 20 20.002 17.83 20.002 14.19V5.81C20.002 4.32 19.642 3.08 18.952 2.13ZM16.752 6.9C16.752 7.31 16.412 7.65 16.002 7.65C15.592 7.65 15.252 7.31 15.252 6.9V5.72C15.252 5.4 14.992 5.14 14.672 5.14H10.752V14.86H12.532C12.942 14.86 13.282 15.2 13.282 15.61C13.282 16.02 12.942 16.36 12.532 16.36H7.47195C7.06195 16.36 6.72195 16.02 6.72195 15.61C6.72195 15.2 7.06195 14.86 7.47195 14.86H9.25195V5.14H5.33195C5.01195 5.14 4.75195 5.4 4.75195 5.72V6.9C4.75195 7.31 4.41195 7.65 4.00195 7.65C3.59195 7.65 3.25195 7.31 3.25195 6.9V5.72C3.25195 4.57 4.18195 3.64 5.33195 3.64H14.662C15.812 3.64 16.742 4.57 16.742 5.72V6.9H16.752Z" fill="#101010"/>
</svg>
