<svg width="20" height="18" viewBox="0 0 20 18" fill="none" xmlns="http://www.w3.org/2000/svg">
<path d="M19.002 2.25H1.00195C0.591953 2.25 0.251953 1.91 0.251953 1.5C0.251953 1.09 0.591953 0.75 1.00195 0.75H19.002C19.412 0.75 19.752 1.09 19.752 1.5C19.752 1.91 19.412 2.25 19.002 2.25Z" fill="#101010"/>
<path d="M19.0022 7.25H9.53223C9.12223 7.25 8.78223 6.91 8.78223 6.5C8.78223 6.09 9.12223 5.75 9.53223 5.75H19.0022C19.4122 5.75 19.7522 6.09 19.7522 6.5C19.7522 6.91 19.4122 7.25 19.0022 7.25Z" fill="#101010"/>
<path d="M19.002 12.25H1.00195C0.591953 12.25 0.251953 11.91 0.251953 11.5C0.251953 11.09 0.591953 10.75 1.00195 10.75H19.002C19.412 10.75 19.752 11.09 19.752 11.5C19.752 11.91 19.412 12.25 19.002 12.25Z" fill="#101010"/>
<path d="M19.0022 17.25H9.53223C9.12223 17.25 8.78223 16.91 8.78223 16.5C8.78223 16.09 9.12223 15.75 9.53223 15.75H19.0022C19.4122 15.75 19.7522 16.09 19.7522 16.5C19.7522 16.91 19.4122 17.25 19.0022 17.25Z" fill="#101010"/>
</svg>
