<svg width="20" height="18" viewBox="0 0 20 18" fill="none" xmlns="http://www.w3.org/2000/svg">
<path d="M19.002 2.25H10.002C9.59195 2.25 9.25195 1.91 9.25195 1.5C9.25195 1.09 9.59195 0.75 10.002 0.75H19.002C19.412 0.75 19.752 1.09 19.752 1.5C19.752 1.91 19.412 2.25 19.002 2.25Z" fill="#101010"/>
<path d="M19.002 7.25H10.002C9.59195 7.25 9.25195 6.91 9.25195 6.5C9.25195 6.09 9.59195 5.75 10.002 5.75H19.002C19.412 5.75 19.752 6.09 19.752 6.5C19.752 6.91 19.412 7.25 19.002 7.25Z" fill="#101010"/>
<path d="M19.002 12.25H1.00195C0.591953 12.25 0.251953 11.91 0.251953 11.5C0.251953 11.09 0.591953 10.75 1.00195 10.75H19.002C19.412 10.75 19.752 11.09 19.752 11.5C19.752 11.91 19.412 12.25 19.002 12.25Z" fill="#101010"/>
<path d="M19.002 17.25H1.00195C0.591953 17.25 0.251953 16.91 0.251953 16.5C0.251953 16.09 0.591953 15.75 1.00195 15.75H19.002C19.412 15.75 19.752 16.09 19.752 16.5C19.752 16.91 19.412 17.25 19.002 17.25Z" fill="#101010"/>
</svg>
