<svg width="21" height="20" viewBox="0 0 21 20" fill="none" xmlns="http://www.w3.org/2000/svg">
<path d="M18.952 2.13C18.662 1.71 18.292 1.34 17.872 1.05C16.922 0.36 15.682 0 14.192 0H5.81195C5.61195 0 5.41195 0.00999997 5.22195 0.03C1.94195 0.24 0.00195312 2.37 0.00195312 5.81V14.19C0.00195312 15.68 0.361953 16.92 1.05195 17.87C1.34195 18.29 1.71195 18.66 2.13195 18.95C2.95195 19.55 3.99195 19.9 5.22195 19.98C5.41195 19.99 5.61195 20 5.81195 20H14.192C17.832 20 20.002 17.83 20.002 14.19V5.81C20.002 4.32 19.642 3.08 18.952 2.13ZM14.832 16.96H5.17195C4.76195 16.96 4.42195 16.62 4.42195 16.21C4.42195 15.8 4.76195 15.46 5.17195 15.46H14.842C15.252 15.46 15.592 15.8 15.592 16.21C15.592 16.62 15.252 16.96 14.832 16.96ZM15.582 8.62C15.582 11.7 13.082 14.2 10.002 14.2C6.92195 14.2 4.42195 11.7 4.42195 8.62V3.79C4.42195 3.38 4.76195 3.04 5.17195 3.04C5.58195 3.04 5.92195 3.38 5.92195 3.79V8.62C5.92195 10.87 7.75195 12.7 10.002 12.7C12.252 12.7 14.082 10.87 14.082 8.62V3.79C14.082 3.38 14.422 3.04 14.832 3.04C15.242 3.04 15.582 3.38 15.582 3.79V8.62Z" fill="#101010"/>
</svg>
