<svg width="21" height="20" viewBox="0 0 21 20" fill="none" xmlns="http://www.w3.org/2000/svg">
<path d="M18.952 2.13C18.662 1.71 18.292 1.34 17.872 1.05C16.922 0.36 15.682 0 14.192 0H5.81195C5.61195 0 5.41195 0.00999997 5.22195 0.03C1.94195 0.24 0.00195312 2.37 0.00195312 5.81V14.19C0.00195312 15.68 0.361953 16.92 1.05195 17.87C1.34195 18.29 1.71195 18.66 2.13195 18.95C2.95195 19.55 3.99195 19.9 5.22195 19.98C5.41195 19.99 5.61195 20 5.81195 20H14.192C17.832 20 20.002 17.83 20.002 14.19V5.81C20.002 4.32 19.642 3.08 18.952 2.13ZM13.872 5.51H11.922L9.68195 14.48H11.522C11.932 14.48 12.272 14.82 12.272 15.23C12.272 15.64 11.932 15.98 11.522 15.98H6.13195C5.72195 15.98 5.38195 15.64 5.38195 15.23C5.38195 14.82 5.72195 14.48 6.13195 14.48H8.13195L10.372 5.51H8.48195C8.07195 5.51 7.73195 5.17 7.73195 4.76C7.73195 4.35 8.07195 4.01 8.48195 4.01H13.862C14.272 4.01 14.612 4.35 14.612 4.76C14.612 5.17 14.282 5.51 13.872 5.51Z" fill="#101010"/>
</svg>
