<svg width="20" height="18" viewBox="0 0 20 18" fill="none" xmlns="http://www.w3.org/2000/svg">
<path d="M19.002 2.25H1.00195C0.591953 2.25 0.251953 1.91 0.251953 1.5C0.251953 1.09 0.591953 0.75 1.00195 0.75H19.002C19.412 0.75 19.752 1.09 19.752 1.5C19.752 1.91 19.412 2.25 19.002 2.25Z" fill="#101010"/>
<path d="M14.7417 7.25H5.26172C4.85172 7.25 4.51172 6.91 4.51172 6.5C4.51172 6.09 4.85172 5.75 5.26172 5.75H14.7317C15.1417 5.75 15.4817 6.09 15.4817 6.5C15.4817 6.91 15.1517 7.25 14.7417 7.25Z" fill="#101010"/>
<path d="M19.002 12.25H1.00195C0.591953 12.25 0.251953 11.91 0.251953 11.5C0.251953 11.09 0.591953 10.75 1.00195 10.75H19.002C19.412 10.75 19.752 11.09 19.752 11.5C19.752 11.91 19.412 12.25 19.002 12.25Z" fill="#101010"/>
<path d="M14.7417 17.25H5.26172C4.85172 17.25 4.51172 16.91 4.51172 16.5C4.51172 16.09 4.85172 15.75 5.26172 15.75H14.7317C15.1417 15.75 15.4817 16.09 15.4817 16.5C15.4817 16.91 15.1517 17.25 14.7417 17.25Z" fill="#101010"/>
</svg>
