<svg width="21" height="18" viewBox="0 0 21 18" fill="none" xmlns="http://www.w3.org/2000/svg">
<path d="M19.302 7.83999C19.692 7.83999 20.002 7.52999 20.002 7.13999V6.20999C20.002 2.10999 18.752 0.859985 14.652 0.859985H5.35195C1.25195 0.859985 0.00195312 2.10999 0.00195312 6.20999V6.67999C0.00195312 7.06999 0.311953 7.37999 0.701953 7.37999C1.60195 7.37999 2.33195 8.10999 2.33195 9.00999C2.33195 9.90999 1.60195 10.63 0.701953 10.63C0.311953 10.63 0.00195312 10.94 0.00195312 11.33V11.8C0.00195312 15.9 1.25195 17.15 5.35195 17.15H14.652C18.752 17.15 20.002 15.9 20.002 11.8C20.002 11.41 19.692 11.1 19.302 11.1C18.402 11.1 17.672 10.37 17.672 9.46999C17.672 8.56999 18.402 7.83999 19.302 7.83999ZM7.00195 5.87999C7.55195 5.87999 8.00195 6.32999 8.00195 6.87999C8.00195 7.42999 7.56195 7.87999 7.00195 7.87999C6.45195 7.87999 6.00195 7.42999 6.00195 6.87999C6.00195 6.32999 6.44195 5.87999 7.00195 5.87999ZM13.002 12.88C12.442 12.88 11.992 12.43 11.992 11.88C11.992 11.33 12.442 10.88 12.992 10.88C13.542 10.88 13.992 11.33 13.992 11.88C13.992 12.43 13.562 12.88 13.002 12.88ZM13.902 6.47999L7.17195 13.21C7.02195 13.36 6.83195 13.43 6.64195 13.43C6.45195 13.43 6.26195 13.36 6.11195 13.21C5.82195 12.92 5.82195 12.44 6.11195 12.15L12.842 5.41999C13.132 5.12999 13.612 5.12999 13.902 5.41999C14.192 5.70999 14.192 6.18999 13.902 6.47999Z" fill="#101010"/>
</svg>
