<svg width="22" height="18" viewBox="0 0 22 18" fill="none" xmlns="http://www.w3.org/2000/svg">
<path d="M21.002 7.75C21.412 7.75 21.752 7.41 21.752 7V6C21.752 1.59 20.412 0.25 16.002 0.25H9.75195V2.5C9.75195 2.91 9.41195 3.25 9.00195 3.25C8.59195 3.25 8.25195 2.91 8.25195 2.5V0.25H6.00195C1.59195 0.25 0.251953 1.59 0.251953 6V6.5C0.251953 6.91 0.591953 7.25 1.00195 7.25C1.96195 7.25 2.75195 8.04 2.75195 9C2.75195 9.96 1.96195 10.75 1.00195 10.75C0.591953 10.75 0.251953 11.09 0.251953 11.5V12C0.251953 16.41 1.59195 17.75 6.00195 17.75H8.25195V15.5C8.25195 15.09 8.59195 14.75 9.00195 14.75C9.41195 14.75 9.75195 15.09 9.75195 15.5V17.75H16.002C20.412 17.75 21.752 16.41 21.752 12C21.752 11.59 21.412 11.25 21.002 11.25C20.042 11.25 19.252 10.46 19.252 9.5C19.252 8.54 20.042 7.75 21.002 7.75ZM9.75195 11.17C9.75195 11.58 9.41195 11.92 9.00195 11.92C8.59195 11.92 8.25195 11.58 8.25195 11.17V6.83C8.25195 6.42 8.59195 6.08 9.00195 6.08C9.41195 6.08 9.75195 6.42 9.75195 6.83V11.17Z" fill="#101010"/>
</svg>
