<svg width="21" height="18" viewBox="0 0 21 18" fill="none" xmlns="http://www.w3.org/2000/svg">
<path d="M14.6516 0.859985H7.91158V3.87999C7.91158 4.26999 7.59158 4.57999 7.21158 4.57999C6.83158 4.57999 6.51158 4.26999 6.51158 3.87999V0.859985H5.35158C1.40158 0.859985 0.101583 2.03999 0.0115825 5.72999C0.00158251 5.90999 0.0815826 6.09999 0.211583 6.22999C0.341583 6.36999 0.511583 6.43999 0.711583 6.43999C2.11158 6.43999 3.26158 7.59999 3.26158 8.99999C3.26158 10.4 2.11158 11.56 0.711583 11.56C0.521583 11.56 0.341583 11.63 0.211583 11.77C0.0815826 11.9 0.00158251 12.09 0.0115825 12.27C0.101583 15.96 1.40158 17.14 5.35158 17.14H6.51158V14.12C6.51158 13.73 6.83158 13.42 7.21158 13.42C7.59158 13.42 7.91158 13.73 7.91158 14.12V17.14H14.6516C18.7516 17.14 20.0016 15.89 20.0016 11.79V6.20999C20.0016 2.10999 18.7516 0.859985 14.6516 0.859985ZM16.4716 8.89999L15.5416 9.79999C15.5016 9.82999 15.4916 9.88999 15.5016 9.93999L15.7216 11.21C15.7616 11.44 15.6716 11.68 15.4716 11.82C15.2816 11.96 15.0316 11.98 14.8216 11.87L13.6716 11.27C13.6316 11.25 13.5716 11.25 13.5316 11.27L12.3816 11.87C12.2916 11.92 12.1916 11.94 12.0916 11.94C11.9616 11.94 11.8416 11.9 11.7316 11.82C11.5416 11.68 11.4416 11.45 11.4816 11.21L11.7016 9.93999C11.7116 9.88999 11.6916 9.83999 11.6616 9.79999L10.7316 8.89999C10.5616 8.73999 10.5016 8.48999 10.5716 8.26999C10.6416 8.03999 10.8316 7.87999 11.0716 7.84999L12.3516 7.65999C12.4016 7.64999 12.4416 7.61999 12.4716 7.57999L13.0416 6.41999C13.1516 6.20999 13.3616 6.07999 13.6016 6.07999C13.8416 6.07999 14.0516 6.20999 14.1516 6.41999L14.7216 7.57999C14.7416 7.62999 14.7816 7.65999 14.8316 7.65999L16.1116 7.84999C16.3516 7.87999 16.5416 8.04999 16.6116 8.26999C16.7016 8.48999 16.6416 8.72999 16.4716 8.89999Z" fill="#101010"/>
</svg>
