<svg width="21" height="18" viewBox="0 0 21 18" fill="none" xmlns="http://www.w3.org/2000/svg">
<path d="M17.852 9.94C17.852 10.74 18.502 11.4 19.302 11.4C19.682 11.4 20.002 11.71 20.002 12.09C20.002 15.93 18.842 17.09 15.002 17.09H9.75204V15.5C9.75204 15.11 9.45204 14.79 9.07204 14.76C9.05204 14.75 9.02205 14.75 9.00204 14.75C8.59204 14.75 8.25204 15.09 8.25204 15.5V17.09H6.49204C4.61204 17.09 3.64204 15.68 2.76204 13.55L2.59204 13.13C2.45204 12.77 2.62204 12.36 2.98204 12.22C3.35204 12.08 3.64204 11.79 3.79204 11.41C3.95204 11.04 3.95204 10.63 3.80204 10.26C3.48204 9.49 2.60204 9.12 1.82204 9.43C1.65204 9.51 1.45204 9.51 1.28204 9.43C1.11204 9.36 0.982044 9.22 0.902044 9.04L0.752044 8.64C-0.737956 5.02 -0.0879552 3.47 3.53204 1.97L5.98204 0.959997C6.34204 0.809997 6.75204 0.979997 6.89204 1.34L9.07204 6.09C8.66204 6.09 8.25204 6.42 8.25204 6.83V11.17C8.25204 11.58 8.59204 11.92 9.00204 11.92C9.02205 11.92 9.05204 11.92 9.07204 11.91C9.45204 11.88 9.75204 11.56 9.75204 11.17V6.83C9.75204 6.44 9.45204 6.12 9.07204 6.09V1.93H15.002C18.842 1.93 20.002 3.09 20.002 6.93V7.78C20.002 8.17 19.682 8.48 19.302 8.48C18.502 8.48 17.852 9.13 17.852 9.94Z" fill="#101010"/>
</svg>
