<svg width="19" height="20" viewBox="0 0 19 20" fill="none" xmlns="http://www.w3.org/2000/svg">
<path d="M11.8896 1.45H6.10965C5.70965 1.45 5.38965 1.13 5.38965 0.73C5.38965 0.33 5.70965 0 6.10965 0H11.8896C12.2896 0 12.6096 0.32 12.6096 0.72C12.6096 1.12 12.2896 1.45 11.8896 1.45Z" fill="#101010"/>
<path d="M16.97 13H14.03C12.76 13 12 13.76 12 15.03V17.97C12 19.24 12.76 20 14.03 20H16.97C18.24 20 19 19.24 19 17.97V15.03C19 13.76 18.24 13 16.97 13ZM16.69 17.46L15.51 18.14C15.27 18.28 15.03 18.35 14.81 18.35C14.64 18.35 14.49 18.31 14.35 18.23C14.03 18.04 13.85 17.67 13.85 17.18V15.82C13.85 15.33 14.03 14.96 14.35 14.77C14.67 14.58 15.08 14.62 15.51 14.86L16.69 15.54C17.11 15.79 17.35 16.13 17.35 16.5C17.35 16.87 17.12 17.21 16.69 17.46Z" fill="#101010"/>
<path d="M11.0001 17.97V15.03C11.0001 13.22 12.2201 12 14.0301 12H16.9701C17.2001 12 17.4201 12.02 17.6301 12.06C17.6501 11.82 17.6701 11.58 17.6701 11.33C17.6701 6.54002 13.7801 2.65002 9.00008 2.65002C4.22008 2.65002 0.330078 6.54002 0.330078 11.33C0.330078 16.11 4.22008 20 9.00008 20C9.85008 20 10.6601 19.86 11.4401 19.64C11.1601 19.17 11.0001 18.61 11.0001 17.97ZM9.75008 11C9.75008 11.41 9.41008 11.75 9.00008 11.75C8.59008 11.75 8.25008 11.41 8.25008 11V6.00002C8.25008 5.59002 8.59008 5.25002 9.00008 5.25002C9.41008 5.25002 9.75008 5.59002 9.75008 6.00002V11Z" fill="#101010"/>
</svg>
