<svg width="18" height="20" viewBox="0 0 18 20" fill="none" xmlns="http://www.w3.org/2000/svg">
<path d="M12.7898 0H5.22977C1.44977 0 0.509766 1.01 0.509766 5.04V16.3C0.509766 18.96 1.96977 19.59 3.73977 17.69L3.74977 17.68C4.56977 16.81 5.81977 16.88 6.52977 17.83L7.53977 19.18C8.34977 20.25 9.65977 20.25 10.4698 19.18L11.4798 17.83C12.1998 16.87 13.4498 16.8 14.2698 17.68C16.0498 19.58 17.4998 18.95 17.4998 16.29V5.04C17.5098 1.01 16.5698 0 12.7898 0ZM11.7598 8.75H6.25977C5.84977 8.75 5.50977 8.41 5.50977 8C5.50977 7.59 5.84977 7.25 6.25977 7.25H11.7598C12.1698 7.25 12.5098 7.59 12.5098 8C12.5098 8.41 12.1698 8.75 11.7598 8.75Z" fill="#101010"/>
</svg>
