<svg width="20" height="22" viewBox="0 0 20 22" fill="none" xmlns="http://www.w3.org/2000/svg">
<path d="M19.0702 4.23C17.4602 4.07 15.8502 3.95 14.2302 3.86V3.85L14.0102 2.55C13.8602 1.63 13.6402 0.25 11.3002 0.25H8.68016C6.35016 0.25 6.13016 1.57 5.97016 2.54L5.76016 3.82C4.83016 3.88 3.90016 3.94 2.97016 4.03L0.930158 4.23C0.510158 4.27 0.210158 4.64 0.250158 5.05C0.290158 5.46 0.650157 5.76 1.07016 5.72L3.11016 5.52C8.35016 5 13.6302 5.2 18.9302 5.73C18.9602 5.73 18.9802 5.73 19.0102 5.73C19.3902 5.73 19.7202 5.44 19.7602 5.05C19.7902 4.64 19.4902 4.27 19.0702 4.23Z" fill="#101010"/>
<path d="M17.2302 7.14C16.9902 6.89 16.6602 6.75 16.3202 6.75H3.68024C3.34024 6.75 3.00024 6.89 2.77024 7.14C2.54024 7.39 2.41024 7.73 2.43024 8.08L3.05024 18.34C3.16024 19.86 3.30024 21.76 6.79024 21.76H13.2102C16.7002 21.76 16.8402 19.87 16.9502 18.34L17.5702 8.09C17.5902 7.73 17.4602 7.39 17.2302 7.14ZM11.6602 16.75H8.33024C7.92024 16.75 7.58024 16.41 7.58024 16C7.58024 15.59 7.92024 15.25 8.33024 15.25H11.6602C12.0702 15.25 12.4102 15.59 12.4102 16C12.4102 16.41 12.0702 16.75 11.6602 16.75ZM12.5002 12.75H7.50024C7.09024 12.75 6.75024 12.41 6.75024 12C6.75024 11.59 7.09024 11.25 7.50024 11.25H12.5002C12.9102 11.25 13.2502 11.59 13.2502 12C13.2502 12.41 12.9102 12.75 12.5002 12.75Z" fill="#101010"/>
</svg>
