<svg width="20" height="20" viewBox="0 0 20 20" fill="none" xmlns="http://www.w3.org/2000/svg">
<path d="M14.19 0H5.81C2.17 0 0 2.17 0 5.81V14.18C0 17.83 2.17 20 5.81 20H14.18C17.82 20 19.99 17.83 19.99 14.19V5.81C20 2.17 17.83 0 14.19 0ZM14.88 9.53C14.88 9.92 14.57 10.23 14.18 10.23C13.79 10.23 13.48 9.92 13.48 9.53V9.35L10.76 12.07C10.61 12.22 10.41 12.29 10.2 12.27C9.99 12.25 9.8 12.14 9.69 11.96L8.67 10.44L6.29 12.82C6.15 12.96 5.98 13.02 5.8 13.02C5.62 13.02 5.44 12.95 5.31 12.82C5.04 12.55 5.04 12.11 5.31 11.83L8.29 8.85C8.44 8.7 8.64 8.63 8.85 8.65C9.06 8.67 9.25 8.78 9.36 8.96L10.38 10.48L12.49 8.37H12.31C11.92 8.37 11.61 8.06 11.61 7.67C11.61 7.28 11.92 6.97 12.31 6.97H14.17C14.26 6.97 14.35 6.99 14.44 7.02C14.61 7.09 14.75 7.23 14.82 7.4C14.86 7.49 14.87 7.58 14.87 7.67V9.53H14.88Z" fill="#101010"/>
</svg>
