<svg width="20" height="20" viewBox="0 0 20 20" fill="none" xmlns="http://www.w3.org/2000/svg">
<path d="M9.25017 1.9001V10.9201C9.25017 11.2501 9.09017 11.5501 8.82017 11.7401L1.61017 16.7901C1.02017 17.2001 0.180175 16.8801 0.0501747 16.1701C-0.0998253 15.3101 0.100175 14.3001 0.700175 13.2101L3.82017 7.6001L6.76017 2.3101C6.99017 1.9001 7.24017 1.5401 7.50017 1.2301C8.10017 0.5301 9.25017 0.9801 9.25017 1.9001Z" fill="#101010"/>
<path d="M18.39 16.7901L11.18 11.7401C10.91 11.5501 10.75 11.2501 10.75 10.9201V1.9001C10.75 0.9801 11.9 0.5301 12.5 1.2301C12.76 1.5401 13.01 1.9001 13.24 2.3101L16.18 7.6001L19.3 13.2101C19.9 14.3001 20.1 15.3101 19.95 16.1701C19.82 16.8801 18.98 17.2001 18.39 16.7901Z" fill="#101010"/>
<path d="M3.26018 17.14L9.41018 13.04C9.74018 12.82 10.2802 12.82 10.6102 13.04L16.7602 17.14C18.3902 18.23 18.1202 19.12 16.1602 19.12H3.85018C1.90018 19.11 1.63018 18.22 3.26018 17.14Z" fill="#101010"/>
</svg>
