<svg width="22" height="20" viewBox="0 0 22 20" fill="none" xmlns="http://www.w3.org/2000/svg">
<path d="M21.501 13.5C21.781 13.5 22.001 13.72 22.001 14V15C22.001 16.66 20.661 18 19.001 18C19.001 16.35 17.651 15 16.001 15C14.351 15 13.001 16.35 13.001 18H11.001C11.001 16.35 9.65098 15 8.00098 15C6.35098 15 5.00098 16.35 5.00098 18C3.34098 18 2.00098 16.66 2.00098 15V13C2.00098 12.45 2.45098 12 3.00098 12H12.501C13.881 12 15.001 10.88 15.001 9.5V4C15.001 3.45 15.451 3 16.001 3H16.841C17.561 3 18.221 3.39 18.581 4.01L19.221 5.13C19.311 5.29 19.191 5.5 19.001 5.5C17.621 5.5 16.501 6.62 16.501 8V11C16.501 12.38 17.621 13.5 19.001 13.5H21.501Z" fill="#101010"/>
<path d="M8.00098 20C9.10555 20 10.001 19.1046 10.001 18C10.001 16.8954 9.10555 16 8.00098 16C6.89641 16 6.00098 16.8954 6.00098 18C6.00098 19.1046 6.89641 20 8.00098 20Z" fill="#101010"/>
<path d="M16.001 20C17.1055 20 18.001 19.1046 18.001 18C18.001 16.8954 17.1055 16 16.001 16C14.8964 16 14.001 16.8954 14.001 18C14.001 19.1046 14.8964 20 16.001 20Z" fill="#101010"/>
<path d="M22.001 10.53V12H19.001C18.451 12 18.001 11.55 18.001 11V8C18.001 7.45 18.451 7 19.001 7H20.291L21.741 9.54C21.911 9.84 22.001 10.18 22.001 10.53Z" fill="#101010"/>
<path d="M13.081 0H5.69098C3.90098 0 2.40098 1.28 2.07098 2.98H6.44098C6.82098 2.98 7.12098 3.29 7.12098 3.67C7.12098 4.05 6.82098 4.35 6.44098 4.35H2.00098V5.73H4.60098C4.98098 5.73 5.29098 6.04 5.29098 6.42C5.29098 6.8 4.98098 7.1 4.60098 7.1H2.00098V8.48H2.77098C3.15098 8.48 3.46098 8.79 3.46098 9.17C3.46098 9.55 3.15098 9.85 2.77098 9.85H2.00098V10.08C2.00098 10.63 2.45098 11.08 3.00098 11.08H12.151C13.171 11.08 14.001 10.25 14.001 9.23V0.92C14.001 0.41 13.591 0 13.081 0Z" fill="#101010"/>
<path d="M2.07098 2.97998H1.92098H0.940977C0.560977 2.97998 0.250977 3.28998 0.250977 3.66998C0.250977 4.04998 0.560977 4.34998 0.940977 4.34998H1.85098H2.00098V3.68998C2.00098 3.44998 2.03098 3.20998 2.07098 2.97998Z" fill="#101010"/>
<path d="M1.85098 5.72998H0.940977C0.560977 5.72998 0.250977 6.03998 0.250977 6.41998C0.250977 6.79998 0.560977 7.09998 0.940977 7.09998H1.85098H2.00098V5.72998H1.85098Z" fill="#101010"/>
<path d="M1.85098 8.47998H0.940977C0.560977 8.47998 0.250977 8.78998 0.250977 9.16998C0.250977 9.54998 0.560977 9.84998 0.940977 9.84998H1.85098H2.00098V8.47998H1.85098Z" fill="#101010"/>
</svg>
