<svg width="20" height="20" viewBox="0 0 20 20" fill="none" xmlns="http://www.w3.org/2000/svg">
<path d="M14.19 0H5.81C2.17 0 0 2.17 0 5.81V14.18C0 17.83 2.17 20 5.81 20H14.18C17.82 20 19.99 17.83 19.99 14.19V5.81C20 2.17 17.83 0 14.19 0ZM13.76 13.76C13.7 14.61 13.63 15.67 11.71 15.67H8.29C6.38 15.67 6.3 14.61 6.24 13.76L5.93 9.8C5.91 9.54 6 9.29 6.17 9.1C6.34 8.91 6.59 8.81 6.84 8.81H13.16C13.41 8.81 13.66 8.92 13.83 9.1C14 9.29 14.09 9.54 14.07 9.79L13.76 13.76ZM14.8 7.82C14.78 7.82 14.76 7.82 14.74 7.82C13.7 7.72 12.75 7.65 11.84 7.61C10.62 7.55 9.4 7.53 8.17 7.58C7.57 7.61 6.96 7.65 6.36 7.71L5.27 7.82C5.25 7.82 5.22 7.82 5.2 7.82C4.85 7.82 4.55 7.56 4.52 7.2C4.48 6.83 4.76 6.49 5.13 6.46L6.22 6.35C6.65 6.31 7.07 6.28 7.5 6.26L7.58 5.79C7.66 5.29 7.81 4.33 9.31 4.33H10.7C12.21 4.33 12.36 5.32 12.43 5.8L12.51 6.28C13.26 6.32 14.03 6.38 14.87 6.46C15.25 6.5 15.52 6.83 15.49 7.21C15.45 7.56 15.15 7.82 14.8 7.82Z" fill="#101010"/>
</svg>
