<svg width="20" height="21" viewBox="0 0 20 21" fill="none" xmlns="http://www.w3.org/2000/svg">
<path d="M10.0002 13C4.99016 13 0.910156 16.36 0.910156 20.5C0.910156 20.78 1.13016 21 1.41016 21H18.5902C18.8702 21 19.0902 20.78 19.0902 20.5C19.0902 16.36 15.0102 13 10.0002 13Z" fill="#101010"/>
<path d="M13.71 1.66C12.81 0.64 11.47 0 10 0C8.6 0 7.32 0.57 6.41 1.51C5.54 2.41 5 3.65 5 5C5 5.94 5.26 6.82 5.73 7.57C5.98 8 6.3 8.39 6.68 8.71C7.55 9.51 8.71 10 10 10C11.83 10 13.41 9.02 14.28 7.57C14.54 7.14 14.74 6.66 14.85 6.16C14.95 5.79 15 5.4 15 5C15 3.72 14.51 2.55 13.71 1.66ZM11.87 5.92H10.94V6.89C10.94 7.41 10.52 7.83 10 7.83C9.48 7.83 9.06 7.41 9.06 6.89V5.92H8.13C7.61 5.92 7.19 5.5 7.19 4.98C7.19 4.46 7.61 4.04 8.13 4.04H9.06V3.15C9.06 2.63 9.48 2.21 10 2.21C10.52 2.21 10.94 2.63 10.94 3.15V4.04H11.87C12.39 4.04 12.81 4.46 12.81 4.98C12.81 5.5 12.39 5.92 11.87 5.92Z" fill="#101010"/>
</svg>
