<svg width="20" height="20" viewBox="0 0 20 20" fill="none" xmlns="http://www.w3.org/2000/svg">
<path d="M10.0002 12C4.99016 12 0.910156 15.36 0.910156 19.5C0.910156 19.78 1.13016 20 1.41016 20H18.5902C18.8702 20 19.0902 19.78 19.0902 19.5C19.0902 15.36 15.0102 12 10.0002 12Z" fill="#101010"/>
<path d="M10 0C8.82 0 7.74 0.41 6.88 1.1C5.73 2.01 5 3.42 5 5C5 5.94 5.26 6.82 5.73 7.57C6.59 9.02 8.17 10 10 10C11.26 10 12.41 9.54 13.29 8.75C13.68 8.42 14.02 8.02 14.28 7.57C14.74 6.82 15 5.94 15 5C15 2.24 12.76 0 10 0ZM12.59 4.46L9.92 6.92C9.74 7.09 9.51 7.17 9.28 7.17C9.04 7.17 8.8 7.08 8.62 6.9L7.39 5.66C7.02 5.29 7.02 4.7 7.39 4.33C7.76 3.96 8.35 3.96 8.72 4.33L9.31 4.92L11.32 3.07C11.7 2.72 12.29 2.74 12.64 3.12C12.99 3.51 12.97 4.11 12.59 4.46Z" fill="#101010"/>
</svg>
