<svg width="20" height="20" viewBox="0 0 20 20" fill="none" xmlns="http://www.w3.org/2000/svg">
<path d="M10 0C7.24 0 5 2.24 5 5C5 7.76 7.24 10 10 10C12.76 10 15 7.76 15 5C15 2.24 12.76 0 10 0ZM12.17 4.51L9.47 7.21C9.37 7.31 9.16 7.41 9.02 7.44L7.99 7.58C7.61 7.63 7.35 7.37 7.41 7L7.56 5.97C7.58 5.83 7.68 5.62 7.79 5.52L10.49 2.82C10.95 2.36 11.5 2.14 12.18 2.82C12.85 3.51 12.63 4.05 12.17 4.51Z" fill="#101010"/>
<path d="M10.0002 12C4.99016 12 0.910156 15.36 0.910156 19.5C0.910156 19.78 1.13016 20 1.41016 20H18.5902C18.8702 20 19.0902 19.78 19.0902 19.5C19.0902 15.36 15.0102 12 10.0002 12Z" fill="#101010"/>
</svg>
