<svg width="20" height="20" viewBox="0 0 20 20" fill="none" xmlns="http://www.w3.org/2000/svg">
<path d="M10.0002 12C4.99016 12 0.910156 15.36 0.910156 19.5C0.910156 19.78 1.13016 20 1.41016 20H18.5902C18.8702 20 19.0902 19.78 19.0902 19.5C19.0902 15.36 15.0102 12 10.0002 12Z" fill="#101010"/>
<path d="M14.8506 3.79996C14.7306 3.30996 14.5306 2.82996 14.2506 2.38996C14.0606 2.06996 13.8106 1.74996 13.5406 1.46996C12.6406 0.569963 11.4706 0.0799625 10.2706 0.0199625C8.91058 -0.0700375 7.52058 0.429963 6.47058 1.46996C5.48058 2.44996 4.98058 3.75996 5.00058 5.07996C5.01058 6.32996 5.51058 7.57996 6.46058 8.53996C7.12058 9.19996 7.93058 9.63996 8.80058 9.83996C9.27058 9.95996 9.77058 10.02 10.2706 9.97996C11.4606 9.92996 12.6206 9.45996 13.5306 8.53996C14.8206 7.24996 15.2606 5.43996 14.8506 3.79996ZM12.0006 6.99996C11.6406 7.35996 11.0406 7.35996 10.6806 6.99996L9.99058 6.30996L9.33058 6.96996C8.97058 7.32996 8.37058 7.32996 8.01058 6.96996C7.64058 6.59996 7.64058 6.00996 8.00058 5.64996L8.66058 4.98996L8.02058 4.36996C7.66058 3.99996 7.66058 3.40996 8.02058 3.02996C8.39058 2.66996 8.98058 2.66996 9.36058 3.02996L9.98058 3.66996L10.6506 2.99996C11.0106 2.63996 11.6006 2.63996 11.9706 2.99996C12.3306 3.35996 12.3306 3.95996 11.9706 4.31996L11.3106 4.97996L12.0006 5.67996C12.3606 6.03996 12.3606 6.63996 12.0006 6.99996Z" fill="#101010"/>
</svg>
