<svg width="18" height="20" viewBox="0 0 18 20" fill="none" xmlns="http://www.w3.org/2000/svg">
<path d="M15 0H3C1.34 0 0 1.33 0 2.97V13.88C0 15.52 1.34 16.85 3 16.85H3.76C4.56 16.85 5.32 17.16 5.88 17.72L7.59 19.41C8.37 20.18 9.64 20.18 10.42 19.41L12.13 17.72C12.69 17.16 13.46 16.85 14.25 16.85H15C16.66 16.85 18 15.52 18 13.88V2.97C18 1.33 16.66 0 15 0ZM9 3.75C10.29 3.75 11.33 4.79 11.33 6.08C11.33 7.37 10.29 8.41 9 8.41C7.71 8.41 6.67 7.36 6.67 6.08C6.67 4.79 7.71 3.75 9 3.75ZM11.68 13.06H6.32C5.51 13.06 5.04 12.16 5.49 11.49C6.17 10.48 7.49 9.8 9 9.8C10.51 9.8 11.83 10.48 12.51 11.49C12.96 12.16 12.48 13.06 11.68 13.06Z" fill="#101010"/>
</svg>
