<svg width="21" height="22" viewBox="0 0 21 22" fill="none" xmlns="http://www.w3.org/2000/svg">
<path d="M19.5599 9.74006L18.1999 8.16006C17.9399 7.86006 17.7299 7.30006 17.7299 6.90006V5.20006C17.7299 4.14006 16.8599 3.27006 15.7999 3.27006H14.0999C13.7099 3.27006 13.1399 3.06006 12.8399 2.80006L11.2599 1.44006C10.5699 0.850059 9.43988 0.850059 8.73988 1.44006L7.16988 2.81006C6.86988 3.06006 6.29988 3.27006 5.90988 3.27006H4.17988C3.11988 3.27006 2.24988 4.14006 2.24988 5.20006V6.91006C2.24988 7.30006 2.03988 7.86006 1.78988 8.16006L0.439883 9.75006C-0.140117 10.4401 -0.140117 11.5601 0.439883 12.2501L1.78988 13.8401C2.03988 14.1401 2.24988 14.7001 2.24988 15.0901V16.8001C2.24988 17.8601 3.11988 18.7301 4.17988 18.7301H5.90988C6.29988 18.7301 6.86988 18.9401 7.16988 19.2001L8.74988 20.5601C9.43988 21.1501 10.5699 21.1501 11.2699 20.5601L12.8499 19.2001C13.1499 18.9401 13.7099 18.7301 14.1099 18.7301H15.8099C16.8699 18.7301 17.7399 17.8601 17.7399 16.8001V15.1001C17.7399 14.7101 17.9499 14.1401 18.2099 13.8401L19.5699 12.2601C20.1499 11.5701 20.1499 10.4301 19.5599 9.74006ZM14.1599 9.11006L9.32988 13.9401C9.18988 14.0801 8.99988 14.1601 8.79988 14.1601C8.59988 14.1601 8.40988 14.0801 8.26988 13.9401L5.84988 11.5201C5.55988 11.2301 5.55988 10.7501 5.84988 10.4601C6.13988 10.1701 6.61988 10.1701 6.90988 10.4601L8.79988 12.3501L13.0999 8.05006C13.3899 7.76006 13.8699 7.76006 14.1599 8.05006C14.4499 8.34006 14.4499 8.82006 14.1599 9.11006Z" fill="#101010"/>
</svg>
