<svg width="20" height="20" viewBox="0 0 20 20" fill="none" xmlns="http://www.w3.org/2000/svg">
<path d="M9.25 5.85999H0V14.19C0 14.25 -9.31323e-09 14.31 0.00999999 14.36H9.25V5.85999Z" fill="#101010"/>
<path d="M5.69043 4.36H9.25043V0H5.72043V4.24C5.72043 4.28 5.70043 4.32 5.69043 4.36Z" fill="#101010"/>
<path d="M4.21988 4.24003V0.160034C1.99988 0.620034 0.549883 2.10003 0.129883 4.36003H4.23988C4.22988 4.32003 4.21988 4.28003 4.21988 4.24003Z" fill="#101010"/>
<path d="M14.22 0H10.75V4.36H14.22V0Z" fill="#101010"/>
<path d="M15.71 4.36002H19.87C19.45 2.08002 17.98 0.590024 15.72 0.150024V4.33002C15.72 4.34002 15.71 4.35002 15.71 4.36002Z" fill="#101010"/>
<path d="M15.7197 19.85C17.9097 19.42 19.3497 18.02 19.8197 15.86H15.7197V19.85Z" fill="#101010"/>
<path d="M14.22 15.86H10.75V20H14.22V15.86Z" fill="#101010"/>
<path d="M10.75 14.36H19.99C20 14.31 20 14.25 20 14.19V5.85999H10.75V14.36Z" fill="#101010"/>
<path d="M9.24973 15.86H5.71973V20H9.24973V15.86Z" fill="#101010"/>
<path d="M0.179688 15.86C0.649687 18 2.06969 19.4 4.21969 19.84V15.86H0.179688Z" fill="#101010"/>
</svg>
