<svg width="21" height="21" viewBox="0 0 21 21" fill="none" xmlns="http://www.w3.org/2000/svg">
<path d="M19.98 13.67C19.94 13.61 19.89 13.55 19.84 13.5C19.03 12.57 17.83 12 16.5 12C15.24 12 14.09 12.52 13.27 13.36C12.48 14.17 12 15.28 12 16.5C12 17.34 12.24 18.14 12.65 18.82C12.88 19.2 13.17 19.55 13.51 19.84C13.56 19.89 13.61 19.93 13.67 19.98C13.67 19.98 13.67 19.98 13.68 19.98C14.44 20.62 15.42 21 16.5 21C18.14 21 19.57 20.12 20.35 18.82C20.58 18.43 20.76 18 20.87 17.55C20.96 17.21 21 16.86 21 16.5C21 15.43 20.62 14.44 19.98 13.67ZM18.23 18.21C18.08 18.36 17.89 18.43 17.7 18.43C17.51 18.43 17.32 18.36 17.17 18.21L16.51 17.55L15.82 18.24C15.67 18.39 15.48 18.46 15.29 18.46C15.1 18.46 14.91 18.39 14.76 18.24C14.47 17.95 14.47 17.47 14.76 17.18L15.45 16.49L14.79 15.83C14.5 15.54 14.5 15.06 14.79 14.77C15.08 14.48 15.56 14.48 15.85 14.77L16.51 15.43L17.14 14.8C17.43 14.51 17.91 14.51 18.2 14.8C18.49 15.09 18.49 15.57 18.2 15.86L17.57 16.49L18.23 17.15C18.53 17.44 18.53 17.91 18.23 18.21Z" fill="#101010"/>
<path d="M12.7295 3.86V0.5C12.7295 0.22 12.5095 0 12.2295 0H7.76953C7.48953 0 7.26953 0.22 7.26953 0.5V3.86C7.26953 4.14 7.48953 4.36 7.76953 4.36H12.2295C12.5095 4.36 12.7295 4.14 12.7295 3.86Z" fill="#101010"/>
<path d="M5.25047 0.0199655C2.69047 0.179965 0.940467 1.49997 0.290467 3.69997C0.190467 4.02997 0.430467 4.35997 0.770467 4.35997H5.27047C5.55047 4.35997 5.77047 4.13997 5.77047 3.85997V0.519966C5.77047 0.239966 5.53047 -3.44925e-05 5.25047 0.0199655Z" fill="#101010"/>
<path d="M14.7505 0.00995574C17.3105 0.169956 19.0605 1.48996 19.7105 3.68996C19.8105 4.01996 19.5705 4.34996 19.2305 4.34996H14.7305C14.4505 4.34996 14.2305 4.12996 14.2305 3.84996V0.509956C14.2305 0.229956 14.4705 -0.0100443 14.7505 0.00995574Z" fill="#101010"/>
<path d="M20 6.35998V10.74C20 11.11 19.61 11.35 19.28 11.18C18.44 10.74 17.48 10.5 16.5 10.5C14.89 10.5 13.32 11.16 12.2 12.31C11.1 13.43 10.5 14.92 10.5 16.5C10.5 17.31 10.82 18.35 11.22 19.22C11.38 19.57 11.14 20 10.75 20H5.81C2.6 20 0 17.4 0 14.19V6.35998C0 6.07998 0.22 5.85999 0.5 5.85999H19.5C19.78 5.85999 20 6.07998 20 6.35998Z" fill="#101010"/>
</svg>
