<svg width="20" height="20" viewBox="0 0 20 20" fill="none" xmlns="http://www.w3.org/2000/svg">
<path d="M17.5099 3.85L11.5699 0.42C10.5999 -0.14 9.39992 -0.14 8.41992 0.42L2.48992 3.85C1.51992 4.41 0.919922 5.45 0.919922 6.58V13.42C0.919922 14.54 1.51992 15.58 2.48992 16.15L8.42992 19.58C9.39992 20.14 10.5999 20.14 11.5799 19.58L17.5199 16.15C18.4899 15.59 19.0899 14.55 19.0899 13.42V6.58C19.0799 5.45 18.4799 4.42 17.5099 3.85ZM12.2499 11.4L11.2099 12L10.1699 12.6C8.83992 13.37 7.74992 12.74 7.74992 11.2V10V8.8C7.74992 7.26 8.83992 6.63 10.1699 7.4L11.2099 8L12.2499 8.6C13.5799 9.37 13.5799 10.63 12.2499 11.4Z" fill="#101010"/>
</svg>
