<svg width="21" height="21" viewBox="0 0 21 21" fill="none" xmlns="http://www.w3.org/2000/svg">
<path d="M19.98 13.65C19.16 12.64 17.91 12 16.5 12C15.44 12 14.46 12.37 13.69 12.99C12.65 13.81 12 15.08 12 16.5C12 17.91 12.64 19.16 13.65 19.98C14.42 20.62 15.42 21 16.5 21C17.64 21 18.67 20.57 19.47 19.88C20.4 19.05 21 17.85 21 16.5C21 15.42 20.62 14.42 19.98 13.65ZM17.53 16.78C17.53 17.04 17.39 17.29 17.17 17.42L15.76 18.26C15.64 18.33 15.51 18.37 15.37 18.37C15.12 18.37 14.87 18.24 14.73 18.01C14.52 17.65 14.63 17.19 14.99 16.98L16.03 16.36V15.1C16.03 14.69 16.37 14.35 16.78 14.35C17.19 14.35 17.53 14.69 17.53 15.1V16.78Z" fill="#101010"/>
<path d="M12.7295 3.86V0.5C12.7295 0.22 12.5095 0 12.2295 0H7.76953C7.48953 0 7.26953 0.22 7.26953 0.5V3.86C7.26953 4.14 7.48953 4.36 7.76953 4.36H12.2295C12.5095 4.36 12.7295 4.14 12.7295 3.86Z" fill="#101010"/>
<path d="M5.25047 0.0199655C2.69047 0.179965 0.940467 1.49997 0.290467 3.69997C0.190467 4.02997 0.430467 4.35997 0.770467 4.35997H5.27047C5.55047 4.35997 5.77047 4.13997 5.77047 3.85997V0.519966C5.77047 0.239966 5.53047 -3.44925e-05 5.25047 0.0199655Z" fill="#101010"/>
<path d="M14.7505 0.00995574C17.3105 0.169956 19.0605 1.48996 19.7105 3.68996C19.8105 4.01996 19.5705 4.34996 19.2305 4.34996H14.7305C14.4505 4.34996 14.2305 4.12996 14.2305 3.84996V0.509956C14.2305 0.229956 14.4705 -0.0100443 14.7505 0.00995574Z" fill="#101010"/>
<path d="M20 6.35998V10.74C20 11.11 19.61 11.35 19.28 11.18C18.44 10.74 17.48 10.5 16.5 10.5C14.89 10.5 13.32 11.16 12.2 12.31C11.1 13.43 10.5 14.92 10.5 16.5C10.5 17.31 10.82 18.35 11.22 19.22C11.38 19.57 11.14 20 10.75 20H5.81C2.6 20 0 17.4 0 14.19V6.35998C0 6.07998 0.22 5.85999 0.5 5.85999H19.5C19.78 5.85999 20 6.07998 20 6.35998Z" fill="#101010"/>
</svg>
