<svg width="20" height="20" viewBox="0 0 20 20" fill="none" xmlns="http://www.w3.org/2000/svg">
<path d="M4.36 5.78003H0V9.25003H4.36V5.78003Z" fill="#101010"/>
<path d="M4.36039 4.29V0.130005C2.08039 0.550005 0.590391 2.02 0.150391 4.28H4.33039C4.34039 4.28 4.35039 4.29 4.36039 4.29Z" fill="#101010"/>
<path d="M4.36 14.31V10.75H0V14.28H4.24C4.28 14.28 4.32 14.3 4.36 14.31Z" fill="#101010"/>
<path d="M19.8504 4.28005C19.4204 2.09005 18.0204 0.650054 15.8604 0.180054V4.28005H19.8504Z" fill="#101010"/>
<path d="M14.3604 9.25V0.00999999C14.3104 -9.31323e-09 14.2504 0 14.1904 0H5.86035V9.25H14.3604Z" fill="#101010"/>
<path d="M20.0004 10.75H15.8604V14.28H20.0004V10.75Z" fill="#101010"/>
<path d="M15.8604 19.82C18.0004 19.35 19.4004 17.93 19.8404 15.78H15.8604V19.82Z" fill="#101010"/>
<path d="M4.24016 15.78H0.160156C0.620156 18 2.10016 19.45 4.36016 19.87V15.76C4.32016 15.77 4.28016 15.78 4.24016 15.78Z" fill="#101010"/>
<path d="M20.0004 5.78003H15.8604V9.25003H20.0004V5.78003Z" fill="#101010"/>
<path d="M5.86035 10.75V20H14.1904C14.2504 20 14.3104 20 14.3604 19.99V10.75H5.86035Z" fill="#101010"/>
</svg>
