<svg width="22" height="18" viewBox="0 0 22 18" fill="none" xmlns="http://www.w3.org/2000/svg">
<path d="M20.15 3.17C19.74 2.95 18.88 2.72 17.71 3.54L16.24 4.58C16.13 1.47 14.78 0.25 11.5 0.25H5.5C2.08 0.25 0.75 1.58 0.75 5V13C0.75 15.3 2 17.75 5.5 17.75H11.5C14.78 17.75 16.13 16.53 16.24 13.42L17.71 14.46C18.33 14.9 18.87 15.04 19.3 15.04C19.67 15.04 19.96 14.93 20.15 14.83C20.56 14.62 21.25 14.05 21.25 12.62V5.38C21.25 3.95 20.56 3.38 20.15 3.17ZM10 8.38C8.97 8.38 8.12 7.54 8.12 6.5C8.12 5.46 8.97 4.62 10 4.62C11.03 4.62 11.88 5.46 11.88 6.5C11.88 7.54 11.03 8.38 10 8.38Z" fill="#101010"/>
</svg>
