<svg width="20" height="20" viewBox="0 0 20 20" fill="none" xmlns="http://www.w3.org/2000/svg">
<path d="M10 0C4.48 0 0 4.48 0 10C0 15.52 4.48 20 10 20C15.52 20 20 15.52 20 10C20 4.48 15.52 0 10 0ZM4.75 12.14C4.75 12.55 4.41 12.89 4 12.89C3.59 12.89 3.25 12.55 3.25 12.14V7.86C3.25 7.45 3.59 7.11 4 7.11C4.41 7.11 4.75 7.45 4.75 7.86V12.14ZM7.75 13.57C7.75 13.98 7.41 14.32 7 14.32C6.59 14.32 6.25 13.98 6.25 13.57V6.43C6.25 6.02 6.59 5.68 7 5.68C7.41 5.68 7.75 6.02 7.75 6.43V13.57ZM10.75 15C10.75 15.41 10.41 15.75 10 15.75C9.59 15.75 9.25 15.41 9.25 15V5C9.25 4.59 9.59 4.25 10 4.25C10.41 4.25 10.75 4.59 10.75 5V15ZM13.75 13.57C13.75 13.98 13.41 14.32 13 14.32C12.59 14.32 12.25 13.98 12.25 13.57V6.43C12.25 6.02 12.59 5.68 13 5.68C13.41 5.68 13.75 6.02 13.75 6.43V13.57ZM16.75 12.14C16.75 12.55 16.41 12.89 16 12.89C15.59 12.89 15.25 12.55 15.25 12.14V7.86C15.25 7.45 15.59 7.11 16 7.11C16.41 7.11 16.75 7.45 16.75 7.86V12.14Z" fill="#101010"/>
</svg>
