<svg width="22" height="18" viewBox="0 0 22 18" fill="none" xmlns="http://www.w3.org/2000/svg">
<path d="M17.0003 13.75C16.8403 13.75 16.6903 13.7 16.5503 13.6C16.2203 13.35 16.1503 12.88 16.4003 12.55C17.9703 10.46 17.9703 7.54003 16.4003 5.45003C16.1503 5.12003 16.2203 4.65003 16.5503 4.40003C16.8803 4.15003 17.3503 4.22003 17.6003 4.55003C19.5603 7.17003 19.5603 10.83 17.6003 13.45C17.4503 13.65 17.2303 13.75 17.0003 13.75Z" fill="#101010"/>
<path d="M18.8304 16.25C18.6704 16.25 18.5204 16.2 18.3804 16.1C18.0504 15.85 17.9804 15.38 18.2304 15.05C20.9004 11.49 20.9004 6.51003 18.2304 2.95003C17.9804 2.62003 18.0504 2.15003 18.3804 1.90003C18.7104 1.65003 19.1804 1.72003 19.4304 2.05003C22.5004 6.14003 22.5004 11.86 19.4304 15.95C19.2904 16.15 19.0604 16.25 18.8304 16.25Z" fill="#101010"/>
<path d="M13.02 0.779968C11.9 0.159968 10.47 0.319968 9.01 1.22997L6.09 3.05997C5.89 3.17997 5.66 3.24997 5.43 3.24997H4.5H4C1.58 3.24997 0.25 4.57997 0.25 6.99997V11C0.25 13.42 1.58 14.75 4 14.75H4.5H5.43C5.66 14.75 5.89 14.82 6.09 14.94L9.01 16.77C9.89 17.32 10.75 17.59 11.55 17.59C12.07 17.59 12.57 17.47 13.02 17.22C14.13 16.6 14.75 15.31 14.75 13.59V4.40997C14.75 2.68997 14.13 1.39997 13.02 0.779968Z" fill="#101010"/>
</svg>
