<svg width="16" height="18" viewBox="0 0 16 18" fill="none" xmlns="http://www.w3.org/2000/svg">
<path d="M13.52 0.779968C12.4 0.159968 10.97 0.319968 9.51 1.22997L6.59 3.05997C6.39 3.17997 6.16 3.24997 5.93 3.24997H5H4.5C2.08 3.24997 0.75 4.57997 0.75 6.99997V11C0.75 13.42 2.08 14.75 4.5 14.75H5H5.93C6.16 14.75 6.39 14.82 6.59 14.94L9.51 16.77C10.39 17.32 11.25 17.59 12.05 17.59C12.57 17.59 13.07 17.47 13.52 17.22C14.63 16.6 15.25 15.31 15.25 13.59V4.40997C15.25 2.68997 14.63 1.39997 13.52 0.779968Z" fill="#101010"/>
</svg>
