<svg width="23" height="22" viewBox="0 0 23 22" fill="none" xmlns="http://www.w3.org/2000/svg">
<path d="M1.23132 19.6817L1.99132 18.9217C1.59132 18.3217 1.36132 17.6017 1.36132 16.8317C1.36132 14.7217 3.07132 13.0117 5.18132 13.0117C7.29132 13.0117 9.00132 14.7117 9.00132 16.8217C9.00132 18.9317 7.29132 20.6417 5.18132 20.6417C4.41132 20.6417 3.69132 20.4117 3.09132 20.0117L2.33132 20.7717C2.17132 20.9217 1.97132 21.0017 1.77132 21.0017C1.57132 21.0017 1.37132 20.9217 1.22132 20.7717C0.921324 20.4717 0.921324 19.9817 1.23132 19.6817Z" fill="#101010"/>
<path d="M21.5015 10.5H19.0015C17.9015 10.5 17.0015 11.4 17.0015 12.5C17.0015 13.6 17.9015 14.5 19.0015 14.5H21.5015C21.7815 14.5 22.0015 14.28 22.0015 14V11C22.0015 10.72 21.7815 10.5 21.5015 10.5Z" fill="#101010"/>
<path d="M16.5317 3.40003C16.8317 3.69003 16.5817 4.14003 16.1617 4.14003L7.88167 4.13003C7.40167 4.13003 7.16167 3.55003 7.50167 3.21003L9.25167 1.45003C10.7317 -0.0199659 13.1217 -0.0199659 14.6017 1.45003L16.4917 3.36003C16.5017 3.37003 16.5217 3.39003 16.5317 3.40003Z" fill="#101010"/>
<path d="M21.8713 16.66C21.2613 18.72 19.5013 20 17.1013 20H10.6013C10.2113 20 9.96133 19.57 10.1213 19.21C10.4213 18.51 10.6113 17.72 10.6113 17C10.6113 13.97 8.14133 11.5 5.11133 11.5C4.35133 11.5 3.61133 11.66 2.93133 11.96C2.56133 12.12 2.11133 11.87 2.11133 11.47V10C2.11133 7.28 3.75133 5.38 6.30133 5.06C6.55133 5.02 6.82133 5 7.10133 5H17.1013C17.3613 5 17.6113 5.01 17.8513 5.05C19.8713 5.28 21.3313 6.51 21.8713 8.34C21.9713 8.67 21.7313 9 21.3913 9H19.1013C16.9313 9 15.2113 10.98 15.6813 13.23C16.0113 14.87 17.5313 16 19.2013 16H21.3913C21.7413 16 21.9713 16.34 21.8713 16.66Z" fill="#101010"/>
</svg>
