<svg width="21" height="18" viewBox="0 0 21 18" fill="none" xmlns="http://www.w3.org/2000/svg">
<path d="M20.0022 7.96995V10.03C20.0022 10.58 19.5622 11.03 19.0022 11.05H17.0422C15.9622 11.05 14.9722 10.26 14.8822 9.17995C14.8222 8.54995 15.0622 7.95995 15.4822 7.54995C15.8522 7.16995 16.3622 6.94995 16.9222 6.94995H19.0022C19.5622 6.96995 20.0022 7.41995 20.0022 7.96995Z" fill="#101010"/>
<path d="M18.472 12.55H17.042C15.142 12.55 13.542 11.12 13.382 9.3C13.292 8.26 13.672 7.22 14.432 6.48C15.072 5.82 15.962 5.45 16.922 5.45H18.472C18.762 5.45 19.002 5.21 18.972 4.92C18.752 2.49 17.142 0.83 14.752 0.55C14.512 0.51 14.262 0.5 14.002 0.5H5.00195C4.72195 0.5 4.45195 0.52 4.19195 0.56C1.64195 0.88 0.00195312 2.78 0.00195312 5.5V12.5C0.00195312 15.26 2.24195 17.5 5.00195 17.5H14.002C16.802 17.5 18.732 15.75 18.972 13.08C19.002 12.79 18.762 12.55 18.472 12.55ZM11.002 6.75H5.00195C4.59195 6.75 4.25195 6.41 4.25195 6C4.25195 5.59 4.59195 5.25 5.00195 5.25H11.002C11.412 5.25 11.752 5.59 11.752 6C11.752 6.41 11.412 6.75 11.002 6.75Z" fill="#101010"/>
</svg>
