<svg width="21" height="18" viewBox="0 0 21 18" fill="none" xmlns="http://www.w3.org/2000/svg">
<path d="M18.972 13.08C18.732 15.75 16.802 17.5 14.002 17.5H5.00195C2.24195 17.5 0.00195312 15.26 0.00195312 12.5V5.5C0.00195312 2.78 1.64195 0.88 4.19195 0.56C4.45195 0.52 4.72195 0.5 5.00195 0.5H14.002C14.262 0.5 14.512 0.51 14.752 0.55C17.142 0.83 18.762 2.5 18.972 4.92C19.002 5.21 18.762 5.45 18.472 5.45H16.922C15.962 5.45 15.072 5.82 14.432 6.48C13.672 7.22 13.292 8.26 13.382 9.3C13.542 11.12 15.142 12.55 17.042 12.55H18.472C18.762 12.55 19.002 12.79 18.972 13.08Z" fill="#101010"/>
<path d="M20.0022 7.96995V10.03C20.0022 10.58 19.5622 11.03 19.0022 11.05H17.0422C15.9622 11.05 14.9722 10.26 14.8822 9.17995C14.8222 8.54995 15.0622 7.95995 15.4822 7.54995C15.8522 7.16995 16.3622 6.94995 16.9222 6.94995H19.0022C19.5622 6.96995 20.0022 7.41995 20.0022 7.96995Z" fill="#101010"/>
</svg>
