<svg width="20" height="20" viewBox="0 0 20 20" fill="none" xmlns="http://www.w3.org/2000/svg">
<path d="M19.4523 11.64V12.64C19.4523 12.91 19.2423 13.13 18.9623 13.14H17.5023C16.9723 13.14 16.4923 12.75 16.4523 12.23C16.4223 11.92 16.5423 11.63 16.7423 11.43C16.9223 11.24 17.1723 11.14 17.4423 11.14H18.9523C19.2423 11.15 19.4523 11.37 19.4523 11.64Z" fill="#101010"/>
<path d="M15.9921 10.69C15.4921 11.18 15.2521 11.91 15.4521 12.67C15.7121 13.6 16.6221 14.19 17.5821 14.19H18.4521C19.0021 14.19 19.4521 14.64 19.4521 15.19V15.38C19.4521 17.45 17.7621 19.14 15.6921 19.14H4.21215C2.14215 19.14 0.452148 17.45 0.452148 15.38V8.65001C0.452148 7.42001 1.04215 6.33001 1.95215 5.65001C2.58215 5.17001 3.36215 4.89001 4.21215 4.89001H15.6921C17.7621 4.89001 19.4521 6.58001 19.4521 8.65001V9.09001C19.4521 9.64002 19.0021 10.09 18.4521 10.09H17.4321C16.8721 10.09 16.3621 10.31 15.9921 10.69Z" fill="#101010"/>
<path d="M14.202 2.82C14.472 3.09 14.242 3.51 13.862 3.51L6.18201 3.5C5.74201 3.5 5.51201 2.96 5.83201 2.65L7.45201 1.02C8.82201 -0.34 11.042 -0.34 12.412 1.02L14.162 2.79C14.172 2.8 14.192 2.81 14.202 2.82Z" fill="#101010"/>
</svg>
