<svg width="21" height="20" viewBox="0 0 21 20" fill="none" xmlns="http://www.w3.org/2000/svg">
<path d="M20.0022 10.62V12.68C20.0022 13.24 19.5422 13.7 18.9722 13.7H17.0422C15.9622 13.7 14.9722 12.91 14.8822 11.83C14.8222 11.2 15.0622 10.61 15.4822 10.2C15.8522 9.81998 16.3622 9.59998 16.9222 9.59998H18.9722C19.5422 9.59998 20.0022 10.06 20.0022 10.62Z" fill="#101010"/>
<path d="M13.382 11.96C13.292 10.91 13.672 9.88002 14.432 9.13002C15.072 8.48002 15.962 8.10002 16.922 8.10002H17.492C17.772 8.10002 18.002 7.87002 17.962 7.59002C17.692 5.65002 16.012 4.15002 14.002 4.15002H4.00195C1.79195 4.15002 0.00195312 5.94002 0.00195312 8.15002V15.15C0.00195312 17.36 1.79195 19.15 4.00195 19.15H14.002C16.022 19.15 17.692 17.65 17.962 15.71C18.002 15.43 17.772 15.2 17.492 15.2H17.042C15.142 15.2 13.542 13.78 13.382 11.96ZM11.002 9.90002H5.00195C4.59195 9.90002 4.25195 9.57002 4.25195 9.15002C4.25195 8.73002 4.59195 8.40002 5.00195 8.40002H11.002C11.412 8.40002 11.752 8.74002 11.752 9.15002C11.752 9.56002 11.412 9.90002 11.002 9.90002Z" fill="#101010"/>
<path d="M12.2116 1.97998C12.4716 2.24998 12.2416 2.64998 11.8616 2.64998H4.03162C2.94162 2.64998 1.92162 2.96998 1.07162 3.51998C0.681616 3.76998 0.151616 3.49998 0.341616 3.06998C0.901616 1.75998 2.21162 0.849976 3.72162 0.849976H9.34162C10.5016 0.849976 11.5316 1.25998 12.2116 1.97998Z" fill="#101010"/>
</svg>
