<svg width="24" height="14" viewBox="0 0 24 14" fill="none" xmlns="http://www.w3.org/2000/svg">
<path d="M17.1797 0.25C15.4697 0.25 13.4297 0.9 13.4297 4V10C13.4297 13.1 15.4697 13.75 17.1797 13.75C18.8897 13.75 20.9297 13.1 20.9297 10V4C20.9297 0.9 18.8897 0.25 17.1797 0.25Z" fill="#101010"/>
<path d="M6.82031 0.25C5.11031 0.25 3.07031 0.9 3.07031 4V10C3.07031 13.1 5.11031 13.75 6.82031 13.75C8.53031 13.75 10.5703 13.1 10.5703 10V4C10.5703 0.9 8.53031 0.25 6.82031 0.25Z" fill="#101010"/>
<path d="M13.4303 6.25H10.5703V7.75H13.4303V6.25Z" fill="#101010"/>
<path d="M22.5 10.25C22.09 10.25 21.75 9.91 21.75 9.5V4.5C21.75 4.09 22.09 3.75 22.5 3.75C22.91 3.75 23.25 4.09 23.25 4.5V9.5C23.25 9.91 22.91 10.25 22.5 10.25Z" fill="#101010"/>
<path d="M1.5 10.25C1.09 10.25 0.75 9.91 0.75 9.5V4.5C0.75 4.09 1.09 3.75 1.5 3.75C1.91 3.75 2.25 4.09 2.25 4.5V9.5C2.25 9.91 1.91 10.25 1.5 10.25Z" fill="#101010"/>
</svg>
