<svg width="20" height="20" viewBox="0 0 20 20" fill="none" xmlns="http://www.w3.org/2000/svg">
<path d="M14.19 0H5.81C2.17 0 0 2.17 0 5.81V14.18C0 17.83 2.17 20 5.81 20H14.18C17.82 20 19.99 17.83 19.99 14.19V5.81C20 2.17 17.83 0 14.19 0ZM12.79 14.6C12.64 14.79 12.42 14.89 12.2 14.89C12.04 14.89 11.88 14.84 11.74 14.73C10.68 13.91 9.31 13.91 8.25 14.73C7.92 14.98 7.45 14.92 7.2 14.6C6.95 14.27 7.01 13.8 7.33 13.55C8.92 12.32 11.06 12.32 12.65 13.55C12.99 13.8 13.05 14.27 12.79 14.6ZM15 11.51C14.85 11.7 14.63 11.8 14.41 11.8C14.25 11.8 14.09 11.75 13.95 11.64C11.55 9.79 8.46 9.79 6.06 11.64C5.73 11.9 5.26 11.84 5 11.51C4.74 11.18 4.81 10.71 5.13 10.46C8.08 8.18 11.9 8.18 14.85 10.46C15.19 10.71 15.25 11.18 15 11.51ZM16.59 8.42C16.44 8.61 16.22 8.71 16 8.71C15.84 8.71 15.68 8.66 15.54 8.55C12.17 5.95 7.82 5.95 4.46 8.55C4.13 8.8 3.66 8.74 3.41 8.42C3.16 8.09 3.22 7.62 3.54 7.37C7.46 4.34 12.53 4.34 16.46 7.37C16.79 7.62 16.85 8.09 16.59 8.42Z" fill="#101010"/>
</svg>
