<svg width="22" height="16" viewBox="0 0 22 16" fill="none" xmlns="http://www.w3.org/2000/svg">
<path d="M18.0899 8.5899C17.9299 8.5899 17.7699 8.5399 17.6299 8.4299C13.5999 5.3199 8.38993 5.3199 4.35993 8.4299C4.02993 8.6799 3.55993 8.6199 3.30993 8.2999C3.05993 7.9699 3.11993 7.4999 3.43993 7.2499C8.02993 3.6999 13.9599 3.6999 18.5399 7.2499C18.8699 7.4999 18.9299 7.9699 18.6699 8.2999C18.5399 8.4899 18.3199 8.5899 18.0899 8.5899Z" fill="#101010"/>
<path d="M21 5.1099C20.84 5.1099 20.68 5.0599 20.54 4.9499C14.74 0.469902 7.25001 0.469902 1.46001 4.9499C1.13001 5.1999 0.660007 5.1399 0.410007 4.8199C0.150007 4.4999 0.210007 4.0199 0.540007 3.7699C6.89001 -1.1401 15.1 -1.1401 21.46 3.7699C21.79 4.0199 21.85 4.4899 21.59 4.8199C21.45 5.0099 21.22 5.1099 21 5.1099Z" fill="#101010"/>
<path d="M16.2096 12.2398C16.0496 12.2398 15.8896 12.1898 15.7496 12.0798C12.8696 9.84979 9.13958 9.84979 6.24958 12.0798C5.91958 12.3298 5.44958 12.2698 5.19958 11.9498C4.94958 11.6198 5.00958 11.1498 5.32958 10.8998C8.76958 8.23979 13.2196 8.23979 16.6596 10.8998C16.9896 11.1498 17.0496 11.6198 16.7896 11.9498C16.6496 12.1398 16.4296 12.2398 16.2096 12.2398Z" fill="#101010"/>
<path d="M13.6002 15.9C13.4402 15.9 13.2802 15.85 13.1402 15.74C11.8402 14.73 10.1502 14.73 8.85017 15.74C8.52017 15.99 8.05017 15.93 7.80017 15.61C7.55017 15.28 7.61017 14.81 7.93017 14.56C9.79017 13.12 12.1902 13.12 14.0502 14.56C14.3802 14.81 14.4402 15.28 14.1802 15.61C14.0502 15.79 13.8302 15.9 13.6002 15.9Z" fill="#101010"/>
</svg>
