<svg width="22" height="21" viewBox="0 0 22 21" fill="none" xmlns="http://www.w3.org/2000/svg">
<path d="M17.5 20.75C15.16 20.75 13.25 18.84 13.25 16.5V16C13.25 15.59 13.59 15.25 14 15.25C14.41 15.25 14.75 15.59 14.75 16V16.5C14.75 18.02 15.98 19.25 17.5 19.25C19.02 19.25 20.25 18.02 20.25 16.5C20.25 14.98 19.02 13.75 17.5 13.75H1C0.59 13.75 0.25 13.41 0.25 13C0.25 12.59 0.59 12.25 1 12.25H17.5C19.84 12.25 21.75 14.16 21.75 16.5C21.75 18.84 19.84 20.75 17.5 20.75Z" fill="#101010"/>
<path d="M17.5 10.75H1C0.59 10.75 0.25 10.41 0.25 10C0.25 9.59 0.59 9.25 1 9.25H17.5C19.02 9.25 20.25 8.02 20.25 6.5C20.25 4.98 19.02 3.75 17.5 3.75C15.98 3.75 14.75 4.98 14.75 6.5V7C14.75 7.41 14.41 7.75 14 7.75C13.59 7.75 13.25 7.41 13.25 7V6.5C13.25 4.16 15.16 2.25 17.5 2.25C19.84 2.25 21.75 4.16 21.75 6.5C21.75 8.84 19.84 10.75 17.5 10.75Z" fill="#101010"/>
<path d="M8.31 7.75H1C0.59 7.75 0.25 7.41 0.25 7C0.25 6.59 0.59 6.25 1 6.25H8.31C9.38 6.25 10.25 5.38 10.25 4.31C10.25 3.24 9.38 2.37 8.31 2.37C7.24 2.37 6.37 3.24 6.37 4.31V4.69C6.37 5.1 6.03 5.44 5.62 5.44C5.21 5.44 4.87 5.11 4.87 4.69V4.31C4.87 2.41 6.41 0.869995 8.31 0.869995C10.21 0.869995 11.75 2.41 11.75 4.31C11.75 6.21 10.21 7.75 8.31 7.75Z" fill="#101010"/>
</svg>
