<svg width="22" height="22" viewBox="0 0 22 22" fill="none" xmlns="http://www.w3.org/2000/svg">
<path d="M17.85 10.75H15.15C12.49 10.75 11.25 9.51001 11.25 6.85001V4.14999C11.25 1.48999 12.49 0.25 15.15 0.25H17.85C20.51 0.25 21.75 1.48999 21.75 4.14999V6.85001C21.75 9.51001 20.51 10.75 17.85 10.75ZM15.15 1.75C13.31 1.75 12.75 2.30999 12.75 4.14999V6.85001C12.75 8.69001 13.31 9.25 15.15 9.25H17.85C19.69 9.25 20.25 8.69001 20.25 6.85001V4.14999C20.25 2.30999 19.69 1.75 17.85 1.75H15.15Z" fill="#101010"/>
<path d="M6.85 21.75H4.15C1.49 21.75 0.25 20.51 0.25 17.85V15.15C0.25 12.49 1.49 11.25 4.15 11.25H6.85C9.51 11.25 10.75 12.49 10.75 15.15V17.85C10.75 20.51 9.51 21.75 6.85 21.75ZM4.15 12.75C2.31 12.75 1.75 13.31 1.75 15.15V17.85C1.75 19.69 2.31 20.25 4.15 20.25H6.85C8.69 20.25 9.25 19.69 9.25 17.85V15.15C9.25 13.31 8.69 12.75 6.85 12.75H4.15Z" fill="#101010"/>
<path d="M12.6201 17.13H10.0001C9.59011 17.13 9.25011 16.79 9.25011 16.38V15.15C9.25011 13.31 8.69011 12.75 6.85011 12.75H5.62012C5.21012 12.75 4.87012 12.41 4.87012 12V9.38C4.87012 6.26 6.26011 4.87 9.38011 4.87H12.0001C12.4101 4.87 12.7501 5.21 12.7501 5.62V6.85001C12.7501 8.69001 13.3101 9.25 15.1501 9.25H16.3801C16.7901 9.25 17.1301 9.59 17.1301 10V12.62C17.1301 15.74 15.7401 17.13 12.6201 17.13ZM10.7501 15.63H12.6201C14.9001 15.63 15.6301 14.9 15.6301 12.62V10.75H15.1501C12.4901 10.75 11.2501 9.51001 11.2501 6.85001V6.37H9.38011C7.10011 6.37 6.37012 7.1 6.37012 9.38V11.25H6.85011C9.51011 11.25 10.7501 12.49 10.7501 15.15V15.63Z" fill="#101010"/>
</svg>
