<svg width="24" height="18" viewBox="0 0 24 18" fill="none" xmlns="http://www.w3.org/2000/svg">
<path d="M3 6.75C1.48 6.75 0.25 5.52 0.25 4C0.25 2.48 1.48 1.25 3 1.25C4.52 1.25 5.75 2.48 5.75 4C5.75 5.52 4.52 6.75 3 6.75ZM3 2.75C2.31 2.75 1.75 3.31 1.75 4C1.75 4.69 2.31 5.25 3 5.25C3.69 5.25 4.25 4.69 4.25 4C4.25 3.31 3.69 2.75 3 2.75Z" fill="#101010"/>
<path d="M21 6.75C19.48 6.75 18.25 5.52 18.25 4C18.25 2.48 19.48 1.25 21 1.25C22.52 1.25 23.75 2.48 23.75 4C23.75 5.52 22.52 6.75 21 6.75ZM21 2.75C20.31 2.75 19.75 3.31 19.75 4C19.75 4.69 20.31 5.25 21 5.25C21.69 5.25 22.25 4.69 22.25 4C22.25 3.31 21.69 2.75 21 2.75Z" fill="#101010"/>
<path d="M19 4.75H15C14.59 4.75 14.25 4.41 14.25 4C14.25 3.59 14.59 3.25 15 3.25H19C19.41 3.25 19.75 3.59 19.75 4C19.75 4.41 19.41 4.75 19 4.75Z" fill="#101010"/>
<path d="M9 4.75H5C4.59 4.75 4.25 4.41 4.25 4C4.25 3.59 4.59 3.25 5 3.25H9C9.41 3.25 9.75 3.59 9.75 4C9.75 4.41 9.41 4.75 9 4.75Z" fill="#101010"/>
<path d="M6 17.75H4C2.76 17.75 1.75 16.74 1.75 15.5V13.5C1.75 12.26 2.76 11.25 4 11.25H6C7.24 11.25 8.25 12.26 8.25 13.5V15.5C8.25 16.4 7.72 17.2 6.9 17.55C6.63 17.68 6.32 17.75 6 17.75ZM4 12.75C3.59 12.75 3.25 13.09 3.25 13.5V15.5C3.25 15.91 3.59 16.25 4 16.25H6C6.1 16.25 6.19 16.2301 6.29 16.1801C6.58 16.0601 6.75 15.79 6.75 15.5V13.5C6.75 13.09 6.41 12.75 6 12.75H4Z" fill="#101010"/>
<path d="M20 17.75H18C17.68 17.75 17.37 17.68 17.07 17.54C16.28 17.21 15.75 16.4 15.75 15.5V13.5C15.75 12.26 16.76 11.25 18 11.25H20C21.24 11.25 22.25 12.26 22.25 13.5V15.5C22.25 16.74 21.24 17.75 20 17.75ZM18 12.75C17.59 12.75 17.25 13.09 17.25 13.5V15.5C17.25 15.79 17.42 16.06 17.68 16.17C17.81 16.23 17.9 16.25 18 16.25H20C20.41 16.25 20.75 15.91 20.75 15.5V13.5C20.75 13.09 20.41 12.75 20 12.75H18Z" fill="#101010"/>
<path d="M13.5 7.75H10.5C9.26 7.75 8.25 6.74 8.25 5.5V2.5C8.25 1.26 9.26 0.25 10.5 0.25H13.5C14.74 0.25 15.75 1.26 15.75 2.5V5.5C15.75 6.74 14.74 7.75 13.5 7.75ZM10.5 1.75C10.09 1.75 9.75 2.09 9.75 2.5V5.5C9.75 5.91 10.09 6.25 10.5 6.25H13.5C13.91 6.25 14.25 5.91 14.25 5.5V2.5C14.25 2.09 13.91 1.75 13.5 1.75H10.5Z" fill="#101010"/>
<path d="M18.9698 12.75C18.9398 12.75 18.9098 12.75 18.8798 12.75C18.4698 12.7 18.1698 12.33 18.2198 11.92C18.2398 11.78 18.2398 11.65 18.2398 11.51C18.2398 8.91001 16.8298 6.50998 14.6498 5.40998C14.2798 5.21998 14.1298 4.77003 14.3198 4.40003C14.5098 4.03003 14.9598 3.88001 15.3298 4.07001C18.0098 5.43001 19.7398 8.35001 19.7398 11.51C19.7398 11.71 19.7298 11.9 19.6998 12.1C19.6698 12.47 19.3498 12.75 18.9698 12.75Z" fill="#101010"/>
<path d="M5.03 12.75C4.65 12.75 4.33 12.47 4.29 12.09C4.27 11.89 4.25 11.7 4.25 11.5C4.25 8.34 5.98 5.42 8.66 4.06C9.03 3.87 9.48 4.02002 9.67 4.39002C9.86 4.76002 9.71 5.21003 9.34 5.40003C7.16 6.50003 5.75 8.9 5.75 11.5C5.75 11.64 5.76 11.77 5.77 11.91C5.82 12.32 5.52 12.69 5.11 12.74C5.09 12.75 5.06 12.75 5.03 12.75Z" fill="#101010"/>
</svg>
