<svg width="22" height="22" viewBox="0 0 22 22" fill="none" xmlns="http://www.w3.org/2000/svg">
<path d="M7.96973 15.75C7.57973 15.75 7.23973 15.72 6.91973 15.67C3.11973 15.17 0.219727 11.87 0.219727 8C0.219727 3.73 3.69973 0.25 7.96973 0.25C11.8397 0.25 15.1397 3.14 15.6397 6.97C15.6897 7.27 15.7197 7.61 15.7197 8C15.7197 12.27 12.2497 15.75 7.96973 15.75ZM7.96973 1.75C4.51973 1.75 1.71973 4.55 1.71973 8C1.71973 11.12 4.04973 13.78 7.13973 14.19C7.39973 14.23 7.66973 14.25 7.96973 14.25C11.4197 14.25 14.2197 11.45 14.2197 8C14.2197 7.7 14.1997 7.43 14.1597 7.19C13.7497 4.08 11.0997 1.75 7.96973 1.75Z" fill="#101010"/>
<path d="M13.9701 21.75C10.1001 21.75 6.80013 18.86 6.30013 15.03C6.27013 14.79 6.35013 14.56 6.52013 14.39C6.69013 14.22 6.94013 14.15 7.17013 14.19C7.41013 14.23 7.67013 14.25 7.97013 14.25C11.4201 14.25 14.2201 11.45 14.2201 8.00001C14.2201 7.70001 14.2001 7.43001 14.1601 7.19001C14.1201 6.96001 14.2001 6.72001 14.3601 6.55001C14.5201 6.38001 14.7501 6.29001 15.0001 6.33001C18.8301 6.83001 21.7201 10.13 21.7201 14C21.7201 18.27 18.2501 21.75 13.9701 21.75ZM7.98013 15.75C8.74013 18.37 11.1701 20.25 13.9701 20.25C17.4201 20.25 20.2201 17.45 20.2201 14C20.2201 11.2 18.3401 8.76001 15.7201 8.01001C15.7201 12.27 12.2501 15.75 7.98013 15.75Z" fill="#101010"/>
<path d="M14.4295 15.16C14.2395 15.16 14.0495 15.09 13.8995 14.95L12.5995 13.67C12.3095 13.38 12.2995 12.9 12.5895 12.61C12.8795 12.32 13.3495 12.31 13.6495 12.6L14.9495 13.88C15.2395 14.17 15.2495 14.65 14.9595 14.94C14.8195 15.08 14.6195 15.16 14.4295 15.16Z" fill="#101010"/>
<path d="M15.9702 11.75C15.7802 11.75 15.5902 11.68 15.4402 11.53L14.4402 10.53C14.1502 10.24 14.1502 9.76 14.4402 9.47C14.7302 9.18 15.2102 9.18 15.5002 9.47L16.5002 10.47C16.7902 10.76 16.7902 11.24 16.5002 11.53C16.3602 11.68 16.1702 11.75 15.9702 11.75Z" fill="#101010"/>
<path d="M10.9702 16.75C10.7802 16.75 10.5902 16.68 10.4402 16.53L9.44016 15.53C9.15016 15.24 9.15016 14.76 9.44016 14.47C9.73016 14.18 10.2102 14.18 10.5002 14.47L11.5002 15.47C11.7902 15.76 11.7902 16.24 11.5002 16.53C11.3602 16.68 11.1702 16.75 10.9702 16.75Z" fill="#101010"/>
</svg>
