<svg width="18" height="22" viewBox="0 0 18 22" fill="none" xmlns="http://www.w3.org/2000/svg">
<path d="M9.00049 21.75C4.12049 21.75 0.150514 17.78 0.150514 12.9C0.120514 7.17 5.58048 2.4 7.93048 0.61C8.56048 0.13 9.4405 0.13 10.0705 0.61C12.4205 2.43 17.8805 7.26 17.8505 12.91C17.8505 17.78 13.8805 21.75 9.00049 21.75ZM9.00049 1.75C8.95049 1.75 8.89052 1.77 8.84052 1.81C7.15052 3.1 1.63046 7.71 1.66046 12.9C1.66046 16.96 4.9605 20.25 9.0105 20.25C13.0605 20.25 16.3605 16.96 16.3605 12.91C16.3905 7.79 10.8605 3.12 9.16046 1.81C9.10046 1.77 9.05049 1.75 9.00049 1.75Z" fill="#101010"/>
<path d="M9 21.75C8.59 21.75 8.25 21.41 8.25 21V1C8.25 0.59 8.59 0.25 9 0.25C9.41 0.25 9.75 0.59 9.75 1V21C9.75 21.41 9.41 21.75 9 21.75Z" fill="#101010"/>
<path d="M8.99994 18.71C8.71994 18.71 8.44995 18.55 8.31995 18.29C8.13995 17.92 8.28992 17.47 8.66992 17.29L16.3699 13.55C16.7399 13.37 17.1899 13.53 17.3699 13.9C17.5499 14.27 17.4 14.72 17.02 14.9L9.31995 18.64C9.21995 18.68 9.10994 18.71 8.99994 18.71Z" fill="#101010"/>
<path d="M8.99994 13.71C8.71994 13.71 8.44995 13.55 8.31995 13.29C8.13995 12.92 8.28992 12.47 8.66992 12.29L16.0399 8.70996C16.4099 8.52996 16.8599 8.67996 17.0399 9.05996C17.2199 9.43996 17.0699 9.87996 16.6899 10.06L9.31995 13.64C9.21995 13.68 9.10994 13.71 8.99994 13.71Z" fill="#101010"/>
<path d="M8.99994 8.70997C8.71994 8.70997 8.44995 8.54997 8.31995 8.28997C8.13995 7.91997 8.28992 7.46997 8.66992 7.28997L13.7 4.84997C14.07 4.66997 14.52 4.82996 14.7 5.19996C14.88 5.56996 14.7299 6.01996 14.3499 6.19996L9.31995 8.63997C9.21995 8.67997 9.10994 8.70997 8.99994 8.70997Z" fill="#101010"/>
</svg>
