<svg width="18" height="22" viewBox="0 0 18 22" fill="none" xmlns="http://www.w3.org/2000/svg">
<path d="M17 8.07001H1C0.59 8.07001 0.25 7.73001 0.25 7.32001V3C0.25 1.48 1.48 0.25 3 0.25H15C16.52 0.25 17.75 1.48 17.75 3V7.32001C17.75 7.73001 17.41 8.07001 17 8.07001ZM1.75 6.57001H16.25V3C16.25 2.31 15.69 1.75 15 1.75H3C2.31 1.75 1.75 2.31 1.75 3V6.57001Z" fill="#101010"/>
<path d="M9.50024 21.75H8.50024C6.98024 21.75 5.75024 20.52 5.75024 19V16.9C5.75024 16.45 5.51023 16.03 5.11023 15.81L2.15027 14.14C0.970269 13.48 0.240234 12.23 0.240234 10.87V7.31C0.240234 6.9 0.580234 6.56 0.990234 6.56H16.9902C17.4002 6.56 17.7402 6.9 17.7402 7.31V10.87C17.7402 12.22 17.0103 13.47 15.8303 14.14L12.8702 15.81C12.4802 16.03 12.2302 16.45 12.2302 16.9V19C12.2502 20.52 11.0202 21.75 9.50024 21.75ZM1.75024 8.07001V10.88C1.75024 11.69 2.19026 12.44 2.89026 12.84L5.85022 14.51C6.71022 15 7.25024 15.91 7.25024 16.9V19C7.25024 19.69 7.81024 20.25 8.50024 20.25H9.50024C10.1902 20.25 10.7502 19.69 10.7502 19V16.9C10.7502 15.91 11.2903 14.99 12.1503 14.51L15.1102 12.84C15.8202 12.44 16.2502 11.69 16.2502 10.88V8.07001H1.75024Z" fill="#101010"/>
</svg>
