<svg width="18" height="22" viewBox="0 0 18 22" fill="none" xmlns="http://www.w3.org/2000/svg">
<path d="M7 15.75C6.59 15.75 6.25 15.41 6.25 15C6.25 13.33 6.25 11.25 10 11.25H14C16.25 11.25 16.25 10.95 16.25 9V7C16.25 5.05 16.25 4.75 14 4.75H13C12.59 4.75 12.25 4.41 12.25 4C12.25 3.59 12.59 3.25 13 3.25H14C17.5 3.25 17.75 4.67 17.75 7V9C17.75 11.33 17.5 12.75 14 12.75H10C7.75 12.75 7.75 13.36 7.75 15C7.75 15.41 7.41 15.75 7 15.75Z" fill="#101010"/>
<path d="M8.99996 7.75H4.99996C4.67996 7.75 4.38996 7.54 4.28996 7.24C3.59996 5.15 3.59996 2.85 4.28996 0.77C4.38996 0.46 4.67996 0.25 4.99996 0.25H8.99996C9.31996 0.25 9.60996 0.46 9.70996 0.76C10.41 2.85 10.41 5.15 9.70996 7.23C9.60996 7.54 9.32996 7.75 8.99996 7.75ZM5.55996 6.25H8.44996C8.83996 4.78 8.83996 3.22 8.44996 1.75H5.55996C5.16996 3.22 5.16996 4.78 5.55996 6.25Z" fill="#101010"/>
<path d="M5 7.75H4C1.58 7.75 0.25 6.42 0.25 4C0.25 1.58 1.58 0.25 4 0.25H5C5.26 0.25 5.5 0.38 5.64 0.61C5.78 0.83 5.79 1.11 5.67 1.34C4.77 3.13 4.77 4.88 5.67 6.67C5.79 6.9 5.77 7.18 5.64 7.4C5.5 7.62 5.26 7.75 5 7.75ZM3.88 1.75C2.39 1.79 1.75 2.46 1.75 4C1.75 5.53 2.39 6.21 3.87 6.25C3.37 4.75 3.37 3.25 3.88 1.75Z" fill="#101010"/>
<path d="M10.0001 7.75H9.00015C8.74015 7.75 8.50015 7.62 8.36015 7.39C8.22015 7.17 8.21015 6.89 8.33015 6.66C9.22015 4.87 9.22015 3.12 8.33015 1.33C8.21015 1.1 8.23015 0.82 8.36015 0.6C8.50015 0.38 8.74015 0.25 9.00015 0.25H10.0001C12.4201 0.25 13.7501 1.58 13.7501 4C13.7501 6.42 12.4201 7.75 10.0001 7.75ZM10.1201 1.75C10.6201 3.25 10.6201 4.75 10.1201 6.25C11.6101 6.21 12.2401 5.54 12.2401 4C12.2501 2.46 11.6101 1.79 10.1201 1.75Z" fill="#101010"/>
<path d="M7.5 21.75H6.5C5.47 21.75 4.25 21.36 4.25 19.5V16.5C4.25 14.64 5.47 14.25 6.5 14.25H7.5C8.53 14.25 9.75 14.64 9.75 16.5V19.5C9.75 21.36 8.53 21.75 7.5 21.75ZM6.5 15.75C5.75 15.75 5.75 15.97 5.75 16.5V19.5C5.75 20.03 5.75 20.25 6.5 20.25H7.5C8.25 20.25 8.25 20.03 8.25 19.5V16.5C8.25 15.97 8.25 15.75 7.5 15.75H6.5Z" fill="#101010"/>
</svg>
