<svg width="22" height="22" viewBox="0 0 22 22" fill="none" xmlns="http://www.w3.org/2000/svg">
<path d="M9.61003 16.31C9.02003 16.31 8.43005 16.0399 7.88005 15.4899L5.49004 13.0999C4.39004 11.9999 4.39004 10.74 5.49004 9.64996L9.48006 5.65991C9.62006 5.51991 9.81006 5.43994 10.0101 5.43994C10.2101 5.43994 10.4001 5.51991 10.5401 5.65991L14.93 10.0499C15.18 10.2999 15.31 10.6299 15.31 10.9799C15.31 11.3299 15.1701 11.66 14.9201 11.91L11.33 15.4999C10.79 16.0299 10.2 16.31 9.61003 16.31ZM10.0101 7.23993L6.55004 10.7C6.38004 10.87 6.17006 11.1299 6.17006 11.3699C6.17006 11.6099 6.38004 11.86 6.55004 12.04L8.94005 14.43C9.11005 14.6 9.37003 14.81 9.61003 14.81C9.85003 14.81 10.1 14.6 10.28 14.43L13.74 10.9699L10.0101 7.23993Z" fill="#101010"/>
<path d="M10.0104 6.92996C9.82041 6.92996 9.63041 6.85999 9.48041 6.70999L8.68039 5.90994C8.39039 5.61994 8.39039 5.13995 8.68039 4.84995C8.97039 4.55995 9.45039 4.55995 9.74039 4.84995L10.5404 5.65C10.8304 5.94 10.8304 6.41999 10.5404 6.70999C10.3904 6.85999 10.2004 6.92996 10.0104 6.92996Z" fill="#101010"/>
<path d="M5.45987 12.08C5.05987 12.08 4.72987 11.77 4.70987 11.36C4.68987 10.95 5.00987 10.6 5.42987 10.58L14.4599 10.19C14.8699 10.16 15.2199 10.49 15.2399 10.91C15.2599 11.33 14.9399 11.6699 14.5199 11.6899L5.48987 12.08C5.47987 12.08 5.46987 12.08 5.45987 12.08Z" fill="#101010"/>
<path d="M15.4701 16.9499C14.4501 16.9499 13.6201 16.1199 13.6201 15.0999C13.6201 14.1499 14.6201 12.99 14.9201 12.66C15.2001 12.35 15.7401 12.35 16.0201 12.66C16.3201 12.99 17.3201 14.1499 17.3201 15.0999C17.3301 16.1199 16.5001 16.9499 15.4701 16.9499ZM15.4701 14.38C15.2601 14.69 15.1201 14.9699 15.1201 15.0999C15.1201 15.2899 15.2801 15.4499 15.4701 15.4499C15.6601 15.4499 15.8201 15.2899 15.8201 15.0999C15.8301 14.9699 15.6801 14.69 15.4701 14.38Z" fill="#101010"/>
<path d="M11 21.75C5.07 21.75 0.25 16.93 0.25 11C0.25 5.07 5.07 0.25 11 0.25C16.93 0.25 21.75 5.07 21.75 11C21.75 16.93 16.93 21.75 11 21.75ZM11 1.75C5.9 1.75 1.75 5.9 1.75 11C1.75 16.1 5.9 20.25 11 20.25C16.1 20.25 20.25 16.1 20.25 11C20.25 5.9 16.1 1.75 11 1.75Z" fill="#101010"/>
</svg>
