<svg width="22" height="22" viewBox="0 0 22 22" fill="none" xmlns="http://www.w3.org/2000/svg">
<path d="M10.9998 21.75C9.82976 21.75 8.73977 21.3 7.91977 20.48L1.52975 14.09C0.709755 13.27 0.259766 12.17 0.259766 11.01C0.259766 9.85001 0.709755 8.74999 1.52975 7.92999L7.91977 1.53998C8.73977 0.719978 9.83976 0.27002 10.9998 0.27002C12.1598 0.27002 13.2597 0.719978 14.0797 1.53998L20.4698 7.92999C21.2898 8.74999 21.7397 9.85001 21.7397 11.01C21.7397 12.17 21.2898 13.27 20.4698 14.09L14.0797 20.48C13.2597 21.3 12.1698 21.75 10.9998 21.75ZM10.9998 1.75C10.2298 1.75 9.50977 2.05002 8.97977 2.58002L2.58975 8.96997C2.04975 9.50997 1.75977 10.23 1.75977 10.99C1.75977 11.75 2.05975 12.48 2.58975 13.01L8.97977 19.4C10.0498 20.47 11.9497 20.47 13.0197 19.4L19.4098 13.01C19.9498 12.47 20.2397 11.76 20.2397 10.99C20.2397 10.22 19.9398 9.49997 19.4098 8.96997L13.0197 2.58002C12.4897 2.05002 11.7698 1.75 10.9998 1.75Z" fill="#101010"/>
</svg>
