<svg width="22" height="22" viewBox="0 0 22 22" fill="none" xmlns="http://www.w3.org/2000/svg">
<path d="M14.002 21.75H8.00195C2.57195 21.75 0.251953 19.43 0.251953 14V8C0.251953 2.57 2.57195 0.25 8.00195 0.25H14.002C19.432 0.25 21.752 2.57 21.752 8V14C21.752 19.43 19.432 21.75 14.002 21.75ZM8.00195 1.75C3.39195 1.75 1.75195 3.39 1.75195 8V14C1.75195 18.61 3.39195 20.25 8.00195 20.25H14.002C18.612 20.25 20.252 18.61 20.252 14V8C20.252 3.39 18.612 1.75 14.002 1.75H8.00195Z" fill="#101010"/>
<path d="M9.09207 17.25C8.47207 17.25 7.86207 17.02 7.39207 16.55L5.45207 14.61C4.51207 13.67 4.51207 12.15 5.45207 11.21L11.2021 5.46C12.1421 4.52 13.6621 4.52 14.6021 5.46L16.5421 7.39999C17.4821 8.33999 17.4821 9.86 16.5421 10.8L10.7921 16.55C10.3221 17.01 9.71207 17.25 9.09207 17.25ZM6.52208 13.55L8.46208 15.49C8.81208 15.84 9.39208 15.84 9.74208 15.49L15.4921 9.74C15.8421 9.39 15.8421 8.81 15.4921 8.46L13.5521 6.52C13.2021 6.17 12.6221 6.17 12.2721 6.52L6.52208 12.27C6.17208 12.62 6.17208 13.19 6.52208 13.55Z" fill="#101010"/>
<path d="M12.5822 14.44C12.3922 14.44 12.2022 14.37 12.0522 14.22L7.77219 9.93997C7.48219 9.64997 7.48219 9.16998 7.77219 8.87998C8.06219 8.58998 8.54219 8.58998 8.83219 8.87998L13.1122 13.16C13.4022 13.45 13.4022 13.93 13.1122 14.22C12.9722 14.37 12.7722 14.44 12.5822 14.44Z" fill="#101010"/>
</svg>
