<svg width="22" height="22" viewBox="0 0 22 22" fill="none" xmlns="http://www.w3.org/2000/svg">
<path d="M20 21.75H8C7.59 21.75 7.25 21.41 7.25 21C7.25 20.59 7.59 20.25 8 20.25H20C20.41 20.25 20.75 20.59 20.75 21C20.75 21.41 20.41 21.75 20 21.75Z" fill="#101010"/>
<path d="M7.54013 21.71C6.54013 21.71 5.59017 21.32 4.89017 20.61L1.38016 17.1C-0.0798438 15.64 -0.0798438 13.26 1.38016 11.8L11.8101 1.37C13.2201 -0.04 15.7001 -0.04 17.1101 1.37L20.6201 4.87999C22.0801 6.33999 22.0801 8.72 20.6201 10.18L10.1902 20.61C9.49015 21.33 8.55013 21.71 7.54013 21.71ZM2.44015 16.05L5.95016 19.56C6.80016 20.41 8.29016 20.41 9.13016 19.56L19.5601 9.12999C20.4401 8.24999 20.4401 6.82999 19.5601 5.94999L16.0501 2.44C15.2101 1.6 13.7201 1.59 12.8701 2.44L2.44015 12.87C1.56015 13.74 1.56015 15.17 2.44015 16.05Z" fill="#101010"/>
<path d="M13.8705 16.63C13.6805 16.63 13.4905 16.56 13.3405 16.41L5.59055 8.66001C5.30055 8.37001 5.30055 7.89001 5.59055 7.60001C5.88055 7.31001 6.36054 7.31001 6.65054 7.60001L14.4005 15.35C14.6905 15.64 14.6905 16.12 14.4005 16.41C14.2505 16.56 14.0605 16.63 13.8705 16.63Z" fill="#101010"/>
<path d="M2.51999 17.41C2.32999 17.41 2.13996 17.34 1.98996 17.19C1.69996 16.9 1.69996 16.42 1.98996 16.13L7.65 10.47C7.94 10.18 8.41999 10.18 8.70999 10.47C8.99999 10.76 8.99999 11.24 8.70999 11.53L3.04996 17.19C2.89996 17.34 2.70999 17.41 2.51999 17.41Z" fill="#101010"/>
<path d="M5.33933 20.24C5.14933 20.24 4.9593 20.17 4.8093 20.02C4.5193 19.73 4.5193 19.25 4.8093 18.96L10.4693 13.3C10.7593 13.01 11.2393 13.01 11.5293 13.3C11.8193 13.59 11.8193 14.07 11.5293 14.36L5.86929 20.02C5.72929 20.16 5.53933 20.24 5.33933 20.24Z" fill="#101010"/>
</svg>
