<svg width="22" height="22" viewBox="0 0 22 22" fill="none" xmlns="http://www.w3.org/2000/svg">
<path d="M11 21.75C5.07 21.75 0.25 16.93 0.25 11C0.25 5.07 5.07 0.25 11 0.25C16.93 0.25 21.75 5.07 21.75 11C21.75 16.93 16.93 21.75 11 21.75ZM11 1.75C5.9 1.75 1.75 5.9 1.75 11C1.75 16.1 5.9 20.25 11 20.25C16.1 20.25 20.25 16.1 20.25 11C20.25 5.9 16.1 1.75 11 1.75Z" fill="#101010"/>
<path d="M8.71003 16.84C8.42003 16.84 8.20005 16.7401 8.07005 16.6401C7.80005 16.4601 7.39004 16 7.65004 14.97L8.42006 11.86L7.50004 11.63C6.57004 11.4 6.36005 10.81 6.32005 10.57C6.28005 10.33 6.26005 9.70006 7.04005 9.15006L12.22 5.56003C13.09 4.96003 13.66 5.18002 13.93 5.36002C14.2 5.54002 14.61 6.00007 14.35 7.03007L13.58 10.1401L14.5 10.37C15.43 10.6 15.64 11.19 15.68 11.44C15.72 11.69 15.74 12.31 14.96 12.86L9.78004 16.45C9.35004 16.74 9.00003 16.84 8.71003 16.84ZM8.11003 10.24L9.51005 10.5901C9.91005 10.6901 10.16 11.1 10.06 11.5L9.18004 15.0401L13.8901 11.7701L12.49 11.4201C12.09 11.3201 11.84 10.91 11.94 10.51L12.8201 6.97001L8.11003 10.24Z" fill="#101010"/>
</svg>
