<svg width="22" height="22" viewBox="0 0 22 22" fill="none" xmlns="http://www.w3.org/2000/svg">
<path d="M12.6201 17.13H9.39012C6.26012 17.13 4.87012 15.74 4.87012 12.61V9.38C4.87012 6.25 6.26012 4.85999 9.39012 4.85999H12.6201C15.7501 4.85999 17.1401 6.25 17.1401 9.38V12.61C17.1301 15.74 15.7401 17.13 12.6201 17.13ZM9.38012 6.37C7.09012 6.37 6.36012 7.10001 6.36012 9.39001V12.62C6.36012 14.91 7.09012 15.64 9.38012 15.64H12.6101C14.9001 15.64 15.6301 14.91 15.6301 12.62V9.39001C15.6301 7.10001 14.9001 6.37 12.6101 6.37H9.38012Z" fill="#101010"/>
<path d="M17.2305 12.52H16.3805C15.9705 12.52 15.6305 12.18 15.6305 11.77V9.39001C15.6305 7.10001 14.9005 6.37 12.6105 6.37H10.2305C9.82047 6.37 9.48047 6.02999 9.48047 5.62V4.76999C9.48047 1.63999 10.8705 0.25 14.0005 0.25H17.2305C20.3605 0.25 21.7505 1.63999 21.7505 4.76999V8C21.7505 11.13 20.3605 12.52 17.2305 12.52ZM17.1305 11.02H17.2305C19.5205 11.02 20.2505 10.29 20.2505 8V4.76999C20.2505 2.47999 19.5205 1.75 17.2305 1.75H14.0005C11.7105 1.75 10.9805 2.47999 10.9805 4.76999V4.87H12.6105C15.7405 4.87 17.1305 6.26001 17.1305 9.39001V11.02Z" fill="#101010"/>
<path d="M8 21.75H4.77C1.64 21.75 0.25 20.36 0.25 17.23V14C0.25 10.87 1.64 9.47998 4.77 9.47998H5.62C6.03 9.47998 6.37 9.81998 6.37 10.23V12.61C6.37 14.9 7.1 15.63 9.39 15.63H11.77C12.18 15.63 12.52 15.97 12.52 16.38V17.23C12.52 20.36 11.13 21.75 8 21.75ZM4.77 10.98C2.48 10.98 1.75 11.71 1.75 14V17.23C1.75 19.52 2.48 20.25 4.77 20.25H8C10.29 20.25 11.02 19.52 11.02 17.23V17.13H9.39C6.26 17.13 4.87 15.74 4.87 12.61V10.98H4.77Z" fill="#101010"/>
</svg>
