<svg width="18" height="22" viewBox="0 0 18 22" fill="none" xmlns="http://www.w3.org/2000/svg">
<path d="M12.8402 21.75H5.16024C2.48024 21.75 1.26024 20.75 0.720237 19.92C-0.0697627 18.7 -0.0397628 17.03 0.810237 15.09L4.64024 6.39C4.11024 6.25 3.62024 5.97 3.23024 5.58C2.66024 5 2.32024 4.2 2.32024 3.37C2.32024 1.65 3.72024 0.25 5.44024 0.25H12.5502C13.3802 0.25 14.1702 0.58 14.7602 1.17C15.5402 1.95 15.8502 3.06 15.5902 4.13C15.3302 5.2 14.4502 6.05 13.3702 6.36L17.1902 15.1C18.0302 17.03 18.0602 18.7 17.2602 19.92C16.7202 20.75 15.5002 21.75 12.8402 21.75ZM5.44024 1.75C4.55024 1.75 3.82024 2.48 3.82024 3.37C3.82024 3.8 4.00024 4.22 4.29024 4.52C4.59024 4.82 5.01024 4.99 5.44024 4.99H5.74024C5.99024 4.99 6.23024 5.12 6.37024 5.33C6.51024 5.54 6.53024 5.81 6.43024 6.04L2.18024 15.69C1.55024 17.13 1.47024 18.34 1.97024 19.1C2.59024 20.05 4.04024 20.25 5.15024 20.25H12.8302C13.9302 20.25 15.3702 20.05 16.0002 19.1C16.5002 18.33 16.4302 17.13 15.8102 15.7L11.6002 6.04C11.5002 5.81 11.5202 5.54 11.6602 5.33C11.8002 5.12 12.0302 4.99 12.2902 4.99H12.4502C13.2502 4.99 13.9702 4.48 14.1402 3.77C14.2802 3.2 14.1202 2.64 13.7102 2.23C13.4002 1.92 12.9902 1.75 12.5602 1.75H5.44024Z" fill="#101010"/>
<path d="M10.8406 14.04C10.1806 14.04 9.47055 13.95 8.76055 13.71C5.92055 12.76 2.99055 12.86 2.96055 12.86C2.56055 12.92 2.20055 12.55 2.18055 12.14C2.16055 11.73 2.49055 11.38 2.90055 11.36C3.03055 11.35 6.14055 11.25 9.23055 12.28C11.8306 13.15 14.3806 11.5 14.4106 11.48C14.7506 11.25 15.2206 11.35 15.4506 11.69C15.6806 12.03 15.5906 12.5 15.2406 12.73C15.1506 12.8 13.2506 14.04 10.8406 14.04Z" fill="#101010"/>
</svg>
