<svg width="20" height="22" viewBox="0 0 20 22" fill="none" xmlns="http://www.w3.org/2000/svg">
<path d="M9.79039 10.88C9.25039 10.88 8.70039 10.78 8.27039 10.59L2.37039 7.97C0.87039 7.3 0.650391 6.4 0.650391 5.91C0.650391 5.42 0.87039 4.52 2.37039 3.85L8.27039 1.23C9.14039 0.84 10.4504 0.84 11.3204 1.23L17.2304 3.85C18.7204 4.51 18.9504 5.42 18.9504 5.91C18.9504 6.4 18.7304 7.3 17.2304 7.97L11.3204 10.59C10.8804 10.79 10.3404 10.88 9.79039 10.88ZM9.79039 2.44C9.45039 2.44 9.12039 2.49 8.88039 2.6L2.98039 5.22C2.37039 5.5 2.15039 5.78 2.15039 5.91C2.15039 6.04 2.37039 6.33 2.97039 6.6L8.87039 9.22C9.35039 9.43 10.2204 9.43 10.7004 9.22L16.6104 6.6C17.2204 6.33 17.4404 6.04 17.4404 5.91C17.4404 5.78 17.2204 5.49 16.6104 5.22L10.7104 2.6C10.4704 2.5 10.1304 2.44 9.79039 2.44Z" fill="#101010"/>
<path d="M10 16.09C9.62 16.09 9.24 16.01 8.88 15.85L2.09 12.83C1.06 12.38 0.25 11.13 0.25 10C0.25 9.59 0.59 9.25 1 9.25C1.41 9.25 1.75 9.59 1.75 10C1.75 10.55 2.2 11.24 2.7 11.47L9.49 14.49C9.81 14.63 10.18 14.63 10.51 14.49L17.3 11.47C17.8 11.25 18.25 10.55 18.25 10C18.25 9.59 18.59 9.25 19 9.25C19.41 9.25 19.75 9.59 19.75 10C19.75 11.13 18.94 12.38 17.91 12.84L11.12 15.86C10.76 16.01 10.38 16.09 10 16.09Z" fill="#101010"/>
<path d="M10 21.09C9.62 21.09 9.24 21.01 8.88 20.85L2.09 17.83C0.97 17.33 0.25 16.22 0.25 14.99C0.25 14.58 0.59 14.24 1 14.24C1.41 14.24 1.75 14.59 1.75 15C1.75 15.63 2.12 16.21 2.7 16.47L9.49 19.49C9.81 19.63 10.18 19.63 10.51 19.49L17.3 16.47C17.88 16.21 18.25 15.64 18.25 15C18.25 14.59 18.59 14.25 19 14.25C19.41 14.25 19.75 14.59 19.75 15C19.75 16.23 19.03 17.34 17.91 17.84L11.12 20.86C10.76 21.01 10.38 21.09 10 21.09Z" fill="#101010"/>
</svg>
