<svg width="20" height="20" viewBox="0 0 20 20" fill="none" xmlns="http://www.w3.org/2000/svg">
<path d="M6.99164 19.5C5.33164 19.5 3.66164 18.87 2.39164 17.6C-0.138359 15.06 -0.138359 10.94 2.39164 8.41C2.68164 8.12 3.16164 8.12 3.45164 8.41C3.74164 8.7 3.74164 9.18 3.45164 9.47C1.50164 11.42 1.50164 14.59 3.45164 16.54C5.40164 18.49 8.57164 18.49 10.5216 16.54C11.4616 15.6 11.9816 14.34 11.9816 13C11.9816 11.67 11.4616 10.41 10.5216 9.46C10.2316 9.17 10.2316 8.69 10.5216 8.4C10.8116 8.11 11.2916 8.11 11.5816 8.4C12.8116 9.63 13.4816 11.26 13.4816 13C13.4816 14.74 12.8016 16.37 11.5816 17.6C10.3216 18.87 8.66164 19.5 6.99164 19.5Z" fill="#101010"/>
<path d="M17.072 12.16C16.882 12.16 16.692 12.09 16.542 11.94C16.252 11.65 16.252 11.17 16.542 10.88C18.592 8.82999 18.592 5.49999 16.542 3.45999C14.492 1.40999 11.162 1.40999 9.12203 3.45999C8.13203 4.44999 7.58203 5.76999 7.58203 7.16999C7.58203 8.56999 8.13203 9.88999 9.12203 10.88C9.41203 11.17 9.41203 11.65 9.12203 11.94C8.83203 12.23 8.35203 12.23 8.06203 11.94C6.79203 10.67 6.08203 8.96999 6.08203 7.16999C6.08203 5.36999 6.78203 3.66999 8.06203 2.39999C10.692 -0.23001 14.972 -0.23001 17.612 2.39999C20.242 5.02999 20.242 9.31999 17.612 11.95C17.462 12.09 17.262 12.16 17.072 12.16Z" fill="#101010"/>
</svg>
