<svg width="22" height="22" viewBox="0 0 22 22" fill="none" xmlns="http://www.w3.org/2000/svg">
<path d="M7.18155 15.77C7.16155 15.77 7.13156 15.77 7.11156 15.77C6.14156 15.68 5.23156 15.23 4.55156 14.51C2.95156 12.83 2.95156 10.1 4.55156 8.41998L6.74156 6.11996C7.52156 5.29996 8.57156 4.83997 9.69156 4.83997C10.8116 4.83997 11.8616 5.28996 12.6416 6.11996C14.2416 7.79996 14.2416 10.53 12.6416 12.21L11.5516 13.36C11.2616 13.66 10.7916 13.67 10.4916 13.39C10.1916 13.1 10.1816 12.63 10.4616 12.33L11.5516 11.18C12.6116 10.07 12.6116 8.25997 11.5516 7.15997C10.5616 6.11997 8.82157 6.11997 7.82157 7.15997L5.63156 9.45996C4.57156 10.57 4.57156 12.38 5.63156 13.48C6.06156 13.94 6.64156 14.22 7.25156 14.28C7.66156 14.32 7.96156 14.69 7.92156 15.1C7.89156 15.48 7.56155 15.77 7.18155 15.77Z" fill="#101010"/>
<path d="M12.3121 17.16C11.1921 17.16 10.1421 16.71 9.36211 15.88C7.76211 14.2 7.76211 11.47 9.36211 9.78997L10.4521 8.63997C10.7421 8.33997 11.2121 8.32994 11.5121 8.60994C11.8121 8.89994 11.8221 9.36997 11.5421 9.66997L10.4521 10.82C9.39211 11.93 9.39211 13.74 10.4521 14.84C11.4421 15.88 13.1821 15.89 14.1821 14.84L16.3721 12.54C17.4321 11.43 17.4321 9.61995 16.3721 8.51995C15.9421 8.05995 15.3621 7.77996 14.7521 7.71996C14.3421 7.67996 14.0421 7.30995 14.0821 6.89995C14.1221 6.48995 14.4821 6.17997 14.9021 6.22997C15.8721 6.32997 16.7821 6.76995 17.4621 7.48995C19.0621 9.16995 19.0621 11.8999 17.4621 13.5799L15.2721 15.88C14.4821 16.71 13.4321 17.16 12.3121 17.16Z" fill="#101010"/>
<path d="M14.002 21.75H8.00195C2.57195 21.75 0.251953 19.43 0.251953 14V8C0.251953 2.57 2.57195 0.25 8.00195 0.25H14.002C19.432 0.25 21.752 2.57 21.752 8V14C21.752 19.43 19.432 21.75 14.002 21.75ZM8.00195 1.75C3.39195 1.75 1.75195 3.39 1.75195 8V14C1.75195 18.61 3.39195 20.25 8.00195 20.25H14.002C18.612 20.25 20.252 18.61 20.252 14V8C20.252 3.39 18.612 1.75 14.002 1.75H8.00195Z" fill="#101010"/>
</svg>
