<svg width="22" height="20" viewBox="0 0 22 20" fill="none" xmlns="http://www.w3.org/2000/svg">
<path d="M11.5022 12.75H9.00219C8.59219 12.75 8.25219 12.41 8.25219 12C8.25219 11.59 8.59219 11.25 9.00219 11.25H11.5022C14.1222 11.25 16.2522 9.12 16.2522 6.5C16.2522 3.88 14.1222 1.75 11.5022 1.75H6.50219C3.88219 1.75 1.75219 3.88 1.75219 6.5C1.75219 7.6 2.14219 8.66999 2.84219 9.51999C3.10219 9.83999 3.06219 10.31 2.74219 10.58C2.42219 10.84 1.95219 10.8 1.68219 10.48C0.75219 9.36001 0.242188 7.95 0.242188 6.5C0.242188 3.05 3.04219 0.25 6.49219 0.25H11.4922C14.9422 0.25 17.7422 3.05 17.7422 6.5C17.7422 9.95 14.9522 12.75 11.5022 12.75Z" fill="#101010"/>
<path d="M15.502 19.75H10.502C7.05195 19.75 4.25195 16.95 4.25195 13.5C4.25195 10.05 7.05195 7.25 10.502 7.25H13.002C13.412 7.25 13.752 7.59 13.752 8C13.752 8.41 13.412 8.75 13.002 8.75H10.502C7.88195 8.75 5.75195 10.88 5.75195 13.5C5.75195 16.12 7.88195 18.25 10.502 18.25H15.502C18.122 18.25 20.252 16.12 20.252 13.5C20.252 12.4 19.862 11.33 19.162 10.48C18.902 10.16 18.942 9.69001 19.262 9.42001C19.582 9.15001 20.052 9.19999 20.322 9.51999C21.252 10.64 21.762 12.05 21.762 13.5C21.752 16.95 18.952 19.75 15.502 19.75Z" fill="#101010"/>
</svg>
