<svg width="22" height="22" viewBox="0 0 22 22" fill="none" xmlns="http://www.w3.org/2000/svg">
<path d="M9.25 21.25C4.56 21.25 0.75 17.44 0.75 12.75C0.75 8.06 4.56 4.25 9.25 4.25C13.94 4.25 17.75 8.06 17.75 12.75C17.75 17.44 13.94 21.25 9.25 21.25ZM9.25 5.75C5.39 5.75 2.25 8.89 2.25 12.75C2.25 16.61 5.39 19.75 9.25 19.75C13.11 19.75 16.25 16.61 16.25 12.75C16.25 8.89 13.11 5.75 9.25 5.75Z" fill="#101010"/>
<path d="M15.0004 7.74994C14.8104 7.74994 14.6204 7.67994 14.4704 7.52994C14.1804 7.23994 14.1804 6.75994 14.4704 6.46994L19.9704 0.969941C20.2604 0.679941 20.7404 0.679941 21.0304 0.969941C21.3204 1.25994 21.3204 1.73994 21.0304 2.02994L15.5304 7.52994C15.3804 7.67994 15.1904 7.74994 15.0004 7.74994Z" fill="#101010"/>
<path d="M20.5 8.75C20.09 8.75 19.75 8.41 19.75 8V2.25H14C13.59 2.25 13.25 1.91 13.25 1.5C13.25 1.09 13.59 0.75 14 0.75H20.5C20.91 0.75 21.25 1.09 21.25 1.5V8C21.25 8.41 20.91 8.75 20.5 8.75Z" fill="#101010"/>
</svg>
