<svg width="22" height="22" viewBox="0 0 22 22" fill="none" xmlns="http://www.w3.org/2000/svg">
<path d="M11.0003 21.72C5.09027 21.72 0.280273 16.91 0.280273 11C0.280273 5.09 5.09027 0.279999 11.0003 0.279999C13.6503 0.279999 16.1903 1.26 18.1503 3.03C20.4203 5.04 21.7203 7.95 21.7203 11C21.7203 14.05 20.4203 16.96 18.1403 18.98C16.1903 20.75 13.6503 21.72 11.0003 21.72ZM11.0003 1.78C5.91027 1.78 1.78027 5.92 1.78027 11C1.78027 16.08 5.92027 20.22 11.0003 20.22C13.2803 20.22 15.4603 19.38 17.1503 17.85C19.1103 16.11 20.2303 13.62 20.2303 10.99C20.2303 8.36 19.1103 5.87 17.1603 4.14C15.4603 2.62 13.2803 1.78 11.0003 1.78Z" fill="#101010"/>
<path d="M9.44027 17.91C9.07027 17.91 8.68027 17.83 8.30027 17.68C5.56027 16.58 3.78027 13.95 3.78027 11C3.78027 8.05001 5.55027 5.42001 8.30027 4.32001C9.17027 3.97001 10.0503 4.02001 10.7103 4.46001C11.3503 4.89001 11.7103 5.65001 11.7303 6.60001V15.39V15.4C11.7203 16.35 11.3603 17.12 10.7103 17.54C10.3403 17.79 9.90027 17.91 9.44027 17.91ZM9.44027 5.59001C9.26027 5.59001 9.06027 5.63001 8.86027 5.71001C6.68027 6.58001 5.28027 8.66001 5.28027 11C5.28027 13.34 6.68027 15.42 8.86027 16.29C9.26027 16.45 9.64027 16.45 9.88027 16.3C10.1603 16.11 10.2203 15.7 10.2303 15.39V6.61001C10.2303 6.31001 10.1603 5.89001 9.88027 5.70001C9.76027 5.63001 9.61027 5.59001 9.44027 5.59001Z" fill="#101010"/>
</svg>
