<svg width="22" height="22" viewBox="0 0 22 22" fill="none" xmlns="http://www.w3.org/2000/svg">
<path d="M3.92999 18.82C3.72999 18.82 3.54002 18.74 3.40002 18.6C1.37002 16.57 0.25 13.87 0.25 11C0.25 5.07 5.07 0.25 11 0.25C13.87 0.25 16.57 1.37 18.6 3.4C18.74 3.54 18.82 3.73 18.82 3.93C18.82 4.13 18.74 4.32 18.6 4.46L4.46002 18.6C4.32002 18.74 4.12999 18.82 3.92999 18.82ZM11 1.75C5.9 1.75 1.75 5.9 1.75 11C1.75 13.22 2.53001 15.32 3.95001 16.99L16.99 3.95C15.32 2.53 13.22 1.75 11 1.75Z" fill="#101010"/>
<path d="M10.9997 21.75C8.12969 21.75 5.42972 20.63 3.39972 18.6C3.25972 18.46 3.17969 18.27 3.17969 18.07C3.17969 17.87 3.25972 17.68 3.39972 17.54L17.5397 3.4C17.8297 3.11 18.3097 3.11 18.5997 3.4C20.6297 5.43 21.7497 8.12999 21.7497 11C21.7497 16.93 16.9297 21.75 10.9997 21.75ZM5.0097 18.05C6.6797 19.47 8.77969 20.25 10.9997 20.25C16.0997 20.25 20.2497 16.1 20.2497 11C20.2497 8.77999 19.4697 6.68 18.0497 5.01L5.0097 18.05Z" fill="#101010"/>
<path d="M12.4095 21.65C12.2195 21.65 12.0295 21.58 11.8795 21.43L6.21945 15.77C5.92945 15.48 5.92945 15 6.21945 14.71C6.50945 14.42 6.98951 14.42 7.27951 14.71L12.9395 20.37C13.2295 20.66 13.2295 21.14 12.9395 21.43C12.7995 21.58 12.6095 21.65 12.4095 21.65Z" fill="#101010"/>
<path d="M16.8705 19.03C16.6805 19.03 16.4905 18.96 16.3405 18.81L9.76047 12.23C9.47047 11.94 9.47047 11.46 9.76047 11.17C10.0505 10.88 10.5305 10.88 10.8205 11.17L17.4005 17.75C17.6905 18.04 17.6905 18.52 17.4005 18.81C17.2505 18.96 17.0605 19.03 16.8705 19.03Z" fill="#101010"/>
<path d="M20.1195 15.22C19.9295 15.22 19.7396 15.15 19.5896 15L13.2995 8.70999C13.0095 8.41999 13.0095 7.94 13.2995 7.65C13.5895 7.36 14.0695 7.36 14.3595 7.65L20.6496 13.94C20.9396 14.23 20.9396 14.71 20.6496 15C20.5096 15.14 20.3195 15.22 20.1195 15.22Z" fill="#101010"/>
</svg>
