<svg width="22" height="22" viewBox="0 0 22 22" fill="none" xmlns="http://www.w3.org/2000/svg">
<path d="M11 21.75C5.07 21.75 0.25 16.93 0.25 11C0.25 5.07 5.07 0.25 11 0.25C16.93 0.25 21.75 5.07 21.75 11C21.75 16.93 16.93 21.75 11 21.75ZM11 1.75C5.9 1.75 1.75 5.9 1.75 11C1.75 16.1 5.9 20.25 11 20.25C16.1 20.25 20.25 16.1 20.25 11C20.25 5.9 16.1 1.75 11 1.75Z" fill="#101010"/>
<path d="M11 16.75C10.59 16.75 10.25 16.41 10.25 16V6C10.25 5.59 10.59 5.25 11 5.25C14.17 5.25 16.75 7.83 16.75 11C16.75 14.17 14.17 16.75 11 16.75ZM11.75 6.82001V15.19C13.74 14.84 15.25 13.09 15.25 11.01C15.25 8.93001 13.74 7.17001 11.75 6.82001Z" fill="#101010"/>
<path d="M11 16.75C7.83 16.75 5.25 14.17 5.25 11C5.25 7.83 7.83 5.25 11 5.25C11.41 5.25 11.75 5.59 11.75 6V16C11.75 16.41 11.41 16.75 11 16.75ZM10.25 6.82001C8.26 7.17001 6.75 8.92 6.75 11C6.75 13.08 8.26 14.83 10.25 15.18V6.82001Z" fill="#101010"/>
<path d="M11 21.75C10.59 21.75 10.25 21.41 10.25 21V16C10.25 15.59 10.59 15.25 11 15.25C11.41 15.25 11.75 15.59 11.75 16V21C11.75 21.41 11.41 21.75 11 21.75Z" fill="#101010"/>
<path d="M11 6.75C10.59 6.75 10.25 6.41 10.25 6V1C10.25 0.59 10.59 0.25 11 0.25C11.41 0.25 11.75 0.59 11.75 1V6C11.75 6.41 11.41 6.75 11 6.75Z" fill="#101010"/>
</svg>
