<svg width="22" height="22" viewBox="0 0 22 22" fill="none" xmlns="http://www.w3.org/2000/svg">
<path d="M14.002 21.75H8.00195C2.57195 21.75 0.251953 19.43 0.251953 14V8C0.251953 2.57 2.57195 0.25 8.00195 0.25H14.002C19.432 0.25 21.752 2.57 21.752 8V14C21.752 19.43 19.432 21.75 14.002 21.75ZM8.00195 1.75C3.39195 1.75 1.75195 3.39 1.75195 8V14C1.75195 18.61 3.39195 20.25 8.00195 20.25H14.002C18.612 20.25 20.252 18.61 20.252 14V8C20.252 3.39 18.612 1.75 14.002 1.75H8.00195Z" fill="#101010"/>
<path d="M5.00238 17.75C4.81238 17.75 4.62238 17.68 4.47238 17.53C4.18238 17.24 4.18238 16.76 4.47238 16.47L16.4724 4.47C16.7624 4.18 17.2424 4.18 17.5324 4.47C17.8224 4.76 17.8224 5.24 17.5324 5.53L5.53238 17.53C5.38238 17.68 5.19238 17.75 5.00238 17.75Z" fill="#101010"/>
<path d="M17.002 9.75C16.592 9.75 16.252 9.41 16.252 9V5.75H13.002C12.592 5.75 12.252 5.41 12.252 5C12.252 4.59 12.592 4.25 13.002 4.25H17.002C17.412 4.25 17.752 4.59 17.752 5V9C17.752 9.41 17.412 9.75 17.002 9.75Z" fill="#101010"/>
<path d="M9.00195 17.75H5.00195C4.59195 17.75 4.25195 17.41 4.25195 17V13C4.25195 12.59 4.59195 12.25 5.00195 12.25C5.41195 12.25 5.75195 12.59 5.75195 13V16.25H9.00195C9.41195 16.25 9.75195 16.59 9.75195 17C9.75195 17.41 9.41195 17.75 9.00195 17.75Z" fill="#101010"/>
<path d="M17.0024 17.75C16.8124 17.75 16.6224 17.68 16.4724 17.53L4.47238 5.53C4.18238 5.24 4.18238 4.76 4.47238 4.47C4.76238 4.18 5.24238 4.18 5.53238 4.47L17.5324 16.47C17.8224 16.76 17.8224 17.24 17.5324 17.53C17.3824 17.68 17.1924 17.75 17.0024 17.75Z" fill="#101010"/>
<path d="M5.00195 9.75C4.59195 9.75 4.25195 9.41 4.25195 9V5C4.25195 4.59 4.59195 4.25 5.00195 4.25H9.00195C9.41195 4.25 9.75195 4.59 9.75195 5C9.75195 5.41 9.41195 5.75 9.00195 5.75H5.75195V9C5.75195 9.41 5.41195 9.75 5.00195 9.75Z" fill="#101010"/>
<path d="M17.002 17.75H13.002C12.592 17.75 12.252 17.41 12.252 17C12.252 16.59 12.592 16.25 13.002 16.25H16.252V13C16.252 12.59 16.592 12.25 17.002 12.25C17.412 12.25 17.752 12.59 17.752 13V17C17.752 17.41 17.412 17.75 17.002 17.75Z" fill="#101010"/>
</svg>
