<svg width="22" height="22" viewBox="0 0 22 22" fill="none" xmlns="http://www.w3.org/2000/svg">
<path d="M14 21.75H8C2.57 21.75 0.25 19.43 0.25 14V8C0.25 2.57 2.57 0.25 8 0.25H14C19.43 0.25 21.75 2.57 21.75 8V14C21.75 19.43 19.43 21.75 14 21.75ZM8 1.75C3.39 1.75 1.75 3.39 1.75 8V14C1.75 18.61 3.39 20.25 8 20.25H14C18.61 20.25 20.25 18.61 20.25 14V8C20.25 3.39 18.61 1.75 14 1.75H8Z" fill="#101010"/>
<path d="M16 16.5H12.9C12.6 16.5 12.33 16.33 12.21 16.05C12.09 15.77 12.14 15.46 12.34 15.24L13.96 13.45C14.63 12.7 15.01 11.75 15.01 10.77C15.01 9.77002 14.6 8.83 13.85 8.12C13.1 7.41 12.06 7 11 7C9.94 7 8.90002 7.41 8.15002 8.12C7.40002 8.83 6.98999 9.77002 6.98999 10.77C6.98999 11.75 7.35998 12.7 8.03998 13.45L9.65997 15.24C9.85997 15.46 9.90998 15.78 9.78998 16.05C9.66998 16.32 9.39998 16.5 9.09998 16.5H6C5.59 16.5 5.25 16.16 5.25 15.75C5.25 15.34 5.59 15 6 15H7.40997L6.91998 14.46C5.99998 13.44 5.48999 12.13 5.48999 10.77C5.48999 9.38002 6.08 8.01003 7.12 7.03003C8.16 6.04003 9.54 5.5 11 5.5C12.46 5.5 13.84 6.04003 14.88 7.03003C15.91 8.01003 16.51 9.38002 16.51 10.77C16.51 12.12 16 13.43 15.08 14.46L14.59 15H16C16.41 15 16.75 15.34 16.75 15.75C16.75 16.16 16.41 16.5 16 16.5Z" fill="#101010"/>
</svg>
