<svg width="22" height="21" viewBox="0 0 22 21" fill="none" xmlns="http://www.w3.org/2000/svg">
<path d="M9.05952 20.58C8.05952 20.58 7.04952 19.9 5.69952 18.56L2.23952 15.1C-0.700482 12.16 -0.400482 11.03 2.23952 8.38L7.80952 2.8C9.77952 0.829997 11.4095 -0.320003 14.5295 2.8L17.9895 6.26C20.7995 9.07 20.1195 10.85 17.9895 12.98L12.4195 18.55C11.0695 19.9 10.0695 20.58 9.05952 20.58ZM3.29952 14.03L6.75952 17.49C8.87952 19.61 9.22952 19.62 11.3595 17.49L16.9295 11.92C18.5995 10.25 19.0295 9.42 16.9295 7.32L13.4695 3.86C11.2795 1.67 10.6195 2.12 8.86952 3.86L3.29952 9.43C1.17952 11.56 0.999518 11.73 3.29952 14.03Z" fill="#101010"/>
<path d="M19.1399 20.46C17.9999 20.46 17.0999 20.02 16.6599 19.25C16.2199 18.48 16.3099 17.48 16.8999 16.5L17.5599 15.41C17.9499 14.77 18.5199 14.4 19.1399 14.4C19.7599 14.4 20.3399 14.77 20.7199 15.41L21.3799 16.5C21.9699 17.48 22.0499 18.48 21.6199 19.25C21.1899 20.02 20.2699 20.46 19.1399 20.46ZM19.1399 15.9C19.0899 15.9 18.9699 15.98 18.8399 16.18L18.1799 17.27C17.8799 17.77 17.7999 18.22 17.9599 18.51C18.1199 18.8 18.5499 18.96 19.1299 18.96C19.7099 18.96 20.1399 18.8 20.2999 18.51C20.4599 18.22 20.3799 17.78 20.0799 17.27L19.4199 16.18C19.3099 15.97 19.1899 15.9 19.1399 15.9Z" fill="#101010"/>
<path d="M0.999647 11.99C0.669647 11.99 0.369647 11.77 0.279647 11.44C0.169647 11.04 0.409647 10.63 0.809647 10.52C6.47965 8.98 12.4896 8.93 18.1896 10.39L18.6896 10.52C19.0896 10.62 19.3296 11.03 19.2296 11.43C19.1296 11.83 18.7196 12.07 18.3196 11.97L17.8196 11.84C12.3696 10.44 6.62965 10.49 1.20965 11.97C1.12965 11.99 1.05965 11.99 0.999647 11.99Z" fill="#101010"/>
</svg>
