<svg width="20" height="20" viewBox="0 0 20 20" fill="none" xmlns="http://www.w3.org/2000/svg">
<path d="M10.332 19.34C9.24199 19.34 8.15199 18.93 7.32199 18.1C5.66199 16.44 5.66199 13.75 7.32199 12.09L9.80199 9.61999C10.092 9.32999 10.572 9.32999 10.862 9.61999C11.152 9.90999 11.152 10.39 10.862 10.68L8.38199 13.15C7.31199 14.22 7.31199 15.97 8.38199 17.04C9.45199 18.11 11.202 18.11 12.272 17.04L16.162 13.15C17.342 11.97 17.992 10.4 17.992 8.72998C17.992 7.05998 17.342 5.48998 16.162 4.30999C13.722 1.86999 9.76199 1.86999 7.32199 4.30999L3.08199 8.54999C2.09199 9.53999 1.54199 10.86 1.54199 12.26C1.54199 13.66 2.09199 14.98 3.08199 15.97C3.37199 16.26 3.37199 16.74 3.08199 17.03C2.79199 17.32 2.31199 17.32 2.02199 17.03C0.751992 15.75 0.0419922 14.06 0.0419922 12.26C0.0419922 10.46 0.741992 8.75998 2.02199 7.48998L6.26199 3.24999C9.28199 0.229985 14.202 0.229985 17.222 3.24999C18.682 4.70999 19.492 6.65998 19.492 8.72998C19.492 10.8 18.682 12.75 17.222 14.21L13.332 18.1C12.502 18.93 11.422 19.34 10.332 19.34Z" fill="#101010"/>
</svg>
