<svg width="20" height="20" viewBox="0 0 20 20" fill="none" xmlns="http://www.w3.org/2000/svg">
<path d="M14.9802 11.2C14.7902 11.2 14.5902 11.12 14.4502 10.98L9.05022 5.57C8.80022 5.32 8.76022 4.94 8.95022 4.64L10.6402 1.97C11.1102 1.23 11.8202 0.770003 12.6502 0.680003C13.5802 0.590003 14.5402 0.950004 15.2902 1.7L18.3202 4.73C19.0402 5.45 19.4002 6.42 19.2902 7.38C19.2002 8.22 18.7502 8.95 18.0502 9.39L15.3802 11.08C15.2602 11.16 15.1202 11.2 14.9802 11.2ZM10.5302 4.94L15.0902 9.5L17.2602 8.13C17.5702 7.93 17.7702 7.61 17.8102 7.22C17.8702 6.72 17.6602 6.19 17.2702 5.8L14.2402 2.77C13.8102 2.34 13.2902 2.11 12.8202 2.18C12.4402 2.22 12.1302 2.43 11.9102 2.78L10.5302 4.94Z" fill="#101010"/>
<path d="M3.89038 19.34C3.00038 19.34 2.20038 19.02 1.60038 18.43C0.900376 17.73 0.590376 16.76 0.720376 15.68L1.70038 7.35C2.00038 4.83 3.11038 3.91 5.70038 4.06L9.62038 4.29C10.0304 4.32 10.3504 4.67 10.3204 5.08C10.2904 5.49 9.94038 5.81 9.53038 5.78L5.61038 5.56C3.83038 5.45 3.39038 5.8 3.19038 7.53L2.21038 15.85C2.14038 16.46 2.30038 17 2.66038 17.36C3.03038 17.72 3.57038 17.89 4.18038 17.81L12.5004 16.83C14.2504 16.62 14.6404 16.16 14.4704 14.44L14.2304 10.49C14.2104 10.08 14.5204 9.72 14.9304 9.7C15.3404 9.67 15.7004 9.99 15.7204 10.4L15.9504 14.32C16.1904 16.81 15.2104 18.01 12.6604 18.32L4.34038 19.3C4.20038 19.33 4.04038 19.34 3.89038 19.34Z" fill="#101010"/>
<path d="M2.61078 18.17C2.42078 18.17 2.23078 18.1 2.08078 17.95C1.79078 17.66 1.79078 17.18 2.08078 16.89L5.12078 13.85C5.41078 13.56 5.89078 13.56 6.18078 13.85C6.47078 14.14 6.47078 14.62 6.18078 14.91L3.14078 17.95C2.99078 18.1 2.80078 18.17 2.61078 18.17Z" fill="#101010"/>
</svg>
