<svg width="18" height="22" viewBox="0 0 18 22" fill="none" xmlns="http://www.w3.org/2000/svg">
<path d="M11.1492 21.75H6.86924C5.84924 21.75 4.90924 21.32 4.30924 20.56C3.77924 19.9 3.58924 19.06 3.76924 18.26L4.45924 15.18C4.53924 14.84 4.83924 14.6 5.18924 14.6H12.8292C13.1792 14.6 13.4792 14.84 13.5592 15.18L14.2592 18.26C14.4492 19.12 14.2692 19.95 13.7492 20.6C13.1692 21.33 12.2192 21.75 11.1492 21.75ZM5.78924 16.1L5.22924 18.6C5.14924 18.96 5.23924 19.32 5.47924 19.63C5.78924 20.02 6.30924 20.25 6.86924 20.25H11.1592C11.7692 20.25 12.2892 20.04 12.5792 19.67C12.8192 19.38 12.8892 19 12.7992 18.6L12.2392 16.1H5.78924Z" fill="#101010"/>
<path d="M5.18957 16.1C5.00957 16.1 4.82957 16.04 4.68957 15.91L1.74957 13.3C-0.180428 11.71 -0.340428 10.17 1.24957 8.15L6.43957 1.57C7.10957 0.72 8.02957 0.25 9.00957 0.25C9.99957 0.25 10.9096 0.72 11.5796 1.57L16.7696 8.15C18.3396 10.14 18.1996 11.59 16.2696 13.3L13.3296 15.91C13.0196 16.18 12.5396 16.16 12.2696 15.85C11.9996 15.54 12.0196 15.07 12.3296 14.79L15.2696 12.18C16.5896 11.01 16.6496 10.43 15.5896 9.08L10.4096 2.5C9.64957 1.53 8.37957 1.53 7.61957 2.5L2.42957 9.08C1.33957 10.46 1.38957 11.07 2.71957 12.16L5.67957 14.79C5.98957 15.06 6.01957 15.54 5.73957 15.85C5.59957 16.01 5.39957 16.1 5.18957 16.1Z" fill="#101010"/>
<path d="M9.00977 6.72C8.59977 6.72 8.25977 6.38 8.25977 5.97V1.67C8.25977 1.26 8.59977 0.919998 9.00977 0.919998C9.41977 0.919998 9.75977 1.26 9.75977 1.67V5.97C9.75977 6.38 9.41977 6.72 9.00977 6.72Z" fill="#101010"/>
<path d="M11.1492 21.75H6.86924C5.84924 21.75 4.90924 21.32 4.30924 20.56C3.77924 19.9 3.58924 19.06 3.76924 18.26L4.45924 15.18C4.53924 14.84 4.83924 14.6 5.18924 14.6H12.8292C13.1792 14.6 13.4792 14.84 13.5592 15.18L14.2592 18.26C14.4492 19.12 14.2692 19.95 13.7492 20.6C13.1692 21.33 12.2192 21.75 11.1492 21.75ZM5.78924 16.1L5.22924 18.6C5.14924 18.96 5.23924 19.32 5.47924 19.63C5.78924 20.02 6.30924 20.25 6.86924 20.25H11.1592C11.7692 20.25 12.2892 20.04 12.5792 19.67C12.8192 19.38 12.8892 19 12.7992 18.6L12.2392 16.1H5.78924Z" fill="#101010"/>
<path d="M5.18957 16.1C5.00957 16.1 4.82957 16.04 4.68957 15.91L1.74957 13.3C-0.180428 11.71 -0.340428 10.17 1.24957 8.15L6.43957 1.57C7.10957 0.72 8.02957 0.25 9.00957 0.25C9.99957 0.25 10.9096 0.72 11.5796 1.57L16.7696 8.15C18.3396 10.14 18.1996 11.59 16.2696 13.3L13.3296 15.91C13.0196 16.18 12.5396 16.16 12.2696 15.85C11.9996 15.54 12.0196 15.07 12.3296 14.79L15.2696 12.18C16.5896 11.01 16.6496 10.43 15.5896 9.08L10.4096 2.5C9.64957 1.53 8.37957 1.53 7.61957 2.5L2.42957 9.08C1.33957 10.46 1.38957 11.07 2.71957 12.16L5.67957 14.79C5.98957 15.06 6.01957 15.54 5.73957 15.85C5.59957 16.01 5.39957 16.1 5.18957 16.1Z" fill="#101010"/>
<path d="M9.00977 6.72C8.59977 6.72 8.25977 6.38 8.25977 5.97V1.67C8.25977 1.26 8.59977 0.919998 9.00977 0.919998C9.41977 0.919998 9.75977 1.26 9.75977 1.67V5.97C9.75977 6.38 9.41977 6.72 9.00977 6.72Z" fill="#101010"/>
</svg>
