<svg width="22" height="22" viewBox="0 0 22 22" fill="none" xmlns="http://www.w3.org/2000/svg">
<path d="M17.2502 13.22C17.0602 13.22 16.8602 13.14 16.7202 13L11.0502 7.33001C10.8002 7.08001 10.7602 6.70001 10.9502 6.40001L12.7202 3.59996C13.2002 2.82996 13.9502 2.36 14.8102 2.26C15.7602 2.15 16.7702 2.54 17.5502 3.32L20.7302 6.49999C21.4802 7.24999 21.8502 8.24999 21.7402 9.24999C21.6402 10.12 21.1802 10.8699 20.4602 11.3299L17.6602 13.1C17.5302 13.18 17.3902 13.22 17.2502 13.22ZM12.5402 6.7L17.3602 11.52L19.6502 10.07C19.9902 9.86 20.2002 9.51002 20.2402 9.09002C20.3002 8.56002 20.0802 7.99 19.6602 7.57L16.4802 4.39C16.0202 3.93 15.4702 3.7 14.9702 3.76C14.5702 3.8 14.2302 4.02996 13.9902 4.40996L12.5402 6.7Z" fill="#101010"/>
<path d="M5.63008 21.75C4.69008 21.75 3.86008 21.4201 3.24008 20.8001C2.52008 20.0801 2.20008 19.07 2.33008 17.95L3.31007 9.67001C3.36007 9.26001 3.72007 8.97003 4.14007 9.01003C4.55007 9.06003 4.85008 9.43005 4.80008 9.84005L3.82008 18.12C3.74008 18.77 3.91008 19.34 4.30008 19.73C4.69008 20.12 5.27007 20.3 5.93007 20.22L14.6501 19.19C16.5101 18.97 16.9201 18.47 16.7401 16.65L16.5001 12.5C16.4801 12.09 16.7901 11.73 17.2101 11.71C17.6201 11.69 17.9801 12.0001 18.0001 12.4201L18.2401 16.5401C18.5001 19.1201 17.4801 20.37 14.8301 20.69L6.11008 21.72C5.95008 21.74 5.79008 21.75 5.63008 21.75Z" fill="#101010"/>
<path d="M11.5801 7.55993C11.5601 7.55993 11.5501 7.55993 11.5301 7.55993L9.78007 7.44995C9.37007 7.41995 9.05007 7.06996 9.08007 6.64996C9.11007 6.23996 9.46008 5.91995 9.88008 5.94995L11.6301 6.05993C12.0401 6.08993 12.3601 6.43992 12.3301 6.85992C12.3001 7.24992 11.9701 7.55993 11.5801 7.55993Z" fill="#101010"/>
<path d="M4.2807 20.53C4.0907 20.53 3.9007 20.46 3.7507 20.31C3.4607 20.02 3.4607 19.54 3.7507 19.25L6.9307 16.0699C7.2207 15.7799 7.70071 15.7799 7.99071 16.0699C8.28071 16.3599 8.28071 16.84 7.99071 17.13L4.8107 20.31C4.6607 20.46 4.4707 20.53 4.2807 20.53Z" fill="#101010"/>
<path d="M5.5 10.75C4.91 10.75 4.34 10.65 3.81 10.47C2.65 10.08 1.64999 9.28002 1.00999 8.21002C0.509995 7.39002 0.25 6.45 0.25 5.5C0.25 3.88 0.969996 2.39002 2.23 1.40002C3.15 0.660024 4.31 0.25 5.5 0.25C8.4 0.25 10.75 2.61 10.75 5.5C10.75 5.97 10.68 6.45997 10.55 6.90997C10.42 7.36997 10.24 7.79002 9.99001 8.21002C9.70001 8.69002 9.35 9.10001 8.94 9.45001C8 10.29 6.78 10.75 5.5 10.75ZM5.5 1.75C4.65 1.75 3.82 2.04001 3.16 2.57001C2.26 3.28001 1.75 4.34 1.75 5.5C1.75 6.17 1.93999 6.83999 2.28999 7.42999C2.74999 8.18999 3.45999 8.76998 4.28999 9.03998C5.49999 9.46998 6.95001 9.2 7.96001 8.31C8.25001 8.06 8.50001 7.75999 8.71001 7.42999C8.89001 7.12999 9.02 6.83 9.11 6.5C9.2 6.17 9.25 5.83 9.25 5.5C9.25 3.43 7.57 1.75 5.5 1.75Z" fill="#101010"/>
<path d="M6.69977 7.42996C6.50977 7.42996 6.31977 7.35999 6.16977 7.20999L3.78977 4.82999C3.49977 4.53999 3.49977 4.05999 3.78977 3.76999C4.07977 3.47999 4.55978 3.47999 4.84978 3.76999L7.22977 6.15C7.51977 6.44 7.51977 6.91999 7.22977 7.20999C7.08977 7.34999 6.88977 7.42996 6.69977 7.42996Z" fill="#101010"/>
<path d="M4.30023 7.45004C4.11023 7.45004 3.92023 7.38001 3.77023 7.23001C3.48023 6.94001 3.48023 6.46001 3.77023 6.17001L6.15022 3.79001C6.44022 3.50001 6.92024 3.50001 7.21024 3.79001C7.50024 4.08001 7.50024 4.56001 7.21024 4.85001L4.83023 7.23001C4.68023 7.38001 4.49023 7.45004 4.30023 7.45004Z" fill="#101010"/>
</svg>
