<svg width="22" height="20" viewBox="0 0 22 20" fill="none" xmlns="http://www.w3.org/2000/svg">
<path d="M21.0021 10.4H15.2021C13.3021 10.4 11.8721 8.97001 11.8721 7.07001V3.84998C11.8721 1.94998 13.3021 0.52002 15.2021 0.52002H18.4221C20.2521 0.52002 21.7521 2.00998 21.7521 3.84998V9.65002C21.7521 10.07 21.4121 10.4 21.0021 10.4ZM15.2021 2.03003C14.1421 2.03003 13.3721 2.79999 13.3721 3.85999V7.08002C13.3721 8.14002 14.1421 8.90997 15.2021 8.90997H20.2521V3.85999C20.2521 2.84999 19.4321 2.03003 18.4221 2.03003H15.2021Z" fill="#101010"/>
<path d="M16.4725 19.47C16.2125 19.47 15.9625 19.34 15.8225 19.1C15.6125 18.74 15.7325 18.28 16.0825 18.07C19.3125 16.15 20.2525 15.35 20.2525 9.65002C20.2525 9.24002 20.5925 8.90002 21.0025 8.90002C21.4125 8.90002 21.7525 9.24002 21.7525 9.65002C21.7525 15.9 20.4825 17.21 16.8525 19.36C16.7325 19.44 16.6025 19.47 16.4725 19.47Z" fill="#101010"/>
<path d="M9.37219 10.4H3.57219C1.67219 10.4 0.242188 8.97001 0.242188 7.07001V3.84998C0.242188 1.94998 1.67219 0.52002 3.57219 0.52002H6.80219C8.63219 0.52002 10.1322 2.00998 10.1322 3.84998V9.65002C10.1222 10.07 9.79219 10.4 9.37219 10.4ZM3.58219 2.03003C2.52219 2.03003 1.75219 2.79999 1.75219 3.85999V7.08002C1.75219 8.14002 2.52219 8.90997 3.58219 8.90997H8.63219V3.85999C8.63219 2.84999 7.81219 2.03003 6.80219 2.03003H3.58219Z" fill="#101010"/>
<path d="M4.8416 19.47C4.5816 19.47 4.3316 19.34 4.1916 19.1C3.9816 18.74 4.1016 18.28 4.4516 18.07C7.6816 16.15 8.6216 15.35 8.6216 9.65002C8.6216 9.24002 8.9616 8.90002 9.3716 8.90002C9.7816 8.90002 10.1216 9.24002 10.1216 9.65002C10.1216 15.9 8.8516 17.21 5.2216 19.36C5.1016 19.44 4.9716 19.47 4.8416 19.47Z" fill="#101010"/>
</svg>
