<svg width="22" height="22" viewBox="0 0 22 22" fill="none" xmlns="http://www.w3.org/2000/svg">
<path d="M8.68195 15.78H7.19196C6.12196 15.78 5.25195 14.91 5.25195 13.84V11.1699C5.25195 10.7599 5.59195 10.4199 6.00195 10.4199H8.68195C9.77195 10.4199 10.6219 11.2699 10.6219 12.3599V13.8499C10.6119 14.9199 9.76195 15.78 8.68195 15.78ZM6.75195 11.9099V13.83C6.75195 14.07 6.95196 14.27 7.19196 14.27H8.68195C9.00195 14.27 9.12195 14.03 9.12195 13.83V12.34C9.12195 12.14 9.01195 11.9 8.68195 11.9H6.75195V11.9099Z" fill="#101010"/>
<path d="M6.00195 11.91C5.59195 11.91 5.25195 11.57 5.25195 11.16C5.25195 8.07998 5.92196 7.39002 7.71196 6.33002C8.06196 6.12002 8.53196 6.24003 8.74196 6.59003C8.95196 6.94003 8.83195 7.41 8.48195 7.62C7.12195 8.43 6.75195 8.63998 6.75195 11.16C6.75195 11.58 6.41195 11.91 6.00195 11.91Z" fill="#101010"/>
<path d="M14.8118 15.78H13.3218C12.2518 15.78 11.3818 14.91 11.3818 13.84V11.1699C11.3818 10.7599 11.7218 10.4199 12.1318 10.4199H14.8118C15.9018 10.4199 16.7518 11.2699 16.7518 12.3599V13.8499C16.7518 14.9199 15.9018 15.78 14.8118 15.78ZM12.8918 11.9099V13.83C12.8918 14.07 13.0918 14.27 13.3318 14.27H14.8218C15.1418 14.27 15.2618 14.03 15.2618 13.83V12.34C15.2618 12.14 15.1518 11.9 14.8218 11.9H12.8918V11.9099Z" fill="#101010"/>
<path d="M12.1426 11.91C11.7326 11.91 11.3926 11.57 11.3926 11.16C11.3926 8.07998 12.0626 7.39002 13.8526 6.33002C14.2126 6.12002 14.6726 6.24003 14.8826 6.59003C15.0926 6.95003 14.9726 7.41 14.6226 7.62C13.2626 8.43 12.8926 8.63998 12.8926 11.16C12.8926 11.58 12.5526 11.91 12.1426 11.91Z" fill="#101010"/>
<path d="M11.002 21.75C5.07195 21.75 0.251953 16.93 0.251953 11C0.251953 5.07 5.07195 0.25 11.002 0.25C16.932 0.25 21.752 5.07 21.752 11C21.752 16.93 16.932 21.75 11.002 21.75ZM11.002 1.75C5.90195 1.75 1.75195 5.9 1.75195 11C1.75195 16.1 5.90195 20.25 11.002 20.25C16.102 20.25 20.252 16.1 20.252 11C20.252 5.9 16.102 1.75 11.002 1.75Z" fill="#101010"/>
</svg>
