<svg width="22" height="22" viewBox="0 0 22 22" fill="none" xmlns="http://www.w3.org/2000/svg">
<path d="M10.42 18.25H7.69C5 18.25 3.75 17 3.75 14.31V11.58C3.75 8.89999 5 7.64999 7.69 7.64999H10.42C13.1 7.64999 14.36 8.89999 14.36 11.59V14.32C14.35 17 13.1 18.25 10.42 18.25ZM7.69 9.14999C5.82 9.14999 5.25 9.71999 5.25 11.59V14.32C5.25 16.19 5.82 16.76 7.69 16.76H10.42C12.29 16.76 12.86 16.19 12.86 14.32V11.59C12.86 9.71999 12.29 9.14999 10.42 9.14999H7.69Z" fill="#101010"/>
<path d="M14.3104 14.35H13.6004C13.1904 14.35 12.8504 14.01 12.8504 13.6V11.58C12.8504 9.71 12.2804 9.14 10.4104 9.14H8.40039C7.99039 9.14 7.65039 8.8 7.65039 8.39V7.69C7.65039 5.01 8.90039 3.75 11.5904 3.75H14.3204C17.0004 3.75 18.2604 5 18.2604 7.69V10.42C18.2504 13.1 17.0004 14.35 14.3104 14.35ZM9.15039 7.65H10.4204C13.1004 7.65 14.3604 8.9 14.3604 11.59V12.86C16.2004 12.85 16.7604 12.28 16.7604 10.42V7.69C16.7604 5.82 16.1904 5.25 14.3204 5.25H11.5904C9.73039 5.25 9.16039 5.81 9.15039 7.65Z" fill="#101010"/>
<path d="M14.0002 21.75C13.7302 21.75 13.4802 21.6 13.3502 21.37C13.2202 21.13 13.2202 20.85 13.3602 20.61L14.4102 18.86C14.6202 18.5 15.0802 18.39 15.4402 18.6C15.8002 18.81 15.9102 19.27 15.7002 19.63L15.4302 20.08C18.1902 19.43 20.2602 16.95 20.2602 13.99C20.2602 13.58 20.6002 13.24 21.0102 13.24C21.4202 13.24 21.7602 13.58 21.7602 13.99C21.7502 18.27 18.2702 21.75 14.0002 21.75Z" fill="#101010"/>
<path d="M1 8.75C0.59 8.75 0.25 8.41 0.25 8C0.25 3.73 3.73 0.25 8 0.25C8.27 0.25 8.52 0.4 8.65 0.63C8.78 0.87 8.78 1.15 8.64 1.39L7.59 3.14C7.38 3.49 6.92 3.61 6.56 3.39C6.21 3.18 6.09 2.72 6.31 2.36L6.58 1.91C3.81 2.56 1.75 5.04 1.75 8C1.75 8.41 1.41 8.75 1 8.75Z" fill="#101010"/>
</svg>
