<svg width="22" height="12" viewBox="0 0 22 12" fill="none" xmlns="http://www.w3.org/2000/svg">
<path d="M18 11.75H4C1.58 11.75 0.25 10.42 0.25 8V4C0.25 1.58 1.58 0.25 4 0.25H18C20.42 0.25 21.75 1.58 21.75 4V8C21.75 10.42 20.42 11.75 18 11.75ZM4 1.75C2.42 1.75 1.75 2.42 1.75 4V8C1.75 9.58 2.42 10.25 4 10.25H18C19.58 10.25 20.25 9.58 20.25 8V4C20.25 2.42 19.58 1.75 18 1.75H4Z" fill="#101010"/>
<path d="M17 6.75C16.59 6.75 16.25 6.41 16.25 6V1C16.25 0.59 16.59 0.25 17 0.25C17.41 0.25 17.75 0.59 17.75 1V6C17.75 6.41 17.41 6.75 17 6.75Z" fill="#101010"/>
<path d="M5 5.75C4.59 5.75 4.25 5.41 4.25 5V1C4.25 0.59 4.59 0.25 5 0.25C5.41 0.25 5.75 0.59 5.75 1V5C5.75 5.41 5.41 5.75 5 5.75Z" fill="#101010"/>
<path d="M9 6.75C8.58 6.75 8.25 6.41 8.25 5.99L8.3 0.99C8.3 0.58 8.64 0.25 9.05 0.25C9.05 0.25 9.05 0.25 9.06 0.25C9.47 0.25 9.81 0.59 9.8 1.01L9.75 6.01C9.75 6.42 9.41 6.75 9 6.75Z" fill="#101010"/>
<path d="M13 4.75C12.59 4.75 12.25 4.41 12.25 4V1C12.25 0.59 12.59 0.25 13 0.25C13.41 0.25 13.75 0.59 13.75 1V4C13.75 4.41 13.41 4.75 13 4.75Z" fill="#101010"/>
</svg>
