<svg width="22" height="22" viewBox="0 0 22 22" fill="none" xmlns="http://www.w3.org/2000/svg">
<path d="M17.4707 21.75H13.4707C11.0507 21.75 9.7207 20.42 9.7207 18V4C9.7207 1.58 11.0507 0.25 13.4707 0.25H17.4707C19.8907 0.25 21.2207 1.58 21.2207 4V18C21.2207 20.42 19.8807 21.75 17.4707 21.75ZM13.4707 1.75C11.8907 1.75 11.2207 2.42 11.2207 4V18C11.2207 19.58 11.8907 20.25 13.4707 20.25H17.4707C19.0507 20.25 19.7207 19.58 19.7207 18V4C19.7207 2.42 19.0507 1.75 17.4707 1.75H13.4707Z" fill="#101010"/>
<path d="M15.4707 5.75H10.4707C10.0607 5.75 9.7207 5.41 9.7207 5C9.7207 4.59 10.0607 4.25 10.4707 4.25H15.4707C15.8807 4.25 16.2207 4.59 16.2207 5C16.2207 5.41 15.8807 5.75 15.4707 5.75Z" fill="#101010"/>
<path d="M14.4707 17.75H10.4707C10.0607 17.75 9.7207 17.41 9.7207 17C9.7207 16.59 10.0607 16.25 10.4707 16.25H14.4707C14.8807 16.25 15.2207 16.59 15.2207 17C15.2207 17.41 14.8807 17.75 14.4707 17.75Z" fill="#101010"/>
<path d="M15.4699 13.75C15.4599 13.75 15.4599 13.75 15.4699 13.75L10.4599 13.7C10.0499 13.7 9.70994 13.36 9.71994 12.94C9.71994 12.53 10.0599 12.2 10.4699 12.2C10.4699 12.2 10.4699 12.2 10.4799 12.2L15.4799 12.25C15.8899 12.25 16.2299 12.59 16.2199 13.01C16.2099 13.42 15.8799 13.75 15.4699 13.75Z" fill="#101010"/>
<path d="M13.4707 9.75H10.4707C10.0607 9.75 9.7207 9.41 9.7207 9C9.7207 8.59 10.0607 8.25 10.4707 8.25H13.4707C13.8807 8.25 14.2207 8.59 14.2207 9C14.2207 9.41 13.8807 9.75 13.4707 9.75Z" fill="#101010"/>
<path d="M4.49027 21.72C3.58027 21.72 2.72027 21.16 2.13027 20.18L1.31027 18.82C1.01027 18.32 0.780273 17.5 0.780273 16.92V3.95C0.780273 1.91 2.44027 0.25 4.48027 0.25C6.52027 0.25 8.18027 1.91 8.18027 3.95V16.91C8.18027 17.49 7.95027 18.31 7.65027 18.81L6.83027 20.17C6.26027 21.16 5.40027 21.72 4.49027 21.72ZM4.49027 1.75C3.28027 1.75 2.29027 2.74 2.29027 3.95V16.91C2.29027 17.22 2.44027 17.77 2.60027 18.04L3.42027 19.4C3.73027 19.92 4.12027 20.21 4.49027 20.21C4.86027 20.21 5.25027 19.91 5.56027 19.4L6.38027 18.04C6.54027 17.77 6.69027 17.22 6.69027 16.91V3.95C6.69027 2.74 5.70027 1.75 4.49027 1.75Z" fill="#101010"/>
<path d="M7.44027 6.75H1.53027C1.12027 6.75 0.780273 6.41 0.780273 6C0.780273 5.59 1.12027 5.25 1.53027 5.25H7.44027C7.85027 5.25 8.19027 5.59 8.19027 6C8.19027 6.41 7.85027 6.75 7.44027 6.75Z" fill="#101010"/>
</svg>
