<svg width="22" height="22" viewBox="0 0 22 22" fill="none" xmlns="http://www.w3.org/2000/svg">
<path d="M10.7197 21.75H6.21973C2.06973 21.75 0.219727 19.9 0.219727 15.75V11.25C0.219727 7.1 2.06973 5.25 6.21973 5.25H10.7197C14.8697 5.25 16.7197 7.1 16.7197 11.25V15.75C16.7197 19.9 14.8697 21.75 10.7197 21.75ZM6.21973 6.75C2.89973 6.75 1.71973 7.93 1.71973 11.25V15.75C1.71973 19.07 2.89973 20.25 6.21973 20.25H10.7197C14.0397 20.25 15.2197 19.07 15.2197 15.75V11.25C15.2197 7.93 14.0397 6.75 10.7197 6.75H6.21973Z" fill="#101010"/>
<path d="M15.9702 12.72C15.7802 12.72 15.6002 12.65 15.4602 12.52C15.3002 12.38 15.2202 12.18 15.2202 11.97V11.25C15.2202 7.93001 14.0402 6.75001 10.7202 6.75001H10.0002C9.7902 6.75001 9.5902 6.66001 9.4502 6.51001C9.3102 6.35001 9.2402 6.15001 9.2602 5.94001C9.5502 2.70001 12.2202 0.26001 15.4802 0.26001C18.6002 0.26001 21.2602 2.59001 21.6602 5.68001C21.7002 5.92001 21.7302 6.21001 21.7302 6.51001C21.7302 9.77001 19.2902 12.44 16.0502 12.73C16.0202 12.72 16.0002 12.72 15.9702 12.72ZM10.8902 5.25001C14.8602 5.30001 16.6702 7.10001 16.7202 11.08C18.7602 10.54 20.2202 8.69001 20.2202 6.50001C20.2202 6.29001 20.2002 6.09001 20.1702 5.90001C19.8602 3.52001 17.8402 1.75001 15.4702 1.75001C13.2802 1.75001 11.4402 3.21001 10.8902 5.25001Z" fill="#101010"/>
</svg>
