<svg width="16" height="20" viewBox="0 0 16 20" fill="none" xmlns="http://www.w3.org/2000/svg">
<path d="M15.002 19.75H1.00195C0.591953 19.75 0.251953 19.41 0.251953 19C0.251953 18.59 0.591953 18.25 1.00195 18.25H15.002C15.412 18.25 15.752 18.59 15.752 19C15.752 19.41 15.412 19.75 15.002 19.75Z" fill="#101010"/>
<path d="M8.00195 15.75C3.73195 15.75 0.251953 12.27 0.251953 8V1C0.251953 0.59 0.591953 0.25 1.00195 0.25C1.41195 0.25 1.75195 0.59 1.75195 1V8C1.75195 11.45 4.55195 14.25 8.00195 14.25C11.452 14.25 14.252 11.45 14.252 8V1C14.252 0.59 14.592 0.25 15.002 0.25C15.412 0.25 15.752 0.59 15.752 1V8C15.752 12.27 12.272 15.75 8.00195 15.75Z" fill="#101010"/>
</svg>
