<svg width="16" height="22" viewBox="0 0 16 22" fill="none" xmlns="http://www.w3.org/2000/svg">
<path d="M8 15.75C3.73 15.75 0.25 12.27 0.25 8C0.25 3.73 3.73 0.25 8 0.25C12.27 0.25 15.75 3.73 15.75 8C15.75 12.27 12.27 15.75 8 15.75ZM8 1.75C4.55 1.75 1.75 4.55 1.75 8C1.75 11.45 4.55 14.25 8 14.25C11.45 14.25 14.25 11.45 14.25 8C14.25 4.55 11.45 1.75 8 1.75Z" fill="#101010"/>
<path d="M8 21.75C7.59 21.75 7.25 21.41 7.25 21V15C7.25 14.59 7.59 14.25 8 14.25C8.41 14.25 8.75 14.59 8.75 15V21C8.75 21.41 8.41 21.75 8 21.75Z" fill="#101010"/>
<path d="M11 18.75H5C4.59 18.75 4.25 18.41 4.25 18C4.25 17.59 4.59 17.25 5 17.25H11C11.41 17.25 11.75 17.59 11.75 18C11.75 18.41 11.41 18.75 11 18.75Z" fill="#101010"/>
</svg>
