<svg width="22" height="22" viewBox="0 0 22 22" fill="none" xmlns="http://www.w3.org/2000/svg">
<path fill-rule="evenodd" clip-rule="evenodd" d="M2.38658 2.38658C2.006 2.76716 1.75 3.39978 1.75 4.43C1.75 4.84421 1.41421 5.18 1 5.18C0.585786 5.18 0.25 4.84421 0.25 4.43C0.25 3.17022 0.563996 2.08784 1.32592 1.32592C2.08784 0.563996 3.17022 0.25 4.43 0.25H9C10.2598 0.25 11.3422 0.563996 12.1041 1.32592C12.866 2.08784 13.18 3.17022 13.18 4.43C13.18 4.84421 12.8442 5.18 12.43 5.18C12.0158 5.18 11.68 4.84421 11.68 4.43C11.68 3.39978 11.424 2.76716 11.0434 2.38658C10.6628 2.006 10.0302 1.75 9 1.75H4.43C3.39978 1.75 2.76716 2.006 2.38658 2.38658Z" fill="#101010"/>
<path fill-rule="evenodd" clip-rule="evenodd" d="M1 8.23001C1.41421 8.23001 1.75 8.5658 1.75 8.98001V11.57C1.75 12.6002 2.006 13.2329 2.38658 13.6134C2.76716 13.994 3.39978 14.25 4.43 14.25H7C7.41421 14.25 7.75 14.5858 7.75 15C7.75 15.4142 7.41421 15.75 7 15.75H4.43C3.17022 15.75 2.08784 15.436 1.32592 14.6741C0.563996 13.9122 0.25 12.8298 0.25 11.57V8.98001C0.25 8.5658 0.585786 8.23001 1 8.23001Z" fill="#101010"/>
<path fill-rule="evenodd" clip-rule="evenodd" d="M10.9569 8.38658C10.5763 8.76716 10.3203 9.39978 10.3203 10.43V17.57C10.3203 18.6002 10.5763 19.2328 10.9569 19.6134C11.3375 19.994 11.9701 20.25 13.0003 20.25H17.5703C18.6005 20.25 19.2332 19.994 19.6137 19.6134C19.9943 19.2328 20.2503 18.6002 20.2503 17.57V10.43C20.2503 9.39978 19.9943 8.76716 19.6137 8.38658C19.2332 8.006 18.6005 7.75 17.5703 7.75H13.0003C11.9701 7.75 11.3375 8.006 10.9569 8.38658ZM9.89623 7.32592C10.6582 6.564 11.7405 6.25 13.0003 6.25H17.5703C18.8301 6.25 19.9125 6.564 20.6744 7.32592C21.4363 8.08784 21.7503 9.17022 21.7503 10.43V17.57C21.7503 18.8298 21.4363 19.9122 20.6744 20.6741C19.9125 21.436 18.8301 21.75 17.5703 21.75H13.0003C11.7405 21.75 10.6582 21.436 9.89623 20.6741C9.13431 19.9122 8.82031 18.8298 8.82031 17.57V10.43C8.82031 9.17022 9.13431 8.08784 9.89623 7.32592Z" fill="#101010"/>
<path fill-rule="evenodd" clip-rule="evenodd" d="M13.1201 14C13.1201 13.5858 13.4559 13.25 13.8701 13.25H17.1301C17.5443 13.25 17.8801 13.5858 17.8801 14C17.8801 14.4142 17.5443 14.75 17.1301 14.75H13.8701C13.4559 14.75 13.1201 14.4142 13.1201 14Z" fill="#101010"/>
<path fill-rule="evenodd" clip-rule="evenodd" d="M15.5 11.62C15.9142 11.62 16.25 11.9558 16.25 12.37V15.63C16.25 16.0442 15.9142 16.38 15.5 16.38C15.0858 16.38 14.75 16.0442 14.75 15.63V12.37C14.75 11.9558 15.0858 11.62 15.5 11.62Z" fill="#101010"/>
</svg>
