<svg width="22" height="22" viewBox="0 0 22 22" fill="none" xmlns="http://www.w3.org/2000/svg">
<path fill-rule="evenodd" clip-rule="evenodd" d="M7.21973 1C7.21973 0.585786 7.55551 0.25 7.96973 0.25C11.8963 0.25 15.1377 3.16707 15.6417 6.95971C15.6984 7.30558 15.7197 7.6538 15.7197 8C15.7197 12.2842 12.2539 15.75 7.96973 15.75C7.62353 15.75 7.27531 15.7287 6.92943 15.6719C3.13679 15.168 0.219727 11.9266 0.219727 8C0.219727 5.86362 1.08411 3.92495 2.4894 2.51967C2.78229 2.22678 3.25716 2.22678 3.55006 2.51967C3.84295 2.81256 3.84295 3.28744 3.55006 3.58033C2.41534 4.71505 1.71973 6.27638 1.71973 8C1.71973 11.169 4.07613 13.7848 7.13729 14.1864C7.14589 14.1875 7.15447 14.1888 7.16303 14.1902C7.41287 14.2318 7.68026 14.25 7.96973 14.25C11.4255 14.25 14.2197 11.4558 14.2197 8C14.2197 7.71054 14.2016 7.44315 14.1599 7.1933C14.1585 7.18474 14.1572 7.17616 14.1561 7.16756C13.7545 4.1064 11.1387 1.75 7.96973 1.75C7.55551 1.75 7.21973 1.41421 7.21973 1Z" fill="#101010"/>
<path fill-rule="evenodd" clip-rule="evenodd" d="M14.3606 6.54896C14.5257 6.37805 14.762 6.29548 14.9976 6.32639C18.7964 6.82478 21.72 10.069 21.72 14C21.72 18.2842 18.2543 21.75 13.97 21.75C10.0391 21.75 6.79481 18.8264 6.29642 15.0276C6.26551 14.792 6.34808 14.5557 6.519 14.3906C6.68991 14.2255 6.92895 14.1512 7.16335 14.1902C7.41319 14.2319 7.68058 14.25 7.97005 14.25C11.4258 14.25 14.22 11.4558 14.22 8.00001C14.22 7.71055 14.2019 7.44316 14.1603 7.19331C14.1212 6.95892 14.1955 6.71988 14.3606 6.54896ZM15.72 8.00521C15.7172 12.2853 12.2553 15.7472 7.97524 15.75C8.72747 18.352 11.1259 20.25 13.97 20.25C17.4258 20.25 20.22 17.4558 20.22 14C20.22 11.1559 18.3221 8.75744 15.72 8.00521Z" fill="#101010"/>
<path fill-rule="evenodd" clip-rule="evenodd" d="M12.5857 12.5938C12.8764 12.2986 13.3512 12.295 13.6464 12.5856L14.9564 13.8756C15.2515 14.1662 15.2551 14.6411 14.9645 14.9362C14.6739 15.2314 14.199 15.235 13.9039 14.9444L12.5939 13.6544C12.2987 13.3638 12.2951 12.8889 12.5857 12.5938Z" fill="#101010"/>
<path fill-rule="evenodd" clip-rule="evenodd" d="M14.4394 9.46967C14.7323 9.17678 15.2072 9.17678 15.5001 9.46967L16.5001 10.4697C16.7929 10.7626 16.7929 11.2374 16.5001 11.5303C16.2072 11.8232 15.7323 11.8232 15.4394 11.5303L14.4394 10.5303C14.1465 10.2374 14.1465 9.76256 14.4394 9.46967Z" fill="#101010"/>
<path fill-rule="evenodd" clip-rule="evenodd" d="M9.4394 14.4697C9.73229 14.1768 10.2072 14.1768 10.5001 14.4697L11.5001 15.4697C11.7929 15.7626 11.7929 16.2374 11.5001 16.5303C11.2072 16.8232 10.7323 16.8232 10.4394 16.5303L9.4394 15.5303C9.1465 15.2374 9.1465 14.7626 9.4394 14.4697Z" fill="#101010"/>
</svg>
