<svg width="18" height="22" viewBox="0 0 18 22" fill="none" xmlns="http://www.w3.org/2000/svg">
<path fill-rule="evenodd" clip-rule="evenodd" d="M9.01682 0.751501C9.27004 0.423702 9.74105 0.363244 10.0688 0.616464C11.0378 1.36493 12.9699 2.97461 14.6625 5.10464C16.3437 7.22024 17.866 9.94595 17.8503 12.9121C17.8492 17.7859 13.8833 21.75 9.00037 21.75C4.11555 21.75 0.150391 17.7736 0.150391 12.9C0.150391 12.4858 0.486177 12.15 0.900391 12.15C1.3146 12.15 1.65039 12.4858 1.65039 12.9C1.65039 16.9464 4.94519 20.25 9.00037 20.25C13.0568 20.25 16.3503 16.9552 16.3503 12.91V12.9059H16.3504C16.364 10.4428 15.0866 8.04927 13.4882 6.03786C11.9008 4.04039 10.0729 2.51506 9.15186 1.80353C8.82406 1.55031 8.7636 1.0793 9.01682 0.751501Z" fill="#101010"/>
<path fill-rule="evenodd" clip-rule="evenodd" d="M7.93319 0.615327C8.56377 0.12734 9.44095 0.128226 10.0706 0.617986C10.3976 0.872288 10.4565 1.3435 10.2022 1.67046C9.9479 1.99742 9.47669 2.05632 9.14973 1.80201C9.06056 1.73266 8.93984 1.73266 8.85067 1.80201L8.84463 1.80671L8.84461 1.80668C7.5649 2.78123 4.64971 5.21319 2.94798 8.32027C2.74901 8.68357 2.2932 8.81678 1.92991 8.6178C1.56661 8.41883 1.4334 7.96302 1.63238 7.59973C3.48942 4.20906 6.61138 1.62221 7.93319 0.615327Z" fill="#101010"/>
<path fill-rule="evenodd" clip-rule="evenodd" d="M9 0.25C9.41421 0.25 9.75 0.585786 9.75 1V21C9.75 21.4142 9.41421 21.75 9 21.75C8.58579 21.75 8.25 21.4142 8.25 21V1C8.25 0.585786 8.58579 0.25 9 0.25Z" fill="#101010"/>
<path fill-rule="evenodd" clip-rule="evenodd" d="M17.3748 13.8923C17.5558 14.2649 17.4004 14.7137 17.0279 14.8947L9.32785 18.6346C8.95526 18.8156 8.50651 18.6603 8.32554 18.2877C8.14457 17.9151 8.2999 17.4664 8.67249 17.2854L16.3725 13.5454C16.7451 13.3644 17.1938 13.5198 17.3748 13.8923Z" fill="#101010"/>
<path fill-rule="evenodd" clip-rule="evenodd" d="M17.0448 9.05229C17.2258 9.42488 17.0704 9.87363 16.6979 10.0546L9.32787 13.6346C8.95529 13.8156 8.50653 13.6603 8.32555 13.2877C8.14457 12.9151 8.29989 12.4664 8.67247 12.2854L16.0425 8.70537C16.415 8.52439 16.8638 8.67971 17.0448 9.05229Z" fill="#101010"/>
<path fill-rule="evenodd" clip-rule="evenodd" d="M14.7045 5.18158C14.8859 5.55397 14.731 6.00289 14.3586 6.18427L9.32859 8.63426C8.9562 8.81565 8.50728 8.6608 8.3259 8.28841C8.14452 7.91602 8.29936 7.4671 8.67175 7.28572L13.7018 4.83573C14.0742 4.65435 14.5231 4.80919 14.7045 5.18158Z" fill="#101010"/>
</svg>
