<svg width="22" height="22" viewBox="0 0 22 22" fill="none" xmlns="http://www.w3.org/2000/svg">
<path fill-rule="evenodd" clip-rule="evenodd" d="M0.969727 11.19C1.38394 11.19 1.71973 11.5258 1.71973 11.94V14C1.71973 16.426 2.20953 17.9291 3.12506 18.8447C4.04059 19.7602 5.5437 20.25 7.96973 20.25H13.9697C16.3958 20.25 17.8989 19.7602 18.8144 18.8447C19.7299 17.9291 20.2197 16.426 20.2197 14V12C20.2197 11.5858 20.5555 11.25 20.9697 11.25C21.3839 11.25 21.7197 11.5858 21.7197 12V14C21.7197 16.574 21.2095 18.5709 19.8751 19.9053C18.5406 21.2398 16.5437 21.75 13.9697 21.75H7.96973C5.39575 21.75 3.39887 21.2398 2.0644 19.9053C0.729928 18.5709 0.219727 16.574 0.219727 14V11.94C0.219727 11.5258 0.555513 11.19 0.969727 11.19Z" fill="#101010"/>
<path fill-rule="evenodd" clip-rule="evenodd" d="M2.0644 2.09467C3.39887 0.760201 5.39575 0.25 7.96973 0.25H9.96973C10.3839 0.25 10.7197 0.585786 10.7197 1C10.7197 1.41421 10.3839 1.75 9.96973 1.75H7.96973C5.5437 1.75 4.04059 2.2398 3.12506 3.15533C2.20953 4.07086 1.71973 5.57397 1.71973 8C1.71973 8.41421 1.38394 8.75 0.969727 8.75C0.555513 8.75 0.219727 8.41421 0.219727 8C0.219727 5.42603 0.729928 3.42914 2.0644 2.09467Z" fill="#101010"/>
<path fill-rule="evenodd" clip-rule="evenodd" d="M19.6825 1.77884C19.1192 2.00453 18.5109 2.2988 17.877 2.65421C17.5156 2.85677 17.0585 2.72807 16.856 2.36676C16.6534 2.00545 16.7821 1.54834 17.1434 1.34579C17.8271 0.962512 18.4967 0.637633 19.1317 0.383645L19.1419 0.379533C19.9084 0.0859864 20.6768 0.315988 21.1605 0.799672C21.6406 1.27971 21.9044 2.05092 21.586 2.84002C20.9395 4.45324 19.8215 6.32204 18.5493 8.04113C17.277 9.7605 15.8161 11.3766 14.4596 12.465L14.4578 12.4664L12.8778 13.7264C12.872 13.731 12.8661 13.7355 12.8602 13.74C12.6198 13.9203 12.3608 14.0782 12.0535 14.1984C11.8227 14.2888 11.5621 14.2592 11.3574 14.1195C11.1527 13.9797 11.0302 13.7479 11.0302 13.5C11.0302 13.3853 11.0227 13.2676 11.0064 13.1365C10.938 12.6326 10.7145 12.1571 10.2949 11.7453L10.2898 11.7404C9.8629 11.3134 9.36367 11.0792 8.85592 11.0068C8.70298 10.9974 8.59654 10.9923 8.49699 10.9985C8.24496 11.0143 8.00193 10.9022 7.85035 10.7002C7.69877 10.4982 7.659 10.2336 7.74454 9.99596C7.85958 9.67638 8.03003 9.36621 8.26485 9.09844L9.50412 7.53201C10.63 6.12197 12.3365 4.59717 14.1385 3.28389C14.4732 3.03993 14.9423 3.11352 15.1863 3.44826C15.4303 3.78301 15.3567 4.25214 15.0219 4.49611C13.2845 5.76241 11.6914 7.19706 10.6773 8.4667C10.677 8.46713 10.6766 8.46756 10.6763 8.46799L9.72274 9.67328C10.3117 9.86382 10.8676 10.1975 11.348 10.6772C11.8185 11.1397 12.1446 11.6716 12.3332 12.2421L13.5209 11.295C13.5211 11.2948 13.5214 11.2946 13.5217 11.2943C14.7449 10.3127 16.1187 8.80412 17.3436 7.14887C18.5687 5.49334 19.6104 3.73759 20.194 2.28107L20.1949 2.27891C20.2298 2.19243 20.2302 2.12026 20.2151 2.05808C20.1988 1.99073 20.1601 1.92056 20.0999 1.86033C20.0043 1.76478 19.8543 1.71473 19.6825 1.77884Z" fill="#101010"/>
<path fill-rule="evenodd" clip-rule="evenodd" d="M8.85592 10.9968C8.70298 10.9874 8.59653 10.9823 8.49698 10.9885C8.4862 10.9892 8.47541 10.9896 8.46462 10.9899C7.24123 11.0134 6.13119 11.8851 5.98589 13.2203C5.98586 13.2205 5.98591 13.22 5.98589 13.2203L5.77597 15.1895L5.77569 15.1921C5.70811 15.8059 6.22586 16.3109 6.81661 16.2447L6.8207 16.2442L8.78294 16.035C9.40488 15.9548 9.90798 15.6907 10.2778 15.3217C10.7682 14.8224 11.0302 14.1724 11.0302 13.49C11.0302 13.3842 11.0226 13.2567 11.0064 13.1265C10.9386 12.6267 10.717 12.1575 10.2899 11.7303C9.86292 11.3034 9.36367 11.0692 8.85592 10.9968ZM8.9615 9.50048C8.96672 9.50081 8.97188 9.50113 8.97698 9.50145C8.99424 9.50253 9.01146 9.50421 9.0286 9.50648C9.87256 9.61818 10.6842 10.0034 11.3505 10.6697C12.0024 11.3216 12.3808 12.0911 12.4935 12.9301L12.4944 12.937C12.518 13.1255 12.5302 13.3167 12.5302 13.49C12.5302 14.5666 12.1129 15.5957 11.3447 16.3761L11.3405 16.3803C10.7319 16.9889 9.9181 17.4033 8.96438 17.5241L8.9497 17.5258L6.98156 17.7356C5.43373 17.9078 4.11316 16.5941 4.28455 15.0293C4.2846 15.0289 4.28465 15.0284 4.2847 15.0279L4.49458 13.059C4.72893 10.9005 6.52942 9.53414 8.42012 9.49046C8.62154 9.47916 8.81504 9.4913 8.9615 9.50048Z" fill="#101010"/>
<path fill-rule="evenodd" clip-rule="evenodd" d="M10.2793 7.19C10.2793 6.77579 10.6151 6.44 11.0293 6.44C13.5448 6.44 15.5693 8.47708 15.5693 10.98C15.5693 11.3942 15.2335 11.73 14.8193 11.73C14.4051 11.73 14.0693 11.3942 14.0693 10.98C14.0693 9.30293 12.7138 7.94 11.0293 7.94C10.6151 7.94 10.2793 7.60422 10.2793 7.19Z" fill="#101010"/>
</svg>
