<svg width="21" height="22" viewBox="0 0 21 22" fill="none" xmlns="http://www.w3.org/2000/svg">
<path fill-rule="evenodd" clip-rule="evenodd" d="M8.15979 1.75965C8.45268 1.46675 8.92756 1.46676 9.22045 1.75965L16.5704 9.10969C17.2333 9.77258 17.2333 10.8474 16.5704 11.5103L10.5504 17.5303C9.7997 18.2811 8.95269 18.755 8.01512 18.755C7.07755 18.755 6.23053 18.2811 5.47978 17.5303L1.46979 13.5203C0.719043 12.7696 0.245117 11.9226 0.245117 10.985C0.245117 10.0474 0.719043 9.20039 1.46979 8.44965L5.77979 4.13965C6.07268 3.84676 6.54756 3.84676 6.84045 4.13965C7.13334 4.43255 7.13334 4.90742 6.84045 5.20031L2.53045 9.51031C1.94119 10.0996 1.74512 10.5876 1.74512 10.985C1.74512 11.3824 1.94119 11.8704 2.53045 12.4597L6.54045 16.4697C7.1297 17.0589 7.61769 17.255 8.01512 17.255C8.41255 17.255 8.90053 17.0589 9.48979 16.4697L15.5098 10.4497C15.5869 10.3725 15.5869 10.2475 15.5098 10.1703L16.0401 9.64001L15.5098 10.1703L8.15978 2.82031C7.86689 2.52741 7.86689 2.05254 8.15979 1.75965Z" fill="#101010"/>
<path fill-rule="evenodd" clip-rule="evenodd" d="M6.82025 0.419689C7.11314 0.126792 7.58801 0.126786 7.88091 0.419675L9.22091 1.75964C9.51381 2.05253 9.51381 2.5274 9.22092 2.8203C8.92803 3.1132 8.45316 3.1132 8.16026 2.82031L6.82026 1.48035C6.52737 1.18746 6.52736 0.712586 6.82025 0.419689Z" fill="#101010"/>
<path fill-rule="evenodd" clip-rule="evenodd" d="M16.9396 10.2273C16.9577 10.6411 16.6369 10.9912 16.223 11.0093L1.10303 11.6693C0.689212 11.6873 0.339102 11.3665 0.321039 10.9527C0.302976 10.5389 0.623801 10.1888 1.03762 10.1707L16.1576 9.51074C16.5714 9.49267 16.9215 9.8135 16.9396 10.2273Z" fill="#101010"/>
<path fill-rule="evenodd" clip-rule="evenodd" d="M1.25 21C1.25 20.5858 1.58579 20.25 2 20.25H9C9.41421 20.25 9.75 20.5858 9.75 21C9.75 21.4142 9.41421 21.75 9 21.75H2C1.58579 21.75 1.25 21.4142 1.25 21Z" fill="#101010"/>
<path fill-rule="evenodd" clip-rule="evenodd" d="M11.25 21C11.25 20.5858 11.5858 20.25 12 20.25H15C15.4142 20.25 15.75 20.5858 15.75 21C15.75 21.4142 15.4142 21.75 15 21.75H12C11.5858 21.75 11.25 21.4142 11.25 21Z" fill="#101010"/>
<path fill-rule="evenodd" clip-rule="evenodd" d="M18.4018 13.4921L17.85 14L17.2982 13.4921C17.4402 13.3378 17.6403 13.25 17.85 13.25C18.0597 13.25 18.2598 13.3378 18.4018 13.4921ZM17.85 15.1699C17.7499 15.2988 17.6438 15.4408 17.538 15.5908C17.3201 15.9 17.1141 16.2291 16.9652 16.5393C16.8096 16.8637 16.75 17.0992 16.75 17.24C16.75 17.8458 17.2442 18.34 17.85 18.34C18.4558 18.34 18.95 17.8458 18.95 17.24C18.95 17.0992 18.8904 16.8637 18.7348 16.5393C18.5859 16.2291 18.3799 15.9 18.1619 15.5908C18.0562 15.4408 17.9501 15.2988 17.85 15.1699ZM17.85 14C17.2982 13.4921 17.2983 13.492 17.2982 13.4921L17.2972 13.4931L17.2956 13.4949L17.2904 13.5006L17.2723 13.5205C17.257 13.5375 17.2352 13.5618 17.208 13.5927C17.1535 13.6545 17.0768 13.7429 16.9853 13.8525C16.8029 14.0709 16.5582 14.3772 16.312 14.7267C16.0674 15.0737 15.8109 15.4778 15.6129 15.8903C15.4217 16.2888 15.25 16.7658 15.25 17.24C15.25 18.6742 16.4158 19.84 17.85 19.84C19.2842 19.84 20.45 18.6742 20.45 17.24C20.45 16.7658 20.2783 16.2888 20.0871 15.8903C19.8891 15.4778 19.6326 15.0737 19.388 14.7267C19.1418 14.3772 18.8971 14.0709 18.7147 13.8525C18.6232 13.7429 18.5465 13.6545 18.492 13.5927C18.4648 13.5618 18.443 13.5375 18.4277 13.5205L18.4096 13.5006L18.4044 13.4949L18.4018 13.4921C18.4017 13.492 18.4018 13.4921 17.85 14Z" fill="#101010"/>
</svg>
