<svg width="22" height="22" viewBox="0 0 22 22" fill="none" xmlns="http://www.w3.org/2000/svg">
<path fill-rule="evenodd" clip-rule="evenodd" d="M7.4547 9.20588C7.82329 9.10645 8.20775 9.29977 8.34776 9.65493C8.67154 10.4762 9.37646 11.1182 10.2453 11.3559C10.4922 11.4216 10.7461 11.46 11 11.46C11.2704 11.46 11.5162 11.4271 11.7345 11.3616C12.1065 11.25 12.5021 11.4409 12.6464 11.8015C12.842 12.2905 12.95 12.8351 12.95 13.4C12.95 14.6799 12.3942 15.8404 11.5015 16.6377C10.726 17.3395 9.70805 17.75 8.59998 17.75C6.19576 17.75 4.25 15.8042 4.25 13.4C4.25 11.393 5.61521 9.70205 7.4547 9.20588ZM7.28503 10.8726C6.37681 11.345 5.75 12.3011 5.75 13.4C5.75 14.9758 7.0242 16.25 8.59998 16.25C9.33086 16.25 9.99211 15.9812 10.4964 15.5243L10.5008 15.5203L10.5008 15.5203C11.0867 14.9977 11.45 14.239 11.45 13.4C11.45 13.2431 11.4374 13.0897 11.4137 12.9415C11.2757 12.9541 11.1376 12.96 11 12.96C10.5946 12.96 10.2092 12.8987 9.85674 12.8047L9.85265 12.8036L9.85265 12.8036C8.76861 12.5079 7.85462 11.8039 7.28503 10.8726Z" fill="#101010"/>
<path fill-rule="evenodd" clip-rule="evenodd" d="M11.0004 5.75C9.42459 5.75 8.15039 7.02421 8.15039 8.6C8.15039 8.97393 8.22196 9.33156 8.34902 9.6572M6.65039 8.6C6.65039 6.19579 8.59615 4.25 11.0004 4.25C13.4046 4.25 15.3503 6.19579 15.3503 8.6C15.3503 9.16602 15.2419 9.70833 15.049 10.2027L15.0481 10.2051C14.5521 11.4631 13.4779 12.4408 12.1477 12.8036L12.1436 12.8047L12.1436 12.8047C11.7912 12.8987 11.4058 12.96 11.0004 12.96C10.6139 12.96 10.2228 12.9136 9.84403 12.8011C8.52067 12.4372 7.44756 11.4725 6.95176 10.2028L6.95171 10.2027C6.7588 9.70833 6.65039 9.16602 6.65039 8.6ZM11.0004 5.75C12.5761 5.75 13.8503 7.02421 13.8503 8.6L11.0004 5.75ZM13.8503 8.6C13.8503 8.97354 13.7789 9.33083 13.6521 9.6562L13.8503 8.6ZM13.6521 9.6562C13.3281 10.4769 12.6235 11.1183 11.7551 11.3559C11.5081 11.4216 11.2543 11.46 11.0004 11.46C10.73 11.46 10.4842 11.4271 10.2659 11.3616L10.2477 11.3564C9.37523 11.1185 8.67218 10.4847 8.34907 9.65734" fill="#101010"/>
<path fill-rule="evenodd" clip-rule="evenodd" d="M13.6513 9.64719C13.7912 9.28908 14.1792 9.09469 14.5497 9.19708C16.3845 9.70407 17.75 11.3921 17.75 13.4C17.75 15.8042 15.8042 17.75 13.4 17.75C12.2858 17.75 11.2706 17.3254 10.5012 16.6401C10.3407 16.4972 10.2493 16.2923 10.25 16.0774C10.2507 15.8625 10.3436 15.6583 10.505 15.5165C11.0853 15.0068 11.45 14.2511 11.45 13.4C11.45 13.026 11.3784 12.6683 11.2513 12.3427C11.174 12.1445 11.1844 11.9228 11.2801 11.7328C11.3757 11.5428 11.5475 11.4024 11.7527 11.3464C12.6252 11.1085 13.3283 10.4746 13.6513 9.64719ZM14.7148 10.8666C14.275 11.5879 13.6307 12.1666 12.8633 12.5292C12.92 12.8105 12.95 13.102 12.95 13.4C12.95 14.3505 12.648 15.2333 12.1285 15.9483C12.513 16.1415 12.9445 16.25 13.4 16.25C14.9758 16.25 16.25 14.9758 16.25 13.4C16.25 12.3027 15.6244 11.3455 14.7148 10.8666Z" fill="#101010"/>
<path fill-rule="evenodd" clip-rule="evenodd" d="M2.09467 2.09467C3.42914 0.760201 5.42603 0.25 8 0.25H14C16.574 0.25 18.5709 0.760201 19.9053 2.09467C21.2398 3.42914 21.75 5.42603 21.75 8V14C21.75 16.574 21.2398 18.5709 19.9053 19.9053C18.5709 21.2398 16.574 21.75 14 21.75H8C5.42603 21.75 3.42914 21.2398 2.09467 19.9053C0.760201 18.5709 0.25 16.574 0.25 14V12.2C0.25 11.7858 0.585786 11.45 1 11.45C1.41421 11.45 1.75 11.7858 1.75 12.2V14C1.75 16.426 2.2398 17.9291 3.15533 18.8447C4.07086 19.7602 5.57397 20.25 8 20.25H14C16.426 20.25 17.9291 19.7602 18.8447 18.8447C19.7602 17.9291 20.25 16.426 20.25 14V8C20.25 5.57397 19.7602 4.07086 18.8447 3.15533C17.9291 2.2398 16.426 1.75 14 1.75H8C5.57397 1.75 4.07086 2.2398 3.15533 3.15533C2.2398 4.07086 1.75 5.57397 1.75 8C1.75 8.41421 1.41421 8.75 1 8.75C0.585786 8.75 0.25 8.41421 0.25 8C0.25 5.42603 0.760201 3.42914 2.09467 2.09467Z" fill="#101010"/>
</svg>
