<svg width="22" height="22" viewBox="0 0 22 22" fill="none" xmlns="http://www.w3.org/2000/svg">
<path fill-rule="evenodd" clip-rule="evenodd" d="M2.66783 8.66783C2.0898 9.24586 1.75 10.224 1.75 11.9C1.75 12.3142 1.41421 12.65 1 12.65C0.585786 12.65 0.25 12.3142 0.25 11.9C0.25 10.076 0.610201 8.60414 1.60717 7.60717C2.60414 6.6102 4.07603 6.25 5.9 6.25H10.1C11.924 6.25 13.3959 6.6102 14.3928 7.60717C15.3898 8.60414 15.75 10.076 15.75 11.9V16.1C15.75 17.924 15.3898 19.3959 14.3928 20.3928C13.3959 21.3898 11.924 21.75 10.1 21.75H5.9C4.07603 21.75 2.60414 21.3898 1.60717 20.3928C0.610201 19.3959 0.25 17.924 0.25 16.1C0.25 15.6858 0.585786 15.35 1 15.35C1.41421 15.35 1.75 15.6858 1.75 16.1C1.75 17.776 2.0898 18.7541 2.66783 19.3322C3.24586 19.9102 4.22397 20.25 5.9 20.25H10.1C11.776 20.25 12.7541 19.9102 13.3322 19.3322C13.9102 18.7541 14.25 17.776 14.25 16.1V11.9C14.25 10.224 13.9102 9.24586 13.3322 8.66783C12.7541 8.0898 11.776 7.75 10.1 7.75H5.9C4.22397 7.75 3.24586 8.0898 2.66783 8.66783Z" fill="#101010"/>
<path fill-rule="evenodd" clip-rule="evenodd" d="M8.66783 2.66783C8.0898 3.24586 7.75 4.22397 7.75 5.9V6.25H10.1C11.924 6.25 13.3959 6.6102 14.3928 7.60717C15.3898 8.60414 15.75 10.076 15.75 11.9V14.25H16.1C17.776 14.25 18.7541 13.9102 19.3322 13.3322C19.9102 12.7541 20.25 11.776 20.25 10.1C20.25 9.68579 20.5858 9.35 21 9.35C21.4142 9.35 21.75 9.68579 21.75 10.1C21.75 11.924 21.3898 13.3959 20.3928 14.3928C19.3959 15.3898 17.924 15.75 16.1 15.75H15C14.5858 15.75 14.25 15.4142 14.25 15V11.9C14.25 10.224 13.9102 9.24586 13.3322 8.66783C12.7541 8.0898 11.776 7.75 10.1 7.75H7C6.58579 7.75 6.25 7.41421 6.25 7V5.9C6.25 4.07603 6.6102 2.60414 7.60717 1.60717C8.60414 0.610201 10.076 0.25 11.9 0.25H16.1C17.924 0.25 19.3959 0.610201 20.3928 1.60717C21.3898 2.60414 21.75 4.07603 21.75 5.9C21.75 6.31421 21.4142 6.65 21 6.65C20.5858 6.65 20.25 6.31421 20.25 5.9C20.25 4.22397 19.9102 3.24586 19.3322 2.66783C18.7541 2.0898 17.776 1.75 16.1 1.75H11.9C10.224 1.75 9.24586 2.0898 8.66783 2.66783Z" fill="#101010"/>
</svg>
