<svg width="22" height="22" viewBox="0 0 22 22" fill="none" xmlns="http://www.w3.org/2000/svg">
<path fill-rule="evenodd" clip-rule="evenodd" d="M7.25 21C7.25 20.5858 7.58579 20.25 8 20.25H20C20.4142 20.25 20.75 20.5858 20.75 21C20.75 21.4142 20.4142 21.75 20 21.75H8C7.58579 21.75 7.25 21.4142 7.25 21Z" fill="#101010"/>
<path fill-rule="evenodd" clip-rule="evenodd" d="M11.8084 1.3807C13.2632 -0.0852745 15.6489 -0.0815828 17.1101 1.37964L20.6178 4.88736C20.6182 4.88774 20.6186 4.88812 20.619 4.8885C22.085 6.34326 22.0814 8.72905 20.6201 10.1903C20.3272 10.4832 19.8523 10.4832 19.5595 10.1903C19.2666 9.89741 19.2666 9.42253 19.5595 9.12964C20.4378 8.25127 20.4345 6.81791 19.5617 5.95257L19.5595 5.9503L16.0494 2.4403C15.1711 1.56193 13.7377 1.56522 12.8724 2.43802L12.8701 2.4403L2.44006 12.8703C1.56169 13.7487 1.56497 15.182 2.43778 16.0474L2.44006 16.0496L5.95007 19.5596C6.82844 20.438 8.26178 20.4347 9.12712 19.5619L9.1294 19.5596L16.2094 12.4796C16.5023 12.1867 16.9772 12.1867 17.2701 12.4796C17.563 12.7725 17.563 13.2474 17.2701 13.5403L10.1923 20.618C10.1919 20.6184 10.1916 20.6188 10.1912 20.6192C8.73639 22.0852 6.35065 22.0815 4.88941 20.6203L1.38168 17.1126C1.38126 17.1122 1.38084 17.1117 1.38043 17.1113C-0.0855186 15.6566 -0.0818183 13.2708 1.3794 11.8096L1.90973 12.34L1.3794 11.8096L11.8072 1.38192C11.8076 1.38151 11.808 1.38111 11.8084 1.3807Z" fill="#101010"/>
<path fill-rule="evenodd" clip-rule="evenodd" d="M5.58979 7.59961C5.88268 7.30672 6.35755 7.30672 6.65045 7.59961L14.4004 15.3496C14.6933 15.6425 14.6933 16.1174 14.4004 16.4103C14.1076 16.7032 13.6327 16.7032 13.3398 16.4103L5.58979 8.66027C5.29689 8.36738 5.29689 7.89251 5.58979 7.59961Z" fill="#101010"/>
<path fill-rule="evenodd" clip-rule="evenodd" d="M8.69935 10.4692C8.99251 10.7618 8.99293 11.2367 8.7003 11.5299L3.05033 17.1899C2.7577 17.483 2.28283 17.4834 1.98967 17.1908C1.69652 16.8982 1.6961 16.4233 1.98873 16.1301L7.63869 10.4701C7.93133 10.177 8.4062 10.1766 8.69935 10.4692Z" fill="#101010"/>
<path fill-rule="evenodd" clip-rule="evenodd" d="M11.5301 13.2996C11.823 13.5925 11.823 14.0674 11.5301 14.3603L5.87017 20.0203C5.57728 20.3132 5.10241 20.3132 4.80951 20.0203C4.51662 19.7274 4.51662 19.2525 4.80951 18.9596L10.4695 13.2996C10.7624 13.0067 11.2373 13.0067 11.5301 13.2996Z" fill="#101010"/>
</svg>
