<svg width="22" height="22" viewBox="0 0 22 22" fill="none" xmlns="http://www.w3.org/2000/svg">
<path fill-rule="evenodd" clip-rule="evenodd" d="M14.4186 6.17871C14.4604 6.4548 14.4278 6.74688 14.359 7.02809L14.3585 7.03012L13.5885 10.1428L14.5147 10.373C14.974 10.4893 15.5718 10.7875 15.6909 11.4421C15.8097 12.0957 15.3565 12.5849 14.9699 12.8549L14.9677 12.8565L9.78948 16.4452C9.78916 16.4454 9.78883 16.4456 9.78851 16.4458C9.55137 16.6111 9.2913 16.7466 9.01944 16.8074C8.74387 16.869 8.3928 16.8643 8.07998 16.6506C7.76686 16.4367 7.63479 16.1111 7.59239 15.8313C7.55055 15.5552 7.5832 15.2632 7.65194 14.982L7.65244 14.9799L8.42249 11.8672L7.4963 11.637C7.03695 11.5207 6.4391 11.2226 6.32008 10.5679C6.20124 9.9143 6.65456 9.42509 7.04105 9.15516L7.04327 9.15361L12.2215 5.56484C12.2218 5.56461 12.2221 5.56438 12.2224 5.56416C12.4596 5.3989 12.7197 5.26339 12.9915 5.20261C13.2671 5.141 13.6182 5.14578 13.931 5.35945C14.2441 5.57331 14.3762 5.89896 14.4186 6.17871ZM12.8284 6.96924L11.9524 10.5099C11.853 10.9117 12.0979 11.3181 12.4996 11.4179L13.9059 11.7673L9.18262 15.0407L10.0585 11.5001C10.1579 11.0983 9.91303 10.6919 9.51133 10.5921L8.10514 10.2427L12.8284 6.96924Z" fill="#101010"/>
<path fill-rule="evenodd" clip-rule="evenodd" d="M6.66385 1.16531C7.99056 0.572061 9.46492 0.25 11 0.25C16.9342 0.25 21.75 5.06579 21.75 11C21.75 16.9342 16.9342 21.75 11 21.75C5.06579 21.75 0.25 16.9342 0.25 11C0.25 8.5809 1.0568 6.34452 2.39957 4.55058C2.64778 4.21897 3.11782 4.15136 3.44942 4.39957C3.78103 4.64778 3.84864 5.11782 3.60043 5.44942C2.4432 6.99548 1.75 8.9191 1.75 11C1.75 16.1058 5.89421 20.25 11 20.25C16.1058 20.25 20.25 16.1058 20.25 11C20.25 5.89421 16.1058 1.75 11 1.75C9.67508 1.75 8.40944 2.02789 7.27615 2.53464C6.89802 2.70373 6.45442 2.53426 6.28533 2.15613C6.11625 1.778 6.28572 1.33439 6.66385 1.16531Z" fill="#101010"/>
</svg>
