<svg width="22" height="22" viewBox="0 0 22 22" fill="none" xmlns="http://www.w3.org/2000/svg">
<path fill-rule="evenodd" clip-rule="evenodd" d="M7.01693 7.01657C6.61986 7.41365 6.36035 8.10965 6.36035 9.38V12.61C6.36035 13.0817 6.39744 13.4812 6.46579 13.8229C6.54702 14.2291 6.28361 14.6242 5.87744 14.7054C5.47127 14.7867 5.07615 14.5233 4.99492 14.1171C4.90326 13.6588 4.86035 13.1582 4.86035 12.61V9.38C4.86035 7.96036 5.14084 6.77135 5.95627 5.95592C6.7717 5.14048 7.9607 4.85999 9.38035 4.85999H12.6104C14.03 4.85999 15.219 5.14048 16.0344 5.95592C16.8499 6.77135 17.1304 7.96036 17.1304 9.38V12.61C17.1304 14.0296 16.8499 15.2186 16.0344 16.0341C15.219 16.8495 14.03 17.13 12.6104 17.13H9.38035C8.96614 17.13 8.63035 16.7942 8.63035 16.38C8.63035 15.9658 8.96614 15.63 9.38035 15.63H12.6104C13.8807 15.63 14.5767 15.3705 14.9738 14.9734C15.3708 14.5763 15.6304 13.8803 15.6304 12.61V9.38C15.6304 8.10965 15.3708 7.41365 14.9738 7.01657C14.5767 6.6195 13.8807 6.35999 12.6104 6.35999H9.38035C8.11 6.35999 7.414 6.6195 7.01693 7.01657Z" fill="#101010"/>
<path fill-rule="evenodd" clip-rule="evenodd" d="M11.637 2.40658C11.24 2.80364 10.9805 3.49964 10.9805 4.76999V4.87H12.6105C14.0301 4.87 15.2191 5.15049 16.0346 5.96593C16.85 6.78136 17.1305 7.97036 17.1305 9.39001V11.02H17.2305C18.5008 11.02 19.1968 10.7605 19.5939 10.3634C19.991 9.96635 20.2505 9.27035 20.2505 8V4.76999C20.2505 3.49964 19.991 2.80364 19.5939 2.40658C19.1968 2.00951 18.5008 1.75 17.2305 1.75H14.0005C12.7301 1.75 12.0341 2.00951 11.637 2.40658ZM10.5764 1.34591C11.3918 0.530486 12.5808 0.25 14.0005 0.25H17.2305C18.6501 0.25 19.8391 0.530486 20.6545 1.34591C21.47 2.16134 21.7505 3.35034 21.7505 4.76999V8C21.7505 9.41965 21.47 10.6086 20.6545 11.4241C19.8391 12.2395 18.6501 12.52 17.2305 12.52H16.3805C15.9663 12.52 15.6305 12.1842 15.6305 11.77V9.39001C15.6305 8.11966 15.371 7.42366 14.9739 7.02658C14.5768 6.62951 13.8808 6.37 12.6105 6.37H10.2305C9.81626 6.37 9.48047 6.03421 9.48047 5.62V4.76999C9.48047 3.35034 9.76096 2.16134 10.5764 1.34591Z" fill="#101010"/>
<path fill-rule="evenodd" clip-rule="evenodd" d="M2.40658 11.6366C2.00951 12.0336 1.75 12.7296 1.75 14V17.23C1.75 18.5003 2.00951 19.1963 2.40658 19.5934C2.80365 19.9905 3.49965 20.25 4.77 20.25H8C9.27035 20.25 9.96635 19.9905 10.3634 19.5934C10.7605 19.1963 11.02 18.5003 11.02 17.23V16.38C11.02 15.9658 11.3558 15.63 11.77 15.63C12.1842 15.63 12.52 15.9658 12.52 16.38V17.23C12.52 18.6496 12.2395 19.8386 11.4241 20.6541C10.6086 21.4695 9.41965 21.75 8 21.75H4.77C3.35035 21.75 2.16135 21.4695 1.34592 20.6541C0.53049 19.8386 0.25 18.6496 0.25 17.23V14C0.25 12.5803 0.53049 11.3913 1.34592 10.5759C2.16135 9.76047 3.35035 9.47998 4.77 9.47998H5.62C6.03421 9.47998 6.37 9.81577 6.37 10.23C6.37 10.6442 6.03421 10.98 5.62 10.98H4.77C3.49965 10.98 2.80365 11.2395 2.40658 11.6366Z" fill="#101010"/>
</svg>
