<svg width="18" height="22" viewBox="0 0 18 22" fill="none" xmlns="http://www.w3.org/2000/svg">
<path fill-rule="evenodd" clip-rule="evenodd" d="M5.4401 1.75C4.54637 1.75 3.8201 2.48215 3.8201 3.37C3.8201 3.81802 3.99864 4.22467 4.2943 4.51361L4.30047 4.51964C4.59142 4.81059 5.00127 4.99 5.4501 4.99H5.7501C6.00384 4.99 6.24038 5.1183 6.37876 5.33098C6.51714 5.54367 6.53859 5.8119 6.43578 6.04388L6.04578 6.92388C5.87795 7.30257 5.43491 7.47351 5.05622 7.30568C4.70078 7.14815 4.52837 6.74817 4.64732 6.38651C4.11149 6.24563 3.62697 5.96645 3.24281 5.58336C2.66036 5.01253 2.3201 4.22048 2.3201 3.37C2.3201 1.65785 3.71383 0.25 5.4401 0.25H12.5501C13.4209 0.25 14.1984 0.60765 14.7604 1.16967C15.4938 1.90302 15.8642 2.98671 15.5892 4.12598L15.5877 4.13191C15.3047 5.264 14.4117 6.05929 13.3688 6.35861L17.187 15.0989C17.1871 15.0991 17.1869 15.0988 17.187 15.0989C17.9002 16.7263 18.1161 18.4046 17.3781 19.7216C16.6186 21.0772 15.0269 21.75 12.8301 21.75H5.1601C2.9456 21.75 1.34966 21.0757 0.596226 19.7129C-0.134388 18.3913 0.0970216 16.7108 0.814012 15.087L2.88372 10.3877C3.05068 10.0086 3.49333 9.83667 3.8724 10.0036C4.25148 10.1706 4.42344 10.6132 4.25648 10.9923L2.18648 15.6923C1.54347 17.1485 1.51459 18.2737 1.90898 18.9871C2.28055 19.6593 3.19461 20.25 5.1601 20.25H12.8301C14.7733 20.25 15.6916 19.6628 16.0696 18.9884C16.469 18.2755 16.4498 17.1535 15.8132 15.7011L11.5928 6.04024C11.4915 5.80837 11.514 5.54105 11.6525 5.32932C11.7911 5.11759 12.0271 4.99 12.2801 4.99H12.4401C13.2531 4.99 13.9552 4.47098 14.1318 3.77104C14.2754 3.17145 14.0858 2.61634 13.6998 2.23033C13.4018 1.93235 12.9993 1.75 12.5501 1.75H5.4401Z" fill="#101010"/>
<path fill-rule="evenodd" clip-rule="evenodd" d="M14.4143 11.486C14.7587 11.2563 15.2242 11.3491 15.4541 11.6935C15.6842 12.0379 15.5914 12.5037 15.247 12.7337L14.8304 12.11C15.247 12.7337 15.2472 12.7335 15.247 12.7337L15.2447 12.7352L15.2413 12.7375L15.2314 12.7439L15.1994 12.7645C15.1726 12.7815 15.1351 12.8047 15.0876 12.8331C14.9926 12.8899 14.857 12.9673 14.6861 13.0558C14.3451 13.2322 13.8587 13.455 13.2697 13.6441C12.0995 14.0198 10.4678 14.2797 8.76327 13.7115C7.33893 13.2367 5.88762 13.0245 4.78316 12.9324C4.2332 12.8866 3.77466 12.871 3.45561 12.8668C3.2962 12.8647 3.17196 12.8655 3.08891 12.8667C3.04739 12.8673 3.01621 12.8681 2.9961 12.8686L2.97436 12.8693L2.96991 12.8694C2.96983 12.8694 2.96998 12.8694 2.96991 12.8694C2.97002 12.8694 2.96983 12.8694 2.94044 12.12C2.91105 11.3706 2.9112 11.3706 2.91135 11.3706L2.91268 11.3705L2.91543 11.3704L2.92426 11.3701L2.95498 11.3692C2.98116 11.3685 3.01864 11.3676 3.06666 11.3669C3.16267 11.3655 3.30093 11.3647 3.47527 11.3669C3.82372 11.3715 4.31768 11.3884 4.90772 11.4376C6.08326 11.5356 7.66195 11.7633 9.23761 12.2885C10.533 12.7203 11.8164 12.5352 12.8112 12.2159C13.3047 12.0575 13.7133 11.8703 13.9967 11.7236C14.1379 11.6505 14.2469 11.5881 14.3184 11.5454C14.3541 11.5241 14.3803 11.5077 14.3965 11.4975L14.413 11.4869L14.4143 11.486C14.4142 11.4861 14.4145 11.4859 14.4143 11.486ZM2.19102 12.1494C2.17478 11.7355 2.49746 11.3868 2.91135 11.3706L2.94044 12.12M2.19102 12.1494C2.20724 12.5632 2.55611 12.8855 2.96991 12.8694L2.19102 12.1494Z" fill="#101010"/>
</svg>
