<svg width="20" height="21" viewBox="0 0 20 21" fill="none" xmlns="http://www.w3.org/2000/svg">
<path fill-rule="evenodd" clip-rule="evenodd" d="M13.9701 2.96967C15.093 1.84678 16.9079 1.84678 18.0308 2.96967C19.1537 4.09257 19.1537 5.90744 18.0308 7.03033L15.5108 9.55033C15.2179 9.84323 14.743 9.84323 14.4501 9.55033C14.1572 9.25744 14.1572 8.78257 14.4501 8.48967L16.9701 5.96967C17.5072 5.43257 17.5072 4.56744 16.9701 4.03033C16.433 3.49323 15.5679 3.49323 15.0308 4.03033L2.03076 17.0303C1.49365 17.5674 1.49365 18.4326 2.03076 18.9697C2.56787 19.5068 3.43299 19.5068 3.9701 18.9697L11.9701 10.9697C12.263 10.6768 12.7379 10.6768 13.0308 10.9697C13.3237 11.2626 13.3237 11.7374 13.0308 12.0303L5.03076 20.0303C3.90787 21.1532 2.09299 21.1532 0.9701 20.0303C-0.152794 18.9074 -0.152794 17.0926 0.9701 15.9697L13.9701 2.96967Z" fill="#101010"/>
<path fill-rule="evenodd" clip-rule="evenodd" d="M12.4804 4.45966C12.7733 4.16677 13.2482 4.16677 13.5411 4.45966L16.5411 7.45966C16.834 7.75255 16.834 8.22743 16.5411 8.52032C16.2482 8.81321 15.7733 8.81321 15.4804 8.52032L12.4804 5.52032C12.1875 5.22743 12.1875 4.75255 12.4804 4.45966Z" fill="#101010"/>
<path fill-rule="evenodd" clip-rule="evenodd" d="M4.64646 0.646444C4.77575 0.517154 4.9653 0.468747 5.14075 0.520213L6.64075 0.960213C6.90573 1.03794 7.05752 1.31576 6.9798 1.58073C6.90207 1.84571 6.62425 1.99751 6.35928 1.91978L5.73737 1.73736L5.9198 2.35926C5.94675 2.45115 5.94675 2.54885 5.9198 2.64073L5.73737 3.26264L6.35928 3.08021C6.45116 3.05326 6.54886 3.05326 6.64075 3.08021L7.26265 3.26264L7.08023 2.64073C7.0025 2.37576 7.1543 2.09794 7.41928 2.02021C7.68425 1.94249 7.96207 2.09428 8.0398 2.35926L8.4798 3.85926C8.53126 4.03471 8.48286 4.22426 8.35357 4.35355C8.22428 4.48284 8.03473 4.53125 7.85928 4.47978L6.50001 4.08106L5.14075 4.47978C4.9653 4.53125 4.77575 4.48284 4.64646 4.35355C4.51717 4.22426 4.46876 4.03471 4.52023 3.85926L4.91895 2.5L4.52023 1.14073C4.46876 0.965284 4.51717 0.775733 4.64646 0.646444Z" fill="#101010"/>
<path fill-rule="evenodd" clip-rule="evenodd" d="M0.646459 6.64646C0.775748 6.51717 0.965299 6.46876 1.14075 6.52023L2.50001 6.91894L3.85928 6.52023C4.03473 6.46876 4.22428 6.51717 4.35357 6.64646C4.48286 6.77575 4.53126 6.9653 4.4798 7.14075L4.08108 8.50001L4.4798 9.85928C4.53126 10.0347 4.48286 10.2243 4.35357 10.3536C4.22428 10.4829 4.03473 10.5313 3.85928 10.4798L2.50001 10.0811L1.14075 10.4798C0.965299 10.5313 0.775748 10.4829 0.646459 10.3536C0.51717 10.2243 0.468762 10.0347 0.520228 9.85928L0.918945 8.50001L0.520228 7.14075C0.468762 6.9653 0.51717 6.77575 0.646459 6.64646ZM1.73737 7.73737L1.9198 8.35928C1.94675 8.45116 1.94675 8.54886 1.9198 8.64075L1.73737 9.26265L2.35928 9.08023C2.45116 9.05327 2.54886 9.05327 2.64075 9.08023L3.26265 9.26265L3.08023 8.64075C3.05327 8.54886 3.05327 8.45116 3.08023 8.35928L3.26265 7.73737L2.64075 7.9198C2.54886 7.94675 2.45116 7.94675 2.35928 7.9198L1.73737 7.73737Z" fill="#101010"/>
<path fill-rule="evenodd" clip-rule="evenodd" d="M15.6465 11.6465C15.7757 11.5172 15.9653 11.4688 16.1407 11.5202L17.5 11.9189L18.8593 11.5202C19.0347 11.4688 19.2243 11.5172 19.3536 11.6465C19.4829 11.7757 19.5313 11.9653 19.4798 12.1407L19.0811 13.5L19.4798 14.8593C19.5313 15.0347 19.4829 15.2243 19.3536 15.3536C19.2243 15.4829 19.0347 15.5313 18.8593 15.4798L17.3593 15.0398C17.0943 14.9621 16.9425 14.6843 17.0202 14.4193C17.098 14.1543 17.3758 14.0025 17.6407 14.0802L18.2627 14.2627L18.0802 13.6407C18.0533 13.5489 18.0533 13.4512 18.0802 13.3593L18.2627 12.7374L17.6407 12.9198C17.5489 12.9468 17.4512 12.9468 17.3593 12.9198L16.7374 12.7374L16.9198 13.3593C16.9975 13.6243 16.8457 13.9021 16.5807 13.9798C16.3158 14.0575 16.038 13.9057 15.9602 13.6407L15.5202 12.1407C15.4688 11.9653 15.5172 11.7757 15.6465 11.6465Z" fill="#101010"/>
</svg>
