<svg width="22" height="22" viewBox="0 0 22 22" fill="none" xmlns="http://www.w3.org/2000/svg">
<path fill-rule="evenodd" clip-rule="evenodd" d="M13.0305 2.5914C11.9118 1.48157 10.0859 1.48454 8.98011 2.59034L2.59198 8.97846C2.59169 8.97876 2.59139 8.97906 2.5911 8.97935C1.48132 10.098 1.48432 11.9239 2.5901 13.0297L6.27009 16.7097C6.56298 17.0026 6.56298 17.4774 6.27009 17.7703C5.9772 18.0632 5.50232 18.0632 5.20943 17.7703L1.52944 14.0903C-0.164496 12.3964 -0.161792 9.623 1.52755 7.92159L1.52943 7.91969L1.52944 7.91969L7.91945 1.52968C9.61338 -0.164251 12.3868 -0.161548 14.0882 1.5278L14.0901 1.52968L20.4801 7.91969C22.174 9.61363 22.1713 12.387 20.482 14.0884L20.4801 14.0903L14.0901 20.4804C12.3962 22.1743 9.62275 22.1716 7.92134 20.4822C7.62741 20.1904 7.62572 19.7155 7.91757 19.4216C8.20942 19.1277 8.68429 19.126 8.97822 19.4178C10.0968 20.5285 11.9234 20.5258 13.0294 19.4197L19.4176 13.0316C19.4179 13.0312 19.4182 13.0309 19.4186 13.0306C20.5282 11.9119 20.5252 10.0861 19.4194 8.98036L13.0313 2.59222C13.0311 2.59195 13.0308 2.59168 13.0305 2.5914Z" fill="#101010"/>
<path fill-rule="evenodd" clip-rule="evenodd" d="M4.71967 4.71967C5.01256 4.42678 5.48744 4.42678 5.78033 4.71967L17.2803 16.2197C17.5732 16.5126 17.5732 16.9874 17.2803 17.2803C16.9874 17.5732 16.5126 17.5732 16.2197 17.2803L4.71967 5.78033C4.42678 5.48744 4.42678 5.01256 4.71967 4.71967Z" fill="#101010"/>
<path fill-rule="evenodd" clip-rule="evenodd" d="M15.0303 6.96967C15.3232 7.26256 15.3232 7.73744 15.0303 8.03033L5.78033 17.2803C5.48744 17.5732 5.01256 17.5732 4.71967 17.2803C4.42678 16.9874 4.42678 16.5126 4.71967 16.2197L13.9697 6.96967C14.2626 6.67678 14.7374 6.67678 15.0303 6.96967Z" fill="#101010"/>
</svg>
