<svg width="22" height="22" viewBox="0 0 22 22" fill="none" xmlns="http://www.w3.org/2000/svg">
<path fill-rule="evenodd" clip-rule="evenodd" d="M8.85028 5.70578C9.28587 5.53192 9.63298 5.56469 9.8321 5.6744C9.99129 5.76211 10.2127 5.98566 10.2203 6.60915C10.2254 7.02333 10.5652 7.355 10.9794 7.34995C11.3936 7.3449 11.7253 7.00504 11.7202 6.59086C11.7078 5.57435 11.3043 4.7729 10.5559 4.36061C9.84779 3.97044 9.00545 4.02816 8.29173 4.31365L8.2887 4.31487C5.64576 5.38543 3.78027 7.97366 3.78027 11C3.78027 14.0259 5.64555 16.6157 8.29122 17.6762C9.00241 17.9606 9.84516 18.0228 10.5546 17.6339C11.3054 17.2223 11.7079 16.4189 11.7202 15.3991L11.7203 10.86C11.7203 10.4458 11.3845 10.11 10.9703 10.11C10.5561 10.11 10.2203 10.4458 10.2203 10.86V15.3852C10.2117 16.0121 9.98983 16.2329 9.83349 16.3186C9.63546 16.4272 9.2879 16.4592 8.84932 16.2838M8.85028 5.70578C6.75405 6.55561 5.28027 8.60695 5.28027 11C5.28027 13.394 6.75526 15.4442 8.84932 16.2838" fill="#101010"/>
<path fill-rule="evenodd" clip-rule="evenodd" d="M6.66385 1.16533C7.99055 0.572089 9.46491 0.25 11 0.25C16.9342 0.25 21.75 5.06579 21.75 11C21.75 16.9342 16.9342 21.75 11 21.75C5.06579 21.75 0.25 16.9342 0.25 11C0.25 8.5809 1.0568 6.34452 2.39957 4.55058C2.64778 4.21897 3.11782 4.15136 3.44942 4.39957C3.78103 4.64778 3.84864 5.11782 3.60043 5.44942C2.4432 6.99548 1.75 8.9191 1.75 11C1.75 16.1058 5.89421 20.25 11 20.25C16.1058 20.25 20.25 16.1058 20.25 11C20.25 5.89421 16.1058 1.75 11 1.75C9.67509 1.75 8.40945 2.02791 7.27615 2.53467C6.89802 2.70375 6.45441 2.53428 6.28533 2.15615C6.11625 1.77802 6.28572 1.33441 6.66385 1.16533Z" fill="#101010"/>
</svg>
