<svg width="22" height="22" viewBox="0 0 22 22" fill="none" xmlns="http://www.w3.org/2000/svg">
<path fill-rule="evenodd" clip-rule="evenodd" d="M2.09467 2.09467C3.42914 0.760201 5.42603 0.25 8 0.25H14C16.574 0.25 18.5709 0.760201 19.9053 2.09467C21.2398 3.42914 21.75 5.42603 21.75 8V14C21.75 16.574 21.2398 18.5709 19.9053 19.9053C18.5709 21.2398 16.574 21.75 14 21.75H8C5.42603 21.75 3.42914 21.2398 2.09467 19.9053C0.760201 18.5709 0.25 16.574 0.25 14V11.97C0.25 11.5558 0.585786 11.22 1 11.22C1.41421 11.22 1.75 11.5558 1.75 11.97V14C1.75 16.426 2.2398 17.9291 3.15533 18.8447C4.07086 19.7602 5.57397 20.25 8 20.25H14C16.426 20.25 17.9291 19.7602 18.8447 18.8447C19.7602 17.9291 20.25 16.426 20.25 14V8C20.25 5.57397 19.7602 4.07086 18.8447 3.15533C17.9291 2.2398 16.426 1.75 14 1.75H8C5.57397 1.75 4.07086 2.2398 3.15533 3.15533C2.2398 4.07086 1.75 5.57397 1.75 8C1.75 8.41421 1.41421 8.75 1 8.75C0.585786 8.75 0.25 8.41421 0.25 8C0.25 5.42603 0.760201 3.42914 2.09467 2.09467Z" fill="#101010"/>
<path fill-rule="evenodd" clip-rule="evenodd" d="M7.11504 7.03476C8.15586 6.05176 9.55071 5.5 11 5.5C12.4577 5.5 13.8547 6.0508 14.888 7.03764C15.9217 8.02485 16.51 9.36899 16.51 10.78C16.51 12.1311 15.9975 13.4381 15.0778 14.4613L15.0761 14.4632L14.5903 15H16C16.4142 15 16.75 15.3358 16.75 15.75C16.75 16.1642 16.4142 16.5 16 16.5H12.9C12.6035 16.5 12.3348 16.3253 12.2145 16.0542C12.0942 15.7831 12.1449 15.4666 12.3439 15.2467L13.9622 13.4586C13.9625 13.4583 13.9628 13.4579 13.9631 13.4576C14.6428 12.701 15.01 11.7486 15.01 10.78C15.01 9.79107 14.5983 8.83518 13.852 8.1224C13.1053 7.40924 12.0823 7 11 7C9.93001 7 8.90553 7.40773 8.1465 8.12383C7.40112 8.83647 6.98999 9.79173 6.98999 10.78C6.98999 11.7605 7.35843 12.7113 8.03494 13.4555L8.03607 13.4567L9.65606 15.2467C9.85505 15.4666 9.9058 15.7831 9.78552 16.0542C9.66524 16.3253 9.39653 16.5 9.09998 16.5H6C5.58579 16.5 5.25 16.1642 5.25 15.75C5.25 15.3358 5.58579 15 6 15H7.40968L6.92503 14.4645C6.92479 14.4642 6.92455 14.4639 6.92431 14.4637C6.00127 13.4479 5.48999 12.1392 5.48999 10.78C5.48999 9.36899 6.07833 8.02485 7.112 7.03764L7.11503 7.03475L7.11504 7.03476Z" fill="#101010"/>
</svg>
