<svg width="22" height="22" viewBox="0 0 22 22" fill="none" xmlns="http://www.w3.org/2000/svg">
<path fill-rule="evenodd" clip-rule="evenodd" d="M12.7199 5.02056C13.3448 4.99629 13.9553 5.26435 14.4306 5.73967L13.9002 6.27M12.7199 5.02056C12.0833 5.04528 11.502 5.37348 11.1372 5.94789L12.7199 5.02056ZM12.4033 6.7521C12.4032 6.7523 12.4035 6.7519 12.4033 6.7521L11.6946 7.8737L14.1365 10.3156L15.2652 9.60246C15.3869 9.52699 15.4625 9.40003 15.4696 9.22782C15.4769 9.0507 15.4069 8.83451 15.224 8.65436L15.2199 8.65034L13.3699 6.80033C13.1452 6.57564 12.9257 6.5137 12.7781 6.51943C12.6423 6.5247 12.5085 6.58696 12.4033 6.7521ZM16.2788 7.58784L14.4306 5.73967L16.2788 7.58784ZM16.2788 7.58784C17.1989 8.49653 17.271 10.1212 16.0584 10.8756L14.4309 11.904C14.1345 12.0913 13.7479 12.0483 13.4999 11.8003L10.2099 8.51032C9.96199 8.26239 9.91892 7.87576 10.1062 7.57935L11.1372 5.94789" fill="#101010"/>
<path fill-rule="evenodd" clip-rule="evenodd" d="M8.39505 7.09132C8.39519 7.09133 8.39491 7.09131 8.39505 7.09132L10.7842 7.23127C11.1977 7.25549 11.5133 7.61034 11.4891 8.02385C11.4648 8.43735 11.11 8.75293 10.6965 8.72871L8.30649 8.58871C7.68002 8.55131 7.48054 8.65044 7.40947 8.70971C7.33999 8.76766 7.21519 8.93518 7.14517 9.52796L6.54515 14.5981L6.54488 14.6004C6.50467 14.9314 6.6056 15.1513 6.73461 15.2798C6.86463 15.4093 7.08977 15.5119 7.42476 15.4749L12.4922 14.8752C13.0881 14.8048 13.2714 14.6786 13.3352 14.6039C13.3895 14.5404 13.493 14.3526 13.4339 13.7424C13.4329 13.7329 13.4322 13.7234 13.4316 13.7138L13.2916 11.3238C13.2674 10.9103 13.583 10.5555 13.9965 10.5313C14.41 10.5071 14.7648 10.8226 14.7891 11.2361L14.9283 13.6123C14.9968 14.337 14.9331 15.0432 14.4755 15.5786C14.0243 16.1063 13.3425 16.2852 12.6685 16.3648C12.6684 16.3648 12.6685 16.3648 12.6685 16.3648L7.59394 16.9653C6.86003 17.0476 6.16581 16.8304 5.67609 16.3426C5.18538 15.8539 4.96628 15.1594 5.05568 14.4208C5.05573 14.4204 5.05578 14.4199 5.05583 14.4195L5.65553 9.35202C5.65553 9.35196 5.65552 9.35208 5.65553 9.35202C5.73552 8.67486 5.91576 8.00228 6.44873 7.55777C6.98005 7.11463 7.68167 7.04878 8.39505 7.09132Z" fill="#101010"/>
<path fill-rule="evenodd" clip-rule="evenodd" d="M8.87056 13.1397C9.16346 13.4325 9.16346 13.9074 8.87056 14.2003L7.02056 16.0503C6.72767 16.3432 6.2528 16.3432 5.9599 16.0503C5.66701 15.7574 5.66701 15.2825 5.9599 14.9897L7.8099 13.1397C8.1028 12.8468 8.57767 12.8468 8.87056 13.1397Z" fill="#101010"/>
<path fill-rule="evenodd" clip-rule="evenodd" d="M2.09467 2.09467C3.42914 0.760201 5.42603 0.25 8 0.25H14C16.574 0.25 18.5709 0.760201 19.9053 2.09467C21.2398 3.42914 21.75 5.42603 21.75 8V14C21.75 16.574 21.2398 18.5709 19.9053 19.9053C18.5709 21.2398 16.574 21.75 14 21.75H8C5.42603 21.75 3.42914 21.2398 2.09467 19.9053C0.760201 18.5709 0.25 16.574 0.25 14V12.03C0.25 11.6158 0.585786 11.28 1 11.28C1.41421 11.28 1.75 11.6158 1.75 12.03V14C1.75 16.426 2.2398 17.9291 3.15533 18.8447C4.07086 19.7602 5.57397 20.25 8 20.25H14C16.426 20.25 17.9291 19.7602 18.8447 18.8447C19.7602 17.9291 20.25 16.426 20.25 14V8C20.25 5.57397 19.7602 4.07086 18.8447 3.15533C17.9291 2.2398 16.426 1.75 14 1.75H8C5.57397 1.75 4.07086 2.2398 3.15533 3.15533C2.2398 4.07086 1.75 5.57397 1.75 8C1.75 8.41421 1.41421 8.75 1 8.75C0.585786 8.75 0.25 8.41421 0.25 8C0.25 5.42603 0.760201 3.42914 2.09467 2.09467Z" fill="#101010"/>
</svg>
