<svg width="22" height="22" viewBox="0 0 22 22" fill="none" xmlns="http://www.w3.org/2000/svg">
<path fill-rule="evenodd" clip-rule="evenodd" d="M15.014 2.25182C15.9176 2.21608 16.8256 2.60504 17.5502 3.32964C17.8431 3.62254 17.8431 4.09741 17.5502 4.3903C17.2573 4.6832 16.7824 4.6832 16.4895 4.3903C16.0141 3.9149 15.4971 3.73388 15.0732 3.75065C14.6624 3.7669 14.2714 3.96865 13.995 4.40882L13.9938 4.41075L13.9938 4.41075L12.5443 6.70376L17.3661 11.5255L19.6591 10.0761L19.6609 10.0749C20.3675 9.63111 20.5527 8.45572 19.6719 7.58264C19.3777 7.29104 19.3756 6.81617 19.6672 6.52199C19.9588 6.22781 20.4337 6.22571 20.7279 6.51731C22.1268 7.90398 22.1722 10.268 20.4597 11.3445C20.4594 11.3447 20.4591 11.3449 20.4588 11.3451L17.6606 13.1139C17.3642 13.3013 16.9775 13.2583 16.7295 13.0103L11.0595 7.34032C10.8116 7.09235 10.7685 6.70566 10.9559 6.40924L12.7247 3.61117C12.7249 3.61083 12.7251 3.61048 12.7253 3.61013C13.259 2.76095 14.0977 2.28807 15.014 2.25182Z" fill="#101010"/>
<path fill-rule="evenodd" clip-rule="evenodd" d="M4.14769 9.01522C4.55903 9.06391 4.85302 9.43683 4.80434 9.84818L3.82416 18.1296C3.73871 18.8404 3.95423 19.3916 4.30735 19.7447C4.66076 20.0981 5.21573 20.3166 5.93367 20.2349C5.93394 20.2349 5.9334 20.235 5.93367 20.2349L10.2023 19.7351C10.6137 19.6869 10.9863 19.9814 11.0345 20.3928C11.0826 20.8042 10.7882 21.1767 10.3768 21.2249L6.10675 21.7249L6.10457 21.7252C4.98291 21.8532 3.95817 21.5168 3.24671 20.8054C2.53499 20.0937 2.20049 19.0702 2.3348 17.9513C2.33483 17.951 2.33477 17.9515 2.3348 17.9513L3.31474 9.67187C3.36342 9.26053 3.73635 8.96653 4.14769 9.01522Z" fill="#101010"/>
<path fill-rule="evenodd" clip-rule="evenodd" d="M17.2057 11.7212C17.6192 11.6971 17.974 12.0128 17.9981 12.4263L18.2372 16.5311C18.3558 17.7367 18.2322 18.7676 17.5886 19.5218C16.952 20.2677 15.9589 20.5598 14.8282 20.6947C14.4169 20.7437 14.0437 20.4501 13.9946 20.0388C13.9456 19.6275 14.2392 19.2543 14.6505 19.2052C15.6997 19.0801 16.1966 18.8422 16.4476 18.5481C16.6886 18.2656 16.8518 17.7522 16.7431 16.6646C16.742 16.6543 16.7412 16.6439 16.7406 16.6336L16.5006 12.5136C16.4765 12.1001 16.7922 11.7453 17.2057 11.7212Z" fill="#101010"/>
<path fill-rule="evenodd" clip-rule="evenodd" d="M9.0806 6.65296C9.10659 6.23957 9.46277 5.9255 9.87617 5.95148L11.6262 6.06147C12.0396 6.08745 12.3536 6.44364 12.3277 6.85704C12.3017 7.27043 11.9455 7.5845 11.5321 7.55852L9.78208 7.44853C9.36869 7.42255 9.05462 7.06636 9.0806 6.65296Z" fill="#101010"/>
<path fill-rule="evenodd" clip-rule="evenodd" d="M7.98878 16.0588C8.28214 16.3512 8.28289 16.8261 7.99046 17.1195L4.81046 20.3095C4.51803 20.6029 4.04316 20.6036 3.74981 20.3112C3.45645 20.0188 3.4557 19.5439 3.74813 19.2505L6.92812 16.0605C7.22055 15.7671 7.69542 15.7664 7.98878 16.0588Z" fill="#101010"/>
<path fill-rule="evenodd" clip-rule="evenodd" d="M5.5 1.75C4.61698 1.75 3.80173 2.05774 3.16037 2.57416L3.15439 2.57897L3.15437 2.57894C2.29152 3.25926 1.75 4.31377 1.75 5.5C1.75 6.19677 1.94918 6.86371 2.29228 7.43275L2.29312 7.43413C2.74356 8.18488 3.45167 8.76667 4.29717 9.0485L4.31125 9.05335C4.67526 9.18277 5.06976 9.25 5.5 9.25C6.45055 9.25 7.30509 8.90127 7.9626 8.31866L7.97183 8.31049L7.9719 8.31056C8.25782 8.06549 8.50637 7.76833 8.70689 7.43414C8.88251 7.14143 9.01524 6.83422 9.10683 6.50114L9.1095 6.49145L9.10956 6.49147C9.20023 6.17825 9.25 5.83841 9.25 5.5C9.25 3.42421 7.57579 1.75 5.5 1.75ZM2.22262 1.40342C3.12081 0.681282 4.26439 0.25 5.5 0.25C8.40421 0.25 10.75 2.59579 10.75 5.5C10.75 5.97984 10.6803 6.45828 10.5518 6.90368C10.4235 7.36877 10.2367 7.79998 9.99313 8.20588C9.7147 8.66992 9.36482 9.09133 8.95278 9.44542C8.03089 10.2604 6.82724 10.75 5.5 10.75C4.91282 10.75 4.34969 10.6581 3.81578 10.4692C2.62442 10.0701 1.63519 9.25307 1.00687 8.20588L1.64999 7.82001L1.00771 8.20727C0.530806 7.41631 0.25 6.48323 0.25 5.5C0.25 3.84759 1.00723 2.36317 2.22262 1.40342Z" fill="#101010"/>
<path fill-rule="evenodd" clip-rule="evenodd" d="M3.0498 5.5C3.0498 5.08579 3.38559 4.75 3.7998 4.75H7.15982C7.57403 4.75 7.90982 5.08579 7.90982 5.5C7.90982 5.91421 7.57403 6.25 7.15982 6.25H3.7998C3.38559 6.25 3.0498 5.91421 3.0498 5.5Z" fill="#101010"/>
</svg>
