<svg width="22" height="22" viewBox="0 0 22 22" fill="none" xmlns="http://www.w3.org/2000/svg">
<path fill-rule="evenodd" clip-rule="evenodd" d="M9.35286 2.60221C8.72803 1.46927 7.09118 1.46927 6.46635 2.60221C6.26631 2.96491 5.81011 3.09678 5.4474 2.89674C5.0847 2.6967 4.95283 2.24051 5.15287 1.8778C6.34803 -0.289263 9.47118 -0.289263 10.6663 1.8778L12.8568 5.8487L15.1868 10.0886C15.1868 10.0887 15.1867 10.0885 15.1868 10.0886C16.3424 12.1902 14.8178 14.75 12.4296 14.75H3.39961C1.01137 14.75 -0.513377 12.1905 0.642311 10.0888C0.642355 10.0887 0.642267 10.0889 0.642311 10.0888L2.97231 5.8488C3.1718 5.48579 3.62779 5.35323 3.99081 5.55271C4.35382 5.7522 4.48638 6.20819 4.2869 6.5712L1.9569 10.8112C1.35283 11.9095 2.14793 13.25 3.39961 13.25H12.4296C13.6813 13.25 14.4765 11.9098 13.8724 10.8115L11.5429 6.57227L9.35286 2.60221Z" fill="#101010"/>
<path fill-rule="evenodd" clip-rule="evenodd" d="M14.4519 8.75019L15.1872 10.0886C15.1872 10.0887 15.1873 10.0888 15.1873 10.0889C16.3429 12.1905 14.8182 14.75 12.43 14.75H8.75534C8.88621 17.8098 11.408 20.25 14.5 20.25C17.6758 20.25 20.25 17.6758 20.25 14.5C20.25 11.3242 17.6758 8.75 14.5 8.75C14.4839 8.75 14.4679 8.75006 14.4519 8.75019ZM13.1029 7.38456C13.5544 7.29426 14.0239 7.25 14.5 7.25C18.5042 7.25 21.75 10.4958 21.75 14.5C21.75 18.5042 18.5042 21.75 14.5 21.75C10.4958 21.75 7.25 18.5042 7.25 14.5C7.25 14.3161 7.26021 14.1435 7.26944 13.9873C7.27007 13.9768 7.27068 13.9663 7.27129 13.956C7.29461 13.5595 7.62289 13.25 8.02 13.25H12.43C13.6817 13.25 14.4769 11.9098 13.8728 10.8115L13.8727 10.8111L12.5927 8.48111C12.4777 8.27176 12.4692 8.02014 12.57 7.80358C12.6708 7.58702 12.8687 7.4314 13.1029 7.38456Z" fill="#101010"/>
</svg>
