<svg width="22" height="22" viewBox="0 0 22 22" fill="none" xmlns="http://www.w3.org/2000/svg">
<path fill-rule="evenodd" clip-rule="evenodd" d="M11.3938 2.42408C10.9845 2.83336 10.7197 3.54897 10.7197 4.85V5.25C12.6687 5.25 14.2281 5.6352 15.2813 6.68842C16.3345 7.74164 16.7197 9.30103 16.7197 11.25H17.1197C18.4208 11.25 19.1364 10.9852 19.5456 10.5759C19.9549 10.1666 20.2197 9.45103 20.2197 8.15V4.85C20.2197 3.54897 19.9549 2.83336 19.5456 2.42408C19.1364 2.0148 18.4208 1.75 17.1197 1.75H13.8197C12.5187 1.75 11.8031 2.0148 11.3938 2.42408ZM10.3331 1.36342C11.1614 0.535201 12.3708 0.25 13.8197 0.25H17.1197C18.5687 0.25 19.7781 0.535201 20.6063 1.36342C21.4345 2.19164 21.7197 3.40103 21.7197 4.85V8.15C21.7197 9.59897 21.4345 10.8084 20.6063 11.6366C19.7781 12.4648 18.5687 12.75 17.1197 12.75H15.9697C15.5555 12.75 15.2197 12.4142 15.2197 12V11.25C15.2197 9.44897 14.8549 8.38336 14.2206 7.74908C13.5864 7.1148 12.5208 6.75 10.7197 6.75H9.96973C9.55551 6.75 9.21973 6.41421 9.21973 6V4.85C9.21973 3.40103 9.50493 2.19164 10.3331 1.36342Z" fill="#101010"/>
<path fill-rule="evenodd" clip-rule="evenodd" d="M2.71881 7.74908C2.08453 8.38336 1.71973 9.44897 1.71973 11.25C1.71973 11.6642 1.38394 12 0.969727 12C0.555513 12 0.219727 11.6642 0.219727 11.25C0.219727 9.30103 0.604928 7.74164 1.65815 6.68842C2.71137 5.6352 4.27075 5.25 6.21973 5.25H10.7197C12.6687 5.25 14.2281 5.6352 15.2813 6.68842C16.3345 7.74164 16.7197 9.30103 16.7197 11.25V15.75C16.7197 17.699 16.3345 19.2584 15.2813 20.3116C14.2281 21.3648 12.6687 21.75 10.7197 21.75H6.21973C4.27075 21.75 2.71137 21.3648 1.65815 20.3116C0.604928 19.2584 0.219727 17.699 0.219727 15.75V15.01C0.219727 14.5958 0.555513 14.26 0.969727 14.26C1.38394 14.26 1.71973 14.5958 1.71973 15.01V15.75C1.71973 17.551 2.08453 18.6166 2.71881 19.2509C3.35309 19.8852 4.4187 20.25 6.21973 20.25H10.7197C12.5208 20.25 13.5864 19.8852 14.2206 19.2509C14.8549 18.6166 15.2197 17.551 15.2197 15.75V11.25C15.2197 9.44897 14.8549 8.38336 14.2206 7.74908C13.5864 7.1148 12.5208 6.75 10.7197 6.75H6.21973C4.4187 6.75 3.35309 7.1148 2.71881 7.74908Z" fill="#101010"/>
</svg>
