<svg width="22" height="22" viewBox="0 0 22 22" fill="none" xmlns="http://www.w3.org/2000/svg">
<path fill-rule="evenodd" clip-rule="evenodd" d="M2.13987 12.1395C1.92749 12.3526 1.75 12.7635 1.75 13.63V18.38C1.75 19.2405 1.92709 19.6489 2.13908 19.8609C2.35107 20.0729 2.75946 20.25 3.62 20.25H8.37C9.23647 20.25 9.64745 20.0725 9.86046 19.8601C10.0729 19.6483 10.25 19.2406 10.25 18.38V16.75H8.62C7.61058 16.75 6.70833 16.5521 6.07763 15.9195C5.44751 15.2876 5.25 14.3835 5.25 13.37V11.75H3.62C2.75942 11.75 2.35167 11.9271 2.13987 12.1395ZM1.07763 11.0805C1.70833 10.4479 2.61058 10.25 3.62 10.25H6C6.41421 10.25 6.75 10.5858 6.75 11V13.37C6.75 14.2365 6.92749 14.6474 7.13986 14.8605C7.35167 15.0729 7.75942 15.25 8.62 15.25H11C11.4142 15.25 11.75 15.5858 11.75 16V18.38C11.75 19.3894 11.5521 20.2917 10.9195 20.9224C10.2876 21.5525 9.38353 21.75 8.37 21.75H3.62C2.61054 21.75 1.70893 21.5521 1.07842 20.9216C0.447908 20.2911 0.25 19.3895 0.25 18.38V13.63C0.25 12.6165 0.447512 11.7124 1.07763 11.0805Z" fill="#101010"/>
<path fill-rule="evenodd" clip-rule="evenodd" d="M7.13908 7.13908C6.92709 7.35107 6.75 7.75946 6.75 8.62V13.37C6.75 14.2365 6.92749 14.6474 7.13987 14.8605C7.35167 15.0729 7.75942 15.25 8.62 15.25H13.37C14.2365 15.25 14.6468 15.0725 14.8597 14.8597C15.0725 14.6468 15.25 14.2365 15.25 13.37V11.75H13.62C12.6106 11.75 11.7083 11.5521 11.0776 10.9195C10.4475 10.2876 10.25 9.38353 10.25 8.37V6.75H8.62C7.75946 6.75 7.35107 6.92709 7.13908 7.13908ZM6.07842 6.07842C6.70893 5.44791 7.61054 5.25 8.62 5.25H11C11.4142 5.25 11.75 5.58579 11.75 6V8.37C11.75 9.23647 11.9275 9.64745 12.1399 9.86046C12.3517 10.0729 12.7594 10.25 13.62 10.25H16C16.4142 10.25 16.75 10.5858 16.75 11V13.37C16.75 14.3835 16.5525 15.2882 15.9203 15.9203C15.2882 16.5525 14.3835 16.75 13.37 16.75H8.62C7.61058 16.75 6.70833 16.5521 6.07763 15.9195C5.44751 15.2876 5.25 14.3835 5.25 13.37V8.62C5.25 7.61054 5.44791 6.70893 6.07842 6.07842Z" fill="#101010"/>
<path fill-rule="evenodd" clip-rule="evenodd" d="M12.1391 2.13908C11.9271 2.35107 11.75 2.75946 11.75 3.62V8.37C11.75 9.23647 11.9275 9.64745 12.1399 9.86046C12.3517 10.0729 12.7594 10.25 13.62 10.25H18.37C19.2365 10.25 19.6468 10.0725 19.8597 9.85967C20.0725 9.64684 20.25 9.23651 20.25 8.37V3.62C20.25 2.75942 20.0729 2.35167 19.8605 2.13987C19.6474 1.92749 19.2365 1.75 18.37 1.75H13.62C12.7595 1.75 12.3511 1.92709 12.1391 2.13908ZM11.0784 1.07842C11.7089 0.447908 12.6105 0.25 13.62 0.25H18.37C19.3835 0.25 20.2876 0.447512 20.9195 1.07763C21.5521 1.70833 21.75 2.61058 21.75 3.62V8.37C21.75 9.38349 21.5525 10.2882 20.9203 10.9203C20.2882 11.5525 19.3835 11.75 18.37 11.75H13.62C12.6106 11.75 11.7083 11.5521 11.0776 10.9195C10.4475 10.2876 10.25 9.38353 10.25 8.37V3.62C10.25 2.61054 10.4479 1.70893 11.0784 1.07842Z" fill="#101010"/>
</svg>
