<svg width="22" height="22" viewBox="0 0 22 22" fill="none" xmlns="http://www.w3.org/2000/svg">
<path fill-rule="evenodd" clip-rule="evenodd" d="M2.09565 2.09467C3.43012 0.760201 5.427 0.25 8.00098 0.25H14.001C16.5749 0.25 18.5718 0.760201 19.9063 2.09467C21.2408 3.42914 21.751 5.42603 21.751 8V14C21.751 16.574 21.2408 18.5709 19.9063 19.9053C18.5718 21.2398 16.5749 21.75 14.001 21.75H8.00098C5.427 21.75 3.43012 21.2398 2.09565 19.9053C0.761178 18.5709 0.250977 16.574 0.250977 14V8C0.250977 5.42603 0.761178 3.42914 2.09565 2.09467ZM3.15631 3.15533C2.24078 4.07086 1.75098 5.57397 1.75098 8V14C1.75098 16.426 2.24078 17.9291 3.15631 18.8447C4.07184 19.7602 5.57495 20.25 8.00098 20.25H14.001C16.427 20.25 17.9301 19.7602 18.8456 18.8447C19.7612 17.9291 20.251 16.426 20.251 14V8C20.251 5.57397 19.7612 4.07086 18.8456 3.15533C17.9301 2.2398 16.427 1.75 14.001 1.75H8.00098C5.57495 1.75 4.07184 2.2398 3.15631 3.15533Z" fill="#101010"/>
<path fill-rule="evenodd" clip-rule="evenodd" d="M5.05231 7.88409C5.25993 7.52566 5.71879 7.40341 6.07722 7.61103L11.0011 10.4632L15.8851 7.63119C16.2434 7.42341 16.7023 7.54546 16.9101 7.90379C17.1179 8.26213 16.9958 8.72105 16.6375 8.92882L11.3775 11.9788C11.1449 12.1137 10.858 12.1137 10.6254 11.979L5.32537 8.909C4.96695 8.70138 4.84469 8.24251 5.05231 7.88409Z" fill="#101010"/>
<path fill-rule="evenodd" clip-rule="evenodd" d="M11.001 10.5701C11.4152 10.5701 11.751 10.9059 11.751 11.3201V16.7701C11.751 17.1843 11.4152 17.5201 11.001 17.5201C10.5868 17.5201 10.251 17.1843 10.251 16.7701V11.3201C10.251 10.9059 10.5868 10.5701 11.001 10.5701Z" fill="#101010"/>
<path fill-rule="evenodd" clip-rule="evenodd" d="M11.0004 4.24623C11.5446 4.24472 12.13 4.35701 12.613 4.62302L12.6158 4.62455L15.8139 6.40347C16.3252 6.68432 16.7433 7.14823 17.0316 7.63873C17.3204 8.13013 17.5212 8.72037 17.5212 9.29998V12.7C17.5212 13.2821 17.3162 13.873 17.027 14.3627C16.7377 14.8523 16.3202 15.3152 15.8155 15.5956L12.6158 17.3754L12.613 17.3769C12.1301 17.6429 11.5452 17.755 11.0025 17.755C10.4605 17.755 9.87601 17.6432 9.39578 17.3749C9.39564 17.3748 9.39592 17.375 9.39578 17.3749L6.1986 15.5965C5.6873 15.3157 5.26913 14.8517 4.98086 14.3612C4.69207 13.8698 4.49121 13.2796 4.49121 12.7V9.30998C4.49121 8.7278 4.69621 8.13689 4.98548 7.64724C5.27467 7.15774 5.69205 6.69498 6.19664 6.41455L9.39276 4.63672C9.8737 4.3623 10.4586 4.24773 11.0004 4.24623ZM11.0046 5.74622C10.6456 5.74722 10.3325 5.82691 10.1344 5.94057L10.1258 5.94546L6.9258 7.7254C6.71054 7.84499 6.4677 8.08733 6.27695 8.41021C6.08622 8.73306 5.99121 9.06215 5.99121 9.30998V12.7C5.99121 12.9504 6.08536 13.2801 6.27407 13.6012C6.46289 13.9225 6.70393 14.163 6.92162 14.2822L6.9258 14.2845L10.1271 16.0653C10.3268 16.1769 10.6422 16.255 11.0025 16.255C11.3615 16.255 11.6811 16.1774 11.8882 16.0637C11.8886 16.0635 11.889 16.0632 11.8894 16.063L15.0867 14.2846C15.3019 14.165 15.5447 13.9226 15.7355 13.5998C15.9262 13.2769 16.0212 12.9478 16.0212 12.7V9.29998C16.0212 9.0496 15.9271 8.71982 15.7384 8.39872C15.5495 8.07744 15.3085 7.83698 15.0908 7.71771L15.0866 7.71541L11.8894 5.93694C11.889 5.93672 11.8886 5.9365 11.8882 5.93628C11.6812 5.82264 11.3621 5.74523 11.0046 5.74622Z" fill="#101010"/>
</svg>
