<svg width="22" height="22" viewBox="0 0 22 22" fill="none" xmlns="http://www.w3.org/2000/svg">
<path fill-rule="evenodd" clip-rule="evenodd" d="M5.05231 7.88409C5.25993 7.52566 5.71879 7.40341 6.07722 7.61103L11.0011 10.4632L15.8851 7.63119C16.2434 7.42341 16.7023 7.54546 16.9101 7.90379C17.1179 8.26213 16.9958 8.72105 16.6375 8.92882L11.3775 11.9788C11.1449 12.1137 10.858 12.1137 10.6254 11.979L5.32537 8.909C4.96695 8.70138 4.84469 8.24251 5.05231 7.88409Z" fill="#101010"/>
<path fill-rule="evenodd" clip-rule="evenodd" d="M11.001 10.5701C11.4152 10.5701 11.751 10.9059 11.751 11.3201V16.7701C11.751 17.1843 11.4152 17.5201 11.001 17.5201C10.5868 17.5201 10.251 17.1843 10.251 16.7701V11.3201C10.251 10.9059 10.5868 10.5701 11.001 10.5701Z" fill="#101010"/>
<path fill-rule="evenodd" clip-rule="evenodd" d="M11.0004 4.24623C11.5446 4.24472 12.13 4.35701 12.613 4.62302L12.6158 4.62455L15.8139 6.40347C16.3252 6.68432 16.7433 7.14823 17.0316 7.63873C17.3204 8.13013 17.5212 8.72037 17.5212 9.29998V12.7C17.5212 13.2821 17.3162 13.873 17.027 14.3627C16.7377 14.8523 16.3202 15.3152 15.8155 15.5956L12.6158 17.3754L12.613 17.3769C12.1301 17.6429 11.5452 17.755 11.0025 17.755C10.4605 17.755 9.87601 17.6432 9.39578 17.3749C9.39564 17.3748 9.39592 17.375 9.39578 17.3749L6.1986 15.5965C5.6873 15.3157 5.26913 14.8517 4.98086 14.3612C4.69207 13.8698 4.49121 13.2796 4.49121 12.7V9.30998C4.49121 8.7278 4.69621 8.13689 4.98548 7.64724C5.27467 7.15774 5.69205 6.69498 6.19664 6.41455L9.39276 4.63672C9.8737 4.3623 10.4586 4.24773 11.0004 4.24623ZM11.0046 5.74622C10.6456 5.74722 10.3325 5.82691 10.1344 5.94057L10.1258 5.94546L6.9258 7.7254C6.71054 7.84499 6.4677 8.08733 6.27695 8.41021C6.08622 8.73306 5.99121 9.06215 5.99121 9.30998V12.7C5.99121 12.9504 6.08536 13.2801 6.27407 13.6012C6.46289 13.9225 6.70393 14.163 6.92162 14.2822L6.9258 14.2845L10.1271 16.0653C10.3268 16.1769 10.6422 16.255 11.0025 16.255C11.3615 16.255 11.6811 16.1774 11.8882 16.0637C11.8886 16.0635 11.889 16.0632 11.8894 16.063L15.0867 14.2846C15.3019 14.165 15.5447 13.9226 15.7355 13.5998C15.9262 13.2769 16.0212 12.9478 16.0212 12.7V9.29998C16.0212 9.0496 15.9271 8.71982 15.7384 8.39872C15.5495 8.07744 15.3085 7.83698 15.0908 7.71771L15.0866 7.71541L11.8894 5.93694C11.889 5.93672 11.8886 5.9365 11.8882 5.93628C11.6812 5.82264 11.3621 5.74523 11.0046 5.74622Z" fill="#101010"/>
<path fill-rule="evenodd" clip-rule="evenodd" d="M21.001 13.25C21.4152 13.25 21.751 13.5858 21.751 14C21.751 18.2842 18.2852 21.75 14.001 21.75C13.7308 21.75 13.4815 21.6047 13.3483 21.3695C13.2152 21.1344 13.2188 20.8458 13.3579 20.6141L14.4078 18.8641C14.621 18.5089 15.0816 18.3938 15.4368 18.6069C15.792 18.82 15.9072 19.2807 15.6941 19.6359L15.4228 20.0881C18.1919 19.4456 20.251 16.9666 20.251 14C20.251 13.5858 20.5868 13.25 21.001 13.25Z" fill="#101010"/>
<path fill-rule="evenodd" clip-rule="evenodd" d="M6.57918 1.91194C3.81008 2.55436 1.75098 5.03342 1.75098 8C1.75098 8.41421 1.41519 8.75 1.00098 8.75C0.586763 8.75 0.250977 8.41421 0.250977 8C0.250977 3.71579 3.71676 0.25 8.00098 0.25C8.27118 0.25 8.5205 0.395344 8.65363 0.630474C8.78675 0.865605 8.78312 1.15417 8.6441 1.38587L7.59411 3.13587C7.381 3.49105 6.92031 3.60623 6.56512 3.39312C6.20993 3.18001 6.09476 2.71932 6.30787 2.36413L6.57918 1.91194Z" fill="#101010"/>
</svg>
