<svg width="22" height="22" viewBox="0 0 22 22" fill="none" xmlns="http://www.w3.org/2000/svg">
<path fill-rule="evenodd" clip-rule="evenodd" d="M2.90631 2.90533C2.19089 3.62075 1.75098 4.67044 1.75098 6V8C1.75098 8.41421 1.41519 8.75 1.00098 8.75C0.586763 8.75 0.250977 8.41421 0.250977 8V6C0.250977 4.32956 0.811062 2.87925 1.84565 1.84467C2.88023 0.810085 4.33054 0.25 6.00098 0.25H16.001C17.6714 0.25 19.1217 0.810085 20.1563 1.84467C21.1909 2.87925 21.751 4.32956 21.751 6V8C21.751 8.41421 21.4152 8.75 21.001 8.75C20.5868 8.75 20.251 8.41421 20.251 8V6C20.251 4.67044 19.8111 3.62075 19.0956 2.90533C18.3802 2.18991 17.3305 1.75 16.001 1.75H6.00098C4.67141 1.75 3.62172 2.18991 2.90631 2.90533Z" fill="#101010"/>
<path fill-rule="evenodd" clip-rule="evenodd" d="M1.00098 13.25C1.41519 13.25 1.75098 13.5858 1.75098 14V16C1.75098 17.3296 2.19089 18.3793 2.90631 19.0947C3.62172 19.8101 4.67141 20.25 6.00098 20.25H16.001C17.3305 20.25 18.3802 19.8101 19.0956 19.0947C19.8111 18.3793 20.251 17.3296 20.251 16V14C20.251 13.5858 20.5868 13.25 21.001 13.25C21.4152 13.25 21.751 13.5858 21.751 14V16C21.751 17.6704 21.1909 19.1207 20.1563 20.1553C19.1217 21.1899 17.6714 21.75 16.001 21.75H6.00098C4.33054 21.75 2.88023 21.1899 1.84565 20.1553C0.811062 19.1207 0.250977 17.6704 0.250977 16V14C0.250977 13.5858 0.586763 13.25 1.00098 13.25Z" fill="#101010"/>
<path fill-rule="evenodd" clip-rule="evenodd" d="M5.05231 7.88409C5.25993 7.52566 5.71879 7.40341 6.07722 7.61103L11.0011 10.4632L15.8851 7.63121C16.2434 7.42344 16.7023 7.54549 16.9101 7.90382C17.1179 8.26215 16.9958 8.72107 16.6375 8.92885L11.3775 11.9788C11.145 12.1137 10.858 12.1138 10.6254 11.979L5.32537 8.909C4.96695 8.70138 4.84469 8.24251 5.05231 7.88409Z" fill="#101010"/>
<path fill-rule="evenodd" clip-rule="evenodd" d="M11.001 10.5701C11.4152 10.5701 11.751 10.9059 11.751 11.3201V16.7701C11.751 17.1843 11.4152 17.5201 11.001 17.5201C10.5868 17.5201 10.251 17.1843 10.251 16.7701V11.3201C10.251 10.9059 10.5868 10.5701 11.001 10.5701Z" fill="#101010"/>
<path fill-rule="evenodd" clip-rule="evenodd" d="M12.6178 4.63576L15.8139 6.41361C16.3252 6.69446 16.7433 7.15835 17.0316 7.64882C17.3204 8.14022 17.5212 8.73045 17.5212 9.31008V12.7001C17.5212 13.2823 17.3162 13.8732 17.0269 14.3628C16.7378 14.8523 16.3204 15.3151 15.8158 15.5955C15.8157 15.5956 15.8159 15.5954 15.8158 15.5955L12.6158 17.3755L12.613 17.377C12.1301 17.643 11.5452 17.7551 11.0025 17.7551C10.4604 17.7551 9.876 17.6432 9.39577 17.375C9.39563 17.3749 9.39592 17.3751 9.39577 17.375L6.2008 15.5978C6.20007 15.5974 6.19933 15.597 6.19859 15.5966C5.68728 15.3158 5.26912 14.8518 4.98085 14.3613C4.69206 13.8699 4.49121 13.2797 4.49121 12.7001V9.31008C4.49121 8.72791 4.6962 8.137 4.98547 7.64735C5.27465 7.15785 5.69203 6.6951 6.19662 6.41467L9.39273 4.6368C9.87377 4.36232 10.4591 4.24756 11.0025 4.24756C11.5472 4.24756 12.1337 4.36288 12.6178 4.63576ZM11.0025 5.74756C10.645 5.74756 10.3324 5.82705 10.1343 5.94065L10.1258 5.94554L6.92579 7.72551C6.71053 7.8451 6.46769 8.08743 6.27694 8.41031C6.08621 8.73316 5.99121 9.06225 5.99121 9.31008V12.7001C5.99121 12.9505 6.08536 13.2802 6.27406 13.6013C6.46288 13.9226 6.70392 14.1631 6.9216 14.2824L6.92579 14.2846L10.1271 16.0653C10.3268 16.1769 10.6421 16.2551 11.0025 16.2551C11.3615 16.2551 11.6811 16.1774 11.8882 16.0638C11.8886 16.0635 11.889 16.0633 11.8894 16.0631L15.0866 14.2847C15.3019 14.1651 15.5447 13.9227 15.7355 13.5999C15.9262 13.277 16.0212 12.9479 16.0212 12.7001V9.31008C16.0212 9.0597 15.9271 8.72994 15.7384 8.40884C15.5495 8.08756 15.3085 7.8471 15.0908 7.72782L15.0866 7.72552L11.8822 5.943C11.6767 5.82687 11.3593 5.74756 11.0025 5.74756Z" fill="#101010"/>
</svg>
