<svg width="22" height="22" viewBox="0 0 22 22" fill="none" xmlns="http://www.w3.org/2000/svg">
<path fill-rule="evenodd" clip-rule="evenodd" d="M10.4345 1.92096C10.4342 1.92116 10.4338 1.92135 10.4335 1.92154L3.92602 5.43016C3.82605 5.48409 3.74992 5.60053 3.74992 5.76509C3.74992 5.92964 3.82605 6.04609 3.92602 6.10001L10.4335 9.60864C10.4338 9.60885 10.4342 9.60905 10.4346 9.60926C10.793 9.80036 11.2068 9.80037 11.5652 9.60928C11.5656 9.60907 11.566 9.60885 11.5664 9.60864L18.0738 6.10001C18.0739 6.09999 18.0738 6.10004 18.0738 6.10001C18.1737 6.04605 18.2499 5.92956 18.2499 5.76509C18.2499 5.60062 18.1739 5.48421 18.074 5.43025C18.0739 5.43022 18.074 5.43027 18.074 5.43025L11.5664 1.92154C11.566 1.92134 11.5656 1.92114 11.5653 1.92094C11.2068 1.7298 10.793 1.7298 10.4345 1.92096ZM9.72639 0.598639C10.5273 0.170571 11.4726 0.170571 12.2735 0.598639L12.2759 0.599926L18.7859 4.10993C20.0711 4.80327 20.0712 6.72683 18.786 7.42016L12.2759 10.9302L12.2735 10.9315C11.4726 11.3596 10.5273 11.3596 9.72639 10.9315L9.72398 10.9302L3.21398 7.42025C1.92878 6.72691 1.92862 4.80335 3.21383 4.11001L9.72639 0.598639Z" fill="#101010"/>
<path fill-rule="evenodd" clip-rule="evenodd" d="M2.27447 9.80094C2.02684 9.67723 1.75 9.85483 1.75 10.1202V15.8402C1.75 16.3926 2.0665 16.9059 2.56745 17.1604C2.56796 17.1606 2.56846 17.1609 2.56897 17.1612L8.61541 20.1894C8.61556 20.1894 8.61526 20.1893 8.61541 20.1894M2.27447 9.80094C2.27443 9.80092 2.27451 9.80096 2.27447 9.80094V9.80094ZM0.25 10.1202C0.25 8.72558 1.71307 7.84319 2.94541 8.45936L8.99898 11.4911C9.99715 11.9969 10.64 13.0231 10.64 14.1502V19.8702C10.64 21.2648 9.17693 22.1472 7.94459 21.531L1.89415 18.5008L1.89103 18.4992C0.892855 17.9935 0.25 16.9672 0.25 15.8402V10.1202ZM2.27447 9.80094L8.32243 12.8299L2.27447 9.80094Z" fill="#101010"/>
<path fill-rule="evenodd" clip-rule="evenodd" d="M19.0545 8.45936C20.2868 7.84319 21.7499 8.72557 21.7499 10.1202V15.8402C21.7499 16.9672 21.107 17.9935 20.1088 18.4992L20.1057 18.5008L14.0557 21.5308C12.8234 22.147 11.3599 21.2648 11.3599 19.8702V14.1502C11.3599 13.0231 12.0027 11.9969 13.0009 11.4912L13.004 11.4896L19.0545 8.45936ZM19.7253 9.801C19.7252 9.80104 19.7253 9.80097 19.7253 9.801L13.6775 12.8299C13.1764 13.0844 12.8599 13.5977 12.8599 14.1502V19.8702C12.8599 20.1354 13.1365 20.313 13.384 20.1896M13.384 20.1896L19.4309 17.1612C19.4314 17.1609 19.4319 17.1606 19.4324 17.1604C19.9334 16.9058 20.2499 16.3926 20.2499 15.8402V10.1202C20.2499 9.85486 19.9729 9.67738 19.7253 9.801" fill="#101010"/>
</svg>
