<svg width="22" height="22" viewBox="0 0 22 22" fill="none" xmlns="http://www.w3.org/2000/svg">
<path fill-rule="evenodd" clip-rule="evenodd" d="M2.09467 2.09467C3.42914 0.760201 5.42603 0.25 8 0.25H14C16.574 0.25 18.5709 0.760201 19.9053 2.09467C21.2398 3.42914 21.75 5.42603 21.75 8V14C21.75 16.574 21.2398 18.5709 19.9053 19.9053C18.5709 21.2398 16.574 21.75 14 21.75H8C5.42603 21.75 3.42914 21.2398 2.09467 19.9053C0.760201 18.5709 0.25 16.574 0.25 14V8C0.25 5.42603 0.760201 3.42914 2.09467 2.09467ZM3.15533 3.15533C2.2398 4.07086 1.75 5.57397 1.75 8V14C1.75 16.426 2.2398 17.9291 3.15533 18.8447C4.07086 19.7602 5.57397 20.25 8 20.25H14C16.426 20.25 17.9291 19.7602 18.8447 18.8447C19.7602 17.9291 20.25 16.426 20.25 14V8C20.25 5.57397 19.7602 4.07086 18.8447 3.15533C17.9291 2.2398 16.426 1.75 14 1.75H8C5.57397 1.75 4.07086 2.2398 3.15533 3.15533Z" fill="#101010"/>
<path fill-rule="evenodd" clip-rule="evenodd" d="M16.1296 7.91728C16.457 8.17105 16.5166 8.64216 16.2629 8.96954L13.9485 11.9552C13.3536 12.7076 12.2567 12.8448 11.4915 12.2535L11.4863 12.2495L9.65975 10.8121C9.54691 10.7264 9.38953 10.7478 9.30384 10.8583C9.30375 10.8584 9.30392 10.8582 9.30384 10.8583L6.9243 13.9477C6.67154 14.2759 6.20062 14.337 5.87246 14.0842C5.5443 13.8315 5.48318 13.3605 5.73593 13.0324L8.11665 9.94146C8.71056 9.17287 9.81177 9.03395 10.5787 9.62658L10.5839 9.63062L12.4105 11.0679C12.5245 11.1546 12.6852 11.1322 12.7703 11.0267L15.0774 8.05055C15.3311 7.72318 15.8022 7.66351 16.1296 7.91728Z" fill="#101010"/>
</svg>
