<svg width="18" height="18" viewBox="0 0 18 18" fill="none" xmlns="http://www.w3.org/2000/svg">
<path fill-rule="evenodd" clip-rule="evenodd" d="M1.47065 1.46966C1.76354 1.17677 2.23841 1.17677 2.53131 1.46966L16.5304 15.4687C16.8233 15.7616 16.8233 16.2365 16.5304 16.5294C16.2375 16.8223 15.7626 16.8223 15.4697 16.5294L1.47065 2.53032C1.17775 2.23743 1.17775 1.76255 1.47065 1.46966Z" fill="#101010"/>
<path fill-rule="evenodd" clip-rule="evenodd" d="M16.5294 1.46966C16.8222 1.76255 16.8222 2.23743 16.5294 2.53032L2.53029 16.5294C2.2374 16.8223 1.76253 16.8223 1.46963 16.5294C1.17674 16.2365 1.17674 15.7616 1.46963 15.4687L15.4687 1.46966C15.7616 1.17677 16.2365 1.17677 16.5294 1.46966Z" fill="#101010"/>
</svg>
