<svg width="22" height="22" viewBox="0 0 22 22" fill="none" xmlns="http://www.w3.org/2000/svg">
<path fill-rule="evenodd" clip-rule="evenodd" d="M3.77007 2.48266C3.07639 2.9394 2.64928 3.71783 2.47542 5.26382L2.47388 5.27754L2.47375 5.27753C2.39967 5.84237 2.37012 6.49644 2.37012 7.25V14.75C2.37012 15.5042 2.39978 16.1536 2.48234 16.7223C2.48359 16.7309 2.48469 16.7395 2.48564 16.7482C2.65453 18.287 3.08119 19.0626 3.7745 19.5182C4.5355 20.0183 5.77811 20.25 7.88012 20.25H14.1201C16.2273 20.25 17.4698 20.0183 18.2307 19.5182C18.9244 19.0624 19.3511 18.2863 19.5248 16.7459L19.5262 16.734L19.5263 16.734C19.6006 16.158 19.6301 15.5031 19.6301 14.75V7.25C19.6301 6.48571 19.6097 5.84189 19.5282 5.28947C19.5268 5.2802 19.5256 5.2709 19.5246 5.26158C19.3556 3.71713 18.9285 2.93918 18.2352 2.48266C17.4744 1.98175 16.2322 1.75 14.1301 1.75H7.88012C5.77279 1.75 4.53074 1.9818 3.77007 2.48266ZM2.94517 1.22984C4.1095 0.4632 5.75745 0.25 7.88012 0.25H14.1301C16.248 0.25 17.8958 0.463252 19.0601 1.22984C20.2885 2.03867 20.8218 3.34592 21.0141 5.08456C21.1109 5.74842 21.1301 6.47972 21.1301 7.25V14.75C21.1301 15.5346 21.0998 16.2577 21.0147 16.92C20.8179 18.6567 20.2844 19.9635 19.0545 20.7718C17.8904 21.5367 16.2429 21.75 14.1201 21.75H7.88012C5.76213 21.75 4.11474 21.5367 2.95073 20.7718C1.7221 19.9644 1.18835 18.6595 0.99602 16.9247C0.90006 16.257 0.870117 15.5307 0.870117 14.75V7.25C0.870117 6.4663 0.900351 5.7427 0.985587 5.08934C1.18235 3.34874 1.71546 2.03953 2.94517 1.22984Z" fill="#101010"/>
<path fill-rule="evenodd" clip-rule="evenodd" d="M15.3799 7.92C15.3799 7.50579 15.7157 7.17 16.1299 7.17H20.2299C20.6441 7.17 20.9799 7.50579 20.9799 7.92C20.9799 8.33421 20.6441 8.67 20.2299 8.67H16.1299C15.7157 8.67 15.3799 8.33421 15.3799 7.92Z" fill="#101010"/>
<path fill-rule="evenodd" clip-rule="evenodd" d="M1.02051 7.92C1.02051 7.50579 1.35629 7.17 1.77051 7.17H5.87051C6.28472 7.17 6.62051 7.50579 6.62051 7.92C6.62051 8.33421 6.28472 8.67 5.87051 8.67H1.77051C1.35629 8.67 1.02051 8.33421 1.02051 7.92Z" fill="#101010"/>
<path fill-rule="evenodd" clip-rule="evenodd" d="M7.92012 6.62C7.20433 6.62 6.62012 7.20421 6.62012 7.92C6.62012 8.28443 6.76602 8.60148 6.99313 8.82246L7.00747 8.83679C7.23909 9.07467 7.56648 9.22 7.92012 9.22H14.0801C14.7959 9.22 15.3801 8.63579 15.3801 7.92C15.3801 7.57032 15.2377 7.25181 14.9969 7.01735L14.9828 7.00321C14.7511 6.76533 14.4238 6.62 14.0701 6.62H7.92012ZM5.12012 7.92C5.12012 6.37579 6.3759 5.12 7.92012 5.12H14.0701C14.833 5.12 15.5426 5.43179 16.0505 5.94963C16.5655 6.45464 16.8801 7.15322 16.8801 7.92C16.8801 9.46421 15.6243 10.72 14.0801 10.72H7.92012C7.1573 10.72 6.44774 10.4082 5.93984 9.89045C5.43125 9.39187 5.12012 8.69191 5.12012 7.92Z" fill="#101010"/>
</svg>
