<svg width="22" height="22" viewBox="0 0 22 22" fill="none" xmlns="http://www.w3.org/2000/svg">
<path fill-rule="evenodd" clip-rule="evenodd" d="M4.78 1.75C3.11422 1.75 1.75 3.11424 1.75 4.78003C1.75 6.44581 3.1142 7.81 4.78 7.81H5.72C6.13421 7.81 6.47 8.14578 6.47 8.56V16.1C6.47 16.7258 6.98421 17.24 7.60999 17.24C8.23577 17.24 8.75 16.7258 8.75 16.1V3.83002C8.75 2.6925 7.81407 1.75 6.67001 1.75H4.78ZM0.25 4.78003C0.25 2.28582 2.28578 0.25 4.78 0.25H6.67001C8.64596 0.25 10.25 1.86754 10.25 3.83002V16.1C10.25 17.5542 9.0642 18.74 7.60999 18.74C6.15576 18.74 4.97 17.5542 4.97 16.1V9.31H4.78C2.28579 9.31 0.25 7.27425 0.25 4.78003Z" fill="#101010"/>
<path fill-rule="evenodd" clip-rule="evenodd" d="M4.77985 4.59003C4.67406 4.59003 4.58984 4.67424 4.58984 4.78003C4.58984 4.88575 4.674 4.96997 4.77985 4.96997C5.19406 4.96997 5.52985 5.30576 5.52985 5.71997C5.52985 6.13418 5.19406 6.46997 4.77985 6.46997C3.8457 6.46997 3.08984 5.71431 3.08984 4.78003C3.08984 3.84582 3.84563 3.09003 4.77985 3.09003C5.19406 3.09003 5.52985 3.42581 5.52985 3.84003C5.52985 4.25424 5.19406 4.59003 4.77985 4.59003Z" fill="#101010"/>
<path fill-rule="evenodd" clip-rule="evenodd" d="M11.75 3.83002C11.75 1.86754 13.354 0.25 15.33 0.25H17.22C19.7142 0.25 21.75 2.28582 21.75 4.78003C21.75 7.27425 19.7142 9.31 17.22 9.31H17.03V16.1C17.03 17.5542 15.8442 18.74 14.39 18.74C12.9358 18.74 11.75 17.5542 11.75 16.1V3.83002ZM15.33 1.75C14.1859 1.75 13.25 2.6925 13.25 3.83002V16.1C13.25 16.7258 13.7642 17.24 14.39 17.24C15.0158 17.24 15.53 16.7258 15.53 16.1V8.56C15.53 8.14578 15.8658 7.81 16.28 7.81H17.22C18.8858 7.81 20.25 6.44581 20.25 4.78003C20.25 3.11424 18.8858 1.75 17.22 1.75H15.33Z" fill="#101010"/>
<path fill-rule="evenodd" clip-rule="evenodd" d="M16.4697 3.84003C16.4697 3.42581 16.8055 3.09003 17.2197 3.09003C18.1539 3.09003 18.9097 3.84582 18.9097 4.78003C18.9097 5.71431 18.1539 6.46997 17.2197 6.46997C16.8055 6.46997 16.4697 6.13418 16.4697 5.71997C16.4697 5.30576 16.8055 4.96997 17.2197 4.96997C17.3256 4.96997 17.4097 4.88575 17.4097 4.78003C17.4097 4.67424 17.3255 4.59003 17.2197 4.59003C16.8055 4.59003 16.4697 4.25424 16.4697 3.84003Z" fill="#101010"/>
<path fill-rule="evenodd" clip-rule="evenodd" d="M7.5 17.25C7.91421 17.25 8.25 17.5858 8.25 18V21C8.25 21.4142 7.91421 21.75 7.5 21.75C7.08579 21.75 6.75 21.4142 6.75 21V18C6.75 17.5858 7.08579 17.25 7.5 17.25Z" fill="#101010"/>
<path fill-rule="evenodd" clip-rule="evenodd" d="M14.5 17.25C14.9142 17.25 15.25 17.5858 15.25 18V21C15.25 21.4142 14.9142 21.75 14.5 21.75C14.0858 21.75 13.75 21.4142 13.75 21V18C13.75 17.5858 14.0858 17.25 14.5 17.25Z" fill="#101010"/>
</svg>
