<svg width="20" height="22" viewBox="0 0 20 22" fill="none" xmlns="http://www.w3.org/2000/svg">
<path fill-rule="evenodd" clip-rule="evenodd" d="M9.18482 0.639189C9.69597 0.383617 10.2945 0.383617 10.8056 0.639189L10.812 0.642369C11.3804 0.933312 11.8562 1.42752 12.1881 1.9643C12.5198 2.50068 12.7502 3.14833 12.7502 3.79001V6.62728L18.1842 8.96999C18.6604 9.17084 19.0462 9.54291 19.3099 9.94493C19.5744 10.3483 19.7602 10.849 19.7602 11.36V12.65C19.7602 13.2555 19.5261 13.838 19.01 14.1761C18.495 14.5135 17.8685 14.4967 17.3148 14.2594L17.3129 14.2586L12.7502 12.2885V14.7559C12.7505 14.7581 12.7514 14.7655 12.7543 14.7781C12.7591 14.799 12.7672 14.8249 12.7786 14.8523C12.7901 14.8798 12.8023 14.9024 12.8124 14.9181C12.8161 14.9239 12.8188 14.9276 12.8204 14.9297C12.8242 14.9333 12.828 14.9371 12.8317 14.9408L15.1006 17.2197C15.1008 17.2199 15.1004 17.2195 15.1006 17.2197C15.3431 17.4625 15.4851 17.7783 15.5519 18.0646C15.6183 18.3495 15.6316 18.694 15.5212 19.0189L15.0793 20.3545C14.7334 21.3576 13.5854 21.8361 12.6348 21.3608C12.5821 21.3344 12.5326 21.3019 12.4874 21.2639L10.1521 19.2995C10.083 19.2402 9.91746 19.2402 9.84833 19.2995L9.84305 19.304L7.51303 21.2639C7.46928 21.3008 7.42145 21.3324 7.3705 21.3584C6.41168 21.8465 5.24849 21.3621 4.92629 20.3398L4.48872 19.0172C4.48864 19.0169 4.4888 19.0174 4.48872 19.0172C4.38056 18.6921 4.391 18.3486 4.45886 18.0598C4.52656 17.7715 4.66911 17.4607 4.90938 17.2202C4.90956 17.22 4.90921 17.2204 4.90938 17.2202L7.17504 14.9446C7.17669 14.9424 7.18019 14.9375 7.18516 14.9295C7.19609 14.9118 7.20887 14.8872 7.22075 14.8581C7.23261 14.829 7.241 14.8017 7.24595 14.7798C7.24905 14.7661 7.24999 14.7582 7.25023 14.756V12.2885L2.68753 14.2586L2.68567 14.2594C2.13197 14.4967 1.50543 14.5135 0.990465 14.1761C0.474384 13.838 0.240234 13.2555 0.240234 12.65V11.36C0.240234 10.8491 0.425965 10.348 0.691356 9.94502C0.954616 9.54525 1.3411 9.17429 1.82031 8.97827L7.24023 6.6374V3.80001C7.24023 3.15887 7.4703 2.50924 7.80137 1.97088C8.13259 1.43228 8.60843 0.934213 9.17848 0.642399L9.18482 0.639189ZM9.85826 1.97954C9.58939 2.11835 9.30185 2.39441 9.0791 2.75664C8.85517 3.12078 8.74023 3.50115 8.74023 3.80001V6.80001C8.74023 7.07188 8.6404 7.31049 8.52714 7.48296C8.41428 7.65481 8.23639 7.8397 7.99085 7.94713L7.98761 7.94854L2.40761 10.3585L2.39071 10.3656C2.25429 10.4206 2.08412 10.5574 1.94411 10.77C1.8045 10.982 1.74023 11.2009 1.74023 11.36V12.65C1.74023 12.7672 1.76221 12.8388 1.77959 12.8758C1.79592 12.9105 1.80984 12.9197 1.8125 12.9214C1.81528 12.9232 1.82995 12.9327 1.86974 12.934C1.91176 12.9353 1.98668 12.9269 2.09394 12.881C2.09423 12.8809 2.09366 12.8811 2.09394 12.881L6.99929 10.763C7.36504 10.6011 7.81772 10.5778 8.2045 10.8319C8.59144 11.0861 8.75023 11.5113 8.75023 11.91V14.76C8.75023 14.9996 8.68683 15.2353 8.60972 15.4244C8.53315 15.6122 8.41317 15.8274 8.24152 15.9994C8.2412 15.9997 8.24088 16 8.24056 16.0003L5.97173 18.2792C5.97177 18.2792 5.96347 18.2885 5.95246 18.3098C5.94002 18.3339 5.92778 18.3659 5.91911 18.4028C5.91045 18.4396 5.90707 18.4742 5.90749 18.5023C5.90789 18.5283 5.91138 18.5414 5.91174 18.5428C5.91178 18.5429 5.91178 18.5429 5.91174 18.5428L5.91228 18.5444L6.35666 19.8877C6.39245 20.003 6.51309 20.0725 6.63529 20.0422L8.87516 18.158C9.50517 17.6207 10.4953 17.6207 11.1253 18.158L13.3612 20.0389C13.4794 20.0649 13.6125 20.0017 13.6601 19.8686L14.1002 18.5384C14.1006 18.5363 14.1027 18.5259 14.103 18.5065C14.1034 18.479 14.1001 18.4438 14.0911 18.4054C14.0822 18.3671 14.0695 18.3337 14.0567 18.3086C14.0465 18.2886 14.0392 18.2798 14.0386 18.279C14.0385 18.279 14.0386 18.279 14.0386 18.279L11.7756 16.006C11.5964 15.8336 11.4728 15.6181 11.3944 15.4302C11.3139 15.2374 11.2502 15.0001 11.2502 14.76V11.91C11.2502 11.5178 11.4022 11.0905 11.7937 10.8347C12.1811 10.5815 12.6292 10.6102 12.9849 10.7561L12.9976 10.7613L17.9057 12.8807C17.906 12.8808 17.9063 12.8809 17.9066 12.8811C18.0138 12.9269 18.0887 12.9353 18.1307 12.934C18.1705 12.9327 18.1852 12.9232 18.188 12.9214C18.1906 12.9197 18.2045 12.9105 18.2209 12.8758C18.2383 12.8388 18.2602 12.7672 18.2602 12.65V11.36C18.2602 11.201 18.196 10.9817 18.0556 10.7676C17.915 10.5532 17.7422 10.4112 17.6002 10.3517L17.5933 10.3488L11.9996 7.93714C11.7541 7.82971 11.5762 7.64481 11.4633 7.47296C11.3501 7.30049 11.2502 7.06188 11.2502 6.79001V3.79001C11.2502 3.49169 11.1357 3.11434 10.9123 2.75322C10.6903 2.39415 10.4028 2.1192 10.1322 1.97954C10.0449 1.93683 9.94562 1.93683 9.85826 1.97954Z" fill="#101010"/>
</svg>
