<svg width="22" height="22" viewBox="0 0 22 22" fill="none" xmlns="http://www.w3.org/2000/svg">
<path fill-rule="evenodd" clip-rule="evenodd" d="M0.25 21C0.25 20.5858 0.585786 20.25 1 20.25H21C21.4142 20.25 21.75 20.5858 21.75 21C21.75 21.4142 21.4142 21.75 21 21.75H1C0.585786 21.75 0.25 21.4142 0.25 21Z" fill="#101010"/>
<path fill-rule="evenodd" clip-rule="evenodd" d="M1.25 14C1.25 8.61579 5.61579 4.25 11 4.25C16.3842 4.25 20.75 8.61579 20.75 14V21C20.75 21.4142 20.4142 21.75 20 21.75H2C1.58579 21.75 1.25 21.4142 1.25 21V14ZM11 5.75C6.44421 5.75 2.75 9.44421 2.75 14V20.25H19.25V14C19.25 9.44421 15.5558 5.75 11 5.75Z" fill="#101010"/>
<path fill-rule="evenodd" clip-rule="evenodd" d="M11 0.25C11.4142 0.25 11.75 0.585786 11.75 1V2C11.75 2.41421 11.4142 2.75 11 2.75C10.5858 2.75 10.25 2.41421 10.25 2V1C10.25 0.585786 10.5858 0.25 11 0.25Z" fill="#101010"/>
<path fill-rule="evenodd" clip-rule="evenodd" d="M2.46967 2.46967C2.76256 2.17678 3.23744 2.17678 3.53033 2.46967L4.53033 3.46967C4.82322 3.76256 4.82322 4.23744 4.53033 4.53033C4.23744 4.82322 3.76256 4.82322 3.46967 4.53033L2.46967 3.53033C2.17678 3.23744 2.17678 2.76256 2.46967 2.46967Z" fill="#101010"/>
<path fill-rule="evenodd" clip-rule="evenodd" d="M19.5303 2.46967C19.8232 2.76256 19.8232 3.23744 19.5303 3.53033L18.5303 4.53033C18.2374 4.82322 17.7626 4.82322 17.4697 4.53033C17.1768 4.23744 17.1768 3.76256 17.4697 3.46967L18.4697 2.46967C18.7626 2.17678 19.2374 2.17678 19.5303 2.46967Z" fill="#101010"/>
</svg>
