<svg width="22" height="18" viewBox="0 0 22 18" fill="none" xmlns="http://www.w3.org/2000/svg">
<path fill-rule="evenodd" clip-rule="evenodd" d="M4.78265 2.53376C4.6449 2.66336 4.5 2.93486 4.5 3.6V14.4C4.5 15.0651 4.6449 15.3366 4.78265 15.4662C4.93191 15.6067 5.25032 15.75 5.98 15.75H7.02C7.74969 15.75 8.06809 15.6067 8.21735 15.4662C8.3551 15.3366 8.5 15.0651 8.5 14.4V3.6C8.5 2.93486 8.3551 2.66336 8.21735 2.53376C8.06809 2.39334 7.74969 2.25 7.02 2.25H5.98C5.25032 2.25 4.93191 2.39334 4.78265 2.53376ZM3.75485 1.44124C4.32309 0.906656 5.11968 0.75 5.98 0.75H7.02C7.88032 0.75 8.67691 0.906656 9.24515 1.44124C9.8249 1.98664 10 2.76514 10 3.6V14.4C10 15.2349 9.8249 16.0134 9.24516 16.5588C8.67691 17.0933 7.88032 17.25 7.02 17.25H5.98C5.11968 17.25 4.32309 17.0933 3.75485 16.5588C3.1751 16.0134 3 15.2349 3 14.4V3.6C3 2.76514 3.1751 1.98664 3.75485 1.44124Z" fill="#101010"/>
<path fill-rule="evenodd" clip-rule="evenodd" d="M13.2827 4.53376C13.1449 4.66336 13 4.93486 13 5.6V12.4C13 13.0651 13.1449 13.3366 13.2827 13.4662C13.4319 13.6067 13.7503 13.75 14.48 13.75H15.52C16.2497 13.75 16.5681 13.6067 16.7173 13.4662C16.8551 13.3366 17 13.0651 17 12.4V5.6C17 4.93486 16.8551 4.66336 16.7173 4.53376C16.5681 4.39334 16.2497 4.25 15.52 4.25H14.48C13.7503 4.25 13.4319 4.39334 13.2827 4.53376ZM12.2548 3.44124C12.8231 2.90666 13.6197 2.75 14.48 2.75H15.52C16.3803 2.75 17.1769 2.90666 17.7452 3.44124C18.3249 3.98664 18.5 4.76514 18.5 5.6V12.4C18.5 13.2349 18.3249 14.0134 17.7452 14.5588C17.1769 15.0933 16.3803 15.25 15.52 15.25H14.48C13.6197 15.25 12.8231 15.0933 12.2548 14.5588C11.6751 14.0134 11.5 13.2349 11.5 12.4V5.6C11.5 4.76514 11.6751 3.98664 12.2548 3.44124Z" fill="#101010"/>
<path fill-rule="evenodd" clip-rule="evenodd" d="M0.25 9C0.25 8.58579 0.585786 8.25 1 8.25H3.4C3.81421 8.25 4.15 8.58579 4.15 9C4.15 9.41421 3.81421 9.75 3.4 9.75H1C0.585786 9.75 0.25 9.41421 0.25 9Z" fill="#101010"/>
<path fill-rule="evenodd" clip-rule="evenodd" d="M9.25 9C9.25 8.58579 9.58579 8.25 10 8.25H12C12.4142 8.25 12.75 8.58579 12.75 9C12.75 9.41421 12.4142 9.75 12 9.75H10C9.58579 9.75 9.25 9.41421 9.25 9Z" fill="#101010"/>
<path fill-rule="evenodd" clip-rule="evenodd" d="M17.5596 9C17.5596 8.58579 17.8954 8.25 18.3096 8.25H20.9996C21.4138 8.25 21.7496 8.58579 21.7496 9C21.7496 9.41421 21.4138 9.75 20.9996 9.75H18.3096C17.8954 9.75 17.5596 9.41421 17.5596 9Z" fill="#101010"/>
</svg>
