<svg width="18" height="22" viewBox="0 0 18 22" fill="none" xmlns="http://www.w3.org/2000/svg">
<path fill-rule="evenodd" clip-rule="evenodd" d="M2.53376 13.7827C2.39334 13.9319 2.25 14.2503 2.25 14.98V16.02C2.25 16.7497 2.39334 17.0681 2.53376 17.2173C2.66336 17.3551 2.93486 17.5 3.6 17.5H14.4C15.0651 17.5 15.3366 17.3551 15.4662 17.2173C15.6067 17.0681 15.75 16.7497 15.75 16.02V14.98C15.75 14.2503 15.6067 13.9319 15.4662 13.7827C15.3366 13.6449 15.0651 13.5 14.4 13.5H3.6C2.93486 13.5 2.66336 13.6449 2.53376 13.7827ZM1.44124 12.7548C1.98664 12.1751 2.76514 12 3.6 12H14.4C15.2349 12 16.0134 12.1751 16.5588 12.7548C17.0933 13.3231 17.25 14.1197 17.25 14.98V16.02C17.25 16.8803 17.0933 17.6769 16.5588 18.2452C16.0134 18.8249 15.2349 19 14.4 19H3.6C2.76514 19 1.98664 18.8249 1.44124 18.2452C0.906656 17.6769 0.75 16.8803 0.75 16.02V14.98C0.75 14.1197 0.906656 13.3231 1.44124 12.7548Z" fill="#101010"/>
<path fill-rule="evenodd" clip-rule="evenodd" d="M4.53376 5.28265C4.39334 5.43191 4.25 5.75032 4.25 6.48V7.52C4.25 8.24969 4.39334 8.56809 4.53376 8.71735C4.66336 8.8551 4.93486 9 5.6 9H12.4C13.0651 9 13.3366 8.8551 13.4662 8.71735C13.6067 8.56809 13.75 8.24969 13.75 7.52V6.48C13.75 5.75032 13.6067 5.43191 13.4662 5.28265C13.3366 5.1449 13.0651 5 12.4 5H5.6C4.93486 5 4.66336 5.1449 4.53376 5.28265ZM3.44124 4.25485C3.98664 3.6751 4.76514 3.5 5.6 3.5H12.4C13.2349 3.5 14.0134 3.6751 14.5588 4.25485C15.0933 4.82309 15.25 5.61968 15.25 6.48V7.52C15.25 8.38032 15.0933 9.17691 14.5588 9.74516C14.0134 10.3249 13.2349 10.5 12.4 10.5H5.6C4.76514 10.5 3.98664 10.3249 3.44124 9.74516C2.90666 9.17691 2.75 8.38032 2.75 7.52V6.48C2.75 5.61968 2.90666 4.82309 3.44124 4.25485Z" fill="#101010"/>
<path fill-rule="evenodd" clip-rule="evenodd" d="M9 17.85C9.41421 17.85 9.75 18.1858 9.75 18.6V21C9.75 21.4142 9.41421 21.75 9 21.75C8.58579 21.75 8.25 21.4142 8.25 21V18.6C8.25 18.1858 8.58579 17.85 9 17.85Z" fill="#101010"/>
<path fill-rule="evenodd" clip-rule="evenodd" d="M9 9.25C9.41421 9.25 9.75 9.58579 9.75 10V12C9.75 12.4142 9.41421 12.75 9 12.75C8.58579 12.75 8.25 12.4142 8.25 12V10C8.25 9.58579 8.58579 9.25 9 9.25Z" fill="#101010"/>
<path fill-rule="evenodd" clip-rule="evenodd" d="M9 0.25C9.41421 0.25 9.75 0.585786 9.75 1V3.69C9.75 4.10421 9.41421 4.44 9 4.44C8.58579 4.44 8.25 4.10421 8.25 3.69V1C8.25 0.585786 8.58579 0.25 9 0.25Z" fill="#101010"/>
</svg>
