<svg width="16" height="22" viewBox="0 0 16 22" fill="none" xmlns="http://www.w3.org/2000/svg">
<path fill-rule="evenodd" clip-rule="evenodd" d="M0.349609 12.75C0.349609 12.3358 0.685396 12 1.09961 12H12.8996C13.7345 12 14.513 12.1751 15.0584 12.7548C15.593 13.3231 15.7496 14.1197 15.7496 14.98V16.02C15.7496 16.8803 15.593 17.6769 15.0584 18.2452C14.513 18.8249 13.7345 19 12.8996 19H1.09961C0.685396 19 0.349609 18.6642 0.349609 18.25C0.349609 17.8358 0.685396 17.5 1.09961 17.5H12.8996C13.5647 17.5 13.8363 17.3551 13.9658 17.2173C14.1063 17.0681 14.2496 16.7497 14.2496 16.02V14.98C14.2496 14.2503 14.1063 13.9319 13.9658 13.7827C13.8363 13.6449 13.5647 13.5 12.8996 13.5H1.09961C0.685396 13.5 0.349609 13.1642 0.349609 12.75Z" fill="#101010"/>
<path fill-rule="evenodd" clip-rule="evenodd" d="M0.349609 4.25C0.349609 3.83579 0.685396 3.5 1.09961 3.5H7.89961C8.73447 3.5 9.51297 3.6751 10.0584 4.25485C10.593 4.82309 10.7496 5.61968 10.7496 6.48V7.52C10.7496 8.38032 10.593 9.17691 10.0584 9.74515C9.51297 10.3249 8.73447 10.5 7.89961 10.5H1.09961C0.685396 10.5 0.349609 10.1642 0.349609 9.75C0.349609 9.33579 0.685396 9 1.09961 9H7.89961C8.56475 9 8.83625 8.8551 8.96585 8.71735C9.10626 8.56809 9.24961 8.24969 9.24961 7.52V6.48C9.24961 5.75032 9.10626 5.43191 8.96585 5.28265C8.83625 5.1449 8.56475 5 7.89961 5H1.09961C0.685396 5 0.349609 4.66421 0.349609 4.25Z" fill="#101010"/>
<path fill-rule="evenodd" clip-rule="evenodd" d="M1 0.23999C1.41421 0.23999 1.75 0.575777 1.75 0.98999V20.99C1.75 21.4042 1.41421 21.74 1 21.74C0.585786 21.74 0.25 21.4042 0.25 20.99V0.98999C0.25 0.575777 0.585786 0.23999 1 0.23999Z" fill="#101010"/>
</svg>
