<svg width="22" height="22" viewBox="0 0 22 22" fill="none" xmlns="http://www.w3.org/2000/svg">
<path fill-rule="evenodd" clip-rule="evenodd" d="M3.5 8.46997C3.91421 8.46997 4.25 8.80576 4.25 9.21997V18C4.25 18.9867 4.38632 19.4811 4.62693 19.7561C4.84587 20.0063 5.31467 20.25 6.5 20.25H15.5C16.6853 20.25 17.1541 20.0063 17.3731 19.7561C17.6137 19.4811 17.75 18.9867 17.75 18V9.21997C17.75 8.80576 18.0858 8.46997 18.5 8.46997C18.9142 8.46997 19.25 8.80576 19.25 9.21997V18C19.25 19.0132 19.1363 20.0188 18.5019 20.7438C17.8459 21.4936 16.8147 21.75 15.5 21.75H6.5C5.18533 21.75 4.15413 21.4936 3.49807 20.7438C2.86368 20.0188 2.75 19.0132 2.75 18V9.21997C2.75 8.80576 3.08579 8.46997 3.5 8.46997Z" fill="#101010"/>
<path fill-rule="evenodd" clip-rule="evenodd" d="M2.28033 2.28033C1.97059 2.59007 1.75 3.11561 1.75 4V6C1.75 6.88439 1.97059 7.40993 2.28033 7.71967C2.59007 8.02941 3.11561 8.25 4 8.25H18C18.8844 8.25 19.4099 8.02941 19.7197 7.71967C20.0294 7.40993 20.25 6.88439 20.25 6V4C20.25 3.11561 20.0294 2.59007 19.7197 2.28033C19.4099 1.97059 18.8844 1.75 18 1.75H4C3.11561 1.75 2.59007 1.97059 2.28033 2.28033ZM1.21967 1.21967C1.90993 0.52941 2.88439 0.25 4 0.25H18C19.1156 0.25 20.0901 0.52941 20.7803 1.21967C21.4706 1.90993 21.75 2.88439 21.75 4V6C21.75 7.11561 21.4706 8.09007 20.7803 8.78033C20.0901 9.47059 19.1156 9.75 18 9.75H4C2.88439 9.75 1.90993 9.47059 1.21967 8.78033C0.52941 8.09007 0.25 7.11561 0.25 6V4C0.25 2.88439 0.52941 1.90993 1.21967 1.21967Z" fill="#101010"/>
<path fill-rule="evenodd" clip-rule="evenodd" d="M8.43018 13C8.43018 12.5858 8.76596 12.25 9.18018 12.25H12.8202C13.2344 12.25 13.5702 12.5858 13.5702 13C13.5702 13.4142 13.2344 13.75 12.8202 13.75H9.18018C8.76596 13.75 8.43018 13.4142 8.43018 13Z" fill="#101010"/>
</svg>
