<svg width="22" height="22" viewBox="0 0 22 22" fill="none" xmlns="http://www.w3.org/2000/svg">
<path fill-rule="evenodd" clip-rule="evenodd" d="M21.5303 0.46967C21.8232 0.762563 21.8232 1.23744 21.5303 1.53033L1.53033 21.5303C1.23744 21.8232 0.762563 21.8232 0.46967 21.5303C0.176777 21.2374 0.176777 20.7626 0.46967 20.4697L20.4697 0.46967C20.7626 0.176777 21.2374 0.176777 21.5303 0.46967Z" fill="#101010"/>
<path fill-rule="evenodd" clip-rule="evenodd" d="M19.6801 6.95996C20.0943 6.95996 20.4301 7.29575 20.4301 7.70996V18.71C20.4301 19.8802 20.0046 20.8974 19.1204 21.4176C18.236 21.938 17.1397 21.8157 16.1152 21.2452C16.1042 21.2391 16.0933 21.2327 16.0826 21.226L9.6026 17.176C9.25135 16.9564 9.14457 16.4937 9.3641 16.1425C9.58363 15.7912 10.0463 15.6844 10.3976 15.904L16.8608 19.9434C17.5877 20.3434 18.0862 20.2858 18.3598 20.1248C18.6356 19.9625 18.9301 19.5498 18.9301 18.71V7.70996C18.9301 7.29575 19.2659 6.95996 19.6801 6.95996Z" fill="#101010"/>
<path fill-rule="evenodd" clip-rule="evenodd" d="M6.18031 1.75C4.46579 1.75 3.07031 3.15295 3.07031 4.86V18.95C3.07031 19.3642 2.73453 19.7 2.32031 19.7C1.9061 19.7 1.57031 19.3642 1.57031 18.95V4.86C1.57031 2.32705 3.63484 0.25 6.18031 0.25H15.8303C17.2778 0.25 18.5685 0.92114 19.414 1.96906C19.6741 2.29143 19.6236 2.76361 19.3013 3.02371C18.9789 3.2838 18.5067 3.23332 18.2466 2.91094C17.6721 2.19886 16.8028 1.75 15.8303 1.75H6.18031Z" fill="#101010"/>
</svg>
