<svg width="22" height="22" viewBox="0 0 22 22" fill="none" xmlns="http://www.w3.org/2000/svg">
<path fill-rule="evenodd" clip-rule="evenodd" d="M2.09516 2.09467C3.42963 0.760201 5.42652 0.25 8.00049 0.25H14.0005C16.5745 0.25 18.5714 0.760201 19.9058 2.09467C21.2403 3.42914 21.7505 5.42603 21.7505 8V14C21.7505 16.574 21.2403 18.5709 19.9058 19.9053C18.5714 21.2398 16.5745 21.75 14.0005 21.75H8.00049C5.42652 21.75 3.42963 21.2398 2.09516 19.9053C0.760689 18.5709 0.250488 16.574 0.250488 14V8C0.250488 5.42603 0.760689 3.42914 2.09516 2.09467ZM3.15582 3.15533C2.24029 4.07086 1.75049 5.57397 1.75049 8V14C1.75049 16.426 2.24029 17.9291 3.15582 18.8447C4.07135 19.7602 5.57446 20.25 8.00049 20.25H14.0005C16.4265 20.25 17.9296 19.7602 18.8452 18.8447C19.7607 17.9291 20.2505 16.426 20.2505 14V8C20.2505 5.57397 19.7607 4.07086 18.8452 3.15533C17.9296 2.2398 16.4265 1.75 14.0005 1.75H8.00049C5.57446 1.75 4.07135 2.2398 3.15582 3.15533Z" fill="#101010"/>
<path fill-rule="evenodd" clip-rule="evenodd" d="M7.00049 5.5C6.3147 5.5 5.75049 6.06421 5.75049 6.75V11.0517C6.12591 10.8589 6.55093 10.75 7.00049 10.75H15.0005C15.45 10.75 15.8751 10.8589 16.2505 11.0517V6.75C16.2505 6.06421 15.6863 5.5 15.0005 5.5H7.00049ZM17.7505 13.5V6.75C17.7505 5.23579 16.5147 4 15.0005 4H7.00049C5.48627 4 4.25049 5.23579 4.25049 6.75V13.5C4.25049 13.9142 4.58627 14.25 5.00049 14.25C5.4147 14.25 5.75049 13.9142 5.75049 13.5C5.75049 12.8142 6.3147 12.25 7.00049 12.25H15.0005C15.6863 12.25 16.2505 12.8142 16.2505 13.5C16.2505 13.9142 16.5863 14.25 17.0005 14.25C17.4147 14.25 17.7505 13.9142 17.7505 13.5Z" fill="#101010"/>
<path fill-rule="evenodd" clip-rule="evenodd" d="M16.2505 14.75C16.2505 14.3358 16.5863 14 17.0005 14H18.0005C18.4147 14 18.7505 14.3358 18.7505 14.75C18.7505 15.1642 18.4147 15.5 18.0005 15.5H17.0005C16.5863 15.5 16.2505 15.1642 16.2505 14.75Z" fill="#101010"/>
<path fill-rule="evenodd" clip-rule="evenodd" d="M3.25049 14.75C3.25049 14.3358 3.58627 14 4.00049 14H5.00049C5.4147 14 5.75049 14.3358 5.75049 14.75C5.75049 15.1642 5.4147 15.5 5.00049 15.5H4.00049C3.58627 15.5 3.25049 15.1642 3.25049 14.75Z" fill="#101010"/>
<path fill-rule="evenodd" clip-rule="evenodd" d="M4.25049 10C4.25049 8.48579 5.48627 7.25 7.00049 7.25H15.0005C16.5147 7.25 17.7505 8.48579 17.7505 10V13C17.7505 13.4142 17.4147 13.75 17.0005 13.75C16.5863 13.75 16.2505 13.4142 16.2505 13V10C16.2505 9.31421 15.6863 8.75 15.0005 8.75H7.00049C6.3147 8.75 5.75049 9.31421 5.75049 10V13C5.75049 13.4142 5.4147 13.75 5.00049 13.75C4.58627 13.75 4.25049 13.4142 4.25049 13V10Z" fill="#101010"/>
<path fill-rule="evenodd" clip-rule="evenodd" d="M7.00049 12.25C6.3147 12.25 5.75049 12.8142 5.75049 13.5V14H8.50049C8.9147 14 9.25049 14.3358 9.25049 14.75C9.25049 15.7158 10.0347 16.5 11.0005 16.5C11.9663 16.5 12.7505 15.7158 12.7505 14.75C12.7505 14.3358 13.0863 14 13.5005 14H16.2505V13.5C16.2505 12.8142 15.6863 12.25 15.0005 12.25H7.00049ZM4.25049 13.5C4.25049 11.9858 5.48627 10.75 7.00049 10.75H15.0005C16.5147 10.75 17.7505 11.9858 17.7505 13.5V14.75C17.7505 15.1642 17.4147 15.5 17.0005 15.5H14.1634C13.8246 16.9329 12.5366 18 11.0005 18C9.46439 18 8.17635 16.9329 7.83755 15.5H5.00049C4.58627 15.5 4.25049 15.1642 4.25049 14.75V13.5Z" fill="#101010"/>
</svg>
