<svg width="22" height="22" viewBox="0 0 22 22" fill="none" xmlns="http://www.w3.org/2000/svg">
<path fill-rule="evenodd" clip-rule="evenodd" d="M2.09467 2.09467C3.42914 0.760201 5.42603 0.25 8 0.25H14C16.574 0.25 18.5709 0.760201 19.9053 2.09467C21.2398 3.42914 21.75 5.42603 21.75 8V14C21.75 16.574 21.2398 18.5709 19.9053 19.9053C18.5709 21.2398 16.574 21.75 14 21.75H8C5.42603 21.75 3.42914 21.2398 2.09467 19.9053C0.760201 18.5709 0.25 16.574 0.25 14V8C0.25 5.42603 0.760201 3.42914 2.09467 2.09467ZM3.15533 3.15533C2.2398 4.07086 1.75 5.57397 1.75 8V14C1.75 16.426 2.2398 17.9291 3.15533 18.8447C4.07086 19.7602 5.57397 20.25 8 20.25H14C16.426 20.25 17.9291 19.7602 18.8447 18.8447C19.7602 17.9291 20.25 16.426 20.25 14V8C20.25 5.57397 19.7602 4.07086 18.8447 3.15533C17.9291 2.2398 16.426 1.75 14 1.75H8C5.57397 1.75 4.07086 2.2398 3.15533 3.15533Z" fill="#101010"/>
<path fill-rule="evenodd" clip-rule="evenodd" d="M16.6797 12.2897C16.9726 12.5826 16.9726 13.0574 16.6797 13.3503L13.6397 16.3903C13.3468 16.6832 12.8719 16.6832 12.579 16.3903C12.2862 16.0974 12.2862 15.6226 12.579 15.3297L15.619 12.2897C15.9119 11.9968 16.3868 11.9968 16.6797 12.2897Z" fill="#101010"/>
<path fill-rule="evenodd" clip-rule="evenodd" d="M5.09961 12.82C5.09961 12.4058 5.4354 12.07 5.84961 12.07H16.1496C16.5638 12.07 16.8996 12.4058 16.8996 12.82C16.8996 13.2342 16.5638 13.57 16.1496 13.57H5.84961C5.4354 13.57 5.09961 13.2342 5.09961 12.82Z" fill="#101010"/>
<path fill-rule="evenodd" clip-rule="evenodd" d="M9.41994 5.60968C9.71283 5.90258 9.71283 6.37745 9.41994 6.67034L6.37994 9.71035C6.08705 10.0032 5.61217 10.0032 5.31928 9.71035C5.02639 9.41745 5.02639 8.94258 5.31928 8.64969L8.35928 5.60968C8.65217 5.31679 9.12705 5.31679 9.41994 5.60968Z" fill="#101010"/>
<path fill-rule="evenodd" clip-rule="evenodd" d="M5.09961 9.17999C5.09961 8.76578 5.4354 8.42999 5.84961 8.42999H16.1496C16.5638 8.42999 16.8996 8.76578 16.8996 9.17999C16.8996 9.59421 16.5638 9.92999 16.1496 9.92999H5.84961C5.4354 9.92999 5.09961 9.59421 5.09961 9.17999Z" fill="#101010"/>
</svg>
