<svg width="22" height="22" viewBox="0 0 22 22" fill="none" xmlns="http://www.w3.org/2000/svg">
<path fill-rule="evenodd" clip-rule="evenodd" d="M2.09467 2.09467C3.42914 0.760201 5.42603 0.25 8 0.25H14C16.574 0.25 18.5709 0.760201 19.9053 2.09467C21.2398 3.42914 21.75 5.42603 21.75 8V14C21.75 16.574 21.2398 18.5709 19.9053 19.9053C18.5709 21.2398 16.574 21.75 14 21.75H8C5.42603 21.75 3.42914 21.2398 2.09467 19.9053C0.760201 18.5709 0.25 16.574 0.25 14V8C0.25 5.42603 0.760201 3.42914 2.09467 2.09467ZM3.15533 3.15533C2.2398 4.07086 1.75 5.57397 1.75 8V14C1.75 16.426 2.2398 17.9291 3.15533 18.8447C4.07086 19.7602 5.57397 20.25 8 20.25H14C16.426 20.25 17.9291 19.7602 18.8447 18.8447C19.7602 17.9291 20.25 16.426 20.25 14V8C20.25 5.57397 19.7602 4.07086 18.8447 3.15533C17.9291 2.2398 16.426 1.75 14 1.75H8C5.57397 1.75 4.07086 2.2398 3.15533 3.15533Z" fill="#101010"/>
<path fill-rule="evenodd" clip-rule="evenodd" d="M5.60932 12.5797C5.90221 12.2868 6.37709 12.2868 6.66998 12.5797L9.70998 15.6197C10.0029 15.9125 10.0029 16.3874 9.70998 16.6803C9.41709 16.9732 8.94221 16.9732 8.64932 16.6803L5.60932 13.6403C5.31643 13.3474 5.31643 12.8725 5.60932 12.5797Z" fill="#101010"/>
<path fill-rule="evenodd" clip-rule="evenodd" d="M9.17969 5.09998C9.5939 5.09998 9.92969 5.43576 9.92969 5.84998V16.15C9.92969 16.5642 9.5939 16.9 9.17969 16.9C8.76547 16.9 8.42969 16.5642 8.42969 16.15V5.84998C8.42969 5.43576 8.76547 5.09998 9.17969 5.09998Z" fill="#101010"/>
<path fill-rule="evenodd" clip-rule="evenodd" d="M12.29 5.31965C12.5829 5.02675 13.0577 5.02675 13.3506 5.31965L16.3906 8.35965C16.6835 8.65254 16.6835 9.12741 16.3906 9.42031C16.0978 9.7132 15.6229 9.7132 15.33 9.42031L12.29 6.38031C11.9971 6.08741 11.9971 5.61254 12.29 5.31965Z" fill="#101010"/>
<path fill-rule="evenodd" clip-rule="evenodd" d="M12.8203 5.09998C13.2345 5.09998 13.5703 5.43576 13.5703 5.84998V16.15C13.5703 16.5642 13.2345 16.9 12.8203 16.9C12.4061 16.9 12.0703 16.5642 12.0703 16.15V5.84998C12.0703 5.43576 12.4061 5.09998 12.8203 5.09998Z" fill="#101010"/>
</svg>
