<svg width="22" height="22" viewBox="0 0 22 22" fill="none" xmlns="http://www.w3.org/2000/svg">
<path fill-rule="evenodd" clip-rule="evenodd" d="M11 1.75C5.89137 1.75 1.75 5.89137 1.75 11C1.75 16.1086 5.89137 20.25 11 20.25C16.1086 20.25 20.25 16.1086 20.25 11C20.25 5.89137 16.1086 1.75 11 1.75ZM0.25 11C0.25 5.06294 5.06294 0.25 11 0.25C16.9371 0.25 21.75 5.06294 21.75 11C21.75 16.9371 16.9371 21.75 11 21.75C5.06294 21.75 0.25 16.9371 0.25 11Z" fill="#101010"/>
<path fill-rule="evenodd" clip-rule="evenodd" d="M6.75 11C6.75 10.5858 7.08579 10.25 7.5 10.25H13.5C13.9142 10.25 14.25 10.5858 14.25 11C14.25 11.4142 13.9142 11.75 13.5 11.75H7.5C7.08579 11.75 6.75 11.4142 6.75 11Z" fill="#101010"/>
<path fill-rule="evenodd" clip-rule="evenodd" d="M10.9697 7.46967C11.2626 7.17678 11.7374 7.17678 12.0303 7.46967L15.0303 10.4697C15.3232 10.7626 15.3232 11.2374 15.0303 11.5303L12.0303 14.5303C11.7374 14.8232 11.2626 14.8232 10.9697 14.5303C10.6768 14.2374 10.6768 13.7626 10.9697 13.4697L13.4393 11L10.9697 8.53033C10.6768 8.23744 10.6768 7.76256 10.9697 7.46967Z" fill="#101010"/>
</svg>
