<svg width="20" height="20" viewBox="0 0 20 20" fill="none" xmlns="http://www.w3.org/2000/svg">
<path fill-rule="evenodd" clip-rule="evenodd" d="M4.19941 0.46967C4.4923 0.176778 4.96717 0.176776 5.26006 0.469666L8.98009 4.18964C9.27299 4.48253 9.27299 4.9574 8.9801 5.2503C8.68721 5.54319 8.21234 5.5432 7.91944 5.25031L4.72974 2.06066L1.5401 5.2503C1.2472 5.54319 0.772329 5.54319 0.479436 5.2503C0.186542 4.95741 0.186542 4.48253 0.479436 4.18964L4.19941 0.46967Z" fill="#101010"/>
<path fill-rule="evenodd" clip-rule="evenodd" d="M4.72949 0.25C5.14371 0.25 5.47949 0.585786 5.47949 1V19C5.47949 19.4142 5.14371 19.75 4.72949 19.75C4.31528 19.75 3.97949 19.4142 3.97949 19V1C3.97949 0.585786 4.31528 0.25 4.72949 0.25Z" fill="#101010"/>
<path fill-rule="evenodd" clip-rule="evenodd" d="M11.0195 14.7497C11.3124 14.4568 11.7872 14.4568 12.0801 14.7497L15.2698 17.9393L18.4595 14.7497C18.7524 14.4568 19.2272 14.4568 19.5201 14.7497C19.813 15.0426 19.813 15.5175 19.5201 15.8104L15.8002 19.5303C15.5073 19.8232 15.0324 19.8232 14.7395 19.5303L11.0195 15.8104C10.7266 15.5175 10.7266 15.0426 11.0195 14.7497Z" fill="#101010"/>
<path fill-rule="evenodd" clip-rule="evenodd" d="M15.2695 0.25C15.6837 0.25 16.0195 0.585786 16.0195 1V19C16.0195 19.4142 15.6837 19.75 15.2695 19.75C14.8553 19.75 14.5195 19.4142 14.5195 19V1C14.5195 0.585786 14.8553 0.25 15.2695 0.25Z" fill="#101010"/>
</svg>
