<svg width="22" height="22" viewBox="0 0 22 22" fill="none" xmlns="http://www.w3.org/2000/svg">
<path fill-rule="evenodd" clip-rule="evenodd" d="M11 1.75C5.89137 1.75 1.75 5.89137 1.75 11C1.75 16.1086 5.89137 20.25 11 20.25C16.1086 20.25 20.25 16.1086 20.25 11C20.25 5.89137 16.1086 1.75 11 1.75ZM0.25 11C0.25 5.06294 5.06294 0.25 11 0.25C16.9371 0.25 21.75 5.06294 21.75 11C21.75 16.9371 16.9371 21.75 11 21.75C5.06294 21.75 0.25 16.9371 0.25 11Z" fill="#101010"/>
<path fill-rule="evenodd" clip-rule="evenodd" d="M12.7898 6.93889C13.0831 7.23137 13.0838 7.70624 12.7913 7.99955L9.79939 11L12.7913 14.0004C13.0838 14.2937 13.0831 14.7686 12.7898 15.0611C12.4965 15.3535 12.0216 15.3529 11.7292 15.0595L8.20915 11.5295C7.91726 11.2368 7.91726 10.7631 8.20915 10.4704L11.7292 6.94039C12.0216 6.64708 12.4965 6.64641 12.7898 6.93889Z" fill="#101010"/>
</svg>
