<svg width="14" height="20" viewBox="0 0 14 20" fill="none" xmlns="http://www.w3.org/2000/svg">
<path fill-rule="evenodd" clip-rule="evenodd" d="M6.99969 0.75C7.1986 0.75 7.38937 0.829018 7.53002 0.96967L13.6 7.03967C13.8929 7.33256 13.8929 7.80744 13.6 8.10033C13.3071 8.39322 12.8322 8.39322 12.5394 8.10033L6.99969 2.56066L1.46002 8.10033C1.16712 8.39322 0.692251 8.39322 0.399357 8.10033C0.106464 7.80744 0.106464 7.33256 0.399357 7.03967L6.46936 0.96967C6.61001 0.829018 6.80078 0.75 6.99969 0.75Z" fill="#101010"/>
<path fill-rule="evenodd" clip-rule="evenodd" d="M7 0.920044C7.41421 0.920044 7.75 1.25583 7.75 1.67004V18.5C7.75 18.9143 7.41421 19.25 7 19.25C6.58579 19.25 6.25 18.9143 6.25 18.5V1.67004C6.25 1.25583 6.58579 0.920044 7 0.920044Z" fill="#101010"/>
</svg>
