<svg width="14" height="16" viewBox="0 0 14 16" fill="none" xmlns="http://www.w3.org/2000/svg">
<path fill-rule="evenodd" clip-rule="evenodd" d="M8.15361 2.94057L3.53664 5.61881C2.24041 6.36855 1.75781 7.25271 1.75781 7.98506C1.75781 8.71741 2.23959 9.6011 3.53582 10.3508L8.15582 13.0308C9.45088 13.7796 10.4575 13.7554 11.0916 13.3893C11.7261 13.023 12.2503 12.164 12.2503 10.6701V5.33006C12.2503 3.83115 11.726 2.97125 11.0903 2.60261C10.4541 2.23368 9.44766 2.20651 8.15361 2.94057ZM11.8428 1.30502C13.0996 2.03387 13.7503 3.50897 13.7503 5.33006V10.6701C13.7503 12.4862 13.0995 13.9621 11.8415 14.6884C10.5833 15.4147 8.97935 15.24 7.4048 14.3293L2.7848 11.6493C1.21152 10.739 0.257812 9.43746 0.257812 7.98506C0.257812 6.53256 1.21084 5.23136 2.78433 4.32111C2.78449 4.32102 2.78418 4.3212 2.78433 4.32111L7.40991 1.63787C8.98445 0.743621 10.587 0.576718 11.8428 1.30502Z" fill="#101010"/>
</svg>
