<svg width="22" height="22" viewBox="0 0 22 22" fill="none" xmlns="http://www.w3.org/2000/svg">
<path fill-rule="evenodd" clip-rule="evenodd" d="M11 1.75C5.89137 1.75 1.75 5.89137 1.75 11C1.75 16.1086 5.89137 20.25 11 20.25C16.1086 20.25 20.25 16.1086 20.25 11C20.25 5.89137 16.1086 1.75 11 1.75ZM0.25 11C0.25 5.06294 5.06294 0.25 11 0.25C16.9371 0.25 21.75 5.06294 21.75 11C21.75 16.9371 16.9371 21.75 11 21.75C5.06294 21.75 0.25 16.9371 0.25 11Z" fill="#101010"/>
<path fill-rule="evenodd" clip-rule="evenodd" d="M7.75 11C7.75 10.5858 8.08579 10.25 8.5 10.25H14.5C14.9142 10.25 15.25 10.5858 15.25 11C15.25 11.4142 14.9142 11.75 14.5 11.75H8.5C8.08579 11.75 7.75 11.4142 7.75 11Z" fill="#101010"/>
<path fill-rule="evenodd" clip-rule="evenodd" d="M11.0303 7.46967C11.3232 7.76256 11.3232 8.23744 11.0303 8.53033L8.56066 11L11.0303 13.4697C11.3232 13.7626 11.3232 14.2374 11.0303 14.5303C10.7374 14.8232 10.2626 14.8232 9.96967 14.5303L6.96967 11.5303C6.67678 11.2374 6.67678 10.7626 6.96967 10.4697L9.96967 7.46967C10.2626 7.17678 10.7374 7.17678 11.0303 7.46967Z" fill="#101010"/>
</svg>
