<svg width="20" height="20" viewBox="0 0 20 20" fill="none" xmlns="http://www.w3.org/2000/svg">
<path fill-rule="evenodd" clip-rule="evenodd" d="M14.7499 0.47968C15.0428 0.186786 15.5177 0.186786 15.8106 0.47968L19.5306 4.19965C19.8235 4.49254 19.8235 4.96741 19.5306 5.26031L15.8106 8.98034C15.5177 9.27323 15.0428 9.27324 14.7499 8.98035C14.4571 8.68746 14.457 8.21258 14.7499 7.91969L17.9396 4.72998L14.7499 1.54034C14.4571 1.24745 14.4571 0.772573 14.7499 0.47968Z" fill="#101010"/>
<path fill-rule="evenodd" clip-rule="evenodd" d="M0.25 4.72998C0.25 4.31577 0.585786 3.97998 1 3.97998H19C19.4142 3.97998 19.75 4.31577 19.75 4.72998C19.75 5.14419 19.4142 5.47998 19 5.47998H1C0.585786 5.47998 0.25 5.14419 0.25 4.72998Z" fill="#101010"/>
<path fill-rule="evenodd" clip-rule="evenodd" d="M5.2503 11.0197C5.54319 11.3126 5.5432 11.7875 5.25031 12.0804L2.06066 15.2701L5.2503 18.4597C5.54319 18.7526 5.54319 19.2275 5.2503 19.5204C4.95741 19.8133 4.48253 19.8133 4.18964 19.5204L0.46967 15.8004C0.176778 15.5075 0.176776 15.0326 0.469666 14.7398L4.18964 11.0197C4.48253 10.7268 4.9574 10.7268 5.2503 11.0197Z" fill="#101010"/>
<path fill-rule="evenodd" clip-rule="evenodd" d="M0.25 15.27C0.25 14.8558 0.585786 14.52 1 14.52H19C19.4142 14.52 19.75 14.8558 19.75 15.27C19.75 15.6842 19.4142 16.02 19 16.02H1C0.585786 16.02 0.25 15.6842 0.25 15.27Z" fill="#101010"/>
</svg>
