<svg width="14" height="16" viewBox="0 0 14 16" fill="none" xmlns="http://www.w3.org/2000/svg">
<path fill-rule="evenodd" clip-rule="evenodd" d="M2.90872 2.61075C2.27421 2.97704 1.75 3.83607 1.75 5.32996V10.67C1.75 12.1689 2.27432 13.0288 2.91 13.3974C3.54616 13.7663 4.55264 13.7935 5.84668 13.0595L10.4637 10.3812C11.7599 9.63148 12.2425 8.74731 12.2425 8.01496C12.2425 7.28261 11.7607 6.39892 10.4645 5.64919L5.84449 2.96919C5.84439 2.96913 5.84459 2.96925 5.84449 2.96919C4.54918 2.22008 3.54295 2.24462 2.90872 2.61075ZM2.15879 1.31167C3.41701 0.585331 5.02097 0.760027 6.59551 1.67074L11.2155 4.35074C11.2157 4.35085 11.2153 4.35063 11.2155 4.35074C12.7889 5.26099 13.7425 6.56249 13.7425 8.01496C13.7425 9.46736 12.7896 10.7685 11.2163 11.6787M11.2163 11.6787L6.59041 14.3621C5.01586 15.2564 3.41336 15.4233 2.1575 14.695C0.900678 13.9662 0.25 12.4911 0.25 10.67V5.32996C0.25 3.51386 0.900786 2.03789 2.15879 1.31167" fill="#101010"/>
</svg>
