<svg width="22" height="22" viewBox="0 0 22 22" fill="none" xmlns="http://www.w3.org/2000/svg">
<path fill-rule="evenodd" clip-rule="evenodd" d="M11 1.75C5.89137 1.75 1.75 5.89137 1.75 11C1.75 16.1086 5.89137 20.25 11 20.25C16.1086 20.25 20.25 16.1086 20.25 11C20.25 5.89137 16.1086 1.75 11 1.75ZM0.25 11C0.25 5.06294 5.06294 0.25 11 0.25C16.9371 0.25 21.75 5.06294 21.75 11C21.75 16.9371 16.9371 21.75 11 21.75C5.06294 21.75 0.25 16.9371 0.25 11Z" fill="#101010"/>
<path fill-rule="evenodd" clip-rule="evenodd" d="M6.93864 9.21041C7.23112 8.9171 7.706 8.91643 7.9993 9.20891L10.9997 12.2008L14.0001 9.20891C14.2935 8.91643 14.7683 8.9171 15.0608 9.21041C15.3533 9.50372 15.3526 9.97859 15.0593 10.2711L11.5293 13.7911C11.2366 14.083 10.7629 14.083 10.4701 13.7911L6.94015 10.2711C6.64684 9.97859 6.64617 9.50372 6.93864 9.21041Z" fill="#101010"/>
</svg>
