<svg width="22" height="22" viewBox="0 0 22 22" fill="none" xmlns="http://www.w3.org/2000/svg">
<path fill-rule="evenodd" clip-rule="evenodd" d="M10.2351 2.02201L8.64006 3.38628C8.40546 3.58178 8.10777 3.73409 7.82648 3.83764C7.54557 3.94106 7.2151 4.02007 6.89988 4.02007H5.16988C4.5241 4.02007 3.98988 4.55428 3.98988 5.20007V6.89007C3.98988 7.19689 3.91491 7.52269 3.8145 7.80231C3.71421 8.08158 3.56429 8.38232 3.36605 8.62021L3.36163 8.62551L2.014 10.2127C2.01365 10.2131 2.0133 10.2135 2.01296 10.2139C1.66886 10.6247 1.66886 11.3354 2.01295 11.7462C2.0133 11.7466 2.01365 11.7471 2.014 11.7475L3.36 13.3328C3.56486 13.5713 3.7157 13.8774 3.81494 14.1553C3.91529 14.4363 3.98988 14.7641 3.98988 15.0701V16.7801C3.98988 17.4259 4.5241 17.9601 5.16988 17.9601H6.91988C7.23108 17.9601 7.56162 18.0396 7.84149 18.142C8.12191 18.2447 8.42353 18.3968 8.66002 18.5939L8.66712 18.5998L10.2471 19.9499L10.2514 19.9536C10.6449 20.295 11.3598 20.3047 11.7849 19.948C11.7854 19.9475 11.786 19.9471 11.7865 19.9466L13.3697 18.5939C13.6043 18.3984 13.902 18.246 14.1833 18.1425C14.4642 18.0391 14.7947 17.9601 15.1099 17.9601H16.8099C17.4557 17.9601 17.9899 17.4259 17.9899 16.7801V15.0801C17.9899 14.7649 18.0689 14.4344 18.1723 14.1535C18.2759 13.8722 18.4282 13.5745 18.6237 13.3399L18.6296 13.3328L19.9797 11.7529L19.9834 11.7486C20.3248 11.3551 20.3345 10.6401 19.9778 10.215C19.9773 10.2145 19.9769 10.214 19.9764 10.2134L18.6237 8.63024C18.4282 8.39565 18.2759 8.09796 18.1723 7.81667C18.0689 7.53575 17.9899 7.20528 17.9899 6.89007V5.19007C17.9899 4.54428 17.4557 4.01007 16.8099 4.01007H15.1099C14.7955 4.01007 14.4633 3.93142 14.1808 3.82855C13.8984 3.72573 13.5964 3.57347 13.3597 3.37623L13.3526 3.37032L11.7684 2.01658C11.3749 1.67522 10.6601 1.66546 10.2351 2.02201ZM12.749 0.881527C11.7829 0.0454369 10.2409 0.0553744 9.26653 0.876598L7.67693 2.23623C7.61059 2.2906 7.47953 2.36695 7.30828 2.43C7.1342 2.49408 6.98467 2.52007 6.89988 2.52007H5.16988C3.69567 2.52007 2.48988 3.72585 2.48988 5.20007V6.89007C2.48988 6.97325 2.46485 7.12244 2.40277 7.29533C2.34121 7.46675 2.26705 7.59511 2.21535 7.65796L0.868162 9.24465L0.865768 9.24748C0.0512544 10.2165 0.0512544 11.7437 0.865768 12.7127L2.21816 14.3055L2.22183 14.3098C2.26592 14.3609 2.3394 14.4836 2.40233 14.6598C2.46447 14.8338 2.48988 14.986 2.48988 15.0701V16.7801C2.48988 18.2543 3.69567 19.4601 5.16988 19.4601H6.91988C6.99868 19.4601 7.14815 19.4856 7.32578 19.5506C7.50044 19.6145 7.63259 19.6912 7.69711 19.7441L9.26837 21.0866C9.26914 21.0872 9.26991 21.0879 9.27069 21.0886C10.2368 21.9247 11.7789 21.9148 12.7532 21.0935L14.3327 19.744C14.399 19.6896 14.5301 19.6132 14.7015 19.5501C14.8756 19.4861 15.0251 19.4601 15.1099 19.4601H16.8099C18.2841 19.4601 19.4899 18.2543 19.4899 16.7801V15.0801C19.4899 14.9953 19.5159 14.8458 19.58 14.6717C19.643 14.5003 19.7195 14.3692 19.7738 14.3029L21.1164 12.7316C21.117 12.7308 21.1177 12.7301 21.1183 12.7293C21.9545 11.7632 21.9446 10.2211 21.1234 9.24671L19.7738 7.66726C19.7195 7.60097 19.643 7.46985 19.58 7.29847C19.5159 7.12438 19.4899 6.97486 19.4899 6.89007V5.19007C19.4899 3.71585 18.2841 2.51007 16.8099 2.51007H15.1099C15.0243 2.51007 14.8715 2.48372 14.694 2.41909C14.5189 2.35531 14.387 2.27882 14.3227 2.22611L12.749 0.881527Z" fill="#101010"/>
<path fill-rule="evenodd" clip-rule="evenodd" d="M10.9999 8.9077L8.18531 15.2445L6.81445 14.6356L10.3145 6.75562H11.6853L15.1853 14.6356L13.8145 15.2445L10.9999 8.9077Z" fill="#101010"/>
<path fill-rule="evenodd" clip-rule="evenodd" d="M8.5 12.3101C8.5 11.8958 8.83579 11.5601 9.25 11.5601H12.75C13.1642 11.5601 13.5 11.8958 13.5 12.3101C13.5 12.7243 13.1642 13.0601 12.75 13.0601H9.25C8.83579 13.0601 8.5 12.7243 8.5 12.3101Z" fill="#101010"/>
</svg>
