<svg width="20" height="22" viewBox="0 0 20 22" fill="none" xmlns="http://www.w3.org/2000/svg">
<path fill-rule="evenodd" clip-rule="evenodd" d="M7.8084 8.87976C8.0985 8.99092 8.29005 9.26944 8.29005 9.58011V14.9201C8.29005 15.3343 7.95426 15.6701 7.54005 15.6701C7.12583 15.6701 6.79005 15.3343 6.79005 14.9201V11.5375L6.59801 11.7513C6.32122 12.0594 5.84703 12.0848 5.53887 11.8081C5.23072 11.5313 5.20529 11.0571 5.48208 10.7489L6.98208 9.07894C7.18968 8.84781 7.51829 8.7686 7.8084 8.87976Z" fill="#101010"/>
<path fill-rule="evenodd" clip-rule="evenodd" d="M10.4696 0.414842C10.7928 0.673921 10.8448 1.14594 10.5857 1.46913L8.60572 3.9391C8.34664 4.26229 7.87462 4.31426 7.55143 4.05518C7.22824 3.7961 7.17627 3.32408 7.43535 3.00089L9.41536 0.530923C9.67444 0.207734 10.1465 0.155763 10.4696 0.414842Z" fill="#101010"/>
<path fill-rule="evenodd" clip-rule="evenodd" d="M7.84921 2.72981C8.53585 2.56888 9.25378 2.46997 10.0004 2.46997C15.3246 2.46997 19.6404 6.78577 19.6404 12.11C19.6404 17.4342 15.3246 21.75 10.0004 21.75C4.67615 21.75 0.360352 17.4342 0.360352 12.11C0.360352 9.93346 1.11192 7.94793 2.31037 6.34999C2.5589 6.01862 3.029 5.95146 3.36037 6.19999C3.69174 6.44852 3.7589 6.91862 3.51037 7.24999C2.48882 8.61205 1.86035 10.2865 1.86035 12.11C1.86035 16.6058 5.50458 20.25 10.0004 20.25C14.4962 20.25 18.1404 16.6058 18.1404 12.11C18.1404 7.6142 14.4962 3.96997 10.0004 3.96997C9.38695 3.96997 8.78486 4.05116 8.1915 4.19023C7.78821 4.28475 7.38466 4.03445 7.29014 3.63117C7.19562 3.22788 7.44593 2.82433 7.84921 2.72981Z" fill="#101010"/>
<path fill-rule="evenodd" clip-rule="evenodd" d="M12 10.3301C11.3118 10.3301 10.75 10.8867 10.75 11.5801V12.9301C10.75 13.6158 11.3142 14.1801 12 14.1801C12.6858 14.1801 13.25 13.6158 13.25 12.9301V11.5801C13.25 10.8943 12.6858 10.3301 12 10.3301ZM9.25 11.5801C9.25 10.0534 10.4882 8.83008 12 8.83008C13.5142 8.83008 14.75 10.0659 14.75 11.5801V12.9301C14.75 14.4443 13.5142 15.6801 12 15.6801C10.4858 15.6801 9.25 14.4443 9.25 12.9301V11.5801Z" fill="#101010"/>
</svg>
