<svg width="22" height="22" viewBox="0 0 22 22" fill="none" xmlns="http://www.w3.org/2000/svg">
<path fill-rule="evenodd" clip-rule="evenodd" d="M7.5 12.5C7.91421 12.5 8.25 12.8358 8.25 13.25C8.25 14.7558 9.49421 16 11 16C12.5058 16 13.75 14.7558 13.75 13.25C13.75 12.8358 14.0858 12.5 14.5 12.5C14.9142 12.5 15.25 12.8358 15.25 13.25C15.25 15.5842 13.3342 17.5 11 17.5C8.66579 17.5 6.75 15.5842 6.75 13.25C6.75 12.8358 7.08579 12.5 7.5 12.5Z" fill="#101010"/>
<path fill-rule="evenodd" clip-rule="evenodd" d="M8.34003 0.468939C8.63333 0.761428 8.63398 1.2363 8.34149 1.5296L4.72149 5.1596C4.429 5.4529 3.95413 5.45355 3.66083 5.16106C3.36753 4.86857 3.36688 4.3937 3.65937 4.1004L7.27937 0.470402C7.57186 0.177105 8.04673 0.17645 8.34003 0.468939Z" fill="#101010"/>
<path fill-rule="evenodd" clip-rule="evenodd" d="M13.6608 0.468939C13.9541 0.17645 14.429 0.177105 14.7215 0.470402L18.3415 4.1004C18.634 4.3937 18.6333 4.86857 18.34 5.16106C18.0467 5.45355 17.5719 5.4529 17.2794 5.1596L13.6594 1.5296C13.3669 1.2363 13.3675 0.761428 13.6608 0.468939Z" fill="#101010"/>
<path fill-rule="evenodd" clip-rule="evenodd" d="M2.06612 5.77937C1.95982 5.85056 1.75 6.04808 1.75 6.84998C1.75 7.84934 1.98342 7.98352 2.02242 8.00594L2.02325 8.00642C2.08165 8.04008 2.19013 8.07574 2.40918 8.09184C2.5762 8.10411 2.74829 8.10282 2.96204 8.10121C3.04163 8.10062 3.12698 8.09998 3.22 8.09998H18.78C18.873 8.09998 18.9584 8.10062 19.038 8.10121C19.2517 8.10282 19.4238 8.10411 19.5908 8.09184C19.8099 8.07574 19.9183 8.04008 19.9767 8.00642L19.9776 8.00594C20.0166 7.98352 20.25 7.84934 20.25 6.84998C20.25 6.04808 20.0402 5.85056 19.9339 5.77937C19.7469 5.65413 19.418 5.59998 18.78 5.59998H3.22C2.58197 5.59998 2.2531 5.65413 2.06612 5.77937ZM1.23138 4.53309C1.8469 4.12082 2.62803 4.09998 3.22 4.09998H18.78C19.372 4.09998 20.1531 4.12082 20.7686 4.53309C21.4648 4.99939 21.75 5.80187 21.75 6.84998C21.75 7.99329 21.4918 8.86451 20.7257 9.30603C20.3829 9.50362 20.0133 9.56484 19.7007 9.5878C19.4675 9.60494 19.2081 9.60288 18.9768 9.60105C18.9083 9.6005 18.8422 9.59998 18.78 9.59998H3.22C3.15779 9.59998 3.09171 9.6005 3.02316 9.60105C2.79185 9.60288 2.5325 9.60494 2.29925 9.5878C1.98674 9.56484 1.6171 9.50362 1.27425 9.30603C0.508153 8.86451 0.25 7.99329 0.25 6.84998C0.25 5.80187 0.535176 4.99939 1.23138 4.53309Z" fill="#101010"/>
<path fill-rule="evenodd" clip-rule="evenodd" d="M19.6414 8.26344C20.0482 8.34146 20.3147 8.73448 20.2367 9.14128L18.5567 17.9011C18.3799 18.8247 18.1488 19.8485 17.4289 20.6028C16.677 21.3908 15.5392 21.75 13.8901 21.75H7.86011C6.30829 21.75 5.17693 21.3624 4.39894 20.5745C3.64211 19.808 3.33744 18.7765 3.17011 17.7621L1.75991 9.12081C1.69319 8.71201 1.97051 8.32652 2.37932 8.25981C2.78812 8.19309 3.17361 8.47041 3.24032 8.87922L4.65011 17.518C4.65015 17.5182 4.65008 17.5177 4.65011 17.518C4.8028 18.4432 5.04322 19.0921 5.46628 19.5205C5.8683 19.9277 6.55194 20.25 7.86011 20.25H13.8901C15.3511 20.25 15.9983 19.9293 16.3438 19.5672C16.7214 19.1715 16.9004 18.5753 17.0835 17.619L18.7635 8.85875C18.8416 8.45195 19.2346 8.18542 19.6414 8.26344Z" fill="#101010"/>
</svg>
