<svg width="20" height="22" viewBox="0 0 20 22" fill="none" xmlns="http://www.w3.org/2000/svg">
<path fill-rule="evenodd" clip-rule="evenodd" d="M10 10.75C8.20507 10.75 6.75 12.2051 6.75 14C6.75 15.7949 8.20507 17.25 10 17.25C11.7949 17.25 13.25 15.7949 13.25 14C13.25 12.2051 11.7949 10.75 10 10.75ZM5.25 14C5.25 11.3766 7.37665 9.25 10 9.25C12.6234 9.25 14.75 11.3766 14.75 14C14.75 16.6234 12.6234 18.75 10 18.75C7.37665 18.75 5.25 16.6234 5.25 14Z" fill="#101010"/>
<path fill-rule="evenodd" clip-rule="evenodd" d="M12.111 12.5118C12.3917 12.8165 12.3723 13.2909 12.0676 13.5716L10.2965 15.2035C9.79334 15.6921 9.01776 15.639 8.55912 15.1804L7.90912 14.5304C7.61623 14.2375 7.61623 13.7626 7.90912 13.4697C8.20202 13.1768 8.67689 13.1768 8.96978 13.4697L9.4468 13.9467L11.0513 12.4684C11.3559 12.1878 11.8304 12.2072 12.111 12.5118Z" fill="#101010"/>
<path fill-rule="evenodd" clip-rule="evenodd" d="M1.37339 7.81723C2.2588 6.76457 3.77681 6.25 5.99985 6.25H13.9999C16.2229 6.25 17.7409 6.76457 18.6263 7.81723C19.5046 8.8614 19.5868 10.2337 19.4453 11.5125L19.4441 11.523L18.6949 17.5167C18.5843 18.5429 18.3254 19.6669 17.4095 20.5037C16.4983 21.3361 15.0867 21.75 12.9999 21.75H6.99985C4.913 21.75 3.50138 21.3361 2.59024 20.5037C1.67429 19.6669 1.41539 18.5429 1.30484 17.5166L0.554327 11.5125C0.412823 10.2337 0.495117 8.8614 1.37339 7.81723ZM2.04473 11.3423L2.7957 17.3501C2.89555 18.282 3.1024 18.9399 3.60197 19.3963C4.10832 19.8589 5.0667 20.25 6.99985 20.25H12.9999C14.933 20.25 15.8914 19.8589 16.3977 19.3963C16.8973 18.9399 17.1043 18.282 17.2041 17.3501L17.2055 17.337L17.955 11.3422C18.0825 10.1837 17.9494 9.34275 17.4784 8.78277C17.0138 8.23043 16.0468 7.75 13.9999 7.75H5.99985C3.95289 7.75 2.9859 8.23043 2.52131 8.78277C2.05029 9.34277 1.9172 10.1838 2.04473 11.3423Z" fill="#101010"/>
<path fill-rule="evenodd" clip-rule="evenodd" d="M13.75 5.50999C13.75 3.31664 11.8655 1.55984 9.63242 1.77649L9.6297 1.77674C7.80824 1.94675 6.25 3.79243 6.25 5.69999V6.66999C6.25 7.0842 5.91421 7.41999 5.5 7.41999C5.08579 7.41999 4.75 7.0842 4.75 6.66999V5.69999C4.75 3.10798 6.81106 0.534106 9.48894 0.283363C12.6152 -0.019146 15.25 2.44379 15.25 5.50999V6.88999C15.25 7.3042 14.9142 7.63999 14.5 7.63999C14.0858 7.63999 13.75 7.3042 13.75 6.88999V5.50999Z" fill="#101010"/>
</svg>
