<svg width="22" height="20" viewBox="0 0 22 20" fill="none" xmlns="http://www.w3.org/2000/svg">
<path fill-rule="evenodd" clip-rule="evenodd" d="M2.88534 3.2371C2.20538 3.86848 1.75 4.89295 1.75 6.5V13.5C1.75 15.107 2.20538 16.1315 2.88534 16.7629C3.57535 17.4036 4.61497 17.75 6 17.75H16C17.385 17.75 18.4246 17.4036 19.1147 16.7629C19.7946 16.1315 20.25 15.107 20.25 13.5V6.5C20.25 4.89295 19.7946 3.86848 19.1147 3.2371C18.4246 2.59637 17.385 2.25 16 2.25H6C4.61497 2.25 3.57535 2.59637 2.88534 3.2371ZM1.86466 2.1379C2.92465 1.15363 4.38503 0.75 6 0.75H16C17.615 0.75 19.0754 1.15363 20.1353 2.1379C21.2054 3.13152 21.75 4.60705 21.75 6.5V13.5C21.75 15.393 21.2054 16.8685 20.1353 17.8621C19.0754 18.8464 17.615 19.25 16 19.25H6C4.38503 19.25 2.92465 18.8464 1.86466 17.8621C0.794615 16.8685 0.25 15.393 0.25 13.5V6.5C0.25 4.60705 0.794615 3.13152 1.86466 2.1379Z" fill="#101010"/>
<path fill-rule="evenodd" clip-rule="evenodd" d="M5 5.25C5.41421 5.25 5.75 5.58579 5.75 6V14C5.75 14.4142 5.41421 14.75 5 14.75C4.58579 14.75 4.25 14.4142 4.25 14V6C4.25 5.58579 4.58579 5.25 5 5.25Z" fill="#101010"/>
<path fill-rule="evenodd" clip-rule="evenodd" d="M8 5.25C8.41421 5.25 8.75 5.58579 8.75 6V10C8.75 10.4142 8.41421 10.75 8 10.75C7.58579 10.75 7.25 10.4142 7.25 10V6C7.25 5.58579 7.58579 5.25 8 5.25Z" fill="#101010"/>
<path fill-rule="evenodd" clip-rule="evenodd" d="M8 12.25C8.41421 12.25 8.75 12.5858 8.75 13V14C8.75 14.4142 8.41421 14.75 8 14.75C7.58579 14.75 7.25 14.4142 7.25 14V13C7.25 12.5858 7.58579 12.25 8 12.25Z" fill="#101010"/>
<path fill-rule="evenodd" clip-rule="evenodd" d="M14 5.25C14.4142 5.25 14.75 5.58579 14.75 6V7C14.75 7.41421 14.4142 7.75 14 7.75C13.5858 7.75 13.25 7.41421 13.25 7V6C13.25 5.58579 13.5858 5.25 14 5.25Z" fill="#101010"/>
<path fill-rule="evenodd" clip-rule="evenodd" d="M11 5.25C11.4142 5.25 11.75 5.58579 11.75 6V14C11.75 14.4142 11.4142 14.75 11 14.75C10.5858 14.75 10.25 14.4142 10.25 14V6C10.25 5.58579 10.5858 5.25 11 5.25Z" fill="#101010"/>
<path fill-rule="evenodd" clip-rule="evenodd" d="M14 9.25C14.4142 9.25 14.75 9.58579 14.75 10V14C14.75 14.4142 14.4142 14.75 14 14.75C13.5858 14.75 13.25 14.4142 13.25 14V10C13.25 9.58579 13.5858 9.25 14 9.25Z" fill="#101010"/>
<path fill-rule="evenodd" clip-rule="evenodd" d="M17 5.25C17.4142 5.25 17.75 5.58579 17.75 6V14C17.75 14.4142 17.4142 14.75 17 14.75C16.5858 14.75 16.25 14.4142 16.25 14V6C16.25 5.58579 16.5858 5.25 17 5.25Z" fill="#101010"/>
</svg>
