<svg width="22" height="16" viewBox="0 0 22 16" fill="none" xmlns="http://www.w3.org/2000/svg">
<path fill-rule="evenodd" clip-rule="evenodd" d="M18.75 5.5C18.75 5.08579 19.0858 4.75 19.5 4.75C20.2564 4.75 20.9868 4.8574 21.4125 5.425C21.6168 5.69744 21.6895 6.00027 21.7208 6.25072C21.7501 6.48532 21.75 6.74463 21.75 6.9739C21.75 6.98265 21.75 6.99135 21.75 7V9C21.75 9.00865 21.75 9.01735 21.75 9.0261C21.75 9.25537 21.7501 9.51468 21.7208 9.74928C21.6895 9.99973 21.6168 10.3026 21.4125 10.575C20.9868 11.1426 20.2564 11.25 19.5 11.25C19.0858 11.25 18.75 10.9142 18.75 10.5C18.75 10.0858 19.0858 9.75 19.5 9.75C19.8433 9.75 20.0426 9.72019 20.1541 9.68715C20.182 9.67889 20.2008 9.67155 20.2129 9.66608C20.2181 9.64829 20.2257 9.61611 20.2324 9.56322C20.2488 9.43176 20.25 9.26444 20.25 9V7C20.25 6.73556 20.2488 6.56824 20.2324 6.43678C20.2257 6.38389 20.2181 6.35171 20.2129 6.33392C20.2008 6.32845 20.182 6.32111 20.1541 6.31285C20.0426 6.27981 19.8433 6.25 19.5 6.25C19.0858 6.25 18.75 5.91421 18.75 5.5ZM20.2311 6.3439C20.231 6.34394 20.2299 6.34323 20.2279 6.34165C20.2303 6.34307 20.2312 6.34386 20.2311 6.3439ZM20.2311 9.6561C20.2312 9.65614 20.2303 9.65693 20.2279 9.65835C20.2299 9.65677 20.231 9.65606 20.2311 9.6561Z" fill="#101010"/>
<path fill-rule="evenodd" clip-rule="evenodd" d="M5.19685 5.27266C5.59852 5.17147 6.00616 5.41506 6.10734 5.81673C6.46763 7.24699 6.46763 8.75288 6.10734 10.1831C6.00616 10.5848 5.59852 10.8284 5.19685 10.7272C4.79519 10.626 4.5516 10.2184 4.65278 9.81673C4.95249 8.62699 4.95249 7.37288 4.65278 6.18314C4.5516 5.78148 4.79519 5.37384 5.19685 5.27266Z" fill="#101010"/>
<path fill-rule="evenodd" clip-rule="evenodd" d="M8.69685 5.27266C9.09852 5.17147 9.50616 5.41506 9.60734 5.81673C9.96763 7.24699 9.96763 8.75288 9.60734 10.1831C9.50616 10.5848 9.09852 10.8284 8.69685 10.7272C8.29519 10.626 8.0516 10.2184 8.15278 9.81673C8.45249 8.62699 8.45249 7.37288 8.15278 6.18314C8.0516 5.78148 8.29519 5.37384 8.69685 5.27266Z" fill="#101010"/>
<path fill-rule="evenodd" clip-rule="evenodd" d="M12.1969 5.27266C12.5985 5.17147 13.0062 5.41506 13.1073 5.81673C13.4676 7.24699 13.4676 8.75288 13.1073 10.1831C13.0062 10.5848 12.5985 10.8284 12.1969 10.7272C11.7952 10.626 11.5516 10.2184 11.6528 9.81673C11.9525 8.62699 11.9525 7.37288 11.6528 6.18314C11.5516 5.78148 11.7952 5.37384 12.1969 5.27266Z" fill="#101010"/>
<path fill-rule="evenodd" clip-rule="evenodd" d="M2.53033 2.53033C2.01884 3.04182 1.75 3.99464 1.75 6V10C1.75 12.0054 2.01884 12.9582 2.53033 13.4697C3.04182 13.9812 3.99464 14.25 6 14.25H12C14.0054 14.25 14.9582 13.9812 15.4697 13.4697C15.9812 12.9582 16.25 12.0054 16.25 10V6C16.25 3.99464 15.9812 3.04182 15.4697 2.53033C14.9582 2.01884 14.0054 1.75 12 1.75H6C3.99464 1.75 3.04182 2.01884 2.53033 2.53033ZM1.46967 1.46967C2.45818 0.481164 4.00536 0.25 6 0.25H12C13.9946 0.25 15.5418 0.481164 16.5303 1.46967C17.5188 2.45818 17.75 4.00536 17.75 6V10C17.75 11.9946 17.5188 13.5418 16.5303 14.5303C15.5418 15.5188 13.9946 15.75 12 15.75H6C4.00536 15.75 2.45818 15.5188 1.46967 14.5303C0.481164 13.5418 0.25 11.9946 0.25 10V6C0.25 4.00536 0.481164 2.45818 1.46967 1.46967Z" fill="#101010"/>
</svg>
