<svg width="22" height="21" viewBox="0 0 22 21" fill="none" xmlns="http://www.w3.org/2000/svg">
<path fill-rule="evenodd" clip-rule="evenodd" d="M0.25 7.5C0.25 7.08579 0.585786 6.75 1 6.75H12C12.4142 6.75 12.75 7.08579 12.75 7.5C12.75 7.91421 12.4142 8.25 12 8.25H1C0.585786 8.25 0.25 7.91421 0.25 7.5Z" fill="#101010"/>
<path fill-rule="evenodd" clip-rule="evenodd" d="M4.25 15.5C4.25 15.0858 4.58579 14.75 5 14.75H7C7.41421 14.75 7.75 15.0858 7.75 15.5C7.75 15.9142 7.41421 16.25 7 16.25H5C4.58579 16.25 4.25 15.9142 4.25 15.5Z" fill="#101010"/>
<path fill-rule="evenodd" clip-rule="evenodd" d="M8.75 15.5C8.75 15.0858 9.08579 14.75 9.5 14.75H13.5C13.9142 14.75 14.25 15.0858 14.25 15.5C14.25 15.9142 13.9142 16.25 13.5 16.25H9.5C9.08579 16.25 8.75 15.9142 8.75 15.5Z" fill="#101010"/>
<path fill-rule="evenodd" clip-rule="evenodd" d="M2.41607 3.91208C1.99101 4.33236 1.75 5.13119 1.75 6.89001V15.11C1.75 16.8688 1.99101 17.6676 2.41607 18.0879C2.84409 18.5111 3.65901 18.75 5.44 18.75H16.56C18.341 18.75 19.1559 18.5111 19.5839 18.0879C20.009 17.6676 20.25 16.8688 20.25 15.11V10.33C20.25 9.9158 20.5858 9.58002 21 9.58002C21.4142 9.58002 21.75 9.9158 21.75 10.33V15.11C21.75 16.8612 21.546 18.2573 20.6386 19.1546C19.7341 20.0489 18.329 20.25 16.56 20.25H5.44C3.67099 20.25 2.26591 20.0489 1.36143 19.1546C0.453993 18.2573 0.25 16.8612 0.25 15.11V6.89001C0.25 5.13884 0.453993 3.74266 1.36143 2.84544C2.26591 1.95113 3.67099 1.75 5.44 1.75H12.28C12.6942 1.75 13.03 2.08579 13.03 2.5C13.03 2.91421 12.6942 3.25 12.28 3.25H5.44C3.65901 3.25 2.84409 3.48888 2.41607 3.91208Z" fill="#101010"/>
<path fill-rule="evenodd" clip-rule="evenodd" d="M15.25 2.25C15.25 1.83579 15.5858 1.5 16 1.5H19.13C20.2608 1.5 21.13 2.49286 21.13 3.5C21.13 4.60421 20.2342 5.5 19.13 5.5H16C15.5858 5.5 15.25 5.16421 15.25 4.75V2.25ZM16.75 3V4H19.13C19.4058 4 19.63 3.77579 19.63 3.5C19.63 3.26714 19.3792 3 19.13 3H16.75Z" fill="#101010"/>
<path fill-rule="evenodd" clip-rule="evenodd" d="M15.25 4.75C15.25 4.33579 15.5858 4 16 4H19.57C20.6765 4 21.75 4.8044 21.75 6C21.75 7.1956 20.6765 8 19.57 8H16C15.5858 8 15.25 7.66421 15.25 7.25V4.75ZM16.75 5.5V6.5H19.57C20.0435 6.5 20.25 6.1844 20.25 6C20.25 5.8156 20.0435 5.5 19.57 5.5H16.75Z" fill="#101010"/>
<path fill-rule="evenodd" clip-rule="evenodd" d="M17.7598 6.5C18.174 6.5 18.5098 6.83579 18.5098 7.25V8.5C18.5098 8.91421 18.174 9.25 17.7598 9.25C17.3456 9.25 17.0098 8.91421 17.0098 8.5V7.25C17.0098 6.83579 17.3456 6.5 17.7598 6.5Z" fill="#101010"/>
<path fill-rule="evenodd" clip-rule="evenodd" d="M17.7598 0.25C18.174 0.25 18.5098 0.585786 18.5098 1V2.25C18.5098 2.66421 18.174 3 17.7598 3C17.3456 3 17.0098 2.66421 17.0098 2.25V1C17.0098 0.585786 17.3456 0.25 17.7598 0.25Z" fill="#101010"/>
<path fill-rule="evenodd" clip-rule="evenodd" d="M14.25 2.25C14.25 1.83579 14.5858 1.5 15 1.5H17.19C17.6042 1.5 17.94 1.83579 17.94 2.25C17.94 2.66421 17.6042 3 17.19 3H15C14.5858 3 14.25 2.66421 14.25 2.25Z" fill="#101010"/>
<path fill-rule="evenodd" clip-rule="evenodd" d="M14.25 7.25C14.25 6.83579 14.5858 6.5 15 6.5H17.19C17.6042 6.5 17.94 6.83579 17.94 7.25C17.94 7.66421 17.6042 8 17.19 8H15C14.5858 8 14.25 7.66421 14.25 7.25Z" fill="#101010"/>
</svg>
