<svg width="16" height="22" viewBox="0 0 16 22" fill="none" xmlns="http://www.w3.org/2000/svg">
<path fill-rule="evenodd" clip-rule="evenodd" d="M8.4979 0.386429C9.22722 0.0466309 10.0013 0.383669 10.5786 0.862899L10.5799 0.863964L14.4298 4.07384C14.4298 4.07388 14.4297 4.07379 14.4298 4.07384C15.3228 4.81819 15.3364 6.09883 14.4979 6.87153L14.4964 6.8729L9.99378 11L14.4979 15.1285C15.3364 15.9012 15.323 17.1817 14.4299 17.9261C14.4299 17.9261 14.43 17.926 14.4299 17.9261L10.5799 21.136L10.5786 21.1371C10.0013 21.6163 9.22722 21.9534 8.4979 21.6136C7.76651 21.2728 7.52964 20.4616 7.52964 19.71V13.2586L2.14643 18.1929C1.84108 18.4728 1.36665 18.4521 1.08677 18.1468C0.806886 17.8414 0.82753 17.367 1.13288 17.0871L7.52964 11.2239V10.7762L1.13288 4.91288C0.82753 4.63299 0.806886 4.15857 1.08677 3.85322C1.36665 3.54787 1.84108 3.52723 2.14643 3.80711L7.52964 8.74137V2.29002C7.52964 1.53843 7.76651 0.727192 8.4979 0.386429ZM9.02964 12.1511L13.4814 16.2315C13.4812 16.2313 13.4816 16.2317 13.4814 16.2315C13.6622 16.3987 13.6561 16.6184 13.4695 16.7738L9.62064 19.9829C9.62088 19.9827 9.62041 19.9831 9.62064 19.9829C9.42676 20.1437 9.2798 20.2132 9.19154 20.2378C9.16492 20.2453 9.14619 20.2482 9.13403 20.2491C9.12728 20.2395 9.11802 20.2239 9.10728 20.2001C9.07025 20.1178 9.02964 19.9622 9.02964 19.71V12.1511ZM9.02964 9.84896V2.29002C9.02964 2.03777 9.07025 1.88219 9.10728 1.79993C9.11802 1.77607 9.12728 1.76054 9.13403 1.75089C9.14619 1.75186 9.16492 1.75474 9.19154 1.76218C9.27981 1.78685 9.42612 1.85577 9.62005 2.01663C9.61986 2.01647 9.62025 2.01679 9.62005 2.01663L13.4694 5.22605C13.656 5.38154 13.6628 5.60075 13.482 5.76794C13.4822 5.76775 13.4818 5.76813 13.482 5.76794L9.02964 9.84896Z" fill="#101010"/>
</svg>
