<svg width="22" height="22" viewBox="0 0 22 22" fill="none" xmlns="http://www.w3.org/2000/svg">
<path fill-rule="evenodd" clip-rule="evenodd" d="M11.1186 5.00222C11.6993 4.72433 12.2667 5.01776 12.61 5.30383L14.668 7.0222C14.6685 7.02262 14.669 7.02305 14.6696 7.02347C15.3049 7.55076 15.3362 8.48524 14.7137 9.04553L12.5767 11.005L14.7137 12.9644C15.3362 13.5247 15.3049 14.4592 14.6696 14.9865C14.6691 14.9869 14.6685 14.9874 14.668 14.9878L12.6105 16.7057L12.6089 16.7071C12.2656 16.992 11.7036 17.2761 11.1282 17.0068C10.5513 16.7368 10.4099 16.121 10.4099 15.67V12.9918L8.09672 15.1128C7.79142 15.3927 7.31699 15.3722 7.03705 15.0669C6.75712 14.7616 6.77768 14.2871 7.08298 14.0072L10.3572 11.005L7.08298 8.0028C6.77768 7.72286 6.75712 7.24844 7.03705 6.94313C7.31699 6.63783 7.79142 6.61727 8.09672 6.89721L10.4099 9.01816V6.33999C10.4099 5.89704 10.5439 5.27727 11.1186 5.00222ZM11.9099 12.4286L13.5698 13.9507L11.9099 15.3366V12.4286ZM11.9099 9.58133V6.67336L13.5698 8.05932L11.9099 9.58133Z" fill="#101010"/>
<path fill-rule="evenodd" clip-rule="evenodd" d="M11 1.75C5.89137 1.75 1.75 5.89137 1.75 11C1.75 16.1086 5.89137 20.25 11 20.25C16.1086 20.25 20.25 16.1086 20.25 11C20.25 5.89137 16.1086 1.75 11 1.75ZM0.25 11C0.25 5.06294 5.06294 0.25 11 0.25C16.9371 0.25 21.75 5.06294 21.75 11C21.75 16.9371 16.9371 21.75 11 21.75C5.06294 21.75 0.25 16.9371 0.25 11Z" fill="#101010"/>
</svg>
