<svg width="18" height="22" viewBox="0 0 18 22" fill="none" xmlns="http://www.w3.org/2000/svg">
<path fill-rule="evenodd" clip-rule="evenodd" d="M7.93283 0.615593C8.56311 0.127595 9.4399 0.128136 10.0696 0.617216C11.0392 1.36631 12.9679 2.97556 14.6598 5.10464C16.3413 7.22059 17.8656 9.94598 17.8602 12.9114L17.1102 12.91H17.8602C17.8602 12.9105 17.8602 12.9109 17.8602 12.9114C17.8594 17.7856 13.8933 21.75 9.01019 21.75C4.12606 21.75 0.161264 17.7747 0.160156 12.902C0.16016 12.9027 0.160164 12.9034 0.160167 12.9041L0.910156 12.9H0.160156C0.160156 12.9007 0.160156 12.9014 0.160156 12.902M9.14971 1.80201C9.06055 1.73266 8.93982 1.73266 8.85065 1.80201L8.84522 1.80624L8.8452 1.80621C7.91897 2.51308 6.09508 4.01533 4.51288 6.00002C2.92102 7.99682 1.64651 10.3908 1.66015 12.8959L1.66017 12.9C1.66016 16.9464 4.955 20.25 9.01019 20.25C13.0666 20.25 16.3602 16.9552 16.3602 12.91L16.3602 12.9086C16.3647 10.444 15.084 8.04942 13.4855 6.03786C11.898 4.04015 10.0724 2.51477 9.15167 1.80353L9.14971 1.80201Z" fill="#101010"/>
<path fill-rule="evenodd" clip-rule="evenodd" d="M9 0.25C9.41421 0.25 9.75 0.585786 9.75 1V21C9.75 21.4142 9.41421 21.75 9 21.75C8.58579 21.75 8.25 21.4142 8.25 21V1C8.25 0.585786 8.58579 0.25 9 0.25Z" fill="#101010"/>
<path fill-rule="evenodd" clip-rule="evenodd" d="M17.3748 13.8923C17.5558 14.2649 17.4004 14.7136 17.0279 14.8946L9.32785 18.6346C8.95526 18.8156 8.50651 18.6603 8.32554 18.2877C8.14457 17.9151 8.2999 17.4663 8.67249 17.2854L16.3725 13.5454C16.7451 13.3644 17.1938 13.5197 17.3748 13.8923Z" fill="#101010"/>
<path fill-rule="evenodd" clip-rule="evenodd" d="M17.0448 9.05229C17.2258 9.42488 17.0704 9.87363 16.6979 10.0546L9.32787 13.6346C8.95529 13.8156 8.50653 13.6603 8.32555 13.2877C8.14457 12.9151 8.29989 12.4664 8.67247 12.2854L16.0425 8.70537C16.415 8.52439 16.8638 8.67971 17.0448 9.05229Z" fill="#101010"/>
<path fill-rule="evenodd" clip-rule="evenodd" d="M14.7045 5.18158C14.8859 5.55397 14.731 6.00289 14.3586 6.18427L9.32859 8.63426C8.9562 8.81565 8.50728 8.6608 8.3259 8.28841C8.14452 7.91602 8.29936 7.4671 8.67175 7.28572L13.7018 4.83573C14.0742 4.65435 14.5231 4.80919 14.7045 5.18158Z" fill="#101010"/>
</svg>
