<svg width="22" height="22" viewBox="0 0 22 22" fill="none" xmlns="http://www.w3.org/2000/svg">
<path fill-rule="evenodd" clip-rule="evenodd" d="M0.25 3.66001C0.25 2.03446 1.59168 0.786209 3.22166 0.922546C5.44026 1.10243 8.73026 2.19902 10.6113 3.37013L10.865 3.52238C10.8676 3.52358 10.8782 3.52843 10.8985 3.5335C10.9257 3.54029 10.9609 3.54501 11 3.54501C11.0391 3.54501 11.0743 3.54029 11.1015 3.5335C11.1208 3.5287 11.1313 3.52409 11.1345 3.5226L11.3005 3.41516C13.1818 2.23144 16.4869 1.12296 18.7059 0.932747C18.7273 0.930921 18.7486 0.930007 18.77 0.930007H18.8008C20.4092 0.813272 21.75 2.03821 21.75 3.67001V15.74C21.75 17.0724 20.6941 18.2966 19.353 18.4642L19.3503 18.4646L19.0246 18.504C16.9391 18.7824 13.6756 19.8603 11.8374 20.8739C11.5663 21.0281 11.2587 21.0825 10.9938 21.0825C10.7305 21.0825 10.4301 21.0288 10.1626 20.8849L10.1346 20.8708C10.1264 20.8667 10.1182 20.8625 10.1101 20.858C8.27067 19.8521 5.00894 18.7811 2.93065 18.5034L2.92752 18.503L2.64189 18.4636C1.30319 18.2935 0.25 17.0707 0.25 15.74V3.66001ZM3.0972 2.41737C2.34769 2.35439 1.75 2.90593 1.75 3.66001V15.74C1.75 16.3276 2.25414 16.9034 2.83303 16.9758L2.84249 16.977L3.12935 17.0166C3.12989 17.0167 3.13042 17.0168 3.13096 17.0168C5.38806 17.3188 8.81571 18.4436 10.8175 19.5352L10.8454 19.5492C10.8547 19.5538 10.8639 19.5587 10.8731 19.5637C10.8731 19.5637 10.8827 19.5683 10.9039 19.5731C10.9284 19.5787 10.9596 19.5825 10.9938 19.5825C11.028 19.5825 11.0576 19.5787 11.0793 19.5737C11.0906 19.5711 11.0971 19.5687 11.0997 19.5678L11.1074 19.5633C13.1088 18.4584 16.5582 17.3189 18.8311 17.0166L18.8397 17.0154L19.167 16.9758C19.1674 16.9757 19.1677 16.9757 19.1681 16.9757C19.7465 16.9027 20.25 16.3272 20.25 15.74V3.67001C20.25 2.91317 19.6495 2.36378 18.8928 2.42737C18.8719 2.42913 18.851 2.43001 18.83 2.43001H18.8028C16.8225 2.60773 13.7741 3.63245 12.1033 4.68233L11.9256 4.79735C11.6339 4.97839 11.2953 5.04501 11 5.04501C10.7066 5.04501 10.3705 4.97914 10.0801 4.80073L9.82309 4.6465C8.14349 3.59911 5.07868 2.57778 3.09948 2.41756L3.0972 2.41737Z" fill="#101010"/>
<path fill-rule="evenodd" clip-rule="evenodd" d="M11 3.73999C11.4142 3.73999 11.75 4.07578 11.75 4.48999V19.49C11.75 19.9042 11.4142 20.24 11 20.24C10.5858 20.24 10.25 19.9042 10.25 19.49V4.48999C10.25 4.07578 10.5858 3.73999 11 3.73999Z" fill="#101010"/>
<path fill-rule="evenodd" clip-rule="evenodd" d="M3.75 7.48999C3.75 7.07578 4.08579 6.73999 4.5 6.73999H6.75C7.16421 6.73999 7.5 7.07578 7.5 7.48999C7.5 7.9042 7.16421 8.23999 6.75 8.23999H4.5C4.08579 8.23999 3.75 7.9042 3.75 7.48999Z" fill="#101010"/>
<path fill-rule="evenodd" clip-rule="evenodd" d="M3.75 10.49C3.75 10.0758 4.08579 9.73999 4.5 9.73999H7.5C7.91421 9.73999 8.25 10.0758 8.25 10.49C8.25 10.9042 7.91421 11.24 7.5 11.24H4.5C4.08579 11.24 3.75 10.9042 3.75 10.49Z" fill="#101010"/>
</svg>
