<svg width="20" height="22" viewBox="0 0 20 22" fill="none" xmlns="http://www.w3.org/2000/svg">
<path fill-rule="evenodd" clip-rule="evenodd" d="M3.03033 2.53033C2.51884 3.04182 2.25 3.99464 2.25 6V17C2.25 17.4142 1.91421 17.75 1.5 17.75C1.08579 17.75 0.75 17.4142 0.75 17V6C0.75 4.00536 0.981164 2.45818 1.96967 1.46967C2.95818 0.481164 4.50536 0.25 6.5 0.25H13.5C15.4946 0.25 17.0418 0.481164 18.0303 1.46967C19.0188 2.45818 19.25 4.00536 19.25 6V16.01C19.25 16.1437 19.25 16.3065 19.2381 16.4734C19.2086 16.8866 18.8497 17.1976 18.4366 17.1681C18.0234 17.1386 17.7124 16.7797 17.7419 16.3666C17.7497 16.2577 17.75 16.1444 17.75 16V6C17.75 3.99464 17.4812 3.04182 16.9697 2.53033C16.4582 2.01884 15.5054 1.75 13.5 1.75H6.5C4.49464 1.75 3.54182 2.01884 3.03033 2.53033Z" fill="#101010"/>
<path fill-rule="evenodd" clip-rule="evenodd" d="M4.35 14.75C3.19421 14.75 2.25 15.6942 2.25 16.85V17.5C2.25 19.0158 3.48421 20.25 5 20.25H15C16.5158 20.25 17.75 19.0158 17.75 17.5V14.75H4.35ZM0.75 16.85C0.75 14.8658 2.36579 13.25 4.35 13.25H18.5C18.9142 13.25 19.25 13.5858 19.25 14V17.5C19.25 19.8442 17.3442 21.75 15 21.75H5C2.65579 21.75 0.75 19.8442 0.75 17.5V16.85Z" fill="#101010"/>
<path fill-rule="evenodd" clip-rule="evenodd" d="M5.25 6C5.25 5.58579 5.58579 5.25 6 5.25H14C14.4142 5.25 14.75 5.58579 14.75 6C14.75 6.41421 14.4142 6.75 14 6.75H6C5.58579 6.75 5.25 6.41421 5.25 6Z" fill="#101010"/>
<path fill-rule="evenodd" clip-rule="evenodd" d="M5.25 9.5C5.25 9.08579 5.58579 8.75 6 8.75H11C11.4142 8.75 11.75 9.08579 11.75 9.5C11.75 9.91421 11.4142 10.25 11 10.25H6C5.58579 10.25 5.25 9.91421 5.25 9.5Z" fill="#101010"/>
</svg>
