<svg width="22" height="22" viewBox="0 0 22 22" fill="none" xmlns="http://www.w3.org/2000/svg">
<path fill-rule="evenodd" clip-rule="evenodd" d="M2.09467 2.09467C3.42914 0.760201 5.42603 0.25 8 0.25H14C16.574 0.25 18.5709 0.760201 19.9053 2.09467C21.2398 3.42914 21.75 5.42603 21.75 8V14C21.75 16.574 21.2398 18.5709 19.9053 19.9053C18.5709 21.2398 16.574 21.75 14 21.75H8C5.42603 21.75 3.42914 21.2398 2.09467 19.9053C0.760201 18.5709 0.25 16.574 0.25 14V8C0.25 5.42603 0.760201 3.42914 2.09467 2.09467ZM3.15533 3.15533C2.2398 4.07086 1.75 5.57397 1.75 8V14C1.75 16.426 2.2398 17.9291 3.15533 18.8447C4.07086 19.7602 5.57397 20.25 8 20.25H14C16.426 20.25 17.9291 19.7602 18.8447 18.8447C19.7602 17.9291 20.25 16.426 20.25 14V8C20.25 5.57397 19.7602 4.07086 18.8447 3.15533C17.9291 2.2398 16.426 1.75 14 1.75H8C5.57397 1.75 4.07086 2.2398 3.15533 3.15533Z" fill="#101010"/>
<path fill-rule="evenodd" clip-rule="evenodd" d="M6 0.689941C6.41421 0.689941 6.75 1.02573 6.75 1.43994V11.4199C6.75 12.2429 7.03714 12.605 7.27795 12.7352C7.52825 12.8705 8.01889 12.9144 8.75584 12.4758C8.756 12.4757 8.75569 12.4759 8.75584 12.4758L10.0741 11.6868C10.0742 11.6868 10.0741 11.6869 10.0741 11.6868C10.3659 11.5118 10.702 11.4449 11 11.4449C11.298 11.4449 11.6339 11.5117 11.9257 11.6867C11.9258 11.6868 11.9257 11.6867 11.9257 11.6867L13.2464 12.4771C13.9827 12.9197 14.4718 12.8748 14.7209 12.7396C14.9624 12.6084 15.25 12.2434 15.25 11.4199V1.43994C15.25 1.02573 15.5858 0.689941 16 0.689941C16.4142 0.689941 16.75 1.02573 16.75 1.43994V11.4199C16.75 12.5665 16.3326 13.5714 15.4366 14.0578C14.5483 14.54 13.4678 14.3602 12.4742 13.7631C12.474 13.763 12.4744 13.7632 12.4742 13.7631L11.1548 12.9735C11.155 12.9736 11.1507 12.971 11.1426 12.9678C11.1345 12.9646 11.1231 12.9608 11.1085 12.9572C11.0784 12.9498 11.041 12.9449 11 12.9449C10.959 12.9449 10.9216 12.9498 10.8915 12.9572C10.8769 12.9608 10.8655 12.9646 10.8574 12.9678C10.8493 12.971 10.8457 12.9731 10.8459 12.9731L9.52368 13.7644C8.53089 14.3555 7.45169 14.5343 6.56455 14.0547C5.66786 13.5699 5.25 12.567 5.25 11.4199V1.43994C5.25 1.02573 5.58579 0.689941 6 0.689941Z" fill="#101010"/>
<path fill-rule="evenodd" clip-rule="evenodd" d="M2.09467 2.09467C3.42914 0.760201 5.42603 0.25 8 0.25H14C16.574 0.25 18.5709 0.760201 19.9053 2.09467C21.2398 3.42914 21.75 5.42603 21.75 8V14C21.75 16.574 21.2398 18.5709 19.9053 19.9053C18.5709 21.2398 16.574 21.75 14 21.75H8C5.42603 21.75 3.42914 21.2398 2.09467 19.9053C0.760201 18.5709 0.25 16.574 0.25 14V8C0.25 5.42603 0.760201 3.42914 2.09467 2.09467ZM3.15533 3.15533C2.2398 4.07086 1.75 5.57397 1.75 8V14C1.75 16.426 2.2398 17.9291 3.15533 18.8447C4.07086 19.7602 5.57397 20.25 8 20.25H14C16.426 20.25 17.9291 19.7602 18.8447 18.8447C19.7602 17.9291 20.25 16.426 20.25 14V8C20.25 5.57397 19.7602 4.07086 18.8447 3.15533C17.9291 2.2398 16.426 1.75 14 1.75H8C5.57397 1.75 4.07086 2.2398 3.15533 3.15533Z" fill="#101010"/>
<path fill-rule="evenodd" clip-rule="evenodd" d="M6 0.689941C6.41421 0.689941 6.75 1.02573 6.75 1.43994V11.4199C6.75 12.2429 7.03714 12.605 7.27795 12.7352C7.52825 12.8705 8.01889 12.9144 8.75584 12.4758C8.756 12.4757 8.75569 12.4759 8.75584 12.4758L10.0741 11.6868C10.0742 11.6868 10.0741 11.6869 10.0741 11.6868C10.3659 11.5118 10.702 11.4449 11 11.4449C11.298 11.4449 11.6339 11.5117 11.9257 11.6867C11.9258 11.6868 11.9257 11.6867 11.9257 11.6867L13.2464 12.4771C13.9827 12.9197 14.4718 12.8748 14.7209 12.7396C14.9624 12.6084 15.25 12.2434 15.25 11.4199V1.43994C15.25 1.02573 15.5858 0.689941 16 0.689941C16.4142 0.689941 16.75 1.02573 16.75 1.43994V11.4199C16.75 12.5665 16.3326 13.5714 15.4366 14.0578C14.5483 14.54 13.4678 14.3602 12.4742 13.7631C12.474 13.763 12.4744 13.7632 12.4742 13.7631L11.1548 12.9735C11.155 12.9736 11.1507 12.971 11.1426 12.9678C11.1345 12.9646 11.1231 12.9608 11.1085 12.9572C11.0784 12.9498 11.041 12.9449 11 12.9449C10.959 12.9449 10.9216 12.9498 10.8915 12.9572C10.8769 12.9608 10.8655 12.9646 10.8574 12.9678C10.8493 12.971 10.8457 12.9731 10.8459 12.9731L9.52368 13.7644C8.53089 14.3555 7.45169 14.5343 6.56455 14.0547C5.66786 13.5699 5.25 12.567 5.25 11.4199V1.43994C5.25 1.02573 5.58579 0.689941 6 0.689941Z" fill="#101010"/>
</svg>
