<svg width="23" height="22" viewBox="0 0 23 22" fill="none" xmlns="http://www.w3.org/2000/svg">
<path fill-rule="evenodd" clip-rule="evenodd" d="M21.2504 16.9269C21.2097 15.1308 19.7228 13.7091 17.9271 13.7498L17.9261 13.7498C17.1667 13.7659 16.4673 14.048 15.9086 14.5075C15.1784 15.1169 14.7256 16.0407 14.75 17.0621L14.7501 17.07L14.7501 17.07C14.7582 17.6732 14.9434 18.2468 15.2507 18.7238L15.2583 18.736C15.8316 19.6645 16.8745 20.2733 18.0613 20.2502C18.8864 20.2249 19.6224 19.9074 20.1801 19.3901L20.1884 19.3824L20.1885 19.3825C20.4314 19.1638 20.6477 18.898 20.8045 18.6157L20.8143 18.5987C21.1064 18.1038 21.2665 17.532 21.2504 16.9299L21.2504 16.9269L21.2504 16.9269ZM22.7499 16.8914C22.6898 14.2685 20.5173 12.191 17.8937 12.2501C16.7742 12.2741 15.7543 12.6914 14.9534 13.351L14.9534 13.351L14.95 13.3538C13.8822 14.2436 13.2159 15.5977 13.2503 17.0939C13.263 17.9867 13.536 18.8293 13.9858 19.53C14.8327 20.8972 16.3664 21.7853 18.0956 21.7498L18.0956 21.7498L18.1024 21.7496C19.294 21.7142 20.3751 21.2533 21.1961 20.4937C21.5492 20.1751 21.8694 19.7853 22.111 19.3528C22.5356 18.63 22.7735 17.7854 22.7499 16.8914Z" fill="#101010"/>
<path fill-rule="evenodd" clip-rule="evenodd" d="M20.0797 15.4487C20.3676 15.7466 20.3595 16.2214 20.0617 16.5093L17.9717 18.5293C17.6827 18.8085 17.225 18.8105 16.9338 18.5336L15.9237 17.5737C15.6235 17.2883 15.6114 16.8136 15.8968 16.5133C16.1822 16.2131 16.6569 16.201 16.9571 16.4864L17.4461 16.9511L19.0192 15.4307C19.317 15.1428 19.7919 15.1509 20.0797 15.4487Z" fill="#101010"/>
<path fill-rule="evenodd" clip-rule="evenodd" d="M1.52189 6.06428C1.72936 5.70577 2.18818 5.58334 2.54668 5.79081L11.0008 10.6833L19.3951 5.82093C19.7535 5.61331 20.2124 5.73556 20.42 6.09399C20.6276 6.45241 20.5053 6.91128 20.1469 7.1189L11.3769 12.1989C11.1445 12.3335 10.8578 12.3336 10.6253 12.1991L1.79536 7.08908C1.43685 6.88161 1.31441 6.42279 1.52189 6.06428Z" fill="#101010"/>
<path fill-rule="evenodd" clip-rule="evenodd" d="M11.001 10.7899C11.4152 10.7899 11.751 11.1257 11.751 11.5399V20.6099C11.751 21.0241 11.4152 21.3599 11.001 21.3599C10.5868 21.3599 10.251 21.0241 10.251 20.6099V11.5399C10.251 11.1257 10.5868 10.7899 11.001 10.7899Z" fill="#101010"/>
<path fill-rule="evenodd" clip-rule="evenodd" d="M11.0006 1.75C10.3434 1.75 9.72807 1.89241 9.29775 2.13399L9.29422 2.13597L3.95422 5.09599C3.49425 5.35067 3.03195 5.82777 2.68292 6.4197C2.33385 7.0117 2.14062 7.64606 2.14062 8.17V13.83C2.14062 14.354 2.33385 14.9883 2.68292 15.5803C3.03195 16.1723 3.49396 16.6492 3.95392 16.9039L9.29776 19.866C9.72807 20.1076 10.3434 20.25 11.0006 20.25C11.6578 20.25 12.2731 20.1076 12.7035 19.8661L12.7082 19.8634L13.8228 19.2483C13.4554 18.5773 13.2506 17.807 13.2506 17C13.2506 15.5059 13.9392 14.1621 15.0334 13.2933C15.8493 12.6431 16.8823 12.25 18.0006 12.25C18.6631 12.25 19.2906 12.3838 19.8606 12.6284V8.17C19.8606 7.64606 19.6674 7.0117 19.3183 6.4197C18.9693 5.82777 18.5073 5.35084 18.0473 5.09615L12.7035 2.134C12.2731 1.89242 11.6578 1.75 11.0006 1.75ZM13.4359 0.824978C12.7266 0.427287 11.8427 0.25 11.0006 0.25C10.1585 0.25 9.27466 0.427287 8.56529 0.824978L3.2273 3.78389C2.47738 4.19922 1.83921 4.89736 1.39081 5.65782C0.942393 6.41831 0.640625 7.31395 0.640625 8.17V13.83C0.640625 14.6861 0.942393 15.5817 1.39081 16.3422C1.83921 17.1027 2.47709 17.8007 3.227 18.216C3.2269 18.2159 3.2271 18.216 3.227 18.216L8.56345 21.174C8.56405 21.1744 8.56466 21.1747 8.56526 21.175C9.27464 21.5727 10.1585 21.75 11.0006 21.75C11.8424 21.75 12.7261 21.5728 13.4354 21.1754C13.4362 21.1749 13.437 21.1745 13.4378 21.174L15.263 20.1667C15.4605 20.0576 15.5985 19.8655 15.6386 19.6435C15.6788 19.4215 15.6169 19.1932 15.47 19.0219C15.3742 18.9101 15.295 18.8002 15.2343 18.6923C15.2294 18.6836 15.2242 18.6749 15.219 18.6663C14.9211 18.1833 14.7506 17.6094 14.7506 17C14.7506 15.9746 15.2216 15.0588 15.9668 14.4675L15.9681 14.4665C16.5322 14.0169 17.2391 13.75 18.0006 13.75C18.8144 13.75 19.5406 14.0411 20.1079 14.5354C20.3095 14.7111 20.5893 14.7661 20.8424 14.6799C21.0955 14.5937 21.2836 14.3793 21.3361 14.1171C21.3609 13.9927 21.3607 13.8886 21.3606 13.8385C21.3606 13.8355 21.3606 13.8326 21.3606 13.83V8.17C21.3606 7.31395 21.0588 6.41831 20.6104 5.65782C20.162 4.89736 19.5241 4.19939 18.7742 3.78406C18.7743 3.78411 18.7741 3.784 18.7742 3.78406L13.4378 0.826012C13.4372 0.825667 13.4365 0.825323 13.4359 0.824978Z" fill="#101010"/>
</svg>
