<svg width="22" height="22" viewBox="0 0 22 22" fill="none" xmlns="http://www.w3.org/2000/svg">
<path fill-rule="evenodd" clip-rule="evenodd" d="M1.37333 5.81723C2.25874 4.76457 3.77675 4.25 5.99979 4.25H15.9998C18.2228 4.25 19.7408 4.76457 20.6262 5.81723C21.5031 6.85966 21.5865 8.22916 21.4459 9.50612L20.6956 17.5099C20.5854 18.538 20.3273 19.6651 19.4094 20.5037C18.4983 21.3361 17.0866 21.75 14.9998 21.75H6.99979C4.91294 21.75 3.50132 21.3361 2.59017 20.5037C1.67224 19.6651 1.41421 18.538 1.30406 17.5099L1.303 17.5L0.553637 9.50614C0.413108 8.22917 0.496507 6.85967 1.37333 5.81723ZM2.52125 6.78277C2.04952 7.3436 1.91674 8.18629 2.04524 9.34751L2.04662 9.35998L2.79604 17.3549C2.89609 18.2843 3.1032 18.9407 3.6019 19.3963C4.10826 19.8589 5.06664 20.25 6.99979 20.25H14.9998C16.9329 20.25 17.8913 19.8589 18.3977 19.3963C18.8964 18.9407 19.1035 18.2843 19.2035 17.3549L19.9542 9.3475C20.0827 8.18628 19.9501 7.3436 19.4783 6.78277C19.0137 6.23043 18.0467 5.75 15.9998 5.75H5.99979C3.95282 5.75 2.98584 6.23043 2.52125 6.78277Z" fill="#101010"/>
<path fill-rule="evenodd" clip-rule="evenodd" d="M7.79369 3.05038C7.75121 3.37577 7.75 3.74554 7.75 4.2V5C7.75 5.41421 7.41422 5.75 7 5.75C6.58579 5.75 6.25 5.41421 6.25 5L6.25 4.17401C6.24998 3.75048 6.24995 3.28789 6.30631 2.85619C6.36471 2.40889 6.48985 1.93401 6.78302 1.50983C7.39976 0.617491 8.52951 0.25 10.2 0.25H11.8C13.4705 0.25 14.6002 0.617491 15.217 1.50983C15.5102 1.93401 15.6353 2.40889 15.6937 2.85619C15.7501 3.28789 15.75 3.75049 15.75 4.17402L15.75 5C15.75 5.41421 15.4142 5.75 15 5.75C14.5858 5.75 14.25 5.41421 14.25 5V4.2C14.25 3.74554 14.2488 3.37577 14.2063 3.05038C14.1647 2.73174 14.0899 2.51724 13.983 2.36267C13.7998 2.09751 13.3295 1.75 11.8 1.75H10.2C8.67049 1.75 8.20025 2.09751 8.01698 2.36267C7.91015 2.51724 7.83529 2.73174 7.79369 3.05038Z" fill="#101010"/>
<path fill-rule="evenodd" clip-rule="evenodd" d="M9.75081 11.7508C9.75003 11.8222 9.75001 11.9036 9.75001 12V13.03C9.75001 13.3115 9.75247 13.5186 9.77691 13.6943C9.80042 13.8632 9.83776 13.9454 9.8694 13.9901C9.90469 14.0399 10.0806 14.25 11 14.25C11.9236 14.25 12.0974 14.0378 12.1319 13.9885C12.1638 13.9431 12.201 13.8596 12.2241 13.6887C12.2482 13.511 12.25 13.3029 12.25 13.02V12C12.25 11.9036 12.25 11.8222 12.2492 11.7508C12.1778 11.75 12.0965 11.75 12 11.75H10C9.90356 11.75 9.82219 11.75 9.75081 11.7508ZM9.96716 10.25C9.97812 10.25 9.98907 10.25 10 10.25H12C12.0109 10.25 12.0219 10.25 12.0329 10.25C12.254 10.25 12.4781 10.2499 12.661 10.2702C12.8474 10.2909 13.157 10.3463 13.4053 10.5947C13.6537 10.843 13.7091 11.1527 13.7298 11.3391C13.7501 11.5219 13.7501 11.746 13.75 11.9672C13.75 11.9781 13.75 11.9891 13.75 12V13.0312C13.75 13.291 13.75 13.5983 13.7106 13.8898C13.6696 14.1923 13.58 14.5357 13.3606 14.849C12.8926 15.5172 12.0664 15.75 11 15.75C9.93944 15.75 9.11533 15.5202 8.64562 14.8575C8.42476 14.5458 8.33335 14.2037 8.29123 13.901C8.25005 13.6052 8.25001 13.2935 8.25001 13.03V12C8.25001 11.9891 8.25001 11.9781 8.25 11.9672C8.24995 11.746 8.2499 11.5219 8.27022 11.3391C8.29093 11.1527 8.34631 10.843 8.59468 10.5947C8.84305 10.3463 9.15267 10.2909 9.33906 10.2702C9.52192 10.2499 9.74602 10.25 9.96716 10.25Z" fill="#101010"/>
<path fill-rule="evenodd" clip-rule="evenodd" d="M21.2566 9.55892C21.5003 9.89391 21.4262 10.363 21.0912 10.6066C18.6751 12.3638 15.9146 13.409 13.0938 13.7642C12.6828 13.8159 12.3077 13.5247 12.256 13.1138C12.2042 12.7028 12.4954 12.3277 12.9064 12.2759C15.4856 11.9511 18.0051 10.9963 20.209 9.3935C20.5439 9.14987 21.013 9.22393 21.2566 9.55892Z" fill="#101010"/>
<path fill-rule="evenodd" clip-rule="evenodd" d="M1.00128 9.84636C1.23523 9.50454 1.70198 9.4171 2.0438 9.65106C4.19269 11.1219 6.61593 12.0083 9.08364 12.2846C9.49529 12.3307 9.79162 12.7018 9.74553 13.1134C9.69944 13.5251 9.32837 13.8214 8.91673 13.7753C6.20444 13.4716 3.54768 12.4981 1.19658 10.8889C0.854761 10.6549 0.767321 10.1882 1.00128 9.84636Z" fill="#101010"/>
</svg>
