<svg width="22" height="22" viewBox="0 0 22 22" fill="none" xmlns="http://www.w3.org/2000/svg">
<path fill-rule="evenodd" clip-rule="evenodd" d="M11 9.94995C9.20507 9.94995 7.75 11.405 7.75 13.2C7.75 14.9949 9.20507 16.45 11 16.45C12.7949 16.45 14.25 14.9949 14.25 13.2C14.25 11.405 12.7949 9.94995 11 9.94995ZM6.25 13.2C6.25 10.5766 8.37665 8.44995 11 8.44995C13.6234 8.44995 15.75 10.5766 15.75 13.2C15.75 15.8233 13.6234 17.95 11 17.95C8.37665 17.95 6.25 15.8233 6.25 13.2Z" fill="#101010"/>
<path fill-rule="evenodd" clip-rule="evenodd" d="M11.2501 11.2C11.6643 11.2 12.0001 11.5357 12.0001 11.95V12.88C12.0001 13.4836 11.6899 14.0641 11.1434 14.3846L10.3885 14.8416C10.0341 15.0561 9.57297 14.9427 9.35849 14.5883C9.144 14.2339 9.2574 13.7728 9.61176 13.5583L10.3834 13.0913C10.4528 13.051 10.5001 12.9738 10.5001 12.88V11.95C10.5001 11.5357 10.8359 11.2 11.2501 11.2Z" fill="#101010"/>
<path fill-rule="evenodd" clip-rule="evenodd" d="M1.37333 5.81723C2.25874 4.76457 3.77675 4.25 5.99979 4.25H15.9998C18.2228 4.25 19.7408 4.76457 20.6262 5.81723C21.5031 6.85966 21.5865 8.22916 21.4459 9.50612L20.6956 17.5099C20.5854 18.538 20.3273 19.6651 19.4094 20.5037C18.4983 21.3361 17.0866 21.75 14.9998 21.75H6.99979C4.91294 21.75 3.50132 21.3361 2.59017 20.5037C1.67224 19.6651 1.41421 18.538 1.30406 17.5099L1.303 17.5L0.553637 9.50614C0.413108 8.22917 0.496507 6.85967 1.37333 5.81723ZM2.52125 6.78277C2.04952 7.3436 1.91674 8.18629 2.04524 9.34751L2.04662 9.35998L2.79604 17.3549C2.89609 18.2843 3.1032 18.9407 3.6019 19.3963C4.10826 19.8589 5.06664 20.25 6.99979 20.25H14.9998C16.9329 20.25 17.8913 19.8589 18.3977 19.3963C18.8964 18.9407 19.1035 18.2843 19.2035 17.3549L19.9542 9.3475C20.0827 8.18628 19.9501 7.3436 19.4783 6.78277C19.0137 6.23043 18.0467 5.75 15.9998 5.75H5.99979C3.95282 5.75 2.98584 6.23043 2.52125 6.78277Z" fill="#101010"/>
<path fill-rule="evenodd" clip-rule="evenodd" d="M7.79369 3.05038C7.75121 3.37577 7.75 3.74554 7.75 4.2V5C7.75 5.41421 7.41422 5.75 7 5.75C6.58579 5.75 6.25 5.41421 6.25 5L6.25 4.17401C6.24998 3.75048 6.24995 3.28789 6.30631 2.85619C6.36471 2.40889 6.48985 1.93401 6.78302 1.50983C7.39976 0.617491 8.52951 0.25 10.2 0.25H11.8C13.4705 0.25 14.6002 0.617491 15.217 1.50983C15.5102 1.93401 15.6353 2.40889 15.6937 2.85619C15.7501 3.28789 15.75 3.75049 15.75 4.17402L15.75 5C15.75 5.41421 15.4142 5.75 15 5.75C14.5858 5.75 14.25 5.41421 14.25 5V4.2C14.25 3.74554 14.2488 3.37577 14.2063 3.05038C14.1647 2.73174 14.0899 2.51724 13.983 2.36267C13.7998 2.09751 13.3295 1.75 11.8 1.75H10.2C8.67049 1.75 8.20025 2.09751 8.01698 2.36267C7.91015 2.51724 7.83529 2.73174 7.79369 3.05038Z" fill="#101010"/>
<path fill-rule="evenodd" clip-rule="evenodd" d="M21.2562 9.55851C21.5001 9.89333 21.4263 10.3624 21.0915 10.6063C19.2821 11.9241 17.2739 12.8445 15.1927 13.3674C14.791 13.4684 14.3835 13.2245 14.2826 12.8228C14.1816 12.4211 14.4255 12.0136 14.8272 11.9127C16.726 11.4356 18.5578 10.596 20.2084 9.3938C20.5432 9.14994 21.0123 9.22369 21.2562 9.55851Z" fill="#101010"/>
<path fill-rule="evenodd" clip-rule="evenodd" d="M1.00075 9.84712C1.23429 9.50502 1.70093 9.417 2.04304 9.65053C3.63987 10.7406 5.37695 11.513 7.17755 11.9512C7.58002 12.0492 7.82687 12.4549 7.72892 12.8573C7.63096 13.2598 7.22529 13.5067 6.82283 13.4087C4.84343 12.9269 2.94051 12.0793 1.19734 10.8894C0.855237 10.6559 0.767222 10.1892 1.00075 9.84712Z" fill="#101010"/>
</svg>
