<svg width="19" height="22" viewBox="0 0 19 22" fill="none" xmlns="http://www.w3.org/2000/svg">
<path fill-rule="evenodd" clip-rule="evenodd" d="M4.66854 2.49888C4.31465 1.91527 3.53675 1.72476 2.94873 2.08133C2.36531 2.4351 2.17473 3.21259 2.53078 3.80053C2.53091 3.80074 2.53066 3.80033 2.53078 3.80053L3.70036 5.71984L5.83878 4.41927L4.66854 2.49888ZM5.95061 1.72024C5.16426 0.424553 3.46265 0.0154662 2.17097 0.798718C0.87459 1.58482 0.465106 3.28692 1.24854 4.5789L2.80939 7.1403C3.0248 7.4938 3.48589 7.60592 3.83957 7.39081L7.25957 5.3108C7.42961 5.20738 7.55158 5.04061 7.59861 4.84722C7.64563 4.65383 7.61387 4.44968 7.5103 4.27973L5.95115 1.72113C5.95097 1.72083 5.95079 1.72053 5.95061 1.72024Z" fill="#101010"/>
<path fill-rule="evenodd" clip-rule="evenodd" d="M8.43008 7.51919C10.6167 6.18839 13.2925 6.83663 14.7125 8.75361L17.484 12.4956C18.631 14.0551 18.231 16.1894 16.5589 17.2012C16.5585 17.2014 16.5582 17.2016 16.5578 17.2018L10.1314 21.1096C8.47162 22.1323 6.37898 21.5138 5.52614 19.7697C5.52609 19.7696 5.52619 19.7698 5.52614 19.7697L3.47747 15.5924C3.47728 15.5921 3.47709 15.5917 3.47689 15.5913C2.42207 13.4565 3.08541 10.769 5.26983 9.43939L8.43008 7.51919C8.43 7.51924 8.43016 7.51914 8.43008 7.51919ZM13.5071 9.64641C12.5271 8.3235 10.7031 7.89165 9.20975 8.80064L6.04975 10.7207C6.04965 10.7207 6.04984 10.7206 6.04975 10.7207C4.55479 11.6309 4.09777 13.4627 4.82209 14.9276L4.82316 14.9298L6.87316 19.1098C7.34002 20.0647 8.44612 20.3871 9.34588 19.8318L9.35011 19.8292L15.7801 15.9192L15.7817 15.9182C16.6884 15.37 16.9081 14.2455 16.2764 13.3854C16.2761 13.3851 16.2759 13.3847 16.2756 13.3844L13.5071 9.64641C13.5071 9.64643 13.5071 9.6464 13.5071 9.64641Z" fill="#101010"/>
<path fill-rule="evenodd" clip-rule="evenodd" d="M1.99115 7.60871C1.77572 7.25493 1.88787 6.7935 2.24165 6.57806L7.36625 3.45746C7.72003 3.24203 8.18147 3.35418 8.3969 3.70796L10.4773 7.12436C10.6927 7.47814 10.5806 7.93958 10.2268 8.15501L5.1022 11.2756C4.74842 11.491 4.28698 11.3789 4.07155 11.0251L1.99115 7.60871ZM3.66237 7.46914L4.96262 9.60439L8.80607 7.26394L7.50582 5.12869L3.66237 7.46914Z" fill="#101010"/>
<path fill-rule="evenodd" clip-rule="evenodd" d="M10.9196 15.1694C11.2734 14.954 11.7349 15.0662 11.9503 15.42L13.6003 18.13C13.8157 18.4838 13.7035 18.9453 13.3497 19.1607C12.9959 19.3761 12.5345 19.2639 12.3191 18.9101L10.6691 16.2001C10.4537 15.8463 10.5658 15.3849 10.9196 15.1694Z" fill="#101010"/>
<path fill-rule="evenodd" clip-rule="evenodd" d="M8.35959 16.7294C8.71339 16.514 9.17482 16.6262 9.39023 16.9799L11.0402 19.69C11.2556 20.0438 11.1434 20.5052 10.7896 20.7206C10.4358 20.936 9.97442 20.8238 9.75901 20.47L8.10902 17.76C7.89361 17.4062 8.00579 16.9448 8.35959 16.7294Z" fill="#101010"/>
<path fill-rule="evenodd" clip-rule="evenodd" d="M13.4797 13.6094C13.8335 13.394 14.2949 13.5062 14.5103 13.86L16.1604 16.57C16.3758 16.9238 16.2636 17.3852 15.9098 17.6006C15.556 17.816 15.0946 17.7038 14.8791 17.35L13.2291 14.64C13.0137 14.2862 13.1259 13.8248 13.4797 13.6094Z" fill="#101010"/>
</svg>
