<svg width="22" height="22" viewBox="0 0 22 22" fill="none" xmlns="http://www.w3.org/2000/svg">
<path fill-rule="evenodd" clip-rule="evenodd" d="M19.2396 1.81013C17.4057 2.54415 15.1993 3.85621 13.1234 5.39502C11.0445 6.936 9.14391 8.66929 7.90751 10.2168C7.90718 10.2173 7.90685 10.2177 7.90652 10.2181L6.54379 11.939C7.35324 12.1517 8.11866 12.5875 8.76085 13.2297C9.38797 13.8568 9.80769 14.5797 10.0175 15.3634L11.7113 14.0049L11.7113 14.0049C14.8399 11.4962 18.6221 6.38184 20.1144 2.66083L20.1175 2.65322L20.1175 2.65324C20.2259 2.39128 20.1554 2.14053 19.9673 1.95735L19.953 1.94302C19.8014 1.78721 19.5477 1.69802 19.2396 1.81013ZM5.80151 13.3174C5.75351 13.3149 5.7109 13.3125 5.67242 13.3102C5.52732 13.3018 5.4408 13.2967 5.34514 13.3063C5.08955 13.3318 4.83866 13.2248 4.68021 13.0226C4.52176 12.8205 4.4778 12.5513 4.5637 12.3092C4.70271 11.9174 4.91598 11.5502 5.18319 11.2409L6.73254 9.2844L6.73451 9.28192C8.07814 7.59978 10.087 5.77859 12.2301 4.18998C14.3733 2.60134 16.698 1.2102 18.6923 0.413517L18.7085 0.407265C19.5736 0.0846935 20.4534 0.312057 21.0209 0.88969C21.5871 1.44608 21.8727 2.32972 21.5053 3.22255C19.9167 7.1812 15.9802 12.5046 12.6497 15.1751L10.6798 16.7551C10.6696 16.7632 10.6593 16.7711 10.6487 16.7787C10.3812 16.9713 10.0715 17.174 9.70476 17.3181C9.47388 17.4088 9.2131 17.3794 9.00813 17.2397C8.80316 17.1001 8.68052 16.868 8.68052 16.62C8.68052 16.4645 8.67166 16.3061 8.64969 16.167L8.64687 16.1474C8.5593 15.4787 8.25871 14.8489 7.70019 14.2903C7.14087 13.731 6.47252 13.4105 5.80151 13.3174Z" fill="#101010"/>
<path fill-rule="evenodd" clip-rule="evenodd" d="M5.81114 13.3174C5.62996 13.3081 5.46611 13.3017 5.31787 13.3091C5.31054 13.3094 5.30321 13.3097 5.29587 13.3098C3.69175 13.3429 2.21062 14.4953 2.01595 16.2717L1.7453 18.7376C1.64198 19.6159 2.38464 20.3512 3.24698 20.2547L3.24859 20.2545L5.70034 19.9854C6.5292 19.875 7.20178 19.5272 7.68842 19.0413C8.33676 18.3839 8.68041 17.5248 8.68041 16.62C8.68041 16.5175 8.67437 16.4334 8.66671 16.327C8.66243 16.2676 8.65766 16.2012 8.65315 16.1207C8.56113 15.4619 8.26116 14.8414 7.71008 14.2903L7.70621 14.2865C7.1518 13.7239 6.48659 13.4107 5.81114 13.3174ZM5.25412 11.8104C5.49413 11.7991 5.73577 11.8113 5.91983 11.821C5.93884 11.822 5.9578 11.8238 5.97667 11.8262C6.99115 11.9575 7.9748 12.4229 8.77266 13.2316C9.55297 14.0127 10.0117 14.9422 10.1441 15.9526C10.1466 15.9719 10.1484 15.9912 10.1494 16.0106C10.1514 16.0483 10.1547 16.0961 10.1584 16.15C10.168 16.2882 10.1804 16.4668 10.1804 16.62C10.1804 17.9145 9.68465 19.1546 8.75407 20.097L8.75075 20.1003C8.01901 20.8321 7.03478 21.323 5.88806 21.4736L5.87224 21.4755L3.41385 21.7453C3.41355 21.7454 3.41414 21.7453 3.41385 21.7453C1.5976 21.9481 0.0406633 20.4056 0.255185 18.5655L0.524876 16.1083C0.524881 16.1083 0.524872 16.1083 0.524876 16.1083C0.809804 13.5089 2.98221 11.8623 5.25412 11.8104Z" fill="#101010"/>
<path fill-rule="evenodd" clip-rule="evenodd" d="M7.76074 8.74C7.76074 8.32579 8.09653 7.99 8.51074 7.99C11.535 7.99 13.9907 10.4458 13.9907 13.47C13.9907 13.8842 13.655 14.22 13.2407 14.22C12.8265 14.22 12.4907 13.8842 12.4907 13.47C12.4907 11.2742 10.7065 9.49 8.51074 9.49C8.09653 9.49 7.76074 9.15421 7.76074 8.74Z" fill="#101010"/>
</svg>
