<svg width="18" height="22" viewBox="0 0 18 22" fill="none" xmlns="http://www.w3.org/2000/svg">
<path fill-rule="evenodd" clip-rule="evenodd" d="M12.25 4C12.25 3.58579 12.5858 3.25 13 3.25H14C15.5064 3.25 16.6118 3.4824 17.225 4.3C17.5231 4.69744 17.6426 5.15652 17.6973 5.59447C17.7501 6.01623 17.75 6.4934 17.75 6.96862V9.03138C17.75 9.5066 17.7501 9.98377 17.6973 10.4055C17.6426 10.8435 17.5231 11.3026 17.225 11.7C16.6118 12.5176 15.5064 12.75 14 12.75H10C8.57038 12.75 8.15018 13.0751 7.99195 13.304C7.89765 13.4404 7.82904 13.6333 7.79057 13.928C7.75121 14.2295 7.75 14.573 7.75 15C7.75 15.4142 7.41422 15.75 7 15.75C6.58579 15.75 6.25 15.4142 6.25 15L6.25 14.9743C6.24998 14.5781 6.24995 14.1417 6.30319 13.7339C6.35846 13.3105 6.47735 12.8571 6.75805 12.451C7.34983 11.5949 8.42962 11.25 10 11.25H14C15.4936 11.25 15.8882 10.9824 16.025 10.8C16.1019 10.6974 16.1699 10.5315 16.2089 10.2195C16.2488 9.90051 16.25 9.51444 16.25 9V7C16.25 6.48556 16.2488 6.09949 16.2089 5.78053C16.1699 5.46848 16.1019 5.30256 16.025 5.2C15.8882 5.0176 15.4936 4.75 14 4.75H13C12.5858 4.75 12.25 4.41421 12.25 4Z" fill="#101010"/>
<path fill-rule="evenodd" clip-rule="evenodd" d="M4.28868 0.762829C4.39077 0.456573 4.67737 0.25 5.0002 0.25H9.0002C9.32302 0.25 9.60962 0.456573 9.71171 0.762829C10.413 2.86678 10.413 5.13322 9.71171 7.23717C9.60962 7.54343 9.32302 7.75 9.0002 7.75H5.0002C4.67737 7.75 4.39077 7.54343 4.28868 7.23717C3.58737 5.13322 3.58737 2.86678 4.28868 0.762829ZM5.55797 1.75C5.16427 3.22556 5.16427 4.77444 5.55797 6.25H8.44242C8.83612 4.77444 8.83612 3.22556 8.44242 1.75H5.55797Z" fill="#101010"/>
<path fill-rule="evenodd" clip-rule="evenodd" d="M1.21967 1.21967C1.90993 0.52941 2.88439 0.25 4 0.25H5C5.25993 0.25 5.50133 0.384589 5.63799 0.605702C5.77464 0.826814 5.78707 1.10292 5.67082 1.33541C4.77639 3.12426 4.77639 4.87574 5.67082 6.66459C5.78707 6.89708 5.77464 7.17319 5.63799 7.3943C5.50133 7.61541 5.25993 7.75 5 7.75H4C2.88439 7.75 1.90993 7.47059 1.21967 6.78033C0.52941 6.09007 0.25 5.11561 0.25 4C0.25 2.88439 0.52941 1.90993 1.21967 1.21967ZM2.28033 2.28033C1.97059 2.59007 1.75 3.11561 1.75 4C1.75 4.88439 1.97059 5.40993 2.28033 5.71967C2.57527 6.01461 3.06588 6.22872 3.87567 6.2485C3.37478 4.7533 3.37478 3.2467 3.87567 1.7515C3.06588 1.77128 2.57527 1.98539 2.28033 2.28033Z" fill="#101010"/>
<path fill-rule="evenodd" clip-rule="evenodd" d="M8.36201 0.605702C8.49867 0.384589 8.74007 0.25 9 0.25H10C11.1156 0.25 12.0901 0.52941 12.7803 1.21967C13.4706 1.90993 13.75 2.88439 13.75 4C13.75 5.11561 13.4706 6.09007 12.7803 6.78033C12.0901 7.47059 11.1156 7.75 10 7.75H9C8.74007 7.75 8.49867 7.61541 8.36201 7.3943C8.22536 7.17319 8.21293 6.89708 8.32918 6.66459C9.22361 4.87574 9.22361 3.12426 8.32918 1.33541C8.21293 1.10292 8.22536 0.826814 8.36201 0.605702ZM10.1243 1.7515C10.6252 3.2467 10.6252 4.7533 10.1243 6.2485C10.9341 6.22872 11.4247 6.01461 11.7197 5.71967C12.0294 5.40993 12.25 4.88439 12.25 4C12.25 3.11561 12.0294 2.59007 11.7197 2.28033C11.4247 1.98539 10.9341 1.77128 10.1243 1.7515Z" fill="#101010"/>
<path fill-rule="evenodd" clip-rule="evenodd" d="M4.54451 15.1766C4.90451 14.5766 5.56749 14.25 6.50013 14.25H7.50013C8.43277 14.25 9.09574 14.5766 9.45575 15.1766C9.75241 15.6711 9.75086 16.2278 9.75019 16.4696C9.75016 16.4803 9.75013 16.4905 9.75013 16.5V19.5C9.75013 19.5095 9.75016 19.5197 9.75019 19.5304C9.75086 19.7722 9.75241 20.3289 9.45575 20.8234C9.09574 21.4234 8.43277 21.75 7.50013 21.75H6.50013C5.56749 21.75 4.90451 21.4234 4.54451 20.8234C4.24784 20.3289 4.2494 19.7722 4.25007 19.5304C4.2501 19.5197 4.25013 19.5095 4.25013 19.5V16.5C4.25013 16.4905 4.2501 16.4803 4.25007 16.4696C4.2494 16.2278 4.24784 15.6711 4.54451 15.1766ZM5.83075 15.9484C5.76565 16.0569 5.75013 16.2224 5.75013 16.5V19.5C5.75013 19.7776 5.76565 19.9431 5.83075 20.0516C5.85143 20.0861 5.88324 20.124 5.9583 20.1602C6.04217 20.2006 6.20548 20.25 6.50013 20.25H7.50013C7.79478 20.25 7.95808 20.2006 8.04195 20.1602C8.11702 20.124 8.14883 20.0861 8.16951 20.0516C8.2346 19.9431 8.25013 19.7776 8.25013 19.5V16.5C8.25013 16.2224 8.2346 16.0569 8.16951 15.9484C8.14883 15.9139 8.11702 15.876 8.04195 15.8398C7.95808 15.7994 7.79478 15.75 7.50013 15.75H6.50013C6.20548 15.75 6.04217 15.7994 5.9583 15.8398C5.88324 15.876 5.85143 15.9139 5.83075 15.9484Z" fill="#101010"/>
</svg>
