<svg width="22" height="22" viewBox="0 0 22 22" fill="none" xmlns="http://www.w3.org/2000/svg">
<path fill-rule="evenodd" clip-rule="evenodd" d="M9.83027 4.79999C10.0292 4.79999 10.22 4.87901 10.3606 5.01966L15.5506 10.2097C16.1035 10.7626 16.1035 11.6575 15.5506 12.2104L11.3006 16.4604C10.7474 17.0135 10.0954 17.3851 9.35528 17.3851C8.61514 17.3851 7.96313 17.0135 7.40996 16.4604L4.57994 13.6303C4.57994 13.6303 4.57995 13.6303 4.57994 13.6303C4.02678 13.0771 3.65527 12.4251 3.65527 11.685C3.65527 10.9449 4.02678 10.2929 4.57994 9.73969L9.29994 5.01966C9.44059 4.87901 9.63136 4.79999 9.83027 4.79999ZM9.83028 6.61065L5.64061 10.8003C5.25377 11.1872 5.15527 11.4802 5.15527 11.685C5.15527 11.8898 5.25377 12.1828 5.6406 12.5696L8.47062 15.3997C8.47062 15.3997 8.47062 15.3997 8.47062 15.3997C8.85745 15.7866 9.15043 15.8851 9.35528 15.8851C9.56014 15.8851 9.85311 15.7866 10.2399 15.3997L14.4296 11.21L9.83028 6.61065Z" fill="#101010"/>
<path fill-rule="evenodd" clip-rule="evenodd" d="M8.34676 4.07245C8.6381 3.77802 9.11297 3.77551 9.40741 4.06685L10.3574 5.00686C10.6518 5.2982 10.6543 5.77306 10.363 6.0675C10.0716 6.36194 9.59678 6.36444 9.30234 6.0731L8.35236 5.1331C8.05792 4.84176 8.05542 4.36689 8.34676 4.07245Z" fill="#101010"/>
<path fill-rule="evenodd" clip-rule="evenodd" d="M15.8797 11.1371C15.8979 11.5509 15.5772 11.9011 15.1634 11.9193L4.47338 12.3893C4.05957 12.4075 3.70936 12.0868 3.69117 11.673C3.67297 11.2591 3.99369 10.9089 4.4075 10.8907L15.0975 10.4208C15.5113 10.4026 15.8615 10.7233 15.8797 11.1371Z" fill="#101010"/>
<path fill-rule="evenodd" clip-rule="evenodd" d="M16.8534 13.3036L16.3002 13.8101L15.749 13.3015C15.8913 13.1472 16.0918 13.0597 16.3017 13.0601C16.5116 13.0605 16.7117 13.1488 16.8534 13.3036ZM16.2984 15.0045C16.2849 15.0233 16.2714 15.0423 16.2579 15.0614C16.1075 15.2743 15.969 15.4959 15.8709 15.7001C15.7659 15.9184 15.7402 16.0494 15.7402 16.1C15.7402 16.4058 15.9945 16.66 16.3002 16.66C16.6043 16.66 16.8574 16.4087 16.8602 16.1051C16.8585 16.0487 16.8295 15.9158 16.7259 15.7011C16.6268 15.4958 16.4881 15.2735 16.3381 15.0603C16.3249 15.0415 16.3116 15.0229 16.2984 15.0045ZM16.3002 13.8101C15.749 13.3015 15.7491 13.3014 15.749 13.3015L15.7468 13.3039L15.7428 13.3083L15.7292 13.3232C15.7178 13.3358 15.7019 13.3536 15.682 13.3761C15.6423 13.421 15.5867 13.485 15.5204 13.5641C15.3887 13.7215 15.2114 13.9429 15.0326 14.1961C14.8555 14.4469 14.6664 14.7435 14.519 15.0502C14.3783 15.3428 14.2402 15.7156 14.2402 16.1C14.2402 17.2341 15.166 18.16 16.3002 18.16C17.4345 18.16 18.3602 17.2341 18.3602 16.1L18.3602 16.0914C18.3558 15.7108 18.2176 15.3409 18.0768 15.0492C17.9293 14.7436 17.7411 14.4478 17.5649 14.1972C17.387 13.9443 17.211 13.7232 17.0801 13.5659C17.0144 13.4869 16.9592 13.4229 16.9198 13.378C16.9001 13.3556 16.8843 13.3378 16.873 13.3253L16.8596 13.3104L16.8556 13.306L16.8542 13.3045C16.8542 13.3044 16.8534 13.3036 16.3002 13.8101Z" fill="#101010"/>
<path fill-rule="evenodd" clip-rule="evenodd" d="M2.09467 2.09467C3.42914 0.760201 5.42603 0.25 8 0.25H14C16.574 0.25 18.5709 0.760201 19.9053 2.09467C21.2398 3.42914 21.75 5.42603 21.75 8V14C21.75 16.574 21.2398 18.5709 19.9053 19.9053C18.5709 21.2398 16.574 21.75 14 21.75H8C5.42603 21.75 3.42914 21.2398 2.09467 19.9053C0.760201 18.5709 0.25 16.574 0.25 14V8C0.25 5.42603 0.760201 3.42914 2.09467 2.09467ZM3.15533 3.15533C2.2398 4.07086 1.75 5.57397 1.75 8V14C1.75 16.426 2.2398 17.9291 3.15533 18.8447C4.07086 19.7602 5.57397 20.25 8 20.25H14C16.426 20.25 17.9291 19.7602 18.8447 18.8447C19.7602 17.9291 20.25 16.426 20.25 14V8C20.25 5.57397 19.7602 4.07086 18.8447 3.15533C17.9291 2.2398 16.426 1.75 14 1.75H8C5.57397 1.75 4.07086 2.2398 3.15533 3.15533Z" fill="#101010"/>
</svg>
