<svg width="22" height="22" viewBox="0 0 22 22" fill="none" xmlns="http://www.w3.org/2000/svg">
<path fill-rule="evenodd" clip-rule="evenodd" d="M9.47961 5.64966C9.77251 5.35677 10.2474 5.35677 10.5403 5.64966L14.9303 10.0397C15.4432 10.5526 15.4432 11.3874 14.9303 11.9003L11.3369 15.4936C10.8544 15.9701 10.2749 16.3033 9.60758 16.3012C8.94025 16.2991 8.36164 15.9623 7.87962 15.4803C7.87962 15.4803 7.87962 15.4803 7.87962 15.4803L5.48961 13.0904C5.00812 12.6089 4.66992 12.0294 4.66992 11.3613C4.66992 10.6928 5.00843 10.1154 5.49118 9.63807L9.47961 5.64966ZM10.0099 7.24065L6.54692 10.7036C6.2306 11.016 6.16992 11.2331 6.16992 11.3613C6.16992 11.4907 6.23173 11.7112 6.55024 12.0297C6.55024 12.0297 6.55023 12.0297 6.55024 12.0297L8.94025 14.4196C9.25823 14.7376 9.47962 14.8008 9.61228 14.8012C9.74472 14.8016 9.96475 14.74 10.2814 14.4279L13.7393 10.97L10.0099 7.24065Z" fill="#101010"/>
<path fill-rule="evenodd" clip-rule="evenodd" d="M8.67962 4.84968C8.97251 4.55679 9.44738 4.55678 9.74028 4.84966L10.5403 5.64965C10.8332 5.94254 10.8332 6.41741 10.5403 6.71031C10.2474 7.00321 9.77256 7.00322 9.47966 6.71033L8.67964 5.91035C8.38674 5.61746 8.38673 5.14258 8.67962 4.84968Z" fill="#101010"/>
<path fill-rule="evenodd" clip-rule="evenodd" d="M15.2393 10.9076C15.2571 11.3215 14.9362 11.6714 14.5223 11.6893L5.49233 12.0793C5.0785 12.0971 4.72854 11.7761 4.71067 11.3623C4.6928 10.9485 5.01379 10.5985 5.42762 10.5807L14.4576 10.1907C14.8714 10.1728 15.2214 10.4938 15.2393 10.9076Z" fill="#101010"/>
<path fill-rule="evenodd" clip-rule="evenodd" d="M16.0186 12.6585L15.4701 13.17L14.9173 12.6632C15.0586 12.5091 15.2578 12.421 15.4669 12.4201C15.676 12.4191 15.8759 12.5056 16.0186 12.6585ZM17.3201 15.1048C17.3175 16.1125 16.4971 16.95 15.4701 16.95C14.4604 16.95 13.6201 16.1286 13.6201 15.1C13.6201 14.7508 13.745 14.4181 13.8657 14.1663C13.9932 13.9002 14.1558 13.6444 14.3065 13.43C14.459 13.2131 14.6098 13.0237 14.7218 12.8891C14.7781 12.8215 14.8255 12.7666 14.8594 12.728C14.8764 12.7087 14.8901 12.6934 14.8999 12.6824L14.9117 12.6694L14.9153 12.6654L14.9173 12.6632C14.9174 12.6631 14.9173 12.6632 15.4701 13.17C16.0186 12.6585 16.0185 12.6584 16.0186 12.6585L16.0206 12.6607L16.0243 12.6647L16.0363 12.6777C16.0463 12.6886 16.0601 12.7039 16.0773 12.7232C16.1117 12.7617 16.1596 12.8163 16.2166 12.8838C16.3298 13.0179 16.4822 13.207 16.6359 13.424C16.7879 13.6385 16.9518 13.8953 17.0796 14.1638C17.2003 14.4173 17.3236 14.7519 17.3201 15.1048ZM15.4735 14.38C15.5728 14.5265 15.6609 14.6734 15.7253 14.8086C15.7636 14.8891 15.7892 14.9564 15.8043 15.0098C15.8118 15.0358 15.8159 15.0559 15.8181 15.0702C15.82 15.0827 15.8202 15.089 15.8202 15.0898L15.8201 15.1C15.8201 15.2902 15.6615 15.45 15.4701 15.45C15.2799 15.45 15.1201 15.2913 15.1201 15.1C15.1201 15.1 15.1201 15.1 15.1201 15.1C15.1201 15.1 15.1202 15.0937 15.1225 15.08C15.1249 15.0653 15.1294 15.0449 15.1371 15.0183C15.153 14.9641 15.1794 14.8959 15.2183 14.8146C15.2841 14.6774 15.3734 14.5284 15.4735 14.38Z" fill="#101010"/>
<path fill-rule="evenodd" clip-rule="evenodd" d="M11 1.75C5.89137 1.75 1.75 5.89137 1.75 11C1.75 16.1086 5.89137 20.25 11 20.25C16.1086 20.25 20.25 16.1086 20.25 11C20.25 5.89137 16.1086 1.75 11 1.75ZM0.25 11C0.25 5.06294 5.06294 0.25 11 0.25C16.9371 0.25 21.75 5.06294 21.75 11C21.75 16.9371 16.9371 21.75 11 21.75C5.06294 21.75 0.25 16.9371 0.25 11Z" fill="#101010"/>
</svg>
