<svg width="24" height="21" viewBox="0 0 24 21" fill="none" xmlns="http://www.w3.org/2000/svg">
<path fill-rule="evenodd" clip-rule="evenodd" d="M0.25 20C0.25 19.5858 0.585786 19.25 1 19.25H23C23.4142 19.25 23.75 19.5858 23.75 20C23.75 20.4142 23.4142 20.75 23 20.75H1C0.585786 20.75 0.25 20.4142 0.25 20Z" fill="#101010"/>
<path fill-rule="evenodd" clip-rule="evenodd" d="M19.7803 14.8C20.1945 14.8 20.5303 15.1358 20.5303 15.55V20.0101C20.5303 20.4243 20.1945 20.7601 19.7803 20.7601C19.3661 20.7601 19.0303 20.4243 19.0303 20.0101V15.55C19.0303 15.1358 19.3661 14.8 19.7803 14.8Z" fill="#101010"/>
<path fill-rule="evenodd" clip-rule="evenodd" d="M16.8496 11.09C16.8496 9.45581 18.1654 8.14001 19.7996 8.14001C21.4338 8.14001 22.7496 9.45581 22.7496 11.09V13.36C22.7496 14.9942 21.4338 16.31 19.7996 16.31C18.1654 16.31 16.8496 14.9942 16.8496 13.36V11.09ZM19.7996 9.64001C18.9938 9.64001 18.3496 10.2842 18.3496 11.09V13.36C18.3496 14.1658 18.9938 14.81 19.7996 14.81C20.6054 14.81 21.2496 14.1658 21.2496 13.36V11.09C21.2496 10.2842 20.6054 9.64001 19.7996 9.64001Z" fill="#101010"/>
<path fill-rule="evenodd" clip-rule="evenodd" d="M3.38135 2.29395C3.07074 2.60767 2.84961 3.13971 2.84961 4.03003V20C2.84961 20.4142 2.51382 20.75 2.09961 20.75C1.6854 20.75 1.34961 20.4142 1.34961 20V4.03003C1.34961 2.91034 1.62851 1.93238 2.31542 1.23859C3.00368 0.543434 3.97619 0.26001 5.08966 0.26001H11.3196C12.4331 0.26001 13.4041 0.543475 14.0902 1.23994C14.7742 1.93432 15.0496 2.91224 15.0496 4.03003V20C15.0496 20.4142 14.7138 20.75 14.2996 20.75C13.8854 20.75 13.5496 20.4142 13.5496 20V4.03003C13.5496 3.13782 13.33 2.60573 13.0216 2.2926C12.7152 1.98155 12.1962 1.76001 11.3196 1.76001H5.08966C4.21313 1.76001 3.69061 1.9816 3.38135 2.29395Z" fill="#101010"/>
<path fill-rule="evenodd" clip-rule="evenodd" d="M5.0498 6.25C5.0498 5.83579 5.38559 5.5 5.7998 5.5H10.7498C11.164 5.5 11.4998 5.83579 11.4998 6.25C11.4998 6.66421 11.164 7 10.7498 7H5.7998C5.38559 7 5.0498 6.66421 5.0498 6.25Z" fill="#101010"/>
<path fill-rule="evenodd" clip-rule="evenodd" d="M5.0498 10C5.0498 9.58579 5.38559 9.25 5.7998 9.25H10.7498C11.164 9.25 11.4998 9.58579 11.4998 10C11.4998 10.4142 11.164 10.75 10.7498 10.75H5.7998C5.38559 10.75 5.0498 10.4142 5.0498 10Z" fill="#101010"/>
<path fill-rule="evenodd" clip-rule="evenodd" d="M8.25 15.5C8.66421 15.5 9 15.8358 9 16.25V20C9 20.4142 8.66421 20.75 8.25 20.75C7.83579 20.75 7.5 20.4142 7.5 20V16.25C7.5 15.8358 7.83579 15.5 8.25 15.5Z" fill="#101010"/>
</svg>
