<svg width="22" height="22" viewBox="0 0 22 22" fill="none" xmlns="http://www.w3.org/2000/svg">
<path fill-rule="evenodd" clip-rule="evenodd" d="M2.28033 8.28033C1.97059 8.59007 1.75 9.11561 1.75 10V18C1.75 18.8844 1.97059 19.4099 2.28033 19.7197C2.59007 20.0294 3.11561 20.25 4 20.25H8.80035C8.41379 19.6255 8.25 18.8541 8.25 18V7.75H4C3.11561 7.75 2.59007 7.97059 2.28033 8.28033ZM12 20.25C11.1156 20.25 10.5901 20.0294 10.2803 19.7197C9.97059 19.4099 9.75 18.8844 9.75 18V7C9.75 6.58579 9.41421 6.25 9 6.25H4C2.88439 6.25 1.90993 6.52941 1.21967 7.21967C0.52941 7.90993 0.25 8.88439 0.25 10V18C0.25 19.1156 0.52941 20.0901 1.21967 20.7803C1.90993 21.4706 2.88439 21.75 4 21.75H12C12.4142 21.75 12.75 21.4142 12.75 21C12.75 20.5858 12.4142 20.25 12 20.25Z" fill="#101010"/>
<path fill-rule="evenodd" clip-rule="evenodd" d="M6 3.75C5.31421 3.75 4.75 4.31421 4.75 5V6.25H8.25V4C8.25 3.91637 8.25137 3.83301 8.25445 3.75H6ZM3.25 5C3.25 3.48579 4.48579 2.25 6 2.25H9.10999C9.34299 2.25 9.56277 2.3583 9.70473 2.54307C9.84668 2.72785 9.8947 2.96811 9.83466 3.19325C9.77744 3.40782 9.75 3.66709 9.75 4V7C9.75 7.41421 9.41421 7.75 9 7.75H4C3.58579 7.75 3.25 7.41421 3.25 7V5Z" fill="#101010"/>
<path fill-rule="evenodd" clip-rule="evenodd" d="M13 6.25C13.4142 6.25 13.75 6.58579 13.75 7V12C13.75 12.4142 13.4142 12.75 13 12.75C12.5858 12.75 12.25 12.4142 12.25 12V7C12.25 6.58579 12.5858 6.25 13 6.25Z" fill="#101010"/>
<path fill-rule="evenodd" clip-rule="evenodd" d="M17 6.25C17.4142 6.25 17.75 6.58579 17.75 7V12C17.75 12.4142 17.4142 12.75 17 12.75C16.5858 12.75 16.25 12.4142 16.25 12V7C16.25 6.58579 16.5858 6.25 17 6.25Z" fill="#101010"/>
<path fill-rule="evenodd" clip-rule="evenodd" d="M12.25 17C12.25 16.0358 13.0358 15.25 14 15.25H16C16.9642 15.25 17.75 16.0358 17.75 17V21C17.75 21.4142 17.4142 21.75 17 21.75H13C12.5858 21.75 12.25 21.4142 12.25 21V17ZM14 16.75C13.8642 16.75 13.75 16.8642 13.75 17V20.25H16.25V17C16.25 16.8642 16.1358 16.75 16 16.75H14Z" fill="#101010"/>
<path fill-rule="evenodd" clip-rule="evenodd" d="M5 11.25C5.41421 11.25 5.75 11.5858 5.75 12V16C5.75 16.4142 5.41421 16.75 5 16.75C4.58579 16.75 4.25 16.4142 4.25 16V12C4.25 11.5858 4.58579 11.25 5 11.25Z" fill="#101010"/>
<path fill-rule="evenodd" clip-rule="evenodd" d="M10.2803 2.28033C9.97059 2.59007 9.75 3.11561 9.75 4V18C9.75 18.8844 9.97059 19.4099 10.2803 19.7197C10.5901 20.0294 11.1156 20.25 12 20.25H18C18.8844 20.25 19.4099 20.0294 19.7197 19.7197C20.0294 19.4099 20.25 18.8844 20.25 18V4C20.25 3.11561 20.0294 2.59007 19.7197 2.28033C19.4099 1.97059 18.8844 1.75 18 1.75H12C11.1156 1.75 10.5901 1.97059 10.2803 2.28033ZM9.21967 1.21967C9.90993 0.52941 10.8844 0.25 12 0.25H18C19.1156 0.25 20.0901 0.52941 20.7803 1.21967C21.4706 1.90993 21.75 2.88439 21.75 4V18C21.75 19.1156 21.4706 20.0901 20.7803 20.7803C20.0901 21.4706 19.1156 21.75 18 21.75H12C10.8844 21.75 9.90993 21.4706 9.21967 20.7803C8.52941 20.0901 8.25 19.1156 8.25 18V4C8.25 2.88439 8.52941 1.90993 9.21967 1.21967Z" fill="#101010"/>
</svg>
