<svg width="18" height="22" viewBox="0 0 18 22" fill="none" xmlns="http://www.w3.org/2000/svg">
<path fill-rule="evenodd" clip-rule="evenodd" d="M4.10001 1.75C2.80579 1.75 1.75 2.81265 1.75 4.10001V17.9C1.75 19.1942 2.81265 20.25 4.10001 20.25H13.9C15.1958 20.25 16.25 19.1958 16.25 17.9V4.10001C16.25 2.80579 15.1874 1.75 13.9 1.75H4.10001ZM0.25 4.10001C0.25 1.98737 1.97422 0.25 4.10001 0.25H13.9C16.0126 0.25 17.75 1.97422 17.75 4.10001V17.9C17.75 20.0242 16.0242 21.75 13.9 21.75H4.10001C1.98737 21.75 0.25 20.0258 0.25 17.9V4.10001Z" fill="#101010"/>
<path fill-rule="evenodd" clip-rule="evenodd" d="M2.5 7.75C2.08421 7.75 1.75 8.08421 1.75 8.5V10.5C1.75 10.9158 2.08421 11.25 2.5 11.25H15.5C15.9158 11.25 16.25 10.9158 16.25 10.5V8.5C16.25 8.08421 15.9158 7.75 15.5 7.75H2.5ZM0.25 8.5C0.25 7.25579 1.25579 6.25 2.5 6.25H15.5C16.7442 6.25 17.75 7.25579 17.75 8.5V10.5C17.75 11.7442 16.7442 12.75 15.5 12.75H2.5C1.25579 12.75 0.25 11.7442 0.25 10.5V8.5Z" fill="#101010"/>
<path fill-rule="evenodd" clip-rule="evenodd" d="M4.24463 16.7C4.24463 16.0096 4.80427 15.45 5.49463 15.45H5.50361C6.19397 15.45 6.75361 16.0096 6.75361 16.7C6.75361 17.3903 6.19397 17.95 5.50361 17.95H5.49463C4.80427 17.95 4.24463 17.3903 4.24463 16.7Z" fill="#101010"/>
<path fill-rule="evenodd" clip-rule="evenodd" d="M11.2446 16.7C11.2446 16.0096 11.8043 15.45 12.4946 15.45H12.5036C13.194 15.45 13.7536 16.0096 13.7536 16.7C13.7536 17.3903 13.194 17.95 12.5036 17.95H12.4946C11.8043 17.95 11.2446 17.3903 11.2446 16.7Z" fill="#101010"/>
<path fill-rule="evenodd" clip-rule="evenodd" d="M5.75 4C5.75 3.58579 6.08579 3.25 6.5 3.25H11.5C11.9142 3.25 12.25 3.58579 12.25 4C12.25 4.41421 11.9142 4.75 11.5 4.75H6.5C6.08579 4.75 5.75 4.41421 5.75 4Z" fill="#101010"/>
</svg>
