<svg width="22" height="22" viewBox="0 0 22 22" fill="none" xmlns="http://www.w3.org/2000/svg">
<path fill-rule="evenodd" clip-rule="evenodd" d="M0.25 21C0.25 20.5858 0.585786 20.25 1 20.25H21C21.4142 20.25 21.75 20.5858 21.75 21C21.75 21.4142 21.4142 21.75 21 21.75H1C0.585786 21.75 0.25 21.4142 0.25 21Z" fill="#101010"/>
<path fill-rule="evenodd" clip-rule="evenodd" d="M5.44035 9.75C3.93862 9.75 2.86035 10.8263 2.86035 12V21C2.86035 21.4142 2.52457 21.75 2.11035 21.75C1.69614 21.75 1.36035 21.4142 1.36035 21V12C1.36035 9.85372 3.26208 8.25 5.44035 8.25H16.5504C18.7286 8.25 20.6304 9.85372 20.6304 12V21C20.6304 21.4142 20.2946 21.75 19.8804 21.75C19.4661 21.75 19.1304 21.4142 19.1304 21V12C19.1304 10.8263 18.0521 9.75 16.5504 9.75H5.44035Z" fill="#101010"/>
<path fill-rule="evenodd" clip-rule="evenodd" d="M6.97957 4.75C5.97515 4.75 5.30957 5.4587 5.30957 6.17V9C5.30957 9.41421 4.97378 9.75 4.55957 9.75C4.14536 9.75 3.80957 9.41421 3.80957 9V6.17C3.80957 4.4813 5.30399 3.25 6.97957 3.25H15.0296C16.6973 3.25 18.1896 4.4832 18.1896 6.17V9C18.1896 9.41421 17.8538 9.75 17.4396 9.75C17.0254 9.75 16.6896 9.41421 16.6896 9V6.17C16.6896 5.4568 16.0219 4.75 15.0296 4.75H6.97957Z" fill="#101010"/>
<path fill-rule="evenodd" clip-rule="evenodd" d="M1.78055 12.9597C1.79174 12.5457 2.13648 12.2191 2.55054 12.2303L2.91602 12.2401C4.06501 12.2587 4.98028 13.193 4.98028 14.34V14.67C4.98028 14.9994 5.24811 15.27 5.58028 15.27C5.90969 15.27 6.18028 15.0022 6.18028 14.67V14.36C6.18028 13.2094 7.11245 12.26 8.28028 12.26C9.43087 12.26 10.3803 13.1922 10.3803 14.36V14.67C10.3803 14.9994 10.6481 15.27 10.9803 15.27C11.3097 15.27 11.5803 15.0022 11.5803 14.67V14.36C11.5803 13.2094 12.5125 12.26 13.6803 12.26C14.8309 12.26 15.7803 13.1922 15.7803 14.36V14.67C15.7803 14.9994 16.0481 15.27 16.3803 15.27C16.7097 15.27 16.9803 15.0022 16.9803 14.67V14.36C16.9803 13.2094 17.9125 12.26 19.0803 12.26H19.5303C19.9445 12.26 20.2803 12.5958 20.2803 13.01C20.2803 13.4242 19.9445 13.76 19.5303 13.76H19.0803C18.7481 13.76 18.4803 14.0306 18.4803 14.36V14.67C18.4803 15.8378 17.5309 16.77 16.3803 16.77C15.2125 16.77 14.2803 15.8206 14.2803 14.67V14.36C14.2803 14.0278 14.0097 13.76 13.6803 13.76C13.3481 13.76 13.0803 14.0306 13.0803 14.36V14.67C13.0803 15.8378 12.1309 16.77 10.9803 16.77C9.81245 16.77 8.88028 15.8206 8.88028 14.67V14.36C8.88028 14.0278 8.60969 13.76 8.28028 13.76C7.9481 13.76 7.68028 14.0306 7.68028 14.36V14.67C7.68028 15.8378 6.73087 16.77 5.58028 16.77C4.41245 16.77 3.48028 15.8206 3.48028 14.67V14.34C3.48028 14.0088 3.21852 13.7444 2.89014 13.7399L2.88001 13.7398L2.88002 13.7397L2.51002 13.7297C2.09595 13.7185 1.76936 13.3738 1.78055 12.9597Z" fill="#101010"/>
<path fill-rule="evenodd" clip-rule="evenodd" d="M7 1.25C7.41421 1.25 7.75 1.58579 7.75 2V4C7.75 4.41421 7.41421 4.75 7 4.75C6.58579 4.75 6.25 4.41421 6.25 4V2C6.25 1.58579 6.58579 1.25 7 1.25Z" fill="#101010"/>
<path fill-rule="evenodd" clip-rule="evenodd" d="M15 1.25C15.4142 1.25 15.75 1.58579 15.75 2V4C15.75 4.41421 15.4142 4.75 15 4.75C14.5858 4.75 14.25 4.41421 14.25 4V2C14.25 1.58579 14.5858 1.25 15 1.25Z" fill="#101010"/>
<path fill-rule="evenodd" clip-rule="evenodd" d="M11 0.25C11.4142 0.25 11.75 0.585786 11.75 1V4C11.75 4.41421 11.4142 4.75 11 4.75C10.5858 4.75 10.25 4.41421 10.25 4V1C10.25 0.585786 10.5858 0.25 11 0.25Z" fill="#101010"/>
</svg>
