<svg width="21" height="23" viewBox="0 0 21 23" fill="none" xmlns="http://www.w3.org/2000/svg">
<path fill-rule="evenodd" clip-rule="evenodd" d="M6 0.25C6.41421 0.25 6.75 0.585786 6.75 1V4C6.75 4.41421 6.41421 4.75 6 4.75C5.58579 4.75 5.25 4.41421 5.25 4V1C5.25 0.585786 5.58579 0.25 6 0.25Z" fill="#101010"/>
<path fill-rule="evenodd" clip-rule="evenodd" d="M14 0.25C14.4142 0.25 14.75 0.585786 14.75 1V4C14.75 4.41421 14.4142 4.75 14 4.75C13.5858 4.75 13.25 4.41421 13.25 4V1C13.25 0.585786 13.5858 0.25 14 0.25Z" fill="#101010"/>
<path fill-rule="evenodd" clip-rule="evenodd" d="M0.75 8.08997C0.75 7.67575 1.08579 7.33997 1.5 7.33997H18.5C18.9142 7.33997 19.25 7.67575 19.25 8.08997C19.25 8.50418 18.9142 8.83997 18.5 8.83997H1.5C1.08579 8.83997 0.75 8.50418 0.75 8.08997Z" fill="#101010"/>
<path fill-rule="evenodd" clip-rule="evenodd" d="M16 14.75C14.2042 14.75 12.75 16.2042 12.75 18C12.75 18.6094 12.9205 19.1833 13.2184 19.6663L13.2278 19.6821C13.3948 19.9684 13.609 20.2216 13.852 20.4254C13.8586 20.431 13.8652 20.4367 13.8717 20.4425C14.4355 20.9499 15.1773 21.25 16 21.25C17.1859 21.25 18.2156 20.6177 18.7754 19.6766L18.7815 19.6663L18.7816 19.6663C19.0795 19.1833 19.25 18.6094 19.25 18C19.25 17.1833 18.9439 16.4364 18.4359 15.8543C17.841 15.1784 16.973 14.75 16 14.75ZM11.25 18C11.25 15.3758 13.3758 13.25 16 13.25C17.4265 13.25 18.6981 13.8811 19.5632 14.8647L19.5649 14.8667L19.5649 14.8667C20.2965 15.7044 20.75 16.7971 20.75 18C20.75 18.8885 20.5017 19.7327 20.0615 20.4486C19.2406 21.8246 17.732 22.75 16 22.75C14.8073 22.75 13.713 22.3134 12.878 21.5662C12.5075 21.2535 12.1869 20.8725 11.9368 20.4459C11.4977 19.7305 11.25 18.8874 11.25 18Z" fill="#101010"/>
<path fill-rule="evenodd" clip-rule="evenodd" d="M18.111 16.5108C18.3923 16.8149 18.3738 17.2894 18.0697 17.5706L15.9397 19.5406C15.6439 19.8142 15.1849 19.8052 14.9001 19.5204L13.9101 18.5304C13.6172 18.2375 13.6172 17.7626 13.9101 17.4697C14.203 17.1768 14.6779 17.1768 14.9708 17.4697L15.4507 17.9497L17.0512 16.4694C17.3553 16.1882 17.8298 16.2067 18.111 16.5108Z" fill="#101010"/>
<path fill-rule="evenodd" clip-rule="evenodd" d="M2.7371 4.38534C2.09637 5.07535 1.75 6.11497 1.75 7.5V16C1.75 17.385 2.09637 18.4246 2.7371 19.1147C3.36848 19.7946 4.39295 20.25 6 20.25H11.8231C11.4552 19.5787 11.25 18.8077 11.25 18C11.25 15.3758 13.3758 13.25 16 13.25C16.8165 13.25 17.5822 13.4568 18.25 13.818V7.5C18.25 6.11497 17.9036 5.07535 17.2629 4.38534C16.6315 3.70538 15.607 3.25 14 3.25H6C4.39295 3.25 3.36848 3.70538 2.7371 4.38534ZM1.6379 3.36466C2.63152 2.29462 4.10705 1.75 6 1.75H14C15.893 1.75 17.3685 2.29462 18.3621 3.36466C19.3464 4.42465 19.75 5.88503 19.75 7.5V15.36C19.75 15.6721 19.5567 15.9516 19.2647 16.0617C18.9727 16.1719 18.643 16.0897 18.4368 15.8553C17.8419 15.1788 16.9735 14.75 16 14.75C14.2042 14.75 12.75 16.2042 12.75 18C12.75 18.6094 12.9205 19.1833 13.2184 19.6663L13.2278 19.6821C13.3948 19.9684 13.609 20.2216 13.852 20.4254C14.0936 20.628 14.1826 20.9601 14.0748 21.2564C13.967 21.5528 13.6853 21.75 13.37 21.75H6C4.10705 21.75 2.63152 21.2054 1.6379 20.1353C0.653634 19.0754 0.25 17.615 0.25 16V7.5C0.25 5.88503 0.653634 4.42465 1.6379 3.36466Z" fill="#101010"/>
<path fill-rule="evenodd" clip-rule="evenodd" d="M8.99512 12.7C8.99512 12.1477 9.44283 11.7 9.99512 11.7H10.0041C10.5564 11.7 11.0041 12.1477 11.0041 12.7C11.0041 13.2522 10.5564 13.7 10.0041 13.7H9.99512C9.44283 13.7 8.99512 13.2522 8.99512 12.7Z" fill="#101010"/>
<path fill-rule="evenodd" clip-rule="evenodd" d="M5.29395 12.7C5.29395 12.1477 5.74166 11.7 6.29395 11.7H6.30293C6.85521 11.7 7.30293 12.1477 7.30293 12.7C7.30293 13.2522 6.85521 13.7 6.30293 13.7H6.29395C5.74166 13.7 5.29395 13.2522 5.29395 12.7Z" fill="#101010"/>
<path fill-rule="evenodd" clip-rule="evenodd" d="M5.29395 15.7C5.29395 15.1477 5.74166 14.7 6.29395 14.7H6.30293C6.85521 14.7 7.30293 15.1477 7.30293 15.7C7.30293 16.2522 6.85521 16.7 6.30293 16.7H6.29395C5.74166 16.7 5.29395 16.2522 5.29395 15.7Z" fill="#101010"/>
</svg>
