<svg width="21" height="22" viewBox="0 0 21 22" fill="none" xmlns="http://www.w3.org/2000/svg">
<path fill-rule="evenodd" clip-rule="evenodd" d="M6 0.25C6.41421 0.25 6.75 0.585786 6.75 1V4C6.75 4.41421 6.41421 4.75 6 4.75C5.58579 4.75 5.25 4.41421 5.25 4V1C5.25 0.585786 5.58579 0.25 6 0.25Z" fill="#101010"/>
<path fill-rule="evenodd" clip-rule="evenodd" d="M14 0.25C14.4142 0.25 14.75 0.585786 14.75 1V4C14.75 4.41421 14.4142 4.75 14 4.75C13.5858 4.75 13.25 4.41421 13.25 4V1C13.25 0.585786 13.5858 0.25 14 0.25Z" fill="#101010"/>
<path fill-rule="evenodd" clip-rule="evenodd" d="M0.75 8.08997C0.75 7.67575 1.08579 7.33997 1.5 7.33997H18.5C18.9142 7.33997 19.25 7.67575 19.25 8.08997C19.25 8.50418 18.9142 8.83997 18.5 8.83997H1.5C1.08579 8.83997 0.75 8.50418 0.75 8.08997Z" fill="#101010"/>
<path fill-rule="evenodd" clip-rule="evenodd" d="M18.1332 13.4564C18.7964 13.3883 19.4067 13.6861 19.9502 14.2296C20.4968 14.7762 20.7983 15.3878 20.7325 16.0526C20.6706 16.6777 20.2978 17.1627 19.9502 17.5103L16.4178 21.0427C16.2712 21.1963 16.0909 21.308 15.9428 21.382C15.7869 21.46 15.5975 21.5307 15.4068 21.5608L15.3944 21.5628L14.0459 21.7524C14.0456 21.7525 14.0462 21.7524 14.0459 21.7524C13.6044 21.8153 13.1484 21.6992 12.8195 21.3703C12.4906 21.0414 12.3744 20.5863 12.4373 20.1447C12.4373 20.1445 12.4372 20.145 12.4373 20.1447L12.6289 18.783C12.6595 18.5893 12.7318 18.401 12.8094 18.2476C12.887 18.0943 12.9972 17.9219 13.1395 17.7796C13.1395 17.7796 13.1395 17.7796 13.1395 17.7796L16.6795 14.2396C17.0272 13.892 17.5111 13.5203 18.1332 13.4564ZM18.2865 14.9485C18.1786 14.9596 18.0025 15.0379 17.7402 15.3003L14.2015 18.839C14.201 18.8396 14.1954 18.8459 14.1861 18.8595C14.1743 18.8767 14.1608 18.8991 14.1478 18.9248C14.1349 18.9504 14.1247 18.9746 14.1178 18.9944C14.1135 19.0068 14.1114 19.0146 14.1107 19.0176L13.9368 20.253L15.1729 20.079C15.1761 20.0783 15.1852 20.076 15.2 20.0709C15.2213 20.0636 15.2464 20.0531 15.2719 20.0404C15.2976 20.0276 15.318 20.0152 15.3317 20.0057C15.3348 20.0035 15.3372 20.0017 15.3389 20.0005C15.3424 19.9968 15.3459 19.9932 15.3495 19.9896L18.8895 16.4496C19.1519 16.1873 19.2291 16.0122 19.2398 15.9049C19.2465 15.8371 19.243 15.6437 18.8895 15.2903C18.543 14.9438 18.3533 14.9417 18.2865 14.9485Z" fill="#101010"/>
<path fill-rule="evenodd" clip-rule="evenodd" d="M16.4987 14.5573C16.8978 14.4465 17.3112 14.6801 17.422 15.0792C17.6516 15.9058 18.2936 16.5477 19.1201 16.7773C19.5192 16.8882 19.7529 17.3016 19.642 17.7007C19.5312 18.0998 19.1178 18.3335 18.7187 18.2226C17.3852 17.8522 16.3472 16.8142 15.9768 15.4807C15.8659 15.0816 16.0996 14.6682 16.4987 14.5573Z" fill="#101010"/>
<path fill-rule="evenodd" clip-rule="evenodd" d="M2.7371 4.38534C2.09637 5.07535 1.75 6.11497 1.75 7.5V16C1.75 17.385 2.09637 18.4246 2.7371 19.1147C3.36848 19.7946 4.39295 20.25 6 20.25H10C10.4142 20.25 10.75 20.5858 10.75 21C10.75 21.4142 10.4142 21.75 10 21.75H6C4.10705 21.75 2.63152 21.2054 1.6379 20.1353C0.653634 19.0754 0.25 17.615 0.25 16V7.5C0.25 5.88503 0.653634 4.42465 1.6379 3.36466C2.63152 2.29462 4.10705 1.75 6 1.75H14C15.893 1.75 17.3685 2.29462 18.3621 3.36466C19.3464 4.42465 19.75 5.88503 19.75 7.5V11C19.75 11.4142 19.4142 11.75 19 11.75C18.5858 11.75 18.25 11.4142 18.25 11V7.5C18.25 6.11497 17.9036 5.07535 17.2629 4.38534C16.6315 3.70538 15.607 3.25 14 3.25H6C4.39295 3.25 3.36848 3.70538 2.7371 4.38534Z" fill="#101010"/>
<path fill-rule="evenodd" clip-rule="evenodd" d="M8.99512 12.7C8.99512 12.1477 9.44283 11.7 9.99512 11.7H10.0041C10.5564 11.7 11.0041 12.1477 11.0041 12.7C11.0041 13.2522 10.5564 13.7 10.0041 13.7H9.99512C9.44283 13.7 8.99512 13.2522 8.99512 12.7Z" fill="#101010"/>
<path fill-rule="evenodd" clip-rule="evenodd" d="M5.29395 12.7C5.29395 12.1477 5.74166 11.7 6.29395 11.7H6.30293C6.85521 11.7 7.30293 12.1477 7.30293 12.7C7.30293 13.2522 6.85521 13.7 6.30293 13.7H6.29395C5.74166 13.7 5.29395 13.2522 5.29395 12.7Z" fill="#101010"/>
<path fill-rule="evenodd" clip-rule="evenodd" d="M5.29395 15.7C5.29395 15.1477 5.74166 14.7 6.29395 14.7H6.30293C6.85521 14.7 7.30293 15.1477 7.30293 15.7C7.30293 16.2522 6.85521 16.7 6.30293 16.7H6.29395C5.74166 16.7 5.29395 16.2522 5.29395 15.7Z" fill="#101010"/>
</svg>
