<svg width="22" height="22" viewBox="0 0 22 22" fill="none" xmlns="http://www.w3.org/2000/svg">
<path fill-rule="evenodd" clip-rule="evenodd" d="M11 1.75C5.89137 1.75 1.75 5.89137 1.75 11C1.75 16.1086 5.89137 20.25 11 20.25C16.1086 20.25 20.25 16.1086 20.25 11C20.25 5.89137 16.1086 1.75 11 1.75ZM0.25 11C0.25 5.06294 5.06294 0.25 11 0.25C16.9371 0.25 21.75 5.06294 21.75 11C21.75 16.9371 16.9371 21.75 11 21.75C5.06294 21.75 0.25 16.9371 0.25 11Z" fill="#101010"/>
<path fill-rule="evenodd" clip-rule="evenodd" d="M8.88965 4.07996C9.30386 4.07996 9.63965 4.41574 9.63965 4.82996V6.82996C9.63965 7.24417 9.30386 7.57996 8.88965 7.57996C8.47543 7.57996 8.13965 7.24417 8.13965 6.82996V4.82996C8.13965 4.41574 8.47543 4.07996 8.88965 4.07996Z" fill="#101010"/>
<path fill-rule="evenodd" clip-rule="evenodd" d="M13.1104 4.07996C13.5246 4.07996 13.8604 4.41574 13.8604 4.82996V6.82996C13.8604 7.24417 13.5246 7.57996 13.1104 7.57996C12.6961 7.57996 12.3604 7.24417 12.3604 6.82996V4.82996C12.3604 4.41574 12.6961 4.07996 13.1104 4.07996Z" fill="#101010"/>
<path fill-rule="evenodd" clip-rule="evenodd" d="M5.78027 9.14001C5.78027 8.7258 6.11606 8.39001 6.53027 8.39001H15.4703C15.8845 8.39001 16.2203 8.7258 16.2203 9.14001C16.2203 9.55423 15.8845 9.89001 15.4703 9.89001H6.53027C6.11606 9.89001 5.78027 9.55423 5.78027 9.14001Z" fill="#101010"/>
<path fill-rule="evenodd" clip-rule="evenodd" d="M7.10672 7.36099C6.56575 7.93147 6.25 8.73994 6.25 9.66992V12.6699C6.25 13.5999 6.56575 14.4084 7.10672 14.9789C7.64187 15.5432 8.4397 15.9199 9.5 15.9199H12.5C13.5603 15.9199 14.3581 15.5432 14.8933 14.9789C15.4343 14.4084 15.75 13.5999 15.75 12.6699V9.66992C15.75 8.73994 15.4343 7.93147 14.8933 7.36099C14.3581 6.79665 13.5603 6.41992 12.5 6.41992H9.5C8.4397 6.41992 7.64187 6.79665 7.10672 7.36099ZM6.01828 6.32885C6.85813 5.4432 8.0603 4.91992 9.5 4.91992H12.5C13.9397 4.91992 15.1419 5.4432 15.9817 6.32885C16.8157 7.20838 17.25 8.3999 17.25 9.66992V12.6699C17.25 13.9399 16.8157 15.1315 15.9817 16.011C15.1419 16.8966 13.9397 17.4199 12.5 17.4199H9.5C8.0603 17.4199 6.85813 16.8966 6.01828 16.011C5.18425 15.1315 4.75 13.9399 4.75 12.6699V9.66992C4.75 8.3999 5.18425 7.20838 6.01828 6.32885Z" fill="#101010"/>
</svg>
