<svg width="22" height="22" viewBox="0 0 22 22" fill="none" xmlns="http://www.w3.org/2000/svg">
<path fill-rule="evenodd" clip-rule="evenodd" d="M4.59 1.75C4.08187 1.75 3.56293 1.95593 3.03614 2.47449L3.03046 2.48008L3.02467 2.48555C2.56991 2.91456 2.25506 3.38355 2.05792 3.88459L2.05637 3.88855C1.85415 4.39409 1.75 4.94888 1.75 5.54C1.75 6.46267 1.96266 7.45326 2.41075 8.51784C2.86507 9.58711 3.49483 10.6779 4.28758 11.7803C5.0935 12.887 5.99752 13.9469 7.00038 14.9597C8.01353 15.9629 9.07413 16.8675 10.1922 17.6842C11.291 18.4842 12.3917 19.1146 13.484 19.58C14.5587 20.0379 15.5486 20.25 16.45 20.25C17.0548 20.25 17.6064 20.1382 18.1115 19.9277L18.1156 19.926C18.6104 19.7232 19.0604 19.4034 19.4843 18.9364M1.98958 1.39989C2.74153 0.661982 3.62059 0.25 4.59 0.25C4.97318 0.25 5.36311 0.331382 5.71941 0.501397C6.08755 0.672288 6.42309 0.933929 6.68396 1.30922L9.00026 4.574C9.20529 4.85906 9.3657 5.13796 9.48183 5.42035C9.59972 5.6971 9.68 6.00644 9.68 6.32C9.68 6.70687 9.56726 7.07663 9.36705 7.40939C9.19678 7.70784 8.96427 7.99567 8.69563 8.26502L8.00688 8.98096C8.01385 8.99743 8.02321 9.01968 8.03333 9.04549C8.183 9.30787 8.44802 9.67722 8.84989 10.1524C9.29001 10.6609 9.75677 11.1761 10.2604 11.6897C10.7923 12.2116 11.2961 12.6858 11.8048 13.1178C12.2858 13.5247 12.6606 13.7841 12.933 13.9322C12.955 13.9417 12.9753 13.9509 12.9918 13.9584L13.6815 13.2778C13.955 13.0046 14.2482 12.7638 14.5612 12.5966C14.8882 12.4019 15.2447 12.29 15.64 12.29C15.9399 12.29 16.2362 12.354 16.534 12.4758C16.8169 12.5916 17.0939 12.7509 17.3717 12.9398L17.378 12.9441L20.6909 15.2961C21.0455 15.5425 21.3234 15.8545 21.4965 16.2479L21.5016 16.2596L21.5064 16.2715C21.6338 16.59 21.72 16.9351 21.72 17.33C21.72 17.8025 21.6147 18.2817 21.3982 18.7403C21.1984 19.1633 20.9381 19.5658 20.5957 19.9436C20.0402 20.5559 19.4107 21.0159 18.6865 21.3131C17.9922 21.6021 17.2445 21.75 16.45 21.75C15.3114 21.75 14.1213 21.4821 12.896 20.96C11.6885 20.4455 10.4895 19.7561 9.30855 18.8963L9.30762 18.8956C8.12671 18.0331 7.00824 17.0786 5.94224 16.0229L5.93709 16.0178C4.88147 14.9519 3.92677 13.8332 3.07368 12.6614L3.07114 12.658C2.22474 11.4813 1.5351 10.293 1.0297 9.10323L1.02877 9.10104C0.517192 7.88605 0.25 6.69701 0.25 5.54C0.25 4.77184 0.385604 4.02732 0.662859 3.33342C0.944867 2.61753 1.38783 1.96904 1.98958 1.39989ZM4.59 1.75C4.76498 1.75 4.93314 1.78783 5.07545 1.85614L4.59 1.75ZM5.45336 2.16691C5.35581 2.02601 5.23429 1.92955 5.08571 1.86097L5.07545 1.85614M5.45336 2.16691L7.77831 5.44398L5.45336 2.16691ZM8.09584 5.99397C8.03246 5.83904 7.93418 5.66049 7.78135 5.44823L7.77831 5.44398M8.18 6.32C8.18 6.25575 8.16141 6.14722 8.10064 6.00544L8.09584 5.99397M8.18 6.32C8.18 6.40903 8.15514 6.51553 8.07935 6.64004L8.18 6.32ZM8.07935 6.64004L8.07305 6.6504L8.07935 6.64004ZM8.07305 6.6504L8.06708 6.66096L8.07305 6.6504ZM8.06708 6.66096C7.97896 6.81685 7.83569 7.00365 7.62967 7.20967L8.06708 6.66096ZM7.62967 7.20967L7.62454 7.2148L7.62967 7.20967ZM7.62454 7.2148L7.61951 7.22003L7.62454 7.2148ZM7.61951 7.22003L6.86359 8.00579L7.61951 7.22003ZM6.86359 8.00579C6.6056 8.26699 6.49 8.59078 6.49 8.93C6.49 9.08105 6.51008 9.21265 6.54239 9.3419L6.55275 9.38334L6.56775 9.42334C6.58736 9.47562 6.60704 9.52203 6.61951 9.55142C6.62075 9.55437 6.62193 9.55714 6.62302 9.55973C6.63602 9.59044 6.63857 9.59746 6.63858 9.59746L6.6596 9.66052L6.69158 9.71914C6.90702 10.1141 7.25419 10.5888 7.70746 11.1245L7.71287 11.1308C8.1705 11.6596 8.66123 12.2016 9.19464 12.7453L9.1996 12.7503L9.20465 12.7553C9.75068 13.2912 10.2851 13.7952 10.8346 14.2617L10.8355 14.2625C11.3777 14.7213 11.8536 15.0582 12.2591 15.2728L12.2944 15.2915L12.3315 15.3064C12.3366 15.3084 12.3476 15.3132 12.38 15.328C12.4073 15.3406 12.4492 15.3599 12.4946 15.3794L12.5105 15.3862L12.5267 15.3922C12.7163 15.4633 12.8919 15.48 13.04 15.48C13.4185 15.48 13.7355 15.3341 13.9782 15.0924L14.7368 14.3438L14.7403 14.3403C14.96 14.1207 15.1389 13.987 15.2769 13.9149L15.2988 13.9035L15.32 13.8906C15.4472 13.8132 15.5438 13.79 15.64 13.79C15.7201 13.79 15.8238 13.806 15.966 13.8642C16.1216 13.9278 16.3028 14.0273 16.5222 14.1761L19.8258 16.5215L19.8331 16.5266C19.9913 16.6362 20.072 16.74 20.1189 16.8418C20.1879 17.0176 20.22 17.1689 20.22 17.33C20.22 17.5775 20.1653 17.8383 20.0418 18.0997C19.9016 18.3966 19.7217 18.6743 19.4843 18.9364" fill="#101010"/>
<path fill-rule="evenodd" clip-rule="evenodd" d="M13.25 4.5C13.25 4.08579 13.5858 3.75 14 3.75C15.1417 3.75 16.1765 4.46194 16.8791 5.21911C17.2734 5.64175 17.6064 6.11523 17.8445 6.57833C18.075 7.02657 18.25 7.53018 18.25 8C18.25 8.41421 17.9142 8.75 17.5 8.75C17.0858 8.75 16.75 8.41421 16.75 8C16.75 7.86982 16.69 7.61343 16.5105 7.26417C16.3387 6.93008 16.087 6.56889 15.7817 6.24174L15.7801 6.24004L15.7801 6.24003C15.2027 5.61753 14.5379 5.25 14 5.25C13.5858 5.25 13.25 4.91421 13.25 4.5Z" fill="#101010"/>
<path fill-rule="evenodd" clip-rule="evenodd" d="M13.25 1C13.25 0.585786 13.5858 0.25 14 0.25C18.2842 0.25 21.75 3.71579 21.75 8C21.75 8.41421 21.4142 8.75 21 8.75C20.5858 8.75 20.25 8.41421 20.25 8C20.25 4.54421 17.4558 1.75 14 1.75C13.5858 1.75 13.25 1.41421 13.25 1Z" fill="#101010"/>
</svg>
