<svg width="20" height="22" viewBox="0 0 20 22" fill="none" xmlns="http://www.w3.org/2000/svg">
<path fill-rule="evenodd" clip-rule="evenodd" d="M4.5 13.25C4.91421 13.25 5.25 13.5858 5.25 14V21C5.25 21.4142 4.91421 21.75 4.5 21.75C4.08579 21.75 3.75 21.4142 3.75 21V14C3.75 13.5858 4.08579 13.25 4.5 13.25Z" fill="#101010"/>
<path fill-rule="evenodd" clip-rule="evenodd" d="M4.5 0.25C4.91421 0.25 5.25 0.585786 5.25 1V4C5.25 4.41421 4.91421 4.75 4.5 4.75C4.08579 4.75 3.75 4.41421 3.75 4V1C3.75 0.585786 4.08579 0.25 4.5 0.25Z" fill="#101010"/>
<path fill-rule="evenodd" clip-rule="evenodd" d="M15.5 17.25C15.9142 17.25 16.25 17.5858 16.25 18V21C16.25 21.4142 15.9142 21.75 15.5 21.75C15.0858 21.75 14.75 21.4142 14.75 21V18C14.75 17.5858 15.0858 17.25 15.5 17.25Z" fill="#101010"/>
<path fill-rule="evenodd" clip-rule="evenodd" d="M15.5 0.25C15.9142 0.25 16.25 0.585786 16.25 1V8C16.25 8.41421 15.9142 8.75 15.5 8.75C15.0858 8.75 14.75 8.41421 14.75 8V1C14.75 0.585786 15.0858 0.25 15.5 0.25Z" fill="#101010"/>
<path fill-rule="evenodd" clip-rule="evenodd" d="M2.50556 5.0772C2.35438 5.25257 2.25 5.54853 2.25 6V12C2.25 12.4515 2.35438 12.7474 2.50556 12.9228C2.63885 13.0774 2.90484 13.25 3.5 13.25H5.5C6.09516 13.25 6.36115 13.0774 6.49444 12.9228C6.64562 12.7474 6.75 12.4515 6.75 12V6C6.75 5.54853 6.64562 5.25257 6.49444 5.0772C6.36115 4.92258 6.09516 4.75 5.5 4.75H3.5C2.90484 4.75 2.63885 4.92258 2.50556 5.0772ZM1.36944 4.0978C1.86115 3.52742 2.59516 3.25 3.5 3.25H5.5C6.40484 3.25 7.13885 3.52742 7.63056 4.0978C8.10438 4.64743 8.25 5.35147 8.25 6V12C8.25 12.6485 8.10438 13.3526 7.63056 13.9022C7.13885 14.4726 6.40484 14.75 5.5 14.75H3.5C2.59516 14.75 1.86115 14.4726 1.36944 13.9022C0.895621 13.3526 0.75 12.6485 0.75 12V6C0.75 5.35147 0.895621 4.64743 1.36944 4.0978Z" fill="#101010"/>
<path fill-rule="evenodd" clip-rule="evenodd" d="M13.5056 9.0772C13.3544 9.25257 13.25 9.54853 13.25 10V16C13.25 16.4515 13.3544 16.7474 13.5056 16.9228C13.6389 17.0774 13.9048 17.25 14.5 17.25H16.5C17.0952 17.25 17.3611 17.0774 17.4944 16.9228C17.6456 16.7474 17.75 16.4515 17.75 16V10C17.75 9.54853 17.6456 9.25257 17.4944 9.0772C17.3611 8.92258 17.0952 8.75 16.5 8.75H14.5C13.9048 8.75 13.6389 8.92258 13.5056 9.0772ZM12.3694 8.0978C12.8611 7.52742 13.5952 7.25 14.5 7.25H16.5C17.4048 7.25 18.1389 7.52742 18.6306 8.0978C19.1044 8.64743 19.25 9.35147 19.25 10V16C19.25 16.6485 19.1044 17.3526 18.6306 17.9022C18.1389 18.4726 17.4048 18.75 16.5 18.75H14.5C13.5952 18.75 12.8611 18.4726 12.3694 17.9022C11.8956 17.3526 11.75 16.6485 11.75 16V10C11.75 9.35147 11.8956 8.64743 12.3694 8.0978Z" fill="#101010"/>
</svg>
