<svg width="22" height="20" viewBox="0 0 22 20" fill="none" xmlns="http://www.w3.org/2000/svg">
<path fill-rule="evenodd" clip-rule="evenodd" d="M13.25 15.5C13.25 15.0858 13.5858 14.75 14 14.75H21C21.4142 14.75 21.75 15.0858 21.75 15.5C21.75 15.9142 21.4142 16.25 21 16.25H14C13.5858 16.25 13.25 15.9142 13.25 15.5Z" fill="#101010"/>
<path fill-rule="evenodd" clip-rule="evenodd" d="M0.25 15.5C0.25 15.0858 0.585786 14.75 1 14.75H4C4.41421 14.75 4.75 15.0858 4.75 15.5C4.75 15.9142 4.41421 16.25 4 16.25H1C0.585786 16.25 0.25 15.9142 0.25 15.5Z" fill="#101010"/>
<path fill-rule="evenodd" clip-rule="evenodd" d="M17.25 4.5C17.25 4.08579 17.5858 3.75 18 3.75H21C21.4142 3.75 21.75 4.08579 21.75 4.5C21.75 4.91421 21.4142 5.25 21 5.25H18C17.5858 5.25 17.25 4.91421 17.25 4.5Z" fill="#101010"/>
<path fill-rule="evenodd" clip-rule="evenodd" d="M0.25 4.5C0.25 4.08579 0.585786 3.75 1 3.75H8C8.41421 3.75 8.75 4.08579 8.75 4.5C8.75 4.91421 8.41421 5.25 8 5.25H1C0.585786 5.25 0.25 4.91421 0.25 4.5Z" fill="#101010"/>
<path fill-rule="evenodd" clip-rule="evenodd" d="M5.0772 13.5056C4.92258 13.6389 4.75 13.9048 4.75 14.5V16.5C4.75 17.0952 4.92258 17.3611 5.0772 17.4944C5.25257 17.6456 5.54853 17.75 6 17.75H12C12.4515 17.75 12.7474 17.6456 12.9228 17.4944C13.0774 17.3611 13.25 17.0952 13.25 16.5V14.5C13.25 13.9048 13.0774 13.6389 12.9228 13.5056C12.7474 13.3544 12.4515 13.25 12 13.25H6C5.54853 13.25 5.25257 13.3544 5.0772 13.5056ZM4.0978 12.3694C4.64743 11.8956 5.35147 11.75 6 11.75H12C12.6485 11.75 13.3526 11.8956 13.9022 12.3694C14.4726 12.8611 14.75 13.5952 14.75 14.5V16.5C14.75 17.4048 14.4726 18.1389 13.9022 18.6306C13.3526 19.1044 12.6485 19.25 12 19.25H6C5.35147 19.25 4.64743 19.1044 4.0978 18.6306C3.52742 18.1389 3.25 17.4048 3.25 16.5V14.5C3.25 13.5952 3.52742 12.8611 4.0978 12.3694Z" fill="#101010"/>
<path fill-rule="evenodd" clip-rule="evenodd" d="M9.0772 2.50556C8.92258 2.63885 8.75 2.90484 8.75 3.5V5.5C8.75 6.09516 8.92258 6.36115 9.0772 6.49444C9.25257 6.64562 9.54853 6.75 10 6.75H16C16.4515 6.75 16.7474 6.64562 16.9228 6.49444C17.0774 6.36115 17.25 6.09516 17.25 5.5V3.5C17.25 2.90484 17.0774 2.63885 16.9228 2.50556C16.7474 2.35438 16.4515 2.25 16 2.25H10C9.54853 2.25 9.25257 2.35438 9.0772 2.50556ZM8.0978 1.36944C8.64743 0.895621 9.35147 0.75 10 0.75H16C16.6485 0.75 17.3526 0.895621 17.9022 1.36944C18.4726 1.86115 18.75 2.59516 18.75 3.5V5.5C18.75 6.40484 18.4726 7.13885 17.9022 7.63056C17.3526 8.10438 16.6485 8.25 16 8.25H10C9.35147 8.25 8.64743 8.10438 8.0978 7.63056C7.52742 7.13885 7.25 6.40484 7.25 5.5V3.5C7.25 2.59516 7.52742 1.86115 8.0978 1.36944Z" fill="#101010"/>
</svg>
