<svg width="22" height="21" viewBox="0 0 22 21" fill="none" xmlns="http://www.w3.org/2000/svg">
<path fill-rule="evenodd" clip-rule="evenodd" d="M4.45993 1.11569C5.13644 0.423609 6.1214 0.0799561 7.49001 0.0799561H14.51C15.8786 0.0799561 16.8636 0.423609 17.5401 1.11569C18.1893 1.77982 18.44 2.65683 18.6039 3.43545L18.6042 3.43661L19.7342 8.84661C19.7803 9.06765 19.7244 9.29773 19.582 9.47297C19.4396 9.64821 19.2258 9.74996 19 9.74996H3.00001C2.77419 9.74996 2.5604 9.64821 2.41798 9.47297C2.27556 9.29773 2.21968 9.06765 2.26585 8.84661L3.39609 3.43545C3.56001 2.65683 3.81074 1.77982 4.45993 1.11569ZM4.86392 3.74446C4.86388 3.74465 4.86396 3.74428 4.86392 3.74446L3.92285 8.24996H18.0772L17.1361 3.74446C17.136 3.74422 17.1361 3.74471 17.1361 3.74446C16.98 3.00348 16.7956 2.49998 16.4674 2.16422C16.1664 1.8563 15.6314 1.57996 14.51 1.57996H7.49001C6.36861 1.57996 5.83357 1.8563 5.53259 2.16422C5.20435 2.50001 5.01998 3.00338 4.86392 3.74446Z" fill="#101010"/>
<path fill-rule="evenodd" clip-rule="evenodd" d="M2.31664 11.7997C2.31663 11.7999 2.31666 11.7995 2.31664 11.7997L1.75674 17.8887L1.75659 17.8902C1.68951 18.6038 2.26515 19.25 3.03989 19.25H4.91989C5.35978 19.25 5.44569 19.1565 5.44732 19.1548C5.48292 19.121 5.51943 19.0597 5.62837 18.7328L5.82837 18.1328C5.83363 18.1171 5.839 18.1009 5.8445 18.0843C5.95683 17.7452 6.12418 17.24 6.52905 16.8581C6.98727 16.426 7.62123 16.25 8.43989 16.25H13.5599C14.3574 16.25 14.9908 16.3992 15.4536 16.8264C15.8548 17.1968 16.0259 17.7027 16.147 18.0608C16.1547 18.0837 16.1623 18.106 16.1696 18.1276L16.1714 18.1328L16.3714 18.7328C16.4803 19.0597 16.5168 19.121 16.5524 19.1547C16.5527 19.155 16.6363 19.25 17.0799 19.25H18.9599C19.7346 19.25 20.3103 18.6038 20.2432 17.8902L19.6831 11.7997C19.6831 11.7994 19.6831 11.799 19.683 11.7987C19.6115 11.0326 19.5093 10.5798 19.2616 10.286C19.0496 10.0347 18.5901 9.75 17.3799 9.75H4.61989C3.40968 9.75 2.95015 10.0348 2.73819 10.286C2.49037 10.5799 2.3882 11.0333 2.31664 11.7997ZM1.59158 9.31895C2.21463 8.58025 3.2101 8.25 4.61989 8.25H17.3799C18.7897 8.25 19.7851 8.58025 20.4082 9.31895C20.9953 10.0151 21.1082 10.927 21.1766 11.6603L21.1767 11.6613L21.7366 17.7498C21.7366 17.7499 21.7366 17.7497 21.7366 17.7498C21.8893 19.3761 20.585 20.75 18.9599 20.75H17.0799C16.4435 20.75 15.9121 20.615 15.5198 20.2428C15.1846 19.9246 15.0464 19.5049 14.9637 19.2536C14.9584 19.2374 14.9533 19.2219 14.9484 19.2072L14.7493 18.6099C14.5927 18.1515 14.5291 18.0144 14.4362 17.9286C14.379 17.8758 14.2024 17.75 13.5599 17.75H8.43989C7.81854 17.75 7.62751 17.884 7.55823 17.9494C7.45542 18.0463 7.38876 18.1951 7.2514 18.6072L7.0514 19.2072C7.04649 19.2219 7.04139 19.2374 7.03606 19.2536C6.95336 19.5049 6.81522 19.9246 6.47993 20.2428C6.08767 20.615 5.5563 20.75 4.91989 20.75H3.03989C1.41491 20.75 0.110726 19.3767 0.263099 17.7507C0.263126 17.7504 0.263072 17.7509 0.263099 17.7507L0.823133 11.6603C0.89157 10.927 1.00446 10.0151 1.59158 9.31895Z" fill="#101010"/>
<path fill-rule="evenodd" clip-rule="evenodd" d="M1.25 6C1.25 5.58579 1.58579 5.25 2 5.25H3C3.41421 5.25 3.75 5.58579 3.75 6C3.75 6.41421 3.41421 6.75 3 6.75H2C1.58579 6.75 1.25 6.41421 1.25 6Z" fill="#101010"/>
<path fill-rule="evenodd" clip-rule="evenodd" d="M18.25 6C18.25 5.58579 18.5858 5.25 19 5.25H20C20.4142 5.25 20.75 5.58579 20.75 6C20.75 6.41421 20.4142 6.75 20 6.75H19C18.5858 6.75 18.25 6.41421 18.25 6Z" fill="#101010"/>
<path fill-rule="evenodd" clip-rule="evenodd" d="M11 0.25C11.4142 0.25 11.75 0.585786 11.75 1V3C11.75 3.41421 11.4142 3.75 11 3.75C10.5858 3.75 10.25 3.41421 10.25 3V1C10.25 0.585786 10.5858 0.25 11 0.25Z" fill="#101010"/>
<path fill-rule="evenodd" clip-rule="evenodd" d="M8.75 3C8.75 2.58579 9.08579 2.25 9.5 2.25H12.5C12.9142 2.25 13.25 2.58579 13.25 3C13.25 3.41421 12.9142 3.75 12.5 3.75H9.5C9.08579 3.75 8.75 3.41421 8.75 3Z" fill="#101010"/>
<path fill-rule="evenodd" clip-rule="evenodd" d="M4.25 13C4.25 12.5858 4.58579 12.25 5 12.25H8C8.41421 12.25 8.75 12.5858 8.75 13C8.75 13.4142 8.41421 13.75 8 13.75H5C4.58579 13.75 4.25 13.4142 4.25 13Z" fill="#101010"/>
<path fill-rule="evenodd" clip-rule="evenodd" d="M13.25 13C13.25 12.5858 13.5858 12.25 14 12.25H17C17.4142 12.25 17.75 12.5858 17.75 13C17.75 13.4142 17.4142 13.75 17 13.75H14C13.5858 13.75 13.25 13.4142 13.25 13Z" fill="#101010"/>
</svg>
