<svg width="22" height="21" viewBox="0 0 22 21" fill="none" xmlns="http://www.w3.org/2000/svg">
<path fill-rule="evenodd" clip-rule="evenodd" d="M0.25 8C0.25 7.58579 0.585786 7.25 1 7.25H21C21.4142 7.25 21.75 7.58579 21.75 8C21.75 8.41421 21.4142 8.75 21 8.75H1C0.585786 8.75 0.25 8.41421 0.25 8Z" fill="#101010"/>
<path fill-rule="evenodd" clip-rule="evenodd" d="M4.55329 2.279C4.82976 2.26915 5.12566 2.25977 5.43829 2.25977H16.5483C18.3289 2.25977 19.1474 2.49848 19.5782 2.92283C20.0052 3.34339 20.2483 4.14232 20.2483 5.89977V10.3098C20.2483 10.724 20.5841 11.0598 20.9983 11.0598C21.4125 11.0598 21.7483 10.724 21.7483 10.3098V5.89977C21.7483 4.14721 21.5414 2.75114 20.6309 1.8542C19.7241 0.961055 18.3176 0.759766 16.5483 0.759766H5.43829C5.09402 0.759766 4.77272 0.770206 4.49154 0.780248L4.47537 0.781C3.0293 0.863929 1.86176 1.17592 1.11959 2.11101C0.410692 3.00418 0.238281 4.29506 0.238281 5.88977V14.1098C0.238281 15.8623 0.445167 17.2584 1.35572 18.1553C2.26243 19.0485 3.66893 19.2498 5.43829 19.2498H10.5483C10.9625 19.2498 11.2983 18.914 11.2983 18.4998C11.2983 18.0856 10.9625 17.7498 10.5483 17.7498H5.43829C3.65766 17.7498 2.83915 17.5111 2.40836 17.0867C1.9814 16.6661 1.73828 15.8672 1.73828 14.1098V5.88977C1.73828 4.30448 1.93589 3.49536 2.2945 3.04353C2.6192 2.63443 3.21495 2.35671 4.55329 2.279Z" fill="#101010"/>
<path fill-rule="evenodd" clip-rule="evenodd" d="M4.25 14C4.25 13.5858 4.58579 13.25 5 13.25H9C9.41421 13.25 9.75 13.5858 9.75 14C9.75 14.4142 9.41421 14.75 9 14.75H5C4.58579 14.75 4.25 14.4142 4.25 14Z" fill="#101010"/>
<path fill-rule="evenodd" clip-rule="evenodd" d="M17 12.75C15.2042 12.75 13.75 14.2042 13.75 16C13.75 16.6094 13.9205 17.1833 14.2184 17.6663L14.2247 17.6765L14.2246 17.6766C14.7844 18.6177 15.8141 19.25 17 19.25C18.1859 19.25 19.2156 18.6177 19.7754 17.6766L19.7815 17.6663L19.7816 17.6663C20.0795 17.1833 20.25 16.6094 20.25 16C20.25 14.2042 18.7958 12.75 17 12.75ZM12.25 16C12.25 13.3758 14.3758 11.25 17 11.25C19.6242 11.25 21.75 13.3758 21.75 16C21.75 16.8885 21.5017 17.7327 21.0615 18.4486C20.2406 19.8246 18.732 20.75 17 20.75C15.268 20.75 13.7594 19.8246 12.9385 18.4486C12.4983 17.7327 12.25 16.8885 12.25 16Z" fill="#101010"/>
<path fill-rule="evenodd" clip-rule="evenodd" d="M19.112 14.5103C19.3933 14.8144 19.3747 15.2889 19.0706 15.5701L16.9406 17.5401C16.6449 17.8137 16.1859 17.8047 15.9011 17.5199L14.9111 16.5299C14.6182 16.237 14.6182 15.7621 14.9111 15.4692C15.204 15.1763 15.6788 15.1763 15.9717 15.4692L16.4517 15.9492L18.0522 14.4689C18.3562 14.1877 18.8308 14.2062 19.112 14.5103Z" fill="#101010"/>
</svg>
