<svg width="22" height="20" viewBox="0 0 22 20" fill="none" xmlns="http://www.w3.org/2000/svg">
<path fill-rule="evenodd" clip-rule="evenodd" d="M0.250488 6.5C0.250488 6.08579 0.586275 5.75 1.00049 5.75H12.5005C12.9147 5.75 13.2505 6.08579 13.2505 6.5C13.2505 6.91421 12.9147 7.25 12.5005 7.25H1.00049C0.586275 7.25 0.250488 6.91421 0.250488 6.5Z" fill="#101010"/>
<path fill-rule="evenodd" clip-rule="evenodd" d="M4.25049 14.5C4.25049 14.0858 4.58627 13.75 5.00049 13.75H7.00049C7.4147 13.75 7.75049 14.0858 7.75049 14.5C7.75049 14.9142 7.4147 15.25 7.00049 15.25H5.00049C4.58627 15.25 4.25049 14.9142 4.25049 14.5Z" fill="#101010"/>
<path fill-rule="evenodd" clip-rule="evenodd" d="M8.75049 14.5C8.75049 14.0858 9.08627 13.75 9.50049 13.75H13.5005C13.9147 13.75 14.2505 14.0858 14.2505 14.5C14.2505 14.9142 13.9147 15.25 13.5005 15.25H9.50049C9.08627 15.25 8.75049 14.9142 8.75049 14.5Z" fill="#101010"/>
<path fill-rule="evenodd" clip-rule="evenodd" d="M2.41656 2.91207C1.9915 3.33235 1.75049 4.13117 1.75049 5.89V14.11C1.75049 15.8688 1.9915 16.6676 2.41656 17.0879C2.84457 17.5111 3.65949 17.75 5.44049 17.75H16.5605C18.3415 17.75 19.1564 17.5111 19.5844 17.0879C20.0095 16.6676 20.2505 15.8688 20.2505 14.11V10.03C20.2505 9.61579 20.5863 9.28 21.0005 9.28C21.4147 9.28 21.7505 9.61579 21.7505 10.03V14.11C21.7505 15.8612 21.5465 17.2574 20.6391 18.1546C19.7346 19.0489 18.3295 19.25 16.5605 19.25H5.44049C3.67148 19.25 2.2664 19.0489 1.36192 18.1546C0.454481 17.2574 0.250488 15.8612 0.250488 14.11V5.89C0.250488 4.13883 0.454481 2.74265 1.36192 1.84543C2.2664 0.951125 3.67148 0.75 5.44049 0.75H12.5005C12.9147 0.75 13.2505 1.08579 13.2505 1.5C13.2505 1.91421 12.9147 2.25 12.5005 2.25H5.44049C3.65949 2.25 2.84457 2.48887 2.41656 2.91207Z" fill="#101010"/>
<path fill-rule="evenodd" clip-rule="evenodd" d="M14.7505 4.25C14.7505 3.83579 15.0863 3.5 15.5005 3.5H21.0005C21.4147 3.5 21.7505 3.83579 21.7505 4.25C21.7505 4.66421 21.4147 5 21.0005 5H15.5005C15.0863 5 14.7505 4.66421 14.7505 4.25Z" fill="#101010"/>
<path fill-rule="evenodd" clip-rule="evenodd" d="M18.2505 0.75C18.6647 0.75 19.0005 1.08579 19.0005 1.5V7C19.0005 7.41421 18.6647 7.75 18.2505 7.75C17.8363 7.75 17.5005 7.41421 17.5005 7V1.5C17.5005 1.08579 17.8363 0.75 18.2505 0.75Z" fill="#101010"/>
</svg>
