<svg width="22" height="22" viewBox="0 0 22 22" fill="none" xmlns="http://www.w3.org/2000/svg">
<path fill-rule="evenodd" clip-rule="evenodd" d="M15.4105 2.39887C15.7034 2.69176 15.7034 3.16664 15.4105 3.45953L3.46051 15.4095C3.16761 15.7024 2.69274 15.7024 2.39985 15.4095C2.10695 15.1166 2.10695 14.6418 2.39985 14.3489L14.3498 2.39887C14.6427 2.10598 15.1176 2.10598 15.4105 2.39887Z" fill="#101010"/>
<path fill-rule="evenodd" clip-rule="evenodd" d="M11.8319 15.5486C12.1248 15.8415 12.1248 16.3164 11.8319 16.6093L10.6319 17.8093C10.339 18.1022 9.86413 18.1022 9.57123 17.8093C9.27834 17.5164 9.27834 17.0415 9.57123 16.7487L10.7712 15.5486C11.0641 15.2558 11.539 15.2558 11.8319 15.5486Z" fill="#101010"/>
<path fill-rule="evenodd" clip-rule="evenodd" d="M15.7138 11.6684C16.0067 11.9613 16.0067 12.4362 15.7138 12.7291L13.3238 15.1191C13.0309 15.412 12.556 15.412 12.2631 15.1191C11.9702 14.8262 11.9702 14.3513 12.2631 14.0584L14.6531 11.6684C14.946 11.3755 15.4209 11.3755 15.7138 11.6684Z" fill="#101010"/>
<path fill-rule="evenodd" clip-rule="evenodd" d="M11.894 1.75149C11.4362 1.75437 10.8363 2.06512 9.77209 3.12933L3.13209 9.76933C2.06204 10.8394 1.75266 11.4385 1.7505 11.8938C1.74836 12.3455 2.04805 12.9346 3.10209 13.9887L8.01209 18.8987C9.06441 19.951 9.65625 20.2494 10.1095 20.2465C10.5673 20.2436 11.1672 19.9329 12.2314 18.8687L18.8714 12.2287C19.9356 11.1645 20.2464 10.5646 20.2493 10.1068C20.2521 9.65349 19.9538 9.06166 18.9014 8.00933L13.9914 3.09933C12.9391 2.04701 12.3473 1.74863 11.894 1.75149ZM11.8845 0.251516C13.0162 0.244375 14.0044 0.990995 15.0521 2.03867L19.9621 6.94867C21.0098 7.99635 21.7564 8.98451 21.7492 10.1162C21.7421 11.2434 20.9879 12.2335 19.9321 13.2893L13.2921 19.9293C12.2363 20.9851 11.2462 21.7394 10.119 21.7465C8.98727 21.7536 7.9991 21.007 6.95143 19.9593L2.04143 15.0493C0.995469 14.0034 0.245157 13.0175 0.250517 11.8867C0.255859 10.7595 1.01148 9.76862 2.07143 8.70867L8.71143 2.06867C9.76722 1.01288 10.7573 0.258627 11.8845 0.251516Z" fill="#101010"/>
<path fill-rule="evenodd" clip-rule="evenodd" d="M0.250488 20.9985C0.250488 20.5843 0.586275 20.2485 1.00049 20.2485H21.0005C21.4147 20.2485 21.7505 20.5843 21.7505 20.9985C21.7505 21.4127 21.4147 21.7485 21.0005 21.7485H1.00049C0.586275 21.7485 0.250488 21.4127 0.250488 20.9985Z" fill="#101010"/>
</svg>
