<svg width="22" height="22" viewBox="0 0 22 22" fill="none" xmlns="http://www.w3.org/2000/svg">
<path fill-rule="evenodd" clip-rule="evenodd" d="M13.2197 1.21967C13.9099 0.52941 14.8844 0.25 16 0.25H18C19.1156 0.25 20.0901 0.52941 20.7803 1.21967C21.4706 1.90993 21.75 2.88439 21.75 4V6C21.75 7.11561 21.4706 8.09007 20.7803 8.78033C20.0901 9.47059 19.1156 9.75 18 9.75H16C14.8844 9.75 13.9099 9.47059 13.2197 8.78033C12.5294 8.09007 12.25 7.11561 12.25 6V4C12.25 2.88439 12.5294 1.90993 13.2197 1.21967ZM14.2803 2.28033C13.9706 2.59007 13.75 3.11561 13.75 4V6C13.75 6.88439 13.9706 7.40993 14.2803 7.71967C14.5901 8.02941 15.1156 8.25 16 8.25H18C18.8844 8.25 19.4099 8.02941 19.7197 7.71967C20.0294 7.40993 20.25 6.88439 20.25 6V4C20.25 3.11561 20.0294 2.59007 19.7197 2.28033C19.4099 1.97059 18.8844 1.75 18 1.75H16C15.1156 1.75 14.5901 1.97059 14.2803 2.28033Z" fill="#101010"/>
<path fill-rule="evenodd" clip-rule="evenodd" d="M1.21967 13.2197C1.90993 12.5294 2.88439 12.25 4 12.25H6C7.11561 12.25 8.09007 12.5294 8.78033 13.2197C9.47059 13.9099 9.75 14.8844 9.75 16V18C9.75 19.1156 9.47059 20.0901 8.78033 20.7803C8.09007 21.4706 7.11561 21.75 6 21.75H4C2.88439 21.75 1.90993 21.4706 1.21967 20.7803C0.52941 20.0901 0.25 19.1156 0.25 18V16C0.25 14.8844 0.52941 13.9099 1.21967 13.2197ZM2.28033 14.2803C1.97059 14.5901 1.75 15.1156 1.75 16V18C1.75 18.8844 1.97059 19.4099 2.28033 19.7197C2.59007 20.0294 3.11561 20.25 4 20.25H6C6.88439 20.25 7.40993 20.0294 7.71967 19.7197C8.02941 19.4099 8.25 18.8844 8.25 18V16C8.25 15.1156 8.02941 14.5901 7.71967 14.2803C7.40993 13.9706 6.88439 13.75 6 13.75H4C3.11561 13.75 2.59007 13.9706 2.28033 14.2803Z" fill="#101010"/>
<path fill-rule="evenodd" clip-rule="evenodd" d="M5 1.75C3.20507 1.75 1.75 3.20507 1.75 5C1.75 6.79493 3.20507 8.25 5 8.25C6.79493 8.25 8.25 6.79493 8.25 5C8.25 3.20507 6.79493 1.75 5 1.75ZM0.25 5C0.25 2.37665 2.37665 0.25 5 0.25C7.62335 0.25 9.75 2.37665 9.75 5C9.75 7.62335 7.62335 9.75 5 9.75C2.37665 9.75 0.25 7.62335 0.25 5Z" fill="#101010"/>
<path fill-rule="evenodd" clip-rule="evenodd" d="M17 13.75C15.2051 13.75 13.75 15.2051 13.75 17C13.75 18.7949 15.2051 20.25 17 20.25C18.7949 20.25 20.25 18.7949 20.25 17C20.25 15.2051 18.7949 13.75 17 13.75ZM12.25 17C12.25 14.3766 14.3766 12.25 17 12.25C19.6234 12.25 21.75 14.3766 21.75 17C21.75 19.6234 19.6234 21.75 17 21.75C14.3766 21.75 12.25 19.6234 12.25 17Z" fill="#101010"/>
</svg>
