<svg width="22" height="22" viewBox="0 0 22 22" fill="none" xmlns="http://www.w3.org/2000/svg">
<path fill-rule="evenodd" clip-rule="evenodd" d="M2.09467 2.09467C3.42914 0.760201 5.42603 0.25 8 0.25H14C16.574 0.25 18.5709 0.760201 19.9053 2.09467C21.2398 3.42914 21.75 5.42603 21.75 8V14C21.75 16.574 21.2398 18.5709 19.9053 19.9053C18.5709 21.2398 16.574 21.75 14 21.75H8C5.42603 21.75 3.42914 21.2398 2.09467 19.9053C0.760201 18.5709 0.25 16.574 0.25 14V8C0.25 5.42603 0.760201 3.42914 2.09467 2.09467ZM3.15533 3.15533C2.2398 4.07086 1.75 5.57397 1.75 8V14C1.75 16.426 2.2398 17.9291 3.15533 18.8447C4.07086 19.7602 5.57397 20.25 8 20.25H14C16.426 20.25 17.9291 19.7602 18.8447 18.8447C19.7602 17.9291 20.25 16.426 20.25 14V8C20.25 5.57397 19.7602 4.07086 18.8447 3.15533C17.9291 2.2398 16.426 1.75 14 1.75H8C5.57397 1.75 4.07086 2.2398 3.15533 3.15533Z" fill="#101010"/>
<path fill-rule="evenodd" clip-rule="evenodd" d="M11.75 6.5C11.75 4.98579 12.9858 3.75 14.5 3.75C16.0142 3.75 17.25 4.98579 17.25 6.5V15.5C17.25 17.0142 16.0142 18.25 14.5 18.25C12.9733 18.25 11.75 17.0118 11.75 15.5V6.5ZM14.5 5.25C13.8142 5.25 13.25 5.81421 13.25 6.5V15.5C13.25 16.1882 13.8067 16.75 14.5 16.75C15.1858 16.75 15.75 16.1858 15.75 15.5V6.5C15.75 5.81421 15.1858 5.25 14.5 5.25Z" fill="#101010"/>
<path fill-rule="evenodd" clip-rule="evenodd" d="M4.75 12C4.75 10.4858 5.98579 9.25 7.5 9.25C9.01421 9.25 10.25 10.4858 10.25 12V15.5C10.25 17.0142 9.01421 18.25 7.5 18.25C5.97335 18.25 4.75 17.0118 4.75 15.5V12ZM7.5 10.75C6.81421 10.75 6.25 11.3142 6.25 12V15.5C6.25 16.1882 6.80665 16.75 7.5 16.75C8.18579 16.75 8.75 16.1858 8.75 15.5V12C8.75 11.3142 8.18579 10.75 7.5 10.75Z" fill="#101010"/>
</svg>
