<svg width="22" height="22" viewBox="0 0 22 22" fill="none" xmlns="http://www.w3.org/2000/svg">
<path fill-rule="evenodd" clip-rule="evenodd" d="M0.25 21C0.25 20.5858 0.585786 20.25 1 20.25H21C21.4142 20.25 21.75 20.5858 21.75 21C21.75 21.4142 21.4142 21.75 21 21.75H1C0.585786 21.75 0.25 21.4142 0.25 21Z" fill="#101010"/>
<path fill-rule="evenodd" clip-rule="evenodd" d="M8.55119 1.12775C9.00249 0.546076 9.69307 0.25 10.55 0.25H11.45C12.3069 0.25 12.9975 0.546076 13.4488 1.12775C13.8734 1.67498 14 2.36648 14 3V21C14 21.4142 13.6642 21.75 13.25 21.75H8.75C8.33579 21.75 8 21.4142 8 21V3C8 2.36648 8.12661 1.67498 8.55119 1.12775ZM9.73631 2.04725C9.59839 2.22502 9.5 2.53352 9.5 3V20.25H12.5V3C12.5 2.53352 12.4016 2.22502 12.2637 2.04725C12.1525 1.90392 11.9431 1.75 11.45 1.75H10.55C10.0569 1.75 9.84751 1.90392 9.73631 2.04725Z" fill="#101010"/>
<path fill-rule="evenodd" clip-rule="evenodd" d="M1.73259 7.1617C2.13881 6.57267 2.78345 6.25 3.6 6.25H4.4C5.21655 6.25 5.86119 6.57267 6.26741 7.1617C6.64103 7.70345 6.75 8.3804 6.75 9V21C6.75 21.4142 6.41421 21.75 6 21.75H2C1.58579 21.75 1.25 21.4142 1.25 21V9C1.25 8.3804 1.35897 7.70345 1.73259 7.1617ZM2.96741 8.0133C2.84103 8.19655 2.75 8.5196 2.75 9V20.25H5.25V9C5.25 8.5196 5.15897 8.19655 5.03259 8.0133C4.93881 7.87733 4.78345 7.75 4.4 7.75H3.6C3.21655 7.75 3.06119 7.87733 2.96741 8.0133Z" fill="#101010"/>
<path fill-rule="evenodd" clip-rule="evenodd" d="M15.7326 12.1617C16.1388 11.5727 16.7835 11.25 17.6 11.25H18.4C19.2165 11.25 19.8612 11.5727 20.2674 12.1617C20.641 12.7035 20.75 13.3804 20.75 14V21C20.75 21.4142 20.4142 21.75 20 21.75H16C15.5858 21.75 15.25 21.4142 15.25 21V14C15.25 13.3804 15.359 12.7035 15.7326 12.1617ZM16.9674 13.0133C16.841 13.1965 16.75 13.5196 16.75 14V20.25H19.25V14C19.25 13.5196 19.159 13.1965 19.0326 13.0133C18.9388 12.8773 18.7835 12.75 18.4 12.75H17.6C17.2165 12.75 17.0612 12.8773 16.9674 13.0133Z" fill="#101010"/>
</svg>
