<svg width="20" height="22" viewBox="0 0 20 22" fill="none" xmlns="http://www.w3.org/2000/svg">
<path fill-rule="evenodd" clip-rule="evenodd" d="M0.25 21C0.25 20.5858 0.585786 20.25 1 20.25H19C19.4142 20.25 19.75 20.5858 19.75 21C19.75 21.4142 19.4142 21.75 19 21.75H1C0.585786 21.75 0.25 21.4142 0.25 21Z" fill="#101010"/>
<path fill-rule="evenodd" clip-rule="evenodd" d="M0.25 8.37988C0.25 7.41567 1.03579 6.62988 2 6.62988H3.59998C4.56419 6.62988 5.34998 7.41567 5.34998 8.37988V16.9999C5.34998 17.9641 4.56419 18.7499 3.59998 18.7499H2C1.03579 18.7499 0.25 17.9641 0.25 16.9999V8.37988ZM2 8.12988C1.86421 8.12988 1.75 8.2441 1.75 8.37988V16.9999C1.75 17.1357 1.86421 17.2499 2 17.2499H3.59998C3.73576 17.2499 3.84998 17.1357 3.84998 16.9999V8.37988C3.84998 8.2441 3.73576 8.12988 3.59998 8.12988H2Z" fill="#101010"/>
<path fill-rule="evenodd" clip-rule="evenodd" d="M7.4502 5.18994C7.4502 4.22573 8.23598 3.43994 9.2002 3.43994H10.8002C11.7644 3.43994 12.5502 4.22573 12.5502 5.18994V16.9999C12.5502 17.9642 11.7644 18.7499 10.8002 18.7499H9.2002C8.23598 18.7499 7.4502 17.9642 7.4502 16.9999V5.18994ZM9.2002 4.93994C9.06441 4.93994 8.9502 5.05415 8.9502 5.18994V16.9999C8.9502 17.1357 9.06441 17.2499 9.2002 17.2499H10.8002C10.936 17.2499 11.0502 17.1357 11.0502 16.9999V5.18994C11.0502 5.05415 10.936 4.93994 10.8002 4.93994H9.2002Z" fill="#101010"/>
<path fill-rule="evenodd" clip-rule="evenodd" d="M14.6504 2C14.6504 1.03579 15.4362 0.25 16.4004 0.25H18.0004C18.9646 0.25 19.7504 1.03579 19.7504 2V17C19.7504 17.9642 18.9646 18.75 18.0004 18.75H16.4004C15.4362 18.75 14.6504 17.9642 14.6504 17V2ZM16.4004 1.75C16.2646 1.75 16.1504 1.86421 16.1504 2V17C16.1504 17.1358 16.2646 17.25 16.4004 17.25H18.0004C18.1362 17.25 18.2504 17.1358 18.2504 17V2C18.2504 1.86421 18.1362 1.75 18.0004 1.75H16.4004Z" fill="#101010"/>
</svg>
