<svg width="22" height="22" viewBox="0 0 22 22" fill="none" xmlns="http://www.w3.org/2000/svg">
<path fill-rule="evenodd" clip-rule="evenodd" d="M6.5 4.25C5.89105 4.25 5.38302 4.27004 4.94607 4.33246C4.93813 4.3336 4.93017 4.3346 4.9222 4.33548C3.70657 4.46953 3.13894 4.79944 2.81013 5.29874C2.43687 5.86555 2.25 6.81741 2.25 8.5V13.5C2.25 15.1826 2.43687 16.1345 2.81013 16.7013C3.13894 17.2006 3.70657 17.5305 4.9222 17.6645C4.93017 17.6654 4.93813 17.6664 4.94607 17.6675C5.38302 17.73 5.89105 17.75 6.5 17.75H10.02C10.4342 17.75 10.77 18.0858 10.77 18.5C10.77 18.9142 10.4342 19.25 10.02 19.25H6.5C5.8736 19.25 5.28569 19.2303 4.74593 19.1542C3.33727 18.9971 2.23915 18.5615 1.55737 17.5262C0.918133 16.5555 0.75 15.1974 0.75 13.5V8.5C0.75 6.80259 0.918133 5.44445 1.55737 4.47376C2.23915 3.43847 3.33727 3.00291 4.74594 2.84583C5.2857 2.76967 5.8736 2.75 6.5 2.75H9.96C10.3742 2.75 10.71 3.08579 10.71 3.5C10.71 3.91421 10.3742 4.25 9.96 4.25H6.5Z" fill="#101010"/>
<path fill-rule="evenodd" clip-rule="evenodd" d="M13.2695 3.5C13.2695 3.08579 13.6053 2.75 14.0195 2.75H15.4995C16.1259 2.75 16.7138 2.76967 17.2536 2.84583C18.6623 3.00291 19.7604 3.43847 20.4422 4.47376C21.0814 5.44445 21.2495 6.80259 21.2495 8.5V13.5C21.2495 15.1974 21.0814 16.5555 20.4422 17.5262C19.7604 18.5615 18.6623 18.9971 17.2536 19.1542C16.7138 19.2303 16.1259 19.25 15.4995 19.25H14.0195C13.6053 19.25 13.2695 18.9142 13.2695 18.5C13.2695 18.0858 13.6053 17.75 14.0195 17.75H15.4995C16.1085 17.75 16.6165 17.73 17.0535 17.6675C17.0614 17.6664 17.0694 17.6654 17.0773 17.6645C18.293 17.5305 18.8606 17.2006 19.1894 16.7013C19.5627 16.1345 19.7495 15.1826 19.7495 13.5V8.5C19.7495 6.81741 19.5627 5.86555 19.1894 5.29874C18.8606 4.79944 18.293 4.46953 17.0773 4.33548C17.0694 4.3346 17.0614 4.3336 17.0535 4.33246C16.6165 4.27004 16.1085 4.25 15.4995 4.25H14.0195C13.6053 4.25 13.2695 3.91421 13.2695 3.5Z" fill="#101010"/>
<path fill-rule="evenodd" clip-rule="evenodd" d="M14 0.25C14.4142 0.25 14.75 0.585786 14.75 1V21C14.75 21.4142 14.4142 21.75 14 21.75C13.5858 21.75 13.25 21.4142 13.25 21V1C13.25 0.585786 13.5858 0.25 14 0.25Z" fill="#101010"/>
<path fill-rule="evenodd" clip-rule="evenodd" d="M7 6.75C7.41421 6.75 7.75 7.08579 7.75 7.5V14.5C7.75 14.9142 7.41421 15.25 7 15.25C6.58579 15.25 6.25 14.9142 6.25 14.5V7.5C6.25 7.08579 6.58579 6.75 7 6.75Z" fill="#101010"/>
</svg>
