<svg width="22" height="22" viewBox="0 0 22 22" fill="none" xmlns="http://www.w3.org/2000/svg">
<path fill-rule="evenodd" clip-rule="evenodd" d="M0.25 11C0.25 5.06579 5.06579 0.25 11 0.25C16.9342 0.25 21.75 5.06579 21.75 11C21.75 16.9342 16.9342 21.75 11 21.75C5.06579 21.75 0.25 16.9342 0.25 11ZM11 1.75C5.89421 1.75 1.75 5.89421 1.75 11C1.75 16.1058 5.89421 20.25 11 20.25C16.1058 20.25 20.25 16.1058 20.25 11C20.25 5.89421 16.1058 1.75 11 1.75Z" fill="#101010"/>
<path fill-rule="evenodd" clip-rule="evenodd" d="M6.25 11C6.25 8.37579 8.37579 6.25 11 6.25C13.6242 6.25 15.75 8.37579 15.75 11C15.75 13.6242 13.6242 15.75 11 15.75C8.37579 15.75 6.25 13.6242 6.25 11ZM11 7.75C9.20421 7.75 7.75 9.20421 7.75 11C7.75 12.7958 9.20421 14.25 11 14.25C12.7958 14.25 14.25 12.7958 14.25 11C14.25 9.20421 12.7958 7.75 11 7.75Z" fill="#101010"/>
<path fill-rule="evenodd" clip-rule="evenodd" d="M10.84 6.26718C13.9655 5.58412 17.2048 5.58412 20.3303 6.26718C20.7349 6.35561 20.9913 6.75535 20.9029 7.16001C20.8144 7.56467 20.4147 7.82103 20.01 7.73259C17.0955 7.09565 14.0748 7.09565 11.1603 7.73259C10.7556 7.82103 10.3559 7.56467 10.2675 7.16001C10.179 6.75535 10.4354 6.35561 10.84 6.26718Z" fill="#101010"/>
<path fill-rule="evenodd" clip-rule="evenodd" d="M2.71274 4.34851C3.1057 4.21752 3.53044 4.42989 3.66142 4.82285L3.67969 4.87766C4.65861 7.67667 6.16 10.2716 8.10571 12.5077C8.37761 12.8202 8.34471 13.2939 8.03223 13.5658C7.71975 13.8377 7.24601 13.8048 6.97411 13.4923C4.90099 11.1098 3.30303 8.34651 2.2619 5.36745L2.25832 5.35721L2.2584 5.35719L2.2384 5.29719C2.10741 4.90423 2.31978 4.47949 2.71274 4.34851Z" fill="#101010"/>
<path fill-rule="evenodd" clip-rule="evenodd" d="M14.7232 12.2977C15.1111 12.4432 15.3076 12.8755 15.1621 13.2633L15.1382 13.3272C14.1649 16.3321 12.563 19.0994 10.4353 21.444C10.1569 21.7507 9.68261 21.7737 9.37587 21.4954C9.06913 21.217 9.04613 20.7427 9.32449 20.4359C11.3129 18.2449 12.8089 15.6581 13.7162 12.8494C13.7198 12.8384 13.7236 12.8275 13.7276 12.8166L13.7576 12.7366C13.9031 12.3488 14.3354 12.1523 14.7232 12.2977Z" fill="#101010"/>
</svg>
