<svg width="20" height="22" viewBox="0 0 20 22" fill="none" xmlns="http://www.w3.org/2000/svg">
<path fill-rule="evenodd" clip-rule="evenodd" d="M7.92882 0.249908C7.95338 0.249978 7.97713 0.250045 8 0.250045H12C12.0229 0.250045 12.0466 0.249978 12.0712 0.249908C12.5142 0.24865 13.222 0.246639 13.791 0.626008C14.4753 1.08221 14.75 1.901 14.75 3.00005C14.75 3.02291 14.7501 3.04666 14.7501 3.07123C14.7514 3.51421 14.7534 4.22202 14.374 4.79107C13.9178 5.47538 13.099 5.75005 12 5.75005H8C7.97713 5.75005 7.95338 5.75011 7.92882 5.75018C7.48584 5.75144 6.77803 5.75345 6.20897 5.37408C5.52467 4.91788 5.25 4.09909 5.25 3.00005C5.25 1.901 5.52467 1.08221 6.20897 0.626008C6.77803 0.246639 7.48584 0.24865 7.92882 0.249908ZM7.04103 1.87408C6.97533 1.91788 6.75 2.09909 6.75 3.00005C6.75 3.901 6.97533 4.08221 7.04103 4.12601C7.19042 4.2256 7.43524 4.25005 8 4.25005H12C12.901 4.25005 13.0822 4.02471 13.126 3.95902C13.2256 3.80963 13.25 3.56481 13.25 3.00005C13.25 2.09909 13.0247 1.91788 12.959 1.87408C12.8096 1.77449 12.5648 1.75005 12 1.75005H8C7.43524 1.75005 7.19042 1.77449 7.04103 1.87408Z" fill="#101010"/>
<path fill-rule="evenodd" clip-rule="evenodd" d="M6.74891 2.97956C6.77126 3.39317 6.45409 3.74659 6.04048 3.76895C4.43434 3.85576 3.43333 4.19324 2.80215 4.87647C2.1626 5.56876 1.75 6.78083 1.75 9.00004V15C1.75 16.9868 2.01132 18.2312 2.68943 19.0062C3.34587 19.7564 4.56467 20.25 7 20.25H12C12.4142 20.25 12.75 20.5858 12.75 21C12.75 21.4143 12.4142 21.75 12 21.75H7C4.43533 21.75 2.65413 21.2437 1.56057 19.9939C0.48868 18.7689 0.25 17.0133 0.25 15V9.00004C0.25 6.65925 0.672403 4.97132 1.70035 3.85861C2.73667 2.73684 4.23566 2.36431 5.95952 2.27113C6.37313 2.24878 6.72655 2.56595 6.74891 2.97956Z" fill="#101010"/>
<path fill-rule="evenodd" clip-rule="evenodd" d="M13.2511 2.97956C13.2735 2.56595 13.6269 2.24878 14.0405 2.27113C15.7631 2.36425 17.2626 2.73381 18.2993 3.85448C19.3278 4.96625 19.75 6.65475 19.75 9.00004V14C19.75 14.4143 19.4142 14.75 19 14.75C18.5858 14.75 18.25 14.4143 18.25 14V9.00004C18.25 6.77532 17.8372 5.56383 17.1982 4.8731C16.5675 4.19127 15.5669 3.85583 13.9595 3.76895C13.5459 3.74659 13.2288 3.39317 13.2511 2.97956Z" fill="#101010"/>
<path fill-rule="evenodd" clip-rule="evenodd" d="M19 17.25C19.4142 17.25 19.75 17.5858 19.75 18V21C19.75 21.4142 19.4142 21.75 19 21.75H16C15.5858 21.75 15.25 21.4142 15.25 21C15.25 20.5858 15.5858 20.25 16 20.25H18.25V18C18.25 17.5858 18.5858 17.25 19 17.25Z" fill="#101010"/>
<path fill-rule="evenodd" clip-rule="evenodd" d="M12.4697 14.4697C12.7626 14.1768 13.2374 14.1768 13.5303 14.4697L19.4903 20.4297C19.7832 20.7226 19.7832 21.1974 19.4903 21.4903C19.1974 21.7832 18.7226 21.7832 18.4297 21.4903L12.4697 15.5303C12.1768 15.2374 12.1768 14.7626 12.4697 14.4697Z" fill="#101010"/>
</svg>
