<svg width="22" height="22" viewBox="0 0 22 22" fill="none" xmlns="http://www.w3.org/2000/svg">
<path fill-rule="evenodd" clip-rule="evenodd" d="M14.3603 7.63959C14.6531 7.93248 14.6531 8.40736 14.3603 8.70025L8.70025 14.3603C8.40736 14.6531 7.93248 14.6531 7.63959 14.3603C7.3467 14.0674 7.3467 13.5925 7.63959 13.2996L13.2996 7.63959C13.5925 7.3467 14.0674 7.3467 14.3603 7.63959Z" fill="#101010"/>
<path fill-rule="evenodd" clip-rule="evenodd" d="M7.63959 7.63959C7.93248 7.3467 8.40736 7.3467 8.70025 7.63959L14.3603 13.2996C14.6531 13.5925 14.6531 14.0674 14.3603 14.3603C14.0674 14.6531 13.5925 14.6531 13.2996 14.3603L7.63959 8.70025C7.3467 8.40736 7.3467 7.93248 7.63959 7.63959Z" fill="#101010"/>
<path fill-rule="evenodd" clip-rule="evenodd" d="M2.09467 2.09467C3.42914 0.760201 5.42603 0.25 8 0.25H14C16.574 0.25 18.5709 0.760201 19.9053 2.09467C21.2398 3.42914 21.75 5.42603 21.75 8V14C21.75 16.574 21.2398 18.5709 19.9053 19.9053C18.5709 21.2398 16.574 21.75 14 21.75H8C5.42603 21.75 3.42914 21.2398 2.09467 19.9053C0.760201 18.5709 0.25 16.574 0.25 14V8C0.25 5.42603 0.760201 3.42914 2.09467 2.09467ZM3.15533 3.15533C2.2398 4.07086 1.75 5.57397 1.75 8V14C1.75 16.426 2.2398 17.9291 3.15533 18.8447C4.07086 19.7602 5.57397 20.25 8 20.25H14C16.426 20.25 17.9291 19.7602 18.8447 18.8447C19.7602 17.9291 20.25 16.426 20.25 14V8C20.25 5.57397 19.7602 4.07086 18.8447 3.15533C17.9291 2.2398 16.426 1.75 14 1.75H8C5.57397 1.75 4.07086 2.2398 3.15533 3.15533Z" fill="#101010"/>
</svg>
