<svg width="22" height="22" viewBox="0 0 22 22" fill="none" xmlns="http://www.w3.org/2000/svg">
<path fill-rule="evenodd" clip-rule="evenodd" d="M0.25 11C0.25 5.08579 5.08579 0.25 11 0.25C16.9142 0.25 21.75 5.08579 21.75 11C21.75 16.9142 16.9142 21.75 11 21.75C5.08579 21.75 0.25 16.9142 0.25 11ZM11 1.75C5.91421 1.75 1.75 5.91421 1.75 11C1.75 16.0858 5.91421 20.25 11 20.25C16.0858 20.25 20.25 16.0858 20.25 11C20.25 5.91421 16.0858 1.75 11 1.75Z" fill="#101010"/>
<path fill-rule="evenodd" clip-rule="evenodd" d="M14.3603 7.63959C14.6531 7.93248 14.6531 8.40736 14.3603 8.70025L8.70025 14.3603C8.40736 14.6531 7.93248 14.6531 7.63959 14.3603C7.3467 14.0674 7.3467 13.5925 7.63959 13.2996L13.2996 7.63959C13.5925 7.3467 14.0674 7.3467 14.3603 7.63959Z" fill="#101010"/>
<path fill-rule="evenodd" clip-rule="evenodd" d="M7.63959 7.63959C7.93248 7.3467 8.40736 7.3467 8.70025 7.63959L14.3603 13.2996C14.6531 13.5925 14.6531 14.0674 14.3603 14.3603C14.0674 14.6531 13.5925 14.6531 13.2996 14.3603L7.63959 8.70025C7.3467 8.40736 7.3467 7.93248 7.63959 7.63959Z" fill="#101010"/>
</svg>
