<svg width="22" height="22" viewBox="0 0 22 22" fill="none" xmlns="http://www.w3.org/2000/svg">
<path fill-rule="evenodd" clip-rule="evenodd" d="M14.9235 8.34401C14.5859 7.00975 13.8475 6.0546 12.8896 5.49119C11.8307 4.86837 10.5756 4.76643 9.45268 5.06075C8.32971 5.35507 7.28527 6.05965 6.66502 7.12072C6.15139 7.99941 5.95694 9.07446 6.19942 10.2694C3.32283 11.2387 3.64431 15.8552 7.05705 16.0981C7.07477 16.0994 7.09253 16.1 7.1103 16.1H13.7759C14.7805 16.1111 15.737 15.7273 16.4679 15.0712C17.713 13.9803 17.9784 12.3583 17.5653 11.0016C17.1988 9.79783 16.2726 8.71864 14.9235 8.34401ZM7.13672 11.6002C7.22209 11.6006 7.30899 11.5863 7.394 11.5558C7.7838 11.4157 7.98622 10.9861 7.84613 10.5963C7.43075 9.44057 7.57627 8.53417 7.96001 7.8777C8.35413 7.20346 9.04344 6.71867 9.83297 6.51174C10.6225 6.30481 11.4587 6.38975 12.1291 6.78412C12.7818 7.16801 13.35 7.88727 13.5503 9.10202C13.6043 9.4293 13.8668 9.68226 14.1959 9.72403C15.1545 9.8457 15.8587 10.5463 16.1303 11.4384C16.4018 12.3302 16.2083 13.3062 15.4768 13.9452L15.4686 13.9526C15.0013 14.3731 14.4014 14.6076 13.7896 14.6L7.1391 14.6C5.27376 14.4439 5.29842 11.7563 7.13672 11.6002Z" fill="#101010"/>
<path fill-rule="evenodd" clip-rule="evenodd" d="M1 13.25C1.41421 13.25 1.75 13.5858 1.75 14C1.75 16.9666 3.8091 19.4456 6.57821 20.0881L6.30689 19.6359C6.09378 19.2807 6.20896 18.82 6.56414 18.6069C6.91933 18.3938 7.38002 18.5089 7.59313 18.8641L8.64312 20.6141C8.78214 20.8458 8.78578 21.1344 8.65265 21.3695C8.51952 21.6047 8.2702 21.75 8 21.75C3.71579 21.75 0.25 18.2842 0.25 14C0.25 13.5858 0.585786 13.25 1 13.25Z" fill="#101010"/>
<path fill-rule="evenodd" clip-rule="evenodd" d="M13.3474 0.630474C13.4805 0.395344 13.7298 0.25 14 0.25C18.2842 0.25 21.75 3.71579 21.75 8C21.75 8.41421 21.4142 8.75 21 8.75C20.5858 8.75 20.25 8.41421 20.25 8C20.25 5.03342 18.1909 2.55436 15.4218 1.91194L15.6931 2.36413C15.9062 2.71932 15.791 3.18001 15.4359 3.39312C15.0807 3.60623 14.62 3.49105 14.4069 3.13587L13.3569 1.38587C13.2179 1.15417 13.2142 0.865605 13.3474 0.630474Z" fill="#101010"/>
</svg>
