<svg width="22" height="18" viewBox="0 0 22 18" fill="none" xmlns="http://www.w3.org/2000/svg">
<path fill-rule="evenodd" clip-rule="evenodd" d="M6.55296 3.16992C5.1041 4.45432 4.30156 6.56208 5.29672 9.34762C5.37878 9.57731 5.34402 9.83256 5.20352 10.0319C5.06303 10.2313 4.83435 10.3499 4.59044 10.3499H4.56885C0.86153 10.6443 0.850385 16.0342 4.5689 16.3299H15.636C16.7969 16.3385 17.9133 15.9087 18.7629 15.1278L18.7746 15.1172C19.9846 14.0511 20.3949 12.5325 20.1601 11.0796C20.0939 10.6707 20.3718 10.2857 20.7807 10.2196C21.1896 10.1534 21.5747 10.4313 21.6408 10.8402C21.9456 12.7251 21.4176 14.7838 19.7722 16.2374C18.6432 17.2725 17.1632 17.8406 15.6278 17.8299H4.54044C4.52227 17.8299 4.5041 17.8293 4.48598 17.828C-0.796428 17.4434 -1.11217 10.1263 3.61817 8.98515C2.86321 6.03172 3.80546 3.60102 5.55791 2.04747C7.43554 0.382956 10.2055 -0.237527 12.6101 0.535973C13.0044 0.662815 13.2212 1.0853 13.0944 1.47961C12.9676 1.87393 12.5451 2.09075 12.1508 1.96391C10.2653 1.35741 8.04533 1.84693 6.55296 3.16992Z" fill="#101010"/>
<path fill-rule="evenodd" clip-rule="evenodd" d="M3.84093 9.58705C3.84807 9.1729 4.1896 8.84295 4.60375 8.85009C5.29614 8.86203 5.9763 9.02919 6.59623 9.33916C6.96672 9.5244 7.11689 9.9749 6.93164 10.3454C6.7464 10.7159 6.2959 10.866 5.92541 10.6808C5.50535 10.4708 5.04551 10.3579 4.57789 10.3499C4.16374 10.3427 3.83379 10.0012 3.84093 9.58705Z" fill="#101010"/>
<path fill-rule="evenodd" clip-rule="evenodd" d="M15.5957 3.49656C15.5747 3.52394 15.5517 3.54999 15.5268 3.57449C15.025 4.06845 14.7207 4.74789 14.7207 5.5C14.7207 7.01579 15.9549 8.25 17.4707 8.25C18.1146 8.25 18.7183 8.02175 19.1774 7.64822L19.1857 7.64146L19.1857 7.64152C19.8211 7.13952 20.2207 6.36381 20.2207 5.5C20.2207 3.98421 18.9865 2.75 17.4707 2.75C16.7467 2.75 16.0832 3.03183 15.5957 3.49656ZM14.4662 2.50386C15.2339 1.72398 16.3051 1.25 17.4707 1.25C19.8149 1.25 21.7207 3.15579 21.7207 5.5C21.7207 6.83429 21.1021 8.03707 20.1199 8.81516C19.3996 9.3996 18.4649 9.75 17.4707 9.75C15.1265 9.75 13.2207 7.84421 13.2207 5.5C13.2207 4.36961 13.6663 3.33977 14.4005 2.5802C14.4206 2.55346 14.4425 2.52794 14.4662 2.50386Z" fill="#101010"/>
</svg>
