<svg width="20" height="23" viewBox="0 0 20 23" fill="none" xmlns="http://www.w3.org/2000/svg">
<path fill-rule="evenodd" clip-rule="evenodd" d="M15.3966 5.154C14.95 3.20429 13.9062 1.8403 12.56 1.05109C11.1144 0.203602 9.39226 0.0608874 7.84219 0.466961C6.29209 0.873041 4.86012 1.84203 4.01283 3.28917C3.27258 4.5535 3.01043 6.12885 3.44405 7.90389C-0.681803 8.99085 -0.362076 15.4147 4.31643 15.7481C4.33417 15.7493 4.35195 15.75 4.36974 15.75H14.0267C15.3861 15.7607 16.6938 15.2502 17.6987 14.34C20.8997 11.5345 19.4021 6.09962 15.3966 5.154ZM4.39664 9.26008C4.48508 9.26164 4.57531 9.24747 4.6635 9.21576C5.05328 9.07562 5.25566 8.64603 5.11552 8.25624C4.48524 6.50321 4.69691 5.08955 5.30728 4.04706C5.92812 2.98669 7.00491 2.23692 8.22231 1.918C9.43974 1.59906 10.7438 1.72509 11.8014 2.3451C12.841 2.95459 13.7148 4.08347 14.0199 5.92268C14.0741 6.24955 14.3363 6.50211 14.665 6.54396C17.7957 6.94256 19.0774 11.1426 16.7062 13.2153L16.6956 13.2248C15.962 13.8909 15.0132 14.2584 14.0362 14.25L4.39779 14.25C1.27838 14.0036 1.29278 9.50593 4.39664 9.26008Z" fill="#101010"/>
<path fill-rule="evenodd" clip-rule="evenodd" d="M10 14.25C10.4142 14.25 10.75 14.5858 10.75 15V18C10.75 18.4142 10.4142 18.75 10 18.75C9.58579 18.75 9.25 18.4142 9.25 18V15C9.25 14.5858 9.58579 14.25 10 14.25Z" fill="#101010"/>
<path fill-rule="evenodd" clip-rule="evenodd" d="M10 18.75C9.30964 18.75 8.75 19.3096 8.75 20C8.75 20.6904 9.30964 21.25 10 21.25C10.6904 21.25 11.25 20.6904 11.25 20C11.25 19.3096 10.6904 18.75 10 18.75ZM7.25 20C7.25 18.4812 8.48122 17.25 10 17.25C11.5188 17.25 12.75 18.4812 12.75 20C12.75 21.5188 11.5188 22.75 10 22.75C8.48122 22.75 7.25 21.5188 7.25 20Z" fill="#101010"/>
<path fill-rule="evenodd" clip-rule="evenodd" d="M11.25 20C11.25 19.5858 11.5858 19.25 12 19.25H16C16.4142 19.25 16.75 19.5858 16.75 20C16.75 20.4142 16.4142 20.75 16 20.75H12C11.5858 20.75 11.25 20.4142 11.25 20Z" fill="#101010"/>
<path fill-rule="evenodd" clip-rule="evenodd" d="M3.25 20C3.25 19.5858 3.58579 19.25 4 19.25H8C8.41421 19.25 8.75 19.5858 8.75 20C8.75 20.4142 8.41421 20.75 8 20.75H4C3.58579 20.75 3.25 20.4142 3.25 20Z" fill="#101010"/>
</svg>
