<svg width="22" height="18" viewBox="0 0 22 18" fill="none" xmlns="http://www.w3.org/2000/svg">
<path fill-rule="evenodd" clip-rule="evenodd" d="M17.118 5.83098C16.6183 3.57755 15.4271 2.01243 13.8941 1.11207C12.2623 0.153659 10.3156 -0.00919965 8.5606 0.452168C6.80558 0.913544 5.18902 2.0131 4.23478 3.64976C3.38754 5.10288 3.0951 6.92367 3.6258 8.98439C-1.09554 10.1199 -0.805042 17.4443 4.49729 17.8182C4.51484 17.8194 4.53244 17.82 4.55004 17.82H15.6374C17.1722 17.8307 18.6516 17.263 19.7804 16.2288C21.6783 14.5677 22.0952 12.0869 21.455 9.98635C20.8613 8.03881 19.331 6.32647 17.118 5.83098ZM5.15594 8.89014C4.60951 7.05192 4.86648 5.54437 5.53061 4.40529C6.25918 3.15569 7.52075 2.2765 8.94198 1.90288C10.3632 1.52924 11.8909 1.67514 13.1344 2.40548C14.3602 3.12542 15.3827 4.45568 15.7402 6.60319C15.7946 6.92994 16.0569 7.1823 16.3855 7.22404C18.2096 7.45574 19.5212 8.78686 20.0201 10.4237C20.519 12.0605 20.1728 13.8959 18.787 15.1048L18.7725 15.1179C17.9229 15.8988 16.8065 16.3286 15.6456 16.32L4.57761 16.32C0.861324 16.0337 0.86085 10.6377 4.57619 10.3501C5.05065 10.3541 5.51435 10.4668 5.92959 10.6783C6.29868 10.8663 6.7503 10.7195 6.93832 10.3505C7.12634 9.98139 6.97956 9.52977 6.61048 9.34174C6.15406 9.10922 5.66183 8.9575 5.15594 8.89014Z" fill="#101010"/>
<path fill-rule="evenodd" clip-rule="evenodd" d="M17.2697 6.49708C17.2768 6.91123 16.9469 7.25276 16.5327 7.2599C16.0651 7.26796 15.6052 7.3808 15.1852 7.59083C14.8147 7.77607 14.3642 7.62591 14.179 7.25542C13.9937 6.88494 14.1439 6.43443 14.5144 6.24919C15.1343 5.93922 15.8145 5.77206 16.5068 5.76012C16.921 5.75298 17.2625 6.08293 17.2697 6.49708Z" fill="#101010"/>
</svg>
