<svg width="22" height="22" viewBox="0 0 22 22" fill="none" xmlns="http://www.w3.org/2000/svg">
<path fill-rule="evenodd" clip-rule="evenodd" d="M5.28842 10.0672C5.31755 10.4804 5.00621 10.839 4.59303 10.8681C0.851102 11.132 0.842708 16.553 4.56784 16.84H6.46032C6.87453 16.84 7.21032 17.1758 7.21032 17.59C7.21032 18.0042 6.87453 18.34 6.46032 18.34H4.54027C4.52267 18.34 4.50508 18.3394 4.48752 18.3381C-1.12214 17.9426 -1.12214 9.7674 4.48752 9.37185C4.90071 9.34272 5.25928 9.65405 5.28842 10.0672Z" fill="#101010"/>
<path fill-rule="evenodd" clip-rule="evenodd" d="M5.52186 4.92395C4.80277 6.15682 4.56031 7.82037 5.29574 9.86628C5.43585 10.2561 5.23345 10.6857 4.84366 10.8258C4.45386 10.9659 4.02428 10.7635 3.88417 10.3737C3.0146 7.95461 3.26088 5.82316 4.22615 4.16821C5.18111 2.53095 6.79845 1.43047 8.55404 0.968438C10.3096 0.506412 12.2568 0.668826 13.8884 1.62796C15.4212 2.52902 16.6111 4.09558 17.1085 6.3511C19.3212 6.84688 20.849 8.55948 21.4412 10.5068C22.0801 12.6075 21.663 15.0885 19.7693 16.7496C18.6332 17.7811 17.165 18.3506 15.6273 18.34H15.5399C15.1257 18.34 14.7899 18.0042 14.7899 17.59C14.7899 17.1758 15.1257 16.84 15.5399 16.84H15.6355C16.7943 16.8486 17.9028 16.4201 18.7652 15.6353L18.7761 15.6256C20.1577 14.4167 20.5041 12.5805 20.0061 10.9432C19.5083 9.30631 18.1991 7.97566 16.3754 7.74401C16.0465 7.70223 15.784 7.44941 15.7299 7.12227C15.3747 4.97226 14.3532 3.64119 13.1283 2.92108C11.8855 2.19053 10.3577 2.04482 8.93581 2.41904C7.51391 2.79326 6.25126 3.6734 5.52186 4.92395Z" fill="#101010"/>
<path fill-rule="evenodd" clip-rule="evenodd" d="M11 11.28C8.65421 11.28 6.75 13.1842 6.75 15.53C6.75 16.1614 6.88635 16.7491 7.13514 17.2633C7.13867 17.2706 7.14209 17.278 7.14538 17.2854C7.21179 17.4348 7.28544 17.5736 7.36598 17.7025L7.37505 17.7174C8.10546 18.9489 9.4554 19.78 11 19.78C12.5446 19.78 13.8945 18.9489 14.6249 17.7174L14.634 17.7025C14.7146 17.5736 14.7882 17.4348 14.8546 17.2854C14.8579 17.278 14.8613 17.2706 14.8649 17.2633C15.1137 16.7491 15.25 16.1614 15.25 15.53C15.25 13.1842 13.3458 11.28 11 11.28ZM5.25 15.53C5.25 12.3558 7.82579 9.78 11 9.78C14.1742 9.78 16.75 12.3558 16.75 15.53C16.75 16.3744 16.5681 17.1827 16.2204 17.9057C16.1292 18.1095 16.0261 18.3045 15.9107 18.49C14.9201 20.1545 13.0923 21.28 11 21.28C8.90772 21.28 7.07994 20.1545 6.08932 18.49C5.97386 18.3045 5.87077 18.1095 5.77962 17.9057C5.43185 17.1827 5.25 16.3744 5.25 15.53Z" fill="#101010"/>
<path fill-rule="evenodd" clip-rule="evenodd" d="M13.111 14.0408C13.3923 14.3448 13.3738 14.8194 13.0697 15.1006L10.9397 17.0706C10.6439 17.3441 10.1849 17.3352 9.90009 17.0503L8.9101 16.0603C8.6172 15.7674 8.61721 15.2926 8.9101 14.9997C9.203 14.7068 9.67787 14.7068 9.97076 14.9997L10.4507 15.4796L12.0512 13.9994C12.3553 13.7181 12.8298 13.7367 13.111 14.0408Z" fill="#101010"/>
</svg>
