<svg width="22" height="22" viewBox="0 0 22 22" fill="none" xmlns="http://www.w3.org/2000/svg">
<path fill-rule="evenodd" clip-rule="evenodd" d="M7.53033 8.46967C7.82322 8.76256 7.82322 9.23744 7.53033 9.53033L6.06066 11L7.53033 12.4697C7.82322 12.7626 7.82322 13.2374 7.53033 13.5303C7.23744 13.8232 6.76256 13.8232 6.46967 13.5303L4.46967 11.5303C4.17678 11.2374 4.17678 10.7626 4.46967 10.4697L6.46967 8.46967C6.76256 8.17678 7.23744 8.17678 7.53033 8.46967Z" fill="#101010"/>
<path fill-rule="evenodd" clip-rule="evenodd" d="M14.4697 8.46967C14.7626 8.17678 15.2374 8.17678 15.5303 8.46967L17.5303 10.4697C17.8232 10.7626 17.8232 11.2374 17.5303 11.5303L15.5303 13.5303C15.2374 13.8232 14.7626 13.8232 14.4697 13.5303C14.1768 13.2374 14.1768 12.7626 14.4697 12.4697L15.9393 11L14.4697 9.53033C14.1768 9.23744 14.1768 8.76256 14.4697 8.46967Z" fill="#101010"/>
<path fill-rule="evenodd" clip-rule="evenodd" d="M11 1.75C5.89137 1.75 1.75 5.89137 1.75 11C1.75 16.1086 5.89137 20.25 11 20.25C16.1086 20.25 20.25 16.1086 20.25 11C20.25 5.89137 16.1086 1.75 11 1.75ZM0.25 11C0.25 5.06294 5.06294 0.25 11 0.25C16.9371 0.25 21.75 5.06294 21.75 11C21.75 16.9371 16.9371 21.75 11 21.75C5.06294 21.75 0.25 16.9371 0.25 11Z" fill="#101010"/>
<path fill-rule="evenodd" clip-rule="evenodd" d="M12.296 7.98078C12.6766 8.14414 12.8528 8.58514 12.6894 8.96578L10.6894 13.6258C10.526 14.0065 10.085 14.1826 9.7044 14.0192C9.32376 13.8559 9.14762 13.4149 9.31099 13.0342L11.311 8.37419C11.4743 7.99355 11.9153 7.81741 12.296 7.98078Z" fill="#101010"/>
</svg>
