<svg width="22" height="22" viewBox="0 0 22 22" fill="none" xmlns="http://www.w3.org/2000/svg">
<path fill-rule="evenodd" clip-rule="evenodd" d="M8.67035 11.6646C8.85559 12.0351 8.70543 12.4856 8.33494 12.6708C7.79503 12.9408 7.34387 13.3412 7.0047 13.8444C6.94114 13.943 6.94114 14.0571 7.0047 14.1557C7.34387 14.6588 7.79503 15.0592 8.33494 15.3292C8.70543 15.5144 8.85559 15.9649 8.67035 16.3354C8.48511 16.7059 8.0346 16.8561 7.66412 16.6708C6.88546 16.2815 6.23759 15.7033 5.75707 14.9884L5.75272 14.9819L5.75275 14.9819C5.35846 14.3819 5.35846 13.6181 5.75275 13.0181L5.75703 13.0116L5.75707 13.0116C6.23759 12.2967 6.88546 11.7185 7.66412 11.3292C8.0346 11.1439 8.48511 11.2941 8.67035 11.6646Z" fill="#101010"/>
<path fill-rule="evenodd" clip-rule="evenodd" d="M13.5393 11.6646C13.7245 11.2941 14.1751 11.1439 14.5455 11.3292C15.3242 11.7185 15.9721 12.2967 16.4526 13.0116L16.4569 13.0181L16.4569 13.0181C16.8512 13.6181 16.8512 14.3819 16.4569 14.9819L16.4526 14.9884L16.4526 14.9884C15.9721 15.7033 15.3242 16.2815 14.5455 16.6708C14.1751 16.8561 13.7245 16.7059 13.5393 16.3354C13.3541 15.9649 13.5042 15.5144 13.8747 15.3292C14.4146 15.0592 14.8658 14.6588 15.205 14.1557C15.2685 14.0571 15.2685 13.943 15.205 13.8444C14.8658 13.3412 14.4146 12.9408 13.8747 12.6708C13.5042 12.4856 13.3541 12.0351 13.5393 11.6646Z" fill="#101010"/>
<path fill-rule="evenodd" clip-rule="evenodd" d="M2.09467 2.09467C3.42914 0.760201 5.42603 0.25 8 0.25H14C16.574 0.25 18.5709 0.760201 19.9053 2.09467C21.2398 3.42914 21.75 5.42603 21.75 8V14C21.75 16.574 21.2398 18.5709 19.9053 19.9053C18.5709 21.2398 16.574 21.75 14 21.75H8C5.42603 21.75 3.42914 21.2398 2.09467 19.9053C0.760201 18.5709 0.25 16.574 0.25 14V8C0.25 5.42603 0.760201 3.42914 2.09467 2.09467ZM3.15533 3.15533C2.2398 4.07086 1.75 5.57397 1.75 8V14C1.75 16.426 2.2398 17.9291 3.15533 18.8447C4.07086 19.7602 5.57397 20.25 8 20.25H14C16.426 20.25 17.9291 19.7602 18.8447 18.8447C19.7602 17.9291 20.25 16.426 20.25 14V8C20.25 5.57397 19.7602 4.07086 18.8447 3.15533C17.9291 2.2398 16.426 1.75 14 1.75H8C5.57397 1.75 4.07086 2.2398 3.15533 3.15533Z" fill="#101010"/>
<path fill-rule="evenodd" clip-rule="evenodd" d="M21.2005 6.99961C21.2007 7.41382 20.8651 7.74978 20.4509 7.75L1.23086 7.76C0.816645 7.76022 0.480684 7.4246 0.480469 7.01039C0.480253 6.59618 0.815865 6.26022 1.23008 6.26L20.4501 6.25C20.8643 6.24978 21.2003 6.5854 21.2005 6.99961Z" fill="#101010"/>
</svg>
