<svg width="22" height="22" viewBox="0 0 22 22" fill="none" xmlns="http://www.w3.org/2000/svg">
<path fill-rule="evenodd" clip-rule="evenodd" d="M5.21899 7.6646C5.40423 7.29412 5.85474 7.14395 6.22522 7.32919C7.32119 7.87717 8.2608 8.70458 8.94357 9.73355C9.46228 10.5062 9.46189 11.5059 8.9424 12.2782C8.26018 13.2957 7.32128 14.1228 6.22522 14.6708C5.85474 14.8561 5.40423 14.7059 5.21899 14.3354C5.03375 13.9649 5.18392 13.5144 5.5544 13.3292C6.41813 12.8973 7.15908 12.2446 7.69683 11.4424L7.69762 11.4412C7.87721 11.1744 7.87721 10.8356 7.69762 10.5688L7.69472 10.5645L7.69473 10.5645C7.1576 9.75437 6.41773 9.1025 5.5544 8.67083C5.18392 8.48559 5.03375 8.03509 5.21899 7.6646Z" fill="#101010"/>
<path fill-rule="evenodd" clip-rule="evenodd" d="M11.25 14C11.25 13.5858 11.5858 13.25 12 13.25H16C16.4142 13.25 16.75 13.5858 16.75 14C16.75 14.4142 16.4142 14.75 16 14.75H12C11.5858 14.75 11.25 14.4142 11.25 14Z" fill="#101010"/>
<path fill-rule="evenodd" clip-rule="evenodd" d="M2.09467 2.09467C3.42914 0.760201 5.42603 0.25 8 0.25H14C16.574 0.25 18.5709 0.760201 19.9053 2.09467C21.2398 3.42914 21.75 5.42603 21.75 8V14C21.75 16.574 21.2398 18.5709 19.9053 19.9053C18.5709 21.2398 16.574 21.75 14 21.75H8C5.42603 21.75 3.42914 21.2398 2.09467 19.9053C0.760201 18.5709 0.25 16.574 0.25 14V8C0.25 5.42603 0.760201 3.42914 2.09467 2.09467ZM3.15533 3.15533C2.2398 4.07086 1.75 5.57397 1.75 8V14C1.75 16.426 2.2398 17.9291 3.15533 18.8447C4.07086 19.7602 5.57397 20.25 8 20.25H14C16.426 20.25 17.9291 19.7602 18.8447 18.8447C19.7602 17.9291 20.25 16.426 20.25 14V8C20.25 5.57397 19.7602 4.07086 18.8447 3.15533C17.9291 2.2398 16.426 1.75 14 1.75H8C5.57397 1.75 4.07086 2.2398 3.15533 3.15533Z" fill="#101010"/>
</svg>
