<svg width="22" height="22" viewBox="0 0 22 22" fill="none" xmlns="http://www.w3.org/2000/svg">
<path fill-rule="evenodd" clip-rule="evenodd" d="M2.21783 2.21783C1.93991 2.49575 1.75 2.92044 1.75 3.5V17C1.75 17.2111 1.77307 17.4287 1.81401 17.6453C1.84262 17.7692 1.86582 17.8674 1.89445 17.9617C1.93436 18.0813 1.96752 18.1796 2.00171 18.267C2.03272 18.319 2.05622 18.3727 2.0731 18.4265C2.18004 18.6298 2.29612 18.8185 2.42552 18.9908C2.52019 19.102 2.61637 19.207 2.72288 19.3232C2.78986 19.3963 2.87046 19.4657 2.98728 19.5555C2.99953 19.5649 3.01148 19.5747 3.02311 19.5849C3.19164 19.7101 3.37563 19.8228 3.57346 19.9269C3.62924 19.9444 3.68481 19.9689 3.73854 20.0016C3.82118 20.0356 3.91342 20.0665 4.03198 20.1036C4.12814 20.1331 4.22792 20.1567 4.35465 20.186C4.57132 20.2269 4.78895 20.25 5 20.25C5.33603 20.25 5.67153 20.201 5.97375 20.1015C6.08249 20.0619 6.16278 20.0322 6.23964 19.9972C6.25013 19.9924 6.26074 19.9879 6.27144 19.9836C6.54939 19.8725 6.81635 19.7147 7.04881 19.5132C7.05883 19.5045 7.06908 19.4961 7.07955 19.488C7.13995 19.441 7.21654 19.3728 7.28947 19.2999L7.32567 19.2636C7.89538 18.6759 8.25 17.8721 8.25 17V3.5C8.25 2.92044 8.06009 2.49575 7.78217 2.21783C7.50425 1.93991 7.07956 1.75 6.5 1.75H3.5C2.92044 1.75 2.49575 1.93991 2.21783 2.21783ZM1.15717 1.15717C1.75425 0.560086 2.57956 0.25 3.5 0.25H6.5C7.42044 0.25 8.24575 0.560086 8.84283 1.15717C9.43991 1.75425 9.75 2.57956 9.75 3.5V17C9.75 18.2862 9.22602 19.4609 8.39773 20.3128L8.39057 20.3202L8.35054 20.3601C8.24833 20.4623 8.13102 20.569 8.01654 20.6594C7.65728 20.9678 7.25523 21.2038 6.84424 21.37C6.71297 21.4288 6.58582 21.475 6.48509 21.5117L6.47631 21.5148L6.45717 21.5215C5.98175 21.68 5.4806 21.75 5 21.75C4.67527 21.75 4.35741 21.714 4.05838 21.6565C4.04934 21.6548 4.04033 21.6529 4.03137 21.6508L4.02164 21.6485C3.89744 21.6199 3.74523 21.5848 3.58943 21.5368L3.58629 21.5359C3.44134 21.4906 3.27744 21.4372 3.1059 21.3626C3.07152 21.3513 3.03766 21.3374 3.00459 21.3208C2.69324 21.1651 2.38147 20.9815 2.0862 20.7571C2.0707 20.7453 2.05567 20.733 2.04115 20.72C1.90633 20.6151 1.75901 20.4916 1.61715 20.3368L1.61248 20.3317C1.5051 20.2146 1.38685 20.0856 1.26746 19.9445C1.259 19.9345 1.2508 19.9242 1.24287 19.9138C1.01846 19.6185 0.834852 19.3067 0.679186 18.9954C0.662739 18.9625 0.6489 18.9288 0.637626 18.8947C0.571168 18.7353 0.516926 18.5725 0.472411 18.439L0.46848 18.4272L0.463158 18.4106C0.415154 18.2546 0.380002 18.1022 0.351303 17.9778L0.349193 17.9686C0.347124 17.9597 0.34522 17.9507 0.343482 17.9416C0.285969 17.6426 0.25 17.3247 0.25 17V3.5C0.25 2.57956 0.560086 1.75425 1.15717 1.15717ZM1.35001 19.4C1.36233 19.4 1.35651 19.4003 1.34098 19.3999C1.34399 19.4 1.34699 19.4 1.35001 19.4ZM1.31998 18.65L1.29322 18.65C1.30203 18.65 1.31095 18.65 1.31998 18.65ZM0.819676 18.1297C0.819408 18.1299 0.819143 18.1302 0.818876 18.1305C0.823036 18.1262 0.82416 18.1252 0.819676 18.1297ZM3.87033 21.1803C3.87425 21.1765 3.87467 21.176 3.87033 21.1803V21.1803ZM2.60006 20.6591C2.59968 20.6435 2.60001 20.6376 2.60001 20.65C2.60001 20.653 2.60002 20.6561 2.60006 20.6591Z" fill="#101010"/>
<path fill-rule="evenodd" clip-rule="evenodd" d="M14.1301 12.4693C14.2707 12.3289 14.4613 12.25 14.66 12.25H18.5C19.4204 12.25 20.2457 12.5601 20.8428 13.1572C21.4399 13.7543 21.75 14.5796 21.75 15.5V18.5C21.75 19.4204 21.4399 20.2457 20.8428 20.8428C20.2457 21.4399 19.4204 21.75 18.5 21.75H5C4.58579 21.75 4.25 21.4142 4.25 21C4.25 20.5858 4.58579 20.25 5 20.25C5.33605 20.25 5.67156 20.201 5.97379 20.1015C6.08251 20.0619 6.16279 20.0321 6.23964 19.9972C6.25013 19.9924 6.26074 19.9879 6.27144 19.9836C6.54939 19.8725 6.81635 19.7147 7.04881 19.5132C7.05883 19.5045 7.06908 19.4961 7.07955 19.488C7.14 19.441 7.21668 19.3727 7.28968 19.2997L14.1301 12.4693ZM8.46074 20.25H18.5C19.0796 20.25 19.5043 20.0601 19.7822 19.7822C20.0601 19.5043 20.25 19.0796 20.25 18.5V15.5C20.25 14.9204 20.0601 14.4957 19.7822 14.2178C19.5043 13.9399 19.0796 13.75 18.5 13.75H14.9703L8.46074 20.25Z" fill="#101010"/>
<path fill-rule="evenodd" clip-rule="evenodd" d="M0.960432 17.4728C1.35498 17.3521 1.77295 17.5728 1.89584 17.9666C2.21249 18.9815 3.01838 19.7874 4.03327 20.1041C4.42715 20.2269 4.64779 20.6449 4.52706 21.0395C4.40633 21.434 3.98958 21.657 3.59438 21.5384C2.88053 21.3242 2.20095 20.9317 1.63955 20.3604C1.06817 19.799 0.675665 19.1194 0.461511 18.4055C0.34295 18.0103 0.565882 17.5936 0.960432 17.4728Z" fill="#101010"/>
<path fill-rule="evenodd" clip-rule="evenodd" d="M13.4804 4.58502C13.0853 4.58502 12.6495 4.7515 12.2407 5.16035L9.75037 7.65067V16.8429L14.13 12.4697L16.84 9.75968C17.2489 9.35083 17.4154 8.91511 17.4154 8.52001C17.4154 8.12491 17.2489 7.6892 16.84 7.28035L14.72 5.16035C14.3112 4.7515 13.8755 4.58502 13.4804 4.58502ZM13.4804 3.08502C14.3253 3.08502 15.1295 3.44854 15.7807 4.09969L17.9007 6.21969C18.5518 6.87083 18.9154 7.67512 18.9154 8.52001C18.9154 9.36491 18.5518 10.1692 17.9007 10.8203L15.1907 13.5303L8.39029 20.3207C8.09872 20.6119 7.62687 20.6133 7.33357 20.3239C7.04028 20.0345 7.03538 19.5626 7.32261 19.2672C7.89432 18.6792 8.25037 17.8738 8.25037 17V7.34001C8.25037 7.1411 8.32938 6.95034 8.47004 6.80968L11.18 4.09969C11.8312 3.44854 12.6355 3.08502 13.4804 3.08502Z" fill="#101010"/>
<path fill-rule="evenodd" clip-rule="evenodd" d="M5 16.75C4.86193 16.75 4.75 16.8619 4.75 17C4.75 17.1381 4.86193 17.25 5 17.25C5.13807 17.25 5.25 17.1381 5.25 17C5.25 16.8619 5.13807 16.75 5 16.75ZM3.25 17C3.25 16.0335 4.0335 15.25 5 15.25C5.9665 15.25 6.75 16.0335 6.75 17C6.75 17.9665 5.9665 18.75 5 18.75C4.0335 18.75 3.25 17.9665 3.25 17Z" fill="#101010"/>
</svg>
