<svg width="22" height="22" viewBox="0 0 22 22" fill="none" xmlns="http://www.w3.org/2000/svg">
<path fill-rule="evenodd" clip-rule="evenodd" d="M6.25 7C6.25 6.58579 6.58579 6.25 7 6.25H15C15.4142 6.25 15.75 6.58579 15.75 7V15C15.75 15.4142 15.4142 15.75 15 15.75H7C6.58579 15.75 6.25 15.4142 6.25 15V7ZM7.75 7.75V14.25H14.25V7.75H7.75Z" fill="#101010"/>
<path fill-rule="evenodd" clip-rule="evenodd" d="M0.25 18C0.25 15.9358 1.93579 14.25 4 14.25H7C7.41421 14.25 7.75 14.5858 7.75 15V18C7.75 20.0642 6.06421 21.75 4 21.75C1.93579 21.75 0.25 20.0642 0.25 18ZM4 15.75C2.76421 15.75 1.75 16.7642 1.75 18C1.75 19.2358 2.76421 20.25 4 20.25C5.23579 20.25 6.25 19.2358 6.25 18V15.75H4Z" fill="#101010"/>
<path fill-rule="evenodd" clip-rule="evenodd" d="M0.25 4C0.25 1.93579 1.93579 0.25 4 0.25C6.06421 0.25 7.75 1.93579 7.75 4V7C7.75 7.41421 7.41421 7.75 7 7.75H4C1.93579 7.75 0.25 6.06421 0.25 4ZM4 1.75C2.76421 1.75 1.75 2.76421 1.75 4C1.75 5.23579 2.76421 6.25 4 6.25H6.25V4C6.25 2.76421 5.23579 1.75 4 1.75Z" fill="#101010"/>
<path fill-rule="evenodd" clip-rule="evenodd" d="M14.25 4C14.25 1.93579 15.9358 0.25 18 0.25C20.0642 0.25 21.75 1.93579 21.75 4C21.75 6.06421 20.0642 7.75 18 7.75H15C14.5858 7.75 14.25 7.41421 14.25 7V4ZM18 1.75C16.7642 1.75 15.75 2.76421 15.75 4V6.25H18C19.2358 6.25 20.25 5.23579 20.25 4C20.25 2.76421 19.2358 1.75 18 1.75Z" fill="#101010"/>
<path fill-rule="evenodd" clip-rule="evenodd" d="M14.25 15C14.25 14.5858 14.5858 14.25 15 14.25H18C20.0642 14.25 21.75 15.9358 21.75 18C21.75 20.0642 20.0642 21.75 18 21.75C15.9358 21.75 14.25 20.0642 14.25 18V15ZM15.75 15.75V18C15.75 19.2358 16.7642 20.25 18 20.25C19.2358 20.25 20.25 19.2358 20.25 18C20.25 16.7642 19.2358 15.75 18 15.75H15.75Z" fill="#101010"/>
</svg>
