<svg width="22" height="22" viewBox="0 0 22 22" fill="none" xmlns="http://www.w3.org/2000/svg">
<path fill-rule="evenodd" clip-rule="evenodd" d="M7.84961 8.60001C7.84961 8.18579 8.1854 7.85001 8.59961 7.85001H13.3997C13.8139 7.85001 14.1497 8.18579 14.1497 8.60001V13.4C14.1497 13.8142 13.8139 14.15 13.3997 14.15H8.59961C8.1854 14.15 7.84961 13.8142 7.84961 13.4V8.60001ZM9.34961 9.35001V12.65H12.6497V9.35001H9.34961Z" fill="#101010"/>
<path fill-rule="evenodd" clip-rule="evenodd" d="M4.25 15.2C4.25 13.7958 5.39576 12.65 6.79999 12.65H8.59998C9.01419 12.65 9.34998 12.9858 9.34998 13.4V15.2C9.34998 16.6042 8.2042 17.75 6.79999 17.75C5.39577 17.75 4.25 16.6042 4.25 15.2ZM6.79999 14.15C6.22422 14.15 5.75 14.6242 5.75 15.2C5.75 15.7758 6.2242 16.25 6.79999 16.25C7.37577 16.25 7.84998 15.7758 7.84998 15.2V14.15H6.79999Z" fill="#101010"/>
<path fill-rule="evenodd" clip-rule="evenodd" d="M4.25 6.79999C4.25 5.39577 5.39577 4.25 6.79999 4.25C8.2042 4.25 9.34998 5.39577 9.34998 6.79999V8.60001C9.34998 9.01422 9.01419 9.35001 8.59998 9.35001H6.79999C5.39576 9.35001 4.25 8.20418 4.25 6.79999ZM6.79999 5.75C6.2242 5.75 5.75 6.2242 5.75 6.79999C5.75 7.37579 6.22422 7.85001 6.79999 7.85001H7.84998V6.79999C7.84998 6.2242 7.37577 5.75 6.79999 5.75Z" fill="#101010"/>
<path fill-rule="evenodd" clip-rule="evenodd" d="M12.6504 6.79999C12.6504 5.39577 13.7962 4.25 15.2004 4.25C16.6046 4.25 17.7504 5.39577 17.7504 6.79999C17.7504 8.20418 16.6046 9.35001 15.2004 9.35001H13.4004C12.9862 9.35001 12.6504 9.01422 12.6504 8.60001V6.79999ZM15.2004 5.75C14.6246 5.75 14.1504 6.2242 14.1504 6.79999V7.85001H15.2004C15.7761 7.85001 16.2504 7.37579 16.2504 6.79999C16.2504 6.2242 15.7762 5.75 15.2004 5.75Z" fill="#101010"/>
<path fill-rule="evenodd" clip-rule="evenodd" d="M12.6504 13.4C12.6504 12.9858 12.9862 12.65 13.4004 12.65H15.2004C16.6046 12.65 17.7504 13.7958 17.7504 15.2C17.7504 16.6042 16.6046 17.75 15.2004 17.75C13.7962 17.75 12.6504 16.6042 12.6504 15.2V13.4ZM14.1504 14.15V15.2C14.1504 15.7758 14.6246 16.25 15.2004 16.25C15.7762 16.25 16.2504 15.7758 16.2504 15.2C16.2504 14.6242 15.7761 14.15 15.2004 14.15H14.1504Z" fill="#101010"/>
<path fill-rule="evenodd" clip-rule="evenodd" d="M2.09467 2.09467C3.42914 0.760201 5.42603 0.25 8 0.25H14C16.574 0.25 18.5709 0.760201 19.9053 2.09467C21.2398 3.42914 21.75 5.42603 21.75 8V14C21.75 16.574 21.2398 18.5709 19.9053 19.9053C18.5709 21.2398 16.574 21.75 14 21.75H8C5.42603 21.75 3.42914 21.2398 2.09467 19.9053C0.760201 18.5709 0.25 16.574 0.25 14V8C0.25 5.42603 0.760201 3.42914 2.09467 2.09467ZM3.15533 3.15533C2.2398 4.07086 1.75 5.57397 1.75 8V14C1.75 16.426 2.2398 17.9291 3.15533 18.8447C4.07086 19.7602 5.57397 20.25 8 20.25H14C16.426 20.25 17.9291 19.7602 18.8447 18.8447C19.7602 17.9291 20.25 16.426 20.25 14V8C20.25 5.57397 19.7602 4.07086 18.8447 3.15533C17.9291 2.2398 16.426 1.75 14 1.75H8C5.57397 1.75 4.07086 2.2398 3.15533 3.15533Z" fill="#101010"/>
</svg>
