<svg width="22" height="22" viewBox="0 0 22 22" fill="none" xmlns="http://www.w3.org/2000/svg">
<path fill-rule="evenodd" clip-rule="evenodd" d="M2.06488 2.09467C3.39935 0.760201 5.39624 0.25 7.97021 0.25H13.9702C16.5442 0.25 18.5411 0.760201 19.8755 2.09467C21.21 3.42914 21.7202 5.42603 21.7202 8V14C21.7202 16.574 21.21 18.5709 19.8755 19.9053C18.5411 21.2398 16.5442 21.75 13.9702 21.75H7.97021C5.39624 21.75 3.39935 21.2398 2.06488 19.9053C0.730416 18.5709 0.220215 16.574 0.220215 14V8C0.220215 5.42603 0.730416 3.42914 2.06488 2.09467ZM3.12555 3.15533C2.21001 4.07086 1.72021 5.57397 1.72021 8V14C1.72021 16.426 2.21001 17.9291 3.12555 18.8447C4.04108 19.7602 5.54419 20.25 7.97021 20.25H13.9702C16.3962 20.25 17.8994 19.7602 18.8149 18.8447C19.7304 17.9291 20.2202 16.426 20.2202 14V8C20.2202 5.57397 19.7304 4.07086 18.8149 3.15533C17.8994 2.2398 16.3962 1.75 13.9702 1.75H7.97021C5.54419 1.75 4.04108 2.2398 3.12555 3.15533Z" fill="#101010"/>
<path fill-rule="evenodd" clip-rule="evenodd" d="M19.2503 1.71967C19.5432 2.01256 19.5432 2.48744 19.2503 2.78033L2.80035 19.2303C2.50746 19.5232 2.03258 19.5232 1.73969 19.2303C1.4468 18.9374 1.4468 18.4626 1.73969 18.1697L18.1897 1.71967C18.4826 1.42678 18.9575 1.42678 19.2503 1.71967Z" fill="#101010"/>
<path fill-rule="evenodd" clip-rule="evenodd" d="M15.0601 11.25C15.4743 11.25 15.8101 11.5858 15.8101 12V17C15.8101 17.4142 15.4743 17.75 15.0601 17.75C14.6458 17.75 14.3101 17.4142 14.3101 17V12C14.3101 11.5858 14.6458 11.25 15.0601 11.25Z" fill="#101010"/>
<path fill-rule="evenodd" clip-rule="evenodd" d="M11.75 14.5C11.75 14.0858 12.0858 13.75 12.5 13.75H17.5C17.9142 13.75 18.25 14.0858 18.25 14.5C18.25 14.9142 17.9142 15.25 17.5 15.25H12.5C12.0858 15.25 11.75 14.9142 11.75 14.5Z" fill="#101010"/>
<path fill-rule="evenodd" clip-rule="evenodd" d="M3.75 6.5C3.75 6.08579 4.08579 5.75 4.5 5.75H9.5C9.91421 5.75 10.25 6.08579 10.25 6.5C10.25 6.91421 9.91421 7.25 9.5 7.25H4.5C4.08579 7.25 3.75 6.91421 3.75 6.5Z" fill="#101010"/>
</svg>
