<svg width="22" height="22" viewBox="0 0 22 22" fill="none" xmlns="http://www.w3.org/2000/svg">
<path fill-rule="evenodd" clip-rule="evenodd" d="M2.26158 13.2616C1.9648 13.5584 1.75 14.099 1.75 15.15V17.85C1.75 18.901 1.9648 19.4416 2.26158 19.7384C2.55836 20.0352 3.09897 20.25 4.15 20.25H6.85C7.90103 20.25 8.44164 20.0352 8.73842 19.7384C9.0352 19.4416 9.25 18.901 9.25 17.85V15.15C9.25 14.099 9.0352 13.5584 8.73842 13.2616C8.44164 12.9648 7.90103 12.75 6.85 12.75H4.15C3.09897 12.75 2.55836 12.9648 2.26158 13.2616ZM1.20092 12.2009C1.91664 11.4852 2.95103 11.25 4.15 11.25H6.85C8.04897 11.25 9.08336 11.4852 9.79908 12.2009C10.5148 12.9166 10.75 13.951 10.75 15.15V17.85C10.75 19.049 10.5148 20.0834 9.79908 20.7991C9.08336 21.5148 8.04897 21.75 6.85 21.75H4.15C2.95103 21.75 1.91664 21.5148 1.20092 20.7991C0.485201 20.0834 0.25 19.049 0.25 17.85V15.15C0.25 13.951 0.485201 12.9166 1.20092 12.2009Z" fill="#101010"/>
<path fill-rule="evenodd" clip-rule="evenodd" d="M21 13.25C21.4142 13.25 21.75 13.5858 21.75 14C21.75 18.2842 18.2842 21.75 14 21.75C13.7298 21.75 13.4805 21.6047 13.3474 21.3695C13.2142 21.1344 13.2179 20.8458 13.3569 20.6141L14.4069 18.8641C14.62 18.5089 15.0807 18.3938 15.4359 18.6069C15.7911 18.82 15.9062 19.2807 15.6931 19.6359L15.4218 20.0881C18.1909 19.4456 20.25 16.9666 20.25 14C20.25 13.5858 20.5858 13.25 21 13.25Z" fill="#101010"/>
<path fill-rule="evenodd" clip-rule="evenodd" d="M6.57819 1.91194C3.8091 2.55437 1.75 5.03342 1.75 8C1.75 8.41421 1.41421 8.75 1 8.75C0.585786 8.75 0.25 8.41421 0.25 8C0.25 3.71579 3.71579 0.25 8 0.25C8.2702 0.25 8.51952 0.395344 8.65265 0.630476C8.78578 0.865607 8.78214 1.15417 8.64312 1.38587L7.59312 3.13587C7.38001 3.49106 6.91931 3.60623 6.56413 3.39312C6.20894 3.18001 6.09377 2.71931 6.30688 2.36413L6.57819 1.91194Z" fill="#101010"/>
<path fill-rule="evenodd" clip-rule="evenodd" d="M16.5 1.75C14.4289 1.75 12.75 3.42893 12.75 5.5C12.75 7.57107 14.4289 9.25 16.5 9.25C18.5711 9.25 20.25 7.57107 20.25 5.5C20.25 3.42893 18.5711 1.75 16.5 1.75ZM11.25 5.5C11.25 2.6005 13.6005 0.25 16.5 0.25C19.3995 0.25 21.75 2.6005 21.75 5.5C21.75 8.3995 19.3995 10.75 16.5 10.75C13.6005 10.75 11.25 8.3995 11.25 5.5Z" fill="#101010"/>
</svg>
