<svg width="22" height="22" viewBox="0 0 22 22" fill="none" xmlns="http://www.w3.org/2000/svg">
<path fill-rule="evenodd" clip-rule="evenodd" d="M11.0046 1.77576C5.90745 1.77576 1.77539 5.90782 1.77539 11.005C1.77539 16.1021 5.90745 20.2342 11.0046 20.2342C16.1018 20.2342 20.2338 16.1021 20.2338 11.005C20.2338 5.90782 16.1018 1.77576 11.0046 1.77576ZM0.275391 11.005C0.275391 5.07939 5.07902 0.275757 11.0046 0.275757C16.9302 0.275757 21.7338 5.07939 21.7338 11.005C21.7338 16.9305 16.9302 21.7342 11.0046 21.7342C5.07902 21.7342 0.275391 16.9305 0.275391 11.005Z" fill="#101010"/>
<path fill-rule="evenodd" clip-rule="evenodd" d="M4.60704 2.49063C4.90029 2.19809 5.37516 2.19867 5.6677 2.49192L12.5576 9.39872L12.5697 6.66072C12.5715 6.24651 12.9088 5.9122 13.323 5.91402C13.7372 5.91585 14.0715 6.2531 14.0697 6.66731L14.0497 11.2079C14.0484 11.5108 13.865 11.7831 13.5848 11.8983C13.3046 12.0134 12.9827 11.9487 12.7687 11.7342L4.60574 3.55129C4.31321 3.25804 4.31379 2.78316 4.60704 2.49063Z" fill="#101010"/>
<path fill-rule="evenodd" clip-rule="evenodd" d="M8.41437 10.1118C8.69444 9.99657 9.0163 10.0611 9.2303 10.2754L17.3933 18.4483C17.686 18.7414 17.6857 19.2163 17.3926 19.509C17.0996 19.8017 16.6247 19.8014 16.332 19.5084L9.44171 12.6097L9.42968 15.3392C9.42786 15.7535 9.09059 16.0878 8.67638 16.0859C8.26217 16.0841 7.92787 15.7468 7.92969 15.3326L7.94965 10.8021C7.95099 10.4993 8.13431 10.2269 8.41437 10.1118Z" fill="#101010"/>
</svg>
