<svg width="22" height="22" viewBox="0 0 22 22" fill="none" xmlns="http://www.w3.org/2000/svg">
<path fill-rule="evenodd" clip-rule="evenodd" d="M21.001 13.25C21.4152 13.25 21.751 13.5858 21.751 14C21.751 18.2842 18.2852 21.75 14.001 21.75C13.7308 21.75 13.4815 21.6047 13.3483 21.3695C13.2152 21.1344 13.2188 20.8458 13.3579 20.6141L14.4079 18.8641C14.621 18.5089 15.0817 18.3938 15.4369 18.6069C15.792 18.82 15.9072 19.2807 15.6941 19.6359L15.4228 20.0881C18.1919 19.4456 20.251 16.9666 20.251 14C20.251 13.5858 20.5868 13.25 21.001 13.25Z" fill="#101010"/>
<path fill-rule="evenodd" clip-rule="evenodd" d="M6.57917 1.91194C3.81007 2.55437 1.75098 5.03342 1.75098 8C1.75098 8.41421 1.41519 8.75 1.00098 8.75C0.586763 8.75 0.250977 8.41421 0.250977 8C0.250977 3.71579 3.71676 0.25 8.00098 0.25C8.27118 0.25 8.5205 0.395345 8.65363 0.630476C8.78676 0.865608 8.78312 1.15417 8.6441 1.38587L7.59409 3.13587C7.38098 3.49106 6.92029 3.60623 6.5651 3.39312C6.20992 3.18001 6.09474 2.71931 6.30785 2.36413L6.57917 1.91194Z" fill="#101010"/>
<path fill-rule="evenodd" clip-rule="evenodd" d="M12.051 3.07469C12.2582 2.71606 12.7169 2.59333 13.0756 2.80059L16.6792 4.88309L20.2434 2.81153C20.6016 2.60339 21.0606 2.72497 21.2688 3.08309C21.4769 3.44121 21.3553 3.90025 20.9972 4.1084L17.0572 6.39837C16.8248 6.53346 16.5378 6.53382 16.3051 6.39931L12.3251 4.09932C11.9664 3.89207 11.8437 3.43333 12.051 3.07469Z" fill="#101010"/>
<path fill-rule="evenodd" clip-rule="evenodd" d="M16.6807 4.98999C17.0949 4.98999 17.4307 5.32578 17.4307 5.73999V9.82001C17.4307 10.2342 17.0949 10.57 16.6807 10.57C16.2665 10.57 15.9307 10.2342 15.9307 9.82001V5.73999C15.9307 5.32578 16.2665 4.98999 16.6807 4.98999Z" fill="#101010"/>
<path fill-rule="evenodd" clip-rule="evenodd" d="M16.6793 0.25C17.107 0.25 17.5773 0.336139 17.9715 0.552566L17.9741 0.553986L20.3721 1.88286C20.7947 2.11409 21.1307 2.49142 21.3589 2.88073C21.5876 3.27096 21.7506 3.74591 21.7506 4.21995V6.75999C21.7506 7.23743 21.5829 7.71329 21.354 8.10118C21.125 8.48909 20.7901 8.86488 20.3748 9.0956L17.9759 10.425C17.9755 10.4252 17.9751 10.4254 17.9747 10.4257C17.5767 10.6473 17.1037 10.7375 16.6718 10.7375C16.2417 10.7375 15.7695 10.648 15.3738 10.4242L12.979 9.09705C12.5564 8.86581 12.2204 8.48849 11.9923 8.0992C11.7636 7.70897 11.6006 7.23403 11.6006 6.75999V4.21995C11.6006 3.74251 11.7683 3.26666 11.9972 2.87876C12.2261 2.49085 12.561 2.11506 12.9763 1.88434L15.385 0.549599C15.781 0.336357 16.2509 0.25 16.6793 0.25ZM16.0993 1.86866L13.7048 3.19557C13.7047 3.19563 13.7049 3.19551 13.7048 3.19557C13.5802 3.26494 13.4199 3.41925 13.289 3.64114C13.1579 3.86324 13.1006 4.07738 13.1006 4.21995V6.75999C13.1006 6.90595 13.1576 7.121 13.2864 7.34076C13.4153 7.56071 13.5734 7.71268 13.6997 7.78156L13.7041 7.78396L16.1113 9.11799C16.2249 9.18256 16.4259 9.2375 16.6718 9.2375C16.9171 9.2375 17.1235 9.18287 17.2453 9.11497L17.247 9.114L19.6463 7.78436C19.6464 7.78432 19.6463 7.78441 19.6463 7.78436C19.771 7.71502 19.9312 7.56073 20.0622 7.33879C20.1933 7.11669 20.2506 6.90255 20.2506 6.75999V4.21995C20.2506 4.07399 20.1936 3.85894 20.0648 3.63918C19.9359 3.41923 19.7777 3.26726 19.6514 3.19838L19.647 3.19598L17.2496 1.86743C17.2493 1.86725 17.249 1.86707 17.2486 1.86689C17.1327 1.80355 16.9284 1.75 16.6793 1.75C16.4324 1.75 16.2237 1.80269 16.0993 1.86866Z" fill="#101010"/>
<path fill-rule="evenodd" clip-rule="evenodd" d="M0.701751 14.074C0.909393 13.7156 1.36827 13.5934 1.72668 13.801L5.32058 15.8831L8.89455 13.8111C9.25289 13.6034 9.71181 13.7255 9.91955 14.0838C10.1273 14.4421 10.0052 14.9011 9.64687 15.1088L5.69687 17.3988C5.4643 17.5336 5.17735 17.5337 4.94474 17.3989L0.974741 15.0989C0.616331 14.8913 0.49411 14.4324 0.701751 14.074Z" fill="#101010"/>
<path fill-rule="evenodd" clip-rule="evenodd" d="M5.32031 15.99C5.73453 15.99 6.07031 16.3258 6.07031 16.74V20.82C6.07031 21.2342 5.73453 21.57 5.32031 21.57C4.9061 21.57 4.57031 21.2342 4.57031 20.82V16.74C4.57031 16.3258 4.9061 15.99 5.32031 15.99Z" fill="#101010"/>
<path fill-rule="evenodd" clip-rule="evenodd" d="M5.32222 11.25C5.75069 11.25 6.22053 11.3364 6.61655 11.5496L6.62452 11.5539L9.02252 12.8828C9.44511 13.1141 9.78113 13.4914 10.0093 13.8807C10.238 14.271 10.401 14.7459 10.401 15.2199V17.76C10.401 18.2374 10.2333 18.7133 10.0044 19.1012C9.77545 19.4891 9.44051 19.8649 9.02521 20.0956L6.62627 21.425C6.6259 21.4252 6.62554 21.4254 6.62517 21.4256C6.22714 21.6473 5.7541 21.7375 5.32222 21.7375C4.89213 21.7375 4.41985 21.648 4.02422 21.4242L1.62936 20.097C1.20682 19.8658 0.870819 19.4885 0.642668 19.0992C0.413964 18.709 0.250977 18.234 0.250977 17.76V15.2199C0.250977 14.7425 0.418653 14.2667 0.647576 13.8788C0.876512 13.4908 1.21146 13.1151 1.62675 12.8843L4.03003 11.5526C4.42424 11.3361 4.89452 11.25 5.32222 11.25ZM4.75294 12.8669L2.35521 14.1956C2.3551 14.1956 2.35533 14.1955 2.35521 14.1956C2.23056 14.2649 2.07033 14.4193 1.93938 14.6411C1.8083 14.8633 1.75098 15.0774 1.75098 15.2199V17.76C1.75098 17.9059 1.80799 18.121 1.93679 18.3408C2.0657 18.5607 2.22383 18.7127 2.35012 18.7816L2.35453 18.784L4.76172 20.118C4.87529 20.1826 5.07626 20.2375 5.32222 20.2375C5.56744 20.2375 5.77393 20.1829 5.89567 20.115L5.89743 20.114L8.29675 18.7844C8.29681 18.7843 8.29668 18.7844 8.29675 18.7844C8.42142 18.715 8.58157 18.5608 8.71257 18.3388C8.84365 18.1167 8.90097 17.9026 8.90097 17.76V15.2199C8.90097 15.074 8.84396 14.8589 8.71516 14.6392C8.58626 14.4192 8.42813 14.2673 8.30184 14.1984L8.29745 14.196L5.90223 12.8687C5.77786 12.8027 5.56915 12.75 5.32222 12.75C5.07316 12.75 4.86891 12.8035 4.75294 12.8669Z" fill="#101010"/>
</svg>
