<svg width="22" height="22" viewBox="0 0 22 22" fill="none" xmlns="http://www.w3.org/2000/svg">
<path fill-rule="evenodd" clip-rule="evenodd" d="M0.25 21C0.25 20.5858 0.585786 20.25 1 20.25H21C21.4142 20.25 21.75 20.5858 21.75 21C21.75 21.4142 21.4142 21.75 21 21.75H1C0.585786 21.75 0.25 21.4142 0.25 21Z" fill="#101010"/>
<path fill-rule="evenodd" clip-rule="evenodd" d="M10.5795 0.378953C10.7856 0.239431 11.0475 0.211219 11.2785 0.303646C12.6997 0.872123 14.3003 0.872123 15.7215 0.303646C15.9525 0.211219 16.2144 0.239431 16.4205 0.378953C16.6266 0.518476 16.75 0.751136 16.75 1V4C16.75 4.30668 16.5633 4.58246 16.2785 4.69636C14.4997 5.40788 12.5003 5.40788 10.7215 4.69636C10.4367 4.58246 10.25 4.30668 10.25 4V1C10.25 0.751136 10.3734 0.518476 10.5795 0.378953ZM11.75 2.02338V3.46952C12.8881 3.81683 14.1119 3.81683 15.25 3.46952V2.02338C14.1011 2.29888 12.8989 2.29888 11.75 2.02338Z" fill="#101010"/>
<path fill-rule="evenodd" clip-rule="evenodd" d="M11 3.25C11.4142 3.25 11.75 3.58579 11.75 4V7C11.75 7.41421 11.4142 7.75 11 7.75C10.5858 7.75 10.25 7.41421 10.25 7V4C10.25 3.58579 10.5858 3.25 11 3.25Z" fill="#101010"/>
<path fill-rule="evenodd" clip-rule="evenodd" d="M3.21967 7.21967C3.90993 6.52941 4.88439 6.25 6 6.25H16C17.1156 6.25 18.0901 6.52941 18.7803 7.21967C19.4706 7.90993 19.75 8.88439 19.75 10V21C19.75 21.4142 19.4142 21.75 19 21.75H3C2.58579 21.75 2.25 21.4142 2.25 21V10C2.25 8.88439 2.52941 7.90993 3.21967 7.21967ZM4.28033 8.28033C3.97059 8.59007 3.75 9.11561 3.75 10V20.25H18.25V10C18.25 9.11561 18.0294 8.59007 17.7197 8.28033C17.4099 7.97059 16.8844 7.75 16 7.75H6C5.11561 7.75 4.59007 7.97059 4.28033 8.28033Z" fill="#101010"/>
<path fill-rule="evenodd" clip-rule="evenodd" d="M2.83008 11C2.83008 10.5858 3.16586 10.25 3.58008 10.25H18.4201C18.8343 10.25 19.1701 10.5858 19.1701 11C19.1701 11.4142 18.8343 11.75 18.4201 11.75H3.58008C3.16586 11.75 2.83008 11.4142 2.83008 11Z" fill="#101010"/>
<path fill-rule="evenodd" clip-rule="evenodd" d="M6.24023 21V11H7.74023V21H6.24023Z" fill="#101010"/>
<path fill-rule="evenodd" clip-rule="evenodd" d="M10.2402 21V11H11.7402V21H10.2402Z" fill="#101010"/>
<path fill-rule="evenodd" clip-rule="evenodd" d="M14.2402 21V11H15.7402V21H14.2402Z" fill="#101010"/>
</svg>
