<svg width="22" height="22" viewBox="0 0 22 22" fill="none" xmlns="http://www.w3.org/2000/svg">
<path fill-rule="evenodd" clip-rule="evenodd" d="M3.76967 3.76967C4.87914 2.6602 6.52603 2.25 8.6 2.25H13.4C15.474 2.25 17.1209 2.6602 18.2303 3.76967C19.3398 4.87914 19.75 6.52603 19.75 8.6C19.75 9.01421 19.4142 9.35 19 9.35C18.5858 9.35 18.25 9.01421 18.25 8.6C18.25 6.67397 17.8602 5.52086 17.1697 4.83033C16.4791 4.1398 15.326 3.75 13.4 3.75H8.6C6.67397 3.75 5.52086 4.1398 4.83033 4.83033C4.1398 5.52086 3.75 6.67397 3.75 8.6V13.4C3.75 15.326 4.1398 16.4791 4.83033 17.1697C5.52086 17.8602 6.67397 18.25 8.6 18.25C9.01421 18.25 9.35 18.5858 9.35 19C9.35 19.4142 9.01421 19.75 8.6 19.75C6.52603 19.75 4.87914 19.3398 3.76967 18.2303C2.6602 17.1209 2.25 15.474 2.25 13.4V8.6C2.25 6.52603 2.6602 4.87914 3.76967 3.76967Z" fill="#101010"/>
<path fill-rule="evenodd" clip-rule="evenodd" d="M6.28217 6.28217C7.05414 5.5102 8.17603 5.25 9.5 5.25H12.5C13.9601 5.25 15.1753 5.56371 15.9397 6.53663C16.1956 6.86234 16.1391 7.33383 15.8134 7.58974C15.4877 7.84565 15.0162 7.78907 14.7603 7.46337C14.4247 7.03629 13.7999 6.75 12.5 6.75H9.5C8.32397 6.75 7.69586 6.9898 7.34283 7.34283C6.9898 7.69586 6.75 8.32397 6.75 9.5V12.5C6.75 13.8001 7.03646 14.4279 7.45748 14.7635C7.78139 15.0217 7.83466 15.4936 7.57648 15.8175C7.3183 16.1414 6.84642 16.1947 6.52252 15.9365C5.56354 15.1721 5.25 13.9599 5.25 12.5V9.5C5.25 8.17603 5.5102 7.05414 6.28217 6.28217Z" fill="#101010"/>
<path fill-rule="evenodd" clip-rule="evenodd" d="M7.00977 0.25C7.42398 0.25 7.75977 0.585786 7.75977 1V3C7.75977 3.41421 7.42398 3.75 7.00977 3.75C6.59555 3.75 6.25977 3.41421 6.25977 3V1C6.25977 0.585786 6.59555 0.25 7.00977 0.25Z" fill="#101010"/>
<path fill-rule="evenodd" clip-rule="evenodd" d="M11 0.25C11.4142 0.25 11.75 0.585786 11.75 1V3C11.75 3.41421 11.4142 3.75 11 3.75C10.5858 3.75 10.25 3.41421 10.25 3V1C10.25 0.585786 10.5858 0.25 11 0.25Z" fill="#101010"/>
<path fill-rule="evenodd" clip-rule="evenodd" d="M15 0.25C15.4142 0.25 15.75 0.585786 15.75 1V3C15.75 3.41421 15.4142 3.75 15 3.75C14.5858 3.75 14.25 3.41421 14.25 3V1C14.25 0.585786 14.5858 0.25 15 0.25Z" fill="#101010"/>
<path fill-rule="evenodd" clip-rule="evenodd" d="M18.25 7C18.25 6.58579 18.5858 6.25 19 6.25H21C21.4142 6.25 21.75 6.58579 21.75 7C21.75 7.41421 21.4142 7.75 21 7.75H19C18.5858 7.75 18.25 7.41421 18.25 7Z" fill="#101010"/>
<path fill-rule="evenodd" clip-rule="evenodd" d="M7.00977 18.25C7.42398 18.25 7.75977 18.5858 7.75977 19V21C7.75977 21.4142 7.42398 21.75 7.00977 21.75C6.59555 21.75 6.25977 21.4142 6.25977 21V19C6.25977 18.5858 6.59555 18.25 7.00977 18.25Z" fill="#101010"/>
<path fill-rule="evenodd" clip-rule="evenodd" d="M0.25 7C0.25 6.58579 0.585786 6.25 1 6.25H3C3.41421 6.25 3.75 6.58579 3.75 7C3.75 7.41421 3.41421 7.75 3 7.75H1C0.585786 7.75 0.25 7.41421 0.25 7Z" fill="#101010"/>
<path fill-rule="evenodd" clip-rule="evenodd" d="M0.25 11C0.25 10.5858 0.585786 10.25 1 10.25H3C3.41421 10.25 3.75 10.5858 3.75 11C3.75 11.4142 3.41421 11.75 3 11.75H1C0.585786 11.75 0.25 11.4142 0.25 11Z" fill="#101010"/>
<path fill-rule="evenodd" clip-rule="evenodd" d="M0.25 15C0.25 14.5858 0.585786 14.25 1 14.25H3C3.41421 14.25 3.75 14.5858 3.75 15C3.75 15.4142 3.41421 15.75 3 15.75H1C0.585786 15.75 0.25 15.4142 0.25 15Z" fill="#101010"/>
<path fill-rule="evenodd" clip-rule="evenodd" d="M15.7101 15.16C15.2462 15.16 14.8701 15.5361 14.8701 16C14.8701 16.4639 15.2462 16.84 15.7101 16.84C16.174 16.84 16.5501 16.4639 16.5501 16C16.5501 15.5361 16.174 15.16 15.7101 15.16ZM13.3701 16C13.3701 14.7077 14.4178 13.66 15.7101 13.66C17.0025 13.66 18.0501 14.7077 18.0501 16C18.0501 17.2923 17.0025 18.34 15.7101 18.34C14.4178 18.34 13.3701 17.2923 13.3701 16Z" fill="#101010"/>
<path fill-rule="evenodd" clip-rule="evenodd" d="M14.1257 11.8236C14.0774 11.7425 13.9911 11.7363 13.9438 11.7645L13.9376 11.7681L13.0179 12.3038C12.9032 12.3683 12.8589 12.5236 12.928 12.6421L12.9294 12.6445C13.2495 13.198 13.3725 13.8741 13.0352 14.4603C12.6977 15.047 12.0507 15.28 11.4102 15.28C11.2744 15.28 11.1602 15.3942 11.1602 15.53V16.46C11.1602 16.6135 11.2789 16.7123 11.3965 16.7101L11.4102 16.7099C12.0507 16.7099 12.6977 16.943 13.0352 17.5297C13.3725 18.1159 13.2495 18.792 12.9294 19.3455L12.928 19.3479C12.8631 19.4592 12.8948 19.6142 13.0277 19.692C13.0278 19.692 13.0276 19.6919 13.0277 19.692L13.9338 20.2197C13.9989 20.2558 14.0854 20.234 14.1257 20.1664L14.127 20.1641L14.1842 20.0689C14.504 19.519 15.0262 19.0775 15.7002 19.0775C16.3741 19.0775 16.8963 19.519 17.2161 20.0689L17.2746 20.1664C17.3229 20.2475 17.4092 20.2537 17.4565 20.2255L17.4627 20.2219L18.3824 19.6862C18.4972 19.6217 18.5414 19.4664 18.4723 19.3479L18.4709 19.3455C18.1509 18.792 18.0278 18.1159 18.3651 17.5297C18.7027 16.943 19.3497 16.71 19.9902 16.71C20.1259 16.71 20.2402 16.5958 20.2402 16.46V15.53C20.2402 15.3942 20.1259 15.28 19.9902 15.28C19.3497 15.28 18.7027 15.047 18.3651 14.4603C18.0278 13.8741 18.1509 13.198 18.4709 12.6445L18.4723 12.6421C18.5373 12.5308 18.5054 12.3756 18.3724 12.2979C18.3724 12.2979 18.3725 12.298 18.3724 12.2979L17.4665 11.7703C17.4014 11.7342 17.3149 11.756 17.2746 11.8236L17.2733 11.8259L17.2161 11.9211C16.8963 12.471 16.3741 12.9125 15.7002 12.9125C15.0262 12.9125 14.504 12.471 14.1842 11.9211L14.1257 11.8236ZM15.4139 11.0551C14.9625 10.2983 13.9717 10.0048 13.1801 10.4734L12.2769 10.9995C11.4364 11.4763 11.1429 12.5569 11.6315 13.3964C11.7403 13.585 11.7384 13.6814 11.7333 13.7112C11.7099 13.7305 11.6275 13.78 11.4102 13.78C10.4459 13.78 9.66016 14.5658 9.66016 15.53V16.46C9.66016 17.4237 10.4369 18.2231 11.4153 18.21C11.6288 18.2108 11.7101 18.2597 11.7333 18.2788C11.7384 18.3086 11.7403 18.405 11.6315 18.5936C11.1376 19.442 11.4459 20.5058 12.2723 20.9878L13.1827 21.5181L13.1881 21.5212C13.9624 21.9636 14.9541 21.7058 15.4139 20.9349C15.4141 20.9345 15.4144 20.934 15.4146 20.9336L15.4733 20.8359L15.4794 20.8255C15.5876 20.6383 15.6713 20.5908 15.7002 20.5797C15.729 20.5908 15.8127 20.6383 15.9209 20.8255L15.9857 20.9336C15.9859 20.934 15.9862 20.9345 15.9865 20.9349C16.4379 21.6917 17.4285 21.9852 18.2202 21.5166L19.1234 20.9905C19.9639 20.5137 20.2574 19.4331 19.7689 18.5936C19.66 18.405 19.6619 18.3086 19.667 18.2788C19.6904 18.2595 19.7728 18.21 19.9902 18.21C20.9544 18.21 21.7402 17.4242 21.7402 16.46V15.53C21.7402 14.5658 20.9544 13.78 19.9902 13.78C19.7728 13.78 19.6904 13.7305 19.667 13.7112C19.6619 13.6814 19.66 13.585 19.7689 13.3963C20.2627 12.5479 19.9544 11.4842 19.1281 11.0022L18.2176 10.4719L18.2123 10.4688C17.4379 10.0264 16.4462 10.2842 15.9864 11.0551C15.9862 11.0556 15.9859 11.056 15.9857 11.0564L15.927 11.1541L15.9209 11.1645C15.8127 11.3517 15.729 11.3992 15.7002 11.4103C15.6713 11.3992 15.5876 11.3517 15.4794 11.1645L15.4146 11.0564C15.4144 11.056 15.4141 11.0556 15.4139 11.0551Z" fill="#101010"/>
</svg>
