<svg width="22" height="22" viewBox="0 0 22 22" fill="none" xmlns="http://www.w3.org/2000/svg">
<path fill-rule="evenodd" clip-rule="evenodd" d="M11 1.75C5.89421 1.75 1.75 5.89421 1.75 11C1.75 16.1058 5.89421 20.25 11 20.25C16.1058 20.25 20.25 16.1058 20.25 11C20.25 5.89421 16.1058 1.75 11 1.75ZM0.25 11C0.25 5.06579 5.06579 0.25 11 0.25C16.9342 0.25 21.75 5.06579 21.75 11C21.75 16.9342 16.9342 21.75 11 21.75C5.06579 21.75 0.25 16.9342 0.25 11Z" fill="#101010"/>
<path fill-rule="evenodd" clip-rule="evenodd" d="M7.99011 8.88C6.81433 8.88 5.87012 9.82421 5.87012 11C5.87012 12.1741 6.82262 13.12 7.99011 13.12C8.51173 13.12 9.00168 12.9173 9.3902 12.5822C9.70383 12.3116 10.1774 12.3465 10.448 12.6601C10.7186 12.9737 10.6837 13.4473 10.3701 13.7179C9.73857 14.2627 8.90849 14.62 7.99011 14.62C5.9976 14.62 4.37012 13.0059 4.37012 11C4.37012 8.99579 5.9859 7.38 7.99011 7.38C8.90954 7.38 9.74725 7.72136 10.3819 8.2925C10.6897 8.5696 10.7147 9.04382 10.4376 9.3517C10.1605 9.65958 9.68629 9.68454 9.3784 9.40745C9.01301 9.07859 8.53068 8.88 7.99011 8.88Z" fill="#101010"/>
<path fill-rule="evenodd" clip-rule="evenodd" d="M14.9901 8.88C13.8143 8.88 12.8701 9.82421 12.8701 11C12.8701 12.1741 13.8226 13.12 14.9901 13.12C15.5117 13.12 16.0017 12.9173 16.3902 12.5822C16.7038 12.3116 17.1774 12.3465 17.448 12.6601C17.7186 12.9737 17.6837 13.4473 17.3701 13.7179C16.7386 14.2627 15.9085 14.62 14.9901 14.62C12.9976 14.62 11.3701 13.0059 11.3701 11C11.3701 8.99579 12.9859 7.38 14.9901 7.38C15.9095 7.38 16.7472 7.72136 17.3819 8.2925C17.6897 8.5696 17.7147 9.04382 17.4376 9.3517C17.1605 9.65958 16.6863 9.68454 16.3784 9.40745C16.013 9.07859 15.5307 8.88 14.9901 8.88Z" fill="#101010"/>
</svg>
