<svg width="22" height="22" viewBox="0 0 22 22" fill="none" xmlns="http://www.w3.org/2000/svg">
<path fill-rule="evenodd" clip-rule="evenodd" d="M11.0052 1.77917C10.9204 1.87086 10.8016 2.05425 10.6828 2.3723L10.6824 2.37349L8.92047 7.06858C8.70889 7.62021 8.29361 8.04572 7.74409 8.21445C7.19459 8.38318 6.61118 8.2644 6.12329 7.92663L6.11377 7.92004L2.21265 5.12912C1.99051 4.96956 1.81258 4.87023 1.67918 4.81232C1.6978 4.95746 1.74411 5.15765 1.83663 5.41809C1.83672 5.41833 1.83655 5.41785 1.83663 5.41809L5.97811 17.0022C5.98588 17.0244 6.02362 17.0893 6.11303 17.1525C6.20259 17.2158 6.27696 17.23 6.3002 17.23H15.7002C15.7239 17.23 15.8007 17.2154 15.896 17.1498C15.9851 17.0885 16.028 17.0254 16.0403 16.9997L20.0731 5.70996C20.0733 5.7095 20.0734 5.70904 20.0736 5.70859C20.2021 5.3447 20.2509 5.08218 20.2579 4.91128C20.0968 4.96559 19.8597 5.08514 19.5476 5.30923L19.5457 5.31062L15.8816 7.92352C15.3963 8.26475 14.813 8.38341 14.2642 8.21419C13.7163 8.04524 13.3014 7.61985 13.0899 7.06858L13.088 7.0635L11.328 2.37349L11.3276 2.3723C11.2088 2.05425 11.09 1.87086 11.0052 1.77917ZM12.7325 1.8468C12.572 1.41717 12.3654 1.03867 12.1011 0.754986C11.8341 0.468412 11.4626 0.234985 11.0052 0.234985C10.5478 0.234985 10.1763 0.468412 9.90926 0.754986C9.64496 1.03867 9.43837 1.41717 9.27789 1.84682C9.27799 1.84653 9.27778 1.8471 9.27789 1.84682L7.51914 6.53347C7.45079 6.71019 7.35658 6.76432 7.3038 6.78052C7.25125 6.79666 7.14105 6.80543 6.98111 6.6961L3.08775 3.91085C3.08794 3.91099 3.08755 3.91071 3.08775 3.91085C2.69465 3.62855 2.30237 3.4146 1.92827 3.31242C1.56254 3.21254 1.08634 3.18961 0.686014 3.49031C0.28546 3.79118 0.174784 4.25531 0.169186 4.63551C0.16346 5.0244 0.260282 5.46191 0.423507 5.92116L0.423975 5.92247L4.5623 17.4977C4.56262 17.4987 4.56294 17.4996 4.56326 17.5005C4.69582 17.877 4.96246 18.1762 5.24737 18.3775C5.53281 18.5792 5.90344 18.73 6.3002 18.73H15.7002C16.0965 18.73 16.4647 18.5795 16.7469 18.3852C17.0287 18.191 17.2962 17.904 17.4378 17.5454C17.4408 17.5377 17.4437 17.53 17.4465 17.5223L21.4865 6.21228L21.4873 6.21001C21.663 5.71296 21.7652 5.24368 21.7585 4.82992C21.752 4.42493 21.6341 3.9442 21.2226 3.63302C20.8101 3.32112 20.3149 3.33978 19.9231 3.44593C19.5239 3.5541 19.1019 3.78277 18.6739 4.08996C18.6735 4.09022 18.6732 4.09048 18.6728 4.09074L15.0188 6.69646C15.0182 6.69687 15.0177 6.69727 15.0171 6.69767C14.8633 6.80517 14.7572 6.7965 14.7062 6.78078C14.6543 6.76479 14.5598 6.71056 14.4913 6.53353L12.7325 1.8468C12.7324 1.84652 12.7326 1.84709 12.7325 1.8468Z" fill="#101010"/>
<path fill-rule="evenodd" clip-rule="evenodd" d="M4.75 21C4.75 20.5858 5.08579 20.25 5.5 20.25H16.5C16.9142 20.25 17.25 20.5858 17.25 21C17.25 21.4142 16.9142 21.75 16.5 21.75H5.5C5.08579 21.75 4.75 21.4142 4.75 21Z" fill="#101010"/>
<path fill-rule="evenodd" clip-rule="evenodd" d="M7.75 13C7.75 12.5858 8.08579 12.25 8.5 12.25H13.5C13.9142 12.25 14.25 12.5858 14.25 13C14.25 13.4142 13.9142 13.75 13.5 13.75H8.5C8.08579 13.75 7.75 13.4142 7.75 13Z" fill="#101010"/>
</svg>
