<svg width="22" height="22" viewBox="0 0 22 22" fill="none" xmlns="http://www.w3.org/2000/svg">
<path fill-rule="evenodd" clip-rule="evenodd" d="M19 9.75C18.3096 9.75 17.75 10.3096 17.75 11C17.75 11.6904 18.3096 12.25 19 12.25C19.6904 12.25 20.25 11.6904 20.25 11C20.25 10.3096 19.6904 9.75 19 9.75ZM16.25 11C16.25 9.48122 17.4812 8.25 19 8.25C20.5188 8.25 21.75 9.48122 21.75 11C21.75 12.5188 20.5188 13.75 19 13.75C17.4812 13.75 16.25 12.5188 16.25 11Z" fill="#101010"/>
<path fill-rule="evenodd" clip-rule="evenodd" d="M19 1.75C18.3096 1.75 17.75 2.30964 17.75 3C17.75 3.69036 18.3096 4.25 19 4.25C19.6904 4.25 20.25 3.69036 20.25 3C20.25 2.30964 19.6904 1.75 19 1.75ZM16.25 3C16.25 1.48122 17.4812 0.25 19 0.25C20.5188 0.25 21.75 1.48122 21.75 3C21.75 4.51878 20.5188 5.75 19 5.75C17.4812 5.75 16.25 4.51878 16.25 3Z" fill="#101010"/>
<path fill-rule="evenodd" clip-rule="evenodd" d="M19 17.75C18.3096 17.75 17.75 18.3096 17.75 19C17.75 19.6904 18.3096 20.25 19 20.25C19.6904 20.25 20.25 19.6904 20.25 19C20.25 18.3096 19.6904 17.75 19 17.75ZM16.25 19C16.25 17.4812 17.4812 16.25 19 16.25C20.5188 16.25 21.75 17.4812 21.75 19C21.75 20.5188 20.5188 21.75 19 21.75C17.4812 21.75 16.25 20.5188 16.25 19Z" fill="#101010"/>
<path fill-rule="evenodd" clip-rule="evenodd" d="M3 9.75C2.30964 9.75 1.75 10.3096 1.75 11C1.75 11.6904 2.30964 12.25 3 12.25C3.69036 12.25 4.25 11.6904 4.25 11C4.25 10.3096 3.69036 9.75 3 9.75ZM0.25 11C0.25 9.48122 1.48122 8.25 3 8.25C4.51878 8.25 5.75 9.48122 5.75 11C5.75 12.5188 4.51878 13.75 3 13.75C1.48122 13.75 0.25 12.5188 0.25 11Z" fill="#101010"/>
<path fill-rule="evenodd" clip-rule="evenodd" d="M4.25 11C4.25 10.5858 4.58579 10.25 5 10.25H17C17.4142 10.25 17.75 10.5858 17.75 11C17.75 11.4142 17.4142 11.75 17 11.75H5C4.58579 11.75 4.25 11.4142 4.25 11Z" fill="#101010"/>
<path fill-rule="evenodd" clip-rule="evenodd" d="M10.2197 3.21967C10.9099 2.52941 11.8844 2.25 13 2.25H17C17.4142 2.25 17.75 2.58579 17.75 3C17.75 3.41421 17.4142 3.75 17 3.75H13C12.1156 3.75 11.5901 3.97059 11.2803 4.28033C10.9706 4.59007 10.75 5.11561 10.75 6V16C10.75 16.8844 10.9706 17.4099 11.2803 17.7197C11.5901 18.0294 12.1156 18.25 13 18.25H17C17.4142 18.25 17.75 18.5858 17.75 19C17.75 19.4142 17.4142 19.75 17 19.75H13C11.8844 19.75 10.9099 19.4706 10.2197 18.7803C9.52941 18.0901 9.25 17.1156 9.25 16V6C9.25 4.88439 9.52941 3.90993 10.2197 3.21967Z" fill="#101010"/>
</svg>
