<svg width="24" height="24" viewBox="0 0 24 24" fill="none" xmlns="http://www.w3.org/2000/svg">
<path fill-rule="evenodd" clip-rule="evenodd" d="M20.2386 2.81013C18.4048 3.54415 16.1983 4.85621 14.1224 6.39502C12.0436 7.936 10.1429 9.66929 8.90654 11.2168C8.90621 11.2173 8.90587 11.2177 8.90554 11.2181L7.54282 12.939C8.35226 13.1517 9.11769 13.5875 9.75987 14.2297C10.387 14.8568 10.8067 15.5797 11.0165 16.3634L12.7103 15.0049L12.7104 15.0049C15.839 12.4962 19.6212 7.38184 21.1134 3.66083L21.1165 3.65322L21.1165 3.65324C21.2249 3.39128 21.1545 3.14053 20.9663 2.95735L20.952 2.94302C20.8004 2.78721 20.5467 2.69802 20.2386 2.81013ZM6.80053 14.3174C6.75254 14.3149 6.70993 14.3125 6.67144 14.3102C6.52634 14.3018 6.43982 14.2967 6.34417 14.3063C6.08858 14.3318 5.83768 14.2248 5.67923 14.0226C5.52078 13.8205 5.47682 13.5513 5.56272 13.3092C5.70174 12.9174 5.91501 12.5502 6.18222 12.2409L7.73156 10.2844L7.73353 10.2819C9.07716 8.59978 11.0861 6.77859 13.2292 5.18998C15.3723 3.60134 17.697 2.2102 19.6913 1.41352L19.7075 1.40727C20.5726 1.08469 21.4524 1.31206 22.02 1.88969C22.5862 2.44608 22.8717 3.32972 22.5043 4.22255C20.9157 8.1812 16.9792 13.5046 13.6487 16.1751L11.6788 17.7551C11.6687 17.7632 11.6583 17.7711 11.6478 17.7787C11.3802 17.9713 11.0705 18.174 10.7038 18.3181C10.4729 18.4088 10.2121 18.3794 10.0072 18.2397C9.80218 18.1001 9.67954 17.868 9.67954 17.62C9.67954 17.4645 9.67068 17.3061 9.64872 17.167L9.64589 17.1474C9.55832 16.4787 9.25773 15.8489 8.69921 15.2903C8.1399 14.731 7.47154 14.4105 6.80053 14.3174Z" fill="#101010"/>
<path fill-rule="evenodd" clip-rule="evenodd" d="M6.81114 14.3174C6.62996 14.3081 6.46611 14.3017 6.31787 14.3091C6.31054 14.3094 6.30321 14.3097 6.29587 14.3098C4.69175 14.3429 3.21062 15.4953 3.01595 17.2717L2.7453 19.7376C2.64198 20.6159 3.38464 21.3512 4.24698 21.2547L4.24859 21.2545L6.70034 20.9854C7.5292 20.875 8.20178 20.5272 8.68842 20.0413C9.33676 19.3839 9.68041 18.5248 9.68041 17.62C9.68041 17.5175 9.67437 17.4334 9.66671 17.327C9.66243 17.2676 9.65766 17.2012 9.65315 17.1207C9.56113 16.4619 9.26116 15.8414 8.71008 15.2903L8.70621 15.2865C8.1518 14.7239 7.48659 14.4107 6.81114 14.3174ZM6.25412 12.8104C6.49413 12.7991 6.73577 12.8113 6.91983 12.821C6.93884 12.822 6.9578 12.8238 6.97667 12.8262C7.99115 12.9575 8.9748 13.4229 9.77266 14.2316C10.553 15.0127 11.0117 15.9422 11.1441 16.9526C11.1466 16.9719 11.1484 16.9912 11.1494 17.0106C11.1514 17.0483 11.1547 17.0961 11.1584 17.15C11.168 17.2882 11.1804 17.4668 11.1804 17.62C11.1804 18.9145 10.6847 20.1546 9.75407 21.097L9.75075 21.1003C9.01901 21.8321 8.03478 22.323 6.88806 22.4736L6.87224 22.4755L4.41385 22.7453C4.41355 22.7454 4.41414 22.7453 4.41385 22.7453C2.5976 22.9481 1.04066 21.4056 1.25518 19.5655L1.52488 17.1083C1.52488 17.1083 1.52487 17.1083 1.52488 17.1083C1.8098 14.5089 3.98221 12.8623 6.25412 12.8104Z" fill="#101010"/>
<path fill-rule="evenodd" clip-rule="evenodd" d="M8.75977 9.74C8.75977 9.32579 9.09555 8.99 9.50977 8.99C12.534 8.99 14.9898 11.4458 14.9898 14.47C14.9898 14.8842 14.654 15.22 14.2398 15.22C13.8256 15.22 13.4898 14.8842 13.4898 14.47C13.4898 12.2742 11.7056 10.49 9.50977 10.49C9.09555 10.49 8.75977 10.1542 8.75977 9.74Z" fill="#101010"/>
<path fill-rule="evenodd" clip-rule="evenodd" d="M19.5858 12.2033C19.8767 11.9084 20.3516 11.9052 20.6464 12.1961L21.3901 12.9297C22.215 13.7546 22.7272 14.6741 22.7272 15.685C22.7272 16.6959 22.215 17.6154 21.3901 18.4403L18.4301 21.4003C17.6115 22.2189 16.692 22.7225 15.6847 22.7225C14.6775 22.7225 13.758 22.2189 12.9394 21.4003C12.6465 21.1074 12.6465 20.6326 12.9394 20.3397C13.2323 20.0468 13.7072 20.0468 14.0001 20.3397C14.6515 20.9911 15.212 21.2225 15.6847 21.2225C16.1575 21.2225 16.718 20.9911 17.3694 20.3397L20.3294 17.3797C20.9945 16.7146 21.2272 16.1541 21.2272 15.685C21.2272 15.2163 20.9949 14.6564 20.3311 13.9921L19.593 13.2639C19.2981 12.973 19.2949 12.4982 19.5858 12.2033Z" fill="#101010"/>
<path fill-rule="evenodd" clip-rule="evenodd" d="M8.28531 2.7475C7.81256 2.7475 7.25208 2.97889 6.60064 3.63033L3.64249 6.58848C2.98881 7.25163 2.75781 7.81257 2.75781 8.285C2.75781 8.75785 2.98921 9.31935 3.64421 9.98327C3.93512 10.2781 3.93191 10.753 3.63705 11.0439C3.34218 11.3348 2.86732 11.3316 2.57641 11.0367C1.76141 10.2106 1.25781 9.29215 1.25781 8.285C1.25781 7.27785 1.76141 6.35935 2.57641 5.53326L2.57997 5.52966L2.57998 5.52967L5.53998 2.56967C6.35854 1.75111 7.27807 1.2475 8.28531 1.2475C9.29256 1.2475 10.2121 1.75111 11.0306 2.56967L11.7706 3.30967C12.0635 3.60256 12.0635 4.07744 11.7706 4.37033C11.4777 4.66322 11.0029 4.66322 10.71 4.37033L9.96998 3.63033C9.31854 2.97889 8.75807 2.7475 8.28531 2.7475Z" fill="#101010"/>
<path fill-rule="evenodd" clip-rule="evenodd" d="M11.7801 3.31967C12.073 3.61256 12.073 4.08744 11.7801 4.38033L8.08013 8.08033C7.78724 8.37322 7.31237 8.37322 7.01947 8.08033C6.72658 7.78744 6.72658 7.31256 7.01947 7.01967L10.7195 3.31967C11.0124 3.02678 11.4872 3.02678 11.7801 3.31967Z" fill="#101010"/>
<path fill-rule="evenodd" clip-rule="evenodd" d="M20.6514 12.2006C20.9438 12.494 20.943 12.9688 20.6496 13.2612L17.6896 16.2112C17.3962 16.5036 16.9213 16.5028 16.6289 16.2094C16.3365 15.916 16.3373 15.4412 16.6307 15.1488L19.5907 12.1988C19.8841 11.9064 20.359 11.9072 20.6514 12.2006Z" fill="#101010"/>
</svg>
