<svg width="22" height="22" viewBox="0 0 22 22" fill="none" xmlns="http://www.w3.org/2000/svg">
<path fill-rule="evenodd" clip-rule="evenodd" d="M2.74784 4.61835C2.15538 5.16848 1.75 6.06795 1.75 7.5V12.9C1.75 14.3321 2.15538 15.2315 2.74784 15.7817C3.35035 16.3412 4.26497 16.65 5.5 16.65H14.5C15.735 16.65 16.6496 16.3412 17.2522 15.7817C17.8446 15.2315 18.25 14.3321 18.25 12.9V12.1248C18.0863 12.1416 17.9195 12.15 17.75 12.15H15.3774L12.6693 13.9585C11.7508 14.5565 10.5 13.9079 10.5 12.79V12.0926C9.66711 11.9615 8.92654 11.6072 8.35967 11.0403C7.62753 10.3082 7.25 9.28633 7.25 8.15002V4.25C7.25 4.08054 7.25847 3.91372 7.2752 3.75H5.5C4.26497 3.75 3.35035 4.05887 2.74784 4.61835ZM1.72716 3.51915C2.69965 2.61613 4.03503 2.25 5.5 2.25H8.2C8.44212 2.25 8.66936 2.36689 8.81015 2.56387C8.95095 2.76084 8.988 3.01368 8.90962 3.24277C8.80782 3.54034 8.75 3.87795 8.75 4.25V8.15002C8.75 8.95372 9.01248 9.57183 9.42033 9.97968C9.82819 10.3875 10.4463 10.65 11.25 10.65C11.6642 10.65 12 10.9858 12 11.4V12.6017L14.7335 10.7763C14.8568 10.694 15.0017 10.65 15.15 10.65H17.75C18.122 10.65 18.4596 10.5922 18.7572 10.4903C18.9863 10.412 19.2392 10.449 19.4361 10.5898C19.6331 10.7306 19.75 10.9578 19.75 11.2V12.9C19.75 14.618 19.2554 15.9685 18.2728 16.8809C17.3004 17.7839 15.965 18.15 14.5 18.15H5.5C4.03503 18.15 2.69965 17.7839 1.72716 16.8809C0.744615 15.9685 0.25 14.618 0.25 12.9V7.5C0.25 5.78205 0.744615 4.43152 1.72716 3.51915Z" fill="#101010"/>
<path fill-rule="evenodd" clip-rule="evenodd" d="M8.90824 3.24682C8.8073 3.5434 8.75 3.87963 8.75 4.25V8.15002C8.75 8.95372 9.01248 9.57183 9.42033 9.97968C9.82819 10.3875 10.4463 10.65 11.25 10.65C11.6642 10.65 12 10.9858 12 11.4V12.6017L14.7335 10.7763C14.8568 10.694 15.0017 10.65 15.15 10.65H17.75C18.1203 10.65 18.4565 10.5927 18.7532 10.4917C19.6576 10.169 20.25 9.35849 20.25 8.15002V4.25C20.25 3.44544 19.9851 2.83325 19.5759 2.42408C19.1668 2.01491 18.5546 1.75 17.75 1.75H11.25C10.0415 1.75 9.23091 2.34244 8.90824 3.24682ZM7.49318 2.74919C8.05147 1.17582 9.48028 0.25 11.25 0.25H17.75C18.8954 0.25 19.9082 0.635085 20.6366 1.36342C21.3649 2.09175 21.75 3.10456 21.75 4.25V8.15002C21.75 9.91977 20.8242 11.3485 19.2508 11.9068L19.2428 11.9096C18.7804 12.0678 18.278 12.15 17.75 12.15H15.3774L12.6693 13.9585C11.7508 14.5565 10.5 13.9079 10.5 12.79V12.0926C9.66711 11.9615 8.92654 11.6072 8.35967 11.0403C7.62752 10.3082 7.25 9.28633 7.25 8.15002V4.25C7.25 3.72205 7.33218 3.21966 7.49038 2.75723L7.49318 2.74919Z" fill="#101010"/>
<path fill-rule="evenodd" clip-rule="evenodd" d="M5.6499 21C5.6499 20.5858 5.98569 20.25 6.3999 20.25H13.5999C14.0141 20.25 14.3499 20.5858 14.3499 21C14.3499 21.4142 14.0141 21.75 13.5999 21.75H6.3999C5.98569 21.75 5.6499 21.4142 5.6499 21Z" fill="#101010"/>
<path fill-rule="evenodd" clip-rule="evenodd" d="M10 16.65C10.4142 16.65 10.75 16.9858 10.75 17.4V21C10.75 21.4142 10.4142 21.75 10 21.75C9.58579 21.75 9.25 21.4142 9.25 21V17.4C9.25 16.9858 9.58579 16.65 10 16.65Z" fill="#101010"/>
<path fill-rule="evenodd" clip-rule="evenodd" d="M16.7456 6.25C16.7456 5.83579 17.0814 5.5 17.4956 5.5H17.5046C17.9188 5.5 18.2546 5.83579 18.2546 6.25C18.2546 6.66421 17.9188 7 17.5046 7H17.4956C17.0814 7 16.7456 6.66421 16.7456 6.25Z" fill="#101010"/>
<path fill-rule="evenodd" clip-rule="evenodd" d="M13.9458 6.25C13.9458 5.83579 14.2816 5.5 14.6958 5.5H14.7048C15.119 5.5 15.4548 5.83579 15.4548 6.25C15.4548 6.66421 15.119 7 14.7048 7H14.6958C14.2816 7 13.9458 6.66421 13.9458 6.25Z" fill="#101010"/>
<path fill-rule="evenodd" clip-rule="evenodd" d="M11.1455 6.25C11.1455 5.83579 11.4813 5.5 11.8955 5.5H11.9045C12.3187 5.5 12.6545 5.83579 12.6545 6.25C12.6545 6.66421 12.3187 7 11.9045 7H11.8955C11.4813 7 11.1455 6.66421 11.1455 6.25Z" fill="#101010"/>
</svg>
