<svg width="22" height="22" viewBox="0 0 22 22" fill="none" xmlns="http://www.w3.org/2000/svg">
<path fill-rule="evenodd" clip-rule="evenodd" d="M1 0.25C1.41421 0.25 1.75 0.585786 1.75 1V18C1.75 19.2458 2.75421 20.25 4 20.25H21C21.4142 20.25 21.75 20.5858 21.75 21C21.75 21.4142 21.4142 21.75 21 21.75H4C1.92579 21.75 0.25 20.0742 0.25 18V1C0.25 0.585786 0.585786 0.25 1 0.25Z" fill="#101010"/>
<path fill-rule="evenodd" clip-rule="evenodd" d="M20.4879 5.43042C20.8025 5.69989 20.8391 6.17336 20.5696 6.48793L15.9696 11.8579L15.9676 11.8602C14.9236 13.0691 13.0687 13.1394 11.9397 12.0104L10.9865 11.0571C10.4807 10.5452 9.63868 10.5744 9.15853 11.1292C9.15823 11.1295 9.15793 11.1299 9.15763 11.1302L4.56968 16.4878C4.30026 16.8025 3.8268 16.8391 3.51218 16.5697C3.19756 16.3003 3.16092 15.8268 3.43035 15.5122L8.02035 10.1522L8.0224 10.1498C9.06187 8.94622 10.9177 8.85522 12.0518 10.0011C12.0524 10.0017 12.053 10.0023 12.0535 10.0029L13.0003 10.9497C13.511 11.4604 14.3555 11.431 14.8316 10.8807C14.8319 10.8804 14.8321 10.8801 14.8324 10.8798L19.4304 5.51209C19.6999 5.19752 20.1734 5.16095 20.4879 5.43042Z" fill="#101010"/>
</svg>
