<svg width="20" height="22" viewBox="0 0 20 22" fill="none" xmlns="http://www.w3.org/2000/svg">
<path fill-rule="evenodd" clip-rule="evenodd" d="M17.9792 5.99456C19.0438 3.86522 16.7536 1.62411 14.6498 2.73339L3.05931 8.83366C1.31356 9.75247 1.31356 12.2475 3.05931 13.1663L14.6479 19.2655C14.6481 19.2657 14.6477 19.2654 14.6479 19.2655C16.7577 20.3696 19.0411 18.1293 17.9792 16.0054L16.3592 12.7654C15.8036 11.6542 15.8036 10.3457 16.3592 9.23456L17.9792 5.99456ZM13.9507 1.40628C17.3467 -0.383824 21.0361 3.23488 19.3208 6.66538L17.7008 9.90538C17.3564 10.5942 17.3564 11.4057 17.7008 12.0946L19.3208 15.3346C21.0388 18.7704 17.3422 22.3696 13.9521 20.5944L13.9507 20.5937L2.36069 14.4937C-0.453563 13.0125 -0.453563 8.98746 2.36069 7.50628L13.9507 1.40628Z" fill="#101010"/>
</svg>
