<svg width="22" height="22" viewBox="0 0 22 22" fill="none" xmlns="http://www.w3.org/2000/svg">
<path fill-rule="evenodd" clip-rule="evenodd" d="M2.09467 2.09467C3.42914 0.760201 5.42603 0.25 8 0.25H14C16.574 0.25 18.5709 0.760201 19.9053 2.09467C21.2398 3.42914 21.75 5.42603 21.75 8V14C21.75 16.574 21.2398 18.5709 19.9053 19.9053C18.5709 21.2398 16.574 21.75 14 21.75H8C5.42603 21.75 3.42914 21.2398 2.09467 19.9053C0.760201 18.5709 0.25 16.574 0.25 14V8C0.25 5.42603 0.760201 3.42914 2.09467 2.09467ZM3.15533 3.15533C2.2398 4.07086 1.75 5.57397 1.75 8V14C1.75 16.426 2.2398 17.9291 3.15533 18.8447C4.07086 19.7602 5.57397 20.25 8 20.25H14C16.426 20.25 17.9291 19.7602 18.8447 18.8447C19.7602 17.9291 20.25 16.426 20.25 14V8C20.25 5.57397 19.7602 4.07086 18.8447 3.15533C17.9291 2.2398 16.426 1.75 14 1.75H8C5.57397 1.75 4.07086 2.2398 3.15533 3.15533Z" fill="#101010"/>
<path fill-rule="evenodd" clip-rule="evenodd" d="M16.1208 13.4354C16.1207 13.4356 16.1209 13.4352 16.1208 13.4354L15.2316 15.2239L15.2308 15.2254C14.7649 16.1573 13.8166 16.75 12.77 16.75H9.24C8.95224 16.75 7.53924 16.7481 6.77163 15.2403L6.7684 15.2339L5.87918 13.4454C5.87905 13.4452 5.87931 13.4457 5.87918 13.4454C5.66498 13.0177 5.23316 12.75 4.76 12.75H1C0.585786 12.75 0.25 12.4142 0.25 12C0.25 11.5858 0.585786 11.25 1 11.25H4.76C5.80657 11.25 6.75489 11.8427 7.22082 12.7746L7.22157 12.7761L8.10986 14.5627C8.46144 15.25 9.04482 15.25 9.23841 15.25H12.77C13.2432 15.25 13.6746 14.983 13.8888 14.5553C13.889 14.555 13.8887 14.5555 13.8888 14.5553L14.7784 12.7661L14.7792 12.7646C15.2451 11.8327 16.1934 11.24 17.24 11.24H20.98C21.3942 11.24 21.73 11.5758 21.73 11.99C21.73 12.4042 21.3942 12.74 20.98 12.74H17.24C16.7668 12.74 16.335 13.0077 16.1208 13.4354Z" fill="#101010"/>
</svg>
