<svg width="20" height="22" viewBox="0 0 20 22" fill="none" xmlns="http://www.w3.org/2000/svg">
<path fill-rule="evenodd" clip-rule="evenodd" d="M6.04988 1.40655L17.6394 7.50628C20.4536 8.98747 20.4536 13.0125 17.6394 14.4937L6.04799 20.5944C2.65792 22.3696 -1.03868 18.7704 0.679257 15.3346L2.29926 12.0946C2.64368 11.4057 2.64368 10.5942 2.29926 9.90538L0.679257 6.66538C-1.03599 3.23489 2.65383 -0.383557 6.04988 1.40655ZM5.35027 2.7334C3.24646 1.62412 0.95623 3.86523 2.0209 5.99456L3.6409 9.23456C4.19647 10.3457 4.19647 11.6542 3.6409 12.7654L2.0209 16.0054C0.958929 18.1293 3.24181 20.37 5.35158 19.2659C5.35177 19.2658 5.35138 19.266 5.35158 19.2659L16.9408 13.1663C18.6865 12.2475 18.6865 9.75248 16.9408 8.83366L5.35027 2.7334Z" fill="#101010"/>
</svg>
