<svg width="22" height="20" viewBox="0 0 22 20" fill="none" xmlns="http://www.w3.org/2000/svg">
<path fill-rule="evenodd" clip-rule="evenodd" d="M7.50628 2.36069C8.98746 -0.453563 13.0125 -0.453563 14.4937 2.36069L20.5944 13.9521C22.3696 17.3422 18.7704 21.0388 15.3346 19.3208L12.0946 17.7008C11.4057 17.3564 10.5942 17.3564 9.90538 17.7008L6.66538 19.3208C3.23488 21.0361 -0.383824 17.3467 1.40628 13.9507L7.50628 2.36069ZM13.1663 3.05931C12.2475 1.31356 9.75247 1.31356 8.83366 3.05931L2.73366 14.6493C1.62437 16.7531 3.86522 19.0438 5.99456 17.9792L9.23456 16.3592C10.3457 15.8036 11.6542 15.8036 12.7654 16.3592L16.0054 17.9792C18.1293 19.0411 20.3699 16.7583 19.2659 14.6486C19.2658 14.6484 19.266 14.6488 19.2659 14.6486L13.1663 3.05931Z" fill="#101010"/>
</svg>
