<svg width="22" height="22" viewBox="0 0 22 22" fill="none" xmlns="http://www.w3.org/2000/svg">
<path fill-rule="evenodd" clip-rule="evenodd" d="M16.1208 13.4354C16.1207 13.4356 16.1209 13.4352 16.1208 13.4354L15.2315 15.2239L15.2308 15.2254C14.7649 16.1573 13.8165 16.75 12.77 16.75H9.23998C8.95414 16.75 7.53586 16.7488 6.77916 15.2354L6.77841 15.2339L5.88916 13.4454C5.88905 13.4452 5.88927 13.4456 5.88916 13.4454C5.67498 13.0176 5.24318 12.75 4.76998 12.75H0.97998C0.565767 12.75 0.22998 12.4142 0.22998 12C0.22998 11.5858 0.565767 11.25 0.97998 11.25H4.76998C5.81655 11.25 6.76487 11.8427 7.2308 12.7746L7.23155 12.7761L8.1208 14.5646C8.12091 14.5648 8.12069 14.5644 8.1208 14.5646C8.46355 15.2493 9.04388 15.25 9.23897 15.25H12.77C13.2431 15.25 13.6746 14.983 13.8888 14.5553C13.8889 14.5551 13.8887 14.5555 13.8888 14.5553L14.7784 12.7661L14.7792 12.7646C15.2451 11.8327 16.1934 11.24 17.24 11.24H20.98C21.3942 11.24 21.73 11.5758 21.73 11.99C21.73 12.4042 21.3942 12.74 20.98 12.74H17.24C16.7668 12.74 16.335 13.0077 16.1208 13.4354Z" fill="#101010"/>
<path fill-rule="evenodd" clip-rule="evenodd" d="M18 1.75C16.7574 1.75 15.75 2.75736 15.75 4C15.75 5.24264 16.7574 6.25 18 6.25C19.2426 6.25 20.25 5.24264 20.25 4C20.25 2.75736 19.2426 1.75 18 1.75ZM14.25 4C14.25 1.92893 15.9289 0.25 18 0.25C20.0711 0.25 21.75 1.92893 21.75 4C21.75 6.07107 20.0711 7.75 18 7.75C15.9289 7.75 14.25 6.07107 14.25 4Z" fill="#101010"/>
<path fill-rule="evenodd" clip-rule="evenodd" d="M2.09467 2.09467C3.42914 0.760201 5.42603 0.25 8 0.25H13C13.4142 0.25 13.75 0.585786 13.75 1C13.75 1.41421 13.4142 1.75 13 1.75H8C5.57397 1.75 4.07086 2.2398 3.15533 3.15533C2.2398 4.07086 1.75 5.57397 1.75 8V14C1.75 16.426 2.2398 17.9291 3.15533 18.8447C4.07086 19.7602 5.57397 20.25 8 20.25H14C16.426 20.25 17.9291 19.7602 18.8447 18.8447C19.7602 17.9291 20.25 16.426 20.25 14V9C20.25 8.58579 20.5858 8.25 21 8.25C21.4142 8.25 21.75 8.58579 21.75 9V14C21.75 16.574 21.2398 18.5709 19.9053 19.9053C18.5709 21.2398 16.574 21.75 14 21.75H8C5.42603 21.75 3.42914 21.2398 2.09467 19.9053C0.760201 18.5709 0.25 16.574 0.25 14V8C0.25 5.42603 0.760201 3.42914 2.09467 2.09467Z" fill="#101010"/>
</svg>
