<svg width="22" height="22" viewBox="0 0 22 22" fill="none" xmlns="http://www.w3.org/2000/svg">
<path fill-rule="evenodd" clip-rule="evenodd" d="M11 0.25C11.4142 0.25 11.75 0.585786 11.75 1V6.18934L12.4697 5.46967C12.7626 5.17678 13.2374 5.17678 13.5303 5.46967C13.8232 5.76256 13.8232 6.23744 13.5303 6.53033L11.5303 8.53033C11.3158 8.74483 10.9932 8.80899 10.713 8.69291C10.4327 8.57682 10.25 8.30335 10.25 8V1C10.25 0.585786 10.5858 0.25 11 0.25Z" fill="#101010"/>
<path fill-rule="evenodd" clip-rule="evenodd" d="M8.46967 5.46967C8.76256 5.17678 9.23744 5.17678 9.53033 5.46967L11.5303 7.46967C11.8232 7.76256 11.8232 8.23744 11.5303 8.53033C11.2374 8.82322 10.7626 8.82322 10.4697 8.53033L8.46967 6.53033C8.17678 6.23744 8.17678 5.76256 8.46967 5.46967Z" fill="#101010"/>
<path fill-rule="evenodd" clip-rule="evenodd" d="M0.22998 12C0.22998 11.5858 0.565767 11.25 0.97998 11.25H5.38998C6.05393 11.25 6.6537 11.6204 6.9508 12.2146L8.1208 14.5546C8.33487 14.9827 8.76655 15.25 9.23998 15.25H12.77C13.2434 15.25 13.6751 14.9827 13.8892 14.5546L15.0592 12.2146C15.3582 11.6166 15.9703 11.25 16.62 11.25H20.98C21.3942 11.25 21.73 11.5858 21.73 12C21.73 12.4142 21.3942 12.75 20.98 12.75H16.62C16.5297 12.75 16.4418 12.8034 16.4008 12.8854L15.2308 15.2254C14.7649 16.1573 13.8165 16.75 12.77 16.75H9.23998C8.19341 16.75 7.24509 16.1573 6.77916 15.2254L5.60916 12.8854C5.56626 12.7996 5.48603 12.75 5.38998 12.75H0.97998C0.565767 12.75 0.22998 12.4142 0.22998 12Z" fill="#101010"/>
<path fill-rule="evenodd" clip-rule="evenodd" d="M6.74204 3.021C6.80224 3.43082 6.51882 3.81184 6.109 3.87204C4.47019 4.11277 3.434 4.69249 2.78063 5.59769C2.10743 6.53038 1.75 7.93101 1.75 10V14C1.75 16.426 2.2398 17.9291 3.15533 18.8447C4.07086 19.7602 5.57397 20.25 8 20.25H14C16.426 20.25 17.9291 19.7602 18.8447 18.8447C19.7602 17.9291 20.25 16.426 20.25 14V10C20.25 7.93101 19.8926 6.53038 19.2194 5.59769C18.566 4.69249 17.5298 4.11277 15.891 3.87204C15.4812 3.81184 15.1978 3.43082 15.258 3.021C15.3182 2.61118 15.6992 2.32776 16.109 2.38796C18.0102 2.66723 19.474 3.38751 20.4356 4.71981C21.3774 6.02462 21.75 7.79899 21.75 10V14C21.75 16.574 21.2398 18.5709 19.9053 19.9053C18.5709 21.2398 16.574 21.75 14 21.75H8C5.42603 21.75 3.42914 21.2398 2.09467 19.9053C0.760201 18.5709 0.25 16.574 0.25 14V10C0.25 7.79899 0.622567 6.02462 1.56437 4.71981C2.526 3.38751 3.98981 2.66723 5.891 2.38796C6.30082 2.32776 6.68184 2.61118 6.74204 3.021Z" fill="#101010"/>
</svg>
