<svg width="22" height="22" viewBox="0 0 22 22" fill="none" xmlns="http://www.w3.org/2000/svg">
<path fill-rule="evenodd" clip-rule="evenodd" d="M11.5886 2.02072C11.2615 1.69362 10.7163 1.69361 10.3892 2.02072C10.3892 2.02072 10.3892 2.02071 10.3892 2.02072L8.86924 3.54074C8.64927 3.7607 8.36347 3.92591 8.09864 4.03571C7.83421 4.14534 7.51674 4.23038 7.20889 4.23038H5.0589C4.5931 4.23038 4.20889 4.61459 4.20889 5.08036V7.23038C4.20889 7.53824 4.12384 7.85572 4.0142 8.12014C3.90439 8.38498 3.73918 8.67075 3.51923 8.89071C3.51923 8.89071 3.51923 8.89071 3.51923 8.89071L1.99924 10.4107C1.67213 10.7378 1.67213 11.283 1.99923 11.6101L3.51483 13.1257C3.7393 13.3438 3.90504 13.6299 4.0142 13.8932C4.12503 14.1605 4.20889 14.4799 4.20889 14.7904V16.9403C4.20889 17.4062 4.59317 17.7904 5.0589 17.7904H7.20889C7.51674 17.7904 7.83421 17.8755 8.09864 17.9851C8.36347 18.0949 8.64926 18.2601 8.86923 18.4801L10.3892 20.0001C10.7163 20.3272 11.2615 20.3272 11.5886 20.0001L13.1086 18.4801C13.3285 18.2601 13.6143 18.0949 13.8792 17.9851C14.1436 17.8755 14.461 17.7904 14.7689 17.7904H16.9189C17.3846 17.7904 17.7689 17.4062 17.7689 16.9403V14.7904C17.7689 14.4826 17.8539 14.1651 17.9636 13.9007C18.0734 13.6358 18.2386 13.3501 18.4586 13.1301L19.9786 11.6101C20.3057 11.283 20.3057 10.7378 19.9786 10.4107L18.4586 8.89072C18.2386 8.67076 18.0734 8.38498 17.9636 8.12014C17.8539 7.85572 17.7689 7.53824 17.7689 7.23038V5.08036C17.7689 4.61457 17.3847 4.23038 16.9189 4.23038H14.7689C14.461 4.23038 14.1436 4.14534 13.8792 4.03571C13.6143 3.92591 13.3285 3.7607 13.1086 3.54074L11.5886 2.02072ZM9.32856 0.960061C10.2415 0.0471673 11.7363 0.0471673 12.6492 0.960061L14.1692 2.48008C14.2093 2.52012 14.3085 2.5899 14.4537 2.65008C14.5992 2.71044 14.7167 2.73038 14.7689 2.73038H16.9189C18.2131 2.73038 19.2689 3.78614 19.2689 5.08036V7.23038C19.2689 7.28252 19.2888 7.40004 19.3492 7.54562C19.4094 7.69079 19.4792 7.79001 19.5192 7.83006L21.0392 9.35008C21.9521 10.263 21.9521 11.7579 21.0392 12.6707L19.5192 14.1908C19.4792 14.2308 19.4094 14.33 19.3492 14.4752C19.2888 14.6208 19.2689 14.7383 19.2689 14.7904V16.9403C19.2689 18.2345 18.2132 19.2904 16.9189 19.2904H14.7689C14.7167 19.2904 14.5992 19.3104 14.4537 19.3707C14.3085 19.4309 14.2093 19.5007 14.1692 19.5407L12.6492 21.0608C11.7363 21.9737 10.2415 21.9737 9.32856 21.0608L7.80857 19.5407C7.76854 19.5007 7.66933 19.4309 7.52416 19.3707C7.37858 19.3104 7.26105 19.2904 7.20889 19.2904H5.0589C3.76463 19.2904 2.70889 18.2345 2.70889 16.9403V14.7904C2.70889 14.731 2.68776 14.6104 2.62859 14.4677C2.56873 14.3233 2.50149 14.2322 2.46906 14.2011L2.45856 14.1908L0.938574 12.6707C0.938572 12.6707 0.938575 12.6707 0.938574 12.6707C0.0256873 11.7579 0.025682 10.263 0.938568 9.35008C0.93857 9.35008 0.938567 9.35008 0.938568 9.35008L2.45856 7.83006C2.4986 7.79002 2.56839 7.69079 2.62859 7.54562C2.68895 7.40004 2.70889 7.28252 2.70889 7.23038V5.08036C2.70889 3.78612 3.76471 2.73038 5.0589 2.73038H7.20889C7.26105 2.73038 7.37858 2.71043 7.52416 2.65008C7.66932 2.5899 7.76853 2.52012 7.80856 2.48009C7.80857 2.48008 7.80856 2.48009 7.80856 2.48009L9.32856 0.960061Z" fill="#101010"/>
<path fill-rule="evenodd" clip-rule="evenodd" d="M14.5303 7.46967C14.8232 7.76256 14.8232 8.23744 14.5303 8.53033L8.53033 14.5303C8.23744 14.8232 7.76256 14.8232 7.46967 14.5303C7.17678 14.2374 7.17678 13.7626 7.46967 13.4697L13.4697 7.46967C13.7626 7.17678 14.2374 7.17678 14.5303 7.46967Z" fill="#101010"/>
<path fill-rule="evenodd" clip-rule="evenodd" d="M12.4941 13.5C12.4941 12.9477 12.9419 12.5 13.4941 12.5H13.5031C14.0554 12.5 14.5031 12.9477 14.5031 13.5C14.5031 14.0523 14.0554 14.5 13.5031 14.5H13.4941C12.9419 14.5 12.4941 14.0523 12.4941 13.5Z" fill="#101010"/>
<path fill-rule="evenodd" clip-rule="evenodd" d="M7.49414 8.5C7.49414 7.94772 7.94186 7.5 8.49414 7.5H8.50312C9.05541 7.5 9.50312 7.94772 9.50312 8.5C9.50312 9.05228 9.05541 9.5 8.50312 9.5H8.49414C7.94186 9.5 7.49414 9.05228 7.49414 8.5Z" fill="#101010"/>
</svg>
