<svg width="22" height="22" viewBox="0 0 22 22" fill="none" xmlns="http://www.w3.org/2000/svg">
<path fill-rule="evenodd" clip-rule="evenodd" d="M0.25 11C0.25 5.08579 5.08579 0.25 11 0.25C16.9142 0.25 21.75 5.08579 21.75 11C21.75 16.9142 16.9142 21.75 11 21.75C5.08579 21.75 0.25 16.9142 0.25 11ZM11 1.75C5.91421 1.75 1.75 5.91421 1.75 11C1.75 16.0858 5.91421 20.25 11 20.25C16.0858 20.25 20.25 16.0858 20.25 11C20.25 5.91421 16.0858 1.75 11 1.75Z" fill="#101010"/>
<path fill-rule="evenodd" clip-rule="evenodd" d="M15.75 9.45591L15.75 9.49994C15.75 12.9342 12.9342 15.7499 9.5 15.7499L9.45689 15.7499C8.86874 15.75 8.36515 15.75 7.97187 15.7063C7.57454 15.6621 7.12429 15.5599 6.78217 15.2178C6.44005 14.8757 6.3378 14.4254 6.29365 14.0281C6.24995 13.6348 6.24998 13.1312 6.25 12.543L6.25 12.4999C6.25 9.06662 9.0549 6.24994 12.5 6.24994C12.5713 6.24994 12.6414 6.24986 12.7103 6.24978C13.2222 6.2492 13.666 6.24869 14.0157 6.28167C14.4043 6.31831 14.8609 6.40742 15.2096 6.74562C15.5609 7.08626 15.6627 7.54259 15.7064 7.94068C15.7501 8.33711 15.75 8.84973 15.75 9.45591ZM12.7017 7.74986C12.6371 7.7499 12.5699 7.74994 12.5 7.74994C9.8851 7.74994 7.75 9.89327 7.75 12.4999C7.75 13.1433 7.75112 13.5622 7.78448 13.8624C7.805 14.0472 7.83283 14.127 7.84512 14.1548C7.8729 14.1671 7.95279 14.1949 8.13751 14.2155C8.43778 14.2488 8.85668 14.2499 9.5 14.2499C12.1058 14.2499 14.25 12.1057 14.25 9.49994C14.25 8.83749 14.2489 8.40892 14.2154 8.10469C14.1972 7.93892 14.1733 7.85902 14.1607 7.82617C14.1276 7.81419 14.046 7.79117 13.8749 7.77504C13.6015 7.74927 13.238 7.74951 12.7017 7.74986Z" fill="#101010"/>
</svg>
