<svg width="22" height="22" viewBox="0 0 22 22" fill="none" xmlns="http://www.w3.org/2000/svg">
<path fill-rule="evenodd" clip-rule="evenodd" d="M20.7869 1.21335C21.7745 2.20088 22.0443 3.71647 21.628 5.38184L19.138 15.3218C18.9172 16.2051 18.371 17.0499 17.7057 17.7153C17.0403 18.3806 16.1955 18.9267 15.3123 19.1475L5.3821 21.6276C3.7129 22.0435 2.19635 21.7745 1.20959 20.7861C0.223093 19.7979 -0.0432564 18.2821 0.372762 16.618L2.86247 6.68921C2.86254 6.68891 2.86239 6.68951 2.86247 6.68921C3.08294 5.8021 3.62595 4.95619 4.29129 4.29085C4.95663 3.62552 5.80163 3.08273 6.68875 2.86226C6.68905 2.86218 6.68845 2.86233 6.68875 2.86226L16.6179 0.372457C18.2833 -0.0438859 19.7994 0.225831 20.7869 1.21335ZM16.9828 1.82741C18.3171 1.49396 19.2264 1.7741 19.7263 2.27401C20.2263 2.77399 20.5064 3.6834 20.1728 5.01803L17.6828 14.9577C17.5437 15.5145 17.1697 16.13 16.645 16.6546C16.1204 17.1793 15.5052 17.5531 14.9485 17.6923L5.01904 20.1722C3.67824 20.5063 2.76939 20.2254 2.27114 19.7263C1.77267 19.227 1.49402 18.3179 1.82793 16.982C1.82791 16.9821 1.82794 16.982 1.82793 16.982L4.31785 7.05235L4.31827 7.05065C4.45794 6.4881 4.83001 5.87345 5.35195 5.35151C5.87389 4.82958 6.48853 4.4575 7.05109 4.31784L7.05279 4.31741L16.9828 1.82741C16.983 1.82737 16.9826 1.82745 16.9828 1.82741Z" fill="#101010"/>
<path fill-rule="evenodd" clip-rule="evenodd" d="M11 8.25C9.48122 8.25 8.25 9.48122 8.25 11C8.25 12.5188 9.48122 13.75 11 13.75C12.5188 13.75 13.75 12.5188 13.75 11C13.75 9.48122 12.5188 8.25 11 8.25ZM6.75 11C6.75 8.65279 8.65279 6.75 11 6.75C13.3472 6.75 15.25 8.65279 15.25 11C15.25 13.3472 13.3472 15.25 11 15.25C8.65279 15.25 6.75 13.3472 6.75 11Z" fill="#101010"/>
</svg>
