<svg width="22" height="22" viewBox="0 0 22 22" fill="none" xmlns="http://www.w3.org/2000/svg">
<path fill-rule="evenodd" clip-rule="evenodd" d="M8 9.25C8.41421 9.25 8.75 9.58579 8.75 10V14.1893L9.46967 13.4697C9.76256 13.1768 10.2374 13.1768 10.5303 13.4697C10.8232 13.7626 10.8232 14.2374 10.5303 14.5303L8.53033 16.5303C8.31583 16.7448 7.99324 16.809 7.71299 16.6929C7.43273 16.5768 7.25 16.3033 7.25 16V10C7.25 9.58579 7.58579 9.25 8 9.25Z" fill="#101010"/>
<path fill-rule="evenodd" clip-rule="evenodd" d="M5.46967 13.4697C5.76256 13.1768 6.23744 13.1768 6.53033 13.4697L8.53033 15.4697C8.82322 15.7626 8.82322 16.2374 8.53033 16.5303C8.23744 16.8232 7.76256 16.8232 7.46967 16.5303L5.46967 14.5303C5.17678 14.2374 5.17678 13.7626 5.46967 13.4697Z" fill="#101010"/>
<path fill-rule="evenodd" clip-rule="evenodd" d="M3.15533 3.15533C2.2398 4.07086 1.75 5.57397 1.75 8V14C1.75 16.426 2.2398 17.9291 3.15533 18.8447C4.07086 19.7602 5.57397 20.25 8 20.25H14C16.426 20.25 17.9291 19.7602 18.8447 18.8447C19.7602 17.9291 20.25 16.426 20.25 14V9C20.25 8.58579 20.5858 8.25 21 8.25C21.4142 8.25 21.75 8.58579 21.75 9V14C21.75 16.574 21.2398 18.5709 19.9053 19.9053C18.5709 21.2398 16.574 21.75 14 21.75H8C5.42603 21.75 3.42914 21.2398 2.09467 19.9053C0.760201 18.5709 0.25 16.574 0.25 14V8C0.25 5.42603 0.760201 3.42914 2.09467 2.09467C3.42914 0.760201 5.42603 0.25 8 0.25H13C13.4142 0.25 13.75 0.585786 13.75 1C13.75 1.41421 13.4142 1.75 13 1.75H8C5.57397 1.75 4.07086 2.2398 3.15533 3.15533Z" fill="#101010"/>
<path fill-rule="evenodd" clip-rule="evenodd" d="M12.713 0.307112C12.9932 0.191027 13.3158 0.255193 13.5303 0.469692L21.5303 8.46969C21.7448 8.68419 21.809 9.00678 21.6929 9.28703C21.5768 9.56729 21.3033 9.75002 21 9.75002H17C15.4585 9.75002 14.1921 9.50277 13.3447 8.65535C12.4972 7.80793 12.25 6.54157 12.25 5.00002V1.00002C12.25 0.696675 12.4327 0.423198 12.713 0.307112ZM13.75 2.81068V5.00002C13.75 6.45847 14.0028 7.19211 14.4053 7.59469C14.8079 7.99727 15.5415 8.25002 17 8.25002H19.1893L13.75 2.81068Z" fill="#101010"/>
</svg>
