<svg width="22" height="22" viewBox="0 0 22 22" fill="none" xmlns="http://www.w3.org/2000/svg">
<path fill-rule="evenodd" clip-rule="evenodd" d="M2.09516 2.09467C3.42963 0.760201 5.42652 0.25 8.00049 0.25H14.0005C16.5745 0.25 18.5714 0.760201 19.9058 2.09467C21.2403 3.42914 21.7505 5.42603 21.7505 8V14C21.7505 16.574 21.2403 18.5709 19.9058 19.9053C18.5714 21.2398 16.5745 21.75 14.0005 21.75H8.00049C5.42652 21.75 3.42963 21.2398 2.09516 19.9053C0.760689 18.5709 0.250488 16.574 0.250488 14V8C0.250488 5.42603 0.760689 3.42914 2.09516 2.09467ZM3.15582 3.15533C2.24029 4.07086 1.75049 5.57397 1.75049 8V14C1.75049 16.426 2.24029 17.9291 3.15582 18.8447C4.07135 19.7602 5.57446 20.25 8.00049 20.25H14.0005C16.4265 20.25 17.9296 19.7602 18.8452 18.8447C19.7607 17.9291 20.2505 16.426 20.2505 14V8C20.2505 5.57397 19.7607 4.07086 18.8452 3.15533C17.9296 2.2398 16.4265 1.75 14.0005 1.75H8.00049C5.57446 1.75 4.07135 2.2398 3.15582 3.15533Z" fill="#101010"/>
<path fill-rule="evenodd" clip-rule="evenodd" d="M6.50049 8C6.50049 7.58579 6.83627 7.25 7.25049 7.25H14.7505C15.1647 7.25 15.5005 7.58579 15.5005 8C15.5005 8.41421 15.1647 8.75 14.7505 8.75H7.25049C6.83627 8.75 6.50049 8.41421 6.50049 8Z" fill="#101010"/>
<path fill-rule="evenodd" clip-rule="evenodd" d="M6.50049 14C6.50049 13.5858 6.83627 13.25 7.25049 13.25H14.7505C15.1647 13.25 15.5005 13.5858 15.5005 14C15.5005 14.4142 15.1647 14.75 14.7505 14.75H7.25049C6.83627 14.75 6.50049 14.4142 6.50049 14Z" fill="#101010"/>
</svg>
