<svg width="22" height="22" viewBox="0 0 22 22" fill="none" xmlns="http://www.w3.org/2000/svg">
<path fill-rule="evenodd" clip-rule="evenodd" d="M3.15533 3.15533C2.2398 4.07086 1.75 5.57397 1.75 8V14C1.75 16.426 2.2398 17.9291 3.15533 18.8447C4.07086 19.7602 5.57397 20.25 8 20.25H14C16.426 20.25 17.9291 19.7602 18.8447 18.8447C19.7602 17.9291 20.25 16.426 20.25 14V9C20.25 8.58579 20.5858 8.25 21 8.25C21.4142 8.25 21.75 8.58579 21.75 9V14C21.75 16.574 21.2398 18.5709 19.9053 19.9053C18.5709 21.2398 16.574 21.75 14 21.75H8C5.42603 21.75 3.42914 21.2398 2.09467 19.9053C0.760201 18.5709 0.25 16.574 0.25 14V8C0.25 5.42603 0.760201 3.42914 2.09467 2.09467C3.42914 0.760201 5.42603 0.25 8 0.25H13C13.4142 0.25 13.75 0.585786 13.75 1C13.75 1.41421 13.4142 1.75 13 1.75H8C5.57397 1.75 4.07086 2.2398 3.15533 3.15533Z" fill="#101010"/>
<path fill-rule="evenodd" clip-rule="evenodd" d="M12.713 0.307112C12.9932 0.191027 13.3158 0.255193 13.5303 0.469692L21.5303 8.46969C21.7448 8.68419 21.809 9.00678 21.6929 9.28703C21.5768 9.56729 21.3033 9.75002 21 9.75002H17C15.4585 9.75002 14.1921 9.50277 13.3447 8.65535C12.4972 7.80793 12.25 6.54157 12.25 5.00002V1.00002C12.25 0.696675 12.4327 0.423198 12.713 0.307112ZM13.75 2.81068V5.00002C13.75 6.45847 14.0028 7.19211 14.4053 7.59469C14.8079 7.99727 15.5415 8.25002 17 8.25002H19.1893L13.75 2.81068Z" fill="#101010"/>
<path fill-rule="evenodd" clip-rule="evenodd" d="M9.8393 12.7938C9.50581 12.687 9.1745 12.7993 9.03875 13.0084C8.90341 13.2169 8.67357 13.3448 8.42506 13.3499C8.17654 13.355 7.94164 13.2367 7.79787 13.0339C7.62982 12.7969 7.2952 12.6959 6.97919 12.7941C6.4334 12.9754 6.08432 13.7209 6.33362 14.5004C6.53512 15.123 6.9838 15.6213 7.47024 15.9744C7.71048 16.1488 7.94606 16.2773 8.13853 16.3603C8.29125 16.4262 8.38342 16.4491 8.41574 16.4567C8.44632 16.4496 8.53764 16.4279 8.69168 16.3621C8.88588 16.2791 9.12361 16.1497 9.36549 15.9743C9.85618 15.6183 10.3017 15.1194 10.4936 14.507C10.7388 13.7169 10.3915 12.9734 9.8393 12.7938ZM8.39819 11.582C8.99458 11.2096 9.73495 11.1847 10.2992 11.3661L10.3009 11.3666C11.908 11.8874 12.3202 13.6833 11.9259 14.9526L11.9254 14.954C11.6072 15.9712 10.9029 16.712 10.2463 17.1884C9.91447 17.4292 9.57907 17.6141 9.28108 17.7415C9.00882 17.8578 8.68963 17.9601 8.40967 17.9601L8.39436 17.9599C8.12451 17.9544 7.81432 17.854 7.54455 17.7377C7.25077 17.611 6.91885 17.4276 6.58909 17.1883C5.93577 16.7141 5.23465 15.9776 4.90601 14.9607L4.90543 14.9589L4.90543 14.9589C4.49583 13.6805 4.92458 11.888 6.5165 11.3672L6.52381 11.3649L6.52382 11.3649C7.11002 11.1798 7.81827 11.2276 8.39819 11.582Z" fill="#101010"/>
</svg>
