<svg width="21" height="22" viewBox="0 0 21 22" fill="none" xmlns="http://www.w3.org/2000/svg">
<path fill-rule="evenodd" clip-rule="evenodd" d="M2.6379 1.86466C3.63152 0.794615 5.10705 0.25 7 0.25H15C16.893 0.25 18.3685 0.794615 19.3621 1.86466C20.3464 2.92465 20.75 4.38503 20.75 6V16C20.75 17.615 20.3464 19.0754 19.3621 20.1353C18.3685 21.2054 16.893 21.75 15 21.75H10C9.58579 21.75 9.25 21.4142 9.25 21C9.25 20.5858 9.58579 20.25 10 20.25H15C16.607 20.25 17.6315 19.7946 18.2629 19.1147C18.9036 18.4246 19.25 17.385 19.25 16V6C19.25 4.61497 18.9036 3.57535 18.2629 2.88534C17.6315 2.20538 16.607 1.75 15 1.75H7C5.39295 1.75 4.36848 2.20538 3.7371 2.88534C3.09637 3.57535 2.75 4.61497 2.75 6V13C2.75 13.4142 2.41421 13.75 2 13.75C1.58579 13.75 1.25 13.4142 1.25 13V6C1.25 4.38503 1.65363 2.92465 2.6379 1.86466Z" fill="#101010"/>
<path fill-rule="evenodd" clip-rule="evenodd" d="M13.5 2.75C13.9142 2.75 14.25 3.08579 14.25 3.5V5.5C14.25 6.18579 14.8142 6.75 15.5 6.75H17.5C17.9142 6.75 18.25 7.08579 18.25 7.5C18.25 7.91421 17.9142 8.25 17.5 8.25H15.5C13.9858 8.25 12.75 7.01421 12.75 5.5V3.5C12.75 3.08579 13.0858 2.75 13.5 2.75Z" fill="#101010"/>
<path fill-rule="evenodd" clip-rule="evenodd" d="M3.53033 15.4697C3.82322 15.7626 3.82322 16.2374 3.53033 16.5303L2.06066 18L3.53033 19.4697C3.82322 19.7626 3.82322 20.2374 3.53033 20.5303C3.23744 20.8232 2.76256 20.8232 2.46967 20.5303L0.46967 18.5303C0.176777 18.2374 0.176777 17.7626 0.46967 17.4697L2.46967 15.4697C2.76256 15.1768 3.23744 15.1768 3.53033 15.4697Z" fill="#101010"/>
<path fill-rule="evenodd" clip-rule="evenodd" d="M5.46967 15.4697C5.76256 15.1768 6.23744 15.1768 6.53033 15.4697L8.53033 17.4697C8.82322 17.7626 8.82322 18.2374 8.53033 18.5303L6.53033 20.5303C6.23744 20.8232 5.76256 20.8232 5.46967 20.5303C5.17678 20.2374 5.17678 19.7626 5.46967 19.4697L6.93934 18L5.46967 16.5303C5.17678 16.2374 5.17678 15.7626 5.46967 15.4697Z" fill="#101010"/>
</svg>
