<svg width="22" height="22" viewBox="0 0 22 22" fill="none" xmlns="http://www.w3.org/2000/svg">
<path fill-rule="evenodd" clip-rule="evenodd" d="M9.46967 11.4697C9.76256 11.1768 10.2374 11.1768 10.5303 11.4697L12.5303 13.4697C12.6639 13.6032 12.7365 13.7746 12.7483 13.9494C12.7516 13.9982 12.7502 14.0474 12.7438 14.0964C12.7256 14.238 12.667 14.3753 12.568 14.4899C12.5547 14.5052 12.5408 14.52 12.5264 14.5343L10.5303 16.5303C10.2374 16.8232 9.76256 16.8232 9.46967 16.5303C9.17678 16.2374 9.17678 15.7626 9.46967 15.4697L10.1893 14.75H6C5.58579 14.75 5.25 14.4142 5.25 14C5.25 13.5858 5.58579 13.25 6 13.25H10.1893L9.46967 12.5303C9.17678 12.2374 9.17678 11.7626 9.46967 11.4697Z" fill="#101010"/>
<path fill-rule="evenodd" clip-rule="evenodd" d="M3.15533 3.15533C2.2398 4.07086 1.75 5.57397 1.75 8V14C1.75 16.426 2.2398 17.9291 3.15533 18.8447C4.07086 19.7602 5.57397 20.25 8 20.25H14C16.426 20.25 17.9291 19.7602 18.8447 18.8447C19.7602 17.9291 20.25 16.426 20.25 14V9C20.25 8.58579 20.5858 8.25 21 8.25C21.4142 8.25 21.75 8.58579 21.75 9V14C21.75 16.574 21.2398 18.5709 19.9053 19.9053C18.5709 21.2398 16.574 21.75 14 21.75H8C5.42603 21.75 3.42914 21.2398 2.09467 19.9053C0.760201 18.5709 0.25 16.574 0.25 14V8C0.25 5.42603 0.760201 3.42914 2.09467 2.09467C3.42914 0.760201 5.42603 0.25 8 0.25H13C13.4142 0.25 13.75 0.585786 13.75 1C13.75 1.41421 13.4142 1.75 13 1.75H8C5.57397 1.75 4.07086 2.2398 3.15533 3.15533Z" fill="#101010"/>
<path fill-rule="evenodd" clip-rule="evenodd" d="M12.713 0.307112C12.9932 0.191027 13.3158 0.255193 13.5303 0.469692L21.5303 8.46969C21.7448 8.68419 21.809 9.00678 21.6929 9.28703C21.5768 9.56729 21.3033 9.75002 21 9.75002H17C15.4585 9.75002 14.1921 9.50277 13.3447 8.65535C12.4972 7.80793 12.25 6.54157 12.25 5.00002V1.00002C12.25 0.696675 12.4327 0.423198 12.713 0.307112ZM13.75 2.81068V5.00002C13.75 6.45847 14.0028 7.19211 14.4053 7.59469C14.8079 7.99727 15.5415 8.25002 17 8.25002H19.1893L13.75 2.81068Z" fill="#101010"/>
</svg>
