<svg width="22" height="22" viewBox="0 0 22 22" fill="none" xmlns="http://www.w3.org/2000/svg">
<path fill-rule="evenodd" clip-rule="evenodd" d="M2.09467 2.09467C3.42914 0.760201 5.42603 0.25 8 0.25H13C13.4142 0.25 13.75 0.585786 13.75 1C13.75 1.41421 13.4142 1.75 13 1.75H8C5.57397 1.75 4.07086 2.2398 3.15533 3.15533C2.2398 4.07086 1.75 5.57397 1.75 8V14C1.75 16.426 2.2398 17.9291 3.15533 18.8447C4.07086 19.7602 5.57397 20.25 8 20.25C8.41421 20.25 8.75 20.5858 8.75 21C8.75 21.4142 8.41421 21.75 8 21.75C5.42603 21.75 3.42914 21.2398 2.09467 19.9053C0.760201 18.5709 0.25 16.574 0.25 14V8C0.25 5.42603 0.760201 3.42914 2.09467 2.09467Z" fill="#101010"/>
<path fill-rule="evenodd" clip-rule="evenodd" d="M21 8.25C21.4142 8.25 21.75 8.58579 21.75 9V12C21.75 12.4142 21.4142 12.75 21 12.75C20.5858 12.75 20.25 12.4142 20.25 12V9C20.25 8.58579 20.5858 8.25 21 8.25Z" fill="#101010"/>
<path fill-rule="evenodd" clip-rule="evenodd" d="M12.713 0.307112C12.9932 0.191027 13.3158 0.255193 13.5303 0.469692L21.5303 8.46969C21.7448 8.68419 21.809 9.00678 21.6929 9.28703C21.5768 9.56729 21.3033 9.75002 21 9.75002H17C15.4585 9.75002 14.1921 9.50277 13.3447 8.65535C12.4972 7.80793 12.25 6.54157 12.25 5.00002V1.00002C12.25 0.696675 12.4327 0.423198 12.713 0.307112ZM13.75 2.81068V5.00002C13.75 6.45847 14.0028 7.19211 14.4053 7.59469C14.8079 7.99727 15.5415 8.25002 17 8.25002H19.1893L13.75 2.81068Z" fill="#101010"/>
<path fill-rule="evenodd" clip-rule="evenodd" d="M19.369 15.0779C19.071 13.9757 18.4459 13.1765 17.6339 12.6998C16.7196 12.1631 15.6397 12.0772 14.6769 12.3296C13.714 12.582 12.8148 13.1868 12.2789 14.1021C11.8504 14.8339 11.6805 15.7198 11.8524 16.6973C9.45779 17.6214 9.74214 21.5338 12.7055 21.7481C12.7235 21.7494 12.7415 21.7501 12.7596 21.7501H18.3196C19.1683 21.7501 20.0079 21.4359 20.6399 20.8589C22.6262 19.1157 21.7785 15.7955 19.369 15.0779ZM12.7203 18.0179C12.823 18.0261 12.929 18.0132 13.0323 17.9762C13.4223 17.8366 13.6253 17.4073 13.4857 17.0173C13.1526 16.0867 13.274 15.3713 13.5734 14.86C13.8831 14.3309 14.4276 13.9456 15.0573 13.7806C15.687 13.6155 16.3483 13.6845 16.8746 13.9935C17.3831 14.2919 17.8372 14.8559 17.9997 15.8331C18.0542 16.1606 18.3175 16.4134 18.647 16.4543C20.1722 16.6441 20.8093 18.7202 19.6464 19.735L19.6323 19.7477C19.285 20.0666 18.8077 20.2501 18.3196 20.2501H12.7894C11.4231 20.1287 11.4 18.2002 12.7203 18.0179Z" fill="#101010"/>
</svg>
