<svg width="20" height="22" viewBox="0 0 20 22" fill="none" xmlns="http://www.w3.org/2000/svg">
<path fill-rule="evenodd" clip-rule="evenodd" d="M2.7371 2.88534C2.09637 3.57535 1.75 4.61497 1.75 6V16C1.75 17.385 2.09637 18.4246 2.7371 19.1147C3.36848 19.7946 4.39295 20.25 6 20.25H14C15.607 20.25 16.6315 19.7946 17.2629 19.1147C17.9036 18.4246 18.25 17.385 18.25 16V6C18.25 4.61497 17.9036 3.57535 17.2629 2.88534C16.6315 2.20538 15.607 1.75 14 1.75H6C4.39295 1.75 3.36848 2.20538 2.7371 2.88534ZM1.6379 1.86466C2.63152 0.794615 4.10705 0.25 6 0.25H14C15.893 0.25 17.3685 0.794615 18.3621 1.86466C19.3464 2.92465 19.75 4.38503 19.75 6V16C19.75 17.615 19.3464 19.0754 18.3621 20.1353C17.3685 21.2054 15.893 21.75 14 21.75H6C4.10705 21.75 2.63152 21.2054 1.6379 20.1353C0.653634 19.0754 0.25 17.615 0.25 16V6C0.25 4.38503 0.653634 2.92465 1.6379 1.86466Z" fill="#101010"/>
<path fill-rule="evenodd" clip-rule="evenodd" d="M12.5 2.75C12.9142 2.75 13.25 3.08579 13.25 3.5V5.5C13.25 6.18579 13.8142 6.75 14.5 6.75H16.5C16.9142 6.75 17.25 7.08579 17.25 7.5C17.25 7.91421 16.9142 8.25 16.5 8.25H14.5C12.9858 8.25 11.75 7.01421 11.75 5.5V3.5C11.75 3.08579 12.0858 2.75 12.5 2.75Z" fill="#101010"/>
<path fill-rule="evenodd" clip-rule="evenodd" d="M5.25 12C5.25 11.5858 5.58579 11.25 6 11.25H10C10.4142 11.25 10.75 11.5858 10.75 12C10.75 12.4142 10.4142 12.75 10 12.75H6C5.58579 12.75 5.25 12.4142 5.25 12Z" fill="#101010"/>
<path fill-rule="evenodd" clip-rule="evenodd" d="M5.25 16C5.25 15.5858 5.58579 15.25 6 15.25H14C14.4142 15.25 14.75 15.5858 14.75 16C14.75 16.4142 14.4142 16.75 14 16.75H6C5.58579 16.75 5.25 16.4142 5.25 16Z" fill="#101010"/>
</svg>
