<svg width="22" height="22" viewBox="0 0 22 22" fill="none" xmlns="http://www.w3.org/2000/svg">
<path fill-rule="evenodd" clip-rule="evenodd" d="M3.15533 3.15533C2.2398 4.07086 1.75 5.57397 1.75 8V14C1.75 16.426 2.2398 17.9291 3.15533 18.8447C4.07086 19.7602 5.57397 20.25 8 20.25H14C16.426 20.25 17.9291 19.7602 18.8447 18.8447C19.7602 17.9291 20.25 16.426 20.25 14V9C20.25 8.58579 20.5858 8.25 21 8.25C21.4142 8.25 21.75 8.58579 21.75 9V14C21.75 16.574 21.2398 18.5709 19.9053 19.9053C18.5709 21.2398 16.574 21.75 14 21.75H8C5.42603 21.75 3.42914 21.2398 2.09467 19.9053C0.760201 18.5709 0.25 16.574 0.25 14V8C0.25 5.42603 0.760201 3.42914 2.09467 2.09467C3.42914 0.760201 5.42603 0.25 8 0.25H13C13.4142 0.25 13.75 0.585786 13.75 1C13.75 1.41421 13.4142 1.75 13 1.75H8C5.57397 1.75 4.07086 2.2398 3.15533 3.15533Z" fill="#101010"/>
<path fill-rule="evenodd" clip-rule="evenodd" d="M12.713 0.307112C12.9932 0.191027 13.3158 0.255193 13.5303 0.469692L21.5303 8.46969C21.7448 8.68419 21.809 9.00678 21.6929 9.28703C21.5768 9.56729 21.3033 9.75002 21 9.75002H17C15.4585 9.75002 14.1921 9.50277 13.3447 8.65535C12.4972 7.80793 12.25 6.54157 12.25 5.00002V1.00002C12.25 0.696675 12.4327 0.423198 12.713 0.307112ZM13.75 2.81068V5.00002C13.75 6.45847 14.0028 7.19211 14.4053 7.59469C14.8079 7.99727 15.5415 8.25002 17 8.25002H19.1893L13.75 2.81068Z" fill="#101010"/>
<path fill-rule="evenodd" clip-rule="evenodd" d="M7.16795 11.8399L6.05101 13.5202C6.04662 13.5267 6.03079 13.5598 6.03628 13.6164C6.04177 13.673 6.0638 13.7034 6.07011 13.7097L8.53011 16.1697C8.556 16.1956 8.5939 16.2125 8.63978 16.2125C8.68566 16.2125 8.72356 16.1956 8.74945 16.1697L11.2094 13.7097C11.2158 13.7034 11.2378 13.673 11.2433 13.6164C11.2488 13.5598 11.233 13.5267 11.2286 13.5202L11.2252 13.5152L10.096 11.8164C10.0952 11.8157 10.0944 11.815 10.0934 11.8141C10.0828 11.805 10.0649 11.7922 10.0412 11.7796C10.0176 11.767 9.99511 11.7583 9.97763 11.7534C9.9705 11.7514 9.96571 11.7504 9.96327 11.75H7.3304C7.32811 11.7505 7.32475 11.7513 7.3203 11.7526C7.3031 11.7575 7.27909 11.7667 7.25208 11.7809C7.22519 11.7951 7.20186 11.8109 7.18439 11.8252C7.1763 11.8318 7.17099 11.8368 7.16795 11.8399ZM10.087 11.8027L10.0893 11.8062L10.087 11.8027ZM6.55247 10.4541C6.76234 10.3434 7.03326 10.25 7.31978 10.25H9.96978C10.257 10.25 10.5304 10.3408 10.7458 10.4554C10.9571 10.5678 11.1887 10.7438 11.3476 10.9897L12.473 12.6827C12.9031 13.3217 12.8122 14.2283 12.2701 14.7703L9.81011 17.2303C9.16722 17.8732 8.11234 17.8732 7.46945 17.2303L5.00945 14.7703C4.46737 14.2283 4.37648 13.3217 4.80658 12.6827L5.93518 10.9848C5.94101 10.976 5.94703 10.9674 5.95323 10.9589C6.11651 10.7344 6.34036 10.5659 6.55247 10.4541Z" fill="#101010"/>
</svg>
