<svg width="22" height="22" viewBox="0 0 22 22" fill="none" xmlns="http://www.w3.org/2000/svg">
<path fill-rule="evenodd" clip-rule="evenodd" d="M6.10878 1.06587C6.65026 0.509077 7.42586 0.25 8.4502 0.25H13.5502C14.5745 0.25 15.3501 0.509077 15.8916 1.06587C16.4052 1.59396 16.5955 2.28315 16.7144 2.85708C16.7145 2.85733 16.7144 2.85683 16.7144 2.85708L17.5343 6.77643C17.5806 6.99749 17.5247 7.22763 17.3823 7.40292C17.2399 7.57821 17.0261 7.67999 16.8002 7.67999H5.2002C4.97435 7.67999 4.76052 7.57821 4.6181 7.40292C4.47569 7.22763 4.41985 6.99749 4.46609 6.77643L5.28581 2.85784C5.28586 2.8576 5.28576 2.85807 5.28581 2.85784C5.40477 2.2839 5.5952 1.59397 6.10878 1.06587ZM7.18413 2.11164C6.99042 2.31082 6.86566 2.62626 6.75461 3.16218L6.12333 6.17999H15.8771L15.2458 3.16218C15.1348 2.62626 15.01 2.31082 14.8163 2.11164C14.6503 1.94093 14.3259 1.75 13.5502 1.75H8.4502C7.67454 1.75 7.35014 1.94093 7.18413 2.11164Z" fill="#101010"/>
<path fill-rule="evenodd" clip-rule="evenodd" d="M5.16358 7.98465C5.03107 8.14182 4.9586 8.4068 4.90707 8.96848L4.4969 13.3902C4.45985 13.7839 4.77567 14.15 5.22021 14.15H6.58021C6.71231 14.15 6.78471 14.1364 6.81822 14.1271C6.81923 14.1251 6.82031 14.1228 6.82144 14.1204C6.84225 14.0763 6.8617 14.0211 6.90044 13.9076L6.90203 13.903L7.05028 13.4779C7.05348 13.4683 7.05676 13.4584 7.06013 13.4482C7.14096 13.2039 7.27784 12.7903 7.61546 12.4746C8.00117 12.1139 8.52029 11.9799 9.1402 11.9799H12.8502C13.452 11.9799 13.9752 12.0913 14.3669 12.4519C14.6999 12.7584 14.8385 13.1737 14.923 13.427C14.9287 13.4442 14.9342 13.4606 14.9395 13.4762L15.0918 13.9128C15.1299 14.027 15.1494 14.0829 15.1696 14.126C15.1699 14.1267 15.1702 14.1273 15.1705 14.1279C15.2055 14.1373 15.278 14.15 15.4102 14.15H16.7702C17.2147 14.15 17.5306 13.7839 17.4935 13.3902L17.0834 8.96924C17.0319 8.40756 16.9593 8.14182 16.8268 7.98466C16.7301 7.86997 16.471 7.66992 15.6202 7.66992H6.3702C5.51939 7.66992 5.26028 7.86997 5.16358 7.98465ZM4.01682 7.01773C4.52512 6.41489 5.32101 6.16992 6.3702 6.16992H15.6202C16.6694 6.16992 17.4653 6.41489 17.9736 7.01773C18.446 7.57797 18.5286 8.30283 18.577 8.83112C18.577 8.83123 18.577 8.83102 18.577 8.83112L18.9869 13.2497C18.9869 13.2497 18.9869 13.2496 18.9869 13.2497C19.1097 14.5559 18.0656 15.65 16.7702 15.65H15.4102C14.9248 15.65 14.4783 15.548 14.1394 15.2269C13.8557 14.9582 13.7402 14.6055 13.6804 14.4226C13.6768 14.4117 13.6734 14.4014 13.6702 14.3918L13.5199 13.9607C13.466 13.8017 13.4342 13.71 13.3993 13.6358C13.3688 13.571 13.3519 13.5563 13.351 13.5555C13.35 13.5546 13.347 13.5517 13.3383 13.547C13.3289 13.542 13.3093 13.5327 13.274 13.5226C13.1998 13.5013 13.0695 13.4799 12.8502 13.4799H9.1402C8.93106 13.4799 8.80483 13.5029 8.73228 13.5253C8.66646 13.5456 8.64566 13.5649 8.63994 13.5702C8.60903 13.5991 8.57231 13.6553 8.47171 13.9571L8.46843 13.9669L8.31924 14.3945C8.31556 14.4052 8.31164 14.417 8.30744 14.4296C8.24811 14.607 8.13195 14.9546 7.85351 15.2208C7.51675 15.5428 7.07133 15.65 6.58021 15.65H5.22021C3.92491 15.65 2.88085 14.5563 3.00345 13.2502C3.00347 13.25 3.00344 13.2504 3.00345 13.2502L3.41334 8.83144C3.41336 8.83132 3.41333 8.83157 3.41334 8.83144C3.46182 8.30316 3.54446 7.57795 4.01682 7.01773Z" fill="#101010"/>
<path fill-rule="evenodd" clip-rule="evenodd" d="M3.72021 4.75C3.72021 4.33579 4.056 4 4.47021 4H5.20021C5.61442 4 5.95021 4.33579 5.95021 4.75C5.95021 5.16421 5.61442 5.5 5.20021 5.5H4.47021C4.056 5.5 3.72021 5.16421 3.72021 4.75Z" fill="#101010"/>
<path fill-rule="evenodd" clip-rule="evenodd" d="M16.0503 4.75C16.0503 4.33579 16.3861 4 16.8003 4H17.5303C17.9445 4 18.2803 4.33579 18.2803 4.75C18.2803 5.16421 17.9445 5.5 17.5303 5.5H16.8003C16.3861 5.5 16.0503 5.16421 16.0503 4.75Z" fill="#101010"/>
<path fill-rule="evenodd" clip-rule="evenodd" d="M5.90039 9.83008C5.90039 9.41586 6.23618 9.08008 6.65039 9.08008H8.8204C9.23462 9.08008 9.5704 9.41586 9.5704 9.83008C9.5704 10.2443 9.23462 10.5801 8.8204 10.5801H6.65039C6.23618 10.5801 5.90039 10.2443 5.90039 9.83008Z" fill="#101010"/>
<path fill-rule="evenodd" clip-rule="evenodd" d="M12.4302 9.83008C12.4302 9.41586 12.766 9.08008 13.1802 9.08008H15.3502C15.7644 9.08008 16.1002 9.41586 16.1002 9.83008C16.1002 10.2443 15.7644 10.5801 15.3502 10.5801H13.1802C12.766 10.5801 12.4302 10.2443 12.4302 9.83008Z" fill="#101010"/>
<path fill-rule="evenodd" clip-rule="evenodd" d="M11 15.25C11.4142 15.25 11.75 15.5858 11.75 16V17C11.75 17.4142 11.4142 17.75 11 17.75C10.5858 17.75 10.25 17.4142 10.25 17V16C10.25 15.5858 10.5858 15.25 11 15.25Z" fill="#101010"/>
<path fill-rule="evenodd" clip-rule="evenodd" d="M11 19.25C11.4142 19.25 11.75 19.5858 11.75 20V21C11.75 21.4142 11.4142 21.75 11 21.75C10.5858 21.75 10.25 21.4142 10.25 21V20C10.25 19.5858 10.5858 19.25 11 19.25Z" fill="#101010"/>
<path fill-rule="evenodd" clip-rule="evenodd" d="M2.18208 16.2724C2.58393 16.3729 2.82825 16.7801 2.72778 17.182L1.72778 21.182C1.62732 21.5838 1.22012 21.8281 0.818276 21.7277C0.416429 21.6272 0.172109 21.22 0.272571 20.8182L1.27257 16.8182C1.37303 16.4163 1.78023 16.172 2.18208 16.2724Z" fill="#101010"/>
<path fill-rule="evenodd" clip-rule="evenodd" d="M19.8183 16.2724C20.2201 16.172 20.6273 16.4163 20.7278 16.8182L21.7278 20.8182C21.8282 21.22 21.5839 21.6272 21.1821 21.7277C20.7802 21.8281 20.373 21.5838 20.2726 21.182L19.2726 17.182C19.1721 16.7801 19.4164 16.3729 19.8183 16.2724Z" fill="#101010"/>
</svg>
