<svg width="22" height="22" viewBox="0 0 22 22" fill="none" xmlns="http://www.w3.org/2000/svg">
<path fill-rule="evenodd" clip-rule="evenodd" d="M5 4.5C5.41421 4.5 5.75 4.83579 5.75 5.25V7.25C5.75 7.66421 5.41421 8 5 8C4.58579 8 4.25 7.66421 4.25 7.25V5.25C4.25 4.83579 4.58579 4.5 5 4.5Z" fill="#101010"/>
<path fill-rule="evenodd" clip-rule="evenodd" d="M9 4.5C9.41421 4.5 9.75 4.83579 9.75 5.25V7.25C9.75 7.66421 9.41421 8 9 8C8.58579 8 8.25 7.66421 8.25 7.25V5.25C8.25 4.83579 8.58579 4.5 9 4.5Z" fill="#101010"/>
<path fill-rule="evenodd" clip-rule="evenodd" d="M2.09467 2.09467C3.42914 0.760201 5.42603 0.25 8 0.25H14C16.574 0.25 18.5709 0.760201 19.9053 2.09467C21.2398 3.42914 21.75 5.42603 21.75 8V14C21.75 16.574 21.2398 18.5709 19.9053 19.9053C18.5709 21.2398 16.574 21.75 14 21.75H8C5.42603 21.75 3.42914 21.2398 2.09467 19.9053C0.760201 18.5709 0.25 16.574 0.25 14V8C0.25 5.42603 0.760201 3.42914 2.09467 2.09467ZM3.15533 3.15533C2.2398 4.07086 1.75 5.57397 1.75 8V14C1.75 16.426 2.2398 17.9291 3.15533 18.8447C4.07086 19.7602 5.57397 20.25 8 20.25H14C16.426 20.25 17.9291 19.7602 18.8447 18.8447C19.7602 17.9291 20.25 16.426 20.25 14V8C20.25 5.57397 19.7602 4.07086 18.8447 3.15533C17.9291 2.2398 16.426 1.75 14 1.75H8C5.57397 1.75 4.07086 2.2398 3.15533 3.15533Z" fill="#101010"/>
<path fill-rule="evenodd" clip-rule="evenodd" d="M5 14.25C5.41421 14.25 5.75 14.5858 5.75 15V17C5.75 17.4142 5.41421 17.75 5 17.75C4.58579 17.75 4.25 17.4142 4.25 17V15C4.25 14.5858 4.58579 14.25 5 14.25Z" fill="#101010"/>
<path fill-rule="evenodd" clip-rule="evenodd" d="M9 14.25C9.41421 14.25 9.75 14.5858 9.75 15V17C9.75 17.4142 9.41421 17.75 9 17.75C8.58579 17.75 8.25 17.4142 8.25 17V15C8.25 14.5858 8.58579 14.25 9 14.25Z" fill="#101010"/>
<path fill-rule="evenodd" clip-rule="evenodd" d="M12.25 6.25C12.25 5.83579 12.5858 5.5 13 5.5H17C17.4142 5.5 17.75 5.83579 17.75 6.25C17.75 6.66421 17.4142 7 17 7H13C12.5858 7 12.25 6.66421 12.25 6.25Z" fill="#101010"/>
<path fill-rule="evenodd" clip-rule="evenodd" d="M12.25 16C12.25 15.5858 12.5858 15.25 13 15.25H17C17.4142 15.25 17.75 15.5858 17.75 16C17.75 16.4142 17.4142 16.75 17 16.75H13C12.5858 16.75 12.25 16.4142 12.25 16Z" fill="#101010"/>
<path fill-rule="evenodd" clip-rule="evenodd" d="M0.25 11C0.25 10.5858 0.585786 10.25 1 10.25H21C21.4142 10.25 21.75 10.5858 21.75 11C21.75 11.4142 21.4142 11.75 21 11.75H1C0.585786 11.75 0.25 11.4142 0.25 11Z" fill="#101010"/>
</svg>
