<svg width="18" height="22" viewBox="0 0 18 22" fill="none" xmlns="http://www.w3.org/2000/svg">
<path fill-rule="evenodd" clip-rule="evenodd" d="M7.9328 0.615593C8.56308 0.127595 9.43987 0.128136 10.0696 0.617216C11.0392 1.36631 12.9679 2.97556 14.6598 5.10464C16.3413 7.22058 17.8656 9.94598 17.8601 12.9114L17.1101 12.91H17.8601C17.8601 12.9105 17.8601 12.9109 17.8601 12.9114C17.8594 17.7856 13.8933 21.75 9.01016 21.75C4.12603 21.75 0.161264 17.7747 0.160156 12.902C0.16016 12.9027 0.160164 12.9034 0.160167 12.9041L0.910156 12.9H0.160156C0.160156 12.9007 0.160156 12.9014 0.160156 12.902M9.14968 1.80201C9.06052 1.73266 8.93979 1.73266 8.85062 1.80201L8.84519 1.80624L8.84517 1.80621C7.91894 2.51308 6.09506 4.01533 4.51286 6.00002C2.92102 7.99681 1.64651 10.3908 1.66015 12.8959L1.66017 12.9C1.66016 16.9464 4.95498 20.25 9.01016 20.25C13.0665 20.25 16.3601 16.9552 16.3601 12.91L16.3601 12.9086C16.3647 10.444 15.084 8.04942 13.4855 6.03786C11.8979 4.04015 10.0723 2.51477 9.15164 1.80353L9.14968 1.80201Z" fill="#101010"/>
</svg>
