<svg width="18" height="19" viewBox="0 0 18 19" fill="none" xmlns="http://www.w3.org/2000/svg">
<path fill-rule="evenodd" clip-rule="evenodd" d="M12.5205 0.276369C13.6873 0.127173 14.8677 0.604288 16.0671 1.73284L16.0685 1.73414C17.2719 2.87223 17.8198 4.02673 17.7376 5.20261C17.6581 6.33886 16.9994 7.30057 16.2483 8.09412M16.2483 8.09412L8.04239 16.7798C7.81106 17.0317 7.49957 17.2451 7.20427 17.403C6.90518 17.5629 6.55921 17.6997 6.23442 17.7575L6.22943 17.7584L3.01058 18.3082C2.23001 18.4427 1.48151 18.2477 0.94831 17.742C0.415856 17.2371 0.18057 16.5007 0.267734 15.7162L0.26799 15.714L0.639594 12.4599C0.682753 12.1362 0.802968 11.7859 0.944676 11.4821C1.08588 11.1793 1.27853 10.8582 1.50651 10.6156L1.50797 10.614L9.71797 1.924C10.4695 1.13013 11.3931 0.420542 12.5205 0.276369M10.8078 2.95467C10.8077 2.9548 10.8079 2.95454 10.8078 2.95467L2.59978 11.6426C2.59961 11.6427 2.59995 11.6424 2.59978 11.6426C2.51781 11.73 2.40521 11.8993 2.30412 12.116C2.20486 12.3289 2.14524 12.5258 2.12737 12.6524L1.75856 15.8819C1.75852 15.8822 1.75848 15.8826 1.75845 15.8829C1.71594 16.2678 1.83557 16.5162 1.98048 16.6536C2.12478 16.7905 2.37628 16.8954 2.75572 16.83L2.75687 16.8298L5.97398 16.2803C6.09925 16.2576 6.29227 16.1896 6.49703 16.0802C6.70461 15.9692 6.86076 15.8495 6.93893 15.7637L6.94789 15.7539L15.158 7.064C15.8266 6.35766 16.1982 5.714 16.2412 5.09801C16.2815 4.52155 16.0445 3.7763 15.0386 2.82475C14.0383 1.88376 13.2839 1.69096 12.7108 1.76425C12.0984 1.84257 11.4761 2.24879 10.8078 2.95467Z" fill="#101010"/>
<path fill-rule="evenodd" clip-rule="evenodd" d="M8.77918 3.14955C9.18846 3.08579 9.57193 3.36588 9.6357 3.77516C10.0128 6.19577 11.9773 8.04838 14.4198 8.29439C14.8319 8.33589 15.1324 8.70364 15.0909 9.11577C15.0494 9.5279 14.6816 9.82834 14.2695 9.78683C11.1519 9.47284 8.63645 7.10545 8.15358 4.00607C8.08981 3.59679 8.36991 3.21331 8.77918 3.14955Z" fill="#101010"/>
</svg>
