<svg width="14" height="22" viewBox="0 0 14 22" fill="none" xmlns="http://www.w3.org/2000/svg">
<path fill-rule="evenodd" clip-rule="evenodd" d="M0.759815 5.91C0.759815 4.44579 1.95561 3.25 3.41982 3.25H10.5898C12.054 3.25 13.2498 4.44579 13.2498 5.91V11C13.2498 12.27 12.8156 13.4615 11.9815 14.3411C11.1417 15.2267 9.9395 15.75 8.49981 15.75H5.49981C4.06026 15.75 2.85773 15.2268 2.01887 14.3406C1.18606 13.4607 0.754445 12.2688 0.759815 10.9984V5.91ZM3.41982 4.75C2.78403 4.75 2.25982 5.27422 2.25982 5.91V11.0034C2.25559 11.9323 2.56895 12.7397 3.10825 13.3094C3.64188 13.8732 4.43935 14.25 5.49981 14.25H8.49981C9.56011 14.25 10.3579 13.8733 10.8931 13.3089C11.4341 12.7385 11.7498 11.93 11.7498 11V5.91C11.7498 5.27422 11.2256 4.75 10.5898 4.75H3.41982Z" fill="#101010"/>
<path fill-rule="evenodd" clip-rule="evenodd" d="M4.5 0.25C4.91421 0.25 5.25 0.585786 5.25 1V4C5.25 4.41421 4.91421 4.75 4.5 4.75C4.08579 4.75 3.75 4.41421 3.75 4V1C3.75 0.585786 4.08579 0.25 4.5 0.25Z" fill="#101010"/>
<path fill-rule="evenodd" clip-rule="evenodd" d="M9.5 0.25C9.91421 0.25 10.25 0.585786 10.25 1V4C10.25 4.41421 9.91421 4.75 9.5 4.75C9.08579 4.75 8.75 4.41421 8.75 4V1C8.75 0.585786 9.08579 0.25 9.5 0.25Z" fill="#101010"/>
<path fill-rule="evenodd" clip-rule="evenodd" d="M7 14.25C7.41421 14.25 7.75 14.5858 7.75 15V21C7.75 21.4142 7.41421 21.75 7 21.75C6.58579 21.75 6.25 21.4142 6.25 21V15C6.25 14.5858 6.58579 14.25 7 14.25Z" fill="#101010"/>
</svg>
