<svg width="22" height="22" viewBox="0 0 22 22" fill="none" xmlns="http://www.w3.org/2000/svg">
<path fill-rule="evenodd" clip-rule="evenodd" d="M12.4884 0.98842C13.0562 0.420689 13.8599 0.25 14.73 0.25H18.77C19.6401 0.25 20.4438 0.420689 21.0116 0.98842C21.5793 1.55615 21.75 2.35988 21.75 3.23V7.27C21.75 8.14012 21.5793 8.94385 21.0116 9.51158C20.4438 10.0793 19.6401 10.25 18.77 10.25H14.73C13.8599 10.25 13.0562 10.0793 12.4884 9.51158C11.9207 8.94385 11.75 8.14012 11.75 7.27V3.23C11.75 2.35988 11.9207 1.55615 12.4884 0.98842ZM13.5491 2.04908C13.3993 2.19885 13.25 2.51012 13.25 3.23V7.27C13.25 7.98988 13.3993 8.30115 13.5491 8.45092C13.6988 8.60069 14.0101 8.75 14.73 8.75H18.77C19.4899 8.75 19.8012 8.60069 19.9509 8.45092C20.1007 8.30115 20.25 7.98988 20.25 7.27V3.23C20.25 2.51012 20.1007 2.19885 19.9509 2.04908C19.8012 1.89931 19.4899 1.75 18.77 1.75H14.73C14.0101 1.75 13.6988 1.89931 13.5491 2.04908Z" fill="#101010"/>
<path fill-rule="evenodd" clip-rule="evenodd" d="M1.0206 0.900585C1.58777 0.396654 2.37645 0.25 3.23 0.25H7.27C8.12355 0.25 8.91223 0.396654 9.4794 0.900585C10.0692 1.42461 10.25 2.17847 10.25 2.98V7.52C10.25 8.32097 10.0694 9.07598 9.47831 9.59914C8.91006 10.102 8.12079 10.2451 7.26778 10.24H3.23C2.37912 10.24 1.58971 10.0968 1.02169 9.59414C0.430088 9.07055 0.25 8.31497 0.25 7.51V2.98C0.25 2.17847 0.430812 1.42461 1.0206 0.900585ZM2.0169 2.02191C1.88919 2.13539 1.75 2.37153 1.75 2.98V7.51C1.75 8.12503 1.88991 8.35945 2.01581 8.47087C2.16529 8.60316 2.49088 8.74 3.23 8.74H7.27472C8.01075 8.74463 8.3355 8.60746 8.48419 8.47586C8.61057 8.36402 8.75 8.12903 8.75 7.52V2.98C8.75 2.37153 8.61081 2.13539 8.4831 2.02191C8.33277 1.88835 8.00645 1.75 7.27 1.75H3.23C2.49355 1.75 2.16723 1.88835 2.0169 2.02191Z" fill="#101010"/>
<path fill-rule="evenodd" clip-rule="evenodd" d="M0.98842 12.4884C1.55615 11.9207 2.35988 11.75 3.23 11.75H7.27C8.14012 11.75 8.94385 11.9207 9.51158 12.4884C10.0793 13.0562 10.25 13.8599 10.25 14.73V18.77C10.25 19.6401 10.0793 20.4438 9.51158 21.0116C8.94385 21.5793 8.14012 21.75 7.27 21.75H3.23C2.35988 21.75 1.55615 21.5793 0.98842 21.0116C0.420689 20.4438 0.25 19.6401 0.25 18.77V14.73C0.25 13.8599 0.420689 13.0562 0.98842 12.4884ZM2.04908 13.5491C1.89931 13.6988 1.75 14.0101 1.75 14.73V18.77C1.75 19.4899 1.89931 19.8012 2.04908 19.9509C2.19885 20.1007 2.51012 20.25 3.23 20.25H7.27C7.98988 20.25 8.30115 20.1007 8.45092 19.9509C8.60069 19.8012 8.75 19.4899 8.75 18.77V14.73C8.75 14.0101 8.60069 13.6988 8.45092 13.5491C8.30115 13.3993 7.98988 13.25 7.27 13.25H3.23C2.51012 13.25 2.19885 13.3993 2.04908 13.5491Z" fill="#101010"/>
<path fill-rule="evenodd" clip-rule="evenodd" d="M13.25 14.5C13.25 14.0858 13.5858 13.75 14 13.75H20C20.4142 13.75 20.75 14.0858 20.75 14.5C20.75 14.9142 20.4142 15.25 20 15.25H14C13.5858 15.25 13.25 14.9142 13.25 14.5Z" fill="#101010"/>
<path fill-rule="evenodd" clip-rule="evenodd" d="M13.25 18.5C13.25 18.0858 13.5858 17.75 14 17.75H20C20.4142 17.75 20.75 18.0858 20.75 18.5C20.75 18.9142 20.4142 19.25 20 19.25H14C13.5858 19.25 13.25 18.9142 13.25 18.5Z" fill="#101010"/>
</svg>
