<svg width="22" height="22" viewBox="0 0 22 22" fill="none" xmlns="http://www.w3.org/2000/svg">
<path fill-rule="evenodd" clip-rule="evenodd" d="M1.00485 0.941238C1.57309 0.406656 2.36968 0.25 3.23 0.25H7.27C8.13032 0.25 8.92691 0.406656 9.49516 0.941238C10.0749 1.48664 10.25 2.26514 10.25 3.1V18.9C10.25 19.7349 10.0749 20.5134 9.49516 21.0588C8.92691 21.5933 8.13032 21.75 7.27 21.75H3.23C2.36968 21.75 1.57309 21.5933 1.00485 21.0588C0.425099 20.5134 0.25 19.7349 0.25 18.9V3.1C0.25 2.26514 0.425099 1.48664 1.00485 0.941238ZM2.03265 2.03376C1.8949 2.16336 1.75 2.43486 1.75 3.1V18.9C1.75 19.5651 1.8949 19.8366 2.03265 19.9662C2.18191 20.1067 2.50032 20.25 3.23 20.25H7.27C7.99969 20.25 8.31809 20.1067 8.46735 19.9662C8.6051 19.8366 8.75 19.5651 8.75 18.9V3.1C8.75 2.43486 8.6051 2.16336 8.46735 2.03376C8.31809 1.89334 7.99969 1.75 7.27 1.75H3.23C2.50032 1.75 2.18191 1.89334 2.03265 2.03376Z" fill="#101010"/>
<path fill-rule="evenodd" clip-rule="evenodd" d="M12.5206 0.900585C13.0878 0.396654 13.8765 0.25 14.73 0.25H18.77C19.6235 0.25 20.4122 0.396654 20.9794 0.900585C21.5692 1.42461 21.75 2.17847 21.75 2.98V7.52C21.75 8.32097 21.5694 9.07598 20.9783 9.59914C20.4101 10.102 19.6208 10.2451 18.7678 10.24H14.73C13.8791 10.24 13.0897 10.0968 12.5217 9.59414C11.9301 9.07055 11.75 8.31497 11.75 7.51V2.98C11.75 2.17847 11.9308 1.42461 12.5206 0.900585ZM13.5169 2.02191C13.3892 2.13539 13.25 2.37153 13.25 2.98V7.51C13.25 8.12503 13.3899 8.35945 13.5158 8.47087C13.6653 8.60316 13.9909 8.74 14.73 8.74H18.7747C19.5108 8.74463 19.8355 8.60746 19.9842 8.47586C20.1106 8.36402 20.25 8.12903 20.25 7.52V2.98C20.25 2.37153 20.1108 2.13539 19.9831 2.02191C19.8328 1.88835 19.5065 1.75 18.77 1.75H14.73C13.9935 1.75 13.6672 1.88835 13.5169 2.02191Z" fill="#101010"/>
<path fill-rule="evenodd" clip-rule="evenodd" d="M12.4884 12.4884C13.0562 11.9207 13.8599 11.75 14.73 11.75H18.77C19.6401 11.75 20.4438 11.9207 21.0116 12.4884C21.5793 13.0562 21.75 13.8599 21.75 14.73V18.77C21.75 19.6401 21.5793 20.4438 21.0116 21.0116C20.4438 21.5793 19.6401 21.75 18.77 21.75H14.73C13.8599 21.75 13.0562 21.5793 12.4884 21.0116C11.9207 20.4438 11.75 19.6401 11.75 18.77V14.73C11.75 13.8599 11.9207 13.0562 12.4884 12.4884ZM13.5491 13.5491C13.3993 13.6988 13.25 14.0101 13.25 14.73V18.77C13.25 19.4899 13.3993 19.8012 13.5491 19.9509C13.6988 20.1007 14.0101 20.25 14.73 20.25H18.77C19.4899 20.25 19.8012 20.1007 19.9509 19.9509C20.1007 19.8012 20.25 19.4899 20.25 18.77V14.73C20.25 14.0101 20.1007 13.6988 19.9509 13.5491C19.8012 13.3993 19.4899 13.25 18.77 13.25H14.73C14.0101 13.25 13.6988 13.3993 13.5491 13.5491Z" fill="#101010"/>
</svg>
