<svg width="22" height="22" viewBox="0 0 22 22" fill="none" xmlns="http://www.w3.org/2000/svg">
<path fill-rule="evenodd" clip-rule="evenodd" d="M1.00485 0.941238C1.57309 0.406656 2.36968 0.25 3.23 0.25H7.27C8.13032 0.25 8.92691 0.406656 9.49516 0.941238C10.0749 1.48664 10.25 2.26514 10.25 3.1V18.9C10.25 19.7349 10.0749 20.5134 9.49516 21.0588C8.92691 21.5933 8.13032 21.75 7.27 21.75H3.23C2.36968 21.75 1.57309 21.5933 1.00485 21.0588C0.425099 20.5134 0.25 19.7349 0.25 18.9V3.1C0.25 2.26514 0.425099 1.48664 1.00485 0.941238ZM2.03265 2.03376C1.8949 2.16336 1.75 2.43486 1.75 3.1V18.9C1.75 19.5651 1.8949 19.8366 2.03265 19.9662C2.18191 20.1067 2.50032 20.25 3.23 20.25H7.27C7.99969 20.25 8.31809 20.1067 8.46735 19.9662C8.6051 19.8366 8.75 19.5651 8.75 18.9V3.1C8.75 2.43486 8.6051 2.16336 8.46735 2.03376C8.31809 1.89334 7.99969 1.75 7.27 1.75H3.23C2.50032 1.75 2.18191 1.89334 2.03265 2.03376Z" fill="#101010"/>
<path fill-rule="evenodd" clip-rule="evenodd" d="M12.5048 0.941238C13.0731 0.406656 13.8697 0.25 14.73 0.25H18.77C19.6303 0.25 20.4269 0.406656 20.9952 0.941238C21.5749 1.48664 21.75 2.26514 21.75 3.1V9.9C21.75 10.7349 21.5749 11.5134 20.9952 12.0588C20.4269 12.5933 19.6303 12.75 18.77 12.75H14.73C13.8697 12.75 13.0731 12.5933 12.5048 12.0588C11.9251 11.5134 11.75 10.7349 11.75 9.9V3.1C11.75 2.26514 11.9251 1.48664 12.5048 0.941238ZM13.5327 2.03376C13.3949 2.16336 13.25 2.43486 13.25 3.1V9.9C13.25 10.5651 13.3949 10.8366 13.5327 10.9662C13.6819 11.1067 14.0003 11.25 14.73 11.25H18.77C19.4997 11.25 19.8181 11.1067 19.9673 10.9662C20.1051 10.8366 20.25 10.5651 20.25 9.9V3.1C20.25 2.43486 20.1051 2.16336 19.9673 2.03376C19.8181 1.89334 19.4997 1.75 18.77 1.75H14.73C14.0003 1.75 13.6819 1.89334 13.5327 2.03376Z" fill="#101010"/>
<path fill-rule="evenodd" clip-rule="evenodd" d="M12.5048 14.9412C13.0731 14.4067 13.8697 14.25 14.73 14.25H18.77C19.6303 14.25 20.4269 14.4067 20.9952 14.9412C21.5749 15.4866 21.75 16.2651 21.75 17.1V18.9C21.75 19.7349 21.5749 20.5134 20.9952 21.0588C20.4269 21.5933 19.6303 21.75 18.77 21.75H14.73C13.8697 21.75 13.0731 21.5933 12.5048 21.0588C11.9251 20.5134 11.75 19.7349 11.75 18.9V17.1C11.75 16.2651 11.9251 15.4866 12.5048 14.9412ZM13.5327 16.0338C13.3949 16.1634 13.25 16.4349 13.25 17.1V18.9C13.25 19.5651 13.3949 19.8366 13.5327 19.9662C13.6819 20.1067 14.0003 20.25 14.73 20.25H18.77C19.4997 20.25 19.8181 20.1067 19.9673 19.9662C20.1051 19.8366 20.25 19.5651 20.25 18.9V17.1C20.25 16.4349 20.1051 16.1634 19.9673 16.0338C19.8181 15.8933 19.4997 15.75 18.77 15.75H14.73C14.0003 15.75 13.6819 15.8933 13.5327 16.0338Z" fill="#101010"/>
</svg>
