<svg width="22" height="22" viewBox="0 0 22 22" fill="none" xmlns="http://www.w3.org/2000/svg">
<path fill-rule="evenodd" clip-rule="evenodd" d="M2.09467 2.09467C3.42914 0.760201 5.42603 0.25 8 0.25H14C16.574 0.25 18.5709 0.760201 19.9053 2.09467C21.2398 3.42914 21.75 5.42603 21.75 8V14C21.75 16.574 21.2398 18.5709 19.9053 19.9053C18.5709 21.2398 16.574 21.75 14 21.75H8C5.42603 21.75 3.42914 21.2398 2.09467 19.9053C0.760201 18.5709 0.25 16.574 0.25 14V8C0.25 5.42603 0.760201 3.42914 2.09467 2.09467ZM3.15533 3.15533C2.2398 4.07086 1.75 5.57397 1.75 8V14C1.75 16.426 2.2398 17.9291 3.15533 18.8447C4.07086 19.7602 5.57397 20.25 8 20.25H14C16.426 20.25 17.9291 19.7602 18.8447 18.8447C19.7602 17.9291 20.25 16.426 20.25 14V8C20.25 5.57397 19.7602 4.07086 18.8447 3.15533C17.9291 2.2398 16.426 1.75 14 1.75H8C5.57397 1.75 4.07086 2.2398 3.15533 3.15533Z" fill="#101010"/>
<path fill-rule="evenodd" clip-rule="evenodd" d="M14.5 6.5C14.0858 6.5 13.75 6.83579 13.75 7.25C13.75 7.66421 14.0858 8 14.5 8C14.9142 8 15.25 7.66421 15.25 7.25C15.25 6.83579 14.9142 6.5 14.5 6.5ZM12.25 7.25C12.25 6.00736 13.2574 5 14.5 5C15.7426 5 16.75 6.00736 16.75 7.25C16.75 8.49264 15.7426 9.5 14.5 9.5C13.2574 9.5 12.25 8.49264 12.25 7.25Z" fill="#101010"/>
<path fill-rule="evenodd" clip-rule="evenodd" d="M7.5 6.5C7.08579 6.5 6.75 6.83579 6.75 7.25C6.75 7.66421 7.08579 8 7.5 8C7.91421 8 8.25 7.66421 8.25 7.25C8.25 6.83579 7.91421 6.5 7.5 6.5ZM5.25 7.25C5.25 6.00736 6.25736 5 7.5 5C8.74264 5 9.75 6.00736 9.75 7.25C9.75 8.49264 8.74264 9.5 7.5 9.5C6.25736 9.5 5.25 8.49264 5.25 7.25Z" fill="#101010"/>
<path fill-rule="evenodd" clip-rule="evenodd" d="M7.4 13.05C7.31421 13.05 7.25 13.1143 7.25 13.2C7.25 15.2758 8.92421 16.95 11 16.95C13.0758 16.95 14.75 15.2758 14.75 13.2C14.75 13.1143 14.6858 13.05 14.6 13.05H7.4ZM5.75 13.2C5.75 12.2858 6.48579 11.55 7.4 11.55H14.6C15.5142 11.55 16.25 12.2858 16.25 13.2C16.25 16.1043 13.9042 18.45 11 18.45C8.09579 18.45 5.75 16.1043 5.75 13.2Z" fill="#101010"/>
</svg>
