<svg width="22" height="22" viewBox="0 0 22 22" fill="none" xmlns="http://www.w3.org/2000/svg">
<path fill-rule="evenodd" clip-rule="evenodd" d="M2.09467 2.09467C3.42914 0.760201 5.42603 0.25 8 0.25H14C16.574 0.25 18.5709 0.760201 19.9053 2.09467C21.2398 3.42914 21.75 5.42603 21.75 8V14C21.75 16.574 21.2398 18.5709 19.9053 19.9053C18.5709 21.2398 16.574 21.75 14 21.75H8C5.42603 21.75 3.42914 21.2398 2.09467 19.9053C0.760201 18.5709 0.25 16.574 0.25 14V8C0.25 5.42603 0.760201 3.42914 2.09467 2.09467ZM3.15533 3.15533C2.2398 4.07086 1.75 5.57397 1.75 8V14C1.75 16.426 2.2398 17.9291 3.15533 18.8447C4.07086 19.7602 5.57397 20.25 8 20.25H14C16.426 20.25 17.9291 19.7602 18.8447 18.8447C19.7602 17.9291 20.25 16.426 20.25 14V8C20.25 5.57397 19.7602 4.07086 18.8447 3.15533C17.9291 2.2398 16.426 1.75 14 1.75H8C5.57397 1.75 4.07086 2.2398 3.15533 3.15533Z" fill="#101010"/>
<path fill-rule="evenodd" clip-rule="evenodd" d="M10.173 6.72231C10.4644 7.01666 10.462 7.49153 10.1677 7.78296C8.86687 9.0709 6.76401 9.07467 5.46967 7.78033C5.17678 7.48744 5.17678 7.01256 5.46967 6.71967C5.76256 6.42678 6.23744 6.42678 6.53033 6.71967C7.23599 7.42533 8.39313 7.4291 9.11232 6.71704C9.40666 6.42561 9.88153 6.42797 10.173 6.72231Z" fill="#101010"/>
<path fill-rule="evenodd" clip-rule="evenodd" d="M16.5328 6.72231C16.8243 7.01666 16.8219 7.49153 16.5275 7.78296C15.2267 9.0709 13.1239 9.07467 11.8295 7.78033C11.5366 7.48744 11.5366 7.01256 11.8295 6.71967C12.1224 6.42678 12.5973 6.42678 12.8902 6.71967C13.5959 7.42533 14.753 7.4291 15.4722 6.71704C15.7665 6.42561 16.2414 6.42797 16.5328 6.72231Z" fill="#101010"/>
<path fill-rule="evenodd" clip-rule="evenodd" d="M7.4 12.75C7.31421 12.75 7.25 12.8142 7.25 12.9C7.25 14.9758 8.92421 16.65 11 16.65C13.0758 16.65 14.75 14.9758 14.75 12.9C14.75 12.8142 14.6858 12.75 14.6 12.75H7.4ZM5.75 12.9C5.75 11.9858 6.48579 11.25 7.4 11.25H14.6C15.5142 11.25 16.25 11.9858 16.25 12.9C16.25 15.8042 13.9042 18.15 11 18.15C8.09579 18.15 5.75 15.8042 5.75 12.9Z" fill="#101010"/>
</svg>
