<svg width="24" height="23" viewBox="0 0 24 23" fill="none" xmlns="http://www.w3.org/2000/svg">
<path fill-rule="evenodd" clip-rule="evenodd" d="M6.26683 7.5C4.61105 7.5 3.25684 8.85422 3.25684 10.51V13.5857C3.79949 13.3695 4.39019 13.25 5.00684 13.25C7.63105 13.25 9.75684 15.3758 9.75684 18C9.75684 18.8165 9.55008 19.5822 9.18883 20.25H17.7468C19.4026 20.25 20.7568 18.8958 20.7568 17.24V16.8H19.6068C18.1973 16.8 16.8292 15.7693 16.6998 14.2467C16.6191 13.3845 16.9473 12.579 17.5161 12.02C18.0278 11.4981 18.7292 11.2 19.4868 11.2H20.7568V10.51C20.7568 8.85422 19.4026 7.5 17.7468 7.5H6.26683ZM1.75684 10.51C1.75684 8.0258 3.78261 6 6.26683 6H17.7468C20.2311 6 22.2568 8.0258 22.2568 10.51V11.95C22.2568 12.3642 21.921 12.7 21.5068 12.7H19.4868C19.1278 12.7 18.812 12.8392 18.5842 13.0732L18.5707 13.0867C18.3047 13.3464 18.1561 13.7162 18.1935 14.1089L18.1943 14.1177L18.1942 14.1177C18.2472 14.7527 18.8577 15.3 19.6068 15.3H21.5068C21.921 15.3 22.2568 15.6358 22.2568 16.05V17.24C22.2568 19.7242 20.2311 21.75 17.7468 21.75H7.64684C7.33473 21.75 7.05524 21.5567 6.9451 21.2647C6.83495 20.9727 6.91716 20.643 7.15152 20.4368C7.82798 19.8419 8.25684 18.9735 8.25684 18C8.25684 16.2042 6.80262 14.75 5.00684 14.75C4.2453 14.75 3.5384 15.0169 2.97432 15.4665C2.74906 15.646 2.44087 15.6807 2.18135 15.5557C1.92182 15.4307 1.75684 15.1681 1.75684 14.88V10.51Z" fill="#101010"/>
<path fill-rule="evenodd" clip-rule="evenodd" d="M12.5495 1.87244C12.5489 1.87267 12.5483 1.8729 12.5477 1.87313L4.61225 4.87142C3.79548 5.18063 3.25684 5.96044 3.25684 6.84V10.51C3.25684 10.9242 2.92105 11.26 2.50684 11.26C2.09262 11.26 1.75684 10.9242 1.75684 10.51V6.84C1.75684 5.33968 2.67837 3.99937 4.08141 3.46849L12.026 0.46677C13.7494 -0.172551 15.6068 1.09052 15.6068 2.94999V6.74997C15.6068 7.16419 15.2711 7.49997 14.8568 7.49997C14.4426 7.49997 14.1068 7.16419 14.1068 6.74997V2.94999C14.1068 2.1501 13.3056 1.59336 12.5495 1.87244Z" fill="#101010"/>
<path fill-rule="evenodd" clip-rule="evenodd" d="M19.4857 12.7002C19.1266 12.7002 18.8108 12.8394 18.583 13.0734L18.5696 13.0869C18.3035 13.3466 18.1549 13.7164 18.1923 14.1091L18.1931 14.1179L18.1931 14.1179C18.246 14.7529 18.8566 15.3002 19.6057 15.3002H21.5485C21.7101 15.2897 21.8157 15.1633 21.8157 15.0302V12.9702C21.8157 12.837 21.7101 12.7106 21.5485 12.7002H19.4857ZM17.515 12.0201C18.0266 11.4983 18.728 11.2002 19.4857 11.2002H21.5657C21.5746 11.2002 21.5835 11.2004 21.5924 11.2007C22.5454 11.2347 23.3157 12.0059 23.3157 12.9702V15.0302C23.3157 15.9945 22.5454 16.7657 21.5924 16.7997C21.5835 16.8 21.5746 16.8002 21.5657 16.8002H19.6057C18.1962 16.8002 16.828 15.7695 16.6986 14.2469C16.6179 13.3847 16.9462 12.5792 17.515 12.0201Z" fill="#101010"/>
<path fill-rule="evenodd" clip-rule="evenodd" d="M6.25684 11C6.25684 10.5858 6.59262 10.25 7.00684 10.25H14.0068C14.421 10.25 14.7568 10.5858 14.7568 11C14.7568 11.4142 14.421 11.75 14.0068 11.75H7.00684C6.59262 11.75 6.25684 11.4142 6.25684 11Z" fill="#101010"/>
<path fill-rule="evenodd" clip-rule="evenodd" d="M5.00684 14.75C4.2453 14.75 3.5384 15.0169 2.97432 15.4665L2.97302 15.4675L2.97302 15.4675C2.22784 16.0588 1.75684 16.9745 1.75684 18C1.75684 19.7958 3.21105 21.25 5.00684 21.25C5.8235 21.25 6.57043 20.9439 7.15254 20.4359C7.82842 19.841 8.25684 18.973 8.25684 18C8.25684 16.2042 6.80262 14.75 5.00684 14.75ZM2.04 14.293C2.85582 13.6429 3.88867 13.25 5.00684 13.25C7.63105 13.25 9.75684 15.3758 9.75684 18C9.75684 19.4265 9.12569 20.6981 8.14215 21.5632L8.14015 21.5649L8.14015 21.5649C7.30239 22.2965 6.20971 22.75 5.00684 22.75C2.38262 22.75 0.256836 20.6242 0.256836 18C0.256836 16.5058 0.945559 15.1617 2.04 14.293Z" fill="#101010"/>
<path fill-rule="evenodd" clip-rule="evenodd" d="M5.25695 16C5.67116 16 6.00695 16.3358 6.00695 16.75V18.25C6.00695 18.5134 5.86873 18.7576 5.64282 18.8931L4.39282 19.6431C4.03764 19.8562 3.57694 19.7411 3.36383 19.3859C3.15072 19.0307 3.26589 18.57 3.62108 18.3569L4.50695 17.8254V16.75C4.50695 16.3358 4.84274 16 5.25695 16Z" fill="#101010"/>
</svg>
