<svg width="23" height="22" viewBox="0 0 23 22" fill="none" xmlns="http://www.w3.org/2000/svg">
<path fill-rule="evenodd" clip-rule="evenodd" d="M5.26 7.5C3.60422 7.5 2.25 8.85422 2.25 10.51V17.24C2.25 18.8958 3.60422 20.25 5.26 20.25H16.74C18.3958 20.25 19.75 18.8958 19.75 17.24V16.8H18.6C17.1905 16.8 15.8223 15.7693 15.693 14.2467C15.6122 13.3845 15.9405 12.579 16.5093 12.02C17.0209 11.4981 17.7224 11.2 18.48 11.2H19.75V10.51C19.75 8.85422 18.3958 7.5 16.74 7.5H5.26ZM0.75 10.51C0.75 8.0258 2.77578 6 5.26 6H16.74C19.2242 6 21.25 8.0258 21.25 10.51V11.95C21.25 12.3642 20.9142 12.7 20.5 12.7H18.48C18.1209 12.7 17.8052 12.8392 17.5774 13.0732L17.5639 13.0867C17.2978 13.3464 17.1492 13.7162 17.1866 14.1089L17.1875 14.1177L17.1874 14.1177C17.2403 14.7527 17.8509 15.3 18.6 15.3H20.5C20.9142 15.3 21.25 15.6358 21.25 16.05V17.24C21.25 19.7242 19.2242 21.75 16.74 21.75H5.26C2.77578 21.75 0.75 19.7242 0.75 17.24V10.51Z" fill="#101010"/>
<path fill-rule="evenodd" clip-rule="evenodd" d="M13.1 2.95001C13.1 2.14248 12.293 1.5881 11.5458 1.87129L3.60542 4.87144C2.78865 5.18065 2.25 5.96046 2.25 6.84002V11.41C2.25 11.8242 1.91421 12.16 1.5 12.16C1.08579 12.16 0.75 11.8242 0.75 11.41V6.84002C0.75 5.3397 1.67154 3.99939 3.07458 3.46851L11.0142 0.468665C11.0143 0.46861 11.014 0.468719 11.0142 0.468665C12.7469 -0.187767 14.6 1.09768 14.6 2.95001V6.74999C14.6 7.16421 14.2642 7.49999 13.85 7.49999C13.4358 7.49999 13.1 7.16421 13.1 6.74999V2.95001Z" fill="#101010"/>
<path fill-rule="evenodd" clip-rule="evenodd" d="M18.4788 12.7002C18.1198 12.7002 17.804 12.8394 17.5762 13.0734L17.5627 13.0869C17.2967 13.3466 17.1481 13.7164 17.1855 14.1091L17.1863 14.1179L17.1863 14.1179C17.2392 14.7529 17.8497 15.3002 18.5988 15.3002H20.5416C20.7033 15.2897 20.8088 15.1633 20.8088 15.0302V12.9702C20.8088 12.837 20.7033 12.7106 20.5416 12.7002H18.4788ZM16.5082 12.0201C17.0198 11.4983 17.7212 11.2002 18.4788 11.2002H20.5588C20.5678 11.2002 20.5767 11.2004 20.5856 11.2007C21.5386 11.2347 22.3088 12.0059 22.3088 12.9702V15.0302C22.3088 15.9945 21.5386 16.7657 20.5856 16.7997C20.5767 16.8 20.5678 16.8002 20.5588 16.8002H18.5988C17.1893 16.8002 15.8212 15.7695 15.6918 14.2469C15.6111 13.3847 15.9394 12.5792 16.5082 12.0201Z" fill="#101010"/>
<path fill-rule="evenodd" clip-rule="evenodd" d="M5.25 11C5.25 10.5858 5.58579 10.25 6 10.25H13C13.4142 10.25 13.75 10.5858 13.75 11C13.75 11.4142 13.4142 11.75 13 11.75H6C5.58579 11.75 5.25 11.4142 5.25 11Z" fill="#101010"/>
</svg>
