<svg width="24" height="23" viewBox="0 0 24 23" fill="none" xmlns="http://www.w3.org/2000/svg">
<path fill-rule="evenodd" clip-rule="evenodd" d="M6.26 7.5C4.60421 7.5 3.25 8.85422 3.25 10.51V13.5857C3.79266 13.3695 4.38335 13.25 5 13.25C7.62421 13.25 9.75 15.3758 9.75 18C9.75 18.8077 9.54483 19.5787 9.17688 20.25H17.74C19.3958 20.25 20.75 18.8958 20.75 17.24V16.8H19.6C18.1905 16.8 16.8223 15.7693 16.693 14.2467C16.6122 13.3845 16.9405 12.579 17.5093 12.02C18.0209 11.4981 18.7224 11.2 19.48 11.2H20.75V10.51C20.75 8.85422 19.3958 7.5 17.74 7.5H6.26ZM1.75 10.51C1.75 8.0258 3.77578 6 6.26 6H17.74C20.2242 6 22.25 8.0258 22.25 10.51V11.95C22.25 12.3642 21.9142 12.7 21.5 12.7H19.48C19.1209 12.7 18.8052 12.8392 18.5774 13.0732L18.5639 13.0867C18.2978 13.3464 18.1492 13.7162 18.1866 14.1089L18.1875 14.1177L18.1874 14.1177C18.2403 14.7527 18.8509 15.3 19.6 15.3H21.5C21.9142 15.3 22.25 15.6358 22.25 16.05V17.24C22.25 19.7242 20.2242 21.75 17.74 21.75H7.63C7.31467 21.75 7.03302 21.5528 6.9252 21.2564C6.81739 20.9601 6.90644 20.628 7.14804 20.4254C7.39099 20.2216 7.60515 19.9684 7.77216 19.6821L7.78162 19.6663C8.07948 19.1833 8.25 18.6094 8.25 18C8.25 16.2042 6.79579 14.75 5 14.75C4.23847 14.75 3.53157 15.0169 2.96748 15.4665C2.74223 15.646 2.43403 15.6807 2.17451 15.5557C1.91499 15.4307 1.75 15.1681 1.75 14.88V10.51Z" fill="#101010"/>
<path fill-rule="evenodd" clip-rule="evenodd" d="M14.1 2.95001C14.1 2.14248 13.293 1.5881 12.5458 1.87129L4.60542 4.87144C3.78865 5.18065 3.25 5.96046 3.25 6.84002V11.41C3.25 11.8242 2.91421 12.16 2.5 12.16C2.08579 12.16 1.75 11.8242 1.75 11.41V6.84002C1.75 5.3397 2.67154 3.99939 4.07458 3.46851L12.0142 0.468665C12.0143 0.46861 12.014 0.468719 12.0142 0.468665C13.7469 -0.187767 15.6 1.09768 15.6 2.95001V6.74999C15.6 7.16421 15.2642 7.49999 14.85 7.49999C14.4358 7.49999 14.1 7.16421 14.1 6.74999V2.95001Z" fill="#101010"/>
<path fill-rule="evenodd" clip-rule="evenodd" d="M19.4788 12.7002C19.1198 12.7002 18.804 12.8394 18.5762 13.0734L18.5628 13.0869C18.2967 13.3466 18.1481 13.7164 18.1855 14.1091L18.1863 14.1179L18.1863 14.1179C18.2392 14.7529 18.8497 15.3002 19.5988 15.3002H21.5416C21.7033 15.2897 21.8088 15.1633 21.8088 15.0302V12.9702C21.8088 12.837 21.7033 12.7106 21.5416 12.7002H19.4788ZM17.5082 12.0201C18.0198 11.4983 18.7212 11.2002 19.4788 11.2002H21.5588C21.5678 11.2002 21.5767 11.2004 21.5856 11.2007C22.5386 11.2347 23.3088 12.0059 23.3088 12.9702V15.0302C23.3088 15.9945 22.5386 16.7657 21.5856 16.7997C21.5767 16.8 21.5678 16.8002 21.5588 16.8002H19.5988C18.1893 16.8002 16.8212 15.7695 16.6918 14.2469C16.6111 13.3847 16.9394 12.5792 17.5082 12.0201Z" fill="#101010"/>
<path fill-rule="evenodd" clip-rule="evenodd" d="M6.25 11C6.25 10.5858 6.58579 10.25 7 10.25H14C14.4142 10.25 14.75 10.5858 14.75 11C14.75 11.4142 14.4142 11.75 14 11.75H7C6.58579 11.75 6.25 11.4142 6.25 11Z" fill="#101010"/>
<path fill-rule="evenodd" clip-rule="evenodd" d="M5 14.75C4.23847 14.75 3.53157 15.0169 2.96748 15.4665L2.96618 15.4675L2.96618 15.4675C2.221 16.0588 1.75 16.9745 1.75 18C1.75 18.6094 1.92052 19.1833 2.21838 19.6663L2.22467 19.6765L2.22459 19.6766C2.7844 20.6177 3.81412 21.25 5 21.25C5.82269 21.25 6.56448 20.9499 7.12828 20.4425C7.13477 20.4367 7.14135 20.431 7.14804 20.4254C7.39099 20.2216 7.60515 19.9684 7.77216 19.6821L7.78162 19.6663C8.07948 19.1833 8.25 18.6094 8.25 18C8.25 16.2042 6.79579 14.75 5 14.75ZM2.03317 14.293C2.84898 13.6429 3.88183 13.25 5 13.25C7.62421 13.25 9.75 15.3758 9.75 18C9.75 18.8874 9.50232 19.7306 9.06317 20.4459C8.81312 20.8725 8.49252 21.2534 8.12204 21.5662C7.28705 22.3134 6.19269 22.75 5 22.75C3.26803 22.75 1.75937 21.8246 0.938481 20.4486C0.498304 19.7327 0.25 18.8885 0.25 18C0.25 16.5058 0.938723 15.1617 2.03317 14.293Z" fill="#101010"/>
<path fill-rule="evenodd" clip-rule="evenodd" d="M3.41861 16.4009C3.71081 16.1073 4.18568 16.1061 4.47927 16.3983L6.59927 18.5083C6.89285 18.8005 6.89398 19.2754 6.60178 19.569C6.30958 19.8626 5.83471 19.8637 5.54112 19.5715L3.42112 17.4615C3.12754 17.1693 3.12641 16.6944 3.41861 16.4009Z" fill="#101010"/>
<path fill-rule="evenodd" clip-rule="evenodd" d="M6.58176 16.4309C6.87396 16.7245 6.87283 17.1993 6.57925 17.4915L4.45925 19.6015C4.16566 19.8937 3.69079 19.8926 3.39859 19.599C3.10639 19.3054 3.10752 18.8306 3.4011 18.5384L5.5211 16.4284C5.81469 16.1362 6.28956 16.1373 6.58176 16.4309Z" fill="#101010"/>
</svg>
