<svg width="22" height="22" viewBox="0 0 22 22" fill="none" xmlns="http://www.w3.org/2000/svg">
<path fill-rule="evenodd" clip-rule="evenodd" d="M2.09662 2.09467C3.43109 0.760201 5.42798 0.25 8.00195 0.25H14.002C16.5759 0.25 18.5728 0.760201 19.9073 2.09467C21.2418 3.42914 21.752 5.42603 21.752 8V14C21.752 16.574 21.2418 18.5709 19.9073 19.9053C18.5728 21.2398 16.5759 21.75 14.002 21.75H8.00195C5.42798 21.75 3.43109 21.2398 2.09662 19.9053C0.762154 18.5709 0.251953 16.574 0.251953 14V8C0.251953 5.42603 0.762154 3.42914 2.09662 2.09467ZM3.15728 3.15533C2.24175 4.07086 1.75195 5.57397 1.75195 8V14C1.75195 16.426 2.24175 17.9291 3.15728 18.8447C4.07281 19.7602 5.57593 20.25 8.00195 20.25H14.002C16.428 20.25 17.9311 19.7602 18.8466 18.8447C19.7622 17.9291 20.252 16.426 20.252 14V8C20.252 5.57397 19.7622 4.07086 18.8466 3.15533C17.9311 2.2398 16.428 1.75 14.002 1.75H8.00195C5.57593 1.75 4.07281 2.2398 3.15728 3.15533Z" fill="#101010"/>
<path fill-rule="evenodd" clip-rule="evenodd" d="M11.2121 5.45968C12.1449 4.52679 13.6798 4.52679 14.6127 5.45968L14.0824 5.99001M13.552 6.52034C13.2049 6.17323 12.6198 6.17323 12.2727 6.52034L6.5186 12.2745C6.16929 12.6184 6.16331 13.1903 6.52271 13.5497L8.4627 15.4897C8.80981 15.8368 9.39495 15.8368 9.74205 15.4897L15.4921 9.73968C15.8392 9.39257 15.8392 8.80743 15.4921 8.46033L13.552 6.52034ZM11.2121 5.45968L5.46393 11.2078L11.2121 5.45968ZM5.46393 11.2078C4.5155 12.1441 4.5222 13.6705 5.46205 14.6103L5.9887 14.0837" fill="#101010"/>
<path fill-rule="evenodd" clip-rule="evenodd" d="M7.78217 8.88965C8.07506 8.59676 8.54994 8.59676 8.84283 8.88965L13.1128 13.1597C13.4057 13.4526 13.4057 13.9274 13.1128 14.2203C12.8199 14.5132 12.3451 14.5132 12.0522 14.2203L7.78217 9.95031C7.48928 9.65742 7.48928 9.18255 7.78217 8.88965Z" fill="#101010"/>
</svg>
