<svg width="22" height="22" viewBox="0 0 22 22" fill="none" xmlns="http://www.w3.org/2000/svg">
<path fill-rule="evenodd" clip-rule="evenodd" d="M20.7303 1.26966C21.0232 1.56255 21.0232 2.03742 20.7303 2.33032L12.5303 10.5303C12.2374 10.8232 11.7626 10.8232 11.4697 10.5303C11.1768 10.2374 11.1768 9.76255 11.4697 9.46966L19.6697 1.26966C19.9626 0.976765 20.4374 0.976765 20.7303 1.26966Z" fill="#101010"/>
<path fill-rule="evenodd" clip-rule="evenodd" d="M15.4502 1C15.4502 0.585786 15.786 0.25 16.2002 0.25H21.0002C21.4144 0.25 21.7502 0.585786 21.7502 1V5.8C21.7502 6.21421 21.4144 6.55 21.0002 6.55C20.586 6.55 20.2502 6.21421 20.2502 5.8V1.75H16.2002C15.786 1.75 15.4502 1.41421 15.4502 1Z" fill="#101010"/>
<path fill-rule="evenodd" clip-rule="evenodd" d="M2.09467 2.09467C3.42914 0.760201 5.42603 0.25 8 0.25H10C10.4142 0.25 10.75 0.585786 10.75 1C10.75 1.41421 10.4142 1.75 10 1.75H8C5.57397 1.75 4.07086 2.2398 3.15533 3.15533C2.2398 4.07086 1.75 5.57397 1.75 8V14C1.75 16.426 2.2398 17.9291 3.15533 18.8447C4.07086 19.7602 5.57397 20.25 8 20.25H14C16.426 20.25 17.9291 19.7602 18.8447 18.8447C19.7602 17.9291 20.25 16.426 20.25 14V12C20.25 11.5858 20.5858 11.25 21 11.25C21.4142 11.25 21.75 11.5858 21.75 12V14C21.75 16.574 21.2398 18.5709 19.9053 19.9053C18.5709 21.2398 16.574 21.75 14 21.75H8C5.42603 21.75 3.42914 21.2398 2.09467 19.9053C0.760201 18.5709 0.25 16.574 0.25 14V8C0.25 5.42603 0.760201 3.42914 2.09467 2.09467Z" fill="#101010"/>
</svg>
