<svg width="22" height="22" viewBox="0 0 22 22" fill="none" xmlns="http://www.w3.org/2000/svg">
<path fill-rule="evenodd" clip-rule="evenodd" d="M14.6932 7.83566C14.7288 7.42298 15.0921 7.11724 15.5048 7.15277C17.4168 7.31741 18.9142 7.90536 19.9079 9.12994C20.8847 10.3338 21.2605 12.0163 21.2605 14.11V14.24C21.2605 16.5492 20.8027 18.361 19.587 19.5766C18.3714 20.7922 16.5596 21.25 14.2505 21.25H7.74047C5.43129 21.25 3.61952 20.7922 2.40389 19.5766C1.18826 18.361 0.730469 16.5492 0.730469 14.24V14.11C0.730469 12.0315 1.10117 10.3592 2.06232 9.15774C3.0408 7.93463 4.5164 7.33891 6.40086 7.16325C6.81328 7.1248 7.17878 7.42797 7.21723 7.84039C7.25568 8.25282 6.95251 8.61832 6.54008 8.65677C4.88454 8.8111 3.86514 9.30538 3.23362 10.0948C2.58476 10.9059 2.23047 12.1685 2.23047 14.11V14.24C2.23047 16.4008 2.66768 17.7191 3.46455 18.5159C4.26142 19.3128 5.57964 19.75 7.74047 19.75H14.2505C16.4113 19.75 17.7295 19.3128 18.5264 18.5159C19.3233 17.7191 19.7605 16.4008 19.7605 14.24V14.11C19.7605 12.1537 19.4012 10.8862 18.7431 10.0751C18.1017 9.28466 17.0642 8.7926 15.3761 8.64724C14.9634 8.61171 14.6577 8.24835 14.6932 7.83566Z" fill="#101010"/>
<path fill-rule="evenodd" clip-rule="evenodd" d="M11 1.87C11.4142 1.87 11.75 2.20578 11.75 2.62V14C11.75 14.4142 11.4142 14.75 11 14.75C10.5858 14.75 10.25 14.4142 10.25 14V2.62C10.25 2.20578 10.5858 1.87 11 1.87Z" fill="#101010"/>
<path fill-rule="evenodd" clip-rule="evenodd" d="M10.4701 0.96967C10.763 0.676777 11.2378 0.676777 11.5307 0.96967L14.8807 4.31967C15.1736 4.61256 15.1736 5.08744 14.8807 5.38033C14.5878 5.67322 14.113 5.67322 13.8201 5.38033L11.0004 2.56066L8.18072 5.38033C7.88783 5.67322 7.41295 5.67322 7.12006 5.38033C6.82717 5.08744 6.82717 4.61256 7.12006 4.31967L10.4701 0.96967Z" fill="#101010"/>
</svg>
