<svg width="19" height="22" viewBox="0 0 19 22" fill="none" xmlns="http://www.w3.org/2000/svg">
<path fill-rule="evenodd" clip-rule="evenodd" d="M2.90533 2.90533C2.18991 3.62075 1.75 4.67044 1.75 6V16C1.75 17.3296 2.18991 18.3793 2.90533 19.0947C3.62075 19.8101 4.67044 20.25 6 20.25H13C14.3296 20.25 15.3793 19.8101 16.0947 19.0947C16.8101 18.3793 17.25 17.3296 17.25 16V6C17.25 4.67044 16.8101 3.62075 16.0947 2.90533C15.3793 2.18991 14.3296 1.75 13 1.75H6C4.67044 1.75 3.62075 2.18991 2.90533 2.90533ZM1.84467 1.84467C2.87925 0.810085 4.32956 0.25 6 0.25H13C14.6704 0.25 16.1207 0.810085 17.1553 1.84467C18.1899 2.87925 18.75 4.32956 18.75 6V16C18.75 17.6704 18.1899 19.1207 17.1553 20.1553C16.1207 21.1899 14.6704 21.75 13 21.75H6C4.32956 21.75 2.87925 21.1899 1.84467 20.1553C0.810085 19.1207 0.25 17.6704 0.25 16V6C0.25 4.32956 0.810085 2.87925 1.84467 1.84467Z" fill="#101010"/>
<path fill-rule="evenodd" clip-rule="evenodd" d="M0.25 14C0.25 13.5858 0.585786 13.25 1 13.25H18C18.4142 13.25 18.75 13.5858 18.75 14C18.75 14.4142 18.4142 14.75 18 14.75H1C0.585786 14.75 0.25 14.4142 0.25 14Z" fill="#101010"/>
<path fill-rule="evenodd" clip-rule="evenodd" d="M3.25 11C3.25 10.5858 3.58579 10.25 4 10.25H5C5.41421 10.25 5.75 10.5858 5.75 11C5.75 11.4142 5.41421 11.75 5 11.75H4C3.58579 11.75 3.25 11.4142 3.25 11Z" fill="#101010"/>
<path fill-rule="evenodd" clip-rule="evenodd" d="M3.25 8.5C3.25 8.08579 3.58579 7.75 4 7.75H5C5.41421 7.75 5.75 8.08579 5.75 8.5C5.75 8.91421 5.41421 9.25 5 9.25H4C3.58579 9.25 3.25 8.91421 3.25 8.5Z" fill="#101010"/>
<path fill-rule="evenodd" clip-rule="evenodd" d="M3.25 6C3.25 5.58579 3.58579 5.25 4 5.25H5C5.41421 5.25 5.75 5.58579 5.75 6C5.75 6.41421 5.41421 6.75 5 6.75H4C3.58579 6.75 3.25 6.41421 3.25 6Z" fill="#101010"/>
<path fill-rule="evenodd" clip-rule="evenodd" d="M12.4941 17.25C12.4941 16.6977 12.9419 16.25 13.4941 16.25H13.5031C14.0554 16.25 14.5031 16.6977 14.5031 17.25C14.5031 17.8023 14.0554 18.25 13.5031 18.25H13.4941C12.9419 18.25 12.4941 17.8023 12.4941 17.25Z" fill="#101010"/>
</svg>
