<svg width="22" height="20" viewBox="0 0 22 20" fill="none" xmlns="http://www.w3.org/2000/svg">
<path fill-rule="evenodd" clip-rule="evenodd" d="M10.9999 7.16992C9.43414 7.16992 8.16992 8.43414 8.16992 9.99992C8.16992 11.5657 9.43414 12.8299 10.9999 12.8299C12.5657 12.8299 13.8299 11.5657 13.8299 9.99992C13.8299 8.43414 12.5657 7.16992 10.9999 7.16992ZM6.66992 9.99992C6.66992 7.60571 8.60571 5.66992 10.9999 5.66992C13.3941 5.66992 15.3299 7.60571 15.3299 9.99992C15.3299 12.3941 13.3941 14.3299 10.9999 14.3299C8.60571 14.3299 6.66992 12.3941 6.66992 9.99992Z" fill="#101010"/>
<path fill-rule="evenodd" clip-rule="evenodd" d="M1.25734 6.99693C3.64826 3.23857 7.15186 0.969971 10.9998 0.969971C14.848 0.969971 18.3517 3.23877 20.7427 6.99743C21.2876 7.85177 21.5348 8.94613 21.5348 9.99497C21.5348 11.0438 21.2876 12.1382 20.7427 12.9925C18.3517 16.7512 14.848 19.02 10.9998 19.02C7.1517 19.02 3.64795 16.7512 1.25703 12.9925C0.712048 12.1382 0.464844 11.0438 0.464844 9.99497C0.464844 8.94593 0.712142 7.85135 1.25734 6.99693ZM10.9998 2.46997C7.78799 2.46997 4.71174 4.36117 2.52266 7.80251L2.52204 7.8035C2.16745 8.35901 1.96484 9.15421 1.96484 9.99497C1.96484 10.8357 2.16745 11.6309 2.52204 12.1864L2.52266 12.1874C4.71174 15.6288 7.78799 17.52 10.9998 17.52C14.2117 17.52 17.288 15.6288 19.477 12.1874L19.4777 12.1864C19.8322 11.6309 20.0348 10.8357 20.0348 9.99497C20.0348 9.15421 19.8322 8.35901 19.4777 7.8035L19.477 7.80251C17.288 4.36117 14.2117 2.46997 10.9998 2.46997Z" fill="#101010"/>
</svg>
