<svg width="20" height="22" viewBox="0 0 20 22" fill="none" xmlns="http://www.w3.org/2000/svg">
<path fill-rule="evenodd" clip-rule="evenodd" d="M3.40039 1.84985C2.73837 1.84985 2.15039 2.3899 2.15039 3.19985V5.49985C2.15039 5.65662 2.20949 5.92319 2.34727 6.23056C2.48216 6.53146 2.66013 6.79893 2.83072 6.96952L2.84414 6.98329L6.64414 10.9833C6.65878 10.9987 6.67276 11.0147 6.68604 11.0313C6.93967 11.3484 7.17429 11.7652 7.34675 12.1963C7.51759 12.6234 7.65039 13.1218 7.65039 13.5999V18.8999C7.65039 19.8667 8.7639 20.4744 9.60174 19.9645L10.9948 19.069C11.0013 19.0648 11.0079 19.0607 11.0145 19.0567C11.1055 19.0021 11.2482 18.8554 11.3725 18.6163C11.4944 18.3819 11.5504 18.1507 11.5504 17.9999V13.6999C11.5504 13.1845 11.6768 12.635 11.885 12.1444C12.0902 11.6607 12.3988 11.1782 12.8112 10.8313L17.0846 7.05479C17.2541 6.88027 17.4504 6.59245 17.6051 6.252C17.7652 5.89977 17.8504 5.55833 17.8504 5.29985V3.09985C17.8504 2.41407 17.2862 1.84985 16.6004 1.84985H3.40039ZM0.650391 3.19985C0.650391 1.60981 1.86241 0.349854 3.40039 0.349854H16.6004C18.1146 0.349854 19.3504 1.58564 19.3504 3.09985V5.29985C19.3504 5.84137 19.1856 6.39993 18.9707 6.87271C18.7549 7.3475 18.4579 7.80298 18.1307 8.13018C18.1198 8.14108 18.1086 8.15164 18.097 8.16185L13.797 11.9619C13.7916 11.9667 13.7861 11.9714 13.7805 11.976C13.5975 12.1286 13.4091 12.3926 13.2658 12.7303C13.124 13.0647 13.0504 13.4152 13.0504 13.6999V17.9999C13.0504 18.449 12.9064 18.9178 12.7033 19.3084C12.5044 19.6908 12.2009 20.0902 11.7975 20.3362L10.406 21.2307L10.3935 21.2386C8.63194 22.3226 6.15039 21.1309 6.15039 18.8999V13.5999C6.15039 13.378 6.08319 13.0763 5.95403 12.7534C5.83169 12.4475 5.67454 12.1745 5.53274 11.9913L1.76277 8.02287C1.43664 7.69438 1.16722 7.26512 0.978509 6.84415C0.791296 6.42652 0.650391 5.94309 0.650391 5.49985V3.19985Z" fill="#101010"/>
<path fill-rule="evenodd" clip-rule="evenodd" d="M9.32717 0.463684C9.67857 0.682977 9.78566 1.14562 9.56637 1.49702L4.63637 9.39702C4.41708 9.74842 3.95444 9.85552 3.60304 9.63622C3.25163 9.41693 3.14454 8.95429 3.36383 8.60289L8.29383 0.70289C8.51312 0.351487 8.97576 0.244392 9.32717 0.463684Z" fill="#101010"/>
</svg>
