<svg width="22" height="22" viewBox="0 0 22 22" fill="none" xmlns="http://www.w3.org/2000/svg">
<path fill-rule="evenodd" clip-rule="evenodd" d="M7.16 6.3999C6.9588 6.3999 6.75 6.55909 6.75 6.8699V8.1999C6.75 8.23422 6.76806 8.34709 6.83678 8.50192C6.9034 8.65204 6.98405 8.76541 7.04095 8.82035C7.04885 8.82799 7.05659 8.83579 7.06416 8.84377L9.27416 11.1738C9.28579 11.186 9.29701 11.1987 9.3078 11.2117C9.4857 11.4267 9.63992 11.6994 9.7508 11.975C9.86045 12.2475 9.95 12.5782 9.95 12.9099V15.9899C9.95 16.2969 10.3136 16.5205 10.6035 16.3433L11.4117 15.8344C11.4132 15.8332 11.4235 15.8248 11.4403 15.8049C11.4629 15.7782 11.4886 15.7405 11.5126 15.6941C11.5658 15.5913 11.58 15.507 11.58 15.4799V12.9799C11.58 12.6316 11.663 12.2702 11.7977 11.9509C11.9294 11.6389 12.1332 11.3133 12.421 11.0711L14.8923 8.88654C14.9591 8.81519 15.0502 8.68437 15.1256 8.51785C15.2067 8.33901 15.24 8.18457 15.24 8.0899V6.8099C15.24 6.58412 15.0558 6.3999 14.83 6.3999H7.16ZM5.25 6.8699C5.25 5.78071 6.0812 4.8999 7.16 4.8999H14.83C15.8842 4.8999 16.74 5.75569 16.74 6.8099V8.0899C16.74 8.46523 16.6283 8.8358 16.4919 9.13695C16.3547 9.43972 16.1626 9.73792 15.9403 9.96023C15.9295 9.9711 15.9183 9.98164 15.9067 9.99182L13.4067 12.2018C13.4007 12.2071 13.3947 12.2123 13.3885 12.2174C13.3318 12.2644 13.2491 12.3697 13.1798 12.5339C13.112 12.6946 13.08 12.8582 13.08 12.9799V15.4799C13.08 15.8028 12.9792 16.1235 12.8449 16.3832C12.7129 16.6385 12.5035 16.9213 12.2081 17.1055L11.3945 17.6178C10.1648 18.3783 8.45 17.5422 8.45 15.9899V12.9099C8.45 12.8316 8.42455 12.6973 8.3592 12.5348C8.29946 12.3863 8.22527 12.2613 8.16519 12.1843L5.98573 9.88646C5.75911 9.66324 5.58429 9.37755 5.46572 9.11038C5.34694 8.84271 5.25 8.51558 5.25 8.1999V6.8699Z" fill="#101010"/>
<path fill-rule="evenodd" clip-rule="evenodd" d="M2.09467 2.09467C3.42914 0.760201 5.42603 0.25 8 0.25H14C16.574 0.25 18.5709 0.760201 19.9053 2.09467C21.2398 3.42914 21.75 5.42603 21.75 8V14C21.75 16.574 21.2398 18.5709 19.9053 19.9053C18.5709 21.2398 16.574 21.75 14 21.75H8C5.42603 21.75 3.42914 21.2398 2.09467 19.9053C0.760201 18.5709 0.25 16.574 0.25 14V8C0.25 5.42603 0.760201 3.42914 2.09467 2.09467ZM3.15533 3.15533C2.2398 4.07086 1.75 5.57397 1.75 8V14C1.75 16.426 2.2398 17.9291 3.15533 18.8447C4.07086 19.7602 5.57397 20.25 8 20.25H14C16.426 20.25 17.9291 19.7602 18.8447 18.8447C19.7602 17.9291 20.25 16.426 20.25 14V8C20.25 5.57397 19.7602 4.07086 18.8447 3.15533C17.9291 2.2398 16.426 1.75 14 1.75H8C5.57397 1.75 4.07086 2.2398 3.15533 3.15533Z" fill="#101010"/>
</svg>
