<svg width="21" height="22" viewBox="0 0 21 22" fill="none" xmlns="http://www.w3.org/2000/svg">
<path fill-rule="evenodd" clip-rule="evenodd" d="M14.8799 9.75C12.6741 9.75 10.8799 11.5442 10.8799 13.75C10.8799 14.5003 11.0909 15.2135 11.4574 15.8049L11.4635 15.8148L11.4634 15.8148C12.1538 16.9683 13.4248 17.75 14.8799 17.75C16.3375 17.75 17.6062 16.9762 18.2951 15.8169L18.2999 15.8089L18.2999 15.8089C18.6702 15.2031 18.8799 14.4978 18.8799 13.75C18.8799 11.5442 17.0857 9.75 14.8799 9.75ZM9.37988 13.75C9.37988 10.7158 11.8457 8.25 14.8799 8.25C17.9141 8.25 20.3799 10.7158 20.3799 13.75C20.3799 14.7805 20.0905 15.7538 19.5823 16.5871C18.6306 18.1856 16.8806 19.25 14.8799 19.25C12.8771 19.25 11.1296 18.174 10.1793 16.5901C9.66775 15.7626 9.37988 14.7777 9.37988 13.75Z" fill="#101010"/>
<path fill-rule="evenodd" clip-rule="evenodd" d="M12.3599 13.73C12.3599 13.3158 12.6956 12.98 13.1099 12.98H16.6599C17.0741 12.98 17.4099 13.3158 17.4099 13.73C17.4099 14.1442 17.0741 14.48 16.6599 14.48H13.1099C12.6956 14.48 12.3599 14.1442 12.3599 13.73Z" fill="#101010"/>
<path fill-rule="evenodd" clip-rule="evenodd" d="M14.8799 11.25C15.2941 11.25 15.6299 11.5858 15.6299 12V15.55C15.6299 15.9642 15.2941 16.3 14.8799 16.3C14.4657 16.3 14.1299 15.9642 14.1299 15.55V12C14.1299 11.5858 14.4657 11.25 14.8799 11.25Z" fill="#101010"/>
<path fill-rule="evenodd" clip-rule="evenodd" d="M3.33006 1.75C2.6578 1.75 2.06006 2.30029 2.06006 3.12V5.45001C2.06006 5.60419 2.12011 5.87213 2.26137 6.18567C2.39917 6.49153 2.58117 6.76699 2.75561 6.94492L2.76374 6.95321L2.76368 6.95327L6.60368 10.9933C6.61837 11.0088 6.63239 11.0248 6.64571 11.0415C6.8988 11.3578 7.13578 11.7765 7.31078 12.2111C7.48409 12.6416 7.62006 13.1456 7.62006 13.63V18.98C7.62006 19.9693 8.75505 20.5824 9.60016 20.0655L11.0033 19.1598C11.012 19.1542 11.0209 19.1488 11.0298 19.1435C11.1216 19.0895 11.2651 18.9431 11.3903 18.7014C11.4989 18.4916 11.5562 18.2817 11.5678 18.1267C11.0027 17.7096 10.5336 17.1826 10.178 16.5877C9.66955 15.7543 9.38006 14.7808 9.38006 13.75C9.38006 10.7158 11.8458 8.25 14.8801 8.25C15.1577 8.25 15.4329 8.27061 15.7019 8.3127L17.1617 7.02713C17.3345 6.84521 17.5333 6.55101 17.6899 6.20684C17.853 5.84853 17.9401 5.50245 17.9401 5.23999V3.02002C17.9401 2.32423 17.3658 1.75 16.6701 1.75H3.33006ZM0.560059 3.12C0.560059 1.5197 1.78232 0.25 3.33006 0.25H16.6701C18.1943 0.25 19.4401 1.49581 19.4401 3.02002V5.23999C19.4401 5.78753 19.2721 6.35145 19.0552 6.82816C18.837 7.30752 18.539 7.76523 18.2156 8.09506C18.2028 8.10814 18.1895 8.12075 18.1757 8.13285L16.4157 9.68284C16.2321 9.84456 15.9811 9.90653 15.7434 9.84888C15.4754 9.78391 15.185 9.75 14.8801 9.75C12.6743 9.75 10.8801 11.5442 10.8801 13.75C10.8801 14.4978 11.0898 15.2031 11.46 15.8089L11.4641 15.8156L11.4641 15.8157C11.7753 16.3372 12.2009 16.7773 12.712 17.0905C12.9344 17.2269 13.0701 17.4691 13.0701 17.73V18.07C13.0701 18.522 12.9273 18.9952 12.7223 19.3911C12.5225 19.7771 12.216 20.1805 11.8054 20.4274L10.4068 21.3302L10.3945 21.3379C8.62017 22.435 6.12006 21.2285 6.12006 18.98V13.63C6.12006 13.4044 6.05103 13.0985 5.91933 12.7714C5.79463 12.4617 5.63495 12.1856 5.49247 12.0015L1.68015 7.99058C1.35651 7.65908 1.0851 7.22653 0.893752 6.80181C0.705009 6.38287 0.560059 5.89583 0.560059 5.45001V3.12Z" fill="#101010"/>
</svg>
