<svg width="20" height="22" viewBox="0 0 20 22" fill="none" xmlns="http://www.w3.org/2000/svg">
<path fill-rule="evenodd" clip-rule="evenodd" d="M3.33008 1.76001C2.65781 1.76001 2.06006 2.31031 2.06006 3.13V5.45001C2.06006 5.6129 2.11982 5.88231 2.25809 6.19052C2.39356 6.49249 2.5738 6.76311 2.75036 6.93967L2.76365 6.9533L6.60367 10.9933C6.61628 11.0066 6.6284 11.0203 6.64001 11.0345C6.90276 11.3549 7.14136 11.7775 7.31532 12.2131C7.48804 12.6456 7.62006 13.1484 7.62006 13.63V18.98C7.62006 19.9693 8.75505 20.5824 9.60018 20.0655L11.0033 19.1599C11.3514 18.9352 11.8156 19.0353 12.0402 19.3833C12.2648 19.7313 12.1648 20.1955 11.8167 20.4202L10.4068 21.3302L10.3945 21.3379C8.62019 22.435 6.12006 21.2286 6.12006 18.98V13.63C6.12006 13.4016 6.05207 13.0944 5.92229 12.7694C5.79829 12.4589 5.63905 12.1851 5.49575 12.0049L1.68249 7.9931C1.3523 7.66063 1.08013 7.22943 0.8895 6.80449C0.700283 6.38271 0.560059 5.89712 0.560059 5.45001V3.13C0.560059 1.5297 1.78235 0.26001 3.33008 0.26001H16.67C18.1942 0.26001 19.4401 1.50577 19.4401 3.03V5.25C19.4401 5.79751 19.2722 6.36158 19.0548 6.83769C18.8366 7.31586 18.5373 7.77344 18.2104 8.10034C17.9175 8.39323 17.4426 8.39323 17.1497 8.10034C16.8568 7.80744 16.8568 7.33257 17.1497 7.03968C17.3228 6.86657 17.5285 6.56915 17.6903 6.21482C17.853 5.85843 17.9401 5.51249 17.9401 5.25V3.03C17.9401 2.33423 17.3658 1.76001 16.67 1.76001H3.33008Z" fill="#101010"/>
<path fill-rule="evenodd" clip-rule="evenodd" d="M16.0033 9.57639C16.6665 9.50824 17.2768 9.80613 17.8203 10.3496C18.3669 10.8962 18.6684 11.5078 18.6026 12.1726C18.5407 12.7977 18.1679 13.2827 17.8203 13.6303L14.2879 17.1627C14.1413 17.3163 13.961 17.428 13.8128 17.502C13.657 17.58 13.4676 17.6507 13.2769 17.6808L13.2645 17.6827L11.916 17.8724C11.9158 17.8725 11.9163 17.8724 11.916 17.8724C11.4745 17.9353 11.0186 17.8192 10.6896 17.4903C10.3607 17.1614 10.2445 16.7063 10.3074 16.2647C10.3074 16.2644 10.3073 16.265 10.3074 16.2647L10.499 14.9029C10.5296 14.7093 10.6019 14.521 10.6795 14.3676C10.757 14.2143 10.8673 14.0419 11.0096 13.8996L14.5497 10.3596C14.5497 10.3596 14.5497 10.3596 14.5497 10.3596C14.8973 10.012 15.3812 9.64031 16.0033 9.57639ZM16.1566 11.0685C16.0488 11.0796 15.8727 11.1579 15.6103 11.4203L12.0716 14.9589C12.0711 14.9596 12.0655 14.9659 12.0562 14.9794C12.0444 14.9967 12.0309 15.0191 12.018 15.0447C12.005 15.0704 11.9949 15.0946 11.9879 15.1144C11.9836 15.1268 11.9816 15.1346 11.9808 15.1376L11.8069 16.373L13.043 16.199C13.0462 16.1983 13.0553 16.196 13.0701 16.1909C13.0915 16.1835 13.1166 16.1731 13.1421 16.1604C13.1678 16.1475 13.1882 16.1351 13.2018 16.1257C13.205 16.1235 13.2074 16.1217 13.209 16.1205C13.2125 16.1168 13.2161 16.1132 13.2196 16.1096L16.7596 12.5696C17.022 12.3073 17.0992 12.1322 17.1099 12.0248C17.1166 11.9571 17.113 11.7637 16.7596 11.4103C16.4131 11.0638 16.2234 11.0617 16.1566 11.0685Z" fill="#101010"/>
<path fill-rule="evenodd" clip-rule="evenodd" d="M14.379 10.6673C14.7781 10.5565 15.1916 10.7901 15.3024 11.1892C15.532 12.0158 16.1739 12.6577 17.0005 12.8873C17.3996 12.9982 17.6333 13.4116 17.5224 13.8107C17.4115 14.2098 16.9981 14.4434 16.599 14.3326C15.2656 13.9622 14.2275 12.9241 13.8571 11.5907C13.7463 11.1916 13.9799 10.7782 14.379 10.6673Z" fill="#101010"/>
</svg>
