<svg width="22" height="22" viewBox="0 0 22 22" fill="none" xmlns="http://www.w3.org/2000/svg">
<path fill-rule="evenodd" clip-rule="evenodd" d="M10.9996 8.85986C10.5038 8.85986 10.0996 9.26409 10.0996 9.75989V12.2299C10.0996 12.7257 10.5038 13.1299 10.9996 13.1299C11.4954 13.1299 11.8996 12.7257 11.8996 12.2299V9.75989C11.8996 9.26409 11.4954 8.85986 10.9996 8.85986ZM8.59961 9.75989C8.59961 8.43569 9.67538 7.35986 10.9996 7.35986C12.3238 7.35986 13.3996 8.43569 13.3996 9.75989V12.2299C13.3996 13.5541 12.3238 14.6299 10.9996 14.6299C9.67538 14.6299 8.59961 13.5541 8.59961 12.2299V9.75989Z" fill="#101010"/>
<path fill-rule="evenodd" clip-rule="evenodd" d="M11 5.67993C8.65421 5.67993 6.75 7.58415 6.75 9.92993V12.0699C6.75 14.4157 8.65421 16.3199 11 16.3199C13.227 16.3199 15.0624 14.6026 15.2322 12.4119C15.2643 11.999 15.625 11.6901 16.038 11.7222C16.4509 11.7542 16.7598 12.1149 16.7278 12.5279C16.4976 15.4972 14.013 17.8199 11 17.8199C7.82579 17.8199 5.25 15.2442 5.25 12.0699V9.92993C5.25 6.75572 7.82579 4.17993 11 4.17993C13.9786 4.17993 16.4286 6.44529 16.7163 9.34588C16.7572 9.75807 16.4562 10.1254 16.044 10.1663C15.6319 10.2071 15.2646 9.90615 15.2237 9.49396C15.0114 7.35456 13.2014 5.67993 11 5.67993Z" fill="#101010"/>
<path fill-rule="evenodd" clip-rule="evenodd" d="M13.25 1C13.25 0.585786 13.5858 0.25 14 0.25H16C17.6704 0.25 19.1207 0.810085 20.1553 1.84467C21.1899 2.87925 21.75 4.32956 21.75 6V8C21.75 8.41421 21.4142 8.75 21 8.75C20.5858 8.75 20.25 8.41421 20.25 8V6C20.25 4.67044 19.8101 3.62075 19.0947 2.90533C18.3793 2.18991 17.3296 1.75 16 1.75H14C13.5858 1.75 13.25 1.41421 13.25 1Z" fill="#101010"/>
<path fill-rule="evenodd" clip-rule="evenodd" d="M2.90533 2.90533C2.18991 3.62075 1.75 4.67044 1.75 6V8C1.75 8.41421 1.41421 8.75 1 8.75C0.585786 8.75 0.25 8.41421 0.25 8V6C0.25 4.32956 0.810085 2.87925 1.84467 1.84467C2.87925 0.810085 4.32956 0.25 6 0.25H8C8.41421 0.25 8.75 0.585786 8.75 1C8.75 1.41421 8.41421 1.75 8 1.75H6C4.67044 1.75 3.62075 2.18991 2.90533 2.90533Z" fill="#101010"/>
<path fill-rule="evenodd" clip-rule="evenodd" d="M21 13.25C21.4142 13.25 21.75 13.5858 21.75 14V16C21.75 17.6704 21.1899 19.1207 20.1553 20.1553C19.1207 21.1899 17.6704 21.75 16 21.75H14C13.5858 21.75 13.25 21.4142 13.25 21C13.25 20.5858 13.5858 20.25 14 20.25H16C17.3296 20.25 18.3793 19.8101 19.0947 19.0947C19.8101 18.3793 20.25 17.3296 20.25 16V14C20.25 13.5858 20.5858 13.25 21 13.25Z" fill="#101010"/>
<path fill-rule="evenodd" clip-rule="evenodd" d="M1 13.25C1.41421 13.25 1.75 13.5858 1.75 14V16C1.75 17.3296 2.18991 18.3793 2.90533 19.0947C3.62075 19.8101 4.67044 20.25 6 20.25H8C8.41421 20.25 8.75 20.5858 8.75 21C8.75 21.4142 8.41421 21.75 8 21.75H6C4.32956 21.75 2.87925 21.1899 1.84467 20.1553C0.810085 19.1207 0.25 17.6704 0.25 16V14C0.25 13.5858 0.585786 13.25 1 13.25Z" fill="#101010"/>
</svg>
