<svg width="20" height="18" viewBox="0 0 20 18" fill="none" xmlns="http://www.w3.org/2000/svg">
<path fill-rule="evenodd" clip-rule="evenodd" d="M11.252 1.5C11.252 1.08579 11.5877 0.75 12.002 0.75H19.002C19.4162 0.75 19.752 1.08579 19.752 1.5C19.752 1.91421 19.4162 2.25 19.002 2.25H12.002C11.5877 2.25 11.252 1.91421 11.252 1.5Z" fill="#101010"/>
<path fill-rule="evenodd" clip-rule="evenodd" d="M11.252 6.5C11.252 6.08579 11.5877 5.75 12.002 5.75H19.002C19.4162 5.75 19.752 6.08579 19.752 6.5C19.752 6.91421 19.4162 7.25 19.002 7.25H12.002C11.5877 7.25 11.252 6.91421 11.252 6.5Z" fill="#101010"/>
<path fill-rule="evenodd" clip-rule="evenodd" d="M0.251953 11.5C0.251953 11.0858 0.58774 10.75 1.00195 10.75H19.002C19.4162 10.75 19.752 11.0858 19.752 11.5C19.752 11.9142 19.4162 12.25 19.002 12.25H1.00195C0.58774 12.25 0.251953 11.9142 0.251953 11.5Z" fill="#101010"/>
<path fill-rule="evenodd" clip-rule="evenodd" d="M0.251953 16.5C0.251953 16.0858 0.58774 15.75 1.00195 15.75H19.002C19.4162 15.75 19.752 16.0858 19.752 16.5C19.752 16.9142 19.4162 17.25 19.002 17.25H1.00195C0.58774 17.25 0.251953 16.9142 0.251953 16.5Z" fill="#101010"/>
<path fill-rule="evenodd" clip-rule="evenodd" d="M1.33662 0.83467C1.79825 0.373047 2.43717 0.25 3.07195 0.25H5.92195C6.56019 0.25 7.20147 0.372387 7.66472 0.833362C8.12893 1.29528 8.25195 1.93528 8.25195 2.57V5.43C8.25195 6.06472 8.12893 6.70472 7.66472 7.16664C7.20147 7.62761 6.56019 7.75 5.92195 7.75H3.07195C2.43724 7.75 1.79724 7.62698 1.33532 7.16277C0.87434 6.69951 0.751953 6.05824 0.751953 5.42V2.57C0.751953 1.93521 0.875001 1.29629 1.33662 0.83467ZM2.39728 1.89533C2.35391 1.93871 2.25195 2.08479 2.25195 2.57V5.42C2.25195 5.91176 2.35457 6.06049 2.39859 6.10473C2.44167 6.14802 2.58667 6.25 3.07195 6.25H5.92195C6.41372 6.25 6.56244 6.14739 6.60668 6.10336C6.64998 6.06028 6.75195 5.91528 6.75195 5.43V2.57C6.75195 2.08472 6.64998 1.93972 6.60668 1.89664C6.56244 1.85261 6.41372 1.75 5.92195 1.75H3.07195C2.58674 1.75 2.44066 1.85195 2.39728 1.89533Z" fill="#101010"/>
</svg>
