<svg width="14" height="22" viewBox="0 0 14 22" fill="none" xmlns="http://www.w3.org/2000/svg">
<path fill-rule="evenodd" clip-rule="evenodd" d="M1.4502 0.25C1.86441 0.25 2.2002 0.585786 2.2002 1V21C2.2002 21.4142 1.86441 21.75 1.4502 21.75C1.03598 21.75 0.700195 21.4142 0.700195 21V1C0.700195 0.585786 1.03598 0.25 1.4502 0.25Z" fill="#101010"/>
<path fill-rule="evenodd" clip-rule="evenodd" d="M1.26191 2.70246C1.42621 2.32222 1.86764 2.14717 2.24788 2.31147L10.3457 5.81051C12.0802 6.54697 13.2636 7.67908 13.3001 9.10572C13.3365 10.5227 12.2254 11.7246 10.5944 12.5664L10.5826 12.5725L10.5826 12.5724L2.28255 16.6724C1.91118 16.8558 1.4614 16.7035 1.27795 16.3321C1.0945 15.9607 1.24685 15.511 1.61822 15.3275L9.91214 11.2305C11.3765 10.4732 11.8143 9.67654 11.8006 9.14417C11.7872 8.62147 11.3216 7.85395 9.75747 7.19038L9.75289 7.18844L9.7529 7.18842L1.6529 3.68842C1.27266 3.52412 1.09761 3.08269 1.26191 2.70246Z" fill="#101010"/>
</svg>
