<svg width="18" height="22" viewBox="0 0 18 22" fill="none" xmlns="http://www.w3.org/2000/svg">
<path fill-rule="evenodd" clip-rule="evenodd" d="M12.3441 1.2288C12.497 1.59883 12.5604 2.04155 12.5604 2.5199V8.9699H14.9004C15.6945 8.9699 16.5511 9.21284 16.8965 9.97746C17.2419 10.7424 16.8568 11.5442 16.3326 12.1364C16.3324 12.1366 16.3321 12.1369 16.3319 12.1372L8.76341 20.7354C8.44738 21.0942 8.10716 21.3846 7.74828 21.5616C7.38621 21.7402 6.94663 21.8283 6.51058 21.6646C6.07412 21.5007 5.80121 21.1447 5.64681 20.771C5.49391 20.401 5.43044 19.9583 5.43044 19.4799V13.0299H3.09044C2.30193 13.0299 1.44807 12.7899 1.10232 12.027C0.757332 11.2658 1.13661 10.4644 1.65402 9.8683L1.65745 9.86435L9.22747 1.26436C9.54349 0.905627 9.88371 0.615204 10.2426 0.438202C10.6047 0.259629 11.0442 0.17155 11.4803 0.335255C11.9168 0.499115 12.1897 0.855134 12.3441 1.2288ZM10.3534 2.25545C10.5923 1.98433 10.7822 1.84459 10.9061 1.78348C10.9197 1.77677 10.9317 1.77134 10.9422 1.76696C10.947 1.77681 10.9522 1.7883 10.9577 1.80163C11.0102 1.92847 11.0604 2.15826 11.0604 2.5199V9.7199C11.0604 10.1341 11.3962 10.4699 11.8104 10.4699H14.9004C15.1824 10.4699 15.36 10.5143 15.4573 10.5575C15.4937 10.5737 15.5145 10.5875 15.5257 10.5964C15.5249 10.6104 15.5214 10.6346 15.5098 10.6716C15.4782 10.772 15.3945 10.9331 15.209 11.1426L15.2075 11.1444L7.63767 19.7441C7.39869 20.0154 7.20871 20.1552 7.08478 20.2163C7.07117 20.223 7.05915 20.2285 7.04863 20.2328C7.04383 20.223 7.03863 20.2115 7.03312 20.1982C6.98071 20.0713 6.93044 19.8415 6.93044 19.4799V12.2799C6.93044 11.8657 6.59465 11.5299 6.18044 11.5299H3.09044C2.81056 11.5299 2.63466 11.486 2.53865 11.4434C2.50346 11.4278 2.48309 11.4145 2.47211 11.4059C2.47276 11.3916 2.47615 11.3667 2.48798 11.3284C2.51934 11.2269 2.60214 11.0647 2.78527 10.8533L10.3534 2.25545C10.3535 2.25537 10.3533 2.25552 10.3534 2.25545Z" fill="#101010"/>
</svg>
