<svg width="22" height="22" viewBox="0 0 22 22" fill="none" xmlns="http://www.w3.org/2000/svg">
<path fill-rule="evenodd" clip-rule="evenodd" d="M10.889 5.30169C11.743 4.34092 13.3395 4.93408 13.3395 6.22996V9.52996H14.3295C15.5305 9.52996 16.1821 10.9479 15.3823 11.8557L11.1225 16.6955L11.1201 16.6982C10.2661 17.659 8.66953 17.0658 8.66953 15.77V12.47H9.41953V11.72H8.66953V12.47H7.67953C6.47868 12.47 5.82711 11.0523 6.62654 10.1444L10.889 5.30169ZM11.8395 6.49203L7.89821 10.97H9.41953C9.83375 10.97 10.1695 11.3057 10.1695 11.72V15.5079L14.1109 11.03H12.5895C12.1753 11.03 11.8395 10.6942 11.8395 10.28V6.49203Z" fill="#101010"/>
<path fill-rule="evenodd" clip-rule="evenodd" d="M10.9697 1.75C5.86109 1.75 1.71973 5.89137 1.71973 11C1.71973 16.1086 5.86109 20.25 10.9697 20.25C16.0784 20.25 20.2197 16.1086 20.2197 11C20.2197 5.89137 16.0784 1.75 10.9697 1.75ZM0.219727 11C0.219727 5.06294 5.03267 0.25 10.9697 0.25C16.9068 0.25 21.7197 5.06294 21.7197 11C21.7197 16.9371 16.9068 21.75 10.9697 21.75C5.03267 21.75 0.219727 16.9371 0.219727 11Z" fill="#101010"/>
</svg>
