<svg width="22" height="22" viewBox="0 0 22 22" fill="none" xmlns="http://www.w3.org/2000/svg">
<path fill-rule="evenodd" clip-rule="evenodd" d="M15.2197 9.71997C15.2197 9.30576 15.5555 8.96997 15.9697 8.96997H16.8997C17.6938 8.96997 18.5504 9.2129 18.8957 9.97753C19.2412 10.7425 18.856 11.5443 18.3319 12.1364C18.3316 12.1367 18.3314 12.137 18.3311 12.1372L10.7627 20.7355L10.7625 20.7357C10.4464 21.0945 10.1064 21.3847 9.74753 21.5617C9.38546 21.7402 8.94588 21.8283 8.50983 21.6646C8.07337 21.5008 7.80046 21.1447 7.64606 20.7711C7.49316 20.401 7.42969 19.9583 7.42969 19.48V17.04C7.42969 16.6258 7.76547 16.29 8.17969 16.29C8.5939 16.29 8.92969 16.6258 8.92969 17.04V19.48C8.92969 19.8416 8.97996 20.0714 9.03237 20.1982C9.03789 20.2116 9.04308 20.2231 9.04787 20.2329C9.0584 20.2285 9.07042 20.2231 9.08403 20.2164C9.20796 20.1553 9.39794 20.0155 9.63692 19.7442L17.2067 11.1444L17.2082 11.1427C17.3938 10.9332 17.4774 10.7721 17.509 10.6717C17.5207 10.6347 17.5242 10.6104 17.5249 10.5964C17.5138 10.5876 17.4929 10.5738 17.4565 10.5576C17.3593 10.5144 17.1817 10.47 16.8997 10.47H15.9697C15.5555 10.47 15.2197 10.1342 15.2197 9.71997ZM17.536 10.6071C17.5359 10.6071 17.535 10.6063 17.5337 10.6043C17.5354 10.6061 17.5361 10.6071 17.536 10.6071ZM17.5249 10.5847C17.5243 10.5824 17.5242 10.5812 17.5243 10.5811C17.5244 10.5811 17.5247 10.5822 17.5249 10.5847ZM8.98816 20.2508C8.9882 20.2507 8.98962 20.2505 8.99233 20.2505C8.98948 20.2509 8.98813 20.2509 8.98816 20.2508ZM9.07781 20.2828C9.07986 20.2846 9.08079 20.2857 9.08075 20.2858C9.08071 20.286 9.07969 20.2851 9.07781 20.2828Z" fill="#101010"/>
<path fill-rule="evenodd" clip-rule="evenodd" d="M14.354 1.2288C14.5069 1.59883 14.5704 2.04155 14.5704 2.5199V7.8399C14.5704 8.25412 14.2346 8.5899 13.8204 8.5899C13.4062 8.5899 13.0704 8.25412 13.0704 7.8399V2.5199C13.0704 2.15826 13.0201 1.92847 12.9677 1.80163C12.9622 1.7883 12.957 1.77681 12.9522 1.76697C12.9417 1.77134 12.9297 1.77677 12.9161 1.78348C12.7922 1.84459 12.6023 1.98433 12.3634 2.25545C12.3633 2.25552 12.3635 2.25537 12.3634 2.25545L4.79339 10.8554L4.79186 10.8572C4.60631 11.0667 4.5227 11.2278 4.49109 11.3282C4.47943 11.3652 4.47593 11.3894 4.47517 11.4034C4.48631 11.4123 4.5072 11.4261 4.54359 11.4423C4.64082 11.4855 4.81843 11.5299 5.10042 11.5299H8.19042C8.60463 11.5299 8.94042 11.8657 8.94042 12.2799V13.4599C8.94042 13.8741 8.60463 14.2099 8.19042 14.2099C7.7762 14.2099 7.44042 13.8741 7.44042 13.4599V13.0299H5.10042C4.30633 13.0299 3.4497 12.787 3.10439 12.0223C2.75894 11.2574 3.14404 10.4557 3.66819 9.86351C3.66846 9.86321 3.66872 9.86292 3.66898 9.86263L11.2374 1.26436C11.5535 0.905627 11.8937 0.615204 12.2526 0.438202C12.6146 0.259629 13.0542 0.17155 13.4903 0.335255C13.9267 0.499116 14.1996 0.855134 14.354 1.2288Z" fill="#101010"/>
<path fill-rule="evenodd" clip-rule="evenodd" d="M21.5303 0.46967C21.8232 0.762563 21.8232 1.23744 21.5303 1.53033L1.53033 21.5303C1.23744 21.8232 0.762563 21.8232 0.46967 21.5303C0.176777 21.2374 0.176777 20.7626 0.46967 20.4697L20.4697 0.46967C20.7626 0.176777 21.2374 0.176777 21.5303 0.46967Z" fill="#101010"/>
</svg>
