<svg width="16" height="23" viewBox="0 0 16 23" fill="none" xmlns="http://www.w3.org/2000/svg">
<path fill-rule="evenodd" clip-rule="evenodd" d="M8 14.25C8.41421 14.25 8.75 14.5858 8.75 15V18C8.75 18.4142 8.41421 18.75 8 18.75C7.58579 18.75 7.25 18.4142 7.25 18V15C7.25 14.5858 7.58579 14.25 8 14.25Z" fill="#101010"/>
<path fill-rule="evenodd" clip-rule="evenodd" d="M8 18.75C7.30964 18.75 6.75 19.3096 6.75 20C6.75 20.6904 7.30964 21.25 8 21.25C8.69036 21.25 9.25 20.6904 9.25 20C9.25 19.3096 8.69036 18.75 8 18.75ZM5.25 20C5.25 18.4812 6.48122 17.25 8 17.25C9.51878 17.25 10.75 18.4812 10.75 20C10.75 21.5188 9.51878 22.75 8 22.75C6.48122 22.75 5.25 21.5188 5.25 20Z" fill="#101010"/>
<path fill-rule="evenodd" clip-rule="evenodd" d="M9.25 20C9.25 19.5858 9.58579 19.25 10 19.25H14C14.4142 19.25 14.75 19.5858 14.75 20C14.75 20.4142 14.4142 20.75 14 20.75H10C9.58579 20.75 9.25 20.4142 9.25 20Z" fill="#101010"/>
<path fill-rule="evenodd" clip-rule="evenodd" d="M1.25 20C1.25 19.5858 1.58579 19.25 2 19.25H6C6.41421 19.25 6.75 19.5858 6.75 20C6.75 20.4142 6.41421 20.75 6 20.75H2C1.58579 20.75 1.25 20.4142 1.25 20Z" fill="#101010"/>
<path fill-rule="evenodd" clip-rule="evenodd" d="M2.23033 2.23033C1.94384 2.51682 1.75 3.09464 1.75 4.5V11.5C1.75 12.9054 1.94384 13.4832 2.23033 13.7697C2.51682 14.0562 3.09464 14.25 4.5 14.25H11.5C12.9054 14.25 13.4832 14.0562 13.7697 13.7697C14.0562 13.4832 14.25 12.9054 14.25 11.5V7.30005C14.25 5.89469 14.0562 5.31687 13.7697 5.03038C13.4832 4.74388 12.9054 4.55005 11.5 4.55005H9.40002C8.98213 4.55005 8.61358 4.48885 8.28989 4.29257C8.01128 4.12362 7.82775 3.88332 7.71325 3.7334C7.70376 3.72098 7.69475 3.70918 7.68619 3.69809L7.67998 3.69004L7.68004 3.69L6.63134 2.29177C6.63112 2.29148 6.6309 2.29118 6.63067 2.29089C6.41219 2.00143 6.33896 1.9192 6.24689 1.86377C6.17338 1.81951 6.00925 1.75 5.54999 1.75H4.5C3.09464 1.75 2.51682 1.94384 2.23033 2.23033ZM1.16967 1.16967C1.93318 0.406164 3.10536 0.25 4.5 0.25H5.54999C6.14072 0.25 6.61659 0.335473 7.02058 0.578699C7.38495 0.798074 7.62091 1.11192 7.79854 1.3482C7.80876 1.36179 7.81878 1.37512 7.82862 1.38816L7.82998 1.38996L8.87697 2.78591C8.94985 2.88038 8.98765 2.92927 9.02417 2.96924C9.05373 3.0016 9.06577 3.00883 9.06755 3.0099L9.06766 3.00997C9.06768 3.00998 9.08078 3.01891 9.12573 3.0286C9.17541 3.03931 9.26009 3.05005 9.40002 3.05005H11.5C12.8946 3.05005 14.0668 3.20621 14.8303 3.96972C15.5938 4.73322 15.75 5.90541 15.75 7.30005V11.5C15.75 12.8946 15.5938 14.0668 14.8303 14.8303C14.0668 15.5938 12.8946 15.75 11.5 15.75H4.5C3.10536 15.75 1.93318 15.5938 1.16967 14.8303C0.406164 14.0668 0.25 12.8946 0.25 11.5V4.5C0.25 3.10536 0.406164 1.93318 1.16967 1.16967Z" fill="#101010"/>
</svg>
