<svg width="22" height="14" viewBox="0 0 22 14" fill="none" xmlns="http://www.w3.org/2000/svg">
<path fill-rule="evenodd" clip-rule="evenodd" d="M4.3075 1.02184L7.47498 2.84036L10.6559 4.6767C10.9111 4.82981 11.1443 5.01354 11.3421 5.25697C11.4507 5.39066 11.51 5.55767 11.51 5.72992V8.28992C11.51 8.46217 11.4507 8.62917 11.3421 8.76286C11.1443 9.0063 10.911 9.18993 10.6559 9.34304L10.645 9.34955L7.47497 11.1794L7.47344 11.1803L4.30478 12.9996C4.3046 12.9997 4.30497 12.9994 4.30478 12.9996C2.50593 14.0368 0.25 12.7381 0.25 10.6599V3.3399C0.25 1.26433 2.50515 -0.0411057 4.3075 1.02184ZM3.54778 2.31522C2.7509 1.84322 1.75 2.41729 1.75 3.3399V10.6599C1.75 11.5815 2.75415 12.1624 3.5552 11.7003L6.72504 9.88037L6.72658 9.87948L9.8891 8.0538C9.93492 8.02613 9.97486 7.99952 10.01 7.97362V6.04621C9.97486 6.02031 9.93492 5.9937 9.8891 5.96603L6.72658 4.14032L6.72503 4.13943L3.54778 2.31522Z" fill="#101010"/>
<path fill-rule="evenodd" clip-rule="evenodd" d="M14.0673 1.02184L17.2347 2.84036L20.4083 4.67243C22.2003 5.72007 22.2081 8.30904 20.4045 9.34956L17.2347 11.1794L17.2332 11.1803L14.0646 12.9996C14.0643 12.9997 14.0648 12.9994 14.0646 12.9996C12.2657 14.0365 10.0098 12.738 10.0098 10.6599V3.3399C10.0098 1.26433 12.2649 -0.0411078 14.0673 1.02184ZM13.3075 2.31522C12.5107 1.84322 11.5098 2.41729 11.5098 3.3399V10.6599C11.5098 11.5815 12.5139 12.1624 13.315 11.7003L13.3163 11.6995L16.4848 9.88037L16.4863 9.87948L19.6548 8.05038C20.4507 7.5912 20.4592 6.44125 19.6528 5.96831C19.6523 5.968 19.6518 5.96769 19.6512 5.96739L16.4863 4.14032L16.4848 4.13943L13.3075 2.31522Z" fill="#101010"/>
</svg>
