<svg width="22" height="22" viewBox="0 0 22 22" fill="none" xmlns="http://www.w3.org/2000/svg">
<path fill-rule="evenodd" clip-rule="evenodd" d="M11 1.75C5.89137 1.75 1.75 5.89137 1.75 11C1.75 16.1086 5.89137 20.25 11 20.25C16.1086 20.25 20.25 16.1086 20.25 11C20.25 5.89137 16.1086 1.75 11 1.75ZM0.25 11C0.25 5.06294 5.06294 0.25 11 0.25C16.9371 0.25 21.75 5.06294 21.75 11C21.75 16.9371 16.9371 21.75 11 21.75C5.06294 21.75 0.25 16.9371 0.25 11Z" fill="#101010"/>
<path fill-rule="evenodd" clip-rule="evenodd" d="M10.4701 8.20891C10.7629 7.91702 11.2366 7.91702 11.5293 8.20891L15.0593 11.7289C15.3526 12.0214 15.3533 12.4963 15.0608 12.7896C14.7683 13.0829 14.2935 13.0835 14.0001 12.7911L10.9997 9.79915L7.9993 12.7911C7.706 13.0835 7.23112 13.0829 6.93864 12.7896C6.64617 12.4963 6.64684 12.0214 6.94015 11.7289L10.4701 8.20891Z" fill="#101010"/>
</svg>
