<svg width="22" height="16" viewBox="0 0 22 16" fill="none" xmlns="http://www.w3.org/2000/svg">
<path fill-rule="evenodd" clip-rule="evenodd" d="M12.7646 0.941238C13.3329 0.406656 14.1294 0.25 14.9898 0.25H16.0298C16.8901 0.25 17.6867 0.406656 18.2549 0.941238C18.8347 1.48664 19.0098 2.26514 19.0098 3.1V14.9C19.0098 15.3142 18.674 15.65 18.2598 15.65C17.8456 15.65 17.5098 15.3142 17.5098 14.9V3.1C17.5098 2.43486 17.3649 2.16336 17.2271 2.03376C17.0779 1.89334 16.7595 1.75 16.0298 1.75H14.9898C14.2601 1.75 13.9417 1.89334 13.7924 2.03376C13.6547 2.16336 13.5098 2.43486 13.5098 3.1V14.9C13.5098 15.3142 13.174 15.65 12.7598 15.65C12.3456 15.65 12.0098 15.3142 12.0098 14.9V3.1C12.0098 2.26514 12.1849 1.48664 12.7646 0.941238Z" fill="#101010"/>
<path fill-rule="evenodd" clip-rule="evenodd" d="M5.29242 7.03376C5.15467 7.16336 5.00977 7.43486 5.00977 8.1V14.9C5.00977 15.3142 4.67398 15.65 4.25977 15.65C3.84555 15.65 3.50977 15.3142 3.50977 14.9V8.1C3.50977 7.26514 3.68486 6.48664 4.26461 5.94124C4.83285 5.40666 5.62945 5.25 6.48977 5.25H7.52977C8.39008 5.25 9.18668 5.40666 9.75492 5.94124C10.3347 6.48664 10.5098 7.26514 10.5098 8.1V14.9C10.5098 15.3142 10.174 15.65 9.75977 15.65C9.34555 15.65 9.00977 15.3142 9.00977 14.9V8.1C9.00977 7.43486 8.86486 7.16336 8.72711 7.03376C8.57785 6.89334 8.25945 6.75 7.52977 6.75H6.48977C5.76008 6.75 5.44168 6.89334 5.29242 7.03376Z" fill="#101010"/>
<path fill-rule="evenodd" clip-rule="evenodd" d="M0.25 15C0.25 14.5858 0.585786 14.25 1 14.25H21C21.4142 14.25 21.75 14.5858 21.75 15C21.75 15.4142 21.4142 15.75 21 15.75H1C0.585786 15.75 0.25 15.4142 0.25 15Z" fill="#101010"/>
</svg>
