<svg width="22" height="22" viewBox="0 0 22 22" fill="none" xmlns="http://www.w3.org/2000/svg">
<path fill-rule="evenodd" clip-rule="evenodd" d="M14.6932 7.83566C14.7288 7.42298 15.0921 7.11724 15.5048 7.15277C17.4168 7.31741 18.9142 7.90536 19.9079 9.12994C20.8847 10.3338 21.2605 12.0163 21.2605 14.11V14.24C21.2605 16.5492 20.8027 18.361 19.587 19.5766C18.3714 20.7922 16.5596 21.25 14.2505 21.25H7.74047C5.43129 21.25 3.61952 20.7922 2.40389 19.5766C1.18826 18.361 0.730469 16.5492 0.730469 14.24V14.11C0.730469 12.0315 1.10117 10.3592 2.06232 9.15774C3.0408 7.93463 4.5164 7.33891 6.40086 7.16325C6.81328 7.1248 7.17878 7.42797 7.21723 7.84039C7.25568 8.25282 6.95251 8.61832 6.54008 8.65677C4.88454 8.8111 3.86514 9.30538 3.23362 10.0948C2.58476 10.9059 2.23047 12.1685 2.23047 14.11V14.24C2.23047 16.4008 2.66768 17.7191 3.46455 18.5159C4.26142 19.3128 5.57964 19.75 7.74047 19.75H14.2505C16.4113 19.75 17.7295 19.3128 18.5264 18.5159C19.3233 17.7191 19.7605 16.4008 19.7605 14.24V14.11C19.7605 12.1537 19.4012 10.8862 18.7431 10.0751C18.1017 9.28466 17.0642 8.7926 15.3761 8.64724C14.9634 8.61171 14.6577 8.24835 14.6932 7.83566Z" fill="#101010"/>
<path fill-rule="evenodd" clip-rule="evenodd" d="M11 0.25C11.4142 0.25 11.75 0.585786 11.75 1V13.88C11.75 14.2942 11.4142 14.63 11 14.63C10.5858 14.63 10.25 14.2942 10.25 13.88V1C10.25 0.585786 10.5858 0.25 11 0.25Z" fill="#101010"/>
<path fill-rule="evenodd" clip-rule="evenodd" d="M7.12006 11.1197C7.41295 10.8268 7.88783 10.8268 8.18072 11.1197L11.0004 13.9394L13.8201 11.1197C14.113 10.8268 14.5878 10.8268 14.8807 11.1197C15.1736 11.4126 15.1736 11.8875 14.8807 12.1804L11.5307 15.5304C11.2378 15.8232 10.763 15.8232 10.4701 15.5304L7.12006 12.1804C6.82717 11.8875 6.82717 11.4126 7.12006 11.1197Z" fill="#101010"/>
</svg>
