<svg width="18" height="20" viewBox="0 0 18 20" fill="none" xmlns="http://www.w3.org/2000/svg">
<path fill-rule="evenodd" clip-rule="evenodd" d="M0.459376 12.9602C0.751977 12.667 1.22685 12.6665 1.52004 12.9591L6.54004 17.9691C6.83322 18.2617 6.83369 18.7366 6.54109 19.0298C6.24849 19.323 5.77362 19.3235 5.48043 19.0308L0.460433 14.0208C0.167248 13.7282 0.166775 13.2534 0.459376 12.9602Z" fill="#101010"/>
<path fill-rule="evenodd" clip-rule="evenodd" d="M6.00977 0.75C6.42398 0.75 6.75977 1.08579 6.75977 1.5V18.5C6.75977 18.9142 6.42398 19.25 6.00977 19.25C5.59555 19.25 5.25977 18.9142 5.25977 18.5V1.5C5.25977 1.08579 5.59555 0.75 6.00977 0.75Z" fill="#101010"/>
<path fill-rule="evenodd" clip-rule="evenodd" d="M11.4594 0.970199C11.752 0.677014 12.2269 0.67654 12.52 0.969141L17.54 5.97914C17.8332 6.27174 17.8337 6.74662 17.5411 7.0398C17.2485 7.33299 16.7736 7.33346 16.4804 7.04086L11.4604 2.03086C11.1672 1.73826 11.1668 1.26338 11.4594 0.970199Z" fill="#101010"/>
<path fill-rule="evenodd" clip-rule="evenodd" d="M11.9902 0.75C12.4044 0.75 12.7402 1.08579 12.7402 1.5V18.5C12.7402 18.9142 12.4044 19.25 11.9902 19.25C11.576 19.25 11.2402 18.9142 11.2402 18.5V1.5C11.2402 1.08579 11.576 0.75 11.9902 0.75Z" fill="#101010"/>
</svg>
