<svg width="22" height="22" viewBox="0 0 22 22" fill="none" xmlns="http://www.w3.org/2000/svg">
<path fill-rule="evenodd" clip-rule="evenodd" d="M8 5.75C7.30964 5.75 6.75 6.30964 6.75 7C6.75 7.69036 7.30964 8.25 8 8.25C8.69036 8.25 9.25 7.69036 9.25 7C9.25 6.30964 8.69036 5.75 8 5.75ZM5.25 7C5.25 5.48122 6.48122 4.25 8 4.25C9.51878 4.25 10.75 5.48122 10.75 7C10.75 8.51878 9.51878 9.75 8 9.75C6.48122 9.75 5.25 8.51878 5.25 7Z" fill="#101010"/>
<path fill-rule="evenodd" clip-rule="evenodd" d="M2.09467 2.09467C3.42914 0.760201 5.42603 0.25 8 0.25H12C12.4142 0.25 12.75 0.585786 12.75 1C12.75 1.41421 12.4142 1.75 12 1.75H8C5.57397 1.75 4.07086 2.2398 3.15533 3.15533C2.2398 4.07086 1.75 5.57397 1.75 8V14C1.75 16.426 2.2398 17.9291 3.15533 18.8447C4.07086 19.7602 5.57397 20.25 8 20.25H14C16.426 20.25 17.9291 19.7602 18.8447 18.8447C19.7602 17.9291 20.25 16.426 20.25 14V9C20.25 8.58579 20.5858 8.25 21 8.25C21.4142 8.25 21.75 8.58579 21.75 9V14C21.75 16.574 21.2398 18.5709 19.9053 19.9053C18.5709 21.2398 16.574 21.75 14 21.75H8C5.42603 21.75 3.42914 21.2398 2.09467 19.9053C0.760201 18.5709 0.25 16.574 0.25 14V8C0.25 5.42603 0.760201 3.42914 2.09467 2.09467Z" fill="#101010"/>
<path fill-rule="evenodd" clip-rule="evenodd" d="M20.8903 1.01972C21.1832 1.31261 21.1832 1.78749 20.8903 2.08038L16.9903 5.98038C16.8497 6.12103 16.6589 6.20005 16.46 6.20005C16.2611 6.20005 16.0703 6.12103 15.9297 5.98038L14.4697 4.52038C14.1768 4.22749 14.1768 3.75261 14.4697 3.45972C14.7626 3.16683 15.2374 3.16683 15.5303 3.45972L16.46 4.38939L19.8297 1.01972C20.1226 0.726825 20.5974 0.726826 20.8903 1.01972Z" fill="#101010"/>
<path fill-rule="evenodd" clip-rule="evenodd" d="M18.8813 12.0689C18.3824 11.6403 17.5376 11.6403 17.0387 12.0689L12.8787 15.6389C12.8786 15.6389 12.8788 15.6388 12.8787 15.6389C11.8176 16.5501 10.1423 16.5502 9.0813 15.6389L9.07488 15.6334L8.74844 15.3464C8.30001 14.9637 7.53368 14.9167 7.01784 15.2628L2.08806 18.5726C1.74417 18.8035 1.27822 18.7119 1.04733 18.368C0.816435 18.0241 0.908043 17.5582 1.25194 17.3273L6.18194 14.0173C7.24502 13.3041 8.75679 13.376 9.72875 14.2111L9.73512 14.2165L10.0615 14.5034C10.5608 14.9296 11.4033 14.9288 11.9013 14.501L16.0613 10.931C16.0614 10.9309 16.0612 10.9311 16.0613 10.931C17.1224 10.0198 18.7977 10.0197 19.8587 10.931C19.8587 10.931 19.8587 10.931 19.8587 10.931L21.4887 12.331C21.8029 12.6009 21.8388 13.0744 21.5689 13.3886C21.2991 13.7028 20.8256 13.7388 20.5113 13.4689L18.8813 12.0689Z" fill="#101010"/>
</svg>
