<svg width="22" height="22" viewBox="0 0 22 22" fill="none" xmlns="http://www.w3.org/2000/svg">
<path fill-rule="evenodd" clip-rule="evenodd" d="M3.15533 3.15533C2.2398 4.07086 1.75 5.57397 1.75 8V14C1.75 16.2379 2.17046 17.6874 2.94658 18.6204C3.21148 18.9388 3.16807 19.4117 2.84964 19.6766C2.5312 19.9415 2.05831 19.8981 1.79342 19.5796C0.689535 18.2526 0.25 16.3821 0.25 14V8C0.25 5.42603 0.760201 3.42914 2.09467 2.09467C3.42914 0.760201 5.42603 0.25 8 0.25H14C16.2557 0.25 18.062 0.637294 19.3734 1.63257C19.7034 1.88298 19.7678 2.35346 19.5174 2.68341C19.267 3.01336 18.7965 3.07784 18.4666 2.82743C17.538 2.12271 16.1243 1.75 14 1.75H8C5.57397 1.75 4.07086 2.2398 3.15533 3.15533Z" fill="#101010"/>
<path fill-rule="evenodd" clip-rule="evenodd" d="M20.9233 6.24148C21.3367 6.21564 21.6928 6.52983 21.7186 6.94323C21.7397 7.28035 21.7501 7.63604 21.7501 8.00002V14C21.7501 16.574 21.2399 18.5709 19.9054 19.9053C18.5709 21.2398 16.574 21.75 14.0001 21.75H8.00007C7.2352 21.75 6.51269 21.7088 5.84065 21.6004C5.43172 21.5345 5.15369 21.1495 5.21964 20.7406C5.2856 20.3317 5.67057 20.0536 6.0795 20.1196C6.64745 20.2112 7.28495 20.25 8.00007 20.25H14.0001C16.4261 20.25 17.9292 19.7602 18.8447 18.8447C19.7603 17.9292 20.2501 16.426 20.2501 14V8.00002C20.2501 7.66399 20.2405 7.33968 20.2215 7.0368C20.1957 6.62339 20.5099 6.26731 20.9233 6.24148Z" fill="#101010"/>
<path fill-rule="evenodd" clip-rule="evenodd" d="M7 5.75C6.30964 5.75 5.75 6.30964 5.75 7C5.75 7.69036 6.30964 8.25 7 8.25C7.69036 8.25 8.25 7.69036 8.25 7C8.25 6.30964 7.69036 5.75 7 5.75ZM4.25 7C4.25 5.48122 5.48122 4.25 7 4.25C8.51878 4.25 9.75 5.48122 9.75 7C9.75 8.51878 8.51878 9.75 7 9.75C5.48122 9.75 4.25 8.51878 4.25 7Z" fill="#101010"/>
<path fill-rule="evenodd" clip-rule="evenodd" d="M21.5303 0.46967C21.8232 0.762563 21.8232 1.23744 21.5303 1.53033L1.53033 21.5303C1.23744 21.8232 0.762563 21.8232 0.46967 21.5303C0.176777 21.2374 0.176777 20.7626 0.46967 20.4697L20.4697 0.46967C20.7626 0.176777 21.2374 0.176777 21.5303 0.46967Z" fill="#101010"/>
<path fill-rule="evenodd" clip-rule="evenodd" d="M17.08 10.9403C17.0799 10.9403 17.0801 10.9402 17.08 10.9403L12.0505 15.9797C11.4577 16.5726 10.4923 16.5732 9.89936 15.9803C9.60646 15.6874 9.60646 15.2125 9.89936 14.9196C10.1923 14.6267 10.6671 14.6267 10.96 14.9196C10.9622 14.9218 10.9638 14.9227 10.9653 14.9233C10.9674 14.9241 10.9706 14.9249 10.9747 14.9249C10.9787 14.9249 10.982 14.9241 10.984 14.9233C10.9856 14.9227 10.9871 14.9219 10.9893 14.9197C10.9893 14.9197 10.9892 14.9197 10.9893 14.9197L16.0188 9.88013C17.0917 8.80724 18.8271 8.80671 19.9 9.8796L19.9016 9.88122L21.5316 11.5212C21.8236 11.815 21.8222 12.2899 21.5284 12.5819C21.2346 12.8739 20.7597 12.8724 20.4677 12.5786L18.8394 10.9403C18.8391 10.94 18.8388 10.9397 18.8385 10.9394C18.3514 10.4532 17.5669 10.4536 17.08 10.9403Z" fill="#101010"/>
</svg>
