<svg width="22" height="22" viewBox="0 0 22 22" fill="none" xmlns="http://www.w3.org/2000/svg">
<path fill-rule="evenodd" clip-rule="evenodd" d="M8 5.75C7.30964 5.75 6.75 6.30964 6.75 7C6.75 7.69036 7.30964 8.25 8 8.25C8.69036 8.25 9.25 7.69036 9.25 7C9.25 6.30964 8.69036 5.75 8 5.75ZM5.25 7C5.25 5.48122 6.48122 4.25 8 4.25C9.51878 4.25 10.75 5.48122 10.75 7C10.75 8.51878 9.51878 9.75 8 9.75C6.48122 9.75 5.25 8.51878 5.25 7Z" fill="#101010"/>
<path fill-rule="evenodd" clip-rule="evenodd" d="M2.09467 2.09467C3.42914 0.760201 5.42603 0.25 8 0.25H11C11.4142 0.25 11.75 0.585786 11.75 1C11.75 1.41421 11.4142 1.75 11 1.75H8C5.57397 1.75 4.07086 2.2398 3.15533 3.15533C2.2398 4.07086 1.75 5.57397 1.75 8V14C1.75 16.426 2.2398 17.9291 3.15533 18.8447C4.07086 19.7602 5.57397 20.25 8 20.25H14C16.426 20.25 17.9291 19.7602 18.8447 18.8447C19.7602 17.9291 20.25 16.426 20.25 14V10C20.25 9.58579 20.5858 9.25 21 9.25C21.4142 9.25 21.75 9.58579 21.75 10V14C21.75 16.574 21.2398 18.5709 19.9053 19.9053C18.5709 21.2398 16.574 21.75 14 21.75H8C5.42603 21.75 3.42914 21.2398 2.09467 19.9053C0.760201 18.5709 0.25 16.574 0.25 14V8C0.25 5.42603 0.760201 3.42914 2.09467 2.09467Z" fill="#101010"/>
<path fill-rule="evenodd" clip-rule="evenodd" d="M19.3832 2.14142C19.0555 2.03219 18.7145 2.14074 18.5644 2.36593C18.4283 2.57007 18.2009 2.69474 17.9556 2.69975C17.7103 2.70475 17.4781 2.58946 17.3338 2.39103C17.1554 2.14573 16.8048 2.04566 16.4889 2.14425C15.9387 2.32465 15.5825 3.08549 15.835 3.88246C16.0369 4.51407 16.49 5.01876 16.9823 5.3746C17.2254 5.55041 17.4641 5.67934 17.6594 5.76184C17.8228 5.83088 17.9178 5.85147 17.9455 5.85749C17.9467 5.85774 17.9477 5.85797 17.9487 5.85818C17.9502 5.8578 17.9522 5.85733 17.9546 5.85676C17.9838 5.84992 18.0756 5.82834 18.2326 5.76086C18.4281 5.67685 18.6676 5.54588 18.9117 5.36835C19.4071 5.0081 19.8589 4.50297 20.0554 3.88322L20.0555 3.88307C20.3083 3.08641 19.9525 2.32429 19.3911 2.14399L19.3832 2.14146L19.3832 2.14142ZM19.8535 0.717047C19.2681 0.523216 18.5245 0.558729 17.9269 0.935871C17.3402 0.578331 16.6245 0.528396 16.0345 0.714717L16.0345 0.714697L16.0291 0.716435C14.421 1.23758 13.9988 3.05522 14.4055 4.33674L14.4059 4.33802C14.7341 5.3661 15.4408 6.11118 16.1034 6.59021C16.4378 6.8319 16.7753 7.01672 17.0757 7.1436C17.3518 7.26023 17.6708 7.3599 17.9504 7.3599C18.2316 7.3599 18.5523 7.25616 18.825 7.13895C19.1239 7.01045 19.4606 6.82393 19.794 6.58146C20.4536 6.10174 21.1617 5.35692 21.4852 4.33674M21.4853 4.33659C21.8921 3.05427 21.4688 1.23837 19.8535 0.717047L21.4853 4.33659Z" fill="#101010"/>
<path fill-rule="evenodd" clip-rule="evenodd" d="M18.8813 12.0689C18.3824 11.6403 17.5376 11.6403 17.0387 12.0689L12.8787 15.6389C12.8786 15.6389 12.8788 15.6388 12.8787 15.6389C11.8176 16.5501 10.1423 16.5502 9.0813 15.6389L9.07488 15.6334L8.74844 15.3464C8.30001 14.9637 7.53368 14.9167 7.01784 15.2628L2.08806 18.5726C1.74417 18.8035 1.27822 18.7119 1.04733 18.368C0.816435 18.0241 0.908043 17.5582 1.25194 17.3273L6.18194 14.0173C7.24502 13.3041 8.75679 13.376 9.72875 14.2111L9.73512 14.2165L10.0615 14.5034C10.5608 14.9296 11.4033 14.9288 11.9013 14.501L16.0613 10.931C16.0614 10.9309 16.0612 10.9311 16.0613 10.931C17.1224 10.0198 18.7977 10.0197 19.8587 10.931C19.8587 10.931 19.8587 10.931 19.8587 10.931L21.4887 12.331C21.8029 12.6009 21.8388 13.0744 21.5689 13.3886C21.2991 13.7028 20.8256 13.7388 20.5113 13.4689L18.8813 12.0689Z" fill="#101010"/>
</svg>
