<svg width="22" height="22" viewBox="0 0 22 22" fill="none" xmlns="http://www.w3.org/2000/svg">
<path fill-rule="evenodd" clip-rule="evenodd" d="M3.88579 2.30149C3.51985 2.63876 3.25 3.17684 3.25 4V20.25H15.75V4C15.75 3.17684 15.4802 2.63876 15.1142 2.30149C14.7383 1.95499 14.1836 1.75 13.5 1.75H5.5C4.81637 1.75 4.26175 1.95499 3.88579 2.30149ZM2.86921 1.19851C3.57825 0.545015 4.52363 0.25 5.5 0.25H13.5C14.4764 0.25 15.4217 0.545015 16.1308 1.19851C16.8498 1.86124 17.25 2.82316 17.25 4V21C17.25 21.4142 16.9142 21.75 16.5 21.75H2.5C2.08579 21.75 1.75 21.4142 1.75 21V4C1.75 2.82316 2.15015 1.86124 2.86921 1.19851Z" fill="#101010"/>
<path fill-rule="evenodd" clip-rule="evenodd" d="M0.25 21C0.25 20.5858 0.585786 20.25 1 20.25H18C18.4142 20.25 18.75 20.5858 18.75 21C18.75 21.4142 18.4142 21.75 18 21.75H1C0.585786 21.75 0.25 21.4142 0.25 21Z" fill="#101010"/>
<path fill-rule="evenodd" clip-rule="evenodd" d="M5.562 3.84854C6.0881 3.38964 6.76273 3.23999 7.39 3.23999H11.62C12.2473 3.23999 12.9219 3.38964 13.448 3.84854C13.9928 4.32371 14.26 5.02601 14.26 5.87999V7.10999C14.26 7.96397 13.9928 8.66627 13.448 9.14143C12.9219 9.60033 12.2473 9.74998 11.62 9.74998H7.39C6.76273 9.74998 6.0881 9.60033 5.562 9.14143C5.01725 8.66627 4.75 7.96397 4.75 7.10999V5.87999C4.75 5.02601 5.01725 4.32371 5.562 3.84854ZM6.548 4.97894C6.40775 5.10127 6.25 5.34397 6.25 5.87999V7.10999C6.25 7.646 6.40775 7.8887 6.548 8.01104C6.7069 8.14964 6.97727 8.24998 7.39 8.24998H11.62C12.0327 8.24998 12.3031 8.14964 12.462 8.01104C12.6022 7.8887 12.76 7.646 12.76 7.10999V5.87999C12.76 5.34397 12.6022 5.10127 12.462 4.97894C12.3031 4.84034 12.0327 4.73999 11.62 4.73999H7.39C6.97727 4.73999 6.7069 4.84034 6.548 4.97894Z" fill="#101010"/>
<path fill-rule="evenodd" clip-rule="evenodd" d="M4.75 12C4.75 11.5858 5.08579 11.25 5.5 11.25H8.5C8.91421 11.25 9.25 11.5858 9.25 12C9.25 12.4142 8.91421 12.75 8.5 12.75H5.5C5.08579 12.75 4.75 12.4142 4.75 12Z" fill="#101010"/>
<path fill-rule="evenodd" clip-rule="evenodd" d="M18.3292 7.66463C18.5144 7.29415 18.9649 7.14398 19.3354 7.32922L21.3354 8.32922C21.5895 8.45627 21.75 8.71596 21.75 9.00004V15C21.75 15.4136 21.4152 15.7491 21.0017 15.75L16.5017 15.76C16.0875 15.761 15.7509 15.4259 15.75 15.0117C15.7491 14.5975 16.0841 14.261 16.4983 14.26L20.25 14.2517V9.46357L18.6646 8.67086C18.2941 8.48562 18.1439 8.03512 18.3292 7.66463Z" fill="#101010"/>
</svg>
