<svg width="22" height="22" viewBox="0 0 22 22" fill="none" xmlns="http://www.w3.org/2000/svg">
<path fill-rule="evenodd" clip-rule="evenodd" d="M0.25 11.18C0.25 5.1784 5.07328 0.25 11 0.25C16.9267 0.25 21.75 5.1784 21.75 11.18V19.07C21.75 19.7742 21.5456 20.5874 20.8296 20.9183C20.0968 21.257 19.3597 20.8542 18.8591 20.3791L17.8652 19.4747L17.8625 19.4723C17.7795 19.3959 17.6206 19.3959 17.5375 19.4723L15.5375 21.3022C15.5374 21.3023 15.5376 21.3022 15.5375 21.3022C14.8806 21.9056 13.8397 21.9058 13.1828 21.3025C13.1827 21.3024 13.1829 21.3026 13.1828 21.3025L11.1825 19.4723C11.0995 19.3959 10.9405 19.3959 10.8574 19.4723L8.85744 21.3022C8.85739 21.3023 8.8575 21.3022 8.85744 21.3022C8.20055 21.9057 7.15959 21.9059 6.50269 21.3024C6.50264 21.3023 6.50274 21.3024 6.50269 21.3024L4.50254 19.4723C4.41948 19.3959 4.26051 19.3959 4.17745 19.4723L4.17476 19.4747L3.17568 20.3839C3.17537 20.3841 3.17507 20.3844 3.17476 20.3847M11 1.75C5.92672 1.75 1.75 5.98159 1.75 11.18V19.07C1.75 19.297 1.78179 19.441 1.81189 19.5208C1.88661 19.49 2.0066 19.4201 2.16428 19.2761L2.16521 19.2753L3.16251 18.3678C3.16305 18.3673 3.16358 18.3668 3.16412 18.3663C3.82109 17.7641 4.86091 17.7646 5.51733 18.3676C5.51738 18.3677 5.51728 18.3676 5.51733 18.3676L7.51748 20.1978C7.60054 20.2741 7.75944 20.2741 7.84251 20.1978L9.84251 18.3678C9.8426 18.3677 9.84241 18.3679 9.84251 18.3678C10.4994 17.7644 11.5403 17.7642 12.1972 18.3675C12.1973 18.3676 12.1971 18.3674 12.1972 18.3675L14.1975 20.1978C14.2805 20.2741 14.4395 20.2741 14.5226 20.1978L16.5226 18.3678C16.5227 18.3677 16.5225 18.3679 16.5226 18.3678C17.179 17.7648 18.219 17.7642 18.8759 18.3664C18.8764 18.3668 18.877 18.3673 18.8775 18.3678L19.8748 19.2753L19.8879 19.2875C20.0201 19.4137 20.1233 19.4802 20.1913 19.5132C20.2205 19.4309 20.25 19.2886 20.25 19.07V11.18C20.25 5.98159 16.0733 1.75 11 1.75ZM20.1562 19.5869C20.1562 19.5869 20.1565 19.5864 20.1573 19.5856L20.1562 19.5869Z" fill="#101010"/>
<path fill-rule="evenodd" clip-rule="evenodd" d="M6.40035 12.5496C6.6491 12.2184 7.11925 12.1516 7.45045 12.4003C9.55362 13.9799 12.4465 13.9799 14.5496 12.4003C14.8808 12.1516 15.351 12.2184 15.5997 12.5496C15.8485 12.8808 15.7817 13.351 15.4504 13.5997C12.8136 15.5801 9.18647 15.5801 6.54964 13.5997C6.21844 13.351 6.1516 12.8808 6.40035 12.5496Z" fill="#101010"/>
<path fill-rule="evenodd" clip-rule="evenodd" d="M11 6.75C10.3096 6.75 9.75 7.30964 9.75 8C9.75 8.69036 10.3096 9.25 11 9.25C11.6904 9.25 12.25 8.69036 12.25 8C12.25 7.30964 11.6904 6.75 11 6.75ZM8.25 8C8.25 6.48122 9.48122 5.25 11 5.25C12.5188 5.25 13.75 6.48122 13.75 8C13.75 9.51878 12.5188 10.75 11 10.75C9.48122 10.75 8.25 9.51878 8.25 8Z" fill="#101010"/>
</svg>
