<svg width="22" height="22" viewBox="0 0 22 22" fill="none" xmlns="http://www.w3.org/2000/svg">
<path fill-rule="evenodd" clip-rule="evenodd" d="M2.2207 9C2.2207 8.58579 2.55649 8.25 2.9707 8.25H18.9707C19.3849 8.25 19.7207 8.58579 19.7207 9V17C19.7207 18.5415 19.4735 19.8079 18.626 20.6553C17.7786 21.5028 16.5123 21.75 14.9707 21.75H6.9707C5.42915 21.75 4.16279 21.5028 3.31537 20.6553C2.46795 19.8079 2.2207 18.5415 2.2207 17V9ZM3.7207 9.75V17C3.7207 18.4585 3.97345 19.1921 4.37603 19.5947C4.77861 19.9972 5.51225 20.25 6.9707 20.25H14.9707C16.4292 20.25 17.1628 19.9972 17.5654 19.5947C17.968 19.1921 18.2207 18.4585 18.2207 17V9.75H3.7207Z" fill="#101010"/>
<path fill-rule="evenodd" clip-rule="evenodd" d="M2.49722 5.07381C2.35094 5.24556 2.25 5.53929 2.25 6V7C2.25 7.46071 2.35094 7.75444 2.49722 7.92619C2.6239 8.07493 2.88538 8.25 3.5 8.25H18.5C19.0758 8.25 19.3461 8.07991 19.4861 7.91945C19.6423 7.74039 19.75 7.44239 19.75 7V6C19.75 5.55761 19.6423 5.25961 19.4861 5.08055C19.3461 4.92009 19.0758 4.75 18.5 4.75H3.5C2.88538 4.75 2.6239 4.92507 2.49722 5.07381ZM1.35528 4.10119C1.8461 3.52493 2.58462 3.25 3.5 3.25H18.5C19.3942 3.25 20.1239 3.52991 20.6164 4.09445C21.0927 4.64039 21.25 5.34239 21.25 6V7C21.25 7.65761 21.0927 8.35961 20.6164 8.90555C20.1239 9.47009 19.3942 9.75 18.5 9.75H3.5C2.58462 9.75 1.8461 9.47507 1.35528 8.89881C0.884065 8.34556 0.75 7.63929 0.75 7V6C0.75 5.36071 0.884065 4.65444 1.35528 4.10119Z" fill="#101010"/>
<path fill-rule="evenodd" clip-rule="evenodd" d="M7.39043 1.81027C7.31333 1.73316 7.1782 1.73316 7.10109 1.81027L5.68109 3.23027C5.67477 3.23659 5.66898 3.24316 5.66371 3.24994H8.8301L7.39043 1.81027ZM6.04043 0.749611C6.70333 0.0867181 7.7882 0.0867181 8.45109 0.749611L11.1711 3.46961C11.3856 3.68411 11.4498 4.0067 11.3337 4.28695C11.2176 4.56721 10.9441 4.74994 10.6408 4.74994H5.12076C4.91085 4.74994 4.71055 4.66197 4.56852 4.50741C3.95633 3.8412 3.97652 2.81353 4.62043 2.16961L6.04043 0.749611Z" fill="#101010"/>
<path fill-rule="evenodd" clip-rule="evenodd" d="M14.8893 1.81027C14.8122 1.73316 14.6771 1.73316 14.6 1.81027L13.1603 3.24994H16.3267C16.3214 3.24316 16.3156 3.23659 16.3093 3.23027L14.8893 1.81027ZM13.5393 0.749611C14.2022 0.0867181 15.2871 0.0867181 15.95 0.749611L17.37 2.16961C18.0139 2.81353 18.0341 3.8412 17.4219 4.50741C17.2798 4.66197 17.0795 4.74994 16.8696 4.74994H11.3496C11.0463 4.74994 10.7728 4.56721 10.6567 4.28695C10.5406 4.0067 10.6048 3.68411 10.8193 3.46961L13.5393 0.749611Z" fill="#101010"/>
<path fill-rule="evenodd" clip-rule="evenodd" d="M7.18945 9C7.18945 8.58579 7.52524 8.25 7.93945 8.25H13.9695C14.3837 8.25 14.7195 8.58579 14.7195 9V14.13C14.7195 15.533 13.1586 16.3541 12.0034 15.584L12.0002 15.5819L11.1124 14.9833C11.0385 14.9347 10.9337 14.928 10.8388 14.9884L9.89458 15.6112C8.73539 16.3552 7.18945 15.5449 7.18945 14.14V9ZM8.68945 9.75V14.14C8.68945 14.3341 8.90137 14.4635 9.08159 14.3506L10.022 13.7303C10.6062 13.3523 11.3599 13.3456 11.9455 13.736L11.9487 13.7381L12.8366 14.3367C13.0013 14.4453 13.2195 14.3266 13.2195 14.13V9.75H8.68945Z" fill="#101010"/>
</svg>
