<svg width="22" height="22" viewBox="0 0 22 22" fill="none" xmlns="http://www.w3.org/2000/svg">
<path fill-rule="evenodd" clip-rule="evenodd" d="M8.25 16.5C8.25 16.0858 8.58579 15.75 9 15.75H13C13.4142 15.75 13.75 16.0858 13.75 16.5C13.75 16.9142 13.4142 17.25 13 17.25H9C8.58579 17.25 8.25 16.9142 8.25 16.5Z" fill="#101010"/>
<path fill-rule="evenodd" clip-rule="evenodd" d="M2.53033 3.03033C2.01884 3.54182 1.75 4.49464 1.75 6.5V16.5C1.75 16.9142 1.41421 17.25 1 17.25C0.585786 17.25 0.25 16.9142 0.25 16.5V6.5C0.25 4.50536 0.481164 2.95818 1.46967 1.96967C2.45818 0.981164 4.00536 0.75 6 0.75C6.41421 0.75 6.75 1.08579 6.75 1.5C6.75 1.91421 6.41421 2.25 6 2.25C3.99464 2.25 3.04182 2.51884 2.53033 3.03033Z" fill="#101010"/>
<path fill-rule="evenodd" clip-rule="evenodd" d="M15.25 1.5C15.25 1.08579 15.5858 0.75 16 0.75C17.9946 0.75 19.5418 0.981164 20.5303 1.96967C21.5188 2.95818 21.75 4.50536 21.75 6.5V16.5C21.75 16.9142 21.4142 17.25 21 17.25C20.5858 17.25 20.25 16.9142 20.25 16.5V6.5C20.25 4.49464 19.9812 3.54182 19.4697 3.03033C18.9582 2.51884 18.0054 2.25 16 2.25C15.5858 2.25 15.25 1.91421 15.25 1.5Z" fill="#101010"/>
<path fill-rule="evenodd" clip-rule="evenodd" d="M2.18033 13.2904C1.9398 13.531 1.75 13.9841 1.75 14.9101V18.2001C1.75 19.1261 1.9398 19.5792 2.18033 19.8198C2.42086 20.0603 2.87397 20.2501 3.8 20.2501H6.2C7.12603 20.2501 7.57914 20.0603 7.81967 19.8198C8.0602 19.5792 8.25 19.1261 8.25 18.2001V14.9101C8.25 13.9841 8.0602 13.531 7.81967 13.2904C7.57914 13.0499 7.12603 12.8601 6.2 12.8601H3.8C2.87397 12.8601 2.42086 13.0499 2.18033 13.2904ZM1.11967 12.2298C1.77914 11.5703 2.72603 11.3601 3.8 11.3601H6.2C7.27397 11.3601 8.22086 11.5703 8.88033 12.2298C9.5398 12.8892 9.75 13.8361 9.75 14.9101V18.2001C9.75 19.2741 9.5398 20.221 8.88033 20.8804C8.22086 21.5399 7.27397 21.7501 6.2 21.7501H3.8C2.72603 21.7501 1.77914 21.5399 1.11967 20.8804C0.460201 20.221 0.25 19.2741 0.25 18.2001V14.9101C0.25 13.8361 0.460201 12.8892 1.11967 12.2298Z" fill="#101010"/>
<path fill-rule="evenodd" clip-rule="evenodd" d="M14.1803 13.2904C13.9398 13.531 13.75 13.9841 13.75 14.9101V18.2001C13.75 19.1261 13.9398 19.5792 14.1803 19.8198C14.4209 20.0603 14.874 20.2501 15.8 20.2501H18.2C19.126 20.2501 19.5791 20.0603 19.8197 19.8198C20.0602 19.5792 20.25 19.1261 20.25 18.2001V14.9101C20.25 13.9841 20.0602 13.531 19.8197 13.2904C19.5791 13.0499 19.126 12.8601 18.2 12.8601H15.8C14.874 12.8601 14.4209 13.0499 14.1803 13.2904ZM13.1197 12.2298C13.7791 11.5703 14.726 11.3601 15.8 11.3601H18.2C19.274 11.3601 20.2209 11.5703 20.8803 12.2298C21.5398 12.8892 21.75 13.8361 21.75 14.9101V18.2001C21.75 19.2741 21.5398 20.221 20.8803 20.8804C20.2209 21.5399 19.274 21.7501 18.2 21.7501H15.8C14.726 21.7501 13.7791 21.5399 13.1197 20.8804C12.4602 20.221 12.25 19.2741 12.25 18.2001V14.9101C12.25 13.8361 12.4602 12.8892 13.1197 12.2298Z" fill="#101010"/>
</svg>
