<svg width="22" height="22" viewBox="0 0 22 22" fill="none" xmlns="http://www.w3.org/2000/svg">
<path fill-rule="evenodd" clip-rule="evenodd" d="M11 1.75C5.89137 1.75 1.75 5.89137 1.75 11C1.75 16.1086 5.89137 20.25 11 20.25C16.1086 20.25 20.25 16.1086 20.25 11C20.25 5.89137 16.1086 1.75 11 1.75ZM0.25 11C0.25 5.06294 5.06294 0.25 11 0.25C16.9371 0.25 21.75 5.06294 21.75 11C21.75 16.9371 16.9371 21.75 11 21.75C5.06294 21.75 0.25 16.9371 0.25 11Z" fill="#101010"/>
<path fill-rule="evenodd" clip-rule="evenodd" d="M6.2501 2C6.2501 1.58579 6.58588 1.25 7.0001 1.25H8.0001C8.24125 1.25 8.46769 1.36596 8.60864 1.56162C8.74959 1.75729 8.78786 2.0088 8.71149 2.23754C6.81297 7.92336 6.81297 14.0766 8.71149 19.7625C8.78786 19.9912 8.74959 20.2427 8.60864 20.4384C8.46769 20.634 8.24125 20.75 8.0001 20.75H7.0001C6.58588 20.75 6.2501 20.4142 6.2501 20C6.2501 19.593 6.57424 19.2618 6.97843 19.2503C5.39065 13.8661 5.39065 8.13389 6.97843 2.74969C6.57424 2.73823 6.2501 2.40697 6.2501 2Z" fill="#101010"/>
<path fill-rule="evenodd" clip-rule="evenodd" d="M13.7627 1.28857C14.1556 1.15738 14.5804 1.36953 14.7116 1.76242C16.7131 7.7566 16.7131 14.2433 14.7116 20.2375C14.5804 20.6304 14.1556 20.8425 13.7627 20.7114C13.3698 20.5802 13.1576 20.1553 13.2888 19.7624C15.1873 14.0766 15.1873 7.92332 13.2888 2.2375C13.1576 1.84461 13.3698 1.41976 13.7627 1.28857Z" fill="#101010"/>
<path fill-rule="evenodd" clip-rule="evenodd" d="M1.56162 13.3915C1.75729 13.2505 2.0088 13.2122 2.23754 13.2886C7.92336 15.1871 14.0766 15.1871 19.7625 13.2886C19.9912 13.2122 20.2427 13.2505 20.4384 13.3915C20.634 13.5324 20.75 13.7589 20.75 14V15C20.75 15.4142 20.4142 15.75 20 15.75C19.593 15.75 19.2618 15.4259 19.2503 15.0217C13.8661 16.6094 8.13389 16.6094 2.74969 15.0217C2.73823 15.4259 2.40697 15.75 2 15.75C1.58579 15.75 1.25 15.4142 1.25 15V14C1.25 13.7589 1.36596 13.5324 1.56162 13.3915Z" fill="#101010"/>
<path fill-rule="evenodd" clip-rule="evenodd" d="M19.7627 8.71137C14.0768 6.81285 7.92357 6.81285 2.23774 8.71137C1.84485 8.84255 1.42 8.6304 1.28881 8.23751C1.15763 7.84462 1.36978 7.41977 1.76267 7.28859C7.75684 5.28711 14.2436 5.28711 20.2377 7.28859C20.6306 7.41977 20.8428 7.84462 20.7116 8.23751C20.5804 8.6304 20.1556 8.84255 19.7627 8.71137Z" fill="#101010"/>
</svg>
