<svg width="22" height="22" viewBox="0 0 22 22" fill="none" xmlns="http://www.w3.org/2000/svg">
<path fill-rule="evenodd" clip-rule="evenodd" d="M0.25 11C0.25 5.06579 5.06579 0.25 11 0.25C16.9342 0.25 21.75 5.06579 21.75 11C21.75 11.4142 21.4142 11.75 21 11.75C20.5858 11.75 20.25 11.4142 20.25 11C20.25 5.89421 16.1058 1.75 11 1.75C5.89421 1.75 1.75 5.89421 1.75 11C1.75 16.1058 5.89421 20.25 11 20.25C11.4142 20.25 11.75 20.5858 11.75 21C11.75 21.4142 11.4142 21.75 11 21.75C5.06579 21.75 0.25 16.9342 0.25 11Z" fill="#101010"/>
<path fill-rule="evenodd" clip-rule="evenodd" d="M6.2501 2C6.2501 1.58579 6.58588 1.25 7.0001 1.25H8.0001C8.24125 1.25 8.46769 1.36596 8.60864 1.56162C8.74959 1.75729 8.78786 2.0088 8.71149 2.23754C6.81297 7.92336 6.81297 14.0766 8.71149 19.7625C8.78786 19.9912 8.74959 20.2427 8.60864 20.4384C8.46769 20.634 8.24125 20.75 8.0001 20.75H7.0001C6.58588 20.75 6.2501 20.4142 6.2501 20C6.2501 19.593 6.57424 19.2618 6.97843 19.2503C5.39065 13.8661 5.39065 8.13389 6.97843 2.74969C6.57424 2.73823 6.2501 2.40697 6.2501 2Z" fill="#101010"/>
<path fill-rule="evenodd" clip-rule="evenodd" d="M13.7638 1.2882C14.1569 1.15762 14.5814 1.37043 14.712 1.76352C15.7072 4.75958 16.2102 7.8794 16.2102 11C16.2102 11.4142 15.8744 11.75 15.4602 11.75C15.046 11.75 14.7102 11.4142 14.7102 11C14.7102 8.04052 14.2332 5.08034 13.2884 2.2364C13.1579 1.84331 13.3707 1.41879 13.7638 1.2882Z" fill="#101010"/>
<path fill-rule="evenodd" clip-rule="evenodd" d="M1.56115 13.3918C1.75655 13.2508 2.00778 13.2123 2.23644 13.2882C5.08038 14.233 8.04056 14.71 11 14.71C11.4142 14.71 11.75 15.0458 11.75 15.46C11.75 15.8742 11.4142 16.21 11 16.21C8.22034 16.21 5.44127 15.8109 2.74973 15.0203C2.73898 15.4251 2.40743 15.75 2 15.75C1.58579 15.75 1.25 15.4142 1.25 15V14C1.25 13.7591 1.36576 13.5328 1.56115 13.3918Z" fill="#101010"/>
<path fill-rule="evenodd" clip-rule="evenodd" d="M19.7627 8.71137C14.0768 6.81285 7.92357 6.81285 2.23774 8.71137C1.84485 8.84255 1.42 8.6304 1.28881 8.23751C1.15763 7.84462 1.36978 7.41977 1.76267 7.28859C7.75684 5.28711 14.2436 5.28711 20.2377 7.28859C20.6306 7.41977 20.8428 7.84462 20.7116 8.23751C20.5804 8.6304 20.1556 8.84255 19.7627 8.71137Z" fill="#101010"/>
<path fill-rule="evenodd" clip-rule="evenodd" d="M19.1332 13.4265C19.7964 13.3583 20.4067 13.6562 20.9502 14.1997C21.4968 14.7463 21.7983 15.3579 21.7325 16.0227C21.6706 16.6478 21.2978 17.1328 20.9502 17.4804L17.4178 21.0128C17.2712 21.1664 17.0909 21.2781 16.9427 21.3521C16.7869 21.4301 16.5975 21.5008 16.4068 21.5309L16.3944 21.5328L15.0459 21.7225C15.0457 21.7225 15.0462 21.7225 15.0459 21.7225C14.6044 21.7854 14.1485 21.6693 13.8195 21.3404C13.4906 21.0114 13.3744 20.5563 13.4373 20.1148C13.4373 20.1145 13.4372 20.1151 13.4373 20.1148L13.6289 18.7531C13.6595 18.5594 13.7318 18.3711 13.8094 18.2178C13.887 18.0644 13.9972 17.8921 14.1395 17.7498C14.1395 17.7498 14.1395 17.7498 14.1395 17.7498L17.6795 14.2097C18.0272 13.8621 18.5111 13.4904 19.1332 13.4265ZM19.2865 14.9186C19.1786 14.9297 19.0025 15.008 18.7402 15.2704L15.2015 18.8091C15.201 18.8097 15.1954 18.8161 15.1861 18.8296C15.1742 18.8469 15.1608 18.8693 15.1478 18.8949C15.1349 18.9206 15.1247 18.9447 15.1178 18.9645C15.1135 18.9769 15.1114 18.9847 15.1107 18.9877L14.9368 20.2231L16.1729 20.0491C16.1761 20.0484 16.1852 20.0461 16.2 20.041C16.2214 20.0336 16.2465 20.0232 16.272 20.0105C16.2977 19.9976 16.3181 19.9852 16.3317 19.9758C16.3349 19.9736 16.3372 19.9718 16.3389 19.9706C16.3424 19.9669 16.3459 19.9633 16.3495 19.9597L19.8895 16.4198C20.1519 16.1574 20.2291 15.9823 20.2398 15.8749C20.2465 15.8072 20.2429 15.6138 19.8895 15.2604C19.543 14.9139 19.3533 14.9118 19.2865 14.9186Z" fill="#101010"/>
<path fill-rule="evenodd" clip-rule="evenodd" d="M17.4992 14.5274C17.8983 14.4166 18.3117 14.6502 18.4225 15.0493C18.6521 15.8759 19.2941 16.5178 20.1206 16.7474C20.5197 16.8583 20.7534 17.2717 20.6425 17.6708C20.5317 18.0699 20.1183 18.3035 19.7192 18.1927C18.3857 17.8223 17.3477 16.7843 16.9773 15.4508C16.8664 15.0517 17.1001 14.6383 17.4992 14.5274Z" fill="#101010"/>
</svg>
