<svg width="22" height="22" viewBox="0 0 22 22" fill="none" xmlns="http://www.w3.org/2000/svg">
<path fill-rule="evenodd" clip-rule="evenodd" d="M17.5811 7.31214C17.961 7.14699 18.4028 7.32104 18.568 7.7009C19.0084 8.71392 19.2502 9.8256 19.2502 10.9999C19.2502 15.5542 15.5544 19.2499 11.0002 19.2499C9.82585 19.2499 8.71416 19.0082 7.70115 18.5677C7.32128 18.4026 7.14723 17.9608 7.31239 17.5809C7.47755 17.201 7.91937 17.027 8.29923 17.1921C9.12622 17.5517 10.0345 17.7499 11.0002 17.7499C14.726 17.7499 17.7502 14.7257 17.7502 10.9999C17.7502 10.0343 17.5519 9.12597 17.1924 8.29899C17.0272 7.91913 17.2013 7.4773 17.5811 7.31214Z" fill="#101010"/>
<path fill-rule="evenodd" clip-rule="evenodd" d="M2.75 11C2.75 6.44579 6.44579 2.75 11 2.75C13.2215 2.75 15.2459 3.63045 16.7302 5.05976C17.0286 5.34708 17.0376 5.82186 16.7502 6.12023C16.4629 6.4186 15.9881 6.42756 15.6898 6.14024C14.474 4.96955 12.8185 4.25 11 4.25C7.27421 4.25 4.25 7.27421 4.25 11C4.25 12.8098 4.96051 14.4561 6.12224 15.6719C6.40841 15.9713 6.39762 16.4461 6.09814 16.7322C5.79867 17.0184 5.32392 17.0076 5.03776 16.7081C3.61949 15.2239 2.75 13.2102 2.75 11Z" fill="#101010"/>
<path fill-rule="evenodd" clip-rule="evenodd" d="M11 0.25C11.4142 0.25 11.75 0.585786 11.75 1V3C11.75 3.41421 11.4142 3.75 11 3.75C10.5858 3.75 10.25 3.41421 10.25 3V1C10.25 0.585786 10.5858 0.25 11 0.25Z" fill="#101010"/>
<path fill-rule="evenodd" clip-rule="evenodd" d="M0.25 11C0.25 10.5858 0.585786 10.25 1 10.25H3C3.41421 10.25 3.75 10.5858 3.75 11C3.75 11.4142 3.41421 11.75 3 11.75H1C0.585786 11.75 0.25 11.4142 0.25 11Z" fill="#101010"/>
<path fill-rule="evenodd" clip-rule="evenodd" d="M11 18.25C11.4142 18.25 11.75 18.5858 11.75 19V21C11.75 21.4142 11.4142 21.75 11 21.75C10.5858 21.75 10.25 21.4142 10.25 21V19C10.25 18.5858 10.5858 18.25 11 18.25Z" fill="#101010"/>
<path fill-rule="evenodd" clip-rule="evenodd" d="M18.25 11C18.25 10.5858 18.5858 10.25 19 10.25H21C21.4142 10.25 21.75 10.5858 21.75 11C21.75 11.4142 21.4142 11.75 21 11.75H19C18.5858 11.75 18.25 11.4142 18.25 11Z" fill="#101010"/>
<path fill-rule="evenodd" clip-rule="evenodd" d="M11 8.75C9.75421 8.75 8.75 9.75421 8.75 11C8.75 11.3472 8.82927 11.6758 8.97017 11.9692L11.9692 8.97017C11.6758 8.82927 11.3472 8.75 11 8.75ZM7.25 11C7.25 8.92579 8.92579 7.25 11 7.25C12.0388 7.25 12.9768 7.67617 13.6503 8.34967C13.9432 8.64256 13.9432 9.11744 13.6503 9.41033L9.41033 13.6503C9.11744 13.9432 8.64256 13.9432 8.34967 13.6503C7.67617 12.9768 7.25 12.0388 7.25 11Z" fill="#101010"/>
<path fill-rule="evenodd" clip-rule="evenodd" d="M21.5303 0.46967C21.8232 0.762563 21.8232 1.23744 21.5303 1.53033L1.53033 21.5303C1.23744 21.8232 0.762563 21.8232 0.46967 21.5303C0.176777 21.2374 0.176777 20.7626 0.46967 20.4697L20.4697 0.46967C20.7626 0.176777 21.2374 0.176777 21.5303 0.46967Z" fill="#101010"/>
</svg>
