<svg width="22" height="22" viewBox="0 0 22 22" fill="none" xmlns="http://www.w3.org/2000/svg">
<path fill-rule="evenodd" clip-rule="evenodd" d="M11.4719 1.37618C12.4381 0.680827 13.823 0.752005 15.4907 1.24011L15.4916 1.24039C17.9463 1.96234 20.0376 4.05366 20.7595 6.50829L20.7598 6.50924C21.2479 8.17694 21.3191 9.56185 20.6237 10.528C19.9183 11.5082 18.6499 11.7499 17.32 11.7499H14C12.8836 11.7499 11.8886 11.4693 11.1928 10.6969C10.5129 9.94225 10.25 8.86042 10.25 7.55992V4.67992C10.25 3.35003 10.4917 2.08164 11.4719 1.37618ZM12.3481 2.59365C12.0083 2.8382 11.75 3.4098 11.75 4.67992V7.55992C11.75 8.69942 11.9871 9.33758 12.3072 9.69291C12.6114 10.0305 13.1164 10.2499 14 10.2499H17.32C18.5901 10.2499 19.1617 9.99159 19.4063 9.65181C19.6609 9.29803 19.7921 8.54311 19.3204 6.9313C18.7423 4.96622 17.034 3.25778 15.0689 2.6796C13.4569 2.20785 12.7019 2.33903 12.3481 2.59365Z" fill="#101010"/>
<path fill-rule="evenodd" clip-rule="evenodd" d="M8.99457 2.86007C9.07733 3.26593 8.8154 3.66203 8.40954 3.74479C4.1808 4.60705 1.11662 8.68011 1.86 13.2997C2.42836 16.7717 5.22887 19.5709 8.69887 20.1294L8.6999 20.1296C13.3372 20.8826 17.4109 17.8014 18.2644 13.5522C18.346 13.1461 18.7413 12.883 19.1474 12.9646C19.5535 13.0462 19.8166 13.4415 19.735 13.8476C18.7285 18.8584 13.9222 22.4972 8.45949 21.6102C4.35026 20.9484 1.05143 17.6483 0.379533 13.541L0.379234 13.5392C-0.496793 8.09913 3.11889 3.29271 8.10985 2.27503C8.51571 2.19228 8.91182 2.45421 8.99457 2.86007Z" fill="#101010"/>
</svg>
