<svg width="22" height="22" viewBox="0 0 22 22" fill="none" xmlns="http://www.w3.org/2000/svg">
<path fill-rule="evenodd" clip-rule="evenodd" d="M2.09467 2.09467C3.42914 0.760201 5.42603 0.25 8 0.25H14C16.574 0.25 18.5709 0.760201 19.9053 2.09467C21.2398 3.42914 21.75 5.42603 21.75 8V10C21.75 10.4142 21.4142 10.75 21 10.75C20.5858 10.75 20.25 10.4142 20.25 10V8C20.25 5.57397 19.7602 4.07086 18.8447 3.15533C17.9291 2.2398 16.426 1.75 14 1.75H8C5.57397 1.75 4.07086 2.2398 3.15533 3.15533C2.2398 4.07086 1.75 5.57397 1.75 8V14C1.75 16.426 2.2398 17.9291 3.15533 18.8447C4.07086 19.7602 5.57397 20.25 8 20.25H9C9.41421 20.25 9.75 20.5858 9.75 21C9.75 21.4142 9.41421 21.75 9 21.75H8C5.42603 21.75 3.42914 21.2398 2.09467 19.9053C0.760201 18.5709 0.25 16.574 0.25 14V8C0.25 5.42603 0.760201 3.42914 2.09467 2.09467Z" fill="#101010"/>
<path fill-rule="evenodd" clip-rule="evenodd" d="M0.280273 7.5C0.280273 7.08579 0.61606 6.75 1.03027 6.75H21.0002C21.4145 6.75 21.7502 7.08579 21.7502 7.5C21.7502 7.91421 21.4145 8.25 21.0002 8.25H1.03027C0.61606 8.25 0.280273 7.91421 0.280273 7.5Z" fill="#101010"/>
<path fill-rule="evenodd" clip-rule="evenodd" d="M0.280273 14.5C0.280273 14.0858 0.61606 13.75 1.03027 13.75H11.0002C11.4145 13.75 11.7502 14.0858 11.7502 14.5C11.7502 14.9142 11.4145 15.25 11.0002 15.25H1.03027C0.61606 15.25 0.280273 14.9142 0.280273 14.5Z" fill="#101010"/>
<path fill-rule="evenodd" clip-rule="evenodd" d="M7.50977 0.26001C7.92398 0.26001 8.25977 0.595796 8.25977 1.01001V20.99C8.25977 21.4042 7.92398 21.74 7.50977 21.74C7.09555 21.74 6.75977 21.4042 6.75977 20.99V1.01001C6.75977 0.595796 7.09555 0.26001 7.50977 0.26001Z" fill="#101010"/>
<path fill-rule="evenodd" clip-rule="evenodd" d="M14.5098 0.26001C14.924 0.26001 15.2598 0.595796 15.2598 1.01001V10.99C15.2598 11.4042 14.924 11.74 14.5098 11.74C14.0956 11.74 13.7598 11.4042 13.7598 10.99V1.01001C13.7598 0.595796 14.0956 0.26001 14.5098 0.26001Z" fill="#101010"/>
<path fill-rule="evenodd" clip-rule="evenodd" d="M18.8311 12.2588C19.5566 12.1866 20.2333 12.5124 20.8506 13.1297C21.4741 13.7533 21.7984 14.4349 21.7266 15.1613C21.6587 15.8486 21.2503 16.3907 20.8506 16.7904L16.7006 20.9404C16.5489 21.0921 16.3599 21.2145 16.1885 21.302C16.0198 21.388 15.8055 21.472 15.5851 21.5027L14.0019 21.7317C13.511 21.8077 13.0194 21.6738 12.6691 21.3208C12.3202 20.9692 12.1897 20.4792 12.2575 19.9958L12.258 19.9926L12.488 18.4027C12.4893 18.3937 12.4907 18.3848 12.4923 18.3759C12.5283 18.178 12.6045 17.977 12.6894 17.8071C12.7732 17.6397 12.8934 17.4462 13.0499 17.2897L17.1999 13.1398C17.1999 13.1398 17.1999 13.1398 17.1999 13.1398C17.6032 12.7365 18.1454 12.3269 18.8311 12.2588ZM18.9795 13.7514C18.8101 13.7682 18.5773 13.8837 18.2606 14.2004L14.1106 18.3503C14.1109 18.35 14.1109 18.35 14.1106 18.3503C14.109 18.3521 14.0998 18.3626 14.085 18.3845C14.0681 18.4094 14.0494 18.4414 14.0311 18.4779C13.9949 18.5503 13.976 18.6095 13.9697 18.6366L13.743 20.2043C13.7429 20.2046 13.7429 20.205 13.7428 20.2054C13.7401 20.2254 13.7397 20.2409 13.7403 20.2524C13.7489 20.2522 13.7599 20.2513 13.7733 20.2492L13.7829 20.2477L15.3729 20.0178L15.3771 20.0172C15.3771 20.0171 15.3888 20.0149 15.4122 20.0068C15.4391 19.9974 15.472 19.9836 15.507 19.9657C15.542 19.9478 15.5739 19.9287 15.5998 19.9108C15.6125 19.902 15.6225 19.8945 15.6298 19.8885C15.6371 19.8825 15.6402 19.8794 15.6399 19.8797L19.7899 15.7297C20.1003 15.4194 20.2168 15.1865 20.2339 15.0138C20.2471 14.8803 20.2164 14.6169 19.7899 14.1904C19.3672 13.7677 19.109 13.7385 18.9795 13.7514Z" fill="#101010"/>
<path fill-rule="evenodd" clip-rule="evenodd" d="M16.9391 13.5374C17.3382 13.4265 17.7516 13.6602 17.8625 14.0593C18.141 15.0621 18.9313 15.849 19.9459 16.1388C20.3441 16.2526 20.5747 16.6678 20.461 17.066C20.3472 17.4643 19.932 17.6949 19.5338 17.5811C18.0283 17.151 16.8386 15.9779 16.4172 14.4607C16.3063 14.0616 16.54 13.6482 16.9391 13.5374Z" fill="#101010"/>
</svg>
