<svg width="22" height="22" viewBox="0 0 22 22" fill="none" xmlns="http://www.w3.org/2000/svg">
<path fill-rule="evenodd" clip-rule="evenodd" d="M2.09467 2.09467C3.42914 0.760201 5.42603 0.25 8 0.25H14C16.574 0.25 18.5709 0.760201 19.9053 2.09467C21.2398 3.42914 21.75 5.42603 21.75 8V10C21.75 10.4142 21.4142 10.75 21 10.75C20.5858 10.75 20.25 10.4142 20.25 10V8C20.25 5.57397 19.7602 4.07086 18.8447 3.15533C17.9291 2.2398 16.426 1.75 14 1.75H8C5.57397 1.75 4.07086 2.2398 3.15533 3.15533C2.2398 4.07086 1.75 5.57397 1.75 8V14C1.75 16.426 2.2398 17.9291 3.15533 18.8447C4.07086 19.7602 5.57397 20.25 8 20.25H9C9.41421 20.25 9.75 20.5858 9.75 21C9.75 21.4142 9.41421 21.75 9 21.75H8C5.42603 21.75 3.42914 21.2398 2.09467 19.9053C0.760201 18.5709 0.25 16.574 0.25 14V8C0.25 5.42603 0.760201 3.42914 2.09467 2.09467Z" fill="#101010"/>
<path fill-rule="evenodd" clip-rule="evenodd" d="M0.280273 7.5C0.280273 7.08579 0.61606 6.75 1.03027 6.75H21.0003C21.4145 6.75 21.7503 7.08579 21.7503 7.5C21.7503 7.91421 21.4145 8.25 21.0003 8.25H1.03027C0.61606 8.25 0.280273 7.91421 0.280273 7.5Z" fill="#101010"/>
<path fill-rule="evenodd" clip-rule="evenodd" d="M0.280273 14.5C0.280273 14.0858 0.61606 13.75 1.03027 13.75H11.0003C11.4145 13.75 11.7503 14.0858 11.7503 14.5C11.7503 14.9142 11.4145 15.25 11.0003 15.25H1.03027C0.61606 15.25 0.280273 14.9142 0.280273 14.5Z" fill="#101010"/>
<path fill-rule="evenodd" clip-rule="evenodd" d="M7.50977 0.26001C7.92398 0.26001 8.25977 0.595796 8.25977 1.01001V20.99C8.25977 21.4042 7.92398 21.74 7.50977 21.74C7.09555 21.74 6.75977 21.4042 6.75977 20.99V1.01001C6.75977 0.595796 7.09555 0.26001 7.50977 0.26001Z" fill="#101010"/>
<path fill-rule="evenodd" clip-rule="evenodd" d="M14.5098 0.26001C14.924 0.26001 15.2598 0.595796 15.2598 1.01001V10.99C15.2598 11.4042 14.924 11.74 14.5098 11.74C14.0956 11.74 13.7598 11.4042 13.7598 10.99V1.01001C13.7598 0.595796 14.0956 0.26001 14.5098 0.26001Z" fill="#101010"/>
<path fill-rule="evenodd" clip-rule="evenodd" d="M13.7806 14.6782C14.0737 14.3867 14.5475 14.3873 14.8399 14.6796L18.3298 18.1696C18.6227 18.4625 18.6227 18.9374 18.3299 19.2303L16.4299 21.1303C15.6142 21.946 14.2831 21.9388 13.4643 21.1353L13.4575 21.1287L11.8792 19.5403C11.8789 19.54 11.8786 19.5397 11.8783 19.5394C11.0636 18.7237 11.071 17.3933 11.8742 16.5747L11.8806 16.5682L13.7806 14.6782ZM12.9423 17.6279C12.7084 17.8692 12.7163 18.2561 12.9399 18.4797L12.9415 18.4813L14.5175 20.0673C14.7588 20.3011 15.1457 20.2931 15.3692 20.0696C15.3692 20.0696 15.3692 20.0697 15.3692 20.0696L16.7389 18.7L14.3081 16.2692L12.9423 17.6279Z" fill="#101010"/>
<path fill-rule="evenodd" clip-rule="evenodd" d="M17.6401 12.9203C17.64 12.9205 17.6403 12.9202 17.6401 12.9203L15.3595 15.209L17.7998 17.6493L20.0795 15.3697C20.0795 15.3697 20.0795 15.3697 20.0795 15.3697C20.303 15.1461 20.3102 14.751 20.0695 14.5103L20.0678 14.5086L18.4895 12.9203C18.4893 12.9201 18.4897 12.9205 18.4895 12.9203C18.2624 12.694 17.8671 12.6938 17.6401 12.9203ZM16.5795 11.8597C17.3924 11.0468 18.7372 11.0468 19.5501 11.8597L19.5518 11.8613L21.1302 13.4496C21.1305 13.4499 21.1308 13.4502 21.1311 13.4506C21.9495 14.27 21.9563 15.6142 21.1401 16.4303L18.3301 19.2403C18.0372 19.5332 17.5624 19.5332 17.2695 19.2403L13.7695 15.7403C13.4769 15.4477 13.4765 14.9736 13.7685 14.6806L16.5795 11.8597Z" fill="#101010"/>
</svg>
