<svg width="22" height="22" viewBox="0 0 22 22" fill="none" xmlns="http://www.w3.org/2000/svg">
<path fill-rule="evenodd" clip-rule="evenodd" d="M2.09467 2.09467C3.42914 0.760201 5.42603 0.25 8 0.25H14C16.574 0.25 18.5709 0.760201 19.9053 2.09467C21.2398 3.42914 21.75 5.42603 21.75 8V10C21.75 10.4142 21.4142 10.75 21 10.75C20.5858 10.75 20.25 10.4142 20.25 10V8C20.25 5.57397 19.7602 4.07086 18.8447 3.15533C17.9291 2.2398 16.426 1.75 14 1.75H8C5.57397 1.75 4.07086 2.2398 3.15533 3.15533C2.2398 4.07086 1.75 5.57397 1.75 8V14C1.75 16.426 2.2398 17.9291 3.15533 18.8447C4.07086 19.7602 5.57397 20.25 8 20.25H9C9.41421 20.25 9.75 20.5858 9.75 21C9.75 21.4142 9.41421 21.75 9 21.75H8C5.42603 21.75 3.42914 21.2398 2.09467 19.9053C0.760201 18.5709 0.25 16.574 0.25 14V8C0.25 5.42603 0.760201 3.42914 2.09467 2.09467Z" fill="#101010"/>
<path fill-rule="evenodd" clip-rule="evenodd" d="M0.280273 7.5C0.280273 7.08579 0.61606 6.75 1.03027 6.75H21.0003C21.4145 6.75 21.7503 7.08579 21.7503 7.5C21.7503 7.91421 21.4145 8.25 21.0003 8.25H1.03027C0.61606 8.25 0.280273 7.91421 0.280273 7.5Z" fill="#101010"/>
<path fill-rule="evenodd" clip-rule="evenodd" d="M0.280273 14.5C0.280273 14.0858 0.61606 13.75 1.03027 13.75H11.0003C11.4145 13.75 11.7503 14.0858 11.7503 14.5C11.7503 14.9142 11.4145 15.25 11.0003 15.25H1.03027C0.61606 15.25 0.280273 14.9142 0.280273 14.5Z" fill="#101010"/>
<path fill-rule="evenodd" clip-rule="evenodd" d="M7.50977 0.26001C7.92398 0.26001 8.25977 0.595796 8.25977 1.01001V20.99C8.25977 21.4042 7.92398 21.74 7.50977 21.74C7.09555 21.74 6.75977 21.4042 6.75977 20.99V1.01001C6.75977 0.595796 7.09555 0.26001 7.50977 0.26001Z" fill="#101010"/>
<path fill-rule="evenodd" clip-rule="evenodd" d="M14.5098 0.26001C14.924 0.26001 15.2598 0.595796 15.2598 1.01001V10.99C15.2598 11.4042 14.924 11.74 14.5098 11.74C14.0956 11.74 13.7598 11.4042 13.7598 10.99V1.01001C13.7598 0.595796 14.0956 0.26001 14.5098 0.26001Z" fill="#101010"/>
<path fill-rule="evenodd" clip-rule="evenodd" d="M15.6333 14.1722C15.4501 14.3992 15.3496 14.7792 15.3496 15.4V16.2C15.3496 16.6142 15.0138 16.95 14.5996 16.95C14.1854 16.95 13.8496 16.6142 13.8496 16.2V15.4C13.8496 14.6908 13.9491 13.8708 14.4659 13.2303C15.0109 12.5549 15.8726 12.25 16.9996 12.25C18.1266 12.25 18.9883 12.5549 19.5333 13.2303C20.0501 13.8708 20.1496 14.6908 20.1496 15.4V16.2C20.1496 16.6142 19.8138 16.95 19.3996 16.95C18.9854 16.95 18.6496 16.6142 18.6496 16.2V15.4C18.6496 14.7792 18.5491 14.3992 18.3659 14.1722C18.2109 13.9801 17.8726 13.75 16.9996 13.75C16.1266 13.75 15.7883 13.9801 15.6333 14.1722Z" fill="#101010"/>
<path fill-rule="evenodd" clip-rule="evenodd" d="M13.9303 17.1303C13.8688 17.1918 13.75 17.3946 13.75 18.2V19C13.75 19.8054 13.8688 20.0082 13.9303 20.0697C13.9918 20.1312 14.1946 20.25 15 20.25H19C19.8054 20.25 20.0082 20.1312 20.0697 20.0697C20.1312 20.0082 20.25 19.8054 20.25 19V18.2C20.25 17.3946 20.1312 17.1918 20.0697 17.1303C20.0082 17.0688 19.8054 16.95 19 16.95H15C14.1946 16.95 13.9918 17.0688 13.9303 17.1303ZM12.8697 16.0696C13.4082 15.5311 14.2054 15.45 15 15.45H19C19.7946 15.45 20.5918 15.5311 21.1303 16.0696C21.6688 16.6081 21.75 17.4053 21.75 18.2V19C21.75 19.7946 21.6688 20.5918 21.1303 21.1303C20.5918 21.6688 19.7946 21.75 19 21.75H15C14.2054 21.75 13.4082 21.6688 12.8697 21.1303C12.3312 20.5918 12.25 19.7946 12.25 19V18.2C12.25 17.4053 12.3312 16.6081 12.8697 16.0696Z" fill="#101010"/>
</svg>
