<svg width="18" height="22" viewBox="0 0 18 22" fill="none" xmlns="http://www.w3.org/2000/svg">
<path fill-rule="evenodd" clip-rule="evenodd" d="M3 1.75C2.31421 1.75 1.75 2.31421 1.75 3V6.57001H16.25V3C16.25 2.31421 15.6858 1.75 15 1.75H3ZM0.25 3C0.25 1.48579 1.48579 0.25 3 0.25H15C16.5142 0.25 17.75 1.48579 17.75 3V7.32001C17.75 7.73422 17.4142 8.07001 17 8.07001H1C0.585786 8.07001 0.25 7.73422 0.25 7.32001V3Z" fill="#101010"/>
<path fill-rule="evenodd" clip-rule="evenodd" d="M0.25 7.32001C0.25 6.90579 0.585786 6.57001 1 6.57001H17.02C17.4342 6.57001 17.77 6.90579 17.77 7.32001V10.88C17.77 12.2333 17.0319 13.4815 15.8585 14.1432C15.8585 14.1432 15.8586 14.1432 15.8585 14.1432L12.8943 15.8156C12.5049 16.0319 12.26 16.4495 12.26 16.9V19C12.26 20.5142 11.0242 21.75 9.51001 21.75H8.51001C6.9958 21.75 5.76001 20.5142 5.76001 19V16.9C5.76001 16.4495 5.51514 16.0319 5.12576 15.8156L5.12145 15.8132L2.16463 14.145C2.16406 14.1446 2.1635 14.1443 2.16293 14.144C0.974468 13.4802 0.25 12.2289 0.25 10.88V7.32001ZM1.75 8.07001V10.88C1.75 11.6904 2.1849 12.4386 2.89543 12.835L2.89857 12.8368L5.85653 14.5056C6.72579 14.9897 7.26001 15.9114 7.26001 16.9V19C7.26001 19.6858 7.82422 20.25 8.51001 20.25H9.51001C10.1958 20.25 10.76 19.6858 10.76 19V16.9C10.76 15.9114 11.2942 14.9897 12.1635 14.5057L15.1215 12.8368C15.828 12.4384 16.27 11.6866 16.27 10.88V8.07001H1.75Z" fill="#101010"/>
</svg>
