<svg width="22" height="22" viewBox="0 0 22 22" fill="none" xmlns="http://www.w3.org/2000/svg">
<path fill-rule="evenodd" clip-rule="evenodd" d="M10.25 4.56006C10.25 4.14585 10.5858 3.81006 11 3.81006H21C21.4142 3.81006 21.75 4.14585 21.75 4.56006C21.75 4.97427 21.4142 5.31006 21 5.31006H11C10.5858 5.31006 10.25 4.97427 10.25 4.56006Z" fill="#101010"/>
<path fill-rule="evenodd" clip-rule="evenodd" d="M11.9708 1.97233C11.879 2.06343 11.75 2.31436 11.75 3.2V7.31C11.75 8.19564 11.879 8.44657 11.9708 8.53767C12.0647 8.63083 12.3232 8.76 13.22 8.76H18.78C19.6768 8.76 19.9353 8.63083 20.0292 8.53767C20.121 8.44657 20.25 8.19564 20.25 7.31V3.2C20.25 2.31436 20.121 2.06343 20.0292 1.97233C19.9353 1.87917 19.6768 1.75 18.78 1.75H13.22C12.3232 1.75 12.0647 1.87917 11.9708 1.97233ZM10.9142 0.907673C11.4853 0.340828 12.3368 0.25 13.22 0.25H18.78C19.6632 0.25 20.5147 0.340828 21.0858 0.907673C21.659 1.47657 21.75 2.32564 21.75 3.2V7.31C21.75 8.18436 21.659 9.03343 21.0858 9.60233C20.5147 10.1692 19.6632 10.26 18.78 10.26H13.22C12.3368 10.26 11.4853 10.1692 10.9142 9.60233C10.341 9.03343 10.25 8.18436 10.25 7.31V3.2C10.25 2.32564 10.341 1.47657 10.9142 0.907673Z" fill="#101010"/>
<path fill-rule="evenodd" clip-rule="evenodd" d="M0.25 16.0601C0.25 15.6458 0.585786 15.3101 1 15.3101H11C11.4142 15.3101 11.75 15.6458 11.75 16.0601C11.75 16.4743 11.4142 16.8101 11 16.8101H1C0.585786 16.8101 0.25 16.4743 0.25 16.0601Z" fill="#101010"/>
<path fill-rule="evenodd" clip-rule="evenodd" d="M1.97083 13.4723C1.87903 13.5634 1.75 13.8144 1.75 14.7V18.81C1.75 19.6956 1.87903 19.9466 1.97083 20.0377C2.06469 20.1308 2.32322 20.26 3.22 20.26H8.78C9.67678 20.26 9.93531 20.1308 10.0292 20.0377C10.121 19.9466 10.25 19.6956 10.25 18.81V14.7C10.25 13.8144 10.121 13.5634 10.0292 13.4723C9.93531 13.3792 9.67678 13.25 8.78 13.25H3.22C2.32322 13.25 2.06469 13.3792 1.97083 13.4723ZM0.914176 12.4077C1.48532 11.8408 2.33679 11.75 3.22 11.75H8.78C9.66321 11.75 10.5147 11.8408 11.0858 12.4077C11.659 12.9766 11.75 13.8256 11.75 14.7V18.81C11.75 19.6844 11.659 20.5334 11.0858 21.1023C10.5147 21.6692 9.66321 21.76 8.78 21.76H3.22C2.33679 21.76 1.48532 21.6692 0.914176 21.1023C0.340972 20.5334 0.25 19.6844 0.25 18.81V14.7C0.25 13.8256 0.340972 12.9766 0.914176 12.4077Z" fill="#101010"/>
<path fill-rule="evenodd" clip-rule="evenodd" d="M21 13.25C21.4142 13.25 21.75 13.5858 21.75 14C21.75 18.2842 18.2842 21.75 14 21.75C13.7298 21.75 13.4805 21.6047 13.3474 21.3695C13.2142 21.1344 13.2179 20.8458 13.3569 20.6141L14.4069 18.8641C14.62 18.5089 15.0807 18.3938 15.4359 18.6069C15.791 18.82 15.9062 19.2807 15.6931 19.6359L15.4218 20.0881C18.1909 19.4456 20.25 16.9666 20.25 14C20.25 13.5858 20.5858 13.25 21 13.25Z" fill="#101010"/>
<path fill-rule="evenodd" clip-rule="evenodd" d="M6.57821 1.91194C3.8091 2.55436 1.75 5.03342 1.75 8C1.75 8.41421 1.41421 8.75 1 8.75C0.585786 8.75 0.25 8.41421 0.25 8C0.25 3.71579 3.71579 0.25 8 0.25C8.2702 0.25 8.51952 0.395344 8.65265 0.630474C8.78578 0.865605 8.78214 1.15417 8.64312 1.38587L7.59313 3.13587C7.38002 3.49105 6.91933 3.60623 6.56414 3.39312C6.20896 3.18001 6.09378 2.71932 6.30689 2.36413L6.57821 1.91194Z" fill="#101010"/>
</svg>
