<svg width="22" height="22" viewBox="0 0 22 22" fill="none" xmlns="http://www.w3.org/2000/svg">
<path fill-rule="evenodd" clip-rule="evenodd" d="M5.00098 1.75C3.20519 1.75 1.75098 3.20421 1.75098 5V12.25H12.001C12.6868 12.25 13.251 11.6858 13.251 11V1.75H5.00098ZM0.250977 5C0.250977 2.37579 2.37676 0.25 5.00098 0.25H14.001C14.4152 0.25 14.751 0.585786 14.751 1V11C14.751 12.5142 13.5152 13.75 12.001 13.75H1.00098C0.586763 13.75 0.250977 13.4142 0.250977 13V5Z" fill="#101010"/>
<path fill-rule="evenodd" clip-rule="evenodd" d="M13.251 4C13.251 3.58579 13.5868 3.25 14.001 3.25H15.841C16.8348 3.25 17.7387 3.788 18.2296 4.63341L18.232 4.63766L18.232 4.63767L19.942 7.62766C20.0748 7.85978 20.0739 8.14502 19.9397 8.37633C19.8056 8.60763 19.5584 8.75 19.291 8.75H18.001C17.8652 8.75 17.751 8.86421 17.751 9V12C17.751 12.1358 17.8652 12.25 18.001 12.25H21.001C21.4152 12.25 21.751 12.5858 21.751 13V16C21.751 18.0742 20.0752 19.75 18.001 19.75H17.001C16.5868 19.75 16.251 19.4142 16.251 19C16.251 18.3142 15.6868 17.75 15.001 17.75C14.3152 17.75 13.751 18.3142 13.751 19C13.751 19.4142 13.4152 19.75 13.001 19.75H9.00098C8.58676 19.75 8.25098 19.4142 8.25098 19C8.25098 18.3142 7.68676 17.75 7.00098 17.75C6.31519 17.75 5.75098 18.3142 5.75098 19C5.75098 19.4142 5.41519 19.75 5.00098 19.75H4.00098C1.92676 19.75 0.250977 18.0742 0.250977 16V13C0.250977 12.5858 0.586763 12.25 1.00098 12.25H12.001C12.6868 12.25 13.251 11.6858 13.251 11V4ZM14.751 4.75V11C14.751 12.5142 13.5152 13.75 12.001 13.75H1.75098V16C1.75098 17.2458 2.75519 18.25 4.00098 18.25H4.35528C4.68325 17.0981 5.74657 16.25 7.00098 16.25C8.25538 16.25 9.31871 17.0981 9.64667 18.25H12.3553C12.6832 17.0981 13.7466 16.25 15.001 16.25C16.2554 16.25 17.3187 17.0981 17.6467 18.25H18.001C19.2468 18.25 20.251 17.2458 20.251 16V13.75H18.001C17.0368 13.75 16.251 12.9642 16.251 12V9C16.251 8.03676 17.0352 7.25159 17.9981 7.25L16.9324 5.38661C16.932 5.38599 16.9316 5.38537 16.9313 5.38475C16.7019 4.99126 16.2864 4.75 15.841 4.75H14.751Z" fill="#101010"/>
<path fill-rule="evenodd" clip-rule="evenodd" d="M7.00098 17.75C6.31062 17.75 5.75098 18.3096 5.75098 19C5.75098 19.6904 6.31062 20.25 7.00098 20.25C7.69133 20.25 8.25098 19.6904 8.25098 19C8.25098 18.3096 7.69133 17.75 7.00098 17.75ZM4.25098 19C4.25098 17.4812 5.48219 16.25 7.00098 16.25C8.51976 16.25 9.75098 17.4812 9.75098 19C9.75098 20.5188 8.51976 21.75 7.00098 21.75C5.48219 21.75 4.25098 20.5188 4.25098 19Z" fill="#101010"/>
<path fill-rule="evenodd" clip-rule="evenodd" d="M15.001 17.75C14.3106 17.75 13.751 18.3096 13.751 19C13.751 19.6904 14.3106 20.25 15.001 20.25C15.6913 20.25 16.251 19.6904 16.251 19C16.251 18.3096 15.6913 17.75 15.001 17.75ZM12.251 19C12.251 17.4812 13.4822 16.25 15.001 16.25C16.5198 16.25 17.751 17.4812 17.751 19C17.751 20.5188 16.5198 21.75 15.001 21.75C13.4822 21.75 12.251 20.5188 12.251 19Z" fill="#101010"/>
<path fill-rule="evenodd" clip-rule="evenodd" d="M18.001 8.75C17.8652 8.75 17.751 8.86421 17.751 9V12C17.751 12.1358 17.8652 12.25 18.001 12.25H20.251V11.1987L18.8552 8.75H18.001ZM16.251 9C16.251 8.03579 17.0368 7.25 18.001 7.25H19.291C19.5604 7.25 19.8091 7.39452 19.9426 7.6286L21.6526 10.6286C21.7171 10.7418 21.751 10.8698 21.751 11V13C21.751 13.4142 21.4152 13.75 21.001 13.75H18.001C17.0368 13.75 16.251 12.9642 16.251 12V9Z" fill="#101010"/>
</svg>
