<svg width="20" height="18" viewBox="0 0 20 18" fill="none" xmlns="http://www.w3.org/2000/svg">
<path fill-rule="evenodd" clip-rule="evenodd" d="M14.4517 3.75988C13.8004 3.75272 13.1861 4.08286 12.824 4.62596L6.43404 14.2059C6.434 14.206 6.43407 14.2059 6.43404 14.2059C5.79266 15.1679 4.70659 15.7399 3.54999 15.7399L3.54704 15.7399L0.997056 15.7299C0.582846 15.7283 0.24838 15.3912 0.250006 14.977C0.251632 14.5627 0.588734 14.2283 1.00294 14.2299L3.54999 14.2399C3.55044 14.2399 3.5509 14.2399 3.55136 14.2399C4.21417 14.2395 4.82757 13.9115 5.18596 13.3739L11.576 3.79391C11.576 3.79386 11.5759 3.79396 11.576 3.79391C12.2134 2.83782 13.298 2.24801 14.4656 2.25994C14.4665 2.25995 14.4674 2.25996 14.4682 2.25997L19.0133 2.27995C19.4275 2.28178 19.7618 2.61904 19.76 3.03325C19.7582 3.44745 19.4209 3.78176 19.0067 3.77994L14.4567 3.75992L14.4517 3.75988Z" fill="#101010"/>
<path fill-rule="evenodd" clip-rule="evenodd" d="M19.5303 14.4497C19.8232 14.7425 19.8232 15.2174 19.5303 15.5103L17.5303 17.5103C17.2374 17.8032 16.7626 17.8032 16.4697 17.5103C16.1768 17.2174 16.1768 16.7425 16.4697 16.4497L18.4697 14.4497C18.7626 14.1568 19.2374 14.1568 19.5303 14.4497Z" fill="#101010"/>
<path fill-rule="evenodd" clip-rule="evenodd" d="M6.41914 3.68238C6.41922 3.68249 6.41905 3.68226 6.41914 3.68238L7.49866 5.18169C7.74069 5.51784 7.66439 5.98654 7.32825 6.22857C6.9921 6.4706 6.5234 6.39431 6.28137 6.05816L5.20135 4.55816C4.83181 4.04369 4.24029 3.74274 3.61861 3.74988L3.61286 3.74995L1.00288 3.75994C0.588666 3.76152 0.251594 3.42703 0.250006 3.01282C0.248417 2.59861 0.582913 2.26153 0.997124 2.25995L3.60441 2.24995C4.72144 2.23811 5.76925 2.77787 6.41914 3.68238Z" fill="#101010"/>
<path fill-rule="evenodd" clip-rule="evenodd" d="M10.5096 11.7878C10.8366 11.5337 11.3078 11.5928 11.562 11.9198L12.7832 13.4915C13.1493 13.9652 13.7285 14.2496 14.3383 14.25C14.3388 14.25 14.3393 14.25 14.3398 14.25L19.0066 14.23C19.4208 14.2282 19.758 14.5626 19.7598 14.9768C19.7615 15.391 19.4272 15.7282 19.013 15.73L14.343 15.75L14.3398 15.75C13.2705 15.75 12.2506 15.2548 11.597 14.4095C11.5967 14.4092 11.5965 14.4089 11.5963 14.4086L10.3775 12.8402C10.1234 12.5132 10.1825 12.042 10.5096 11.7878Z" fill="#101010"/>
<path fill-rule="evenodd" clip-rule="evenodd" d="M16.4697 0.489689C16.7626 0.196796 17.2374 0.196796 17.5303 0.489689L19.5303 2.48969C19.8232 2.78258 19.8232 3.25746 19.5303 3.55035C19.2374 3.84324 18.7626 3.84324 18.4697 3.55035L16.4697 1.55035C16.1768 1.25746 16.1768 0.782583 16.4697 0.489689Z" fill="#101010"/>
</svg>
