<svg width="22" height="22" viewBox="0 0 22 22" fill="none" xmlns="http://www.w3.org/2000/svg">
<path d="M20.3302 6.78581C20.8438 7.1994 21.2287 7.8051 21.4643 8.42267C21.7 9.04042 21.8164 9.74899 21.71 10.4009L21.7096 10.4036L20.3792 18.3658C20.078 20.1351 18.3967 21.56 16.5998 21.56H5.39981C3.5936 21.56 1.92126 20.1456 1.6203 18.365L0.290848 10.4082L0.29042 10.4057C0.177591 9.75187 0.291721 9.04154 0.527827 8.42267C0.764091 7.80338 1.15242 7.19721 1.67196 6.7838L1.67313 6.78287L8.60063 1.23489C9.93603 0.164351 12.0568 0.166776 13.3997 1.24542L20.3302 6.78581Z" fill="#101010"/>
<path fill-rule="evenodd" clip-rule="evenodd" d="M11 10.25C10.0335 10.25 9.25 11.0335 9.25 12C9.25 12.9665 10.0335 13.75 11 13.75C11.9665 13.75 12.75 12.9665 12.75 12C12.75 11.0335 11.9665 10.25 11 10.25ZM7.75 12C7.75 10.2051 9.20507 8.75 11 8.75C12.7949 8.75 14.25 10.2051 14.25 12C14.25 13.7949 12.7949 15.25 11 15.25C9.20507 15.25 7.75 13.7949 7.75 12Z" fill="#101010"/>
</svg>
