<svg width="22" height="22" viewBox="0 0 22 22" fill="none" xmlns="http://www.w3.org/2000/svg">
<path fill-rule="evenodd" clip-rule="evenodd" d="M0.855767 2.68484C1.66292 1.23671 3.21821 0.25 5.00087 0.25H14.0009C14.4151 0.25 14.7509 0.585786 14.7509 1V11C14.7509 12.5142 13.5151 13.75 12.0009 13.75H11.0009C10.5867 13.75 10.2509 13.4142 10.2509 13C10.2509 12.5858 10.5867 12.25 11.0009 12.25H12.0009C12.6867 12.25 13.2509 11.6858 13.2509 11V1.75H5.00087C3.78353 1.75 2.71883 2.42326 2.16599 3.41513C1.96433 3.77694 1.50754 3.90676 1.14573 3.7051C0.783927 3.50344 0.654104 3.04665 0.855767 2.68484Z" fill="#101010"/>
<path fill-rule="evenodd" clip-rule="evenodd" d="M13.251 4C13.251 3.58579 13.5868 3.25 14.001 3.25H15.841C16.8349 3.25 17.7387 3.788 18.2296 4.63341L18.2321 4.63767L18.232 4.63768L19.942 7.62767C20.0748 7.85979 20.0739 8.14503 19.9397 8.37633C19.8055 8.60763 19.5584 8.75 19.291 8.75H18.001C17.8652 8.75 17.751 8.86421 17.751 9V12C17.751 12.1358 17.8652 12.25 18.001 12.25H21.001C21.4152 12.25 21.751 12.5858 21.751 13V16C21.751 18.0742 20.0752 19.75 18.001 19.75H17.001C16.5868 19.75 16.251 19.4142 16.251 19C16.251 18.3142 15.6868 17.75 15.001 17.75C14.3152 17.75 13.751 18.3142 13.751 19C13.751 19.4142 13.4152 19.75 13.001 19.75H9.00098C8.58676 19.75 8.25098 19.4142 8.25098 19C8.25098 18.3142 7.68676 17.75 7.00098 17.75C6.31519 17.75 5.75098 18.3142 5.75098 19C5.75098 19.4142 5.41519 19.75 5.00098 19.75H4.00098C1.92676 19.75 0.250977 18.0742 0.250977 16C0.250977 15.5858 0.586763 15.25 1.00098 15.25C1.41519 15.25 1.75098 15.5858 1.75098 16C1.75098 17.2458 2.75519 18.25 4.00098 18.25H4.35528C4.68325 17.0981 5.74657 16.25 7.00098 16.25C8.25538 16.25 9.31871 17.0981 9.64667 18.25H12.3553C12.6832 17.0981 13.7466 16.25 15.001 16.25C16.2554 16.25 17.3187 17.0981 17.6467 18.25H18.001C19.2468 18.25 20.251 17.2458 20.251 16V13.75H18.001C17.0368 13.75 16.251 12.9642 16.251 12V9C16.251 8.03676 17.0352 7.25159 17.998 7.25L16.9324 5.38661C16.932 5.38599 16.9317 5.38537 16.9313 5.38475C16.702 4.99126 16.2864 4.75 15.841 4.75H14.751V11C14.751 12.5142 13.5152 13.75 12.001 13.75H11.001C10.5868 13.75 10.251 13.4142 10.251 13C10.251 12.5858 10.5868 12.25 11.001 12.25H12.001C12.6868 12.25 13.251 11.6858 13.251 11V4Z" fill="#101010"/>
<path fill-rule="evenodd" clip-rule="evenodd" d="M7.00098 17.75C6.31062 17.75 5.75098 18.3096 5.75098 19C5.75098 19.6904 6.31062 20.25 7.00098 20.25C7.69133 20.25 8.25098 19.6904 8.25098 19C8.25098 18.3096 7.69133 17.75 7.00098 17.75ZM4.25098 19C4.25098 17.4812 5.48219 16.25 7.00098 16.25C8.51976 16.25 9.75098 17.4812 9.75098 19C9.75098 20.5188 8.51976 21.75 7.00098 21.75C5.48219 21.75 4.25098 20.5188 4.25098 19Z" fill="#101010"/>
<path fill-rule="evenodd" clip-rule="evenodd" d="M15.001 17.75C14.3106 17.75 13.751 18.3096 13.751 19C13.751 19.6904 14.3106 20.25 15.001 20.25C15.6913 20.25 16.251 19.6904 16.251 19C16.251 18.3096 15.6913 17.75 15.001 17.75ZM12.251 19C12.251 17.4812 13.4822 16.25 15.001 16.25C16.5198 16.25 17.751 17.4812 17.751 19C17.751 20.5188 16.5198 21.75 15.001 21.75C13.4822 21.75 12.251 20.5188 12.251 19Z" fill="#101010"/>
<path fill-rule="evenodd" clip-rule="evenodd" d="M18.001 8.75C17.8652 8.75 17.751 8.86421 17.751 9V12C17.751 12.1358 17.8652 12.25 18.001 12.25H20.251V11.1987L18.8552 8.75H18.001ZM16.251 9C16.251 8.03579 17.0368 7.25 18.001 7.25H19.291C19.5604 7.25 19.8091 7.39452 19.9425 7.62859L21.6526 10.6286C21.7171 10.7418 21.751 10.8698 21.751 11V13C21.751 13.4142 21.4152 13.75 21.001 13.75H18.001C17.0368 13.75 16.251 12.9642 16.251 12V9Z" fill="#101010"/>
<path fill-rule="evenodd" clip-rule="evenodd" d="M0.250977 7C0.250977 6.58579 0.586763 6.25 1.00098 6.25H7.00098C7.41519 6.25 7.75098 6.58579 7.75098 7C7.75098 7.41421 7.41519 7.75 7.00098 7.75H1.00098C0.586763 7.75 0.250977 7.41421 0.250977 7Z" fill="#101010"/>
<path fill-rule="evenodd" clip-rule="evenodd" d="M0.250977 10C0.250977 9.58579 0.586763 9.25 1.00098 9.25H5.00098C5.41519 9.25 5.75098 9.58579 5.75098 10C5.75098 10.4142 5.41519 10.75 5.00098 10.75H1.00098C0.586763 10.75 0.250977 10.4142 0.250977 10Z" fill="#101010"/>
<path fill-rule="evenodd" clip-rule="evenodd" d="M0.250977 13C0.250977 12.5858 0.586763 12.25 1.00098 12.25H3.00098C3.41519 12.25 3.75098 12.5858 3.75098 13C3.75098 13.4142 3.41519 13.75 3.00098 13.75H1.00098C0.586763 13.75 0.250977 13.4142 0.250977 13Z" fill="#101010"/>
</svg>
