<svg width="22" height="22" viewBox="0 0 22 22" fill="none" xmlns="http://www.w3.org/2000/svg">
<path fill-rule="evenodd" clip-rule="evenodd" d="M10.9702 1.75C5.86158 1.75 1.72021 5.89137 1.72021 11C1.72021 16.1086 5.86158 20.25 10.9702 20.25C16.0788 20.25 20.2202 16.1086 20.2202 11C20.2202 5.89137 16.0788 1.75 10.9702 1.75ZM0.220215 11C0.220215 5.06294 5.03315 0.25 10.9702 0.25C16.9073 0.25 21.7202 5.06294 21.7202 11C21.7202 16.9371 16.9073 21.75 10.9702 21.75C5.03315 21.75 0.220215 16.9371 0.220215 11Z" fill="#101010"/>
<path fill-rule="evenodd" clip-rule="evenodd" d="M5.78185 14.3843C6.12192 14.1478 6.58931 14.2318 6.82579 14.5719C7.74077 15.8877 9.27451 16.7501 11 16.7501C12.7236 16.7501 14.2495 15.8892 15.1762 14.5692C15.4142 14.2301 15.8819 14.1482 16.2209 14.3862C16.56 14.6242 16.6419 15.092 16.4039 15.431C15.2106 17.1309 13.2365 18.2501 11 18.2501C8.76554 18.2501 6.77929 17.1324 5.59427 15.4282C5.35779 15.0882 5.44177 14.6208 5.78185 14.3843Z" fill="#101010"/>
</svg>
