<svg width="22" height="20" viewBox="0 0 22 20" fill="none" xmlns="http://www.w3.org/2000/svg">
<path fill-rule="evenodd" clip-rule="evenodd" d="M9.08289 0.254592C9.49457 0.300335 9.79122 0.671149 9.74548 1.08283L7.74548 19.0828C7.69974 19.4945 7.32892 19.7912 6.91724 19.7454C6.50556 19.6997 6.20891 19.3289 6.25465 18.9172L8.25465 0.917181C8.3004 0.505501 8.67121 0.20885 9.08289 0.254592Z" fill="#101010"/>
<path fill-rule="evenodd" clip-rule="evenodd" d="M15.0829 0.254592C15.4946 0.300335 15.7912 0.671149 15.7455 1.08283L13.7455 19.0828C13.6997 19.4945 13.3289 19.7912 12.9172 19.7454C12.5056 19.6997 12.2089 19.3289 12.2547 18.9172L14.2547 0.917181C14.3004 0.505501 14.6712 0.20885 15.0829 0.254592Z" fill="#101010"/>
<path fill-rule="evenodd" clip-rule="evenodd" d="M1.75 7C1.75 6.58579 2.08579 6.25 2.5 6.25H20.5C20.9142 6.25 21.25 6.58579 21.25 7C21.25 7.41421 20.9142 7.75 20.5 7.75H2.5C2.08579 7.75 1.75 7.41421 1.75 7Z" fill="#101010"/>
<path fill-rule="evenodd" clip-rule="evenodd" d="M0.75 13C0.75 12.5858 1.08579 12.25 1.5 12.25H19.5C19.9142 12.25 20.25 12.5858 20.25 13C20.25 13.4142 19.9142 13.75 19.5 13.75H1.5C1.08579 13.75 0.75 13.4142 0.75 13Z" fill="#101010"/>
</svg>
