<svg width="22" height="22" viewBox="0 0 22 22" fill="none" xmlns="http://www.w3.org/2000/svg">
<path fill-rule="evenodd" clip-rule="evenodd" d="M2.09467 2.09467C3.42914 0.760201 5.42603 0.25 8 0.25H14C16.574 0.25 18.5709 0.760201 19.9053 2.09467C21.2398 3.42914 21.75 5.42603 21.75 8V12C21.75 12.4142 21.4142 12.75 21 12.75C20.5858 12.75 20.25 12.4142 20.25 12V8C20.25 5.57397 19.7602 4.07086 18.8447 3.15533C17.9291 2.2398 16.426 1.75 14 1.75H8C5.57397 1.75 4.07086 2.2398 3.15533 3.15533C2.2398 4.07086 1.75 5.57397 1.75 8V14C1.75 16.426 2.2398 17.9291 3.15533 18.8447C4.07086 19.7602 5.57397 20.25 8 20.25H14C14.4142 20.25 14.75 20.5858 14.75 21C14.75 21.4142 14.4142 21.75 14 21.75H8C5.42603 21.75 3.42914 21.2398 2.09467 19.9053C0.760201 18.5709 0.25 16.574 0.25 14V8C0.25 5.42603 0.760201 3.42914 2.09467 2.09467Z" fill="#101010"/>
<path fill-rule="evenodd" clip-rule="evenodd" d="M18.287 14.3071C18.5673 14.4232 18.75 14.6966 18.75 15V21C18.75 21.4142 18.4142 21.75 18 21.75C17.5858 21.75 17.25 21.4142 17.25 21V16.8107L16.5303 17.5303C16.2374 17.8232 15.7626 17.8232 15.4697 17.5303C15.1768 17.2374 15.1768 16.7626 15.4697 16.4697L17.4697 14.4697C17.6842 14.2552 18.0068 14.191 18.287 14.3071Z" fill="#101010"/>
<path fill-rule="evenodd" clip-rule="evenodd" d="M17.4697 14.4697C17.7626 14.1768 18.2374 14.1768 18.5303 14.4697L20.5303 16.4697C20.8232 16.7626 20.8232 17.2374 20.5303 17.5303C20.2374 17.8232 19.7626 17.8232 19.4697 17.5303L17.4697 15.5303C17.1768 15.2374 17.1768 14.7626 17.4697 14.4697Z" fill="#101010"/>
<path fill-rule="evenodd" clip-rule="evenodd" d="M9.03311 4.51458C9.4448 4.56023 9.74154 4.93097 9.69589 5.34267L8.64589 14.8127C8.60024 15.2244 8.2295 15.5211 7.81781 15.4754C7.40611 15.4298 7.10938 15.0591 7.15502 14.6474L8.20502 5.17736C8.25067 4.76567 8.62142 4.46894 9.03311 4.51458Z" fill="#101010"/>
<path fill-rule="evenodd" clip-rule="evenodd" d="M12.1923 4.51458C12.604 4.56023 12.9007 4.93097 12.8551 5.34267L11.8051 14.8127C11.7594 15.2244 11.3887 15.5211 10.977 15.4754C10.5653 15.4298 10.2686 15.0591 10.3142 14.6474L11.3642 5.17736C11.4099 4.76567 11.7806 4.46894 12.1923 4.51458Z" fill="#101010"/>
<path fill-rule="evenodd" clip-rule="evenodd" d="M4.78027 8.42001C4.78027 8.0058 5.11606 7.67001 5.53027 7.67001H15.0003C15.4145 7.67001 15.7503 8.0058 15.7503 8.42001C15.7503 8.83423 15.4145 9.17001 15.0003 9.17001H5.53027C5.11606 9.17001 4.78027 8.83423 4.78027 8.42001Z" fill="#101010"/>
<path fill-rule="evenodd" clip-rule="evenodd" d="M4.25 11.58C4.25 11.1658 4.58579 10.83 5 10.83H14.47C14.8842 10.83 15.22 11.1658 15.22 11.58C15.22 11.9942 14.8842 12.33 14.47 12.33H5C4.58579 12.33 4.25 11.9942 4.25 11.58Z" fill="#101010"/>
</svg>
