<svg width="22" height="22" viewBox="0 0 22 22" fill="none" xmlns="http://www.w3.org/2000/svg">
<path fill-rule="evenodd" clip-rule="evenodd" d="M7.5 5.46997C7.91421 5.46997 8.25 5.80576 8.25 6.21997V11C8.25 11.4142 7.91421 11.75 7.5 11.75C7.08579 11.75 6.75 11.4142 6.75 11V6.21997C6.75 5.80576 7.08579 5.46997 7.5 5.46997Z" fill="#101010"/>
<path fill-rule="evenodd" clip-rule="evenodd" d="M7.5 17.25C7.91421 17.25 8.25 17.5858 8.25 18V21C8.25 21.4142 7.91421 21.75 7.5 21.75C7.08579 21.75 6.75 21.4142 6.75 21V18C6.75 17.5858 7.08579 17.25 7.5 17.25Z" fill="#101010"/>
<path fill-rule="evenodd" clip-rule="evenodd" d="M14.5 5.46997C14.9142 5.46997 15.25 5.80576 15.25 6.21997V21C15.25 21.4142 14.9142 21.75 14.5 21.75C14.0858 21.75 13.75 21.4142 13.75 21V6.21997C13.75 5.80576 14.0858 5.46997 14.5 5.46997Z" fill="#101010"/>
<path fill-rule="evenodd" clip-rule="evenodd" d="M4.37827 2.16604C4.50502 1.91115 4.76515 1.75 5.04981 1.75H7.29981C8.70401 1.75 9.84983 2.89576 9.84983 4.29999C9.84983 4.98768 9.57173 5.63873 9.10023 6.10036C8.64025 6.57032 7.99967 6.84998 7.29981 6.84998H5.04981C4.76515 6.84998 4.50502 6.68882 4.37827 6.43394C4.25151 6.17906 4.27998 5.87438 4.45175 5.64739C4.63494 5.40533 4.74982 5.0837 4.74982 4.75V3.84998C4.74982 3.51627 4.63494 3.19464 4.45175 2.95258C4.27998 2.72559 4.25151 2.42092 4.37827 2.16604ZM6.18881 3.25C6.22878 3.44524 6.24982 3.6463 6.24982 3.84998V4.75C6.24982 4.95368 6.22878 5.15474 6.18881 5.34998H7.29981C7.59587 5.34998 7.85194 5.23297 8.0314 5.0479C8.03676 5.04238 8.0422 5.03694 8.04772 5.03158C8.23119 4.85367 8.34983 4.58827 8.34983 4.29999C8.34983 3.72422 7.87561 3.25 7.29981 3.25H6.18881Z" fill="#101010"/>
<path fill-rule="evenodd" clip-rule="evenodd" d="M1.79113 3.0485C1.78529 3.05908 1.77735 3.07572 1.76946 3.09698C1.76121 3.11925 1.75543 3.14007 1.75211 3.15608C1.75097 3.16163 1.75033 3.16554 1.75 3.16784V5.49536C1.75027 5.49752 1.75104 5.50307 1.75304 5.51195C1.75688 5.52907 1.76338 5.55008 1.7723 5.5715C1.77989 5.58971 1.78722 5.60339 1.79241 5.61191C2.38365 6.13254 2.93653 6.27691 3.36762 6.24456C3.80952 6.2114 4.19504 5.98877 4.4507 5.64901L4.45193 5.64738C4.63511 5.40532 4.75 5.08369 4.75 4.74999V3.84996C4.75 3.52114 4.6382 3.19882 4.45177 2.94249C4.40045 2.87707 4.35294 2.82359 4.30967 2.78032C3.79057 2.26122 2.76464 2.04493 1.79113 3.0485ZM0.687494 2.03212C2.22847 0.417756 4.23273 0.582058 5.37033 1.71966C5.46532 1.81465 5.55571 1.91857 5.642 2.02952L5.65378 2.04508C6.02401 2.54753 6.25 3.18204 6.25 3.84996V4.74999C6.25 5.41592 6.02511 6.05391 5.64866 6.55173C5.14431 7.22152 4.3701 7.67355 3.47987 7.74036C2.58249 7.8077 1.63639 7.48013 0.78335 6.72196C0.589646 6.55143 0.463866 6.33124 0.387697 6.14845C0.309338 5.96039 0.25 5.7315 0.25 5.49999V3.15996C0.25 2.95111 0.300856 2.74316 0.363048 2.57545C0.424241 2.41043 0.524988 2.20702 0.680416 2.03964L0.687443 2.03207L0.687494 2.03212Z" fill="#101010"/>
<path fill-rule="evenodd" clip-rule="evenodd" d="M12.1504 4.29999C12.1504 2.89576 13.2962 1.75 14.7004 1.75H16.9504C17.2351 1.75 17.4952 1.91115 17.622 2.16604C17.7487 2.42092 17.7202 2.72559 17.5485 2.95258C17.3653 3.19464 17.2504 3.51627 17.2504 3.84998V4.75C17.2504 5.0837 17.3653 5.40533 17.5485 5.64739C17.7202 5.87438 17.7487 6.17906 17.622 6.43394C17.4952 6.68882 17.2351 6.84998 16.9504 6.84998H14.7004C14.0005 6.84998 13.36 6.57032 12.9 6.10036C12.4285 5.63873 12.1504 4.98768 12.1504 4.29999ZM14.7004 3.25C14.1246 3.25 13.6504 3.72422 13.6504 4.29999C13.6504 4.58827 13.769 4.85367 13.9525 5.03158C13.958 5.03694 13.9635 5.04238 13.9688 5.0479C14.1483 5.23297 14.4044 5.34998 14.7004 5.34998H15.8114C15.7714 5.15474 15.7504 4.95368 15.7504 4.75V3.84998C15.7504 3.6463 15.7714 3.44524 15.8114 3.25H14.7004Z" fill="#101010"/>
<path fill-rule="evenodd" clip-rule="evenodd" d="M16.6297 1.71966C17.7673 0.582058 19.7715 0.417756 21.3125 2.03212L21.3196 2.03959L21.3196 2.03964C21.475 2.20702 21.5758 2.41043 21.637 2.57545C21.6991 2.74316 21.75 2.95111 21.75 3.15996V5.49999C21.75 5.7315 21.6907 5.96039 21.6123 6.14845C21.5361 6.3314 21.4101 6.5518 21.2162 6.72239C20.3632 7.48025 19.4173 7.80769 18.5201 7.74036C17.6295 7.67352 16.8551 7.22115 16.3507 6.55091C15.9746 6.05321 15.75 5.41556 15.75 4.74999V3.84996C15.75 3.18204 15.976 2.54753 16.3462 2.04508L16.358 2.02952C16.4443 1.91857 16.5347 1.81465 16.6297 1.71966ZM20.2089 3.0485C19.2354 2.04493 18.2094 2.26122 17.6903 2.78032C17.6471 2.82359 17.5996 2.87707 17.5482 2.94249C17.3618 3.19882 17.25 3.52115 17.25 3.84996V4.74999C17.25 5.08369 17.3649 5.40532 17.5481 5.64738L17.5493 5.64901C17.805 5.98877 18.1905 6.2114 18.6324 6.24456C19.0635 6.27691 19.6164 6.13254 20.2076 5.61191C20.2128 5.60339 20.2201 5.58971 20.2277 5.5715C20.2366 5.55008 20.2431 5.52907 20.247 5.51195C20.249 5.50307 20.2497 5.49752 20.25 5.49536V3.16784C20.2497 3.16554 20.249 3.16163 20.2479 3.15608C20.2446 3.14007 20.2388 3.11925 20.2305 3.09698C20.2227 3.07572 20.2147 3.05908 20.2089 3.0485Z" fill="#101010"/>
<path fill-rule="evenodd" clip-rule="evenodd" d="M7.5 11.75C7.08421 11.75 6.75 12.0842 6.75 12.5V16.5C6.75 16.9158 7.08421 17.25 7.5 17.25C7.91579 17.25 8.25 16.9158 8.25 16.5V12.5C8.25 12.0842 7.91579 11.75 7.5 11.75ZM5.25 12.5C5.25 11.2558 6.25579 10.25 7.5 10.25C8.74421 10.25 9.75 11.2558 9.75 12.5V16.5C9.75 17.7442 8.74421 18.75 7.5 18.75C6.25579 18.75 5.25 17.7442 5.25 16.5V12.5Z" fill="#101010"/>
</svg>
