<svg width="22" height="21" viewBox="0 0 22 21" fill="none" xmlns="http://www.w3.org/2000/svg">
<path fill-rule="evenodd" clip-rule="evenodd" d="M0.25 6.69012C0.25 3.18943 3.07228 0.350098 6.56 0.350098C8.28783 0.350098 9.86155 1.05578 10.9997 2.19486C12.1354 1.05613 13.7033 0.350098 15.44 0.350098C18.9277 0.350098 21.75 3.18943 21.75 6.69012C21.75 7.96166 21.5467 9.13729 21.2056 10.2246C21.0816 10.6198 20.6607 10.8397 20.2655 10.7157C19.8703 10.5917 19.6504 10.1708 19.7744 9.77562C20.0733 8.82295 20.25 7.79859 20.25 6.69012C20.25 4.01082 18.0923 1.8501 15.44 1.8501C13.8685 1.8501 12.4775 2.60863 11.6021 3.78731C11.4606 3.97783 11.2373 4.09015 11 4.09015C10.7627 4.09015 10.5394 3.97783 10.3979 3.78731C9.523 2.60925 8.12219 1.8501 6.56 1.8501C3.90772 1.8501 1.75 4.01082 1.75 6.69012C1.75 9.94062 3.25066 12.5451 5.13939 14.4814C7.03701 16.4269 9.28066 17.6477 10.6245 18.1111L10.6296 18.1129C10.695 18.136 10.8245 18.1601 11 18.1601C11.4142 18.1601 11.75 18.4959 11.75 18.9101C11.75 19.3243 11.4142 19.6601 11 19.6601C10.7165 19.6601 10.4072 19.6246 10.1332 19.5284C8.57697 18.9912 6.13198 17.6473 4.06561 15.5288C1.98934 13.4002 0.25 10.4396 0.25 6.69012Z" fill="#101010"/>
<path fill-rule="evenodd" clip-rule="evenodd" d="M16.74 13.3501C15.3869 13.3501 14.29 14.447 14.29 15.8001C14.29 17.1532 15.3869 18.2501 16.74 18.2501C18.0931 18.2501 19.19 17.1532 19.19 15.8001C19.19 14.447 18.0931 13.3501 16.74 13.3501ZM12.79 15.8001C12.79 13.6186 14.5585 11.8501 16.74 11.8501C18.9216 11.8501 20.69 13.6186 20.69 15.8001C20.69 17.9816 18.9216 19.7501 16.74 19.7501C14.5585 19.7501 12.79 17.9816 12.79 15.8001Z" fill="#101010"/>
<path fill-rule="evenodd" clip-rule="evenodd" d="M19.0097 18.0698C19.3026 17.7769 19.7775 17.7769 20.0704 18.0698L21.0704 19.0698C21.3633 19.3627 21.3633 19.8375 21.0704 20.1304C20.7775 20.4233 20.3026 20.4233 20.0097 20.1304L19.0097 19.1304C18.7168 18.8375 18.7168 18.3627 19.0097 18.0698Z" fill="#101010"/>
</svg>
