<svg width="22" height="20" viewBox="0 0 22 20" fill="none" xmlns="http://www.w3.org/2000/svg">
<path fill-rule="evenodd" clip-rule="evenodd" d="M6.56 1.8501C3.90771 1.8501 1.75 4.0108 1.75 6.6901C1.75 9.94061 3.25068 12.545 5.13923 14.48C7.03683 16.4243 9.27995 17.6421 10.6223 18.1003L10.6296 18.1028L10.6296 18.1029C10.6944 18.1257 10.8286 18.1501 11 18.1501C11.1714 18.1501 11.3056 18.1257 11.3704 18.1029L11.3777 18.1003L11.3777 18.1003C12.7201 17.6421 14.9632 16.4243 16.8608 14.48C18.7493 12.545 20.25 9.94061 20.25 6.6901C20.25 4.0108 18.0923 1.8501 15.44 1.8501C13.8778 1.8501 12.477 2.60921 11.6021 3.78726C11.4606 3.97778 11.2373 4.0901 11 4.0901C10.7627 4.0901 10.5394 3.97778 10.3979 3.78726C9.52255 2.60859 8.13147 1.8501 6.56 1.8501ZM0.25 6.6901C0.25 3.18939 3.07229 0.350098 6.56 0.350098C8.29674 0.350098 9.86456 1.05608 11.0003 2.19481C12.1385 1.05574 13.7122 0.350098 15.44 0.350098C18.9277 0.350098 21.75 3.18939 21.75 6.6901C21.75 10.4396 20.0107 13.4002 17.9342 15.5277C15.8683 17.6444 13.4235 18.9862 11.8657 19.5187C11.5914 19.6148 11.2773 19.6501 11 19.6501C10.7227 19.6501 10.4086 19.6148 10.1343 19.5187C8.57655 18.9862 6.13169 17.6444 4.06577 15.5277C1.98932 13.4002 0.25 10.4396 0.25 6.6901Z" fill="#101010"/>
</svg>
