<svg width="22" height="22" viewBox="0 0 22 22" fill="none" xmlns="http://www.w3.org/2000/svg">
<path fill-rule="evenodd" clip-rule="evenodd" d="M4 7.25C4.41421 7.25 4.75 7.58579 4.75 8V15C4.75 15.4142 4.41421 15.75 4 15.75C3.58579 15.75 3.25 15.4142 3.25 15V8C3.25 7.58579 3.58579 7.25 4 7.25Z" fill="#101010"/>
<path fill-rule="evenodd" clip-rule="evenodd" d="M4.25 1.75C2.86929 1.75 1.75 2.86929 1.75 4.25C1.75 5.63071 2.86929 6.75 4.25 6.75C5.63071 6.75 6.75 5.63071 6.75 4.25C6.75 2.86929 5.63071 1.75 4.25 1.75ZM0.25 4.25C0.25 2.04086 2.04086 0.25 4.25 0.25C6.45914 0.25 8.25 2.04086 8.25 4.25C8.25 6.45914 6.45914 8.25 4.25 8.25C2.04086 8.25 0.25 6.45914 0.25 4.25Z" fill="#101010"/>
<path fill-rule="evenodd" clip-rule="evenodd" d="M4 15.75C2.75736 15.75 1.75 16.7574 1.75 18C1.75 19.2426 2.75736 20.25 4 20.25C5.24264 20.25 6.25 19.2426 6.25 18C6.25 16.7574 5.24264 15.75 4 15.75ZM0.25 18C0.25 15.9289 1.92893 14.25 4 14.25C6.07107 14.25 7.75 15.9289 7.75 18C7.75 20.0711 6.07107 21.75 4 21.75C1.92893 21.75 0.25 20.0711 0.25 18Z" fill="#101010"/>
<path fill-rule="evenodd" clip-rule="evenodd" d="M18 15.75C16.7574 15.75 15.75 16.7574 15.75 18C15.75 19.2426 16.7574 20.25 18 20.25C19.2426 20.25 20.25 19.2426 20.25 18C20.25 16.7574 19.2426 15.75 18 15.75ZM14.25 18C14.25 15.9289 15.9289 14.25 18 14.25C20.0711 14.25 21.75 15.9289 21.75 18C21.75 20.0711 20.0711 21.75 18 21.75C15.9289 21.75 14.25 20.0711 14.25 18Z" fill="#101010"/>
<path fill-rule="evenodd" clip-rule="evenodd" d="M3.94328 7.27363C4.34445 7.17047 4.75328 7.41206 4.85643 7.81322C5.22325 9.23971 6.52947 10.2981 8.0661 10.29L8.06787 10.29L11.4972 10.28C14.4478 10.269 16.956 12.1613 17.8779 14.792C18.0148 15.1829 17.809 15.6108 17.4181 15.7478C17.0272 15.8848 16.5992 15.6789 16.4623 15.288C15.7442 13.2389 13.792 11.7713 11.5029 11.78L8.07403 11.79C8.07371 11.79 8.07435 11.79 8.07403 11.79C5.83108 11.8014 3.93681 10.26 3.40369 8.18678C3.30054 7.78562 3.54212 7.37679 3.94328 7.27363Z" fill="#101010"/>
</svg>
