<svg width="22" height="22" viewBox="0 0 22 22" fill="none" xmlns="http://www.w3.org/2000/svg">
<path fill-rule="evenodd" clip-rule="evenodd" d="M10.4837 0.268869C11.5191 0.24459 12.5961 0.507656 13.4501 1.10549L19.6288 5.43461C19.6291 5.43477 19.6286 5.43446 19.6288 5.43461C20.2484 5.86666 20.7707 6.53277 21.1361 7.23285C21.5017 7.93324 21.75 8.74271 21.75 9.49991V16.7799C21.75 19.503 19.5254 21.7399 16.79 21.7399H5.21C2.47347 21.7399 0.25 19.5018 0.25 16.7699V9.35991C0.25 8.64944 0.474406 7.88042 0.804179 7.2083C1.134 6.53609 1.60552 5.88676 2.16901 5.44831L7.55901 1.24831C8.38375 0.606854 9.44825 0.293148 10.4837 0.268869ZM8.48046 2.43193C8.48037 2.43199 8.48054 2.43186 8.48046 2.43193L3.09099 6.63151C2.75471 6.89306 2.4109 7.33895 2.15082 7.86902C1.89059 8.3994 1.75 8.94038 1.75 9.35991V16.7699C1.75 18.678 3.30653 20.2399 5.21 20.2399H16.79C18.6946 20.2399 20.25 18.6769 20.25 16.7799V9.49991C20.25 9.04712 20.0933 8.47659 19.8064 7.92697C19.5195 7.37731 19.1413 6.92318 18.7712 6.66521L18.7696 6.66415L12.5899 2.33434C12.5898 2.33427 12.59 2.3344 12.5899 2.33434C12.044 1.95229 11.2958 1.75024 10.5188 1.76846C9.74188 1.78667 9.00571 2.02351 8.48046 2.43193Z" fill="#101010"/>
<path fill-rule="evenodd" clip-rule="evenodd" d="M5.96967 9.96967C6.26256 9.67678 6.73744 9.67678 7.03033 9.96967L9.58343 12.5228L10.676 10.884C10.8006 10.697 11.0025 10.5758 11.2261 10.5537C11.4497 10.5315 11.6714 10.6108 11.8303 10.7697L16.0303 14.9697C16.3232 15.2626 16.3232 15.7374 16.0303 16.0303C15.7374 16.3232 15.2626 16.3232 14.9697 16.0303L11.4166 12.4772L10.324 14.116C10.1994 14.303 9.9975 14.4242 9.7739 14.4463C9.5503 14.4685 9.32855 14.3892 9.16967 14.2303L5.96967 11.0303C5.67678 10.7374 5.67678 10.2626 5.96967 9.96967Z" fill="#101010"/>
<path fill-rule="evenodd" clip-rule="evenodd" d="M15.5 12.75C15.9142 12.75 16.25 13.0858 16.25 13.5V15.5C16.25 15.9142 15.9142 16.25 15.5 16.25H13.5C13.0858 16.25 12.75 15.9142 12.75 15.5C12.75 15.0858 13.0858 14.75 13.5 14.75H14.75V13.5C14.75 13.0858 15.0858 12.75 15.5 12.75Z" fill="#101010"/>
</svg>
