<svg width="22" height="20" viewBox="0 0 22 20" fill="none" xmlns="http://www.w3.org/2000/svg">
<path fill-rule="evenodd" clip-rule="evenodd" d="M0.25 19C0.25 18.5858 0.585786 18.25 1 18.25H21C21.4142 18.25 21.75 18.5858 21.75 19C21.75 19.4142 21.4142 19.75 21 19.75H1C0.585786 19.75 0.25 19.4142 0.25 19Z" fill="#101010"/>
<path fill-rule="evenodd" clip-rule="evenodd" d="M11.772 0.543799C11.3095 0.190243 10.6774 0.194556 10.2306 0.542044L3.2336 5.98976C2.928 6.23272 2.75019 6.59828 2.75019 6.96999V6.9731H2.75018L2.70018 19.0031L1.2002 18.9969L1.25019 6.96999C1.25019 6.96943 1.25019 6.96887 1.25019 6.96831M11.772 0.543799C11.7726 0.544233 11.7731 0.544668 11.7737 0.545103L11.772 0.543799ZM11.7737 0.545103L18.77 5.98223L11.7737 0.545103ZM19.6898 4.79737C19.6898 4.79739 19.6899 4.79741 19.6899 4.79744L19.6904 4.79784" fill="#101010"/>
<path fill-rule="evenodd" clip-rule="evenodd" d="M7.75 15.5C7.75 14.2558 8.75579 13.25 10 13.25H12C13.2442 13.25 14.25 14.2558 14.25 15.5V19C14.25 19.4142 13.9142 19.75 13.5 19.75H8.5C8.08579 19.75 7.75 19.4142 7.75 19V15.5ZM10 14.75C9.58421 14.75 9.25 15.0842 9.25 15.5V18.25H12.75V15.5C12.75 15.0842 12.4158 14.75 12 14.75H10Z" fill="#101010"/>
<path fill-rule="evenodd" clip-rule="evenodd" d="M6.5 8C6.36421 8 6.25 8.11421 6.25 8.25V9.75C6.25 9.88579 6.36421 10 6.5 10H8.5C8.63579 10 8.75 9.88579 8.75 9.75V8.25C8.75 8.11421 8.63579 8 8.5 8H6.5ZM4.75 8.25C4.75 7.28579 5.53579 6.5 6.5 6.5H8.5C9.46421 6.5 10.25 7.28579 10.25 8.25V9.75C10.25 10.7142 9.46421 11.5 8.5 11.5H6.5C5.53579 11.5 4.75 10.7142 4.75 9.75V8.25Z" fill="#101010"/>
<path fill-rule="evenodd" clip-rule="evenodd" d="M13.5 8C13.3642 8 13.25 8.11421 13.25 8.25V9.75C13.25 9.88579 13.3642 10 13.5 10H15.5C15.6358 10 15.75 9.88579 15.75 9.75V8.25C15.75 8.11421 15.6358 8 15.5 8H13.5ZM11.75 8.25C11.75 7.28579 12.5358 6.5 13.5 6.5H15.5C16.4642 6.5 17.25 7.28579 17.25 8.25V9.75C17.25 10.7142 16.4642 11.5 15.5 11.5H13.5C12.5358 11.5 11.75 10.7142 11.75 9.75V8.25Z" fill="#101010"/>
<path fill-rule="evenodd" clip-rule="evenodd" d="M12.8203 1C12.8203 0.585786 13.1561 0.25 13.5703 0.25H17.9703C18.3816 0.25 18.7162 0.581233 18.7203 0.992501L18.7503 3.9925C18.7544 4.40669 18.422 4.74582 18.0078 4.74996C17.5936 4.7541 17.2545 4.42169 17.2503 4.0075L17.2278 1.75H13.5703C13.1561 1.75 12.8203 1.41421 12.8203 1Z" fill="#101010"/>
</svg>
