<svg width="22" height="20" viewBox="0 0 22 20" fill="none" xmlns="http://www.w3.org/2000/svg">
<path fill-rule="evenodd" clip-rule="evenodd" d="M0.25 19C0.25 18.5858 0.585786 18.25 1 18.25H21C21.4142 18.25 21.75 18.5858 21.75 19C21.75 19.4142 21.4142 19.75 21 19.75H1C0.585786 19.75 0.25 19.4142 0.25 19Z" fill="#101010"/>
<path fill-rule="evenodd" clip-rule="evenodd" d="M11.772 0.543806C11.3096 0.190243 10.6774 0.194554 10.2306 0.542044L3.2336 5.98976C2.92801 6.23272 2.75019 6.59828 2.75019 6.96999V6.97311H2.75019L2.70018 19.0031L1.2002 18.9969L1.25019 6.96999C1.25019 6.96943 1.25019 6.96887 1.25019 6.96831M11.772 0.543806C11.7726 0.544238 11.7731 0.54467 11.7737 0.545103L11.772 0.543806ZM11.7737 0.545103L18.77 5.98223L11.7737 0.545103ZM19.6898 4.79737C19.6898 4.79739 19.6899 4.79741 19.6899 4.79744L19.6904 4.79784" fill="#101010"/>
<path fill-rule="evenodd" clip-rule="evenodd" d="M5.25 9.5C5.25 8.25579 6.25579 7.25 7.5 7.25H14.5C15.7442 7.25 16.75 8.25579 16.75 9.5V19C16.75 19.4142 16.4142 19.75 16 19.75H6C5.58579 19.75 5.25 19.4142 5.25 19V9.5ZM7.5 8.75C7.08421 8.75 6.75 9.08421 6.75 9.5V18.25H15.25V9.5C15.25 9.08421 14.9158 8.75 14.5 8.75H7.5Z" fill="#101010"/>
<path fill-rule="evenodd" clip-rule="evenodd" d="M9 12.5C9.41421 12.5 9.75 12.8358 9.75 13.25V14.75C9.75 15.1642 9.41421 15.5 9 15.5C8.58579 15.5 8.25 15.1642 8.25 14.75V13.25C8.25 12.8358 8.58579 12.5 9 12.5Z" fill="#101010"/>
<path fill-rule="evenodd" clip-rule="evenodd" d="M8.75 4.5C8.75 4.08579 9.08579 3.75 9.5 3.75H12.5C12.9142 3.75 13.25 4.08579 13.25 4.5C13.25 4.91421 12.9142 5.25 12.5 5.25H9.5C9.08579 5.25 8.75 4.91421 8.75 4.5Z" fill="#101010"/>
</svg>
