<svg width="18" height="18" viewBox="0 0 18 18" fill="none" xmlns="http://www.w3.org/2000/svg">
<path fill-rule="evenodd" clip-rule="evenodd" d="M5.78998 8.14966C6.08288 7.85677 6.55775 7.85677 6.85064 8.14966L8.88031 10.1793L10.91 8.14966C11.2029 7.85677 11.6777 7.85677 11.9706 8.14966C12.2635 8.44256 12.2635 8.91743 11.9706 9.21032L9.41064 11.7703C9.11775 12.0632 8.64288 12.0632 8.34998 11.7703L5.78998 9.21032C5.49709 8.91743 5.49709 8.44256 5.78998 8.14966Z" fill="#101010"/>
<path fill-rule="evenodd" clip-rule="evenodd" d="M8.87988 0.25C9.2941 0.25 9.62988 0.585786 9.62988 1V11.17C9.62988 11.5842 9.2941 11.92 8.87988 11.92C8.46567 11.92 8.12988 11.5842 8.12988 11.17V1C8.12988 0.585786 8.46567 0.25 8.87988 0.25Z" fill="#101010"/>
<path fill-rule="evenodd" clip-rule="evenodd" d="M1 8.42999C1.41421 8.42999 1.75 8.76578 1.75 9.17999C1.75 11.2206 2.44112 13.0286 3.66877 14.321C4.89078 15.6074 6.68843 16.43 9 16.43C11.3116 16.43 13.1092 15.6074 14.3312 14.321C15.5589 13.0286 16.25 11.2206 16.25 9.17999C16.25 8.76578 16.5858 8.42999 17 8.42999C17.4142 8.42999 17.75 8.76578 17.75 9.17999C17.75 11.5594 16.9411 13.7514 15.4188 15.354C13.8908 16.9626 11.6884 17.93 9 17.93C6.31157 17.93 4.10922 16.9626 2.58123 15.354C1.05888 13.7514 0.25 11.5594 0.25 9.17999C0.25 8.76578 0.585786 8.42999 1 8.42999Z" fill="#101010"/>
</svg>
