<svg width="24" height="24" viewBox="0 0 24 24" fill="none" xmlns="http://www.w3.org/2000/svg">
<path fill-rule="evenodd" clip-rule="evenodd" d="M21 19C21.552 19 22 18.552 22 18V6C22 5.449 21.552 5 21 5H8.45401L2.32901 12L8.45401 19H21ZM8.00001 3H21C22.654 3 24 4.346 24 6V18C24 19.654 22.654 21 21 21H8.00001C7.71101 21 7.43701 20.876 7.24801 20.658L0.248006 12.659C-0.0829941 12.281 -0.0829941 11.719 0.248006 11.341L7.24801 3.341C7.43701 3.125 7.71101 3 8.00001 3ZM17.293 8.293C17.684 7.902 18.316 7.902 18.707 8.293C19.098 8.684 19.098 9.316 18.707 9.707L16.414 12L18.707 14.293C19.098 14.684 19.098 15.316 18.707 15.707C18.512 15.902 18.256 16 18 16C17.744 16 17.488 15.902 17.293 15.707L15 13.414L12.707 15.707C12.512 15.902 12.256 16 12 16C11.744 16 11.488 15.902 11.293 15.707C10.902 15.316 10.902 14.684 11.293 14.293L13.586 12L11.293 9.707C10.902 9.316 10.902 8.684 11.293 8.293C11.684 7.902 12.316 7.902 12.707 8.293L15 10.586L17.293 8.293Z" fill="#42526E"/>
</svg>
