<svg width="20" height="21" viewBox="0 0 20 21" fill="none" xmlns="http://www.w3.org/2000/svg">
<path fill-rule="evenodd" clip-rule="evenodd" d="M13.5292 12.0297C13.8221 11.7368 14.297 11.7368 14.5899 12.0297L19.5399 16.9797C19.8328 17.2726 19.8328 17.7475 19.5399 18.0404C19.247 18.3333 18.7721 18.3333 18.4792 18.0404L13.5292 13.0904C13.2363 12.7975 13.2363 12.3226 13.5292 12.0297Z" fill="#101010"/>
<path fill-rule="evenodd" clip-rule="evenodd" d="M12.8199 2.49033C12.3328 2.00322 11.5377 2.00322 11.0506 2.49033L3.98056 9.56034C3.49346 10.0474 3.49346 10.8426 3.98056 11.3297L8.22057 15.5697C8.70768 16.0568 9.5028 16.0568 9.98991 15.5697L17.0599 8.49968C17.547 8.01257 17.547 7.21746 17.0599 6.73035L12.8199 2.49033ZM9.98991 1.42967C11.0628 0.356777 12.8077 0.356777 13.8806 1.42967L18.1206 5.66969C19.1935 6.74258 19.1935 8.48744 18.1206 9.56034L11.0506 16.6303C9.97768 17.7032 8.2328 17.7032 7.15991 16.6303L2.9199 12.3903C1.84701 11.3174 1.84701 9.57257 2.9199 8.49968L9.98991 1.42967Z" fill="#101010"/>
<path fill-rule="evenodd" clip-rule="evenodd" d="M0.25 20C0.25 19.5858 0.585786 19.25 1 19.25H7C7.41421 19.25 7.75 19.5858 7.75 20C7.75 20.4142 7.41421 20.75 7 20.75H1C0.585786 20.75 0.25 20.4142 0.25 20Z" fill="#101010"/>
<path fill-rule="evenodd" clip-rule="evenodd" d="M5.02924 6.38972C5.32213 6.09682 5.79701 6.09682 6.0899 6.38971L13.1599 13.4597C13.4528 13.7526 13.4528 14.2275 13.1599 14.5203C12.867 14.8132 12.3921 14.8132 12.0992 14.5204L5.02924 7.45038C4.73635 7.15748 4.73635 6.68261 5.02924 6.38972Z" fill="#101010"/>
</svg>
