<svg width="22" height="22" viewBox="0 0 22 22" fill="none" xmlns="http://www.w3.org/2000/svg">
<path fill-rule="evenodd" clip-rule="evenodd" d="M2.09467 2.09467C3.42914 0.760201 5.42603 0.25 8 0.25H14C16.574 0.25 18.5709 0.760201 19.9053 2.09467C21.2398 3.42914 21.75 5.42603 21.75 8V14C21.75 16.574 21.2398 18.5709 19.9053 19.9053C18.5709 21.2398 16.574 21.75 14 21.75H8C5.42603 21.75 3.42914 21.2398 2.09467 19.9053C0.760201 18.5709 0.25 16.574 0.25 14V8C0.25 5.42603 0.760201 3.42914 2.09467 2.09467ZM3.15533 3.15533C2.2398 4.07086 1.75 5.57397 1.75 8V14C1.75 16.426 2.2398 17.9291 3.15533 18.8447C4.07086 19.7602 5.57397 20.25 8 20.25H14C16.426 20.25 17.9291 19.7602 18.8447 18.8447C19.7602 17.9291 20.25 16.426 20.25 14V8C20.25 5.57397 19.7602 4.07086 18.8447 3.15533C17.9291 2.2398 16.426 1.75 14 1.75H8C5.57397 1.75 4.07086 2.2398 3.15533 3.15533Z" fill="#101010"/>
<path fill-rule="evenodd" clip-rule="evenodd" d="M14.7515 7.26185C13.4131 5.93167 11.2467 5.93401 9.92054 7.26022C8.99638 8.18439 8.71476 9.51191 9.07704 10.6893C9.15874 10.9549 9.08698 11.2438 8.89054 11.4402L6.32503 14.0057C6.32255 14.0091 6.31717 14.0168 6.30993 14.0297C6.29741 14.0519 6.28437 14.0806 6.27362 14.1126C6.26282 14.1447 6.25683 14.1727 6.2543 14.1928C6.25347 14.1993 6.25315 14.2039 6.25302 14.2065L6.25363 14.2108L6.41203 15.3988C6.41608 15.4178 6.43556 15.4687 6.48748 15.5215C6.53984 15.5748 6.58029 15.5849 6.58309 15.5856C6.58321 15.5857 6.58312 15.5856 6.58309 15.5856L6.58934 15.5864L7.79743 15.7476C7.79979 15.7476 7.80796 15.7477 7.82207 15.7461C7.84423 15.7436 7.87163 15.7379 7.90038 15.7284C7.92928 15.719 7.95219 15.7082 7.9671 15.6995C7.97038 15.6976 7.97286 15.696 7.9746 15.6949C7.97669 15.6928 7.97879 15.6906 7.98091 15.6885L10.5709 13.1085C10.7686 12.9116 11.0592 12.8407 11.3253 12.9245C12.4958 13.2928 13.8222 13.0066 14.749 12.0804C16.0793 10.7411 16.0744 8.57653 14.7515 7.26185ZM15.8089 6.19793C13.8873 4.28811 10.7737 4.28577 8.85988 6.19956C7.6416 7.41784 7.20304 9.11574 7.52799 10.6814L5.24988 12.9596L5.23575 12.9741C5.05212 13.1679 4.92666 13.412 4.8518 13.6347C4.77854 13.8526 4.7261 14.1324 4.76758 14.4149L4.92679 15.609L4.92893 15.6239C4.98643 15.9977 5.17779 16.329 5.41794 16.5732C5.65752 16.8169 5.99453 17.0228 6.39366 17.0737L7.5867 17.2327C7.86209 17.2722 8.13946 17.2286 8.36753 17.1538C8.59138 17.0805 8.84638 16.9513 9.0456 16.7452L11.3259 14.4737C12.8966 14.8069 14.5948 14.356 15.8105 13.1402L15.8122 13.1386C17.7211 11.2179 17.7258 8.103 15.8089 6.19793Z" fill="#101010"/>
<path fill-rule="evenodd" clip-rule="evenodd" d="M8.07239 13.8865C8.36699 13.5953 8.84186 13.5981 9.13303 13.8927L9.98303 14.7527C10.2742 15.0473 10.2714 15.5222 9.97683 15.8133C9.68223 16.1045 9.20736 16.1017 8.91619 15.8071L8.06619 14.9471C7.77501 14.6525 7.77779 14.1777 8.07239 13.8865Z" fill="#101010"/>
<path fill-rule="evenodd" clip-rule="evenodd" d="M11.3945 9.69995C11.3945 9.14767 11.8422 8.69995 12.3945 8.69995H12.4035C12.9558 8.69995 13.4035 9.14767 13.4035 9.69995C13.4035 10.2522 12.9558 10.7 12.4035 10.7H12.3945C11.8422 10.7 11.3945 10.2522 11.3945 9.69995Z" fill="#101010"/>
</svg>
