<svg width="18" height="22" viewBox="0 0 18 22" fill="none" xmlns="http://www.w3.org/2000/svg">
<path fill-rule="evenodd" clip-rule="evenodd" d="M9.37457 6.23991C9.73361 6.44646 9.85724 6.90496 9.65069 7.264L8.79583 8.75002H9.63059C10.0309 8.75002 10.5102 8.89812 10.7675 9.35045C11.0226 9.79887 10.9091 10.2826 10.7104 10.6246L9.6522 12.4814C9.44711 12.8412 8.98911 12.9667 8.62924 12.7616C8.26936 12.5565 8.14388 12.0985 8.34897 11.7387L9.19734 10.25H8.36058C7.95946 10.25 7.48688 10.0985 7.22999 9.65408C6.97264 9.20882 7.07813 8.72333 7.28168 8.37396L8.35048 6.51603C8.55703 6.15699 9.01553 6.03337 9.37457 6.23991Z" fill="#101010"/>
<path fill-rule="evenodd" clip-rule="evenodd" d="M10.6395 1.92259C5.97541 0.906994 1.86035 4.42089 1.86035 8.90003C1.86035 11.466 3.56517 13.9551 5.68827 15.2381C5.91301 15.374 6.05035 15.6174 6.05035 15.88V17.04C6.05035 17.1069 6.04847 17.1734 6.04699 17.2259C6.04691 17.2287 6.04683 17.2315 6.04675 17.2343C6.10208 17.2385 6.17026 17.2408 6.25353 17.2401L6.26035 17.24V17.24H11.7704C11.8714 17.24 11.9398 17.2316 11.9834 17.223C11.9837 17.2077 11.9836 17.1903 11.9831 17.1695C11.9827 17.1495 11.9822 17.1327 11.9816 17.1082C11.981 17.0866 11.9804 17.0587 11.9804 17.03V15.87C11.9804 15.6073 12.1178 15.3637 12.3427 15.228C15.3221 13.4293 17.2745 9.36333 15.3989 5.59416L15.3989 5.59414C14.4741 3.73556 12.6869 2.37592 10.6395 1.92259ZM6.04789 17.422C6.04788 17.422 6.04773 17.4212 6.04751 17.4196L6.04789 17.422ZM0.360352 8.90003C0.360352 3.47953 5.34463 -0.766362 10.96 0.457228L10.9624 0.457736C13.4345 1.00468 15.6068 2.64487 16.7418 4.92592C18.9653 9.39428 16.7645 14.0704 13.4804 16.2809V17.03C13.4804 17.0311 13.4806 17.034 13.4809 17.0389C13.4859 17.1099 13.5187 17.5781 13.3166 17.9656C13.0329 18.5096 12.4623 18.74 11.7704 18.74H6.26368C5.70297 18.7447 5.05455 18.6585 4.72309 18.1007C4.57556 17.8524 4.55173 17.5979 4.54613 17.44C4.5432 17.3571 4.54506 17.2762 4.54676 17.2133C4.54709 17.201 4.54741 17.1892 4.54773 17.178C4.54918 17.1258 4.55035 17.0838 4.55035 17.04V16.291C2.23657 14.7363 0.360352 11.9371 0.360352 8.90003Z" fill="#101010"/>
<path fill-rule="evenodd" clip-rule="evenodd" d="M12.2954 21.7216C10.1393 21.1096 7.8611 21.1096 5.70498 21.7216C5.30651 21.8347 4.8918 21.6033 4.77869 21.2049C4.66559 20.8064 4.89693 20.3917 5.2954 20.2786C7.71928 19.5906 10.2811 19.5906 12.705 20.2786C13.1035 20.3917 13.3348 20.8064 13.2217 21.2049C13.1086 21.6033 12.6939 21.8347 12.2954 21.7216Z" fill="#101010"/>
</svg>
