<svg width="22" height="22" viewBox="0 0 22 22" fill="none" xmlns="http://www.w3.org/2000/svg">
<path fill-rule="evenodd" clip-rule="evenodd" d="M5.26172 7.96002C5.26172 7.54581 5.59751 7.21002 6.01172 7.21002H15.9917C16.4059 7.21002 16.7417 7.54581 16.7417 7.96002C16.7417 8.37424 16.4059 8.71002 15.9917 8.71002H6.01172C5.59751 8.71002 5.26172 8.37424 5.26172 7.96002Z" fill="#101010"/>
<path fill-rule="evenodd" clip-rule="evenodd" d="M11.002 5.53003C11.4162 5.53003 11.752 5.86582 11.752 6.28003V7.96002C11.752 8.37424 11.4162 8.71002 11.002 8.71002C10.5877 8.71002 10.252 8.37424 10.252 7.96002V6.28003C10.252 5.86582 10.5877 5.53003 11.002 5.53003Z" fill="#101010"/>
<path fill-rule="evenodd" clip-rule="evenodd" d="M13.502 7.19C13.9162 7.19 14.252 7.52579 14.252 7.94C14.252 12.6284 10.5815 16.47 6.00195 16.47C5.58774 16.47 5.25195 16.1342 5.25195 15.72C5.25195 15.3058 5.58774 14.97 6.00195 14.97C9.7024 14.97 12.752 11.8516 12.752 7.94C12.752 7.52579 13.0877 7.19 13.502 7.19Z" fill="#101010"/>
<path fill-rule="evenodd" clip-rule="evenodd" d="M10.9978 12.6533C11.3273 12.4023 11.7979 12.466 12.0489 12.7956C13.0916 14.1647 14.488 14.9699 16.0022 14.9699C16.4164 14.9699 16.7522 15.3057 16.7522 15.7199C16.7522 16.1342 16.4164 16.4699 16.0022 16.4699C13.9163 16.4699 12.1128 15.3552 10.8555 13.7044C10.6046 13.3749 10.6682 12.9043 10.9978 12.6533Z" fill="#101010"/>
<path fill-rule="evenodd" clip-rule="evenodd" d="M2.09662 2.09467C3.43109 0.760201 5.42798 0.25 8.00195 0.25H14.002C16.5759 0.25 18.5728 0.760201 19.9073 2.09467C21.2418 3.42914 21.752 5.42603 21.752 8V14C21.752 16.574 21.2418 18.5709 19.9073 19.9053C18.5728 21.2398 16.5759 21.75 14.002 21.75H8.00195C5.42798 21.75 3.43109 21.2398 2.09662 19.9053C0.762154 18.5709 0.251953 16.574 0.251953 14V8C0.251953 5.42603 0.762154 3.42914 2.09662 2.09467ZM3.15728 3.15533C2.24175 4.07086 1.75195 5.57397 1.75195 8V14C1.75195 16.426 2.24175 17.9291 3.15728 18.8447C4.07281 19.7602 5.57593 20.25 8.00195 20.25H14.002C16.428 20.25 17.9311 19.7602 18.8466 18.8447C19.7622 17.9291 20.252 16.426 20.252 14V8C20.252 5.57397 19.7622 4.07086 18.8466 3.15533C17.9311 2.2398 16.428 1.75 14.002 1.75H8.00195C5.57593 1.75 4.07281 2.2398 3.15728 3.15533Z" fill="#101010"/>
</svg>
