<svg width="22" height="22" viewBox="0 0 22 22" fill="none" xmlns="http://www.w3.org/2000/svg">
<path fill-rule="evenodd" clip-rule="evenodd" d="M1.05047 12.2852C1.45633 12.2024 1.85244 12.4643 1.93522 12.8702C2.79517 17.0867 6.52268 20.2501 11.0003 20.2501C15.4575 20.2501 19.1773 17.0967 20.0562 12.8964C20.1411 12.491 20.5385 12.2311 20.944 12.3159C21.3494 12.4008 21.6093 12.7982 21.5244 13.2037C20.5033 18.0834 16.1832 21.7501 11.0003 21.7501C5.79801 21.7501 1.46552 18.0734 0.465471 13.1699C0.382697 12.7641 0.644609 12.3679 1.05047 12.2852Z" fill="#101010"/>
<path fill-rule="evenodd" clip-rule="evenodd" d="M0.465855 8.82827C1.47618 3.93786 5.80656 0.25 11.0003 0.25C16.2251 0.25 20.5787 3.96992 21.5464 8.91599C21.6259 9.3225 21.3609 9.71651 20.9544 9.79604C20.5478 9.87558 20.1538 9.61051 20.0743 9.20401C19.242 4.95007 15.4956 1.75 11.0003 1.75C6.53414 1.75 2.80451 4.92216 1.93483 9.13175C1.85103 9.5374 1.45425 9.7983 1.0486 9.7145C0.642957 9.6307 0.382051 9.23392 0.465855 8.82827Z" fill="#101010"/>
<path fill-rule="evenodd" clip-rule="evenodd" d="M11 10.25C10.5858 10.25 10.25 10.5858 10.25 11C10.25 11.4142 10.5858 11.75 11 11.75C11.4142 11.75 11.75 11.4142 11.75 11C11.75 10.5858 11.4142 10.25 11 10.25ZM8.75 11C8.75 9.75736 9.75736 8.75 11 8.75C12.2426 8.75 13.25 9.75736 13.25 11C13.25 12.2426 12.2426 13.25 11 13.25C9.75736 13.25 8.75 12.2426 8.75 11Z" fill="#101010"/>
</svg>
