<svg width="22" height="22" viewBox="0 0 22 22" fill="none" xmlns="http://www.w3.org/2000/svg">
<path fill-rule="evenodd" clip-rule="evenodd" d="M10.2381 2.01916C10.2378 2.01939 10.2376 2.01962 10.2373 2.01985L8.6611 3.3767C8.66075 3.377 8.6604 3.3773 8.66005 3.3776C8.42133 3.58419 8.11668 3.74075 7.83486 3.84546C7.55272 3.95029 7.22142 4.0299 6.90989 4.0299H5.17988C4.53406 4.0299 3.99988 4.56408 3.99988 5.20983V6.91992C3.99988 7.23195 3.92001 7.56074 3.817 7.83902C3.71361 8.11833 3.5614 8.41565 3.36606 8.65006L3.36163 8.65537L2.014 10.2425C2.01365 10.2429 2.01329 10.2433 2.01294 10.2437C1.66887 10.6545 1.66887 11.3652 2.01294 11.776C2.01329 11.7765 2.01365 11.7769 2.014 11.7773L3.36608 13.3697C3.56142 13.6041 3.71361 13.9014 3.817 14.1807C3.92001 14.459 3.99988 14.7878 3.99988 15.0998V16.8099C3.99988 17.4557 4.53406 17.9899 5.17988 17.9899H6.90989C7.22541 17.9899 7.55668 18.069 7.83987 18.1748C8.12257 18.2804 8.42318 18.4372 8.66 18.6421C8.66037 18.6424 8.66073 18.6427 8.6611 18.6431L10.2358 19.9985C10.6586 20.3524 11.375 20.3474 11.7817 20.0005C11.7819 20.0003 11.7822 20 11.7825 19.9998L13.3587 18.6431C13.359 18.6428 13.3593 18.6425 13.3596 18.6422C13.5984 18.4356 13.9031 18.279 14.1849 18.1743C14.467 18.0695 14.7983 17.9899 15.1099 17.9899H16.8099C17.4557 17.9899 17.9899 17.4557 17.9899 16.8099V15.1099C17.9899 14.7943 18.069 14.463 18.1748 14.1799C18.2804 13.8972 18.4372 13.5967 18.642 13.3599C18.6424 13.3595 18.6427 13.3591 18.6431 13.3587L19.9986 11.7839C20.3525 11.3612 20.3475 10.645 20.0007 10.2383C20.0004 10.2379 20.0001 10.2376 19.9999 10.2373L18.6431 8.66112C18.6427 8.6607 18.6424 8.66028 18.642 8.65986C18.4355 8.42118 18.279 8.11664 18.1743 7.8349C18.0695 7.55276 17.9899 7.22145 17.9899 6.90991V5.20983C17.9899 4.56408 17.4557 4.0299 16.8099 4.0299H15.1099C14.7943 4.0299 14.4631 3.95078 14.1799 3.84499C13.8972 3.73937 13.5966 3.58259 13.3598 3.37768C13.3595 3.37735 13.3591 3.37703 13.3587 3.3767L11.7839 2.02112C11.3611 1.66721 10.6448 1.67223 10.2381 2.01916ZM9.26247 0.879799C10.2351 0.0481229 11.776 0.052691 12.7532 0.876353L12.7592 0.881385L14.3411 2.24316C14.4041 2.29778 14.533 2.37564 14.7049 2.43985C14.8767 2.50403 15.0254 2.5299 15.1099 2.5299H16.8099C18.2841 2.5299 19.4899 3.73559 19.4899 5.20983V6.90991C19.4899 6.98836 19.5152 7.13706 19.5804 7.31243C19.6455 7.4877 19.7237 7.61759 19.7766 7.67872L19.7783 7.68063L21.1399 9.26246C21.9716 10.2351 21.967 11.776 21.1434 12.7532L21.1383 12.7592L19.7783 14.3391L19.7766 14.341C19.722 14.4041 19.6442 14.533 19.5799 14.7048C19.5157 14.8767 19.4899 15.0254 19.4899 15.1099V16.8099C19.4899 18.2842 18.2841 19.4899 16.8099 19.4899H15.1099C15.0314 19.4899 14.8827 19.5152 14.7074 19.5804C14.5321 19.6455 14.4022 19.7236 14.3411 19.7766L14.3392 19.7783L12.7591 21.1382L12.7573 21.1398C11.7846 21.9715 10.2438 21.967 9.26653 21.1433L9.26058 21.1383L7.68062 19.7783L7.6787 19.7766C7.61569 19.722 7.48678 19.6441 7.31492 19.5799C7.1431 19.5157 6.99437 19.4899 6.90989 19.4899H5.17988C3.70569 19.4899 2.49988 18.2842 2.49988 16.8099V15.0998C2.49988 15.0219 2.47477 14.8757 2.41028 14.7015C2.34683 14.53 2.26998 14.3983 2.21541 14.332L0.865765 12.7425C0.0512509 11.7735 0.0512579 10.2463 0.865772 9.27729L0.868165 9.27445L2.21539 7.68777C2.26996 7.6215 2.34682 7.48976 2.41028 7.31831C2.47477 7.14409 2.49988 6.99788 2.49988 6.91992V5.20983C2.49988 3.73559 3.70569 2.5299 5.17988 2.5299H6.90989C6.98836 2.5299 7.13706 2.50453 7.31243 2.43938C7.4877 2.37425 7.61758 2.29613 7.6787 2.24316L7.68059 2.24152L9.26058 0.88142L9.26247 0.879799Z" fill="#101010"/>
<path fill-rule="evenodd" clip-rule="evenodd" d="M12.0712 5.80305C12.8171 6.05958 13.3263 6.86979 13.1686 7.67173L12.988 8.8498H14.5401C15.0981 8.8498 15.6166 9.08254 15.939 9.5231C16.2619 9.9643 16.3254 10.529 16.1404 11.0606L15.03 14.4512C14.9039 14.9215 14.5984 15.295 14.2544 15.5458C13.9038 15.8015 13.4595 15.9698 13.0001 15.9698H11.2301C11.0201 15.9698 10.7765 15.9375 10.5474 15.8728C10.3491 15.8168 10.0745 15.7125 9.8525 15.5108L8.43161 14.4133L9.34855 13.2262L10.8365 14.3755L10.8523 14.3913C10.853 14.3917 10.8539 14.3921 10.8547 14.3926C10.8745 14.4024 10.908 14.4159 10.9552 14.4293C11.0536 14.4571 11.1601 14.4698 11.2301 14.4698H13.0001C13.1006 14.4698 13.2413 14.4281 13.3707 14.3338C13.4996 14.2398 13.5635 14.1337 13.5825 14.0579L13.589 14.0319L14.7201 10.5779L14.723 10.5696C14.7448 10.5081 14.7447 10.4677 14.7422 10.4473C14.7397 10.4271 14.7338 10.4161 14.7286 10.409C14.7235 10.402 14.682 10.3498 14.5401 10.3498H12.6701C11.9402 10.3498 11.3614 9.72644 11.4555 8.94962L11.4569 8.93788L11.6921 7.40434L11.6967 7.38272C11.6967 7.38288 11.6967 7.38302 11.6967 7.38272C11.6969 7.37941 11.6989 7.34903 11.6713 7.30253C11.6415 7.25225 11.6031 7.22809 11.5829 7.22135L11.5687 7.21661L11.5592 7.213C11.5573 7.21281 11.5538 7.21258 11.5486 7.21271C11.5335 7.2131 11.5105 7.2165 11.4832 7.22595C11.4558 7.23543 11.4327 7.24808 11.4167 7.25956C11.4114 7.26339 11.4078 7.26635 11.4058 7.26817L9.49207 10.1088L8.24805 9.27072L10.1695 6.41866C10.3728 6.11899 10.6843 5.91532 10.992 5.80867C11.3 5.7019 11.6896 5.66321 12.0712 5.80305ZM10.8431 14.3862C10.8431 14.3862 10.8434 14.3864 10.8442 14.3869L10.8431 14.3862Z" fill="#101010"/>
<path fill-rule="evenodd" clip-rule="evenodd" d="M7.25679 9.11098C7.25304 9.14133 7.25 9.18342 7.25 9.23987V13.8198C7.25 13.8763 7.25304 13.9184 7.25679 13.9487C7.29729 13.9548 7.35653 13.9598 7.44 13.9598H7.91C7.99416 13.9598 8.05323 13.9544 8.09294 13.9481C8.09681 13.9183 8.10001 13.8765 8.10001 13.8198V9.23987C8.10001 9.18314 8.09678 9.14126 8.09288 9.11147C8.05302 9.10517 7.99396 9.09985 7.91 9.09985H7.44C7.35653 9.09985 7.29729 9.1049 7.25679 9.11098ZM6.21529 7.99488C6.58054 7.65956 7.0563 7.59985 7.44 7.59985H7.91C8.29179 7.59985 8.76405 7.66076 9.12871 7.99282C9.51041 8.34039 9.60001 8.82094 9.60001 9.23987V13.8198C9.60001 14.2306 9.51442 14.7094 9.13716 15.0588C8.774 15.3952 8.30016 15.4598 7.91 15.4598H7.44C7.0563 15.4598 6.58054 15.4001 6.21529 15.0648C5.83404 14.7148 5.75 14.2322 5.75 13.8198V9.23987C5.75 8.82753 5.83404 8.34489 6.21529 7.99488Z" fill="#101010"/>
</svg>
