<svg width="20" height="22" viewBox="0 0 20 22" fill="none" xmlns="http://www.w3.org/2000/svg">
<path fill-rule="evenodd" clip-rule="evenodd" d="M11.1775 4.00164C11.9816 4.26925 12.5161 5.13475 12.3484 5.98289L12.1296 7.37986H13.9501C14.5411 7.37986 15.0933 7.61984 15.4377 8.08452C15.7843 8.55217 15.8497 9.15285 15.6499 9.72223L14.4092 13.4842C14.2725 13.9837 13.9447 14.3835 13.5744 14.6534C13.1979 14.9279 12.7212 15.1098 12.2301 15.1098H10.2501C10.0252 15.1098 9.76204 15.0751 9.5149 15.0057C9.29937 14.9452 9.00519 14.8336 8.77126 14.6199L7.19017 13.3923L8.11006 12.2075L9.7572 13.4863L9.77778 13.5069C9.78117 13.5089 9.78618 13.5116 9.79303 13.515C9.82076 13.5288 9.86341 13.5456 9.92033 13.5615C10.0382 13.5946 10.165 13.6098 10.2501 13.6098H12.2301C12.359 13.6098 12.5323 13.5568 12.6908 13.4413C12.8489 13.3261 12.9361 13.1904 12.9639 13.0825L12.9701 13.0585L14.2306 9.23652L14.2336 9.2282C14.2898 9.07031 14.2491 8.99998 14.2326 8.97767C14.212 8.94987 14.1391 8.87986 13.9501 8.87986H11.8701C11.1184 8.87986 10.4928 8.23086 10.6073 7.40669L10.609 7.3938L10.8723 5.71366L10.8765 5.69375C10.8819 5.66845 10.8805 5.61227 10.8397 5.54398C10.7993 5.47613 10.7442 5.43775 10.7021 5.42431L10.6824 5.41803L10.6631 5.41068C10.6501 5.40572 10.5995 5.396 10.5212 5.42291C10.4855 5.43517 10.4558 5.45144 10.4351 5.46648C10.4248 5.47401 10.4191 5.47944 10.4169 5.48171L10.4127 5.48816L8.28265 8.65813L7.0376 7.82156L9.16443 4.65622C9.37485 4.33428 9.7062 4.11678 10.0341 4.00421C10.3653 3.89047 10.7767 3.85504 11.1775 4.00164Z" fill="#101010"/>
<path fill-rule="evenodd" clip-rule="evenodd" d="M5.76878 7.49506C5.76027 7.53007 5.75 7.59625 5.75 7.70996V12.8C5.75 12.9138 5.76027 12.9799 5.76878 13.0149C5.81564 13.0273 5.90007 13.04 6.03999 13.04H6.56C6.69993 13.04 6.78437 13.0273 6.83122 13.0149C6.83973 12.9799 6.85001 12.9138 6.85001 12.8V7.70996C6.85001 7.59625 6.83973 7.53007 6.83122 7.49507C6.78437 7.48271 6.69993 7.46997 6.56 7.46997H6.03999C5.90007 7.46997 5.81564 7.48271 5.76878 7.49506ZM5.77992 7.46175C5.77999 7.46184 5.77939 7.46325 5.77791 7.4657C5.77911 7.46288 5.77985 7.46165 5.77992 7.46175ZM6.82008 7.46176C6.82015 7.46166 6.82089 7.46289 6.8221 7.46571C6.82062 7.46326 6.82001 7.46185 6.82008 7.46176ZM6.82008 13.0483C6.82001 13.0482 6.82062 13.0468 6.8221 13.0443C6.82089 13.0471 6.82015 13.0483 6.82008 13.0483ZM5.77992 13.0483C5.77985 13.0484 5.77911 13.0471 5.7779 13.0443C5.77939 13.0468 5.77999 13.0482 5.77992 13.0483ZM4.73669 6.39089C5.11744 6.03835 5.61811 5.96997 6.03999 5.96997H6.56C6.98188 5.96997 7.48255 6.03835 7.8633 6.39089C8.25829 6.75661 8.35001 7.26216 8.35001 7.70996V12.8C8.35001 13.2478 8.25829 13.7534 7.8633 14.1191C7.48255 14.4717 6.98188 14.54 6.56 14.54H6.03999C5.61811 14.54 5.11744 14.4717 4.73669 14.1191C4.34171 13.7534 4.25 13.2478 4.25 12.8V7.70996C4.25 7.26217 4.34171 6.75661 4.73669 6.39089Z" fill="#101010"/>
<path fill-rule="evenodd" clip-rule="evenodd" d="M4 1.76001C2.74764 1.76001 1.75 2.76074 1.75 3.97998V14.89C1.75 16.1093 2.74764 17.11 4 17.11H4.75C5.73266 17.11 6.69436 17.4946 7.39871 18.198C7.39925 18.1986 7.39979 18.1991 7.40033 18.1996L9.1069 19.8863C9.10694 19.8863 9.10686 19.8863 9.1069 19.8863C9.59472 20.3677 10.3949 20.3679 10.8828 19.8866M10.8828 19.8866L12.5897 18.1996C12.5902 18.1991 12.5908 18.1985 12.5914 18.1979C13.2948 17.4954 14.2461 17.11 15.24 17.11H16C17.2507 17.11 18.25 16.1009 18.25 14.89V3.97998C18.25 2.76074 17.2524 1.76001 16 1.76001H4M0.25 3.97998C0.25 1.91923 1.93236 0.26001 4 0.26001H16C18.0676 0.26001 19.75 1.91923 19.75 3.97998V14.89C19.75 16.9391 18.0693 18.61 16 18.61H15.24C14.6347 18.61 14.0667 18.8439 13.6503 19.2603L13.6472 19.2634L11.9372 20.9535C10.8651 22.0118 9.12519 22.0121 8.0531 20.9538L6.34278 19.2634L6.33966 19.2603C5.92416 18.8448 5.34659 18.61 4.75 18.61H4C1.93236 18.61 0.25 16.9508 0.25 14.89V3.97998Z" fill="#101010"/>
</svg>
