<svg width="22" height="14" viewBox="0 0 22 14" fill="none" xmlns="http://www.w3.org/2000/svg">
<path fill-rule="evenodd" clip-rule="evenodd" d="M13.2422 1.5C13.2422 1.08579 13.578 0.75 13.9922 0.75H15.5022C18.9473 0.75 21.7522 3.56667 21.7522 7C21.7522 10.4451 18.9355 13.25 15.5022 13.25H13.9922C13.578 13.25 13.2422 12.9142 13.2422 12.5C13.2422 12.0858 13.578 11.75 13.9922 11.75H15.5022C18.1089 11.75 20.2522 9.6149 20.2522 7C20.2522 4.39333 18.1171 2.25 15.5022 2.25H13.9922C13.578 2.25 13.2422 1.91421 13.2422 1.5Z" fill="#101010"/>
<path fill-rule="evenodd" clip-rule="evenodd" d="M0.251953 7C0.251953 3.55579 3.05774 0.75 6.50195 0.75H8.00195C8.41617 0.75 8.75195 1.08579 8.75195 1.5C8.75195 1.91421 8.41617 2.25 8.00195 2.25H6.50195C3.88617 2.25 1.75195 4.38421 1.75195 7C1.75195 9.60667 3.88705 11.75 6.50195 11.75H8.00195C8.41617 11.75 8.75195 12.0858 8.75195 12.5C8.75195 12.9142 8.41617 13.25 8.00195 13.25H6.50195C3.05685 13.25 0.251953 10.4333 0.251953 7Z" fill="#101010"/>
<path fill-rule="evenodd" clip-rule="evenodd" d="M6.25195 7C6.25195 6.58579 6.58774 6.25 7.00195 6.25H15.002C15.4162 6.25 15.752 6.58579 15.752 7C15.752 7.41421 15.4162 7.75 15.002 7.75H7.00195C6.58774 7.75 6.25195 7.41421 6.25195 7Z" fill="#101010"/>
</svg>
