<svg width="22" height="14" viewBox="0 0 22 14" fill="none" xmlns="http://www.w3.org/2000/svg">
<path fill-rule="evenodd" clip-rule="evenodd" d="M6.75195 2C3.98617 2 1.75195 4.23421 1.75195 7C1.75195 9.76579 3.98617 12 6.75195 12C9.51774 12 11.752 9.76579 11.752 7C11.752 6.58579 12.0877 6.25 12.502 6.25C12.9162 6.25 13.252 6.58579 13.252 7C13.252 10.5942 10.3462 13.5 6.75195 13.5C3.15774 13.5 0.251953 10.5942 0.251953 7C0.251953 3.40579 3.15774 0.5 6.75195 0.5C7.16617 0.5 7.50195 0.835786 7.50195 1.25C7.50195 1.66421 7.16617 2 6.75195 2Z" fill="#101010"/>
<path fill-rule="evenodd" clip-rule="evenodd" d="M15.002 1.75C12.1062 1.75 9.75195 4.10421 9.75195 7C9.75195 7.41421 9.41617 7.75 9.00195 7.75C8.58774 7.75 8.25195 7.41421 8.25195 7C8.25195 3.27579 11.2777 0.25 15.002 0.25C18.7262 0.25 21.752 3.27579 21.752 7C21.752 10.7242 18.7262 13.75 15.002 13.75C14.5877 13.75 14.252 13.4142 14.252 13C14.252 12.5858 14.5877 12.25 15.002 12.25C17.8977 12.25 20.252 9.89579 20.252 7C20.252 4.10421 17.8977 1.75 15.002 1.75Z" fill="#101010"/>
</svg>
