<svg width="22" height="22" viewBox="0 0 22 22" fill="none" xmlns="http://www.w3.org/2000/svg">
<path fill-rule="evenodd" clip-rule="evenodd" d="M11.5587 7.14754C10.5229 6.06602 8.84828 6.06937 7.82541 7.14648L5.63541 9.44647C5.63528 9.4466 5.63554 9.44634 5.63541 9.44647C4.59067 10.5471 4.59041 12.3731 5.63537 13.4735M11.5587 7.14754C12.6029 8.2482 12.6025 10.0734 11.5577 11.1736L10.4672 12.3241C10.1823 12.6247 10.195 13.0994 10.4956 13.3844C10.7962 13.6693 11.2709 13.6566 11.5559 13.356L12.6454 12.2065C14.2398 10.527 14.2401 7.79284 12.6454 6.11356L12.6435 6.11152C11.0194 4.41416 8.35493 4.41101 6.73808 6.11318C6.7382 6.11306 6.73796 6.11331 6.73808 6.11318L4.54772 8.41355C2.95284 10.093 2.95284 12.827 4.54772 14.5065C5.25208 15.2473 6.17073 15.6801 7.11277 15.7668C7.52524 15.8048 7.89041 15.5013 7.9284 15.0888C7.96639 14.6763 7.66281 14.3112 7.25035 14.2732C6.67253 14.2199 6.09096 13.9525 5.63537 13.4735" fill="#101010"/>
<path fill-rule="evenodd" clip-rule="evenodd" d="M14.0743 6.91124C14.1123 6.49877 14.4775 6.1952 14.8899 6.23319C15.832 6.31996 16.7503 6.75244 17.4547 7.49323C19.0495 9.17268 19.0499 11.907 17.455 13.5865L15.265 15.8865C15.2648 15.8866 15.2651 15.8863 15.265 15.8865C13.6481 17.5886 10.9833 17.5859 9.35924 15.8885L9.35729 15.8865C7.7625 14.2071 7.76242 11.4733 9.35704 9.79381C9.35712 9.79373 9.35696 9.7939 9.35704 9.79381L10.4468 8.64408C10.7318 8.34345 11.2065 8.33074 11.5071 8.61569C11.8077 8.90063 11.8204 9.37534 11.5355 9.67597L10.4455 10.826C9.40066 11.9262 9.39985 13.7519 10.444 14.8525C11.4799 15.934 13.1544 15.9307 14.1773 14.8536L16.3673 12.5536C16.3674 12.5534 16.3672 12.5537 16.3673 12.5536C17.4119 11.4531 17.4123 9.62728 16.3676 8.52682C15.912 8.04762 15.3303 7.7801 14.7524 7.72687C14.3399 7.68888 14.0363 7.32371 14.0743 6.91124Z" fill="#101010"/>
<path fill-rule="evenodd" clip-rule="evenodd" d="M2.09662 2.09467C3.43109 0.760201 5.42798 0.25 8.00195 0.25H14.002C16.5759 0.25 18.5728 0.760201 19.9073 2.09467C21.2418 3.42914 21.752 5.42603 21.752 8V14C21.752 16.574 21.2418 18.5709 19.9073 19.9053C18.5728 21.2398 16.5759 21.75 14.002 21.75H8.00195C5.42798 21.75 3.43109 21.2398 2.09662 19.9053C0.762154 18.5709 0.251953 16.574 0.251953 14V8C0.251953 5.42603 0.762154 3.42914 2.09662 2.09467ZM3.15728 3.15533C2.24175 4.07086 1.75195 5.57397 1.75195 8V14C1.75195 16.426 2.24175 17.9291 3.15728 18.8447C4.07281 19.7602 5.57593 20.25 8.00195 20.25H14.002C16.428 20.25 17.9311 19.7602 18.8466 18.8447C19.7622 17.9291 20.252 16.426 20.252 14V8C20.252 5.57397 19.7622 4.07086 18.8466 3.15533C17.9311 2.2398 16.428 1.75 14.002 1.75H8.00195C5.57593 1.75 4.07281 2.2398 3.15728 3.15533Z" fill="#101010"/>
</svg>
