<svg width="22" height="22" viewBox="0 0 22 22" fill="none" xmlns="http://www.w3.org/2000/svg">
<path fill-rule="evenodd" clip-rule="evenodd" d="M12.2445 7.91131C11.6509 6.83673 10.3118 6.48524 9.26876 7.13622L9.26672 7.1375L9.26672 7.13749L6.92675 8.58749C6.92674 8.58749 6.92673 8.5875 6.92672 8.5875C5.84844 9.25575 5.46933 10.7162 6.0794 11.8296L6.0797 11.8301C6.34026 12.3066 6.74655 12.6377 7.20253 12.8068C7.59088 12.9509 7.78891 13.3825 7.64485 13.7708C7.50078 14.1592 7.06917 14.3572 6.68082 14.2132C5.89687 13.9223 5.2032 13.3535 4.76377 12.5501M12.2445 7.91131C12.8538 9.02458 12.4746 10.4844 11.3966 11.1525C11.3833 11.1607 11.3703 11.1693 11.3576 11.1783L11.0476 11.3984C10.7098 11.6381 10.6303 12.1063 10.87 12.444C11.1098 12.7818 11.5779 12.8613 11.9157 12.6216L12.2077 12.4144C13.9532 11.3172 14.5454 8.98899 13.5594 7.18955L13.5583 7.18765C12.5518 5.36335 10.2522 4.75514 8.47566 5.86304L6.13662 7.31246L6.13659 7.31247C4.37507 8.40412 3.77413 10.7433 4.76364 12.5498" fill="#101010"/>
<path fill-rule="evenodd" clip-rule="evenodd" d="M14.409 8.18918C14.553 7.80082 14.9846 7.60279 15.373 7.74686C16.1569 8.03767 16.8506 8.60649 17.2901 9.40992M14.409 8.18918C14.2649 8.57753 14.4629 9.00914 14.8513 9.15321L14.409 8.18918ZM14.8513 9.15321C15.3073 9.32237 15.7136 9.65342 15.9741 10.1299L14.8513 9.15321ZM11.1838 9.51598C11.4235 9.85378 11.344 10.322 11.0062 10.5617L10.6962 10.7817C10.6835 10.7907 10.6705 10.7993 10.6572 10.8075C9.57922 11.4756 9.20001 12.9354 9.80936 14.0487C10.4029 15.1233 11.742 15.4747 12.785 14.8238L12.7871 14.8225L15.1271 13.3725C15.1271 13.3725 15.1271 13.3725 15.1271 13.3725C16.2054 12.7043 16.5845 11.2438 15.9744 10.1304L15.9741 10.1299M11.1838 9.51598C10.9441 9.17818 10.4759 9.09868 10.1381 9.33839L11.1838 9.51598ZM10.1381 9.33839L9.84614 9.54559L10.1381 9.33839ZM9.84614 9.54559C8.10062 10.6428 7.50841 12.971 8.49441 14.7704L8.49545 14.7723C9.50194 16.5966 11.8015 17.2048 13.578 16.097C13.5784 16.0968 13.5788 16.0965 13.5792 16.0963L15.9172 14.6476L15.9172 14.6475C17.6788 13.5559 18.2797 11.2167 17.2902 9.41015" fill="#101010"/>
<path fill-rule="evenodd" clip-rule="evenodd" d="M11.002 1.75C5.89332 1.75 1.75195 5.89137 1.75195 11C1.75195 16.1086 5.89332 20.25 11.002 20.25C16.1106 20.25 20.252 16.1086 20.252 11C20.252 5.89137 16.1106 1.75 11.002 1.75ZM0.251953 11C0.251953 5.06294 5.06489 0.25 11.002 0.25C16.939 0.25 21.752 5.06294 21.752 11C21.752 16.9371 16.939 21.75 11.002 21.75C5.06489 21.75 0.251953 16.9371 0.251953 11Z" fill="#101010"/>
</svg>
