<svg width="20" height="20" viewBox="0 0 20 20" fill="none" xmlns="http://www.w3.org/2000/svg">
<path fill-rule="evenodd" clip-rule="evenodd" d="M3.46331 8.41092C3.75555 8.70446 3.75449 9.17933 3.46095 9.47157C1.50757 11.4163 1.51248 14.5814 3.46331 16.5409C5.408 18.4943 8.57311 18.4894 10.5327 16.5386C12.4875 14.5924 12.4892 11.4282 10.5315 9.47039C10.2386 9.1775 10.2386 8.70263 10.5315 8.40973C10.8244 8.11684 11.2992 8.11684 11.5921 8.40973C14.1344 10.952 14.1361 15.0678 11.5909 17.6016C9.05049 20.1307 4.9356 20.1458 2.40029 17.5992C-0.128876 15.0588 -0.143972 10.9439 2.40265 8.40855C2.6962 8.11631 3.17107 8.11737 3.46331 8.41092Z" fill="#101010"/>
<path fill-rule="evenodd" clip-rule="evenodd" d="M16.5527 3.45147C14.4933 1.40079 11.1682 1.39567 9.12337 3.44921C7.07414 5.5072 7.07576 8.83319 9.12224 10.8797C9.41514 11.1726 9.41514 11.6474 9.12224 11.9403C8.82935 12.2332 8.35448 12.2332 8.06158 11.9403C5.42807 9.30682 5.42969 5.03282 8.06045 2.39081C10.6957 -0.255656 14.9706 -0.240776 17.6111 2.38855C20.2576 5.02375 20.2427 9.29865 17.6134 11.9392C17.3211 12.2327 16.8462 12.2337 16.5527 11.9415C16.2592 11.6492 16.2582 11.1743 16.5505 10.8808C18.6011 8.82137 18.6063 5.49626 16.5527 3.45147Z" fill="#101010"/>
</svg>
