<svg width="20" height="22" viewBox="0 0 20 22" fill="none" xmlns="http://www.w3.org/2000/svg">
<path fill-rule="evenodd" clip-rule="evenodd" d="M6.5 10C6.5 9.58579 6.83579 9.25 7.25 9.25H12.75C13.1642 9.25 13.5 9.58579 13.5 10C13.5 10.4142 13.1642 10.75 12.75 10.75H7.25C6.83579 10.75 6.5 10.4142 6.5 10Z" fill="#101010"/>
<path fill-rule="evenodd" clip-rule="evenodd" d="M10 6.5C10.4142 6.5 10.75 6.83579 10.75 7.25V12.75C10.75 13.1642 10.4142 13.5 10 13.5C9.58579 13.5 9.25 13.1642 9.25 12.75V7.25C9.25 6.83579 9.58579 6.5 10 6.5Z" fill="#101010"/>
<path fill-rule="evenodd" clip-rule="evenodd" d="M10.0034 1.75C6.58671 1.74769 3.24485 3.73032 2.35162 7.65591C1.29456 12.3261 4.18829 16.3762 6.91039 18.9997C8.6409 20.661 11.3609 20.659 13.0794 19.0004L13.0807 18.999C15.8127 16.3756 18.7059 12.3354 17.6487 7.6656L17.6487 7.66556C16.7602 3.73971 13.4204 1.75231 10.0034 1.75ZM19.1117 7.33441C18.0402 2.60029 13.985 0.252693 10.0045 0.250002C6.02383 0.247312 1.96581 2.58953 0.888886 7.32364L0.888711 7.32441C-0.353991 12.8139 3.07199 17.3836 5.86975 20.08L5.87069 20.0809C8.18009 22.2989 11.8193 22.3008 14.1207 20.08C16.9285 17.3834 20.3544 12.8239 19.1117 7.33441Z" fill="#101010"/>
</svg>
