<svg width="20" height="22" viewBox="0 0 20 22" fill="none" xmlns="http://www.w3.org/2000/svg">
<path fill-rule="evenodd" clip-rule="evenodd" d="M10.0034 1.75C6.58671 1.74769 3.24485 3.73032 2.35162 7.65591C1.29456 12.3261 4.18829 16.3762 6.91039 18.9997C8.6409 20.661 11.3609 20.659 13.0794 19.0004L13.0807 18.999C15.8127 16.3756 18.7059 12.3354 17.6487 7.6656L17.6487 7.66556C16.7602 3.73971 13.4204 1.75231 10.0034 1.75ZM19.1117 7.33441C18.0402 2.60029 13.985 0.252693 10.0045 0.250002C6.02383 0.247312 1.96581 2.58953 0.888886 7.32364L0.888711 7.32441C-0.353991 12.8139 3.07199 17.3836 5.86975 20.08L5.87069 20.0809C8.18009 22.2989 11.8193 22.3008 14.1207 20.08C16.9285 17.3834 20.3544 12.8239 19.1117 7.33441Z" fill="#101010"/>
<path fill-rule="evenodd" clip-rule="evenodd" d="M7.50971 7.46967C7.8026 7.17678 8.27748 7.17678 8.57037 7.46967L12.5304 11.4297C12.8233 11.7226 12.8233 12.1974 12.5304 12.4903C12.2375 12.7832 11.7626 12.7832 11.4697 12.4903L7.50971 8.53033C7.21682 8.23744 7.21682 7.76256 7.50971 7.46967Z" fill="#101010"/>
<path fill-rule="evenodd" clip-rule="evenodd" d="M12.4903 7.50971C12.7832 7.8026 12.7832 8.27748 12.4903 8.57037L8.53033 12.5304C8.23744 12.8233 7.76256 12.8233 7.46967 12.5304C7.17678 12.2375 7.17678 11.7626 7.46967 11.4697L11.4297 7.50971C11.7226 7.21682 12.1974 7.21682 12.4903 7.50971Z" fill="#101010"/>
</svg>
