<svg width="22" height="22" viewBox="0 0 22 22" fill="none" xmlns="http://www.w3.org/2000/svg">
<path fill-rule="evenodd" clip-rule="evenodd" d="M10.9999 6.93994C9.68566 6.93994 8.62988 8.00259 8.62988 9.30994C8.62988 10.183 9.09936 10.9422 9.79953 11.3531C10.1568 11.5628 10.2764 12.0224 10.0667 12.3796C9.85702 12.7368 9.39746 12.8564 9.04023 12.6468C7.9004 11.9777 7.12988 10.7369 7.12988 9.30994C7.12988 7.1773 8.8541 5.43994 10.9999 5.43994C12.4277 5.43994 13.6697 6.21149 14.3385 7.36334C14.5465 7.72155 14.4247 8.18054 14.0665 8.38853C13.7083 8.59652 13.2493 8.47475 13.0413 8.11654C12.6301 7.4084 11.872 6.93994 10.9999 6.93994Z" fill="#101010"/>
<path fill-rule="evenodd" clip-rule="evenodd" d="M9.37413 1.90401C6.58272 2.44073 4.11156 4.35537 3.36137 7.65622L3.36129 7.65657C2.60795 10.9639 3.82482 13.952 5.5949 16.3666C5.83979 16.7007 5.7675 17.17 5.43343 17.4149C5.09937 17.6598 4.63003 17.5875 4.38514 17.2534C2.47527 14.6481 1.01217 11.2163 1.89867 7.32379M9.37413 1.90401C12.1895 1.36267 15.2493 2.24008 17.1044 4.46083L9.37413 1.90401ZM9.0909 0.430993C12.3605 -0.197669 16.0007 0.799926 18.2556 3.49917C18.5212 3.81706 18.4787 4.29004 18.1608 4.55559C17.843 4.82115 17.37 4.77872 17.1044 4.46083M9.0909 0.430993C5.79741 1.06425 2.79865 3.36449 1.89875 7.32344L9.0909 0.430993Z" fill="#101010"/>
<path fill-rule="evenodd" clip-rule="evenodd" d="M19.2145 6.76855C19.6185 6.6771 20.0202 6.93046 20.1116 7.33445C21.3544 12.8242 17.9282 17.3837 15.1203 20.0804C12.8189 22.3009 9.17992 22.2988 6.87063 20.081C6.57188 19.7941 6.56229 19.3193 6.8492 19.0205C7.13612 18.7218 7.6109 18.7122 7.90965 18.9991C9.64012 20.661 12.3606 20.6592 14.0793 19.0004L14.0807 18.9991C16.8126 16.3756 19.7058 12.3355 18.6486 7.66563C18.5572 7.26164 18.8106 6.86001 19.2145 6.76855Z" fill="#101010"/>
<path fill-rule="evenodd" clip-rule="evenodd" d="M21.5303 0.46967C21.8232 0.762563 21.8232 1.23744 21.5303 1.53033L1.53033 21.5303C1.23744 21.8232 0.762563 21.8232 0.46967 21.5303C0.176777 21.2374 0.176777 20.7626 0.46967 20.4697L20.4697 0.46967C20.7626 0.176777 21.2374 0.176777 21.5303 0.46967Z" fill="#101010"/>
</svg>
