<svg width="22" height="22" viewBox="0 0 22 22" fill="none" xmlns="http://www.w3.org/2000/svg">
<path fill-rule="evenodd" clip-rule="evenodd" d="M12.535 12.8834C12.8645 12.6324 13.3351 12.696 13.5861 13.0255C14.0034 13.5732 14.2496 14.2621 14.2496 15C14.2496 16.7942 12.7938 18.25 10.9996 18.25C9.95171 18.25 9.0196 17.7398 8.42809 16.9812C8.17341 16.6545 8.23175 16.1832 8.55842 15.9285C8.88508 15.6739 9.35635 15.7322 9.61104 16.0589C9.93953 16.4802 10.4474 16.75 10.9996 16.75C11.9654 16.75 12.7496 15.9658 12.7496 15C12.7496 14.5979 12.6157 14.2269 12.393 13.9346C12.142 13.6051 12.2056 13.1345 12.535 12.8834Z" fill="#101010"/>
<path fill-rule="evenodd" clip-rule="evenodd" d="M2.53033 10.5303C2.01884 11.0418 1.75 11.9946 1.75 14V16C1.75 17.83 1.97406 18.7938 2.4049 19.3305C2.66418 19.6536 2.61249 20.1256 2.28946 20.3849C1.96643 20.6442 1.49438 20.5925 1.2351 20.2695C0.445939 19.2862 0.25 17.83 0.25 16V14C0.25 12.0054 0.481164 10.4582 1.46967 9.46967C2.45818 8.48116 4.00536 8.25 6 8.25H16C16.3728 8.25 16.7181 8.26032 17.0454 8.28137C18.6787 8.37443 19.9651 8.72351 20.7775 9.75286C21.5557 10.7389 21.75 12.1777 21.75 14V16C21.75 17.9946 21.5188 19.5418 20.5303 20.5303C19.5418 21.5188 17.9946 21.75 16 21.75H6C5.62611 21.75 5.27986 21.7396 4.95171 21.7184C4.53836 21.6918 4.22489 21.3351 4.25156 20.9217C4.27822 20.5084 4.63493 20.1949 5.04829 20.2216C5.34014 20.2404 5.65389 20.25 6 20.25H16C18.0054 20.25 18.9582 19.9812 19.4697 19.4697C19.9812 18.9582 20.25 18.0054 20.25 16V14C20.25 12.1823 20.0293 11.2261 19.6 10.6821C19.2054 10.1821 18.4928 9.86597 16.9575 9.77879L16.9517 9.77847L16.9517 9.77844C16.6599 9.75961 16.3461 9.75 16 9.75H6C3.99464 9.75 3.04182 10.0188 2.53033 10.5303Z" fill="#101010"/>
<path fill-rule="evenodd" clip-rule="evenodd" d="M6.70907 3.22924C6.00031 4.10912 5.75 5.38987 5.75 7V9C5.75 9.41421 5.41421 9.75 5 9.75C4.58579 9.75 4.25 9.41421 4.25 9V7C4.25 5.30013 4.49969 3.58088 5.54093 2.28826C6.61038 0.960615 8.37164 0.25 11 0.25C13.1378 0.25 14.7 0.601639 15.792 1.34162C16.9207 2.10651 17.437 3.20894 17.64 4.4378C17.7075 4.84648 17.4309 5.23249 17.0222 5.29998C16.6135 5.36747 16.2275 5.09088 16.16 4.6822C16.003 3.73106 15.6443 3.05349 14.9505 2.58338C14.22 2.08836 13.0122 1.75 11 1.75C8.62836 1.75 7.38962 2.38439 6.70907 3.22924Z" fill="#101010"/>
<path fill-rule="evenodd" clip-rule="evenodd" d="M21.5303 0.46967C21.8232 0.762563 21.8232 1.23744 21.5303 1.53033L1.53033 21.5303C1.23744 21.8232 0.762563 21.8232 0.46967 21.5303C0.176777 21.2374 0.176777 20.7626 0.46967 20.4697L20.4697 0.46967C20.7626 0.176777 21.2374 0.176777 21.5303 0.46967Z" fill="#101010"/>
</svg>
