<svg width="22" height="22" viewBox="0 0 22 22" fill="none" xmlns="http://www.w3.org/2000/svg">
<path fill-rule="evenodd" clip-rule="evenodd" d="M10.0755 3.25738C9.28508 3.89874 8.79303 4.9363 8.64767 6.62434C8.61213 7.03702 8.24878 7.34276 7.83609 7.30722C7.4234 7.27169 7.11766 6.90833 7.1532 6.49564C7.31784 4.58368 7.90578 3.08624 9.13037 2.0926C10.3343 1.11574 12.0168 0.73999 14.1104 0.73999H14.2404C16.5496 0.73999 18.3614 1.19778 19.577 2.41341C20.7926 3.62904 21.2504 5.44081 21.2504 7.74999V14.27C21.2504 16.5792 20.7926 18.3909 19.577 19.6066C18.3614 20.8222 16.5496 21.28 14.2404 21.28H14.1104C12.032 21.28 10.3596 20.9093 9.15816 19.9481C7.93506 18.9697 7.33934 17.4941 7.16367 15.6096C7.12523 15.1972 7.4284 14.8317 7.84082 14.7932C8.25325 14.7548 8.61875 15.058 8.6572 15.4704C8.81153 17.1259 9.30581 18.1453 10.0952 18.7768C10.9063 19.4257 12.1689 19.78 14.1104 19.78H14.2404C16.4013 19.78 17.7195 19.3428 18.5164 18.5459C19.3132 17.749 19.7504 16.4308 19.7504 14.27V7.74999C19.7504 5.58917 19.3132 4.27094 18.5164 3.47407C17.7195 2.6772 16.4013 2.23999 14.2404 2.23999H14.1104C12.1541 2.23999 10.8866 2.59924 10.0755 3.25738Z" fill="#101010"/>
<path fill-rule="evenodd" clip-rule="evenodd" d="M0.25 11C0.25 10.5858 0.585786 10.25 1 10.25H13.88C14.2942 10.25 14.63 10.5858 14.63 11C14.63 11.4142 14.2942 11.75 13.88 11.75H1C0.585786 11.75 0.25 11.4142 0.25 11Z" fill="#101010"/>
<path fill-rule="evenodd" clip-rule="evenodd" d="M11.1201 7.11963C11.413 6.82674 11.8878 6.82674 12.1807 7.11963L15.5307 10.4696C15.8236 10.7625 15.8236 11.2374 15.5307 11.5303L12.1807 14.8803C11.8878 15.1732 11.413 15.1732 11.1201 14.8803C10.8272 14.5874 10.8272 14.1125 11.1201 13.8196L13.9397 11L11.1201 8.18029C10.8272 7.8874 10.8272 7.41253 11.1201 7.11963Z" fill="#101010"/>
</svg>
