<svg width="18" height="18" viewBox="0 0 18 18" fill="none" xmlns="http://www.w3.org/2000/svg">
<path fill-rule="evenodd" clip-rule="evenodd" d="M8.14936 5.96967C8.44225 5.67678 8.91712 5.67678 9.21002 5.96967L11.77 8.52967C12.0629 8.82256 12.0629 9.29744 11.77 9.59033L9.21002 12.1503C8.91712 12.4432 8.44225 12.4432 8.14936 12.1503C7.85646 11.8574 7.85646 11.3826 8.14936 11.0897L10.179 9.06L8.14936 7.03033C7.85646 6.73744 7.85646 6.26256 8.14936 5.96967Z" fill="#101010"/>
<path fill-rule="evenodd" clip-rule="evenodd" d="M0.25 9.06C0.25 8.64578 0.585786 8.31 1 8.31H11.17C11.5842 8.31 11.92 8.64578 11.92 9.06C11.92 9.47421 11.5842 9.81 11.17 9.81H1C0.585786 9.81 0.25 9.47421 0.25 9.06Z" fill="#101010"/>
<path fill-rule="evenodd" clip-rule="evenodd" d="M8.25 1C8.25 0.585786 8.58579 0.25 9 0.25C11.3794 0.25 13.5714 1.05888 15.174 2.58123C16.7826 4.10922 17.75 6.31157 17.75 9C17.75 11.6884 16.7826 13.8908 15.174 15.4188C13.5714 16.9411 11.3794 17.75 9 17.75C8.58579 17.75 8.25 17.4142 8.25 17C8.25 16.5858 8.58579 16.25 9 16.25C11.0406 16.25 12.8486 15.5589 14.141 14.3312C15.4274 13.1092 16.25 11.3116 16.25 9C16.25 6.68843 15.4274 4.89078 14.141 3.66877C12.8486 2.44112 11.0406 1.75 9 1.75C8.58579 1.75 8.25 1.41421 8.25 1Z" fill="#101010"/>
</svg>
