<svg width="22" height="22" viewBox="0 0 22 22" fill="none" xmlns="http://www.w3.org/2000/svg">
<path fill-rule="evenodd" clip-rule="evenodd" d="M10.0755 3.25738C9.28508 3.89874 8.79303 4.9363 8.64767 6.62434C8.61213 7.03702 8.24878 7.34276 7.83609 7.30722C7.4234 7.27169 7.11766 6.90833 7.1532 6.49564C7.31784 4.58368 7.90578 3.08624 9.13037 2.0926C10.3343 1.11574 12.0168 0.73999 14.1104 0.73999H14.2404C16.5496 0.73999 18.3614 1.19778 19.577 2.41341C20.7926 3.62904 21.2504 5.44081 21.2504 7.74999V14.27C21.2504 16.5792 20.7926 18.3909 19.577 19.6066C18.3614 20.8222 16.5496 21.28 14.2404 21.28H14.1104C12.032 21.28 10.3596 20.9093 9.15816 19.9481C7.93506 18.9697 7.33934 17.4941 7.16367 15.6096C7.12523 15.1972 7.4284 14.8317 7.84082 14.7932C8.25325 14.7548 8.61875 15.058 8.6572 15.4704C8.81153 17.1259 9.30581 18.1453 10.0952 18.7768C10.9063 19.4257 12.1689 19.78 14.1104 19.78H14.2404C16.4013 19.78 17.7195 19.3428 18.5164 18.5459C19.3132 17.749 19.7504 16.4308 19.7504 14.27V7.74999C19.7504 5.58917 19.3132 4.27094 18.5164 3.47407C17.7195 2.6772 16.4013 2.23999 14.2404 2.23999H14.1104C12.1541 2.23999 10.8866 2.59924 10.0755 3.25738Z" fill="#101010"/>
<path fill-rule="evenodd" clip-rule="evenodd" d="M1.87012 11C1.87012 10.5858 2.2059 10.25 2.62012 10.25H14.0001C14.4143 10.25 14.7501 10.5858 14.7501 11C14.7501 11.4142 14.4143 11.75 14.0001 11.75H2.62012C2.2059 11.75 1.87012 11.4142 1.87012 11Z" fill="#101010"/>
<path fill-rule="evenodd" clip-rule="evenodd" d="M5.38033 7.11963C5.67322 7.41253 5.67322 7.8874 5.38033 8.18029L2.56066 11L5.38033 13.8196C5.67322 14.1125 5.67322 14.5874 5.38033 14.8803C5.08744 15.1732 4.61256 15.1732 4.31967 14.8803L0.96967 11.5303C0.676777 11.2374 0.676777 10.7625 0.96967 10.4696L4.31967 7.11963C4.61256 6.82674 5.08744 6.82674 5.38033 7.11963Z" fill="#101010"/>
</svg>
