<svg width="22" height="20" viewBox="0 0 22 20" fill="none" xmlns="http://www.w3.org/2000/svg">
<path fill-rule="evenodd" clip-rule="evenodd" d="M5.95999 1.8501C3.63813 1.8501 1.75 3.74037 1.75 6.09009C1.75 8.97064 3.07821 11.2775 4.75533 12.9948C6.02517 14.2952 7.46932 15.2292 8.61282 15.7857C7.61359 14.4501 6.88 12.7647 6.88 10.7401C6.88 8.26113 8.87055 6.25009 11.34 6.25009C12.4864 6.25009 13.5283 6.68354 14.3174 7.38648C15.1029 6.68248 16.1453 6.25009 17.29 6.25009C17.5693 6.25009 17.8419 6.27563 18.1066 6.32458C18.1088 6.24675 18.11 6.16855 18.11 6.09009C18.11 3.74037 16.2219 1.8501 13.9 1.8501C12.527 1.8501 11.3047 2.51004 10.5294 3.54088C10.3873 3.72983 10.1644 3.84071 9.92801 3.84009C9.69159 3.83946 9.46931 3.7274 9.32821 3.5377C8.56463 2.5111 7.34446 1.8501 5.95999 1.8501ZM10.3071 16.186L10.3067 16.1861L10.3071 16.186ZM0.25 6.09009C0.25 2.91981 2.80186 0.350098 5.95999 0.350098C7.5071 0.350098 8.90745 0.961804 9.93217 1.95815C10.961 0.963104 12.3592 0.350098 13.9 0.350098C17.0581 0.350098 19.61 2.91981 19.61 6.09009C19.61 6.54549 19.5775 6.98752 19.5239 7.40546C19.4939 7.63946 19.3556 7.84571 19.1504 7.96222C18.9453 8.07874 18.6973 8.09196 18.481 7.99789C18.1125 7.83771 17.7141 7.75009 17.29 7.75009C16.317 7.75009 15.4562 8.21989 14.9216 8.93794C14.7806 9.1273 14.5587 9.23924 14.3227 9.24008C14.0866 9.24092 13.8639 9.13056 13.7216 8.94221C13.1755 8.21938 12.3121 7.75009 11.34 7.75009C9.70945 7.75009 8.38 9.07904 8.38 10.7401C8.38 13.1325 9.64395 14.9937 11.1254 16.297C11.3051 16.4551 11.3986 16.6895 11.3769 16.9279C11.3553 17.1663 11.2211 17.38 11.0159 17.5032C10.9276 17.5562 10.8481 17.5859 10.803 17.6017C10.7878 17.607 10.7649 17.6146 10.7589 17.6166L10.7575 17.6171C10.756 17.6176 10.7548 17.618 10.754 17.6183C10.7488 17.6203 10.7435 17.6223 10.7382 17.6243C10.4792 17.7192 10.1849 17.7526 9.93001 17.7526C9.67774 17.7526 9.38695 17.7199 9.12997 17.6272C7.72854 17.1443 5.53578 15.9409 3.68217 14.0429C1.81679 12.1327 0.25 9.46954 0.25 6.09009Z" fill="#101010"/>
<path fill-rule="evenodd" clip-rule="evenodd" d="M11.3399 7.75C9.70933 7.75 8.37988 9.07895 8.37988 10.74C8.37988 13.1324 9.64382 14.9936 11.1253 16.2969L11.1255 16.297C12.2245 17.2646 13.4084 17.8827 14.1396 18.1293L14.1463 18.1316L14.1463 18.1316C14.146 18.1315 14.1505 18.1331 14.1604 18.1354C14.1701 18.1376 14.1831 18.1401 14.1994 18.1424C14.2325 18.1471 14.2722 18.15 14.3149 18.15C14.3575 18.15 14.3973 18.1471 14.4304 18.1424C14.4466 18.1401 14.4596 18.1376 14.4694 18.1354C14.4793 18.1331 14.4838 18.1315 14.4835 18.1316L14.4883 18.1299L14.4883 18.13C15.3502 17.8367 16.8156 17.0441 18.0557 15.7736C19.2866 14.5125 20.2499 12.8306 20.2499 10.74C20.2499 9.50553 19.5232 8.46039 18.4785 7.99681C18.1108 7.83726 17.7131 7.75 17.2899 7.75C16.3169 7.75 15.456 8.21979 14.9215 8.93785C14.7805 9.12721 14.5586 9.23915 14.3226 9.23999C14.0865 9.24082 13.8638 9.13047 13.7215 8.94212C13.1753 8.21929 12.312 7.75 11.3399 7.75ZM6.87988 10.74C6.87988 8.26103 8.87042 6.25 11.3399 6.25C12.4862 6.25 13.5282 6.68345 14.3173 7.38639C15.1027 6.68239 16.1452 6.25 17.2899 6.25C17.9258 6.25 18.5273 6.38237 19.0789 6.6222L19.0835 6.62419L19.0835 6.62421C20.6576 7.32114 21.7499 8.89536 21.7499 10.74C21.7499 13.3294 20.5482 15.3675 19.1291 16.8214C17.7201 18.265 16.0517 19.1821 14.9735 19.5493C14.7565 19.6243 14.5187 19.65 14.3149 19.65C14.1114 19.65 13.874 19.6244 13.6572 19.5497C12.7285 19.2358 11.374 18.5142 10.1343 17.4229C8.45582 15.9462 6.87988 13.7074 6.87988 10.74Z" fill="#101010"/>
</svg>
