<svg width="22" height="22" viewBox="0 0 22 22" fill="none" xmlns="http://www.w3.org/2000/svg">
<path fill-rule="evenodd" clip-rule="evenodd" d="M20.9378 4.54939C21.2001 4.62502 21.4006 4.83723 21.4613 5.10342C21.6565 5.96025 21.75 6.91799 21.75 8.00003V14C21.75 16.5747 21.2395 18.5693 19.9127 19.908C19.7723 20.0497 19.5812 20.1296 19.3817 20.13C19.1822 20.1305 18.9907 20.0514 18.8497 19.9104L12.4697 13.5304C12.329 13.3897 12.25 13.1989 12.25 13C12.25 12.8011 12.329 12.6104 12.4697 12.4697L20.1997 4.73971C20.3927 4.54666 20.6754 4.47376 20.9378 4.54939ZM14.0607 13L19.3217 18.2611C19.9289 17.3252 20.25 15.9643 20.25 14V8.00003C20.25 7.5927 20.2356 7.21131 20.2073 6.85337L14.0607 13Z" fill="#101010"/>
<path fill-rule="evenodd" clip-rule="evenodd" d="M3.15533 3.15533C2.2398 4.07086 1.75 5.57397 1.75 8V14C1.75 15.9167 2.05795 17.2629 2.64147 18.1925C3.14893 19.001 3.90987 19.5652 5.04287 19.8965L19.8965 5.04288C19.5653 3.90989 19.001 3.14894 18.1925 2.64148C17.2629 2.05795 15.9167 1.75 14 1.75H8C5.57397 1.75 4.07086 2.2398 3.15533 3.15533ZM2.09467 2.09467C3.42914 0.760201 5.42603 0.25 8 0.25H14C16.0433 0.25 17.7171 0.572052 18.99 1.37102C20.2935 2.18925 21.0815 3.44655 21.4611 5.10242C21.5187 5.3541 21.4429 5.61776 21.2603 5.80033L5.80032 21.2603C5.61774 21.4429 5.35408 21.5187 5.10241 21.461C3.44654 21.0814 2.18924 20.2935 1.37102 18.99C0.572048 17.7171 0.25 16.0433 0.25 14V8C0.25 5.42603 0.760201 3.42914 2.09467 2.09467Z" fill="#101010"/>
<path fill-rule="evenodd" clip-rule="evenodd" d="M12.4697 12.4697C12.7626 12.1768 13.2375 12.1768 13.5304 12.4697L19.9104 18.8497C20.0514 18.9907 20.1305 19.1822 20.1301 19.3817C20.1296 19.5812 20.0497 19.7723 19.908 19.9127C18.5694 21.2395 16.5748 21.75 14 21.75H8.00005C6.918 21.75 5.96024 21.6565 5.10342 21.4613C4.83723 21.4006 4.62502 21.2001 4.54939 20.9378C4.47376 20.6754 4.54666 20.3927 4.73971 20.1997L12.4697 12.4697ZM6.85337 20.2073C7.21131 20.2356 7.59271 20.25 8.00005 20.25H14C15.9643 20.25 17.3252 19.9289 18.2611 19.3217L13 14.0607L6.85337 20.2073Z" fill="#101010"/>
<path fill-rule="evenodd" clip-rule="evenodd" d="M8.11987 5.53247C7.12391 5.53247 6.21582 6.09228 5.97045 7.14953L5.97037 7.14986C5.66762 8.45169 6.48036 9.64814 7.39501 10.5149C7.8082 10.9038 8.44368 10.8985 8.84145 10.518L8.84405 10.5155L8.84405 10.5155C9.75501 9.6525 10.564 8.45377 10.2689 7.14771C10.0229 6.09164 9.11526 5.53247 8.11987 5.53247ZM8.11987 4.03247C9.66392 4.03247 11.2958 4.93766 11.7305 6.81042L11.7313 6.81412L11.7313 6.81412C12.2148 8.94649 10.8653 10.6665 9.87684 11.6033C8.89474 12.5413 7.35171 12.5356 6.36537 11.6057L6.36407 11.6044C5.37905 10.6713 4.01233 8.94811 4.50929 6.81042M8.11987 4.03247C6.57592 4.03247 4.94411 4.93756 4.50936 6.81009L8.11987 4.03247Z" fill="#101010"/>
<path fill-rule="evenodd" clip-rule="evenodd" d="M7.09473 7.69995C7.09473 7.14767 7.54244 6.69995 8.09473 6.69995H8.10371C8.65599 6.69995 9.10371 7.14767 9.10371 7.69995C9.10371 8.25224 8.65599 8.69995 8.10371 8.69995H8.09473C7.54244 8.69995 7.09473 8.25224 7.09473 7.69995Z" fill="#101010"/>
</svg>
