<svg width="22" height="20" viewBox="0 0 22 20" fill="none" xmlns="http://www.w3.org/2000/svg">
<path fill-rule="evenodd" clip-rule="evenodd" d="M7.54839 0.588965C7.97742 0.578004 8.44954 0.650002 8.85036 0.846628L8.85495 0.848879L14.1105 3.47167C14.234 3.53458 14.446 3.58272 14.7007 3.57529C14.9547 3.56787 15.1668 3.50756 15.289 3.43819C15.2891 3.43813 15.2889 3.43825 15.289 3.43819L17.6371 2.09928C17.6373 2.09913 17.6368 2.09943 17.6371 2.09928C18.598 1.54874 19.6444 1.41154 20.4966 1.90638C21.3489 2.40123 21.75 3.37809 21.75 4.48997V14.22C21.75 14.7061 21.5807 15.1909 21.3491 15.5879C21.1173 15.9852 20.7806 16.3677 20.3672 16.6082L20.3628 16.6108L16.0328 19.0908L16.0308 19.0919C15.6399 19.3142 15.1701 19.41 14.7417 19.421C14.3127 19.4319 13.8405 19.3599 13.4397 19.1633L13.4341 19.1606L8.17959 16.5283C8.0561 16.4654 7.84406 16.4172 7.58943 16.4247C7.33535 16.4321 7.12329 16.4924 7.0011 16.5617C7.00099 16.5618 7.00122 16.5617 7.0011 16.5617L4.653 17.9007C4.65276 17.9008 4.65324 17.9005 4.653 17.9007C3.69202 18.4512 2.64568 18.5884 1.79344 18.0936C0.941196 17.5987 0.540039 16.6218 0.540039 15.51V5.77997C0.540039 5.30032 0.705923 4.81843 0.936737 4.42162C1.16777 4.02443 1.5059 3.64015 1.92729 3.39916L6.25931 0.918C6.65018 0.69574 7.12002 0.599909 7.54839 0.588965ZM7.00077 2.22194C7.00049 2.22209 7.00104 2.22178 7.00077 2.22194L2.67279 4.70078C2.53448 4.77982 2.36719 4.94571 2.23334 5.17582C2.09916 5.40651 2.04004 5.62962 2.04004 5.77997V15.51C2.04004 16.2981 2.31388 16.6612 2.54664 16.7964C2.77918 16.9314 3.22825 16.9884 3.90708 16.5993L3.90853 16.5984L6.25853 15.2584C6.6464 15.0379 7.11496 14.9379 7.54565 14.9253C7.97515 14.9128 8.45204 14.9843 8.85802 15.1904C8.85884 15.1909 8.85966 15.1913 8.86048 15.1917L14.1004 17.8166C14.1011 17.817 14.1019 17.8174 14.1026 17.8177C14.2321 17.8806 14.4489 17.928 14.7034 17.9215C14.9595 17.9149 15.1693 17.856 15.2886 17.7884C15.2888 17.7883 15.2883 17.7886 15.2886 17.7884L19.6129 15.3117C19.6135 15.3114 19.614 15.311 19.6146 15.3107C19.7509 15.2308 19.9183 15.0637 20.0535 14.8321C20.1894 14.599 20.25 14.3738 20.25 14.22V4.48997C20.25 3.70185 19.9762 3.33871 19.7434 3.20356C19.5109 3.06854 19.0618 3.01158 18.383 3.40066L18.3815 3.40149L16.0315 4.74149C15.6437 4.96204 15.1751 5.06208 14.7444 5.07465C14.3151 5.08718 13.8385 5.0157 13.4327 4.80981L8.18789 2.19242C8.05848 2.12949 7.84146 2.08197 7.58669 2.08848C7.33065 2.09502 7.12004 2.15439 7.00077 2.22194Z" fill="#101010"/>
<path fill-rule="evenodd" clip-rule="evenodd" d="M7.56006 1.25C7.97427 1.25 8.31006 1.58579 8.31006 2V15C8.31006 15.4142 7.97427 15.75 7.56006 15.75C7.14585 15.75 6.81006 15.4142 6.81006 15V2C6.81006 1.58579 7.14585 1.25 7.56006 1.25Z" fill="#101010"/>
<path fill-rule="evenodd" clip-rule="evenodd" d="M14.73 3.87C15.1442 3.87 15.48 4.20578 15.48 4.62V18C15.48 18.4142 15.1442 18.75 14.73 18.75C14.3158 18.75 13.98 18.4142 13.98 18V4.62C13.98 4.20578 14.3158 3.87 14.73 3.87Z" fill="#101010"/>
</svg>
