<svg width="22" height="22" viewBox="0 0 22 22" fill="none" xmlns="http://www.w3.org/2000/svg">
<path fill-rule="evenodd" clip-rule="evenodd" d="M11.0003 1.78C5.91449 1.78 1.78027 5.91421 1.78027 11C1.78027 16.0858 5.91449 20.22 11.0003 20.22C13.3687 20.22 15.5201 19.3329 17.1458 17.855L17.1525 17.8489L17.1525 17.849C19.037 16.177 20.2203 13.719 20.2203 11C20.2203 8.28096 19.037 5.82304 17.1525 4.15101L17.1457 4.14499L17.1458 4.14495C15.5201 2.66707 13.3687 1.78 11.0003 1.78ZM0.280273 11C0.280273 5.08579 5.08606 0.279999 11.0003 0.279999C13.7502 0.279999 16.2575 1.31171 18.1514 3.03201C20.345 4.97992 21.7203 7.84067 21.7203 11C21.7203 14.1593 20.3449 17.0201 18.1514 18.968C16.2575 20.6883 13.7502 21.72 11.0003 21.72C5.08606 21.72 0.280273 16.9142 0.280273 11Z" fill="#101010"/>
<path fill-rule="evenodd" clip-rule="evenodd" d="M8.85028 5.70578C6.75405 6.55561 5.28027 8.60695 5.28027 11C5.28027 13.394 6.75476 15.444 8.84882 16.2836M8.85028 5.70578C9.28587 5.53193 9.63298 5.56469 9.8321 5.6744C9.99092 5.76191 10.2117 5.98464 10.2203 6.60486V15.3852C10.2117 16.0121 9.98983 16.2329 9.83349 16.3186C9.63546 16.4272 9.2874 16.459 8.84882 16.2836M10.5559 4.36061C11.3043 4.77291 11.7078 5.57435 11.7202 6.59086L11.7203 6.60001L11.7203 15.3991C11.7079 16.4189 11.3054 17.2223 10.5546 17.6339C9.84516 18.0228 9.00291 17.9608 8.29173 17.6764C5.64606 16.6159 3.78027 14.0259 3.78027 11C3.78027 7.97366 5.64576 5.38543 8.2887 4.31487L8.29173 4.31364C9.00545 4.02815 9.84779 3.97044 10.5559 4.36061Z" fill="#101010"/>
</svg>
