<svg width="22" height="22" viewBox="0 0 22 22" fill="none" xmlns="http://www.w3.org/2000/svg">
<path fill-rule="evenodd" clip-rule="evenodd" d="M12.6709 4.63965C12.6709 4.22543 13.0067 3.88965 13.4209 3.88965H20.7009C21.1151 3.88965 21.4509 4.22543 21.4509 4.63965C21.4509 5.05386 21.1151 5.38965 20.7009 5.38965H13.4209C13.0067 5.38965 12.6709 5.05386 12.6709 4.63965Z" fill="#101010"/>
<path fill-rule="evenodd" clip-rule="evenodd" d="M0.549805 4.64014C0.549805 4.22592 0.885591 3.89014 1.2998 3.89014H8.5798C8.99402 3.89014 9.3298 4.22592 9.3298 4.64014C9.3298 5.05435 8.99402 5.39014 8.5798 5.39014H1.2998C0.885591 5.39014 0.549805 5.05435 0.549805 4.64014Z" fill="#101010"/>
<path fill-rule="evenodd" clip-rule="evenodd" d="M12.6709 14.3301C12.6709 13.9159 13.0067 13.5801 13.4209 13.5801H20.7009C21.1151 13.5801 21.4509 13.9159 21.4509 14.3301C21.4509 14.7443 21.1151 15.0801 20.7009 15.0801H13.4209C13.0067 15.0801 12.6709 14.7443 12.6709 14.3301Z" fill="#101010"/>
<path fill-rule="evenodd" clip-rule="evenodd" d="M12.6709 20.3896C12.6709 19.9754 13.0067 19.6396 13.4209 19.6396H20.7009C21.1151 19.6396 21.4509 19.9754 21.4509 20.3896C21.4509 20.8039 21.1151 21.1396 20.7009 21.1396H13.4209C13.0067 21.1396 12.6709 20.8039 12.6709 20.3896Z" fill="#101010"/>
<path fill-rule="evenodd" clip-rule="evenodd" d="M17.0898 0.25C17.5041 0.25 17.8398 0.585786 17.8398 1V8.27C17.8398 8.68421 17.5041 9.02 17.0898 9.02C16.6756 9.02 16.3398 8.68421 16.3398 8.27V1C16.3398 0.585786 16.6756 0.25 17.0898 0.25Z" fill="#101010"/>
<path fill-rule="evenodd" clip-rule="evenodd" d="M9.1105 13.2C9.40319 13.4931 9.40286 13.968 9.10977 14.2607L1.82977 21.5307C1.53668 21.8234 1.0618 21.823 0.76911 21.5299C0.476418 21.2369 0.476745 20.762 0.769839 20.4693L8.04984 13.1993C8.34293 12.9066 8.81781 12.9069 9.1105 13.2Z" fill="#101010"/>
<path fill-rule="evenodd" clip-rule="evenodd" d="M0.76911 13.2C1.0618 12.9069 1.53668 12.9066 1.82977 13.1993L9.10977 20.4693C9.40286 20.762 9.40319 21.2369 9.1105 21.5299C8.81781 21.823 8.34293 21.8234 8.04984 21.5307L0.769839 14.2607C0.476745 13.968 0.476418 13.4931 0.76911 13.2Z" fill="#101010"/>
</svg>
