<svg width="22" height="22" viewBox="0 0 22 22" fill="none" xmlns="http://www.w3.org/2000/svg">
<path fill-rule="evenodd" clip-rule="evenodd" d="M15.25 2C15.25 1.58579 15.5858 1.25 16 1.25H20C20.4142 1.25 20.75 1.58579 20.75 2V6C20.75 6.41421 20.4142 6.75 20 6.75C19.5858 6.75 19.25 6.41421 19.25 6V2.75H16C15.5858 2.75 15.25 2.41421 15.25 2Z" fill="#101010"/>
<path fill-rule="evenodd" clip-rule="evenodd" d="M20.5303 1.46967C20.8232 1.76256 20.8232 2.23744 20.5303 2.53033L14.5303 8.53033C14.2374 8.82322 13.7626 8.82322 13.4697 8.53033C13.1768 8.23744 13.1768 7.76256 13.4697 7.46967L19.4697 1.46967C19.7626 1.17678 20.2374 1.17678 20.5303 1.46967Z" fill="#101010"/>
<path fill-rule="evenodd" clip-rule="evenodd" d="M2 15.25C2.41421 15.25 2.75 15.5858 2.75 16V19.25H6C6.41421 19.25 6.75 19.5858 6.75 20C6.75 20.4142 6.41421 20.75 6 20.75H2C1.58579 20.75 1.25 20.4142 1.25 20V16C1.25 15.5858 1.58579 15.25 2 15.25Z" fill="#101010"/>
<path fill-rule="evenodd" clip-rule="evenodd" d="M8.53033 13.4697C8.82322 13.7626 8.82322 14.2374 8.53033 14.5303L2.53033 20.5303C2.23744 20.8232 1.76256 20.8232 1.46967 20.5303C1.17678 20.2374 1.17678 19.7626 1.46967 19.4697L7.46967 13.4697C7.76256 13.1768 8.23744 13.1768 8.53033 13.4697Z" fill="#101010"/>
<path fill-rule="evenodd" clip-rule="evenodd" d="M0.25 11C0.25 5.06579 5.06579 0.25 11 0.25C11.7404 0.25 12.4696 0.325085 13.1671 0.464577C13.5733 0.545811 13.8367 0.94093 13.7555 1.3471C13.6742 1.75327 13.2791 2.01668 12.8729 1.93545C12.2704 1.81494 11.6396 1.75 11 1.75C5.89421 1.75 1.75 5.89421 1.75 11C1.75 11.6393 1.81487 12.2593 1.935 12.8507C2.01746 13.2566 1.75523 13.6525 1.34931 13.735C0.943383 13.8174 0.547475 13.5552 0.465022 13.1493C0.325159 12.4607 0.25 11.7407 0.25 11Z" fill="#101010"/>
<path fill-rule="evenodd" clip-rule="evenodd" d="M20.6526 8.26459C21.0587 8.18335 21.4538 8.44677 21.5351 8.85294C21.6743 9.54928 21.7497 10.2686 21.7497 11C21.7497 16.9342 16.9339 21.75 10.9997 21.75C10.2593 21.75 9.53001 21.6749 8.83255 21.5354C8.42638 21.4542 8.16297 21.0591 8.2442 20.6529C8.32544 20.2468 8.72055 19.9833 9.12672 20.0646C9.72926 20.1851 10.36 20.25 10.9997 20.25C16.1054 20.25 20.2497 16.1058 20.2497 11C20.2497 10.3715 20.1849 9.75076 20.0642 9.14711C19.983 8.74094 20.2464 8.34582 20.6526 8.26459Z" fill="#101010"/>
</svg>
