<svg width="22" height="22" viewBox="0 0 22 22" fill="none" xmlns="http://www.w3.org/2000/svg">
<path fill-rule="evenodd" clip-rule="evenodd" d="M2.09467 2.09467C3.42914 0.760201 5.42603 0.25 8 0.25H14C16.574 0.25 18.5709 0.760201 19.9053 2.09467C21.2398 3.42914 21.75 5.42603 21.75 8V14C21.75 16.574 21.2398 18.5709 19.9053 19.9053C18.5709 21.2398 16.574 21.75 14 21.75H8C5.42603 21.75 3.42914 21.2398 2.09467 19.9053C0.760201 18.5709 0.25 16.574 0.25 14V8C0.25 5.42603 0.760201 3.42914 2.09467 2.09467ZM3.15533 3.15533C2.2398 4.07086 1.75 5.57397 1.75 8V14C1.75 16.426 2.2398 17.9291 3.15533 18.8447C4.07086 19.7602 5.57397 20.25 8 20.25H14C16.426 20.25 17.9291 19.7602 18.8447 18.8447C19.7602 17.9291 20.25 16.426 20.25 14V8C20.25 5.57397 19.7602 4.07086 18.8447 3.15533C17.9291 2.2398 16.426 1.75 14 1.75H8C5.57397 1.75 4.07086 2.2398 3.15533 3.15533Z" fill="#101010"/>
<path fill-rule="evenodd" clip-rule="evenodd" d="M17.5303 4.46967C17.8232 4.76256 17.8232 5.23744 17.5303 5.53033L5.53033 17.5303C5.23744 17.8232 4.76256 17.8232 4.46967 17.5303C4.17678 17.2374 4.17678 16.7626 4.46967 16.4697L16.4697 4.46967C16.7626 4.17678 17.2374 4.17678 17.5303 4.46967Z" fill="#101010"/>
<path fill-rule="evenodd" clip-rule="evenodd" d="M12.25 5C12.25 4.58579 12.5858 4.25 13 4.25H17C17.4142 4.25 17.75 4.58579 17.75 5V9C17.75 9.41421 17.4142 9.75 17 9.75C16.5858 9.75 16.25 9.41421 16.25 9V5.75H13C12.5858 5.75 12.25 5.41421 12.25 5Z" fill="#101010"/>
<path fill-rule="evenodd" clip-rule="evenodd" d="M5 12.25C5.41421 12.25 5.75 12.5858 5.75 13V16.25H9C9.41421 16.25 9.75 16.5858 9.75 17C9.75 17.4142 9.41421 17.75 9 17.75H5C4.58579 17.75 4.25 17.4142 4.25 17V13C4.25 12.5858 4.58579 12.25 5 12.25Z" fill="#101010"/>
</svg>
