<svg width="22" height="22" viewBox="0 0 22 22" fill="none" xmlns="http://www.w3.org/2000/svg">
<path fill-rule="evenodd" clip-rule="evenodd" d="M11 1.75C7.54421 1.75 4.75 4.54421 4.75 8C4.75 9.29761 5.13372 10.4828 5.79286 11.4722C6.75976 12.9036 8.28645 13.9097 10.0582 14.1678C10.0656 14.1689 10.073 14.1701 10.0803 14.1714C10.3755 14.2235 10.6818 14.25 11 14.25C11.3182 14.25 11.6245 14.2235 11.9197 14.1714C11.9245 14.1706 11.9294 14.1698 11.9342 14.169C11.9368 14.1686 11.9393 14.1682 11.9418 14.1678C13.7135 13.9097 15.2402 12.9036 16.2071 11.4722C16.8663 10.4828 17.25 9.29761 17.25 8C17.25 4.54421 14.4558 1.75 11 1.75ZM3.25 8C3.25 3.71579 6.71579 0.25 11 0.25C15.2842 0.25 18.75 3.71579 18.75 8C18.75 9.60162 18.2742 11.0758 17.454 12.306L17.4516 12.3096C16.2605 14.0743 14.372 15.3263 12.1692 15.6505C11.7879 15.7171 11.398 15.75 11 15.75C10.602 15.75 10.2121 15.7171 9.8308 15.6505C7.62798 15.3263 5.73954 14.0743 4.54836 12.3096L4.54595 12.306L4.54596 12.306C3.72582 11.0758 3.25 9.60162 3.25 8Z" fill="#101010"/>
<path fill-rule="evenodd" clip-rule="evenodd" d="M5.24198 11.1533C5.46489 11.1748 5.66657 11.2947 5.79185 11.4803C6.75869 12.9127 8.28593 13.9195 10.0584 14.1778C10.0658 14.1788 10.0732 14.18 10.0806 14.1813C10.34 14.2271 10.6081 14.2531 10.8853 14.2588C10.923 14.2529 10.9613 14.2499 10.9999 14.2499C11.0387 14.2499 11.0772 14.2529 11.1151 14.2588C11.3923 14.2531 11.6604 14.2271 11.9199 14.1813C11.9273 14.18 11.9347 14.1788 11.9421 14.1778C13.7145 13.9195 15.2417 12.9127 16.2086 11.4803C16.3339 11.2947 16.5355 11.1748 16.7585 11.1533C16.9814 11.1319 17.2022 11.2112 17.3605 11.3696L21.2585 15.2675C22.2361 16.2315 21.7421 17.8873 20.4231 18.1997L18.7775 18.5886C18.7769 18.5888 18.7764 18.5889 18.7758 18.5891C18.6655 18.6165 18.6081 18.6897 18.5933 18.7584L18.5898 18.7736L18.2399 20.2432C18.2399 20.2434 18.24 20.2431 18.2399 20.2432C17.9069 21.644 16.1262 22.0597 15.2009 20.9682L11.0007 16.1428L6.7998 20.9779C5.87456 22.0698 4.09366 21.6546 3.76061 20.2536L3.41147 18.7872C3.41137 18.7868 3.41127 18.7864 3.41117 18.7859C3.38561 18.6829 3.30689 18.6175 3.23752 18.602L3.22769 18.5999L1.57771 18.2098C0.249113 17.8951 -0.227273 16.2367 0.739888 15.2696L4.63989 11.3696C4.79824 11.2112 5.01906 11.1319 5.24198 11.1533ZM12.5178 15.601L16.3442 19.997C16.4801 20.1586 16.7338 20.0932 16.7805 19.8966L17.1291 18.4327C17.2767 17.7662 17.797 17.2834 18.423 17.1311L18.4277 17.13L20.0774 16.7401C20.2771 16.6928 20.3233 16.4515 20.2048 16.3351L20.1999 16.3303L16.9058 13.0362C15.7937 14.3341 14.2643 15.2614 12.5178 15.601ZM9.48416 15.6013C7.73699 15.2619 6.20706 14.3345 5.09462 13.0362L1.80055 16.3302C1.66771 16.4631 1.73166 16.7048 1.92307 16.7501L3.56855 17.139C4.21617 17.2853 4.71466 17.7983 4.86897 18.4326L4.86983 18.4362L5.21982 19.9062C5.2665 20.1027 5.52039 20.1686 5.6563 20.0071L5.66399 19.9979L9.48416 15.6013Z" fill="#101010"/>
<path fill-rule="evenodd" clip-rule="evenodd" d="M11.0151 5.52705L10.5309 6.4954L9.86005 6.15999M11.0151 5.52705L11.4992 6.4954L11.0151 5.52705ZM11.0038 3.75C11.6301 3.75 12.0389 4.22071 12.2509 4.64459L12.8174 5.77761L13.8424 5.95004C14.3165 6.02734 14.8623 6.28588 15.0484 6.86973C15.2341 7.45246 14.9402 7.98047 14.6004 8.32033L13.8119 9.1088L14.0402 10.0887C14.0403 10.089 14.0402 10.0885 14.0402 10.0887C14.1499 10.557 14.1764 11.2677 13.615 11.6797C13.0527 12.0923 12.3831 11.8528 11.9674 11.605L11.0201 11.0461L10.068 11.6078C9.6543 11.8491 8.98766 12.0847 8.42794 11.678C7.86281 11.2674 7.89023 10.5566 7.99972 10.0893C7.99977 10.0891 7.99968 10.0895 7.99972 10.0893L8.2282 9.1088L7.43973 8.32033C7.10258 7.98318 6.80463 7.45676 6.99214 6.87218C7.1786 6.29086 7.72345 6.03368 8.18971 5.9514L8.19563 5.95036L9.2118 5.77945L9.77354 4.65597C9.97249 4.22575 10.3719 3.75 11.0038 3.75ZM11.4992 6.4954C11.605 6.70696 11.768 6.87232 11.923 6.98687L11.4992 6.4954ZM11.923 6.98687C12.0779 7.10135 12.2868 7.21096 12.5285 7.25009L11.923 6.98687ZM12.5285 7.25009L13.4023 7.39708L12.7097 8.08965C12.5292 8.27022 12.4198 8.49528 12.3623 8.69754C12.3053 8.89828 12.2786 9.14983 12.3407 9.40466L12.5241 10.1919L11.7349 9.72626C11.5 9.58467 11.2381 9.53748 11.0201 9.53748C10.802 9.53748 10.5401 9.58467 10.3052 9.72625L9.51602 10.1919L9.70048 9.4002L9.70396 9.38451C9.75403 9.14667 9.72935 8.90628 9.67669 8.71098C9.62465 8.518 9.52136 8.28063 9.33038 8.08965L8.63779 7.39708L9.51335 7.24979C9.51315 7.24983 9.51355 7.24976 9.51335 7.24979" fill="#101010"/>
</svg>
