<svg width="20" height="12" viewBox="0 0 20 12" fill="none" xmlns="http://www.w3.org/2000/svg">
<path fill-rule="evenodd" clip-rule="evenodd" d="M0.25 1C0.25 0.585786 0.585786 0.25 1 0.25H19C19.4142 0.25 19.75 0.585786 19.75 1C19.75 1.41421 19.4142 1.75 19 1.75H1C0.585786 1.75 0.25 1.41421 0.25 1Z" fill="#101010"/>
<path fill-rule="evenodd" clip-rule="evenodd" d="M0.25 6C0.25 5.58579 0.585786 5.25 1 5.25H19C19.4142 5.25 19.75 5.58579 19.75 6C19.75 6.41421 19.4142 6.75 19 6.75H1C0.585786 6.75 0.25 6.41421 0.25 6Z" fill="#101010"/>
<path fill-rule="evenodd" clip-rule="evenodd" d="M0.25 11C0.25 10.5858 0.585786 10.25 1 10.25H19C19.4142 10.25 19.75 10.5858 19.75 11C19.75 11.4142 19.4142 11.75 19 11.75H1C0.585786 11.75 0.25 11.4142 0.25 11Z" fill="#101010"/>
</svg>
