<svg width="18" height="20" viewBox="0 0 18 20" fill="none" xmlns="http://www.w3.org/2000/svg">
<path fill-rule="evenodd" clip-rule="evenodd" d="M14.5401 2.13989C13.5957 2.13989 12.8301 2.90548 12.8301 3.84989C12.8301 4.7943 13.5957 5.55989 14.5401 5.55989C15.4845 5.55989 16.2501 4.7943 16.2501 3.84989C16.2501 2.90549 15.4845 2.13989 14.5401 2.13989ZM11.3301 3.84989C11.3301 2.07706 12.7672 0.639893 14.5401 0.639893C16.3129 0.639893 17.7501 2.07706 17.7501 3.84989C17.7501 5.62273 16.3129 7.05989 14.5401 7.05989C12.7672 7.05989 11.3301 5.62272 11.3301 3.84989Z" fill="#101010"/>
<path fill-rule="evenodd" clip-rule="evenodd" d="M3.46001 2.13989C2.5156 2.13989 1.75 2.90549 1.75 3.84989C1.75 4.7943 2.5156 5.55989 3.46001 5.55989C4.40441 5.55989 5.17 4.7943 5.17 3.84989C5.17 2.90548 4.40441 2.13989 3.46001 2.13989ZM0.25 3.84989C0.25 2.07706 1.68718 0.639893 3.46001 0.639893C5.23284 0.639893 6.67 2.07706 6.67 3.84989C6.67 5.62272 5.23284 7.05989 3.46001 7.05989C1.68718 7.05989 0.25 5.62273 0.25 3.84989Z" fill="#101010"/>
<path fill-rule="evenodd" clip-rule="evenodd" d="M14.5401 14.4399C13.5957 14.4399 12.8301 15.2055 12.8301 16.1499C12.8301 17.0944 13.5957 17.8599 14.5401 17.8599C15.4845 17.8599 16.2501 17.0943 16.2501 16.1499C16.2501 15.2055 15.4845 14.4399 14.5401 14.4399ZM11.3301 16.1499C11.3301 14.3771 12.7672 12.9399 14.5401 12.9399C16.3129 12.9399 17.7501 14.3771 17.7501 16.1499C17.7501 17.9228 16.3129 19.3599 14.5401 19.3599C12.7672 19.3599 11.3301 17.9228 11.3301 16.1499Z" fill="#101010"/>
<path fill-rule="evenodd" clip-rule="evenodd" d="M3.46001 14.4399C2.5156 14.4399 1.75 15.2055 1.75 16.1499C1.75 17.0943 2.5156 17.8599 3.46001 17.8599C4.40441 17.8599 5.17 17.0944 5.17 16.1499C5.17 15.2055 4.40441 14.4399 3.46001 14.4399ZM0.25 16.1499C0.25 14.3771 1.68718 12.9399 3.46001 12.9399C5.23284 12.9399 6.67 14.3771 6.67 16.1499C6.67 17.9228 5.23284 19.3599 3.46001 19.3599C1.68717 19.3599 0.25 17.9228 0.25 16.1499Z" fill="#101010"/>
</svg>
