<svg width="22" height="22" viewBox="0 0 22 22" fill="none" xmlns="http://www.w3.org/2000/svg">
<path fill-rule="evenodd" clip-rule="evenodd" d="M4.10446 8.78744C4.84449 8.49677 5.6528 8.34003 6.49985 8.34003C9.90552 8.34003 12.7498 10.9288 12.7498 14.23C12.7498 15.1243 12.5351 15.9724 12.1531 16.73C12.1587 16.73 12.1643 16.73 12.1698 16.73C12.3047 16.73 12.4371 16.7663 12.553 16.8352L16.7484 19.3284C16.9132 19.4283 17.1414 19.301 17.1153 19.0804C17.1153 19.0802 17.1153 19.0806 17.1153 19.0804L16.7255 15.9219C16.6915 15.6466 16.8122 15.3751 17.0394 15.2159C18.9993 13.842 20.2498 11.6717 20.2498 9.23999C20.2498 5.15199 16.6851 1.75 12.1698 1.75C7.82232 1.75 4.35597 4.90396 4.10446 8.78744ZM2.58984 9.23999C2.58984 4.22799 6.92509 0.25 12.1698 0.25C17.4146 0.25 21.7498 4.22799 21.7498 9.23999C21.7498 12.0485 20.3805 14.5361 18.2679 16.1732L18.6045 18.9003C18.7777 20.3381 17.2289 21.3698 15.9745 20.6134C15.9734 20.6128 15.9724 20.6121 15.9713 20.6115L11.9605 18.228C11.54 18.2202 11.1259 18.1887 10.7185 18.1331C10.447 18.0961 10.2172 17.9139 10.1193 17.6579C10.0214 17.4019 10.071 17.1129 10.2486 16.9041C10.8809 16.1607 11.2498 15.2304 11.2498 14.23C11.2498 11.8511 9.17417 9.84003 6.49985 9.84003C5.48414 9.84003 4.5566 10.1283 3.78934 10.6283C3.57218 10.7699 3.29735 10.7892 3.0625 10.6795C2.82765 10.5699 2.66608 10.3467 2.63519 10.0894C2.60052 9.8004 2.58984 9.51873 2.58984 9.23999Z" fill="#101010"/>
<path fill-rule="evenodd" clip-rule="evenodd" d="M6.5 9.84003C5.48429 9.84003 4.55675 10.1283 3.78949 10.6283L3.78381 10.632L3.7838 10.632C2.53967 11.4269 1.75 12.7486 1.75 14.23C1.75 15.6433 2.47181 16.9117 3.62762 17.7139C3.85727 17.8733 3.97922 18.1471 3.94403 18.4244L3.72702 20.1345L6.11704 18.7151C6.23293 18.6463 6.36522 18.61 6.5 18.61C8.04178 18.61 9.39751 17.9357 10.2415 16.9127L10.2487 16.904L10.2487 16.9041C10.881 16.1607 11.25 15.2304 11.25 14.23C11.25 11.8511 9.17433 9.84003 6.5 9.84003ZM2.97335 9.36981C3.98552 8.71097 5.19692 8.34003 6.5 8.34003C9.90567 8.34003 12.75 10.9288 12.75 14.23C12.75 15.6076 12.2404 16.8757 11.395 17.8716C10.2994 19.1969 8.60295 20.0475 6.71148 20.1067L4.27686 21.5525C3.28464 22.1557 2.07485 21.3197 2.20513 20.2124L2.20593 20.2056L2.20596 20.2056L2.40119 18.6672C1.08817 17.6003 0.25 16.0138 0.25 14.23C0.25 12.1926 1.33907 10.4152 2.97335 9.36981Z" fill="#101010"/>
</svg>
