<svg width="22" height="22" viewBox="0 0 22 22" fill="none" xmlns="http://www.w3.org/2000/svg">
<path fill-rule="evenodd" clip-rule="evenodd" d="M15.8099 6.47303C15.3758 6.03721 14.6681 5.75549 13.553 5.76L13.55 5.76001H8.51999C8.34433 5.76001 8.17061 5.76882 8.00851 5.78589L7.99344 5.78732C7.0695 5.86577 6.48304 6.16517 6.11605 6.5962C5.74093 7.03679 5.5 7.72621 5.5 8.76999V11.91C5.5 13.4164 5.80664 14.0744 6.18239 14.4029C6.58319 14.7533 7.26685 14.92 8.51001 14.92H8.82001C9.06107 14.92 9.27945 14.9983 9.43533 15.0773C9.59194 15.1567 9.77601 15.2827 9.91448 15.4627L9.92121 15.4715L9.92115 15.4715L10.86 16.73C10.8602 16.7302 10.8604 16.7305 10.8605 16.7307C10.9079 16.7936 10.9488 16.8233 10.973 16.8364C10.9963 16.8492 11.0097 16.85 11.015 16.85C11.0203 16.85 11.0337 16.8492 11.057 16.8364C11.0812 16.8233 11.1221 16.7936 11.1695 16.7307C11.1696 16.7305 11.1698 16.7302 11.17 16.73L12.102 15.4807C12.3692 15.103 12.7988 14.92 13.21 14.92H13.52C14.5638 14.92 15.2532 14.6791 15.6938 14.3039C16.1248 13.9369 16.4242 13.3505 16.5027 12.4265L16.5041 12.4115C16.5212 12.2494 16.53 12.0757 16.53 11.9V8.76001C16.53 7.62688 16.245 6.90993 15.8099 6.47303ZM16.8726 5.41449C17.685 6.23009 18.03 7.39313 18.03 8.76001V11.9C18.03 12.1217 18.0191 12.3454 17.9967 12.5609C17.894 13.7537 17.4785 14.7545 16.6662 15.4461C15.8618 16.1309 14.7762 16.42 13.52 16.42H13.2727L12.3711 17.6285L12.37 17.63C12.0429 18.0661 11.5617 18.35 11.015 18.35C10.4683 18.35 9.98709 18.0661 9.66001 17.63L9.65887 17.6285L8.75731 16.42H8.51001C7.24317 16.42 6.04683 16.2768 5.19512 15.5321C4.31837 14.7656 4 13.5436 4 11.91V8.76999C4 7.51377 4.28907 6.42819 4.97394 5.62379C5.6655 4.81154 6.66629 4.39599 7.85904 4.29334C8.0746 4.27093 8.29824 4.26001 8.51999 4.26001H13.5485C14.9028 4.25479 16.0595 4.59812 16.8726 5.41449Z" fill="#101010"/>
<path fill-rule="evenodd" clip-rule="evenodd" d="M2.09467 2.09467C3.42914 0.760201 5.42603 0.25 8 0.25H14C16.574 0.25 18.5709 0.760201 19.9053 2.09467C21.2398 3.42914 21.75 5.42603 21.75 8V14C21.75 16.574 21.2398 18.5709 19.9053 19.9053C18.5709 21.2398 16.574 21.75 14 21.75H8C5.42603 21.75 3.42914 21.2398 2.09467 19.9053C0.760201 18.5709 0.25 16.574 0.25 14V8C0.25 5.42603 0.760201 3.42914 2.09467 2.09467ZM3.15533 3.15533C2.2398 4.07086 1.75 5.57397 1.75 8V14C1.75 16.426 2.2398 17.9291 3.15533 18.8447C4.07086 19.7602 5.57397 20.25 8 20.25H14C16.426 20.25 17.9291 19.7602 18.8447 18.8447C19.7602 17.9291 20.25 16.426 20.25 14V8C20.25 5.57397 19.7602 4.07086 18.8447 3.15533C17.9291 2.2398 16.426 1.75 14 1.75H8C5.57397 1.75 4.07086 2.2398 3.15533 3.15533Z" fill="#101010"/>
</svg>
