<svg width="22" height="22" viewBox="0 0 22 22" fill="none" xmlns="http://www.w3.org/2000/svg">
<path fill-rule="evenodd" clip-rule="evenodd" d="M3.03033 3.03033C2.22059 3.84007 1.75 5.11561 1.75 7V12C1.75 14.4353 2.24367 15.6541 2.99388 16.3106C3.76886 16.9887 5.01326 17.25 7 17.25H7.5C7.78282 17.25 8.05796 17.3383 8.27436 17.4455C8.48803 17.5515 8.7297 17.7182 8.90264 17.9535L10.4 19.95C10.6092 20.2289 10.8337 20.31 11 20.31C11.1663 20.31 11.3908 20.2289 11.6 19.95L13.1 17.95L13.1029 17.9462C13.4325 17.5124 13.9521 17.25 14.5 17.25H15C16.8844 17.25 18.1599 16.7794 18.9697 15.9697C19.7794 15.1599 20.25 13.8844 20.25 12V7C20.25 6.58579 20.5858 6.25 21 6.25C21.4142 6.25 21.75 6.58579 21.75 7V12C21.75 14.1156 21.2206 15.8401 20.0303 17.0303C18.8401 18.2206 17.1156 18.75 15 18.75H14.5C14.4284 18.75 14.3486 18.7871 14.2982 18.8524C14.2978 18.8529 14.2975 18.8534 14.2971 18.8538L12.8 20.85C12.3492 21.4511 11.7037 21.81 11 21.81C10.2963 21.81 9.65084 21.4511 9.2 20.85L7.69876 18.8484C7.69654 18.8462 7.69203 18.8422 7.6847 18.8365C7.66662 18.8224 7.64037 18.8054 7.60814 18.7895C7.57598 18.7735 7.54532 18.7622 7.52072 18.7556C7.50625 18.7517 7.49766 18.7504 7.49494 18.75H7C4.98674 18.75 3.23114 18.5113 2.00612 17.4394C0.756333 16.3459 0.25 14.5647 0.25 12V7C0.25 4.88439 0.77941 3.15993 1.96967 1.96967C3.15993 0.77941 4.88439 0.25 7 0.25H11C11.4142 0.25 11.75 0.585786 11.75 1C11.75 1.41421 11.4142 1.75 11 1.75H7C5.11561 1.75 3.84007 2.22059 3.03033 3.03033Z" fill="#101010"/>
<path fill-rule="evenodd" clip-rule="evenodd" d="M18.4415 1.78746C18.0928 1.68186 17.7579 1.79249 17.6171 1.99632C17.4802 2.19445 17.2565 2.31479 17.0158 2.31984C16.775 2.32488 16.5465 2.21402 16.4014 2.02181C16.2269 1.79064 15.8799 1.69146 15.5616 1.78656C14.9963 1.96712 14.6742 2.66973 14.9113 3.3822C15.109 3.97062 15.5517 4.44734 16.0397 4.78688C16.28 4.95408 16.5159 5.077 16.7093 5.15581C16.8731 5.22258 16.9679 5.24222 16.995 5.24783C16.997 5.24824 16.9986 5.24858 16.9999 5.24885C17.0012 5.24855 17.003 5.24817 17.0053 5.24769C17.033 5.24186 17.1286 5.22179 17.2933 5.15454C17.4886 5.07481 17.7267 4.9508 17.9683 4.78288C18.4602 4.441 18.8991 3.96592 19.0867 3.38829L19.0885 3.38282L19.0885 3.38283C19.3284 2.66316 18.9982 1.958 18.4415 1.78746ZM16.9876 0.569538C17.5851 0.203958 18.3192 0.182719 18.8779 0.35234L18.8792 0.352735C20.481 0.842181 20.9309 2.59458 20.5125 3.85444C20.1897 4.84539 19.4793 5.55942 18.8243 6.01462C18.4922 6.24545 18.1571 6.42206 17.8602 6.54327C17.5876 6.65458 17.273 6.75 17 6.75C16.7279 6.75 16.4151 6.65575 16.143 6.54482C15.8473 6.42425 15.5139 6.24842 15.1829 6.01812C14.5286 5.56279 13.8215 4.84976 13.489 3.85852L13.4885 3.85717C13.0666 2.59141 13.5225 0.855897 15.1148 0.354613L15.1222 0.352302L15.1222 0.35234C15.6984 0.177423 16.4043 0.222116 16.9876 0.569538Z" fill="#101010"/>
<path fill-rule="evenodd" clip-rule="evenodd" d="M13.9966 10C13.9966 9.44772 14.4443 9 14.9966 9H15.0056C15.5578 9 16.0056 9.44772 16.0056 10C16.0056 10.5523 15.5578 11 15.0056 11H14.9966C14.4443 11 13.9966 10.5523 13.9966 10Z" fill="#101010"/>
<path fill-rule="evenodd" clip-rule="evenodd" d="M9.99561 10C9.99561 9.44772 10.4433 9 10.9956 9H11.0046C11.5569 9 12.0046 9.44772 12.0046 10C12.0046 10.5523 11.5569 11 11.0046 11H10.9956C10.4433 11 9.99561 10.5523 9.99561 10Z" fill="#101010"/>
<path fill-rule="evenodd" clip-rule="evenodd" d="M5.99463 10C5.99463 9.44772 6.44234 9 6.99463 9H7.00361C7.5559 9 8.00361 9.44772 8.00361 10C8.00361 10.5523 7.5559 11 7.00361 11H6.99463C6.44234 11 5.99463 10.5523 5.99463 10Z" fill="#101010"/>
</svg>
