<svg width="22" height="22" viewBox="0 0 22 22" fill="none" xmlns="http://www.w3.org/2000/svg">
<path fill-rule="evenodd" clip-rule="evenodd" d="M8.5 1.75C4.72421 1.75 1.75 4.59251 1.75 8C1.75 10.0213 2.79021 11.8322 4.43145 12.9865C4.54078 13.0634 4.62758 13.1681 4.68285 13.2898L6.02144 16.2367C6.10312 16.4103 6.33134 16.433 6.44498 16.2985C6.44516 16.2983 6.44479 16.2987 6.44498 16.2985L6.99383 15.6399L7.92299 14.5209C8.06548 14.3493 8.27695 14.25 8.5 14.25C12.2758 14.25 15.25 11.4075 15.25 8C15.25 7.07134 15.0294 6.19692 14.6307 5.40842L14.6258 5.39869C13.587 3.26791 11.2461 1.75 8.5 1.75ZM0.25 8C0.25 3.66749 3.9958 0.25 8.5 0.25C11.7919 0.25 14.6694 2.06991 15.9718 4.73645C16.4715 5.7267 16.75 6.83057 16.75 8C16.75 12.2172 13.201 15.5674 8.85808 15.7428L8.14702 16.5991L7.59618 17.2602L7.59448 17.2622C6.76829 18.2466 5.19819 18.0296 4.65932 16.8649L4.65712 16.8602L3.39943 14.0913C1.49568 12.6794 0.25 10.4858 0.25 8Z" fill="#101010"/>
<path fill-rule="evenodd" clip-rule="evenodd" d="M14.7092 4.60777C14.8885 4.37872 15.184 4.27397 15.4675 4.33899C19.0368 5.15764 21.7498 8.18956 21.7498 11.86C21.7498 14.3458 20.5041 16.5394 18.6004 17.9513L17.3405 20.7249C16.8072 21.8776 15.2366 22.1284 14.4023 21.1186C14.4019 21.1181 14.4015 21.1176 14.4012 21.1172L13.1421 19.6028C10.6454 19.5026 8.41477 18.3582 6.98657 16.5915C6.76192 16.3136 6.76453 15.9158 6.99281 15.6409L7.92281 14.5209C8.0653 14.3493 8.27677 14.25 8.49982 14.25C12.2756 14.25 15.2498 11.4075 15.2498 8C15.2498 7.07134 15.0292 6.19692 14.6305 5.40842C14.4993 5.14886 14.5299 4.83682 14.7092 4.60777ZM16.5446 6.28664C16.679 6.83697 16.7498 7.41014 16.7498 8C16.7498 12.2172 13.2008 15.5674 8.8579 15.7428L8.55897 16.1028C9.77059 17.3324 11.5328 18.11 13.4998 18.11C13.7227 18.11 13.934 18.2091 14.0765 18.3805L15.5565 20.1605L15.5585 20.1629C15.6641 20.291 15.8913 20.2819 15.9784 20.0967L17.317 17.1498C17.3722 17.0281 17.459 16.9234 17.5684 16.8465C19.2096 15.6923 20.2498 13.8813 20.2498 11.86C20.2498 9.45269 18.7597 7.32408 16.5446 6.28664Z" fill="#101010"/>
<path fill-rule="evenodd" clip-rule="evenodd" d="M5.25 8C5.25 7.58579 5.58579 7.25 6 7.25H11C11.4142 7.25 11.75 7.58579 11.75 8C11.75 8.41421 11.4142 8.75 11 8.75H6C5.58579 8.75 5.25 8.41421 5.25 8Z" fill="#101010"/>
</svg>
