<svg width="22" height="22" viewBox="0 0 22 22" fill="none" xmlns="http://www.w3.org/2000/svg">
<path fill-rule="evenodd" clip-rule="evenodd" d="M1.96967 1.96967C3.15993 0.77941 4.88439 0.25 7 0.25H15C17.1156 0.25 18.8401 0.77941 20.0303 1.96967C21.2206 3.15993 21.75 4.88439 21.75 7V15C21.75 17.1156 21.2206 18.8401 20.0303 20.0303C18.8401 21.2206 17.1156 21.75 15 21.75H2C1.03579 21.75 0.25 20.9642 0.25 20V7C0.25 4.88439 0.77941 3.15993 1.96967 1.96967ZM3.03033 3.03033C2.22059 3.84007 1.75 5.11561 1.75 7V20C1.75 20.1358 1.86421 20.25 2 20.25H15C16.8844 20.25 18.1599 19.7794 18.9697 18.9697C19.7794 18.1599 20.25 16.8844 20.25 15V7C20.25 5.11561 19.7794 3.84007 18.9697 3.03033C18.1599 2.22059 16.8844 1.75 15 1.75H7C5.11561 1.75 3.84007 2.22059 3.03033 3.03033Z" fill="#101010"/>
<path fill-rule="evenodd" clip-rule="evenodd" d="M13.3114 5.26213C14.1487 5.1823 14.9469 5.56072 15.7015 6.32074C16.4577 7.07737 16.8288 7.87646 16.7451 8.71104C16.6655 9.50587 16.1877 10.143 15.7004 10.6303L10.5104 15.8203C10.3339 15.9969 10.1097 16.1378 9.90623 16.2379C9.70184 16.3385 9.45706 16.428 9.21616 16.4625L7.23329 16.7429C6.67661 16.8202 6.12518 16.6707 5.73228 16.2778C5.33938 15.8849 5.18993 15.3335 5.26725 14.7768L5.26751 14.775L5.54765 12.7939C5.58207 12.553 5.6716 12.3083 5.77216 12.1039C5.8723 11.9004 6.01319 11.6762 6.18978 11.4997L11.3798 6.30966C11.8722 5.81729 12.5132 5.33824 13.3114 5.26213ZM13.4538 6.75536C13.1771 6.78174 12.8481 6.9627 12.4404 7.37032L7.25044 12.5603C7.22702 12.5837 7.17292 12.6546 7.11806 12.7661C7.06378 12.8764 7.0383 12.9665 7.03262 13.0057C7.03261 13.0058 7.03264 13.0056 7.03262 13.0057L6.75299 14.9832C6.75295 14.9834 6.75302 14.9829 6.75299 14.9832C6.73057 15.1459 6.78087 15.2051 6.79295 15.2172C6.80503 15.2293 6.86347 15.2797 7.02634 15.2572C7.02654 15.2572 7.02614 15.2572 7.02634 15.2572L9.00403 14.9775C9.00408 14.9775 9.00397 14.9775 9.00403 14.9775C9.04321 14.9719 9.13352 14.9464 9.24398 14.892C9.35548 14.8372 9.42638 14.7831 9.44979 14.7597L14.6398 9.56966C15.0425 9.16694 15.2248 8.83911 15.2526 8.56144C15.2764 8.32392 15.2028 7.94338 14.6398 7.38032L14.6378 7.37832C14.0727 6.80895 13.6912 6.73272 13.4538 6.75536Z" fill="#101010"/>
<path fill-rule="evenodd" clip-rule="evenodd" d="M10.9677 6.85782C11.3666 6.74604 11.7805 6.97876 11.8923 7.3776C12.2621 8.69721 13.2961 9.73844 14.6213 10.1075C15.0203 10.2186 15.2537 10.6322 15.1426 11.0312C15.0315 11.4302 14.6179 11.6636 14.2189 11.5525C12.3841 11.0415 10.9581 9.60278 10.4479 7.78239C10.3362 7.38354 10.5689 6.9696 10.9677 6.85782Z" fill="#101010"/>
</svg>
