<svg width="22" height="22" viewBox="0 0 22 22" fill="none" xmlns="http://www.w3.org/2000/svg">
<path fill-rule="evenodd" clip-rule="evenodd" d="M8.89001 6.76999C8.75038 6.76999 8.62145 6.77814 8.49302 6.7942C8.48326 6.79542 8.47348 6.79644 8.46368 6.79728C7.72192 6.8605 7.26728 7.10118 6.98676 7.43162C6.69799 7.77179 6.5 8.31722 6.5 9.17001V11.8C6.5 13.0508 6.75639 13.5565 7.031 13.7965C7.3307 14.0584 7.86221 14.2 8.89999 14.2H9.16C9.38805 14.2 9.5896 14.2745 9.72853 14.3451C9.87114 14.4176 10.033 14.5293 10.1605 14.6851C10.1669 14.6929 10.1732 14.701 10.1793 14.7091L10.9715 15.762C10.9823 15.7765 10.9919 15.7874 11 15.7955C11.0081 15.7874 11.0177 15.7765 11.0285 15.762L11.0307 15.7591L11.8255 14.7027C12.0633 14.3936 12.4404 14.2 12.84 14.2H13.1C13.9547 14.2 14.4998 14.0036 14.8392 13.7163C15.1683 13.4377 15.4093 12.9841 15.4727 12.2367C15.4735 12.2267 15.4746 12.2168 15.4758 12.207C15.4918 12.0785 15.5 11.9496 15.5 11.81V9.17999C15.5 8.25211 15.2677 7.69082 14.9309 7.35407C14.5933 7.01644 14.0258 6.77946 13.0863 6.76999H8.89001ZM8.32171 5.30396C8.50835 5.28123 8.69479 5.26999 8.89001 5.26999H13.0971C14.2656 5.28106 15.2771 5.57895 15.9916 6.29341C16.7073 7.00917 17 8.01788 17 9.17999V11.81C17 12.0052 16.9888 12.1915 16.9661 12.3781C16.8772 13.3942 16.5183 14.2602 15.8083 14.8612C15.1052 15.4564 14.1653 15.7 13.1 15.7H12.9523L12.2315 16.6579C12.2311 16.6585 12.2307 16.6591 12.2303 16.6596C11.9387 17.0503 11.5026 17.3125 11 17.3125C10.4974 17.3125 10.0613 17.0503 9.76971 16.6596C9.76929 16.6591 9.76888 16.6585 9.76846 16.6579L9.04771 15.7H8.89999C7.83778 15.7 6.79429 15.5816 6.04399 14.926C5.26861 14.2485 5 13.1791 5 11.8V9.17001C5 8.10281 5.24701 7.16322 5.84323 6.46088C6.44482 5.75222 7.30975 5.39292 8.32171 5.30396Z" fill="#101010"/>
<path fill-rule="evenodd" clip-rule="evenodd" d="M11 1.75C5.89137 1.75 1.75 5.89137 1.75 11C1.75 16.1086 5.89137 20.25 11 20.25C16.1086 20.25 20.25 16.1086 20.25 11C20.25 5.89137 16.1086 1.75 11 1.75ZM0.25 11C0.25 5.06294 5.06294 0.25 11 0.25C16.9371 0.25 21.75 5.06294 21.75 11C21.75 16.9371 16.9371 21.75 11 21.75C5.06294 21.75 0.25 16.9371 0.25 11Z" fill="#101010"/>
</svg>
