<svg width="20" height="22" viewBox="0 0 20 22" fill="none" xmlns="http://www.w3.org/2000/svg">
<path fill-rule="evenodd" clip-rule="evenodd" d="M17.8334 1.13286C17.8336 1.13323 17.8339 1.13359 17.8341 1.13396L19.6507 3.83888C19.6511 3.83943 19.6514 3.83999 19.6518 3.84055C20.2644 4.74522 20.022 5.99289 19.1068 6.60358C19.1066 6.60374 19.107 6.60343 19.1068 6.60358L13.4474 10.3932C13.1034 10.6235 12.6379 10.5316 12.4072 10.1878L9.20725 5.41783C9.09637 5.25255 9.05573 5.04998 9.09428 4.85472C9.13284 4.65947 9.24741 4.48754 9.41279 4.3768L15.0711 0.587926C15.9756 -0.0241218 17.2227 0.218132 17.8334 1.13286ZM16.586 1.96601C16.4369 1.74236 16.1262 1.68472 15.9112 1.83059L15.9074 1.83319L10.8711 5.20553L13.2354 8.72986L18.2741 5.35597C18.4977 5.20687 18.5553 4.8961 18.4095 4.68113L18.4074 4.67815L16.586 1.96601Z" fill="#101010"/>
<path fill-rule="evenodd" clip-rule="evenodd" d="M4.77284 9.09647C4.54233 8.7523 4.63447 8.28643 4.97864 8.05592L9.75632 4.85605C10.1005 4.62554 10.5664 4.71768 10.7969 5.06185L13.3568 8.88399C13.5873 9.22816 13.4951 9.69403 13.151 9.92454L8.3733 13.1244C8.02913 13.3549 7.56326 13.2628 7.33275 12.9186L4.77284 9.09647ZM6.43657 8.8849L8.16172 11.4607L11.693 9.09557L9.96789 6.51977L6.43657 8.8849Z" fill="#101010"/>
<path fill-rule="evenodd" clip-rule="evenodd" d="M5.12357 8.29645C5.46756 8.06654 5.93276 8.15863 6.16321 8.50225L8.40321 11.8423C8.51412 12.0076 8.55471 12.2103 8.51604 12.4056C8.47738 12.601 8.36262 12.7729 8.19707 12.8835L4.24005 15.5282C3.44775 16.0449 2.36339 15.8499 1.82726 15.0475C1.82693 15.047 1.82661 15.0465 1.82628 15.046L0.698371 13.3691C0.15795 12.5666 0.366986 11.48 1.17118 10.938L1.17356 10.9364L5.12357 8.29645ZM2.00865 12.1825C2.00838 12.1827 2.00892 12.1823 2.00865 12.1825C1.89369 12.2606 1.86334 12.4137 1.94227 12.5309L3.07436 14.214C3.13816 14.3097 3.29143 14.3542 3.41818 14.2733L6.73902 12.0539L5.33451 9.95964L2.00865 12.1825Z" fill="#101010"/>
<path fill-rule="evenodd" clip-rule="evenodd" d="M10.3631 10.5182C10.7397 10.6907 10.9051 11.1358 10.7326 11.5124L6.24257 21.3124C6.07004 21.689 5.6249 21.8544 5.24833 21.6818C4.87176 21.5093 4.70636 21.0642 4.87889 20.6876L9.36889 10.8876C9.54142 10.511 9.98656 10.3456 10.3631 10.5182Z" fill="#101010"/>
<path fill-rule="evenodd" clip-rule="evenodd" d="M9.69067 10.5169C10.068 10.3459 10.5124 10.5132 10.6833 10.8905L15.1233 20.6905C15.2943 21.0678 15.127 21.5122 14.7497 21.6832C14.3724 21.8541 13.928 21.6868 13.757 21.3095L9.31703 11.5095C9.14609 11.1322 9.31338 10.6878 9.69067 10.5169Z" fill="#101010"/>
</svg>
