<svg width="18" height="22" viewBox="0 0 18 22" fill="none" xmlns="http://www.w3.org/2000/svg">
<path fill-rule="evenodd" clip-rule="evenodd" d="M4.25 5C4.25 2.37579 6.37579 0.25 9 0.25C11.6242 0.25 13.75 2.37579 13.75 5V5.3C13.75 5.71421 13.4142 6.05 13 6.05C12.5858 6.05 12.25 5.71421 12.25 5.3V5C12.25 3.20421 10.7958 1.75 9 1.75C7.20421 1.75 5.75 3.20421 5.75 5V10C5.75 10.4142 5.41421 10.75 5 10.75C4.58579 10.75 4.25 10.4142 4.25 10V5Z" fill="#101010"/>
<path fill-rule="evenodd" clip-rule="evenodd" d="M13 9.25C13.4143 9.25 13.75 9.58579 13.75 10V10.5C13.75 13.1242 11.6243 15.25 9.00005 15.25C7.6128 15.25 6.35189 14.6563 5.48292 13.6921C5.20561 13.3844 5.23025 12.9102 5.53794 12.6329C5.84564 12.3556 6.31987 12.3802 6.59717 12.6879C7.1882 13.3437 8.04729 13.75 9.00005 13.75C10.7958 13.75 12.25 12.2958 12.25 10.5V10C12.25 9.58579 12.5858 9.25 13 9.25Z" fill="#101010"/>
<path fill-rule="evenodd" clip-rule="evenodd" d="M16.6493 7.8999C17.0635 7.8999 17.3993 8.23569 17.3993 8.6499V10.3499C17.3993 14.9841 13.6335 18.7499 8.9993 18.7499C6.78175 18.7499 4.77176 17.8926 3.26942 16.4999C2.96565 16.2183 2.94768 15.7438 3.22928 15.44C3.51087 15.1363 3.98541 15.1183 4.28918 15.3999C5.52684 16.5472 7.17685 17.2499 8.9993 17.2499C12.8051 17.2499 15.8993 14.1557 15.8993 10.3499V8.6499C15.8993 8.23569 16.2351 7.8999 16.6493 7.8999Z" fill="#101010"/>
<path fill-rule="evenodd" clip-rule="evenodd" d="M1.34961 7.8999C1.76382 7.8999 2.09961 8.23569 2.09961 8.6499V10.3499C2.09961 11.309 2.28926 12.2095 2.64013 13.0372C2.80179 13.4185 2.62369 13.8588 2.24233 14.0204C1.86097 14.1821 1.42076 14.004 1.25909 13.6226C0.829958 12.6103 0.599609 11.5108 0.599609 10.3499V8.6499C0.599609 8.23569 0.935396 7.8999 1.34961 7.8999Z" fill="#101010"/>
<path fill-rule="evenodd" clip-rule="evenodd" d="M17.5999 1.30959C17.8928 1.6024 17.893 2.07727 17.6002 2.37025L1.46018 18.5203C1.16738 18.8132 0.692506 18.8134 0.399522 18.5206C0.106538 18.2278 0.106391 17.7529 0.399193 17.4599L16.5392 1.30992C16.832 1.01694 17.3069 1.01679 17.5999 1.30959Z" fill="#101010"/>
<path fill-rule="evenodd" clip-rule="evenodd" d="M8 1.25C8.41421 1.25 8.75 1.58579 8.75 2V5C8.75 5.41421 8.41421 5.75 8 5.75C7.58579 5.75 7.25 5.41421 7.25 5V2C7.25 1.58579 7.58579 1.25 8 1.25Z" fill="#101010"/>
<path fill-rule="evenodd" clip-rule="evenodd" d="M9 17.25C9.41421 17.25 9.75 17.5858 9.75 18V21C9.75 21.4142 9.41421 21.75 9 21.75C8.58579 21.75 8.25 21.4142 8.25 21V18C8.25 17.5858 8.58579 17.25 9 17.25Z" fill="#101010"/>
</svg>
