<svg width="22" height="22" viewBox="0 0 22 22" fill="none" xmlns="http://www.w3.org/2000/svg">
<path fill-rule="evenodd" clip-rule="evenodd" d="M2.09467 2.09467C3.42914 0.760201 5.42603 0.25 8 0.25H14C16.574 0.25 18.5709 0.760201 19.9053 2.09467C21.2398 3.42914 21.75 5.42603 21.75 8V9C21.75 9.41421 21.4142 9.75 21 9.75C20.5858 9.75 20.25 9.41421 20.25 9V8C20.25 5.57397 19.7602 4.07086 18.8447 3.15533C17.9291 2.2398 16.426 1.75 14 1.75H8C5.57397 1.75 4.07086 2.2398 3.15533 3.15533C2.2398 4.07086 1.75 5.57397 1.75 8V14C1.75 16.426 2.2398 17.9291 3.15533 18.8447C4.07086 19.7602 5.57397 20.25 8 20.25H10C10.4142 20.25 10.75 20.5858 10.75 21C10.75 21.4142 10.4142 21.75 10 21.75H8C5.42603 21.75 3.42914 21.2398 2.09467 19.9053C0.760201 18.5709 0.25 16.574 0.25 14V8C0.25 5.42603 0.760201 3.42914 2.09467 2.09467Z" fill="#101010"/>
<path fill-rule="evenodd" clip-rule="evenodd" d="M14.2701 18.87C13.889 18.87 13.5801 19.1789 13.5801 19.56C13.5801 19.9411 13.889 20.25 14.2701 20.25C14.6512 20.25 14.9601 19.9411 14.9601 19.56C14.9601 19.1789 14.6512 18.87 14.2701 18.87ZM12.0801 19.56C12.0801 18.3505 13.0606 17.37 14.2701 17.37C15.4796 17.37 16.4601 18.3505 16.4601 19.56C16.4601 20.7695 15.4796 21.75 14.2701 21.75C13.0606 21.75 12.0801 20.7695 12.0801 19.56Z" fill="#101010"/>
<path fill-rule="evenodd" clip-rule="evenodd" d="M20.9081 11.2041C21.5075 11.5553 21.7502 12.2112 21.7502 12.96V18.5999C21.7502 19.0142 21.4144 19.3499 21.0002 19.3499C20.586 19.3499 20.2502 19.0142 20.2502 18.5999V12.96C20.2502 12.7338 20.2143 12.6108 20.188 12.5529C20.167 12.5067 20.152 12.4994 20.15 12.4984C20.1499 12.4984 20.15 12.4984 20.15 12.4984C20.1247 12.4836 19.9887 12.4387 19.6777 12.5235C19.6776 12.5235 19.6777 12.5235 19.6777 12.5235L16.7852 13.3142C16.5688 13.3724 16.4502 13.5131 16.4502 13.75V19.57C16.4502 19.9842 16.1144 20.32 15.7002 20.32C15.286 20.32 14.9502 19.9842 14.9502 19.57V13.75C14.9502 12.7874 15.5708 12.0884 16.3937 11.8662L19.2824 11.0765C19.7413 10.9514 20.3658 10.8864 20.9081 11.2041Z" fill="#101010"/>
<path fill-rule="evenodd" clip-rule="evenodd" d="M19.5601 17.9099C19.179 17.9099 18.8701 18.2188 18.8701 18.5999C18.8701 18.981 19.179 19.2899 19.5601 19.2899C19.9412 19.2899 20.2501 18.981 20.2501 18.5999C20.2501 18.2188 19.9412 17.9099 19.5601 17.9099ZM17.3701 18.5999C17.3701 17.3904 18.3506 16.4099 19.5601 16.4099C20.7696 16.4099 21.7501 17.3904 21.7501 18.5999C21.7501 19.8094 20.7696 20.7899 19.5601 20.7899C18.3506 20.7899 17.3701 19.8094 17.3701 18.5999Z" fill="#101010"/>
<path fill-rule="evenodd" clip-rule="evenodd" d="M21.7238 13.7929C21.8326 14.1926 21.5968 14.6048 21.1971 14.7136L15.9071 16.1536C15.5075 16.2624 15.0953 16.0266 14.9865 15.6269C14.8777 15.2273 15.1135 14.8151 15.5132 14.7063L20.8032 13.2663C21.2028 13.1575 21.615 13.3933 21.7238 13.7929Z" fill="#101010"/>
</svg>
