<svg width="22" height="21" viewBox="0 0 22 21" fill="none" xmlns="http://www.w3.org/2000/svg">
<path fill-rule="evenodd" clip-rule="evenodd" d="M2.90533 2.90533C2.18991 3.62075 1.75 4.67044 1.75 6V7C1.75 7.41421 1.41421 7.75 1 7.75C0.585786 7.75 0.25 7.41421 0.25 7V6C0.25 4.32956 0.810085 2.87925 1.84467 1.84467C2.87925 0.810085 4.32956 0.25 6 0.25H16C17.6704 0.25 19.1207 0.810085 20.1553 1.84467C21.1899 2.87925 21.75 4.32956 21.75 6V14C21.75 15.6704 21.1899 17.1207 20.1553 18.1553C19.1207 19.1899 17.6704 19.75 16 19.75H15C14.5858 19.75 14.25 19.4142 14.25 19C14.25 18.5858 14.5858 18.25 15 18.25H16C17.3296 18.25 18.3793 17.8101 19.0947 17.0947C19.8101 16.3793 20.25 15.3296 20.25 14V6C20.25 4.67044 19.8101 3.62075 19.0947 2.90533C18.3793 2.18991 17.3296 1.75 16 1.75H6C4.67044 1.75 3.62075 2.18991 2.90533 2.90533Z" fill="#101010"/>
<path fill-rule="evenodd" clip-rule="evenodd" d="M1.94558 9.61497C1.99805 9.2041 2.37367 8.91355 2.78454 8.96602C7.74468 9.59946 11.3996 13.2671 12.0433 18.2234C12.0966 18.6342 11.8069 19.0104 11.3961 19.0638C10.9854 19.1171 10.6091 18.8274 10.5558 18.4166C9.99946 14.1329 6.87439 11.0005 2.59453 10.4539C2.18365 10.4015 1.89311 10.0259 1.94558 9.61497Z" fill="#101010"/>
<path fill-rule="evenodd" clip-rule="evenodd" d="M0.875183 12.9756C0.927306 12.5647 1.30268 12.2738 1.7136 12.326C5.4447 12.7992 8.19939 15.5676 8.68299 19.2935C8.7363 19.7042 8.44653 20.0805 8.03576 20.1338C7.625 20.1871 7.24878 19.8973 7.19547 19.4865C6.79907 16.4325 4.57375 14.2008 1.52484 13.814C1.11392 13.7619 0.82306 13.3865 0.875183 12.9756Z" fill="#101010"/>
<path fill-rule="evenodd" clip-rule="evenodd" d="M0.235851 16.7632C0.289321 16.3524 0.665644 16.0628 1.07639 16.1163C3.10212 16.38 4.61944 17.8842 4.88338 19.9237C4.93654 20.3345 4.64662 20.7106 4.23584 20.7638C3.82505 20.8169 3.44894 20.527 3.39578 20.1162C3.21972 18.7558 2.23703 17.78 0.88276 17.6037C0.472012 17.5502 0.182381 17.1739 0.235851 16.7632Z" fill="#101010"/>
</svg>
