<svg width="21" height="22" viewBox="0 0 21 22" fill="none" xmlns="http://www.w3.org/2000/svg">
<path fill-rule="evenodd" clip-rule="evenodd" d="M6.91499 0.250147C7.32912 0.242027 7.67143 0.571167 7.67955 0.985301L7.7095 2.5131C7.7204 2.91973 8.06143 3.25 8.45969 3.25H11.4797C11.8922 3.25 12.2297 2.90904 12.2297 2.5V1C12.2297 0.585789 12.5655 0.250003 12.9797 0.250003C13.3939 0.250003 13.7297 0.585789 13.7297 1V2.5C13.7297 3.73096 12.7272 4.75 11.4797 4.75H8.45969C7.23846 4.75 6.23986 3.76119 6.20992 2.54855L6.20982 2.54473H6.20983L6.17983 1.01471C6.17171 0.600571 6.50085 0.258267 6.91499 0.250147Z" fill="#101010"/>
<path fill-rule="evenodd" clip-rule="evenodd" d="M15.5303 15.4697C15.8232 15.7626 15.8232 16.2374 15.5303 16.5303L14.0607 18L15.5303 19.4697C15.8232 19.7626 15.8232 20.2374 15.5303 20.5303C15.2374 20.8232 14.7626 20.8232 14.4697 20.5303L12.4697 18.5303C12.1768 18.2374 12.1768 17.7626 12.4697 17.4697L14.4697 15.4697C14.7626 15.1768 15.2374 15.1768 15.5303 15.4697Z" fill="#101010"/>
<path fill-rule="evenodd" clip-rule="evenodd" d="M17.4697 15.4697C17.7626 15.1768 18.2374 15.1768 18.5303 15.4697L20.5303 17.4697C20.8232 17.7626 20.8232 18.2374 20.5303 18.5303L18.5303 20.5303C18.2374 20.8232 17.7626 20.8232 17.4697 20.5303C17.1768 20.2374 17.1768 19.7626 17.4697 19.4697L18.9393 18L17.4697 16.5303C17.1768 16.2374 17.1768 15.7626 17.4697 15.4697Z" fill="#101010"/>
<path fill-rule="evenodd" clip-rule="evenodd" d="M2.7371 2.88534C2.09637 3.57535 1.75 4.61497 1.75 6V16C1.75 17.385 2.09637 18.4246 2.7371 19.1147C3.36848 19.7946 4.39295 20.25 6 20.25H11C11.4142 20.25 11.75 20.5858 11.75 21C11.75 21.4142 11.4142 21.75 11 21.75H6C4.10705 21.75 2.63152 21.2054 1.6379 20.1353C0.653634 19.0754 0.25 17.615 0.25 16V6C0.25 4.38503 0.653634 2.92465 1.6379 1.86466C2.63152 0.794615 4.10705 0.25 6 0.25H14C15.893 0.25 17.3685 0.794615 18.3621 1.86466C19.3464 2.92465 19.75 4.38503 19.75 6V13C19.75 13.4142 19.4142 13.75 19 13.75C18.5858 13.75 18.25 13.4142 18.25 13V6C18.25 4.61497 17.9036 3.57535 17.2629 2.88534C16.6315 2.20538 15.607 1.75 14 1.75H6C4.39295 1.75 3.36848 2.20538 2.7371 2.88534Z" fill="#101010"/>
</svg>
