<svg width="23" height="20" viewBox="0 0 23 20" fill="none" xmlns="http://www.w3.org/2000/svg">
<path fill-rule="evenodd" clip-rule="evenodd" d="M12 7.25C11.0335 7.25 10.25 8.0335 10.25 9C10.25 9.9665 11.0335 10.75 12 10.75C12.9665 10.75 13.75 9.9665 13.75 9C13.75 8.0335 12.9665 7.25 12 7.25ZM8.75 9C8.75 7.20507 10.2051 5.75 12 5.75C13.7949 5.75 15.25 7.20507 15.25 9C15.25 10.7949 13.7949 12.25 12 12.25C10.2051 12.25 8.75 10.7949 8.75 9Z" fill="#101010"/>
<path fill-rule="evenodd" clip-rule="evenodd" d="M18.5 5.75C18.9142 5.75 19.25 6.08579 19.25 6.5V11.5C19.25 11.9142 18.9142 12.25 18.5 12.25C18.0858 12.25 17.75 11.9142 17.75 11.5V6.5C17.75 6.08579 18.0858 5.75 18.5 5.75Z" fill="#101010"/>
<path fill-rule="evenodd" clip-rule="evenodd" d="M5 11.75C3.20507 11.75 1.75 13.2051 1.75 15C1.75 16.7949 3.20507 18.25 5 18.25C6.79493 18.25 8.25 16.7949 8.25 15C8.25 13.2051 6.79493 11.75 5 11.75ZM0.25 15C0.25 12.3766 2.37665 10.25 5 10.25C7.62335 10.25 9.75 12.3766 9.75 15C9.75 17.6234 7.62335 19.75 5 19.75C2.37665 19.75 0.25 17.6234 0.25 15Z" fill="#101010"/>
<path fill-rule="evenodd" clip-rule="evenodd" d="M5.25011 13C5.66432 13 6.00011 13.3358 6.00011 13.75V14.68C6.00011 15.2837 5.68989 15.8641 5.14344 16.1847L4.38847 16.6416C4.03412 16.8561 3.57298 16.7427 3.35849 16.3884C3.14401 16.034 3.25739 15.5729 3.61175 15.3584L4.38346 14.8913C4.45283 14.851 4.50011 14.7738 4.50011 14.68V13.75C4.50011 13.3358 4.8359 13 5.25011 13Z" fill="#101010"/>
<path fill-rule="evenodd" clip-rule="evenodd" d="M3.88534 2.7371C3.20538 3.36848 2.75 4.39295 2.75 6V12.2C2.75 12.6142 2.41421 12.95 2 12.95C1.58579 12.95 1.25 12.6142 1.25 12.2V6C1.25 4.10705 1.79462 2.63152 2.86466 1.6379C3.92465 0.653634 5.38503 0.25 7 0.25H17C18.615 0.25 20.0754 0.653634 21.1353 1.6379C22.2054 2.63152 22.75 4.10705 22.75 6V12C22.75 13.893 22.2054 15.3685 21.1353 16.3621C20.0754 17.3464 18.615 17.75 17 17.75H8.5C8.08579 17.75 7.75 17.4142 7.75 17C7.75 16.5858 8.08579 16.25 8.5 16.25H17C18.385 16.25 19.4246 15.9036 20.1147 15.2629C20.7946 14.6315 21.25 13.607 21.25 12V6C21.25 4.39295 20.7946 3.36848 20.1147 2.7371C19.4246 2.09637 18.385 1.75 17 1.75H7C5.61497 1.75 4.57535 2.09637 3.88534 2.7371Z" fill="#101010"/>
</svg>
