<svg width="22" height="20" viewBox="0 0 22 20" fill="none" xmlns="http://www.w3.org/2000/svg">
<path fill-rule="evenodd" clip-rule="evenodd" d="M2.88534 3.2371C2.20538 3.86848 1.75 4.89295 1.75 6.5V13.5C1.75 15.107 2.20538 16.1315 2.88534 16.7629C3.57535 17.4036 4.61497 17.75 6 17.75H16C17.385 17.75 18.4246 17.4036 19.1147 16.7629C19.7946 16.1315 20.25 15.107 20.25 13.5V6.5C20.25 4.89295 19.7946 3.86848 19.1147 3.2371C18.4246 2.59637 17.385 2.25 16 2.25H6C4.61497 2.25 3.57535 2.59637 2.88534 3.2371ZM1.86466 2.1379C2.92465 1.15363 4.38503 0.75 6 0.75H16C17.615 0.75 19.0754 1.15363 20.1353 2.1379C21.2054 3.13152 21.75 4.60705 21.75 6.5V13.5C21.75 15.393 21.2054 16.8685 20.1353 17.8621C19.0754 18.8464 17.615 19.25 16 19.25H6C4.38503 19.25 2.92465 18.8464 1.86466 17.8621C0.794615 16.8685 0.25 15.393 0.25 13.5V6.5C0.25 4.60705 0.794615 3.13152 1.86466 2.1379Z" fill="#101010"/>
<path fill-rule="evenodd" clip-rule="evenodd" d="M11 7.75C9.75736 7.75 8.75 8.75736 8.75 10C8.75 11.2426 9.75736 12.25 11 12.25C12.2426 12.25 13.25 11.2426 13.25 10C13.25 8.75736 12.2426 7.75 11 7.75ZM7.25 10C7.25 7.92893 8.92893 6.25 11 6.25C13.0711 6.25 14.75 7.92893 14.75 10C14.75 12.0711 13.0711 13.75 11 13.75C8.92893 13.75 7.25 12.0711 7.25 10Z" fill="#101010"/>
<path fill-rule="evenodd" clip-rule="evenodd" d="M4.5 6.75C4.91421 6.75 5.25 7.08579 5.25 7.5V12.5C5.25 12.9142 4.91421 13.25 4.5 13.25C4.08579 13.25 3.75 12.9142 3.75 12.5V7.5C3.75 7.08579 4.08579 6.75 4.5 6.75Z" fill="#101010"/>
<path fill-rule="evenodd" clip-rule="evenodd" d="M17.5 6.75C17.9142 6.75 18.25 7.08579 18.25 7.5V12.5C18.25 12.9142 17.9142 13.25 17.5 13.25C17.0858 13.25 16.75 12.9142 16.75 12.5V7.5C16.75 7.08579 17.0858 6.75 17.5 6.75Z" fill="#101010"/>
</svg>
