<svg width="23" height="20" viewBox="0 0 23 20" fill="none" xmlns="http://www.w3.org/2000/svg">
<path fill-rule="evenodd" clip-rule="evenodd" d="M3.88534 2.7371C3.20538 3.36848 2.75 4.39295 2.75 6V12.2C2.75 12.6142 2.41421 12.95 2 12.95C1.58579 12.95 1.25 12.6142 1.25 12.2V6C1.25 4.10705 1.79462 2.63152 2.86466 1.6379C3.92465 0.653634 5.38503 0.25 7 0.25H17C18.615 0.25 20.0754 0.653634 21.1353 1.6379C22.2054 2.63152 22.75 4.10705 22.75 6V12C22.75 13.893 22.2054 15.3685 21.1353 16.3621C20.0754 17.3464 18.615 17.75 17 17.75H8.5C8.08579 17.75 7.75 17.4142 7.75 17C7.75 16.5858 8.08579 16.25 8.5 16.25H17C18.385 16.25 19.4246 15.9036 20.1147 15.2629C20.7946 14.6315 21.25 13.607 21.25 12V6C21.25 4.39295 20.7946 3.36848 20.1147 2.7371C19.4246 2.09637 18.385 1.75 17 1.75H7C5.61497 1.75 4.57535 2.09637 3.88534 2.7371Z" fill="#101010"/>
<path fill-rule="evenodd" clip-rule="evenodd" d="M12 7.25C11.0335 7.25 10.25 8.0335 10.25 9C10.25 9.9665 11.0335 10.75 12 10.75C12.9665 10.75 13.75 9.9665 13.75 9C13.75 8.0335 12.9665 7.25 12 7.25ZM8.75 9C8.75 7.20507 10.2051 5.75 12 5.75C13.7949 5.75 15.25 7.20507 15.25 9C15.25 10.7949 13.7949 12.25 12 12.25C10.2051 12.25 8.75 10.7949 8.75 9Z" fill="#101010"/>
<path fill-rule="evenodd" clip-rule="evenodd" d="M18.5 5.75C18.9142 5.75 19.25 6.08579 19.25 6.5V11.5C19.25 11.9142 18.9142 12.25 18.5 12.25C18.0858 12.25 17.75 11.9142 17.75 11.5V6.5C17.75 6.08579 18.0858 5.75 18.5 5.75Z" fill="#101010"/>
<path fill-rule="evenodd" clip-rule="evenodd" d="M5 11.75C3.20421 11.75 1.75 13.2042 1.75 15C1.75 15.6094 1.92053 16.1833 2.2184 16.6663L2.22469 16.6765L2.2246 16.6766C2.78441 17.6177 3.81413 18.25 5 18.25C6.18587 18.25 7.21559 17.6177 7.7754 16.6766L7.78152 16.6663L7.7816 16.6663C8.07947 16.1833 8.25 15.6094 8.25 15C8.25 13.2042 6.79579 11.75 5 11.75ZM0.25 15C0.25 12.3758 2.37579 10.25 5 10.25C7.62421 10.25 9.75 12.3758 9.75 15C9.75 15.8885 9.50167 16.7327 9.06149 17.4486C8.24061 18.8246 6.73196 19.75 5 19.75C3.26803 19.75 1.75938 18.8246 0.938497 17.4486C0.498325 16.7327 0.25 15.8885 0.25 15Z" fill="#101010"/>
<path fill-rule="evenodd" clip-rule="evenodd" d="M8.28033 11.7197C8.57322 12.0126 8.57322 12.4874 8.28033 12.7803L2.78033 18.2803C2.48744 18.5732 2.01256 18.5732 1.71967 18.2803C1.42678 17.9874 1.42678 17.5126 1.71967 17.2197L7.21967 11.7197C7.51256 11.4268 7.98744 11.4268 8.28033 11.7197Z" fill="#101010"/>
</svg>
