<svg width="22" height="22" viewBox="0 0 22 22" fill="none" xmlns="http://www.w3.org/2000/svg">
<path fill-rule="evenodd" clip-rule="evenodd" d="M2.41908 2.41908C1.9912 2.84696 1.75 3.66007 1.75 5.44V11.78C1.75 13.5599 1.9912 14.373 2.41908 14.8009C2.84696 15.2288 3.66007 15.47 5.44 15.47H16.56C18.3414 15.47 19.1539 15.2309 19.5814 14.8042C20.0085 14.3778 20.25 13.5656 20.25 11.78V10.89C20.25 10.4758 20.5858 10.14 21 10.14C21.4142 10.14 21.75 10.4758 21.75 10.89V11.78C21.75 13.5544 21.5465 14.9622 20.6411 15.8658C19.7361 16.7691 18.3286 16.97 16.56 16.97H5.44C3.66993 16.97 2.26304 16.7662 1.35842 15.8616C0.453799 14.957 0.25 13.5501 0.25 11.78V5.44C0.25 3.66993 0.453799 2.26304 1.35842 1.35842C2.26304 0.453799 3.66993 0.25 5.44 0.25H7C7.41421 0.25 7.75 0.585786 7.75 1C7.75 1.41421 7.41421 1.75 7 1.75H5.44C3.66007 1.75 2.84696 1.9912 2.41908 2.41908Z" fill="#101010"/>
<path fill-rule="evenodd" clip-rule="evenodd" d="M11 15.47C11.4142 15.47 11.75 15.8058 11.75 16.22V21C11.75 21.4142 11.4142 21.75 11 21.75C10.5858 21.75 10.25 21.4142 10.25 21V16.22C10.25 15.8058 10.5858 15.47 11 15.47Z" fill="#101010"/>
<path fill-rule="evenodd" clip-rule="evenodd" d="M0.25 12C0.25 11.5858 0.585786 11.25 1 11.25H21C21.4142 11.25 21.75 11.5858 21.75 12C21.75 12.4142 21.4142 12.75 21 12.75H1C0.585786 12.75 0.25 12.4142 0.25 12Z" fill="#101010"/>
<path fill-rule="evenodd" clip-rule="evenodd" d="M5.75 21C5.75 20.5858 6.08579 20.25 6.5 20.25H15.5C15.9142 20.25 16.25 20.5858 16.25 21C16.25 21.4142 15.9142 21.75 15.5 21.75H6.5C6.08579 21.75 5.75 21.4142 5.75 21Z" fill="#101010"/>
<path fill-rule="evenodd" clip-rule="evenodd" d="M12.2598 1.76C11.574 1.76 11.0098 2.32421 11.0098 3.01V6.53C11.0098 6.87857 11.0984 7.14678 11.2384 7.31486C11.3584 7.45888 11.5901 7.62 12.0998 7.62H16.8598C17.4656 7.62 17.9498 7.13579 17.9498 6.53V2.85C17.9498 2.24421 17.4656 1.76 16.8598 1.76H12.2598ZM9.50977 3.01C9.50977 1.49579 10.7456 0.26 12.2598 0.26H16.8598C18.294 0.26 19.4498 1.41579 19.4498 2.85V6.53C19.4498 7.96421 18.294 9.12 16.8598 9.12H12.0998C11.2294 9.12 10.5411 8.82112 10.0861 8.27514C9.65117 7.75322 9.50977 7.10143 9.50977 6.53V3.01Z" fill="#101010"/>
<path fill-rule="evenodd" clip-rule="evenodd" d="M20.2502 3.13772L19.4502 3.6997V5.6803L20.2502 6.24228V3.13772ZM21.0257 1.65181C21.578 1.93848 21.7502 2.5294 21.7502 3.03V6.36C21.7502 6.85903 21.5787 7.45342 21.0223 7.73866C20.4695 8.02209 19.8873 7.81946 19.4801 7.53442L18.2691 6.68371C18.0692 6.54328 17.9502 6.31429 17.9502 6.07V3.31C17.9502 3.06571 18.0692 2.83672 18.2691 2.69629L19.487 1.84071C19.8964 1.56094 20.4774 1.36727 21.0257 1.65181Z" fill="#101010"/>
</svg>
