<svg width="22" height="22" viewBox="0 0 22 22" fill="none" xmlns="http://www.w3.org/2000/svg">
<path fill-rule="evenodd" clip-rule="evenodd" d="M2.37158 2.90158C1.97898 3.29418 1.75 4.04919 1.75 5.74V11.74C1.75 13.4308 1.97898 14.1858 2.37158 14.5784C2.76418 14.971 3.51919 15.2 5.21 15.2H9C9.41421 15.2 9.75 15.5358 9.75 15.95C9.75 16.3642 9.41421 16.7 9 16.7H5.21C3.53081 16.7 2.18082 16.509 1.31092 15.6391C0.441023 14.7692 0.25 13.4192 0.25 11.74V5.74C0.25 4.06081 0.441023 2.71082 1.31092 1.84092C2.18082 0.971022 3.53081 0.78 5.21 0.78H15.74C17.4192 0.78 18.7692 0.971022 19.6391 1.84092C20.509 2.71082 20.7 4.06081 20.7 5.74C20.7 6.15421 20.3642 6.49 19.95 6.49C19.5358 6.49 19.2 6.15421 19.2 5.74C19.2 4.04919 18.971 3.29418 18.5784 2.90158C18.1858 2.50898 17.4308 2.28 15.74 2.28H5.21C3.51919 2.28 2.76418 2.50898 2.37158 2.90158Z" fill="#101010"/>
<path fill-rule="evenodd" clip-rule="evenodd" d="M9 15.2C9.41421 15.2 9.75 15.5358 9.75 15.95V20.47C9.75 20.8842 9.41421 21.22 9 21.22C8.58579 21.22 8.25 20.8842 8.25 20.47V15.95C8.25 15.5358 8.58579 15.2 9 15.2Z" fill="#101010"/>
<path fill-rule="evenodd" clip-rule="evenodd" d="M0.25 11.95C0.25 11.5358 0.585786 11.2 1 11.2H9C9.41421 11.2 9.75 11.5358 9.75 11.95C9.75 12.3642 9.41421 12.7 9 12.7H1C0.585786 12.7 0.25 12.3642 0.25 11.95Z" fill="#101010"/>
<path fill-rule="evenodd" clip-rule="evenodd" d="M4.99023 20.47C4.99023 20.0558 5.32602 19.72 5.74023 19.72H9.00023C9.41445 19.72 9.75023 20.0558 9.75023 20.47C9.75023 20.8842 9.41445 21.22 9.00023 21.22H5.74023C5.32602 21.22 4.99023 20.8842 4.99023 20.47Z" fill="#101010"/>
<path fill-rule="evenodd" clip-rule="evenodd" d="M12.6519 9.96158C12.4468 10.1666 12.2803 10.609 12.2803 11.8V17.51C12.2803 18.701 12.4468 19.1434 12.6519 19.3484C12.8569 19.5535 13.2993 19.72 14.4903 19.72H18.0403C19.2313 19.72 19.6737 19.5535 19.8787 19.3484C20.0837 19.1434 20.2503 18.701 20.2503 17.51V11.8C20.2503 10.609 20.0837 10.1666 19.8787 9.96158C19.6737 9.75654 19.2313 9.59 18.0403 9.59H14.4903C13.2993 9.59 12.8569 9.75654 12.6519 9.96158ZM11.5912 8.90092C12.2737 8.21846 13.3113 8.09 14.4903 8.09H18.0403C19.2193 8.09 20.2569 8.21846 20.9394 8.90092C21.6218 9.58338 21.7503 10.621 21.7503 11.8V17.51C21.7503 18.689 21.6218 19.7266 20.9394 20.4091C20.2569 21.0915 19.2193 21.22 18.0403 21.22H14.4903C13.3113 21.22 12.2737 21.0915 11.5912 20.4091C10.9087 19.7266 10.7803 18.689 10.7803 17.51V11.8C10.7803 10.621 10.9087 9.58338 11.5912 8.90092Z" fill="#101010"/>
<path fill-rule="evenodd" clip-rule="evenodd" d="M15.2441 17.25C15.2441 16.6977 15.6919 16.25 16.2441 16.25H16.2531C16.8054 16.25 17.2531 16.6977 17.2531 17.25C17.2531 17.8023 16.8054 18.25 16.2531 18.25H16.2441C15.6919 18.25 15.2441 17.8023 15.2441 17.25Z" fill="#101010"/>
</svg>
