<svg width="22" height="22" viewBox="0 0 22 22" fill="none" xmlns="http://www.w3.org/2000/svg">
<path fill-rule="evenodd" clip-rule="evenodd" d="M9.23517 0.629845C9.85768 1.21519 9.71424 2.10867 9.41778 2.78943L9.41727 2.7906C8.96799 3.81751 8.72097 4.94337 8.73013 6.13421L8.73015 6.13688C8.74844 10.5563 12.422 14.3266 16.9208 14.5106L16.9214 14.5106C17.5856 14.5383 18.2205 14.4922 18.837 14.3819C19.2418 14.3082 19.6358 14.2958 19.9885 14.378C20.3479 14.4619 20.7051 14.6568 20.9264 15.0189C21.1467 15.3795 21.1582 15.7846 21.0737 16.14C20.9905 16.4901 20.8069 16.8358 20.5646 17.164C18.4404 20.0702 14.9042 21.9104 10.9577 21.7393L10.9572 21.7393C5.35649 21.493 0.669745 17.0129 0.282039 11.4732C-0.0721984 6.5624 2.8423 2.28549 7.07872 0.498922C7.75853 0.21098 8.63602 0.0664645 9.23517 0.629845ZM8.17031 1.74535C8.07022 1.74811 7.90207 1.77908 7.66292 1.88048L7.66158 1.88105C3.97825 3.43437 1.47284 7.13707 1.7782 11.366L1.77833 11.3677C2.11104 16.1274 6.16385 20.0268 11.0226 20.2407M8.25063 1.7515C8.2506 1.75153 8.24977 1.75131 8.24825 1.75071C8.24991 1.75116 8.25067 1.75146 8.25063 1.7515ZM8.17031 1.74535C8.16436 1.83328 8.13423 1.97978 8.04281 2.18988C7.51239 3.40245 7.21952 4.73596 7.23016 6.14442C7.25259 11.3844 11.5787 15.7934 16.8595 16.0094C17.6347 16.0416 18.3793 15.9877 19.1024 15.8582L19.1048 15.8578C19.3442 15.8141 19.5064 15.8161 19.604 15.8306C19.574 15.9267 19.5034 16.0761 19.3569 16.2743L19.3546 16.2775C17.5187 18.7903 14.4556 20.3894 11.0231 20.2407M19.6954 15.854C19.6954 15.854 19.6949 15.8538 19.6941 15.8533L19.6954 15.854ZM19.6227 15.74C19.6226 15.7387 19.6226 15.738 19.6226 15.7379C19.6227 15.7379 19.6227 15.7386 19.6227 15.74Z" fill="#101010"/>
</svg>
