<svg width="22" height="22" viewBox="0 0 22 22" fill="none" xmlns="http://www.w3.org/2000/svg">
<path fill-rule="evenodd" clip-rule="evenodd" d="M0.25 11C0.25 5.08579 5.08579 0.25 11 0.25C16.9142 0.25 21.75 5.08579 21.75 11C21.75 16.9142 16.9142 21.75 11 21.75C5.08579 21.75 0.25 16.9142 0.25 11ZM11 1.75C5.91421 1.75 1.75 5.91421 1.75 11C1.75 16.0858 5.91421 20.25 11 20.25C16.0858 20.25 20.25 16.0858 20.25 11C20.25 5.91421 16.0858 1.75 11 1.75Z" fill="#101010"/>
<path fill-rule="evenodd" clip-rule="evenodd" d="M13.9966 11C13.9966 10.4477 14.4443 10 14.9966 10H15.0056C15.5578 10 16.0056 10.4477 16.0056 11C16.0056 11.5523 15.5578 12 15.0056 12H14.9966C14.4443 12 13.9966 11.5523 13.9966 11Z" fill="#101010"/>
<path fill-rule="evenodd" clip-rule="evenodd" d="M9.99561 11C9.99561 10.4477 10.4433 10 10.9956 10H11.0046C11.5569 10 12.0046 10.4477 12.0046 11C12.0046 11.5523 11.5569 12 11.0046 12H10.9956C10.4433 12 9.99561 11.5523 9.99561 11Z" fill="#101010"/>
<path fill-rule="evenodd" clip-rule="evenodd" d="M5.99463 11C5.99463 10.4477 6.44234 10 6.99463 10H7.00361C7.5559 10 8.00361 10.4477 8.00361 11C8.00361 11.5523 7.5559 12 7.00361 12H6.99463C6.44234 12 5.99463 11.5523 5.99463 11Z" fill="#101010"/>
</svg>
