<svg width="18" height="16" viewBox="0 0 18 16" fill="none" xmlns="http://www.w3.org/2000/svg">
<path fill-rule="evenodd" clip-rule="evenodd" d="M6.08984 3.16C6.08984 1.55579 7.39563 0.25 8.99984 0.25C10.6041 0.25 11.9098 1.55579 11.9098 3.16C11.9098 4.76421 10.6041 6.07 8.99984 6.07C7.39563 6.07 6.08984 4.76421 6.08984 3.16ZM8.99984 1.75C8.22406 1.75 7.58984 2.38421 7.58984 3.16C7.58984 3.93579 8.22406 4.57 8.99984 4.57C9.77563 4.57 10.4098 3.93579 10.4098 3.16C10.4098 2.38421 9.77563 1.75 8.99984 1.75Z" fill="#101010"/>
<path fill-rule="evenodd" clip-rule="evenodd" d="M0.879883 12.8399C0.879883 11.2357 2.18567 9.92993 3.78988 9.92993C5.3941 9.92993 6.69988 11.2357 6.69988 12.8399C6.69988 14.4441 5.3941 15.7499 3.78988 15.7499C2.17341 15.7499 0.879883 14.4419 0.879883 12.8399ZM3.78988 11.4299C3.0141 11.4299 2.37988 12.0641 2.37988 12.8399C2.37988 13.618 3.00636 14.2499 3.78988 14.2499C4.56567 14.2499 5.19988 13.6157 5.19988 12.8399C5.19988 12.0641 4.56567 11.4299 3.78988 11.4299Z" fill="#101010"/>
<path fill-rule="evenodd" clip-rule="evenodd" d="M11.2998 12.8399C11.2998 11.2357 12.6056 9.92993 14.2098 9.92993C15.814 9.92993 17.1198 11.2357 17.1198 12.8399C17.1198 14.4441 15.814 15.7499 14.2098 15.7499C12.6056 15.7499 11.2998 14.4441 11.2998 12.8399ZM14.2098 11.4299C13.434 11.4299 12.7998 12.0641 12.7998 12.8399C12.7998 13.6157 13.434 14.2499 14.2098 14.2499C14.9856 14.2499 15.6198 13.6157 15.6198 12.8399C15.6198 12.0641 14.9856 11.4299 14.2098 11.4299Z" fill="#101010"/>
</svg>
