<svg width="22" height="22" viewBox="0 0 22 22" fill="none" xmlns="http://www.w3.org/2000/svg">
<path fill-rule="evenodd" clip-rule="evenodd" d="M12.7968 13.7795L14.6459 19.7266C14.646 19.7267 14.6459 19.7265 14.6459 19.7266C14.8718 20.4496 15.8715 20.4537 16.1085 19.7428L16.1093 19.7402L16.6582 18.1135C16.885 17.4224 17.4253 16.9015 18.0913 16.679C18.0918 16.6788 18.0923 16.6787 18.0928 16.6785L19.7202 16.1294L19.7213 16.129C20.4368 15.8888 20.4174 14.8772 19.7162 14.6558C19.7158 14.6557 19.7155 14.6556 19.7151 14.6555L13.7576 12.8063L13.7538 12.8051C13.1774 12.6228 12.6093 13.1605 12.7968 13.7795ZM14.204 11.3742C12.4418 10.8187 10.8319 12.4792 11.3626 14.2189L13.2138 20.1727C13.8679 22.2689 16.8272 22.3262 17.531 20.2185C17.5312 20.2181 17.5313 20.2176 17.5315 20.2172L18.0806 18.5898L18.083 18.5825C18.1569 18.3561 18.3352 18.1788 18.5671 18.1015L20.1987 17.551C20.1984 17.5511 20.1989 17.5509 20.1987 17.551C22.282 16.8509 22.2623 13.8837 20.1648 13.2245L14.2061 11.3749C14.2054 11.3747 14.2047 11.3745 14.204 11.3742Z" fill="#101010"/>
<path fill-rule="evenodd" clip-rule="evenodd" d="M0.25 11C0.25 5.06579 5.06579 0.25 11 0.25C16.9342 0.25 21.75 5.06579 21.75 11C21.75 11.4142 21.4142 11.75 21 11.75C20.5858 11.75 20.25 11.4142 20.25 11C20.25 5.89421 16.1058 1.75 11 1.75C5.89421 1.75 1.75 5.89421 1.75 11C1.75 16.1058 5.89421 20.25 11 20.25C11.4142 20.25 11.75 20.5858 11.75 21C11.75 21.4142 11.4142 21.75 11 21.75C5.06579 21.75 0.25 16.9342 0.25 11Z" fill="#101010"/>
</svg>
