<svg width="22" height="22" viewBox="0 0 22 22" fill="none" xmlns="http://www.w3.org/2000/svg">
<path fill-rule="evenodd" clip-rule="evenodd" d="M2.09467 2.09467C3.42914 0.760201 5.42603 0.25 8 0.25H14C16.574 0.25 18.5709 0.760201 19.9053 2.09467C21.2398 3.42914 21.75 5.42603 21.75 8V11C21.75 11.4142 21.4142 11.75 21 11.75C20.5858 11.75 20.25 11.4142 20.25 11V8C20.25 5.57397 19.7602 4.07086 18.8447 3.15533C17.9291 2.2398 16.426 1.75 14 1.75H8C5.57397 1.75 4.07086 2.2398 3.15533 3.15533C2.2398 4.07086 1.75 5.57397 1.75 8V14C1.75 16.426 2.2398 17.9291 3.15533 18.8447C4.07086 19.7602 5.57397 20.25 8 20.25H11C11.4142 20.25 11.75 20.5858 11.75 21C11.75 21.4142 11.4142 21.75 11 21.75H8C5.42603 21.75 3.42914 21.2398 2.09467 19.9053C0.760201 18.5709 0.25 16.574 0.25 14V8C0.25 5.42603 0.760201 3.42914 2.09467 2.09467Z" fill="#101010"/>
<path fill-rule="evenodd" clip-rule="evenodd" d="M12.7968 13.7795L14.6459 19.7266C14.6459 19.7266 14.6459 19.7265 14.6459 19.7266C14.8717 20.4497 15.8715 20.4537 16.1085 19.7428L16.1093 19.7402L16.6582 18.1135C16.885 17.4224 17.4253 16.9015 18.0913 16.679C18.0918 16.6788 18.0923 16.6787 18.0928 16.6785L19.7202 16.1294L19.7213 16.129C20.4368 15.8888 20.4174 14.8773 19.7162 14.6558C19.7158 14.6557 19.7155 14.6556 19.7151 14.6555L13.7576 12.8063L13.7538 12.8051C13.1774 12.6228 12.6093 13.1605 12.7968 13.7795ZM14.204 11.3742C12.4418 10.8187 10.8319 12.4792 11.3626 14.2189L13.2138 20.1727C13.8679 22.2689 16.8272 22.3262 17.531 20.2186C17.5312 20.2181 17.5313 20.2176 17.5315 20.2172L18.0806 18.5898L18.083 18.5825C18.1569 18.3561 18.3352 18.1789 18.5671 18.1015L20.1987 17.551C20.1984 17.5511 20.1989 17.5509 20.1987 17.551C22.282 16.8509 22.2623 13.8837 20.1648 13.2245L14.2061 11.3749C14.2054 11.3747 14.2047 11.3745 14.204 11.3742Z" fill="#101010"/>
</svg>
