<svg width="22" height="22" viewBox="0 0 22 22" fill="none" xmlns="http://www.w3.org/2000/svg">
<path fill-rule="evenodd" clip-rule="evenodd" d="M7.54679 8.62003C7.54697 8.62064 7.54716 8.62125 7.54734 8.62187L9.49639 14.8988C9.74325 15.6984 10.8582 15.7036 11.1173 14.9157L11.1187 14.9116L11.6983 13.1829C11.6983 13.1827 11.6982 13.183 11.6983 13.1829C11.9329 12.4794 12.4784 11.9335 13.1819 11.6987C13.1821 11.6987 13.1816 11.6988 13.1819 11.6987L14.9114 11.1189L14.914 11.118C15.6947 10.8596 15.6982 9.74034 14.8957 9.48575C14.8952 9.48559 14.8947 9.48542 14.8941 9.48526L8.60839 7.5366C8.60828 7.53657 8.60849 7.53663 8.60839 7.5366C7.96463 7.33797 7.34002 7.93515 7.54679 8.62003ZM6.11219 9.05815C5.56066 7.2439 7.23559 5.54253 9.05115 6.10344L15.3454 8.05473C17.5208 8.74095 17.5643 11.8193 15.3869 12.5415C15.3864 12.5417 15.3859 12.5418 15.3855 12.542L13.6569 13.1215C13.4009 13.2069 13.2066 13.4011 13.1213 13.6572L12.5422 15.3843C12.542 15.3851 12.5417 15.3858 12.5415 15.3866C11.8193 17.5762 8.73659 17.5209 8.06332 15.3418C8.06326 15.3416 8.06338 15.342 8.06332 15.3418L6.11219 9.05815Z" fill="#101010"/>
<path fill-rule="evenodd" clip-rule="evenodd" d="M11 1.75C5.89137 1.75 1.75 5.89137 1.75 11C1.75 16.1086 5.89137 20.25 11 20.25C16.1086 20.25 20.25 16.1086 20.25 11C20.25 5.89137 16.1086 1.75 11 1.75ZM0.25 11C0.25 5.06294 5.06294 0.25 11 0.25C16.9371 0.25 21.75 5.06294 21.75 11C21.75 16.9371 16.9371 21.75 11 21.75C5.06294 21.75 0.25 16.9371 0.25 11Z" fill="#101010"/>
</svg>
