<svg width="22" height="22" viewBox="0 0 22 22" fill="none" xmlns="http://www.w3.org/2000/svg">
<path fill-rule="evenodd" clip-rule="evenodd" d="M2.09467 2.09467C3.42914 0.760201 5.42603 0.25 8 0.25H14C16.574 0.25 18.5709 0.760201 19.9053 2.09467C21.2398 3.42914 21.75 5.42603 21.75 8V14C21.75 16.574 21.2398 18.5709 19.9053 19.9053C18.5709 21.2398 16.574 21.75 14 21.75H8C5.42603 21.75 3.42914 21.2398 2.09467 19.9053C0.760201 18.5709 0.25 16.574 0.25 14V8C0.25 5.42603 0.760201 3.42914 2.09467 2.09467ZM3.15533 3.15533C2.2398 4.07086 1.75 5.57397 1.75 8V14C1.75 16.426 2.2398 17.9291 3.15533 18.8447C4.07086 19.7602 5.57397 20.25 8 20.25H14C16.426 20.25 17.9291 19.7602 18.8447 18.8447C19.7602 17.9291 20.25 16.426 20.25 14V8C20.25 5.57397 19.7602 4.07086 18.8447 3.15533C17.9291 2.2398 16.426 1.75 14 1.75H8C5.57397 1.75 4.07086 2.2398 3.15533 3.15533Z" fill="#101010"/>
<path fill-rule="evenodd" clip-rule="evenodd" d="M7.41962 13.72C6.96674 13.72 6.59961 14.0871 6.59961 14.54C6.59961 14.9929 6.96674 15.36 7.41962 15.36C7.87249 15.36 8.23962 14.9929 8.23962 14.54C8.23962 14.0871 7.87249 13.72 7.41962 13.72ZM5.09961 14.54C5.09961 13.2587 6.13832 12.22 7.41962 12.22C8.70092 12.22 9.73962 13.2587 9.73962 14.54C9.73962 15.8213 8.70092 16.86 7.41962 16.86C6.13832 16.86 5.09961 15.8213 5.09961 14.54Z" fill="#101010"/>
<path fill-rule="evenodd" clip-rule="evenodd" d="M14.614 5.4945C15.2396 5.8592 15.5 6.54596 15.5 7.34992V13.4899C15.5 13.9041 15.1642 14.2399 14.75 14.2399C14.3358 14.2399 14 13.9041 14 13.4899V7.34992C14 7.09632 13.9597 6.95229 13.9262 6.87862C13.897 6.81439 13.8713 6.79786 13.8585 6.79039C13.809 6.76154 13.641 6.71832 13.3003 6.81273L13.2981 6.81333L10.1608 7.6726C9.89153 7.74881 9.75 7.92125 9.75 8.20997V14.5499C9.75 14.9641 9.41421 15.2999 9 15.2999C8.58579 15.2999 8.25 14.9641 8.25 14.5499V8.20997C8.25 7.19938 8.88783 6.47193 9.75733 6.22787L9.7619 6.22658L12.8997 5.36721C12.9001 5.3671 12.9004 5.367 12.9008 5.36689C13.39 5.23152 14.0464 5.16363 14.614 5.4945Z" fill="#101010"/>
<path fill-rule="evenodd" clip-rule="evenodd" d="M13.1794 12.6699C12.7265 12.6699 12.3594 13.0371 12.3594 13.4899C12.3594 13.9428 12.7265 14.3099 13.1794 14.3099C13.6323 14.3099 13.9994 13.9428 13.9994 13.4899C13.9994 13.0371 13.6323 12.6699 13.1794 12.6699ZM10.8594 13.4899C10.8594 12.2086 11.8981 11.1699 13.1794 11.1699C14.4607 11.1699 15.4994 12.2086 15.4994 13.4899C15.4994 14.7712 14.4607 15.8099 13.1794 15.8099C11.8981 15.8099 10.8594 14.7712 10.8594 13.4899Z" fill="#101010"/>
<path fill-rule="evenodd" clip-rule="evenodd" d="M15.4731 8.27268C15.582 8.67232 15.3463 9.08459 14.9467 9.19352L9.18668 10.7635C8.78704 10.8725 8.37477 10.6368 8.26584 10.2372C8.15692 9.83752 8.39258 9.42525 8.79221 9.31632L14.5522 7.74631C14.9519 7.63738 15.3641 7.87305 15.4731 8.27268Z" fill="#101010"/>
</svg>
