<svg width="19" height="22" viewBox="0 0 19 22" fill="none" xmlns="http://www.w3.org/2000/svg">
<path fill-rule="evenodd" clip-rule="evenodd" d="M4.96973 13.75C3.1748 13.75 1.71973 15.2051 1.71973 17C1.71973 18.7949 3.1748 20.25 4.96973 20.25C6.76465 20.25 8.21973 18.7949 8.21973 17C8.21973 15.2051 6.76465 13.75 4.96973 13.75ZM0.219727 17C0.219727 14.3766 2.34637 12.25 4.96973 12.25C7.59308 12.25 9.71973 14.3766 9.71973 17C9.71973 19.6234 7.59308 21.75 4.96973 21.75C2.34637 21.75 0.219727 19.6234 0.219727 17Z" fill="#101010"/>
<path fill-rule="evenodd" clip-rule="evenodd" d="M8.96973 2.25C9.38394 2.25 9.71973 2.58579 9.71973 3V17C9.71973 17.4142 9.38394 17.75 8.96973 17.75C8.55551 17.75 8.21973 17.4142 8.21973 17V3C8.21973 2.58579 8.55551 2.25 8.96973 2.25Z" fill="#101010"/>
<path fill-rule="evenodd" clip-rule="evenodd" d="M10.1852 1.90994C9.93695 2.08868 9.72586 2.43571 9.72954 2.99507L9.72957 3.00001L9.72955 4.18001C9.72955 4.55741 9.88064 4.99185 10.1609 5.37901C10.4408 5.76573 10.8077 6.04737 11.1676 6.1688C11.168 6.16892 11.1684 6.16904 11.1687 6.16916L15.5853 7.63801C15.5854 7.63806 15.5851 7.63795 15.5853 7.63801C16.1241 7.81623 16.5221 7.72409 16.7694 7.54562C17.0165 7.36721 17.2296 7.01896 17.2296 6.45001V5.28001C17.2296 4.90261 17.0785 4.46816 16.7982 4.081C16.5184 3.6943 16.1515 3.41266 15.7915 3.29123C15.7911 3.2911 15.7908 3.29098 15.7904 3.29085L11.3729 1.82168L11.3694 1.82053C10.8329 1.63921 10.4338 1.73103 10.1852 1.90994ZM11.8479 0.398872C10.935 0.0909224 10.0149 0.184318 9.30887 0.692576C8.60279 1.20087 8.22394 2.04278 8.22955 3.00233V4.18001C8.22955 4.93261 8.51847 5.66816 8.94575 6.2585C9.37307 6.8489 9.9807 7.35208 10.6904 7.59085L10.6929 7.59168L15.1129 9.06168L15.1139 9.06201C16.0248 9.36356 16.9421 9.27087 17.6472 8.76189C18.3526 8.2528 18.7296 7.41105 18.7296 6.45001V5.28001C18.7296 4.52741 18.4406 3.79185 18.0134 3.20152C17.586 2.61111 16.9784 2.10794 16.2687 1.86916L11.8479 0.398872Z" fill="#101010"/>
</svg>
