<svg width="22" height="22" viewBox="0 0 22 22" fill="none" xmlns="http://www.w3.org/2000/svg">
<path fill-rule="evenodd" clip-rule="evenodd" d="M2.88534 7.7371C2.20538 8.36848 1.75 9.39295 1.75 11V16C1.75 17.607 2.20538 18.6315 2.88534 19.2629C3.57535 19.9036 4.61497 20.25 6 20.25H16C17.385 20.25 18.4246 19.9036 19.1147 19.2629C19.7946 18.6315 20.25 17.607 20.25 16V11C20.25 9.39295 19.7946 8.36848 19.1147 7.7371C18.4246 7.09637 17.385 6.75 16 6.75H6C4.61497 6.75 3.57535 7.09637 2.88534 7.7371ZM1.86466 6.6379C2.92465 5.65363 4.38503 5.25 6 5.25H16C17.615 5.25 19.0754 5.65363 20.1353 6.6379C21.2054 7.63152 21.75 9.10705 21.75 11V16C21.75 17.893 21.2054 19.3685 20.1353 20.3621C19.0754 21.3464 17.615 21.75 16 21.75H6C4.38503 21.75 2.92465 21.3464 1.86466 20.3621C0.794615 19.3685 0.25 17.893 0.25 16V11C0.25 9.10705 0.794615 7.63152 1.86466 6.6379Z" fill="#101010"/>
<path fill-rule="evenodd" clip-rule="evenodd" d="M4.25 3.5C4.25 3.08579 4.58579 2.75 5 2.75H17C17.4142 2.75 17.75 3.08579 17.75 3.5C17.75 3.91421 17.4142 4.25 17 4.25H5C4.58579 4.25 4.25 3.91421 4.25 3.5Z" fill="#101010"/>
<path fill-rule="evenodd" clip-rule="evenodd" d="M7.25 1C7.25 0.585786 7.58579 0.25 8 0.25H14C14.4142 0.25 14.75 0.585786 14.75 1C14.75 1.41421 14.4142 1.75 14 1.75H8C7.58579 1.75 7.25 1.41421 7.25 1Z" fill="#101010"/>
<path fill-rule="evenodd" clip-rule="evenodd" d="M7.88953 16.1201C7.54711 16.1201 7.26953 16.3977 7.26953 16.7401C7.26953 17.0825 7.54711 17.3601 7.88953 17.3601C8.23194 17.3601 8.50952 17.0825 8.50952 16.7401C8.50952 16.3977 8.23194 16.1201 7.88953 16.1201ZM5.76953 16.7401C5.76953 15.5693 6.71868 14.6201 7.88953 14.6201C9.06037 14.6201 10.0095 15.5693 10.0095 16.7401C10.0095 17.911 9.06037 18.8601 7.88953 18.8601C6.71868 18.8601 5.76953 17.911 5.76953 16.7401Z" fill="#101010"/>
<path fill-rule="evenodd" clip-rule="evenodd" d="M14.2127 8.78055C14.7978 9.12341 15.0298 9.76251 15.0298 10.4801V15.8302C15.0298 16.2444 14.694 16.5802 14.2798 16.5802C13.8656 16.5802 13.5298 16.2444 13.5298 15.8302V10.4801C13.5298 10.2686 13.4963 10.1572 13.4742 10.1086C13.4638 10.0856 13.4562 10.0767 13.4549 10.0753C13.4542 10.0745 13.4549 10.0753 13.4549 10.0753C13.455 10.0754 13.455 10.0754 13.4549 10.0753C13.4545 10.0751 13.4276 10.0591 13.352 10.057C13.2752 10.0549 13.1696 10.0674 13.038 10.1035L10.3002 10.8528C10.1835 10.8858 10.117 10.9381 10.0802 10.9845C10.0459 11.0278 10.0098 11.1004 10.0098 11.2301V16.7401C10.0098 17.1543 9.67398 17.4901 9.25977 17.4901C8.84555 17.4901 8.50977 17.1543 8.50977 16.7401V11.2301C8.50977 10.2979 9.09925 9.63143 9.89751 9.40792L9.90172 9.40674L12.6416 8.6568C12.6417 8.65678 12.6415 8.65681 12.6416 8.6568C13.0798 8.53675 13.6848 8.47116 14.2127 8.78055Z" fill="#101010"/>
<path fill-rule="evenodd" clip-rule="evenodd" d="M12.9091 15.2102C12.5666 15.2102 12.2891 15.4878 12.2891 15.8302C12.2891 16.1726 12.5666 16.4502 12.9091 16.4502C13.2515 16.4502 13.5291 16.1726 13.5291 15.8302C13.5291 15.4878 13.2515 15.2102 12.9091 15.2102ZM10.7891 15.8302C10.7891 14.6594 11.7382 13.7102 12.9091 13.7102C14.0799 13.7102 15.0291 14.6593 15.0291 15.8302C15.0291 17.0011 14.0799 17.9502 12.9091 17.9502C11.7382 17.9502 10.7891 17.001 10.7891 15.8302Z" fill="#101010"/>
<path fill-rule="evenodd" clip-rule="evenodd" d="M15.0035 11.2627C15.1126 11.6623 14.877 12.0746 14.4774 12.1837L9.45741 13.5537C9.05781 13.6627 8.64547 13.4272 8.53641 13.0276C8.42736 12.628 8.6629 12.2157 9.0625 12.1066L14.0825 10.7366C14.4821 10.6276 14.8945 10.8631 15.0035 11.2627Z" fill="#101010"/>
</svg>
