<svg width="22" height="22" viewBox="0 0 22 22" fill="none" xmlns="http://www.w3.org/2000/svg">
<path fill-rule="evenodd" clip-rule="evenodd" d="M10.9696 1.79999C5.77176 1.79999 1.66761 6.00296 1.76944 11.2053L1.76958 11.22V17.38C1.76958 18.9072 3.05516 20.2 4.58959 20.2C6.12537 20.2 7.4096 18.9158 7.4096 17.38V14.57C7.4096 13.9332 6.90496 13.48 6.3196 13.48C5.68282 13.48 5.2296 13.9846 5.2296 14.57V17.49C5.2296 17.9042 4.89382 18.24 4.4796 18.24C4.06539 18.24 3.7296 17.9042 3.7296 17.49V14.57C3.7296 13.2154 4.79638 11.98 6.3196 11.98C7.67424 11.98 8.9096 13.0468 8.9096 14.57V17.38C8.9096 19.7442 6.9538 21.7 4.58959 21.7C2.22401 21.7 0.269581 19.7329 0.269581 17.38V11.2272C0.155486 5.19295 4.92992 0.299988 10.9696 0.299988C17.0101 0.299988 21.7696 5.19211 21.7696 11.11V17.27C21.7696 19.6342 19.8138 21.59 17.4496 21.59C15.0854 21.59 13.1296 19.6342 13.1296 17.27V14.46C13.1296 13.1054 14.1964 11.87 15.7196 11.87C17.0742 11.87 18.3096 12.9368 18.3096 14.46V17.49C18.3096 17.9042 17.9738 18.24 17.5596 18.24C17.1454 18.24 16.8096 17.9042 16.8096 17.49V14.46C16.8096 13.8232 16.305 13.37 15.7196 13.37C15.0828 13.37 14.6296 13.8746 14.6296 14.46V17.27C14.6296 18.8058 15.9138 20.09 17.4496 20.09C18.9854 20.09 20.2696 18.8058 20.2696 17.27V11.11C20.2696 6.00786 16.1691 1.79999 10.9696 1.79999Z" fill="#101010"/>
<path fill-rule="evenodd" clip-rule="evenodd" d="M8.88864 5.90621C9.30581 5.12022 10.369 5.22462 10.7344 5.92201L10.7405 5.93382L10.7404 5.93388L12.1744 8.79405L12.5192 8.10459L12.5263 8.09069C12.7542 7.65761 13.2178 7.36999 13.72 7.36999H14.53C14.9442 7.36999 15.28 7.70578 15.28 8.11999C15.28 8.53421 14.9442 8.86999 14.53 8.86999H13.8135L13.1108 10.2754C12.7245 11.048 11.6262 11.0482 11.2395 10.2761C11.2395 10.2761 11.2394 10.276 11.2394 10.2759C11.2393 10.2757 11.2392 10.2756 11.2392 10.2754L9.79161 7.38819L9.37109 8.16415C9.13801 8.60261 8.68103 8.86999 8.18997 8.86999H7.45996C7.04575 8.86999 6.70996 8.53421 6.70996 8.11999C6.70996 7.70578 7.04575 7.36999 7.45996 7.36999H8.09536L8.88864 5.90621Z" fill="#101010"/>
</svg>
