<svg width="22" height="22" viewBox="0 0 22 22" fill="none" xmlns="http://www.w3.org/2000/svg">
<path fill-rule="evenodd" clip-rule="evenodd" d="M6 7.75C5.33022 7.75 4.73888 7.83276 4.22642 7.99504L4.22084 7.9968L4.22084 7.99678C3.43821 8.23791 2.84078 8.6608 2.43013 9.27627C2.01432 9.89948 1.75 10.7808 1.75 12V16C1.75 17.607 2.20538 18.6315 2.88534 19.2629C3.57535 19.9036 4.61497 20.25 6 20.25H16C17.385 20.25 18.4246 19.9036 19.1147 19.2629C19.7946 18.6315 20.25 17.607 20.25 16V12C20.25 10.7808 19.9857 9.89948 19.5699 9.27627C19.1592 8.6608 18.5618 8.23791 17.7792 7.99678L17.7736 7.99506L17.7736 7.99504C17.2611 7.83276 16.6698 7.75 16 7.75H6ZM3.77637 6.56414C4.46315 6.34704 5.21085 6.25 6 6.25H16C16.7892 6.25 17.5369 6.34704 18.2237 6.56415C19.2898 6.89323 20.1913 7.50508 20.8176 8.44376C21.4393 9.37554 21.75 10.5692 21.75 12V16C21.75 17.893 21.2054 19.3685 20.1353 20.3621C19.0754 21.3464 17.615 21.75 16 21.75H6C4.38503 21.75 2.92465 21.3464 1.86466 20.3621C0.794615 19.3685 0.25 17.893 0.25 16V12C0.25 10.5692 0.560676 9.37554 1.18237 8.44376C1.80867 7.50507 2.71021 6.89321 3.77637 6.56414Z" fill="#101010"/>
<path fill-rule="evenodd" clip-rule="evenodd" d="M6 4.75C5.31421 4.75 4.75 5.31421 4.75 6V6.34017C5.15226 6.27881 5.56998 6.25 6 6.25H16C16.43 6.25 16.8477 6.27881 17.25 6.34017V6C17.25 5.31421 16.6858 4.75 16 4.75H6ZM3.25 6C3.25 4.48579 4.48579 3.25 6 3.25H16C17.5142 3.25 18.75 4.48579 18.75 6V7.28003C18.75 7.51912 18.636 7.74388 18.4431 7.88514C18.2502 8.02639 18.0015 8.06721 17.7736 7.99504C17.2611 7.83276 16.6698 7.75 16 7.75H6C5.33022 7.75 4.73888 7.83276 4.22642 7.99504C3.99848 8.06721 3.74979 8.02639 3.55689 7.88514C3.36399 7.74388 3.25 7.51912 3.25 7.28003V6Z" fill="#101010"/>
<path fill-rule="evenodd" clip-rule="evenodd" d="M8.51001 1.75C8.09422 1.75 7.75 2.09422 7.75 2.51001V3.25H14.25V2.51001C14.25 2.09422 13.9058 1.75 13.49 1.75H8.51001ZM6.25 2.51001C6.25 1.2658 7.2658 0.25 8.51001 0.25H13.49C14.7342 0.25 15.75 1.2658 15.75 2.51001V4C15.75 4.41421 15.4142 4.75 15 4.75H7C6.58579 4.75 6.25 4.41421 6.25 4V2.51001Z" fill="#101010"/>
<path fill-rule="evenodd" clip-rule="evenodd" d="M8.07001 16.5599C7.75521 16.5599 7.5 16.8151 7.5 17.1299C7.5 17.4447 7.75521 17.7 8.07001 17.7C8.38481 17.7 8.64001 17.4447 8.64001 17.1299C8.64001 16.8151 8.38481 16.5599 8.07001 16.5599ZM6 17.1299C6 15.9867 6.92678 15.0599 8.07001 15.0599C9.21324 15.0599 10.14 15.9867 10.14 17.1299C10.14 18.2732 9.21324 19.2 8.07001 19.2C6.92678 19.2 6 18.2732 6 17.1299Z" fill="#101010"/>
<path fill-rule="evenodd" clip-rule="evenodd" d="M14.1973 9.41551C14.7725 9.75286 15.0004 10.3808 15.0004 11.0799V16.2499C15.0004 16.6641 14.6646 16.9999 14.2504 16.9999C13.8362 16.9999 13.5004 16.6641 13.5004 16.2499V11.0799C13.5004 10.8791 13.4683 10.7754 13.4487 10.7322C13.4429 10.7194 13.4384 10.7121 13.4357 10.7082C13.4275 10.7051 13.4033 10.6975 13.3542 10.6963C13.2852 10.6946 13.1882 10.7063 13.0664 10.7411L13.057 10.7438L10.407 11.4637C10.3041 11.4916 10.2454 11.5376 10.2134 11.5779C10.1837 11.6155 10.1504 11.6807 10.1504 11.7999V17.1299C10.1504 17.5441 9.8146 17.8799 9.40039 17.8799C8.98618 17.8799 8.65039 17.5441 8.65039 17.1299V11.7999C8.65039 10.8909 9.22737 10.2294 10.0137 10.0162L12.6593 9.29737C13.0879 9.17573 13.679 9.11149 14.1973 9.41551Z" fill="#101010"/>
<path fill-rule="evenodd" clip-rule="evenodd" d="M12.9304 15.6799C12.6156 15.6799 12.3604 15.9351 12.3604 16.2499C12.3604 16.5647 12.6156 16.8199 12.9304 16.8199C13.2452 16.8199 13.5004 16.5647 13.5004 16.2499C13.5004 15.9351 13.2452 15.6799 12.9304 15.6799ZM10.8604 16.2499C10.8604 15.1067 11.7871 14.1799 12.9304 14.1799C14.0736 14.1799 15.0004 15.1067 15.0004 16.2499C15.0004 17.3932 14.0736 18.3199 12.9304 18.3199C11.7871 18.3199 10.8604 17.3932 10.8604 16.2499Z" fill="#101010"/>
<path fill-rule="evenodd" clip-rule="evenodd" d="M14.9733 11.833C15.082 12.2327 14.8462 12.6449 14.4465 12.7537L9.59655 14.0736C9.19688 14.1824 8.7847 13.9465 8.67592 13.5469C8.56715 13.1472 8.80297 12.735 9.20265 12.6262L14.0526 11.3063C14.4523 11.1975 14.8645 11.4333 14.9733 11.833Z" fill="#101010"/>
</svg>
