<svg width="22" height="22" viewBox="0 0 22 22" fill="none" xmlns="http://www.w3.org/2000/svg">
<path fill-rule="evenodd" clip-rule="evenodd" d="M3.07408 3.07409C2.2148 3.93338 1.75 5.349 1.75 7.65002V13.35C1.75 15.651 2.2148 17.0666 3.07408 17.9259C3.93336 18.7852 5.34898 19.25 7.65 19.25H12.8231C12.4552 18.5787 12.25 17.8077 12.25 17C12.25 14.3758 14.3758 12.25 17 12.25C17.8104 12.25 18.5792 12.4532 19.25 12.8148V7.65002C19.25 5.349 18.7852 3.93338 17.9259 3.07409C17.0666 2.2148 15.651 1.75 13.35 1.75H7.65C5.34898 1.75 3.93336 2.2148 3.07408 3.07409ZM2.01342 2.01343C3.29164 0.735208 5.20103 0.25 7.65 0.25H13.35C15.799 0.25 17.7084 0.735208 18.9866 2.01343C20.2648 3.29166 20.75 5.20105 20.75 7.65002V13.35C20.75 13.7043 20.7396 14.0506 20.7184 14.3783C20.6989 14.6811 20.4989 14.9423 20.2117 15.04C19.9244 15.1378 19.6066 15.0529 19.4064 14.8249C18.8272 14.1652 17.9617 13.75 17 13.75C15.2042 13.75 13.75 15.2042 13.75 17C13.75 17.6094 13.9205 18.1833 14.2184 18.6663L14.2265 18.6797C14.3841 18.9477 14.5911 19.1951 14.8312 19.4032C15.0611 19.6025 15.1479 19.921 15.0508 20.2093C14.9537 20.4977 14.6919 20.6988 14.3883 20.7184C14.0604 20.7396 13.7142 20.75 13.35 20.75H7.65C5.20103 20.75 3.29164 20.2648 2.01342 18.9866C0.735202 17.7083 0.25 15.7989 0.25 13.35V7.65002C0.25 5.20105 0.735202 3.29166 2.01342 2.01343Z" fill="#101010"/>
<path fill-rule="evenodd" clip-rule="evenodd" d="M5.71954 11.27C5.3329 11.27 5.01953 11.5834 5.01953 11.97C5.01953 12.3566 5.33294 12.67 5.71954 12.67C6.10612 12.67 6.41953 12.3566 6.41953 11.97C6.41953 11.5834 6.10617 11.27 5.71954 11.27ZM3.51953 11.97C3.51953 10.7549 4.50455 9.77002 5.71954 9.77002C6.93453 9.77002 7.91953 10.7549 7.91953 11.97C7.91953 13.185 6.93457 14.17 5.71954 14.17C4.5045 14.17 3.51953 13.185 3.51953 11.97Z" fill="#101010"/>
<path fill-rule="evenodd" clip-rule="evenodd" d="M12.3707 3.57838C12.9737 3.92749 13.2199 4.58492 13.2199 5.33996V10.9999C13.2199 11.4142 12.8841 11.7499 12.4699 11.7499C12.0557 11.7499 11.7199 11.4142 11.7199 10.9999V5.33996C11.7199 5.11161 11.6835 4.98807 11.6572 4.93047C11.6362 4.88453 11.6213 4.87751 11.6193 4.8766C11.6192 4.87656 11.6194 4.87662 11.6193 4.8766C11.5931 4.86145 11.4564 4.81808 11.1497 4.90284L11.1477 4.90339L8.2549 5.69412C8.03862 5.75235 7.91992 5.89304 7.91992 6.12994V11.9699C7.91992 12.3841 7.58414 12.7199 7.16992 12.7199C6.75571 12.7199 6.41992 12.3841 6.41992 11.9699V6.12994C6.41992 5.16745 7.04045 4.46834 7.8634 4.24611L10.7502 3.45702C10.7505 3.45692 10.7509 3.45682 10.7512 3.45673C11.2044 3.33167 11.8273 3.26376 12.3707 3.57838Z" fill="#101010"/>
<path fill-rule="evenodd" clip-rule="evenodd" d="M11.0291 10.3C10.6425 10.3 10.3291 10.6135 10.3291 11.0001C10.3291 11.3867 10.6425 11.7001 11.0291 11.7001C11.4157 11.7001 11.7291 11.3867 11.7291 11.0001C11.7291 10.6135 11.4157 10.3 11.0291 10.3ZM8.8291 11.0001C8.8291 9.78504 9.81406 8.80005 11.0291 8.80005C12.2441 8.80005 13.2291 9.78504 13.2291 11.0001C13.2291 12.2151 12.2441 13.2001 11.0291 13.2001C9.81406 13.2001 8.8291 12.2151 8.8291 11.0001Z" fill="#101010"/>
<path fill-rule="evenodd" clip-rule="evenodd" d="M13.1926 6.18215C13.3019 6.58169 13.0666 6.99418 12.6671 7.10349L7.36705 8.5535C6.96752 8.6628 6.55503 8.42753 6.44572 8.028C6.33641 7.62847 6.57169 7.21598 6.97122 7.10667L12.2712 5.65666C12.6708 5.54735 13.0832 5.78262 13.1926 6.18215Z" fill="#101010"/>
<path fill-rule="evenodd" clip-rule="evenodd" d="M17 13.75C15.2042 13.75 13.75 15.2042 13.75 17C13.75 17.6094 13.9205 18.1833 14.2184 18.6663L14.2265 18.6797C14.3841 18.9477 14.5911 19.1951 14.8312 19.4032L14.8461 19.4164C15.4129 19.9347 16.1641 20.25 17 20.25C18.1859 20.25 19.2156 19.6177 19.7754 18.6766L19.7815 18.6663L19.7816 18.6663C20.0795 18.1833 20.25 17.6094 20.25 17C20.25 16.1739 19.9345 15.4108 19.4129 14.8322L19.4064 14.8249L19.4064 14.8249C18.8272 14.1652 17.9617 13.75 17 13.75ZM12.25 17C12.25 14.3758 14.3758 12.25 17 12.25C18.3965 12.25 19.6696 12.8533 20.5303 13.8315C21.2868 14.6724 21.75 15.7878 21.75 17C21.75 17.8885 21.5017 18.7327 21.0615 19.4486C20.2406 20.8246 18.732 21.75 17 21.75C15.7795 21.75 14.6736 21.288 13.8413 20.5302C13.4865 20.2213 13.1777 19.8535 12.9375 19.447C12.498 18.7315 12.25 17.8879 12.25 17Z" fill="#101010"/>
<path fill-rule="evenodd" clip-rule="evenodd" d="M15.4176 15.4009C15.7098 15.1073 16.1847 15.1061 16.4783 15.3983L18.5983 17.5083C18.8919 17.8005 18.893 18.2754 18.6008 18.569C18.3086 18.8626 17.8337 18.8637 17.5401 18.5715L15.4201 16.4615C15.1266 16.1693 15.1254 15.6944 15.4176 15.4009Z" fill="#101010"/>
<path fill-rule="evenodd" clip-rule="evenodd" d="M18.5813 15.4309C18.8735 15.7245 18.8723 16.1993 18.5788 16.4915L16.4588 18.6015C16.1652 18.8937 15.6903 18.8926 15.3981 18.599C15.1059 18.3054 15.107 17.8306 15.4006 17.5384L17.5206 15.4284C17.8142 15.1362 18.2891 15.1373 18.5813 15.4309Z" fill="#101010"/>
</svg>
