<svg width="17" height="15" viewBox="0 0 17 15" fill="none" xmlns="http://www.w3.org/2000/svg">
<path fill-rule="evenodd" clip-rule="evenodd" d="M3.96432 0.360123C3.96442 0.360176 3.96423 0.360069 3.96432 0.360123L8.11521 2.75062L12.2643 5.1501C12.2645 5.15021 12.2641 5.14999 12.2643 5.1501M3.21518 1.65966C2.01221 0.966176 0.509766 1.83044 0.509766 3.21988V12.7899C0.509766 14.1718 2.01439 15.0423 3.21518 14.3501L7.36428 11.9606L11.5152 9.5601C12.7146 8.86867 12.7146 7.14107 11.5152 6.44963L7.36428 4.04912L3.21518 1.65966Z" fill="#101010"/>
<path fill-rule="evenodd" clip-rule="evenodd" d="M16.2402 1.06982C16.6544 1.06982 16.9902 1.40561 16.9902 1.81982V14.1798C16.9902 14.594 16.6544 14.9298 16.2402 14.9298C15.826 14.9298 15.4902 14.594 15.4902 14.1798V1.81982C15.4902 1.40561 15.826 1.06982 16.2402 1.06982Z" fill="#101010"/>
</svg>
