<svg width="20" height="22" viewBox="0 0 20 22" fill="none" xmlns="http://www.w3.org/2000/svg">
<path fill-rule="evenodd" clip-rule="evenodd" d="M4.25 13C4.25 12.5858 4.58579 12.25 5 12.25H10C10.4142 12.25 10.75 12.5858 10.75 13C10.75 13.4142 10.4142 13.75 10 13.75H5C4.58579 13.75 4.25 13.4142 4.25 13Z" fill="#101010"/>
<path fill-rule="evenodd" clip-rule="evenodd" d="M0.71967 0.679692C1.01256 0.386799 1.48744 0.386799 1.78033 0.679692L5.53033 4.42969C5.82322 4.72259 5.82322 5.19746 5.53033 5.49035C5.23744 5.78325 4.76256 5.78325 4.46967 5.49035L0.71967 1.74035C0.426777 1.44746 0.426777 0.972585 0.71967 0.679692Z" fill="#101010"/>
<path fill-rule="evenodd" clip-rule="evenodd" d="M5.49029 0.71967C5.78318 1.01256 5.78318 1.48744 5.49029 1.78033L1.74029 5.53033C1.4474 5.82322 0.972524 5.82322 0.679631 5.53033C0.386738 5.23744 0.386738 4.76256 0.679631 4.46967L4.42963 0.71967C4.72252 0.426777 5.1974 0.426777 5.49029 0.71967Z" fill="#101010"/>
<path fill-rule="evenodd" clip-rule="evenodd" d="M4.25 9C4.25 8.58579 4.58579 8.25 5 8.25H13C13.4142 8.25 13.75 8.58579 13.75 9C13.75 9.41421 13.4142 9.75 13 9.75H5C4.58579 9.75 4.25 9.41421 4.25 9Z" fill="#101010"/>
<path fill-rule="evenodd" clip-rule="evenodd" d="M7.25 1C7.25 0.585786 7.58579 0.25 8 0.25H14C14.0135 0.25 14.027 0.250365 14.0405 0.251093C15.7631 0.344209 17.2629 0.713786 18.2996 1.83607C19.3279 2.94914 19.75 4.64006 19.75 6.99V15C19.75 15.4142 19.4142 15.75 19 15.75C18.5858 15.75 18.25 15.4142 18.25 15V6.99C18.25 4.75994 17.8371 3.54586 17.1979 2.85393C16.5698 2.17404 15.5752 1.83858 13.9795 1.75H8C7.58579 1.75 7.25 1.41421 7.25 1Z" fill="#101010"/>
<path fill-rule="evenodd" clip-rule="evenodd" d="M1 7.26001C1.41421 7.26001 1.75 7.5958 1.75 8.01001V14.98C1.75 16.9719 2.01132 18.222 2.69035 19.0009C3.34703 19.7542 4.56558 20.25 7 20.25H12.999C13.4132 20.25 13.75 20.5858 13.75 21C13.75 21.4142 13.4142 21.75 13 21.75H7C4.43442 21.75 2.65297 21.2408 1.55965 19.9866C0.488682 18.758 0.25 16.9981 0.25 14.98V8.01001C0.25 7.5958 0.585786 7.26001 1 7.26001Z" fill="#101010"/>
<path fill-rule="evenodd" clip-rule="evenodd" d="M14.2803 16.2803C13.9706 16.5901 13.75 17.1156 13.75 18V19.1893L17.1893 15.75H16C15.1156 15.75 14.5901 15.9706 14.2803 16.2803ZM13.2197 15.2197C13.9099 14.5294 14.8844 14.25 16 14.25H19C19.3033 14.25 19.5768 14.4327 19.6929 14.713C19.809 14.9932 19.7448 15.3158 19.5303 15.5303L13.5303 21.5303C13.3158 21.7448 12.9932 21.809 12.713 21.6929C12.4327 21.5768 12.25 21.3033 12.25 21V18C12.25 16.8844 12.5294 15.9099 13.2197 15.2197Z" fill="#101010"/>
</svg>
