<svg width="22" height="22" viewBox="0 0 22 22" fill="none" xmlns="http://www.w3.org/2000/svg">
<path fill-rule="evenodd" clip-rule="evenodd" d="M2.09467 2.09467C3.42914 0.760201 5.42603 0.25 8 0.25H14C16.574 0.25 18.5709 0.760201 19.9053 2.09467C21.2398 3.42914 21.75 5.42603 21.75 8V9C21.75 9.41421 21.4142 9.75 21 9.75C20.5858 9.75 20.25 9.41421 20.25 9V8C20.25 5.57397 19.7602 4.07086 18.8447 3.15533C17.9291 2.2398 16.426 1.75 14 1.75H8C5.57397 1.75 4.07086 2.2398 3.15533 3.15533C2.2398 4.07086 1.75 5.57397 1.75 8V14C1.75 16.426 2.2398 17.9291 3.15533 18.8447C4.07086 19.7602 5.57397 20.25 8 20.25H10C10.4142 20.25 10.75 20.5858 10.75 21C10.75 21.4142 10.4142 21.75 10 21.75H8C5.42603 21.75 3.42914 21.2398 2.09467 19.9053C0.760201 18.5709 0.25 16.574 0.25 14V8C0.25 5.42603 0.760201 3.42914 2.09467 2.09467Z" fill="#101010"/>
<path fill-rule="evenodd" clip-rule="evenodd" d="M14.5098 17.75C13.8194 17.75 13.2598 18.3096 13.2598 19C13.2598 19.6904 13.8194 20.25 14.5098 20.25C15.2001 20.25 15.7598 19.6904 15.7598 19C15.7598 18.3096 15.2001 17.75 14.5098 17.75ZM11.7598 19C11.7598 17.4812 12.991 16.25 14.5098 16.25C16.0285 16.25 17.2598 17.4812 17.2598 19C17.2598 20.5188 16.0285 21.75 14.5098 21.75C12.991 21.75 11.7598 20.5188 11.7598 19Z" fill="#101010"/>
<path fill-rule="evenodd" clip-rule="evenodd" d="M16.5098 11.26C16.924 11.26 17.2598 11.5958 17.2598 12.01V19C17.2598 19.4142 16.924 19.75 16.5098 19.75C16.0956 19.75 15.7598 19.4142 15.7598 19V12.01C15.7598 11.5958 16.0956 11.26 16.5098 11.26Z" fill="#101010"/>
<path fill-rule="evenodd" clip-rule="evenodd" d="M17.3334 11.7746C17.3263 11.7798 17.2598 11.8296 17.2598 12.02V12.61C17.2598 12.7083 17.3015 12.8503 17.4038 12.9918C17.5059 13.1331 17.6282 13.218 17.7198 13.2495L19.9269 13.9885C19.9271 13.9885 19.9268 13.9885 19.9269 13.9885C20.0968 14.045 20.1639 14.0005 20.174 13.9932C20.185 13.9852 20.2498 13.9327 20.2498 13.75V13.16C20.2498 13.0617 20.208 12.9197 20.1058 12.7782C20.0036 12.637 19.8814 12.552 19.7897 12.5205L17.5826 11.7815C17.5825 11.7815 17.5827 11.7816 17.5826 11.7815C17.4083 11.7235 17.341 11.7691 17.3334 11.7746ZM16.4561 10.5579C16.9235 10.2209 17.5115 10.1767 18.0569 10.3585L18.0579 10.3588L20.271 11.0998C20.7092 11.2487 21.0713 11.5536 21.3213 11.8993C21.5715 12.2453 21.7498 12.6883 21.7498 13.16V13.75C21.7498 14.3273 21.5195 14.8698 21.0555 15.2068C20.5906 15.5445 20.0025 15.5948 19.4526 15.4115L19.4516 15.4112L17.2385 14.6702C16.8003 14.5214 16.4382 14.2164 16.1882 13.8707C15.938 13.5247 15.7598 13.0817 15.7598 12.61V12.02C15.7598 11.4404 15.9883 10.8953 16.4561 10.5579Z" fill="#101010"/>
</svg>
