<svg width="18" height="22" viewBox="0 0 18 22" fill="none" xmlns="http://www.w3.org/2000/svg">
<path fill-rule="evenodd" clip-rule="evenodd" d="M2.64694 4.61109C2.1562 5.01369 1.75 5.7595 1.75 7.25V17C1.75 18.3465 2.14588 19.1121 2.66144 19.5574C3.19756 20.0203 3.99287 20.25 5 20.25H13C14.0071 20.25 14.8024 20.0203 15.3386 19.5574C15.8541 19.1121 16.25 18.3465 16.25 17V7.25C16.25 5.7595 15.8438 5.01369 15.3531 4.61109C14.9453 4.27655 14.3767 4.09163 13.648 4.02683C13.3049 5.3057 12.1357 6.25 10.75 6.25H7.25C6.42284 6.25 5.67436 5.91504 5.12964 5.37033C4.76186 5.00254 4.48972 4.54189 4.35173 4.02685C3.62315 4.09167 3.05468 4.27659 2.64694 4.61109ZM1.69556 3.45141C2.62138 2.69188 3.8366 2.5 5 2.5C5.41421 2.5 5.75 2.83579 5.75 3.25C5.75 3.66286 5.91503 4.03439 6.1903 4.30967C6.46559 4.58495 6.83716 4.75 7.25 4.75H10.75C11.5758 4.75 12.25 4.07579 12.25 3.25C12.25 2.83579 12.5858 2.5 13 2.5C14.1634 2.5 15.3786 2.69188 16.3044 3.45141C17.2612 4.23631 17.75 5.4905 17.75 7.25V17C17.75 18.6535 17.2509 19.8879 16.3189 20.6926C15.4076 21.4797 14.2029 21.75 13 21.75H5C3.79713 21.75 2.59244 21.4797 1.68106 20.6926C0.749119 19.8879 0.25 18.6535 0.25 17V7.25C0.25 5.4905 0.738803 4.23631 1.69556 3.45141Z" fill="#101010"/>
<path fill-rule="evenodd" clip-rule="evenodd" d="M7.25 1.75C6.42421 1.75 5.75 2.42421 5.75 3.25C5.75 3.66286 5.91503 4.03439 6.1903 4.30967C6.46559 4.58495 6.83716 4.75 7.25 4.75H10.75C11.5758 4.75 12.25 4.07579 12.25 3.25C12.25 2.83714 12.085 2.46561 11.8097 2.19033C11.5344 1.91505 11.1628 1.75 10.75 1.75H7.25ZM4.25 3.25C4.25 1.59579 5.59579 0.25 7.25 0.25H10.75C11.5772 0.25 12.3256 0.584959 12.8704 1.12967C13.4151 1.6744 13.75 2.42286 13.75 3.25C13.75 4.90421 12.4042 6.25 10.75 6.25H7.25C6.42284 6.25 5.67436 5.91504 5.12964 5.37033C4.58492 4.8256 4.25 4.07714 4.25 3.25Z" fill="#101010"/>
<path fill-rule="evenodd" clip-rule="evenodd" d="M4.25 12C4.25 11.5858 4.58579 11.25 5 11.25H9C9.41421 11.25 9.75 11.5858 9.75 12C9.75 12.4142 9.41421 12.75 9 12.75H5C4.58579 12.75 4.25 12.4142 4.25 12Z" fill="#101010"/>
<path fill-rule="evenodd" clip-rule="evenodd" d="M4.25 16C4.25 15.5858 4.58579 15.25 5 15.25H13C13.4142 15.25 13.75 15.5858 13.75 16C13.75 16.4142 13.4142 16.75 13 16.75H5C4.58579 16.75 4.25 16.4142 4.25 16Z" fill="#101010"/>
</svg>
