<svg width="22" height="22" viewBox="0 0 22 22" fill="none" xmlns="http://www.w3.org/2000/svg">
<path fill-rule="evenodd" clip-rule="evenodd" d="M10.681 2.46523C9.84818 2.75263 9.19357 3.35439 8.67526 4.42646L8.67306 4.43101C8.40701 4.97198 8.18288 5.65257 7.9902 6.47134C7.99017 6.47149 7.99024 6.47119 7.9902 6.47134L7.01033 10.6608C6.53745 12.6778 6.66077 13.9957 7.2259 14.9055C7.79155 15.8163 8.91985 16.5123 10.9333 16.9903L12.616 17.3909C13.1648 17.5234 13.6655 17.606 14.1198 17.6424L14.1318 17.6434C15.5613 17.7808 16.5297 17.507 17.2374 16.9014C17.9704 16.2741 18.5447 15.1898 18.9495 13.45L19.9298 9.26881C20.4029 7.25095 20.2815 5.93118 19.7165 5.02041C19.1514 4.10968 18.0221 3.41346 15.9995 2.94036C15.9994 2.94034 15.9996 2.94038 15.9995 2.94036L14.3295 2.55036L14.3274 2.54987C12.7183 2.16929 11.5486 2.16579 10.681 2.46523ZM14.6716 1.0899C12.9411 0.680705 11.4462 0.614318 10.1916 1.04729C8.90261 1.49214 7.97754 2.42457 7.32591 3.77127C6.99256 4.44972 6.73704 5.24818 6.52997 6.12823L5.54983 10.3188C5.0428 12.4817 5.07435 14.2844 5.95167 15.697C6.82845 17.1086 8.42999 17.9376 10.5863 18.4496M10.5863 18.4496L12.2641 18.8491C12.2645 18.8492 12.265 18.8493 12.2654 18.8494C12.8739 18.9962 13.4507 19.0933 13.9942 19.1371C15.6822 19.2984 17.1017 18.9918 18.2127 18.0411C19.2995 17.111 19.9752 15.6605 20.4104 13.7906C20.4103 13.7908 20.4104 13.7904 20.4104 13.7906L21.3902 9.6112C21.8971 7.44906 21.8685 5.64384 20.9911 4.22961C20.1137 2.81537 18.5081 1.98661 16.3408 1.47972L14.6727 1.09015C14.6723 1.09006 14.672 1.08998 14.6716 1.0899" fill="#101010"/>
<path fill-rule="evenodd" clip-rule="evenodd" d="M8.59729 3.6459C8.76933 3.87205 8.7988 4.176 8.6734 4.43099C8.40735 4.97195 8.18324 5.65253 7.99056 6.47129C7.99052 6.47145 7.9906 6.47113 7.99056 6.47129L7.01067 10.6608C6.5378 12.6778 6.66112 13.9957 7.22625 14.9055C7.7919 15.8163 8.9202 16.5123 10.9336 16.9903L12.6164 17.3909C13.1651 17.5234 13.6659 17.606 14.1202 17.6424C14.4376 17.6678 14.7044 17.8909 14.7856 18.1988C14.8668 18.5067 14.7447 18.8323 14.481 19.0109C13.7829 19.4838 12.9321 19.8602 11.9442 20.1826C11.9438 20.1827 11.9434 20.1829 11.943 20.183L10.3648 20.7024L10.3605 20.7038C8.30585 21.3663 6.55266 21.4852 5.10876 20.7464C3.66513 20.0078 2.73461 18.516 2.06709 16.4618L0.786568 12.5101C0.124322 10.4561 0.00275797 8.701 0.738235 7.25604C1.47406 5.8104 2.96344 4.87965 5.01805 4.21689L6.60369 3.69503C7.02502 3.56144 7.44782 3.44123 7.86096 3.36307C8.14016 3.31025 8.42524 3.41975 8.59729 3.6459ZM6.77189 5.21882L5.48053 5.64383C3.56627 6.26102 2.54145 7.02011 2.07503 7.93646C1.60805 8.85391 1.59645 10.1336 2.21402 12.0493C2.21408 12.0495 2.21397 12.0491 2.21402 12.0493L3.49367 15.9982C4.11616 17.9139 4.87564 18.9422 5.792 19.4111C6.70778 19.8796 7.984 19.8937 9.89818 19.2768C9.89887 19.2766 9.89955 19.2764 9.90024 19.2762L11.4759 18.7576L11.4777 18.757C11.5341 18.7386 11.5897 18.7201 11.6446 18.7015L10.5871 18.4497M6.77189 5.21882C6.68431 5.5104 6.60423 5.81411 6.53032 6.12822L5.55018 10.3188C5.55021 10.3187 5.55015 10.3189 5.55018 10.3188" fill="#101010"/>
<path fill-rule="evenodd" clip-rule="evenodd" d="M10.9138 7.34559C11.0156 6.94409 11.4237 6.70115 11.8252 6.80298L16.6752 8.03298C17.0767 8.1348 17.3196 8.54283 17.2178 8.94433C17.116 9.34584 16.7079 9.58877 16.3064 9.48695L11.4564 8.25695C11.0549 8.15513 10.812 7.7471 10.9138 7.34559Z" fill="#101010"/>
<path fill-rule="evenodd" clip-rule="evenodd" d="M9.93362 11.2145C10.036 10.8132 10.4444 10.5708 10.8458 10.6732L13.7458 11.4132C14.1471 11.5157 14.3895 11.924 14.2871 12.3254C14.1846 12.7268 13.7763 12.9691 13.3749 12.8667L10.4749 12.1267C10.0735 12.0243 9.83121 11.6159 9.93362 11.2145Z" fill="#101010"/>
</svg>
