<svg width="20" height="22" viewBox="0 0 20 22" fill="none" xmlns="http://www.w3.org/2000/svg">
<path fill-rule="evenodd" clip-rule="evenodd" d="M7.55957 11.25C7.97378 11.25 8.30957 11.5858 8.30957 12V17C8.30957 17.4142 7.97378 17.75 7.55957 17.75C7.14536 17.75 6.80957 17.4142 6.80957 17V12C6.80957 11.5858 7.14536 11.25 7.55957 11.25Z" fill="#101010"/>
<path fill-rule="evenodd" clip-rule="evenodd" d="M4.25 14.5C4.25 14.0858 4.58579 13.75 5 13.75H10C10.4142 13.75 10.75 14.0858 10.75 14.5C10.75 14.9142 10.4142 15.25 10 15.25H5C4.58579 15.25 4.25 14.9142 4.25 14.5Z" fill="#101010"/>
<path fill-rule="evenodd" clip-rule="evenodd" d="M6 0.25C6.41421 0.25 6.75 0.585786 6.75 1V4C6.75 4.41421 6.41421 4.75 6 4.75C5.58579 4.75 5.25 4.41421 5.25 4V1C5.25 0.585786 5.58579 0.25 6 0.25Z" fill="#101010"/>
<path fill-rule="evenodd" clip-rule="evenodd" d="M14 0.25C14.4142 0.25 14.75 0.585786 14.75 1V4C14.75 4.41421 14.4142 4.75 14 4.75C13.5858 4.75 13.25 4.41421 13.25 4V1C13.25 0.585786 13.5858 0.25 14 0.25Z" fill="#101010"/>
<path fill-rule="evenodd" clip-rule="evenodd" d="M13.7948 1.67013C13.8088 1.66985 13.8228 1.66996 13.8368 1.67047C15.5684 1.73268 17.0782 2.08434 18.1372 3.21473C19.1828 4.33088 19.6385 6.04798 19.6897 8.45403L19.8197 14.6242L19.8197 14.6254C19.8599 16.6952 19.6593 18.4936 18.6213 19.7675C17.5569 21.0737 15.7854 21.6333 13.2163 21.6898L7.21484 21.8098C4.64486 21.8612 2.85049 21.3732 1.73321 20.1108C0.643611 18.8797 0.370303 17.0912 0.330007 15.0258C0.329999 15.0254 0.329991 15.025 0.329983 15.0246L0.190011 8.84594C0.138796 6.43885 0.524852 4.70385 1.52471 3.54604C2.53711 2.37369 4.03119 1.96179 5.75352 1.8321C5.76728 1.83106 5.78106 1.83041 5.79484 1.83013L13.7948 1.67013ZM5.84581 3.32941C4.26007 3.45127 3.27494 3.81431 2.65998 4.52643C2.02987 5.25607 1.64094 6.52094 1.68966 8.81355C1.68966 8.81371 1.68966 8.81339 1.68966 8.81355L1.8297 14.9954C1.86949 17.0394 2.15628 18.3255 2.85647 19.1167C3.5292 19.8768 4.75482 20.3587 7.18484 20.3101L13.1833 20.1902C13.1834 20.1902 13.1833 20.1902 13.1833 20.1902C15.6141 20.1367 16.8178 19.6062 17.4584 18.82C18.1253 18.0015 18.3597 16.7051 18.32 14.6553C18.32 14.6551 18.32 14.6556 18.32 14.6553L18.19 8.48594C18.19 8.48589 18.19 8.48599 18.19 8.48594C18.1412 6.19209 17.7019 4.94407 17.0425 4.24024C16.3992 3.55358 15.3999 3.23007 13.8036 3.17026L5.84581 3.32941Z" fill="#101010"/>
</svg>
