<svg width="18" height="22" viewBox="0 0 18 22" fill="none" xmlns="http://www.w3.org/2000/svg">
<path fill-rule="evenodd" clip-rule="evenodd" d="M2.26972 7.90991C2.26972 4.1857 5.2955 1.15991 9.01972 1.15991C12.7339 1.15991 15.7697 4.1957 15.7697 7.90991V10.7999C15.7697 11.0148 15.8184 11.3293 15.9105 11.6653C16.0015 11.9973 16.1191 12.2923 16.2262 12.4796L17.3728 14.384C18.2784 15.8933 17.5545 17.8594 15.8863 18.4116C11.4223 19.9028 6.60593 19.9027 2.14205 18.4113L2.13927 18.4103C1.29686 18.1252 0.665105 17.5357 0.382636 16.7728C0.0998401 16.0091 0.196042 15.1495 0.657079 14.3832L1.80551 12.4759C1.80576 12.4754 1.80601 12.475 1.80627 12.4746C1.91577 12.2905 2.03573 11.9965 2.12829 11.6631C2.22114 11.3286 2.26972 11.0145 2.26972 10.7999V7.90991ZM9.01972 2.65991C6.12393 2.65991 3.76972 5.01413 3.76972 7.90991V10.7999C3.76972 11.1953 3.68829 11.6513 3.57364 12.0643C3.45892 12.4775 3.29422 12.908 3.09393 13.244L3.09225 13.2468L1.94236 15.1566C1.94232 15.1566 1.94239 15.1565 1.94236 15.1566C1.6935 15.5703 1.67961 15.9558 1.7893 16.252C1.89922 16.5488 2.16206 16.8341 2.61883 16.989C6.77417 18.377 11.2568 18.3769 15.4121 16.9886L15.4143 16.9878C16.1651 16.7396 16.5007 15.8467 16.0869 15.1563C16.0868 15.1561 16.087 15.1565 16.0869 15.1563L14.93 13.2348C14.7379 12.9018 14.577 12.4743 14.4639 12.062C14.3511 11.6506 14.2697 11.1951 14.2697 10.7999V7.90991C14.2697 5.02413 11.9055 2.65991 9.01972 2.65991Z" fill="#101010"/>
<path fill-rule="evenodd" clip-rule="evenodd" d="M6.47164 1.92629C6.87109 0.907006 7.86279 0.189941 9.01994 0.189941C10.1771 0.189941 11.1688 0.907006 11.5682 1.92629C11.6725 2.19236 11.6165 2.49457 11.4238 2.70562C11.2311 2.91667 10.9353 2.99988 10.6608 2.9202C10.3834 2.83966 10.1034 2.77889 9.81969 2.74449L9.81691 2.74415C8.9525 2.6361 8.13574 2.70023 7.37929 2.92013C7.10483 2.99991 6.80888 2.91676 6.61614 2.70571C6.42339 2.49466 6.36736 2.1924 6.47164 1.92629Z" fill="#101010"/>
<path fill-rule="evenodd" clip-rule="evenodd" d="M6.76953 18.0599C6.76953 18.6725 7.02434 19.2441 7.42986 19.6496C7.83539 20.0551 8.40701 20.3099 9.01953 20.3099C10.2553 20.3099 11.2695 19.2957 11.2695 18.0599H12.7695C12.7695 20.1242 11.0837 21.8099 9.01953 21.8099C7.99205 21.8099 7.04368 21.3847 6.3692 20.7103C5.69473 20.0358 5.26953 19.0874 5.26953 18.0599H6.76953Z" fill="#101010"/>
</svg>
