<svg width="22" height="22" viewBox="0 0 22 22" fill="none" xmlns="http://www.w3.org/2000/svg">
<path fill-rule="evenodd" clip-rule="evenodd" d="M18 1.75C16.7574 1.75 15.75 2.75736 15.75 4C15.75 5.24264 16.7574 6.25 18 6.25C19.2426 6.25 20.25 5.24264 20.25 4C20.25 2.75736 19.2426 1.75 18 1.75ZM14.25 4C14.25 1.92893 15.9289 0.25 18 0.25C20.0711 0.25 21.75 1.92893 21.75 4C21.75 6.07107 20.0711 7.75 18 7.75C15.9289 7.75 14.25 6.07107 14.25 4Z" fill="#101010"/>
<path fill-rule="evenodd" clip-rule="evenodd" d="M2.09467 2.09467C3.42914 0.760201 5.42603 0.25 8 0.25H13C13.4142 0.25 13.75 0.585786 13.75 1C13.75 1.41421 13.4142 1.75 13 1.75H8C5.57397 1.75 4.07086 2.2398 3.15533 3.15533C2.2398 4.07086 1.75 5.57397 1.75 8V14C1.75 16.426 2.2398 17.9291 3.15533 18.8447C4.07086 19.7602 5.57397 20.25 8 20.25H14C16.426 20.25 17.9291 19.7602 18.8447 18.8447C19.7602 17.9291 20.25 16.426 20.25 14V9C20.25 8.58579 20.5858 8.25 21 8.25C21.4142 8.25 21.75 8.58579 21.75 9V14C21.75 16.574 21.2398 18.5709 19.9053 19.9053C18.5709 21.2398 16.574 21.75 14 21.75H8C5.42603 21.75 3.42914 21.2398 2.09467 19.9053C0.760201 18.5709 0.25 16.574 0.25 14V8C0.25 5.42603 0.760201 3.42914 2.09467 2.09467Z" fill="#101010"/>
<path fill-rule="evenodd" clip-rule="evenodd" d="M8.21401 12.0917C7.99853 11.796 7.60343 11.6913 7.26379 11.8026L7.25804 11.8045L7.25803 11.8045C6.62974 12.0049 6.25237 12.8434 6.52424 13.7007C6.74575 14.3829 7.23655 14.9258 7.76581 15.3084C8.02761 15.4977 8.28499 15.6374 8.4968 15.7279C8.68179 15.8069 8.79133 15.8312 8.82418 15.8378C8.82475 15.8377 8.82537 15.8376 8.82601 15.8374C8.85586 15.8309 8.95996 15.808 9.13993 15.731C9.35135 15.6404 9.60954 15.4997 9.87215 15.3092C10.4045 14.9229 10.893 14.3785 11.1046 13.7051L11.1054 13.7025C11.3783 12.845 11.0013 12.0057 10.373 11.8047C9.99966 11.6868 9.61391 11.8071 9.44731 12.0612C9.31229 12.2671 9.0848 12.3936 8.83865 12.3997C8.5925 12.4058 8.35904 12.2907 8.21401 12.0917ZM8.80691 10.625C8.1941 10.2349 7.43795 10.1679 6.7994 10.3763C5.11046 10.917 4.66865 12.816 5.09543 14.1574L5.09542 14.1574L5.09661 14.161C5.44539 15.238 6.18918 16.0195 6.88694 16.524C7.23889 16.7784 7.59338 16.9731 7.90751 17.1073C8.19865 17.2317 8.5254 17.3346 8.80624 17.3398L8.80623 17.3399H8.82012C9.10828 17.3399 9.4417 17.2335 9.73031 17.1099C10.0451 16.9751 10.4007 16.7789 10.7531 16.5232C11.4505 16.0172 12.1967 15.232 12.5352 14.1561C12.9616 12.8141 12.5188 10.9147 10.828 10.3754L10.8265 10.3749C10.2233 10.1839 9.43501 10.2174 8.80691 10.625Z" fill="#101010"/>
</svg>
