<svg width="22" height="22" viewBox="0 0 22 22" fill="none" xmlns="http://www.w3.org/2000/svg">
<path fill-rule="evenodd" clip-rule="evenodd" d="M18 1.75C16.7574 1.75 15.75 2.75736 15.75 4C15.75 5.24264 16.7574 6.25 18 6.25C19.2426 6.25 20.25 5.24264 20.25 4C20.25 2.75736 19.2426 1.75 18 1.75ZM14.25 4C14.25 1.92893 15.9289 0.25 18 0.25C20.0711 0.25 21.75 1.92893 21.75 4C21.75 6.07107 20.0711 7.75 18 7.75C15.9289 7.75 14.25 6.07107 14.25 4Z" fill="#101010"/>
<path fill-rule="evenodd" clip-rule="evenodd" d="M0.25 11C0.25 5.06579 5.06579 0.25 11 0.25C11.7414 0.25 12.46 0.325286 13.1649 0.464139C13.5713 0.544188 13.8359 0.938537 13.7559 1.34494C13.6758 1.75135 13.2815 2.01591 12.8751 1.93586C12.26 1.81471 11.6386 1.75 11 1.75C5.89421 1.75 1.75 5.89421 1.75 11C1.75 16.1058 5.89421 20.25 11 20.25C16.1058 20.25 20.25 16.1058 20.25 11C20.25 10.3711 20.1852 9.75111 20.065 9.1593C19.9826 8.75337 20.2448 8.35746 20.6507 8.27501C21.0566 8.19256 21.4525 8.45478 21.535 8.86071C21.6748 9.54889 21.75 10.2689 21.75 11C21.75 16.9342 16.9342 21.75 11 21.75C5.06579 21.75 0.25 16.9342 0.25 11Z" fill="#101010"/>
</svg>
