<svg width="20" height="22" viewBox="0 0 20 22" fill="none" xmlns="http://www.w3.org/2000/svg">
<path fill-rule="evenodd" clip-rule="evenodd" d="M10 4.68994C10.4142 4.68994 10.75 5.02573 10.75 5.43994V8.76994C10.75 9.18416 10.4142 9.51994 10 9.51994C9.58579 9.51994 9.25 9.18416 9.25 8.76994V5.43994C9.25 5.02573 9.58579 4.68994 10 4.68994Z" fill="#101010"/>
<path fill-rule="evenodd" clip-rule="evenodd" d="M2.61001 7.66C2.61001 3.56579 5.9258 0.25 10.02 0.25C14.0946 0.25 17.4289 3.58574 17.44 7.65795L17.44 7.66L17.44 9.76C17.44 10.0064 17.4942 10.3614 17.5969 10.7349C17.6997 11.1089 17.8345 11.441 17.9622 11.6525L17.9634 11.6546L19.2334 13.7746L19.2336 13.7749C20.2083 15.4038 19.4348 17.519 17.6272 18.1215L17.6267 18.1217C12.6931 19.7628 7.35696 19.7628 2.42329 18.1217L2.42284 18.1215C1.50673 17.8161 0.827321 17.1773 0.523983 16.3562C0.220761 15.5354 0.320841 14.6072 0.815592 13.7763L0.816623 13.7746L2.08662 11.6546L2.08787 11.6525C2.21604 11.4401 2.35075 11.1098 2.45325 10.7381C2.55563 10.3669 2.61001 10.0118 2.61001 9.76V7.66ZM10.02 1.75C6.75422 1.75 4.11001 4.39421 4.11001 7.66V9.76C4.11001 10.1882 4.02439 10.6831 3.89927 11.1369C3.7744 11.5897 3.59435 12.0589 3.37284 12.4264C3.37261 12.4267 3.37238 12.4271 3.37215 12.4275L2.10443 14.5437C2.10426 14.544 2.1041 14.5443 2.10394 14.5445C1.81916 15.0233 1.79933 15.4798 1.93104 15.8363C2.06266 16.1926 2.37311 16.5237 2.89673 16.6983M10.02 1.75C13.2651 1.75 15.9306 4.41371 15.94 7.66103L10.02 1.75ZM15.94 7.66103V9.76C15.94 10.1836 16.0258 10.6786 16.1506 11.1326C16.2752 11.5857 16.4551 12.0581 16.6772 12.4264C16.6774 12.4268 16.6777 12.4271 16.6779 12.4275L17.9464 14.5451C18.4317 15.3561 18.0454 16.4007 17.1533 16.6983C12.527 18.2372 7.5232 18.2372 2.89693 16.6984" fill="#101010"/>
<path fill-rule="evenodd" clip-rule="evenodd" d="M7.41992 17.8199C7.41992 18.52 7.71292 19.1723 8.18025 19.6396C8.64758 20.1069 9.29984 20.3999 9.99992 20.3999C11.4157 20.3999 12.5799 19.2357 12.5799 17.8199H14.0799C14.0799 20.0642 12.2441 21.8999 9.99992 21.8999C8.88 21.8999 7.85226 21.4329 7.11959 20.7003C6.38692 19.9676 5.91992 18.9399 5.91992 17.8199H7.41992Z" fill="#101010"/>
</svg>
