<svg width="24" height="24" viewBox="0 0 24 24" fill="none" xmlns="http://www.w3.org/2000/svg">
<path fill-rule="evenodd" clip-rule="evenodd" d="M14.843 2.66809C15.7163 2.63357 16.5916 3.01084 17.2904 3.70967L20.3204 6.73967C21.6595 8.07871 21.6983 10.3482 20.052 11.3932L17.3812 13.0837C17.0848 13.2714 16.6978 13.2284 16.4498 12.9803L11.0498 7.58033C10.8017 7.33225 10.7587 6.94533 10.9464 6.64888L12.6354 3.98035C13.1486 3.16173 13.957 2.7031 14.843 2.66809ZM14.9022 4.16692C14.5237 4.18187 14.1627 4.36764 13.9058 4.77796L13.9038 4.78113L12.5348 6.94403L17.0861 11.4953L19.2481 10.1268C19.2483 10.1267 19.248 10.1269 19.2481 10.1268C19.9015 9.7116 20.0805 8.62108 19.2598 7.80033L16.2298 4.77033C15.7786 4.31916 15.2939 4.15143 14.9022 4.16692Z" fill="#101010"/>
<path fill-rule="evenodd" clip-rule="evenodd" d="M4.83922 6.71574C5.56513 6.11234 6.55543 5.99371 7.69434 6.06132L7.69561 6.06139L11.6256 6.30139C12.0391 6.32664 12.3538 6.68227 12.3285 7.09572C12.3033 7.50916 11.9476 7.82385 11.5342 7.79861L7.60545 7.55868C7.60525 7.55867 7.60503 7.55866 7.60483 7.55864C6.55417 7.49635 6.06461 7.6477 5.79807 7.86926C5.53435 8.08847 5.30981 8.52576 5.195 9.52556L5.19475 9.52773L5.19475 9.52773L4.21475 17.8477L4.21455 17.8494C4.13419 18.519 4.3388 19.0353 4.66832 19.364C4.99818 19.6931 5.51487 19.8957 6.18003 19.8154L6.18216 19.8151L14.5008 18.8353C14.5012 18.8353 14.5015 18.8352 14.5019 18.8352C15.5068 18.7149 15.9708 18.4891 16.2014 18.2198C16.4213 17.9628 16.5774 17.4881 16.4737 16.455C16.4726 16.4446 16.4718 16.4342 16.4712 16.4238L16.2412 12.4938C16.217 12.0803 16.5326 11.7255 16.9461 11.7013C17.3596 11.6771 17.7144 11.9927 17.7386 12.4062L17.9677 16.3209C18.0813 17.4711 17.9656 18.4655 17.3409 19.1952C16.7241 19.9158 15.7633 20.195 14.679 20.3247L14.6776 20.3249L6.35976 21.3046C6.35931 21.3047 6.35886 21.3047 6.35841 21.3048C5.28409 21.434 4.29632 21.1116 3.60897 20.426C2.92118 19.7399 2.59577 18.7515 2.72514 17.6715C2.72517 17.6712 2.7252 17.6709 2.72524 17.6706L3.70479 9.35444C3.70484 9.35407 3.70488 9.3537 3.70492 9.35334C3.83017 8.26361 4.11069 7.32132 4.83922 6.71574Z" fill="#101010"/>
<path fill-rule="evenodd" clip-rule="evenodd" d="M8.16981 15.8488C8.46318 16.1412 8.46396 16.6161 8.17155 16.9095L5.14155 19.9495C4.84914 20.2428 4.37427 20.2436 4.0809 19.9512C3.78752 19.6588 3.78674 19.1839 4.07915 18.8905L7.10915 15.8505C7.40156 15.5572 7.87643 15.5564 8.16981 15.8488Z" fill="#101010"/>
</svg>
