<svg width="24" height="24" viewBox="0 0 24 24" fill="none" xmlns="http://www.w3.org/2000/svg">
<path fill-rule="evenodd" clip-rule="evenodd" d="M7.46824 16.186C7.54498 15.8435 7.84906 15.6 8.2001 15.6H15.8401C16.1911 15.6 16.4952 15.8435 16.572 16.186L17.2615 19.264C17.2616 19.2643 17.2614 19.2637 17.2615 19.264C17.4747 20.2049 17.2242 21.1013 16.6239 21.7522C16.0317 22.3944 15.1476 22.75 14.1601 22.75H9.8701C7.97744 22.75 6.33642 21.1716 6.77889 19.2631L7.46824 16.186ZM8.80067 17.1L8.24055 19.6003C8.06574 20.3502 8.70387 21.25 9.8701 21.25H14.1601C14.7926 21.25 15.2535 21.0256 15.5213 20.7353C15.7808 20.4539 15.9051 20.0648 15.7987 19.596L15.7982 19.594L15.2395 17.1H8.80067Z" fill="#101010"/>
<path fill-rule="evenodd" clip-rule="evenodd" d="M12.0089 1.245C12.9806 1.245 13.9067 1.71426 14.5787 2.56513L19.769 9.14553C20.4474 10.0065 20.9124 10.8724 20.8244 11.8159C20.7369 12.7556 20.1222 13.5406 19.2689 14.3002L19.2681 14.3009L16.3281 16.9109C16.0183 17.1859 15.5443 17.1577 15.2693 16.8479C14.9943 16.5382 15.0225 16.0641 15.3323 15.7891L18.2715 13.1798C18.2717 13.1796 18.2713 13.18 18.2715 13.1798C19.0577 12.4798 19.2985 12.0243 19.3309 11.6766C19.363 11.3326 19.2127 10.8631 18.5911 10.0742L13.4016 3.49487M12.0089 1.245C11.0377 1.245 10.1102 1.71377 9.4337 2.56252L12.0089 1.245ZM10.608 3.49582C10.6075 3.49638 10.6071 3.49693 10.6067 3.49748L5.42948 10.0739C4.80398 10.8678 4.63628 11.3531 4.66411 11.706C4.69082 12.0449 4.91861 12.4945 5.72732 13.1613C5.73435 13.1671 5.74128 13.1731 5.7481 13.1791L8.6881 15.7891C8.99786 16.0641 9.02605 16.5382 8.75105 16.8479C8.47606 17.1577 8.00202 17.1859 7.69226 16.9109L4.76229 14.3098C3.86676 13.5692 3.24424 12.7813 3.16875 11.824C3.09409 10.877 3.57648 10.0021 4.25088 9.14608C4.25094 9.146 4.25082 9.14616 4.25088 9.14608L9.4337 2.56252" fill="#101010"/>
<path fill-rule="evenodd" clip-rule="evenodd" d="M12.0098 1.92C12.424 1.92 12.7598 2.25579 12.7598 2.67V6.97C12.7598 7.38421 12.424 7.72 12.0098 7.72C11.5956 7.72 11.2598 7.38421 11.2598 6.97V2.67C11.2598 2.25579 11.5956 1.92 12.0098 1.92Z" fill="#101010"/>
</svg>
