<svg width="20" height="20" viewBox="0 0 20 20" fill="none" xmlns="http://www.w3.org/2000/svg">
<path fill-rule="evenodd" clip-rule="evenodd" d="M0.950779 0.892786C1.48336 0.39117 2.2259 0.25 3.01 0.25H6.64C7.4241 0.25 8.16664 0.39117 8.69922 0.892786C9.24326 1.40519 9.4 2.13203 9.4 2.89V17.11C9.4 17.868 9.24326 18.5948 8.69922 19.1072C8.16664 19.6088 7.4241 19.75 6.64 19.75H3.01C2.2259 19.75 1.48336 19.6088 0.950779 19.1072C0.406742 18.5948 0.25 17.868 0.25 17.11V2.89C0.25 2.13203 0.406742 1.40519 0.950779 0.892786ZM1.97922 1.98471C1.87826 2.07981 1.75 2.29797 1.75 2.89V17.11C1.75 17.702 1.87826 17.9202 1.97922 18.0153C2.09164 18.1212 2.3541 18.25 3.01 18.25H6.64C7.2959 18.25 7.55836 18.1212 7.67078 18.0153C7.77174 17.9202 7.9 17.702 7.9 17.11V2.89C7.9 2.29797 7.77174 2.07981 7.67078 1.98471C7.55836 1.87883 7.2959 1.75 6.64 1.75H3.01C2.3541 1.75 2.09164 1.87883 1.97922 1.98471Z" fill="#101010"/>
<path fill-rule="evenodd" clip-rule="evenodd" d="M11.3052 0.891795C11.8382 0.391758 12.579 0.25 13.3596 0.25H16.9896C17.7737 0.25 18.5162 0.39117 19.0488 0.892786C19.5929 1.40519 19.7496 2.13203 19.7496 2.89V17.11C19.7496 17.868 19.5929 18.5948 19.0488 19.1072C18.5162 19.6088 17.7737 19.75 16.9896 19.75H13.3596C12.5755 19.75 11.833 19.6088 11.3004 19.1072C10.7564 18.5948 10.5996 17.868 10.5996 17.11V2.89C10.5996 2.12889 10.7603 1.40304 11.3052 0.891795ZM12.3315 1.98571C12.2289 2.08196 12.0996 2.30111 12.0996 2.89V17.11C12.0996 17.702 12.2279 17.9202 12.3288 18.0153C12.4412 18.1212 12.7037 18.25 13.3596 18.25H16.9896C17.6455 18.25 17.908 18.1212 18.0204 18.0153C18.1214 17.9202 18.2496 17.702 18.2496 17.11V2.89C18.2496 2.29797 18.1214 2.07981 18.0204 1.98471C17.908 1.87883 17.6455 1.75 16.9896 1.75H13.3596C12.7102 1.75 12.4461 1.87824 12.3315 1.98571Z" fill="#101010"/>
</svg>
