<svg width="22" height="22" viewBox="0 0 22 22" fill="none" xmlns="http://www.w3.org/2000/svg">
<path fill-rule="evenodd" clip-rule="evenodd" d="M10.9697 1.75C5.86109 1.75 1.71973 5.89137 1.71973 11C1.71973 16.1086 5.86109 20.25 10.9697 20.25C16.0784 20.25 20.2197 16.1086 20.2197 11C20.2197 5.89137 16.0784 1.75 10.9697 1.75ZM0.219727 11C0.219727 5.06294 5.03267 0.25 10.9697 0.25C16.9068 0.25 21.7197 5.06294 21.7197 11C21.7197 16.9371 16.9068 21.75 10.9697 21.75C5.03267 21.75 0.219727 16.9371 0.219727 11Z" fill="#101010"/>
<path fill-rule="evenodd" clip-rule="evenodd" d="M6.64861 7.40996C6.97318 7.10322 7.39214 7.05005 7.71 7.05005H9.01C9.32786 7.05005 9.74682 7.10322 10.0714 7.40996C10.4069 7.727 10.47 8.14955 10.47 8.47005V13.53C10.47 13.8505 10.4069 14.2754 10.0672 14.5929C9.74074 14.8981 9.31976 14.95 9 14.95H7.71C7.39214 14.95 6.97318 14.8969 6.64861 14.5901C6.31313 14.2731 6.25 13.8505 6.25 13.53V8.47005C6.25 8.14955 6.31313 7.727 6.64861 7.40996ZM7.75 8.55005V13.45H8.97V8.55005H7.75Z" fill="#101010"/>
<path fill-rule="evenodd" clip-rule="evenodd" d="M11.9386 7.40996C12.2632 7.10322 12.6822 7.05005 13 7.05005H14.29C14.6079 7.05005 15.0269 7.10322 15.3514 7.40996C15.6869 7.727 15.75 8.14955 15.75 8.47005V13.53C15.75 13.8505 15.6869 14.2731 15.3514 14.5901C15.0269 14.8969 14.6079 14.95 14.29 14.95H13C12.6822 14.95 12.2632 14.8969 11.9386 14.5901C11.6032 14.2731 11.54 13.8505 11.54 13.53V8.47005C11.54 8.14955 11.6032 7.727 11.9386 7.40996ZM13.04 8.55005V13.45H14.25V8.55005H13.04Z" fill="#101010"/>
</svg>
