<svg width="22" height="24" viewBox="0 0 22 24" fill="none" xmlns="http://www.w3.org/2000/svg">
<path fill-rule="evenodd" clip-rule="evenodd" d="M8.028 19.0144C8.10541 18.6726 8.4091 18.4301 8.75947 18.4301H13.2595C13.6098 18.4301 13.9135 18.6726 13.9909 19.0144L14.4025 20.831C14.5426 21.4773 14.3716 22.1058 13.9483 22.5647C13.5325 23.0154 12.9254 23.25 12.2695 23.25H9.74947C8.49394 23.25 7.30445 22.188 7.61829 20.823L8.028 19.0144ZM9.35857 19.9301L9.08093 21.1557L9.08026 21.1586C9.0526 21.2785 9.08294 21.4075 9.19406 21.5272C9.30838 21.6503 9.50241 21.75 9.74947 21.75H12.2695C12.5735 21.75 12.7564 21.6445 12.8457 21.5477C12.927 21.4596 12.9758 21.3339 12.9371 21.1517L12.6604 19.9301H9.35857Z" fill="#101010"/>
<path fill-rule="evenodd" clip-rule="evenodd" d="M11.0146 9.97253C11.6891 9.97253 12.3204 10.2985 12.7681 10.8651L15.817 14.7337C15.8173 14.734 15.8176 14.7344 15.8179 14.7348C16.2306 15.2549 16.5717 15.8457 16.5089 16.5253C16.4464 17.2014 16.0054 17.7317 15.4877 18.1907C15.4875 18.1909 15.4879 18.1905 15.4877 18.1907L13.7583 19.7303C13.4489 20.0057 12.9748 19.9781 12.6994 19.6687C12.424 19.3594 12.4515 18.8853 12.7609 18.6099L14.4921 17.0688C14.9442 16.668 15.0078 16.4684 15.0153 16.3872C15.0224 16.3098 14.9991 16.1159 14.6422 15.6663L14.6406 15.6642L11.5911 11.795C11.5911 11.7949 11.5912 11.7951 11.5911 11.795C11.3988 11.5518 11.1851 11.4725 11.0146 11.4725C10.8442 11.4725 10.6307 11.5515 10.4384 11.7946C10.4383 11.7947 10.4385 11.7944 10.4384 11.7946L7.38704 15.6663C7.02654 16.1204 6.99323 16.3249 6.99982 16.4089C7.00531 16.4789 7.05667 16.6733 7.51579 17.0506C7.52342 17.0568 7.53092 17.0633 7.5383 17.0698L9.26829 18.6099C9.57768 18.8853 9.60522 19.3594 9.3298 19.6687C9.05439 19.9781 8.58031 20.0057 8.27093 19.7303L6.55163 18.1997C6.00609 17.7491 5.55853 17.2162 5.50441 16.5261C5.45103 15.8455 5.80222 15.2503 6.21137 14.7347C6.21165 14.7344 6.21192 14.734 6.21219 14.7337L9.26056 10.8658C9.7082 10.2992 10.3401 9.97253 11.0146 9.97253Z" fill="#101010"/>
<path fill-rule="evenodd" clip-rule="evenodd" d="M11.0098 10.37C11.424 10.37 11.7598 10.7058 11.7598 11.12V13.65C11.7598 14.0642 11.424 14.4 11.0098 14.4C10.5956 14.4 10.2598 14.0642 10.2598 13.65V11.12C10.2598 10.7058 10.5956 10.37 11.0098 10.37Z" fill="#101010"/>
<path fill-rule="evenodd" clip-rule="evenodd" d="M10.6804 2.46034C10.6804 2.46035 10.6804 2.46034 10.6804 2.46034L9.90041 3.24036C9.72331 3.41747 9.7233 3.70256 9.9004 3.87966L10.6804 4.65969C10.6804 4.6597 10.6804 4.65969 10.6804 4.65969C10.8575 4.83679 11.1426 4.8368 11.3197 4.6597C11.3197 4.6597 11.3197 4.65971 11.3197 4.6597L12.0997 3.87968C12.2768 3.70257 12.2768 3.41748 12.0997 3.24037L11.3197 2.46034C11.3197 2.46034 11.3197 2.46035 11.3197 2.46034C11.1426 2.28325 10.8575 2.28325 10.6804 2.46034ZM9.61974 1.39968C10.3826 0.636791 11.6175 0.636791 12.3804 1.39968L13.1604 2.17971C13.1604 2.17972 13.1604 2.17971 13.1604 2.17971C13.9233 2.9426 13.9233 4.17742 13.1604 4.94031C13.1604 4.94032 13.1604 4.94031 13.1604 4.94031L12.3804 5.72034C11.6175 6.48324 10.3826 6.48325 9.61974 5.72035L8.83974 4.94033C8.83974 4.94032 8.83975 4.94033 8.83974 4.94033C8.07686 4.17743 8.07685 2.94261 8.83973 2.17972C8.83974 2.17972 8.83973 2.17973 8.83973 2.17972L9.61974 1.39968Z" fill="#101010"/>
<path fill-rule="evenodd" clip-rule="evenodd" d="M18.45 10.56C18.2042 10.56 18 10.7642 18 11.01V12.11C18 12.3558 18.2043 12.5601 18.45 12.5601H19.55C19.7957 12.5601 20 12.3558 20 12.11V11.01C20 10.7642 19.7958 10.56 19.55 10.56H18.45ZM16.5 11.01C16.5 9.93581 17.3758 9.06 18.45 9.06H19.55C20.6242 9.06 21.5 9.93581 21.5 11.01V12.11C21.5 13.1841 20.6243 14.0601 19.55 14.0601H18.45C17.3757 14.0601 16.5 13.1841 16.5 12.11V11.01Z" fill="#101010"/>
<path fill-rule="evenodd" clip-rule="evenodd" d="M0.5 11.01C0.5 9.93581 1.37577 9.06 2.45 9.06H3.55C4.62423 9.06 5.5 9.93581 5.5 11.01V12.11C5.5 13.1841 4.62428 14.0601 3.55 14.0601H2.45C1.37572 14.0601 0.5 13.1841 0.5 12.11V11.01ZM2.45 10.56C2.20422 10.56 2 10.7642 2 11.01V12.11C2 12.3558 2.20427 12.5601 2.45 12.5601H3.55C3.79573 12.5601 4 12.3558 4 12.11V11.01C4 10.7642 3.79578 10.56 3.55 10.56H2.45Z" fill="#101010"/>
<path fill-rule="evenodd" clip-rule="evenodd" d="M11.7099 4.26966C12.0028 3.97676 12.4777 3.97676 12.7706 4.26966L18.0706 9.56964C18.3635 9.86254 18.3635 10.3374 18.0706 10.6303C17.7777 10.9232 17.3028 10.9232 17.0099 10.6303L11.7099 5.33032C11.417 5.03743 11.417 4.56255 11.7099 4.26966Z" fill="#101010"/>
<path fill-rule="evenodd" clip-rule="evenodd" d="M10.2903 4.26966C10.5832 4.56255 10.5832 5.03743 10.2903 5.33032L4.99029 10.6303C4.6974 10.9232 4.22252 10.9232 3.92963 10.6303C3.63674 10.3374 3.63674 9.86254 3.92963 9.56964L9.22963 4.26966C9.52253 3.97676 9.9974 3.97676 10.2903 4.26966Z" fill="#101010"/>
</svg>
