<svg width="22" height="20" viewBox="0 0 22 20" fill="none" xmlns="http://www.w3.org/2000/svg">
<path fill-rule="evenodd" clip-rule="evenodd" d="M2.53033 2.53033C2.01884 3.04182 1.75 3.99464 1.75 6V14C1.75 16.0054 2.01884 16.9582 2.53033 17.4697C3.04182 17.9812 3.99464 18.25 6 18.25H16C18.0054 18.25 18.9582 17.9812 19.4697 17.4697C19.9812 16.9582 20.25 16.0054 20.25 14V6C20.25 3.99464 19.9812 3.04182 19.4697 2.53033C18.9582 2.01884 18.0054 1.75 16 1.75H6C3.99464 1.75 3.04182 2.01884 2.53033 2.53033ZM1.46967 1.46967C2.45818 0.481164 4.00536 0.25 6 0.25H16C17.9946 0.25 19.5418 0.481164 20.5303 1.46967C21.5188 2.45818 21.75 4.00536 21.75 6V14C21.75 15.9946 21.5188 17.5418 20.5303 18.5303C19.5418 19.5188 17.9946 19.75 16 19.75H6C4.00536 19.75 2.45818 19.5188 1.46967 18.5303C0.481164 17.5418 0.25 15.9946 0.25 14V6C0.25 4.00536 0.481164 2.45818 1.46967 1.46967Z" fill="#101010"/>
<path fill-rule="evenodd" clip-rule="evenodd" d="M12.25 6C12.25 5.58579 12.5858 5.25 13 5.25H18C18.4142 5.25 18.75 5.58579 18.75 6C18.75 6.41421 18.4142 6.75 18 6.75H13C12.5858 6.75 12.25 6.41421 12.25 6Z" fill="#101010"/>
<path fill-rule="evenodd" clip-rule="evenodd" d="M13.25 10C13.25 9.58579 13.5858 9.25 14 9.25H18C18.4142 9.25 18.75 9.58579 18.75 10C18.75 10.4142 18.4142 10.75 18 10.75H14C13.5858 10.75 13.25 10.4142 13.25 10Z" fill="#101010"/>
<path fill-rule="evenodd" clip-rule="evenodd" d="M15.25 14C15.25 13.5858 15.5858 13.25 16 13.25H18C18.4142 13.25 18.75 13.5858 18.75 14C18.75 14.4142 18.4142 14.75 18 14.75H16C15.5858 14.75 15.25 14.4142 15.25 14Z" fill="#101010"/>
<path fill-rule="evenodd" clip-rule="evenodd" d="M7.50043 6.41992C6.91501 6.41992 6.44043 6.8945 6.44043 7.47992C6.44043 8.06534 6.91501 8.53992 7.50043 8.53992C8.08585 8.53992 8.56043 8.06534 8.56043 7.47992C8.56043 6.8945 8.08585 6.41992 7.50043 6.41992ZM4.94043 7.47992C4.94043 6.06607 6.08658 4.91992 7.50043 4.91992C8.91428 4.91992 10.0604 6.06607 10.0604 7.47992C10.0604 8.89377 8.91428 10.0399 7.50043 10.0399C6.08658 10.0399 4.94043 8.89377 4.94043 7.47992Z" fill="#101010"/>
<path fill-rule="evenodd" clip-rule="evenodd" d="M8.33097 10.8634C10.1379 11.0272 11.572 12.4495 11.7466 14.2579C11.7864 14.6702 11.4844 15.0367 11.0721 15.0765C10.6598 15.1163 10.2933 14.8144 10.2535 14.4021C10.1483 13.3118 9.28429 12.4548 8.19308 12.357L8.18542 12.3563L8.18543 12.3563C7.73554 12.3113 7.27505 12.3112 6.81323 12.3564L6.81213 12.3565C5.71267 12.4627 4.85145 13.316 4.74658 14.4021C4.70677 14.8144 4.34027 15.1163 3.92797 15.0765C3.51568 15.0367 3.21372 14.6702 3.25352 14.2579C3.42864 12.4442 4.86714 11.0376 6.66742 10.8635C7.22417 10.809 7.78224 10.8087 8.33097 10.8634Z" fill="#101010"/>
</svg>
