<svg width="20" height="22" viewBox="0 0 20 22" fill="none" xmlns="http://www.w3.org/2000/svg">
<path fill-rule="evenodd" clip-rule="evenodd" d="M0.251953 21C0.251953 20.5858 0.58774 20.25 1.00195 20.25H19.002C19.4162 20.25 19.752 20.5858 19.752 21C19.752 21.4142 19.4162 21.75 19.002 21.75H1.00195C0.58774 21.75 0.251953 21.4142 0.251953 21Z" fill="#101010"/>
<path fill-rule="evenodd" clip-rule="evenodd" d="M0.251953 1C0.251953 0.585786 0.58774 0.25 1.00195 0.25H19.002C19.4162 0.25 19.752 0.585786 19.752 1C19.752 1.41421 19.4162 1.75 19.002 1.75H1.00195C0.58774 1.75 0.251953 1.41421 0.251953 1Z" fill="#101010"/>
<path fill-rule="evenodd" clip-rule="evenodd" d="M10.002 4.25C10.4162 4.25 10.752 4.58579 10.752 5V17C10.752 17.4142 10.4162 17.75 10.002 17.75C9.58774 17.75 9.25195 17.4142 9.25195 17V5C9.25195 4.58579 9.58774 4.25 10.002 4.25Z" fill="#101010"/>
<path fill-rule="evenodd" clip-rule="evenodd" d="M9.47154 3.35968C9.76444 3.06679 10.2393 3.06679 10.5322 3.35968L13.3622 6.18968C13.6551 6.48258 13.6551 6.95745 13.3622 7.25034C13.0693 7.54324 12.5944 7.54324 12.3015 7.25034L10.0019 4.95067L7.70221 7.25034C7.40931 7.54324 6.93444 7.54324 6.64154 7.25034C6.34865 6.95745 6.34865 6.48258 6.64154 6.18968L9.47154 3.35968Z" fill="#101010"/>
<path fill-rule="evenodd" clip-rule="evenodd" d="M6.64154 14.3597C6.93444 14.0668 7.40931 14.0668 7.70221 14.3597L10.0019 16.6594L12.3015 14.3597C12.5944 14.0668 13.0693 14.0668 13.3622 14.3597C13.6551 14.6526 13.6551 15.1275 13.3622 15.4203L10.5322 18.2503C10.2393 18.5432 9.76444 18.5432 9.47154 18.2503L6.64155 15.4203C6.34865 15.1275 6.34865 14.6526 6.64154 14.3597Z" fill="#101010"/>
</svg>
