<svg width="23" height="23" viewBox="0 0 23 23" fill="none" xmlns="http://www.w3.org/2000/svg">
<path fill-rule="evenodd" clip-rule="evenodd" d="M11 1.75C5.89421 1.75 1.75 5.89421 1.75 11C1.75 16.1058 5.89421 20.25 11 20.25C11.9165 20.25 12.8009 20.1145 13.6341 19.8634C13.3856 19.2891 13.25 18.6566 13.25 18C13.25 16.5059 13.9386 15.162 15.0328 14.2933C15.8487 13.6431 16.8817 13.25 18 13.25C18.6607 13.25 19.2934 13.39 19.8678 13.6378C20.1182 12.8029 20.25 11.916 20.25 11C20.25 5.89421 16.1058 1.75 11 1.75ZM0.25 11C0.25 5.06579 5.06579 0.25 11 0.25C16.9342 0.25 21.75 5.06579 21.75 11C21.75 12.4056 21.4817 13.7621 20.9743 15.0037C20.8882 15.2142 20.7114 15.3742 20.4935 15.4389C20.2755 15.5037 20.04 15.466 19.8531 15.3366C19.3205 14.9679 18.678 14.75 18 14.75C17.2385 14.75 16.5316 15.0169 15.9675 15.4665L15.9662 15.4675C15.221 16.0588 14.75 16.9745 14.75 18C14.75 18.6094 14.9205 19.1833 15.2184 19.6663C15.2207 19.6701 15.223 19.6739 15.2253 19.6778C15.2273 19.6811 15.2292 19.6845 15.2312 19.6879C15.2446 19.7113 15.266 19.7429 15.2995 19.7819C15.4563 19.9649 15.5156 20.212 15.459 20.4462C15.4024 20.6804 15.2368 20.8731 15.0138 20.9643C13.7754 21.4704 12.4192 21.75 11 21.75C5.06579 21.75 0.25 16.9342 0.25 11Z" fill="#101010"/>
<path fill-rule="evenodd" clip-rule="evenodd" d="M9.55249 8.50633C9.37182 8.61115 9.12988 8.91103 9.12988 9.61011V12.3601C9.12988 13.0658 9.37275 13.3638 9.55126 13.4669C9.72992 13.5701 10.1083 13.6307 10.715 13.2805L11.916 12.5899L13.115 11.9005C13.1151 11.9005 13.1148 11.9006 13.115 11.9005C13.72 11.5512 13.8574 11.1926 13.8574 10.9851C13.8574 10.7776 13.7205 10.4193 13.1154 10.07C13.1153 10.0699 13.1156 10.0701 13.1154 10.07L11.916 9.38028L10.715 8.68967C10.1104 8.34071 9.73222 8.40206 9.55249 8.50633ZM11.4642 7.39021C10.579 6.87944 9.60237 6.74324 8.79976 7.20888C7.99794 7.67406 7.62988 8.58919 7.62988 9.61011V12.3601C7.62988 13.3844 7.99702 14.3014 8.801 14.7658C9.60467 15.23 10.5811 15.0896 11.4643 14.58C11.4641 14.5801 11.4644 14.5799 11.4643 14.58L12.6637 13.8903L13.8648 13.1997C14.7494 12.6891 15.3574 11.9126 15.3574 10.9851C15.3574 10.0576 14.7494 9.28109 13.8648 8.77054L11.4642 7.39021C11.464 7.39011 11.4644 7.39032 11.4642 7.39021Z" fill="#101010"/>
<path fill-rule="evenodd" clip-rule="evenodd" d="M18 14.75C17.2385 14.75 16.5316 15.0169 15.9675 15.4665L15.9662 15.4675L15.9662 15.4675C15.221 16.0588 14.75 16.9745 14.75 18C14.75 18.6094 14.9205 19.1833 15.2184 19.6663C15.2228 19.6734 15.227 19.6806 15.2312 19.6879C15.2446 19.7113 15.266 19.7429 15.2995 19.7819C15.3184 19.804 15.336 19.8271 15.3522 19.8512C15.9173 20.6908 16.8875 21.25 18 21.25C18.8227 21.25 19.5645 20.9499 20.1283 20.4425C20.1348 20.4367 20.1414 20.431 20.148 20.4254C20.391 20.2216 20.6052 19.9684 20.7722 19.6821L20.7816 19.6663C21.0795 19.1833 21.25 18.6094 21.25 18C21.25 16.8964 20.6993 15.9225 19.8531 15.3366C19.3205 14.9679 18.678 14.75 18 14.75ZM15.0332 14.293C15.849 13.6429 16.8818 13.25 18 13.25C19.002 13.25 19.9395 13.572 20.7069 14.1033C21.9407 14.9575 22.75 16.3836 22.75 18C22.75 18.8874 22.5023 19.7305 22.0632 20.4459C21.8131 20.8725 21.4925 21.2535 21.122 21.5662C20.2871 22.3134 19.1927 22.75 18 22.75C16.3876 22.75 14.9692 21.9443 14.1311 20.7231C14.059 20.6356 13.993 20.5427 13.9356 20.4439C13.4972 19.729 13.25 18.8866 13.25 18C13.25 16.5058 13.9387 15.1617 15.0332 14.293Z" fill="#101010"/>
<path fill-rule="evenodd" clip-rule="evenodd" d="M16.4176 16.4009C16.7098 16.1073 17.1847 16.1061 17.4783 16.3983L19.5983 18.5083C19.8919 18.8005 19.893 19.2754 19.6008 19.569C19.3086 19.8626 18.8337 19.8637 18.5401 19.5715L16.4201 17.4615C16.1266 17.1693 16.1254 16.6944 16.4176 16.4009Z" fill="#101010"/>
<path fill-rule="evenodd" clip-rule="evenodd" d="M19.5813 16.4309C19.8735 16.7245 19.8723 17.1993 19.5788 17.4915L17.4588 19.6015C17.1652 19.8937 16.6903 19.8926 16.3981 19.599C16.1059 19.3054 16.107 18.8306 16.4006 18.5384L18.5206 16.4284C18.8142 16.1362 19.2891 16.1373 19.5813 16.4309Z" fill="#101010"/>
</svg>
