<svg width="18" height="20" viewBox="0 0 18 20" fill="none" xmlns="http://www.w3.org/2000/svg">
<path fill-rule="evenodd" clip-rule="evenodd" d="M3.41897 2.5932C2.46966 3.14171 1.75 4.3905 1.75 6.44006V13.5601C1.75 15.6096 2.46966 16.8584 3.41897 17.4069C4.36816 17.9554 5.80921 17.9552 7.58516 16.9304L13.7652 13.3704M3.41897 2.5932C4.36816 2.04475 5.80921 2.0449 7.58516 3.06967L3.41897 2.5932ZM8.33464 1.77033C6.28065 0.585196 4.24179 0.385387 2.66853 1.29441C1.09534 2.2034 0.25 4.06962 0.25 6.44006V13.5601C0.25 15.9305 1.09534 17.7967 2.66853 18.7057C4.24184 19.6148 6.28079 19.4149 8.33484 18.2297L14.5144 14.6699C16.5686 13.4846 17.7625 11.8178 17.7625 10.0001C17.7625 8.18227 16.5691 6.51581 14.5148 5.33044L8.33464 1.77033C8.33457 1.77029 8.33471 1.77037 8.33464 1.77033ZM7.58516 3.06967L10.6756 4.84994L7.58516 3.06967ZM10.6756 4.84994L13.7652 6.62967L10.6756 4.84994ZM13.7652 6.62967C13.7651 6.62963 13.7652 6.6297 13.7652 6.62967V6.62967Z" fill="#101010"/>
</svg>
