<svg width="22" height="22" viewBox="0 0 22 22" fill="none" xmlns="http://www.w3.org/2000/svg">
<path fill-rule="evenodd" clip-rule="evenodd" d="M17.5383 3.40053C17.8308 3.10726 18.3057 3.10665 18.599 3.39917C22.8032 7.59259 22.8022 14.398 18.5997 18.6005C18.3068 18.8934 17.8319 18.8934 17.539 18.6005C17.2461 18.3076 17.2461 17.8328 17.539 17.5399C21.1565 13.9224 21.1555 8.06776 17.5397 4.46118C17.2464 4.16867 17.2458 3.69379 17.5383 3.40053Z" fill="#101010"/>
<path fill-rule="evenodd" clip-rule="evenodd" d="M4.4599 3.39985C4.75279 3.69274 4.75279 4.16761 4.4599 4.46051C0.842418 8.07799 0.843396 13.9326 4.45922 17.5392C4.75249 17.8317 4.7531 18.3066 4.46058 18.5998C4.16806 18.8931 3.69319 18.8937 3.39992 18.6012C-0.804255 14.4078 -0.803277 7.60236 3.39924 3.39985C3.69213 3.10695 4.16701 3.10695 4.4599 3.39985Z" fill="#101010"/>
<path fill-rule="evenodd" clip-rule="evenodd" d="M6.9906 20.165C7.12597 19.7735 7.55306 19.5659 7.94453 19.7013C8.93235 20.0429 9.95819 20.2098 10.9961 20.2102C12.0432 20.2005 13.0705 20.0415 14.0543 19.7013C14.4458 19.5659 14.8728 19.7735 15.0082 20.165C15.1436 20.5565 14.936 20.9836 14.5445 21.1189C13.3893 21.5184 12.1978 21.6995 11.0061 21.7101L10.9994 21.7102V21.7102C9.79843 21.7102 8.60544 21.517 7.45432 21.1189C7.06285 20.9836 6.85524 20.5565 6.9906 20.165Z" fill="#101010"/>
<path fill-rule="evenodd" clip-rule="evenodd" d="M10.9994 1.79004C9.96039 1.79004 8.93341 1.95696 7.94453 2.29891C7.55306 2.43427 7.12597 2.22666 6.9906 1.83519C6.85524 1.44372 7.06285 1.01664 7.45432 0.88127C8.60544 0.483219 9.79843 0.290039 10.9994 0.290039C12.2004 0.290039 13.3934 0.483219 14.5445 0.88127C14.936 1.01664 15.1436 1.44372 15.0082 1.83519C14.8728 2.22666 14.4458 2.43427 14.0543 2.29891C13.0654 1.95696 12.0384 1.79004 10.9994 1.79004Z" fill="#101010"/>
<path fill-rule="evenodd" clip-rule="evenodd" d="M9.07461 7.86452C8.79434 8.02653 8.48926 8.45001 8.48926 9.3302V12.6902C8.48926 13.5704 8.79434 13.9939 9.07461 14.1559C9.35456 14.3177 9.8727 14.3706 10.6338 13.931C10.6339 13.9309 10.6337 13.931 10.6338 13.931L12.0833 13.0912L13.5333 12.2512C14.2944 11.8115 14.5093 11.3349 14.5093 11.0102C14.5093 10.6854 14.2951 10.2093 13.5341 9.76958L12.0833 8.92919L10.6341 8.08959C10.634 8.08952 10.6342 8.08965 10.6341 8.08959C9.873 7.64996 9.35455 7.7027 9.07461 7.86452ZM8.32392 6.56588C9.22896 6.04271 10.3457 6.19062 11.3845 6.79079L12.8352 7.63124L14.2845 8.47078C14.2846 8.47085 14.2844 8.47071 14.2845 8.47078C15.3232 9.07106 16.0093 9.96505 16.0093 11.0102C16.0093 12.0554 15.3235 12.9492 14.2847 13.5495C14.2846 13.5495 14.2847 13.5495 14.2847 13.5495L12.8352 14.3891L11.3852 15.2292C10.3465 15.8293 9.22896 15.9777 8.32392 15.4545C7.41919 14.9315 6.98926 13.89 6.98926 12.6902V9.3302C6.98926 8.1304 7.41919 7.08887 8.32392 6.56588Z" fill="#101010"/>
</svg>
