<svg width="22" height="22" viewBox="0 0 22 22" fill="none" xmlns="http://www.w3.org/2000/svg">
<path fill-rule="evenodd" clip-rule="evenodd" d="M10.9697 1.75C5.86109 1.75 1.71973 5.89137 1.71973 11C1.71973 16.1086 5.86109 20.25 10.9697 20.25C16.0784 20.25 20.2197 16.1086 20.2197 11C20.2197 5.89137 16.0784 1.75 10.9697 1.75ZM0.219727 11C0.219727 5.06294 5.03267 0.25 10.9697 0.25C16.9068 0.25 21.7197 5.06294 21.7197 11C21.7197 16.9371 16.9068 21.75 10.9697 21.75C5.03267 21.75 0.219727 16.9371 0.219727 11Z" fill="#101010"/>
<path fill-rule="evenodd" clip-rule="evenodd" d="M9.0746 8.09437C8.79433 8.25638 8.48926 8.67985 8.48926 9.56005V12.92C8.48926 13.8002 8.79433 14.2237 9.0746 14.3857C9.35454 14.5476 9.87269 14.6005 10.6338 14.1608C10.6339 14.1607 10.6337 14.1608 10.6338 14.1608L13.5333 12.4811C14.2944 12.0414 14.5093 11.5648 14.5093 11.24C14.5093 10.9153 14.2951 10.4392 13.534 9.99945L10.6341 8.31945C10.6339 8.31938 10.6342 8.31952 10.6341 8.31945C9.873 7.87985 9.35453 7.93256 9.0746 8.09437ZM8.32391 6.79573C9.22895 6.27257 10.3457 6.42049 11.3845 7.02065L14.2845 8.70065C14.2846 8.70071 14.2844 8.70059 14.2845 8.70065C15.3232 9.30092 16.0093 10.1949 16.0093 11.24C16.0093 12.2853 15.3235 13.1791 14.2846 13.7794C14.2846 13.7794 14.2847 13.7793 14.2846 13.7794L11.3852 15.459C10.3465 16.0592 9.22894 16.2075 8.32391 15.6844C7.41918 15.1614 6.98926 14.1199 6.98926 12.92V9.56005C6.98926 8.36025 7.41918 7.31872 8.32391 6.79573Z" fill="#101010"/>
</svg>
