<svg width="16" height="22" viewBox="0 0 16 22" fill="none" xmlns="http://www.w3.org/2000/svg">
<path fill-rule="evenodd" clip-rule="evenodd" d="M7.99957 1.75C5.95488 1.75 4.30957 3.40311 4.30957 5.44C4.30957 7.42302 5.85865 9.03198 7.81446 9.11885C7.93306 9.1106 8.05836 9.1102 8.17657 9.11877C10.1305 9.03098 11.6805 7.42308 11.6896 5.43847C11.6887 3.40339 10.0348 1.75 7.99957 1.75ZM2.80957 5.44C2.80957 2.57689 5.12426 0.25 7.99957 0.25C10.8638 0.25 13.1896 2.57579 13.1896 5.44L13.1896 5.44313C13.1779 8.24352 10.9705 10.5259 8.18477 10.6196C8.15146 10.6207 8.11811 10.6196 8.08494 10.6163C8.03672 10.6115 7.96466 10.6108 7.89747 10.6169C7.86652 10.6197 7.83543 10.6206 7.80437 10.6196C5.01917 10.526 2.80957 8.24337 2.80957 5.44Z" fill="#101010"/>
<path fill-rule="evenodd" clip-rule="evenodd" d="M8.17223 11.4375C10.1004 11.4375 12.0667 11.9214 13.5863 12.9363C14.9522 13.8454 15.7347 15.1198 15.7347 16.4913C15.7347 17.8626 14.9523 19.1393 13.5869 20.0532L13.5868 20.0533C12.0626 21.0732 10.0938 21.56 8.16473 21.56C6.23602 21.56 4.26764 21.0734 2.74355 20.0539C1.37744 19.1448 0.594727 17.8703 0.594727 16.4987C0.594727 15.1274 1.37717 13.8507 2.74251 12.9368L2.74527 12.9349L2.74527 12.9349C4.2737 11.9215 6.24379 11.4375 8.17223 11.4375ZM3.57556 14.1842C2.52191 14.89 2.09473 15.7429 2.09473 16.4987C2.09473 17.2544 2.52173 18.1047 3.57516 18.8056L3.5768 18.8067C4.80258 19.6268 6.46381 20.06 8.16473 20.06C9.86558 20.06 11.5267 19.6269 12.7525 18.8068C13.8072 18.1007 14.2347 17.2474 14.2347 16.4913C14.2347 15.7355 13.8077 14.8853 12.7543 14.1844L12.7532 14.1837C11.5327 13.3686 9.87403 12.9375 8.17223 12.9375C6.4713 12.9375 4.80699 13.3682 3.57556 14.1842Z" fill="#101010"/>
</svg>
