<svg width="22" height="22" viewBox="0 0 22 22" fill="none" xmlns="http://www.w3.org/2000/svg">
<path fill-rule="evenodd" clip-rule="evenodd" d="M7.99957 1.75C5.95488 1.75 4.30957 3.40311 4.30957 5.44C4.30957 7.42302 5.85865 9.03198 7.81446 9.11885C7.93306 9.1106 8.05836 9.1102 8.17657 9.11877C10.1305 9.03098 11.6805 7.42308 11.6896 5.43847C11.6887 3.40339 10.0348 1.75 7.99957 1.75ZM2.80957 5.44C2.80957 2.57689 5.12426 0.25 7.99957 0.25C10.8638 0.25 13.1896 2.57579 13.1896 5.44L13.1896 5.44313C13.1779 8.24352 10.9705 10.5259 8.18477 10.6196C8.15146 10.6207 8.11811 10.6196 8.08494 10.6163C8.03672 10.6115 7.96466 10.6108 7.89747 10.6169C7.86652 10.6197 7.83543 10.6206 7.80437 10.6196C5.01917 10.526 2.80957 8.24337 2.80957 5.44Z" fill="#101010"/>
<path fill-rule="evenodd" clip-rule="evenodd" d="M14.6594 3C14.6594 2.58579 14.9951 2.25 15.4094 2.25C17.765 2.25 19.6594 4.15718 19.6594 6.5C19.6594 8.79545 17.8383 10.6645 15.5674 10.7495C15.527 10.751 15.4865 10.7492 15.4463 10.7442C15.4313 10.7423 15.4008 10.7411 15.3622 10.7454C14.9505 10.7912 14.5797 10.4945 14.534 10.0828C14.4882 9.67114 14.7849 9.30033 15.1965 9.25459C15.3143 9.2415 15.4377 9.23847 15.5594 9.24831C17.0061 9.169 18.1594 7.9683 18.1594 6.5C18.1594 4.98282 16.9338 3.75 15.4094 3.75C14.9951 3.75 14.6594 3.41421 14.6594 3Z" fill="#101010"/>
<path fill-rule="evenodd" clip-rule="evenodd" d="M8.17223 11.4375C10.1004 11.4375 12.0667 11.9214 13.5863 12.9363C14.9522 13.8454 15.7347 15.1198 15.7347 16.4913C15.7347 17.8626 14.9523 19.1393 13.5869 20.0532L13.5868 20.0533C12.0626 21.0732 10.0938 21.56 8.16473 21.56C6.23602 21.56 4.26764 21.0734 2.74355 20.0539C1.37744 19.1448 0.594727 17.8703 0.594727 16.4987C0.594727 15.1274 1.37717 13.8507 2.74251 12.9368L2.74527 12.9349L2.74527 12.9349C4.2737 11.9215 6.24379 11.4375 8.17223 11.4375ZM3.57556 14.1842C2.52191 14.89 2.09473 15.7429 2.09473 16.4987C2.09473 17.2544 2.52173 18.1047 3.57516 18.8056L3.5768 18.8067C4.80258 19.6268 6.46381 20.06 8.16473 20.06C9.86558 20.06 11.5267 19.6269 12.7525 18.8068C13.8072 18.1007 14.2347 17.2474 14.2347 16.4913C14.2347 15.7355 13.8077 14.8853 12.7543 14.1844L12.7532 14.1837C11.5327 13.3686 9.87403 12.9375 8.17223 12.9375C6.4713 12.9375 4.80699 13.3682 3.57556 14.1842Z" fill="#101010"/>
<path fill-rule="evenodd" clip-rule="evenodd" d="M16.6383 12.8352C16.7294 12.4311 17.1308 12.1773 17.5349 12.2684C18.3243 12.4463 19.099 12.7636 19.7526 13.262C20.6937 13.9689 21.22 14.954 21.22 15.995C21.22 17.0358 20.694 18.0206 19.7534 18.7275C19.092 19.2345 18.3053 19.565 17.493 19.7343C17.0875 19.8188 16.6902 19.5585 16.6058 19.153C16.5213 18.7475 16.7815 18.3503 17.187 18.2658C17.8133 18.1353 18.3854 17.8867 18.8432 17.5352L18.85 17.53L18.85 17.53C19.4673 17.0671 19.72 16.5031 19.72 15.995C19.72 15.487 19.4673 14.923 18.85 14.46L18.8448 14.4561L18.8448 14.4561C18.3989 14.1156 17.8347 13.8736 17.2051 13.7317C16.801 13.6406 16.5473 13.2392 16.6383 12.8352Z" fill="#101010"/>
</svg>
