<svg width="22" height="22" viewBox="0 0 22 22" fill="none" xmlns="http://www.w3.org/2000/svg">
<path fill-rule="evenodd" clip-rule="evenodd" d="M10.75 3.5C10.75 3.08579 11.0858 2.75 11.5 2.75H16C17.5142 2.75 18.75 3.98579 18.75 5.5V15C18.75 15.4142 18.4142 15.75 18 15.75C17.5858 15.75 17.25 15.4142 17.25 15V5.5C17.25 4.81421 16.6858 4.25 16 4.25H11.5C11.0858 4.25 10.75 3.91421 10.75 3.5Z" fill="#101010"/>
<path fill-rule="evenodd" clip-rule="evenodd" d="M14.5762 0.519861C14.8413 0.838069 14.7983 1.31099 14.4801 1.57617L12.1715 3.5L14.4801 5.42383C14.7983 5.68901 14.8413 6.16193 14.5762 6.48014C14.311 6.79835 13.8381 6.84134 13.5199 6.57617L10.5199 4.07617C10.3489 3.93367 10.25 3.72258 10.25 3.5C10.25 3.27741 10.3489 3.06633 10.5199 2.92383L13.5199 0.423834C13.8381 0.158661 14.311 0.201654 14.5762 0.519861Z" fill="#101010"/>
<path fill-rule="evenodd" clip-rule="evenodd" d="M4 7.25C4.41421 7.25 4.75 7.58579 4.75 8V15C4.75 15.4142 4.41421 15.75 4 15.75C3.58579 15.75 3.25 15.4142 3.25 15V8C3.25 7.58579 3.58579 7.25 4 7.25Z" fill="#101010"/>
<path fill-rule="evenodd" clip-rule="evenodd" d="M4.25 1.75C2.86929 1.75 1.75 2.86929 1.75 4.25C1.75 5.63071 2.86929 6.75 4.25 6.75C5.63071 6.75 6.75 5.63071 6.75 4.25C6.75 2.86929 5.63071 1.75 4.25 1.75ZM0.25 4.25C0.25 2.04086 2.04086 0.25 4.25 0.25C6.45914 0.25 8.25 2.04086 8.25 4.25C8.25 6.45914 6.45914 8.25 4.25 8.25C2.04086 8.25 0.25 6.45914 0.25 4.25Z" fill="#101010"/>
<path fill-rule="evenodd" clip-rule="evenodd" d="M4 15.75C2.75736 15.75 1.75 16.7574 1.75 18C1.75 19.2426 2.75736 20.25 4 20.25C5.24264 20.25 6.25 19.2426 6.25 18C6.25 16.7574 5.24264 15.75 4 15.75ZM0.25 18C0.25 15.9289 1.92893 14.25 4 14.25C6.07107 14.25 7.75 15.9289 7.75 18C7.75 20.0711 6.07107 21.75 4 21.75C1.92893 21.75 0.25 20.0711 0.25 18Z" fill="#101010"/>
<path fill-rule="evenodd" clip-rule="evenodd" d="M18 15.75C16.7574 15.75 15.75 16.7574 15.75 18C15.75 19.2426 16.7574 20.25 18 20.25C19.2426 20.25 20.25 19.2426 20.25 18C20.25 16.7574 19.2426 15.75 18 15.75ZM14.25 18C14.25 15.9289 15.9289 14.25 18 14.25C20.0711 14.25 21.75 15.9289 21.75 18C21.75 20.0711 20.0711 21.75 18 21.75C15.9289 21.75 14.25 20.0711 14.25 18Z" fill="#101010"/>
</svg>
