<svg width="22" height="22" viewBox="0 0 22 22" fill="none" xmlns="http://www.w3.org/2000/svg">
<path fill-rule="evenodd" clip-rule="evenodd" d="M9.75 3.5C9.75 3.08579 10.0858 2.75 10.5 2.75H16C17.5142 2.75 18.75 3.98579 18.75 5.5V15C18.75 15.4142 18.4142 15.75 18 15.75C17.5858 15.75 17.25 15.4142 17.25 15V5.5C17.25 4.81421 16.6858 4.25 16 4.25H10.5C10.0858 4.25 9.75 3.91421 9.75 3.5Z" fill="#101010"/>
<path fill-rule="evenodd" clip-rule="evenodd" d="M13.5762 0.519861C13.8413 0.838069 13.7983 1.31099 13.4801 1.57617L11.1715 3.5L13.4801 5.42383C13.7983 5.68901 13.8413 6.16193 13.5762 6.48014C13.311 6.79835 12.8381 6.84134 12.5199 6.57617L9.51986 4.07617C9.34887 3.93367 9.25 3.72258 9.25 3.5C9.25 3.27741 9.34887 3.06633 9.51986 2.92383L12.5199 0.423834C12.8381 0.158661 13.311 0.201654 13.5762 0.519861Z" fill="#101010"/>
<path fill-rule="evenodd" clip-rule="evenodd" d="M18 15.75C16.7574 15.75 15.75 16.7574 15.75 18C15.75 19.2426 16.7574 20.25 18 20.25C19.2426 20.25 20.25 19.2426 20.25 18C20.25 16.7574 19.2426 15.75 18 15.75ZM14.25 18C14.25 15.9289 15.9289 14.25 18 14.25C20.0711 14.25 21.75 15.9289 21.75 18C21.75 20.0711 20.0711 21.75 18 21.75C15.9289 21.75 14.25 20.0711 14.25 18Z" fill="#101010"/>
<path fill-rule="evenodd" clip-rule="evenodd" d="M4 6.25C4.41421 6.25 4.75 6.58579 4.75 7V16.5C4.75 17.1858 5.31421 17.75 6 17.75H11.5C11.9142 17.75 12.25 18.0858 12.25 18.5C12.25 18.9142 11.9142 19.25 11.5 19.25H6C4.48579 19.25 3.25 18.0142 3.25 16.5V7C3.25 6.58579 3.58579 6.25 4 6.25Z" fill="#101010"/>
<path fill-rule="evenodd" clip-rule="evenodd" d="M8.42385 15.5199C8.68903 15.2017 9.16195 15.1587 9.48016 15.4238L12.4802 17.9238C12.6512 18.0663 12.75 18.2774 12.75 18.5C12.75 18.7226 12.6512 18.9337 12.4802 19.0762L9.48016 21.5762C9.16195 21.8413 8.68903 21.7983 8.42385 21.4801C8.15868 21.1619 8.20167 20.689 8.51988 20.4238L10.8285 18.5L8.51988 16.5762C8.20167 16.311 8.15868 15.8381 8.42385 15.5199Z" fill="#101010"/>
<path fill-rule="evenodd" clip-rule="evenodd" d="M4 1.75C2.75736 1.75 1.75 2.75736 1.75 4C1.75 5.24264 2.75736 6.25 4 6.25C5.24264 6.25 6.25 5.24264 6.25 4C6.25 2.75736 5.24264 1.75 4 1.75ZM0.25 4C0.25 1.92893 1.92893 0.25 4 0.25C6.07107 0.25 7.75 1.92893 7.75 4C7.75 6.07107 6.07107 7.75 4 7.75C1.92893 7.75 0.25 6.07107 0.25 4Z" fill="#101010"/>
</svg>
