<svg width="22" height="22" viewBox="0 0 22 22" fill="none" xmlns="http://www.w3.org/2000/svg">
<path fill-rule="evenodd" clip-rule="evenodd" d="M13.3218 7.71997C13.0508 7.71997 12.8818 7.89901 12.8818 8.15997V9.65002C12.8818 9.91098 13.0508 10.09 13.3218 10.09H15.2518V8.15997C15.2518 7.92419 15.0476 7.71997 14.8118 7.71997H13.3218ZM11.3818 8.15997C11.3818 7.12093 12.1729 6.21997 13.3218 6.21997H14.8118C15.876 6.21997 16.7518 7.09576 16.7518 8.15997V10.84C16.7518 11.2542 16.416 11.59 16.0018 11.59H13.3218C12.1729 11.59 11.3818 10.6891 11.3818 9.65002V8.15997Z" fill="#101010"/>
<path fill-rule="evenodd" clip-rule="evenodd" d="M16.0022 10.09C16.4164 10.09 16.7522 10.4258 16.7522 10.84C16.7522 12.2486 16.6282 13.2351 16.2003 13.999C15.7635 14.779 15.0672 15.2176 14.2945 15.6753C13.9381 15.8864 13.478 15.7686 13.2669 15.4123C13.0558 15.0559 13.1736 14.5958 13.53 14.3847C14.3272 13.9125 14.676 13.651 14.8916 13.266C15.1162 12.865 15.2522 12.2214 15.2522 10.84C15.2522 10.4258 15.588 10.09 16.0022 10.09Z" fill="#101010"/>
<path fill-rule="evenodd" clip-rule="evenodd" d="M7.18217 7.71997C6.91113 7.71997 6.74219 7.899 6.74219 8.15997V9.65002C6.74219 9.911 6.91113 10.09 7.18217 10.09H9.11218V8.15997C9.11218 7.92419 8.90797 7.71997 8.67218 7.71997H7.18217ZM5.24219 8.15997C5.24219 7.12095 6.03322 6.21997 7.18217 6.21997H8.67218C9.73639 6.21997 10.6122 7.09576 10.6122 8.15997V10.84C10.6122 11.2542 10.2764 11.59 9.86218 11.59H7.18217C6.03322 11.59 5.24219 10.6891 5.24219 9.65002V8.15997Z" fill="#101010"/>
<path fill-rule="evenodd" clip-rule="evenodd" d="M9.86257 10.09C10.2768 10.09 10.6126 10.4258 10.6126 10.84C10.6126 12.2486 10.4886 13.2351 10.0607 13.999C9.62382 14.779 8.92756 15.2176 8.15482 15.6753C7.79844 15.8864 7.3384 15.7686 7.12729 15.4123C6.91619 15.0559 7.03396 14.5958 7.39034 14.3847C8.1876 13.9125 8.53633 13.651 8.75197 13.266C8.97659 12.865 9.11257 12.2214 9.11257 10.84C9.11257 10.4258 9.44836 10.09 9.86257 10.09Z" fill="#101010"/>
<path fill-rule="evenodd" clip-rule="evenodd" d="M11.002 1.75C5.89332 1.75 1.75195 5.89137 1.75195 11C1.75195 16.1086 5.89332 20.25 11.002 20.25C16.1106 20.25 20.252 16.1086 20.252 11C20.252 5.89137 16.1106 1.75 11.002 1.75ZM0.251953 11C0.251953 5.06294 5.06489 0.25 11.002 0.25C16.939 0.25 21.752 5.06294 21.752 11C21.752 16.9371 16.939 21.75 11.002 21.75C5.06489 21.75 0.251953 16.9371 0.251953 11Z" fill="#101010"/>
</svg>
