<svg width="22" height="22" viewBox="0 0 22 22" fill="none" xmlns="http://www.w3.org/2000/svg">
<path fill-rule="evenodd" clip-rule="evenodd" d="M2.09662 2.09467C3.43109 0.760201 5.42798 0.25 8.00195 0.25H14.002C16.5759 0.25 18.5728 0.760201 19.9073 2.09467C21.2418 3.42914 21.752 5.42603 21.752 8V14C21.752 16.574 21.2418 18.5709 19.9073 19.9053C18.5728 21.2398 16.5759 21.75 14.002 21.75H8.00195C5.42798 21.75 3.43109 21.2398 2.09662 19.9053C0.762154 18.5709 0.251953 16.574 0.251953 14V8C0.251953 5.42603 0.762154 3.42914 2.09662 2.09467ZM3.15728 3.15533C2.24175 4.07086 1.75195 5.57397 1.75195 8V14C1.75195 16.426 2.24175 17.9291 3.15728 18.8447C4.07281 19.7602 5.57593 20.25 8.00195 20.25H14.002C16.428 20.25 17.9311 19.7602 18.8466 18.8447C19.7622 17.9291 20.252 16.426 20.252 14V8C20.252 5.57397 19.7622 4.07086 18.8466 3.15533C17.9311 2.2398 16.428 1.75 14.002 1.75H8.00195C5.57593 1.75 4.07281 2.2398 3.15728 3.15533Z" fill="#101010"/>
<path fill-rule="evenodd" clip-rule="evenodd" d="M5.25195 11.16C5.25195 10.7458 5.58774 10.41 6.00195 10.41H8.68195C9.8309 10.41 10.622 11.3109 10.622 12.35V13.84C10.622 14.8791 9.8309 15.78 8.68195 15.78H7.19196C6.12774 15.78 5.25195 14.9042 5.25195 13.84V11.16ZM6.75195 11.91V13.84C6.75195 14.0758 6.95617 14.28 7.19196 14.28H8.68195C8.95301 14.28 9.12196 14.101 9.12196 13.84V12.35C9.12196 12.089 8.95301 11.91 8.68195 11.91H6.75195Z" fill="#101010"/>
<path fill-rule="evenodd" clip-rule="evenodd" d="M8.73723 6.58773C8.94834 6.94411 8.83057 7.40415 8.47419 7.61525C7.67693 8.08751 7.32819 8.34895 7.11256 8.73396C6.88794 9.13501 6.75195 9.77857 6.75195 11.16C6.75195 11.5742 6.41617 11.91 6.00195 11.91C5.58774 11.91 5.25195 11.5742 5.25195 11.16C5.25195 9.75137 5.37597 8.76493 5.80385 8.00097C6.24071 7.22098 6.93697 6.78242 7.70971 6.32468C8.06609 6.11358 8.52613 6.23135 8.73723 6.58773Z" fill="#101010"/>
<path fill-rule="evenodd" clip-rule="evenodd" d="M11.3916 11.16C11.3916 10.7458 11.7274 10.41 12.1416 10.41H14.8216C15.9705 10.41 16.7616 11.3109 16.7616 12.35V13.84C16.7616 14.8791 15.9705 15.78 14.8216 15.78H13.3316C12.2674 15.78 11.3916 14.9042 11.3916 13.84V11.16ZM12.8916 11.91V13.84C12.8916 14.0758 13.0958 14.28 13.3316 14.28H14.8216C15.0927 14.28 15.2616 14.101 15.2616 13.84V12.35C15.2616 12.089 15.0927 11.91 14.8216 11.91H12.8916Z" fill="#101010"/>
<path fill-rule="evenodd" clip-rule="evenodd" d="M14.8769 6.58773C15.088 6.94411 14.9702 7.40415 14.6138 7.61525C13.8166 8.08751 13.4678 8.34895 13.2522 8.73396C13.0276 9.13501 12.8916 9.77857 12.8916 11.16C12.8916 11.5742 12.5558 11.91 12.1416 11.91C11.7274 11.91 11.3916 11.5742 11.3916 11.16C11.3916 9.75137 11.5156 8.76492 11.9435 8.00097C12.3804 7.22098 13.0766 6.78242 13.8494 6.32468C14.2057 6.11358 14.6658 6.23135 14.8769 6.58773Z" fill="#101010"/>
</svg>
