<svg width="22" height="20" viewBox="0 0 22 20" fill="none" xmlns="http://www.w3.org/2000/svg">
<path fill-rule="evenodd" clip-rule="evenodd" d="M0.251953 10.35C0.251953 9.93576 0.58774 9.59998 1.00195 9.59998H6.80194C8.7671 9.59998 10.132 11.117 10.132 12.93V16.15C10.132 17.963 8.76708 19.48 6.80194 19.48H3.58197C1.74778 19.48 0.251953 17.9843 0.251953 16.15V10.35ZM1.75195 11.1V16.15C1.75195 17.1558 2.57616 17.98 3.58197 17.98H6.80194C7.8968 17.98 8.63196 17.1771 8.63196 16.15V12.93C8.63196 11.9029 7.89678 11.1 6.80194 11.1H1.75195Z" fill="#101010"/>
<path fill-rule="evenodd" clip-rule="evenodd" d="M6.17677 0.896944C6.38834 1.25305 6.27117 1.71324 5.91506 1.92481C4.20092 2.94321 3.24254 3.60951 2.64577 4.67123C2.04049 5.74809 1.75195 7.33854 1.75195 10.35C1.75195 10.7642 1.41617 11.1 1.00195 11.1C0.58774 11.1 0.251953 10.7642 0.251953 10.35C0.251953 7.3114 0.528433 5.37687 1.33817 3.93626C2.15641 2.48051 3.46304 1.63684 5.1489 0.635237C5.50501 0.423668 5.9652 0.540838 6.17677 0.896944Z" fill="#101010"/>
<path fill-rule="evenodd" clip-rule="evenodd" d="M11.8818 10.35C11.8818 9.93576 12.2176 9.59998 12.6318 9.59998H18.4318C20.397 9.59998 21.7618 11.117 21.7618 12.93V16.15C21.7618 17.963 20.397 19.48 18.4318 19.48H15.2119C13.3777 19.48 11.8818 17.9843 11.8818 16.15V10.35ZM13.3818 11.1V16.15C13.3818 17.1558 14.206 17.98 15.2119 17.98H18.4318C19.5267 17.98 20.2618 17.1771 20.2618 16.15V12.93C20.2618 11.9029 19.5267 11.1 18.4318 11.1H13.3818Z" fill="#101010"/>
<path fill-rule="evenodd" clip-rule="evenodd" d="M17.8066 0.896944C18.0182 1.25305 17.901 1.71324 17.5449 1.92481C15.8307 2.94321 14.8724 3.60951 14.2756 4.67123C13.6704 5.74809 13.3818 7.33854 13.3818 10.35C13.3818 10.7642 13.046 11.1 12.6318 11.1C12.2176 11.1 11.8818 10.7642 11.8818 10.35C11.8818 7.3114 12.1583 5.37688 12.968 3.93627C13.7862 2.48051 15.0929 1.63684 16.7787 0.635237C17.1348 0.423668 17.595 0.540838 17.8066 0.896944Z" fill="#101010"/>
</svg>
