<svg width="22" height="22" viewBox="0 0 22 22" fill="none" xmlns="http://www.w3.org/2000/svg">
<path fill-rule="evenodd" clip-rule="evenodd" d="M11 1.75C8.9191 1.75 6.99548 2.4432 5.44942 3.60043C5.11782 3.84864 4.64778 3.78103 4.39957 3.44942C4.15136 3.11782 4.21897 2.64778 4.55058 2.39957C6.34452 1.0568 8.5809 0.25 11 0.25C16.9342 0.25 21.75 5.06579 21.75 11C21.75 16.9342 16.9342 21.75 11 21.75C5.06579 21.75 0.25 16.9342 0.25 11C0.25 9.05563 0.766016 7.22645 1.68072 5.64456C1.88764 5.28671 2.3451 5.16375 2.70354 5.36964L11.3736 10.3497C11.7327 10.556 11.8567 11.0144 11.6503 11.3736C11.444 11.7327 10.9856 11.8567 10.6264 11.6503L2.6314 7.05804C2.06416 8.25503 1.75 9.59044 1.75 11C1.75 16.1058 5.89421 20.25 11 20.25C16.1058 20.25 20.25 16.1058 20.25 11C20.25 5.89421 16.1058 1.75 11 1.75Z" fill="#101010"/>
<path fill-rule="evenodd" clip-rule="evenodd" d="M8.12518 4.894C8.99885 4.47419 9.98013 4.25 11 4.25C14.7242 4.25 17.75 7.27579 17.75 11C17.75 14.7242 14.7242 17.75 11 17.75C7.27579 17.75 4.25 14.7242 4.25 11C4.25 9.75323 4.58734 8.58087 5.18559 7.57625C5.39753 7.22036 5.85784 7.10366 6.21373 7.3156C6.56962 7.52753 6.68631 7.98784 6.47438 8.34373C6.01263 9.11912 5.75 10.0268 5.75 11C5.75 13.8958 8.10421 16.25 11 16.25C13.8958 16.25 16.25 13.8958 16.25 11C16.25 8.10421 13.8958 5.75 11 5.75C10.1999 5.75 9.44118 5.92583 8.77485 6.24601C8.4015 6.42541 7.95341 6.26819 7.77401 5.89484C7.59461 5.52149 7.75183 5.0734 8.12518 4.894Z" fill="#101010"/>
</svg>
