<svg width="22" height="14" viewBox="0 0 22 14" fill="none" xmlns="http://www.w3.org/2000/svg">
<path fill-rule="evenodd" clip-rule="evenodd" d="M11 5.75C10.3096 5.75 9.75 6.30964 9.75 7C9.75 7.69036 10.3096 8.25 11 8.25C11.6904 8.25 12.25 7.69036 12.25 7C12.25 6.30964 11.6904 5.75 11 5.75ZM8.25 7C8.25 5.48122 9.48122 4.25 11 4.25C12.5188 4.25 13.75 5.48122 13.75 7C13.75 8.51878 12.5188 9.75 11 9.75C9.48122 9.75 8.25 8.51878 8.25 7Z" fill="#101010"/>
<path fill-rule="evenodd" clip-rule="evenodd" d="M18.5483 0.401336C18.879 0.151858 19.3493 0.217667 19.5987 0.548324C20.9545 2.34527 21.75 4.58309 21.75 7.00004C21.75 9.41699 20.9545 11.6548 19.5987 13.4518C19.3493 13.7824 18.879 13.8482 18.5483 13.5988C18.2177 13.3493 18.1519 12.879 18.4013 12.5483C19.5656 11.0053 20.25 9.08309 20.25 7.00004C20.25 4.91699 19.5656 2.99481 18.4013 1.45176C18.1519 1.1211 18.2177 0.650813 18.5483 0.401336Z" fill="#101010"/>
<path fill-rule="evenodd" clip-rule="evenodd" d="M3.45172 0.401336C3.78238 0.650813 3.84818 1.1211 3.59871 1.45176C2.43449 2.99481 1.75 4.91699 1.75 7.00004C1.75 9.08309 2.43449 11.0053 3.59871 12.5483C3.84818 12.879 3.78238 13.3493 3.45172 13.5988C3.12106 13.8482 2.65077 13.7824 2.40129 13.4518C1.04551 11.6548 0.25 9.41699 0.25 7.00004C0.25 4.58309 1.04551 2.34527 2.40129 0.548324C2.65077 0.217667 3.12106 0.151858 3.45172 0.401336Z" fill="#101010"/>
<path fill-rule="evenodd" clip-rule="evenodd" d="M15.3508 2.79995C15.6822 2.55142 16.1523 2.61858 16.4008 2.94995C17.2442 4.07451 17.7508 5.48122 17.7508 6.99995C17.7508 8.51868 17.2442 9.92539 16.4008 11.05C16.1523 11.3813 15.6822 11.4485 15.3508 11.2C15.0195 10.9514 14.9523 10.4813 15.2008 10.15C15.8574 9.27452 16.2508 8.18122 16.2508 6.99995C16.2508 5.81868 15.8574 4.72538 15.2008 3.84995C14.9523 3.51858 15.0195 3.04847 15.3508 2.79995Z" fill="#101010"/>
<path fill-rule="evenodd" clip-rule="evenodd" d="M6.65001 2.79995C6.98138 3.04847 7.04854 3.51858 6.80001 3.84995C6.14344 4.72538 5.75 5.81868 5.75 6.99995C5.75 8.18122 6.14344 9.27452 6.80001 10.15C7.04854 10.4813 6.98138 10.9514 6.65001 11.2C6.31864 11.4485 5.84854 11.3813 5.60001 11.05C4.75659 9.92539 4.25 8.51868 4.25 6.99995C4.25 5.48122 4.75659 4.07451 5.60001 2.94995C5.84854 2.61858 6.31864 2.55142 6.65001 2.79995Z" fill="#101010"/>
</svg>
