<svg width="22" height="22" viewBox="0 0 22 22" fill="none" xmlns="http://www.w3.org/2000/svg">
<path fill-rule="evenodd" clip-rule="evenodd" d="M11 1.75C8.9191 1.75 6.99548 2.4432 5.44942 3.60043C5.11782 3.84864 4.64778 3.78103 4.39957 3.44942C4.15136 3.11782 4.21897 2.64778 4.55058 2.39957C6.34452 1.0568 8.5809 0.25 11 0.25C16.9342 0.25 21.75 5.06579 21.75 11C21.75 16.9342 16.9342 21.75 11 21.75C5.06579 21.75 0.25 16.9342 0.25 11C0.25 9.05563 0.766016 7.22645 1.68072 5.64456C1.88764 5.28671 2.3451 5.16375 2.70354 5.36964L11.3736 10.3497C11.7327 10.556 11.8567 11.0144 11.6503 11.3736C11.444 11.7327 10.9856 11.8567 10.6264 11.6503L2.6314 7.05804C2.06416 8.25503 1.75 9.59044 1.75 11C1.75 16.1058 5.89421 20.25 11 20.25C16.1058 20.25 20.25 16.1058 20.25 11C20.25 5.89421 16.1058 1.75 11 1.75Z" fill="#101010"/>
</svg>
