<svg width="22" height="23" viewBox="0 0 22 23" fill="none" xmlns="http://www.w3.org/2000/svg">
<path fill-rule="evenodd" clip-rule="evenodd" d="M17.0168 1.75C16.3176 1.75174 15.75 2.3201 15.75 3.01V9.25H18.42C19.0494 9.25 19.4903 9.05404 19.7722 8.77217C20.054 8.4903 20.25 8.04943 20.25 7.42V5C20.25 4.10967 19.8867 3.29651 19.2979 2.69852C18.7158 2.11742 17.9052 1.75912 17.0168 1.75ZM14.25 3.01C14.25 1.48095 15.5006 0.25 17.02 0.25H17.0269L17.0269 0.250032C18.3161 0.261859 19.5033 0.782635 20.3603 1.63967L20.364 1.64333L20.364 1.64334C21.214 2.50518 21.75 3.69125 21.75 5V7.42C21.75 8.37056 21.446 9.2197 20.8328 9.83283C20.2197 10.446 19.3706 10.75 18.42 10.75H15C14.5858 10.75 14.25 10.4142 14.25 10V3.01Z" fill="#101010"/>
<path fill-rule="evenodd" clip-rule="evenodd" d="M1.30736 1.68106C2.11215 0.749119 3.34646 0.25 5 0.25H17C17.4142 0.25 17.75 0.585786 17.75 1C17.75 1.41421 17.4142 1.75 17 1.75C16.3142 1.75 15.75 2.31421 15.75 3V20C15.75 21.4418 14.1035 22.2564 12.9529 21.4022L12.9506 21.4004L11.2327 20.1145C11.1465 20.0482 11.0086 20.0521 10.9203 20.1403L9.24033 21.8203C8.55744 22.5032 7.44256 22.5032 6.75967 21.8203L6.75808 21.8187L5.09967 20.1503C5.0995 20.1502 5.09984 20.1505 5.09967 20.1503C5.00043 20.0516 4.85766 20.0468 4.76 20.12L3.05289 21.3978C3.05221 21.3983 3.05152 21.3989 3.05084 21.3994C1.89266 22.2743 0.25 21.4434 0.25 20V5C0.25 3.79713 0.520332 2.59244 1.30736 1.68106ZM14.5517 1.75H5C3.65354 1.75 2.88785 2.14588 2.44264 2.66144C1.97967 3.19756 1.75 3.99287 1.75 5V20C1.75 20.2157 1.98539 20.3247 2.14711 20.2022L2.15056 20.1996L3.86 18.92C4.56217 18.3934 5.53959 18.4689 6.16033 19.0897L6.16192 19.0913L7.82033 20.7597C7.82049 20.7598 7.82017 20.7595 7.82033 20.7597C7.9175 20.8563 8.08273 20.8566 8.17967 20.7597L9.85967 19.0797C10.4701 18.4693 11.4492 18.3922 12.1428 18.9221L13.8471 20.1978C13.8474 20.198 13.8477 20.1983 13.8479 20.1985C14.0173 20.3232 14.25 20.1979 14.25 20V3C14.25 2.55044 14.3589 2.12542 14.5517 1.75Z" fill="#101010"/>
<path fill-rule="evenodd" clip-rule="evenodd" d="M4.5 9C4.5 8.58579 4.83579 8.25 5.25 8.25H10.75C11.1642 8.25 11.5 8.58579 11.5 9C11.5 9.41421 11.1642 9.75 10.75 9.75H5.25C4.83579 9.75 4.5 9.41421 4.5 9Z" fill="#101010"/>
</svg>
