<svg width="22" height="22" viewBox="0 0 22 22" fill="none" xmlns="http://www.w3.org/2000/svg">
<path fill-rule="evenodd" clip-rule="evenodd" d="M2.09467 2.09467C3.42914 0.760201 5.42603 0.25 8 0.25H14C16.574 0.25 18.5709 0.760201 19.9053 2.09467C21.2398 3.42914 21.75 5.42603 21.75 8V14C21.75 16.574 21.2398 18.5709 19.9053 19.9053C18.5709 21.2398 16.574 21.75 14 21.75H8C5.42603 21.75 3.42914 21.2398 2.09467 19.9053C0.760201 18.5709 0.25 16.574 0.25 14V8C0.25 5.42603 0.760201 3.42914 2.09467 2.09467ZM3.15533 3.15533C2.2398 4.07086 1.75 5.57397 1.75 8V14C1.75 16.426 2.2398 17.9291 3.15533 18.8447C4.07086 19.7602 5.57397 20.25 8 20.25H14C16.426 20.25 17.9291 19.7602 18.8447 18.8447C19.7602 17.9291 20.25 16.426 20.25 14V8C20.25 5.57397 19.7602 4.07086 18.8447 3.15533C17.9291 2.2398 16.426 1.75 14 1.75H8C5.57397 1.75 4.07086 2.2398 3.15533 3.15533Z" fill="#101010"/>
<path fill-rule="evenodd" clip-rule="evenodd" d="M13.8298 7.34998C14.2441 7.34998 14.5798 7.68576 14.5798 8.09998V12.34C14.5798 12.7542 14.2441 13.09 13.8298 13.09H9.58984C9.17563 13.09 8.83984 12.7542 8.83984 12.34C8.83984 11.9258 9.17563 11.59 9.58984 11.59H13.0798V8.09998C13.0798 7.68576 13.4156 7.34998 13.8298 7.34998Z" fill="#101010"/>
<path fill-rule="evenodd" clip-rule="evenodd" d="M7.63959 6.14966C7.93248 5.85677 8.40736 5.85677 8.70025 6.14966L14.3603 11.8097C14.6531 12.1026 14.6531 12.5774 14.3603 12.8703C14.0674 13.1632 13.5925 13.1632 13.2996 12.8703L7.63959 7.21032C7.3467 6.91743 7.3467 6.44256 7.63959 6.14966Z" fill="#101010"/>
<path fill-rule="evenodd" clip-rule="evenodd" d="M4.28887 15.2722C4.42016 14.8794 4.84507 14.6674 5.23792 14.7986C8.97364 16.0471 13.0268 16.0471 16.7625 14.7986C17.1553 14.6674 17.5802 14.8794 17.7115 15.2722C17.8428 15.6651 17.6308 16.09 17.2379 16.2213C13.1936 17.5729 8.80677 17.5729 4.76248 16.2213C4.36963 16.09 4.15759 15.6651 4.28887 15.2722Z" fill="#101010"/>
</svg>
