<svg width="20" height="21" viewBox="0 0 20 21" fill="none" xmlns="http://www.w3.org/2000/svg">
<path fill-rule="evenodd" clip-rule="evenodd" d="M17.5303 0.96967C17.8232 1.26256 17.8232 1.73744 17.5303 2.03033L3.53033 16.0303C3.23744 16.3232 2.76256 16.3232 2.46967 16.0303C2.17678 15.7374 2.17678 15.2626 2.46967 14.9697L16.4697 0.96967C16.7626 0.676777 17.2374 0.676777 17.5303 0.96967Z" fill="#101010"/>
<path fill-rule="evenodd" clip-rule="evenodd" d="M3 4.47998C3.41421 4.47998 3.75 4.81577 3.75 5.22998V14.75H13.27C13.6842 14.75 14.02 15.0858 14.02 15.5C14.02 15.9142 13.6842 16.25 13.27 16.25H3C2.58579 16.25 2.25 15.9142 2.25 15.5V5.22998C2.25 4.81577 2.58579 4.47998 3 4.47998Z" fill="#101010"/>
<path fill-rule="evenodd" clip-rule="evenodd" d="M0.75 20C0.75 19.5858 1.08579 19.25 1.5 19.25H18.5C18.9142 19.25 19.25 19.5858 19.25 20C19.25 20.4142 18.9142 20.75 18.5 20.75H1.5C1.08579 20.75 0.75 20.4142 0.75 20Z" fill="#101010"/>
</svg>
