<svg width="20" height="22" viewBox="0 0 20 22" fill="none" xmlns="http://www.w3.org/2000/svg">
<path fill-rule="evenodd" clip-rule="evenodd" d="M1.89481 1.49637C2.84095 0.485039 4.3285 0.25 6.22 0.25H13.78C15.6712 0.25 17.1594 0.484907 18.1044 1.49685C19.0328 2.49101 19.2449 4.03799 19.24 6.04109C19.24 6.04135 19.24 6.04083 19.24 6.04109V17.31C19.24 18.0349 19.1423 18.6769 18.9306 19.1986C18.7178 19.7228 18.3662 20.1764 17.8397 20.4036C17.3078 20.6332 16.7382 20.5712 16.2186 20.3471C15.7063 20.1262 15.2002 19.7332 14.7127 19.2128L14.7113 19.2113C14.4423 18.9226 14.1363 18.8193 13.8683 18.8339C13.6 18.8485 13.3064 18.9848 13.07 19.3L12.0605 20.6493L12.058 20.6527C11.5327 21.3466 10.7933 21.7525 9.995 21.7525C9.1967 21.7525 8.45733 21.3466 7.93202 20.6527L7.92947 20.6493L6.92 19.3C6.6836 18.9848 6.39003 18.8485 6.12172 18.8339C5.85374 18.8193 5.54771 18.9226 5.27871 19.2113L5.27742 19.2127C4.79203 19.731 4.28697 20.1228 3.77494 20.343C3.25572 20.5664 2.68637 20.6279 2.15457 20.3988C1.62795 20.172 1.27503 19.719 1.06116 19.1938C0.848338 18.6711 0.75 18.0276 0.75 17.3V6.04C0.75 4.03644 0.965319 2.4899 1.89481 1.49637ZM2.99019 2.52113C2.50468 3.0401 2.25 4.01356 2.25 6.04V17.3C2.25 17.9074 2.33416 18.3426 2.4504 18.6281C2.56559 18.911 2.6883 18.9955 2.74793 19.0212C2.80238 19.0446 2.9299 19.0736 3.18225 18.9651C3.44178 18.8535 3.78297 18.614 4.18258 18.1873L4.73 18.7L4.18129 18.1887C4.73229 17.5974 5.46126 17.2957 6.20328 17.3361C6.94497 17.3765 7.6364 17.7552 8.12 18.4L9.12798 19.7473C9.12836 19.7478 9.12874 19.7483 9.12911 19.7488C9.41352 20.1237 9.73365 20.2525 9.995 20.2525C10.2564 20.2525 10.5765 20.1237 10.8609 19.7488C10.8613 19.7483 10.8617 19.7478 10.862 19.7473L11.8695 18.4007C12.3531 17.7559 13.045 17.3765 13.7867 17.3361C14.5283 17.2957 15.2569 17.5971 15.8078 18.1877C16.21 18.617 16.5525 18.8576 16.8126 18.9697C17.0655 19.0788 17.1922 19.0493 17.2453 19.0264C17.3038 19.0011 17.4259 18.9172 17.5407 18.6345C17.6564 18.3494 17.74 17.9151 17.74 17.31V6.04L17.74 6.03814C17.745 4.01161 17.4921 3.03886 17.0081 2.52065C16.5406 2.02009 15.6688 1.75 13.78 1.75H6.22C4.3315 1.75 3.45905 2.01996 2.99019 2.52113Z" fill="#101010"/>
<path fill-rule="evenodd" clip-rule="evenodd" d="M13.5303 5.46967C13.8232 5.76256 13.8232 6.23744 13.5303 6.53033L7.53033 12.5303C7.23744 12.8232 6.76256 12.8232 6.46967 12.5303C6.17678 12.2374 6.17678 11.7626 6.46967 11.4697L12.4697 5.46967C12.7626 5.17678 13.2374 5.17678 13.5303 5.46967Z" fill="#101010"/>
<path fill-rule="evenodd" clip-rule="evenodd" d="M11.9941 12C11.9941 11.4477 12.4419 11 12.9941 11H13.0031C13.5554 11 14.0031 11.4477 14.0031 12C14.0031 12.5523 13.5554 13 13.0031 13H12.9941C12.4419 13 11.9941 12.5523 11.9941 12Z" fill="#101010"/>
<path fill-rule="evenodd" clip-rule="evenodd" d="M5.99414 6.5C5.99414 5.94772 6.44186 5.5 6.99414 5.5H7.00312C7.55541 5.5 8.00312 5.94772 8.00312 6.5C8.00312 7.05228 7.55541 7.5 7.00312 7.5H6.99414C6.44186 7.5 5.99414 7.05228 5.99414 6.5Z" fill="#101010"/>
</svg>
