<svg width="19" height="22" viewBox="0 0 19 22" fill="none" xmlns="http://www.w3.org/2000/svg">
<path fill-rule="evenodd" clip-rule="evenodd" d="M9.5 1.75C9.24086 1.75 8.92221 1.87901 8.64265 2.25642L8.63841 2.26214L7.61952 3.61067C6.63046 4.93211 4.83935 5.02968 3.70248 3.83316L3.69985 3.83053C3.69374 3.82442 3.68774 3.81821 3.68184 3.8119C3.16495 3.25842 2.75565 3.03185 2.4998 2.97408C2.3311 2.93599 2.23601 2.96426 2.14735 3.05897C1.88247 3.67219 1.75 4.59605 1.75 6.04V15.96C1.75 17.4139 1.8843 18.3405 2.15285 18.9536C2.2424 19.0408 2.33922 19.0648 2.50125 19.0277C2.75669 18.9692 3.16421 18.7424 3.68184 18.1881C3.68774 18.1818 3.69374 18.1756 3.69985 18.1695L3.70251 18.1668C4.83941 16.9703 6.63057 17.0679 7.6196 18.3894C7.61999 18.39 7.62039 18.3905 7.62078 18.391L8.64267 19.7436C8.92223 20.121 9.24085 20.25 9.5 20.25C9.75915 20.25 10.0778 20.121 10.3574 19.7436L10.3611 19.7386L11.37 18.4C11.3701 18.3998 11.3698 18.4002 11.37 18.4C12.3695 17.0679 14.1794 16.9662 15.3186 18.1885C15.9609 18.8774 16.4145 19.04 16.63 19.04C16.7158 19.04 16.781 19.0196 16.8459 18.9565C17.1153 18.3433 17.25 17.4161 17.25 15.96V6.04C17.25 4.59719 17.1177 3.67365 16.8533 3.06043C16.7774 2.98086 16.7075 2.96 16.63 2.96C16.4145 2.96 15.9609 3.12257 15.3186 3.81147C14.1794 5.03373 12.3701 4.93264 11.3705 3.60076C11.3703 3.6005 11.3707 3.60101 11.3705 3.60076L10.3573 2.25644C10.0778 1.87903 9.75914 1.75 9.5 1.75ZM16.75 2.67C16.75 2.68837 16.7507 2.7067 16.752 2.72496C16.7482 2.68307 16.75 2.66054 16.75 2.67ZM2.25 2.67C2.25 2.66054 2.25181 2.68307 2.24798 2.72496C2.24933 2.7067 2.25 2.68837 2.25 2.67ZM7.43957 1.36053C7.9599 0.659797 8.7003 0.25 9.5 0.25C10.2998 0.25 11.0403 0.659931 11.5607 1.36087L12.57 2.7C13.0105 3.28734 13.7206 3.32602 14.2213 2.7887C14.959 1.99761 15.7855 1.46 16.63 1.46C17.1911 1.46 17.6709 1.70585 18.0171 2.11234C18.0716 2.16552 18.1251 2.23329 18.168 2.31905C18.1849 2.35278 18.1983 2.38566 18.2089 2.41699C18.6194 3.33656 18.75 4.53656 18.75 6.04V15.96C18.75 17.4711 18.6181 18.6756 18.2027 19.597C18.1869 19.6409 18.1716 19.6713 18.165 19.6845L18.1644 19.6858C18.1431 19.7283 18.1089 19.7878 18.0567 19.8498C17.6983 20.2966 17.1979 20.54 16.63 20.54C15.7855 20.54 14.9591 20.0026 14.2215 19.2115C13.7208 18.6742 13.0105 18.7127 12.57 19.3L11.5627 20.6364C11.562 20.6373 11.5614 20.6382 11.5607 20.6391C11.0404 21.3401 10.2998 21.75 9.5 21.75C8.70029 21.75 7.95988 21.3402 7.43955 20.6394L6.42161 19.2921L6.41926 19.289C5.99046 18.7152 5.28886 18.6707 4.78577 19.2044C4.78063 19.2099 4.77542 19.2152 4.77012 19.2205L4.76902 19.2216C4.15925 19.8722 3.50497 20.3366 2.83625 20.4898C2.10644 20.657 1.42213 20.4338 0.94762 19.8549C0.893032 19.7911 0.857476 19.7294 0.83561 19.6858L0.834998 19.6845C0.828375 19.6713 0.813119 19.6409 0.797331 19.597C0.381932 18.6756 0.25 17.4711 0.25 15.96V6.04C0.25 4.53655 0.380603 3.33655 0.791063 2.41698C0.801675 2.38565 0.815062 2.35278 0.83196 2.31905C0.874544 2.23405 0.927421 2.16672 0.981429 2.11375C1.44956 1.56025 2.11905 1.35033 2.8302 1.51092C3.501 1.66239 4.15848 2.12696 4.76903 2.77838L4.77012 2.77947C4.77542 2.78476 4.78063 2.79014 4.78577 2.79559C5.28886 3.32935 5.99046 3.28476 6.41926 2.71101L6.4216 2.70788L7.43957 1.36053Z" fill="#101010"/>
<path fill-rule="evenodd" clip-rule="evenodd" d="M5.25 9.25C5.25 8.83579 5.58579 8.5 6 8.5H14C14.4142 8.5 14.75 8.83579 14.75 9.25C14.75 9.66421 14.4142 10 14 10H6C5.58579 10 5.25 9.66421 5.25 9.25Z" fill="#101010"/>
<path fill-rule="evenodd" clip-rule="evenodd" d="M5.25 12.75C5.25 12.3358 5.58579 12 6 12H12C12.4142 12 12.75 12.3358 12.75 12.75C12.75 13.1642 12.4142 13.5 12 13.5H6C5.58579 13.5 5.25 13.1642 5.25 12.75Z" fill="#101010"/>
</svg>
