<svg width="21" height="22" viewBox="0 0 21 22" fill="none" xmlns="http://www.w3.org/2000/svg">
<path fill-rule="evenodd" clip-rule="evenodd" d="M1.89481 1.49637C2.84095 0.485041 4.3285 0.25 6.22 0.25H13.78C15.6715 0.25 17.1591 0.485041 18.1052 1.49637C19.0347 2.48991 19.25 4.03645 19.25 6.04001V10.3C19.25 10.7142 18.9142 11.05 18.5 11.05C18.0858 11.05 17.75 10.7142 17.75 10.3V6.04001C17.75 4.01357 17.4953 3.0401 17.0098 2.52114C16.5409 2.01996 15.6685 1.75 13.78 1.75H6.22C4.3315 1.75 3.45906 2.01996 2.99019 2.52114C2.50468 3.0401 2.25 4.01357 2.25 6.04001V17.3C2.25 17.9046 2.33408 18.3385 2.45025 18.6233C2.56542 18.9057 2.68815 18.9904 2.74794 19.0162C2.80225 19.0396 2.92947 19.0686 3.18132 18.9599C3.44052 18.848 3.78163 18.6077 4.18124 18.1788C4.18701 18.1726 4.19289 18.1665 4.19887 18.1605L4.20198 18.1574C5.3393 16.9598 7.1318 17.0578 8.12075 18.381L9.13053 19.7307C9.37867 20.0624 9.31095 20.5324 8.97929 20.7805C8.64762 21.0287 8.1776 20.9609 7.92947 20.6293L6.91946 19.2793L6.91923 19.279C6.49043 18.7052 5.78886 18.6606 5.28577 19.1944L5.27113 19.2095L5.26989 19.2108C4.78723 19.7271 4.28513 20.1171 3.77589 20.337C3.25617 20.5614 2.68652 20.6229 2.15457 20.3938C1.62811 20.1671 1.27521 19.7143 1.06131 19.1898C0.848419 18.6677 0.75 18.0254 0.75 17.3V6.04001C0.75 4.03645 0.96532 2.48991 1.89481 1.49637Z" fill="#101010"/>
<path fill-rule="evenodd" clip-rule="evenodd" d="M16.2 14.75C14.8469 14.75 13.75 15.8469 13.75 17.2C13.75 18.5531 14.8469 19.65 16.2 19.65C17.5531 19.65 18.65 18.5531 18.65 17.2C18.65 15.8469 17.5531 14.75 16.2 14.75ZM12.25 17.2C12.25 15.0185 14.0185 13.25 16.2 13.25C18.3815 13.25 20.15 15.0185 20.15 17.2C20.15 19.3815 18.3815 21.15 16.2 21.15C14.0185 21.15 12.25 19.3815 12.25 17.2Z" fill="#101010"/>
<path fill-rule="evenodd" clip-rule="evenodd" d="M18.4697 19.4697C18.7626 19.1768 19.2374 19.1768 19.5303 19.4697L20.5303 20.4697C20.8232 20.7626 20.8232 21.2374 20.5303 21.5303C20.2374 21.8232 19.7626 21.8232 19.4697 21.5303L18.4697 20.5303C18.1768 20.2374 18.1768 19.7626 18.4697 19.4697Z" fill="#101010"/>
<path fill-rule="evenodd" clip-rule="evenodd" d="M5.25 6C5.25 5.58579 5.58579 5.25 6 5.25H14C14.4142 5.25 14.75 5.58579 14.75 6C14.75 6.41421 14.4142 6.75 14 6.75H6C5.58579 6.75 5.25 6.41421 5.25 6Z" fill="#101010"/>
<path fill-rule="evenodd" clip-rule="evenodd" d="M6.25 10C6.25 9.58579 6.58579 9.25 7 9.25H13C13.4142 9.25 13.75 9.58579 13.75 10C13.75 10.4142 13.4142 10.75 13 10.75H7C6.58579 10.75 6.25 10.4142 6.25 10Z" fill="#101010"/>
</svg>
