<svg width="22" height="22" viewBox="0 0 22 22" fill="none" xmlns="http://www.w3.org/2000/svg">
<path fill-rule="evenodd" clip-rule="evenodd" d="M2.09467 2.09467C3.42914 0.760201 5.42603 0.25 8 0.25H14C16.574 0.25 18.5709 0.760201 19.9053 2.09467C21.2398 3.42914 21.75 5.42603 21.75 8V14C21.75 16.574 21.2398 18.5709 19.9053 19.9053C18.5709 21.2398 16.574 21.75 14 21.75H8C5.42603 21.75 3.42914 21.2398 2.09467 19.9053C0.760201 18.5709 0.25 16.574 0.25 14V8C0.25 5.42603 0.760201 3.42914 2.09467 2.09467ZM3.15533 3.15533C2.2398 4.07086 1.75 5.57397 1.75 8V14C1.75 16.426 2.2398 17.9291 3.15533 18.8447C4.07086 19.7602 5.57397 20.25 8 20.25H14C16.426 20.25 17.9291 19.7602 18.8447 18.8447C19.7602 17.9291 20.25 16.426 20.25 14V8C20.25 5.57397 19.7602 4.07086 18.8447 3.15533C17.9291 2.2398 16.426 1.75 14 1.75H8C5.57397 1.75 4.07086 2.2398 3.15533 3.15533Z" fill="#101010"/>
<path fill-rule="evenodd" clip-rule="evenodd" d="M6.00151 5.2072C6.65758 4.50988 7.65907 4.37988 8.77025 4.37988H13.2103C14.3214 4.37988 15.3229 4.50988 15.979 5.2072C16.6197 5.88814 16.7402 6.91507 16.7402 8.08987V14.7199C16.7402 15.1718 16.6802 15.5927 16.5365 15.9487C16.3918 16.3069 16.1384 16.651 15.7319 16.8269C15.3197 17.0053 14.8929 16.9492 14.5325 16.7935C14.1796 16.6409 13.8484 16.3783 13.5438 16.0536C13.447 15.9509 13.3534 15.929 13.2887 15.9325C13.2242 15.936 13.1346 15.9677 13.0506 16.0795C13.0505 16.0796 13.0507 16.0793 13.0506 16.0795L12.4614 16.8683C12.1042 17.3472 11.5801 17.6424 11.0003 17.6424C10.4208 17.6424 9.89692 17.3475 9.53972 16.8691C9.53953 16.8689 9.53992 16.8694 9.53972 16.8691L8.93645 16.0648C8.85039 15.948 8.76119 15.9182 8.70186 15.915C8.64237 15.9118 8.55 15.9317 8.45136 16.0386L8.44758 16.0427C8.14425 16.3664 7.81321 16.6277 7.45963 16.779C7.09864 16.9336 6.67445 16.9868 6.26507 16.8124C5.86069 16.6401 5.60358 16.3022 5.45459 15.9455C5.3068 15.5916 5.24316 15.1733 5.24027 14.7247L5.24023 14.7199L5.24025 8.08987C5.24025 6.91507 5.36085 5.88814 6.00151 5.2072ZM7.09399 6.23506C6.89965 6.44161 6.74025 6.89468 6.74025 8.08987V14.7173C6.74256 15.0424 6.79006 15.2509 6.83872 15.3674C6.84498 15.3824 6.85085 15.395 6.85619 15.4055C6.8603 15.4039 6.86468 15.4021 6.86932 15.4001C6.96955 15.3572 7.13546 15.2489 7.35135 15.0188C7.7325 14.6072 8.24918 14.388 8.78366 14.4172C9.31823 14.4464 9.80809 14.7206 10.142 15.1722L10.7414 15.9714C10.8542 16.1226 10.9551 16.1424 11.0003 16.1424C11.0454 16.1424 11.1463 16.1226 11.2591 15.9714L11.8503 15.1799C12.5508 14.2459 13.8386 14.1782 14.6364 15.0258L14.6374 15.0269C14.8577 15.2619 15.0262 15.3727 15.1277 15.4166C15.1291 15.4172 15.1306 15.4178 15.1319 15.4184C15.1362 15.4093 15.1408 15.3989 15.1456 15.387C15.194 15.2671 15.2402 15.053 15.2402 14.7199V8.08987C15.2402 6.89468 15.0808 6.44161 14.8865 6.23506C14.7076 6.04488 14.3191 5.87988 13.2103 5.87988H8.77025C7.66143 5.87988 7.27291 6.04488 7.09399 6.23506ZM15.19 15.4374C15.1919 15.4375 15.193 15.4376 15.193 15.4377L15.19 15.4374ZM6.80254 15.4211C6.80258 15.421 6.80366 15.4209 6.80571 15.4208L6.80254 15.4211Z" fill="#101010"/>
</svg>
