<svg width="22" height="22" viewBox="0 0 22 22" fill="none" xmlns="http://www.w3.org/2000/svg">
<path fill-rule="evenodd" clip-rule="evenodd" d="M10.9697 1.75C5.86109 1.75 1.71973 5.89137 1.71973 11C1.71973 16.1086 5.86109 20.25 10.9697 20.25C16.0784 20.25 20.2197 16.1086 20.2197 11C20.2197 5.89137 16.0784 1.75 10.9697 1.75ZM0.219727 11C0.219727 5.06294 5.03267 0.25 10.9697 0.25C16.9068 0.25 21.7197 5.06294 21.7197 11C21.7197 16.9371 16.9068 21.75 10.9697 21.75C5.03267 21.75 0.219727 16.9371 0.219727 11Z" fill="#101010"/>
<path fill-rule="evenodd" clip-rule="evenodd" d="M10.9995 7.52002C9.07758 7.52002 7.51953 9.07807 7.51953 11C7.51953 12.922 9.07758 14.48 10.9995 14.48C12.9215 14.48 14.4795 12.922 14.4795 11C14.4795 9.07807 12.9215 7.52002 10.9995 7.52002ZM6.01953 11C6.01953 8.24964 8.24915 6.02002 10.9995 6.02002C13.7499 6.02002 15.9795 8.24964 15.9795 11C15.9795 13.7504 13.7499 15.98 10.9995 15.98C8.24915 15.98 6.01953 13.7504 6.01953 11Z" fill="#101010"/>
</svg>
