<svg width="22" height="22" viewBox="0 0 22 22" fill="none" xmlns="http://www.w3.org/2000/svg">
<path fill-rule="evenodd" clip-rule="evenodd" d="M11 1.75C5.89137 1.75 1.75 5.89137 1.75 11C1.75 16.1086 5.89137 20.25 11 20.25C16.1086 20.25 20.25 16.1086 20.25 11C20.25 5.89137 16.1086 1.75 11 1.75ZM0.25 11C0.25 5.06294 5.06294 0.25 11 0.25C16.9371 0.25 21.75 5.06294 21.75 11C21.75 16.9371 16.9371 21.75 11 21.75C5.06294 21.75 0.25 16.9371 0.25 11Z" fill="#101010"/>
<path fill-rule="evenodd" clip-rule="evenodd" d="M15.767 10.9276C16.177 10.9868 16.4614 11.3671 16.4022 11.7771C16.2412 12.8924 15.7449 13.9956 14.8702 14.8703L14.8688 14.8718C12.727 17.002 9.26323 17.004 7.12954 14.8703C6.83751 14.5783 6.57926 14.25 6.36676 13.8959C6.15365 13.5407 6.26882 13.08 6.62401 12.8669C6.97919 12.6538 7.43989 12.7689 7.653 13.1241C7.8005 13.3699 7.98224 13.6017 8.1902 13.8097C9.73627 15.3557 12.2519 15.358 13.8102 13.809C14.4351 13.1838 14.7986 12.3873 14.9176 11.5628C14.9767 11.1529 15.357 10.8685 15.767 10.9276Z" fill="#101010"/>
<path fill-rule="evenodd" clip-rule="evenodd" d="M13.8103 8.19102C12.252 6.64192 9.73636 6.64422 8.19028 8.1903C7.564 8.81657 7.20131 9.60369 7.0824 10.4361C7.02382 10.8461 6.64392 11.1311 6.23387 11.0725C5.82382 11.0139 5.5389 10.634 5.59748 10.2239C5.75856 9.09634 6.25589 8.00336 7.12962 7.12964C9.2633 4.99595 12.7271 4.99801 14.8688 7.1282L14.8703 7.12964C15.1786 7.43797 15.4231 7.76571 15.6272 8.09446C15.8456 8.4464 15.7374 8.90877 15.3855 9.12722C15.0335 9.34566 14.5711 9.23744 14.3527 8.88551C14.1969 8.63455 14.0217 8.40249 13.8103 8.19102Z" fill="#101010"/>
<path fill-rule="evenodd" clip-rule="evenodd" d="M6.07031 13.51C6.07031 13.0958 6.4061 12.76 6.82031 12.76H9.4903C9.90451 12.76 10.2403 13.0958 10.2403 13.51C10.2403 13.9242 9.90451 14.26 9.4903 14.26H7.57031V16.18C7.57031 16.5942 7.23453 16.93 6.82031 16.93C6.4061 16.93 6.07031 16.5942 6.07031 16.18V13.51Z" fill="#101010"/>
<path fill-rule="evenodd" clip-rule="evenodd" d="M15.1797 5.07001C15.594 5.07001 15.9297 5.40579 15.9297 5.82001V8.48999C15.9297 8.9042 15.594 9.23999 15.1797 9.23999H12.5098C12.0956 9.23999 11.7598 8.9042 11.7598 8.48999C11.7598 8.07578 12.0956 7.73999 12.5098 7.73999H14.4297V5.82001C14.4297 5.40579 14.7655 5.07001 15.1797 5.07001Z" fill="#101010"/>
</svg>
