<svg width="22" height="22" viewBox="0 0 22 22" fill="none" xmlns="http://www.w3.org/2000/svg">
<path fill-rule="evenodd" clip-rule="evenodd" d="M11 1.75C5.85617 1.75 1.75 5.89226 1.75 11C1.75 11.4142 1.41421 11.75 1 11.75C0.585786 11.75 0.25 11.4142 0.25 11C0.25 5.06774 5.02383 0.25 11 0.25C14.5577 0.25 17.2218 1.736 18.9817 3.20408C19.4731 3.61401 19.8957 4.02385 20.25 4.40201V1.56C20.25 1.14579 20.5858 0.81 21 0.81C21.4142 0.81 21.75 1.14579 21.75 1.56V6.56C21.75 6.97421 21.4142 7.31 21 7.31H16.56C16.1458 7.31 15.81 6.97421 15.81 6.56C15.81 6.14579 16.1458 5.81 16.56 5.81H19.4993C19.126 5.37739 18.6329 4.86656 18.0208 4.35592C16.4482 3.044 14.1123 1.75 11 1.75ZM21 10.25C21.4142 10.25 21.75 10.5858 21.75 11C21.75 16.9342 16.9342 21.75 11 21.75C7.97954 21.75 5.58449 20.2298 3.98113 18.7755C3.55554 18.3895 3.18095 18.004 2.86 17.6455V20.44C2.86 20.8542 2.52421 21.19 2.11 21.19C1.69579 21.19 1.36 20.8542 1.36 20.44V15.44C1.36 15.0258 1.69579 14.69 2.11 14.69H6.63C7.04421 14.69 7.38 15.0258 7.38 15.44C7.38 15.8542 7.04421 16.19 6.63 16.19H3.5871C3.94789 16.6286 4.41842 17.1471 4.98887 17.6645C6.45051 18.9902 8.50046 20.25 11 20.25C16.1058 20.25 20.25 16.1058 20.25 11C20.25 10.5858 20.5858 10.25 21 10.25Z" fill="#101010"/>
</svg>
