<svg width="22" height="22" viewBox="0 0 22 22" fill="none" xmlns="http://www.w3.org/2000/svg">
<path fill-rule="evenodd" clip-rule="evenodd" d="M11 7.01001C10.4634 7.01001 9.98627 7.09615 9.54551 7.22838C9.14877 7.3474 8.73066 7.12227 8.61163 6.72552C8.49261 6.32878 8.71775 5.91066 9.11449 5.79164C9.67373 5.62387 10.2966 5.51001 11 5.51001C14.1742 5.51001 16.75 8.0858 16.75 11.26C16.75 14.4342 14.1742 17.01 11 17.01C7.82579 17.01 5.25 14.4342 5.25 11.26C5.25 10.076 5.60718 8.98289 6.21476 8.06579C6.44353 7.72048 6.90891 7.62601 7.25422 7.85477C7.59953 8.08354 7.694 8.54892 7.46523 8.89423C7.01281 9.57713 6.75 10.3841 6.75 11.26C6.75 13.6058 8.65421 15.51 11 15.51C13.3458 15.51 15.25 13.6058 15.25 11.26C15.25 8.91422 13.3458 7.01001 11 7.01001Z" fill="#101010"/>
<path fill-rule="evenodd" clip-rule="evenodd" d="M10.7721 4.17392C11.0848 4.44564 11.1179 4.91935 10.8462 5.23199L9.18621 7.14199C8.91449 7.45463 8.44078 7.4878 8.12814 7.21609C7.8155 6.94437 7.78233 6.47066 8.05405 6.15802L9.71405 4.24801C9.98577 3.93538 10.4595 3.9022 10.7721 4.17392Z" fill="#101010"/>
<path fill-rule="evenodd" clip-rule="evenodd" d="M8.01497 6.20703C8.25962 5.87279 8.72891 5.80016 9.06315 6.04481L11.0032 7.46481C11.3374 7.70946 11.41 8.17875 11.1654 8.51299C10.9207 8.84724 10.4514 8.91986 10.1172 8.67521L8.17719 7.25522C7.84294 7.01056 7.77032 6.54128 8.01497 6.20703Z" fill="#101010"/>
<path fill-rule="evenodd" clip-rule="evenodd" d="M2.09467 2.09467C3.42914 0.760201 5.42603 0.25 8 0.25H14C16.574 0.25 18.5709 0.760201 19.9053 2.09467C21.2398 3.42914 21.75 5.42603 21.75 8V14C21.75 16.574 21.2398 18.5709 19.9053 19.9053C18.5709 21.2398 16.574 21.75 14 21.75H8C5.42603 21.75 3.42914 21.2398 2.09467 19.9053C0.760201 18.5709 0.25 16.574 0.25 14V8C0.25 5.42603 0.760201 3.42914 2.09467 2.09467ZM3.15533 3.15533C2.2398 4.07086 1.75 5.57397 1.75 8V14C1.75 16.426 2.2398 17.9291 3.15533 18.8447C4.07086 19.7602 5.57397 20.25 8 20.25H14C16.426 20.25 17.9291 19.7602 18.8447 18.8447C19.7602 17.9291 20.25 16.426 20.25 14V8C20.25 5.57397 19.7602 4.07086 18.8447 3.15533C17.9291 2.2398 16.426 1.75 14 1.75H8C5.57397 1.75 4.07086 2.2398 3.15533 3.15533Z" fill="#101010"/>
</svg>
