<svg width="22" height="22" viewBox="0 0 22 22" fill="none" xmlns="http://www.w3.org/2000/svg">
<path fill-rule="evenodd" clip-rule="evenodd" d="M2.09467 2.09467C3.42914 0.760201 5.42603 0.25 8 0.25H14C16.574 0.25 18.5709 0.760201 19.9053 2.09467C21.2398 3.42914 21.75 5.42603 21.75 8V14C21.75 16.574 21.2398 18.5709 19.9053 19.9053C18.5709 21.2398 16.574 21.75 14 21.75H8C5.42603 21.75 3.42914 21.2398 2.09467 19.9053C0.760201 18.5709 0.25 16.574 0.25 14V8C0.25 5.42603 0.760201 3.42914 2.09467 2.09467ZM3.15533 3.15533C2.2398 4.07086 1.75 5.57397 1.75 8V14C1.75 16.426 2.2398 17.9291 3.15533 18.8447C4.07086 19.7602 5.57397 20.25 8 20.25H14C16.426 20.25 17.9291 19.7602 18.8447 18.8447C19.7602 17.9291 20.25 16.426 20.25 14V8C20.25 5.57397 19.7602 4.07086 18.8447 3.15533C17.9291 2.2398 16.426 1.75 14 1.75H8C5.57397 1.75 4.07086 2.2398 3.15533 3.15533Z" fill="#101010"/>
<path fill-rule="evenodd" clip-rule="evenodd" d="M11 6.25C8.35599 6.25 6.25 8.37243 6.25 11C6.25 11.4142 5.91421 11.75 5.5 11.75C5.08579 11.75 4.75 11.4142 4.75 11C4.75 7.54757 7.52401 4.75 11 4.75C13.0578 4.75 14.597 5.61109 15.6069 6.45428C15.6558 6.49509 15.7035 6.5359 15.75 6.57661V5.81C15.75 5.39578 16.0858 5.06 16.5 5.06C16.9142 5.06 17.25 5.39578 17.25 5.81V8.56C17.25 8.97421 16.9142 9.31 16.5 9.31H14.06C13.6458 9.31 13.31 8.97421 13.31 8.56C13.31 8.14578 13.6458 7.81 14.06 7.81H14.8788C14.8051 7.74235 14.7274 7.67403 14.6456 7.60571C13.823 6.91891 12.6122 6.25 11 6.25ZM16.5 10.25C16.9142 10.25 17.25 10.5858 17.25 11C17.25 14.4542 14.4542 17.25 11 17.25C9.21953 17.25 7.82441 16.3548 6.91082 15.5253C6.89373 15.5097 6.87678 15.4942 6.85999 15.4787V16.19C6.85999 16.6042 6.5242 16.94 6.10999 16.94C5.69577 16.94 5.35999 16.6042 5.35999 16.19V13.44C5.35999 13.0258 5.69577 12.69 6.10999 12.69H8.59C9.00421 12.69 9.34 13.0258 9.34 13.44C9.34 13.8542 9.00421 14.19 8.59 14.19H7.68297C7.75765 14.2644 7.83642 14.3396 7.91917 14.4147C8.69058 15.1152 9.74047 15.75 11 15.75C13.6258 15.75 15.75 13.6258 15.75 11C15.75 10.5858 16.0858 10.25 16.5 10.25Z" fill="#101010"/>
</svg>
