<svg width="20" height="22" viewBox="0 0 20 22" fill="none" xmlns="http://www.w3.org/2000/svg">
<path fill-rule="evenodd" clip-rule="evenodd" d="M0.830078 4.15997C0.830078 3.74576 1.16586 3.40997 1.58008 3.40997H15.4201C17.4943 3.40997 19.1701 5.08576 19.1701 7.15997V10.48C19.1701 10.8942 18.8343 11.23 18.4201 11.23C18.0059 11.23 17.6701 10.8942 17.6701 10.48V7.15997C17.6701 5.91419 16.6659 4.90997 15.4201 4.90997H1.58008C1.16586 4.90997 0.830078 4.57419 0.830078 4.15997Z" fill="#101010"/>
<path fill-rule="evenodd" clip-rule="evenodd" d="M5.27041 0.469672C5.56331 0.762567 5.5633 1.23744 5.27041 1.53033L2.64074 4.15998L5.27041 6.78968C5.56331 7.08257 5.5633 7.55745 5.27041 7.85034C4.97752 8.14323 4.50264 8.14323 4.20975 7.85033L1.04975 4.6903C0.909094 4.54965 0.830077 4.35888 0.830078 4.15997C0.830079 3.96106 0.909098 3.77029 1.04975 3.62964L4.20975 0.469667C4.50265 0.176776 4.97752 0.176778 5.27041 0.469672Z" fill="#101010"/>
<path fill-rule="evenodd" clip-rule="evenodd" d="M1.58008 10.77C1.99429 10.77 2.33008 11.1058 2.33008 11.52V14.84C2.33008 16.0858 3.33429 17.09 4.58008 17.09H18.4201C18.8343 17.09 19.1701 17.4258 19.1701 17.84C19.1701 18.2542 18.8343 18.59 18.4201 18.59H4.58008C2.50586 18.59 0.830078 16.9142 0.830078 14.84V11.52C0.830078 11.1058 1.16586 10.77 1.58008 10.77Z" fill="#101010"/>
<path fill-rule="evenodd" clip-rule="evenodd" d="M14.7294 14.1497C15.0223 13.8568 15.4972 13.8568 15.7901 14.1497L18.9501 17.3097C19.0908 17.4504 19.1698 17.6411 19.1698 17.84C19.1698 18.0389 19.0907 18.2297 18.9501 18.3704L15.7901 21.5303C15.4972 21.8232 15.0223 21.8232 14.7294 21.5303C14.4365 21.2374 14.4365 20.7626 14.7294 20.4697L17.3591 17.84L14.7294 15.2103C14.4365 14.9174 14.4365 14.4426 14.7294 14.1497Z" fill="#101010"/>
</svg>
