<svg width="22" height="22" viewBox="0 0 22 22" fill="none" xmlns="http://www.w3.org/2000/svg">
<path fill-rule="evenodd" clip-rule="evenodd" d="M5.75 7.34003C5.75 6.92581 6.08579 6.59003 6.5 6.59003H13.9C15.2072 6.59003 16.25 7.64883 16.25 8.94V10.71C16.25 11.1242 15.9142 11.46 15.5 11.46C15.0858 11.46 14.75 11.1242 14.75 10.71V8.94C14.75 8.47118 14.3727 8.09003 13.9 8.09003H6.5C6.08579 8.09003 5.75 7.75424 5.75 7.34003Z" fill="#101010"/>
<path fill-rule="evenodd" clip-rule="evenodd" d="M8.7219 5.13121C9.01392 5.42497 9.01252 5.89984 8.71876 6.19187L7.56223 7.34159L8.72033 8.4997C9.01323 8.79259 9.01323 9.26747 8.72033 9.56036C8.42744 9.85325 7.95257 9.85325 7.65967 9.56036L5.96967 7.87036C5.82875 7.72943 5.74971 7.53822 5.75 7.33892C5.75029 7.13962 5.8299 6.94864 5.97124 6.80813L7.66124 5.12808C7.955 4.83605 8.42987 4.83745 8.7219 5.13121Z" fill="#101010"/>
<path fill-rule="evenodd" clip-rule="evenodd" d="M6.5 10.54C6.91421 10.54 7.25 10.8758 7.25 11.29V13.06C7.25 13.5288 7.62725 13.91 8.10001 13.91H15.5C15.9142 13.91 16.25 14.2458 16.25 14.66C16.25 15.0742 15.9142 15.41 15.5 15.41H8.10001C6.79276 15.41 5.75 14.3512 5.75 13.06V11.29C5.75 10.8758 6.08579 10.54 6.5 10.54Z" fill="#101010"/>
<path fill-rule="evenodd" clip-rule="evenodd" d="M13.2792 12.4396C13.5721 12.1467 14.047 12.1467 14.3399 12.4396L16.0299 14.1296C16.1708 14.2706 16.2499 14.4618 16.2496 14.6611C16.2493 14.8604 16.1697 15.0514 16.0283 15.1919L14.3383 16.8719C14.0446 17.1639 13.5697 17.1625 13.2777 16.8688C12.9856 16.575 12.9871 16.1002 13.2808 15.8081L14.4373 14.6584L13.2792 13.5003C12.9863 13.2074 12.9863 12.7325 13.2792 12.4396Z" fill="#101010"/>
<path fill-rule="evenodd" clip-rule="evenodd" d="M11 1.75C5.89137 1.75 1.75 5.89137 1.75 11C1.75 16.1086 5.89137 20.25 11 20.25C16.1086 20.25 20.25 16.1086 20.25 11C20.25 5.89137 16.1086 1.75 11 1.75ZM0.25 11C0.25 5.06294 5.06294 0.25 11 0.25C16.9371 0.25 21.75 5.06294 21.75 11C21.75 16.9371 16.9371 21.75 11 21.75C5.06294 21.75 0.25 16.9371 0.25 11Z" fill="#101010"/>
</svg>
