<svg width="22" height="22" viewBox="0 0 22 22" fill="none" xmlns="http://www.w3.org/2000/svg">
<path fill-rule="evenodd" clip-rule="evenodd" d="M1.97022 16.75C1.83443 16.75 1.72022 16.8642 1.72022 17V18C1.72022 18.4244 1.72142 18.7667 1.76077 19.0676C1.79923 19.3619 1.86786 19.5555 1.96263 19.693C2.12151 19.9233 2.54241 20.25 3.97022 20.25H17.9702C19.398 20.25 19.8189 19.9233 19.9778 19.693C20.0726 19.5555 20.1412 19.3619 20.1797 19.0676C20.219 18.7667 20.2202 18.4244 20.2202 18V17C20.2202 16.8642 20.106 16.75 19.9702 16.75H1.97022ZM0.220217 17C0.220217 16.0358 1.006 15.25 1.97022 15.25H19.9702C20.9344 15.25 21.7202 16.0358 21.7202 17V18.0255C21.7202 18.4195 21.7203 18.8547 21.667 19.2621C21.6117 19.685 21.4929 20.1382 21.2126 20.5445C20.6215 21.4017 19.5424 21.75 17.9702 21.75H3.97022C2.39802 21.75 1.31893 21.4017 0.727807 20.5445C0.447572 20.1382 0.328705 19.685 0.273419 19.2621C0.220163 18.8547 0.220191 18.4195 0.220216 18.0255C0.220216 18.017 0.220217 18.0085 0.220217 18V17Z" fill="#101010"/>
<path fill-rule="evenodd" clip-rule="evenodd" d="M10.27 4.75C9.7421 4.75 9.23678 4.80457 8.75272 4.91214L8.74648 4.91353L8.74647 4.9135C5.47541 5.61121 3.02002 8.52123 3.02002 12V15.25H18.97V12C18.97 8.52134 16.5245 5.62023 13.2516 4.91308L13.2473 4.91215L13.2473 4.91214C12.7642 4.80477 12.2489 4.75 11.72 4.75H10.27ZM8.43046 3.44716C9.02542 3.3152 9.63905 3.25 10.27 3.25H11.72C12.3504 3.25 12.9744 3.31507 13.5706 3.44738C17.5166 4.30103 20.47 7.79941 20.47 12V16C20.47 16.4142 20.1342 16.75 19.72 16.75H2.27002C1.85581 16.75 1.52002 16.4142 1.52002 16V12C1.52002 7.79988 4.48308 4.29064 8.43046 3.44716Z" fill="#101010"/>
<path fill-rule="evenodd" clip-rule="evenodd" d="M9.26048 3.3076C9.59176 3.26912 9.92834 3.25 10.27 3.25H11.72C12.0629 3.25 12.4039 3.26926 12.7396 3.30811C12.6439 2.43245 11.9009 1.75 11 1.75C10.0992 1.75 9.35641 2.43218 9.26048 3.3076ZM7.75 3.5C7.75 1.70579 9.20579 0.25 11 0.25C12.7942 0.25 14.25 1.70579 14.25 3.5C14.25 3.80608 14.2113 4.09247 14.1336 4.37734C14.0282 4.76358 13.6381 4.99899 13.2473 4.91214C12.7641 4.80477 12.2489 4.75 11.72 4.75H10.27C9.74208 4.75 9.23676 4.80457 8.7527 4.91214C8.36189 4.99899 7.97176 4.76358 7.86643 4.37734C7.78874 4.09247 7.75 3.80608 7.75 3.5Z" fill="#101010"/>
<path fill-rule="evenodd" clip-rule="evenodd" d="M7.25 10C7.25 9.58579 7.58579 9.25 8 9.25H14C14.4142 9.25 14.75 9.58579 14.75 10C14.75 10.4142 14.4142 10.75 14 10.75H8C7.58579 10.75 7.25 10.4142 7.25 10Z" fill="#101010"/>
</svg>
