<svg width="22" height="22" viewBox="0 0 22 22" fill="none" xmlns="http://www.w3.org/2000/svg">
<path fill-rule="evenodd" clip-rule="evenodd" d="M1.68842 6.68842C2.74164 5.6352 4.30103 5.25 6.25 5.25H10.75C12.699 5.25 14.2584 5.6352 15.3116 6.68842C16.3648 7.74164 16.75 9.30103 16.75 11.25V15.75C16.75 17.699 16.3648 19.2584 15.3116 20.3116C14.2584 21.3648 12.699 21.75 10.75 21.75H6.25C4.30103 21.75 2.74164 21.3648 1.68842 20.3116C0.635201 19.2584 0.25 17.699 0.25 15.75V11.25C0.25 9.30103 0.635201 7.74164 1.68842 6.68842ZM2.74908 7.74908C2.1148 8.38336 1.75 9.44897 1.75 11.25V15.75C1.75 17.551 2.1148 18.6166 2.74908 19.2509C3.38336 19.8852 4.44897 20.25 6.25 20.25H10.75C12.551 20.25 13.6166 19.8852 14.2509 19.2509C14.8852 18.6166 15.25 17.551 15.25 15.75V11.25C15.25 9.44897 14.8852 8.38336 14.2509 7.74908C13.6166 7.1148 12.551 6.75 10.75 6.75H6.25C4.44897 6.75 3.38336 7.1148 2.74908 7.74908Z" fill="#101010"/>
<path fill-rule="evenodd" clip-rule="evenodd" d="M13.3474 0.630476C13.4805 0.395344 13.7298 0.25 14 0.25C18.2842 0.25 21.75 3.71579 21.75 8C21.75 8.41421 21.4142 8.75 21 8.75C20.5858 8.75 20.25 8.41421 20.25 8C20.25 5.03342 18.1909 2.55437 15.4218 1.91194L15.6931 2.36413C15.9062 2.71931 15.7911 3.18001 15.4359 3.39312C15.0807 3.60623 14.62 3.49106 14.4069 3.13587L13.3569 1.38587C13.2179 1.15417 13.2142 0.865607 13.3474 0.630476Z" fill="#101010"/>
</svg>
