<svg width="22" height="22" viewBox="0 0 22 22" fill="none" xmlns="http://www.w3.org/2000/svg">
<path fill-rule="evenodd" clip-rule="evenodd" d="M7.74908 7.74908C7.1148 8.38336 6.75 9.44897 6.75 11.25V15.75C6.75 17.551 7.1148 18.6166 7.74908 19.2509C8.38336 19.8852 9.44897 20.25 11.25 20.25H15.75C17.551 20.25 18.6166 19.8852 19.2509 19.2509C19.8852 18.6166 20.25 17.551 20.25 15.75V11.25C20.25 9.44897 19.8852 8.38336 19.2509 7.74908C18.6166 7.1148 17.551 6.75 15.75 6.75H11.25C9.44897 6.75 8.38336 7.1148 7.74908 7.74908ZM6.68842 6.68842C7.74164 5.6352 9.30103 5.25 11.25 5.25H15.75C17.699 5.25 19.2584 5.6352 20.3116 6.68842C21.3648 7.74164 21.75 9.30103 21.75 11.25V15.75C21.75 17.699 21.3648 19.2584 20.3116 20.3116C19.2584 21.3648 17.699 21.75 15.75 21.75H11.25C9.30103 21.75 7.74164 21.3648 6.68842 20.3116C5.6352 19.2584 5.25 17.699 5.25 15.75V11.25C5.25 9.30103 5.6352 7.74164 6.68842 6.68842Z" fill="#101010"/>
<path fill-rule="evenodd" clip-rule="evenodd" d="M6.57819 1.91194C3.8091 2.55437 1.75 5.03342 1.75 8C1.75 8.41421 1.41421 8.75 1 8.75C0.585786 8.75 0.25 8.41421 0.25 8C0.25 3.71579 3.71579 0.25 8 0.25C8.2702 0.25 8.51952 0.395344 8.65265 0.630476C8.78578 0.865607 8.78214 1.15417 8.64312 1.38587L7.59312 3.13587C7.38001 3.49106 6.91931 3.60623 6.56413 3.39312C6.20894 3.18001 6.09377 2.71931 6.30688 2.36413L6.57819 1.91194Z" fill="#101010"/>
</svg>
