<svg width="20" height="22" viewBox="0 0 20 22" fill="none" xmlns="http://www.w3.org/2000/svg">
<path fill-rule="evenodd" clip-rule="evenodd" d="M0.580078 12.32C0.580078 7.11581 4.79586 2.90002 10.0001 2.90002C11.142 2.90002 12.1745 3.08341 13.1048 3.36143C13.5017 3.48003 13.7273 3.89791 13.6087 4.29478C13.4901 4.69165 13.0722 4.91723 12.6753 4.79862C11.8656 4.55664 10.9782 4.40002 10.0001 4.40002C5.62429 4.40002 2.08008 7.94424 2.08008 12.32C2.08008 16.7064 5.62486 20.25 10.0001 20.25C14.3759 20.25 17.9201 16.7058 17.9201 12.33C17.9201 10.7036 17.427 9.18755 16.586 7.92605C16.3563 7.5814 16.4494 7.11575 16.7941 6.88599C17.1387 6.65622 17.6044 6.74935 17.8341 7.094C18.8331 8.59249 19.4201 10.3964 19.4201 12.33C19.4201 17.5342 15.2043 21.75 10.0001 21.75C4.7953 21.75 0.580078 17.5337 0.580078 12.32Z" fill="#101010"/>
<path fill-rule="evenodd" clip-rule="evenodd" d="M10.7478 0.434314C11.0602 0.162353 11.534 0.195156 11.8059 0.507582L14.6959 3.82758C14.9679 4.14001 14.9351 4.61375 14.6227 4.88571C14.3102 5.15767 13.8365 5.12487 13.5645 4.81244L10.6745 1.49244C10.4026 1.18001 10.4354 0.706275 10.7478 0.434314Z" fill="#101010"/>
<path fill-rule="evenodd" clip-rule="evenodd" d="M14.7356 3.8778C14.9798 4.21236 14.9066 4.68155 14.572 4.92577L11.202 7.38577C10.8675 7.62999 10.3983 7.55675 10.154 7.2222C9.90983 6.88764 9.98306 6.41844 10.3176 6.17422L13.6876 3.71422C14.0222 3.47001 14.4914 3.54324 14.7356 3.8778Z" fill="#101010"/>
</svg>
