<svg width="22" height="22" viewBox="0 0 22 22" fill="none" xmlns="http://www.w3.org/2000/svg">
<path fill-rule="evenodd" clip-rule="evenodd" d="M4.46973 1.75C2.95094 1.75 1.71973 2.98122 1.71973 4.5C1.71973 6.01878 2.95094 7.25 4.46973 7.25C5.98851 7.25 7.21973 6.01878 7.21973 4.5C7.21973 2.98122 5.98851 1.75 4.46973 1.75ZM0.219727 4.5C0.219727 2.15279 2.12252 0.25 4.46973 0.25C6.81694 0.25 8.71973 2.15279 8.71973 4.5C8.71973 6.84721 6.81694 8.75 4.46973 8.75C2.12252 8.75 0.219727 6.84721 0.219727 4.5Z" fill="#101010"/>
<path fill-rule="evenodd" clip-rule="evenodd" d="M15.9697 14.75C15.2839 14.75 14.7197 15.3142 14.7197 16V19C14.7197 19.6858 15.2839 20.25 15.9697 20.25H18.9697C19.6555 20.25 20.2197 19.6858 20.2197 19V16C20.2197 15.3142 19.6555 14.75 18.9697 14.75H15.9697ZM13.2197 16C13.2197 14.4858 14.4555 13.25 15.9697 13.25H18.9697C20.4839 13.25 21.7197 14.4858 21.7197 16V19C21.7197 20.5142 20.4839 21.75 18.9697 21.75H15.9697C14.4555 21.75 13.2197 20.5142 13.2197 19V16Z" fill="#101010"/>
<path fill-rule="evenodd" clip-rule="evenodd" d="M10.2494 4C10.2494 3.58579 10.5852 3.25 10.9994 3.25H13.6794C16.2232 3.25 17.4028 6.39845 15.4941 8.07368L7.50321 15.0645L7.50182 15.0657C6.63582 15.8195 7.17159 17.25 8.31938 17.25H10.9994C11.4136 17.25 11.7494 17.5858 11.7494 18C11.7494 18.4142 11.4136 18.75 10.9994 18.75H8.31938C5.7875 18.75 4.60325 15.6013 6.51621 13.9349C6.51646 13.9347 6.51597 13.9352 6.51621 13.9349L14.5046 6.94632C14.5048 6.94621 14.5045 6.94643 14.5046 6.94632C15.3754 6.18147 14.8354 4.75 13.6794 4.75H10.9994C10.5852 4.75 10.2494 4.41421 10.2494 4Z" fill="#101010"/>
<path fill-rule="evenodd" clip-rule="evenodd" d="M3.48633 4.5C3.48633 3.94772 3.93404 3.5 4.48633 3.5H4.49788C5.05017 3.5 5.49788 3.94772 5.49788 4.5C5.49788 5.05228 5.05017 5.5 4.49788 5.5H4.48633C3.93404 5.5 3.48633 5.05228 3.48633 4.5Z" fill="#101010"/>
<path fill-rule="evenodd" clip-rule="evenodd" d="M16.4863 17.5C16.4863 16.9477 16.934 16.5 17.4863 16.5H17.4979C18.0502 16.5 18.4979 16.9477 18.4979 17.5C18.4979 18.0523 18.0502 18.5 17.4979 18.5H17.4863C16.934 18.5 16.4863 18.0523 16.4863 17.5Z" fill="#101010"/>
</svg>
