<svg width="22" height="22" viewBox="0 0 22 22" fill="none" xmlns="http://www.w3.org/2000/svg">
<path fill-rule="evenodd" clip-rule="evenodd" d="M0.941238 12.5048C1.48664 11.9251 2.26514 11.75 3.1 11.75H18.9C19.7349 11.75 20.5134 11.9251 21.0588 12.5048C21.5933 13.0731 21.75 13.8697 21.75 14.73V18.77C21.75 19.6303 21.5933 20.4269 21.0588 20.9952C20.5134 21.5749 19.7349 21.75 18.9 21.75H3.1C2.26514 21.75 1.48664 21.5749 0.941238 20.9952C0.406656 20.4269 0.25 19.6303 0.25 18.77V14.73C0.25 13.8697 0.406656 13.0731 0.941238 12.5048ZM2.03376 13.5327C1.89334 13.6819 1.75 14.0003 1.75 14.73V18.77C1.75 19.4997 1.89334 19.8181 2.03376 19.9673C2.16336 20.1051 2.43486 20.25 3.1 20.25H18.9C19.5651 20.25 19.8366 20.1051 19.9662 19.9673C20.1067 19.8181 20.25 19.4997 20.25 18.77V14.73C20.25 14.0003 20.1067 13.6819 19.9662 13.5327C19.8366 13.3949 19.5651 13.25 18.9 13.25H3.1C2.43486 13.25 2.16336 13.3949 2.03376 13.5327Z" fill="#101010"/>
<path fill-rule="evenodd" clip-rule="evenodd" d="M0.941238 1.00485C1.48664 0.425099 2.26514 0.25 3.1 0.25H18.9C19.7349 0.25 20.5134 0.425099 21.0588 1.00485C21.5933 1.57309 21.75 2.36968 21.75 3.23V7.27C21.75 8.13032 21.5933 8.92691 21.0588 9.49516C20.5134 10.0749 19.7349 10.25 18.9 10.25H3.1C2.26514 10.25 1.48664 10.0749 0.941238 9.49516C0.406656 8.92691 0.25 8.13032 0.25 7.27V3.23C0.25 2.36968 0.406656 1.57309 0.941238 1.00485ZM2.03376 2.03265C1.89334 2.18191 1.75 2.50032 1.75 3.23V7.27C1.75 7.99969 1.89334 8.31809 2.03376 8.46735C2.16336 8.6051 2.43486 8.75 3.1 8.75H18.9C19.5651 8.75 19.8366 8.6051 19.9662 8.46735C20.1067 8.31809 20.25 7.99969 20.25 7.27V3.23C20.25 2.50032 20.1067 2.18191 19.9662 2.03265C19.8366 1.8949 19.5651 1.75 18.9 1.75H3.1C2.43486 1.75 2.16336 1.8949 2.03376 2.03265Z" fill="#101010"/>
</svg>
