<svg width="24" height="24" viewBox="0 0 24 24" fill="none" xmlns="http://www.w3.org/2000/svg">
<path fill-rule="evenodd" clip-rule="evenodd" d="M2.21967 7.21967C2.90993 6.52941 3.88439 6.25 5 6.25H19C20.1156 6.25 21.0901 6.52941 21.7803 7.21967C22.4706 7.90993 22.75 8.88439 22.75 10V14C22.75 15.1156 22.4706 16.0901 21.7803 16.7803C21.0901 17.4706 20.1156 17.75 19 17.75H5C3.88439 17.75 2.90993 17.4706 2.21967 16.7803C1.52941 16.0901 1.25 15.1156 1.25 14V10C1.25 8.88439 1.52941 7.90993 2.21967 7.21967ZM3.28033 8.28033C2.97059 8.59007 2.75 9.11561 2.75 10V14C2.75 14.8844 2.97059 15.4099 3.28033 15.7197C3.59007 16.0294 4.11561 16.25 5 16.25H19C19.8844 16.25 20.4099 16.0294 20.7197 15.7197C21.0294 15.4099 21.25 14.8844 21.25 14V10C21.25 9.11561 21.0294 8.59007 20.7197 8.28033C20.4099 7.97059 19.8844 7.75 19 7.75H5C4.11561 7.75 3.59007 7.97059 3.28033 8.28033Z" fill="#101010"/>
<path fill-rule="evenodd" clip-rule="evenodd" d="M18 6.25C18.4142 6.25 18.75 6.58579 18.75 7V12C18.75 12.4142 18.4142 12.75 18 12.75C17.5858 12.75 17.25 12.4142 17.25 12V7C17.25 6.58579 17.5858 6.25 18 6.25Z" fill="#101010"/>
<path fill-rule="evenodd" clip-rule="evenodd" d="M6 6.25C6.41421 6.25 6.75 6.58579 6.75 7V11C6.75 11.4142 6.41421 11.75 6 11.75C5.58579 11.75 5.25 11.4142 5.25 11V7C5.25 6.58579 5.58579 6.25 6 6.25Z" fill="#101010"/>
<path fill-rule="evenodd" clip-rule="evenodd" d="M10.0575 6.25004C10.4717 6.25418 10.8041 6.59331 10.8 7.0075L10.75 12.0075C10.7458 12.4217 10.4067 12.7541 9.9925 12.75C9.57831 12.7458 9.2459 12.4067 9.25004 11.9925L9.30004 6.9925C9.30418 6.57831 9.64331 6.2459 10.0575 6.25004Z" fill="#101010"/>
<path fill-rule="evenodd" clip-rule="evenodd" d="M14 6.25C14.4142 6.25 14.75 6.58579 14.75 7V10C14.75 10.4142 14.4142 10.75 14 10.75C13.5858 10.75 13.25 10.4142 13.25 10V7C13.25 6.58579 13.5858 6.25 14 6.25Z" fill="#101010"/>
</svg>
