<svg width="23" height="23" viewBox="0 0 23 23" fill="none" xmlns="http://www.w3.org/2000/svg">
<path fill-rule="evenodd" clip-rule="evenodd" d="M16.8401 12.8856L14.0693 14.0219C14.0399 14.0349 13.9758 14.0794 13.9164 14.1685C13.8561 14.2589 13.8398 14.3366 13.8398 14.37V16.5601C13.8398 17.6251 14.2323 18.6716 14.9237 19.5293L14.9299 19.5369C15.5635 20.3441 16.4645 20.9666 17.4765 21.2435C17.5114 21.2513 17.5629 21.2533 17.6171 21.2423C19.7147 20.6529 21.2498 18.6455 21.2498 16.5601V14.37C21.2498 14.3366 21.2336 14.2589 21.1733 14.1685C21.1142 14.0798 21.0503 14.0352 21.0208 14.022L19.2353 13.2939L18.2396 12.8856C17.7894 12.708 17.2903 12.708 16.8401 12.8856ZM16.2832 11.4928C17.0909 11.1723 17.9888 11.1723 18.7965 11.4928L18.8044 11.496L19.803 11.9055L21.6009 12.6387C21.9523 12.7867 22.2319 13.0522 22.4214 13.3365C22.6111 13.6211 22.7498 13.9834 22.7498 14.37V16.5601C22.7498 19.3489 20.7335 21.936 18 22.6928C17.9906 22.6954 17.9811 22.6978 17.9716 22.7C17.6923 22.7658 17.3908 22.7683 17.108 22.6976L17.0936 22.6938C15.7512 22.3298 14.5771 21.5153 13.7529 20.4669C12.8662 19.3653 12.3398 17.9934 12.3398 16.5601V14.37C12.3398 13.9834 12.4786 13.6211 12.6683 13.3365C12.8578 13.0522 13.1374 12.7867 13.4888 12.6387L13.4953 12.636L16.2832 11.4928Z" fill="#101010"/>
<path fill-rule="evenodd" clip-rule="evenodd" d="M11.8476 2.5723C11.1129 1.97579 9.86516 1.97516 9.12955 2.56512L2.54861 7.82586C2.30962 8.01641 2.07471 8.35188 1.91934 8.7628C1.76401 9.17361 1.71751 9.58095 1.76945 9.8829L1.77009 9.8866L3.02967 17.4341C3.02973 17.4345 3.0298 17.4349 3.02986 17.4353C3.19907 18.4247 4.17663 19.25 5.18031 19.25H12.9766C12.5682 18.4197 12.3403 17.5032 12.3403 16.5601V14.37C12.3403 13.9835 12.479 13.6211 12.6688 13.3365C12.8583 13.0522 13.1378 12.7868 13.4893 12.6388L13.4957 12.6361L16.2837 11.4928C17.0913 11.1723 17.9893 11.1724 18.7969 11.4929L18.8049 11.496L18.9345 11.5492L19.2105 9.88722L19.2112 9.8829C19.2627 9.58322 19.2151 9.17677 19.0581 8.76433C18.9015 8.35292 18.6669 8.01633 18.4304 7.82456C18.4299 7.82415 18.4294 7.82375 18.4289 7.82335L11.8476 2.5723ZM12.7904 1.40565C11.5052 0.364416 9.47507 0.365596 8.19154 1.39458C8.19169 1.39446 8.19139 1.3947 8.19154 1.39458L1.61275 6.65362C1.6129 6.65349 1.61259 6.65374 1.61275 6.65362C1.11197 7.05306 0.740836 7.63839 0.516279 8.2323C0.291849 8.82587 0.18335 9.50772 0.290831 10.1352C0.290945 10.1359 0.291059 10.1366 0.291173 10.1372L1.55055 17.6836L1.55098 17.6861C1.84233 19.3962 3.44437 20.75 5.18031 20.75H14.3403C14.6291 20.75 14.8923 20.5842 15.0169 20.3237C15.1415 20.0631 15.1055 19.7542 14.9242 19.5294C14.2328 18.6716 13.8403 17.6251 13.8403 16.5601V14.37C13.8403 14.3366 13.8566 14.2589 13.9169 14.1685C13.9762 14.0795 14.0404 14.0349 14.0697 14.0219L16.8406 12.8857C17.2908 12.7081 17.7899 12.7081 18.24 12.8857L19.2358 13.294C19.447 13.3806 19.6861 13.3663 19.8855 13.2551C20.0849 13.144 20.2228 12.9481 20.2602 12.7229L20.6895 10.1372C20.6896 10.1364 20.6897 10.1356 20.6899 10.1348C20.7976 9.50517 20.6853 8.82259 20.46 8.23077C20.2344 7.63804 19.8647 7.05517 19.3717 6.65673L12.7931 1.40778C12.7922 1.40707 12.7913 1.40636 12.7904 1.40565Z" fill="#101010"/>
</svg>
