<svg width="22" height="22" viewBox="0 0 22 22" fill="none" xmlns="http://www.w3.org/2000/svg">
<path fill-rule="evenodd" clip-rule="evenodd" d="M0.25 7.98987C0.25 5.86565 1.98577 4.12988 4.10999 4.12988H11.89C14.0126 4.12988 15.7512 5.86455 15.74 7.99202V19.3499C15.74 20.2402 15.4145 21.059 14.6928 21.4855C13.9699 21.9128 13.0956 21.8012 12.3149 21.365M12.314 21.3645L8.38492 19.175L8.38306 19.174C8.31928 19.1382 8.18214 19.0974 7.99874 19.0974C7.81767 19.0974 7.67512 19.1373 7.60188 19.1768C7.60132 19.1771 7.60077 19.1774 7.60023 19.1777L3.67598 21.3645M4.10999 5.62988C2.8142 5.62988 1.75 6.69408 1.75 7.98987V19.3499C1.75 19.9095 1.9445 20.1257 2.06036 20.1942C2.17462 20.2618 2.45489 20.3287 2.94402 20.0552L6.87974 17.862C7.22701 17.6719 7.63369 17.5974 7.99874 17.5974C8.36256 17.5974 8.77005 17.6714 9.11608 17.8653C9.11636 17.8654 9.11579 17.8651 9.11608 17.8653L13.046 20.0552C13.5351 20.3287 13.8154 20.2618 13.9296 20.1942C14.0455 20.1257 14.24 19.9095 14.24 19.3499V7.98548C14.2475 6.69397 13.1867 5.62988 11.89 5.62988H4.10999Z" fill="#101010"/>
<path fill-rule="evenodd" clip-rule="evenodd" d="M4.10999 5.62988C2.8142 5.62988 1.75 6.69408 1.75 7.98987V19.3499C1.75 19.9089 1.94396 20.122 2.05893 20.1896C2.17463 20.2577 2.45676 20.3233 2.94654 20.0538C2.94702 20.0536 2.94749 20.0533 2.94796 20.053L6.87974 17.862C7.22721 17.6717 7.63399 17.5974 8 17.5974C8.36601 17.5974 8.77278 17.6718 9.12025 17.862L9.1251 17.8647L13.052 20.053C13.0525 20.0533 13.053 20.0535 13.0534 20.0538C13.5432 20.3234 13.8254 20.2577 13.9411 20.1896C14.056 20.122 14.25 19.9089 14.25 19.3499V7.98987C14.25 6.69408 13.1858 5.62988 11.89 5.62988H4.10999ZM0.25 7.98987C0.25 5.86565 1.98577 4.12988 4.10999 4.12988H11.89C14.0142 4.12988 15.75 5.86565 15.75 7.98987V19.3499C15.75 20.2409 15.424 21.0577 14.7014 21.4826C13.9797 21.907 13.1073 21.7963 12.328 21.3667L12.3249 21.365L8.39977 19.1777C8.39923 19.1774 8.39868 19.1771 8.39812 19.1768C8.32508 19.1374 8.18261 19.0974 8 19.0974C7.81739 19.0974 7.67492 19.1374 7.60188 19.1768C7.60132 19.1771 7.60077 19.1774 7.60023 19.1777L3.67508 21.365L3.67203 21.3667C2.89269 21.7963 2.02025 21.907 1.29857 21.4826C0.576039 21.0577 0.25 20.2409 0.25 19.3499V7.98987Z" fill="#101010"/>
<path fill-rule="evenodd" clip-rule="evenodd" d="M10.11 1.75C8.8142 1.75 7.75 2.8142 7.75 4.10999V4.13H11.89C14.0142 4.13 15.75 5.86578 15.75 7.98999V14.3297L19.052 16.1732C19.0526 16.1735 19.0532 16.1738 19.0537 16.1741C19.5433 16.4434 19.8254 16.3778 19.9411 16.3097C20.056 16.2421 20.25 16.029 20.25 15.47V4.10999C20.25 2.8142 19.1858 1.75 17.89 1.75H10.11ZM6.25 4.10999C6.25 1.98577 7.98577 0.25 10.11 0.25H17.89C20.0142 0.25 21.75 1.98577 21.75 4.10999V15.47C21.75 16.361 21.424 17.1779 20.7014 17.6027C19.9797 18.0271 19.1073 17.9164 18.328 17.4868L18.3244 17.4848L14.6344 15.4249C14.3971 15.2924 14.25 15.0418 14.25 14.77V7.98999C14.25 6.6942 13.1858 5.63 11.89 5.63H7C6.58579 5.63 6.25 5.29422 6.25 4.88V4.10999Z" fill="#101010"/>
</svg>
