<svg width="22" height="22" viewBox="0 0 22 22" fill="none" xmlns="http://www.w3.org/2000/svg">
<path fill-rule="evenodd" clip-rule="evenodd" d="M5.5 1.75C3.42421 1.75 1.75 3.42421 1.75 5.5V8C1.75 8.41421 1.41421 8.75 1 8.75C0.585786 8.75 0.25 8.41421 0.25 8V5.5C0.25 2.59579 2.59579 0.25 5.5 0.25H8C8.41421 0.25 8.75 0.585786 8.75 1C8.75 1.41421 8.41421 1.75 8 1.75H5.5Z" fill="#101010"/>
<path fill-rule="evenodd" clip-rule="evenodd" d="M13.25 1C13.25 0.585786 13.5858 0.25 14 0.25H16.5C19.4042 0.25 21.75 2.59579 21.75 5.5V8C21.75 8.41421 21.4142 8.75 21 8.75C20.5858 8.75 20.25 8.41421 20.25 8V5.5C20.25 3.42421 18.5758 1.75 16.5 1.75H14C13.5858 1.75 13.25 1.41421 13.25 1Z" fill="#101010"/>
<path fill-rule="evenodd" clip-rule="evenodd" d="M21 14.25C21.4142 14.25 21.75 14.5858 21.75 15V16.5C21.75 19.4042 19.4042 21.75 16.5 21.75H15C14.5858 21.75 14.25 21.4142 14.25 21C14.25 20.5858 14.5858 20.25 15 20.25H16.5C18.5758 20.25 20.25 18.5758 20.25 16.5V15C20.25 14.5858 20.5858 14.25 21 14.25Z" fill="#101010"/>
<path fill-rule="evenodd" clip-rule="evenodd" d="M1 13.25C1.41421 13.25 1.75 13.5858 1.75 14V16.5C1.75 18.5758 3.42421 20.25 5.5 20.25H8C8.41421 20.25 8.75 20.5858 8.75 21C8.75 21.4142 8.41421 21.75 8 21.75H5.5C2.59579 21.75 0.25 19.4042 0.25 16.5V14C0.25 13.5858 0.585786 13.25 1 13.25Z" fill="#101010"/>
<path fill-rule="evenodd" clip-rule="evenodd" d="M7.28033 6.78033C6.97059 7.09007 6.75 7.61561 6.75 8.5V13.5C6.75 14.3844 6.97059 14.9099 7.28033 15.2197C7.59007 15.5294 8.11561 15.75 9 15.75H13C13.8844 15.75 14.4099 15.5294 14.7197 15.2197C15.0294 14.9099 15.25 14.3844 15.25 13.5V8.5C15.25 7.61561 15.0294 7.09007 14.7197 6.78033C14.4099 6.47059 13.8844 6.25 13 6.25H9C8.11561 6.25 7.59007 6.47059 7.28033 6.78033ZM6.21967 5.71967C6.90993 5.02941 7.88439 4.75 9 4.75H13C14.1156 4.75 15.0901 5.02941 15.7803 5.71967C16.4706 6.40993 16.75 7.38439 16.75 8.5V13.5C16.75 14.6156 16.4706 15.5901 15.7803 16.2803C15.0901 16.9706 14.1156 17.25 13 17.25H9C7.88439 17.25 6.90993 16.9706 6.21967 16.2803C5.52941 15.5901 5.25 14.6156 5.25 13.5V8.5C5.25 7.38439 5.52941 6.40993 6.21967 5.71967Z" fill="#101010"/>
<path fill-rule="evenodd" clip-rule="evenodd" d="M3.25 11C3.25 10.5858 3.58579 10.25 4 10.25H18C18.4142 10.25 18.75 10.5858 18.75 11C18.75 11.4142 18.4142 11.75 18 11.75H4C3.58579 11.75 3.25 11.4142 3.25 11Z" fill="#101010"/>
</svg>
