<svg width="22" height="22" viewBox="0 0 22 22" fill="none" xmlns="http://www.w3.org/2000/svg">
<path fill-rule="evenodd" clip-rule="evenodd" d="M2.90533 2.90533C2.18991 3.62075 1.75 4.67044 1.75 6V8C1.75 8.41421 1.41421 8.75 1 8.75C0.585786 8.75 0.25 8.41421 0.25 8V6C0.25 4.32956 0.810085 2.87925 1.84467 1.84467C2.87925 0.810085 4.32956 0.25 6 0.25H16C17.6704 0.25 19.1207 0.810085 20.1553 1.84467C21.1899 2.87925 21.75 4.32956 21.75 6V8C21.75 8.41421 21.4142 8.75 21 8.75C20.5858 8.75 20.25 8.41421 20.25 8V6C20.25 4.67044 19.8101 3.62075 19.0947 2.90533C18.3793 2.18991 17.3296 1.75 16 1.75H6C4.67044 1.75 3.62075 2.18991 2.90533 2.90533Z" fill="#101010"/>
<path fill-rule="evenodd" clip-rule="evenodd" d="M1 13.25C1.41421 13.25 1.75 13.5858 1.75 14V16C1.75 17.3296 2.18991 18.3793 2.90533 19.0947C3.62075 19.8101 4.67044 20.25 6 20.25H16C17.3296 20.25 18.3793 19.8101 19.0947 19.0947C19.8101 18.3793 20.25 17.3296 20.25 16V14C20.25 13.5858 20.5858 13.25 21 13.25C21.4142 13.25 21.75 13.5858 21.75 14V16C21.75 17.6704 21.1899 19.1207 20.1553 20.1553C19.1207 21.1899 17.6704 21.75 16 21.75H6C4.32956 21.75 2.87925 21.1899 1.84467 20.1553C0.810085 19.1207 0.25 17.6704 0.25 16V14C0.25 13.5858 0.585786 13.25 1 13.25Z" fill="#101010"/>
<path fill-rule="evenodd" clip-rule="evenodd" d="M0.25 11C0.25 10.5858 0.585786 10.25 1 10.25H21C21.4142 10.25 21.75 10.5858 21.75 11C21.75 11.4142 21.4142 11.75 21 11.75H1C0.585786 11.75 0.25 11.4142 0.25 11Z" fill="#101010"/>
</svg>
