<svg width="22" height="22" viewBox="0 0 22 22" fill="none" xmlns="http://www.w3.org/2000/svg">
<path fill-rule="evenodd" clip-rule="evenodd" d="M5.5 1.75C3.42421 1.75 1.75 3.42421 1.75 5.5V8C1.75 8.41421 1.41421 8.75 1 8.75C0.585786 8.75 0.25 8.41421 0.25 8V5.5C0.25 2.59579 2.59579 0.25 5.5 0.25H8C8.41421 0.25 8.75 0.585786 8.75 1C8.75 1.41421 8.41421 1.75 8 1.75H5.5Z" fill="#101010"/>
<path fill-rule="evenodd" clip-rule="evenodd" d="M13.25 1C13.25 0.585786 13.5858 0.25 14 0.25H16.5C19.4042 0.25 21.75 2.59579 21.75 5.5V8C21.75 8.41421 21.4142 8.75 21 8.75C20.5858 8.75 20.25 8.41421 20.25 8V5.5C20.25 3.42421 18.5758 1.75 16.5 1.75H14C13.5858 1.75 13.25 1.41421 13.25 1Z" fill="#101010"/>
<path fill-rule="evenodd" clip-rule="evenodd" d="M21 14.25C21.4142 14.25 21.75 14.5858 21.75 15V16.5C21.75 19.4042 19.4042 21.75 16.5 21.75H15C14.5858 21.75 14.25 21.4142 14.25 21C14.25 20.5858 14.5858 20.25 15 20.25H16.5C18.5758 20.25 20.25 18.5758 20.25 16.5V15C20.25 14.5858 20.5858 14.25 21 14.25Z" fill="#101010"/>
<path fill-rule="evenodd" clip-rule="evenodd" d="M1 13.25C1.41421 13.25 1.75 13.5858 1.75 14V16.5C1.75 18.5758 3.42421 20.25 5.5 20.25H8C8.41421 20.25 8.75 20.5858 8.75 21C8.75 21.4142 8.41421 21.75 8 21.75H5.5C2.59579 21.75 0.25 19.4042 0.25 16.5V14C0.25 13.5858 0.585786 13.25 1 13.25Z" fill="#101010"/>
<path fill-rule="evenodd" clip-rule="evenodd" d="M5.40533 5.40533C5.34559 5.46507 5.25 5.61561 5.25 6V8C5.25 8.38439 5.34559 8.53493 5.40533 8.59467C5.46507 8.65441 5.61561 8.75 6 8.75H8C8.38439 8.75 8.53493 8.65441 8.59467 8.59467C8.65441 8.53493 8.75 8.38439 8.75 8V6C8.75 5.61561 8.65441 5.46507 8.59467 5.40533C8.53493 5.34559 8.38439 5.25 8 5.25H6C5.61561 5.25 5.46507 5.34559 5.40533 5.40533ZM4.34467 4.34467C4.78493 3.90441 5.38439 3.75 6 3.75H8C8.61561 3.75 9.21507 3.90441 9.65533 4.34467C10.0956 4.78493 10.25 5.38439 10.25 6V8C10.25 8.61561 10.0956 9.21507 9.65533 9.65533C9.21507 10.0956 8.61561 10.25 8 10.25H6C5.38439 10.25 4.78493 10.0956 4.34467 9.65533C3.90441 9.21507 3.75 8.61561 3.75 8V6C3.75 5.38439 3.90441 4.78493 4.34467 4.34467Z" fill="#101010"/>
<path fill-rule="evenodd" clip-rule="evenodd" d="M13.4053 5.40533C13.3456 5.46507 13.25 5.61561 13.25 6V8C13.25 8.38439 13.3456 8.53493 13.4053 8.59467C13.4651 8.65441 13.6156 8.75 14 8.75H16C16.3844 8.75 16.5349 8.65441 16.5947 8.59467C16.6544 8.53493 16.75 8.38439 16.75 8V6C16.75 5.61561 16.6544 5.46507 16.5947 5.40533C16.5349 5.34559 16.3844 5.25 16 5.25H14C13.6156 5.25 13.4651 5.34559 13.4053 5.40533ZM12.3447 4.34467C12.7849 3.90441 13.3844 3.75 14 3.75H16C16.6156 3.75 17.2151 3.90441 17.6553 4.34467C18.0956 4.78493 18.25 5.38439 18.25 6V8C18.25 8.61561 18.0956 9.21507 17.6553 9.65533C17.2151 10.0956 16.6156 10.25 16 10.25H14C13.3844 10.25 12.7849 10.0956 12.3447 9.65533C11.9044 9.21507 11.75 8.61561 11.75 8V6C11.75 5.38439 11.9044 4.78493 12.3447 4.34467Z" fill="#101010"/>
<path fill-rule="evenodd" clip-rule="evenodd" d="M5.40533 13.4053C5.34559 13.4651 5.25 13.6156 5.25 14V16C5.25 16.3844 5.34559 16.5349 5.40533 16.5947C5.46507 16.6544 5.61561 16.75 6 16.75H8C8.38439 16.75 8.53493 16.6544 8.59467 16.5947C8.65441 16.5349 8.75 16.3844 8.75 16V14C8.75 13.6156 8.65441 13.4651 8.59467 13.4053C8.53493 13.3456 8.38439 13.25 8 13.25H6C5.61561 13.25 5.46507 13.3456 5.40533 13.4053ZM4.34467 12.3447C4.78493 11.9044 5.38439 11.75 6 11.75H8C8.61561 11.75 9.21507 11.9044 9.65533 12.3447C10.0956 12.7849 10.25 13.3844 10.25 14V16C10.25 16.6156 10.0956 17.2151 9.65533 17.6553C9.21507 18.0956 8.61561 18.25 8 18.25H6C5.38439 18.25 4.78493 18.0956 4.34467 17.6553C3.90441 17.2151 3.75 16.6156 3.75 16V14C3.75 13.3844 3.90441 12.7849 4.34467 12.3447Z" fill="#101010"/>
<path fill-rule="evenodd" clip-rule="evenodd" d="M13.4053 13.4053C13.3456 13.4651 13.25 13.6156 13.25 14V16C13.25 16.3844 13.3456 16.5349 13.4053 16.5947C13.4651 16.6544 13.6156 16.75 14 16.75H16C16.3844 16.75 16.5349 16.6544 16.5947 16.5947C16.6544 16.5349 16.75 16.3844 16.75 16V14C16.75 13.6156 16.6544 13.4651 16.5947 13.4053C16.5349 13.3456 16.3844 13.25 16 13.25H14C13.6156 13.25 13.4651 13.3456 13.4053 13.4053ZM12.3447 12.3447C12.7849 11.9044 13.3844 11.75 14 11.75H16C16.6156 11.75 17.2151 11.9044 17.6553 12.3447C18.0956 12.7849 18.25 13.3844 18.25 14V16C18.25 16.6156 18.0956 17.2151 17.6553 17.6553C17.2151 18.0956 16.6156 18.25 16 18.25H14C13.3844 18.25 12.7849 18.0956 12.3447 17.6553C11.9044 17.2151 11.75 16.6156 11.75 16V14C11.75 13.3844 11.9044 12.7849 12.3447 12.3447Z" fill="#101010"/>
</svg>
