<svg width="22" height="22" viewBox="0 0 22 22" fill="none" xmlns="http://www.w3.org/2000/svg">
<path fill-rule="evenodd" clip-rule="evenodd" d="M10 1.75C5.44421 1.75 1.75 5.44421 1.75 10C1.75 14.5558 5.44421 18.25 10 18.25C14.5558 18.25 18.25 14.5558 18.25 10C18.25 9.58579 18.5858 9.25 19 9.25C19.4142 9.25 19.75 9.58579 19.75 10C19.75 15.3842 15.3842 19.75 10 19.75C4.61579 19.75 0.25 15.3842 0.25 10C0.25 4.61579 4.61579 0.25 10 0.25C10.4142 0.25 10.75 0.585786 10.75 1C10.75 1.41421 10.4142 1.75 10 1.75Z" fill="#101010"/>
<path fill-rule="evenodd" clip-rule="evenodd" d="M14.9035 3.29176C14.688 2.99609 14.2929 2.89134 13.9532 3.00269L13.9475 3.00458L13.9475 3.00455C13.319 3.205 12.9417 4.04387 13.2139 4.90139C13.4358 5.58919 13.9272 6.13418 14.4553 6.51599C14.7166 6.70493 14.9731 6.84353 15.1835 6.93242C15.3703 7.01134 15.4771 7.0328 15.5043 7.03827C15.506 7.0386 15.5073 7.03887 15.5084 7.03909C15.5099 7.03872 15.5122 7.0382 15.5155 7.03749C15.5453 7.03094 15.6494 7.00808 15.8294 6.93103C16.0408 6.84051 16.299 6.6998 16.5616 6.50924C17.0939 6.12297 17.5824 5.57855 17.7941 4.90515L17.7949 4.90262C18.0677 4.04503 17.6907 3.20579 17.0624 3.0048C16.6891 2.88689 16.3034 3.00722 16.1368 3.26129C16.0017 3.46719 15.7743 3.59371 15.5281 3.59979C15.2819 3.60587 15.0485 3.49075 14.9035 3.29176ZM15.4964 1.82503C14.8835 1.43497 14.1274 1.36799 13.4889 1.57639C11.7999 2.11705 11.3581 4.01611 11.7849 5.35742L11.7849 5.35743L11.7857 5.35992C12.134 6.44152 12.8773 7.2261 13.5764 7.73155C13.9288 7.98636 14.2842 8.18089 14.5997 8.31418C14.891 8.43721 15.2226 8.54002 15.5096 8.54002C15.7977 8.54002 16.1311 8.43353 16.4198 8.30995C16.7346 8.17516 17.0902 7.979 17.4425 7.7233C18.1399 7.21727 18.8861 6.43211 19.2247 5.35616C19.651 4.01417 19.2082 2.11477 17.5175 1.57549L17.516 1.57501C16.9128 1.38399 16.1245 1.41747 15.4964 1.82503Z" fill="#101010"/>
<path fill-rule="evenodd" clip-rule="evenodd" d="M19.3534 16.9698C18.5839 16.964 17.8915 17.2675 17.4691 17.854C17.0471 18.4399 16.9766 19.1941 17.218 19.925L17.2182 19.9256C17.5202 20.8372 18.11 21.6168 19.0155 21.7382C19.921 21.8595 20.6948 21.2628 21.2249 20.4648L21.225 20.4647C21.7286 19.7063 21.9422 18.8156 21.5326 18.0508C21.1232 17.2863 20.2646 16.9706 19.3534 16.9698ZM18.6422 19.4543C18.8703 20.1425 19.1504 20.2428 19.2148 20.2515C19.2794 20.2601 19.5755 20.2368 19.9754 19.6349M18.6422 19.4543C18.5238 19.0954 18.5933 18.8597 18.6862 18.7306C18.7782 18.603 18.9744 18.4665 19.3436 18.4698L19.3436 18.4698H19.3502C19.9778 18.4698 20.1676 18.6792 20.2103 18.7589C20.2532 18.839 20.3217 19.1133 19.9754 19.6348" fill="#101010"/>
</svg>
