<svg width="22" height="22" viewBox="0 0 22 22" fill="none" xmlns="http://www.w3.org/2000/svg">
<path fill-rule="evenodd" clip-rule="evenodd" d="M7.4502 10.7C7.4502 10.2857 7.78598 9.94995 8.2002 9.94995H13.2002C13.6144 9.94995 13.9502 10.2857 13.9502 10.7C13.9502 11.1142 13.6144 11.45 13.2002 11.45H8.2002C7.78598 11.45 7.4502 11.1142 7.4502 10.7Z" fill="#101010"/>
<path fill-rule="evenodd" clip-rule="evenodd" d="M10.7002 7.44995C11.1144 7.44995 11.4502 7.78574 11.4502 8.19995V13.2C11.4502 13.6142 11.1144 13.95 10.7002 13.95C10.286 13.95 9.9502 13.6142 9.9502 13.2V8.19995C9.9502 7.78574 10.286 7.44995 10.7002 7.44995Z" fill="#101010"/>
<path fill-rule="evenodd" clip-rule="evenodd" d="M10.5 1.75C5.66751 1.75 1.75 5.66751 1.75 10.5C1.75 15.3325 5.66751 19.25 10.5 19.25C15.3325 19.25 19.25 15.3325 19.25 10.5C19.25 5.66751 15.3325 1.75 10.5 1.75ZM0.25 10.5C0.25 4.83908 4.83908 0.25 10.5 0.25C16.1609 0.25 20.75 4.83908 20.75 10.5C20.75 16.1609 16.1609 20.75 10.5 20.75C4.83908 20.75 0.25 16.1609 0.25 10.5Z" fill="#101010"/>
<path fill-rule="evenodd" clip-rule="evenodd" d="M18.4697 18.4697C18.7626 18.1768 19.2374 18.1768 19.5303 18.4697L21.5303 20.4697C21.8232 20.7626 21.8232 21.2374 21.5303 21.5303C21.2374 21.8232 20.7626 21.8232 20.4697 21.5303L18.4697 19.5303C18.1768 19.2374 18.1768 18.7626 18.4697 18.4697Z" fill="#101010"/>
</svg>
