<svg width="22" height="22" viewBox="0 0 22 22" fill="none" xmlns="http://www.w3.org/2000/svg">
<path fill-rule="evenodd" clip-rule="evenodd" d="M12.25 4C12.25 3.58579 12.5858 3.25 13 3.25H19C19.4142 3.25 19.75 3.58579 19.75 4C19.75 4.41421 19.4142 4.75 19 4.75H13C12.5858 4.75 12.25 4.41421 12.25 4Z" fill="#101010"/>
<path fill-rule="evenodd" clip-rule="evenodd" d="M12.25 7C12.25 6.58579 12.5858 6.25 13 6.25H16C16.4142 6.25 16.75 6.58579 16.75 7C16.75 7.41421 16.4142 7.75 16 7.75H13C12.5858 7.75 12.25 7.41421 12.25 7Z" fill="#101010"/>
<path fill-rule="evenodd" clip-rule="evenodd" d="M10.5 1.75C5.66421 1.75 1.75 5.66421 1.75 10.5C1.75 15.3358 5.66421 19.25 10.5 19.25C15.3358 19.25 19.25 15.3358 19.25 10.5C19.25 10.0858 19.5858 9.75 20 9.75C20.4142 9.75 20.75 10.0858 20.75 10.5C20.75 16.1642 16.1642 20.75 10.5 20.75C4.83579 20.75 0.25 16.1642 0.25 10.5C0.25 4.83579 4.83579 0.25 10.5 0.25C10.9142 0.25 11.25 0.585786 11.25 1C11.25 1.41421 10.9142 1.75 10.5 1.75Z" fill="#101010"/>
<path fill-rule="evenodd" clip-rule="evenodd" d="M18.4697 18.4697C18.7626 18.1768 19.2374 18.1768 19.5303 18.4697L21.5303 20.4697C21.8232 20.7626 21.8232 21.2374 21.5303 21.5303C21.2374 21.8232 20.7626 21.8232 20.4697 21.5303L18.4697 19.5303C18.1768 19.2374 18.1768 18.7626 18.4697 18.4697Z" fill="#101010"/>
</svg>
