<svg width="22" height="22" viewBox="0 0 22 22" fill="none" xmlns="http://www.w3.org/2000/svg">
<path fill-rule="evenodd" clip-rule="evenodd" d="M10 1.75C5.44365 1.75 1.75 5.44365 1.75 10C1.75 14.5563 5.44365 18.25 10 18.25C14.5563 18.25 18.25 14.5563 18.25 10C18.25 5.44365 14.5563 1.75 10 1.75ZM0.25 10C0.25 4.61522 4.61522 0.25 10 0.25C15.3848 0.25 19.75 4.61522 19.75 10C19.75 15.3848 15.3848 19.75 10 19.75C4.61522 19.75 0.25 15.3848 0.25 10Z" fill="#101010"/>
<path fill-rule="evenodd" clip-rule="evenodd" d="M6.75 10C6.75 9.58579 7.08579 9.25 7.5 9.25H12.5C12.9142 9.25 13.25 9.58579 13.25 10C13.25 10.4142 12.9142 10.75 12.5 10.75H7.5C7.08579 10.75 6.75 10.4142 6.75 10Z" fill="#101010"/>
<path fill-rule="evenodd" clip-rule="evenodd" d="M10 6.75C10.4142 6.75 10.75 7.08579 10.75 7.5V12.5C10.75 12.9142 10.4142 13.25 10 13.25C9.58579 13.25 9.25 12.9142 9.25 12.5V7.5C9.25 7.08579 9.58579 6.75 10 6.75Z" fill="#101010"/>
<path fill-rule="evenodd" clip-rule="evenodd" d="M19.3534 16.9698C18.5839 16.964 17.8915 17.2675 17.4691 17.854C17.0471 18.4399 16.9766 19.1941 17.218 19.925L17.2182 19.9256C17.5202 20.8372 18.11 21.6168 19.0155 21.7382C19.921 21.8595 20.6948 21.2628 21.2249 20.4648L21.225 20.4647C21.7286 19.7063 21.9422 18.8156 21.5326 18.0508C21.1232 17.2863 20.2646 16.9706 19.3534 16.9698ZM18.6422 19.4543C18.8703 20.1425 19.1504 20.2428 19.2148 20.2515C19.2794 20.2601 19.5755 20.2368 19.9754 19.6349M18.6422 19.4543C18.5238 19.0954 18.5933 18.8597 18.6862 18.7306C18.7782 18.603 18.9744 18.4665 19.3436 18.4698L19.3436 18.4698H19.3502C19.9778 18.4698 20.1676 18.6792 20.2103 18.7589C20.2532 18.839 20.3217 19.1133 19.9754 19.6348" fill="#101010"/>
</svg>
