<svg width="22" height="22" viewBox="0 0 22 22" fill="none" xmlns="http://www.w3.org/2000/svg">
<path fill-rule="evenodd" clip-rule="evenodd" d="M10.5 1.75C5.66421 1.75 1.75 5.66421 1.75 10.5C1.75 15.3358 5.66421 19.25 10.5 19.25C15.3358 19.25 19.25 15.3358 19.25 10.5C19.25 10.0858 19.5858 9.75 20 9.75C20.4142 9.75 20.75 10.0858 20.75 10.5C20.75 16.1642 16.1642 20.75 10.5 20.75C4.83579 20.75 0.25 16.1642 0.25 10.5C0.25 4.83579 4.83579 0.25 10.5 0.25C10.9142 0.25 11.25 0.585786 11.25 1C11.25 1.41421 10.9142 1.75 10.5 1.75Z" fill="#101010"/>
<path fill-rule="evenodd" clip-rule="evenodd" d="M18.4697 18.4697C18.7626 18.1768 19.2374 18.1768 19.5303 18.4697L21.5303 20.4697C21.8232 20.7626 21.8232 21.2374 21.5303 21.5303C21.2374 21.8232 20.7626 21.8232 20.4697 21.5303L18.4697 19.5303C18.1768 19.2374 18.1768 18.7626 18.4697 18.4697Z" fill="#101010"/>
<path fill-rule="evenodd" clip-rule="evenodd" d="M15.9035 3.29176C15.688 2.99609 15.2929 2.89134 14.9532 3.00269L14.9475 3.00458L14.9475 3.00455C14.319 3.205 13.9417 4.04387 14.2139 4.90139C14.4358 5.58919 14.9272 6.13418 15.4553 6.51599C15.7166 6.70493 15.9731 6.84353 16.1835 6.93242C16.3703 7.01134 16.4771 7.0328 16.5043 7.03827C16.506 7.0386 16.5073 7.03887 16.5084 7.03909C16.5099 7.03872 16.5122 7.0382 16.5155 7.03749C16.5453 7.03094 16.6494 7.00808 16.8294 6.93103C17.0408 6.84051 17.299 6.6998 17.5616 6.50924C18.0939 6.12297 18.5824 5.57855 18.7941 4.90515L18.7949 4.90262C19.0677 4.04503 18.6907 3.20579 18.0624 3.0048C17.6891 2.88689 17.3034 3.00722 17.1368 3.26129C17.0017 3.46719 16.7743 3.59371 16.5281 3.59979C16.2819 3.60587 16.0485 3.49075 15.9035 3.29176ZM16.4964 1.82503C15.8835 1.43497 15.1274 1.36799 14.4889 1.57639C12.7999 2.11705 12.3581 4.01611 12.7849 5.35742L12.7849 5.35743L12.7857 5.35992C13.134 6.44152 13.8773 7.2261 14.5764 7.73155C14.9288 7.98636 15.2842 8.18089 15.5997 8.31418C15.891 8.43721 16.2226 8.54002 16.5096 8.54002C16.7977 8.54002 17.1311 8.43353 17.4198 8.30995C17.7346 8.17516 18.0902 7.979 18.4425 7.7233C19.1399 7.21727 19.8861 6.43211 20.2247 5.35616C20.651 4.01417 20.2082 2.11477 18.5175 1.57549L18.516 1.57501C17.9128 1.38399 17.1245 1.41747 16.4964 1.82503Z" fill="#101010"/>
</svg>
