<svg width="20" height="22" viewBox="0 0 20 22" fill="none" xmlns="http://www.w3.org/2000/svg">
<path fill-rule="evenodd" clip-rule="evenodd" d="M8.33316 2.08449C8.33306 2.08454 8.33326 2.08445 8.33316 2.08449L2.75996 4.36578C2.54291 4.45317 2.30507 4.64972 2.11853 4.92721C1.93186 5.20489 1.83984 5.49923 1.83984 5.73003V10.12C1.83984 14.6603 5.15227 18.9528 9.68815 20.2067C9.88838 20.2611 10.1113 20.2611 10.3115 20.2067C14.8474 18.9528 18.1599 14.6603 18.1599 10.12L18.1599 10.1183L18.1699 5.73003C18.1699 5.72979 18.1699 5.73028 18.1699 5.73003C18.1697 5.50202 18.077 5.20782 17.8884 4.92864C17.6997 4.64931 17.4604 4.4517 17.2466 4.36449L11.6765 2.08449C11.6763 2.08441 11.6767 2.08457 11.6765 2.08449C10.6084 1.64887 9.40127 1.6488 8.33316 2.08449ZM7.76651 0.695643C9.19813 0.111543 10.8115 0.111543 12.2432 0.695643L17.8131 2.97559C18.3589 3.19847 18.8152 3.62101 19.1313 4.08893C19.4475 4.55695 19.6699 5.13815 19.6699 5.73003L19.6699 5.73174L19.6599 10.12C19.6599 10.1203 19.6599 10.1198 19.6599 10.12C19.6594 15.359 15.8727 20.2265 10.7096 21.653L10.7072 21.6536C10.248 21.7789 9.7517 21.7789 9.2925 21.6536L9.2901 21.653C4.12672 20.2264 0.339844 15.3593 0.339844 10.12V5.73003C0.339844 5.14084 0.557836 4.56018 0.873672 4.09036C1.18922 3.62097 1.6456 3.19804 2.19756 2.97519L7.76651 0.695643Z" fill="#101010"/>
<path fill-rule="evenodd" clip-rule="evenodd" d="M10 8.25C9.30964 8.25 8.75 8.80964 8.75 9.5C8.75 10.1904 9.30964 10.75 10 10.75C10.6904 10.75 11.25 10.1904 11.25 9.5C11.25 8.80964 10.6904 8.25 10 8.25ZM7.25 9.5C7.25 7.98122 8.48122 6.75 10 6.75C11.5188 6.75 12.75 7.98122 12.75 9.5C12.75 11.0188 11.5188 12.25 10 12.25C8.48122 12.25 7.25 11.0188 7.25 9.5Z" fill="#101010"/>
<path fill-rule="evenodd" clip-rule="evenodd" d="M10 10.75C10.4142 10.75 10.75 11.0858 10.75 11.5V14.5C10.75 14.9142 10.4142 15.25 10 15.25C9.58579 15.25 9.25 14.9142 9.25 14.5V11.5C9.25 11.0858 9.58579 10.75 10 10.75Z" fill="#101010"/>
</svg>
