<svg width="15" height="21" viewBox="0 0 15 21" fill="none" xmlns="http://www.w3.org/2000/svg">
<path fill-rule="evenodd" clip-rule="evenodd" d="M8.00265 0.247559C8.6109 0.247559 9.25606 0.331775 9.78712 0.525456L9.79335 0.527726L14.7828 2.39756C14.7829 2.39757 14.7828 2.39754 14.7828 2.39756M1.23748 2.39756L6.22695 0.527754C6.75157 0.331814 7.3953 0.247559 8.00265 0.247559M6.75256 1.93265C6.75241 1.93271 6.75271 1.9326 6.75256 1.93265L1.76334 3.80236C1.36036 3.95304 0.951478 4.2875 0.6407 4.73674C0.329986 5.18589 0.160156 5.68737 0.160156 6.12004V13.55C0.160156 13.9911 0.311262 14.5573 0.588924 15.1093C0.866369 15.6608 1.23192 16.1222 1.58883 16.389M1.58883 16.389L5.89084 19.6006C6.44295 20.0156 7.20896 20.2451 8.01015 20.2451C8.81133 20.2451 9.57735 20.0156 10.1295 19.6006L10.1315 19.5991L14.4312 16.3893M6.75256 1.93265C7.05794 1.81869 7.51023 1.74756 8.00265 1.74756C8.49293 1.74756 8.95148 1.81792 9.27031 1.93362" fill="#101010"/>
<path fill-rule="evenodd" clip-rule="evenodd" d="M7.9397 7.15015C7.38391 7.15015 6.92969 7.60437 6.92969 8.16016C6.92969 8.70745 7.35843 9.14791 7.88334 9.17017H7.98574C8.51084 9.14801 8.94187 8.71625 8.9497 8.15629C8.9476 7.60226 8.49419 7.15015 7.9397 7.15015ZM5.42969 8.16016C5.42969 6.77594 6.55548 5.65015 7.9397 5.65015C9.32391 5.65015 10.4497 6.77594 10.4497 8.16016V8.16797C10.4356 9.52243 9.37263 10.6267 8.02362 10.6698C8.01565 10.67 8.00767 10.6702 7.99969 10.6702H7.86969C7.86171 10.6702 7.85374 10.67 7.84577 10.6698C6.49534 10.6267 5.42969 9.5093 5.42969 8.16016Z" fill="#101010"/>
<path fill-rule="evenodd" clip-rule="evenodd" d="M10.3981 12.0974C11.0336 12.5219 11.45 13.156 11.45 13.8851C11.45 14.6147 11.0331 15.2492 10.3967 15.6737C9.70245 16.1384 8.8288 16.3476 7.99504 16.3476C7.16102 16.3476 6.28708 16.1383 5.5927 15.6733C4.95673 15.2488 4.54004 14.6144 4.54004 13.8851C4.54004 13.1552 4.95731 12.5205 5.59401 12.0961L5.59532 12.0952L5.59533 12.0952C6.29328 11.632 7.16822 11.4226 8.00254 11.4226C8.83546 11.4226 9.70755 11.6314 10.3981 12.0974ZM6.42542 13.3446C6.10269 13.56 6.04004 13.77 6.04004 13.8851C6.04004 14.0002 6.10277 14.2105 6.42606 14.4261L6.42738 14.4269C6.823 14.6919 7.38906 14.8476 7.99504 14.8476C8.60102 14.8476 9.16708 14.6919 9.5627 14.4269L9.56401 14.4261C9.88731 14.2105 9.95004 14.0002 9.95004 13.8851C9.95004 13.77 9.88731 13.5597 9.56401 13.3441L9.56003 13.3415L9.56004 13.3415C9.17086 13.0784 8.60882 12.9226 8.00254 12.9226C7.39719 12.9226 6.82742 13.078 6.42542 13.3446Z" fill="#101010"/>
</svg>
