<svg width="22" height="22" viewBox="0 0 22 22" fill="none" xmlns="http://www.w3.org/2000/svg">
<path fill-rule="evenodd" clip-rule="evenodd" d="M9.55049 1.79749C9.06278 1.79749 8.61456 1.86855 8.31571 1.98153L8.31414 1.98212L3.33519 3.85172C3.33503 3.85178 3.33534 3.85166 3.33519 3.85172C2.93671 4.00217 2.53258 4.33413 2.2254 4.77953C1.91816 5.22503 1.75049 5.72182 1.75049 6.14998V13.56C1.75049 13.9972 1.89975 14.5616 2.17408 15.1114C2.44853 15.6614 2.80898 16.1182 3.15844 16.3785L3.1596 16.3793L7.43641 19.5769C7.43686 19.5773 7.4373 19.5776 7.43775 19.5779C7.9968 19.9908 8.76231 20.2175 9.55924 20.2175C10.3565 20.2175 11.1186 19.9906 11.6716 19.5791C11.6719 19.5789 11.6722 19.5787 11.6725 19.5784L14.446 17.5H10.7405C9.56911 17.5 8.54194 17.3705 7.86221 16.7023C7.17896 16.0307 7.04548 15.0115 7.04049 13.8632L7.04048 13.86V8.42998C7.04048 7.37264 7.1473 6.43635 7.67303 5.7703C8.23278 5.06117 9.10174 4.84924 10.076 4.79132C10.0908 4.79044 10.1056 4.79 10.1205 4.79C10.2025 4.79 10.2881 4.78788 10.389 4.78539L10.3957 4.78522C10.4965 4.78273 10.6101 4.77999 10.7305 4.77999H16.8706C16.5718 4.35347 16.1691 4.00856 15.7554 3.85158C15.7552 3.85149 15.7557 3.85167 15.7554 3.85158L10.7853 1.98153C10.4864 1.86855 10.0382 1.79749 9.55049 1.79749ZM11.3152 0.578254C10.7941 0.381369 10.1526 0.297485 9.55049 0.297485C8.94854 0.297485 8.30713 0.381331 7.78613 0.578119C7.78642 0.578011 7.78585 0.578228 7.78613 0.578119L2.80684 2.44785L2.8058 2.44824C2.06444 2.72788 1.43329 3.28601 0.990583 3.92793C0.547822 4.56993 0.250488 5.35814 0.250488 6.14998V13.56C0.250488 14.2928 0.48623 15.0884 0.831901 15.7811C1.17735 16.4734 1.6717 17.1413 2.26198 17.5811C2.26179 17.581 2.26217 17.5812 2.26198 17.5811L6.54139 20.7807L6.54458 20.783C7.40542 21.4196 8.49932 21.7175 9.55924 21.7175C10.619 21.7175 11.7116 21.4196 12.5684 20.7815L12.5703 20.7801L16.8403 17.5802C16.857 17.5676 16.8732 17.5544 16.8888 17.5406C16.9234 17.5098 16.9593 17.4798 17.0056 17.4411C17.0493 17.4048 17.1034 17.3598 17.1588 17.3105C17.3915 17.1037 17.4722 16.7745 17.3615 16.4835C17.2509 16.1924 16.9719 16 16.6605 16H10.7405C9.56188 16 9.11904 15.8344 8.91377 15.6326C8.7121 15.4344 8.54564 15.0089 8.54048 13.8583V8.42998C8.54048 7.37732 8.67366 6.92362 8.85044 6.69967C8.99204 6.52027 9.28449 6.3436 10.144 6.28995C10.2374 6.2896 10.3312 6.28728 10.4186 6.28511L10.4328 6.28476C10.5345 6.28225 10.6309 6.27999 10.7305 6.27999H18.0305C18.2608 6.27999 18.4784 6.17414 18.6206 5.99291C18.7627 5.81168 18.8138 5.57517 18.7589 5.35145C18.4582 4.12452 17.4971 2.90748 16.2863 2.44865L11.3152 0.578254C11.315 0.578191 11.3154 0.578318 11.3152 0.578254Z" fill="#101010"/>
<path fill-rule="evenodd" clip-rule="evenodd" d="M7.05029 10.22C7.05029 9.80576 7.38608 9.46997 7.80029 9.46997H21.0003C21.4145 9.46997 21.7503 9.80576 21.7503 10.22C21.7503 10.6342 21.4145 10.97 21.0003 10.97H7.80029C7.38608 10.97 7.05029 10.6342 7.05029 10.22Z" fill="#101010"/>
<path fill-rule="evenodd" clip-rule="evenodd" d="M10.156 6.26994C9.29778 6.32836 9.00324 6.50602 8.86025 6.68717C8.6832 6.91148 8.55029 7.36333 8.55029 8.41V13.84C8.55029 14.9975 8.71588 15.4247 8.91634 15.6229C9.11991 15.8242 9.56103 15.99 10.7403 15.99H18.0603C19.2223 15.99 19.6689 15.8341 19.8768 15.6397C20.0696 15.4594 20.24 15.0681 20.2503 13.9666V8.42001C20.2503 7.25697 20.0845 6.83013 19.8842 6.6321C19.68 6.43021 19.2388 6.26518 18.0587 6.26001H10.7403C10.6407 6.26001 10.5443 6.26226 10.4425 6.26477L10.4284 6.26512C10.3416 6.26726 10.2486 6.26956 10.156 6.26994ZM10.4056 4.76523C10.5063 4.76274 10.6199 4.76001 10.7403 4.76001H18.0635C19.2322 4.76499 20.2606 4.8949 20.9388 5.56542C21.621 6.2399 21.7503 7.26305 21.7503 8.42001V13.9768C21.7402 15.0927 21.5958 16.0858 20.9013 16.7353C20.2217 17.3709 19.2082 17.49 18.0603 17.49H10.7403C9.56957 17.49 8.54068 17.3608 7.86175 16.6896C7.17971 16.0153 7.05029 14.9925 7.05029 13.84V8.41C7.05029 7.35668 7.15739 6.42352 7.68284 5.75782C8.24109 5.05056 9.1076 4.83475 10.0817 4.77156C10.0979 4.77051 10.1141 4.76999 10.1303 4.76999C10.2124 4.76999 10.298 4.76788 10.3988 4.76539L10.4056 4.76523Z" fill="#101010"/>
<path fill-rule="evenodd" clip-rule="evenodd" d="M9.57031 14.26C9.57031 13.8458 9.9061 13.51 10.3203 13.51H11.6503C12.0645 13.51 12.4003 13.8458 12.4003 14.26C12.4003 14.6742 12.0645 15.01 11.6503 15.01H10.3203C9.9061 15.01 9.57031 14.6742 9.57031 14.26Z" fill="#101010"/>
<path fill-rule="evenodd" clip-rule="evenodd" d="M13.0005 14.26C13.0005 13.8458 13.3363 13.51 13.7505 13.51H17.0205C17.4347 13.51 17.7705 13.8458 17.7705 14.26C17.7705 14.6742 17.4347 15.01 17.0205 15.01H13.7505C13.3363 15.01 13.0005 14.6742 13.0005 14.26Z" fill="#101010"/>
</svg>
