<svg width="20" height="20" viewBox="0 0 20 20" fill="none" xmlns="http://www.w3.org/2000/svg">
<path fill-rule="evenodd" clip-rule="evenodd" d="M17.5702 2.42498C17.0284 1.88233 15.9162 1.60511 14.1269 2.20156L5.63761 5.03131C5.63745 5.03136 5.63776 5.03126 5.63761 5.03131C4.25826 5.49275 3.28188 6.00871 2.66558 6.51802C2.04661 7.02954 1.86719 7.46483 1.86719 7.7838C1.86719 8.10253 2.04637 8.53707 2.66498 9.0472C3.2811 9.55529 4.25694 10.0694 5.63648 10.5284L8.15686 11.3685C8.38081 11.4432 8.55655 11.6189 8.6312 11.8429L9.4712 14.3629C9.93017 15.7422 10.4449 16.7183 10.9536 17.3344C11.4644 17.9529 11.8999 18.1325 12.2197 18.1325C12.5395 18.1325 12.975 17.9529 13.4857 17.3344C13.9945 16.7183 14.5091 15.7426 14.9681 14.3633L17.7976 5.87456C17.7977 5.8743 17.7975 5.87482 17.7976 5.87456C18.3892 4.08502 18.1129 2.96851 17.5702 2.42498ZM18.6317 1.36511C19.7614 2.4965 19.8898 4.32553 19.2218 6.34553L19.2212 6.34722L16.3913 14.8368C16.3913 14.837 16.3914 14.8367 16.3913 14.8368C15.9003 16.3123 15.3124 17.4781 14.6424 18.2895C13.9744 19.0984 13.1549 19.6325 12.2197 19.6325C11.2845 19.6325 10.465 19.0984 9.79699 18.2895C9.12702 17.4781 8.53918 16.3127 8.04817 14.8372L7.32676 12.673L5.16289 11.9517C5.16277 11.9516 5.16301 11.9517 5.16289 11.9517C3.68761 11.4608 2.52195 10.8735 1.71065 10.2045C0.901753 9.53741 0.367188 8.71881 0.367188 7.7838C0.367188 6.84901 0.901515 6.02993 1.71004 5.36176C2.52117 4.69144 3.68637 4.10231 5.16177 3.60878L13.6525 0.778535C15.6732 0.104984 17.501 0.232763 18.6317 1.36511Z" fill="#101010"/>
<path fill-rule="evenodd" clip-rule="evenodd" d="M12.219 7.52899C12.5123 7.82147 12.5129 8.29635 12.2204 8.58965L8.64044 12.1796C8.34796 12.4729 7.87309 12.4736 7.57979 12.1811C7.28648 11.8886 7.28582 11.4138 7.57831 11.1205L11.1583 7.53047C11.4508 7.23717 11.9257 7.2365 12.219 7.52899Z" fill="#101010"/>
</svg>
