<svg width="20" height="21" viewBox="0 0 20 21" fill="none" xmlns="http://www.w3.org/2000/svg">
<path fill-rule="evenodd" clip-rule="evenodd" d="M0.75 20C0.75 19.5858 1.08579 19.25 1.5 19.25H18.5C18.9142 19.25 19.25 19.5858 19.25 20C19.25 20.4142 18.9142 20.75 18.5 20.75H1.5C1.08579 20.75 0.75 20.4142 0.75 20Z" fill="#101010"/>
<path fill-rule="evenodd" clip-rule="evenodd" d="M2.46967 0.96967C2.76256 0.676777 3.23744 0.676777 3.53033 0.96967L17.5303 14.9697C17.8232 15.2626 17.8232 15.7374 17.5303 16.0303C17.2374 16.3232 16.7626 16.3232 16.4697 16.0303L2.46967 2.03033C2.17678 1.73744 2.17678 1.26256 2.46967 0.96967Z" fill="#101010"/>
<path fill-rule="evenodd" clip-rule="evenodd" d="M2.25 1.5C2.25 1.08579 2.58579 0.75 3 0.75H13.27C13.6842 0.75 14.02 1.08579 14.02 1.5C14.02 1.91421 13.6842 2.25 13.27 2.25H3.75V11.77C3.75 12.1842 3.41421 12.52 3 12.52C2.58579 12.52 2.25 12.1842 2.25 11.77V1.5Z" fill="#101010"/>
</svg>
