<svg width="22" height="22" viewBox="0 0 22 22" fill="none" xmlns="http://www.w3.org/2000/svg">
<path fill-rule="evenodd" clip-rule="evenodd" d="M2.09467 2.09467C3.42914 0.760201 5.42603 0.25 8 0.25H14C16.574 0.25 18.5709 0.760201 19.9053 2.09467C21.2398 3.42914 21.75 5.42603 21.75 8V14C21.75 16.574 21.2398 18.5709 19.9053 19.9053C18.5709 21.2398 16.574 21.75 14 21.75H8C5.42603 21.75 3.42914 21.2398 2.09467 19.9053C0.760201 18.5709 0.25 16.574 0.25 14V8C0.25 5.42603 0.760201 3.42914 2.09467 2.09467ZM3.15533 3.15533C2.2398 4.07086 1.75 5.57397 1.75 8V14C1.75 16.426 2.2398 17.9291 3.15533 18.8447C4.07086 19.7602 5.57397 20.25 8 20.25H14C16.426 20.25 17.9291 19.7602 18.8447 18.8447C19.7602 17.9291 20.25 16.426 20.25 14V8C20.25 5.57397 19.7602 4.07086 18.8447 3.15533C17.9291 2.2398 16.426 1.75 14 1.75H8C5.57397 1.75 4.07086 2.2398 3.15533 3.15533Z" fill="#101010"/>
<path fill-rule="evenodd" clip-rule="evenodd" d="M8.83984 6.67999C8.83984 6.26578 9.17563 5.92999 9.58984 5.92999H13.8298C14.2441 5.92999 14.5798 6.26578 14.5798 6.67999V10.93C14.5798 11.3442 14.2441 11.68 13.8298 11.68C13.4156 11.68 13.0798 11.3442 13.0798 10.93V7.42999H9.58984C9.17563 7.42999 8.83984 7.09421 8.83984 6.67999Z" fill="#101010"/>
<path fill-rule="evenodd" clip-rule="evenodd" d="M14.3603 6.14966C14.6531 6.44256 14.6531 6.91743 14.3603 7.21032L8.70025 12.8703C8.40736 13.1632 7.93248 13.1632 7.63959 12.8703C7.3467 12.5774 7.3467 12.1026 7.63959 11.8097L13.2996 6.14966C13.5925 5.85677 14.0674 5.85677 14.3603 6.14966Z" fill="#101010"/>
<path fill-rule="evenodd" clip-rule="evenodd" d="M4.28887 15.2722C4.42016 14.8794 4.84507 14.6674 5.23792 14.7986C8.97364 16.0471 13.0268 16.0471 16.7625 14.7986C17.1553 14.6674 17.5802 14.8794 17.7115 15.2722C17.8428 15.6651 17.6308 16.09 17.2379 16.2213C13.1936 17.5729 8.80677 17.5729 4.76248 16.2213C4.36963 16.09 4.15759 15.6651 4.28887 15.2722Z" fill="#101010"/>
</svg>
