<svg width="20" height="20" viewBox="0 0 20 20" fill="none" xmlns="http://www.w3.org/2000/svg">
<path fill-rule="evenodd" clip-rule="evenodd" d="M1.82025 3.74076C1.90213 4.59943 2.2534 5.732 2.95063 7.12404L3.82086 8.8645C3.99742 9.21763 4.06504 9.63341 4.06504 10.0049C4.06504 10.3764 3.99742 10.7922 3.82086 11.1453L3.82009 11.1469L2.95063 12.8758C2.95052 12.876 2.95074 12.8756 2.95063 12.8758C2.25354 14.2677 1.90135 15.4009 1.81879 16.2597C1.73589 17.1219 1.92957 17.6047 2.18572 17.8612C2.44179 18.1176 2.9242 18.3119 3.7867 18.2297C4.64599 18.1478 5.77992 17.7965 7.17463 17.0991L15.7346 12.8191C17.5459 11.9135 18.2 10.8484 18.2 9.99992C18.2 9.15143 17.5459 8.08635 15.7346 7.18074L7.17463 2.90074C5.7826 2.20351 4.64956 1.852 3.79088 1.77012C2.92907 1.68795 2.44598 1.88213 2.18912 2.13899C1.93226 2.39586 1.73807 2.87894 1.82025 3.74076ZM7.84571 1.55922C6.36283 0.816515 5.04422 0.382826 3.93326 0.276895C2.82539 0.171258 1.82035 0.386448 1.12846 1.07833C0.436575 1.77022 0.221384 2.77526 0.327022 3.88314C0.432947 4.99403 0.866592 6.31255 1.60922 7.79532L2.47922 9.53533C2.52266 9.6222 2.56504 9.79142 2.56504 10.0049C2.56504 10.2179 2.52286 10.3868 2.47952 10.4739C2.47963 10.4737 2.47942 10.4741 2.47952 10.4739L1.60945 12.204C0.866764 13.6868 0.432467 15.0053 0.325671 16.1161C0.219193 17.2236 0.433015 18.2289 1.12436 18.9211C1.81579 19.6135 2.82089 19.8286 3.92901 19.7229C5.04035 19.617 6.36016 19.1834 7.84545 18.4407L16.4055 14.1607C18.4342 13.1464 19.7 11.6814 19.7 9.99992C19.7 8.3184 18.4342 6.85348 16.4055 5.83909L7.84571 1.55922C7.84564 1.55919 7.84578 1.55926 7.84571 1.55922Z" fill="#101010"/>
<path fill-rule="evenodd" clip-rule="evenodd" d="M2.69043 10C2.69043 9.58579 3.02622 9.25 3.44043 9.25H8.84043C9.25464 9.25 9.59043 9.58579 9.59043 10C9.59043 10.4142 9.25464 10.75 8.84043 10.75H3.44043C3.02622 10.75 2.69043 10.4142 2.69043 10Z" fill="#101010"/>
</svg>
