<svg width="22" height="22" viewBox="0 0 22 22" fill="none" xmlns="http://www.w3.org/2000/svg">
<path fill-rule="evenodd" clip-rule="evenodd" d="M2.09467 2.09467C3.42914 0.760201 5.42603 0.25 8 0.25H14C16.574 0.25 18.5709 0.760201 19.9053 2.09467C21.2398 3.42914 21.75 5.42603 21.75 8V14C21.75 16.574 21.2398 18.5709 19.9053 19.9053C18.5709 21.2398 16.574 21.75 14 21.75H8C5.42603 21.75 3.42914 21.2398 2.09467 19.9053C0.760201 18.5709 0.25 16.574 0.25 14V8C0.25 5.42603 0.760201 3.42914 2.09467 2.09467ZM3.15533 3.15533C2.2398 4.07086 1.75 5.57397 1.75 8V14C1.75 16.426 2.2398 17.9291 3.15533 18.8447C4.07086 19.7602 5.57397 20.25 8 20.25H14C16.426 20.25 17.9291 19.7602 18.8447 18.8447C19.7602 17.9291 20.25 16.426 20.25 14V8C20.25 5.57397 19.7602 4.07086 18.8447 3.15533C17.9291 2.2398 16.426 1.75 14 1.75H8C5.57397 1.75 4.07086 2.2398 3.15533 3.15533Z" fill="#101010"/>
<path fill-rule="evenodd" clip-rule="evenodd" d="M10.4697 4.97968C10.7626 4.68679 11.2374 4.68679 11.5303 4.97968L14.5303 7.97968C14.8232 8.27257 14.8232 8.74745 14.5303 9.04034C14.2374 9.33323 13.7626 9.33323 13.4697 9.04034L11 6.57067L8.53033 9.04034C8.23744 9.33323 7.76256 9.33323 7.46967 9.04034C7.17678 8.74745 7.17678 8.27257 7.46967 7.97968L10.4697 4.97968Z" fill="#101010"/>
<path fill-rule="evenodd" clip-rule="evenodd" d="M11 4.76001C11.4142 4.76001 11.75 5.0958 11.75 5.51001V13.51C11.75 13.9242 11.4142 14.26 11 14.26C10.5858 14.26 10.25 13.9242 10.25 13.51V5.51001C10.25 5.0958 10.5858 4.76001 11 4.76001Z" fill="#101010"/>
<path fill-rule="evenodd" clip-rule="evenodd" d="M4.28887 15.2722C4.42016 14.8794 4.84507 14.6674 5.23792 14.7986C8.97364 16.0471 13.0268 16.0471 16.7625 14.7986C17.1553 14.6674 17.5802 14.8794 17.7115 15.2722C17.8428 15.6651 17.6308 16.09 17.2379 16.2213C13.1936 17.5729 8.80677 17.5729 4.76248 16.2213C4.36963 16.09 4.15759 15.6651 4.28887 15.2722Z" fill="#101010"/>
</svg>
