<svg width="22" height="12" viewBox="0 0 22 12" fill="none" xmlns="http://www.w3.org/2000/svg">
<path fill-rule="evenodd" clip-rule="evenodd" d="M11 2.25C8.92893 2.25 7.25 3.92893 7.25 6C7.25 8.07107 8.92893 9.75 11 9.75C13.0711 9.75 14.75 8.07107 14.75 6C14.75 3.92893 13.0711 2.25 11 2.25ZM5.75 6C5.75 3.1005 8.1005 0.75 11 0.75C13.8995 0.75 16.25 3.1005 16.25 6C16.25 8.8995 13.8995 11.25 11 11.25C8.1005 11.25 5.75 8.8995 5.75 6Z" fill="#101010"/>
<path fill-rule="evenodd" clip-rule="evenodd" d="M0.25 6C0.25 5.58579 0.585786 5.25 1 5.25H6C6.41421 5.25 6.75 5.58579 6.75 6C6.75 6.41421 6.41421 6.75 6 6.75H1C0.585786 6.75 0.25 6.41421 0.25 6Z" fill="#101010"/>
<path fill-rule="evenodd" clip-rule="evenodd" d="M15.25 6C15.25 5.58579 15.5858 5.25 16 5.25H21C21.4142 5.25 21.75 5.58579 21.75 6C21.75 6.41421 21.4142 6.75 21 6.75H16C15.5858 6.75 15.25 6.41421 15.25 6Z" fill="#101010"/>
</svg>
