<svg width="22" height="22" viewBox="0 0 22 22" fill="none" xmlns="http://www.w3.org/2000/svg">
<path fill-rule="evenodd" clip-rule="evenodd" d="M6.46721 2.60221C6.46712 2.60238 6.46731 2.60203 6.46721 2.60221L1.95776 10.8112C1.3537 11.9095 2.1488 13.25 3.40047 13.25H12.4305C13.6821 13.25 14.4774 11.9098 13.8733 10.8115L11.5438 6.57227L9.35376 2.60227C8.72902 1.4695 7.09226 1.46979 6.46721 2.60221ZM10.6672 1.8778C9.47204 -0.289263 6.3489 -0.289263 5.15373 1.8778L0.643306 10.0886C0.643349 10.0885 0.643262 10.0887 0.643306 10.0886C-0.512382 12.1902 1.01223 14.75 3.40047 14.75H12.4305C14.8187 14.75 16.3434 12.1905 15.1878 10.0889C15.1879 10.089 15.1877 10.0888 15.1878 10.0889L12.8577 5.8487L10.6672 1.8778Z" fill="#101010"/>
<path fill-rule="evenodd" clip-rule="evenodd" d="M14.4519 8.75019L15.1872 10.0886C15.1872 10.0887 15.1873 10.0888 15.1873 10.0889C16.3429 12.1905 14.8182 14.75 12.43 14.75H8.75534C8.88621 17.8098 11.408 20.25 14.5 20.25C17.6758 20.25 20.25 17.6758 20.25 14.5C20.25 11.3242 17.6758 8.75 14.5 8.75C14.4839 8.75 14.4679 8.75006 14.4519 8.75019ZM13.1029 7.38456C13.5544 7.29426 14.0239 7.25 14.5 7.25C18.5042 7.25 21.75 10.4958 21.75 14.5C21.75 18.5042 18.5042 21.75 14.5 21.75C10.4958 21.75 7.25 18.5042 7.25 14.5C7.25 14.3161 7.26021 14.1435 7.26944 13.9873C7.27007 13.9768 7.27068 13.9663 7.27129 13.956C7.29461 13.5595 7.62289 13.25 8.02 13.25H12.43C13.6817 13.25 14.4769 11.9098 13.8728 10.8115L13.8727 10.8111L12.5927 8.48111C12.4777 8.27176 12.4692 8.02014 12.57 7.80358C12.6708 7.58702 12.8687 7.4314 13.1029 7.38456Z" fill="#101010"/>
</svg>
