<svg width="22" height="22" viewBox="0 0 22 22" fill="none" xmlns="http://www.w3.org/2000/svg">
<path fill-rule="evenodd" clip-rule="evenodd" d="M2.71881 7.74908C2.08453 8.38336 1.71973 9.44897 1.71973 11.25V15.75C1.71973 17.551 2.08453 18.6166 2.71881 19.2509C3.35309 19.8852 4.4187 20.25 6.21973 20.25H10.7197C12.5208 20.25 13.5864 19.8852 14.2206 19.2509C14.8549 18.6166 15.2197 17.551 15.2197 15.75V11.25C15.2197 9.44897 14.8549 8.38336 14.2206 7.74908C13.5864 7.1148 12.5208 6.75 10.7197 6.75H6.21973C4.4187 6.75 3.35309 7.1148 2.71881 7.74908ZM1.65815 6.68842C2.71137 5.6352 4.27075 5.25 6.21973 5.25H10.7197C12.6687 5.25 14.2281 5.6352 15.2813 6.68842C16.3345 7.74164 16.7197 9.30103 16.7197 11.25V15.75C16.7197 17.699 16.3345 19.2584 15.2813 20.3116C14.2281 21.3648 12.6687 21.75 10.7197 21.75H6.21973C4.27075 21.75 2.71137 21.3648 1.65815 20.3116C0.604928 19.2584 0.219727 17.699 0.219727 15.75V11.25C0.219727 9.30103 0.604928 7.74164 1.65815 6.68842Z" fill="#101010"/>
<path fill-rule="evenodd" clip-rule="evenodd" d="M10.8918 5.25102C12.7607 5.27336 14.2595 5.66634 15.2816 6.68842C16.3037 7.7105 16.6966 9.20927 16.719 11.0782C18.7404 10.5335 20.22 8.69266 20.22 6.5C20.22 6.28829 20.2029 6.0816 20.1711 5.89851C20.1692 5.88785 20.1676 5.87715 20.1662 5.86642C19.8642 3.53652 17.8793 1.75 15.47 1.75C13.2773 1.75 11.4365 3.22956 10.8918 5.25102ZM9.25295 5.93354C9.53709 2.73988 12.2083 0.25 15.47 0.25C18.6352 0.25 21.2468 2.5954 21.6517 5.65776C21.698 5.92987 21.72 6.21735 21.72 6.5C21.72 9.76173 19.2301 12.4329 16.0365 12.717C15.8268 12.7357 15.619 12.6654 15.4637 12.5233C15.3084 12.3813 15.22 12.1805 15.22 11.97V11.25C15.22 9.44897 14.8552 8.38336 14.2209 7.74908C13.5866 7.1148 12.521 6.75 10.72 6.75H10C9.78953 6.75 9.58875 6.66156 9.44667 6.50629C9.3046 6.35101 9.2343 6.14318 9.25295 5.93354Z" fill="#101010"/>
</svg>
