<svg width="22" height="22" viewBox="0 0 22 22" fill="none" xmlns="http://www.w3.org/2000/svg">
<path fill-rule="evenodd" clip-rule="evenodd" d="M15.3442 4.74196C15.5806 4.40183 16.0479 4.31773 16.3881 4.55412C18.5605 6.06399 20.0612 8.46595 20.3655 11.2381C20.4108 11.6499 20.1136 12.0203 19.7019 12.0655C19.2902 12.1107 18.9197 11.8136 18.8745 11.4018C18.6189 9.07402 17.3595 7.05598 15.532 5.78586C15.1919 5.54946 15.1078 5.08209 15.3442 4.74196Z" fill="#101010"/>
<path fill-rule="evenodd" clip-rule="evenodd" d="M6.70268 4.78679C6.94181 5.125 6.8615 5.59303 6.52329 5.83217C4.71402 7.11145 3.47358 9.12905 3.23639 11.4462C3.19421 11.8582 2.82598 12.1581 2.41392 12.1159C2.00186 12.0737 1.70201 11.7055 1.74419 11.2934C2.02701 8.53053 3.50656 6.12812 5.65729 4.60741C5.9955 4.36827 6.46354 4.44858 6.70268 4.78679Z" fill="#101010"/>
<path fill-rule="evenodd" clip-rule="evenodd" d="M6.52111 19.5998C6.7089 19.2306 7.16042 19.0836 7.52963 19.2714C8.58529 19.8083 9.7889 20.1099 11.0596 20.1099C12.2859 20.1099 13.4336 19.8357 14.4614 19.3355C14.8338 19.1542 15.2827 19.3092 15.464 19.6816C15.6453 20.0541 15.4903 20.5029 15.1178 20.6842C13.8856 21.284 12.5134 21.6099 11.0596 21.6099C9.55032 21.6099 8.11394 21.2514 6.8496 20.6084C6.4804 20.4206 6.33333 19.969 6.52111 19.5998Z" fill="#101010"/>
<path fill-rule="evenodd" clip-rule="evenodd" d="M11.0603 1.88989C9.93914 1.88989 9.03027 2.79875 9.03027 3.91989C9.03027 5.04103 9.93914 5.94989 11.0603 5.94989C12.1814 5.94989 13.0903 5.04103 13.0903 3.91989C13.0903 2.79875 12.1814 1.88989 11.0603 1.88989ZM7.53027 3.91989C7.53027 1.97033 9.11071 0.389893 11.0603 0.389893C13.0098 0.389893 14.5903 1.97033 14.5903 3.91989C14.5903 5.86946 13.0098 7.44989 11.0603 7.44989C9.11071 7.44989 7.53027 5.86946 7.53027 3.91989Z" fill="#101010"/>
<path fill-rule="evenodd" clip-rule="evenodd" d="M3.8298 14.1099C2.70867 14.1099 1.7998 15.0187 1.7998 16.1399C1.7998 17.261 2.70867 18.1699 3.8298 18.1699C4.95094 18.1699 5.85981 17.261 5.85981 16.1399C5.85981 15.0187 4.95094 14.1099 3.8298 14.1099ZM0.299805 16.1399C0.299805 14.1903 1.88024 12.6099 3.8298 12.6099C5.77937 12.6099 7.35981 14.1903 7.35981 16.1399C7.35981 18.0894 5.77937 19.6699 3.8298 19.6699C1.88024 19.6699 0.299805 18.0894 0.299805 16.1399Z" fill="#101010"/>
<path fill-rule="evenodd" clip-rule="evenodd" d="M18.1696 14.1099C17.0485 14.1099 16.1396 15.0187 16.1396 16.1399C16.1396 17.261 17.0485 18.1699 18.1696 18.1699C19.2908 18.1699 20.1996 17.261 20.1996 16.1399C20.1996 15.0187 19.2908 14.1099 18.1696 14.1099ZM14.6396 16.1399C14.6396 14.1903 16.2201 12.6099 18.1696 12.6099C20.1192 12.6099 21.6996 14.1903 21.6996 16.1399C21.6996 18.0894 20.1192 19.6699 18.1696 19.6699C16.2201 19.6699 14.6396 18.0894 14.6396 16.1399Z" fill="#101010"/>
</svg>
