<svg width="20" height="22" viewBox="0 0 20 22" fill="none" xmlns="http://www.w3.org/2000/svg">
<path fill-rule="evenodd" clip-rule="evenodd" d="M10.0027 0.247559C10.6109 0.247559 11.2561 0.331775 11.7871 0.525456L11.7934 0.527726L16.7828 2.39756C16.7829 2.39758 16.7828 2.39754 16.7828 2.39756C17.5298 2.6769 18.1665 3.23765 18.6132 3.88337C19.06 4.52922 19.3602 5.32273 19.3602 6.12006V13.5501C19.3602 14.289 19.1213 15.0878 18.7714 15.7833C18.4214 16.4791 17.9221 17.1476 17.3291 17.5908L13.0308 20.7995C13.0304 20.7999 13.03 20.8002 13.0296 20.8005C12.1719 21.4448 11.0734 21.7451 10.0102 21.7451C8.9469 21.7451 7.84852 21.4448 6.99083 20.8006C6.99038 20.8002 6.98993 20.7999 6.98948 20.7995L2.6915 17.5911C2.09851 17.1479 1.59887 16.4791 1.24889 15.7833C0.899053 15.0878 0.660156 14.289 0.660156 13.5501V6.12006C0.660156 5.32661 0.961102 4.53537 1.40757 3.89146C1.85394 3.24768 2.49005 2.68731 3.23654 2.40792C3.23685 2.4078 3.23717 2.40768 3.23748 2.40756L8.22573 0.528217L8.22774 0.527464C8.75235 0.331525 9.39531 0.247559 10.0027 0.247559ZM8.75353 1.93229C8.75321 1.93241 8.75289 1.93253 8.75257 1.93265L3.76283 3.81256C3.35973 3.96328 2.95118 4.29771 2.64025 4.74616C2.32921 5.19474 2.16016 5.6935 2.16016 6.12006V13.5501C2.16016 13.9911 2.31126 14.5573 2.58892 15.1093C2.86636 15.6609 3.23191 16.1222 3.58881 16.3891M3.58881 16.3891L7.89084 19.6006C8.44295 20.0156 9.20897 20.2451 10.0102 20.2451C10.8113 20.2451 11.5774 20.0156 12.1295 19.6006L12.1315 19.5991L16.4312 16.3893C16.7882 16.1225 17.1539 15.661 17.4314 15.1093C17.7091 14.5573 17.8602 13.9911 17.8602 13.5501V6.12006C17.8602 5.68739 17.6903 5.1859 17.3796 4.73675C17.0688 4.2875 16.6605 3.95324 16.2575 3.80256L11.2703 1.93362C10.9515 1.81792 10.4929 1.74756 10.0027 1.74756C9.51052 1.74756 9.05891 1.81844 8.75353 1.93229" fill="#101010"/>
<path fill-rule="evenodd" clip-rule="evenodd" d="M10 8.25C9.30964 8.25 8.75 8.80964 8.75 9.5C8.75 10.1904 9.30964 10.75 10 10.75C10.6904 10.75 11.25 10.1904 11.25 9.5C11.25 8.80964 10.6904 8.25 10 8.25ZM7.25 9.5C7.25 7.98122 8.48122 6.75 10 6.75C11.5188 6.75 12.75 7.98122 12.75 9.5C12.75 11.0188 11.5188 12.25 10 12.25C8.48122 12.25 7.25 11.0188 7.25 9.5Z" fill="#101010"/>
<path fill-rule="evenodd" clip-rule="evenodd" d="M10 10.75C10.4142 10.75 10.75 11.0858 10.75 11.5V14.5C10.75 14.9142 10.4142 15.25 10 15.25C9.58579 15.25 9.25 14.9142 9.25 14.5V11.5C9.25 11.0858 9.58579 10.75 10 10.75Z" fill="#101010"/>
</svg>
