<svg width="22" height="22" viewBox="0 0 22 22" fill="none" xmlns="http://www.w3.org/2000/svg">
<path fill-rule="evenodd" clip-rule="evenodd" d="M9.7877 9.28669C9.7872 9.28689 9.7867 9.28709 9.7862 9.28729L2.86006 12.0657C2.85998 12.0658 2.86014 12.0657 2.86006 12.0657C2.33123 12.2786 1.98118 12.9455 2.1026 13.4987C2.10262 13.4988 2.10259 13.4986 2.1026 13.4987L2.51234 15.3575C2.51238 15.3576 2.5123 15.3573 2.51234 15.3575C3.15097 18.2348 5.37291 20.2499 8.62014 20.2499H13.3802C16.6276 20.2499 18.8495 18.2351 19.488 15.3575L19.8976 13.4989C20.0192 12.9458 19.6695 12.279 19.1408 12.0659L17.721 11.496L12.2141 9.28729C12.2136 9.28709 12.2131 9.28689 12.2126 9.28669C11.4308 8.97768 10.5695 8.97768 9.7877 9.28669ZM9.23412 7.89258C10.3715 7.44238 11.6288 7.44238 12.7662 7.89258L12.7693 7.89383L18.2793 10.1038L19.6996 10.6739C20.9105 11.1611 21.6411 12.5543 21.3627 13.8209L20.9523 15.6824C20.1708 19.2048 17.3727 21.7499 13.3802 21.7499H8.62014C4.62758 21.7499 1.82948 19.2048 1.04795 15.6824L0.637728 13.8214C0.35934 12.5547 1.08926 11.1613 2.30021 10.6741L9.23412 7.89258Z" fill="#101010"/>
<path fill-rule="evenodd" clip-rule="evenodd" d="M11 8.25C11.4142 8.25 11.75 8.58579 11.75 9V21C11.75 21.4142 11.4142 21.75 11 21.75C10.5858 21.75 10.25 21.4142 10.25 21V9C10.25 8.58579 10.5858 8.25 11 8.25Z" fill="#101010"/>
<path fill-rule="evenodd" clip-rule="evenodd" d="M7 4.75C5.76421 4.75 4.75 5.76421 4.75 7V9.69109L9.23397 7.89263C10.3713 7.44244 11.6287 7.44245 12.766 7.89264L12.7692 7.89389L17.25 9.69109V7C17.25 5.76421 16.2358 4.75 15 4.75H7ZM3.25 7C3.25 4.93579 4.93579 3.25 7 3.25H15C17.0642 3.25 18.75 4.93579 18.75 7V10.8C18.75 11.049 18.6264 11.2817 18.4202 11.4212C18.2139 11.5607 17.9519 11.5888 17.7208 11.4961L12.214 9.28735C12.2134 9.28715 12.2129 9.28695 12.2124 9.28675C11.4307 8.97775 10.5693 8.97775 9.78758 9.28675L4.27919 11.4961C4.0481 11.5888 3.78607 11.5607 3.57982 11.4212C3.37357 11.2817 3.25 11.049 3.25 10.8V7Z" fill="#101010"/>
<path fill-rule="evenodd" clip-rule="evenodd" d="M9.5 1.75C9.36421 1.75 9.25 1.86421 9.25 2V3.25H12.75V2C12.75 1.86421 12.6358 1.75 12.5 1.75H9.5ZM7.75 2C7.75 1.03579 8.53579 0.25 9.5 0.25H12.5C13.4642 0.25 14.25 1.03579 14.25 2V4C14.25 4.41421 13.9142 4.75 13.5 4.75H8.5C8.08579 4.75 7.75 4.41421 7.75 4V2Z" fill="#101010"/>
</svg>
