<svg width="20" height="22" viewBox="0 0 20 22" fill="none" xmlns="http://www.w3.org/2000/svg">
<path fill-rule="evenodd" clip-rule="evenodd" d="M3.80178 7.01984C3.43018 7.4623 3.29839 8.11622 3.18518 9.11451L3.18463 9.11936L2.28444 16.6208C2.14301 17.7805 2.2776 18.6639 2.70198 19.2453C3.10042 19.7912 3.89085 20.25 5.50995 20.25H14.5C16.113 20.25 16.9016 19.7918 17.3004 19.2453C17.7256 18.6629 17.8619 17.7784 17.7252 16.6184C17.7252 16.6182 17.7252 16.6185 17.7252 16.6184L16.8252 9.1183C16.7067 8.11887 16.5734 7.46414 16.1999 7.0205C15.8667 6.62466 15.2 6.25 13.6 6.25H6.39995C4.79955 6.25 4.13354 6.62481 3.80178 7.01984ZM2.65313 6.05516C3.39637 5.17019 4.60035 4.75 6.39995 4.75H13.6C15.3999 4.75 16.6032 5.17034 17.3475 6.0545C18.0513 6.8906 18.2031 8.00045 18.3146 8.94084C18.3147 8.94113 18.3146 8.94056 18.3146 8.94084L19.2148 16.4422C19.368 17.7419 19.2693 19.0922 18.512 20.1297C17.7284 21.2032 16.3869 21.75 14.5 21.75H5.50995C3.61905 21.75 2.27448 21.2038 1.49042 20.1297C0.732452 19.0913 0.636929 17.74 0.795376 16.44C0.795406 16.4397 0.795345 16.4402 0.795376 16.44L1.69501 8.94306C1.80178 8.00186 1.95034 6.89197 2.65313 6.05516Z" fill="#101010"/>
<path fill-rule="evenodd" clip-rule="evenodd" d="M7.21783 2.21783C6.93991 2.49575 6.75 2.92044 6.75 3.5V7C6.75 7.41421 6.41421 7.75 6 7.75C5.58579 7.75 5.25 7.41421 5.25 7V3.5C5.25 2.57956 5.56009 1.75425 6.15717 1.15717C6.75425 0.560086 7.57956 0.25 8.5 0.25H11.5C12.4204 0.25 13.2457 0.560086 13.8428 1.15717C14.4399 1.75425 14.75 2.57956 14.75 3.5V7C14.75 7.41421 14.4142 7.75 14 7.75C13.5858 7.75 13.25 7.41421 13.25 7V3.5C13.25 2.92044 13.0601 2.49575 12.7822 2.21783C12.5043 1.93991 12.0796 1.75 11.5 1.75H8.5C7.92044 1.75 7.49575 1.93991 7.21783 2.21783Z" fill="#101010"/>
<path fill-rule="evenodd" clip-rule="evenodd" d="M5.25 16.03C5.25 15.6158 5.58579 15.28 6 15.28H18.41C18.8242 15.28 19.16 15.6158 19.16 16.03C19.16 16.4442 18.8242 16.78 18.41 16.78H6C5.58579 16.78 5.25 16.4442 5.25 16.03Z" fill="#101010"/>
</svg>
