<svg width="22" height="22" viewBox="0 0 22 22" fill="none" xmlns="http://www.w3.org/2000/svg">
<path fill-rule="evenodd" clip-rule="evenodd" d="M0.25 1C0.25 0.585786 0.585786 0.25 1 0.25H2.74001C3.92958 0.25 4.91944 1.0501 5.23293 2.12H17.73C19.833 2.12 21.4396 3.83723 21.288 5.93408L20.7481 13.4339L20.7478 13.4375C20.608 15.2545 19.0257 16.74 17.19 16.74H6.53999C4.46335 16.74 2.82544 14.9669 3.00267 12.8968C3.00269 12.8965 3.00264 12.8971 3.00267 12.8968L3.83259 2.93772C3.88589 2.30412 3.37993 1.75 2.74001 1.75H1C0.585786 1.75 0.25 1.41421 0.25 1ZM5.28094 3.62L4.49741 13.0223L4.49725 13.0242C4.39508 14.2137 5.33696 15.24 6.53999 15.24H17.19C18.2338 15.24 19.171 14.3664 19.2521 13.3242C19.2521 13.3236 19.2522 13.323 19.2522 13.3225L19.7919 5.82615C19.8804 4.603 18.967 3.62 17.73 3.62H5.28094Z" fill="#101010"/>
<path fill-rule="evenodd" clip-rule="evenodd" d="M15.25 19.25C14.9739 19.25 14.75 19.4739 14.75 19.75C14.75 20.0261 14.9739 20.25 15.25 20.25C15.5261 20.25 15.75 20.0261 15.75 19.75C15.75 19.4739 15.5261 19.25 15.25 19.25ZM13.25 19.75C13.25 18.6454 14.1454 17.75 15.25 17.75C16.3546 17.75 17.25 18.6454 17.25 19.75C17.25 20.8546 16.3546 21.75 15.25 21.75C14.1454 21.75 13.25 20.8546 13.25 19.75Z" fill="#101010"/>
<path fill-rule="evenodd" clip-rule="evenodd" d="M7.25 19.25C6.97386 19.25 6.75 19.4739 6.75 19.75C6.75 20.0261 6.97386 20.25 7.25 20.25C7.52614 20.25 7.75 20.0261 7.75 19.75C7.75 19.4739 7.52614 19.25 7.25 19.25ZM5.25 19.75C5.25 18.6454 6.14543 17.75 7.25 17.75C8.35457 17.75 9.25 18.6454 9.25 19.75C9.25 20.8546 8.35457 21.75 7.25 21.75C6.14543 21.75 5.25 20.8546 5.25 19.75Z" fill="#101010"/>
<path fill-rule="evenodd" clip-rule="evenodd" d="M7.25 7C7.25 6.58579 7.58579 6.25 8 6.25H20C20.4142 6.25 20.75 6.58579 20.75 7C20.75 7.41421 20.4142 7.75 20 7.75H8C7.58579 7.75 7.25 7.41421 7.25 7Z" fill="#101010"/>
</svg>
