<svg width="22" height="22" viewBox="0 0 22 22" fill="none" xmlns="http://www.w3.org/2000/svg">
<path fill-rule="evenodd" clip-rule="evenodd" d="M2.06537 2.09467C3.39984 0.760201 5.39673 0.25 7.9707 0.25H13.9707C16.5447 0.25 18.5416 0.760201 19.876 2.09467C21.2105 3.42914 21.7207 5.42603 21.7207 8V14C21.7207 16.574 21.2105 18.5709 19.876 19.9053C18.5416 21.2398 16.5447 21.75 13.9707 21.75H7.9707C5.39673 21.75 3.39984 21.2398 2.06537 19.9053C0.730904 18.5709 0.220703 16.574 0.220703 14V8C0.220703 5.42603 0.730904 3.42914 2.06537 2.09467ZM3.12603 3.15533C2.2105 4.07086 1.7207 5.57397 1.7207 8V14C1.7207 16.426 2.2105 17.9291 3.12603 18.8447C4.04156 19.7602 5.54468 20.25 7.9707 20.25H13.9707C16.3967 20.25 17.8998 19.7602 18.8154 18.8447C19.7309 17.9291 20.2207 16.426 20.2207 14V8C20.2207 5.57397 19.7309 4.07086 18.8154 3.15533C17.8998 2.2398 16.3967 1.75 13.9707 1.75H7.9707C5.54468 1.75 4.04156 2.2398 3.12603 3.15533Z" fill="#101010"/>
<path fill-rule="evenodd" clip-rule="evenodd" d="M6.9707 0.25C7.38492 0.25 7.7207 0.585786 7.7207 1V21C7.7207 21.4142 7.38492 21.75 6.9707 21.75C6.55649 21.75 6.2207 21.4142 6.2207 21V1C6.2207 0.585786 6.55649 0.25 6.9707 0.25Z" fill="#101010"/>
<path fill-rule="evenodd" clip-rule="evenodd" d="M14.5005 7.90967C14.7934 8.20257 14.7934 8.67744 14.5005 8.97033L12.4708 11L14.5005 13.0297C14.7934 13.3226 14.7934 13.7974 14.5005 14.0903C14.2076 14.3832 13.7327 14.3832 13.4398 14.0903L10.8798 11.5303C10.5869 11.2374 10.5869 10.7626 10.8798 10.4697L13.4398 7.90967C13.7327 7.61678 14.2076 7.61678 14.5005 7.90967Z" fill="#101010"/>
</svg>
