<svg width="22" height="22" viewBox="0 0 22 22" fill="none" xmlns="http://www.w3.org/2000/svg">
<path fill-rule="evenodd" clip-rule="evenodd" d="M2.06537 2.09467C3.39984 0.760201 5.39673 0.25 7.9707 0.25H13.9707C16.5447 0.25 18.5416 0.760201 19.876 2.09467C21.2105 3.42914 21.7207 5.42603 21.7207 8V14C21.7207 16.574 21.2105 18.5709 19.876 19.9053C18.5416 21.2398 16.5447 21.75 13.9707 21.75H7.9707C5.39673 21.75 3.39984 21.2398 2.06537 19.9053C0.730904 18.5709 0.220703 16.574 0.220703 14V8C0.220703 5.42603 0.730904 3.42914 2.06537 2.09467ZM3.12603 3.15533C2.2105 4.07086 1.7207 5.57397 1.7207 8V14C1.7207 16.426 2.2105 17.9291 3.12603 18.8447C4.04156 19.7602 5.54468 20.25 7.9707 20.25H13.9707C16.3967 20.25 17.8998 19.7602 18.8154 18.8447C19.7309 17.9291 20.2207 16.426 20.2207 14V8C20.2207 5.57397 19.7309 4.07086 18.8154 3.15533C17.8998 2.2398 16.3967 1.75 13.9707 1.75H7.9707C5.54468 1.75 4.04156 2.2398 3.12603 3.15533Z" fill="#101010"/>
<path fill-rule="evenodd" clip-rule="evenodd" d="M0.25 14.5C0.25 14.0858 0.585786 13.75 1 13.75H21C21.4142 13.75 21.75 14.0858 21.75 14.5C21.75 14.9142 21.4142 15.25 21 15.25H1C0.585786 15.25 0.25 14.9142 0.25 14.5Z" fill="#101010"/>
<path fill-rule="evenodd" clip-rule="evenodd" d="M7.91108 6.96967C8.20397 6.67678 8.67884 6.67678 8.97174 6.96967L11.0014 8.99934L13.0311 6.96967C13.324 6.67678 13.7988 6.67678 14.0917 6.96967C14.3846 7.26256 14.3846 7.73744 14.0917 8.03033L11.5317 10.5903C11.2388 10.8832 10.764 10.8832 10.4711 10.5903L7.91108 8.03033C7.61818 7.73744 7.61818 7.26256 7.91108 6.96967Z" fill="#101010"/>
</svg>
