<svg width="22" height="22" viewBox="0 0 22 22" fill="none" xmlns="http://www.w3.org/2000/svg">
<path fill-rule="evenodd" clip-rule="evenodd" d="M2.60109 7.01833C2.07981 7.53866 1.75 8.31059 1.75 9.31001V17.08C1.75 18.0794 2.07981 18.8514 2.60109 19.3717C3.12259 19.8922 3.89489 20.22 4.89 20.22H11.11C12.1051 20.22 12.8774 19.8922 13.3989 19.3717C13.9202 18.8514 14.25 18.0794 14.25 17.08V11.69C14.25 10.8594 13.9194 10.0603 13.3302 9.47086C13.33 9.47069 13.3304 9.47103 13.3302 9.47086L10.9408 7.09145L10.9397 7.09034C10.3502 6.50085 9.55088 6.17001 8.72 6.17001H4.89C3.89489 6.17001 3.12259 6.49779 2.60109 7.01833ZM1.54141 5.9567C2.38241 5.11724 3.55511 4.67001 4.89 4.67001H8.72C9.94885 4.67001 11.1293 5.15896 11.9997 6.0291C11.9999 6.0293 11.9996 6.02891 11.9997 6.0291L14.3903 8.40968C15.2608 9.28019 15.75 10.4609 15.75 11.69V17.08C15.75 18.4206 15.2998 19.5937 14.4586 20.4333C13.6176 21.2728 12.4449 21.72 11.11 21.72H4.89C3.55511 21.72 2.38241 21.2728 1.54141 20.4333C0.700193 19.5937 0.25 18.4206 0.25 17.08V9.31001C0.25 7.96944 0.700193 6.79637 1.54141 5.9567Z" fill="#101010"/>
<path fill-rule="evenodd" clip-rule="evenodd" d="M7.7541 4.67H8.72C9.94885 4.67 11.1293 5.15895 11.9998 6.0291C12 6.02929 11.9996 6.02892 11.9998 6.0291L14.3903 8.40967C15.2608 9.28018 15.75 10.4609 15.75 11.69V15.78H17.11C18.1038 15.78 18.8762 15.4506 19.3984 14.9284C19.9206 14.4062 20.25 13.6338 20.25 12.64V7.25C20.25 6.41912 19.9192 5.61983 19.3297 5.03033L16.9397 2.64033C16.3502 2.05084 15.5509 1.72 14.72 1.72H10.89C9.89625 1.72 9.12375 2.04941 8.60158 2.57158C8.11317 3.05999 7.79341 3.76739 7.7541 4.67ZM7.54092 1.51092C8.38125 0.670595 9.55375 0.220001 10.89 0.220001H14.72C15.9491 0.220001 17.1298 0.709166 18.0003 1.57967L20.3903 3.96967C21.2608 4.84018 21.75 6.02088 21.75 7.25V12.64C21.75 13.9762 21.2994 15.1488 20.4591 15.9891C19.6188 16.8294 18.4462 17.28 17.11 17.28H15C14.5858 17.28 14.25 16.9442 14.25 16.53V11.69C14.25 10.8594 13.9194 10.0604 13.3303 9.47095C13.3301 9.47074 13.3305 9.47115 13.3303 9.47095L10.9397 7.09033C10.3502 6.50084 9.55088 6.17 8.72 6.17H7C6.58579 6.17 6.25 5.83421 6.25 5.42V4.86C6.25 3.52375 6.70059 2.35125 7.54092 1.51092Z" fill="#101010"/>
</svg>
