<svg width="22" height="22" viewBox="0 0 22 22" fill="none" xmlns="http://www.w3.org/2000/svg">
<path fill-rule="evenodd" clip-rule="evenodd" d="M0.25 11C0.25 5.06579 5.06579 0.25 11 0.25C16.9342 0.25 21.75 5.06579 21.75 11C21.75 16.9342 16.9342 21.75 11 21.75C5.06579 21.75 0.25 16.9342 0.25 11ZM11 1.75C5.89421 1.75 1.75 5.89421 1.75 11C1.75 16.1058 5.89421 20.25 11 20.25C16.1058 20.25 20.25 16.1058 20.25 11C20.25 5.89421 16.1058 1.75 11 1.75Z" fill="#101010"/>
<path fill-rule="evenodd" clip-rule="evenodd" d="M18.4307 3.46967C18.7236 3.76256 18.7236 4.23744 18.4307 4.53033L4.43072 18.5303C4.13783 18.8232 3.66295 18.8232 3.37006 18.5303C3.07717 18.2374 3.07717 17.7626 3.37006 17.4697L17.3701 3.46967C17.663 3.17678 18.1378 3.17678 18.4307 3.46967Z" fill="#101010"/>
</svg>
