<svg width="22" height="22" viewBox="0 0 22 22" fill="none" xmlns="http://www.w3.org/2000/svg">
<path fill-rule="evenodd" clip-rule="evenodd" d="M6.79874 2.31013C6.29944 2.63894 5.96953 3.20657 5.83548 4.4222C5.8346 4.43017 5.8336 4.43813 5.83246 4.44607C5.77004 4.88302 5.75 5.39105 5.75 6V16C5.75 16.609 5.77004 17.117 5.83246 17.5539C5.8336 17.5619 5.8346 17.5698 5.83548 17.5778C5.96953 18.7934 6.29944 19.3611 6.79874 19.6899C7.36555 20.0631 8.31741 20.25 10 20.25H12C13.6826 20.25 14.6345 20.0631 15.2013 19.6899C15.7006 19.3611 16.0305 18.7934 16.1645 17.5778C16.1654 17.5698 16.1664 17.5619 16.1675 17.5539C16.23 17.117 16.25 16.609 16.25 16V6C16.25 5.39105 16.23 4.88302 16.1675 4.44607C16.1664 4.43813 16.1654 4.43017 16.1645 4.4222C16.0305 3.20657 15.7006 2.63894 15.2013 2.31013C14.6345 1.93687 13.6826 1.75 12 1.75H10C8.31741 1.75 7.36555 1.93687 6.79874 2.31013ZM5.97376 1.05737C6.94445 0.418133 8.30259 0.25 10 0.25H12C13.6974 0.25 15.0555 0.418133 16.0262 1.05737C17.0615 1.73915 17.4971 2.83727 17.6542 4.24593C17.7303 4.78569 17.75 5.3736 17.75 6V16C17.75 16.6264 17.7303 17.2143 17.6542 17.7541C17.4971 19.1627 17.0615 20.2609 16.0262 20.9426C15.0555 21.5819 13.6974 21.75 12 21.75H10C8.30259 21.75 6.94445 21.5819 5.97376 20.9426C4.93847 20.2609 4.50291 19.1627 4.34583 17.7541C4.26967 17.2143 4.25 16.6264 4.25 16V6C4.25 5.3736 4.26967 4.7857 4.34583 4.24594C4.50291 2.83727 4.93847 1.73915 5.97376 1.05737Z" fill="#101010"/>
<path fill-rule="evenodd" clip-rule="evenodd" d="M4.26987 5.08013C2.97952 5.08566 2.45625 5.27002 2.19849 5.52842C1.93609 5.79147 1.75 6.33031 1.75 7.67V14.33C1.75 15.6697 1.93609 16.2085 2.19849 16.4716C2.45625 16.73 2.97952 16.9143 4.26987 16.9199C4.25504 16.6239 4.25 16.3169 4.25 16V6C4.25 5.68311 4.25504 5.37607 4.26987 5.08013ZM4.68041 3.58C4.82349 3.57999 4.97654 3.57999 5.14344 3.59191C5.35101 3.60673 5.54309 3.70714 5.67375 3.86911C5.80441 4.03108 5.86189 4.24006 5.83246 4.44607C5.77004 4.88302 5.75 5.39105 5.75 6V16C5.75 16.609 5.77004 17.117 5.83246 17.5539C5.86189 17.7599 5.80441 17.9689 5.67375 18.1309C5.54309 18.2929 5.35101 18.3933 5.14344 18.4081C4.97653 18.42 4.82348 18.42 4.6804 18.42H4.33C3.00431 18.42 1.87479 18.271 1.13651 17.5309C0.398907 16.7915 0.25 15.6603 0.25 14.33V7.67C0.25 6.33969 0.398907 5.20853 1.13651 4.46908C1.87479 3.72896 3.00431 3.58 4.33 3.58L4.68041 3.58Z" fill="#101010"/>
<path fill-rule="evenodd" clip-rule="evenodd" d="M17.7303 5.08013C17.7451 5.37607 17.7502 5.68311 17.7502 6V16C17.7502 16.3169 17.7451 16.6239 17.7303 16.9199C19.0206 16.9143 19.5439 16.73 19.8017 16.4716C20.0641 16.2085 20.2502 15.6697 20.2502 14.33V7.67C20.2502 6.33031 20.0641 5.79147 19.8017 5.52842C19.5439 5.27002 19.0206 5.08566 17.7303 5.08013ZM17.3197 3.58C17.3232 3.58 17.3267 3.58 17.3302 3.58H17.6702C18.9959 3.58 20.1254 3.72896 20.8637 4.46908C21.6013 5.20853 21.7502 6.33969 21.7502 7.67V14.33C21.7502 15.6603 21.6013 16.7915 20.8637 17.5309C20.1254 18.271 18.9959 18.42 17.6702 18.42H17.3198C17.1767 18.42 17.0236 18.42 16.8567 18.4081C16.6492 18.3933 16.4571 18.2929 16.3264 18.1309C16.1958 17.9689 16.1383 17.7599 16.1677 17.5539C16.2301 17.117 16.2502 16.609 16.2502 16V6C16.2502 5.39105 16.2301 4.88302 16.1677 4.44607C16.1383 4.24006 16.1958 4.03108 16.3264 3.86911C16.4571 3.70714 16.6492 3.60673 16.8567 3.59191C17.0236 3.57999 17.1767 3.57999 17.3197 3.58Z" fill="#101010"/>
</svg>
