<svg width="22" height="22" viewBox="0 0 22 22" fill="none" xmlns="http://www.w3.org/2000/svg">
<path fill-rule="evenodd" clip-rule="evenodd" d="M5.79874 2.81013C5.29944 3.13894 4.96953 3.70657 4.83548 4.9222C4.8346 4.93017 4.8336 4.93813 4.83246 4.94607C4.77004 5.38302 4.75 5.89105 4.75 6.5V15.5C4.75 16.109 4.77004 16.617 4.83246 17.0539C4.8336 17.0619 4.8346 17.0698 4.83548 17.0778C4.96953 18.2934 5.29944 18.8611 5.79874 19.1899C6.36555 19.5631 7.31741 19.75 9 19.75H13C14.6826 19.75 15.6345 19.5631 16.2013 19.1899C16.7006 18.8611 17.0305 18.2934 17.1645 17.0778C17.165 17.0732 17.1656 17.0686 17.1662 17.0641C17.1666 17.0607 17.1671 17.0573 17.1675 17.0539C17.23 16.617 17.25 16.109 17.25 15.5V6.5C17.25 5.89105 17.23 5.38302 17.1675 4.94607C17.1664 4.93813 17.1654 4.93017 17.1645 4.9222C17.0305 3.70657 16.7006 3.13894 16.2013 2.81013C15.6345 2.43687 14.6826 2.25 13 2.25H9C7.31741 2.25 6.36555 2.43687 5.79874 2.81013ZM4.97376 1.55737C5.94445 0.918133 7.30259 0.75 9 0.75H13C14.6974 0.75 16.0555 0.918133 17.0262 1.55737C18.0615 2.23915 18.4971 3.33727 18.6542 4.74593C18.7303 5.28569 18.75 5.8736 18.75 6.5V15.5C18.75 16.1264 18.7303 16.7143 18.6542 17.2541C18.4971 18.6627 18.0615 19.7609 17.0262 20.4426C16.0555 21.0819 14.6974 21.25 13 21.25H9C7.30259 21.25 5.94445 21.0819 4.97376 20.4426C3.93847 19.7609 3.50291 18.6627 3.34583 17.2541C3.26967 16.7143 3.25 16.1264 3.25 15.5V6.5C3.25 5.8736 3.26967 5.2857 3.34583 4.74594C3.50291 3.33727 3.93847 2.23915 4.97376 1.55737Z" fill="#101010"/>
<path fill-rule="evenodd" clip-rule="evenodd" d="M1 2.75C1.41421 2.75 1.75 3.08579 1.75 3.5V18.5C1.75 18.9142 1.41421 19.25 1 19.25C0.585786 19.25 0.25 18.9142 0.25 18.5V3.5C0.25 3.08579 0.585786 2.75 1 2.75Z" fill="#101010"/>
<path fill-rule="evenodd" clip-rule="evenodd" d="M21 2.25C21.4142 2.25 21.75 2.58579 21.75 3V18C21.75 18.4142 21.4142 18.75 21 18.75C20.5858 18.75 20.25 18.4142 20.25 18V3C20.25 2.58579 20.5858 2.25 21 2.25Z" fill="#101010"/>
</svg>
