<svg width="22" height="22" viewBox="0 0 22 22" fill="none" xmlns="http://www.w3.org/2000/svg">
<path fill-rule="evenodd" clip-rule="evenodd" d="M5.60672 2.69107C5.06575 3.26154 4.75 4.07002 4.75 5V17C4.75 17.93 5.06575 18.7385 5.60672 19.3089C6.14187 19.8733 6.9397 20.25 8 20.25H14C15.0603 20.25 15.8581 19.8733 16.3933 19.3089C16.9343 18.7385 17.25 17.93 17.25 17V5C17.25 4.07002 16.9343 3.26154 16.3933 2.69107C15.8581 2.12672 15.0603 1.75 14 1.75H8C6.9397 1.75 6.14187 2.12672 5.60672 2.69107ZM4.51828 1.65893C5.35813 0.773275 6.5603 0.25 8 0.25H14C15.4397 0.25 16.6419 0.773275 17.4817 1.65893C18.3157 2.53846 18.75 3.72998 18.75 5V17C18.75 18.27 18.3157 19.4615 17.4817 20.3411C16.6419 21.2267 15.4397 21.75 14 21.75H8C6.5603 21.75 5.35813 21.2267 4.51828 20.3411C3.68425 19.4615 3.25 18.27 3.25 17V5C3.25 3.72998 3.68425 2.53846 4.51828 1.65893Z" fill="#101010"/>
<path fill-rule="evenodd" clip-rule="evenodd" d="M3.25 15.01C3.25 14.5958 3.58579 14.26 4 14.26H18C18.4142 14.26 18.75 14.5958 18.75 15.01C18.75 15.4242 18.4142 15.76 18 15.76H4C3.58579 15.76 3.25 15.4242 3.25 15.01Z" fill="#101010"/>
<path fill-rule="evenodd" clip-rule="evenodd" d="M1 2.25C1.41421 2.25 1.75 2.58579 1.75 3V19C1.75 19.4142 1.41421 19.75 1 19.75C0.585786 19.75 0.25 19.4142 0.25 19V3C0.25 2.58579 0.585786 2.25 1 2.25Z" fill="#101010"/>
<path fill-rule="evenodd" clip-rule="evenodd" d="M21 2.25C21.4142 2.25 21.75 2.58579 21.75 3V19C21.75 19.4142 21.4142 19.75 21 19.75C20.5858 19.75 20.25 19.4142 20.25 19V3C20.25 2.58579 20.5858 2.25 21 2.25Z" fill="#101010"/>
</svg>
