<svg width="22" height="22" viewBox="0 0 22 22" fill="none" xmlns="http://www.w3.org/2000/svg">
<path fill-rule="evenodd" clip-rule="evenodd" d="M2.84219 2.31995C2.2364 2.31995 1.74219 2.81416 1.74219 3.41995V4.92995C1.74219 5.34416 1.4064 5.67995 0.992188 5.67995C0.577974 5.67995 0.242188 5.34416 0.242188 4.92995V3.41995C0.242188 1.98573 1.40797 0.819946 2.84219 0.819946H15.7622C17.1964 0.819946 18.3622 1.98573 18.3622 3.41995V4.92995C18.3622 5.34416 18.0264 5.67995 17.6122 5.67995C17.198 5.67995 16.8622 5.34416 16.8622 4.92995V3.41995C16.8622 2.81416 16.368 2.31995 15.7622 2.31995H2.84219Z" fill="#101010"/>
<path fill-rule="evenodd" clip-rule="evenodd" d="M9.30176 1.56995C9.71597 1.56995 10.0518 1.90573 10.0518 2.31995V17.0999C10.0518 17.5142 9.71597 17.8499 9.30176 17.8499C8.88754 17.8499 8.55176 17.5142 8.55176 17.0999V2.31995C8.55176 1.90573 8.88754 1.56995 9.30176 1.56995Z" fill="#101010"/>
<path fill-rule="evenodd" clip-rule="evenodd" d="M5.15234 17.1C5.15234 16.6858 5.48813 16.35 5.90234 16.35H11.4823C11.8966 16.35 12.2323 16.6858 12.2323 17.1C12.2323 17.5142 11.8966 17.85 11.4823 17.85H5.90234C5.48813 17.85 5.15234 17.5142 5.15234 17.1Z" fill="#101010"/>
<path fill-rule="evenodd" clip-rule="evenodd" d="M11.9326 9.33997C11.9326 8.92575 12.2684 8.58997 12.6826 8.58997H19.6926C20.8368 8.58997 21.7626 9.51575 21.7626 10.66V11.46C21.7626 11.8742 21.4268 12.21 21.0126 12.21C20.5984 12.21 20.2626 11.8742 20.2626 11.46V10.66C20.2626 10.3442 20.0084 10.09 19.6926 10.09H12.6826C12.2684 10.09 11.9326 9.75418 11.9326 9.33997Z" fill="#101010"/>
<path fill-rule="evenodd" clip-rule="evenodd" d="M15.082 9.12C15.4962 9.12 15.832 9.45578 15.832 9.87V20.43C15.832 20.8442 15.4962 21.18 15.082 21.18C14.6678 21.18 14.332 20.8442 14.332 20.43V9.87C14.332 9.45578 14.6678 9.12 15.082 9.12Z" fill="#101010"/>
<path fill-rule="evenodd" clip-rule="evenodd" d="M12.1924 20.4299C12.1924 20.0157 12.5282 19.6799 12.9424 19.6799H17.2224C17.6366 19.6799 17.9724 20.0157 17.9724 20.4299C17.9724 20.8441 17.6366 21.1799 17.2224 21.1799H12.9424C12.5282 21.1799 12.1924 20.8441 12.1924 20.4299Z" fill="#101010"/>
</svg>
