<svg width="22" height="22" viewBox="0 0 22 22" fill="none" xmlns="http://www.w3.org/2000/svg">
<path fill-rule="evenodd" clip-rule="evenodd" d="M3.4661 6.70562C4.02016 6.13641 4.81573 5.87 5.86977 5.87H11.1398C12.1946 5.87 12.9873 6.13683 13.541 6.70562C14.0658 7.24474 14.2643 7.95021 14.3927 8.54069L14.3938 8.54596L14.3938 8.54596L15.2438 12.596C15.2902 12.8171 15.2344 13.0473 15.092 13.2227C14.9496 13.3981 14.7357 13.5 14.5098 13.5H2.50977C2.28383 13.5 2.06993 13.3981 1.92752 13.2227C1.7851 13.0473 1.72936 12.8171 1.77576 12.5959L2.62505 8.54938C2.74462 7.95259 2.93973 7.24637 3.4661 6.70562ZM4.54095 7.75189C4.33587 7.96258 4.20571 8.29463 4.09521 8.8471L4.09382 8.85407L4.09379 8.85406L3.43352 12H13.586L12.9263 8.85676C12.8049 8.29878 12.6735 7.96494 12.4661 7.75189C12.2873 7.56817 11.9449 7.37 11.1398 7.37H5.86977C5.06382 7.37 4.71938 7.56858 4.54095 7.75189Z" fill="#101010"/>
<path fill-rule="evenodd" clip-rule="evenodd" d="M2.15651 14.8607L1.73599 19.4363C1.69335 19.8532 2.03283 20.25 2.50983 20.25H3.91984C4.07797 20.25 4.15958 20.2334 4.19553 20.2225C4.19646 20.2205 4.19744 20.2185 4.19847 20.2162C4.21894 20.1721 4.23855 20.1149 4.27669 19.9978L4.27832 19.9928L4.42959 19.5391C4.43416 19.5256 4.4389 19.5115 4.44382 19.4969C4.52777 19.2469 4.66827 18.8285 5.00642 18.5095C5.39852 18.1396 5.92885 18 6.56984 18H10.4098C11.0308 18 11.5624 18.1181 11.96 18.4853C12.2982 18.7977 12.4416 19.22 12.5311 19.4835C12.5373 19.5017 12.5433 19.5192 12.549 19.5359L12.5514 19.5428L12.6988 19.9852C12.7395 20.0991 12.7598 20.1556 12.7827 20.2032C12.7863 20.2108 12.7895 20.2169 12.7921 20.2217C12.8248 20.2326 12.9031 20.25 13.0598 20.25H14.4698C14.9379 20.25 15.2815 19.86 15.243 19.429C15.243 19.4286 15.243 19.4283 15.2429 19.4279L14.8134 14.8626C14.8133 14.8622 14.8133 14.8618 14.8132 14.8613C14.7562 14.2766 14.6819 13.9945 14.5386 13.8242C14.4321 13.6978 14.1562 13.49 13.2698 13.49H3.69983C2.81348 13.49 2.53754 13.6978 2.43112 13.8242C2.2878 13.9945 2.21349 14.2764 2.15651 14.8607ZM12.7725 20.2132C12.7728 20.213 12.7754 20.2141 12.7797 20.2171C12.7745 20.2148 12.7723 20.2133 12.7725 20.2132ZM1.28355 12.8583C1.80213 12.2422 2.61619 11.99 3.69983 11.99H13.2698C14.3535 11.99 15.1675 12.2422 15.6861 12.8583C16.1676 13.4303 16.2533 14.1729 16.3063 14.7173L16.3065 14.7197L16.7368 19.2921C16.8575 20.6207 15.8014 21.75 14.4698 21.75H13.0598C12.5548 21.75 12.1028 21.6409 11.761 21.3165C11.4817 21.0513 11.3605 20.7031 11.2982 20.5242C11.2929 20.5089 11.2881 20.4949 11.2835 20.4822L11.2783 20.4672L11.1295 20.0207C11.0739 19.8594 11.0399 19.7628 11.0024 19.6839C10.9689 19.6135 10.9484 19.5929 10.9422 19.5872C10.9389 19.5841 10.9189 19.5654 10.8501 19.5454C10.7712 19.5224 10.6355 19.5 10.4098 19.5H6.56984C6.13913 19.5 6.04468 19.5919 6.03616 19.6002C6.036 19.6003 6.03626 19.6001 6.03616 19.6002C5.99673 19.6374 5.95786 19.7035 5.85071 20.0191L5.70221 20.4646C5.69878 20.4751 5.69515 20.4865 5.69129 20.4986C5.63137 20.6861 5.51583 21.0477 5.22372 21.3225C4.87824 21.6475 4.42079 21.75 3.91984 21.75H2.50983C1.18822 21.75 0.108632 20.6291 0.243308 19.2879L0.663359 14.7173C0.716352 14.1729 0.80204 13.4303 1.28355 12.8583Z" fill="#101010"/>
<path fill-rule="evenodd" clip-rule="evenodd" d="M1 10.5C1 10.0858 1.33579 9.75 1.75 9.75H2.5C2.91421 9.75 3.25 10.0858 3.25 10.5C3.25 10.9142 2.91421 11.25 2.5 11.25H1.75C1.33579 11.25 1 10.9142 1 10.5Z" fill="#101010"/>
<path fill-rule="evenodd" clip-rule="evenodd" d="M13.75 10.5C13.75 10.0858 14.0858 9.75 14.5 9.75H15.25C15.6642 9.75 16 10.0858 16 10.5C16 10.9142 15.6642 11.25 15.25 11.25H14.5C14.0858 11.25 13.75 10.9142 13.75 10.5Z" fill="#101010"/>
<path fill-rule="evenodd" clip-rule="evenodd" d="M3.25 15.75C3.25 15.3358 3.58579 15 4 15H6.25C6.66421 15 7 15.3358 7 15.75C7 16.1642 6.66421 16.5 6.25 16.5H4C3.58579 16.5 3.25 16.1642 3.25 15.75Z" fill="#101010"/>
<path fill-rule="evenodd" clip-rule="evenodd" d="M10 15.75C10 15.3358 10.3358 15 10.75 15H13C13.4142 15 13.75 15.3358 13.75 15.75C13.75 16.1642 13.4142 16.5 13 16.5H10.75C10.3358 16.5 10 16.1642 10 15.75Z" fill="#101010"/>
<path fill-rule="evenodd" clip-rule="evenodd" d="M17.9931 5.02297C17.3692 4.08293 16.3691 3.48578 15.3591 3.5C14.9449 3.50584 14.6139 3.84632 14.6197 4.26049C14.6255 4.67466 14.966 5.00569 15.3802 4.99986C15.7891 4.9941 16.348 5.25575 16.7443 5.85408L16.7443 5.8541L16.7481 5.85968C17.1542 6.46101 17.1807 7.07197 17.0208 7.4432C16.857 7.82362 17.0325 8.26486 17.4129 8.42873C17.7933 8.5926 18.2346 8.41706 18.3985 8.03664C18.7981 7.10879 18.6254 5.96112 17.9931 5.02297Z" fill="#101010"/>
<path fill-rule="evenodd" clip-rule="evenodd" d="M14.8952 0.909278C14.9453 0.498103 15.3192 0.205376 15.7304 0.255456C17.5289 0.474506 19.3144 1.59049 20.4932 3.35305C21.6706 5.11369 22.0273 7.18711 21.5423 8.93091C21.4313 9.32998 21.0178 9.5635 20.6188 9.4525C20.2197 9.34151 19.9862 8.92802 20.0972 8.52895C20.4521 7.25275 20.2089 5.62626 19.2463 4.1869C18.285 2.74945 16.8705 1.9054 15.549 1.74445C15.1379 1.69437 14.8451 1.32045 14.8952 0.909278Z" fill="#101010"/>
</svg>
