<svg width="22" height="21" viewBox="0 0 22 21" fill="none" xmlns="http://www.w3.org/2000/svg">
<path fill-rule="evenodd" clip-rule="evenodd" d="M2.88534 3.2371C2.20538 3.86848 1.75 4.89295 1.75 6.5V13.5C1.75 15.107 2.20538 16.1315 2.88534 16.7629C3.57535 17.4036 4.61497 17.75 6 17.75H11C11.4142 17.75 11.75 18.0858 11.75 18.5C11.75 18.9142 11.4142 19.25 11 19.25H6C4.38503 19.25 2.92465 18.8464 1.86466 17.8621C0.794615 16.8685 0.25 15.393 0.25 13.5V6.5C0.25 4.60705 0.794615 3.13152 1.86466 2.1379C2.92465 1.15363 4.38503 0.75 6 0.75H16C17.615 0.75 19.0754 1.15363 20.1353 2.1379C21.2054 3.13152 21.75 4.60705 21.75 6.5V9.5C21.75 9.91421 21.4142 10.25 21 10.25C20.5858 10.25 20.25 9.91421 20.25 9.5V6.5C20.25 4.89295 19.7946 3.86848 19.1147 3.2371C18.4246 2.59637 17.385 2.25 16 2.25H6C4.61497 2.25 3.57535 2.59637 2.88534 3.2371Z" fill="#101010"/>
<path fill-rule="evenodd" clip-rule="evenodd" d="M16.586 6.53193C16.8445 6.85558 16.7917 7.32751 16.4681 7.58601L13.3372 10.0868C12.0338 11.1244 9.95628 11.1244 8.65289 10.0868L8.65104 10.0853L5.53105 7.58528C5.2078 7.32627 5.15573 6.85426 5.41474 6.53102C5.67375 6.20777 6.14576 6.1557 6.46901 6.41471L9.58802 8.91392C10.3446 9.51549 11.6462 9.51535 12.4025 8.91352C12.4027 8.91342 12.4024 8.91361 12.4025 8.91352L15.532 6.41398C15.8556 6.15548 16.3275 6.20829 16.586 6.53193Z" fill="#101010"/>
<path fill-rule="evenodd" clip-rule="evenodd" d="M17.2 13.75C15.8469 13.75 14.75 14.8469 14.75 16.2C14.75 17.5531 15.8469 18.65 17.2 18.65C18.5531 18.65 19.65 17.5531 19.65 16.2C19.65 14.8469 18.5531 13.75 17.2 13.75ZM13.25 16.2C13.25 14.0185 15.0185 12.25 17.2 12.25C19.3815 12.25 21.15 14.0185 21.15 16.2C21.15 18.3815 19.3815 20.15 17.2 20.15C15.0185 20.15 13.25 18.3815 13.25 16.2Z" fill="#101010"/>
<path fill-rule="evenodd" clip-rule="evenodd" d="M19.4697 18.4697C19.7626 18.1768 20.2374 18.1768 20.5303 18.4697L21.5303 19.4697C21.8232 19.7626 21.8232 20.2374 21.5303 20.5303C21.2374 20.8232 20.7626 20.8232 20.4697 20.5303L19.4697 19.5303C19.1768 19.2374 19.1768 18.7626 19.4697 18.4697Z" fill="#101010"/>
</svg>
