<svg width="22" height="20" viewBox="0 0 22 20" fill="none" xmlns="http://www.w3.org/2000/svg">
<path fill-rule="evenodd" clip-rule="evenodd" d="M2.88534 3.2371C2.20538 3.86848 1.75 4.89295 1.75 6.5V13.5C1.75 15.107 2.20538 16.1315 2.88534 16.7629C3.57535 17.4036 4.61497 17.75 6 17.75H11C11.4142 17.75 11.75 18.0858 11.75 18.5C11.75 18.9142 11.4142 19.25 11 19.25H6C4.38503 19.25 2.92465 18.8464 1.86466 17.8621C0.794615 16.8685 0.25 15.393 0.25 13.5V6.5C0.25 4.60705 0.794615 3.13152 1.86466 2.1379C2.92465 1.15363 4.38503 0.75 6 0.75H16C17.615 0.75 19.0754 1.15363 20.1353 2.1379C21.2054 3.13152 21.75 4.60705 21.75 6.5V9.5C21.75 9.91421 21.4142 10.25 21 10.25C20.5858 10.25 20.25 9.91421 20.25 9.5V6.5C20.25 4.89295 19.7946 3.86848 19.1147 3.2371C18.4246 2.59637 17.385 2.25 16 2.25H6C4.61497 2.25 3.57535 2.59637 2.88534 3.2371Z" fill="#101010"/>
<path fill-rule="evenodd" clip-rule="evenodd" d="M16.586 6.53193C16.8445 6.85558 16.7917 7.32751 16.4681 7.58601L13.3372 10.0868C12.0338 11.1244 9.95628 11.1244 8.65289 10.0868L8.65104 10.0853L5.53105 7.58528C5.2078 7.32627 5.15573 6.85426 5.41474 6.53102C5.67375 6.20777 6.14576 6.1557 6.46901 6.41471L9.58802 8.91392C10.3446 9.51549 11.6462 9.51535 12.4025 8.91352C12.4027 8.91342 12.4024 8.91361 12.4025 8.91352L15.532 6.41398C15.8556 6.15548 16.3275 6.20829 16.586 6.53193Z" fill="#101010"/>
<path fill-rule="evenodd" clip-rule="evenodd" d="M19.1332 11.4564C19.7964 11.3883 20.4067 11.6862 20.9502 12.2297C21.4968 12.7763 21.7983 13.3879 21.7325 14.0527C21.6706 14.6778 21.2978 15.1627 20.9502 15.5104L17.4178 19.0427C17.2712 19.1963 17.0909 19.308 16.9428 19.3821C16.7869 19.46 16.5975 19.5307 16.4068 19.5609L16.3944 19.5628L15.0459 19.7525C15.0456 19.7525 15.0462 19.7525 15.0459 19.7525C14.6044 19.8153 14.1484 19.6993 13.8195 19.3704C13.4906 19.0414 13.3744 18.5863 13.4373 18.1448C13.4373 18.1445 13.4372 18.1451 13.4373 18.1448L13.6289 16.783C13.6595 16.5893 13.7318 16.401 13.8094 16.2477C13.887 16.0943 13.9972 15.922 14.1395 15.7797C14.1395 15.7797 14.1395 15.7797 14.1395 15.7797L17.6795 12.2397C18.0272 11.892 18.5111 11.5204 19.1332 11.4564ZM19.2865 12.9486C19.1786 12.9597 19.0025 13.038 18.7402 13.3003L15.2015 16.839C15.201 16.8397 15.1954 16.846 15.1861 16.8596C15.1743 16.8768 15.1608 16.8992 15.1478 16.9248C15.1349 16.9505 15.1247 16.9747 15.1178 16.9945C15.1135 17.0069 15.1114 17.0147 15.1107 17.0177L14.9368 18.2531L16.1729 18.0791C16.1761 18.0783 16.1852 18.0761 16.2 18.071C16.2213 18.0636 16.2464 18.0532 16.2719 18.0405C16.2976 18.0276 16.318 18.0152 16.3317 18.0058C16.3348 18.0036 16.3372 18.0018 16.3389 18.0006C16.3424 17.9969 16.3459 17.9933 16.3495 17.9897L19.8895 14.4497C20.1519 14.1873 20.2291 14.0123 20.2398 13.9049C20.2465 13.8372 20.243 13.6438 19.8895 13.2904C19.543 12.9439 19.3533 12.9417 19.2865 12.9486Z" fill="#101010"/>
<path fill-rule="evenodd" clip-rule="evenodd" d="M17.4992 12.5574C17.8983 12.4465 18.3117 12.6802 18.4225 13.0793C18.6521 13.9058 19.2941 14.5478 20.1206 14.7774C20.5197 14.8882 20.7534 15.3016 20.6425 15.7007C20.5317 16.0998 20.1183 16.3335 19.7192 16.2226C18.3857 15.8522 17.3477 14.8142 16.9773 13.4807C16.8664 13.0816 17.1001 12.6682 17.4992 12.5574Z" fill="#101010"/>
</svg>
