<svg width="22" height="20" viewBox="0 0 22 20" fill="none" xmlns="http://www.w3.org/2000/svg">
<path fill-rule="evenodd" clip-rule="evenodd" d="M2.88534 3.2371C2.20538 3.86848 1.75 4.89295 1.75 6.5V13.5C1.75 15.107 2.20538 16.1315 2.88534 16.7629C3.57535 17.4036 4.61497 17.75 6 17.75H16C17.385 17.75 18.4246 17.4036 19.1147 16.7629C19.7946 16.1315 20.25 15.107 20.25 13.5V8.5C20.25 8.08579 20.5858 7.75 21 7.75C21.4142 7.75 21.75 8.08579 21.75 8.5V13.5C21.75 15.393 21.2054 16.8685 20.1353 17.8621C19.0754 18.8464 17.615 19.25 16 19.25H6C4.38503 19.25 2.92465 18.8464 1.86466 17.8621C0.794615 16.8685 0.25 15.393 0.25 13.5V6.5C0.25 4.60705 0.794615 3.13152 1.86466 2.1379C2.92465 1.15363 4.38503 0.75 6 0.75H13C13.4142 0.75 13.75 1.08579 13.75 1.5C13.75 1.91421 13.4142 2.25 13 2.25H6C4.61497 2.25 3.57535 2.59637 2.88534 3.2371Z" fill="#101010"/>
<path fill-rule="evenodd" clip-rule="evenodd" d="M5.41401 6.53193C5.67252 6.20829 6.14444 6.15548 6.46809 6.41398L9.59716 8.91324C9.59732 8.91336 9.597 8.91311 9.59716 8.91324C10.3538 9.51516 11.6562 9.51546 12.4127 8.91338C12.4128 8.91333 12.4127 8.91343 12.4127 8.91338L13.5927 7.97338C13.9167 7.71529 14.3886 7.7687 14.6466 8.09268C14.9047 8.41667 14.8513 8.88853 14.5273 9.14661L13.3473 10.0866C12.044 11.1243 9.96629 11.1244 8.6629 10.0868L5.53196 7.58601C5.20832 7.32751 5.15551 6.85558 5.41401 6.53193Z" fill="#101010"/>
<path fill-rule="evenodd" clip-rule="evenodd" d="M18.5 1.75C17.5335 1.75 16.75 2.5335 16.75 3.5C16.75 4.4665 17.5335 5.25 18.5 5.25C19.4665 5.25 20.25 4.4665 20.25 3.5C20.25 2.5335 19.4665 1.75 18.5 1.75ZM15.25 3.5C15.25 1.70507 16.7051 0.25 18.5 0.25C20.2949 0.25 21.75 1.70507 21.75 3.5C21.75 5.29493 20.2949 6.75 18.5 6.75C16.7051 6.75 15.25 5.29493 15.25 3.5Z" fill="#101010"/>
</svg>
