<svg width="22" height="20" viewBox="0 0 22 20" fill="none" xmlns="http://www.w3.org/2000/svg">
<path fill-rule="evenodd" clip-rule="evenodd" d="M2.88534 3.2371C2.20538 3.86848 1.75 4.89295 1.75 6.5V13.5C1.75 15.107 2.20538 16.1315 2.88534 16.7629C3.57535 17.4036 4.61497 17.75 6 17.75H16C17.385 17.75 18.4246 17.4036 19.1147 16.7629C19.7946 16.1315 20.25 15.107 20.25 13.5V6.5C20.25 4.89295 19.7946 3.86848 19.1147 3.2371C18.4246 2.59637 17.385 2.25 16 2.25H6C4.61497 2.25 3.57535 2.59637 2.88534 3.2371ZM1.86466 2.1379C2.92465 1.15363 4.38503 0.75 6 0.75H16C17.615 0.75 19.0754 1.15363 20.1353 2.1379C21.2054 3.13152 21.75 4.60705 21.75 6.5V13.5C21.75 15.393 21.2054 16.8685 20.1353 17.8621C19.0754 18.8464 17.615 19.25 16 19.25H6C4.38503 19.25 2.92465 18.8464 1.86466 17.8621C0.794615 16.8685 0.25 15.393 0.25 13.5V6.5C0.25 4.60705 0.794615 3.13152 1.86466 2.1379Z" fill="#101010"/>
<path fill-rule="evenodd" clip-rule="evenodd" d="M16.586 6.53193C16.8445 6.85558 16.7917 7.32751 16.4681 7.58601L13.3372 10.0868C12.0338 11.1244 9.95628 11.1244 8.65289 10.0868L8.65104 10.0853L5.53105 7.58528C5.2078 7.32627 5.15573 6.85426 5.41474 6.53102C5.67375 6.20777 6.14576 6.1557 6.46901 6.41471L9.58802 8.91392C10.3446 9.51549 11.6462 9.51535 12.4025 8.91352C12.4027 8.91342 12.4024 8.91361 12.4025 8.91352L15.532 6.41398C15.8556 6.15548 16.3275 6.20829 16.586 6.53193Z" fill="#101010"/>
</svg>
