<svg width="20" height="12" viewBox="0 0 20 12" fill="none" xmlns="http://www.w3.org/2000/svg">
<path fill-rule="evenodd" clip-rule="evenodd" d="M0.25 1C0.25 0.585786 0.585786 0.25 1 0.25H19C19.4142 0.25 19.75 0.585786 19.75 1C19.75 1.41421 19.4142 1.75 19 1.75H1C0.585786 1.75 0.25 1.41421 0.25 1Z" fill="#101010"/>
<path fill-rule="evenodd" clip-rule="evenodd" d="M3.25 6C3.25 5.58579 3.58579 5.25 4 5.25H16C16.4142 5.25 16.75 5.58579 16.75 6C16.75 6.41421 16.4142 6.75 16 6.75H4C3.58579 6.75 3.25 6.41421 3.25 6Z" fill="#101010"/>
<path fill-rule="evenodd" clip-rule="evenodd" d="M7.25 11C7.25 10.5858 7.58579 10.25 8 10.25H12C12.4142 10.25 12.75 10.5858 12.75 11C12.75 11.4142 12.4142 11.75 12 11.75H8C7.58579 11.75 7.25 11.4142 7.25 11Z" fill="#101010"/>
</svg>
