<svg width="16" height="22" viewBox="0 0 16 22" fill="none" xmlns="http://www.w3.org/2000/svg">
<path fill-rule="evenodd" clip-rule="evenodd" d="M1.34467 1.34467C2.19209 0.497249 3.45845 0.25 5 0.25H11C12.5415 0.25 13.8079 0.497249 14.6553 1.34467C15.5028 2.19209 15.75 3.45845 15.75 5V17C15.75 18.5415 15.5028 19.8079 14.6553 20.6553C13.8079 21.5028 12.5415 21.75 11 21.75H5C3.45845 21.75 2.19209 21.5028 1.34467 20.6553C0.497249 19.8079 0.25 18.5415 0.25 17V5C0.25 3.45845 0.497249 2.19209 1.34467 1.34467ZM2.40533 2.40533C2.00275 2.80791 1.75 3.54155 1.75 5V17C1.75 18.4585 2.00275 19.1921 2.40533 19.5947C2.80791 19.9972 3.54155 20.25 5 20.25H11C12.4585 20.25 13.1921 19.9972 13.5947 19.5947C13.9972 19.1921 14.25 18.4585 14.25 17V5C14.25 3.54155 13.9972 2.80791 13.5947 2.40533C13.1921 2.00275 12.4585 1.75 11 1.75H5C3.54155 1.75 2.80791 2.00275 2.40533 2.40533Z" fill="#101010"/>
<path fill-rule="evenodd" clip-rule="evenodd" d="M8 11.75C6.75736 11.75 5.75 12.7574 5.75 14C5.75 15.2426 6.75736 16.25 8 16.25C9.24264 16.25 10.25 15.2426 10.25 14C10.25 12.7574 9.24264 11.75 8 11.75ZM4.25 14C4.25 11.9289 5.92893 10.25 8 10.25C10.0711 10.25 11.75 11.9289 11.75 14C11.75 16.0711 10.0711 17.75 8 17.75C5.92893 17.75 4.25 16.0711 4.25 14Z" fill="#101010"/>
<path fill-rule="evenodd" clip-rule="evenodd" d="M8 5.75C7.58579 5.75 7.25 6.08579 7.25 6.5C7.25 6.91421 7.58579 7.25 8 7.25C8.41421 7.25 8.75 6.91421 8.75 6.5C8.75 6.08579 8.41421 5.75 8 5.75ZM5.75 6.5C5.75 5.25736 6.75736 4.25 8 4.25C9.24264 4.25 10.25 5.25736 10.25 6.5C10.25 7.74264 9.24264 8.75 8 8.75C6.75736 8.75 5.75 7.74264 5.75 6.5Z" fill="#101010"/>
</svg>
