<svg width="22" height="22" viewBox="0 0 22 22" fill="none" xmlns="http://www.w3.org/2000/svg">
<path fill-rule="evenodd" clip-rule="evenodd" d="M0.25 11.5C0.25 5.56579 5.06579 0.75 11 0.75C16.9342 0.75 21.75 5.56579 21.75 11.5C21.75 14.4235 20.5779 17.0905 18.6748 19.0259C18.3843 19.3212 17.9095 19.3252 17.6141 19.0348C17.3188 18.7443 17.3148 18.2695 17.6052 17.9741C19.2421 16.3095 20.25 14.0165 20.25 11.5C20.25 6.39421 16.1058 2.25 11 2.25C5.89421 2.25 1.75 6.39421 1.75 11.5C1.75 14.0167 2.74813 16.2913 4.3777 17.9671C4.66646 18.2641 4.65981 18.7389 4.36285 19.0277C4.06588 19.3165 3.59105 19.3098 3.30229 19.0129C1.41186 17.0687 0.25 14.4233 0.25 11.5Z" fill="#101010"/>
<path fill-rule="evenodd" clip-rule="evenodd" d="M11.0001 14.49C9.54761 14.49 8.37012 15.6675 8.37012 17.12C8.37012 18.5725 9.54761 19.75 11.0001 19.75C12.4526 19.75 13.6301 18.5725 13.6301 17.12C13.6301 15.6675 12.4526 14.49 11.0001 14.49ZM6.87012 17.12C6.87012 14.8391 8.71919 12.99 11.0001 12.99C13.2811 12.99 15.1301 14.8391 15.1301 17.12C15.1301 19.4009 13.2811 21.25 11.0001 21.25C8.71919 21.25 6.87012 19.4009 6.87012 17.12Z" fill="#101010"/>
<path fill-rule="evenodd" clip-rule="evenodd" d="M12.75 9.5C12.75 8.25254 13.769 7.25 15 7.25C16.2342 7.25 17.25 8.26579 17.25 9.5C17.25 10.7475 16.231 11.75 15 11.75H14.25C13.4258 11.75 12.75 11.0742 12.75 10.25V9.5ZM15 8.75C14.591 8.75 14.25 9.08746 14.25 9.5V10.25H15C15.409 10.25 15.75 9.91254 15.75 9.5C15.75 9.09421 15.4058 8.75 15 8.75Z" fill="#101010"/>
</svg>
