<svg width="22" height="22" viewBox="0 0 22 22" fill="none" xmlns="http://www.w3.org/2000/svg">
<path fill-rule="evenodd" clip-rule="evenodd" d="M10.9912 1.82739C10.7799 1.82739 10.3523 1.99788 9.93149 2.8439L8.17203 6.36282C7.98469 6.74366 7.67178 7.06908 7.35042 7.30735C7.02813 7.54632 6.62764 7.74933 6.21553 7.81931L6.21289 7.81976L3.02327 8.34969C3.02314 8.34971 3.02339 8.34967 3.02327 8.34969C2.13367 8.49804 1.84387 8.84839 1.77693 9.05804C1.70974 9.26843 1.7433 9.72257 2.3803 10.3596L4.8603 12.8396C5.18269 13.162 5.39834 13.5931 5.51726 14.0085C5.63627 14.4243 5.68078 14.9024 5.58181 15.3439L5.58078 15.3485L5.01076 17.8185C4.91762 18.2221 4.51493 18.4738 4.11132 18.3807C3.70772 18.2875 3.45604 17.8849 3.54918 17.4812L4.11813 15.0159C4.11826 15.0153 4.1184 15.0146 4.11853 15.014C4.14911 14.8755 4.14336 14.6595 4.07518 14.4213C4.0066 14.1817 3.89724 13.9978 3.79964 13.9002L1.31964 11.4202C0.496634 10.5972 0.0351941 9.58136 0.348011 8.60175C0.661056 7.62142 1.62656 7.06178 2.77667 6.8701L5.96441 6.34048C5.96476 6.34042 5.96511 6.34036 5.96547 6.3403C6.0834 6.32 6.26737 6.24305 6.45702 6.10243C6.64731 5.96134 6.77359 5.80785 6.82642 5.69999L6.82913 5.69447L8.58845 2.17589C8.58856 2.17567 8.58834 2.17611 8.58845 2.17589C9.11767 1.11225 9.94523 0.327393 10.9912 0.327393C12.0361 0.327393 12.8659 1.11025 13.4001 2.17308L13.4008 2.17448L15.1667 5.70625C15.2066 5.78972 15.3174 5.92622 15.5176 6.09167C15.837 6.35548 15.882 6.82821 15.6182 7.14755C15.3544 7.4669 14.8817 7.51192 14.5623 7.24811C14.3041 7.03484 13.9971 6.73364 13.8166 6.36022L12.0599 2.84671C12.0598 2.84651 12.0599 2.8469 12.0599 2.84671C11.6341 2.00003 11.2038 1.82739 10.9912 1.82739Z" fill="#101010"/>
<path fill-rule="evenodd" clip-rule="evenodd" d="M18.3603 7.48668C18.4284 7.0781 18.8149 6.80209 19.2234 6.87018C20.3728 7.06174 21.3405 7.62077 21.6554 8.60047C21.9707 9.58149 21.5078 10.5982 20.6796 11.4212C20.6793 11.4215 20.679 11.4218 20.6787 11.4221L18.2005 13.9003C18.1029 13.9979 17.9935 14.1818 17.9249 14.4214C17.8568 14.6595 17.851 14.8754 17.8815 15.014L18.5908 18.081C18.8854 19.3593 18.788 20.6303 17.8782 21.2935C16.9697 21.9558 15.7292 21.6635 14.5987 20.9957L11.6081 19.2254C11.482 19.1507 11.2652 19.09 11.0039 19.09C10.7445 19.09 10.5235 19.1497 10.3893 19.2271L7.40219 20.9954C7.04575 21.2064 6.58575 21.0885 6.37474 20.732C6.16374 20.3756 6.28164 19.9156 6.63808 19.7046L9.63296 17.9317C10.0489 17.6897 10.547 17.59 11.0039 17.59C11.4601 17.59 11.9585 17.6895 12.3725 17.9348L15.3616 19.7042C16.3811 20.3065 16.8606 20.1791 16.9946 20.0814C17.1273 19.9847 17.3947 19.5701 17.1293 18.4184L16.4183 15.344C16.3193 14.9025 16.3638 14.4243 16.4828 14.0086C16.6018 13.5932 16.8174 13.162 17.1398 12.8397L19.6198 10.3597L19.6216 10.3578C20.2628 9.72101 20.2944 9.2681 20.2274 9.05949C20.1598 8.84919 19.8675 8.49822 18.9768 8.34978C18.5683 8.28168 18.2922 7.89526 18.3603 7.48668Z" fill="#101010"/>
<path fill-rule="evenodd" clip-rule="evenodd" d="M21.5303 0.46967C21.8232 0.762563 21.8232 1.23744 21.5303 1.53033L1.53033 21.5303C1.23744 21.8232 0.762563 21.8232 0.46967 21.5303C0.176777 21.2374 0.176777 20.7626 0.46967 20.4697L20.4697 0.46967C20.7626 0.176777 21.2374 0.176777 21.5303 0.46967Z" fill="#101010"/>
</svg>
