<svg width="22" height="22" viewBox="0 0 22 22" fill="none" xmlns="http://www.w3.org/2000/svg">
<path fill-rule="evenodd" clip-rule="evenodd" d="M9.93009 2.84671C9.92999 2.8469 9.93018 2.84651 9.93009 2.84671L8.17203 6.36282C7.98469 6.74366 7.67178 7.06908 7.35042 7.30735C7.02813 7.54632 6.62764 7.74933 6.21553 7.81931L6.21289 7.81976L3.02327 8.34969C3.02314 8.34971 3.02339 8.34967 3.02327 8.34969C2.13367 8.49804 1.84387 8.84839 1.77693 9.05804C1.70974 9.26843 1.7433 9.72257 2.3803 10.3596L4.8603 12.8396C5.18269 13.162 5.39834 13.5931 5.51726 14.0085C5.63627 14.4243 5.68078 14.9024 5.58181 15.3439L5.5807 15.3489L4.87068 18.4189C4.60626 19.5616 4.87372 19.9787 5.00954 20.0778C5.14596 20.1773 5.62632 20.3048 6.6372 19.7049L9.63279 17.9316C10.0487 17.6896 10.5468 17.5899 11.0037 17.5899C11.4598 17.5899 11.9581 17.6893 12.372 17.9345C12.3721 17.9346 12.3719 17.9344 12.372 17.9345L15.3614 19.7041C15.3616 19.7043 15.3612 19.704 15.3614 19.7041C16.3805 20.306 16.8604 20.179 16.9944 20.0813C17.1271 19.9846 17.3945 19.57 17.1291 18.4183L16.4181 15.3439C16.3191 14.9024 16.3637 14.4243 16.4827 14.0085C16.6016 13.5931 16.8172 13.162 17.1396 12.8396L19.6196 10.3596L19.6215 10.3578C20.2626 9.72092 20.2942 9.26801 20.2272 9.0594C20.1596 8.84913 19.8674 8.49823 18.977 8.34975C18.9769 8.34973 18.9772 8.34977 18.977 8.34975L15.787 7.81975C15.3707 7.75036 14.9671 7.54812 14.6422 7.30839C14.3186 7.06965 14.0054 6.74392 13.8179 6.36288L12.0584 2.8439C11.6377 1.99788 11.21 1.82739 10.9987 1.82739C10.7861 1.82739 10.3558 2.00003 9.93009 2.84671ZM13.4012 2.17523C12.8719 1.11159 12.0447 0.327393 10.9987 0.327393C9.95387 0.327393 9.12405 1.11025 8.58985 2.17308L6.82915 5.69448L6.82642 5.69999C6.77359 5.80785 6.64731 5.96134 6.45702 6.10243C6.26737 6.24305 6.0834 6.32 5.96547 6.3403C5.96511 6.34036 5.96476 6.34042 5.96441 6.34048L2.77705 6.87003C1.62694 7.06172 0.661056 7.62142 0.348011 8.60175C0.0351941 9.58136 0.496634 10.5972 1.31964 11.4202L3.79964 13.9002C3.89724 13.9978 4.0066 14.1817 4.07518 14.4213C4.14334 14.6594 4.1491 14.8754 4.11856 15.0139C4.11842 15.0146 4.11827 15.0152 4.11813 15.0159L3.40928 18.0808C3.40928 18.0808 3.40927 18.0808 3.40928 18.0808C3.11373 19.3581 3.21624 20.6261 4.12539 21.2895C5.03398 21.9525 6.27361 21.665 7.40273 20.9949L10.3871 19.2282C10.3878 19.2278 10.3884 19.2274 10.389 19.2271C10.5232 19.1496 10.7443 19.0899 11.0037 19.0899C11.265 19.0899 11.4816 19.1504 11.6076 19.2251L14.5979 20.9953C15.7284 21.6631 16.9695 21.9558 17.878 21.2934C18.7878 20.6302 18.8854 19.3597 18.5908 18.0815L17.8818 15.0159C17.8817 15.0152 17.8815 15.0146 17.8814 15.0139C17.8508 14.8754 17.8566 14.6594 17.9248 14.4213C17.9933 14.1817 18.1027 13.9978 18.2003 13.9002L20.6785 11.422C20.6788 11.4217 20.6792 11.4214 20.6795 11.421C21.5077 10.598 21.9706 9.58137 21.6552 8.60039C21.3403 7.62068 20.3726 7.06166 19.2233 6.8701L16.0333 6.3401C16.0334 6.34012 16.0331 6.34008 16.0333 6.3401M13.4012 2.17523C13.4013 2.17545 13.4011 2.17501 13.4012 2.17523V2.17523Z" fill="#101010"/>
</svg>
