<svg width="22" height="18" viewBox="0 0 22 18" fill="none" xmlns="http://www.w3.org/2000/svg">
<path fill-rule="evenodd" clip-rule="evenodd" d="M13.0025 1.8125C12.9239 1.8125 12.6256 1.88288 12.3035 2.54012L12.3009 2.54542L10.8923 5.36244C10.7305 5.69249 10.4633 5.97042 10.1927 6.17175C9.92106 6.37379 9.5763 6.55052 9.21133 6.61011C9.21106 6.61016 9.21159 6.61007 9.21133 6.61011L6.66459 7.02957C5.9802 7.14768 5.81397 7.4073 5.7843 7.49996C5.75505 7.5913 5.73834 7.89764 6.23036 8.38966L8.22827 10.3876C8.49963 10.6672 8.68118 11.034 8.78116 11.384C8.88061 11.732 8.92218 12.1437 8.83015 12.5315L8.26066 14.9893C8.05096 15.8933 8.28222 16.1387 8.31125 16.1598C8.34287 16.1828 8.65118 16.325 9.44779 15.8547C9.44805 15.8545 9.44752 15.8549 9.44779 15.8547L11.8348 14.4365C12.1955 14.2193 12.6255 14.135 13.01 14.135C13.3945 14.135 13.8245 14.2193 14.1852 14.4365L16.5742 15.8559C17.3706 16.3309 17.6774 16.1865 17.7076 16.1644C17.7381 16.1421 17.969 15.8931 17.7594 14.9895L17.1898 12.5309C17.1897 12.5307 17.1898 12.5311 17.1898 12.5309C17.0986 12.1411 17.1386 11.7274 17.2389 11.3765C17.339 11.0261 17.522 10.6573 17.7997 10.3797L19.7874 8.39192C19.7878 8.39158 19.7881 8.39124 19.7885 8.39091C20.2812 7.89348 20.2652 7.58444 20.2358 7.49246C20.2068 7.40199 20.0431 7.14363 19.3581 7.03002L16.8081 6.61002L16.7928 6.60734C16.4401 6.54171 16.1018 6.37046 15.8297 6.16976C15.5602 5.97092 15.2909 5.6952 15.1277 5.36244L13.7201 2.54716C13.7199 2.54688 13.7202 2.54744 13.7201 2.54716C13.3881 1.88788 13.0845 1.8125 13.0025 1.8125ZM13.0025 0.3125C13.9205 0.3125 14.6222 1.00289 15.06 1.87284L15.0609 1.87459L16.4743 4.7015C16.5013 4.75696 16.5808 4.85985 16.7203 4.96272C16.8551 5.06216 16.9838 5.11576 17.0618 5.13158L19.6019 5.54996C20.5464 5.7064 21.3883 6.17302 21.6643 7.03502C21.9398 7.89548 21.5288 8.76608 20.8526 9.44806L20.8504 9.45032L18.8603 11.4403C18.808 11.4927 18.7311 11.6138 18.6812 11.7885C18.6315 11.9625 18.6316 12.1091 18.6503 12.1891L18.6507 12.1907L19.2206 14.6505C19.2206 14.6506 19.2206 14.6505 19.2206 14.6505C19.4609 15.6868 19.3968 16.788 18.5924 17.3756C17.788 17.9633 16.7203 17.6893 15.8069 17.1448C15.8069 17.1448 15.8069 17.1448 15.8069 17.1448C15.8066 17.1446 15.8062 17.1443 15.8058 17.1441L13.4119 15.7218C13.3432 15.6803 13.1995 15.635 13.01 15.635C12.8205 15.635 12.6768 15.6803 12.6081 15.7218L12.6031 15.7248L10.2131 17.1448L10.2114 17.1458C9.29863 17.6849 8.23213 17.9572 7.42877 17.3727C6.62286 16.7864 6.55912 15.6866 6.79937 14.6507C6.79939 14.6506 6.79936 14.6508 6.79937 14.6507L7.36938 12.1907L7.37059 12.1856C7.38765 12.1142 7.38919 11.9721 7.33888 11.796C7.28964 11.6237 7.2129 11.4968 7.15457 11.4352L5.1697 9.45032C4.49172 8.77235 4.08 7.90368 4.35575 7.04252C4.63105 6.18278 5.46947 5.7129 6.41305 5.55081L6.41814 5.54994L8.96951 5.12973C9.03423 5.1192 9.15916 5.07104 9.29737 4.96823C9.43564 4.86537 9.51742 4.75972 9.54578 4.70151L9.54916 4.69456L10.958 1.87709C11.3859 1.00564 12.0821 0.3125 13.0025 0.3125Z" fill="#101010"/>
<path fill-rule="evenodd" clip-rule="evenodd" d="M0.25 2C0.25 1.58579 0.585786 1.25 1 1.25H7C7.41421 1.25 7.75 1.58579 7.75 2C7.75 2.41421 7.41421 2.75 7 2.75H1C0.585786 2.75 0.25 2.41421 0.25 2Z" fill="#101010"/>
<path fill-rule="evenodd" clip-rule="evenodd" d="M0.25 16C0.25 15.5858 0.585786 15.25 1 15.25H4C4.41421 15.25 4.75 15.5858 4.75 16C4.75 16.4142 4.41421 16.75 4 16.75H1C0.585786 16.75 0.25 16.4142 0.25 16Z" fill="#101010"/>
<path fill-rule="evenodd" clip-rule="evenodd" d="M0.25 9C0.25 8.58579 0.585786 8.25 1 8.25H2C2.41421 8.25 2.75 8.58579 2.75 9C2.75 9.41421 2.41421 9.75 2 9.75H1C0.585786 9.75 0.25 9.41421 0.25 9Z" fill="#101010"/>
</svg>
