<svg width="20" height="20" viewBox="0 0 20 20" fill="none" xmlns="http://www.w3.org/2000/svg">
<path fill-rule="evenodd" clip-rule="evenodd" d="M1.93217 1.93217C3.15414 0.710201 4.97603 0.25 7.3 0.25H12.7C15.024 0.25 16.8459 0.710201 18.0678 1.93217C19.2898 3.15414 19.75 4.97603 19.75 7.3V12.7C19.75 15.024 19.2898 16.8459 18.0678 18.0678C16.8459 19.2898 15.024 19.75 12.7 19.75H7.3C4.97603 19.75 3.15414 19.2898 1.93217 18.0678C0.710201 16.8459 0.25 15.024 0.25 12.7V7.3C0.25 4.97603 0.710201 3.15414 1.93217 1.93217ZM2.99283 2.99283C2.1898 3.79586 1.75 5.12397 1.75 7.3V12.7C1.75 14.876 2.1898 16.2041 2.99283 17.0072C3.79586 17.8102 5.12397 18.25 7.3 18.25H12.7C14.876 18.25 16.2041 17.8102 17.0072 17.0072C17.8102 16.2041 18.25 14.876 18.25 12.7V7.3C18.25 5.12397 17.8102 3.79586 17.0072 2.99283C16.2041 2.1898 14.876 1.75 12.7 1.75H7.3C5.12397 1.75 3.79586 2.1898 2.99283 2.99283Z" fill="#101010"/>
</svg>
