<svg width="22" height="22" viewBox="0 0 22 22" fill="none" xmlns="http://www.w3.org/2000/svg">
<path fill-rule="evenodd" clip-rule="evenodd" d="M14.8897 7.4802C12.7426 5.3331 9.25744 5.3331 7.11033 7.4802C4.96322 9.62731 4.96322 13.1124 7.11033 15.2595C9.25744 17.4066 12.7426 17.4066 14.8897 15.2595C17.0368 13.1124 17.0368 9.62731 14.8897 7.4802ZM6.04967 6.41954C8.78256 3.68665 13.2175 3.68665 15.9504 6.41954C18.6833 9.15244 18.6833 13.5873 15.9504 16.3202C13.2175 19.0531 8.78256 19.0531 6.04967 16.3202C3.31678 13.5873 3.31678 9.15244 6.04967 6.41954Z" fill="#101010"/>
<path fill-rule="evenodd" clip-rule="evenodd" d="M1.18607 9.38615C1.59687 9.43922 1.88686 9.81526 1.83379 10.2261C1.5839 12.1604 1.93544 14.1835 2.98912 16.0043L2.98956 16.0051C4.06272 17.8646 5.67963 19.2041 7.52852 19.9436C7.91311 20.0975 8.10017 20.5339 7.94634 20.9185C7.7925 21.3031 7.35602 21.4902 6.97143 21.3363C4.82033 20.4759 2.93723 18.9153 1.69039 16.7549C0.464413 14.6359 0.0560792 12.2793 0.346155 10.0339C0.399225 9.62307 0.775266 9.33308 1.18607 9.38615Z" fill="#101010"/>
<path fill-rule="evenodd" clip-rule="evenodd" d="M10.9996 2.10986C8.85346 2.10986 6.88491 2.83982 5.31178 4.07056C4.98554 4.32579 4.51417 4.26823 4.25894 3.942C4.00371 3.61576 4.06127 3.14439 4.3875 2.88916C6.21438 1.4599 8.50581 0.609863 10.9996 0.609863C13.4425 0.609863 15.6906 1.43915 17.4942 2.81328C17.8237 3.06431 17.8872 3.5349 17.6362 3.86438C17.3852 4.19386 16.9146 4.25746 16.5851 4.00642C15.0287 2.82055 13.0967 2.10986 10.9996 2.10986Z" fill="#101010"/>
<path fill-rule="evenodd" clip-rule="evenodd" d="M20.8141 9.38615C21.2249 9.33308 21.601 9.62307 21.654 10.0339C21.9441 12.2794 21.5357 14.6362 20.3096 16.7552C19.0627 18.9155 17.1797 20.4759 15.0287 21.3363C14.6442 21.4902 14.2077 21.3031 14.0538 20.9185C13.9 20.5339 14.0871 20.0975 14.4717 19.9436C16.3206 19.2041 17.9375 17.8646 19.0106 16.0051L19.0111 16.0043C20.0647 14.1835 20.4163 12.1604 20.1664 10.2261C20.1133 9.81526 20.4033 9.43922 20.8141 9.38615Z" fill="#101010"/>
</svg>
