<svg width="22" height="22" viewBox="0 0 22 22" fill="none" xmlns="http://www.w3.org/2000/svg">
<path fill-rule="evenodd" clip-rule="evenodd" d="M2.09467 2.09467C3.42914 0.760201 5.42603 0.25 8 0.25H14C16.574 0.25 18.5709 0.760201 19.9053 2.09467C21.2398 3.42914 21.75 5.42603 21.75 8V14C21.75 16.574 21.2398 18.5709 19.9053 19.9053C18.5709 21.2398 16.574 21.75 14 21.75H8C5.42603 21.75 3.42914 21.2398 2.09467 19.9053C0.760201 18.5709 0.25 16.574 0.25 14V8C0.25 5.42603 0.760201 3.42914 2.09467 2.09467ZM3.15533 3.15533C2.2398 4.07086 1.75 5.57397 1.75 8V14C1.75 16.426 2.2398 17.9291 3.15533 18.8447C4.07086 19.7602 5.57397 20.25 8 20.25H14C16.426 20.25 17.9291 19.7602 18.8447 18.8447C19.7602 17.9291 20.25 16.426 20.25 14V8C20.25 5.57397 19.7602 4.07086 18.8447 3.15533C17.9291 2.2398 16.426 1.75 14 1.75H8C5.57397 1.75 4.07086 2.2398 3.15533 3.15533Z" fill="#101010"/>
<path fill-rule="evenodd" clip-rule="evenodd" d="M11.4484 8.00495C10.3512 7.71329 9.37109 8.52558 9.37109 9.56012C9.37109 9.64032 9.37792 9.71506 9.38899 9.77596L9.39167 9.7907L9.39376 9.80553C9.46086 10.2819 9.74378 10.6929 10.1466 10.9429L10.5011 11.1629V13.5601C10.5011 13.8359 10.7253 14.0601 11.0011 14.0601C11.2769 14.0601 11.5011 13.8359 11.5011 13.5601V11.1629L11.8556 10.9429C12.2584 10.6929 12.5413 10.2819 12.6084 9.80553L12.6095 9.7981L12.6107 9.7907C12.6448 9.57908 12.6375 9.35747 12.5775 9.13746L12.5756 9.13056C12.4344 8.59235 11.9889 8.14682 11.4507 8.00554L11.4484 8.00495ZM11.8327 6.555C9.7703 6.00751 7.87109 7.55503 7.87109 9.56012C7.87109 9.71487 7.88344 9.87474 7.91049 10.0292C8.02458 10.8123 8.43104 11.4881 9.0011 11.9619V13.5601C9.0011 14.6643 9.89688 15.5601 11.0011 15.5601C12.1053 15.5601 13.0011 14.6643 13.0011 13.5601V11.9619C13.5729 11.4867 13.98 10.8083 14.0927 10.0221C14.1571 9.61695 14.144 9.18243 14.0256 8.74627C13.746 7.68644 12.8928 6.83374 11.8327 6.555Z" fill="#101010"/>
<path fill-rule="evenodd" clip-rule="evenodd" d="M13.3516 9.16016H21.0016V10.6602H13.3516V9.16016Z" fill="#101010"/>
<path fill-rule="evenodd" clip-rule="evenodd" d="M1 9.16003H8.64999V10.66H1V9.16003Z" fill="#101010"/>
</svg>
