<svg width="22" height="22" viewBox="0 0 22 22" fill="none" xmlns="http://www.w3.org/2000/svg">
<path fill-rule="evenodd" clip-rule="evenodd" d="M11 5.25C7.82436 5.25 5.25 7.82436 5.25 11C5.25 14.1756 7.82436 16.75 11 16.75C14.1756 16.75 16.75 14.1756 16.75 11C16.75 7.82436 14.1756 5.25 11 5.25ZM3.75 11C3.75 6.99594 6.99594 3.75 11 3.75C15.0041 3.75 18.25 6.99594 18.25 11C18.25 15.0041 15.0041 18.25 11 18.25C6.99594 18.25 3.75 15.0041 3.75 11Z" fill="#101010"/>
<path fill-rule="evenodd" clip-rule="evenodd" d="M11 0C11.5523 0 12 0.447715 12 1V1.08C12 1.63228 11.5523 2.08 11 2.08C10.4477 2.08 10 1.63228 10 1.08V1C10 0.447715 10.4477 0 11 0ZM3.15289 3.15289C3.54342 2.76237 4.17658 2.76237 4.56711 3.15289L4.69711 3.28289C5.08763 3.67342 5.08763 4.30658 4.69711 4.69711C4.30658 5.08763 3.67342 5.08763 3.28289 4.69711L3.15289 4.56711C2.76237 4.17658 2.76237 3.54342 3.15289 3.15289ZM18.8471 3.15289C19.2376 3.54342 19.2376 4.17658 18.8471 4.56711L18.7171 4.69711C18.3266 5.08763 17.6934 5.08763 17.3029 4.69711C16.9124 4.30658 16.9124 3.67342 17.3029 3.28289L17.4329 3.15289C17.8234 2.76237 18.4566 2.76237 18.8471 3.15289ZM0 11C0 10.4477 0.447715 10 1 10H1.08C1.63228 10 2.08 10.4477 2.08 11C2.08 11.5523 1.63228 12 1.08 12H1C0.447715 12 0 11.5523 0 11ZM19.92 11C19.92 10.4477 20.3677 10 20.92 10H21C21.5523 10 22 10.4477 22 11C22 11.5523 21.5523 12 21 12H20.92C20.3677 12 19.92 11.5523 19.92 11ZM4.69711 17.3029C5.08763 17.6934 5.08763 18.3266 4.69711 18.7171L4.56711 18.8471C4.17658 19.2376 3.54342 19.2376 3.15289 18.8471C2.76237 18.4566 2.76237 17.8234 3.15289 17.4329L3.28289 17.3029C3.67342 16.9124 4.30658 16.9124 4.69711 17.3029ZM17.3029 17.3029C17.6934 16.9124 18.3266 16.9124 18.7171 17.3029L18.8471 17.4329C19.2376 17.8234 19.2376 18.4566 18.8471 18.8471C18.4566 19.2376 17.8234 19.2376 17.4329 18.8471L17.3029 18.7171C16.9124 18.3266 16.9124 17.6934 17.3029 17.3029ZM11 19.92C11.5523 19.92 12 20.3677 12 20.92V21C12 21.5523 11.5523 22 11 22C10.4477 22 10 21.5523 10 21V20.92C10 20.3677 10.4477 19.92 11 19.92Z" fill="#101010"/>
</svg>
