<svg width="21" height="21" viewBox="0 0 21 21" fill="none" xmlns="http://www.w3.org/2000/svg">
<path fill-rule="evenodd" clip-rule="evenodd" d="M14.0656 1.86603C14.0658 1.86624 14.0654 1.86583 14.0656 1.86603L18.607 6.38745C20.7572 8.54924 20.7593 12.043 18.6056 14.1967L14.2156 18.5867L14.2142 18.5881C12.0524 20.7383 8.55859 20.7404 6.40491 18.5867L1.87492 14.0567C0.775936 12.9577 0.186648 11.4431 0.255985 9.88306L0.256108 9.88041L0.496188 4.87872C0.615523 2.50397 2.51372 0.605173 4.90035 0.497176C4.90074 0.497159 4.90114 0.497141 4.90153 0.497123L9.89612 0.257386C9.89667 0.257357 9.89721 0.257329 9.89776 0.257301C11.452 0.176582 12.9678 0.768575 14.0656 1.86603ZM13.0049 2.92669C12.2032 2.12493 11.0993 1.69658 9.97437 1.75534L9.9712 1.7555L4.9712 1.9955L4.96896 1.99561C3.35641 2.06817 2.07536 3.34873 1.99434 4.95323C1.99433 4.95349 1.99435 4.95297 1.99434 4.95323L1.75451 9.94966C1.75449 9.95008 1.75447 9.9505 1.75445 9.95092C1.70416 11.0904 2.13485 12.1953 2.93558 12.996L7.46558 17.526C9.03167 19.0921 11.5774 19.0944 13.1557 17.5253C13.1559 17.5251 13.1554 17.5255 13.1557 17.5253L17.5449 13.136C19.1108 11.5701 19.1133 9.02481 17.5447 7.44649C17.5443 7.44608 17.5439 7.44568 17.5435 7.44527L13.0061 2.92786L13.0049 2.92669Z" fill="#101010"/>
<path fill-rule="evenodd" clip-rule="evenodd" d="M7.73535 5.97638C6.76885 5.97638 5.98535 6.75988 5.98535 7.72638C5.98535 8.69288 6.76885 9.47638 7.73535 9.47638C8.70185 9.47638 9.48535 8.69288 9.48535 7.72638C9.48535 6.75988 8.70185 5.97638 7.73535 5.97638ZM4.48535 7.72638C4.48535 5.93145 5.94043 4.47638 7.73535 4.47638C9.53028 4.47638 10.9854 5.93145 10.9854 7.72638C10.9854 9.52131 9.53028 10.9764 7.73535 10.9764C5.94043 10.9764 4.48535 9.52131 4.48535 7.72638Z" fill="#101010"/>
<path fill-rule="evenodd" clip-rule="evenodd" d="M15.7657 10.696C16.0586 10.9889 16.0586 11.4638 15.7657 11.7567L11.7657 15.7567C11.4728 16.0496 10.9979 16.0496 10.705 15.7567C10.4121 15.4638 10.4121 14.9889 10.705 14.696L14.705 10.696C14.9979 10.4032 15.4728 10.4032 15.7657 10.696Z" fill="#101010"/>
</svg>
