<svg width="22" height="20" viewBox="0 0 22 20" fill="none" xmlns="http://www.w3.org/2000/svg">
<path fill-rule="evenodd" clip-rule="evenodd" d="M3.21979 1.84998C2.06344 1.84998 1.36121 3.12638 1.9656 4.09209L4.73519 8.52151C4.73532 8.52172 4.73506 8.5213 4.73519 8.52151C5.01123 8.96201 5.1273 9.49627 5.1273 9.98998C5.1273 10.4838 5.01159 11.0175 4.73546 11.458C4.73537 11.4582 4.73555 11.4579 4.73546 11.458L1.968 15.884C1.96766 15.8845 1.96733 15.8851 1.967 15.8856C1.35369 16.8815 2.06449 18.15 3.21979 18.15H13.6698C13.8269 18.15 14.0637 18.0933 14.3144 17.9679C14.5644 17.8429 14.7537 17.6869 14.8508 17.5587C14.851 17.5585 14.8506 17.5589 14.8508 17.5587L20.03 10.6597L20.031 10.6584C20.1512 10.499 20.2405 10.2471 20.253 9.9532C20.2654 9.66057 20.1985 9.39867 20.0922 9.22492C20.0918 9.22429 20.0914 9.22367 20.0911 9.22305L15.914 2.54782L15.9126 2.5455C15.8168 2.3912 15.6232 2.2088 15.361 2.06332C15.0988 1.91786 14.8412 1.84998 14.6598 1.84998H3.21979ZM0.69392 4.8876C-0.541398 2.91334 0.896255 0.349976 3.21979 0.349976H14.6598C15.1584 0.349976 15.6658 0.517095 16.0886 0.75163C16.511 0.985953 16.9221 1.32816 17.1864 1.75335C17.1866 1.75372 17.1868 1.75409 17.187 1.75445L21.3686 8.43689C21.6616 8.91315 21.7742 9.48543 21.7516 10.0168C21.7291 10.5475 21.5686 11.1102 21.2293 11.5607C21.2291 11.561 21.2289 11.5613 21.2286 11.5615L16.0496 18.4603L16.0484 18.4619C15.7753 18.8236 15.3798 19.1123 14.9852 19.3095C14.5909 19.5067 14.1227 19.65 13.6698 19.65H3.21979C0.875718 19.65 -0.533238 17.0798 0.691686 15.0959L0.69391 15.0923L3.46388 10.6624C3.55756 10.513 3.6273 10.271 3.6273 9.98998C3.6273 9.70892 3.55809 9.46782 3.46441 9.31844L0.69392 4.8876Z" fill="#101010"/>
</svg>
