<svg width="22" height="22" viewBox="0 0 22 22" fill="none" xmlns="http://www.w3.org/2000/svg">
<path fill-rule="evenodd" clip-rule="evenodd" d="M10.6201 7.88C10.6201 7.46579 10.9559 7.13 11.3701 7.13H16.6201C17.0343 7.13 17.3701 7.46579 17.3701 7.88C17.3701 8.29422 17.0343 8.63 16.6201 8.63H11.3701C10.9559 8.63 10.6201 8.29422 10.6201 7.88Z" fill="#101010"/>
<path fill-rule="evenodd" clip-rule="evenodd" d="M8.91021 5.84967C9.20311 6.14257 9.20311 6.61744 8.91021 6.91033L6.66021 9.16034C6.36732 9.45323 5.89245 9.45323 5.59955 9.16034L4.84955 8.41034C4.55666 8.11744 4.55666 7.64257 4.84955 7.34967C5.14245 7.05678 5.61732 7.05678 5.91021 7.34967L6.12988 7.56934L7.84955 5.84967C8.14245 5.55678 8.61732 5.55678 8.91021 5.84967Z" fill="#101010"/>
<path fill-rule="evenodd" clip-rule="evenodd" d="M10.6201 14.88C10.6201 14.4658 10.9559 14.13 11.3701 14.13H16.6201C17.0343 14.13 17.3701 14.4658 17.3701 14.88C17.3701 15.2942 17.0343 15.63 16.6201 15.63H11.3701C10.9559 15.63 10.6201 15.2942 10.6201 14.88Z" fill="#101010"/>
<path fill-rule="evenodd" clip-rule="evenodd" d="M8.91021 12.8497C9.20311 13.1426 9.20311 13.6174 8.91021 13.9103L6.66021 16.1603C6.36732 16.4532 5.89245 16.4532 5.59955 16.1603L4.84955 15.4103C4.55666 15.1174 4.55666 14.6426 4.84955 14.3497C5.14245 14.0568 5.61732 14.0568 5.91021 14.3497L6.12988 14.5693L7.84955 12.8497C8.14245 12.5568 8.61732 12.5568 8.91021 12.8497Z" fill="#101010"/>
<path fill-rule="evenodd" clip-rule="evenodd" d="M2.09467 2.09467C3.42914 0.760201 5.42603 0.25 8 0.25H14C16.574 0.25 18.5709 0.760201 19.9053 2.09467C21.2398 3.42914 21.75 5.42603 21.75 8V14C21.75 16.574 21.2398 18.5709 19.9053 19.9053C18.5709 21.2398 16.574 21.75 14 21.75H8C5.42603 21.75 3.42914 21.2398 2.09467 19.9053C0.760201 18.5709 0.25 16.574 0.25 14V8C0.25 5.42603 0.760201 3.42914 2.09467 2.09467ZM3.15533 3.15533C2.2398 4.07086 1.75 5.57397 1.75 8V14C1.75 16.426 2.2398 17.9291 3.15533 18.8447C4.07086 19.7602 5.57397 20.25 8 20.25H14C16.426 20.25 17.9291 19.7602 18.8447 18.8447C19.7602 17.9291 20.25 16.426 20.25 14V8C20.25 5.57397 19.7602 4.07086 18.8447 3.15533C17.9291 2.2398 16.426 1.75 14 1.75H8C5.57397 1.75 4.07086 2.2398 3.15533 3.15533Z" fill="#101010"/>
</svg>
