<svg width="20" height="20" viewBox="0 0 20 20" fill="none" xmlns="http://www.w3.org/2000/svg">
<path fill-rule="evenodd" clip-rule="evenodd" d="M8.25 17.5C8.25 17.0858 8.58579 16.75 9 16.75H19C19.4142 16.75 19.75 17.0858 19.75 17.5C19.75 17.9142 19.4142 18.25 19 18.25H9C8.58579 18.25 8.25 17.9142 8.25 17.5Z" fill="#101010"/>
<path fill-rule="evenodd" clip-rule="evenodd" d="M8.25 10.5C8.25 10.0858 8.58579 9.75 9 9.75H19C19.4142 9.75 19.75 10.0858 19.75 10.5C19.75 10.9142 19.4142 11.25 19 11.25H9C8.58579 11.25 8.25 10.9142 8.25 10.5Z" fill="#101010"/>
<path fill-rule="evenodd" clip-rule="evenodd" d="M8.25 3.5C8.25 3.08579 8.58579 2.75 9 2.75H19C19.4142 2.75 19.75 3.08579 19.75 3.5C19.75 3.91421 19.4142 4.25 19 4.25H9C8.58579 4.25 8.25 3.91421 8.25 3.5Z" fill="#101010"/>
<path fill-rule="evenodd" clip-rule="evenodd" d="M5.53033 0.96967C5.82322 1.26256 5.82322 1.73744 5.53033 2.03033L2.53033 5.03033C2.23744 5.32322 1.76256 5.32322 1.46967 5.03033L0.46967 4.03033C0.176777 3.73744 0.176777 3.26256 0.46967 2.96967C0.762563 2.67678 1.23744 2.67678 1.53033 2.96967L2 3.43934L4.46967 0.96967C4.76256 0.676777 5.23744 0.676777 5.53033 0.96967Z" fill="#101010"/>
<path fill-rule="evenodd" clip-rule="evenodd" d="M5.53033 7.96967C5.82322 8.26256 5.82322 8.73744 5.53033 9.03033L2.53033 12.0303C2.23744 12.3232 1.76256 12.3232 1.46967 12.0303L0.46967 11.0303C0.176777 10.7374 0.176777 10.2626 0.46967 9.96967C0.762563 9.67678 1.23744 9.67678 1.53033 9.96967L2 10.4393L4.46967 7.96967C4.76256 7.67678 5.23744 7.67678 5.53033 7.96967Z" fill="#101010"/>
<path fill-rule="evenodd" clip-rule="evenodd" d="M5.53033 14.9697C5.82322 15.2626 5.82322 15.7374 5.53033 16.0303L2.53033 19.0303C2.23744 19.3232 1.76256 19.3232 1.46967 19.0303L0.46967 18.0303C0.176777 17.7374 0.176777 17.2626 0.46967 16.9697C0.762563 16.6768 1.23744 16.6768 1.53033 16.9697L2 17.4393L4.46967 14.9697C4.76256 14.6768 5.23744 14.6768 5.53033 14.9697Z" fill="#101010"/>
</svg>
