<svg width="16" height="20" viewBox="0 0 16 20" fill="none" xmlns="http://www.w3.org/2000/svg">
<path fill-rule="evenodd" clip-rule="evenodd" d="M4.87207 1C4.87207 0.585786 5.20786 0.25 5.62207 0.25H14.8721C15.2863 0.25 15.6221 0.585786 15.6221 1C15.6221 1.41421 15.2863 1.75 14.8721 1.75H5.62207C5.20786 1.75 4.87207 1.41421 4.87207 1Z" fill="#101010"/>
<path fill-rule="evenodd" clip-rule="evenodd" d="M0.37207 19C0.37207 18.5858 0.707857 18.25 1.12207 18.25H10.3721C10.7863 18.25 11.1221 18.5858 11.1221 19C11.1221 19.4142 10.7863 19.75 10.3721 19.75H1.12207C0.707857 19.75 0.37207 19.4142 0.37207 19Z" fill="#101010"/>
<path fill-rule="evenodd" clip-rule="evenodd" d="M10.434 0.272448C10.8359 0.37291 11.0802 0.780111 10.9797 1.18196L6.47974 19.182C6.37928 19.5838 5.97207 19.8281 5.57023 19.7277C5.16838 19.6272 4.92406 19.22 5.02452 18.8182L9.52452 0.818154C9.62499 0.416307 10.0322 0.171987 10.434 0.272448Z" fill="#101010"/>
</svg>
