<svg width="20" height="18" viewBox="0 0 20 18" fill="none" xmlns="http://www.w3.org/2000/svg">
<path fill-rule="evenodd" clip-rule="evenodd" d="M0.251953 1.5C0.251953 1.08579 0.58774 0.75 1.00195 0.75H10.002C10.4162 0.75 10.752 1.08579 10.752 1.5C10.752 1.91421 10.4162 2.25 10.002 2.25H1.00195C0.58774 2.25 0.251953 1.91421 0.251953 1.5Z" fill="#101010"/>
<path fill-rule="evenodd" clip-rule="evenodd" d="M0.251953 6.5C0.251953 6.08579 0.58774 5.75 1.00195 5.75H10.002C10.4162 5.75 10.752 6.08579 10.752 6.5C10.752 6.91421 10.4162 7.25 10.002 7.25H1.00195C0.58774 7.25 0.251953 6.91421 0.251953 6.5Z" fill="#101010"/>
<path fill-rule="evenodd" clip-rule="evenodd" d="M0.251953 11.5C0.251953 11.0858 0.58774 10.75 1.00195 10.75H19.002C19.4162 10.75 19.752 11.0858 19.752 11.5C19.752 11.9142 19.4162 12.25 19.002 12.25H1.00195C0.58774 12.25 0.251953 11.9142 0.251953 11.5Z" fill="#101010"/>
<path fill-rule="evenodd" clip-rule="evenodd" d="M0.251953 16.5C0.251953 16.0858 0.58774 15.75 1.00195 15.75H19.002C19.4162 15.75 19.752 16.0858 19.752 16.5C19.752 16.9142 19.4162 17.25 19.002 17.25H1.00195C0.58774 17.25 0.251953 16.9142 0.251953 16.5Z" fill="#101010"/>
</svg>
