<svg width="16" height="20" viewBox="0 0 16 20" fill="none" xmlns="http://www.w3.org/2000/svg">
<path fill-rule="evenodd" clip-rule="evenodd" d="M0.251953 19C0.251953 18.5858 0.58774 18.25 1.00195 18.25H15.002C15.4162 18.25 15.752 18.5858 15.752 19C15.752 19.4142 15.4162 19.75 15.002 19.75H1.00195C0.58774 19.75 0.251953 19.4142 0.251953 19Z" fill="#101010"/>
<path fill-rule="evenodd" clip-rule="evenodd" d="M1.00195 0.25C1.41617 0.25 1.75195 0.585786 1.75195 1V8C1.75195 11.4558 4.54617 14.25 8.00195 14.25C11.4577 14.25 14.252 11.4558 14.252 8V1C14.252 0.585786 14.5877 0.25 15.002 0.25C15.4162 0.25 15.752 0.585786 15.752 1V8C15.752 12.2842 12.2862 15.75 8.00195 15.75C3.71774 15.75 0.251953 12.2842 0.251953 8V1C0.251953 0.585786 0.58774 0.25 1.00195 0.25Z" fill="#101010"/>
</svg>
