<svg width="22" height="18" viewBox="0 0 22 18" fill="none" xmlns="http://www.w3.org/2000/svg">
<path fill-rule="evenodd" clip-rule="evenodd" d="M1.46967 1.46967C2.45818 0.481164 4.00536 0.25 6 0.25H16C17.9946 0.25 19.5418 0.481164 20.5303 1.46967C21.5188 2.45818 21.75 4.00536 21.75 6V7C21.75 7.41421 21.4142 7.75 21 7.75C20.0342 7.75 19.25 8.53421 19.25 9.5C19.25 10.4658 20.0342 11.25 21 11.25C21.4142 11.25 21.75 11.5858 21.75 12C21.75 13.9946 21.5188 15.5418 20.5303 16.5303C19.5418 17.5188 17.9946 17.75 16 17.75H6C4.00536 17.75 2.45818 17.5188 1.46967 16.5303C0.481164 15.5418 0.25 13.9946 0.25 12V11.5C0.25 11.0858 0.585786 10.75 1 10.75C1.96579 10.75 2.75 9.96579 2.75 9C2.75 8.03421 1.96579 7.25 1 7.25C0.585786 7.25 0.25 6.91421 0.25 6.5V6C0.25 4.00536 0.481164 2.45818 1.46967 1.46967ZM1.75061 5.8372C3.18324 6.17623 4.25 7.46412 4.25 9C4.25 10.5359 3.18324 11.8238 1.75061 12.1628C1.76494 14.0573 2.03288 14.9722 2.53033 15.4697C3.04182 15.9812 3.99464 16.25 6 16.25H16C18.0054 16.25 18.9582 15.9812 19.4697 15.4697C19.9214 15.0179 20.1839 14.2218 20.239 12.6603C18.8116 12.3176 17.75 11.0322 17.75 9.5C17.75 7.9639 18.8171 6.67586 20.25 6.33706V6C20.25 3.99464 19.9812 3.04182 19.4697 2.53033C18.9582 2.01884 18.0054 1.75 16 1.75H6C3.99464 1.75 3.04182 2.01884 2.53033 2.53033C2.03288 3.02778 1.76494 3.94266 1.75061 5.8372Z" fill="#101010"/>
<path fill-rule="evenodd" clip-rule="evenodd" d="M14.5303 5.21967C14.8232 5.51256 14.8232 5.98744 14.5303 6.28033L8.53033 12.2803C8.23744 12.5732 7.76256 12.5732 7.46967 12.2803C7.17678 11.9874 7.17678 11.5126 7.46967 11.2197L13.4697 5.21967C13.7626 4.92678 14.2374 4.92678 14.5303 5.21967Z" fill="#101010"/>
<path fill-rule="evenodd" clip-rule="evenodd" d="M12.9941 11.75C12.9941 11.1977 13.4419 10.75 13.9941 10.75H14.0031C14.5554 10.75 15.0031 11.1977 15.0031 11.75C15.0031 12.3023 14.5554 12.75 14.0031 12.75H13.9941C13.4419 12.75 12.9941 12.3023 12.9941 11.75Z" fill="#101010"/>
<path fill-rule="evenodd" clip-rule="evenodd" d="M6.99414 6.25C6.99414 5.69772 7.44186 5.25 7.99414 5.25H8.00312C8.55541 5.25 9.00312 5.69772 9.00312 6.25C9.00312 6.80228 8.55541 7.25 8.00312 7.25H7.99414C7.44186 7.25 6.99414 6.80228 6.99414 6.25Z" fill="#101010"/>
</svg>
