<svg width="22" height="22" viewBox="0 0 22 22" fill="none" xmlns="http://www.w3.org/2000/svg">
<path fill-rule="evenodd" clip-rule="evenodd" d="M0.25 11C0.25 5.08579 5.08579 0.25 11 0.25C16.9142 0.25 21.75 5.08579 21.75 11C21.75 16.9142 16.9142 21.75 11 21.75C5.08579 21.75 0.25 16.9142 0.25 11ZM11 1.75C5.91421 1.75 1.75 5.91421 1.75 11C1.75 16.0858 5.91421 20.25 11 20.25C16.0858 20.25 20.25 16.0858 20.25 11C20.25 5.91421 16.0858 1.75 11 1.75Z" fill="#101010"/>
<path fill-rule="evenodd" clip-rule="evenodd" d="M15.7808 7.64006C16.0734 7.93321 16.073 8.40809 15.7799 8.70072L10.1099 14.3607C9.81689 14.6532 9.34238 14.653 9.04967 14.3603L6.21967 11.5303C5.92678 11.2374 5.92678 10.7625 6.21967 10.4696C6.51256 10.1767 6.98744 10.1767 7.28033 10.4696L9.58047 12.7697L14.7201 7.63912C15.0133 7.34649 15.4882 7.34691 15.7808 7.64006Z" fill="#101010"/>
</svg>
