<svg width="22" height="22" viewBox="0 0 22 22" fill="none" xmlns="http://www.w3.org/2000/svg">
<path fill-rule="evenodd" clip-rule="evenodd" d="M2.2515 10.2153C3.59607 10.5537 4.6 11.7771 4.6 13.2225C4.6 14.668 3.59581 15.8916 2.25097 16.2298C2.26836 17.9744 2.5203 18.8046 2.96908 19.2534C3.43445 19.7188 4.31005 19.9725 6.19 19.9725H15.57C17.45 19.9725 18.3255 19.7188 18.7909 19.2534C19.1985 18.8458 19.4437 18.1236 19.4983 16.6876C18.1612 16.3482 17.16 15.1372 17.16 13.6925C17.16 12.2368 18.1583 11.0276 19.5 10.6939V10.4125C19.5 8.53252 19.2463 7.65692 18.7809 7.19155C18.3155 6.72618 17.44 6.47247 15.56 6.47247H6.19C4.31005 6.47247 3.43735 6.72621 2.9733 7.19108C2.52494 7.64024 2.27351 8.4708 2.2515 10.2153ZM1.9117 6.13136C2.85265 5.18874 4.31995 4.97247 6.19 4.97247H15.56C17.43 4.97247 18.8995 5.18876 19.8416 6.13089C20.7837 7.07302 21 8.54243 21 10.4125V11.3525C21 11.7667 20.6642 12.1025 20.25 12.1025C19.3721 12.1025 18.66 12.8088 18.66 13.6925C18.66 14.5641 19.38 15.2825 20.26 15.2825C20.6742 15.2825 21.01 15.6183 21.01 16.0325C21.01 17.9025 20.7937 19.3719 19.8516 20.3141C18.9095 21.2562 17.44 21.4725 15.57 21.4725H6.19C4.31995 21.4725 2.85055 21.2562 1.90842 20.3141C0.966291 19.3719 0.75 17.9025 0.75 16.0325V15.5725C0.75 15.1583 1.08579 14.8225 1.5 14.8225C2.37579 14.8225 3.1 14.0983 3.1 13.2225C3.1 12.3467 2.37579 11.6225 1.5 11.6225C1.08579 11.6225 0.75 11.2867 0.75 10.8725V10.4125L0.750003 10.4105C0.754986 8.54162 0.971796 7.07294 1.9117 6.13136Z" fill="#101010"/>
<path fill-rule="evenodd" clip-rule="evenodd" d="M12.0411 1.75C11.4806 1.75 10.7798 2.12449 9.58145 3.32283L7.93178 4.9725H14.2715C14.2502 4.4509 14.3752 3.92693 14.6409 3.46291L14.5008 3.32283C13.3024 2.12449 12.6016 1.75 12.0411 1.75ZM12.0411 0.25C13.2756 0.25 14.3698 1.07051 15.5614 2.26217L16.1614 2.86217C16.3021 3.00282 16.3811 3.19359 16.3811 3.3925C16.3811 3.59141 16.3021 3.78218 16.1614 3.92283C15.7554 4.32888 15.6637 4.91969 15.8905 5.40485C15.9991 5.63714 15.9815 5.90882 15.8439 6.12516C15.7062 6.34149 15.4675 6.4725 15.2111 6.4725H6.12112C5.81777 6.4725 5.54429 6.28977 5.42821 6.00951C5.31212 5.72926 5.37629 5.40667 5.59079 5.19217L8.52079 2.26217C9.71245 1.07051 10.8066 0.25 12.0411 0.25Z" fill="#101010"/>
<path fill-rule="evenodd" clip-rule="evenodd" d="M8.87891 4.97266C9.29312 4.97266 9.62891 5.30844 9.62891 5.72266L9.62891 7.59766C9.62891 8.01187 9.29312 8.34766 8.87891 8.34766C8.46469 8.34766 8.12891 8.01187 8.12891 7.59766L8.12891 5.72266C8.12891 5.30844 8.46469 4.97266 8.87891 4.97266ZM8.87891 10.5977C9.29312 10.5977 9.62891 10.9334 9.62891 11.3477L9.62891 15.0977C9.62891 15.5119 9.29312 15.8477 8.87891 15.8477C8.46469 15.8477 8.12891 15.5119 8.12891 15.0977L8.12891 11.3477C8.12891 10.9334 8.46469 10.5977 8.87891 10.5977ZM8.87891 18.0977C9.29312 18.0977 9.62891 18.4334 9.62891 18.8477L9.62891 20.7227C9.62891 21.1369 9.29312 21.4727 8.87891 21.4727C8.46469 21.4727 8.12891 21.1369 8.12891 20.7227L8.12891 18.8477C8.12891 18.4334 8.46469 18.0977 8.87891 18.0977Z" fill="#101010"/>
</svg>
