<svg width="20" height="22" viewBox="0 0 20 22" fill="none" xmlns="http://www.w3.org/2000/svg">
<path fill-rule="evenodd" clip-rule="evenodd" d="M10 6.25C10.4142 6.25 10.75 6.58579 10.75 7V12C10.75 12.4142 10.4142 12.75 10 12.75C9.58579 12.75 9.25 12.4142 9.25 12V7C9.25 6.58579 9.58579 6.25 10 6.25Z" fill="#101010"/>
<path fill-rule="evenodd" clip-rule="evenodd" d="M10 4.25C5.58421 4.25 2 7.83421 2 12.25C2 16.6658 5.58421 20.25 10 20.25C10.4142 20.25 10.75 20.5858 10.75 21C10.75 21.4142 10.4142 21.75 10 21.75C4.75579 21.75 0.5 17.4942 0.5 12.25C0.5 7.00579 4.75579 2.75 10 2.75C15.2442 2.75 19.5 7.00579 19.5 12.25C19.5 12.6642 19.1642 13 18.75 13C18.3358 13 18 12.6642 18 12.25C18 7.83421 14.4158 4.25 10 4.25Z" fill="#101010"/>
<path fill-rule="evenodd" clip-rule="evenodd" d="M6.25 1C6.25 0.585786 6.58579 0.25 7 0.25H13C13.4142 0.25 13.75 0.585786 13.75 1C13.75 1.41421 13.4142 1.75 13 1.75H7C6.58579 1.75 6.25 1.41421 6.25 1Z" fill="#101010"/>
<path fill-rule="evenodd" clip-rule="evenodd" d="M13.9398 15.5336C13.8413 15.5905 13.6504 15.7874 13.6504 16.3401V18.6701C13.6504 19.2227 13.8413 19.4197 13.9398 19.4765C14.0381 19.5331 14.3043 19.5999 14.7838 19.3215L16.7838 18.1615C17.2656 17.8817 17.3404 17.6178 17.3404 17.5051C17.3404 17.3923 17.2656 17.1284 16.7838 16.8487L14.7841 15.6888C14.3046 15.4104 14.0381 15.477 13.9398 15.5336ZM15.5367 14.3913C14.7763 13.9499 13.9125 13.8182 13.1909 14.234C12.4695 14.6497 12.1504 15.4627 12.1504 16.3401V18.6701C12.1504 19.5474 12.4695 20.3605 13.1909 20.7761C13.9126 21.192 14.7765 21.0602 15.537 20.6187L17.5367 19.4588C18.2948 19.0186 18.8404 18.3373 18.8404 17.5051C18.8404 16.6728 18.2952 15.9917 17.537 15.5515L15.5367 14.3913C15.5366 14.3912 15.5368 14.3913 15.5367 14.3913Z" fill="#101010"/>
</svg>
