<svg width="16" height="22" viewBox="0 0 16 22" fill="none" xmlns="http://www.w3.org/2000/svg">
<path fill-rule="evenodd" clip-rule="evenodd" d="M2.15955 0.930721C2.83379 0.486181 3.70978 0.25 4.75972 0.25H11.2397C12.2897 0.25 13.1657 0.486181 13.8399 0.930721C14.5207 1.3796 14.9545 2.01492 15.1453 2.72544C15.5209 4.12387 14.9439 5.70561 13.7635 6.77557C13.7635 6.77561 13.7636 6.77553 13.7635 6.77557L9.11491 11L13.7634 15.2243C13.7635 15.2244 13.7633 15.2242 13.7634 15.2243C14.9436 16.2943 15.5209 17.8762 15.1453 19.2746C14.9545 19.9851 14.5207 20.6204 13.8399 21.0693C13.1657 21.5138 12.2897 21.75 11.2397 21.75H4.75972C3.70978 21.75 2.83379 21.5138 2.15955 21.0693C1.47873 20.6204 1.045 19.9851 0.854148 19.2746C0.478586 17.8764 1.05535 16.2949 2.23532 15.2249L6.88454 11L2.23604 6.7757C2.23591 6.77558 2.23616 6.77581 2.23604 6.7757C1.05584 5.70573 0.478551 4.12377 0.854148 2.72544C1.045 2.01492 1.47873 1.3796 2.15955 0.930721ZM7.99972 9.98658L12.7553 5.66495C13.6049 4.89492 13.8985 3.86608 13.6966 3.11456C13.5987 2.75008 13.3819 2.4254 13.0142 2.18303C12.64 1.93632 12.0698 1.75 11.2397 1.75H4.75972C3.92967 1.75 3.35941 1.93632 2.98521 2.18303C2.6176 2.4254 2.4007 2.75008 2.3028 3.11456C2.10094 3.86608 2.39386 4.89427 3.24341 5.6643L7.99972 9.98658ZM7.99972 12.0134L3.24412 16.3351C2.39458 17.1051 2.10094 18.1339 2.3028 18.8854C2.4007 19.2499 2.6176 19.5746 2.98521 19.817C3.35941 20.0637 3.92967 20.25 4.75972 20.25H11.2397C12.0698 20.25 12.64 20.0637 13.0142 19.817C13.3819 19.5746 13.5987 19.2499 13.6966 18.8854C13.8985 18.1339 13.6056 17.1057 12.756 16.3357L7.99972 12.0134Z" fill="#101010"/>
</svg>
