<svg width="22" height="18" viewBox="0 0 22 18" fill="none" xmlns="http://www.w3.org/2000/svg">
<path fill-rule="evenodd" clip-rule="evenodd" d="M4.61967 5.11967C5.27914 4.4602 6.22603 4.25 7.3 4.25H9.7C10.774 4.25 11.7209 4.4602 12.3803 5.11967C13.0398 5.77914 13.25 6.72603 13.25 7.8V10.2C13.25 11.274 13.0398 12.2209 12.3803 12.8803C11.7209 13.5398 10.774 13.75 9.7 13.75H7.3C6.22603 13.75 5.27914 13.5398 4.61967 12.8803C3.9602 12.2209 3.75 11.274 3.75 10.2V7.8C3.75 6.72603 3.9602 5.77914 4.61967 5.11967ZM5.68033 6.18033C5.4398 6.42086 5.25 6.87397 5.25 7.8V10.2C5.25 11.126 5.4398 11.5791 5.68033 11.8197C5.92086 12.0602 6.37397 12.25 7.3 12.25H9.7C10.626 12.25 11.0791 12.0602 11.3197 11.8197C11.5602 11.5791 11.75 11.126 11.75 10.2V7.8C11.75 6.87397 11.5602 6.42086 11.3197 6.18033C11.0791 5.9398 10.626 5.75 9.7 5.75H7.3C6.37397 5.75 5.92086 5.9398 5.68033 6.18033Z" fill="#101010"/>
<path fill-rule="evenodd" clip-rule="evenodd" d="M2.53033 2.53033C2.01884 3.04182 1.75 3.99464 1.75 6V12C1.75 14.0054 2.01884 14.9582 2.53033 15.4697C3.04182 15.9812 3.99464 16.25 6 16.25H16C18.0054 16.25 18.9582 15.9812 19.4697 15.4697C19.9812 14.9582 20.25 14.0054 20.25 12V6C20.25 3.99464 19.9812 3.04182 19.4697 2.53033C18.9582 2.01884 18.0054 1.75 16 1.75H6C3.99464 1.75 3.04182 2.01884 2.53033 2.53033ZM1.46967 1.46967C2.45818 0.481164 4.00536 0.25 6 0.25H16C17.9946 0.25 19.5418 0.481164 20.5303 1.46967C21.5188 2.45818 21.75 4.00536 21.75 6V12C21.75 13.9946 21.5188 15.5418 20.5303 16.5303C19.5418 17.5188 17.9946 17.75 16 17.75H6C4.00536 17.75 2.45818 17.5188 1.46967 16.5303C0.481164 15.5418 0.25 13.9946 0.25 12V6C0.25 4.00536 0.481164 2.45818 1.46967 1.46967Z" fill="#101010"/>
</svg>
