<svg width="22" height="18" viewBox="0 0 22 18" fill="none" xmlns="http://www.w3.org/2000/svg">
<path fill-rule="evenodd" clip-rule="evenodd" d="M9.61967 5.11967C10.2791 4.4602 11.226 4.25 12.3 4.25H14.7C15.774 4.25 16.7209 4.4602 17.3803 5.11967C18.0398 5.77914 18.25 6.72603 18.25 7.8V10.2C18.25 11.274 18.0398 12.2209 17.3803 12.8803C16.7209 13.5398 15.774 13.75 14.7 13.75H12.3C11.226 13.75 10.2791 13.5398 9.61967 12.8803C8.9602 12.2209 8.75 11.274 8.75 10.2V7.8C8.75 6.72603 8.9602 5.77914 9.61967 5.11967ZM10.6803 6.18033C10.4398 6.42086 10.25 6.87397 10.25 7.8V10.2C10.25 11.126 10.4398 11.5791 10.6803 11.8197C10.9209 12.0602 11.374 12.25 12.3 12.25H14.7C15.626 12.25 16.0791 12.0602 16.3197 11.8197C16.5602 11.5791 16.75 11.126 16.75 10.2V7.8C16.75 6.87397 16.5602 6.42086 16.3197 6.18033C16.0791 5.9398 15.626 5.75 14.7 5.75H12.3C11.374 5.75 10.9209 5.9398 10.6803 6.18033Z" fill="#101010"/>
<path fill-rule="evenodd" clip-rule="evenodd" d="M2.53033 2.53033C2.01884 3.04182 1.75 3.99464 1.75 6V12C1.75 14.0054 2.01884 14.9582 2.53033 15.4697C3.04182 15.9812 3.99464 16.25 6 16.25H16C18.0054 16.25 18.9582 15.9812 19.4697 15.4697C19.9812 14.9582 20.25 14.0054 20.25 12V6C20.25 3.99464 19.9812 3.04182 19.4697 2.53033C18.9582 2.01884 18.0054 1.75 16 1.75H6C3.99464 1.75 3.04182 2.01884 2.53033 2.53033ZM1.46967 1.46967C2.45818 0.481164 4.00536 0.25 6 0.25H16C17.9946 0.25 19.5418 0.481164 20.5303 1.46967C21.5188 2.45818 21.75 4.00536 21.75 6V12C21.75 13.9946 21.5188 15.5418 20.5303 16.5303C19.5418 17.5188 17.9946 17.75 16 17.75H6C4.00536 17.75 2.45818 17.5188 1.46967 16.5303C0.481164 15.5418 0.25 13.9946 0.25 12V6C0.25 4.00536 0.481164 2.45818 1.46967 1.46967Z" fill="#101010"/>
</svg>
