<svg width="22" height="18" viewBox="0 0 22 18" fill="none" xmlns="http://www.w3.org/2000/svg">
<path fill-rule="evenodd" clip-rule="evenodd" d="M9 1.75C4.99421 1.75 1.75 4.99421 1.75 9C1.75 13.0058 4.99421 16.25 9 16.25H13C17.0058 16.25 20.25 13.0058 20.25 9C20.25 4.99421 17.0058 1.75 13 1.75H9ZM0.25 9C0.25 4.16579 4.16579 0.25 9 0.25H13C17.8342 0.25 21.75 4.16579 21.75 9C21.75 13.8342 17.8342 17.75 13 17.75H9C4.16579 17.75 0.25 13.8342 0.25 9Z" fill="#101010"/>
<path fill-rule="evenodd" clip-rule="evenodd" d="M9 5.75C7.20507 5.75 5.75 7.20507 5.75 9C5.75 10.7949 7.20507 12.25 9 12.25C10.7949 12.25 12.25 10.7949 12.25 9C12.25 7.20507 10.7949 5.75 9 5.75ZM4.25 9C4.25 6.37665 6.37665 4.25 9 4.25C11.6234 4.25 13.75 6.37665 13.75 9C13.75 11.6234 11.6234 13.75 9 13.75C6.37665 13.75 4.25 11.6234 4.25 9Z" fill="#101010"/>
</svg>
