<svg width="22" height="22" viewBox="0 0 22 22" fill="none" xmlns="http://www.w3.org/2000/svg">
<path fill-rule="evenodd" clip-rule="evenodd" d="M8.75174 7.35724C11.7491 7.87968 14.1203 10.2509 14.6428 13.2483C17.7526 13.1725 20.25 10.6281 20.25 7.5C20.25 4.32421 17.6758 1.75 14.5 1.75C11.3719 1.75 8.82751 4.24742 8.75174 7.35724ZM7.25 7.5C7.25 3.49579 10.4958 0.25 14.5 0.25C18.5042 0.25 21.75 3.49579 21.75 7.5C21.75 11.5042 18.5042 14.75 14.5 14.75C14.3049 14.75 14.1042 14.7386 13.936 14.7287C13.5621 14.7067 13.2618 14.4123 13.2323 14.039C13.0113 11.2367 10.7633 8.98867 7.96102 8.76767C7.58768 8.73822 7.29327 8.43789 7.27128 8.06403C7.26139 7.89583 7.25 7.69505 7.25 7.5Z" fill="#101010"/>
<path fill-rule="evenodd" clip-rule="evenodd" d="M7.5 8.75C4.32421 8.75 1.75 11.3242 1.75 14.5C1.75 17.6758 4.32421 20.25 7.5 20.25C10.6758 20.25 13.25 17.6758 13.25 14.5C13.25 14.3572 13.2417 14.2006 13.2318 14.0317C13.0076 11.2352 10.7648 8.99236 7.96828 8.76824C7.79941 8.75833 7.64279 8.75 7.5 8.75ZM0.25 14.5C0.25 10.4958 3.49579 7.25 7.5 7.25C7.69505 7.25 7.89583 7.26139 8.06403 7.27128L8.07895 7.27231C11.6166 7.55131 14.4487 10.3834 14.7277 13.921L14.7287 13.936C14.7386 14.1042 14.75 14.3049 14.75 14.5C14.75 18.5042 11.5042 21.75 7.5 21.75C3.49579 21.75 0.25 18.5042 0.25 14.5Z" fill="#101010"/>
<path fill-rule="evenodd" clip-rule="evenodd" d="M0.25 2C0.25 1.03579 1.03579 0.25 2 0.25H4.59C6.16011 0.25 6.91077 2.14247 5.83454 3.23606L5.83033 3.24034L5.83032 3.24032L3.24032 5.83032C2.1354 6.93524 0.25 6.14471 0.25 4.59V2ZM2 1.75C1.86421 1.75 1.75 1.86421 1.75 2V4.59C1.75 4.81528 2.02458 4.92474 2.17966 4.76966L4.76691 2.18241C4.84324 2.10379 4.85887 2.00412 4.81784 1.90456C4.77736 1.80636 4.69964 1.75 4.59 1.75H2Z" fill="#101010"/>
<path fill-rule="evenodd" clip-rule="evenodd" d="M18.7594 16.1697C19.8643 15.0648 21.7497 15.8553 21.7497 17.41V20C21.7497 20.9642 20.9639 21.75 19.9997 21.75H17.4097C15.8396 21.75 15.0889 19.8576 16.1652 18.764L16.1694 18.7597L16.1694 18.7597L18.7594 16.1697ZM20.2497 17.41C20.2497 17.1848 19.9751 17.0753 19.8201 17.2304L17.2328 19.8176C17.1565 19.8962 17.1408 19.9959 17.1819 20.0955C17.2224 20.1937 17.3001 20.25 17.4097 20.25H19.9997C20.1355 20.25 20.2497 20.1358 20.2497 20V17.41Z" fill="#101010"/>
</svg>
