<svg width="20" height="22" viewBox="0 0 20 22" fill="none" xmlns="http://www.w3.org/2000/svg">
<path fill-rule="evenodd" clip-rule="evenodd" d="M1.89188 1.49637C2.83802 0.485039 4.32557 0.25 6.21707 0.25H13.7771C15.6686 0.25 17.1561 0.485039 18.1023 1.49637C19.0318 2.48991 19.2471 4.03644 19.2471 6.04V17.31C19.2471 18.0349 19.1494 18.6769 18.9376 19.1986C18.7249 19.7228 18.3732 20.1764 17.8468 20.4036C17.3149 20.6332 16.7453 20.5712 16.2257 20.3471C15.7134 20.1262 15.2073 19.7332 14.7197 19.2128L14.7184 19.2113C14.4494 18.9226 14.1433 18.8193 13.8753 18.8339C13.6071 18.8485 13.3136 18.9847 13.0772 19.2998C13.0772 19.2999 13.0773 19.2997 13.0772 19.2998L12.0676 20.6493L12.0651 20.6527C11.5397 21.3466 10.8004 21.7525 10.0021 21.7525C9.20376 21.7525 8.46439 21.3466 7.93908 20.6527L7.93653 20.6493L6.92707 19.3C6.92697 19.2999 6.92717 19.3001 6.92707 19.3C6.69072 18.9851 6.39698 18.8485 6.12878 18.8339C5.86081 18.8193 5.55477 18.9226 5.28577 19.2113L5.28448 19.2127C4.79909 19.731 4.294 20.1228 3.78175 20.3431C3.26217 20.5665 2.69286 20.6277 2.16092 20.3991C1.63432 20.1727 1.28037 19.7206 1.06486 19.1959C0.850386 18.6736 0.7498 18.0304 0.747076 17.3028L0.74707 17.3V6.04C0.74707 4.03644 0.96239 2.48991 1.89188 1.49637ZM2.98726 2.52113C2.50175 3.0401 2.24707 4.01356 2.24707 6.04V17.2986C2.24947 17.9053 2.33509 18.3404 2.45241 18.626C2.56876 18.9094 2.69231 18.9948 2.75321 19.0209C2.80876 19.0448 2.93696 19.0735 3.18925 18.9651C3.44888 18.8534 3.79003 18.614 4.18964 18.1873L4.73706 18.7L4.18835 18.1887C4.73936 17.5974 5.46832 17.2957 6.21034 17.3361C6.95204 17.3765 7.64347 17.7552 8.12707 18.4L9.13505 19.7473C9.13545 19.7478 9.13585 19.7484 9.13625 19.7489C9.42064 20.1238 9.74073 20.2525 10.0021 20.2525C10.2634 20.2525 10.5835 20.1237 10.8679 19.7489C10.8683 19.7483 10.8687 19.7478 10.8691 19.7473L11.8765 18.4007C12.3601 17.7559 13.0521 17.3765 13.7938 17.3361C14.5354 17.2957 15.264 17.5971 15.8149 18.1877C16.2171 18.617 16.5596 18.8576 16.8197 18.9697C17.0726 19.0788 17.1992 19.0493 17.2524 19.0264C17.3109 19.0011 17.433 18.9172 17.5478 18.6345C17.6635 18.3494 17.7471 17.9151 17.7471 17.31V6.04C17.7471 4.01356 17.4924 3.0401 17.0069 2.52113C16.538 2.01996 15.6656 1.75 13.7771 1.75H6.21707C4.32857 1.75 3.45613 2.01996 2.98726 2.52113Z" fill="#101010"/>
<path fill-rule="evenodd" clip-rule="evenodd" d="M6.50879 9C6.50879 8.58579 6.84458 8.25 7.25879 8.25H12.7588C13.173 8.25 13.5088 8.58579 13.5088 9C13.5088 9.41421 13.173 9.75 12.7588 9.75H7.25879C6.84458 9.75 6.50879 9.41421 6.50879 9Z" fill="#101010"/>
</svg>
