<svg width="22" height="22" viewBox="0 0 22 22" fill="none" xmlns="http://www.w3.org/2000/svg">
<path fill-rule="evenodd" clip-rule="evenodd" d="M2.09467 2.09467C3.42914 0.760201 5.42603 0.25 8 0.25H14C16.574 0.25 18.5709 0.760201 19.9053 2.09467C21.2398 3.42914 21.75 5.42603 21.75 8V14C21.75 16.574 21.2398 18.5709 19.9053 19.9053C18.5709 21.2398 16.574 21.75 14 21.75H8C5.42603 21.75 3.42914 21.2398 2.09467 19.9053C0.760201 18.5709 0.25 16.574 0.25 14V8C0.25 5.42603 0.760201 3.42914 2.09467 2.09467ZM3.15533 3.15533C2.2398 4.07086 1.75 5.57397 1.75 8V14C1.75 16.426 2.2398 17.9291 3.15533 18.8447C4.07086 19.7602 5.57397 20.25 8 20.25H14C16.426 20.25 17.9291 19.7602 18.8447 18.8447C19.7602 17.9291 20.25 16.426 20.25 14V8C20.25 5.57397 19.7602 4.07086 18.8447 3.15533C17.9291 2.2398 16.426 1.75 14 1.75H8C5.57397 1.75 4.07086 2.2398 3.15533 3.15533Z" fill="#101010"/>
<path fill-rule="evenodd" clip-rule="evenodd" d="M6.36586 7.17361C7.67861 7.04136 9.00329 6.96997 10.3297 6.96997C12.5446 6.96997 14.7698 7.08122 16.975 7.30376C17.3871 7.34535 17.6875 7.71316 17.6459 8.12528C17.6043 8.5374 17.2365 8.83777 16.8243 8.79618C14.6695 8.57872 12.4947 8.46997 10.3297 8.46997C9.0565 8.46997 7.78165 8.53853 6.51486 8.66619L6.51208 8.66647L6.51208 8.66646L5.17209 8.79647C4.75981 8.83647 4.39317 8.53467 4.35317 8.1224C4.31317 7.71012 4.61496 7.34348 5.02724 7.30348L6.36586 7.17361Z" fill="#101010"/>
<path fill-rule="evenodd" clip-rule="evenodd" d="M9.6568 6.31121C9.63406 6.38794 9.61713 6.48429 9.5905 6.64936L9.45033 7.51044C9.38378 7.91928 8.9984 8.19675 8.58957 8.13019C8.18074 8.06364 7.90327 7.67826 7.96982 7.26943L8.10964 6.41051C8.10967 6.41034 8.10962 6.41069 8.10964 6.41051C8.11215 6.39496 8.11482 6.3779 8.11755 6.36047C8.1591 6.09478 8.23312 5.62154 8.55278 5.25754C8.93651 4.82059 9.50503 4.68994 10.1401 4.68994H11.8601C12.504 4.68994 13.0699 4.82975 13.4505 5.26861C13.7648 5.63108 13.84 6.09809 13.8816 6.35586C13.8845 6.37384 13.8872 6.3908 13.8899 6.40664L13.8901 6.40805L14.0301 7.25806C14.0974 7.66677 13.8207 8.05266 13.4119 8.11997C13.0032 8.18729 12.6173 7.91054 12.55 7.50183L12.4103 6.65324C12.4102 6.65301 12.4103 6.65346 12.4103 6.65324C12.3835 6.49254 12.3667 6.39777 12.3438 6.32106C12.3324 6.28319 12.3233 6.26336 12.3187 6.25459C12.2861 6.23623 12.1693 6.18994 11.8601 6.18994H10.1401C9.8336 6.18994 9.71385 6.23339 9.67854 6.2516C9.67393 6.26111 9.6662 6.27952 9.6568 6.31121ZM9.6663 6.25947C9.66608 6.25932 9.6679 6.25767 9.67243 6.25497C9.66879 6.25827 9.66653 6.25962 9.6663 6.25947ZM12.329 6.26195C12.3288 6.26214 12.3262 6.26058 12.3223 6.25673C12.3273 6.25984 12.3293 6.26177 12.329 6.26195Z" fill="#101010"/>
<path fill-rule="evenodd" clip-rule="evenodd" d="M6.45127 7.3815C6.86461 7.35457 7.22151 7.66781 7.24844 8.08115L7.67829 14.679C7.67832 14.6794 7.67834 14.6797 7.67836 14.6801C7.69657 14.9478 7.71117 15.14 7.74383 15.303C7.775 15.4585 7.8133 15.5333 7.84483 15.5743C7.88109 15.6215 8.05041 15.8099 8.89003 15.8099H13.1C13.9396 15.8099 14.109 15.6215 14.1452 15.5743C14.1767 15.5333 14.215 15.4585 14.2462 15.303C14.2789 15.14 14.2935 14.9479 14.3117 14.6801C14.3117 14.6797 14.3117 14.6794 14.3118 14.679L14.7416 8.08115C14.7685 7.66781 15.1255 7.35457 15.5388 7.3815C15.9521 7.40843 16.2654 7.76533 16.2384 8.17867L15.8084 14.7787L15.8083 14.7808L15.8072 14.7965C15.7907 15.0399 15.7712 15.3271 15.717 15.5978C15.66 15.8819 15.5558 16.2003 15.3348 16.488C14.8661 17.0983 14.0904 17.3099 13.1 17.3099H8.89003C7.89964 17.3099 7.12396 17.0983 6.65522 16.488C6.43424 16.2003 6.33004 15.8819 6.27308 15.5978C6.21884 15.3271 6.19934 15.0399 6.18282 14.7965L6.18175 14.7808L6.18161 14.7787L5.75161 8.17867C5.72468 7.76533 6.03793 7.40843 6.45127 7.3815Z" fill="#101010"/>
</svg>
