<svg width="18" height="16" viewBox="0 0 18 16" fill="none" xmlns="http://www.w3.org/2000/svg">
<path fill-rule="evenodd" clip-rule="evenodd" d="M0.379883 4.30994C0.379883 3.89572 0.715669 3.55994 1.12988 3.55994H12.1299C15.3041 3.55994 17.8799 6.13572 17.8799 9.30994C17.8799 12.4841 15.3041 15.0599 12.1299 15.0599H4.12988C3.71567 15.0599 3.37988 14.7241 3.37988 14.3099C3.37988 13.8957 3.71567 13.5599 4.12988 13.5599H12.1299C14.4757 13.5599 16.3799 11.6557 16.3799 9.30994C16.3799 6.96415 14.4757 5.05994 12.1299 5.05994H1.12988C0.715669 5.05994 0.379883 4.72415 0.379883 4.30994Z" fill="#101010"/>
<path fill-rule="evenodd" clip-rule="evenodd" d="M3.96045 1.15961C4.25334 1.4525 4.25334 1.92738 3.96045 2.22027L1.93078 4.24994L3.96045 6.27961C4.25334 6.5725 4.25334 7.04738 3.96045 7.34027C3.66755 7.63316 3.19268 7.63316 2.89979 7.34027L0.339787 4.78027C0.0468939 4.48738 0.0468939 4.0125 0.339787 3.71961L2.89979 1.15961C3.19268 0.866718 3.66755 0.866718 3.96045 1.15961Z" fill="#101010"/>
</svg>
