<svg width="22" height="22" viewBox="0 0 22 22" fill="none" xmlns="http://www.w3.org/2000/svg">
<path fill-rule="evenodd" clip-rule="evenodd" d="M2.53033 10.5303C2.01884 11.0418 1.75 11.9946 1.75 14V16C1.75 18.0054 2.01884 18.9582 2.53033 19.4697C3.04182 19.9812 3.99464 20.25 6 20.25H16C18.0054 20.25 18.9582 19.9812 19.4697 19.4697C19.9812 18.9582 20.25 18.0054 20.25 16V14C20.25 11.9946 19.9812 11.0418 19.4697 10.5303C18.9582 10.0188 18.0054 9.75 16 9.75H6C3.99464 9.75 3.04182 10.0188 2.53033 10.5303ZM1.46967 9.46967C2.45818 8.48116 4.00536 8.25 6 8.25H16C17.9946 8.25 19.5418 8.48116 20.5303 9.46967C21.5188 10.4582 21.75 12.0054 21.75 14V16C21.75 17.9946 21.5188 19.5418 20.5303 20.5303C19.5418 21.5188 17.9946 21.75 16 21.75H6C4.00536 21.75 2.45818 21.5188 1.46967 20.5303C0.481164 19.5418 0.25 17.9946 0.25 16V14C0.25 12.0054 0.481164 10.4582 1.46967 9.46967Z" fill="#101010"/>
<path fill-rule="evenodd" clip-rule="evenodd" d="M6.70907 3.22924C6.00031 4.10912 5.75 5.38987 5.75 7V9C5.75 9.41421 5.41421 9.75 5 9.75C4.58579 9.75 4.25 9.41421 4.25 9V7C4.25 5.30013 4.49969 3.58088 5.54093 2.28826C6.61038 0.960615 8.37164 0.25 11 0.25C13.3438 0.25 15.0657 0.768715 16.1992 1.82671C17.3444 2.89552 17.75 4.38302 17.75 6C17.75 6.41421 17.4142 6.75 17 6.75C16.5858 6.75 16.25 6.41421 16.25 6C16.25 4.61698 15.9056 3.60448 15.1758 2.92329C14.4343 2.23128 13.1562 1.75 11 1.75C8.62836 1.75 7.38962 2.38439 6.70907 3.22924Z" fill="#101010"/>
<path fill-rule="evenodd" clip-rule="evenodd" d="M11 13.25C10.0335 13.25 9.25 14.0335 9.25 15C9.25 15.9665 10.0335 16.75 11 16.75C11.9665 16.75 12.75 15.9665 12.75 15C12.75 14.0335 11.9665 13.25 11 13.25ZM7.75 15C7.75 13.2051 9.20507 11.75 11 11.75C12.7949 11.75 14.25 13.2051 14.25 15C14.25 16.7949 12.7949 18.25 11 18.25C9.20507 18.25 7.75 16.7949 7.75 15Z" fill="#101010"/>
</svg>
