<svg width="21" height="22" viewBox="0 0 21 22" fill="none" xmlns="http://www.w3.org/2000/svg">
<path fill-rule="evenodd" clip-rule="evenodd" d="M10 1.75C7.65279 1.75 5.75 3.65279 5.75 6C5.75 8.34721 7.65279 10.25 10 10.25C12.3472 10.25 14.25 8.34721 14.25 6C14.25 3.65279 12.3472 1.75 10 1.75ZM4.25 6C4.25 2.82436 6.82436 0.25 10 0.25C13.1756 0.25 15.75 2.82436 15.75 6C15.75 9.17564 13.1756 11.75 10 11.75C6.82436 11.75 4.25 9.17564 4.25 6Z" fill="#101010"/>
<path fill-rule="evenodd" clip-rule="evenodd" d="M18.1332 13.4265C18.7964 13.3583 19.4067 13.6562 19.9502 14.1997C20.4968 14.7463 20.7982 15.3579 20.7324 16.0227C20.6706 16.6478 20.2978 17.1328 19.9502 17.4804L16.4178 21.0128C16.2712 21.1664 16.0908 21.2781 15.9427 21.3521C15.7869 21.4301 15.5974 21.5008 15.4068 21.5309L15.3944 21.5328L14.0459 21.7225C14.0456 21.7226 14.0462 21.7225 14.0459 21.7225C13.6044 21.7854 13.1485 21.6693 12.8195 21.3404C12.4906 21.0114 12.3744 20.5563 12.4373 20.1148C12.4373 20.1145 12.4372 20.1151 12.4373 20.1148L12.6289 18.7531C12.6595 18.5594 12.7318 18.3711 12.8094 18.2178C12.8869 18.0644 12.9972 17.8921 13.1395 17.7498L16.6795 14.2097C17.0272 13.8621 17.5111 13.4904 18.1332 13.4265ZM18.2865 14.9186C18.1786 14.9297 18.0026 15.008 17.7402 15.2704L14.2015 18.8091C14.201 18.8097 14.1954 18.8161 14.1861 18.8296C14.1742 18.8468 14.1608 18.8692 14.1478 18.8949C14.1349 18.9205 14.1247 18.9447 14.1178 18.9645C14.1135 18.9769 14.1114 18.9847 14.1107 18.9877L13.9368 20.2231L15.1729 20.0491C15.1761 20.0484 15.1852 20.0461 15.2 20.041C15.2214 20.0336 15.2465 20.0232 15.272 20.0105C15.2977 19.9976 15.3181 19.9852 15.3317 19.9758C15.3349 19.9736 15.3372 19.9718 15.3389 19.9706C15.3424 19.9669 15.346 19.9633 15.3495 19.9597L18.8895 16.4198C19.1519 16.1574 19.2291 15.9823 19.2397 15.8749C19.2464 15.8072 19.2429 15.6138 18.8895 15.2604C18.543 14.9139 18.3533 14.9118 18.2865 14.9186Z" fill="#101010"/>
<path fill-rule="evenodd" clip-rule="evenodd" d="M16.4987 14.5274C16.8978 14.4166 17.3112 14.6502 17.422 15.0493C17.6516 15.8759 18.2936 16.5178 19.1201 16.7474C19.5192 16.8583 19.7529 17.2717 19.642 17.6708C19.5312 18.0699 19.1177 18.3035 18.7186 18.1927C17.3852 17.8223 16.3472 16.7843 15.9768 15.4508C15.8659 15.0517 16.0996 14.6383 16.4987 14.5274Z" fill="#101010"/>
<path fill-rule="evenodd" clip-rule="evenodd" d="M10.0002 14.75C5.52305 14.75 2.16016 17.6809 2.16016 21C2.16016 21.4142 1.82437 21.75 1.41016 21.75C0.995943 21.75 0.660156 21.4142 0.660156 21C0.660156 16.5791 4.99731 13.25 10.0002 13.25C11.1123 13.25 12.1851 13.4104 13.1864 13.7118C13.583 13.8313 13.8077 14.2496 13.6883 14.6462C13.5689 15.0428 13.1506 15.2676 12.7539 15.1481C11.8952 14.8896 10.9681 14.75 10.0002 14.75Z" fill="#101010"/>
</svg>
