<svg width="23" height="23" viewBox="0 0 23 23" fill="none" xmlns="http://www.w3.org/2000/svg">
<path fill-rule="evenodd" clip-rule="evenodd" d="M10.4594 8.85999C9.3217 8.85999 8.39941 9.78228 8.39941 10.92C8.39941 12.0577 9.3217 12.98 10.4594 12.98C11.5971 12.98 12.5194 12.0577 12.5194 10.92C12.5194 9.78228 11.5971 8.85999 10.4594 8.85999ZM6.89941 10.92C6.89941 8.95385 8.49328 7.35999 10.4594 7.35999C12.4255 7.35999 14.0194 8.95385 14.0194 10.92C14.0194 12.8861 12.4255 14.48 10.4594 14.48C8.49328 14.48 6.89941 12.8861 6.89941 10.92Z" fill="#101010"/>
<path fill-rule="evenodd" clip-rule="evenodd" d="M4.51953 20.2C4.51953 17.3096 7.32608 15.22 10.4595 15.22C13.5942 15.22 16.3995 17.3206 16.3995 20.2C16.3995 20.6142 16.0637 20.95 15.6495 20.95C15.2353 20.95 14.8995 20.6142 14.8995 20.2C14.8995 18.4194 13.0648 16.72 10.4595 16.72C7.85298 16.72 6.01953 18.4104 6.01953 20.2C6.01953 20.6142 5.68374 20.95 5.26953 20.95C4.85532 20.95 4.51953 20.6142 4.51953 20.2Z" fill="#101010"/>
<path fill-rule="evenodd" clip-rule="evenodd" d="M10.5 3.75C5.66421 3.75 1.75 7.66421 1.75 12.5C1.75 17.3358 5.66421 21.25 10.5 21.25C15.3358 21.25 19.25 17.3358 19.25 12.5C19.25 11.5196 19.0858 10.5694 18.7871 9.68389C18.5297 9.72821 18.2666 9.75 18 9.75C16.7795 9.75 15.6736 9.28797 14.8413 8.53018C14.4865 8.22134 14.1777 7.8535 13.9375 7.44702C13.4979 6.73146 13.25 5.88787 13.25 5C13.25 4.7293 13.2724 4.46475 13.3156 4.20674C12.432 3.90922 11.4856 3.75 10.5 3.75ZM0.25 12.5C0.25 6.83579 4.83579 2.25 10.5 2.25C11.91 2.25 13.259 2.53 14.491 3.04876C14.8502 3.2 15.0337 3.60115 14.9133 3.9718C14.8069 4.29911 14.75 4.64097 14.75 5C14.75 5.60938 14.9205 6.18331 15.2184 6.66633L15.2265 6.67973C15.3841 6.94768 15.5911 7.19509 15.8312 7.4032L15.8461 7.41645C16.4129 7.93469 17.1641 8.25 18 8.25C18.36 8.25 18.6937 8.19282 18.9966 8.08408C19.3717 7.94944 19.7866 8.13164 19.9412 8.49894C20.4588 9.72807 20.75 11.0868 20.75 12.5C20.75 18.1642 16.1642 22.75 10.5 22.75C4.83579 22.75 0.25 18.1642 0.25 12.5Z" fill="#101010"/>
<path fill-rule="evenodd" clip-rule="evenodd" d="M18 1.75C17.089 1.75 16.2609 2.12344 15.6674 2.73314L15.6665 2.73408C15.3251 3.0836 15.0665 3.50444 14.913 3.97264C14.8068 4.29969 14.75 4.64127 14.75 5C14.75 5.60938 14.9205 6.18331 15.2184 6.66633L15.2265 6.67973C15.3841 6.94768 15.5911 7.19509 15.8312 7.4032L15.8461 7.41645C16.4129 7.93469 17.1641 8.25 18 8.25C18.36 8.25 18.6937 8.19282 18.9966 8.08408C19.0058 8.08076 19.0152 8.07763 19.0245 8.07467C19.7625 7.84204 20.3857 7.33414 20.7748 6.67765L20.7818 6.66581L20.7819 6.66588C20.9482 6.39666 21.0765 6.08422 21.1483 5.76536C21.1504 5.75578 21.1528 5.74624 21.1553 5.73675C21.218 5.50169 21.25 5.25676 21.25 5C21.25 4.17393 20.9345 3.41081 20.4129 2.83217L20.4064 2.82491L20.4064 2.82487C19.8272 2.16518 18.9617 1.75 18 1.75ZM14.593 1.68644C15.4595 0.796408 16.6713 0.25 18 0.25C19.3965 0.25 20.6696 0.853341 21.5303 1.83148C22.2868 2.67243 22.75 3.78781 22.75 5C22.75 5.37825 22.7032 5.74852 22.6085 6.10897C22.5002 6.58277 22.3111 7.04296 22.0617 7.44824C21.4929 8.40484 20.583 9.15225 19.4895 9.50085C19.0165 9.66874 18.5149 9.75 18 9.75C16.7795 9.75 15.6736 9.28797 14.8413 8.53018C14.4865 8.22135 14.1777 7.85352 13.9375 7.44703C13.498 6.73147 13.25 5.88788 13.25 5C13.25 4.47903 13.3331 3.98087 13.4867 3.50818L13.4873 3.50651L13.4873 3.50651C13.7137 2.81526 14.0948 2.19662 14.593 1.68644Z" fill="#101010"/>
<path fill-rule="evenodd" clip-rule="evenodd" d="M15.7598 4.97998C15.7598 4.56577 16.0956 4.22998 16.5098 4.22998H19.4898C19.904 4.22998 20.2398 4.56577 20.2398 4.97998C20.2398 5.39419 19.904 5.72998 19.4898 5.72998H16.5098C16.0956 5.72998 15.7598 5.39419 15.7598 4.97998Z" fill="#101010"/>
<path fill-rule="evenodd" clip-rule="evenodd" d="M18 2.77002C18.4142 2.77002 18.75 3.10581 18.75 3.52002V6.51001C18.75 6.92422 18.4142 7.26001 18 7.26001C17.5858 7.26001 17.25 6.92422 17.25 6.51001V3.52002C17.25 3.10581 17.5858 2.77002 18 2.77002Z" fill="#101010"/>
</svg>
