<svg width="21" height="22" viewBox="0 0 21 22" fill="none" xmlns="http://www.w3.org/2000/svg">
<path fill-rule="evenodd" clip-rule="evenodd" d="M10 1.75C7.65279 1.75 5.75 3.65279 5.75 6C5.75 8.34721 7.65279 10.25 10 10.25C12.3472 10.25 14.25 8.34721 14.25 6C14.25 3.65279 12.3472 1.75 10 1.75ZM4.25 6C4.25 2.82436 6.82436 0.25 10 0.25C13.1756 0.25 15.75 2.82436 15.75 6C15.75 9.17564 13.1756 11.75 10 11.75C6.82436 11.75 4.25 9.17564 4.25 6Z" fill="#101010"/>
<path fill-rule="evenodd" clip-rule="evenodd" d="M10.0002 14.75C5.52303 14.75 2.16016 17.6809 2.16016 21C2.16016 21.4142 1.82437 21.75 1.41016 21.75C0.995943 21.75 0.660156 21.4142 0.660156 21C0.660156 16.5791 4.99728 13.25 10.0002 13.25C11.0276 13.25 12.0247 13.3891 12.9596 13.647C13.3589 13.7572 13.5933 14.1701 13.4832 14.5694C13.373 14.9687 12.96 15.2031 12.5607 15.093C11.7556 14.8709 10.8927 14.75 10.0002 14.75Z" fill="#101010"/>
<path fill-rule="evenodd" clip-rule="evenodd" d="M16 13.75C15.2385 13.75 14.5316 14.0169 13.9675 14.4665L13.9662 14.4675L13.9662 14.4675C13.221 15.0588 12.75 15.9745 12.75 17C12.75 17.6094 12.9205 18.1833 13.2184 18.6663L13.2247 18.6765L13.2246 18.6766C13.7844 19.6177 14.8141 20.25 16 20.25C16.8227 20.25 17.5645 19.9499 18.1283 19.4425C18.1348 19.4367 18.1414 19.431 18.148 19.4254C18.391 19.2216 18.6052 18.9684 18.7722 18.6821L18.7816 18.6663C19.0795 18.1833 19.25 17.6094 19.25 17C19.25 15.2042 17.7958 13.75 16 13.75ZM13.0332 13.293C13.849 12.6429 14.8818 12.25 16 12.25C18.6242 12.25 20.75 14.3758 20.75 17C20.75 17.8874 20.5023 18.7305 20.0632 19.4459C19.8131 19.8725 19.4925 20.2535 19.122 20.5662C18.2871 21.3134 17.1927 21.75 16 21.75C14.268 21.75 12.7594 20.8246 11.9385 19.4486C11.4983 18.7327 11.25 17.8885 11.25 17C11.25 15.5058 11.9387 14.1617 13.0332 13.293Z" fill="#101010"/>
<path fill-rule="evenodd" clip-rule="evenodd" d="M18.111 15.5108C18.3923 15.8149 18.3738 16.2894 18.0697 16.5706L15.9397 18.5406C15.6439 18.8141 15.1849 18.8052 14.9001 18.5203L13.9101 17.5303C13.6172 17.2374 13.6172 16.7626 13.9101 16.4697C14.203 16.1768 14.6779 16.1768 14.9708 16.4697L15.4507 16.9496L17.0512 15.4694C17.3553 15.1882 17.8298 15.2067 18.111 15.5108Z" fill="#101010"/>
</svg>
