<svg width="20" height="22" viewBox="0 0 20 22" fill="none" xmlns="http://www.w3.org/2000/svg">
<path fill-rule="evenodd" clip-rule="evenodd" d="M4 1.76001C2.74764 1.76001 1.75 2.76074 1.75 3.97998V14.89C1.75 16.1093 2.74764 17.11 4 17.11H4.75C5.73267 17.11 6.69438 17.4946 7.39874 18.1981C7.39927 18.1986 7.3998 18.1991 7.40033 18.1996L9.10691 19.8862C9.59475 20.3675 10.3949 20.3678 10.8828 19.8865L12.5897 18.1996C12.5902 18.1991 12.5908 18.1985 12.5913 18.198C13.2948 17.4955 14.246 17.11 15.24 17.11H16C17.2507 17.11 18.25 16.1009 18.25 14.89V3.97998C18.25 2.76074 17.2524 1.76001 16 1.76001H4ZM0.25 3.97998C0.25 1.91923 1.93236 0.26001 4 0.26001H16C18.0676 0.26001 19.75 1.91923 19.75 3.97998V14.89C19.75 16.9391 18.0693 18.61 16 18.61H15.24C14.6347 18.61 14.0667 18.8439 13.6503 19.2603L13.6472 19.2634L11.9372 20.9534C10.8651 22.0118 9.12521 22.0121 8.05312 20.9537L6.3428 19.2634L6.33966 19.2603C5.92416 18.8448 5.34659 18.61 4.75 18.61H4C1.93236 18.61 0.25 16.9508 0.25 14.89V3.97998Z" fill="#101010"/>
<path fill-rule="evenodd" clip-rule="evenodd" d="M9.99994 5.09009C9.1273 5.09009 8.41992 5.79746 8.41992 6.67004C8.41992 7.54265 9.12733 8.25006 9.99994 8.25006C10.8725 8.25006 11.58 7.54265 11.58 6.67004C11.58 5.79746 10.8726 5.09009 9.99994 5.09009ZM6.91992 6.67004C6.91992 4.96898 8.29893 3.59009 9.99994 3.59009C11.701 3.59009 13.08 4.96898 13.08 6.67004C13.08 8.37108 11.701 9.75006 9.99994 9.75006C8.2989 9.75006 6.91992 8.37108 6.91992 6.67004Z" fill="#101010"/>
<path fill-rule="evenodd" clip-rule="evenodd" d="M5.25 14.6601C5.25 12.3099 7.52631 10.6501 10 10.6501C12.4737 10.6501 14.75 12.3099 14.75 14.6601C14.75 15.0743 14.4142 15.4101 14 15.4101C13.5858 15.4101 13.25 15.0743 13.25 14.6601C13.25 13.4103 11.9463 12.1501 10 12.1501C8.05369 12.1501 6.75 13.4103 6.75 14.6601C6.75 15.0743 6.41421 15.4101 6 15.4101C5.58579 15.4101 5.25 15.0743 5.25 14.6601Z" fill="#101010"/>
</svg>
