<svg width="21" height="22" viewBox="0 0 21 22" fill="none" xmlns="http://www.w3.org/2000/svg">
<path fill-rule="evenodd" clip-rule="evenodd" d="M10 1.75C7.65279 1.75 5.75 3.65279 5.75 6C5.75 8.34721 7.65279 10.25 10 10.25C12.3472 10.25 14.25 8.34721 14.25 6C14.25 3.65279 12.3472 1.75 10 1.75ZM4.25 6C4.25 2.82436 6.82436 0.25 10 0.25C13.1756 0.25 15.75 2.82436 15.75 6C15.75 9.17564 13.1756 11.75 10 11.75C6.82436 11.75 4.25 9.17564 4.25 6Z" fill="#101010"/>
<path fill-rule="evenodd" clip-rule="evenodd" d="M10.0002 14.75C5.52305 14.75 2.16016 17.6809 2.16016 21C2.16016 21.4142 1.82437 21.75 1.41016 21.75C0.995943 21.75 0.660156 21.4142 0.660156 21C0.660156 16.5791 4.99731 13.25 10.0002 13.25C10.4144 13.25 10.7502 13.5858 10.7502 14C10.7502 14.4142 10.4144 14.75 10.0002 14.75Z" fill="#101010"/>
<path fill-rule="evenodd" clip-rule="evenodd" d="M16.2 14.75C14.8469 14.75 13.75 15.8469 13.75 17.2C13.75 18.5531 14.8469 19.65 16.2 19.65C17.5531 19.65 18.65 18.5531 18.65 17.2C18.65 15.8469 17.5531 14.75 16.2 14.75ZM12.25 17.2C12.25 15.0185 14.0185 13.25 16.2 13.25C18.3815 13.25 20.15 15.0185 20.15 17.2C20.15 19.3815 18.3815 21.15 16.2 21.15C14.0185 21.15 12.25 19.3815 12.25 17.2Z" fill="#101010"/>
<path fill-rule="evenodd" clip-rule="evenodd" d="M18.4697 19.4697C18.7626 19.1768 19.2374 19.1768 19.5303 19.4697L20.5303 20.4697C20.8232 20.7626 20.8232 21.2374 20.5303 21.5303C20.2374 21.8232 19.7626 21.8232 19.4697 21.5303L18.4697 20.5303C18.1768 20.2374 18.1768 19.7626 18.4697 19.4697Z" fill="#101010"/>
</svg>
