<svg width="20" height="22" viewBox="0 0 20 22" fill="none" xmlns="http://www.w3.org/2000/svg">
<path fill-rule="evenodd" clip-rule="evenodd" d="M10 1.75C7.65279 1.75 5.75 3.65279 5.75 6C5.75 8.34721 7.65279 10.25 10 10.25C12.3472 10.25 14.25 8.34721 14.25 6C14.25 3.65279 12.3472 1.75 10 1.75ZM4.25 6C4.25 2.82436 6.82436 0.25 10 0.25C13.1756 0.25 15.75 2.82436 15.75 6C15.75 9.17564 13.1756 11.75 10 11.75C6.82436 11.75 4.25 9.17564 4.25 6Z" fill="#101010"/>
<path fill-rule="evenodd" clip-rule="evenodd" d="M0.660156 21C0.660156 16.5791 4.99728 13.25 10.0002 13.25C15.003 13.25 19.3401 16.5791 19.3401 21C19.3401 21.4142 19.0044 21.75 18.5901 21.75C18.1759 21.75 17.8401 21.4142 17.8401 21C17.8401 17.6809 14.4773 14.75 10.0002 14.75C5.52303 14.75 2.16016 17.6809 2.16016 21C2.16016 21.4142 1.82437 21.75 1.41016 21.75C0.995943 21.75 0.660156 21.4142 0.660156 21Z" fill="#101010"/>
</svg>
