<svg width="22" height="22" viewBox="0 0 22 22" fill="none" xmlns="http://www.w3.org/2000/svg">
<path fill-rule="evenodd" clip-rule="evenodd" d="M15.1497 8.0492C15.4429 8.34179 15.4434 8.81666 15.1508 9.10986L10.3208 13.9499C10.18 14.0909 9.98881 14.1702 9.78949 14.1701C9.59018 14.17 9.3991 14.0905 9.25846 13.9493L6.84846 11.5293C6.55617 11.2358 6.55715 10.7609 6.85065 10.4687C7.14415 10.1764 7.61902 10.1773 7.91131 10.4708L9.79043 12.3578L14.089 8.0503C14.3816 7.7571 14.8565 7.75661 15.1497 8.0492Z" fill="#101010"/>
<path fill-rule="evenodd" clip-rule="evenodd" d="M11.784 2.02137C11.3608 1.66722 10.6438 1.67248 10.2373 2.02009L8.65886 3.36876C8.42032 3.57483 8.11623 3.73105 7.83487 3.8356C7.55274 3.94044 7.22143 4.02007 6.90989 4.02007H5.17989C4.5341 4.02007 3.99989 4.55428 3.99989 5.20007V6.92007C3.99989 7.23211 3.92 7.5609 3.81699 7.83918C3.7136 8.11849 3.56139 8.4158 3.36605 8.65021L3.36163 8.65551L2.014 10.2427C2.01365 10.2431 2.0133 10.2435 2.01295 10.2439C1.66886 10.6547 1.66886 11.3654 2.01295 11.7762C2.0133 11.7766 2.01365 11.7771 2.014 11.7775L3.36608 13.3699C3.56141 13.6043 3.7136 13.9017 3.81699 14.181C3.92 14.4592 3.99989 14.788 3.99989 15.1001V16.8101C3.99989 17.4559 4.5341 17.9901 5.17989 17.9901H6.90989C7.22542 17.9901 7.5567 18.0692 7.83988 18.175C8.12251 18.2806 8.42302 18.4374 8.65981 18.6422C8.66023 18.6426 8.66066 18.6429 8.66108 18.6433L10.2358 19.9988C10.6586 20.3526 11.3747 20.3477 11.7814 20.0009C11.7818 20.0006 11.7821 20.0003 11.7825 20L13.3587 18.6433C13.3591 18.6429 13.3596 18.6425 13.3601 18.6421C13.5987 18.4357 13.9032 18.2792 14.1849 18.1745C14.467 18.0697 14.7983 17.9901 15.1099 17.9901H16.8099C17.4557 17.9901 17.9899 17.4559 17.9899 16.8101V15.1101C17.9899 14.7945 18.069 14.4633 18.1748 14.1801C18.2804 13.8975 18.4371 13.597 18.6419 13.3602C18.6423 13.3598 18.6427 13.3593 18.6431 13.3589L19.9986 11.7841C20.3524 11.3614 20.3475 10.6452 20.0008 10.2385C20.0005 10.2382 20.0002 10.2378 19.9999 10.2375L18.6431 8.66127C18.6427 8.66084 18.6424 8.66041 18.642 8.65998C18.4355 8.4213 18.279 8.11678 18.1744 7.83505C18.0695 7.55292 17.9899 7.22161 17.9899 6.91007V5.21007C17.9899 4.56428 17.4557 4.03007 16.8099 4.03007H15.1099C14.7944 4.03007 14.4631 3.95094 14.1799 3.84513C13.8972 3.73952 13.5967 3.58275 13.3599 3.37788C13.3595 3.37753 13.3591 3.37718 13.3587 3.37684L11.784 2.02137ZM9.26268 0.879863C10.2353 0.0483676 11.7761 0.0529949 12.7532 0.876598L12.7592 0.881613L14.3411 2.2433C14.4041 2.29792 14.533 2.37579 14.7049 2.44001C14.8767 2.5042 15.0254 2.53007 15.1099 2.53007H16.8099C18.2841 2.53007 19.4899 3.73585 19.4899 5.21007V6.91007C19.4899 6.98852 19.5153 7.13722 19.5804 7.31258C19.6455 7.48785 19.7237 7.61774 19.7767 7.67887L19.7783 7.68079L21.1399 9.26265C21.9716 10.2353 21.967 11.7762 21.1434 12.7534L21.1383 12.7594L19.7783 14.3393L19.7767 14.3413C19.722 14.4043 19.6442 14.5332 19.58 14.7051C19.5158 14.8769 19.4899 15.0256 19.4899 15.1101V16.8101C19.4899 18.2843 18.2841 19.4901 16.8099 19.4901H15.1099C15.0314 19.4901 14.8827 19.5154 14.7074 19.5806C14.5321 19.6457 14.4022 19.7239 14.3411 19.7768L14.3392 19.7785L12.7592 21.1385L12.7573 21.1401C11.7847 21.9718 10.2438 21.9672 9.26653 21.1435L9.26058 21.1385L7.68061 19.7785L7.67869 19.7768C7.61567 19.7222 7.48675 19.6443 7.31489 19.5801C7.14307 19.5159 6.99435 19.4901 6.90989 19.4901H5.17989C3.70567 19.4901 2.49989 18.2843 2.49989 16.8101V15.1001C2.49989 15.0221 2.47477 14.8759 2.41028 14.7017C2.34682 14.5303 2.26997 14.3985 2.2154 14.3322L0.865765 12.7427C0.0512509 11.7737 0.0512579 10.2465 0.865772 9.27748L0.868159 9.27464L2.21539 7.68791C2.26996 7.62163 2.34682 7.48989 2.41028 7.31846C2.47477 7.14424 2.49989 6.99803 2.49989 6.92007V5.20007C2.49989 3.72585 3.70567 2.52007 5.17989 2.52007H6.90989C6.98834 2.52007 7.13703 2.4947 7.3124 2.42954C7.48767 2.36441 7.61756 2.28628 7.67869 2.2333L7.68267 2.22985L9.26268 0.879863C9.26261 0.879923 9.26276 0.879802 9.26268 0.879863Z" fill="#101010"/>
</svg>
