<svg width="22" height="22" viewBox="0 0 22 22" fill="none" xmlns="http://www.w3.org/2000/svg">
<path fill-rule="evenodd" clip-rule="evenodd" d="M2.09467 2.09467C3.42914 0.760201 5.42603 0.25 8 0.25H14C16.574 0.25 18.5709 0.760201 19.9053 2.09467C21.2398 3.42914 21.75 5.42603 21.75 8V14C21.75 16.574 21.2398 18.5709 19.9053 19.9053C18.5709 21.2398 16.574 21.75 14 21.75H8C5.42603 21.75 3.42914 21.2398 2.09467 19.9053C0.760201 18.5709 0.25 16.574 0.25 14V8C0.25 5.42603 0.760201 3.42914 2.09467 2.09467ZM3.15533 3.15533C2.2398 4.07086 1.75 5.57397 1.75 8V14C1.75 16.426 2.2398 17.9291 3.15533 18.8447C4.07086 19.7602 5.57397 20.25 8 20.25H14C16.426 20.25 17.9291 19.7602 18.8447 18.8447C19.7602 17.9291 20.25 16.426 20.25 14V8C20.25 5.57397 19.7602 4.07086 18.8447 3.15533C17.9291 2.2398 16.426 1.75 14 1.75H8C5.57397 1.75 4.07086 2.2398 3.15533 3.15533Z" fill="#101010"/>
<path fill-rule="evenodd" clip-rule="evenodd" d="M0.769531 6.10999C0.769531 5.69577 1.10532 5.35999 1.51953 5.35999H20.4795C20.8937 5.35999 21.2295 5.69577 21.2295 6.10999C21.2295 6.5242 20.8937 6.85999 20.4795 6.85999H1.51953C1.10532 6.85999 0.769531 6.5242 0.769531 6.10999Z" fill="#101010"/>
<path fill-rule="evenodd" clip-rule="evenodd" d="M7.51953 0.359985C7.93374 0.359985 8.26953 0.695772 8.26953 1.10999V5.96999C8.26953 6.3842 7.93374 6.71999 7.51953 6.71999C7.10532 6.71999 6.76953 6.3842 6.76953 5.96999V1.10999C6.76953 0.695772 7.10532 0.359985 7.51953 0.359985Z" fill="#101010"/>
<path fill-rule="evenodd" clip-rule="evenodd" d="M14.4805 0.359985C14.8947 0.359985 15.2305 0.695772 15.2305 1.10999V5.51999C15.2305 5.9342 14.8947 6.26999 14.4805 6.26999C14.0663 6.26999 13.7305 5.9342 13.7305 5.51999V1.10999C13.7305 0.695772 14.0663 0.359985 14.4805 0.359985Z" fill="#101010"/>
<path fill-rule="evenodd" clip-rule="evenodd" d="M9.83674 11.333C9.70981 11.4064 9.5 11.6403 9.5 12.25V14.65C9.5 15.2598 9.70981 15.4936 9.83674 15.5671C9.96311 15.6401 10.2687 15.7052 10.7942 15.401L12.8742 14.201C12.8744 14.2009 12.8741 14.2011 12.8742 14.201C13.3993 13.8969 13.4975 13.5982 13.4975 13.45C13.4975 13.3018 13.3997 13.0035 12.8747 12.6994C12.8745 12.6993 12.8748 12.6995 12.8747 12.6994L10.7942 11.4991C10.2687 11.1948 9.96311 11.2599 9.83674 11.333ZM11.5453 10.2007C10.7409 9.73518 9.83673 9.60023 9.08576 10.0346C8.33519 10.4686 8 11.3198 8 12.25V14.65C8 15.5803 8.33519 16.4314 9.08576 16.8655C9.83674 17.2999 10.741 17.1649 11.5453 16.6994C11.5451 16.6995 11.5455 16.6993 11.5453 16.6994L13.6258 15.4991C14.4303 15.0333 14.9975 14.3168 14.9975 13.45C14.9975 12.5833 14.4303 11.8668 13.6258 11.401L12.5848 10.8004L11.5453 10.2007C11.5451 10.2006 11.5454 10.2008 11.5453 10.2007Z" fill="#101010"/>
</svg>
