<svg width="22" height="22" viewBox="0 0 22 22" fill="none" xmlns="http://www.w3.org/2000/svg">
<path fill-rule="evenodd" clip-rule="evenodd" d="M2.09467 2.09467C3.42914 0.760201 5.42603 0.25 8 0.25H14C16.574 0.25 18.5709 0.760201 19.9053 2.09467C21.2398 3.42914 21.75 5.42603 21.75 8V14C21.75 16.574 21.2398 18.5709 19.9053 19.9053C18.5709 21.2398 16.574 21.75 14 21.75H8C5.42603 21.75 3.42914 21.2398 2.09467 19.9053C0.760201 18.5709 0.25 16.574 0.25 14V8C0.25 5.42603 0.760201 3.42914 2.09467 2.09467ZM3.15533 3.15533C2.2398 4.07086 1.75 5.57397 1.75 8V14C1.75 16.426 2.2398 17.9291 3.15533 18.8447C4.07086 19.7602 5.57397 20.25 8 20.25H14C16.426 20.25 17.9291 19.7602 18.8447 18.8447C19.7602 17.9291 20.25 16.426 20.25 14V8C20.25 5.57397 19.7602 4.07086 18.8447 3.15533C17.9291 2.2398 16.426 1.75 14 1.75H8C5.57397 1.75 4.07086 2.2398 3.15533 3.15533Z" fill="#101010"/>
<path fill-rule="evenodd" clip-rule="evenodd" d="M0.769531 16.11C0.769531 15.6958 1.10532 15.36 1.51953 15.36H20.4795C20.8937 15.36 21.2295 15.6958 21.2295 16.11C21.2295 16.5242 20.8937 16.86 20.4795 16.86H1.51953C1.10532 16.86 0.769531 16.5242 0.769531 16.11Z" fill="#101010"/>
<path fill-rule="evenodd" clip-rule="evenodd" d="M0.769531 6.10999C0.769531 5.69577 1.10532 5.35999 1.51953 5.35999H20.4795C20.8937 5.35999 21.2295 5.69577 21.2295 6.10999C21.2295 6.5242 20.8937 6.85999 20.4795 6.85999H1.51953C1.10532 6.85999 0.769531 6.5242 0.769531 6.10999Z" fill="#101010"/>
<path fill-rule="evenodd" clip-rule="evenodd" d="M5.96973 15.36C6.38394 15.36 6.71973 15.6958 6.71973 16.11V20.46C6.71973 20.8742 6.38394 21.21 5.96973 21.21C5.55551 21.21 5.21973 20.8742 5.21973 20.46V16.11C5.21973 15.6958 5.55551 15.36 5.96973 15.36Z" fill="#101010"/>
<path fill-rule="evenodd" clip-rule="evenodd" d="M11 15.36C11.4142 15.36 11.75 15.6958 11.75 16.11V20.97C11.75 21.3842 11.4142 21.72 11 21.72C10.5858 21.72 10.25 21.3842 10.25 20.97V16.11C10.25 15.6958 10.5858 15.36 11 15.36Z" fill="#101010"/>
<path fill-rule="evenodd" clip-rule="evenodd" d="M15.9697 15.36C16.3839 15.36 16.7197 15.6958 16.7197 16.11V20.52C16.7197 20.9342 16.3839 21.27 15.9697 21.27C15.5555 21.27 15.2197 20.9342 15.2197 20.52V16.11C15.2197 15.6958 15.5555 15.36 15.9697 15.36Z" fill="#101010"/>
<path fill-rule="evenodd" clip-rule="evenodd" d="M5.96973 0.359985C6.38394 0.359985 6.71973 0.695772 6.71973 1.10999V5.45999C6.71973 5.8742 6.38394 6.20999 5.96973 6.20999C5.55551 6.20999 5.21973 5.8742 5.21973 5.45999V1.10999C5.21973 0.695772 5.55551 0.359985 5.96973 0.359985Z" fill="#101010"/>
<path fill-rule="evenodd" clip-rule="evenodd" d="M11 0.359985C11.4142 0.359985 11.75 0.695772 11.75 1.10999V5.96999C11.75 6.3842 11.4142 6.71999 11 6.71999C10.5858 6.71999 10.25 6.3842 10.25 5.96999V1.10999C10.25 0.695772 10.5858 0.359985 11 0.359985Z" fill="#101010"/>
<path fill-rule="evenodd" clip-rule="evenodd" d="M11 5.28003C11.4142 5.28003 11.75 5.61582 11.75 6.03003V17.03C11.75 17.4442 11.4142 17.78 11 17.78C10.5858 17.78 10.25 17.4442 10.25 17.03V6.03003C10.25 5.61582 10.5858 5.28003 11 5.28003Z" fill="#101010"/>
<path fill-rule="evenodd" clip-rule="evenodd" d="M15.9697 0.359985C16.3839 0.359985 16.7197 0.695772 16.7197 1.10999V5.51999C16.7197 5.9342 16.3839 6.26999 15.9697 6.26999C15.5555 6.26999 15.2197 5.9342 15.2197 5.51999V1.10999C15.2197 0.695772 15.5555 0.359985 15.9697 0.359985Z" fill="#101010"/>
</svg>
