<svg width="22" height="22" viewBox="0 0 22 22" fill="none" xmlns="http://www.w3.org/2000/svg">
<path fill-rule="evenodd" clip-rule="evenodd" d="M2.09467 2.09467C3.42914 0.760201 5.42603 0.25 8 0.25H14C16.574 0.25 18.5709 0.760201 19.9053 2.09467C21.2398 3.42914 21.75 5.42603 21.75 8V14C21.75 16.574 21.2398 18.5709 19.9053 19.9053C18.5709 21.2398 16.574 21.75 14 21.75H8C5.42603 21.75 3.42914 21.2398 2.09467 19.9053C0.760201 18.5709 0.25 16.574 0.25 14V8C0.25 5.42603 0.760201 3.42914 2.09467 2.09467ZM3.15533 3.15533C2.2398 4.07086 1.75 5.57397 1.75 8V14C1.75 16.426 2.2398 17.9291 3.15533 18.8447C4.07086 19.7602 5.57397 20.25 8 20.25H14C16.426 20.25 17.9291 19.7602 18.8447 18.8447C19.7602 17.9291 20.25 16.426 20.25 14V8C20.25 5.57397 19.7602 4.07086 18.8447 3.15533C17.9291 2.2398 16.426 1.75 14 1.75H8C5.57397 1.75 4.07086 2.2398 3.15533 3.15533Z" fill="#101010"/>
<path fill-rule="evenodd" clip-rule="evenodd" d="M9.35457 8.2328C9.12439 8.36509 8.84961 8.7251 8.84961 9.52004V12.48C8.84961 13.2685 9.12355 13.6302 9.35569 13.7642C9.58808 13.8983 10.0396 13.9548 10.7248 13.5604C10.725 13.5603 10.7246 13.5605 10.7248 13.5604L13.2842 12.0807L13.2854 12.0801C13.9708 11.6854 14.1471 11.267 14.1471 11C14.1471 10.7331 13.9708 10.3146 13.2854 9.92001L12.0042 9.17934L10.7254 8.44001C10.7252 8.4399 10.7256 8.44011 10.7254 8.44001C10.0383 8.04455 9.58601 8.09979 9.35457 8.2328ZM8.60715 6.93228C9.46314 6.44033 10.5113 6.58587 11.4738 7.14007L11.475 7.14074L12.755 7.88074L14.0338 8.62007C14.0341 8.6202 14.0336 8.61995 14.0338 8.62007C14.998 9.17544 15.6471 10.0122 15.6471 11C15.6471 11.9878 14.9988 12.8242 14.0346 13.3796C14.0343 13.3797 14.0349 13.3794 14.0346 13.3796L11.4738 14.86C10.5094 15.4153 9.46107 15.5568 8.60602 15.0634C7.75067 14.5699 7.34961 13.5916 7.34961 12.48V9.52004C7.34961 8.40498 7.74982 7.42499 8.60715 6.93228Z" fill="#101010"/>
</svg>
