<svg width="23" height="23" viewBox="0 0 23 23" fill="none" xmlns="http://www.w3.org/2000/svg">
<path fill-rule="evenodd" clip-rule="evenodd" d="M3.15533 3.15533C2.2398 4.07086 1.75 5.57397 1.75 8V14C1.75 16.426 2.2398 17.9291 3.15533 18.8447C4.07086 19.7602 5.57397 20.25 8 20.25H13.0335C13.0244 20.2351 13.0154 20.2202 13.0065 20.2052C12.5303 19.4147 12.25 18.4824 12.25 17.5C12.25 16.0799 12.8096 14.7832 13.7331 13.8363C14.6891 12.857 16.0307 12.25 17.5 12.25C18.504 12.25 19.4498 12.5326 20.25 13.0266V8C20.25 5.57397 19.7602 4.07086 18.8447 3.15533C17.9291 2.2398 16.426 1.75 14 1.75H8C5.57397 1.75 4.07086 2.2398 3.15533 3.15533ZM14.9264 20.2122C14.9848 20.2541 15.0225 20.2919 15.0391 20.3084L15.0403 20.3097C15.0567 20.3261 15.0699 20.337 15.1191 20.378C15.1281 20.3855 15.1384 20.394 15.1501 20.4038C15.3827 20.5976 15.476 20.9123 15.3865 21.2015C15.2971 21.4908 15.0425 21.6979 14.7411 21.7266C14.4951 21.75 14.2347 21.75 14.0161 21.75H8C5.42603 21.75 3.42914 21.2398 2.09467 19.9053C0.760201 18.5709 0.25 16.574 0.25 14V8C0.25 5.42603 0.760201 3.42914 2.09467 2.09467C3.42914 0.760201 5.42603 0.25 8 0.25H14C16.574 0.25 18.5709 0.760201 19.9053 2.09467C21.2398 3.42914 21.75 5.42603 21.75 8V14.0141C21.75 14.2347 21.75 14.4837 21.7269 14.7379C21.6981 15.0546 21.4728 15.3187 21.1646 15.3969C20.8564 15.4752 20.5323 15.3506 20.356 15.086C20.3454 15.0702 20.3275 15.0482 20.3097 15.0303C20.287 15.0077 20.2692 14.9871 20.2565 14.9717C20.2445 14.9571 20.2348 14.9441 20.2276 14.9343C19.5582 14.2059 18.5807 13.75 17.5 13.75C16.4494 13.75 15.4909 14.1831 14.8069 14.8836C14.1504 15.5568 13.75 16.4801 13.75 17.5C13.75 18.1968 13.9492 18.8637 14.2923 19.4327L14.2947 19.4367C14.4671 19.7267 14.6835 19.9926 14.9264 20.2122Z" fill="#101010"/>
<path fill-rule="evenodd" clip-rule="evenodd" d="M0.769531 6.10999C0.769531 5.69577 1.10532 5.35999 1.51953 5.35999H20.4795C20.8937 5.35999 21.2295 5.69577 21.2295 6.10999C21.2295 6.5242 20.8937 6.85999 20.4795 6.85999H1.51953C1.10532 6.85999 0.769531 6.5242 0.769531 6.10999Z" fill="#101010"/>
<path fill-rule="evenodd" clip-rule="evenodd" d="M7.51953 0.359985C7.93374 0.359985 8.26953 0.695772 8.26953 1.10999V5.96997C8.26953 6.38418 7.93374 6.71997 7.51953 6.71997C7.10532 6.71997 6.76953 6.38418 6.76953 5.96997V1.10999C6.76953 0.695772 7.10532 0.359985 7.51953 0.359985Z" fill="#101010"/>
<path fill-rule="evenodd" clip-rule="evenodd" d="M14.4795 0.359985C14.8937 0.359985 15.2295 0.695772 15.2295 1.10999V5.52002C15.2295 5.93423 14.8937 6.27002 14.4795 6.27002C14.0653 6.27002 13.7295 5.93423 13.7295 5.52002V1.10999C13.7295 0.695772 14.0653 0.359985 14.4795 0.359985Z" fill="#101010"/>
<path fill-rule="evenodd" clip-rule="evenodd" d="M14.8069 14.8836C15.4909 14.1831 16.4494 13.75 17.5 13.75L14.8069 14.8836ZM13.7333 13.8361C14.6893 12.8568 16.0307 12.25 17.5 12.25C19.0229 12.25 20.4121 12.9002 21.362 13.9523C21.3747 13.9659 21.3852 13.9782 21.3935 13.9884C21.4021 13.9989 21.4096 14.0085 21.4158 14.0168C21.4729 14.078 21.5288 14.1462 21.5793 14.2179C22.3145 15.1149 22.75 16.2627 22.75 17.5C22.75 17.9135 22.7043 18.3266 22.5969 18.735C22.4683 19.2579 22.2599 19.7535 21.996 20.201L21.9931 20.2059L21.9931 20.2059C21.0836 21.7218 19.4149 22.75 17.5 22.75C16.24 22.75 15.0896 22.3054 14.1969 21.5537L14.67 20.9918V20.98L14.1899 21.5561C14.1839 21.5512 14.1772 21.5457 14.1699 21.5396C14.1324 21.5087 14.0786 21.4642 14.0231 21.4123C14.0069 21.4003 13.9913 21.3877 13.9761 21.3744C13.5948 21.0408 13.2651 20.6397 13.0065 20.2053C12.5303 19.4148 12.25 18.4824 12.25 17.5C12.25 16.0799 12.8096 14.7832 13.7331 13.8363L13.7333 13.8361ZM15.081 20.3462C15.0609 20.3293 15.0513 20.3207 15.0403 20.3097L15.0391 20.3084C15.0226 20.2919 14.9848 20.2541 14.9264 20.2122C14.6835 19.9926 14.4671 19.7267 14.2946 19.4367L14.2947 19.4367L14.2923 19.4327C13.9492 18.8637 13.75 18.1968 13.75 17.5C13.75 16.4803 14.1503 15.557 14.8067 14.8839M15.081 20.3462C15.1096 20.3643 15.137 20.3843 15.1631 20.4063C15.7904 20.9345 16.6 21.25 17.5 21.25C18.8641 21.25 20.0547 20.5193 20.7055 19.4365C20.8997 19.1066 21.0501 18.7455 21.1414 18.3719L21.145 18.3581C21.2163 18.0887 21.25 17.8041 21.25 17.5C21.25 16.6099 20.9344 15.7885 20.4032 15.1494C20.3864 15.1291 20.3706 15.1079 20.356 15.086C20.3454 15.0702 20.3275 15.0482 20.3097 15.0303C20.287 15.0077 20.2692 14.9871 20.2565 14.9717C20.2446 14.9571 20.2348 14.9441 20.2276 14.9343C19.5582 14.2059 18.5807 13.75 17.5 13.75M21.4486 14.0633L21.4489 14.0638L21.4498 14.0652C21.4498 14.0652 21.4493 14.0643 21.4486 14.0633Z" fill="#101010"/>
<path fill-rule="evenodd" clip-rule="evenodd" d="M15.0703 17.48C15.0703 17.0658 15.4061 16.73 15.8203 16.73H19.1803C19.5945 16.73 19.9303 17.0658 19.9303 17.48C19.9303 17.8942 19.5945 18.23 19.1803 18.23H15.8203C15.4061 18.23 15.0703 17.8942 15.0703 17.48Z" fill="#101010"/>
<path fill-rule="evenodd" clip-rule="evenodd" d="M17.5 15.0901C17.9142 15.0901 18.25 15.4259 18.25 15.8401V19.2001C18.25 19.6143 17.9142 19.9501 17.5 19.9501C17.0858 19.9501 16.75 19.6143 16.75 19.2001V15.8401C16.75 15.4259 17.0858 15.0901 17.5 15.0901Z" fill="#101010"/>
</svg>
