<svg width="22" height="22" viewBox="0 0 22 22" fill="none" xmlns="http://www.w3.org/2000/svg">
<path fill-rule="evenodd" clip-rule="evenodd" d="M1.38967 2.9695C2.2698 2.08938 3.589 1.82983 5.21 1.82983H11.52C12.8626 1.82983 14.0258 2.00393 14.8908 2.55094C15.815 3.13531 16.2768 4.06181 16.377 5.25302C16.3963 5.45844 16.3947 5.81436 16.3912 6.07626C16.3893 6.21804 16.3864 6.34945 16.384 6.44527L16.3809 6.55989L16.38 6.59173L16.3797 6.60257C16.3666 7.01658 16.0203 7.34253 15.6063 7.32946C15.1923 7.31639 14.8673 6.97018 14.8804 6.55618C14.8804 6.55617 14.8804 6.55619 14.8804 6.55618L14.8807 6.54645L14.8815 6.51693L14.8845 6.40784C14.8867 6.31584 14.8895 6.19038 14.8913 6.0559C14.8952 5.76763 14.8937 5.49755 14.8835 5.39208L14.8825 5.38212C14.812 4.53552 14.5239 4.09362 14.0892 3.81873C13.5942 3.50574 12.7874 3.32983 11.52 3.32983H5.21C3.671 3.32983 2.8852 3.59529 2.45033 4.03016C2.01546 4.46504 1.75 5.25084 1.75 6.78983V15.2098C1.75 16.3315 2.08615 17.337 2.82722 17.9547L3.43593 18.3895C3.77299 18.6303 3.85106 19.0987 3.6103 19.4358C3.36954 19.7728 2.90113 19.8509 2.56407 19.6101L1.93407 19.1601C1.92075 19.1506 1.90774 19.1407 1.89507 19.1303C0.6685 18.1267 0.25 16.5992 0.25 15.2098V6.78983C0.25 5.16883 0.509544 3.84963 1.38967 2.9695Z" fill="#101010"/>
<path fill-rule="evenodd" clip-rule="evenodd" d="M15.7398 9.19995C16.154 9.19995 16.4898 9.53574 16.4898 9.94995V15.21C16.4898 16.831 16.2302 18.1502 15.3501 19.0303C14.47 19.9104 13.1508 20.17 11.5298 20.17H6.25977C5.84555 20.17 5.50977 19.8342 5.50977 19.42C5.50977 19.0057 5.84555 18.67 6.25977 18.67H11.5298C13.0688 18.67 13.8546 18.4045 14.2894 17.9696C14.7243 17.5347 14.9898 16.7489 14.9898 15.21V9.94995C14.9898 9.53574 15.3256 9.19995 15.7398 9.19995Z" fill="#101010"/>
<path fill-rule="evenodd" clip-rule="evenodd" d="M21.0003 4.98999C21.4145 4.98999 21.7503 5.32578 21.7503 5.73999V14.81C21.7503 15.7788 21.4218 16.6883 20.616 17.1068C19.8102 17.5254 18.8784 17.2705 18.0888 16.7134C18.0884 16.7132 18.0881 16.7129 18.0878 16.7127L15.3096 14.764C14.9705 14.5261 14.8884 14.0584 15.1263 13.7193C15.3642 13.3802 15.8319 13.2981 16.171 13.536L18.951 15.486L18.9528 15.4873C19.523 15.8897 19.8308 15.8244 19.9246 15.7757C20.0188 15.7267 20.2503 15.5112 20.2503 14.81V5.73999C20.2503 5.32578 20.5861 4.98999 21.0003 4.98999Z" fill="#101010"/>
<path fill-rule="evenodd" clip-rule="evenodd" d="M21.5499 0.659611C21.8428 0.952505 21.8428 1.42738 21.5499 1.72027L1.54986 21.7203C1.25697 22.0132 0.782094 22.0132 0.489201 21.7203C0.196308 21.4274 0.196308 20.9525 0.489201 20.6596L20.4892 0.659611C20.7821 0.366718 21.257 0.366718 21.5499 0.659611Z" fill="#101010"/>
</svg>
