<svg width="22" height="20" viewBox="0 0 22 20" fill="none" xmlns="http://www.w3.org/2000/svg">
<path fill-rule="evenodd" clip-rule="evenodd" d="M2.45033 3.03041C2.01546 3.46528 1.75 4.25108 1.75 5.79008V14.2101C1.75 15.1543 1.98641 16.0147 2.49609 16.6261C2.98571 17.2135 3.8096 17.6701 5.21 17.6701H11.53C13.0633 17.6701 13.8499 17.4049 14.2864 16.9692C14.7226 16.5339 14.99 15.7476 14.99 14.2101V5.79008C14.99 4.25108 14.7245 3.46528 14.2897 3.03041C13.8548 2.59553 13.069 2.33008 11.53 2.33008H5.21C3.671 2.33008 2.8852 2.59553 2.45033 3.03041ZM1.38967 1.96975C2.2698 1.08962 3.589 0.830078 5.21 0.830078H11.53C13.151 0.830078 14.4702 1.08962 15.3503 1.96975C16.2305 2.84987 16.49 4.16908 16.49 5.79008V14.2101C16.49 15.8325 16.2274 17.1512 15.3461 18.0309C14.4651 18.9103 13.1467 19.1701 11.53 19.1701H5.21C3.4504 19.1701 2.16929 18.5767 1.34391 17.5866C0.538594 16.6205 0.25 15.3758 0.25 14.2101V5.79008C0.25 4.16908 0.509544 2.84987 1.38967 1.96975Z" fill="#101010"/>
<path fill-rule="evenodd" clip-rule="evenodd" d="M18.9497 5.50481C18.9495 5.50494 18.9499 5.50468 18.9497 5.50481L16.4902 7.23V12.7599L18.9509 14.486L18.9527 14.4872C19.5229 14.8897 19.8307 14.8244 19.9245 14.7756C20.0188 14.7267 20.2502 14.5112 20.2502 13.81V6.18996C20.2502 5.48943 20.0191 5.27241 19.9231 5.22227C19.8272 5.17223 19.5185 5.10769 18.9497 5.50481ZM20.6174 3.89266C21.4214 4.31251 21.7502 5.2205 21.7502 6.18996V13.81C21.7502 14.7787 21.4217 15.6882 20.616 16.1068C19.8101 16.5254 18.8784 16.2704 18.0887 15.7134C18.0884 15.7132 18.0881 15.7129 18.0877 15.7127L15.3095 13.764C15.1094 13.6236 14.9902 13.3944 14.9902 13.15V6.83996C14.9902 6.59548 15.1094 6.36635 15.3095 6.22595L18.0907 4.27511C18.8816 3.72267 19.8133 3.47271 20.6174 3.89266Z" fill="#101010"/>
<path fill-rule="evenodd" clip-rule="evenodd" d="M10.5 6.75C10.0858 6.75 9.75 7.08579 9.75 7.5C9.75 7.91421 10.0858 8.25 10.5 8.25C10.9142 8.25 11.25 7.91421 11.25 7.5C11.25 7.08579 10.9142 6.75 10.5 6.75ZM8.25 7.5C8.25 6.25736 9.25736 5.25 10.5 5.25C11.7426 5.25 12.75 6.25736 12.75 7.5C12.75 8.74264 11.7426 9.75 10.5 9.75C9.25736 9.75 8.25 8.74264 8.25 7.5Z" fill="#101010"/>
</svg>
