<svg width="23" height="23" viewBox="0 0 23 23" fill="none" xmlns="http://www.w3.org/2000/svg">
<path fill-rule="evenodd" clip-rule="evenodd" d="M3.15533 3.15533C2.2398 4.07086 1.75 5.57397 1.75 8V14C1.75 16.426 2.2398 17.9291 3.15533 18.8447C4.07086 19.7602 5.57397 20.25 8 20.25H13.0246C12.5326 19.4519 12.25 18.5103 12.25 17.5C12.25 15.8476 13.0072 14.3632 14.2226 13.4034C15.1208 12.6813 16.2644 12.25 17.5 12.25C18.5103 12.25 19.4519 12.5326 20.25 13.0246V8C20.25 5.57397 19.7602 4.07086 18.8447 3.15533C17.9291 2.2398 16.426 1.75 14 1.75H8C5.57397 1.75 4.07086 2.2398 3.15533 3.15533ZM2.09467 2.09467C3.42914 0.760201 5.42603 0.25 8 0.25H14C16.574 0.25 18.5709 0.760201 19.9053 2.09467C21.2398 3.42914 21.75 5.42603 21.75 8V14.0155C21.75 14.2252 21.75 14.4754 21.7266 14.7211C21.6978 15.0243 21.4885 15.2799 21.197 15.368C20.9055 15.456 20.5897 15.3592 20.3977 15.1228C19.7156 14.2826 18.6769 13.75 17.5 13.75C16.617 13.75 15.8017 14.0577 15.1604 14.5742L15.1544 14.579C14.2915 15.2593 13.75 16.3138 13.75 17.5C13.75 18.677 14.2825 19.7156 15.1227 20.3977C15.3591 20.5897 15.456 20.9055 15.3679 21.197C15.2798 21.4884 15.0242 21.6977 14.7211 21.7266C14.4751 21.75 14.2247 21.75 14.0146 21.75H8C5.42603 21.75 3.42914 21.2398 2.09467 19.9053C0.760201 18.5709 0.25 16.574 0.25 14V8C0.25 5.42603 0.760201 3.42914 2.09467 2.09467Z" fill="#101010"/>
<path fill-rule="evenodd" clip-rule="evenodd" d="M0.769531 6.10999C0.769531 5.69577 1.10532 5.35999 1.51953 5.35999H20.4796C20.8938 5.35999 21.2296 5.69577 21.2296 6.10999C21.2296 6.5242 20.8938 6.85999 20.4796 6.85999H1.51953C1.10532 6.85999 0.769531 6.5242 0.769531 6.10999Z" fill="#101010"/>
<path fill-rule="evenodd" clip-rule="evenodd" d="M7.51953 0.359985C7.93374 0.359985 8.26953 0.695772 8.26953 1.10999V5.96997C8.26953 6.38418 7.93374 6.71997 7.51953 6.71997C7.10532 6.71997 6.76953 6.38418 6.76953 5.96997V1.10999C6.76953 0.695772 7.10532 0.359985 7.51953 0.359985Z" fill="#101010"/>
<path fill-rule="evenodd" clip-rule="evenodd" d="M14.4795 0.359985C14.8937 0.359985 15.2295 0.695772 15.2295 1.10999V5.52002C15.2295 5.93423 14.8937 6.27002 14.4795 6.27002C14.0653 6.27002 13.7295 5.93423 13.7295 5.52002V1.10999C13.7295 0.695772 14.0653 0.359985 14.4795 0.359985Z" fill="#101010"/>
<path fill-rule="evenodd" clip-rule="evenodd" d="M17.5 13.75C16.617 13.75 15.8017 14.0577 15.1604 14.5742L15.1544 14.579L15.1544 14.5789C14.2915 15.2593 13.75 16.3138 13.75 17.5C13.75 18.677 14.2825 19.7156 15.1227 20.3977L15.1294 20.4032L15.1294 20.4032C15.7664 20.9327 16.5973 21.25 17.5 21.25C18.4435 21.25 19.3009 20.8961 19.9754 20.3162C20.755 19.6181 21.25 18.6187 21.25 17.5C21.25 16.5973 20.9327 15.7664 20.4032 15.1294L20.3977 15.1228L20.3977 15.1228C19.7156 14.2826 18.6769 13.75 17.5 13.75ZM14.2226 13.4034C15.1208 12.6813 16.2644 12.25 17.5 12.25C19.1415 12.25 20.6017 12.9961 21.5596 14.174C22.3084 15.0765 22.75 16.2443 22.75 17.5C22.75 19.0791 22.047 20.4778 20.9694 21.4396L20.9599 21.448L20.9598 21.4479C20.0351 22.2456 18.8343 22.75 17.5 22.75C16.2443 22.75 15.0765 22.3084 14.1739 21.5595C12.996 20.6016 12.25 19.1415 12.25 17.5C12.25 15.8476 13.0072 14.3632 14.2226 13.4034Z" fill="#101010"/>
<path fill-rule="evenodd" clip-rule="evenodd" d="M17.78 15.3401C18.1942 15.3401 18.53 15.6759 18.53 16.0901V17.7801C18.53 18.0435 18.3918 18.2877 18.1659 18.4232L16.7659 19.2632C16.4107 19.4763 15.95 19.3611 15.7369 19.0059C15.5238 18.6507 15.6389 18.19 15.9941 17.9769L17.03 17.3554V16.0901C17.03 15.6759 17.3658 15.3401 17.78 15.3401Z" fill="#101010"/>
</svg>
