<svg width="22" height="22" viewBox="0 0 22 22" fill="none" xmlns="http://www.w3.org/2000/svg">
<path fill-rule="evenodd" clip-rule="evenodd" d="M5 8.10999C5.41421 8.10999 5.75 8.44577 5.75 8.85999V13.15C5.75 13.5642 5.41421 13.9 5 13.9C4.58579 13.9 4.25 13.5642 4.25 13.15V8.85999C4.25 8.44577 4.58579 8.10999 5 8.10999Z" fill="#101010"/>
<path fill-rule="evenodd" clip-rule="evenodd" d="M8 6.67993C8.41421 6.67993 8.75 7.01572 8.75 7.42993V14.5699C8.75 14.9842 8.41421 15.3199 8 15.3199C7.58579 15.3199 7.25 14.9842 7.25 14.5699V7.42993C7.25 7.01572 7.58579 6.67993 8 6.67993Z" fill="#101010"/>
<path fill-rule="evenodd" clip-rule="evenodd" d="M11 5.25C11.4142 5.25 11.75 5.58579 11.75 6V16C11.75 16.4142 11.4142 16.75 11 16.75C10.5858 16.75 10.25 16.4142 10.25 16V6C10.25 5.58579 10.5858 5.25 11 5.25Z" fill="#101010"/>
<path fill-rule="evenodd" clip-rule="evenodd" d="M14 6.67993C14.4142 6.67993 14.75 7.01572 14.75 7.42993V14.5699C14.75 14.9842 14.4142 15.3199 14 15.3199C13.5858 15.3199 13.25 14.9842 13.25 14.5699V7.42993C13.25 7.01572 13.5858 6.67993 14 6.67993Z" fill="#101010"/>
<path fill-rule="evenodd" clip-rule="evenodd" d="M17 8.10999C17.4142 8.10999 17.75 8.44577 17.75 8.85999V13.15C17.75 13.5642 17.4142 13.9 17 13.9C16.5858 13.9 16.25 13.5642 16.25 13.15V8.85999C16.25 8.44577 16.5858 8.10999 17 8.10999Z" fill="#101010"/>
<path fill-rule="evenodd" clip-rule="evenodd" d="M2.09467 2.09467C3.42914 0.760201 5.42603 0.25 8 0.25H14C16.574 0.25 18.5709 0.760201 19.9053 2.09467C21.2398 3.42914 21.75 5.42603 21.75 8V14C21.75 16.574 21.2398 18.5709 19.9053 19.9053C18.5709 21.2398 16.574 21.75 14 21.75H8C5.42603 21.75 3.42914 21.2398 2.09467 19.9053C0.760201 18.5709 0.25 16.574 0.25 14V8C0.25 5.42603 0.760201 3.42914 2.09467 2.09467ZM3.15533 3.15533C2.2398 4.07086 1.75 5.57397 1.75 8V14C1.75 16.426 2.2398 17.9291 3.15533 18.8447C4.07086 19.7602 5.57397 20.25 8 20.25H14C16.426 20.25 17.9291 19.7602 18.8447 18.8447C19.7602 17.9291 20.25 16.426 20.25 14V8C20.25 5.57397 19.7602 4.07086 18.8447 3.15533C17.9291 2.2398 16.426 1.75 14 1.75H8C5.57397 1.75 4.07086 2.2398 3.15533 3.15533Z" fill="#101010"/>
</svg>
