<svg width="16" height="18" viewBox="0 0 16 18" fill="none" xmlns="http://www.w3.org/2000/svg">
<path fill-rule="evenodd" clip-rule="evenodd" d="M13.5127 0.773651C14.6746 1.41566 15.25 2.76902 15.25 4.4101V13.5901C15.25 15.2272 14.6741 16.5794 13.5135 17.2224C12.3526 17.8656 10.9007 17.6364 9.51172 16.7656C9.51168 16.7656 9.51176 16.7656 9.51172 16.7656L6.60012 14.9409C6.3875 14.8162 6.15132 14.7501 5.93 14.7501H4.5C3.38439 14.7501 2.40993 14.4707 1.71967 13.7804C1.02941 13.0902 0.75 12.1157 0.75 11.0001V7.0001C0.75 5.8845 1.02941 4.91003 1.71967 4.21977C2.40993 3.52951 3.38439 3.2501 4.5 3.2501H5.93C6.15133 3.2501 6.38751 3.18398 6.60014 3.05932L9.51159 1.23467C9.51164 1.23465 9.51155 1.2347 9.51159 1.23467C10.8994 0.364586 12.3512 0.131866 13.5127 0.773651ZM12.7873 2.08656C12.2838 1.80836 11.4406 1.79569 10.3084 2.50554L7.38065 4.3404L7.3729 4.345C6.94733 4.59768 6.44625 4.7501 5.93 4.7501H4.5C3.61561 4.7501 3.09007 4.97069 2.78033 5.28043C2.47059 5.59017 2.25 6.11571 2.25 7.0001V11.0001C2.25 11.8845 2.47059 12.41 2.78033 12.7198C3.09007 13.0295 3.61561 13.2501 4.5 13.2501H5.93C6.44625 13.2501 6.94733 13.4025 7.3729 13.6552L7.38065 13.6598L10.3083 15.4946C11.4393 16.2037 12.2825 16.1896 12.7865 15.9103C13.2909 15.6308 13.75 14.923 13.75 13.5901V4.4101C13.75 3.07119 13.2904 2.36455 12.7873 2.08656Z" fill="#101010"/>
</svg>
