<svg width="22" height="18" viewBox="0 0 22 18" fill="none" xmlns="http://www.w3.org/2000/svg">
<path fill-rule="evenodd" clip-rule="evenodd" d="M13.2478 0.620497C14.4248 1.27401 15.01 2.64905 15.01 4.31996V13.67C15.01 15.3394 14.4283 16.7151 13.252 17.3692C12.0752 18.0236 10.6002 17.7907 9.18294 16.9062L6.20288 15.0462C6.00137 14.9202 5.7586 14.85 5.52 14.85H4.06C2.92439 14.85 1.93493 14.5655 1.23467 13.8653C0.53441 13.165 0.25 12.1756 0.25 11.04V6.95996C0.25 5.82435 0.53441 4.83489 1.23467 4.13463C1.93493 3.43437 2.92439 3.14996 4.06 3.14996H5.52C5.75165 3.14996 5.9867 3.08363 6.20678 2.95127L9.18135 1.08468C10.595 0.199113 12.0703 -0.0333223 13.2478 0.620497ZM9.97865 2.35523C11.1348 1.6311 11.9998 1.64327 12.5197 1.93191C13.0402 2.2209 13.51 2.95086 13.51 4.31996V13.67C13.51 15.0405 13.0417 15.7698 12.523 16.0582C12.0048 16.3464 11.1398 16.3593 9.97712 15.6337C9.97714 15.6337 9.9771 15.6337 9.97712 15.6337L6.9975 13.774C6.55901 13.4999 6.0414 13.35 5.52 13.35H4.06C3.15561 13.35 2.61507 13.1244 2.29533 12.8046C1.97559 12.4849 1.75 11.9443 1.75 11.04V6.95996C1.75 6.05556 1.97559 5.51503 2.29533 5.19529C2.61507 4.87555 3.15561 4.64996 4.06 4.64996H5.52C6.04677 4.64996 6.55009 4.49719 6.98873 4.23135L9.97865 2.35523Z" fill="#101010"/>
<path fill-rule="evenodd" clip-rule="evenodd" d="M16.25 9C16.25 8.58579 16.5858 8.25 17 8.25H21C21.4142 8.25 21.75 8.58579 21.75 9C21.75 9.41421 21.4142 9.75 21 9.75H17C16.5858 9.75 16.25 9.41421 16.25 9Z" fill="#101010"/>
<path fill-rule="evenodd" clip-rule="evenodd" d="M19 6.25C19.4142 6.25 19.75 6.58579 19.75 7V11C19.75 11.4142 19.4142 11.75 19 11.75C18.5858 11.75 18.25 11.4142 18.25 11V7C18.25 6.58579 18.5858 6.25 19 6.25Z" fill="#101010"/>
</svg>
