<svg width="20" height="18" viewBox="0 0 20 18" fill="none" xmlns="http://www.w3.org/2000/svg">
<path fill-rule="evenodd" clip-rule="evenodd" d="M13.3428 0.773651C14.5047 1.41566 15.0801 2.76902 15.0801 4.4101V13.5901C15.0801 15.2272 14.5041 16.5794 13.3436 17.2224C12.1827 17.8656 10.7308 17.6364 9.3418 16.7656C9.34176 16.7656 9.34184 16.7656 9.3418 16.7656L6.4302 14.9409C6.21758 14.8162 5.9814 14.7501 5.76008 14.7501H4.33008C3.21447 14.7501 2.24001 14.4707 1.54975 13.7804C0.859488 13.0902 0.580078 12.1157 0.580078 11.0001V7.0001C0.580078 5.8845 0.859488 4.91003 1.54975 4.21977C2.24001 3.52951 3.21447 3.2501 4.33008 3.2501H5.76008C5.98141 3.2501 6.21759 3.18398 6.43021 3.05932L9.34167 1.23467C9.34171 1.23465 9.34163 1.2347 9.34167 1.23467C10.7295 0.364586 12.1813 0.131866 13.3428 0.773651ZM12.6174 2.08656C12.1139 1.80836 11.2706 1.79569 10.1385 2.50554L7.21073 4.3404L7.20298 4.345C6.77741 4.59768 6.27633 4.7501 5.76008 4.7501H4.33008C3.44569 4.7501 2.92015 4.97069 2.61041 5.28043C2.30067 5.59017 2.08008 6.11571 2.08008 7.0001V11.0001C2.08008 11.8845 2.30067 12.41 2.61041 12.7198C2.92015 13.0295 3.44569 13.2501 4.33008 13.2501H5.76008C6.27633 13.2501 6.77741 13.4025 7.20298 13.6552L7.21073 13.6598L10.1384 15.4946C11.2693 16.2037 12.1125 16.1896 12.6166 15.9103C13.121 15.6308 13.5801 14.923 13.5801 13.5901V4.4101C13.5801 3.07119 13.1205 2.36455 12.6174 2.08656Z" fill="#101010"/>
<path fill-rule="evenodd" clip-rule="evenodd" d="M16.8797 4.40035C17.2109 4.1516 17.6811 4.21844 17.9298 4.54964C19.9102 7.18647 19.9102 10.8136 17.9298 13.4504C17.6811 13.7817 17.2109 13.8485 16.8797 13.5997C16.5485 13.351 16.4817 12.8808 16.7304 12.5496C18.31 10.4465 18.31 7.55362 16.7304 5.45045C16.4817 5.11925 16.5485 4.6491 16.8797 4.40035Z" fill="#101010"/>
</svg>
