<svg width="22" height="22" viewBox="0 0 22 22" fill="none" xmlns="http://www.w3.org/2000/svg">
<path fill-rule="evenodd" clip-rule="evenodd" d="M6.00049 6.75C5.75623 6.75 5.52446 6.76744 5.30453 6.80128L5.28387 6.80416C4.17655 6.94312 3.30607 7.41721 2.71003 8.11651C2.11246 8.81761 1.75049 9.79286 1.75049 11V16C1.75049 17.3296 2.1904 18.3793 2.90582 19.0947C3.62123 19.8101 4.67092 20.25 6.00049 20.25H16.0005C17.3301 20.25 18.3797 19.8101 19.0952 19.0947C19.8106 18.3793 20.2505 17.3296 20.2505 16V11C20.2505 9.7847 19.8822 8.80336 19.2752 8.09999C18.6696 7.39822 17.7856 6.92541 16.6639 6.79497C16.6516 6.79354 16.6394 6.79181 16.6272 6.78978C16.4473 6.7598 16.245 6.75 16.0005 6.75H6.00049ZM5.08682 5.31713C5.38362 5.27204 5.68838 5.25 6.00049 5.25H16.0005C16.2702 5.25 16.5612 5.25975 16.855 5.30711C18.3055 5.47974 19.54 6.1109 20.4108 7.12C21.2838 8.13163 21.7505 9.4753 21.7505 11V16C21.7505 17.6704 21.1904 19.1207 20.1558 20.1553C19.1212 21.1899 17.6709 21.75 16.0005 21.75H6.00049C4.33005 21.75 2.87974 21.1899 1.84516 20.1553C0.810574 19.1207 0.250488 17.6704 0.250488 16V11C0.250488 9.48713 0.708518 8.15239 1.56844 7.14349C2.42785 6.13519 3.64861 5.4999 5.08682 5.31713Z" fill="#101010"/>
<path fill-rule="evenodd" clip-rule="evenodd" d="M9.55158 2.55098L6.86084 5.25001H15.8237C15.6911 4.91449 15.4858 4.60015 15.2058 4.32451L15.1985 4.31738L13.4512 2.54997C12.3739 1.48301 10.6285 1.48335 9.55158 2.55098ZM5.24157 4.74968L8.49351 1.48773C10.1559 -0.162581 12.8478 -0.162573 14.5103 1.48773L14.5153 1.49268L16.2618 3.25925C17.0356 4.02278 17.4522 4.99997 17.501 6.0139C17.5119 6.24042 17.4198 6.45972 17.2503 6.61043C17.0809 6.76114 16.8523 6.82708 16.6286 6.7898C16.4487 6.75982 16.2464 6.75001 16.0019 6.75001H6.0019C5.75764 6.75001 5.52587 6.76746 5.30594 6.80129C5.02879 6.84393 4.75101 6.7284 4.58583 6.50181C4.42066 6.27522 4.39568 5.97541 4.52108 5.7246C4.70514 5.35648 4.95912 5.0322 5.24157 4.74968C5.24144 4.74981 5.2417 4.74955 5.24157 4.74968Z" fill="#101010"/>
<path fill-rule="evenodd" clip-rule="evenodd" d="M15.2505 13.5C15.2505 11.9858 16.4863 10.75 18.0005 10.75H21.0005C21.4147 10.75 21.7505 11.0858 21.7505 11.5C21.7505 11.9142 21.4147 12.25 21.0005 12.25H18.0005C17.3147 12.25 16.7505 12.8142 16.7505 13.5C16.7505 14.1858 17.3147 14.75 18.0005 14.75H21.0005C21.4147 14.75 21.7505 15.0858 21.7505 15.5C21.7505 15.9142 21.4147 16.25 21.0005 16.25H18.0005C16.4863 16.25 15.2505 15.0142 15.2505 13.5Z" fill="#101010"/>
</svg>
