<svg width="22" height="22" viewBox="0 0 22 22" fill="none" xmlns="http://www.w3.org/2000/svg">
<path fill-rule="evenodd" clip-rule="evenodd" d="M5.98164 5.25C5.98776 5.25 5.99388 5.25 6 5.25H16.8C16.8299 5.25 16.8597 5.25179 16.8894 5.25535C19.7995 5.60456 21.75 7.95472 21.75 11V16C21.75 17.6704 21.1899 19.1208 20.1553 20.1553C19.1207 21.1899 17.6704 21.75 16 21.75H11C10.5858 21.75 10.25 21.4142 10.25 21C10.25 20.5858 10.5858 20.25 11 20.25H16C17.3296 20.25 18.3793 19.8101 19.0947 19.0947C19.8101 18.3793 20.25 17.3296 20.25 16V11C20.25 8.66139 18.8203 7.01805 16.7534 6.75H6C5.70688 6.75 5.61297 6.75289 5.43717 6.81149C5.38806 6.82786 5.33739 6.8391 5.28596 6.84504C4.15378 6.97567 3.28472 7.44603 2.69563 8.1367C2.10398 8.83036 1.75 9.79932 1.75 11V12C1.75 12.4142 1.41421 12.75 1 12.75C0.585786 12.75 0.25 12.4142 0.25 12V11C0.25 9.50069 0.696021 8.16963 1.55437 7.16328C2.4008 6.17091 3.60493 5.54557 5.0402 5.36386C5.41671 5.24989 5.69984 5.24995 5.98164 5.25Z" fill="#101010"/>
<path fill-rule="evenodd" clip-rule="evenodd" d="M9.5344 2.52647L6.89341 5.24998H15.8512C15.7179 4.90054 15.5263 4.58673 15.2699 4.3303L13.4699 2.53031C12.3641 1.42449 10.6417 1.42321 9.5344 2.52647ZM5.26587 4.77366L8.46983 1.46959C10.1627 -0.223304 12.8377 -0.223241 14.5305 1.46965L16.3305 3.26964C17.0805 4.01962 17.4302 4.9929 17.5444 5.90696C17.5711 6.12042 17.5048 6.33506 17.3625 6.49633C17.2201 6.65761 17.0153 6.74998 16.8002 6.74998H6.00022C5.7071 6.74998 5.61318 6.75287 5.43739 6.81147C5.16789 6.9013 4.87076 6.83116 4.66989 6.63029C4.46901 6.42941 4.39887 6.13229 4.4887 5.86279C4.64586 5.39131 4.96189 5.0765 5.22586 4.81356C5.23934 4.80013 5.25268 4.78684 5.26587 4.77366Z" fill="#101010"/>
<path fill-rule="evenodd" clip-rule="evenodd" d="M15.25 13.5C15.25 11.9858 16.4858 10.75 18 10.75H21C21.4142 10.75 21.75 11.0858 21.75 11.5C21.75 11.9142 21.4142 12.25 21 12.25H18C17.3142 12.25 16.75 12.8142 16.75 13.5C16.75 14.1858 17.3142 14.75 18 14.75H21C21.4142 14.75 21.75 15.0858 21.75 15.5C21.75 15.9142 21.4142 16.25 21 16.25H18C16.4858 16.25 15.25 15.0142 15.25 13.5Z" fill="#101010"/>
<path fill-rule="evenodd" clip-rule="evenodd" d="M0.851562 17.2C0.851562 15.0158 2.61735 13.25 4.80157 13.25C6.98579 13.25 8.75156 15.0158 8.75156 17.2C8.75156 19.3842 6.98579 21.15 4.80157 21.15C2.61735 21.15 0.851562 19.3842 0.851562 17.2ZM4.80157 14.75C3.44578 14.75 2.35156 15.8442 2.35156 17.2C2.35156 18.5558 3.44578 19.65 4.80157 19.65C6.15735 19.65 7.25156 18.5558 7.25156 17.2C7.25156 15.8442 6.15735 14.75 4.80157 14.75Z" fill="#101010"/>
<path fill-rule="evenodd" clip-rule="evenodd" d="M2.53033 19.4697C2.82322 19.7626 2.82322 20.2374 2.53033 20.5303L1.53033 21.5303C1.23744 21.8232 0.762563 21.8232 0.46967 21.5303C0.176777 21.2374 0.176777 20.7626 0.46967 20.4697L1.46967 19.4697C1.76256 19.1768 2.23744 19.1768 2.53033 19.4697Z" fill="#101010"/>
</svg>
