<svg width="22" height="22" viewBox="0 0 22 22" fill="none" xmlns="http://www.w3.org/2000/svg">
<path fill-rule="evenodd" clip-rule="evenodd" d="M8.45758 1.92807C7.81674 2.21712 7.21545 2.92342 6.57889 4.39578C6.56944 4.41764 6.55895 4.43903 6.54747 4.45989C6.54656 4.4624 6.54545 4.46553 6.5441 4.46941L6.53198 4.50532C6.52482 4.52683 6.51668 4.548 6.50759 4.56876L6.44239 4.7178L6.40238 4.81782L5.23546 7.60485C5.44731 7.58063 5.66256 7.56815 5.88047 7.56815H8.23698L10.6509 1.96621C9.64425 1.67174 8.96924 1.6973 8.45758 1.92807ZM7.84086 0.560723C9.02514 0.0265697 10.3807 0.225552 11.9284 0.817656C12.119 0.890564 12.2717 1.03798 12.3512 1.2259C12.4307 1.41382 12.4302 1.62603 12.3498 1.81359L12.3198 1.88359L9.41925 8.61495C9.30073 8.88998 9.02996 9.06815 8.73047 9.06815H5.88047C5.30402 9.06815 4.75333 9.18674 4.25308 9.39871C3.97228 9.5177 3.64739 9.4548 3.43128 9.23962C3.21517 9.02444 3.15088 8.69982 3.26865 8.41851L5.01634 4.24404L5.05411 4.14961C5.05708 4.1422 5.06016 4.13484 5.06335 4.12753L5.11933 3.99959C5.13638 3.94864 5.16811 3.85945 5.21636 3.76754C5.88673 2.2266 6.67749 1.08544 7.84086 0.560723Z" fill="#101010"/>
<path fill-rule="evenodd" clip-rule="evenodd" d="M10.9711 1.22272C11.1248 0.864186 11.5276 0.68329 11.8976 0.80664C12.0212 0.84783 12.192 0.921546 12.2974 0.967071C12.3341 0.982912 12.3629 0.995339 12.379 1.0018L12.3914 1.00676L14.5996 1.93611C15.8614 2.45947 16.8604 3.04681 17.4996 3.83154C17.6126 3.96747 17.7196 4.11137 17.8166 4.28656C17.9182 4.44776 18.0143 4.63317 18.0785 4.84631C18.1218 4.95047 18.1561 5.05393 18.1817 5.15127C18.5226 6.23902 18.2832 7.46619 17.7461 8.79855C17.6001 9.16076 17.2006 9.35031 16.8277 9.2343C16.4628 9.12078 16.0598 9.06815 15.6405 9.06815H8.73047C8.4781 9.06815 8.24265 8.94123 8.10393 8.7304C7.96521 8.51958 7.94183 8.25312 8.0417 8.02135L10.9417 1.29136L10.9711 1.22272ZM12.057 2.49356L9.87032 7.56815H15.6405C15.9488 7.56815 16.2625 7.59007 16.5744 7.63978C16.8738 6.72509 16.9029 6.07434 16.7465 5.58766C16.7414 5.57195 16.7369 5.55607 16.7329 5.54005C16.7231 5.50082 16.707 5.45197 16.6851 5.40276C16.6691 5.36673 16.656 5.32949 16.6458 5.2914C16.6322 5.24026 16.6032 5.17262 16.5396 5.07372C16.5291 5.05744 16.5193 5.04077 16.5101 5.02373C16.4717 4.95233 16.4246 4.88466 16.3443 4.78829L16.3383 4.78113C15.9377 4.28809 15.2186 3.81659 14.0232 3.32096L14.0196 3.31945L12.057 2.49356Z" fill="#101010"/>
<path fill-rule="evenodd" clip-rule="evenodd" d="M4.2649 9.3989C2.79129 10.036 1.76221 11.501 1.76221 13.1984V15.1484C1.76221 15.3478 1.7789 15.5543 1.80591 15.7614C1.80797 15.7772 1.80953 15.793 1.81058 15.8089C1.90757 17.2776 2.34064 18.3036 3.02379 18.9868C3.70693 19.6699 4.73292 20.103 6.20163 20.2C6.21753 20.201 6.2334 20.2026 6.24921 20.2047C6.45627 20.2317 6.66278 20.2484 6.86221 20.2484H14.6622C16.4023 20.2484 17.608 19.8344 18.3968 19.1246C19.1787 18.421 19.6651 17.3234 19.7532 15.7089C19.7634 15.5066 19.7722 15.3259 19.7722 15.1484V13.1984C19.7722 11.3307 18.5302 9.75451 16.846 9.23654C16.4777 9.12811 16.0706 9.06836 15.6522 9.06836H5.89221C5.31957 9.06836 4.7787 9.18541 4.2649 9.3989ZM3.68375 8.01605C4.36868 7.73066 5.10642 7.56836 5.89221 7.56836H15.6522C16.2124 7.56836 16.764 7.64822 17.2747 7.7991L17.282 7.80126L17.282 7.80129C19.576 8.50448 21.2722 10.6474 21.2722 13.1984V15.1484C21.2722 15.3672 21.2614 15.583 21.2517 15.7778L21.2513 15.7858L21.2511 15.7891C21.149 17.6639 20.5655 19.1909 19.4001 20.2396C18.2414 21.2823 16.6221 21.7484 14.6622 21.7484H6.86221C6.59044 21.7484 6.32532 21.7265 6.07907 21.6951C4.37843 21.5789 2.97279 21.0571 1.96313 20.0474C0.953463 19.0378 0.431685 17.6321 0.315431 15.9315C0.284075 15.6853 0.262207 15.4201 0.262207 15.1484V13.1984C0.262207 10.8773 1.67118 8.88348 3.67534 8.01962L3.68372 8.016L3.68375 8.01605Z" fill="#101010"/>
<path fill-rule="evenodd" clip-rule="evenodd" d="M6.29158 4.05399C6.46671 4.26861 6.50928 4.56228 6.40231 4.81779L4.65231 8.99779C4.5773 9.17695 4.43572 9.32002 4.25736 9.3969C2.78151 10.033 1.75049 11.4992 1.75049 13.1982C1.75049 13.6124 1.4147 13.9482 1.00049 13.9482C0.586275 13.9482 0.250488 13.6124 0.250488 13.1982V10.2682C0.250488 7.06398 2.52973 4.39043 5.56551 3.7923C5.83728 3.73876 6.11645 3.83937 6.29158 4.05399ZM1.84769 9.2712C2.28987 8.81671 2.80783 8.4364 3.38077 8.15076L4.35863 5.81507C3.07859 6.53249 2.14137 7.78629 1.84769 9.2712Z" fill="#101010"/>
<path fill-rule="evenodd" clip-rule="evenodd" d="M16.8622 4.56396C17.0932 4.33591 17.4446 4.28234 17.7331 4.43121C19.8371 5.51715 21.2691 7.74109 21.2691 10.2677V13.1977C21.2691 13.6119 20.9333 13.9477 20.5191 13.9477C20.1049 13.9477 19.7691 13.6119 19.7691 13.1977C19.7691 11.3355 18.5327 9.75278 16.8436 9.24604C16.6419 9.18555 16.475 9.04311 16.3836 8.85351C16.2921 8.6639 16.2845 8.44459 16.3627 8.24913C16.8592 7.00799 16.9392 6.18007 16.7596 5.5693C16.7548 5.55314 16.7506 5.53682 16.7469 5.52037C16.7378 5.47908 16.7262 5.44888 16.7183 5.43309C16.5731 5.14276 16.6312 4.792 16.8622 4.56396ZM19.6701 9.26554C19.4735 8.28239 18.9938 7.39816 18.3209 6.70954C18.2747 7.15156 18.1692 7.61154 18.0149 8.09067C18.6367 8.37946 19.1969 8.7797 19.6701 9.26554Z" fill="#101010"/>
</svg>
