<svg width="22" height="20" viewBox="0 0 22 20" fill="none" xmlns="http://www.w3.org/2000/svg">
<path fill-rule="evenodd" clip-rule="evenodd" d="M5.25 9.15015C5.25 8.73593 5.58579 8.40015 6 8.40015H12C12.4142 8.40015 12.75 8.73593 12.75 9.15015C12.75 9.56436 12.4142 9.90015 12 9.90015H6C5.58579 9.90015 5.25 9.56436 5.25 9.15015Z" fill="#101010"/>
<path fill-rule="evenodd" clip-rule="evenodd" d="M4.69 1.59009C3.06422 1.59009 1.75 2.9043 1.75 4.53009V9.15009C1.75 9.5643 1.41421 9.90009 1 9.90009C0.585786 9.90009 0.25 9.5643 0.25 9.15009V4.53009C0.25 2.07588 2.23579 0.0900879 4.69 0.0900879H10.31C11.4814 0.0900879 12.5852 0.454861 13.4083 1.16079C14.242 1.87588 14.75 2.91137 14.75 4.15009C14.75 4.5643 14.4142 4.90009 14 4.90009C13.5858 4.90009 13.25 4.5643 13.25 4.15009C13.25 3.3488 12.933 2.7293 12.4317 2.29938C11.9198 1.86031 11.1785 1.59009 10.31 1.59009H4.69Z" fill="#101010"/>
<path fill-rule="evenodd" clip-rule="evenodd" d="M5 4.90015C3.20421 4.90015 1.75 6.35436 1.75 8.15015V15.1501C1.75 16.9459 3.20421 18.4001 5 18.4001H15C16.7958 18.4001 18.25 16.9459 18.25 15.1501V14.4501H18.07C16.8343 14.4501 15.5693 13.69 15.2157 12.3748L15.2147 12.371L15.2147 12.371C14.9451 11.3466 15.2656 10.3325 15.9515 9.66789C16.4629 9.1475 17.1633 8.8501 17.92 8.8501H18.25V8.15015C18.25 6.36436 16.7858 4.90015 15 4.90015H5ZM0.25 8.15015C0.25 5.52593 2.37579 3.40015 5 3.40015H15C17.6142 3.40015 19.75 5.53593 19.75 8.15015V9.6001C19.75 10.0143 19.4142 10.3501 19 10.3501H17.92C17.561 10.3501 17.2452 10.4893 17.0173 10.7233C17.0114 10.7294 17.0055 10.7353 16.9994 10.7412C16.692 11.0363 16.5365 11.4968 16.6648 11.9872C16.812 12.5312 17.3865 12.9501 18.07 12.9501H19C19.4142 12.9501 19.75 13.2859 19.75 13.7001V15.1501C19.75 17.7744 17.6242 19.9001 15 19.9001H5C2.37579 19.9001 0.25 17.7744 0.25 15.1501V8.15015Z" fill="#101010"/>
<path fill-rule="evenodd" clip-rule="evenodd" d="M17.9202 10.3501C17.5612 10.3501 17.2454 10.4893 17.0176 10.7233L17.0041 10.7368C16.7381 10.9965 16.5895 11.3663 16.6269 11.759L16.6277 11.7679L16.6277 11.7679C16.6806 12.4028 17.2911 12.9501 18.0402 12.9501H19.9702C20.1308 12.9501 20.2502 12.8211 20.2502 12.6801V10.6201C20.2502 10.4791 20.1308 10.3501 19.9702 10.3501H17.9202ZM15.9495 9.67011C16.4611 9.14834 17.1625 8.8501 17.9202 8.8501H19.9702C20.9497 8.8501 21.7502 9.64114 21.7502 10.6201V12.6801C21.7502 13.6591 20.9497 14.4501 19.9702 14.4501H18.0402C16.6307 14.4501 15.2626 13.4194 15.1332 11.8968C15.0525 11.0347 15.3807 10.2292 15.9495 9.67011Z" fill="#101010"/>
</svg>
