<svg width="23" height="23" viewBox="0 0 23 23" fill="none" xmlns="http://www.w3.org/2000/svg">
<path fill-rule="evenodd" clip-rule="evenodd" d="M10.5511 2.55098L7.86038 5.24998H16.8232C16.6906 4.91445 16.4853 4.60009 16.2053 4.32445L16.198 4.31733L14.4507 2.54995C13.3734 1.48301 11.628 1.48336 10.5511 2.55098ZM6.24108 4.74968L9.49302 1.48773C11.1555 -0.162581 13.8474 -0.162573 15.5098 1.48773L15.5148 1.49267L17.2613 3.25921C18.0351 4.02274 18.4517 4.99996 18.5005 6.01387C18.5115 6.24039 18.4193 6.45969 18.2498 6.6104C18.0804 6.76111 17.8518 6.82705 17.6281 6.78977C17.4482 6.75979 17.246 6.74998 17.0014 6.74998H7.00141C6.75716 6.74998 6.52538 6.76743 6.30545 6.80126C6.02831 6.8439 5.75052 6.72837 5.58534 6.50178C5.42017 6.27519 5.39519 5.97538 5.52059 5.72457C5.70466 5.35643 5.95865 5.03218 6.24108 4.74968C6.24095 4.74981 6.24121 4.74955 6.24108 4.74968Z" fill="#101010"/>
<path fill-rule="evenodd" clip-rule="evenodd" d="M5 14.75C3.20421 14.75 1.75 16.2042 1.75 18C1.75 18.6094 1.92052 19.1833 2.21838 19.6663L2.22467 19.6765L2.22459 19.6766C2.7844 20.6177 3.81412 21.25 5 21.25C6.18588 21.25 7.2156 20.6177 7.77541 19.6766L7.78154 19.6663L7.78162 19.6663C8.07948 19.1833 8.25 18.6094 8.25 18C8.25 16.2042 6.79579 14.75 5 14.75ZM0.25 18C0.25 15.3758 2.37579 13.25 5 13.25C7.62421 13.25 9.75 15.3758 9.75 18C9.75 18.8885 9.50169 19.7327 9.06151 20.4486C8.24062 21.8246 6.73196 22.75 5 22.75C3.26803 22.75 1.75936 21.8246 0.93848 20.4486C0.498301 19.7327 0.25 18.8885 0.25 18Z" fill="#101010"/>
<path fill-rule="evenodd" clip-rule="evenodd" d="M2.76172 17.9795C2.76172 17.5653 3.09751 17.2295 3.51172 17.2295H6.49172C6.90593 17.2295 7.24172 17.5653 7.24172 17.9795C7.24172 18.3937 6.90593 18.7295 6.49172 18.7295H3.51172C3.09751 18.7295 2.76172 18.3937 2.76172 17.9795Z" fill="#101010"/>
<path fill-rule="evenodd" clip-rule="evenodd" d="M5 15.7695C5.41421 15.7695 5.75 16.1053 5.75 16.5195V19.5095C5.75 19.9237 5.41421 20.2595 5 20.2595C4.58579 20.2595 4.25 19.9237 4.25 19.5095V16.5195C4.25 16.1053 4.58579 15.7695 5 15.7695Z" fill="#101010"/>
<path fill-rule="evenodd" clip-rule="evenodd" d="M7 6.75C6.75575 6.75 6.52397 6.76744 6.30404 6.80128L6.28339 6.80416C5.17606 6.94312 4.30559 7.41721 3.70955 8.11651C3.11197 8.81761 2.75 9.79286 2.75 11V13.818C3.4178 13.4568 4.18354 13.25 5 13.25C7.62421 13.25 9.75 15.3758 9.75 18C9.75 18.8077 9.54483 19.5787 9.17688 20.25H17C18.3296 20.25 19.3793 19.8101 20.0947 19.0947C20.8101 18.3793 21.25 17.3296 21.25 16V11C21.25 9.7847 20.8817 8.80336 20.2747 8.09999C19.6691 7.39822 18.7851 6.92541 17.6634 6.79497C17.6511 6.79354 17.6389 6.79181 17.6267 6.78978C17.4468 6.7598 17.2446 6.75 17 6.75H7ZM6.08633 5.31713C6.38313 5.27204 6.68789 5.25 7 5.25H17C17.2697 5.25 17.5608 5.25975 17.8545 5.30711C19.305 5.47974 20.5395 6.1109 21.4103 7.12C22.2833 8.13163 22.75 9.4753 22.75 11V16C22.75 17.6704 22.1899 19.1207 21.1553 20.1553C20.1207 21.1899 18.6704 21.75 17 21.75H7.63C7.31467 21.75 7.03302 21.5528 6.9252 21.2564C6.81739 20.9601 6.90644 20.628 7.14804 20.4254C7.39099 20.2216 7.60515 19.9684 7.77217 19.6821L7.78162 19.6663C8.07948 19.1833 8.25 18.6094 8.25 18C8.25 16.2042 6.79579 14.75 5 14.75C4.02649 14.75 3.15813 15.1788 2.56317 15.8553C2.35705 16.0897 2.02733 16.1719 1.73531 16.0617C1.44329 15.9516 1.25 15.6721 1.25 15.36V11C1.25 9.48713 1.70803 8.15239 2.56795 7.14349C3.42737 6.13519 4.64812 5.4999 6.08633 5.31713Z" fill="#101010"/>
<path fill-rule="evenodd" clip-rule="evenodd" d="M16.25 13.5C16.25 11.9858 17.4858 10.75 19 10.75H22C22.4142 10.75 22.75 11.0858 22.75 11.5C22.75 11.9142 22.4142 12.25 22 12.25H19C18.3142 12.25 17.75 12.8142 17.75 13.5C17.75 14.1858 18.3142 14.75 19 14.75H22C22.4142 14.75 22.75 15.0858 22.75 15.5C22.75 15.9142 22.4142 16.25 22 16.25H19C17.4858 16.25 16.25 15.0142 16.25 13.5Z" fill="#101010"/>
</svg>
