<svg width="22" height="22" viewBox="0 0 22 22" fill="none" xmlns="http://www.w3.org/2000/svg">
<path fill-rule="evenodd" clip-rule="evenodd" d="M7.51172 14.4385C7.51172 14.0243 7.84751 13.6885 8.26172 13.6885H13.2617C13.6759 13.6885 14.0117 14.0243 14.0117 14.4385C14.0117 14.8527 13.6759 15.1885 13.2617 15.1885H8.26172C7.84751 15.1885 7.51172 14.8527 7.51172 14.4385Z" fill="#101010"/>
<path fill-rule="evenodd" clip-rule="evenodd" d="M10.7617 11.248C11.1759 11.248 11.5117 11.5838 11.5117 11.998V16.998C11.5117 17.4123 11.1759 17.748 10.7617 17.748C10.3475 17.748 10.0117 17.4123 10.0117 16.998V11.998C10.0117 11.5838 10.3475 11.248 10.7617 11.248Z" fill="#101010"/>
<path fill-rule="evenodd" clip-rule="evenodd" d="M8.4571 1.92807C7.81625 2.21712 7.21497 2.92342 6.5784 4.39578C6.56895 4.41764 6.55846 4.43903 6.54698 4.45989C6.54607 4.4624 6.54496 4.46553 6.54361 4.46941L6.5315 4.50532C6.52433 4.52683 6.51619 4.548 6.5071 4.56876L6.4419 4.7178L6.40189 4.81782L5.23497 7.60485C5.44682 7.58063 5.66208 7.56815 5.87998 7.56815H8.2365L10.6504 1.96621C9.64376 1.67174 8.96875 1.6973 8.4571 1.92807ZM7.84037 0.560723C9.02466 0.0265697 10.3802 0.225552 11.928 0.817656C12.1185 0.890564 12.2712 1.03798 12.3507 1.2259C12.4302 1.41382 12.4297 1.62603 12.3493 1.81359L12.3193 1.88359L9.41876 8.61495C9.30024 8.88998 9.02947 9.06815 8.72998 9.06815H5.87998C5.30353 9.06815 4.75285 9.18674 4.2526 9.39871C3.97179 9.5177 3.64691 9.4548 3.4308 9.23962C3.21469 9.02444 3.15039 8.69982 3.26817 8.41851L5.01585 4.24404L5.05363 4.14961C5.05659 4.1422 5.05967 4.13484 5.06287 4.12753L5.11884 3.99959C5.1359 3.94864 5.16762 3.85945 5.21587 3.76754C5.88624 2.2266 6.677 1.08544 7.84037 0.560723Z" fill="#101010"/>
<path fill-rule="evenodd" clip-rule="evenodd" d="M10.9711 1.22272C11.1248 0.864186 11.5276 0.68329 11.8976 0.80664C12.0212 0.84783 12.192 0.921546 12.2974 0.967071C12.3341 0.982912 12.3629 0.995339 12.379 1.0018L12.3914 1.00676L14.5996 1.93611C15.8614 2.45947 16.8604 3.04681 17.4996 3.83154C17.6126 3.96747 17.7196 4.11137 17.8166 4.28656C17.9182 4.44776 18.0143 4.63317 18.0785 4.84631C18.1218 4.95047 18.1561 5.05393 18.1817 5.15127C18.5226 6.23902 18.2832 7.46619 17.7461 8.79855C17.6001 9.16076 17.2006 9.35031 16.8277 9.2343C16.4628 9.12078 16.0598 9.06815 15.6405 9.06815H8.73047C8.4781 9.06815 8.24265 8.94123 8.10393 8.7304C7.96521 8.51958 7.94183 8.25312 8.0417 8.02135L10.9417 1.29136L10.9711 1.22272ZM12.057 2.49356L9.87032 7.56815H15.6405C15.9488 7.56815 16.2625 7.59007 16.5744 7.63978C16.8738 6.72509 16.9029 6.07434 16.7465 5.58766C16.7414 5.57195 16.7369 5.55607 16.7329 5.54005C16.7231 5.50082 16.707 5.45197 16.6851 5.40276C16.6691 5.36673 16.656 5.32949 16.6458 5.2914C16.6322 5.24026 16.6032 5.17262 16.5396 5.07372C16.5291 5.05744 16.5193 5.04077 16.5101 5.02373C16.4717 4.95233 16.4246 4.88466 16.3443 4.78829L16.3383 4.78113C15.9377 4.28809 15.2186 3.81659 14.0232 3.32096L14.0196 3.31945L12.057 2.49356Z" fill="#101010"/>
<path fill-rule="evenodd" clip-rule="evenodd" d="M4.26442 9.3989C2.7908 10.036 1.76172 11.501 1.76172 13.1984V15.1484C1.76172 15.3478 1.77841 15.5543 1.80542 15.7614C1.80748 15.7772 1.80904 15.793 1.81009 15.8089C1.90708 17.2776 2.34015 18.3036 3.0233 18.9868C3.70644 19.6699 4.73243 20.103 6.20114 20.2C6.21705 20.201 6.23292 20.2026 6.24872 20.2047C6.45578 20.2317 6.66229 20.2484 6.86172 20.2484H14.6617C16.4018 20.2484 17.6075 19.8344 18.3963 19.1246C19.1782 18.421 19.6646 17.3234 19.7528 15.7089C19.7629 15.5066 19.7717 15.3259 19.7717 15.1484V13.1984C19.7717 11.3307 18.5297 9.75451 16.8455 9.23654C16.4772 9.12811 16.0702 9.06836 15.6517 9.06836H5.89172C5.31908 9.06836 4.77821 9.18541 4.26442 9.3989ZM3.68326 8.01605C4.3682 7.73066 5.10593 7.56836 5.89172 7.56836H15.6517C16.2119 7.56836 16.7636 7.64822 17.2742 7.7991L17.2815 7.80126L17.2815 7.80129C19.5755 8.50448 21.2717 10.6474 21.2717 13.1984V15.1484C21.2717 15.3672 21.2609 15.583 21.2512 15.7778L21.2508 15.7858L21.2506 15.7891C21.1485 17.6639 20.565 19.1909 19.3997 20.2396C18.2409 21.2823 16.6216 21.7484 14.6617 21.7484H6.86172C6.58995 21.7484 6.32483 21.7265 6.07859 21.6951C4.37794 21.5789 2.9723 21.0571 1.96264 20.0474C0.952975 19.0378 0.431196 17.6321 0.314943 15.9315C0.283587 15.6853 0.261719 15.4201 0.261719 15.1484V13.1984C0.261719 10.8773 1.67069 8.88348 3.67485 8.01962L3.68324 8.016L3.68326 8.01605Z" fill="#101010"/>
<path fill-rule="evenodd" clip-rule="evenodd" d="M6.29109 4.05399C6.46622 4.26861 6.50879 4.56228 6.40182 4.81779L4.65182 8.99779C4.57681 9.17695 4.43523 9.32002 4.25687 9.3969C2.78103 10.033 1.75 11.4992 1.75 13.1982C1.75 13.6124 1.41421 13.9482 1 13.9482C0.585786 13.9482 0.25 13.6124 0.25 13.1982V10.2682C0.25 7.06398 2.52924 4.39043 5.56502 3.7923C5.8368 3.73876 6.11596 3.83937 6.29109 4.05399ZM1.8472 9.2712C2.28938 8.81671 2.80734 8.4364 3.38028 8.15076L4.35814 5.81507C3.0781 6.53249 2.14089 7.78629 1.8472 9.2712Z" fill="#101010"/>
<path fill-rule="evenodd" clip-rule="evenodd" d="M16.8617 4.56396C17.0927 4.33591 17.4441 4.28234 17.7326 4.43121C19.8366 5.51715 21.2686 7.74109 21.2686 10.2677V13.1977C21.2686 13.6119 20.9328 13.9477 20.5186 13.9477C20.1044 13.9477 19.7686 13.6119 19.7686 13.1977C19.7686 11.3355 18.5322 9.75278 16.8431 9.24604C16.6415 9.18555 16.4745 9.04311 16.3831 8.85351C16.2916 8.6639 16.2841 8.44459 16.3622 8.24913C16.8587 7.00799 16.9387 6.18007 16.7591 5.5693C16.7543 5.55314 16.7501 5.53682 16.7465 5.52037C16.7373 5.47908 16.7257 5.44888 16.7178 5.43309C16.5726 5.14276 16.6307 4.792 16.8617 4.56396ZM19.6696 9.26554C19.473 8.28239 18.9933 7.39816 18.3204 6.70954C18.2742 7.15156 18.1687 7.61154 18.0144 8.09067C18.6362 8.37946 19.1964 8.7797 19.6696 9.26554Z" fill="#101010"/>
</svg>
