<svg width="16" height="22" viewBox="0 0 16 22" fill="none" xmlns="http://www.w3.org/2000/svg">
<path fill-rule="evenodd" clip-rule="evenodd" d="M1.34592 4.34592C2.11952 3.57232 3.21858 3.25 4.5 3.25H11.5C12.7814 3.25 13.8805 3.57232 14.6541 4.34592C15.4277 5.11952 15.75 6.21858 15.75 7.5V14.5C15.75 15.7814 15.4277 16.8805 14.6541 17.6541C13.8805 18.4277 12.7814 18.75 11.5 18.75H4.5C3.21858 18.75 2.11952 18.4277 1.34592 17.6541C0.572317 16.8805 0.25 15.7814 0.25 14.5V7.5C0.25 6.21858 0.572317 5.11952 1.34592 4.34592ZM2.40658 5.40658C2.01268 5.80048 1.75 6.45142 1.75 7.5V14.5C1.75 15.5486 2.01268 16.1995 2.40658 16.5934C2.80048 16.9873 3.45142 17.25 4.5 17.25H11.5C12.5486 17.25 13.1995 16.9873 13.5934 16.5934C13.9873 16.1995 14.25 15.5486 14.25 14.5V7.5C14.25 6.45142 13.9873 5.80048 13.5934 5.40658C13.1995 5.01268 12.5486 4.75 11.5 4.75H4.5C3.45142 4.75 2.80048 5.01268 2.40658 5.40658Z" fill="#101010"/>
<path fill-rule="evenodd" clip-rule="evenodd" d="M3.25 1C3.25 0.585786 3.58579 0.25 4 0.25H12C12.4142 0.25 12.75 0.585786 12.75 1C12.75 1.41421 12.4142 1.75 12 1.75H4C3.58579 1.75 3.25 1.41421 3.25 1Z" fill="#101010"/>
<path fill-rule="evenodd" clip-rule="evenodd" d="M3.25 21C3.25 20.5858 3.58579 20.25 4 20.25H12C12.4142 20.25 12.75 20.5858 12.75 21C12.75 21.4142 12.4142 21.75 12 21.75H4C3.58579 21.75 3.25 21.4142 3.25 21Z" fill="#101010"/>
<path fill-rule="evenodd" clip-rule="evenodd" d="M8 8.25C8.41421 8.25 8.75 8.58579 8.75 9V13C8.75 13.4142 8.41421 13.75 8 13.75C7.58579 13.75 7.25 13.4142 7.25 13V9C7.25 8.58579 7.58579 8.25 8 8.25Z" fill="#101010"/>
<path fill-rule="evenodd" clip-rule="evenodd" d="M11 10.25C11.4142 10.25 11.75 10.5858 11.75 11V13C11.75 13.4142 11.4142 13.75 11 13.75C10.5858 13.75 10.25 13.4142 10.25 13V11C10.25 10.5858 10.5858 10.25 11 10.25Z" fill="#101010"/>
<path fill-rule="evenodd" clip-rule="evenodd" d="M5 11.25C5.41421 11.25 5.75 11.5858 5.75 12V13C5.75 13.4142 5.41421 13.75 5 13.75C4.58579 13.75 4.25 13.4142 4.25 13V12C4.25 11.5858 4.58579 11.25 5 11.25Z" fill="#101010"/>
</svg>
