<svg width="20" height="22" viewBox="0 0 20 22" fill="none" xmlns="http://www.w3.org/2000/svg">
<path fill-rule="evenodd" clip-rule="evenodd" d="M2.09467 2.09467C3.42914 0.760201 5.42603 0.25 8 0.25H12C14.574 0.25 16.5709 0.760201 17.9053 2.09467C19.2398 3.42914 19.75 5.42603 19.75 8V14C19.75 16.574 19.2398 18.5709 17.9053 19.9053C16.5709 21.2398 14.574 21.75 12 21.75H8C5.42603 21.75 3.42914 21.2398 2.09467 19.9053C0.760201 18.5709 0.25 16.574 0.25 14V8C0.25 5.42603 0.760201 3.42914 2.09467 2.09467ZM3.15533 3.15533C2.2398 4.07086 1.75 5.57397 1.75 8V14C1.75 16.426 2.2398 17.9291 3.15533 18.8447C4.07086 19.7602 5.57397 20.25 8 20.25H12C14.426 20.25 15.9291 19.7602 16.8447 18.8447C17.7602 17.9291 18.25 16.426 18.25 14V8C18.25 5.57397 17.7602 4.07086 16.8447 3.15533C15.9291 2.2398 14.426 1.75 12 1.75H8C5.57397 1.75 4.07086 2.2398 3.15533 3.15533Z" fill="#101010"/>
<path fill-rule="evenodd" clip-rule="evenodd" d="M4.25152 6.72966C7.52576 3.8168 12.4743 3.8168 15.7485 6.72966C16.0214 6.97244 16.0797 7.3765 15.8866 7.68653L13.7066 11.1865C13.5897 11.3743 13.3958 11.5009 13.1768 11.5324C12.9578 11.5639 12.7361 11.4971 12.571 11.3499C11.1054 10.0434 8.89468 10.0434 7.42909 11.3499C7.26395 11.4971 7.04224 11.5639 6.82326 11.5324C6.60428 11.5009 6.41038 11.3743 6.29342 11.1865L4.11342 7.68653C3.92031 7.3765 3.97863 6.97244 4.25152 6.72966ZM5.73558 7.45373L7.13428 9.69933C8.88054 8.59357 11.1195 8.59357 12.8658 9.69933L14.2645 7.45373C11.7399 5.57544 8.26017 5.57544 5.73558 7.45373Z" fill="#101010"/>
</svg>
