<svg width="22" height="18" viewBox="0 0 22 18" fill="none" xmlns="http://www.w3.org/2000/svg">
<path fill-rule="evenodd" clip-rule="evenodd" d="M3.88475 9.24389C3.88456 9.24401 3.88495 9.24378 3.88475 9.24389L1.38599 10.7432C1.0308 10.9563 0.570105 10.8411 0.356994 10.4859C0.143883 10.1307 0.259056 9.67003 0.614242 9.45692L3.11547 7.95618C4.89237 6.89465 7.10785 6.89465 8.88476 7.95618C10.1879 8.73465 11.8124 8.73465 13.1155 7.95618C14.8924 6.89465 17.1079 6.89465 18.8848 7.95618L18.886 7.95691L21.386 9.45692C21.7412 9.67003 21.8563 10.1307 21.6432 10.4859C21.4301 10.8411 20.9694 10.9563 20.6142 10.7432L18.1155 9.24389C18.1153 9.24379 18.1156 9.244 18.1155 9.24389C16.8125 8.46573 15.1877 8.46552 13.8848 9.24389C12.1079 10.3054 9.89237 10.3054 8.11547 9.24389C6.81257 8.46553 5.18776 8.46576 3.88475 9.24389Z" fill="#101010"/>
<path fill-rule="evenodd" clip-rule="evenodd" d="M0.356994 0.514144C0.570105 0.158959 1.0308 0.0437849 1.38599 0.256896L3.88475 1.75616C3.88496 1.75628 3.88455 1.75604 3.88475 1.75616C5.18775 2.53426 6.81258 2.53451 8.11547 1.75616C9.89237 0.694634 12.1079 0.694634 13.8848 1.75616C15.1877 2.53452 16.8119 2.53463 18.1149 1.7565C18.1151 1.75639 18.1147 1.75662 18.1149 1.7565L20.6142 0.256896C20.9694 0.0437849 21.4301 0.158959 21.6432 0.514144C21.8563 0.869329 21.7412 1.33002 21.386 1.54314L18.8848 3.04387C17.1079 4.1054 14.8924 4.1054 13.1155 3.04387C11.8124 2.2654 10.1879 2.2654 8.88476 3.04387C7.10785 4.1054 4.89237 4.1054 3.11547 3.04387L3.11424 3.04314L0.614242 1.54314C0.259056 1.33002 0.143883 0.869329 0.356994 0.514144Z" fill="#101010"/>
<path fill-rule="evenodd" clip-rule="evenodd" d="M3.88475 16.2439C3.88456 16.244 3.88495 16.2438 3.88475 16.2439L1.38599 17.7432C1.0308 17.9563 0.570105 17.8411 0.356994 17.4859C0.143883 17.1307 0.259056 16.67 0.614242 16.4569L3.11547 14.9562C4.89237 13.8947 7.10785 13.8947 8.88476 14.9562C10.1879 15.7347 11.8124 15.7347 13.1155 14.9562C14.8924 13.8947 17.1079 13.8947 18.8848 14.9562L18.886 14.9569L21.386 16.4569C21.7412 16.67 21.8563 17.1307 21.6432 17.4859C21.4301 17.8411 20.9694 17.9563 20.6142 17.7432L18.1155 16.2439C18.1153 16.2438 18.1156 16.244 18.1155 16.2439C16.8125 15.4657 15.1877 15.4655 13.8848 16.2439C12.1079 17.3054 9.89237 17.3054 8.11547 16.2439C6.81257 15.4655 5.18776 15.4658 3.88475 16.2439Z" fill="#101010"/>
</svg>
