<svg width="16" height="22" viewBox="0 0 16 22" fill="none" xmlns="http://www.w3.org/2000/svg">
<path fill-rule="evenodd" clip-rule="evenodd" d="M8 1.75C4.54822 1.75 1.75 4.54822 1.75 8C1.75 11.4518 4.54822 14.25 8 14.25C11.4518 14.25 14.25 11.4518 14.25 8C14.25 4.54822 11.4518 1.75 8 1.75ZM0.25 8C0.25 3.71979 3.71979 0.25 8 0.25C12.2802 0.25 15.75 3.71979 15.75 8C15.75 12.2802 12.2802 15.75 8 15.75C3.71979 15.75 0.25 12.2802 0.25 8Z" fill="#101010"/>
<path fill-rule="evenodd" clip-rule="evenodd" d="M8 14.25C8.41421 14.25 8.75 14.5858 8.75 15V21C8.75 21.4142 8.41421 21.75 8 21.75C7.58579 21.75 7.25 21.4142 7.25 21V15C7.25 14.5858 7.58579 14.25 8 14.25Z" fill="#101010"/>
<path fill-rule="evenodd" clip-rule="evenodd" d="M4.25 18C4.25 17.5858 4.58579 17.25 5 17.25H11C11.4142 17.25 11.75 17.5858 11.75 18C11.75 18.4142 11.4142 18.75 11 18.75H5C4.58579 18.75 4.25 18.4142 4.25 18Z" fill="#101010"/>
</svg>
